<?xml version="1.0" encoding="UTF-8" standalone="no"?>
<!DOCTYPE svg PUBLIC "-//W3C//DTD SVG 1.1//EN"
 "http://www.w3.org/Graphics/SVG/1.1/DTD/svg11.dtd">
<!-- Generated by graphviz version 2.44.1 (20200629.0846)
 -->
<!-- Title: playrho::AllocatedArray&lt; T, Deleter &gt; Pages: 1 -->
<svg width="272pt" height="117pt"
 viewBox="0.00 0.00 271.50 117.00" xmlns="http://www.w3.org/2000/svg" xmlns:xlink="http://www.w3.org/1999/xlink">
<g id="graph0" class="graph" transform="scale(1 1) rotate(0) translate(4 113)">
<title>playrho::AllocatedArray&lt; T, Deleter &gt;</title>
<polygon fill="white" stroke="transparent" points="-4,4 -4,-113 267.5,-113 267.5,4 -4,4"/>
<!-- Node1 -->
<g id="node1" class="node">
<title>Node1</title>
<g id="a_node1"><a xlink:title="Allocated Array.">
<polygon fill="#bfbfbf" stroke="black" points="95.5,-0.5 95.5,-30.5 213.5,-30.5 213.5,-0.5 95.5,-0.5"/>
<text text-anchor="start" x="103.5" y="-18.5" font-family="Helvetica,sans-Serif" font-size="10.00">playrho::AllocatedArray</text>
<text text-anchor="middle" x="154.5" y="-7.5" font-family="Helvetica,sans-Serif" font-size="10.00">&lt; T, Deleter &gt;</text>
</a>
</g>
</g>
<!-- Node2 -->
<g id="node2" class="node">
<title>Node2</title>
<g id="a_node2"><a xlink:title=" ">
<polygon fill="white" stroke="#bfbfbf" points="0,-89.5 0,-108.5 115,-108.5 115,-89.5 0,-89.5"/>
<text text-anchor="middle" x="57.5" y="-96.5" font-family="Helvetica,sans-Serif" font-size="10.00">function&lt; void(void *)&gt;</text>
</a>
</g>
</g>
<!-- Node2&#45;&gt;Node1 -->
<g id="edge1" class="edge">
<title>Node2&#45;&gt;Node1</title>
<path fill="none" stroke="#9a32cd" stroke-dasharray="5,2" d="M71.3,-81.81C80.24,-71.79 92.44,-58.98 104.5,-49 112.48,-42.4 121.85,-36 130.31,-30.64"/>
<polygon fill="#9a32cd" stroke="#9a32cd" points="68.57,-79.62 64.62,-89.45 73.84,-84.23 68.57,-79.62"/>
<text text-anchor="middle" x="127.5" y="-57.5" font-family="Helvetica,sans-Serif" font-size="10.00"> m_deleter</text>
</g>
<!-- Node3 -->
<g id="node3" class="node">
<title>Node3</title>
<g id="a_node3"><a xlink:title=" ">
<polygon fill="white" stroke="#bfbfbf" points="133,-89.5 133,-108.5 176,-108.5 176,-89.5 133,-89.5"/>
<text text-anchor="middle" x="154.5" y="-96.5" font-family="Helvetica,sans-Serif" font-size="10.00">size_t</text>
</a>
</g>
</g>
<!-- Node3&#45;&gt;Node1 -->
<g id="edge2" class="edge">
<title>Node3&#45;&gt;Node1</title>
<path fill="none" stroke="#9a32cd" stroke-dasharray="5,2" d="M154.5,-79.23C154.5,-64.41 154.5,-44.05 154.5,-30.6"/>
<polygon fill="#9a32cd" stroke="#9a32cd" points="151,-79.28 154.5,-89.28 158,-79.28 151,-79.28"/>
<text text-anchor="middle" x="184" y="-63" font-family="Helvetica,sans-Serif" font-size="10.00"> m_max_size</text>
<text text-anchor="middle" x="184" y="-52" font-family="Helvetica,sans-Serif" font-size="10.00">m_size</text>
</g>
<!-- Node4 -->
<g id="node4" class="node">
<title>Node4</title>
<g id="a_node4"><a xlink:title=" ">
<polygon fill="white" stroke="#bfbfbf" points="222,-89.5 222,-108.5 251,-108.5 251,-89.5 222,-89.5"/>
<text text-anchor="middle" x="236.5" y="-96.5" font-family="Helvetica,sans-Serif" font-size="10.00">T</text>
</a>
</g>
</g>
<!-- Node4&#45;&gt;Node1 -->
<g id="edge3" class="edge">
<title>Node4&#45;&gt;Node1</title>
<path fill="none" stroke="#9a32cd" stroke-dasharray="5,2" d="M231.45,-79.66C227.97,-69.68 222.51,-57.63 214.5,-49 207.57,-41.53 198.52,-35.42 189.57,-30.58"/>
<polygon fill="#9a32cd" stroke="#9a32cd" points="228.17,-80.91 234.47,-89.43 234.86,-78.84 228.17,-80.91"/>
<text text-anchor="middle" x="245.5" y="-57.5" font-family="Helvetica,sans-Serif" font-size="10.00"> m_data</text>
</g>
</g>
</svg>
