<?xml version="1.0" encoding="UTF-8" standalone="no"?>
<!DOCTYPE svg PUBLIC "-//W3C//DTD SVG 1.1//EN"
 "http://www.w3.org/Graphics/SVG/1.1/DTD/svg11.dtd">
<!-- Generated by graphviz version 2.44.1 (20200629.0846)
 -->
<!-- Title: playrho::GrowableStack&lt; T, N &gt; Pages: 1 -->
<svg width="134pt" height="117pt"
 viewBox="0.00 0.00 133.50 117.00" xmlns="http://www.w3.org/2000/svg" xmlns:xlink="http://www.w3.org/1999/xlink">
<g id="graph0" class="graph" transform="scale(1 1) rotate(0) translate(4 113)">
<title>playrho::GrowableStack&lt; T, N &gt;</title>
<polygon fill="white" stroke="transparent" points="-4,4 -4,-113 129.5,-113 129.5,4 -4,4"/>
<!-- Node1 -->
<g id="node1" class="node">
<title>Node1</title>
<g id="a_node1"><a xlink:title="This is a growable LIFO stack with an initial capacity of N. If the stack size exceeds the initial ca...">
<polygon fill="#bfbfbf" stroke="black" points="0,-0.5 0,-30.5 121,-30.5 121,-0.5 0,-0.5"/>
<text text-anchor="start" x="8" y="-18.5" font-family="Helvetica,sans-Serif" font-size="10.00">playrho::GrowableStack</text>
<text text-anchor="middle" x="60.5" y="-7.5" font-family="Helvetica,sans-Serif" font-size="10.00">&lt; T, N &gt;</text>
</a>
</g>
</g>
<!-- Node2 -->
<g id="node2" class="node">
<title>Node2</title>
<g id="a_node2"><a xlink:title=" ">
<polygon fill="white" stroke="#bfbfbf" points="1,-89.5 1,-108.5 44,-108.5 44,-89.5 1,-89.5"/>
<text text-anchor="middle" x="22.5" y="-96.5" font-family="Helvetica,sans-Serif" font-size="10.00">size_t</text>
</a>
</g>
</g>
<!-- Node2&#45;&gt;Node1 -->
<g id="edge1" class="edge">
<title>Node2&#45;&gt;Node1</title>
<path fill="none" stroke="#9a32cd" stroke-dasharray="5,2" d="M19.42,-79.22C18.7,-69.75 19.17,-58.32 23.5,-49 26.82,-41.87 32.53,-35.66 38.48,-30.64"/>
<polygon fill="#9a32cd" stroke="#9a32cd" points="15.95,-79.7 20.64,-89.21 22.9,-78.85 15.95,-79.7"/>
<text text-anchor="middle" x="50.5" y="-63" font-family="Helvetica,sans-Serif" font-size="10.00"> m_capacity</text>
<text text-anchor="middle" x="50.5" y="-52" font-family="Helvetica,sans-Serif" font-size="10.00">m_count</text>
</g>
<!-- Node3 -->
<g id="node3" class="node">
<title>Node3</title>
<g id="a_node3"><a xlink:title=" ">
<polygon fill="white" stroke="#bfbfbf" points="85,-89.5 85,-108.5 114,-108.5 114,-89.5 85,-89.5"/>
<text text-anchor="middle" x="99.5" y="-96.5" font-family="Helvetica,sans-Serif" font-size="10.00">T</text>
</a>
</g>
</g>
<!-- Node3&#45;&gt;Node1 -->
<g id="edge2" class="edge">
<title>Node3&#45;&gt;Node1</title>
<path fill="none" stroke="#9a32cd" stroke-dasharray="5,2" d="M91.67,-79.87C87.58,-70.58 82.41,-59.12 77.5,-49 74.55,-42.93 71.13,-36.31 68.13,-30.64"/>
<polygon fill="#9a32cd" stroke="#9a32cd" points="88.56,-81.49 95.76,-89.25 94.97,-78.69 88.56,-81.49"/>
<text text-anchor="middle" x="106" y="-63" font-family="Helvetica,sans-Serif" font-size="10.00"> m_array</text>
<text text-anchor="middle" x="106" y="-52" font-family="Helvetica,sans-Serif" font-size="10.00">m_stack</text>
</g>
</g>
</svg>
