<?xml version="1.0" encoding="UTF-8" standalone="no"?>
<!DOCTYPE svg PUBLIC "-//W3C//DTD SVG 1.1//EN"
 "http://www.w3.org/Graphics/SVG/1.1/DTD/svg11.dtd">
<!-- Generated by graphviz version 2.44.1 (20200629.0846)
 -->
<!-- Title: playrho::d2::DistanceProxy Pages: 1 -->
<svg width="440pt" height="251pt"
 viewBox="0.00 0.00 439.50 251.00" xmlns="http://www.w3.org/2000/svg" xmlns:xlink="http://www.w3.org/1999/xlink">
<g id="graph0" class="graph" transform="scale(1 1) rotate(0) translate(4 247)">
<title>playrho::d2::DistanceProxy</title>
<polygon fill="white" stroke="transparent" points="-4,4 -4,-247 435.5,-247 435.5,4 -4,4"/>
<!-- Node1 -->
<g id="node1" class="node">
<title>Node1</title>
<g id="a_node1"><a xlink:title="Distance Proxy.">
<polygon fill="#bfbfbf" stroke="black" points="126,-0.5 126,-19.5 261,-19.5 261,-0.5 126,-0.5"/>
<text text-anchor="middle" x="193.5" y="-7.5" font-family="Helvetica,sans-Serif" font-size="10.00">playrho::d2::DistanceProxy</text>
</a>
</g>
</g>
<!-- Node2 -->
<g id="node2" class="node">
<title>Node2</title>
<g id="a_node2"><a xlink:href="structplayrho_1_1Vector.html" target="_top" xlink:title="Vector.">
<polygon fill="white" stroke="black" points="0,-73 0,-92 119,-92 119,-73 0,-73"/>
<text text-anchor="middle" x="59.5" y="-80" font-family="Helvetica,sans-Serif" font-size="10.00">playrho::Vector&lt; T, N &gt;</text>
</a>
</g>
</g>
<!-- Node2&#45;&gt;Node1 -->
<g id="edge1" class="edge">
<title>Node2&#45;&gt;Node1</title>
<path fill="none" stroke="#9a32cd" stroke-dasharray="5,2" d="M74.46,-65.59C83.79,-56.44 96.48,-45.34 109.5,-38 123.78,-29.95 140.79,-23.91 155.77,-19.61"/>
<polygon fill="#9a32cd" stroke="#9a32cd" points="71.71,-63.39 67.19,-72.98 76.7,-68.3 71.71,-63.39"/>
<text text-anchor="middle" x="135.5" y="-41" font-family="Helvetica,sans-Serif" font-size="10.00"> m_vertices</text>
</g>
<!-- Node3 -->
<g id="node3" class="node">
<title>Node3</title>
<g id="a_node3"><a xlink:title=" ">
<polygon fill="white" stroke="#bfbfbf" points="45,-151 45,-170 74,-170 74,-151 45,-151"/>
<text text-anchor="middle" x="59.5" y="-158" font-family="Helvetica,sans-Serif" font-size="10.00">T</text>
</a>
</g>
</g>
<!-- Node3&#45;&gt;Node2 -->
<g id="edge2" class="edge">
<title>Node3&#45;&gt;Node2</title>
<path fill="none" stroke="#9a32cd" stroke-dasharray="5,2" d="M59.5,-140.72C59.5,-125.2 59.5,-103.86 59.5,-92.12"/>
<polygon fill="#9a32cd" stroke="#9a32cd" points="56,-140.78 59.5,-150.78 63,-140.78 56,-140.78"/>
<text text-anchor="middle" x="81" y="-119" font-family="Helvetica,sans-Serif" font-size="10.00"> elements</text>
</g>
<!-- Node4 -->
<g id="node4" class="node">
<title>Node4</title>
<g id="a_node4"><a xlink:title=" ">
<polygon fill="white" stroke="#bfbfbf" points="137,-73 137,-92 172,-92 172,-73 137,-73"/>
<text text-anchor="middle" x="154.5" y="-80" font-family="Helvetica,sans-Serif" font-size="10.00">type</text>
</a>
</g>
</g>
<!-- Node4&#45;&gt;Node1 -->
<g id="edge3" class="edge">
<title>Node4&#45;&gt;Node1</title>
<path fill="none" stroke="#9a32cd" stroke-dasharray="5,2" d="M159.72,-62.94C162.36,-54.98 165.98,-45.74 170.5,-38 174.35,-31.41 179.87,-24.87 184.53,-19.87"/>
<polygon fill="#9a32cd" stroke="#9a32cd" points="156.29,-62.18 156.73,-72.76 162.99,-64.22 156.29,-62.18"/>
<text text-anchor="middle" x="191" y="-41" font-family="Helvetica,sans-Serif" font-size="10.00"> m_count</text>
</g>
<!-- Node5 -->
<g id="node5" class="node">
<title>Node5</title>
<g id="a_node5"><a xlink:href="classplayrho_1_1CheckedValue.html" target="_top" xlink:title=" ">
<polygon fill="white" stroke="black" points="190,-67.5 190,-97.5 307,-97.5 307,-67.5 190,-67.5"/>
<text text-anchor="start" x="198" y="-85.5" font-family="Helvetica,sans-Serif" font-size="10.00">playrho::CheckedValue</text>
<text text-anchor="middle" x="248.5" y="-74.5" font-family="Helvetica,sans-Serif" font-size="10.00">&lt; Length &gt;</text>
</a>
</g>
</g>
<!-- Node5&#45;&gt;Node1 -->
<g id="edge4" class="edge">
<title>Node5&#45;&gt;Node1</title>
<path fill="none" stroke="#9a32cd" stroke-dasharray="5,2" d="M230.95,-59.01C220.59,-45.73 208.06,-29.66 200.44,-19.89"/>
<polygon fill="#9a32cd" stroke="#9a32cd" points="228.46,-61.5 237.37,-67.23 233.98,-57.2 228.46,-61.5"/>
<text text-anchor="middle" x="261" y="-41" font-family="Helvetica,sans-Serif" font-size="10.00"> m_vertexRadius</text>
</g>
<!-- Node6 -->
<g id="node6" class="node">
<title>Node6</title>
<g id="a_node6"><a xlink:title=" ">
<polygon fill="white" stroke="#bfbfbf" points="129.5,-151 129.5,-170 175.5,-170 175.5,-151 129.5,-151"/>
<text text-anchor="middle" x="152.5" y="-158" font-family="Helvetica,sans-Serif" font-size="10.00">Length</text>
</a>
</g>
</g>
<!-- Node6&#45;&gt;Node5 -->
<g id="edge5" class="edge">
<title>Node6&#45;&gt;Node5</title>
<path fill="none" stroke="#9a32cd" stroke-dasharray="5,2" d="M171.72,-144.28C188.96,-130.64 214.04,-110.78 230.79,-97.52"/>
<polygon fill="#9a32cd" stroke="#9a32cd" points="169.18,-141.83 163.51,-150.78 173.53,-147.32 169.18,-141.83"/>
<text text-anchor="middle" x="226.5" y="-119" font-family="Helvetica,sans-Serif" font-size="10.00"> m_value</text>
</g>
<!-- Node7 -->
<g id="node7" class="node">
<title>Node7</title>
<g id="a_node7"><a xlink:href="classplayrho_1_1CheckedValue.html" target="_top" xlink:title="Checked value.">
<polygon fill="white" stroke="black" points="194,-145.5 194,-175.5 337,-175.5 337,-145.5 194,-145.5"/>
<text text-anchor="start" x="202" y="-163.5" font-family="Helvetica,sans-Serif" font-size="10.00">playrho::CheckedValue</text>
<text text-anchor="middle" x="265.5" y="-152.5" font-family="Helvetica,sans-Serif" font-size="10.00">&lt; ValueType, CheckerType &gt;</text>
</a>
</g>
</g>
<!-- Node7&#45;&gt;Node5 -->
<g id="edge6" class="edge">
<title>Node7&#45;&gt;Node5</title>
<path fill="none" stroke="orange" stroke-dasharray="5,2" d="M260.04,-135.09C257.28,-122.76 254.03,-108.22 251.68,-97.73"/>
<polygon fill="orange" stroke="orange" points="256.7,-136.21 262.3,-145.2 263.54,-134.68 256.7,-136.21"/>
<text text-anchor="middle" x="284" y="-119" font-family="Helvetica,sans-Serif" font-size="10.00"> &lt; Length &gt;</text>
</g>
<!-- Node8 -->
<g id="node8" class="node">
<title>Node8</title>
<g id="a_node8"><a xlink:title=" ">
<polygon fill="white" stroke="#bfbfbf" points="234.5,-223.5 234.5,-242.5 296.5,-242.5 296.5,-223.5 234.5,-223.5"/>
<text text-anchor="middle" x="265.5" y="-230.5" font-family="Helvetica,sans-Serif" font-size="10.00">ValueType</text>
</a>
</g>
</g>
<!-- Node8&#45;&gt;Node7 -->
<g id="edge7" class="edge">
<title>Node8&#45;&gt;Node7</title>
<path fill="none" stroke="#9a32cd" stroke-dasharray="5,2" d="M265.5,-213.24C265.5,-201.41 265.5,-186.38 265.5,-175.58"/>
<polygon fill="#9a32cd" stroke="#9a32cd" points="262,-213.36 265.5,-223.36 269,-213.36 262,-213.36"/>
<text text-anchor="middle" x="285.5" y="-197" font-family="Helvetica,sans-Serif" font-size="10.00"> m_value</text>
</g>
<!-- Node9 -->
<g id="node9" class="node">
<title>Node9</title>
<g id="a_node9"><a xlink:href="classplayrho_1_1d2_1_1UnitVec.html" target="_top" xlink:title="2&#45;D unit vector.">
<polygon fill="white" stroke="black" points="325.5,-73 325.5,-92 431.5,-92 431.5,-73 325.5,-73"/>
<text text-anchor="middle" x="378.5" y="-80" font-family="Helvetica,sans-Serif" font-size="10.00">playrho::d2::UnitVec</text>
</a>
</g>
</g>
<!-- Node9&#45;&gt;Node1 -->
<g id="edge8" class="edge">
<title>Node9&#45;&gt;Node1</title>
<path fill="none" stroke="#9a32cd" stroke-dasharray="5,2" d="M357.72,-67.5C342.87,-58.03 322.13,-45.87 302.5,-38 282.6,-30.02 259.67,-23.91 240,-19.54"/>
<polygon fill="#9a32cd" stroke="#9a32cd" points="355.85,-70.46 366.14,-72.98 359.67,-64.59 355.85,-70.46"/>
<text text-anchor="middle" x="350.5" y="-41" font-family="Helvetica,sans-Serif" font-size="10.00"> m_normals</text>
</g>
<!-- Node10 -->
<g id="node10" class="node">
<title>Node10</title>
<g id="a_node10"><a xlink:title=" ">
<polygon fill="white" stroke="#bfbfbf" points="361,-151 361,-170 396,-170 396,-151 361,-151"/>
<text text-anchor="middle" x="378.5" y="-158" font-family="Helvetica,sans-Serif" font-size="10.00">float</text>
</a>
</g>
</g>
<!-- Node10&#45;&gt;Node9 -->
<g id="edge9" class="edge">
<title>Node10&#45;&gt;Node9</title>
<path fill="none" stroke="#9a32cd" stroke-dasharray="5,2" d="M378.5,-140.72C378.5,-125.2 378.5,-103.86 378.5,-92.12"/>
<polygon fill="#9a32cd" stroke="#9a32cd" points="375,-140.78 378.5,-150.78 382,-140.78 375,-140.78"/>
<text text-anchor="middle" x="400" y="-119" font-family="Helvetica,sans-Serif" font-size="10.00"> m_elems</text>
</g>
</g>
</svg>
