<?xml version="1.0" encoding="UTF-8" standalone="no"?>
<!DOCTYPE svg PUBLIC "-//W3C//DTD SVG 1.1//EN"
 "http://www.w3.org/Graphics/SVG/1.1/DTD/svg11.dtd">
<!-- Generated by graphviz version 2.44.1 (20200629.0846)
 -->
<!-- Title: playrho::d2::BodyConstraint Pages: 1 -->
<svg width="952pt" height="199pt"
 viewBox="0.00 0.00 952.00 199.00" xmlns="http://www.w3.org/2000/svg" xmlns:xlink="http://www.w3.org/1999/xlink">
<g id="graph0" class="graph" transform="scale(1 1) rotate(0) translate(4 195)">
<title>playrho::d2::BodyConstraint</title>
<polygon fill="white" stroke="transparent" points="-4,4 -4,-195 948,-195 948,4 -4,4"/>
<!-- Node1 -->
<g id="node1" class="node">
<title>Node1</title>
<g id="a_node1"><a xlink:title="Constraint for a body.">
<polygon fill="#bfbfbf" stroke="black" points="806,-76.5 806,-95.5 944,-95.5 944,-76.5 806,-76.5"/>
<text text-anchor="middle" x="875" y="-83.5" font-family="Helvetica,sans-Serif" font-size="10.00">playrho::d2::BodyConstraint</text>
</a>
</g>
</g>
<!-- Node2 -->
<g id="node2" class="node">
<title>Node2</title>
<g id="a_node2"><a xlink:href="structplayrho_1_1Vector.html" target="_top" xlink:title=" ">
<polygon fill="white" stroke="black" points="362,-158.5 362,-177.5 492,-177.5 492,-158.5 362,-158.5"/>
<text text-anchor="middle" x="427" y="-165.5" font-family="Helvetica,sans-Serif" font-size="10.00">playrho::Vector&lt; Length &gt;</text>
</a>
</g>
</g>
<!-- Node2&#45;&gt;Node1 -->
<g id="edge1" class="edge">
<title>Node2&#45;&gt;Node1</title>
<path fill="none" stroke="#9a32cd" stroke-dasharray="5,2" d="M502.5,-168.11C576.8,-166.12 693.22,-157.21 788,-124 811.42,-115.8 837.34,-103.94 854.55,-95.66"/>
<polygon fill="#9a32cd" stroke="#9a32cd" points="502.21,-164.62 492.3,-168.35 502.38,-171.62 502.21,-164.62"/>
<text text-anchor="middle" x="647.5" y="-166" font-family="Helvetica,sans-Serif" font-size="10.00"> m_localCenter</text>
</g>
<!-- Node10 -->
<g id="node10" class="node">
<title>Node10</title>
<g id="a_node10"><a xlink:href="structplayrho_1_1d2_1_1Position.html" target="_top" xlink:title="2&#45;D positional data structure.">
<polygon fill="white" stroke="black" points="594.5,-114.5 594.5,-133.5 700.5,-133.5 700.5,-114.5 594.5,-114.5"/>
<text text-anchor="middle" x="647.5" y="-121.5" font-family="Helvetica,sans-Serif" font-size="10.00">playrho::d2::Position</text>
</a>
</g>
</g>
<!-- Node2&#45;&gt;Node10 -->
<g id="edge11" class="edge">
<title>Node2&#45;&gt;Node10</title>
<path fill="none" stroke="#9a32cd" stroke-dasharray="5,2" d="M485.6,-156.4C521.02,-149.27 565.85,-140.24 599.18,-133.53"/>
<polygon fill="#9a32cd" stroke="#9a32cd" points="484.52,-153.05 475.41,-158.45 485.91,-159.91 484.52,-153.05"/>
<text text-anchor="middle" x="543.5" y="-150" font-family="Helvetica,sans-Serif" font-size="10.00"> linear</text>
</g>
<!-- Node3 -->
<g id="node3" class="node">
<title>Node3</title>
<g id="a_node3"><a xlink:title=" ">
<polygon fill="white" stroke="#bfbfbf" points="144.5,-171.5 144.5,-190.5 190.5,-190.5 190.5,-171.5 144.5,-171.5"/>
<text text-anchor="middle" x="167.5" y="-178.5" font-family="Helvetica,sans-Serif" font-size="10.00">Length</text>
</a>
</g>
</g>
<!-- Node3&#45;&gt;Node2 -->
<g id="edge2" class="edge">
<title>Node3&#45;&gt;Node2</title>
<path fill="none" stroke="#9a32cd" stroke-dasharray="5,2" d="M200.96,-179.36C241.23,-177.33 310.83,-173.81 361.99,-171.23"/>
<polygon fill="#9a32cd" stroke="#9a32cd" points="200.71,-175.87 190.9,-179.87 201.06,-182.86 200.71,-175.87"/>
<text text-anchor="middle" x="286.5" y="-179" font-family="Helvetica,sans-Serif" font-size="10.00"> elements</text>
</g>
<!-- Node4 -->
<g id="node4" class="node">
<title>Node4</title>
<g id="a_node4"><a xlink:href="structplayrho_1_1Vector.html" target="_top" xlink:title="Vector.">
<polygon fill="white" stroke="black" points="108,-120.5 108,-139.5 227,-139.5 227,-120.5 108,-120.5"/>
<text text-anchor="middle" x="167.5" y="-127.5" font-family="Helvetica,sans-Serif" font-size="10.00">playrho::Vector&lt; T, N &gt;</text>
</a>
</g>
</g>
<!-- Node4&#45;&gt;Node2 -->
<g id="edge3" class="edge">
<title>Node4&#45;&gt;Node2</title>
<path fill="none" stroke="orange" stroke-dasharray="5,2" d="M237.36,-140.16C275.96,-145.86 323.79,-152.92 361.63,-158.5"/>
<polygon fill="orange" stroke="orange" points="237.66,-136.67 227.25,-138.67 236.63,-143.59 237.66,-136.67"/>
<text text-anchor="middle" x="286.5" y="-156" font-family="Helvetica,sans-Serif" font-size="10.00"> &lt; Length &gt;</text>
</g>
<!-- Node7 -->
<g id="node7" class="node">
<title>Node7</title>
<g id="a_node7"><a xlink:href="structplayrho_1_1Vector.html" target="_top" xlink:title=" ">
<polygon fill="white" stroke="black" points="346,-76.5 346,-95.5 508,-95.5 508,-76.5 346,-76.5"/>
<text text-anchor="middle" x="427" y="-83.5" font-family="Helvetica,sans-Serif" font-size="10.00">playrho::Vector&lt; LinearVelocity &gt;</text>
</a>
</g>
</g>
<!-- Node4&#45;&gt;Node7 -->
<g id="edge8" class="edge">
<title>Node4&#45;&gt;Node7</title>
<path fill="none" stroke="orange" stroke-dasharray="5,2" d="M234.25,-118.77C276.31,-111.58 330.28,-102.36 370.24,-95.53"/>
<polygon fill="orange" stroke="orange" points="233.64,-115.32 224.37,-120.45 234.82,-122.22 233.64,-115.32"/>
<text text-anchor="middle" x="286.5" y="-118" font-family="Helvetica,sans-Serif" font-size="10.00"> &lt; LinearVelocity &gt;</text>
</g>
<!-- Node5 -->
<g id="node5" class="node">
<title>Node5</title>
<g id="a_node5"><a xlink:title=" ">
<polygon fill="white" stroke="#bfbfbf" points="0,-120.5 0,-139.5 29,-139.5 29,-120.5 0,-120.5"/>
<text text-anchor="middle" x="14.5" y="-127.5" font-family="Helvetica,sans-Serif" font-size="10.00">T</text>
</a>
</g>
</g>
<!-- Node5&#45;&gt;Node4 -->
<g id="edge4" class="edge">
<title>Node5&#45;&gt;Node4</title>
<path fill="none" stroke="#9a32cd" stroke-dasharray="5,2" d="M39.27,-130C57.68,-130 83.99,-130 107.92,-130"/>
<polygon fill="#9a32cd" stroke="#9a32cd" points="39.17,-126.5 29.17,-130 39.17,-133.5 39.17,-126.5"/>
<text text-anchor="middle" x="68.5" y="-133" font-family="Helvetica,sans-Serif" font-size="10.00"> elements</text>
</g>
<!-- Node6 -->
<g id="node6" class="node">
<title>Node6</title>
<g id="a_node6"><a xlink:href="structplayrho_1_1d2_1_1Velocity.html" target="_top" xlink:title="2&#45;D velocity related data structure.">
<polygon fill="white" stroke="black" points="594.5,-76.5 594.5,-95.5 700.5,-95.5 700.5,-76.5 594.5,-76.5"/>
<text text-anchor="middle" x="647.5" y="-83.5" font-family="Helvetica,sans-Serif" font-size="10.00">playrho::d2::Velocity</text>
</a>
</g>
</g>
<!-- Node6&#45;&gt;Node1 -->
<g id="edge5" class="edge">
<title>Node6&#45;&gt;Node1</title>
<path fill="none" stroke="#9a32cd" stroke-dasharray="5,2" d="M710.72,-86C740.29,-86 775.71,-86 805.99,-86"/>
<polygon fill="#9a32cd" stroke="#9a32cd" points="710.52,-82.5 700.52,-86 710.52,-89.5 710.52,-82.5"/>
<text text-anchor="middle" x="761" y="-89" font-family="Helvetica,sans-Serif" font-size="10.00"> m_velocity</text>
</g>
<!-- Node7&#45;&gt;Node6 -->
<g id="edge6" class="edge">
<title>Node7&#45;&gt;Node6</title>
<path fill="none" stroke="#9a32cd" stroke-dasharray="5,2" d="M518.33,-86C544.2,-86 571.53,-86 594.28,-86"/>
<polygon fill="#9a32cd" stroke="#9a32cd" points="518.12,-82.5 508.12,-86 518.12,-89.5 518.12,-82.5"/>
<text text-anchor="middle" x="543.5" y="-89" font-family="Helvetica,sans-Serif" font-size="10.00"> linear</text>
</g>
<!-- Node8 -->
<g id="node8" class="node">
<title>Node8</title>
<g id="a_node8"><a xlink:title=" ">
<polygon fill="white" stroke="#bfbfbf" points="128.5,-69.5 128.5,-88.5 206.5,-88.5 206.5,-69.5 128.5,-69.5"/>
<text text-anchor="middle" x="167.5" y="-76.5" font-family="Helvetica,sans-Serif" font-size="10.00">LinearVelocity</text>
</a>
</g>
</g>
<!-- Node8&#45;&gt;Node7 -->
<g id="edge7" class="edge">
<title>Node8&#45;&gt;Node7</title>
<path fill="none" stroke="#9a32cd" stroke-dasharray="5,2" d="M216.84,-78.61C248.47,-78.53 290.7,-78.74 328,-80 333.79,-80.2 339.77,-80.44 345.79,-80.73"/>
<polygon fill="#9a32cd" stroke="#9a32cd" points="216.53,-75.12 206.54,-78.65 216.55,-82.12 216.53,-75.12"/>
<text text-anchor="middle" x="286.5" y="-83" font-family="Helvetica,sans-Serif" font-size="10.00"> elements</text>
</g>
<!-- Node9 -->
<g id="node9" class="node">
<title>Node9</title>
<g id="a_node9"><a xlink:title=" ">
<polygon fill="white" stroke="#bfbfbf" points="382,-38.5 382,-57.5 472,-57.5 472,-38.5 382,-38.5"/>
<text text-anchor="middle" x="427" y="-45.5" font-family="Helvetica,sans-Serif" font-size="10.00">angular_velocity)</text>
</a>
</g>
</g>
<!-- Node9&#45;&gt;Node6 -->
<g id="edge9" class="edge">
<title>Node9&#45;&gt;Node6</title>
<path fill="none" stroke="#9a32cd" stroke-dasharray="5,2" d="M482.08,-57.32C506.23,-61.49 535.04,-66.48 561,-71 571.69,-72.86 583.13,-74.86 594.05,-76.78"/>
<polygon fill="#9a32cd" stroke="#9a32cd" points="482.48,-53.84 472.04,-55.59 481.29,-60.74 482.48,-53.84"/>
<text text-anchor="middle" x="543.5" y="-74" font-family="Helvetica,sans-Serif" font-size="10.00"> angular</text>
</g>
<!-- Node10&#45;&gt;Node1 -->
<g id="edge10" class="edge">
<title>Node10&#45;&gt;Node1</title>
<path fill="none" stroke="#9a32cd" stroke-dasharray="5,2" d="M710.63,-113.53C744.06,-107.9 784.98,-101 817.5,-95.52"/>
<polygon fill="#9a32cd" stroke="#9a32cd" points="709.8,-110.12 700.52,-115.23 710.96,-117.02 709.8,-110.12"/>
<text text-anchor="middle" x="761" y="-112" font-family="Helvetica,sans-Serif" font-size="10.00"> m_position</text>
</g>
<!-- Node11 -->
<g id="node11" class="node">
<title>Node11</title>
<g id="a_node11"><a xlink:title=" ">
<polygon fill="white" stroke="#bfbfbf" points="391.5,-114.5 391.5,-133.5 462.5,-133.5 462.5,-114.5 391.5,-114.5"/>
<text text-anchor="middle" x="427" y="-121.5" font-family="Helvetica,sans-Serif" font-size="10.00">plane_angle)</text>
</a>
</g>
</g>
<!-- Node11&#45;&gt;Node10 -->
<g id="edge12" class="edge">
<title>Node11&#45;&gt;Node10</title>
<path fill="none" stroke="#9a32cd" stroke-dasharray="5,2" d="M473.07,-124C508.25,-124 557.2,-124 594.12,-124"/>
<polygon fill="#9a32cd" stroke="#9a32cd" points="472.62,-120.5 462.62,-124 472.62,-127.5 472.62,-120.5"/>
<text text-anchor="middle" x="543.5" y="-127" font-family="Helvetica,sans-Serif" font-size="10.00"> angular</text>
</g>
<!-- Node12 -->
<g id="node12" class="node">
<title>Node12</title>
<g id="a_node12"><a xlink:title=" ">
<polygon fill="white" stroke="#bfbfbf" points="607.5,-38.5 607.5,-57.5 687.5,-57.5 687.5,-38.5 607.5,-38.5"/>
<text text-anchor="middle" x="647.5" y="-45.5" font-family="Helvetica,sans-Serif" font-size="10.00">inverse_mass)</text>
</a>
</g>
</g>
<!-- Node12&#45;&gt;Node1 -->
<g id="edge13" class="edge">
<title>Node12&#45;&gt;Node1</title>
<path fill="none" stroke="#9a32cd" stroke-dasharray="5,2" d="M697.49,-55.96C724.25,-60.34 757.96,-65.9 788,-71 798.31,-72.75 809.31,-74.64 819.88,-76.48"/>
<polygon fill="#9a32cd" stroke="#9a32cd" points="698.03,-52.51 687.6,-54.35 696.91,-59.41 698.03,-52.51"/>
<text text-anchor="middle" x="761" y="-74" font-family="Helvetica,sans-Serif" font-size="10.00"> m_invMass</text>
</g>
<!-- Node13 -->
<g id="node13" class="node">
<title>Node13</title>
<g id="a_node13"><a xlink:title=" ">
<polygon fill="white" stroke="#bfbfbf" points="579,-0.5 579,-19.5 716,-19.5 716,-0.5 579,-0.5"/>
<text text-anchor="middle" x="647.5" y="-7.5" font-family="Helvetica,sans-Serif" font-size="10.00">inverse_moment_of_inertia)</text>
</a>
</g>
</g>
<!-- Node13&#45;&gt;Node1 -->
<g id="edge14" class="edge">
<title>Node13&#45;&gt;Node1</title>
<path fill="none" stroke="#9a32cd" stroke-dasharray="5,2" d="M699.77,-22C726.39,-28.73 759.26,-37.8 788,-48 811.38,-56.3 837.32,-68.14 854.53,-76.39"/>
<polygon fill="#9a32cd" stroke="#9a32cd" points="700.45,-18.56 689.9,-19.54 698.75,-25.36 700.45,-18.56"/>
<text text-anchor="middle" x="761" y="-51" font-family="Helvetica,sans-Serif" font-size="10.00"> m_invRotI</text>
</g>
</g>
</svg>
