<?xml version="1.0" encoding="UTF-8" standalone="no"?>
<!DOCTYPE svg PUBLIC "-//W3C//DTD SVG 1.1//EN"
 "http://www.w3.org/Graphics/SVG/1.1/DTD/svg11.dtd">
<!-- Generated by graphviz version 2.44.1 (20200629.0846)
 -->
<!-- Title: playrho::detail::IndexingNamedType&lt; T, Tag &gt; Pages: 1 -->
<svg width="431pt" height="230pt"
 viewBox="0.00 0.00 431.00 230.00" xmlns="http://www.w3.org/2000/svg" xmlns:xlink="http://www.w3.org/1999/xlink">
<g id="graph0" class="graph" transform="scale(1 1) rotate(0) translate(4 226)">
<title>playrho::detail::IndexingNamedType&lt; T, Tag &gt;</title>
<polygon fill="white" stroke="transparent" points="-4,4 -4,-226 427,-226 427,4 -4,4"/>
<!-- Node1 -->
<g id="node1" class="node">
<title>Node1</title>
<g id="a_node1"><a xlink:title="An indexable, hashable, named &quot;strong type&quot; template class.">
<polygon fill="#bfbfbf" stroke="black" points="0,-96 0,-126 120,-126 120,-96 0,-96"/>
<text text-anchor="start" x="8" y="-114" font-family="Helvetica,sans-Serif" font-size="10.00">playrho::detail::Indexing</text>
<text text-anchor="middle" x="60" y="-103" font-family="Helvetica,sans-Serif" font-size="10.00">NamedType&lt; T, Tag &gt;</text>
</a>
</g>
</g>
<!-- Node2 -->
<g id="node2" class="node">
<title>Node2</title>
<g id="a_node2"><a xlink:href="classplayrho_1_1detail_1_1IndexingNamedType.html" target="_top" xlink:title=" ">
<polygon fill="white" stroke="black" points="268,-180.5 268,-221.5 423,-221.5 423,-180.5 268,-180.5"/>
<text text-anchor="start" x="276" y="-209.5" font-family="Helvetica,sans-Serif" font-size="10.00">playrho::detail::Indexing</text>
<text text-anchor="start" x="276" y="-198.5" font-family="Helvetica,sans-Serif" font-size="10.00">NamedType&lt; const char *const</text>
<text text-anchor="middle" x="345.5" y="-187.5" font-family="Helvetica,sans-Serif" font-size="10.00"> *, struct TypeIdentifier &gt;</text>
</a>
</g>
</g>
<!-- Node1&#45;&gt;Node2 -->
<g id="edge1" class="edge">
<title>Node1&#45;&gt;Node2</title>
<path fill="none" stroke="orange" stroke-dasharray="5,2" d="M91.2,-131.63C104.97,-140.24 121.79,-149.68 138,-156 179.54,-172.19 228.16,-183.15 267.79,-190.2"/>
<polygon fill="orange" stroke="orange" points="92.94,-128.59 82.63,-126.14 89.16,-134.48 92.94,-128.59"/>
<text text-anchor="start" x="139.5" y="-200" font-family="Helvetica,sans-Serif" font-size="10.00"> &lt; const char *const</text>
<text text-anchor="middle" x="194" y="-189" font-family="Helvetica,sans-Serif" font-size="10.00"> *, struct TypeIdentifier &gt;</text>
</g>
<!-- Node3 -->
<g id="node3" class="node">
<title>Node3</title>
<g id="a_node3"><a xlink:href="classplayrho_1_1detail_1_1IndexingNamedType.html" target="_top" xlink:title=" ">
<polygon fill="white" stroke="black" points="273,-120.5 273,-161.5 418,-161.5 418,-120.5 273,-120.5"/>
<text text-anchor="start" x="281" y="-149.5" font-family="Helvetica,sans-Serif" font-size="10.00">playrho::detail::Indexing</text>
<text text-anchor="start" x="281" y="-138.5" font-family="Helvetica,sans-Serif" font-size="10.00">NamedType&lt; FixtureCounter,</text>
<text text-anchor="middle" x="345.5" y="-127.5" font-family="Helvetica,sans-Serif" font-size="10.00"> struct FixtureIdentifier &gt;</text>
</a>
</g>
</g>
<!-- Node1&#45;&gt;Node3 -->
<g id="edge2" class="edge">
<title>Node1&#45;&gt;Node3</title>
<path fill="none" stroke="orange" stroke-dasharray="5,2" d="M130.25,-118.33C173.55,-122.91 229.2,-128.8 272.93,-133.43"/>
<polygon fill="orange" stroke="orange" points="130.4,-114.82 120.09,-117.25 129.66,-121.79 130.4,-114.82"/>
<text text-anchor="start" x="140.5" y="-144" font-family="Helvetica,sans-Serif" font-size="10.00"> &lt; FixtureCounter, struct</text>
<text text-anchor="middle" x="194" y="-133" font-family="Helvetica,sans-Serif" font-size="10.00"> FixtureIdentifier &gt;</text>
</g>
<!-- Node4 -->
<g id="node4" class="node">
<title>Node4</title>
<g id="a_node4"><a xlink:href="classplayrho_1_1detail_1_1IndexingNamedType.html" target="_top" xlink:title=" ">
<polygon fill="white" stroke="black" points="271,-60.5 271,-101.5 420,-101.5 420,-60.5 271,-60.5"/>
<text text-anchor="start" x="279" y="-89.5" font-family="Helvetica,sans-Serif" font-size="10.00">playrho::detail::Indexing</text>
<text text-anchor="start" x="279" y="-78.5" font-family="Helvetica,sans-Serif" font-size="10.00">NamedType&lt; ContactCounter,</text>
<text text-anchor="middle" x="345.5" y="-67.5" font-family="Helvetica,sans-Serif" font-size="10.00"> struct ContactIdentifier &gt;</text>
</a>
</g>
</g>
<!-- Node1&#45;&gt;Node4 -->
<g id="edge3" class="edge">
<title>Node1&#45;&gt;Node4</title>
<path fill="none" stroke="orange" stroke-dasharray="5,2" d="M129.95,-94.28C132.66,-93.81 135.35,-93.38 138,-93 181.71,-86.67 231.09,-83.65 270.6,-82.22"/>
<polygon fill="orange" stroke="orange" points="129.27,-90.84 120.08,-96.11 130.55,-97.73 129.27,-90.84"/>
<text text-anchor="start" x="138" y="-107" font-family="Helvetica,sans-Serif" font-size="10.00"> &lt; ContactCounter, struct</text>
<text text-anchor="middle" x="194" y="-96" font-family="Helvetica,sans-Serif" font-size="10.00"> ContactIdentifier &gt;</text>
</g>
<!-- Node5 -->
<g id="node5" class="node">
<title>Node5</title>
<g id="a_node5"><a xlink:href="classplayrho_1_1detail_1_1IndexingNamedType.html" target="_top" xlink:title=" ">
<polygon fill="white" stroke="black" points="277,-0.5 277,-41.5 414,-41.5 414,-0.5 277,-0.5"/>
<text text-anchor="start" x="285" y="-29.5" font-family="Helvetica,sans-Serif" font-size="10.00">playrho::detail::Indexing</text>
<text text-anchor="start" x="285" y="-18.5" font-family="Helvetica,sans-Serif" font-size="10.00">NamedType&lt; BodyCounter,</text>
<text text-anchor="middle" x="345.5" y="-7.5" font-family="Helvetica,sans-Serif" font-size="10.00"> struct BodyIdentifier &gt;</text>
</a>
</g>
</g>
<!-- Node1&#45;&gt;Node5 -->
<g id="edge4" class="edge">
<title>Node1&#45;&gt;Node5</title>
<path fill="none" stroke="orange" stroke-dasharray="5,2" d="M85.62,-89.51C99.97,-78.11 118.95,-64.88 138,-57 182.22,-38.71 235.5,-29.71 276.86,-25.29"/>
<polygon fill="orange" stroke="orange" points="83.26,-86.91 77.74,-95.95 87.69,-92.33 83.26,-86.91"/>
<text text-anchor="start" x="144" y="-71" font-family="Helvetica,sans-Serif" font-size="10.00"> &lt; BodyCounter, struct</text>
<text text-anchor="middle" x="194" y="-60" font-family="Helvetica,sans-Serif" font-size="10.00"> BodyIdentifier &gt;</text>
</g>
</g>
</svg>
