<?xml version="1.0" encoding="UTF-8" standalone="no"?>
<!DOCTYPE svg PUBLIC "-//W3C//DTD SVG 1.1//EN"
 "http://www.w3.org/Graphics/SVG/1.1/DTD/svg11.dtd">
<!-- Generated by graphviz version 2.44.1 (20200629.0846)
 -->
<!-- Title: playrho::FlagGuard&lt; T &gt; Pages: 1 -->
<svg width="131pt" height="106pt"
 viewBox="0.00 0.00 131.00 106.00" xmlns="http://www.w3.org/2000/svg" xmlns:xlink="http://www.w3.org/1999/xlink">
<g id="graph0" class="graph" transform="scale(1 1) rotate(0) translate(4 102)">
<title>playrho::FlagGuard&lt; T &gt;</title>
<polygon fill="white" stroke="transparent" points="-4,4 -4,-102 127,-102 127,4 -4,4"/>
<!-- Node1 -->
<g id="node1" class="node">
<title>Node1</title>
<g id="a_node1"><a xlink:title="Flag guard type.">
<polygon fill="#bfbfbf" stroke="black" points="0,-0.5 0,-19.5 123,-19.5 123,-0.5 0,-0.5"/>
<text text-anchor="middle" x="61.5" y="-7.5" font-family="Helvetica,sans-Serif" font-size="10.00">playrho::FlagGuard&lt; T &gt;</text>
</a>
</g>
</g>
<!-- Node2 -->
<g id="node2" class="node">
<title>Node2</title>
<g id="a_node2"><a xlink:title=" ">
<polygon fill="white" stroke="#bfbfbf" points="47,-78.5 47,-97.5 76,-97.5 76,-78.5 47,-78.5"/>
<text text-anchor="middle" x="61.5" y="-85.5" font-family="Helvetica,sans-Serif" font-size="10.00">T</text>
</a>
</g>
</g>
<!-- Node2&#45;&gt;Node1 -->
<g id="edge1" class="edge">
<title>Node2&#45;&gt;Node1</title>
<path fill="none" stroke="#9a32cd" stroke-dasharray="5,2" d="M61.5,-68.22C61.5,-52.7 61.5,-31.36 61.5,-19.62"/>
<polygon fill="#9a32cd" stroke="#9a32cd" points="58,-68.28 61.5,-78.28 65,-68.28 58,-68.28"/>
<text text-anchor="middle" x="80" y="-52" font-family="Helvetica,sans-Serif" font-size="10.00"> m_flag</text>
<text text-anchor="middle" x="80" y="-41" font-family="Helvetica,sans-Serif" font-size="10.00">m_value</text>
</g>
</g>
</svg>
