<?xml version="1.0" encoding="UTF-8" standalone="no"?>
<!DOCTYPE svg PUBLIC "-//W3C//DTD SVG 1.1//EN"
 "http://www.w3.org/Graphics/SVG/1.1/DTD/svg11.dtd">
<!-- Generated by graphviz version 2.44.1 (20200629.0846)
 -->
<!-- Title: Physical Entities Pages: 1 -->
<svg width="359pt" height="64pt"
 viewBox="0.00 0.00 359.00 64.00" xmlns="http://www.w3.org/2000/svg" xmlns:xlink="http://www.w3.org/1999/xlink">
<g id="graph0" class="graph" transform="scale(1 1) rotate(0) translate(4 60)">
<title>Physical Entities</title>
<polygon fill="white" stroke="transparent" points="-4,4 -4,-60 355,-60 355,4 -4,4"/>
<!-- Node1 -->
<g id="node1" class="node">
<title>Node1</title>
<g id="a_node1"><a xlink:title="Concepts and types associated with physical entities within a world.">
<polygon fill="#bfbfbf" stroke="black" points="90,-37 0,-37 0,-18 90,-18 90,-37"/>
<text text-anchor="middle" x="45" y="-25" font-family="Helvetica,sans-Serif" font-size="10.00">Physical Entities</text>
</a>
</g>
</g>
<!-- Node3 -->
<g id="node2" class="node">
<title>Node3</title>
<g id="a_node2"><a xlink:href="group__JointsGroup.html" target="_top" xlink:title="The user creatable classes that specify constraints on one or more body instances.">
<polygon fill="white" stroke="black" points="321.5,-56 244.5,-56 244.5,-37 321.5,-37 321.5,-56"/>
<text text-anchor="middle" x="283" y="-44" font-family="Helvetica,sans-Serif" font-size="10.00">Joint Classes</text>
</a>
</g>
</g>
<!-- Node1&#45;&gt;Node3 -->
<g id="edge2" class="edge">
<title>Node1&#45;&gt;Node3</title>
<path fill="none" stroke="orange" stroke-dasharray="5,2" d="M90.11,-31.05C134.54,-34.63 202.35,-40.09 244.33,-43.47"/>
<text text-anchor="middle" x="152.5" y="-41.5" font-family="Helvetica,sans-Serif" font-size="10.00">playrho::d2::Joint</text>
</g>
<!-- Node2 -->
<g id="node3" class="node">
<title>Node2</title>
<g id="a_node3"><a xlink:href="group__ConstraintsGroup.html" target="_top" xlink:title="Constraints defined and used by the PlayRho library.">
<polygon fill="white" stroke="black" points="351,-19 215,-19 215,0 351,0 351,-19"/>
<text text-anchor="middle" x="283" y="-7" font-family="Helvetica,sans-Serif" font-size="10.00">Library Defined Constraints</text>
</a>
</g>
</g>
<!-- Node1&#45;&gt;Node2 -->
<g id="edge1" class="edge">
<title>Node1&#45;&gt;Node2</title>
<path fill="none" stroke="orange" stroke-dasharray="5,2" d="M82.51,-17.99C90.83,-16.18 99.68,-14.53 108,-13.5 143.09,-9.18 182.45,-7.97 214.85,-7.94"/>
<text text-anchor="middle" x="152.5" y="-16.5" font-family="Helvetica,sans-Serif" font-size="10.00">playrho::d2::Contact</text>
</g>
</g>
</svg>
