<?xml version="1.0" encoding="UTF-8" standalone="no"?>
<!DOCTYPE svg PUBLIC "-//W3C//DTD SVG 1.1//EN"
 "http://www.w3.org/Graphics/SVG/1.1/DTD/svg11.dtd">
<!-- Generated by graphviz version 2.44.1 (20200629.0846)
 -->
<!-- Title: Graphical Class Hierarchy Pages: 1 -->
<svg width="256pt" height="149pt"
 viewBox="0.00 0.00 256.00 148.50" xmlns="http://www.w3.org/2000/svg" xmlns:xlink="http://www.w3.org/1999/xlink">
<g id="graph0" class="graph" transform="scale(1 1) rotate(0) translate(4 144.5)">
<title>Graphical Class Hierarchy</title>
<polygon fill="white" stroke="transparent" points="-4,4 -4,-144.5 252,-144.5 252,4 -4,4"/>
<!-- Node164 -->
<g id="node1" class="node">
<title>Node164</title>
<g id="a_node1"><a xlink:title=" ">
<polygon fill="white" stroke="#bfbfbf" points="0,-55 0,-74 91,-74 91,-55 0,-55"/>
<text text-anchor="middle" x="45.5" y="-62" font-family="Helvetica,sans-Serif" font-size="10.00">integral_constant</text>
</a>
</g>
</g>
<!-- Node0 -->
<g id="node2" class="node">
<title>Node0</title>
<g id="a_node2"><a xlink:href="classstd_1_1tuple__size_3_01playrho_1_1ArrayList_3_01T_00_01N_00_01SIZE__TYPE_01_4_01_4.html" target="_top" xlink:title="Tuple size specialization for ArrayList classes.">
<polygon fill="white" stroke="black" points="127,-99 127,-140 248,-140 248,-99 127,-99"/>
<text text-anchor="start" x="135" y="-128" font-family="Helvetica,sans-Serif" font-size="10.00">std::tuple_size&lt; playrho</text>
<text text-anchor="start" x="135" y="-117" font-family="Helvetica,sans-Serif" font-size="10.00">::ArrayList&lt; T, N, SIZE</text>
<text text-anchor="middle" x="187.5" y="-106" font-family="Helvetica,sans-Serif" font-size="10.00">_TYPE &gt; &gt;</text>
</a>
</g>
</g>
<!-- Node164&#45;&gt;Node0 -->
<g id="edge1" class="edge">
<title>Node164&#45;&gt;Node0</title>
<path fill="none" stroke="midnightblue" d="M80.44,-77.83C96.6,-84.18 116.28,-91.91 134.28,-98.98"/>
<polygon fill="midnightblue" stroke="midnightblue" points="81.47,-74.48 70.89,-74.08 78.91,-80.99 81.47,-74.48"/>
</g>
<!-- Node166 -->
<g id="node3" class="node">
<title>Node166</title>
<g id="a_node3"><a xlink:href="classstd_1_1tuple__size_3_01playrho_1_1d2_1_1UnitVec_01_4.html" target="_top" xlink:title="Tuple size info for playrho::d2::UnitVec.">
<polygon fill="white" stroke="black" points="127,-49.5 127,-79.5 248,-79.5 248,-49.5 127,-49.5"/>
<text text-anchor="start" x="135" y="-67.5" font-family="Helvetica,sans-Serif" font-size="10.00">std::tuple_size&lt; playrho</text>
<text text-anchor="middle" x="187.5" y="-56.5" font-family="Helvetica,sans-Serif" font-size="10.00">::d2::UnitVec &gt;</text>
</a>
</g>
</g>
<!-- Node164&#45;&gt;Node166 -->
<g id="edge2" class="edge">
<title>Node164&#45;&gt;Node166</title>
<path fill="none" stroke="midnightblue" d="M101.26,-64.5C109.67,-64.5 118.4,-64.5 126.91,-64.5"/>
<polygon fill="midnightblue" stroke="midnightblue" points="101.18,-61 91.18,-64.5 101.18,-68 101.18,-61"/>
</g>
<!-- Node167 -->
<g id="node4" class="node">
<title>Node167</title>
<g id="a_node4"><a xlink:href="classstd_1_1tuple__size_3_01playrho_1_1Vector_3_01T_00_01N_01_4_01_4.html" target="_top" xlink:title="Tuple size info for playrho::Vector">
<polygon fill="white" stroke="black" points="127,-0.5 127,-30.5 248,-30.5 248,-0.5 127,-0.5"/>
<text text-anchor="start" x="135" y="-18.5" font-family="Helvetica,sans-Serif" font-size="10.00">std::tuple_size&lt; playrho</text>
<text text-anchor="middle" x="187.5" y="-7.5" font-family="Helvetica,sans-Serif" font-size="10.00">::Vector&lt; T, N &gt; &gt;</text>
</a>
</g>
</g>
<!-- Node164&#45;&gt;Node167 -->
<g id="edge3" class="edge">
<title>Node164&#45;&gt;Node167</title>
<path fill="none" stroke="midnightblue" d="M83.35,-51.6C101.82,-45.14 124.29,-37.27 143.54,-30.54"/>
<polygon fill="midnightblue" stroke="midnightblue" points="82.11,-48.33 73.83,-54.94 84.42,-54.94 82.11,-48.33"/>
</g>
</g>
</svg>
