<?xml version="1.0" encoding="UTF-8" standalone="no"?>
<!DOCTYPE svg PUBLIC "-//W3C//DTD SVG 1.1//EN"
 "http://www.w3.org/Graphics/SVG/1.1/DTD/svg11.dtd">
<!-- Generated by graphviz version 2.44.1 (20200629.0846)
 -->
<!-- Title: playrho::d2::WorldManifold::PointData Pages: 1 -->
<svg width="370pt" height="240pt"
 viewBox="0.00 0.00 370.00 240.00" xmlns="http://www.w3.org/2000/svg" xmlns:xlink="http://www.w3.org/1999/xlink">
<g id="graph0" class="graph" transform="scale(1 1) rotate(0) translate(4 236)">
<title>playrho::d2::WorldManifold::PointData</title>
<polygon fill="white" stroke="transparent" points="-4,4 -4,-236 366,-236 366,4 -4,4"/>
<!-- Node1 -->
<g id="node1" class="node">
<title>Node1</title>
<g id="a_node1"><a xlink:title="Point data for world manifold.">
<polygon fill="#bfbfbf" stroke="black" points="157,-0.5 157,-30.5 289,-30.5 289,-0.5 157,-0.5"/>
<text text-anchor="start" x="165" y="-18.5" font-family="Helvetica,sans-Serif" font-size="10.00">playrho::d2::WorldManifold</text>
<text text-anchor="middle" x="223" y="-7.5" font-family="Helvetica,sans-Serif" font-size="10.00">::PointData</text>
</a>
</g>
</g>
<!-- Node2 -->
<g id="node2" class="node">
<title>Node2</title>
<g id="a_node2"><a xlink:href="structplayrho_1_1Vector.html" target="_top" xlink:title=" ">
<polygon fill="white" stroke="black" points="0,-78.5 0,-97.5 130,-97.5 130,-78.5 0,-78.5"/>
<text text-anchor="middle" x="65" y="-85.5" font-family="Helvetica,sans-Serif" font-size="10.00">playrho::Vector&lt; Length &gt;</text>
</a>
</g>
</g>
<!-- Node2&#45;&gt;Node1 -->
<g id="edge1" class="edge">
<title>Node2&#45;&gt;Node1</title>
<path fill="none" stroke="#9a32cd" stroke-dasharray="5,2" d="M93.19,-74.42C120.84,-62.08 162.91,-43.31 191.61,-30.51"/>
<polygon fill="#9a32cd" stroke="#9a32cd" points="91.76,-71.22 84.06,-78.5 94.62,-77.62 91.76,-71.22"/>
<text text-anchor="middle" x="167.5" y="-52" font-family="Helvetica,sans-Serif" font-size="10.00"> location</text>
</g>
<!-- Node3 -->
<g id="node3" class="node">
<title>Node3</title>
<g id="a_node3"><a xlink:title=" ">
<polygon fill="white" stroke="#bfbfbf" points="9,-145.5 9,-164.5 55,-164.5 55,-145.5 9,-145.5"/>
<text text-anchor="middle" x="32" y="-152.5" font-family="Helvetica,sans-Serif" font-size="10.00">Length</text>
</a>
</g>
</g>
<!-- Node3&#45;&gt;Node2 -->
<g id="edge2" class="edge">
<title>Node3&#45;&gt;Node2</title>
<path fill="none" stroke="#9a32cd" stroke-dasharray="5,2" d="M29.47,-135.01C29.4,-128.69 30.21,-121.8 33,-116 36.65,-108.4 43.57,-102.14 50.03,-97.57"/>
<polygon fill="#9a32cd" stroke="#9a32cd" points="26.01,-135.69 30.3,-145.38 32.99,-135.14 26.01,-135.69"/>
<text text-anchor="middle" x="54.5" y="-119" font-family="Helvetica,sans-Serif" font-size="10.00"> elements</text>
</g>
<!-- Node4 -->
<g id="node4" class="node">
<title>Node4</title>
<g id="a_node4"><a xlink:href="structplayrho_1_1Vector.html" target="_top" xlink:title="Vector.">
<polygon fill="white" stroke="black" points="84.5,-145.5 84.5,-164.5 203.5,-164.5 203.5,-145.5 84.5,-145.5"/>
<text text-anchor="middle" x="144" y="-152.5" font-family="Helvetica,sans-Serif" font-size="10.00">playrho::Vector&lt; T, N &gt;</text>
</a>
</g>
</g>
<!-- Node4&#45;&gt;Node2 -->
<g id="edge3" class="edge">
<title>Node4&#45;&gt;Node2</title>
<path fill="none" stroke="orange" stroke-dasharray="5,2" d="M117.87,-140.13C111.44,-136.24 104.76,-131.76 99,-127 88.22,-118.09 77.79,-105.7 71.39,-97.53"/>
<polygon fill="orange" stroke="orange" points="116.55,-143.41 126.96,-145.37 120.05,-137.34 116.55,-143.41"/>
<text text-anchor="middle" x="124.5" y="-119" font-family="Helvetica,sans-Serif" font-size="10.00"> &lt; Length &gt;</text>
</g>
<!-- Node7 -->
<g id="node7" class="node">
<title>Node7</title>
<g id="a_node7"><a xlink:href="structplayrho_1_1Vector.html" target="_top" xlink:title=" ">
<polygon fill="white" stroke="black" points="148.5,-78.5 148.5,-97.5 297.5,-97.5 297.5,-78.5 148.5,-78.5"/>
<text text-anchor="middle" x="223" y="-85.5" font-family="Helvetica,sans-Serif" font-size="10.00">playrho::Vector&lt; Momentum &gt;</text>
</a>
</g>
</g>
<!-- Node4&#45;&gt;Node7 -->
<g id="edge8" class="edge">
<title>Node4&#45;&gt;Node7</title>
<path fill="none" stroke="orange" stroke-dasharray="5,2" d="M152.94,-136.38C157.11,-129.4 162.59,-121.7 169,-116 177.78,-108.2 189.21,-102.06 199.3,-97.62"/>
<polygon fill="orange" stroke="orange" points="149.84,-134.75 148.08,-145.2 155.97,-138.13 149.84,-134.75"/>
<text text-anchor="middle" x="204" y="-119" font-family="Helvetica,sans-Serif" font-size="10.00"> &lt; Momentum &gt;</text>
</g>
<!-- Node5 -->
<g id="node5" class="node">
<title>Node5</title>
<g id="a_node5"><a xlink:title=" ">
<polygon fill="white" stroke="#bfbfbf" points="129.5,-212.5 129.5,-231.5 158.5,-231.5 158.5,-212.5 129.5,-212.5"/>
<text text-anchor="middle" x="144" y="-219.5" font-family="Helvetica,sans-Serif" font-size="10.00">T</text>
</a>
</g>
</g>
<!-- Node5&#45;&gt;Node4 -->
<g id="edge4" class="edge">
<title>Node5&#45;&gt;Node4</title>
<path fill="none" stroke="#9a32cd" stroke-dasharray="5,2" d="M144,-202.04C144,-189.67 144,-174.12 144,-164.63"/>
<polygon fill="#9a32cd" stroke="#9a32cd" points="140.5,-202.23 144,-212.23 147.5,-202.23 140.5,-202.23"/>
<text text-anchor="middle" x="165.5" y="-186" font-family="Helvetica,sans-Serif" font-size="10.00"> elements</text>
</g>
<!-- Node6 -->
<g id="node6" class="node">
<title>Node6</title>
<g id="a_node6"><a xlink:title=" ">
<polygon fill="white" stroke="#bfbfbf" points="316,-78.5 316,-97.5 362,-97.5 362,-78.5 316,-78.5"/>
<text text-anchor="middle" x="339" y="-85.5" font-family="Helvetica,sans-Serif" font-size="10.00">length)</text>
</a>
</g>
</g>
<!-- Node6&#45;&gt;Node1 -->
<g id="edge5" class="edge">
<title>Node6&#45;&gt;Node1</title>
<path fill="none" stroke="#9a32cd" stroke-dasharray="5,2" d="M316.19,-73.14C295.94,-60.83 266.51,-42.94 246.16,-30.58"/>
<polygon fill="#9a32cd" stroke="#9a32cd" points="314.41,-76.15 324.78,-78.36 318.05,-70.17 314.41,-76.15"/>
<text text-anchor="middle" x="315.5" y="-52" font-family="Helvetica,sans-Serif" font-size="10.00"> separation</text>
</g>
<!-- Node7&#45;&gt;Node1 -->
<g id="edge6" class="edge">
<title>Node7&#45;&gt;Node1</title>
<path fill="none" stroke="#9a32cd" stroke-dasharray="5,2" d="M223,-68.24C223,-56.41 223,-41.38 223,-30.58"/>
<polygon fill="#9a32cd" stroke="#9a32cd" points="219.5,-68.36 223,-78.36 226.5,-68.36 219.5,-68.36"/>
<text text-anchor="middle" x="241.5" y="-52" font-family="Helvetica,sans-Serif" font-size="10.00"> impulse</text>
</g>
<!-- Node8 -->
<g id="node8" class="node">
<title>Node8</title>
<g id="a_node8"><a xlink:title=" ">
<polygon fill="white" stroke="#bfbfbf" points="232.5,-145.5 232.5,-164.5 297.5,-164.5 297.5,-145.5 232.5,-145.5"/>
<text text-anchor="middle" x="265" y="-152.5" font-family="Helvetica,sans-Serif" font-size="10.00">Momentum</text>
</a>
</g>
</g>
<!-- Node8&#45;&gt;Node7 -->
<g id="edge7" class="edge">
<title>Node8&#45;&gt;Node7</title>
<path fill="none" stroke="#9a32cd" stroke-dasharray="5,2" d="M255.49,-136.63C251.75,-130.06 247.33,-122.59 243,-116 238.9,-109.76 233.9,-103.01 229.93,-97.82"/>
<polygon fill="#9a32cd" stroke="#9a32cd" points="252.45,-138.36 260.37,-145.38 258.56,-134.94 252.45,-138.36"/>
<text text-anchor="middle" x="270.5" y="-119" font-family="Helvetica,sans-Serif" font-size="10.00"> elements</text>
</g>
</g>
</svg>
