<?xml version="1.0" encoding="UTF-8" standalone="no"?>
<!DOCTYPE svg PUBLIC "-//W3C//DTD SVG 1.1//EN"
 "http://www.w3.org/Graphics/SVG/1.1/DTD/svg11.dtd">
<!-- Generated by graphviz version 2.44.1 (20200629.0846)
 -->
<!-- Title: playrho::d2::WorldConf Pages: 1 -->
<svg width="368pt" height="262pt"
 viewBox="0.00 0.00 368.00 262.00" xmlns="http://www.w3.org/2000/svg" xmlns:xlink="http://www.w3.org/1999/xlink">
<g id="graph0" class="graph" transform="scale(1 1) rotate(0) translate(4 258)">
<title>playrho::d2::WorldConf</title>
<polygon fill="white" stroke="transparent" points="-4,4 -4,-258 364,-258 364,4 -4,4"/>
<!-- Node1 -->
<g id="node1" class="node">
<title>Node1</title>
<g id="a_node1"><a xlink:title="World configuration data.">
<polygon fill="#bfbfbf" stroke="black" points="145,-0.5 145,-19.5 261,-19.5 261,-0.5 145,-0.5"/>
<text text-anchor="middle" x="203" y="-7.5" font-family="Helvetica,sans-Serif" font-size="10.00">playrho::d2::WorldConf</text>
</a>
</g>
</g>
<!-- Node2 -->
<g id="node2" class="node">
<title>Node2</title>
<g id="a_node2"><a xlink:href="classplayrho_1_1CheckedValue.html" target="_top" xlink:title=" ">
<polygon fill="white" stroke="black" points="68.5,-78.5 68.5,-108.5 185.5,-108.5 185.5,-78.5 68.5,-78.5"/>
<text text-anchor="start" x="76.5" y="-96.5" font-family="Helvetica,sans-Serif" font-size="10.00">playrho::CheckedValue</text>
<text text-anchor="middle" x="127" y="-85.5" font-family="Helvetica,sans-Serif" font-size="10.00">&lt; Length &gt;</text>
</a>
</g>
</g>
<!-- Node2&#45;&gt;Node1 -->
<g id="edge1" class="edge">
<title>Node2&#45;&gt;Node1</title>
<path fill="none" stroke="#9a32cd" stroke-dasharray="5,2" d="M139.71,-69.89C146.19,-59.5 154.66,-47.42 164,-38 171.07,-30.86 180.26,-24.4 187.94,-19.58"/>
<polygon fill="#9a32cd" stroke="#9a32cd" points="136.71,-68.1 134.57,-78.47 142.71,-71.7 136.71,-68.1"/>
<text text-anchor="middle" x="205" y="-52" font-family="Helvetica,sans-Serif" font-size="10.00"> maxVertexRadius</text>
<text text-anchor="middle" x="205" y="-41" font-family="Helvetica,sans-Serif" font-size="10.00">minVertexRadius</text>
</g>
<!-- Node3 -->
<g id="node3" class="node">
<title>Node3</title>
<g id="a_node3"><a xlink:title=" ">
<polygon fill="white" stroke="#bfbfbf" points="0,-162 0,-181 46,-181 46,-162 0,-162"/>
<text text-anchor="middle" x="23" y="-169" font-family="Helvetica,sans-Serif" font-size="10.00">Length</text>
</a>
</g>
</g>
<!-- Node3&#45;&gt;Node2 -->
<g id="edge2" class="edge">
<title>Node3&#45;&gt;Node2</title>
<path fill="none" stroke="#9a32cd" stroke-dasharray="5,2" d="M43.06,-155.84C61.75,-142.19 89.42,-121.97 107.81,-108.52"/>
<polygon fill="#9a32cd" stroke="#9a32cd" points="40.94,-153.06 34.93,-161.78 45.07,-158.71 40.94,-153.06"/>
<text text-anchor="middle" x="102" y="-130" font-family="Helvetica,sans-Serif" font-size="10.00"> m_value</text>
</g>
<!-- Node4 -->
<g id="node4" class="node">
<title>Node4</title>
<g id="a_node4"><a xlink:href="classplayrho_1_1CheckedValue.html" target="_top" xlink:title="Checked value.">
<polygon fill="white" stroke="black" points="64.5,-156.5 64.5,-186.5 207.5,-186.5 207.5,-156.5 64.5,-156.5"/>
<text text-anchor="start" x="72.5" y="-174.5" font-family="Helvetica,sans-Serif" font-size="10.00">playrho::CheckedValue</text>
<text text-anchor="middle" x="136" y="-163.5" font-family="Helvetica,sans-Serif" font-size="10.00">&lt; ValueType, CheckerType &gt;</text>
</a>
</g>
</g>
<!-- Node4&#45;&gt;Node2 -->
<g id="edge3" class="edge">
<title>Node4&#45;&gt;Node2</title>
<path fill="none" stroke="orange" stroke-dasharray="5,2" d="M133.11,-146.09C131.65,-133.76 129.93,-119.22 128.69,-108.73"/>
<polygon fill="orange" stroke="orange" points="129.66,-146.69 134.31,-156.2 136.61,-145.86 129.66,-146.69"/>
<text text-anchor="middle" x="158.5" y="-130" font-family="Helvetica,sans-Serif" font-size="10.00"> &lt; Length &gt;</text>
</g>
<!-- Node5 -->
<g id="node5" class="node">
<title>Node5</title>
<g id="a_node5"><a xlink:title=" ">
<polygon fill="white" stroke="#bfbfbf" points="105,-234.5 105,-253.5 167,-253.5 167,-234.5 105,-234.5"/>
<text text-anchor="middle" x="136" y="-241.5" font-family="Helvetica,sans-Serif" font-size="10.00">ValueType</text>
</a>
</g>
</g>
<!-- Node5&#45;&gt;Node4 -->
<g id="edge4" class="edge">
<title>Node5&#45;&gt;Node4</title>
<path fill="none" stroke="#9a32cd" stroke-dasharray="5,2" d="M136,-224.24C136,-212.41 136,-197.38 136,-186.58"/>
<polygon fill="#9a32cd" stroke="#9a32cd" points="132.5,-224.36 136,-234.36 139.5,-224.36 132.5,-224.36"/>
<text text-anchor="middle" x="156" y="-208" font-family="Helvetica,sans-Serif" font-size="10.00"> m_value</text>
</g>
<!-- Node6 -->
<g id="node6" class="node">
<title>Node6</title>
<g id="a_node6"><a xlink:href="structplayrho_1_1Wider.html" target="_top" xlink:title=" ">
<polygon fill="white" stroke="black" points="203.5,-84 203.5,-103 358.5,-103 358.5,-84 203.5,-84"/>
<text text-anchor="middle" x="281" y="-91" font-family="Helvetica,sans-Serif" font-size="10.00">playrho::Wider&lt; BodyCounter &gt;</text>
</a>
</g>
</g>
<!-- Node6&#45;&gt;Node1 -->
<g id="edge5" class="edge">
<title>Node6&#45;&gt;Node1</title>
<path fill="none" stroke="#9a32cd" stroke-dasharray="5,2" d="M272.32,-74.92C266.08,-63.49 256.88,-48.77 246,-38 238.61,-30.68 228.89,-24.37 220.57,-19.7"/>
<polygon fill="#9a32cd" stroke="#9a32cd" points="269.29,-76.68 277,-83.94 275.5,-73.45 269.29,-76.68"/>
<text text-anchor="middle" x="295.5" y="-46.5" font-family="Helvetica,sans-Serif" font-size="10.00"> initialTreeSize</text>
</g>
<!-- Node7 -->
<g id="node7" class="node">
<title>Node7</title>
<g id="a_node7"><a xlink:href="structplayrho_1_1Wider.html" target="_top" xlink:title="Wider data type obtainer.">
<polygon fill="white" stroke="black" points="229,-162 229,-181 333,-181 333,-162 229,-162"/>
<text text-anchor="middle" x="281" y="-169" font-family="Helvetica,sans-Serif" font-size="10.00">playrho::Wider&lt; T &gt;</text>
</a>
</g>
</g>
<!-- Node7&#45;&gt;Node6 -->
<g id="edge6" class="edge">
<title>Node7&#45;&gt;Node6</title>
<path fill="none" stroke="orange" stroke-dasharray="5,2" d="M281,-151.72C281,-136.2 281,-114.86 281,-103.12"/>
<polygon fill="orange" stroke="orange" points="277.5,-151.78 281,-161.78 284.5,-151.78 277.5,-151.78"/>
<text text-anchor="middle" x="320.5" y="-130" font-family="Helvetica,sans-Serif" font-size="10.00"> &lt; BodyCounter &gt;</text>
</g>
</g>
</svg>
