<?xml version="1.0" encoding="UTF-8" standalone="no"?>
<!DOCTYPE svg PUBLIC "-//W3C//DTD SVG 1.1//EN"
 "http://www.w3.org/Graphics/SVG/1.1/DTD/svg11.dtd">
<!-- Generated by graphviz version 2.44.1 (20200629.0846)
 -->
<!-- Title: playrho::Filter Pages: 1 -->
<svg width="155pt" height="106pt"
 viewBox="0.00 0.00 154.50 106.00" xmlns="http://www.w3.org/2000/svg" xmlns:xlink="http://www.w3.org/1999/xlink">
<g id="graph0" class="graph" transform="scale(1 1) rotate(0) translate(4 102)">
<title>playrho::Filter</title>
<polygon fill="white" stroke="transparent" points="-4,4 -4,-102 150.5,-102 150.5,4 -4,4"/>
<!-- Node1 -->
<g id="node1" class="node">
<title>Node1</title>
<g id="a_node1"><a xlink:title="A holder for contact filtering data.">
<polygon fill="#bfbfbf" stroke="black" points="27.5,-0.5 27.5,-19.5 103.5,-19.5 103.5,-0.5 27.5,-0.5"/>
<text text-anchor="middle" x="65.5" y="-7.5" font-family="Helvetica,sans-Serif" font-size="10.00">playrho::Filter</text>
</a>
</g>
</g>
<!-- Node2 -->
<g id="node2" class="node">
<title>Node2</title>
<g id="a_node2"><a xlink:title=" ">
<polygon fill="white" stroke="#bfbfbf" points="0,-78.5 0,-97.5 51,-97.5 51,-78.5 0,-78.5"/>
<text text-anchor="middle" x="25.5" y="-85.5" font-family="Helvetica,sans-Serif" font-size="10.00">uint16_t</text>
</a>
</g>
</g>
<!-- Node2&#45;&gt;Node1 -->
<g id="edge1" class="edge">
<title>Node2&#45;&gt;Node1</title>
<path fill="none" stroke="#9a32cd" stroke-dasharray="5,2" d="M22,-68.34C21.13,-58.74 21.58,-47.16 26.5,-38 30.79,-30.02 38.59,-23.91 46.1,-19.54"/>
<polygon fill="#9a32cd" stroke="#9a32cd" points="18.57,-69.04 23.45,-78.44 25.5,-68.05 18.57,-69.04"/>
<text text-anchor="middle" x="55.5" y="-52" font-family="Helvetica,sans-Serif" font-size="10.00"> categoryBits</text>
<text text-anchor="middle" x="55.5" y="-41" font-family="Helvetica,sans-Serif" font-size="10.00">maskBits</text>
</g>
<!-- Node3 -->
<g id="node3" class="node">
<title>Node3</title>
<g id="a_node3"><a xlink:title=" ">
<polygon fill="white" stroke="#bfbfbf" points="83.5,-78.5 83.5,-97.5 129.5,-97.5 129.5,-78.5 83.5,-78.5"/>
<text text-anchor="middle" x="106.5" y="-85.5" font-family="Helvetica,sans-Serif" font-size="10.00">int16_t</text>
</a>
</g>
</g>
<!-- Node3&#45;&gt;Node1 -->
<g id="edge2" class="edge">
<title>Node3&#45;&gt;Node1</title>
<path fill="none" stroke="#9a32cd" stroke-dasharray="5,2" d="M99.36,-68.92C95.39,-59.49 90.13,-47.89 84.5,-38 80.87,-31.62 76.12,-24.87 72.28,-19.72"/>
<polygon fill="#9a32cd" stroke="#9a32cd" points="96.22,-70.5 103.24,-78.44 102.71,-67.86 96.22,-70.5"/>
<text text-anchor="middle" x="120.5" y="-46.5" font-family="Helvetica,sans-Serif" font-size="10.00"> groupIndex</text>
</g>
</g>
</svg>
