<?xml version="1.0" encoding="UTF-8" standalone="no"?>
<!DOCTYPE svg PUBLIC "-//W3C//DTD SVG 1.1//EN"
 "http://www.w3.org/Graphics/SVG/1.1/DTD/svg11.dtd">
<!-- Generated by graphviz version 2.44.1 (20200629.0846)
 -->
<!-- Title: playrho::d2::Acceleration Pages: 1 -->
<svg width="371pt" height="229pt"
 viewBox="0.00 0.00 370.50 229.00" xmlns="http://www.w3.org/2000/svg" xmlns:xlink="http://www.w3.org/1999/xlink">
<g id="graph0" class="graph" transform="scale(1 1) rotate(0) translate(4 225)">
<title>playrho::d2::Acceleration</title>
<polygon fill="white" stroke="transparent" points="-4,4 -4,-225 366.5,-225 366.5,4 -4,4"/>
<!-- Node1 -->
<g id="node1" class="node">
<title>Node1</title>
<g id="a_node1"><a xlink:title="2&#45;D acceleration related data structure.">
<polygon fill="#bfbfbf" stroke="black" points="47,-0.5 47,-19.5 172,-19.5 172,-0.5 47,-0.5"/>
<text text-anchor="middle" x="109.5" y="-7.5" font-family="Helvetica,sans-Serif" font-size="10.00">playrho::d2::Acceleration</text>
</a>
</g>
</g>
<!-- Node2 -->
<g id="node2" class="node">
<title>Node2</title>
<g id="a_node2"><a xlink:title=" ">
<polygon fill="white" stroke="#bfbfbf" points="0,-67.5 0,-86.5 109,-86.5 109,-67.5 0,-67.5"/>
<text text-anchor="middle" x="54.5" y="-74.5" font-family="Helvetica,sans-Serif" font-size="10.00">angular_acceleration)</text>
</a>
</g>
</g>
<!-- Node2&#45;&gt;Node1 -->
<g id="edge1" class="edge">
<title>Node2&#45;&gt;Node1</title>
<path fill="none" stroke="#9a32cd" stroke-dasharray="5,2" d="M68.66,-59.27C79.38,-46.6 93.68,-29.7 102.2,-19.63"/>
<polygon fill="#9a32cd" stroke="#9a32cd" points="65.71,-57.34 61.92,-67.23 71.05,-61.86 65.71,-57.34"/>
<text text-anchor="middle" x="103" y="-41" font-family="Helvetica,sans-Serif" font-size="10.00"> angular</text>
</g>
<!-- Node3 -->
<g id="node3" class="node">
<title>Node3</title>
<g id="a_node3"><a xlink:href="structplayrho_1_1Vector.html" target="_top" xlink:title=" ">
<polygon fill="white" stroke="black" points="127,-67.5 127,-86.5 308,-86.5 308,-67.5 127,-67.5"/>
<text text-anchor="middle" x="217.5" y="-74.5" font-family="Helvetica,sans-Serif" font-size="10.00">playrho::Vector&lt; LinearAcceleration &gt;</text>
</a>
</g>
</g>
<!-- Node3&#45;&gt;Node1 -->
<g id="edge2" class="edge">
<title>Node3&#45;&gt;Node1</title>
<path fill="none" stroke="#9a32cd" stroke-dasharray="5,2" d="M194.14,-61.94C172.75,-49.07 141.78,-30.43 123.83,-19.63"/>
<polygon fill="#9a32cd" stroke="#9a32cd" points="192.56,-65.08 202.93,-67.23 196.17,-59.08 192.56,-65.08"/>
<text text-anchor="middle" x="183" y="-41" font-family="Helvetica,sans-Serif" font-size="10.00"> linear</text>
</g>
<!-- Node4 -->
<g id="node4" class="node">
<title>Node4</title>
<g id="a_node4"><a xlink:title=" ">
<polygon fill="white" stroke="#bfbfbf" points="121,-134.5 121,-153.5 218,-153.5 218,-134.5 121,-134.5"/>
<text text-anchor="middle" x="169.5" y="-141.5" font-family="Helvetica,sans-Serif" font-size="10.00">LinearAcceleration</text>
</a>
</g>
</g>
<!-- Node4&#45;&gt;Node3 -->
<g id="edge3" class="edge">
<title>Node4&#45;&gt;Node3</title>
<path fill="none" stroke="#9a32cd" stroke-dasharray="5,2" d="M182.12,-125.9C191.45,-113.27 203.76,-96.6 211.13,-86.63"/>
<polygon fill="#9a32cd" stroke="#9a32cd" points="179.1,-124.11 175.97,-134.23 184.73,-128.27 179.1,-124.11"/>
<text text-anchor="middle" x="217" y="-108" font-family="Helvetica,sans-Serif" font-size="10.00"> elements</text>
</g>
<!-- Node5 -->
<g id="node5" class="node">
<title>Node5</title>
<g id="a_node5"><a xlink:href="structplayrho_1_1Vector.html" target="_top" xlink:title="Vector.">
<polygon fill="white" stroke="black" points="236,-134.5 236,-153.5 355,-153.5 355,-134.5 236,-134.5"/>
<text text-anchor="middle" x="295.5" y="-141.5" font-family="Helvetica,sans-Serif" font-size="10.00">playrho::Vector&lt; T, N &gt;</text>
</a>
</g>
</g>
<!-- Node5&#45;&gt;Node3 -->
<g id="edge4" class="edge">
<title>Node5&#45;&gt;Node3</title>
<path fill="none" stroke="orange" stroke-dasharray="5,2" d="M277.16,-127.71C261.79,-114.91 240.41,-97.09 227.85,-86.63"/>
<polygon fill="orange" stroke="orange" points="275.06,-130.52 284.98,-134.23 279.54,-125.14 275.06,-130.52"/>
<text text-anchor="middle" x="311.5" y="-108" font-family="Helvetica,sans-Serif" font-size="10.00"> &lt; LinearAcceleration &gt;</text>
</g>
<!-- Node6 -->
<g id="node6" class="node">
<title>Node6</title>
<g id="a_node6"><a xlink:title=" ">
<polygon fill="white" stroke="#bfbfbf" points="281,-201.5 281,-220.5 310,-220.5 310,-201.5 281,-201.5"/>
<text text-anchor="middle" x="295.5" y="-208.5" font-family="Helvetica,sans-Serif" font-size="10.00">T</text>
</a>
</g>
</g>
<!-- Node6&#45;&gt;Node5 -->
<g id="edge5" class="edge">
<title>Node6&#45;&gt;Node5</title>
<path fill="none" stroke="#9a32cd" stroke-dasharray="5,2" d="M295.5,-191.04C295.5,-178.67 295.5,-163.12 295.5,-153.63"/>
<polygon fill="#9a32cd" stroke="#9a32cd" points="292,-191.23 295.5,-201.23 299,-191.23 292,-191.23"/>
<text text-anchor="middle" x="317" y="-175" font-family="Helvetica,sans-Serif" font-size="10.00"> elements</text>
</g>
</g>
</svg>
