<?xml version="1.0" encoding="UTF-8" standalone="no"?>
<!DOCTYPE svg PUBLIC "-//W3C//DTD SVG 1.1//EN"
 "http://www.w3.org/Graphics/SVG/1.1/DTD/svg11.dtd">
<!-- Generated by graphviz version 2.44.1 (20200629.0846)
 -->
<!-- Title: playrho::d2::JointConf Pages: 1 -->
<svg width="249pt" height="284pt"
 viewBox="0.00 0.00 248.50 284.00" xmlns="http://www.w3.org/2000/svg" xmlns:xlink="http://www.w3.org/1999/xlink">
<g id="graph0" class="graph" transform="scale(1 1) rotate(0) translate(4 280)">
<title>playrho::d2::JointConf</title>
<polygon fill="white" stroke="transparent" points="-4,4 -4,-280 244.5,-280 244.5,4 -4,4"/>
<!-- Node1 -->
<g id="node1" class="node">
<title>Node1</title>
<g id="a_node1"><a xlink:title="Base joint definition class.">
<polygon fill="#bfbfbf" stroke="black" points="89,-0.5 89,-19.5 202,-19.5 202,-0.5 89,-0.5"/>
<text text-anchor="middle" x="145.5" y="-7.5" font-family="Helvetica,sans-Serif" font-size="10.00">playrho::d2::JointConf</text>
</a>
</g>
</g>
<!-- Node2 -->
<g id="node2" class="node">
<title>Node2</title>
<g id="a_node2"><a xlink:href="classplayrho_1_1detail_1_1IndexingNamedType.html" target="_top" xlink:title=" ">
<polygon fill="white" stroke="black" points="0,-78.5 0,-119.5 137,-119.5 137,-78.5 0,-78.5"/>
<text text-anchor="start" x="8" y="-107.5" font-family="Helvetica,sans-Serif" font-size="10.00">playrho::detail::Indexing</text>
<text text-anchor="start" x="8" y="-96.5" font-family="Helvetica,sans-Serif" font-size="10.00">NamedType&lt; BodyCounter,</text>
<text text-anchor="middle" x="68.5" y="-85.5" font-family="Helvetica,sans-Serif" font-size="10.00"> struct BodyIdentifier &gt;</text>
</a>
</g>
</g>
<!-- Node2&#45;&gt;Node1 -->
<g id="edge1" class="edge">
<title>Node2&#45;&gt;Node1</title>
<path fill="none" stroke="#9a32cd" stroke-dasharray="5,2" d="M91.36,-70.38C100.03,-60.1 110.09,-48.4 119.5,-38 125.09,-31.82 131.59,-25.07 136.69,-19.87"/>
<polygon fill="#9a32cd" stroke="#9a32cd" points="88.48,-68.37 84.74,-78.28 93.84,-72.87 88.48,-68.37"/>
<text text-anchor="middle" x="135" y="-52" font-family="Helvetica,sans-Serif" font-size="10.00"> bodyA</text>
<text text-anchor="middle" x="135" y="-41" font-family="Helvetica,sans-Serif" font-size="10.00">bodyB</text>
</g>
<!-- Node3 -->
<g id="node3" class="node">
<title>Node3</title>
<g id="a_node3"><a xlink:title=" ">
<polygon fill="white" stroke="#bfbfbf" points="4.5,-184 4.5,-203 78.5,-203 78.5,-184 4.5,-184"/>
<text text-anchor="middle" x="41.5" y="-191" font-family="Helvetica,sans-Serif" font-size="10.00">BodyCounter</text>
</a>
</g>
</g>
<!-- Node3&#45;&gt;Node2 -->
<g id="edge2" class="edge">
<title>Node3&#45;&gt;Node2</title>
<path fill="none" stroke="#9a32cd" stroke-dasharray="5,2" d="M46.93,-173.91C51.51,-158.22 58.05,-135.81 62.72,-119.79"/>
<polygon fill="#9a32cd" stroke="#9a32cd" points="43.43,-173.38 43.99,-183.96 50.15,-175.34 43.43,-173.38"/>
<text text-anchor="middle" x="73.5" y="-146.5" font-family="Helvetica,sans-Serif" font-size="10.00"> value_</text>
</g>
<!-- Node4 -->
<g id="node4" class="node">
<title>Node4</title>
<g id="a_node4"><a xlink:href="classplayrho_1_1detail_1_1IndexingNamedType.html" target="_top" xlink:title="An indexable, hashable, named &quot;strong type&quot; template class.">
<polygon fill="white" stroke="black" points="96.5,-178.5 96.5,-208.5 216.5,-208.5 216.5,-178.5 96.5,-178.5"/>
<text text-anchor="start" x="104.5" y="-196.5" font-family="Helvetica,sans-Serif" font-size="10.00">playrho::detail::Indexing</text>
<text text-anchor="middle" x="156.5" y="-185.5" font-family="Helvetica,sans-Serif" font-size="10.00">NamedType&lt; T, Tag &gt;</text>
</a>
</g>
</g>
<!-- Node4&#45;&gt;Node2 -->
<g id="edge3" class="edge">
<title>Node4&#45;&gt;Node2</title>
<path fill="none" stroke="orange" stroke-dasharray="5,2" d="M135.94,-170.88C121.2,-155.4 101.52,-134.71 87.22,-119.68"/>
<polygon fill="orange" stroke="orange" points="133.71,-173.62 143.13,-178.45 138.78,-168.79 133.71,-173.62"/>
<text text-anchor="start" x="126.5" y="-152" font-family="Helvetica,sans-Serif" font-size="10.00"> &lt; BodyCounter, struct</text>
<text text-anchor="middle" x="176.5" y="-141" font-family="Helvetica,sans-Serif" font-size="10.00"> BodyIdentifier &gt;</text>
</g>
<!-- Node5 -->
<g id="node5" class="node">
<title>Node5</title>
<g id="a_node5"><a xlink:title=" ">
<polygon fill="white" stroke="#bfbfbf" points="142,-256.5 142,-275.5 171,-275.5 171,-256.5 142,-256.5"/>
<text text-anchor="middle" x="156.5" y="-263.5" font-family="Helvetica,sans-Serif" font-size="10.00">T</text>
</a>
</g>
</g>
<!-- Node5&#45;&gt;Node4 -->
<g id="edge4" class="edge">
<title>Node5&#45;&gt;Node4</title>
<path fill="none" stroke="#9a32cd" stroke-dasharray="5,2" d="M156.5,-246.24C156.5,-234.41 156.5,-219.38 156.5,-208.58"/>
<polygon fill="#9a32cd" stroke="#9a32cd" points="153,-246.36 156.5,-256.36 160,-246.36 153,-246.36"/>
<text text-anchor="middle" x="172.5" y="-230" font-family="Helvetica,sans-Serif" font-size="10.00"> value_</text>
</g>
<!-- Node6 -->
<g id="node6" class="node">
<title>Node6</title>
<g id="a_node6"><a xlink:title=" ">
<polygon fill="white" stroke="#bfbfbf" points="155,-89.5 155,-108.5 190,-108.5 190,-89.5 155,-89.5"/>
<text text-anchor="middle" x="172.5" y="-96.5" font-family="Helvetica,sans-Serif" font-size="10.00">bool</text>
</a>
</g>
</g>
<!-- Node6&#45;&gt;Node1 -->
<g id="edge5" class="edge">
<title>Node6&#45;&gt;Node1</title>
<path fill="none" stroke="#9a32cd" stroke-dasharray="5,2" d="M166.83,-79.71C161.1,-61.25 152.5,-33.54 148.18,-19.62"/>
<polygon fill="#9a32cd" stroke="#9a32cd" points="163.51,-80.83 169.81,-89.34 170.19,-78.75 163.51,-80.83"/>
<text text-anchor="middle" x="201" y="-46.5" font-family="Helvetica,sans-Serif" font-size="10.00"> collideConnected</text>
</g>
</g>
</svg>
