<?xml version="1.0" encoding="UTF-8" standalone="no"?>
<!DOCTYPE svg PUBLIC "-//W3C//DTD SVG 1.1//EN"
 "http://www.w3.org/Graphics/SVG/1.1/DTD/svg11.dtd">
<!-- Generated by graphviz version 2.44.1 (20200629.0846)
 -->
<!-- Title: playrho::BlockDeallocator Pages: 1 -->
<svg width="733pt" height="249pt"
 viewBox="0.00 0.00 733.00 248.50" xmlns="http://www.w3.org/2000/svg" xmlns:xlink="http://www.w3.org/1999/xlink">
<g id="graph0" class="graph" transform="scale(1 1) rotate(0) translate(4 244.5)">
<title>playrho::BlockDeallocator</title>
<polygon fill="white" stroke="transparent" points="-4,4 -4,-244.5 729,-244.5 729,4 -4,4"/>
<!-- Node1 -->
<g id="node1" class="node">
<title>Node1</title>
<g id="a_node1"><a xlink:title="Block deallocator.">
<polygon fill="#bfbfbf" stroke="black" points="597,-72.5 597,-91.5 725,-91.5 725,-72.5 597,-72.5"/>
<text text-anchor="middle" x="661" y="-79.5" font-family="Helvetica,sans-Serif" font-size="10.00">playrho::BlockDeallocator</text>
</a>
</g>
</g>
<!-- Node2 -->
<g id="node2" class="node">
<title>Node2</title>
<g id="a_node2"><a xlink:href="classplayrho_1_1BlockAllocator.html" target="_top" xlink:title="Block allocator.">
<polygon fill="white" stroke="black" points="404,-93.5 404,-112.5 521,-112.5 521,-93.5 404,-93.5"/>
<text text-anchor="middle" x="462.5" y="-100.5" font-family="Helvetica,sans-Serif" font-size="10.00">playrho::BlockAllocator</text>
</a>
</g>
</g>
<!-- Node2&#45;&gt;Node1 -->
<g id="edge1" class="edge">
<title>Node2&#45;&gt;Node1</title>
<path fill="none" stroke="#9a32cd" stroke-dasharray="5,2" d="M531.08,-95.78C552.4,-93.5 575.87,-90.99 596.87,-88.75"/>
<polygon fill="#9a32cd" stroke="#9a32cd" points="530.7,-92.3 521.13,-96.84 531.44,-99.26 530.7,-92.3"/>
<text text-anchor="middle" x="559" y="-97" font-family="Helvetica,sans-Serif" font-size="10.00"> allocator</text>
</g>
<!-- Node3 -->
<g id="node3" class="node">
<title>Node3</title>
<g id="a_node3"><a xlink:href="structplayrho_1_1BlockAllocator_1_1Block.html" target="_top" xlink:title="Block.">
<polygon fill="white" stroke="black" points="0,-181 0,-211 117,-211 117,-181 0,-181"/>
<text text-anchor="start" x="8" y="-199" font-family="Helvetica,sans-Serif" font-size="10.00">playrho::BlockAllocator</text>
<text text-anchor="middle" x="58.5" y="-188" font-family="Helvetica,sans-Serif" font-size="10.00">::Block</text>
</a>
</g>
</g>
<!-- Node3&#45;&gt;Node2 -->
<g id="edge2" class="edge">
<title>Node3&#45;&gt;Node2</title>
<path fill="none" stroke="#9a32cd" stroke-dasharray="5,2" d="M127.24,-200.39C179.63,-201.99 253.52,-200.29 316,-184 369.99,-169.92 425.27,-131.03 449.21,-112.74"/>
<polygon fill="#9a32cd" stroke="#9a32cd" points="127.18,-196.89 117.06,-200.03 126.93,-203.88 127.18,-196.89"/>
<text text-anchor="middle" x="257.5" y="-202" font-family="Helvetica,sans-Serif" font-size="10.00"> m_freeLists</text>
</g>
<!-- Node3&#45;&gt;Node3 -->
<g id="edge3" class="edge">
<title>Node3&#45;&gt;Node3</title>
<path fill="none" stroke="#9a32cd" stroke-dasharray="5,2" d="M41.09,-221.46C43.25,-226.18 49.05,-229.5 58.5,-229.5 74,-229.5 79.7,-220.56 75.58,-211.16"/>
<polygon fill="#9a32cd" stroke="#9a32cd" points="44.59,-221.27 41.42,-211.16 37.6,-221.04 44.59,-221.27"/>
<text text-anchor="middle" x="58.5" y="-232.5" font-family="Helvetica,sans-Serif" font-size="10.00"> next</text>
</g>
<!-- Node5 -->
<g id="node5" class="node">
<title>Node5</title>
<g id="a_node5"><a xlink:href="structplayrho_1_1BlockAllocator_1_1Chunk.html" target="_top" xlink:title="Chunk.">
<polygon fill="white" stroke="black" points="199,-144 199,-174 316,-174 316,-144 199,-144"/>
<text text-anchor="start" x="207" y="-162" font-family="Helvetica,sans-Serif" font-size="10.00">playrho::BlockAllocator</text>
<text text-anchor="middle" x="257.5" y="-151" font-family="Helvetica,sans-Serif" font-size="10.00">::Chunk</text>
</a>
</g>
</g>
<!-- Node3&#45;&gt;Node5 -->
<g id="edge6" class="edge">
<title>Node3&#45;&gt;Node5</title>
<path fill="none" stroke="#9a32cd" stroke-dasharray="5,2" d="M126.87,-183.35C150.3,-178.95 176.35,-174.05 198.92,-169.81"/>
<polygon fill="#9a32cd" stroke="#9a32cd" points="126.19,-179.91 117.01,-185.2 127.48,-186.79 126.19,-179.91"/>
<text text-anchor="middle" x="158" y="-183" font-family="Helvetica,sans-Serif" font-size="10.00"> blocks</text>
</g>
<!-- Node4 -->
<g id="node4" class="node">
<title>Node4</title>
<g id="a_node4"><a xlink:title=" ">
<polygon fill="white" stroke="#bfbfbf" points="203.5,-0.5 203.5,-19.5 311.5,-19.5 311.5,-0.5 203.5,-0.5"/>
<text text-anchor="middle" x="257.5" y="-7.5" font-family="Helvetica,sans-Serif" font-size="10.00">static constexpr auto</text>
</a>
</g>
</g>
<!-- Node4&#45;&gt;Node2 -->
<g id="edge4" class="edge">
<title>Node4&#45;&gt;Node2</title>
<path fill="none" stroke="#9a32cd" stroke-dasharray="5,2" d="M321.96,-7.54C344.41,-9.77 368.42,-16.09 386,-31 404.97,-47.09 386.34,-66.48 404,-84 407.88,-87.85 412.56,-90.92 417.55,-93.37"/>
<polygon fill="#9a32cd" stroke="#9a32cd" points="322.02,-4.03 311.79,-6.79 321.5,-11.01 322.02,-4.03"/>
<text text-anchor="middle" x="360" y="-34" font-family="Helvetica,sans-Serif" font-size="10.00"> ChunkSize</text>
</g>
<!-- Node5&#45;&gt;Node2 -->
<g id="edge5" class="edge">
<title>Node5&#45;&gt;Node2</title>
<path fill="none" stroke="#9a32cd" stroke-dasharray="5,2" d="M322.91,-141.23C357.44,-131.71 398.61,-120.35 427.06,-112.5"/>
<polygon fill="#9a32cd" stroke="#9a32cd" points="321.61,-137.96 312.9,-143.99 323.47,-144.71 321.61,-137.96"/>
<text text-anchor="middle" x="360" y="-140" font-family="Helvetica,sans-Serif" font-size="10.00"> m_chunks</text>
</g>
<!-- Node6 -->
<g id="node6" class="node">
<title>Node6</title>
<g id="a_node6"><a xlink:title=" ">
<polygon fill="white" stroke="#bfbfbf" points="37,-93.5 37,-112.5 80,-112.5 80,-93.5 37,-93.5"/>
<text text-anchor="middle" x="58.5" y="-100.5" font-family="Helvetica,sans-Serif" font-size="10.00">size_t</text>
</a>
</g>
</g>
<!-- Node6&#45;&gt;Node2 -->
<g id="edge8" class="edge">
<title>Node6&#45;&gt;Node2</title>
<path fill="none" stroke="#9a32cd" stroke-dasharray="5,2" d="M90.61,-103C157.85,-103 317.63,-103 403.89,-103"/>
<polygon fill="#9a32cd" stroke="#9a32cd" points="90.27,-99.5 80.27,-103 90.27,-106.5 90.27,-99.5"/>
<text text-anchor="middle" x="257.5" y="-117" font-family="Helvetica,sans-Serif" font-size="10.00"> m_chunkCount</text>
<text text-anchor="middle" x="257.5" y="-106" font-family="Helvetica,sans-Serif" font-size="10.00">m_chunkSpace</text>
</g>
<!-- Node6&#45;&gt;Node2 -->
<g id="edge9" class="edge">
<title>Node6&#45;&gt;Node2</title>
<path fill="none" stroke="#9a32cd" stroke-dasharray="5,2" d="M90.29,-98.73C118.51,-95.05 161.47,-90.01 199,-88 250.93,-85.22 264.07,-85.33 316,-88 345.04,-89.49 377.21,-92.65 403.9,-95.69"/>
<polygon fill="#9a32cd" stroke="#9a32cd" points="89.69,-95.28 80.24,-100.07 90.62,-102.22 89.69,-95.28"/>
<text text-anchor="middle" x="257.5" y="-91" font-family="Helvetica,sans-Serif" font-size="10.00"> AllocatorBlockSizes</text>
</g>
<!-- Node6&#45;&gt;Node5 -->
<g id="edge7" class="edge">
<title>Node6&#45;&gt;Node5</title>
<path fill="none" stroke="#9a32cd" stroke-dasharray="5,2" d="M90.18,-111.72C120.46,-120.33 167.35,-133.66 203.63,-143.97"/>
<polygon fill="#9a32cd" stroke="#9a32cd" points="90.79,-108.25 80.21,-108.89 88.87,-114.99 90.79,-108.25"/>
<text text-anchor="middle" x="158" y="-139" font-family="Helvetica,sans-Serif" font-size="10.00"> blockSize</text>
</g>
<!-- Node7 -->
<g id="node7" class="node">
<title>Node7</title>
<g id="a_node7"><a xlink:title=" ">
<polygon fill="white" stroke="#bfbfbf" points="433,-55.5 433,-74.5 492,-74.5 492,-55.5 433,-55.5"/>
<text text-anchor="middle" x="462.5" y="-62.5" font-family="Helvetica,sans-Serif" font-size="10.00">size_type</text>
</a>
</g>
</g>
<!-- Node7&#45;&gt;Node1 -->
<g id="edge10" class="edge">
<title>Node7&#45;&gt;Node1</title>
<path fill="none" stroke="#9a32cd" stroke-dasharray="5,2" d="M502.21,-64.61C524.68,-64.73 553.5,-65.48 579,-68 589.65,-69.05 601.01,-70.69 611.76,-72.48"/>
<polygon fill="#9a32cd" stroke="#9a32cd" points="502.06,-61.11 492.05,-64.59 502.05,-68.11 502.06,-61.11"/>
<text text-anchor="middle" x="559" y="-71" font-family="Helvetica,sans-Serif" font-size="10.00"> nelem</text>
</g>
</g>
</svg>
