<?xml version="1.0" encoding="UTF-8" standalone="no"?>
<!DOCTYPE svg PUBLIC "-//W3C//DTD SVG 1.1//EN"
 "http://www.w3.org/Graphics/SVG/1.1/DTD/svg11.dtd">
<!-- Generated by graphviz version 2.44.1 (20200629.0846)
 -->
<!-- Title: playrho::d2::DynamicTree::LeafData Pages: 1 -->
<svg width="726pt" height="175pt"
 viewBox="0.00 0.00 726.00 175.00" xmlns="http://www.w3.org/2000/svg" xmlns:xlink="http://www.w3.org/1999/xlink">
<g id="graph0" class="graph" transform="scale(1 1) rotate(0) translate(4 171)">
<title>playrho::d2::DynamicTree::LeafData</title>
<polygon fill="white" stroke="transparent" points="-4,4 -4,-171 722,-171 722,4 -4,4"/>
<!-- Node1 -->
<g id="node1" class="node">
<title>Node1</title>
<g id="a_node1"><a xlink:title="Leaf data of a tree node.">
<polygon fill="#bfbfbf" stroke="black" points="589,-44 589,-74 718,-74 718,-44 589,-44"/>
<text text-anchor="start" x="597" y="-62" font-family="Helvetica,sans-Serif" font-size="10.00">playrho::d2::DynamicTree</text>
<text text-anchor="middle" x="653.5" y="-51" font-family="Helvetica,sans-Serif" font-size="10.00">::LeafData</text>
</a>
</g>
</g>
<!-- Node2 -->
<g id="node2" class="node">
<title>Node2</title>
<g id="a_node2"><a xlink:href="classplayrho_1_1detail_1_1IndexingNamedType.html" target="_top" xlink:title=" ">
<polygon fill="white" stroke="black" points="360,-98.5 360,-139.5 505,-139.5 505,-98.5 360,-98.5"/>
<text text-anchor="start" x="368" y="-127.5" font-family="Helvetica,sans-Serif" font-size="10.00">playrho::detail::Indexing</text>
<text text-anchor="start" x="368" y="-116.5" font-family="Helvetica,sans-Serif" font-size="10.00">NamedType&lt; FixtureCounter,</text>
<text text-anchor="middle" x="432.5" y="-105.5" font-family="Helvetica,sans-Serif" font-size="10.00"> struct FixtureIdentifier &gt;</text>
</a>
</g>
</g>
<!-- Node2&#45;&gt;Node1 -->
<g id="edge1" class="edge">
<title>Node2&#45;&gt;Node1</title>
<path fill="none" stroke="#9a32cd" stroke-dasharray="5,2" d="M515.21,-96.61C542.72,-89.08 572.73,-80.85 597.66,-74.03"/>
<polygon fill="#9a32cd" stroke="#9a32cd" points="513.93,-93.34 505.21,-99.35 515.78,-100.09 513.93,-93.34"/>
<text text-anchor="middle" x="547" y="-97" font-family="Helvetica,sans-Serif" font-size="10.00"> fixture</text>
</g>
<!-- Node3 -->
<g id="node3" class="node">
<title>Node3</title>
<g id="a_node3"><a xlink:title=" ">
<polygon fill="white" stroke="#bfbfbf" points="116.5,-147.5 116.5,-166.5 197.5,-166.5 197.5,-147.5 116.5,-147.5"/>
<text text-anchor="middle" x="157" y="-154.5" font-family="Helvetica,sans-Serif" font-size="10.00">FixtureCounter</text>
</a>
</g>
</g>
<!-- Node3&#45;&gt;Node2 -->
<g id="edge2" class="edge">
<title>Node3&#45;&gt;Node2</title>
<path fill="none" stroke="#9a32cd" stroke-dasharray="5,2" d="M207.62,-151.85C244.71,-147.82 296.63,-141.76 342,-135 347.78,-134.14 353.75,-133.19 359.75,-132.2"/>
<polygon fill="#9a32cd" stroke="#9a32cd" points="207.14,-148.39 197.57,-152.94 207.89,-155.35 207.14,-148.39"/>
<text text-anchor="middle" x="288.5" y="-151" font-family="Helvetica,sans-Serif" font-size="10.00"> value_</text>
</g>
<!-- Node4 -->
<g id="node4" class="node">
<title>Node4</title>
<g id="a_node4"><a xlink:href="classplayrho_1_1detail_1_1IndexingNamedType.html" target="_top" xlink:title="An indexable, hashable, named &quot;strong type&quot; template class.">
<polygon fill="white" stroke="black" points="97,-80 97,-110 217,-110 217,-80 97,-80"/>
<text text-anchor="start" x="105" y="-98" font-family="Helvetica,sans-Serif" font-size="10.00">playrho::detail::Indexing</text>
<text text-anchor="middle" x="157" y="-87" font-family="Helvetica,sans-Serif" font-size="10.00">NamedType&lt; T, Tag &gt;</text>
</a>
</g>
</g>
<!-- Node4&#45;&gt;Node2 -->
<g id="edge3" class="edge">
<title>Node4&#45;&gt;Node2</title>
<path fill="none" stroke="orange" stroke-dasharray="5,2" d="M227.09,-101.06C267.7,-104.63 318.94,-109.12 359.96,-112.72"/>
<polygon fill="orange" stroke="orange" points="227.28,-97.57 217.01,-100.18 226.66,-104.54 227.28,-97.57"/>
<text text-anchor="start" x="235" y="-124" font-family="Helvetica,sans-Serif" font-size="10.00"> &lt; FixtureCounter, struct</text>
<text text-anchor="middle" x="288.5" y="-113" font-family="Helvetica,sans-Serif" font-size="10.00"> FixtureIdentifier &gt;</text>
</g>
<!-- Node6 -->
<g id="node6" class="node">
<title>Node6</title>
<g id="a_node6"><a xlink:href="classplayrho_1_1detail_1_1IndexingNamedType.html" target="_top" xlink:title=" ">
<polygon fill="white" stroke="black" points="364,-38.5 364,-79.5 501,-79.5 501,-38.5 364,-38.5"/>
<text text-anchor="start" x="372" y="-67.5" font-family="Helvetica,sans-Serif" font-size="10.00">playrho::detail::Indexing</text>
<text text-anchor="start" x="372" y="-56.5" font-family="Helvetica,sans-Serif" font-size="10.00">NamedType&lt; BodyCounter,</text>
<text text-anchor="middle" x="432.5" y="-45.5" font-family="Helvetica,sans-Serif" font-size="10.00"> struct BodyIdentifier &gt;</text>
</a>
</g>
</g>
<!-- Node4&#45;&gt;Node6 -->
<g id="edge7" class="edge">
<title>Node4&#45;&gt;Node6</title>
<path fill="none" stroke="orange" stroke-dasharray="5,2" d="M224.53,-77.9C228.06,-77.21 231.57,-76.57 235,-76 277.57,-68.95 325.83,-64.72 363.88,-62.25"/>
<polygon fill="orange" stroke="orange" points="223.64,-74.52 214.56,-79.98 225.07,-81.37 223.64,-74.52"/>
<text text-anchor="start" x="238.5" y="-90" font-family="Helvetica,sans-Serif" font-size="10.00"> &lt; BodyCounter, struct</text>
<text text-anchor="middle" x="288.5" y="-79" font-family="Helvetica,sans-Serif" font-size="10.00"> BodyIdentifier &gt;</text>
</g>
<!-- Node5 -->
<g id="node5" class="node">
<title>Node5</title>
<g id="a_node5"><a xlink:title=" ">
<polygon fill="white" stroke="#bfbfbf" points="0,-85.5 0,-104.5 29,-104.5 29,-85.5 0,-85.5"/>
<text text-anchor="middle" x="14.5" y="-92.5" font-family="Helvetica,sans-Serif" font-size="10.00">T</text>
</a>
</g>
</g>
<!-- Node5&#45;&gt;Node4 -->
<g id="edge4" class="edge">
<title>Node5&#45;&gt;Node4</title>
<path fill="none" stroke="#9a32cd" stroke-dasharray="5,2" d="M39.63,-95C55.39,-95 76.71,-95 96.79,-95"/>
<polygon fill="#9a32cd" stroke="#9a32cd" points="39.23,-91.5 29.23,-95 39.23,-98.5 39.23,-91.5"/>
<text text-anchor="middle" x="63" y="-98" font-family="Helvetica,sans-Serif" font-size="10.00"> value_</text>
</g>
<!-- Node6&#45;&gt;Node1 -->
<g id="edge5" class="edge">
<title>Node6&#45;&gt;Node1</title>
<path fill="none" stroke="#9a32cd" stroke-dasharray="5,2" d="M511.6,-59C536.89,-59 564.64,-59 588.76,-59"/>
<polygon fill="#9a32cd" stroke="#9a32cd" points="511.29,-55.5 501.29,-59 511.29,-62.5 511.29,-55.5"/>
<text text-anchor="middle" x="547" y="-62" font-family="Helvetica,sans-Serif" font-size="10.00"> body</text>
</g>
<!-- Node7 -->
<g id="node7" class="node">
<title>Node7</title>
<g id="a_node7"><a xlink:title=" ">
<polygon fill="white" stroke="#bfbfbf" points="120,-23.5 120,-42.5 194,-42.5 194,-23.5 120,-23.5"/>
<text text-anchor="middle" x="157" y="-30.5" font-family="Helvetica,sans-Serif" font-size="10.00">BodyCounter</text>
</a>
</g>
</g>
<!-- Node7&#45;&gt;Node6 -->
<g id="edge6" class="edge">
<title>Node7&#45;&gt;Node6</title>
<path fill="none" stroke="#9a32cd" stroke-dasharray="5,2" d="M204.25,-29.86C241.61,-28.13 295.44,-27.49 342,-34 349.67,-35.07 357.61,-36.62 365.45,-38.43"/>
<polygon fill="#9a32cd" stroke="#9a32cd" points="203.98,-26.37 194.17,-30.37 204.33,-33.36 203.98,-26.37"/>
<text text-anchor="middle" x="288.5" y="-37" font-family="Helvetica,sans-Serif" font-size="10.00"> value_</text>
</g>
<!-- Node8 -->
<g id="node8" class="node">
<title>Node8</title>
<g id="a_node8"><a xlink:title=" ">
<polygon fill="white" stroke="#bfbfbf" points="415,-0.5 415,-19.5 450,-19.5 450,-0.5 415,-0.5"/>
<text text-anchor="middle" x="432.5" y="-7.5" font-family="Helvetica,sans-Serif" font-size="10.00">type</text>
</a>
</g>
</g>
<!-- Node8&#45;&gt;Node1 -->
<g id="edge8" class="edge">
<title>Node8&#45;&gt;Node1</title>
<path fill="none" stroke="#9a32cd" stroke-dasharray="5,2" d="M460.19,-15.97C491.94,-23.08 546.05,-35.18 588.79,-44.75"/>
<polygon fill="#9a32cd" stroke="#9a32cd" points="460.84,-12.53 450.32,-13.76 459.32,-19.36 460.84,-12.53"/>
<text text-anchor="middle" x="547" y="-44" font-family="Helvetica,sans-Serif" font-size="10.00"> childIndex</text>
</g>
</g>
</svg>
