<?xml version="1.0" encoding="UTF-8" standalone="no"?>
<!DOCTYPE svg PUBLIC "-//W3C//DTD SVG 1.1//EN"
 "http://www.w3.org/Graphics/SVG/1.1/DTD/svg11.dtd">
<!-- Generated by graphviz version 2.44.1 (20200629.0846)
 -->
<!-- Title: playrho::d2::WorldImpl::ContactUpdateConf Pages: 1 -->
<svg width="340pt" height="284pt"
 viewBox="0.00 0.00 339.50 284.00" xmlns="http://www.w3.org/2000/svg" xmlns:xlink="http://www.w3.org/1999/xlink">
<g id="graph0" class="graph" transform="scale(1 1) rotate(0) translate(4 280)">
<title>playrho::d2::WorldImpl::ContactUpdateConf</title>
<polygon fill="white" stroke="transparent" points="-4,4 -4,-280 335.5,-280 335.5,4 -4,4"/>
<!-- Node1 -->
<g id="node1" class="node">
<title>Node1</title>
<g id="a_node1"><a xlink:title="Contact updating configuration.">
<polygon fill="#bfbfbf" stroke="black" points="105.5,-0.5 105.5,-30.5 219.5,-30.5 219.5,-0.5 105.5,-0.5"/>
<text text-anchor="start" x="113.5" y="-18.5" font-family="Helvetica,sans-Serif" font-size="10.00">playrho::d2::WorldImpl</text>
<text text-anchor="middle" x="162.5" y="-7.5" font-family="Helvetica,sans-Serif" font-size="10.00">::ContactUpdateConf</text>
</a>
</g>
</g>
<!-- Node2 -->
<g id="node2" class="node">
<title>Node2</title>
<g id="a_node2"><a xlink:href="structplayrho_1_1d2_1_1DistanceConf.html" target="_top" xlink:title="Distance Configuration.">
<polygon fill="white" stroke="black" points="41,-78.5 41,-97.5 172,-97.5 172,-78.5 41,-78.5"/>
<text text-anchor="middle" x="106.5" y="-85.5" font-family="Helvetica,sans-Serif" font-size="10.00">playrho::d2::DistanceConf</text>
</a>
</g>
</g>
<!-- Node2&#45;&gt;Node1 -->
<g id="edge1" class="edge">
<title>Node2&#45;&gt;Node1</title>
<path fill="none" stroke="#9a32cd" stroke-dasharray="5,2" d="M119.69,-70.39C129.31,-58.28 142.2,-42.05 151.32,-30.58"/>
<polygon fill="#9a32cd" stroke="#9a32cd" points="116.85,-68.35 113.37,-78.36 122.33,-72.7 116.85,-68.35"/>
<text text-anchor="middle" x="155.5" y="-52" font-family="Helvetica,sans-Serif" font-size="10.00"> distance</text>
</g>
<!-- Node3 -->
<g id="node3" class="node">
<title>Node3</title>
<g id="a_node3"><a xlink:title=" ">
<polygon fill="white" stroke="#bfbfbf" points="0,-151 0,-170 35,-170 35,-151 0,-151"/>
<text text-anchor="middle" x="17.5" y="-158" font-family="Helvetica,sans-Serif" font-size="10.00">type</text>
</a>
</g>
</g>
<!-- Node3&#45;&gt;Node2 -->
<g id="edge2" class="edge">
<title>Node3&#45;&gt;Node2</title>
<path fill="none" stroke="#9a32cd" stroke-dasharray="5,2" d="M23.37,-141.1C26.89,-132.53 32.14,-122.76 39.5,-116 48.64,-107.6 60.74,-101.66 72.13,-97.53"/>
<polygon fill="#9a32cd" stroke="#9a32cd" points="20.02,-140.08 19.91,-150.67 26.6,-142.46 20.02,-140.08"/>
<text text-anchor="middle" x="71" y="-119" font-family="Helvetica,sans-Serif" font-size="10.00"> maxIterations</text>
</g>
<!-- Node4 -->
<g id="node4" class="node">
<title>Node4</title>
<g id="a_node4"><a xlink:href="structplayrho_1_1d2_1_1Simplex_1_1Cache.html" target="_top" xlink:title="Simplex cache.">
<polygon fill="white" stroke="black" points="53.5,-145.5 53.5,-175.5 159.5,-175.5 159.5,-145.5 53.5,-145.5"/>
<text text-anchor="start" x="61.5" y="-163.5" font-family="Helvetica,sans-Serif" font-size="10.00">playrho::d2::Simplex</text>
<text text-anchor="middle" x="106.5" y="-152.5" font-family="Helvetica,sans-Serif" font-size="10.00">::Cache</text>
</a>
</g>
</g>
<!-- Node4&#45;&gt;Node2 -->
<g id="edge3" class="edge">
<title>Node4&#45;&gt;Node2</title>
<path fill="none" stroke="#9a32cd" stroke-dasharray="5,2" d="M106.5,-135.09C106.5,-122.21 106.5,-107.2 106.5,-97.89"/>
<polygon fill="#9a32cd" stroke="#9a32cd" points="103,-135.23 106.5,-145.23 110,-135.23 103,-135.23"/>
<text text-anchor="middle" x="121.5" y="-119" font-family="Helvetica,sans-Serif" font-size="10.00"> cache</text>
</g>
<!-- Node5 -->
<g id="node5" class="node">
<title>Node5</title>
<g id="a_node5"><a xlink:title=" ">
<polygon fill="white" stroke="#bfbfbf" points="171,-251 171,-270 206,-270 206,-251 171,-251"/>
<text text-anchor="middle" x="188.5" y="-258" font-family="Helvetica,sans-Serif" font-size="10.00">float</text>
</a>
</g>
</g>
<!-- Node5&#45;&gt;Node4 -->
<g id="edge4" class="edge">
<title>Node5&#45;&gt;Node4</title>
<path fill="none" stroke="#9a32cd" stroke-dasharray="5,2" d="M167.21,-244.84C160.48,-239.64 153.29,-233.47 147.5,-227 133.28,-211.1 120.91,-189.69 113.57,-175.74"/>
<polygon fill="#9a32cd" stroke="#9a32cd" points="165.22,-247.72 175.35,-250.84 169.38,-242.09 165.22,-247.72"/>
<text text-anchor="middle" x="163" y="-208" font-family="Helvetica,sans-Serif" font-size="10.00"> metric</text>
</g>
<!-- Node7 -->
<g id="node7" class="node">
<title>Node7</title>
<g id="a_node7"><a xlink:href="structplayrho_1_1d2_1_1Manifold_1_1Conf.html" target="_top" xlink:title="Configuration data for manifold calculation.">
<polygon fill="white" stroke="black" points="178,-145.5 178,-175.5 285,-175.5 285,-145.5 178,-145.5"/>
<text text-anchor="start" x="186" y="-163.5" font-family="Helvetica,sans-Serif" font-size="10.00">playrho::d2::Manifold</text>
<text text-anchor="middle" x="231.5" y="-152.5" font-family="Helvetica,sans-Serif" font-size="10.00">::Conf</text>
</a>
</g>
</g>
<!-- Node5&#45;&gt;Node7 -->
<g id="edge8" class="edge">
<title>Node5&#45;&gt;Node7</title>
<path fill="none" stroke="#9a32cd" stroke-dasharray="5,2" d="M184.63,-240.75C182.76,-227.07 182.27,-208.46 189.5,-194 193.13,-186.74 199.23,-180.64 205.67,-175.74"/>
<polygon fill="#9a32cd" stroke="#9a32cd" points="181.23,-241.63 186.38,-250.89 188.13,-240.44 181.23,-241.63"/>
<text text-anchor="middle" x="227.5" y="-208" font-family="Helvetica,sans-Serif" font-size="10.00"> maxCirclesRatio</text>
</g>
<!-- Node6 -->
<g id="node6" class="node">
<title>Node6</title>
<g id="a_node6"><a xlink:title=" ">
<polygon fill="white" stroke="#bfbfbf" points="3.5,-245.5 3.5,-275.5 151.5,-275.5 151.5,-245.5 3.5,-245.5"/>
<text text-anchor="start" x="11.5" y="-263.5" font-family="Helvetica,sans-Serif" font-size="10.00">array&lt; IndexPair, MaxSimplex</text>
<text text-anchor="middle" x="77.5" y="-252.5" font-family="Helvetica,sans-Serif" font-size="10.00">Edges &gt;</text>
</a>
</g>
</g>
<!-- Node6&#45;&gt;Node4 -->
<g id="edge5" class="edge">
<title>Node6&#45;&gt;Node4</title>
<path fill="none" stroke="#9a32cd" stroke-dasharray="5,2" d="M73.99,-235.17C73.11,-222.51 73.56,-206.99 78.5,-194 81.09,-187.18 85.8,-180.82 90.63,-175.56"/>
<polygon fill="#9a32cd" stroke="#9a32cd" points="70.54,-235.84 75.02,-245.44 77.5,-235.14 70.54,-235.84"/>
<text text-anchor="middle" x="95.5" y="-208" font-family="Helvetica,sans-Serif" font-size="10.00"> indices</text>
</g>
<!-- Node7&#45;&gt;Node1 -->
<g id="edge6" class="edge">
<title>Node7&#45;&gt;Node1</title>
<path fill="none" stroke="#9a32cd" stroke-dasharray="5,2" d="M220.82,-136.06C210.5,-113.6 194.3,-78.81 179.5,-49 176.5,-42.95 173.07,-36.34 170.08,-30.67"/>
<polygon fill="#9a32cd" stroke="#9a32cd" points="217.77,-137.82 225.12,-145.45 224.14,-134.91 217.77,-137.82"/>
<text text-anchor="middle" x="222.5" y="-85.5" font-family="Helvetica,sans-Serif" font-size="10.00"> manifold</text>
</g>
<!-- Node8 -->
<g id="node8" class="node">
<title>Node8</title>
<g id="a_node8"><a xlink:title=" ">
<polygon fill="white" stroke="#bfbfbf" points="264.5,-251 264.5,-270 310.5,-270 310.5,-251 264.5,-251"/>
<text text-anchor="middle" x="287.5" y="-258" font-family="Helvetica,sans-Serif" font-size="10.00">length)</text>
</a>
</g>
</g>
<!-- Node8&#45;&gt;Node7 -->
<g id="edge7" class="edge">
<title>Node8&#45;&gt;Node7</title>
<path fill="none" stroke="#9a32cd" stroke-dasharray="5,2" d="M283.74,-240.71C280.42,-227.01 274.65,-208.4 265.5,-194 261.21,-187.25 255.22,-180.9 249.46,-175.64"/>
<polygon fill="#9a32cd" stroke="#9a32cd" points="280.41,-241.85 285.98,-250.86 287.25,-240.35 280.41,-241.85"/>
<text text-anchor="middle" x="305.5" y="-219" font-family="Helvetica,sans-Serif" font-size="10.00"> linearSlop</text>
<text text-anchor="middle" x="305.5" y="-208" font-family="Helvetica,sans-Serif" font-size="10.00">targetDepth</text>
<text text-anchor="middle" x="305.5" y="-197" font-family="Helvetica,sans-Serif" font-size="10.00">tolerance</text>
</g>
</g>
</svg>
