<?xml version="1.0" encoding="UTF-8" standalone="no"?>
<!DOCTYPE svg PUBLIC "-//W3C//DTD SVG 1.1//EN"
 "http://www.w3.org/Graphics/SVG/1.1/DTD/svg11.dtd">
<!-- Generated by graphviz version 2.44.1 (20200629.0846)
 -->
<!-- Title: playrho::d2::ShapeConf Pages: 1 -->
<!--zoomable 465 -->
<svg id="main" version="1.1" xmlns="http://www.w3.org/2000/svg" xmlns:xlink="http://www.w3.org/1999/xlink" xml:space="preserve" onload="init(evt)">
<style type="text/css"><![CDATA[
.edge:hover path { stroke: red; }
.edge:hover polygon { stroke: red; fill: red; }
]]></style>
<script type="text/javascript"><![CDATA[
var edges = document.getElementsByTagName('g');
if (edges && edges.length) {
  for (var i=0;i<edges.length;i++) {
    if (edges[i].id.substr(0,4)=='edge') {
      edges[i].setAttribute('class','edge');
    }
  }
}
]]></script>
        <defs>
                <circle id="rim" cx="0" cy="0" r="7"/>
                <circle id="rim2" cx="0" cy="0" r="3.5"/>
                <g id="zoomPlus">
                        <use xlink:href="#rim" fill="#404040">
                                <set attributeName="fill" to="#808080" begin="zoomplus.mouseover" end="zoomplus.mouseout"/>
                        </use>
                        <path d="M-4,0h8M0,-4v8" fill="none" stroke="white" stroke-width="1.5" pointer-events="none"/>
                </g>
                <g id="zoomMin">
                        <use xlink:href="#rim" fill="#404040">
                                <set attributeName="fill" to="#808080" begin="zoomminus.mouseover" end="zoomminus.mouseout"/>
                        </use>
                        <path d="M-4,0h8" fill="none" stroke="white" stroke-width="1.5" pointer-events="none"/>
                </g>
                <g id="dirArrow">
                        <path fill="none" stroke="white" stroke-width="1.5" d="M0,-3.0v7 M-2.5,-0.5L0,-3.0L2.5,-0.5"/>
                </g>
               <g id="resetDef">
                       <use xlink:href="#rim2" fill="#404040">
                               <set attributeName="fill" to="#808080" begin="reset.mouseover" end="reset.mouseout"/>
                       </use>
               </g>
        </defs>

<script type="text/javascript">
var viewWidth = 302;
var viewHeight = 465;
var sectionId = 'dynsection-1';
</script>
<script xlink:href="svgpan.js"/>
<svg id="graph" class="graph">
<g id="viewport">
<title>playrho::d2::ShapeConf</title>
<polygon fill="white" stroke="transparent" points="-4,4 -4,-461 298,-461 298,4 -4,4"/>
<!-- Node1 -->
<g id="node1" class="node">
<title>Node1</title>
<g id="a_node1"><a xlink:title="Shape configuration structure.">
<polygon fill="#bfbfbf" stroke="black" points="70,-0.5 70,-19.5 189,-19.5 189,-0.5 70,-0.5"/>
<text text-anchor="middle" x="129.5" y="-7.5" font-family="Helvetica,sans-Serif" font-size="10.00">playrho::d2::ShapeConf</text>
</a>
</g>
</g>
<!-- Node2 -->
<g id="node2" class="node">
<title>Node2</title>
<g id="a_node2"><a xlink:href="structplayrho_1_1d2_1_1ShapeBuilder.html" target="_top" xlink:title=" ">
<polygon fill="white" stroke="black" points="65.5,-57.5 65.5,-87.5 193.5,-87.5 193.5,-57.5 65.5,-57.5"/>
<text text-anchor="start" x="73.5" y="-75.5" font-family="Helvetica,sans-Serif" font-size="10.00">playrho::d2::ShapeBuilder</text>
<text text-anchor="middle" x="129.5" y="-64.5" font-family="Helvetica,sans-Serif" font-size="10.00">&lt; ShapeConf &gt;</text>
</a>
</g>
</g>
<!-- Node2&#45;&gt;Node1 -->
<g id="edge1" class="edge">
<title>Node2&#45;&gt;Node1</title>
<path fill="none" stroke="midnightblue" d="M129.5,-47.35C129.5,-37.51 129.5,-26.78 129.5,-19.54"/>
<polygon fill="midnightblue" stroke="midnightblue" points="126,-47.47 129.5,-57.47 133,-47.47 126,-47.47"/>
</g>
<!-- Node3 -->
<g id="node3" class="node">
<title>Node3</title>
<g id="a_node3"><a xlink:href="structplayrho_1_1d2_1_1BaseShapeConf.html" target="_top" xlink:title="Base configuration for initializing shapes.">
<polygon fill="white" stroke="black" points="54.5,-203.5 54.5,-222.5 196.5,-222.5 196.5,-203.5 54.5,-203.5"/>
<text text-anchor="middle" x="125.5" y="-210.5" font-family="Helvetica,sans-Serif" font-size="10.00">playrho::d2::BaseShapeConf</text>
</a>
</g>
</g>
<!-- Node3&#45;&gt;Node2 -->
<g id="edge2" class="edge">
<title>Node3&#45;&gt;Node2</title>
<path fill="none" stroke="midnightblue" d="M126.04,-193.25C126.85,-165.19 128.36,-112.88 129.09,-87.73"/>
<polygon fill="midnightblue" stroke="midnightblue" points="122.54,-193.24 125.75,-203.34 129.54,-193.44 122.54,-193.24"/>
</g>
<!-- Node10 -->
<g id="node10" class="node">
<title>Node10</title>
<g id="a_node10"><a xlink:href="structplayrho_1_1d2_1_1ShapeBuilder.html" target="_top" xlink:title="Builder configuration structure.">
<polygon fill="white" stroke="black" points="141.5,-135.5 141.5,-165.5 269.5,-165.5 269.5,-135.5 141.5,-135.5"/>
<text text-anchor="start" x="149.5" y="-153.5" font-family="Helvetica,sans-Serif" font-size="10.00">playrho::d2::ShapeBuilder</text>
<text text-anchor="middle" x="205.5" y="-142.5" font-family="Helvetica,sans-Serif" font-size="10.00">&lt; ConcreteConf &gt;</text>
</a>
</g>
</g>
<!-- Node3&#45;&gt;Node10 -->
<g id="edge11" class="edge">
<title>Node3&#45;&gt;Node10</title>
<path fill="none" stroke="midnightblue" d="M145.1,-197.18C157.86,-187.53 174.41,-175.01 186.95,-165.53"/>
<polygon fill="midnightblue" stroke="midnightblue" points="142.83,-194.51 136.96,-203.33 147.05,-200.09 142.83,-194.51"/>
</g>
<!-- Node4 -->
<g id="node4" class="node">
<title>Node4</title>
<g id="a_node4"><a xlink:href="classplayrho_1_1CheckedValue.html" target="_top" xlink:title=" ">
<polygon fill="white" stroke="black" points="0,-281.5 0,-311.5 117,-311.5 117,-281.5 0,-281.5"/>
<text text-anchor="start" x="8" y="-299.5" font-family="Helvetica,sans-Serif" font-size="10.00">playrho::CheckedValue</text>
<text text-anchor="middle" x="58.5" y="-288.5" font-family="Helvetica,sans-Serif" font-size="10.00">&lt; Real &gt;</text>
</a>
</g>
</g>
<!-- Node4&#45;&gt;Node3 -->
<g id="edge3" class="edge">
<title>Node4&#45;&gt;Node3</title>
<path fill="none" stroke="#9a32cd" stroke-dasharray="5,2" d="M76.53,-273.57C90.33,-256.78 108.62,-234.53 118.48,-222.54"/>
<polygon fill="#9a32cd" stroke="#9a32cd" points="73.82,-271.36 70.17,-281.3 79.22,-275.8 73.82,-271.36"/>
<text text-anchor="middle" x="123" y="-255" font-family="Helvetica,sans-Serif" font-size="10.00"> friction</text>
<text text-anchor="middle" x="123" y="-244" font-family="Helvetica,sans-Serif" font-size="10.00">restitution</text>
</g>
<!-- Node5 -->
<g id="node5" class="node">
<title>Node5</title>
<g id="a_node5"><a xlink:title=" ">
<polygon fill="white" stroke="#bfbfbf" points="9,-365 9,-384 44,-384 44,-365 9,-365"/>
<text text-anchor="middle" x="26.5" y="-372" font-family="Helvetica,sans-Serif" font-size="10.00">float</text>
</a>
</g>
</g>
<!-- Node5&#45;&gt;Node4 -->
<g id="edge4" class="edge">
<title>Node5&#45;&gt;Node4</title>
<path fill="none" stroke="#9a32cd" stroke-dasharray="5,2" d="M24.58,-354.7C24.47,-346.8 25.29,-337.68 28.5,-330 31.34,-323.2 36.27,-316.93 41.32,-311.75"/>
<polygon fill="#9a32cd" stroke="#9a32cd" points="21.09,-355.02 25.2,-364.78 28.08,-354.59 21.09,-355.02"/>
<text text-anchor="middle" x="48.5" y="-333" font-family="Helvetica,sans-Serif" font-size="10.00"> m_value</text>
</g>
<!-- Node6 -->
<g id="node6" class="node">
<title>Node6</title>
<g id="a_node6"><a xlink:href="classplayrho_1_1CheckedValue.html" target="_top" xlink:title="Checked value.">
<polygon fill="white" stroke="black" points="62,-359.5 62,-389.5 205,-389.5 205,-359.5 62,-359.5"/>
<text text-anchor="start" x="70" y="-377.5" font-family="Helvetica,sans-Serif" font-size="10.00">playrho::CheckedValue</text>
<text text-anchor="middle" x="133.5" y="-366.5" font-family="Helvetica,sans-Serif" font-size="10.00">&lt; ValueType, CheckerType &gt;</text>
</a>
</g>
</g>
<!-- Node6&#45;&gt;Node4 -->
<g id="edge5" class="edge">
<title>Node6&#45;&gt;Node4</title>
<path fill="none" stroke="orange" stroke-dasharray="5,2" d="M112.32,-352.03C99.58,-339.13 83.74,-323.07 72.54,-311.73"/>
<polygon fill="orange" stroke="orange" points="109.88,-354.55 119.39,-359.2 114.86,-349.63 109.88,-354.55"/>
<text text-anchor="middle" x="120.5" y="-333" font-family="Helvetica,sans-Serif" font-size="10.00"> &lt; Real &gt;</text>
</g>
<!-- Node8 -->
<g id="node8" class="node">
<title>Node8</title>
<g id="a_node8"><a xlink:href="classplayrho_1_1CheckedValue.html" target="_top" xlink:title=" ">
<polygon fill="white" stroke="black" points="135,-281.5 135,-311.5 252,-311.5 252,-281.5 135,-281.5"/>
<text text-anchor="start" x="143" y="-299.5" font-family="Helvetica,sans-Serif" font-size="10.00">playrho::CheckedValue</text>
<text text-anchor="middle" x="193.5" y="-288.5" font-family="Helvetica,sans-Serif" font-size="10.00">&lt; AreaDensity &gt;</text>
</a>
</g>
</g>
<!-- Node6&#45;&gt;Node8 -->
<g id="edge9" class="edge">
<title>Node6&#45;&gt;Node8</title>
<path fill="none" stroke="orange" stroke-dasharray="5,2" d="M147.07,-350.48C151.41,-343.68 156.41,-336.36 161.5,-330 166.55,-323.69 172.65,-317.25 178.17,-311.79"/>
<polygon fill="orange" stroke="orange" points="143.91,-348.94 141.63,-359.28 149.87,-352.62 143.91,-348.94"/>
<text text-anchor="middle" x="199" y="-333" font-family="Helvetica,sans-Serif" font-size="10.00"> &lt; AreaDensity &gt;</text>
</g>
<!-- Node7 -->
<g id="node7" class="node">
<title>Node7</title>
<g id="a_node7"><a xlink:title=" ">
<polygon fill="white" stroke="#bfbfbf" points="102.5,-437.5 102.5,-456.5 164.5,-456.5 164.5,-437.5 102.5,-437.5"/>
<text text-anchor="middle" x="133.5" y="-444.5" font-family="Helvetica,sans-Serif" font-size="10.00">ValueType</text>
</a>
</g>
</g>
<!-- Node7&#45;&gt;Node6 -->
<g id="edge6" class="edge">
<title>Node7&#45;&gt;Node6</title>
<path fill="none" stroke="#9a32cd" stroke-dasharray="5,2" d="M133.5,-427.24C133.5,-415.41 133.5,-400.38 133.5,-389.58"/>
<polygon fill="#9a32cd" stroke="#9a32cd" points="130,-427.36 133.5,-437.36 137,-427.36 130,-427.36"/>
<text text-anchor="middle" x="153.5" y="-411" font-family="Helvetica,sans-Serif" font-size="10.00"> m_value</text>
</g>
<!-- Node8&#45;&gt;Node3 -->
<g id="edge7" class="edge">
<title>Node8&#45;&gt;Node3</title>
<path fill="none" stroke="#9a32cd" stroke-dasharray="5,2" d="M175.29,-273.29C167.14,-263.38 157.37,-251.58 148.5,-241 143.44,-234.96 137.69,-228.21 133.2,-222.97"/>
<polygon fill="#9a32cd" stroke="#9a32cd" points="172.66,-275.6 181.72,-281.11 178.07,-271.16 172.66,-275.6"/>
<text text-anchor="middle" x="183" y="-249.5" font-family="Helvetica,sans-Serif" font-size="10.00"> density</text>
</g>
<!-- Node9 -->
<g id="node9" class="node">
<title>Node9</title>
<g id="a_node9"><a xlink:title=" ">
<polygon fill="white" stroke="#bfbfbf" points="223,-365 223,-384 294,-384 294,-365 223,-365"/>
<text text-anchor="middle" x="258.5" y="-372" font-family="Helvetica,sans-Serif" font-size="10.00">AreaDensity</text>
</a>
</g>
</g>
<!-- Node9&#45;&gt;Node8 -->
<g id="edge8" class="edge">
<title>Node9&#45;&gt;Node8</title>
<path fill="none" stroke="#9a32cd" stroke-dasharray="5,2" d="M251.54,-355.31C247.84,-347.06 242.76,-337.49 236.5,-330 230.74,-323.11 223.25,-316.81 216.15,-311.64"/>
<polygon fill="#9a32cd" stroke="#9a32cd" points="248.41,-356.91 255.47,-364.81 254.88,-354.23 248.41,-356.91"/>
<text text-anchor="middle" x="263.5" y="-333" font-family="Helvetica,sans-Serif" font-size="10.00"> m_value</text>
</g>
<!-- Node10&#45;&gt;Node2 -->
<g id="edge10" class="edge">
<title>Node10&#45;&gt;Node2</title>
<path fill="none" stroke="orange" stroke-dasharray="5,2" d="M184.03,-128.03C171.13,-115.13 155.07,-99.07 143.73,-87.73"/>
<polygon fill="orange" stroke="orange" points="181.66,-130.61 191.2,-135.2 186.61,-125.66 181.66,-130.61"/>
<text text-anchor="middle" x="206.5" y="-109" font-family="Helvetica,sans-Serif" font-size="10.00"> &lt; ShapeConf &gt;</text>
</g>
</g>
</svg>
        <g id="navigator" transform="translate(0 0)" fill="#404254">
                <rect fill="#f2f5e9" fill-opacity="0.5" stroke="#606060" stroke-width=".5" x="0" y="0" width="60" height="60"/>
                <use id="zoomplus" xlink:href="#zoomPlus" x="17" y="9" onmousedown="handleZoom(evt,'in')"/>
                <use id="zoomminus" xlink:href="#zoomMin" x="42" y="9" onmousedown="handleZoom(evt,'out')"/>
                <use id="reset" xlink:href="#resetDef" x="30" y="36" onmousedown="handleReset()"/>
                <g id="arrowUp" xlink:href="#dirArrow" transform="translate(30 24)" onmousedown="handlePan(0,-1)">
                  <use xlink:href="#rim" fill="#404040">
                        <set attributeName="fill" to="#808080" begin="arrowUp.mouseover" end="arrowUp.mouseout"/>
                  </use>
                  <path fill="none" stroke="white" stroke-width="1.5" d="M0,-3.0v7 M-2.5,-0.5L0,-3.0L2.5,-0.5"/>
                </g>
                <g id="arrowRight" xlink:href="#dirArrow" transform="rotate(90) translate(36 -43)" onmousedown="handlePan(1,0)">
                  <use xlink:href="#rim" fill="#404040">
                        <set attributeName="fill" to="#808080" begin="arrowRight.mouseover" end="arrowRight.mouseout"/>
                  </use>
                  <path fill="none" stroke="white" stroke-width="1.5" d="M0,-3.0v7 M-2.5,-0.5L0,-3.0L2.5,-0.5"/>
                </g>
                <g id="arrowDown" xlink:href="#dirArrow" transform="rotate(180) translate(-30 -48)" onmousedown="handlePan(0,1)">
                  <use xlink:href="#rim" fill="#404040">
                        <set attributeName="fill" to="#808080" begin="arrowDown.mouseover" end="arrowDown.mouseout"/>
                  </use>
                  <path fill="none" stroke="white" stroke-width="1.5" d="M0,-3.0v7 M-2.5,-0.5L0,-3.0L2.5,-0.5"/>
                </g>
                <g id="arrowLeft" xlink:href="#dirArrow" transform="rotate(270) translate(-36 17)" onmousedown="handlePan(-1,0)">
                  <use xlink:href="#rim" fill="#404040">
                        <set attributeName="fill" to="#808080" begin="arrowLeft.mouseover" end="arrowLeft.mouseout"/>
                  </use>
                  <path fill="none" stroke="white" stroke-width="1.5" d="M0,-3.0v7 M-2.5,-0.5L0,-3.0L2.5,-0.5"/>
                </g>
        </g>
        <svg viewBox="0 0 15 15" width="100%" height="30px" preserveAspectRatio="xMaxYMin meet">
         <g id="arrow_out" transform="scale(0.3 0.3)">
          <a xlink:href="structplayrho_1_1d2_1_1ShapeConf__coll__graph_org.svg" target="_base">
           <rect id="button" ry="5" rx="5" y="6" x="6" height="38" width="38"
                fill="#f2f5e9" fill-opacity="0.5" stroke="#606060" stroke-width="1.0"/>
           <path id="arrow"
             d="M 11.500037,31.436501 C 11.940474,20.09759 22.043105,11.32322 32.158766,21.979434 L 37.068811,17.246167 C 37.068811,17.246167 37.088388,32 37.088388,32 L 22.160133,31.978069 C 22.160133,31.978069 26.997745,27.140456 26.997745,27.140456 C 18.528582,18.264221 13.291696,25.230495 11.500037,31.436501 z"
             style="fill:#404040;"/>
          </a>
         </g>
        </svg>
</svg>
