<?xml version="1.0" encoding="UTF-8" standalone="no"?>
<!DOCTYPE svg PUBLIC "-//W3C//DTD SVG 1.1//EN"
 "http://www.w3.org/Graphics/SVG/1.1/DTD/svg11.dtd">
<!-- Generated by graphviz version 2.44.1 (20200629.0846)
 -->
<!-- Title: playrho::d2::Position Pages: 1 -->
<svg width="228pt" height="229pt"
 viewBox="0.00 0.00 227.50 229.00" xmlns="http://www.w3.org/2000/svg" xmlns:xlink="http://www.w3.org/1999/xlink">
<g id="graph0" class="graph" transform="scale(1 1) rotate(0) translate(4 225)">
<title>playrho::d2::Position</title>
<polygon fill="white" stroke="transparent" points="-4,4 -4,-225 223.5,-225 223.5,4 -4,4"/>
<!-- Node1 -->
<g id="node1" class="node">
<title>Node1</title>
<g id="a_node1"><a xlink:title="2&#45;D positional data structure.">
<polygon fill="#bfbfbf" stroke="black" points="72,-0.5 72,-19.5 178,-19.5 178,-0.5 72,-0.5"/>
<text text-anchor="middle" x="125" y="-7.5" font-family="Helvetica,sans-Serif" font-size="10.00">playrho::d2::Position</text>
</a>
</g>
</g>
<!-- Node2 -->
<g id="node2" class="node">
<title>Node2</title>
<g id="a_node2"><a xlink:href="structplayrho_1_1Vector.html" target="_top" xlink:title=" ">
<polygon fill="white" stroke="black" points="0,-67.5 0,-86.5 130,-86.5 130,-67.5 0,-67.5"/>
<text text-anchor="middle" x="65" y="-74.5" font-family="Helvetica,sans-Serif" font-size="10.00">playrho::Vector&lt; Length &gt;</text>
</a>
</g>
</g>
<!-- Node2&#45;&gt;Node1 -->
<g id="edge1" class="edge">
<title>Node2&#45;&gt;Node1</title>
<path fill="none" stroke="#9a32cd" stroke-dasharray="5,2" d="M80.11,-59.63C91.84,-46.92 107.65,-29.8 117.04,-19.63"/>
<polygon fill="#9a32cd" stroke="#9a32cd" points="77.3,-57.51 73.09,-67.23 82.45,-62.26 77.3,-57.51"/>
<text text-anchor="middle" x="112.5" y="-41" font-family="Helvetica,sans-Serif" font-size="10.00"> linear</text>
</g>
<!-- Node3 -->
<g id="node3" class="node">
<title>Node3</title>
<g id="a_node3"><a xlink:title=" ">
<polygon fill="white" stroke="#bfbfbf" points="9,-134.5 9,-153.5 55,-153.5 55,-134.5 9,-134.5"/>
<text text-anchor="middle" x="32" y="-141.5" font-family="Helvetica,sans-Serif" font-size="10.00">Length</text>
</a>
</g>
</g>
<!-- Node3&#45;&gt;Node2 -->
<g id="edge2" class="edge">
<title>Node3&#45;&gt;Node2</title>
<path fill="none" stroke="#9a32cd" stroke-dasharray="5,2" d="M40.09,-125.3C43.11,-118.86 46.63,-111.56 50,-105 53.14,-98.9 56.89,-92.15 59.85,-86.92"/>
<polygon fill="#9a32cd" stroke="#9a32cd" points="36.87,-123.93 35.85,-134.47 43.23,-126.87 36.87,-123.93"/>
<text text-anchor="middle" x="71.5" y="-108" font-family="Helvetica,sans-Serif" font-size="10.00"> elements</text>
</g>
<!-- Node4 -->
<g id="node4" class="node">
<title>Node4</title>
<g id="a_node4"><a xlink:href="structplayrho_1_1Vector.html" target="_top" xlink:title="Vector.">
<polygon fill="white" stroke="black" points="73.5,-134.5 73.5,-153.5 192.5,-153.5 192.5,-134.5 73.5,-134.5"/>
<text text-anchor="middle" x="133" y="-141.5" font-family="Helvetica,sans-Serif" font-size="10.00">playrho::Vector&lt; T, N &gt;</text>
</a>
</g>
</g>
<!-- Node4&#45;&gt;Node2 -->
<g id="edge3" class="edge">
<title>Node4&#45;&gt;Node2</title>
<path fill="none" stroke="orange" stroke-dasharray="5,2" d="M116.26,-127C102.92,-114.25 84.77,-96.89 74.03,-86.63"/>
<polygon fill="orange" stroke="orange" points="114.18,-129.85 123.83,-134.23 119.02,-124.79 114.18,-129.85"/>
<text text-anchor="middle" x="129.5" y="-108" font-family="Helvetica,sans-Serif" font-size="10.00"> &lt; Length &gt;</text>
</g>
<!-- Node5 -->
<g id="node5" class="node">
<title>Node5</title>
<g id="a_node5"><a xlink:title=" ">
<polygon fill="white" stroke="#bfbfbf" points="118.5,-201.5 118.5,-220.5 147.5,-220.5 147.5,-201.5 118.5,-201.5"/>
<text text-anchor="middle" x="133" y="-208.5" font-family="Helvetica,sans-Serif" font-size="10.00">T</text>
</a>
</g>
</g>
<!-- Node5&#45;&gt;Node4 -->
<g id="edge4" class="edge">
<title>Node5&#45;&gt;Node4</title>
<path fill="none" stroke="#9a32cd" stroke-dasharray="5,2" d="M133,-191.04C133,-178.67 133,-163.12 133,-153.63"/>
<polygon fill="#9a32cd" stroke="#9a32cd" points="129.5,-191.23 133,-201.23 136.5,-191.23 129.5,-191.23"/>
<text text-anchor="middle" x="154.5" y="-175" font-family="Helvetica,sans-Serif" font-size="10.00"> elements</text>
</g>
<!-- Node6 -->
<g id="node6" class="node">
<title>Node6</title>
<g id="a_node6"><a xlink:title=" ">
<polygon fill="white" stroke="#bfbfbf" points="148.5,-67.5 148.5,-86.5 219.5,-86.5 219.5,-67.5 148.5,-67.5"/>
<text text-anchor="middle" x="184" y="-74.5" font-family="Helvetica,sans-Serif" font-size="10.00">plane_angle)</text>
</a>
</g>
</g>
<!-- Node6&#45;&gt;Node1 -->
<g id="edge5" class="edge">
<title>Node6&#45;&gt;Node1</title>
<path fill="none" stroke="#9a32cd" stroke-dasharray="5,2" d="M169.15,-59.63C157.61,-46.92 142.06,-29.8 132.83,-19.63"/>
<polygon fill="#9a32cd" stroke="#9a32cd" points="166.73,-62.18 176.04,-67.23 171.91,-57.48 166.73,-62.18"/>
<text text-anchor="middle" x="175.5" y="-41" font-family="Helvetica,sans-Serif" font-size="10.00"> angular</text>
</g>
</g>
</svg>
