<?xml version="1.0" encoding="UTF-8" standalone="no"?>
<!DOCTYPE svg PUBLIC "-//W3C//DTD SVG 1.1//EN"
 "http://www.w3.org/Graphics/SVG/1.1/DTD/svg11.dtd">
<!-- Generated by graphviz version 2.44.1 (20200629.0846)
 -->
<!-- Title: playrho::d2::BaseShapeConf Pages: 1 -->
<svg width="302pt" height="262pt"
 viewBox="0.00 0.00 302.00 262.00" xmlns="http://www.w3.org/2000/svg" xmlns:xlink="http://www.w3.org/1999/xlink">
<g id="graph0" class="graph" transform="scale(1 1) rotate(0) translate(4 258)">
<title>playrho::d2::BaseShapeConf</title>
<polygon fill="white" stroke="transparent" points="-4,4 -4,-258 298,-258 298,4 -4,4"/>
<!-- Node1 -->
<g id="node1" class="node">
<title>Node1</title>
<g id="a_node1"><a xlink:title="Base configuration for initializing shapes.">
<polygon fill="#bfbfbf" stroke="black" points="54.5,-0.5 54.5,-19.5 196.5,-19.5 196.5,-0.5 54.5,-0.5"/>
<text text-anchor="middle" x="125.5" y="-7.5" font-family="Helvetica,sans-Serif" font-size="10.00">playrho::d2::BaseShapeConf</text>
</a>
</g>
</g>
<!-- Node2 -->
<g id="node2" class="node">
<title>Node2</title>
<g id="a_node2"><a xlink:href="classplayrho_1_1CheckedValue.html" target="_top" xlink:title=" ">
<polygon fill="white" stroke="black" points="0,-78.5 0,-108.5 117,-108.5 117,-78.5 0,-78.5"/>
<text text-anchor="start" x="8" y="-96.5" font-family="Helvetica,sans-Serif" font-size="10.00">playrho::CheckedValue</text>
<text text-anchor="middle" x="58.5" y="-85.5" font-family="Helvetica,sans-Serif" font-size="10.00">&lt; Real &gt;</text>
</a>
</g>
</g>
<!-- Node2&#45;&gt;Node1 -->
<g id="edge1" class="edge">
<title>Node2&#45;&gt;Node1</title>
<path fill="none" stroke="#9a32cd" stroke-dasharray="5,2" d="M76.53,-70.57C90.33,-53.78 108.62,-31.53 118.48,-19.54"/>
<polygon fill="#9a32cd" stroke="#9a32cd" points="73.82,-68.36 70.17,-78.3 79.22,-72.8 73.82,-68.36"/>
<text text-anchor="middle" x="123" y="-52" font-family="Helvetica,sans-Serif" font-size="10.00"> friction</text>
<text text-anchor="middle" x="123" y="-41" font-family="Helvetica,sans-Serif" font-size="10.00">restitution</text>
</g>
<!-- Node3 -->
<g id="node3" class="node">
<title>Node3</title>
<g id="a_node3"><a xlink:title=" ">
<polygon fill="white" stroke="#bfbfbf" points="9,-162 9,-181 44,-181 44,-162 9,-162"/>
<text text-anchor="middle" x="26.5" y="-169" font-family="Helvetica,sans-Serif" font-size="10.00">float</text>
</a>
</g>
</g>
<!-- Node3&#45;&gt;Node2 -->
<g id="edge2" class="edge">
<title>Node3&#45;&gt;Node2</title>
<path fill="none" stroke="#9a32cd" stroke-dasharray="5,2" d="M24.58,-151.7C24.47,-143.8 25.29,-134.68 28.5,-127 31.34,-120.2 36.27,-113.93 41.32,-108.75"/>
<polygon fill="#9a32cd" stroke="#9a32cd" points="21.09,-152.02 25.2,-161.78 28.08,-151.59 21.09,-152.02"/>
<text text-anchor="middle" x="48.5" y="-130" font-family="Helvetica,sans-Serif" font-size="10.00"> m_value</text>
</g>
<!-- Node4 -->
<g id="node4" class="node">
<title>Node4</title>
<g id="a_node4"><a xlink:href="classplayrho_1_1CheckedValue.html" target="_top" xlink:title="Checked value.">
<polygon fill="white" stroke="black" points="62,-156.5 62,-186.5 205,-186.5 205,-156.5 62,-156.5"/>
<text text-anchor="start" x="70" y="-174.5" font-family="Helvetica,sans-Serif" font-size="10.00">playrho::CheckedValue</text>
<text text-anchor="middle" x="133.5" y="-163.5" font-family="Helvetica,sans-Serif" font-size="10.00">&lt; ValueType, CheckerType &gt;</text>
</a>
</g>
</g>
<!-- Node4&#45;&gt;Node2 -->
<g id="edge3" class="edge">
<title>Node4&#45;&gt;Node2</title>
<path fill="none" stroke="orange" stroke-dasharray="5,2" d="M112.32,-149.03C99.58,-136.13 83.74,-120.07 72.54,-108.73"/>
<polygon fill="orange" stroke="orange" points="109.88,-151.55 119.39,-156.2 114.86,-146.63 109.88,-151.55"/>
<text text-anchor="middle" x="120.5" y="-130" font-family="Helvetica,sans-Serif" font-size="10.00"> &lt; Real &gt;</text>
</g>
<!-- Node6 -->
<g id="node6" class="node">
<title>Node6</title>
<g id="a_node6"><a xlink:href="classplayrho_1_1CheckedValue.html" target="_top" xlink:title=" ">
<polygon fill="white" stroke="black" points="135,-78.5 135,-108.5 252,-108.5 252,-78.5 135,-78.5"/>
<text text-anchor="start" x="143" y="-96.5" font-family="Helvetica,sans-Serif" font-size="10.00">playrho::CheckedValue</text>
<text text-anchor="middle" x="193.5" y="-85.5" font-family="Helvetica,sans-Serif" font-size="10.00">&lt; AreaDensity &gt;</text>
</a>
</g>
</g>
<!-- Node4&#45;&gt;Node6 -->
<g id="edge7" class="edge">
<title>Node4&#45;&gt;Node6</title>
<path fill="none" stroke="orange" stroke-dasharray="5,2" d="M147.07,-147.48C151.41,-140.68 156.41,-133.36 161.5,-127 166.55,-120.69 172.65,-114.25 178.17,-108.79"/>
<polygon fill="orange" stroke="orange" points="143.91,-145.94 141.63,-156.28 149.87,-149.62 143.91,-145.94"/>
<text text-anchor="middle" x="199" y="-130" font-family="Helvetica,sans-Serif" font-size="10.00"> &lt; AreaDensity &gt;</text>
</g>
<!-- Node5 -->
<g id="node5" class="node">
<title>Node5</title>
<g id="a_node5"><a xlink:title=" ">
<polygon fill="white" stroke="#bfbfbf" points="102.5,-234.5 102.5,-253.5 164.5,-253.5 164.5,-234.5 102.5,-234.5"/>
<text text-anchor="middle" x="133.5" y="-241.5" font-family="Helvetica,sans-Serif" font-size="10.00">ValueType</text>
</a>
</g>
</g>
<!-- Node5&#45;&gt;Node4 -->
<g id="edge4" class="edge">
<title>Node5&#45;&gt;Node4</title>
<path fill="none" stroke="#9a32cd" stroke-dasharray="5,2" d="M133.5,-224.24C133.5,-212.41 133.5,-197.38 133.5,-186.58"/>
<polygon fill="#9a32cd" stroke="#9a32cd" points="130,-224.36 133.5,-234.36 137,-224.36 130,-224.36"/>
<text text-anchor="middle" x="153.5" y="-208" font-family="Helvetica,sans-Serif" font-size="10.00"> m_value</text>
</g>
<!-- Node6&#45;&gt;Node1 -->
<g id="edge5" class="edge">
<title>Node6&#45;&gt;Node1</title>
<path fill="none" stroke="#9a32cd" stroke-dasharray="5,2" d="M175.29,-70.29C167.14,-60.38 157.37,-48.58 148.5,-38 143.44,-31.96 137.69,-25.21 133.2,-19.97"/>
<polygon fill="#9a32cd" stroke="#9a32cd" points="172.66,-72.6 181.72,-78.11 178.07,-68.16 172.66,-72.6"/>
<text text-anchor="middle" x="183" y="-46.5" font-family="Helvetica,sans-Serif" font-size="10.00"> density</text>
</g>
<!-- Node7 -->
<g id="node7" class="node">
<title>Node7</title>
<g id="a_node7"><a xlink:title=" ">
<polygon fill="white" stroke="#bfbfbf" points="223,-162 223,-181 294,-181 294,-162 223,-162"/>
<text text-anchor="middle" x="258.5" y="-169" font-family="Helvetica,sans-Serif" font-size="10.00">AreaDensity</text>
</a>
</g>
</g>
<!-- Node7&#45;&gt;Node6 -->
<g id="edge6" class="edge">
<title>Node7&#45;&gt;Node6</title>
<path fill="none" stroke="#9a32cd" stroke-dasharray="5,2" d="M251.54,-152.31C247.84,-144.06 242.76,-134.49 236.5,-127 230.74,-120.11 223.25,-113.81 216.15,-108.64"/>
<polygon fill="#9a32cd" stroke="#9a32cd" points="248.41,-153.91 255.47,-161.81 254.88,-151.23 248.41,-153.91"/>
<text text-anchor="middle" x="263.5" y="-130" font-family="Helvetica,sans-Serif" font-size="10.00"> m_value</text>
</g>
</g>
</svg>
