<?xml version="1.0" encoding="UTF-8" standalone="no"?>
<!DOCTYPE svg PUBLIC "-//W3C//DTD SVG 1.1//EN"
 "http://www.w3.org/Graphics/SVG/1.1/DTD/svg11.dtd">
<!-- Generated by graphviz version 2.44.1 (20200629.0846)
 -->
<!-- Title: playrho::d2::DynamicTree::VariantData Pages: 1 -->
<!--zoomable 210 -->
<svg id="main" version="1.1" xmlns="http://www.w3.org/2000/svg" xmlns:xlink="http://www.w3.org/1999/xlink" xml:space="preserve" onload="init(evt)">
<style type="text/css"><![CDATA[
.edge:hover path { stroke: red; }
.edge:hover polygon { stroke: red; fill: red; }
]]></style>
<script type="text/javascript"><![CDATA[
var edges = document.getElementsByTagName('g');
if (edges && edges.length) {
  for (var i=0;i<edges.length;i++) {
    if (edges[i].id.substr(0,4)=='edge') {
      edges[i].setAttribute('class','edge');
    }
  }
}
]]></script>
        <defs>
                <circle id="rim" cx="0" cy="0" r="7"/>
                <circle id="rim2" cx="0" cy="0" r="3.5"/>
                <g id="zoomPlus">
                        <use xlink:href="#rim" fill="#404040">
                                <set attributeName="fill" to="#808080" begin="zoomplus.mouseover" end="zoomplus.mouseout"/>
                        </use>
                        <path d="M-4,0h8M0,-4v8" fill="none" stroke="white" stroke-width="1.5" pointer-events="none"/>
                </g>
                <g id="zoomMin">
                        <use xlink:href="#rim" fill="#404040">
                                <set attributeName="fill" to="#808080" begin="zoomminus.mouseover" end="zoomminus.mouseout"/>
                        </use>
                        <path d="M-4,0h8" fill="none" stroke="white" stroke-width="1.5" pointer-events="none"/>
                </g>
                <g id="dirArrow">
                        <path fill="none" stroke="white" stroke-width="1.5" d="M0,-3.0v7 M-2.5,-0.5L0,-3.0L2.5,-0.5"/>
                </g>
               <g id="resetDef">
                       <use xlink:href="#rim2" fill="#404040">
                               <set attributeName="fill" to="#808080" begin="reset.mouseover" end="reset.mouseout"/>
                       </use>
               </g>
        </defs>

<script type="text/javascript">
var viewWidth = 926;
var viewHeight = 210;
var sectionId = 'dynsection-0';
</script>
<script xlink:href="svgpan.js"/>
<svg id="graph" class="graph">
<g id="viewport">
<title>playrho::d2::DynamicTree::VariantData</title>
<polygon fill="white" stroke="transparent" points="-4,4 -4,-206 922,-206 922,4 -4,4"/>
<!-- Node1 -->
<g id="node1" class="node">
<title>Node1</title>
<g id="a_node1"><a xlink:title="Variant data.">
<polygon fill="#bfbfbf" stroke="black" points="789,-95 789,-125 918,-125 918,-95 789,-95"/>
<text text-anchor="start" x="797" y="-113" font-family="Helvetica,sans-Serif" font-size="10.00">playrho::d2::DynamicTree</text>
<text text-anchor="middle" x="853.5" y="-102" font-family="Helvetica,sans-Serif" font-size="10.00">::VariantData</text>
</a>
</g>
</g>
<!-- Node2 -->
<g id="node2" class="node">
<title>Node2</title>
<g id="a_node2"><a xlink:href="structplayrho_1_1d2_1_1DynamicTree_1_1BranchData.html" target="_top" xlink:title="Branch data of a tree node.">
<polygon fill="white" stroke="black" points="589,-163 589,-193 718,-193 718,-163 589,-163"/>
<text text-anchor="start" x="597" y="-181" font-family="Helvetica,sans-Serif" font-size="10.00">playrho::d2::DynamicTree</text>
<text text-anchor="middle" x="653.5" y="-170" font-family="Helvetica,sans-Serif" font-size="10.00">::BranchData</text>
</a>
</g>
</g>
<!-- Node2&#45;&gt;Node1 -->
<g id="edge1" class="edge">
<title>Node2&#45;&gt;Node1</title>
<path fill="none" stroke="#9a32cd" stroke-dasharray="5,2" d="M707.96,-159.64C739.52,-148.8 778.97,-135.25 808.68,-125.05"/>
<polygon fill="#9a32cd" stroke="#9a32cd" points="706.76,-156.35 698.44,-162.91 709.04,-162.97 706.76,-156.35"/>
<text text-anchor="middle" x="753.5" y="-152" font-family="Helvetica,sans-Serif" font-size="10.00"> branch</text>
</g>
<!-- Node3 -->
<g id="node3" class="node">
<title>Node3</title>
<g id="a_node3"><a xlink:title=" ">
<polygon fill="white" stroke="#bfbfbf" points="389.5,-173.5 389.5,-192.5 475.5,-192.5 475.5,-173.5 389.5,-173.5"/>
<text text-anchor="middle" x="432.5" y="-180.5" font-family="Helvetica,sans-Serif" font-size="10.00">ContactCounter</text>
</a>
</g>
</g>
<!-- Node3&#45;&gt;Node2 -->
<g id="edge2" class="edge">
<title>Node3&#45;&gt;Node2</title>
<path fill="none" stroke="#9a32cd" stroke-dasharray="5,2" d="M485.86,-181.8C516.78,-181.1 556.13,-180.2 588.83,-179.45"/>
<polygon fill="#9a32cd" stroke="#9a32cd" points="485.64,-178.31 475.73,-182.04 485.8,-185.31 485.64,-178.31"/>
<text text-anchor="middle" x="547" y="-194" font-family="Helvetica,sans-Serif" font-size="10.00"> child1</text>
<text text-anchor="middle" x="547" y="-183" font-family="Helvetica,sans-Serif" font-size="10.00">child2</text>
</g>
<!-- Node4 -->
<g id="node4" class="node">
<title>Node4</title>
<g id="a_node4"><a xlink:href="structplayrho_1_1d2_1_1DynamicTree_1_1LeafData.html" target="_top" xlink:title="Leaf data of a tree node.">
<polygon fill="white" stroke="black" points="589,-95 589,-125 718,-125 718,-95 589,-95"/>
<text text-anchor="start" x="597" y="-113" font-family="Helvetica,sans-Serif" font-size="10.00">playrho::d2::DynamicTree</text>
<text text-anchor="middle" x="653.5" y="-102" font-family="Helvetica,sans-Serif" font-size="10.00">::LeafData</text>
</a>
</g>
</g>
<!-- Node4&#45;&gt;Node1 -->
<g id="edge3" class="edge">
<title>Node4&#45;&gt;Node1</title>
<path fill="none" stroke="#9a32cd" stroke-dasharray="5,2" d="M728.47,-110C748.34,-110 769.64,-110 788.88,-110"/>
<polygon fill="#9a32cd" stroke="#9a32cd" points="728.24,-106.5 718.24,-110 728.24,-113.5 728.24,-106.5"/>
<text text-anchor="middle" x="753.5" y="-113" font-family="Helvetica,sans-Serif" font-size="10.00"> leaf</text>
</g>
<!-- Node5 -->
<g id="node5" class="node">
<title>Node5</title>
<g id="a_node5"><a xlink:href="classplayrho_1_1detail_1_1IndexingNamedType.html" target="_top" xlink:title=" ">
<polygon fill="white" stroke="black" points="360,-75.5 360,-116.5 505,-116.5 505,-75.5 360,-75.5"/>
<text text-anchor="start" x="368" y="-104.5" font-family="Helvetica,sans-Serif" font-size="10.00">playrho::detail::Indexing</text>
<text text-anchor="start" x="368" y="-93.5" font-family="Helvetica,sans-Serif" font-size="10.00">NamedType&lt; FixtureCounter,</text>
<text text-anchor="middle" x="432.5" y="-82.5" font-family="Helvetica,sans-Serif" font-size="10.00"> struct FixtureIdentifier &gt;</text>
</a>
</g>
</g>
<!-- Node5&#45;&gt;Node4 -->
<g id="edge4" class="edge">
<title>Node5&#45;&gt;Node4</title>
<path fill="none" stroke="#9a32cd" stroke-dasharray="5,2" d="M515.46,-101.24C539.69,-102.79 565.85,-104.46 588.75,-105.92"/>
<polygon fill="#9a32cd" stroke="#9a32cd" points="515.41,-97.73 505.21,-100.58 514.97,-104.72 515.41,-97.73"/>
<text text-anchor="middle" x="547" y="-108" font-family="Helvetica,sans-Serif" font-size="10.00"> fixture</text>
</g>
<!-- Node6 -->
<g id="node6" class="node">
<title>Node6</title>
<g id="a_node6"><a xlink:title=" ">
<polygon fill="white" stroke="#bfbfbf" points="116.5,-124.5 116.5,-143.5 197.5,-143.5 197.5,-124.5 116.5,-124.5"/>
<text text-anchor="middle" x="157" y="-131.5" font-family="Helvetica,sans-Serif" font-size="10.00">FixtureCounter</text>
</a>
</g>
</g>
<!-- Node6&#45;&gt;Node5 -->
<g id="edge5" class="edge">
<title>Node6&#45;&gt;Node5</title>
<path fill="none" stroke="#9a32cd" stroke-dasharray="5,2" d="M207.62,-128.85C244.71,-124.82 296.63,-118.76 342,-112 347.78,-111.14 353.75,-110.19 359.75,-109.2"/>
<polygon fill="#9a32cd" stroke="#9a32cd" points="207.14,-125.39 197.57,-129.94 207.89,-132.35 207.14,-125.39"/>
<text text-anchor="middle" x="288.5" y="-129" font-family="Helvetica,sans-Serif" font-size="10.00"> value_</text>
</g>
<!-- Node7 -->
<g id="node7" class="node">
<title>Node7</title>
<g id="a_node7"><a xlink:href="classplayrho_1_1detail_1_1IndexingNamedType.html" target="_top" xlink:title="An indexable, hashable, named &quot;strong type&quot; template class.">
<polygon fill="white" stroke="black" points="97,-57 97,-87 217,-87 217,-57 97,-57"/>
<text text-anchor="start" x="105" y="-75" font-family="Helvetica,sans-Serif" font-size="10.00">playrho::detail::Indexing</text>
<text text-anchor="middle" x="157" y="-64" font-family="Helvetica,sans-Serif" font-size="10.00">NamedType&lt; T, Tag &gt;</text>
</a>
</g>
</g>
<!-- Node7&#45;&gt;Node5 -->
<g id="edge6" class="edge">
<title>Node7&#45;&gt;Node5</title>
<path fill="none" stroke="orange" stroke-dasharray="5,2" d="M227.09,-78.06C267.7,-81.63 318.94,-86.12 359.96,-89.72"/>
<polygon fill="orange" stroke="orange" points="227.28,-74.57 217.01,-77.18 226.66,-81.54 227.28,-74.57"/>
<text text-anchor="start" x="235" y="-102" font-family="Helvetica,sans-Serif" font-size="10.00"> &lt; FixtureCounter, struct</text>
<text text-anchor="middle" x="288.5" y="-91" font-family="Helvetica,sans-Serif" font-size="10.00"> FixtureIdentifier &gt;</text>
</g>
<!-- Node9 -->
<g id="node9" class="node">
<title>Node9</title>
<g id="a_node9"><a xlink:href="classplayrho_1_1detail_1_1IndexingNamedType.html" target="_top" xlink:title=" ">
<polygon fill="white" stroke="black" points="364,-15.5 364,-56.5 501,-56.5 501,-15.5 364,-15.5"/>
<text text-anchor="start" x="372" y="-44.5" font-family="Helvetica,sans-Serif" font-size="10.00">playrho::detail::Indexing</text>
<text text-anchor="start" x="372" y="-33.5" font-family="Helvetica,sans-Serif" font-size="10.00">NamedType&lt; BodyCounter,</text>
<text text-anchor="middle" x="432.5" y="-22.5" font-family="Helvetica,sans-Serif" font-size="10.00"> struct BodyIdentifier &gt;</text>
</a>
</g>
</g>
<!-- Node7&#45;&gt;Node9 -->
<g id="edge10" class="edge">
<title>Node7&#45;&gt;Node9</title>
<path fill="none" stroke="orange" stroke-dasharray="5,2" d="M226.97,-55.39C229.67,-54.89 232.36,-54.43 235,-54 277.61,-47.1 325.88,-42.63 363.91,-39.87"/>
<polygon fill="orange" stroke="orange" points="226.26,-51.96 217.11,-57.31 227.59,-58.84 226.26,-51.96"/>
<text text-anchor="start" x="238.5" y="-68" font-family="Helvetica,sans-Serif" font-size="10.00"> &lt; BodyCounter, struct</text>
<text text-anchor="middle" x="288.5" y="-57" font-family="Helvetica,sans-Serif" font-size="10.00"> BodyIdentifier &gt;</text>
</g>
<!-- Node8 -->
<g id="node8" class="node">
<title>Node8</title>
<g id="a_node8"><a xlink:title=" ">
<polygon fill="white" stroke="#bfbfbf" points="0,-62.5 0,-81.5 29,-81.5 29,-62.5 0,-62.5"/>
<text text-anchor="middle" x="14.5" y="-69.5" font-family="Helvetica,sans-Serif" font-size="10.00">T</text>
</a>
</g>
</g>
<!-- Node8&#45;&gt;Node7 -->
<g id="edge7" class="edge">
<title>Node8&#45;&gt;Node7</title>
<path fill="none" stroke="#9a32cd" stroke-dasharray="5,2" d="M39.63,-72C55.39,-72 76.71,-72 96.79,-72"/>
<polygon fill="#9a32cd" stroke="#9a32cd" points="39.23,-68.5 29.23,-72 39.23,-75.5 39.23,-68.5"/>
<text text-anchor="middle" x="63" y="-75" font-family="Helvetica,sans-Serif" font-size="10.00"> value_</text>
</g>
<!-- Node9&#45;&gt;Node4 -->
<g id="edge8" class="edge">
<title>Node9&#45;&gt;Node4</title>
<path fill="none" stroke="#9a32cd" stroke-dasharray="5,2" d="M503.7,-59.72C537.93,-71.29 578.06,-84.85 608.02,-94.97"/>
<polygon fill="#9a32cd" stroke="#9a32cd" points="504.81,-56.4 494.21,-56.51 502.57,-63.03 504.81,-56.4"/>
<text text-anchor="middle" x="547" y="-85" font-family="Helvetica,sans-Serif" font-size="10.00"> body</text>
</g>
<!-- Node10 -->
<g id="node10" class="node">
<title>Node10</title>
<g id="a_node10"><a xlink:title=" ">
<polygon fill="white" stroke="#bfbfbf" points="120,-0.5 120,-19.5 194,-19.5 194,-0.5 120,-0.5"/>
<text text-anchor="middle" x="157" y="-7.5" font-family="Helvetica,sans-Serif" font-size="10.00">BodyCounter</text>
</a>
</g>
</g>
<!-- Node10&#45;&gt;Node9 -->
<g id="edge9" class="edge">
<title>Node10&#45;&gt;Node9</title>
<path fill="none" stroke="#9a32cd" stroke-dasharray="5,2" d="M204.25,-6.86C241.61,-5.13 295.44,-4.49 342,-11 349.67,-12.07 357.61,-13.62 365.45,-15.43"/>
<polygon fill="#9a32cd" stroke="#9a32cd" points="203.98,-3.37 194.17,-7.37 204.33,-10.36 203.98,-3.37"/>
<text text-anchor="middle" x="288.5" y="-14" font-family="Helvetica,sans-Serif" font-size="10.00"> value_</text>
</g>
<!-- Node11 -->
<g id="node11" class="node">
<title>Node11</title>
<g id="a_node11"><a xlink:title=" ">
<polygon fill="white" stroke="#bfbfbf" points="415,-135.5 415,-154.5 450,-154.5 450,-135.5 415,-135.5"/>
<text text-anchor="middle" x="432.5" y="-142.5" font-family="Helvetica,sans-Serif" font-size="10.00">type</text>
</a>
</g>
</g>
<!-- Node11&#45;&gt;Node4 -->
<g id="edge11" class="edge">
<title>Node11&#45;&gt;Node4</title>
<path fill="none" stroke="#9a32cd" stroke-dasharray="5,2" d="M460.6,-140.67C492.41,-135.58 546.23,-126.98 588.79,-120.18"/>
<polygon fill="#9a32cd" stroke="#9a32cd" points="459.64,-137.28 450.32,-142.31 460.75,-144.19 459.64,-137.28"/>
<text text-anchor="middle" x="547" y="-134" font-family="Helvetica,sans-Serif" font-size="10.00"> childIndex</text>
</g>
<!-- Node12 -->
<g id="node12" class="node">
<title>Node12</title>
<g id="a_node12"><a xlink:href="structplayrho_1_1d2_1_1DynamicTree_1_1UnusedData.html" target="_top" xlink:title="Unused data of a tree node.">
<polygon fill="white" stroke="black" points="589,-46 589,-76 718,-76 718,-46 589,-46"/>
<text text-anchor="start" x="597" y="-64" font-family="Helvetica,sans-Serif" font-size="10.00">playrho::d2::DynamicTree</text>
<text text-anchor="middle" x="653.5" y="-53" font-family="Helvetica,sans-Serif" font-size="10.00">::UnusedData</text>
</a>
</g>
</g>
<!-- Node12&#45;&gt;Node1 -->
<g id="edge12" class="edge">
<title>Node12&#45;&gt;Node1</title>
<path fill="none" stroke="#9a32cd" stroke-dasharray="5,2" d="M725.12,-78.48C746.94,-83.88 770.78,-89.78 791.86,-94.99"/>
<polygon fill="#9a32cd" stroke="#9a32cd" points="725.8,-75.04 715.25,-76.03 724.12,-81.83 725.8,-75.04"/>
<text text-anchor="middle" x="753.5" y="-92" font-family="Helvetica,sans-Serif" font-size="10.00"> unused</text>
</g>
</g>
</svg>
        <g id="navigator" transform="translate(0 0)" fill="#404254">
                <rect fill="#f2f5e9" fill-opacity="0.5" stroke="#606060" stroke-width=".5" x="0" y="0" width="60" height="60"/>
                <use id="zoomplus" xlink:href="#zoomPlus" x="17" y="9" onmousedown="handleZoom(evt,'in')"/>
                <use id="zoomminus" xlink:href="#zoomMin" x="42" y="9" onmousedown="handleZoom(evt,'out')"/>
                <use id="reset" xlink:href="#resetDef" x="30" y="36" onmousedown="handleReset()"/>
                <g id="arrowUp" xlink:href="#dirArrow" transform="translate(30 24)" onmousedown="handlePan(0,-1)">
                  <use xlink:href="#rim" fill="#404040">
                        <set attributeName="fill" to="#808080" begin="arrowUp.mouseover" end="arrowUp.mouseout"/>
                  </use>
                  <path fill="none" stroke="white" stroke-width="1.5" d="M0,-3.0v7 M-2.5,-0.5L0,-3.0L2.5,-0.5"/>
                </g>
                <g id="arrowRight" xlink:href="#dirArrow" transform="rotate(90) translate(36 -43)" onmousedown="handlePan(1,0)">
                  <use xlink:href="#rim" fill="#404040">
                        <set attributeName="fill" to="#808080" begin="arrowRight.mouseover" end="arrowRight.mouseout"/>
                  </use>
                  <path fill="none" stroke="white" stroke-width="1.5" d="M0,-3.0v7 M-2.5,-0.5L0,-3.0L2.5,-0.5"/>
                </g>
                <g id="arrowDown" xlink:href="#dirArrow" transform="rotate(180) translate(-30 -48)" onmousedown="handlePan(0,1)">
                  <use xlink:href="#rim" fill="#404040">
                        <set attributeName="fill" to="#808080" begin="arrowDown.mouseover" end="arrowDown.mouseout"/>
                  </use>
                  <path fill="none" stroke="white" stroke-width="1.5" d="M0,-3.0v7 M-2.5,-0.5L0,-3.0L2.5,-0.5"/>
                </g>
                <g id="arrowLeft" xlink:href="#dirArrow" transform="rotate(270) translate(-36 17)" onmousedown="handlePan(-1,0)">
                  <use xlink:href="#rim" fill="#404040">
                        <set attributeName="fill" to="#808080" begin="arrowLeft.mouseover" end="arrowLeft.mouseout"/>
                  </use>
                  <path fill="none" stroke="white" stroke-width="1.5" d="M0,-3.0v7 M-2.5,-0.5L0,-3.0L2.5,-0.5"/>
                </g>
        </g>
        <svg viewBox="0 0 15 15" width="100%" height="30px" preserveAspectRatio="xMaxYMin meet">
         <g id="arrow_out" transform="scale(0.3 0.3)">
          <a xlink:href="unionplayrho_1_1d2_1_1DynamicTree_1_1VariantData__coll__graph_org.svg" target="_base">
           <rect id="button" ry="5" rx="5" y="6" x="6" height="38" width="38"
                fill="#f2f5e9" fill-opacity="0.5" stroke="#606060" stroke-width="1.0"/>
           <path id="arrow"
             d="M 11.500037,31.436501 C 11.940474,20.09759 22.043105,11.32322 32.158766,21.979434 L 37.068811,17.246167 C 37.068811,17.246167 37.088388,32 37.088388,32 L 22.160133,31.978069 C 22.160133,31.978069 26.997745,27.140456 26.997745,27.140456 C 18.528582,18.264221 13.291696,25.230495 11.500037,31.436501 z"
             style="fill:#404040;"/>
          </a>
         </g>
        </svg>
</svg>
