<?xml version="1.0" encoding="UTF-8" standalone="no"?>
<!DOCTYPE svg PUBLIC "-//W3C//DTD SVG 1.1//EN"
 "http://www.w3.org/Graphics/SVG/1.1/DTD/svg11.dtd">
<!-- Generated by graphviz version 2.43.0 (0)
 -->
<!-- Title: playrho::detail::Checked&lt; ValueType, Checker, NoExcept &gt; Pages: 1 -->
<svg width="450pt" height="431pt"
 viewBox="0.00 0.00 450.00 431.00" xmlns="http://www.w3.org/2000/svg" xmlns:xlink="http://www.w3.org/1999/xlink">
<g id="graph0" class="graph" transform="scale(1 1) rotate(0) translate(4 427)">
<title>playrho::detail::Checked&lt; ValueType, Checker, NoExcept &gt;</title>
<polygon fill="white" stroke="transparent" points="-4,4 -4,-427 446,-427 446,4 -4,4"/>
<!-- Node1 -->
<g id="node1" class="node">
<title>Node1</title>
<g id="a_node1"><a xlink:title="Class template for construction&#45;time constraining a type&#39;s value.">
<polygon fill="#bfbfbf" stroke="black" points="0,-196.5 0,-226.5 186,-226.5 186,-196.5 0,-196.5"/>
<text text-anchor="start" x="8" y="-214.5" font-family="Helvetica,sans-Serif" font-size="10.00">playrho::detail::Checked</text>
<text text-anchor="middle" x="93" y="-203.5" font-family="Helvetica,sans-Serif" font-size="10.00">&lt; ValueType, Checker, NoExcept &gt;</text>
</a>
</g>
</g>
<!-- Node2 -->
<g id="node2" class="node">
<title>Node2</title>
<g id="a_node2"><a xlink:href="classplayrho_1_1detail_1_1Checked.html" target="_top" xlink:title=" ">
<polygon fill="white" stroke="black" points="308,-392.5 308,-422.5 442,-422.5 442,-392.5 308,-392.5"/>
<text text-anchor="start" x="316" y="-410.5" font-family="Helvetica,sans-Serif" font-size="10.00">playrho::detail::Checked</text>
<text text-anchor="middle" x="375" y="-399.5" font-family="Helvetica,sans-Serif" font-size="10.00">&lt; AreaDensity &gt;</text>
</a>
</g>
</g>
<!-- Node1&#45;&gt;Node2 -->
<g id="edge1" class="edge">
<title>Node1&#45;&gt;Node2</title>
<path fill="none" stroke="orange" stroke-dasharray="5,2" d="M107.14,-235.67C125.11,-266.57 160.18,-319.72 204,-350.5 234.82,-372.15 274.48,-386.07 307.75,-394.73"/>
<polygon fill="orange" stroke="orange" points="110.11,-233.81 102.12,-226.85 104.02,-237.27 110.11,-233.81"/>
<text text-anchor="middle" x="247" y="-391.5" font-family="Helvetica,sans-Serif" font-size="10.00"> &lt; AreaDensity &gt;</text>
</g>
<!-- Node3 -->
<g id="node3" class="node">
<title>Node3</title>
<g id="a_node3"><a xlink:href="classplayrho_1_1detail_1_1Checked.html" target="_top" xlink:title=" ">
<polygon fill="white" stroke="black" points="308,-343.5 308,-373.5 442,-373.5 442,-343.5 308,-343.5"/>
<text text-anchor="start" x="316" y="-361.5" font-family="Helvetica,sans-Serif" font-size="10.00">playrho::detail::Checked</text>
<text text-anchor="middle" x="375" y="-350.5" font-family="Helvetica,sans-Serif" font-size="10.00">&lt; Force &gt;</text>
</a>
</g>
</g>
<!-- Node1&#45;&gt;Node3 -->
<g id="edge2" class="edge">
<title>Node1&#45;&gt;Node3</title>
<path fill="none" stroke="orange" stroke-dasharray="5,2" d="M116.58,-233.81C137.68,-253.61 170.82,-282.18 204,-300.5 238.26,-319.42 279.79,-333.73 313.22,-343.4"/>
<polygon fill="orange" stroke="orange" points="118.76,-231.05 109.11,-226.68 113.93,-236.12 118.76,-231.05"/>
<text text-anchor="middle" x="247" y="-338.5" font-family="Helvetica,sans-Serif" font-size="10.00"> &lt; Force &gt;</text>
</g>
<!-- Node4 -->
<g id="node4" class="node">
<title>Node4</title>
<g id="a_node4"><a xlink:href="classplayrho_1_1detail_1_1Checked.html" target="_top" xlink:title=" ">
<polygon fill="white" stroke="black" points="308,-294.5 308,-324.5 442,-324.5 442,-294.5 308,-294.5"/>
<text text-anchor="start" x="316" y="-312.5" font-family="Helvetica,sans-Serif" font-size="10.00">playrho::detail::Checked</text>
<text text-anchor="middle" x="375" y="-301.5" font-family="Helvetica,sans-Serif" font-size="10.00">&lt; Mass &gt;</text>
</a>
</g>
</g>
<!-- Node1&#45;&gt;Node4 -->
<g id="edge3" class="edge">
<title>Node1&#45;&gt;Node4</title>
<path fill="none" stroke="orange" stroke-dasharray="5,2" d="M135.15,-230.92C155.6,-240.19 180.84,-251.08 204,-259.5 240.86,-272.9 283.18,-285.36 316.37,-294.49"/>
<polygon fill="orange" stroke="orange" points="136.37,-227.63 125.82,-226.65 133.46,-233.99 136.37,-227.63"/>
<text text-anchor="middle" x="247" y="-288.5" font-family="Helvetica,sans-Serif" font-size="10.00"> &lt; Mass &gt;</text>
</g>
<!-- Node5 -->
<g id="node5" class="node">
<title>Node5</title>
<g id="a_node5"><a xlink:href="classplayrho_1_1detail_1_1Checked.html" target="_top" xlink:title=" ">
<polygon fill="white" stroke="black" points="308,-245.5 308,-275.5 442,-275.5 442,-245.5 308,-245.5"/>
<text text-anchor="start" x="316" y="-263.5" font-family="Helvetica,sans-Serif" font-size="10.00">playrho::detail::Checked</text>
<text text-anchor="middle" x="375" y="-252.5" font-family="Helvetica,sans-Serif" font-size="10.00">&lt; Frequency &gt;</text>
</a>
</g>
</g>
<!-- Node1&#45;&gt;Node5 -->
<g id="edge4" class="edge">
<title>Node1&#45;&gt;Node5</title>
<path fill="none" stroke="orange" stroke-dasharray="5,2" d="M190.18,-228.33C228.96,-235.12 272.72,-242.78 307.82,-248.92"/>
<polygon fill="orange" stroke="orange" points="190.37,-224.81 179.91,-226.53 189.16,-231.71 190.37,-224.81"/>
<text text-anchor="middle" x="247" y="-247.5" font-family="Helvetica,sans-Serif" font-size="10.00"> &lt; Frequency &gt;</text>
</g>
<!-- Node6 -->
<g id="node6" class="node">
<title>Node6</title>
<g id="a_node6"><a xlink:href="classplayrho_1_1detail_1_1Checked.html" target="_top" xlink:title=" ">
<polygon fill="white" stroke="black" points="308,-196.5 308,-226.5 442,-226.5 442,-196.5 308,-196.5"/>
<text text-anchor="start" x="316" y="-214.5" font-family="Helvetica,sans-Serif" font-size="10.00">playrho::detail::Checked</text>
<text text-anchor="middle" x="375" y="-203.5" font-family="Helvetica,sans-Serif" font-size="10.00">&lt; Torque &gt;</text>
</a>
</g>
</g>
<!-- Node1&#45;&gt;Node6 -->
<g id="edge5" class="edge">
<title>Node1&#45;&gt;Node6</title>
<path fill="none" stroke="orange" stroke-dasharray="5,2" d="M196.42,-211.5C233.52,-211.5 274.41,-211.5 307.6,-211.5"/>
<polygon fill="orange" stroke="orange" points="196.07,-208 186.07,-211.5 196.07,-215 196.07,-208"/>
<text text-anchor="middle" x="247" y="-214.5" font-family="Helvetica,sans-Serif" font-size="10.00"> &lt; Torque &gt;</text>
</g>
<!-- Node7 -->
<g id="node7" class="node">
<title>Node7</title>
<g id="a_node7"><a xlink:href="classplayrho_1_1detail_1_1Checked.html" target="_top" xlink:title=" ">
<polygon fill="white" stroke="black" points="308,-147.5 308,-177.5 442,-177.5 442,-147.5 308,-147.5"/>
<text text-anchor="start" x="316" y="-165.5" font-family="Helvetica,sans-Serif" font-size="10.00">playrho::detail::Checked</text>
<text text-anchor="middle" x="375" y="-154.5" font-family="Helvetica,sans-Serif" font-size="10.00">&lt; Length &gt;</text>
</a>
</g>
</g>
<!-- Node1&#45;&gt;Node7 -->
<g id="edge6" class="edge">
<title>Node1&#45;&gt;Node7</title>
<path fill="none" stroke="orange" stroke-dasharray="5,2" d="M190.18,-194.67C228.96,-187.88 272.72,-180.22 307.82,-174.08"/>
<polygon fill="orange" stroke="orange" points="189.16,-191.29 179.91,-196.47 190.37,-198.19 189.16,-191.29"/>
<text text-anchor="middle" x="247" y="-193.5" font-family="Helvetica,sans-Serif" font-size="10.00"> &lt; Length &gt;</text>
</g>
<!-- Node8 -->
<g id="node8" class="node">
<title>Node8</title>
<g id="a_node8"><a xlink:href="classplayrho_1_1detail_1_1Checked.html" target="_top" xlink:title=" ">
<polygon fill="white" stroke="black" points="308,-98.5 308,-128.5 442,-128.5 442,-98.5 308,-98.5"/>
<text text-anchor="start" x="316" y="-116.5" font-family="Helvetica,sans-Serif" font-size="10.00">playrho::detail::Checked</text>
<text text-anchor="middle" x="375" y="-105.5" font-family="Helvetica,sans-Serif" font-size="10.00">&lt; Real &gt;</text>
</a>
</g>
</g>
<!-- Node1&#45;&gt;Node8 -->
<g id="edge7" class="edge">
<title>Node1&#45;&gt;Node8</title>
<path fill="none" stroke="orange" stroke-dasharray="5,2" d="M133.92,-192.12C154.56,-182.5 180.33,-171.14 204,-162.5 240.07,-149.34 281.45,-137.35 314.35,-128.52"/>
<polygon fill="orange" stroke="orange" points="132.38,-188.97 124.82,-196.39 135.36,-195.31 132.38,-188.97"/>
<text text-anchor="middle" x="247" y="-165.5" font-family="Helvetica,sans-Serif" font-size="10.00"> &lt; Real &gt;</text>
</g>
<!-- Node9 -->
<g id="node9" class="node">
<title>Node9</title>
<g id="a_node9"><a xlink:href="classplayrho_1_1detail_1_1Checked.html" target="_top" xlink:title=" ">
<polygon fill="white" stroke="black" points="308,-49.5 308,-79.5 442,-79.5 442,-49.5 308,-49.5"/>
<text text-anchor="start" x="316" y="-67.5" font-family="Helvetica,sans-Serif" font-size="10.00">playrho::detail::Checked</text>
<text text-anchor="middle" x="375" y="-56.5" font-family="Helvetica,sans-Serif" font-size="10.00">&lt; RotInertia &gt;</text>
</a>
</g>
</g>
<!-- Node1&#45;&gt;Node9 -->
<g id="edge8" class="edge">
<title>Node1&#45;&gt;Node9</title>
<path fill="none" stroke="orange" stroke-dasharray="5,2" d="M115.81,-189.19C136.77,-168.84 170.19,-139.18 204,-120.5 237.05,-102.24 277.02,-88.7 309.9,-79.51"/>
<polygon fill="orange" stroke="orange" points="113.33,-186.72 108.67,-196.23 118.24,-191.7 113.33,-186.72"/>
<text text-anchor="middle" x="247" y="-123.5" font-family="Helvetica,sans-Serif" font-size="10.00"> &lt; RotInertia &gt;</text>
</g>
<!-- Node10 -->
<g id="node10" class="node">
<title>Node10</title>
<g id="a_node10"><a xlink:href="classplayrho_1_1detail_1_1Checked.html" target="_top" xlink:title=" ">
<polygon fill="white" stroke="black" points="308,-0.5 308,-30.5 442,-30.5 442,-0.5 308,-0.5"/>
<text text-anchor="start" x="316" y="-18.5" font-family="Helvetica,sans-Serif" font-size="10.00">playrho::detail::Checked</text>
<text text-anchor="middle" x="375" y="-7.5" font-family="Helvetica,sans-Serif" font-size="10.00">&lt; Angle &gt;</text>
</a>
</g>
</g>
<!-- Node1&#45;&gt;Node10 -->
<g id="edge9" class="edge">
<title>Node1&#45;&gt;Node10</title>
<path fill="none" stroke="orange" stroke-dasharray="5,2" d="M106.73,-187.39C124.46,-156.04 159.51,-101.64 204,-70.5 234.75,-48.98 274.41,-35.52 307.69,-27.3"/>
<polygon fill="orange" stroke="orange" points="103.56,-185.88 101.79,-196.33 109.69,-189.27 103.56,-185.88"/>
<text text-anchor="middle" x="247" y="-73.5" font-family="Helvetica,sans-Serif" font-size="10.00"> &lt; Angle &gt;</text>
</g>
</g>
</svg>
