<?xml version="1.0" encoding="UTF-8" standalone="no"?>
<!DOCTYPE svg PUBLIC "-//W3C//DTD SVG 1.1//EN"
 "http://www.w3.org/Graphics/SVG/1.1/DTD/svg11.dtd">
<!-- Generated by graphviz version 2.43.0 (0)
 -->
<!-- Title: Library/include/playrho/Real.hpp Pages: 1 -->
<!--zoomable 375 -->
<svg id="main" version="1.1" xmlns="http://www.w3.org/2000/svg" xmlns:xlink="http://www.w3.org/1999/xlink" xml:space="preserve" onload="init(evt)">
<style type="text/css"><![CDATA[
.edge:hover path { stroke: red; }
.edge:hover polygon { stroke: red; fill: red; }
]]></style>
<script type="text/javascript"><![CDATA[
var edges = document.getElementsByTagName('g');
if (edges && edges.length) {
  for (var i=0;i<edges.length;i++) {
    if (edges[i].id.substr(0,4)=='edge') {
      edges[i].setAttribute('class','edge');
    }
  }
}
]]></script>
        <defs>
                <circle id="rim" cx="0" cy="0" r="7"/>
                <circle id="rim2" cx="0" cy="0" r="3.5"/>
                <g id="zoomPlus">
                        <use xlink:href="#rim" fill="#404040">
                                <set attributeName="fill" to="#808080" begin="zoomplus.mouseover" end="zoomplus.mouseout"/>
                        </use>
                        <path d="M-4,0h8M0,-4v8" fill="none" stroke="white" stroke-width="1.5" pointer-events="none"/>
                </g>
                <g id="zoomMin">
                        <use xlink:href="#rim" fill="#404040">
                                <set attributeName="fill" to="#808080" begin="zoomminus.mouseover" end="zoomminus.mouseout"/>
                        </use>
                        <path d="M-4,0h8" fill="none" stroke="white" stroke-width="1.5" pointer-events="none"/>
                </g>
                <g id="dirArrow">
                        <path fill="none" stroke="white" stroke-width="1.5" d="M0,-3.0v7 M-2.5,-0.5L0,-3.0L2.5,-0.5"/>
                </g>
               <g id="resetDef">
                       <use xlink:href="#rim2" fill="#404040">
                               <set attributeName="fill" to="#808080" begin="reset.mouseover" end="reset.mouseout"/>
                       </use>
               </g>
        </defs>

<script type="text/javascript">
var viewWidth = 751;
var viewHeight = 375;
var sectionId = 'dynsection-0';
</script>
<script xlink:href="svgpan.js"/>
<svg id="graph" class="graph">
<g id="viewport">
<title>Library/include/playrho/Real.hpp</title>
<polygon fill="white" stroke="transparent" points="-4,4 -4,-371 746.78,-371 746.78,4 -4,4"/>
<!-- Node1 -->
<g id="node1" class="node">
<title>Node1</title>
<g id="a_node1"><a xlink:title="Real number definition file.">
<polygon fill="#bfbfbf" stroke="black" points="216.28,-336.5 216.28,-366.5 344.28,-366.5 344.28,-336.5 216.28,-336.5"/>
<text text-anchor="start" x="224.28" y="-354.5" font-family="Helvetica,sans-Serif" font-size="10.00">Library/include/playrho</text>
<text text-anchor="middle" x="280.28" y="-343.5" font-family="Helvetica,sans-Serif" font-size="10.00">/Real.hpp</text>
</a>
</g>
</g>
<!-- Node2 -->
<g id="node2" class="node">
<title>Node2</title>
<g id="a_node2"><a xlink:href="Fixed_8hpp.html" target="_top" xlink:title="Definition of the Fixed class and closely related code.">
<polygon fill="white" stroke="black" points="227.78,-224.5 227.78,-243.5 330.78,-243.5 330.78,-224.5 227.78,-224.5"/>
<text text-anchor="middle" x="279.28" y="-231.5" font-family="Helvetica,sans-Serif" font-size="10.00">playrho/Fixed.hpp</text>
</a>
</g>
</g>
<!-- Node1&#45;&gt;Node2 -->
<g id="edge1" class="edge">
<title>Node1&#45;&gt;Node2</title>
<path fill="none" stroke="midnightblue" d="M280.16,-336.34C279.98,-315.62 279.64,-277.02 279.44,-253.9"/>
<polygon fill="midnightblue" stroke="midnightblue" points="282.94,-253.64 279.35,-243.67 275.94,-253.7 282.94,-253.64"/>
</g>
<!-- Node23 -->
<g id="node23" class="node">
<title>Node23</title>
<g id="a_node23"><a xlink:href="FixedMath_8hpp.html" target="_top" xlink:title="Conventional math functions for the Fixed class template.">
<polygon fill="white" stroke="black" points="308.28,-280.5 308.28,-299.5 436.28,-299.5 436.28,-280.5 308.28,-280.5"/>
<text text-anchor="middle" x="372.28" y="-287.5" font-family="Helvetica,sans-Serif" font-size="10.00">playrho/FixedMath.hpp</text>
</a>
</g>
</g>
<!-- Node1&#45;&gt;Node23 -->
<g id="edge27" class="edge">
<title>Node1&#45;&gt;Node23</title>
<path fill="none" stroke="midnightblue" d="M302.08,-336.4C316.69,-326.95 335.85,-314.56 350.46,-305.11"/>
<polygon fill="midnightblue" stroke="midnightblue" points="352.4,-308.03 358.89,-299.66 348.59,-302.15 352.4,-308.03"/>
</g>
<!-- Node25 -->
<g id="node25" class="node">
<title>Node25</title>
<g id="a_node25"><a xlink:href="FixedLimits_8hpp.html" target="_top" xlink:title="Specialization of std::numeric_limits for Fixed.">
<polygon fill="white" stroke="black" points="118.78,-280.5 118.78,-299.5 251.78,-299.5 251.78,-280.5 118.78,-280.5"/>
<text text-anchor="middle" x="185.28" y="-287.5" font-family="Helvetica,sans-Serif" font-size="10.00">playrho/FixedLimits.hpp</text>
</a>
</g>
</g>
<!-- Node1&#45;&gt;Node25 -->
<g id="edge30" class="edge">
<title>Node1&#45;&gt;Node25</title>
<path fill="none" stroke="midnightblue" d="M257.76,-336.4C242.68,-326.95 222.89,-314.56 207.8,-305.11"/>
<polygon fill="midnightblue" stroke="midnightblue" points="209.43,-302 199.1,-299.66 205.72,-307.93 209.43,-302"/>
</g>
<!-- Node3 -->
<g id="node3" class="node">
<title>Node3</title>
<g id="a_node3"><a xlink:title=" ">
<polygon fill="white" stroke="#bfbfbf" points="12.28,-112.5 12.28,-131.5 62.28,-131.5 62.28,-112.5 12.28,-112.5"/>
<text text-anchor="middle" x="37.28" y="-119.5" font-family="Helvetica,sans-Serif" font-size="10.00">cstdint</text>
</a>
</g>
</g>
<!-- Node2&#45;&gt;Node3 -->
<g id="edge2" class="edge">
<title>Node2&#45;&gt;Node3</title>
<path fill="none" stroke="midnightblue" d="M227.54,-233.45C182.39,-231.31 117.23,-221.85 72.28,-188 56.95,-176.46 47.58,-156.2 42.45,-141.35"/>
<polygon fill="midnightblue" stroke="midnightblue" points="45.75,-140.2 39.43,-131.71 39.07,-142.29 45.75,-140.2"/>
</g>
<!-- Node4 -->
<g id="node4" class="node">
<title>Node4</title>
<g id="a_node4"><a xlink:title=" ">
<polygon fill="white" stroke="#bfbfbf" points="224.28,-0.5 224.28,-19.5 268.28,-19.5 268.28,-0.5 224.28,-0.5"/>
<text text-anchor="middle" x="246.28" y="-7.5" font-family="Helvetica,sans-Serif" font-size="10.00">limits</text>
</a>
</g>
</g>
<!-- Node2&#45;&gt;Node4 -->
<g id="edge3" class="edge">
<title>Node2&#45;&gt;Node4</title>
<path fill="none" stroke="midnightblue" d="M277.98,-224.3C273.13,-191.63 255.92,-75.87 249.1,-29.96"/>
<polygon fill="midnightblue" stroke="midnightblue" points="252.53,-29.26 247.6,-19.88 245.61,-30.29 252.53,-29.26"/>
</g>
<!-- Node5 -->
<g id="node5" class="node">
<title>Node5</title>
<g id="a_node5"><a xlink:title=" ">
<polygon fill="white" stroke="#bfbfbf" points="464.28,-168.5 464.28,-187.5 516.28,-187.5 516.28,-168.5 464.28,-168.5"/>
<text text-anchor="middle" x="490.28" y="-175.5" font-family="Helvetica,sans-Serif" font-size="10.00">cassert</text>
</a>
</g>
</g>
<!-- Node2&#45;&gt;Node5 -->
<g id="edge4" class="edge">
<title>Node2&#45;&gt;Node5</title>
<path fill="none" stroke="midnightblue" d="M312.69,-224.47C346.09,-215.94 399.19,-202.38 454.02,-188.32"/>
<polygon fill="midnightblue" stroke="midnightblue" points="455.09,-191.66 463.91,-185.79 453.35,-184.88 455.09,-191.66"/>
</g>
<!-- Node6 -->
<g id="node6" class="node">
<title>Node6</title>
<g id="a_node6"><a xlink:title=" ">
<polygon fill="white" stroke="#bfbfbf" points="55.78,-0.5 55.78,-19.5 124.78,-19.5 124.78,-0.5 55.78,-0.5"/>
<text text-anchor="middle" x="90.28" y="-7.5" font-family="Helvetica,sans-Serif" font-size="10.00">type_traits</text>
</a>
</g>
</g>
<!-- Node2&#45;&gt;Node6 -->
<g id="edge5" class="edge">
<title>Node2&#45;&gt;Node6</title>
<path fill="none" stroke="midnightblue" d="M227.43,-232.32C178.87,-229.57 105.81,-219.84 51.28,-188 22.97,-171.47 14.65,-162.74 3.28,-132 -12.82,-88.49 36.31,-46.57 67.19,-25.36"/>
<polygon fill="midnightblue" stroke="midnightblue" points="69.33,-28.14 75.73,-19.7 65.46,-22.31 69.33,-28.14"/>
</g>
<!-- Node7 -->
<g id="node7" class="node">
<title>Node7</title>
<g id="a_node7"><a xlink:title=" ">
<polygon fill="white" stroke="#bfbfbf" points="534.28,-168.5 534.28,-187.5 594.28,-187.5 594.28,-168.5 534.28,-168.5"/>
<text text-anchor="middle" x="564.28" y="-175.5" font-family="Helvetica,sans-Serif" font-size="10.00">iostream</text>
</a>
</g>
</g>
<!-- Node2&#45;&gt;Node7 -->
<g id="edge6" class="edge">
<title>Node2&#45;&gt;Node7</title>
<path fill="none" stroke="midnightblue" d="M329.82,-224.45C377.5,-216.23 451.22,-203.12 524.24,-188.14"/>
<polygon fill="midnightblue" stroke="midnightblue" points="524.99,-191.56 534.07,-186.11 523.57,-184.71 524.99,-191.56"/>
</g>
<!-- Node8 -->
<g id="node8" class="node">
<title>Node8</title>
<g id="a_node8"><a xlink:href="Templates_8hpp.html" target="_top" xlink:title="Definitions of miscellaneous template related code.">
<polygon fill="white" stroke="black" points="288.28,-112.5 288.28,-131.5 416.28,-131.5 416.28,-112.5 288.28,-112.5"/>
<text text-anchor="middle" x="352.28" y="-119.5" font-family="Helvetica,sans-Serif" font-size="10.00">playrho/Templates.hpp</text>
</a>
</g>
</g>
<!-- Node2&#45;&gt;Node8 -->
<g id="edge7" class="edge">
<title>Node2&#45;&gt;Node8</title>
<path fill="none" stroke="midnightblue" d="M284.04,-224.41C291.13,-211.79 305.03,-187.63 318.28,-168 324.71,-158.46 332.41,-148.2 338.84,-139.89"/>
<polygon fill="midnightblue" stroke="midnightblue" points="341.8,-141.79 345.22,-131.76 336.29,-137.47 341.8,-141.79"/>
</g>
<!-- Node14 -->
<g id="node14" class="node">
<title>Node14</title>
<g id="a_node14"><a xlink:href="TypeInfo_8hpp.html" target="_top" xlink:title="Definition of TypeID class and closely related code.">
<polygon fill="white" stroke="black" points="326.78,-168.5 326.78,-187.5 445.78,-187.5 445.78,-168.5 326.78,-168.5"/>
<text text-anchor="middle" x="386.28" y="-175.5" font-family="Helvetica,sans-Serif" font-size="10.00">playrho/TypeInfo.hpp</text>
</a>
</g>
</g>
<!-- Node2&#45;&gt;Node14 -->
<g id="edge15" class="edge">
<title>Node2&#45;&gt;Node14</title>
<path fill="none" stroke="midnightblue" d="M296.47,-224.32C313.63,-215.66 340.22,-202.24 360.03,-192.25"/>
<polygon fill="midnightblue" stroke="midnightblue" points="361.78,-195.28 369.13,-187.65 358.62,-189.04 361.78,-195.28"/>
</g>
<!-- Node21 -->
<g id="node21" class="node">
<title>Node21</title>
<g id="a_node21"><a xlink:href="Wider_8hpp.html" target="_top" xlink:title="Definition of the Wider class template and specializations.">
<polygon fill="white" stroke="black" points="81.28,-168.5 81.28,-187.5 217.28,-187.5 217.28,-168.5 81.28,-168.5"/>
<text text-anchor="middle" x="149.28" y="-175.5" font-family="Helvetica,sans-Serif" font-size="10.00">playrho/detail/Wider.hpp</text>
</a>
</g>
</g>
<!-- Node2&#45;&gt;Node21 -->
<g id="edge23" class="edge">
<title>Node2&#45;&gt;Node21</title>
<path fill="none" stroke="midnightblue" d="M258.68,-224.44C237.28,-215.56 203.6,-201.56 179.25,-191.45"/>
<polygon fill="midnightblue" stroke="midnightblue" points="180.36,-188.12 169.78,-187.52 177.67,-194.58 180.36,-188.12"/>
</g>
<!-- Node9 -->
<g id="node9" class="node">
<title>Node9</title>
<g id="a_node9"><a xlink:href="detail_2Templates_8hpp.html" target="_top" xlink:title="Low&#45;level declarations for general class &amp; function templates.">
<polygon fill="white" stroke="black" points="288.28,-56.5 288.28,-75.5 446.28,-75.5 446.28,-56.5 288.28,-56.5"/>
<text text-anchor="middle" x="367.28" y="-63.5" font-family="Helvetica,sans-Serif" font-size="10.00">playrho/detail/Templates.hpp</text>
</a>
</g>
</g>
<!-- Node8&#45;&gt;Node9 -->
<g id="edge8" class="edge">
<title>Node8&#45;&gt;Node9</title>
<path fill="none" stroke="midnightblue" d="M354.75,-112.08C356.76,-104.85 359.66,-94.41 362.17,-85.4"/>
<polygon fill="midnightblue" stroke="midnightblue" points="365.54,-86.32 364.85,-75.75 358.8,-84.45 365.54,-86.32"/>
</g>
<!-- Node9&#45;&gt;Node4 -->
<g id="edge12" class="edge">
<title>Node9&#45;&gt;Node4</title>
<path fill="none" stroke="midnightblue" d="M348.11,-56.44C328.37,-47.64 297.39,-33.81 274.78,-23.72"/>
<polygon fill="midnightblue" stroke="midnightblue" points="275.92,-20.4 265.36,-19.52 273.07,-26.79 275.92,-20.4"/>
</g>
<!-- Node9&#45;&gt;Node6 -->
<g id="edge13" class="edge">
<title>Node9&#45;&gt;Node6</title>
<path fill="none" stroke="midnightblue" d="M323.39,-56.44C271.9,-46.41 187,-29.86 135.11,-19.74"/>
<polygon fill="midnightblue" stroke="midnightblue" points="135.68,-16.28 125.19,-17.81 134.34,-23.16 135.68,-16.28"/>
</g>
<!-- Node10 -->
<g id="node10" class="node">
<title>Node10</title>
<g id="a_node10"><a xlink:title=" ">
<polygon fill="white" stroke="#bfbfbf" points="421.28,-0.5 421.28,-19.5 485.28,-19.5 485.28,-0.5 421.28,-0.5"/>
<text text-anchor="middle" x="453.28" y="-7.5" font-family="Helvetica,sans-Serif" font-size="10.00">algorithm</text>
</a>
</g>
</g>
<!-- Node9&#45;&gt;Node10 -->
<g id="edge9" class="edge">
<title>Node9&#45;&gt;Node10</title>
<path fill="none" stroke="midnightblue" d="M381.1,-56.32C394.51,-47.9 415.1,-34.97 430.86,-25.07"/>
<polygon fill="midnightblue" stroke="midnightblue" points="432.89,-27.94 439.49,-19.65 429.16,-22.01 432.89,-27.94"/>
</g>
<!-- Node11 -->
<g id="node11" class="node">
<title>Node11</title>
<g id="a_node11"><a xlink:title=" ">
<polygon fill="white" stroke="#bfbfbf" points="503.78,-0.5 503.78,-19.5 568.78,-19.5 568.78,-0.5 503.78,-0.5"/>
<text text-anchor="middle" x="536.28" y="-7.5" font-family="Helvetica,sans-Serif" font-size="10.00">functional</text>
</a>
</g>
</g>
<!-- Node9&#45;&gt;Node11 -->
<g id="edge10" class="edge">
<title>Node9&#45;&gt;Node11</title>
<path fill="none" stroke="midnightblue" d="M394.06,-56.44C422.61,-47.32 468.01,-32.81 499.81,-22.65"/>
<polygon fill="midnightblue" stroke="midnightblue" points="501.16,-25.89 509.62,-19.52 499.03,-19.23 501.16,-25.89"/>
</g>
<!-- Node12 -->
<g id="node12" class="node">
<title>Node12</title>
<g id="a_node12"><a xlink:title=" ">
<polygon fill="white" stroke="#bfbfbf" points="286.78,-0.5 286.78,-19.5 339.78,-19.5 339.78,-0.5 286.78,-0.5"/>
<text text-anchor="middle" x="313.28" y="-7.5" font-family="Helvetica,sans-Serif" font-size="10.00">iterator</text>
</a>
</g>
</g>
<!-- Node9&#45;&gt;Node12 -->
<g id="edge11" class="edge">
<title>Node9&#45;&gt;Node12</title>
<path fill="none" stroke="midnightblue" d="M358.36,-56.08C350.5,-48.22 338.85,-36.57 329.36,-27.08"/>
<polygon fill="midnightblue" stroke="midnightblue" points="331.58,-24.35 322.03,-19.75 326.63,-29.3 331.58,-24.35"/>
</g>
<!-- Node13 -->
<g id="node13" class="node">
<title>Node13</title>
<g id="a_node13"><a xlink:title=" ">
<polygon fill="white" stroke="#bfbfbf" points="357.78,-0.5 357.78,-19.5 402.78,-19.5 402.78,-0.5 357.78,-0.5"/>
<text text-anchor="middle" x="380.28" y="-7.5" font-family="Helvetica,sans-Serif" font-size="10.00">utility</text>
</a>
</g>
</g>
<!-- Node9&#45;&gt;Node13 -->
<g id="edge14" class="edge">
<title>Node9&#45;&gt;Node13</title>
<path fill="none" stroke="midnightblue" d="M369.42,-56.08C371.15,-48.93 373.63,-38.64 375.78,-29.69"/>
<polygon fill="midnightblue" stroke="midnightblue" points="379.23,-30.29 378.17,-19.75 372.43,-28.65 379.23,-30.29"/>
</g>
<!-- Node14&#45;&gt;Node8 -->
<g id="edge17" class="edge">
<title>Node14&#45;&gt;Node8</title>
<path fill="none" stroke="midnightblue" d="M380.66,-168.08C375.91,-160.53 368.96,-149.49 363.13,-140.23"/>
<polygon fill="midnightblue" stroke="midnightblue" points="366.08,-138.35 357.79,-131.75 360.15,-142.08 366.08,-138.35"/>
</g>
<!-- Node15 -->
<g id="node15" class="node">
<title>Node15</title>
<g id="a_node15"><a xlink:title=" ">
<polygon fill="white" stroke="#bfbfbf" points="434.28,-112.5 434.28,-131.5 484.28,-131.5 484.28,-112.5 434.28,-112.5"/>
<text text-anchor="middle" x="459.28" y="-119.5" font-family="Helvetica,sans-Serif" font-size="10.00">cstring</text>
</a>
</g>
</g>
<!-- Node14&#45;&gt;Node15 -->
<g id="edge16" class="edge">
<title>Node14&#45;&gt;Node15</title>
<path fill="none" stroke="midnightblue" d="M398.01,-168.32C409.12,-160.11 426.02,-147.6 439.26,-137.81"/>
<polygon fill="midnightblue" stroke="midnightblue" points="441.38,-140.59 447.34,-131.83 437.21,-134.97 441.38,-140.59"/>
</g>
<!-- Node16 -->
<g id="node16" class="node">
<title>Node16</title>
<g id="a_node16"><a xlink:href="detail_2TypeInfo_8hpp.html" target="_top" xlink:title="Definition of TypeInfo class template and related code.">
<polygon fill="white" stroke="black" points="501.78,-112.5 501.78,-131.5 650.78,-131.5 650.78,-112.5 501.78,-112.5"/>
<text text-anchor="middle" x="576.28" y="-119.5" font-family="Helvetica,sans-Serif" font-size="10.00">playrho/detail/TypeInfo.hpp</text>
</a>
</g>
</g>
<!-- Node14&#45;&gt;Node16 -->
<g id="edge18" class="edge">
<title>Node14&#45;&gt;Node16</title>
<path fill="none" stroke="midnightblue" d="M416.38,-168.44C448.9,-159.2 500.86,-144.44 536.67,-134.26"/>
<polygon fill="midnightblue" stroke="midnightblue" points="537.65,-137.62 546.31,-131.52 535.74,-130.88 537.65,-137.62"/>
</g>
<!-- Node17 -->
<g id="node17" class="node">
<title>Node17</title>
<g id="a_node17"><a xlink:title=" ">
<polygon fill="white" stroke="#bfbfbf" points="478.28,-56.5 478.28,-75.5 522.28,-75.5 522.28,-56.5 478.28,-56.5"/>
<text text-anchor="middle" x="500.28" y="-63.5" font-family="Helvetica,sans-Serif" font-size="10.00">regex</text>
</a>
</g>
</g>
<!-- Node16&#45;&gt;Node17 -->
<g id="edge19" class="edge">
<title>Node16&#45;&gt;Node17</title>
<path fill="none" stroke="midnightblue" d="M564.07,-112.32C552.5,-104.11 534.9,-91.6 521.12,-81.81"/>
<polygon fill="midnightblue" stroke="midnightblue" points="522.89,-78.77 512.71,-75.83 518.84,-84.48 522.89,-78.77"/>
</g>
<!-- Node18 -->
<g id="node18" class="node">
<title>Node18</title>
<g id="a_node18"><a xlink:title=" ">
<polygon fill="white" stroke="#bfbfbf" points="540.28,-56.5 540.28,-75.5 584.28,-75.5 584.28,-56.5 540.28,-56.5"/>
<text text-anchor="middle" x="562.28" y="-63.5" font-family="Helvetica,sans-Serif" font-size="10.00">string</text>
</a>
</g>
</g>
<!-- Node16&#45;&gt;Node18 -->
<g id="edge20" class="edge">
<title>Node16&#45;&gt;Node18</title>
<path fill="none" stroke="midnightblue" d="M573.97,-112.08C572.11,-104.93 569.44,-94.64 567.12,-85.69"/>
<polygon fill="midnightblue" stroke="midnightblue" points="570.44,-84.55 564.55,-75.75 563.67,-86.31 570.44,-84.55"/>
</g>
<!-- Node19 -->
<g id="node19" class="node">
<title>Node19</title>
<g id="a_node19"><a xlink:title=" ">
<polygon fill="white" stroke="#bfbfbf" points="602.78,-56.5 602.78,-75.5 667.78,-75.5 667.78,-56.5 602.78,-56.5"/>
<text text-anchor="middle" x="635.28" y="-63.5" font-family="Helvetica,sans-Serif" font-size="10.00">typeindex</text>
</a>
</g>
</g>
<!-- Node16&#45;&gt;Node19 -->
<g id="edge21" class="edge">
<title>Node16&#45;&gt;Node19</title>
<path fill="none" stroke="midnightblue" d="M585.76,-112.32C594.48,-104.34 607.62,-92.31 618.18,-82.65"/>
<polygon fill="midnightblue" stroke="midnightblue" points="620.61,-85.17 625.63,-75.83 615.89,-80 620.61,-85.17"/>
</g>
<!-- Node20 -->
<g id="node20" class="node">
<title>Node20</title>
<g id="a_node20"><a xlink:title=" ">
<polygon fill="white" stroke="#bfbfbf" points="685.78,-56.5 685.78,-75.5 742.78,-75.5 742.78,-56.5 685.78,-56.5"/>
<text text-anchor="middle" x="714.28" y="-63.5" font-family="Helvetica,sans-Serif" font-size="10.00">typeinfo</text>
</a>
</g>
</g>
<!-- Node16&#45;&gt;Node20 -->
<g id="edge22" class="edge">
<title>Node16&#45;&gt;Node20</title>
<path fill="none" stroke="midnightblue" d="M598.14,-112.44C621.06,-103.48 657.25,-89.31 683.14,-79.18"/>
<polygon fill="midnightblue" stroke="midnightblue" points="684.48,-82.42 692.51,-75.52 681.93,-75.9 684.48,-82.42"/>
</g>
<!-- Node21&#45;&gt;Node3 -->
<g id="edge24" class="edge">
<title>Node21&#45;&gt;Node3</title>
<path fill="none" stroke="midnightblue" d="M131.28,-168.32C113.24,-159.62 85.23,-146.12 64.48,-136.11"/>
<polygon fill="midnightblue" stroke="midnightblue" points="65.76,-132.84 55.23,-131.65 62.72,-139.15 65.76,-132.84"/>
</g>
<!-- Node21&#45;&gt;Node6 -->
<g id="edge25" class="edge">
<title>Node21&#45;&gt;Node6</title>
<path fill="none" stroke="midnightblue" d="M138.56,-168.19C129.23,-159.88 116.15,-146.56 109.28,-132 93.44,-98.47 90.37,-54.47 90.01,-29.83"/>
<polygon fill="midnightblue" stroke="midnightblue" points="93.51,-29.69 90.01,-19.7 86.51,-29.7 93.51,-29.69"/>
</g>
<!-- Node22 -->
<g id="node22" class="node">
<title>Node22</title>
<g id="a_node22"><a xlink:href="Defines_8hpp.html" target="_top" xlink:title="Miscellaneous C&#45;preprocessor definitions.">
<polygon fill="white" stroke="black" points="118.28,-112.5 118.28,-131.5 232.28,-131.5 232.28,-112.5 118.28,-112.5"/>
<text text-anchor="middle" x="175.28" y="-119.5" font-family="Helvetica,sans-Serif" font-size="10.00">playrho/Defines.hpp</text>
</a>
</g>
</g>
<!-- Node21&#45;&gt;Node22 -->
<g id="edge26" class="edge">
<title>Node21&#45;&gt;Node22</title>
<path fill="none" stroke="midnightblue" d="M153.57,-168.08C157.13,-160.69 162.3,-149.95 166.7,-140.81"/>
<polygon fill="midnightblue" stroke="midnightblue" points="169.88,-142.28 171.06,-131.75 163.57,-139.24 169.88,-142.28"/>
</g>
<!-- Node23&#45;&gt;Node2 -->
<g id="edge29" class="edge">
<title>Node23&#45;&gt;Node2</title>
<path fill="none" stroke="midnightblue" d="M357.34,-280.32C342.69,-271.82 320.14,-258.73 303.04,-248.8"/>
<polygon fill="midnightblue" stroke="midnightblue" points="304.59,-245.65 294.18,-243.65 301.07,-251.7 304.59,-245.65"/>
</g>
<!-- Node24 -->
<g id="node24" class="node">
<title>Node24</title>
<g id="a_node24"><a xlink:title=" ">
<polygon fill="white" stroke="#bfbfbf" points="348.78,-224.5 348.78,-243.5 395.78,-243.5 395.78,-224.5 348.78,-224.5"/>
<text text-anchor="middle" x="372.28" y="-231.5" font-family="Helvetica,sans-Serif" font-size="10.00">cmath</text>
</a>
</g>
</g>
<!-- Node23&#45;&gt;Node24 -->
<g id="edge28" class="edge">
<title>Node23&#45;&gt;Node24</title>
<path fill="none" stroke="midnightblue" d="M372.28,-280.08C372.28,-273.01 372.28,-262.86 372.28,-253.99"/>
<polygon fill="midnightblue" stroke="midnightblue" points="375.78,-253.75 372.28,-243.75 368.78,-253.75 375.78,-253.75"/>
</g>
<!-- Node25&#45;&gt;Node2 -->
<g id="edge31" class="edge">
<title>Node25&#45;&gt;Node2</title>
<path fill="none" stroke="midnightblue" d="M200.38,-280.32C215.18,-271.82 237.97,-258.73 255.26,-248.8"/>
<polygon fill="midnightblue" stroke="midnightblue" points="257.29,-251.67 264.21,-243.65 253.8,-245.6 257.29,-251.67"/>
</g>
</g>
</svg>
        <g id="navigator" transform="translate(0 0)" fill="#404254">
                <rect fill="#f2f5e9" fill-opacity="0.5" stroke="#606060" stroke-width=".5" x="0" y="0" width="60" height="60"/>
                <use id="zoomplus" xlink:href="#zoomPlus" x="17" y="9" onmousedown="handleZoom(evt,'in')"/>
                <use id="zoomminus" xlink:href="#zoomMin" x="42" y="9" onmousedown="handleZoom(evt,'out')"/>
                <use id="reset" xlink:href="#resetDef" x="30" y="36" onmousedown="handleReset()"/>
                <g id="arrowUp" xlink:href="#dirArrow" transform="translate(30 24)" onmousedown="handlePan(0,-1)">
                  <use xlink:href="#rim" fill="#404040">
                        <set attributeName="fill" to="#808080" begin="arrowUp.mouseover" end="arrowUp.mouseout"/>
                  </use>
                  <path fill="none" stroke="white" stroke-width="1.5" d="M0,-3.0v7 M-2.5,-0.5L0,-3.0L2.5,-0.5"/>
                </g>
                <g id="arrowRight" xlink:href="#dirArrow" transform="rotate(90) translate(36 -43)" onmousedown="handlePan(1,0)">
                  <use xlink:href="#rim" fill="#404040">
                        <set attributeName="fill" to="#808080" begin="arrowRight.mouseover" end="arrowRight.mouseout"/>
                  </use>
                  <path fill="none" stroke="white" stroke-width="1.5" d="M0,-3.0v7 M-2.5,-0.5L0,-3.0L2.5,-0.5"/>
                </g>
                <g id="arrowDown" xlink:href="#dirArrow" transform="rotate(180) translate(-30 -48)" onmousedown="handlePan(0,1)">
                  <use xlink:href="#rim" fill="#404040">
                        <set attributeName="fill" to="#808080" begin="arrowDown.mouseover" end="arrowDown.mouseout"/>
                  </use>
                  <path fill="none" stroke="white" stroke-width="1.5" d="M0,-3.0v7 M-2.5,-0.5L0,-3.0L2.5,-0.5"/>
                </g>
                <g id="arrowLeft" xlink:href="#dirArrow" transform="rotate(270) translate(-36 17)" onmousedown="handlePan(-1,0)">
                  <use xlink:href="#rim" fill="#404040">
                        <set attributeName="fill" to="#808080" begin="arrowLeft.mouseover" end="arrowLeft.mouseout"/>
                  </use>
                  <path fill="none" stroke="white" stroke-width="1.5" d="M0,-3.0v7 M-2.5,-0.5L0,-3.0L2.5,-0.5"/>
                </g>
        </g>
        <svg viewBox="0 0 15 15" width="100%" height="30px" preserveAspectRatio="xMaxYMin meet">
         <g id="arrow_out" transform="scale(0.3 0.3)">
          <a xlink:href="Real_8hpp__incl_org.svg" target="_base">
           <rect id="button" ry="5" rx="5" y="6" x="6" height="38" width="38"
                fill="#f2f5e9" fill-opacity="0.5" stroke="#606060" stroke-width="1.0"/>
           <path id="arrow"
             d="M 11.500037,31.436501 C 11.940474,20.09759 22.043105,11.32322 32.158766,21.979434 L 37.068811,17.246167 C 37.068811,17.246167 37.088388,32 37.088388,32 L 22.160133,31.978069 C 22.160133,31.978069 26.997745,27.140456 26.997745,27.140456 C 18.528582,18.264221 13.291696,25.230495 11.500037,31.436501 z"
             style="fill:#404040;"/>
          </a>
         </g>
        </svg>
</svg>
