<?xml version="1.0" encoding="UTF-8" standalone="no"?>
<!DOCTYPE svg PUBLIC "-//W3C//DTD SVG 1.1//EN"
 "http://www.w3.org/Graphics/SVG/1.1/DTD/svg11.dtd">
<!-- Generated by graphviz version 2.43.0 (0)
 -->
<!-- Title: playrho::d2::MotorJointConf Pages: 1 -->
<svg width="257pt" height="220pt"
 viewBox="0.00 0.00 257.00 220.00" xmlns="http://www.w3.org/2000/svg" xmlns:xlink="http://www.w3.org/1999/xlink">
<g id="graph0" class="graph" transform="scale(1 1) rotate(0) translate(4 216)">
<title>playrho::d2::MotorJointConf</title>
<polygon fill="white" stroke="transparent" points="-4,4 -4,-216 253,-216 253,4 -4,4"/>
<!-- Node1 -->
<g id="node1" class="node">
<title>Node1</title>
<g id="a_node1"><a xlink:title="Motor joint definition.">
<polygon fill="#bfbfbf" stroke="black" points="0,-0.5 0,-19.5 150,-19.5 150,-0.5 0,-0.5"/>
<text text-anchor="middle" x="75" y="-7.5" font-family="Helvetica,sans-Serif" font-size="10.00">playrho::d2::MotorJointConf</text>
</a>
</g>
</g>
<!-- Node2 -->
<g id="node2" class="node">
<title>Node2</title>
<g id="a_node2"><a xlink:href="structplayrho_1_1d2_1_1JointBuilder.html" target="_top" xlink:title=" ">
<polygon fill="white" stroke="black" points="8,-57.5 8,-87.5 142,-87.5 142,-57.5 8,-57.5"/>
<text text-anchor="start" x="16" y="-75.5" font-family="Helvetica,sans-Serif" font-size="10.00">playrho::d2::JointBuilder</text>
<text text-anchor="middle" x="75" y="-64.5" font-family="Helvetica,sans-Serif" font-size="10.00">&lt; MotorJointConf &gt;</text>
</a>
</g>
</g>
<!-- Node2&#45;&gt;Node1 -->
<g id="edge1" class="edge">
<title>Node2&#45;&gt;Node1</title>
<path fill="none" stroke="midnightblue" d="M75,-47.35C75,-37.51 75,-26.78 75,-19.54"/>
<polygon fill="midnightblue" stroke="midnightblue" points="71.5,-47.47 75,-57.47 78.5,-47.47 71.5,-47.47"/>
</g>
<!-- Node3 -->
<g id="node3" class="node">
<title>Node3</title>
<g id="a_node3"><a xlink:href="structplayrho_1_1d2_1_1JointConf.html" target="_top" xlink:title="Base joint definition class.">
<polygon fill="white" stroke="black" points="10,-192.5 10,-211.5 132,-211.5 132,-192.5 10,-192.5"/>
<text text-anchor="middle" x="71" y="-199.5" font-family="Helvetica,sans-Serif" font-size="10.00">playrho::d2::JointConf</text>
</a>
</g>
</g>
<!-- Node3&#45;&gt;Node2 -->
<g id="edge2" class="edge">
<title>Node3&#45;&gt;Node2</title>
<path fill="none" stroke="midnightblue" d="M71.6,-181.9C72.41,-156.05 73.84,-110.54 74.56,-87.59"/>
<polygon fill="midnightblue" stroke="midnightblue" points="68.09,-182.13 71.27,-192.24 75.09,-182.35 68.09,-182.13"/>
</g>
<!-- Node4 -->
<g id="node4" class="node">
<title>Node4</title>
<g id="a_node4"><a xlink:href="structplayrho_1_1d2_1_1JointBuilder.html" target="_top" xlink:title="Joint builder definition structure.">
<polygon fill="white" stroke="black" points="87,-135.5 87,-154.5 249,-154.5 249,-135.5 87,-135.5"/>
<text text-anchor="middle" x="168" y="-142.5" font-family="Helvetica,sans-Serif" font-size="10.00">playrho::d2::JointBuilder&lt; T &gt;</text>
</a>
</g>
</g>
<!-- Node3&#45;&gt;Node4 -->
<g id="edge4" class="edge">
<title>Node3&#45;&gt;Node4</title>
<path fill="none" stroke="midnightblue" d="M95,-187.39C113.13,-177.11 137.47,-163.31 152.95,-154.53"/>
<polygon fill="midnightblue" stroke="midnightblue" points="93.13,-184.43 86.16,-192.41 96.58,-190.52 93.13,-184.43"/>
</g>
<!-- Node4&#45;&gt;Node2 -->
<g id="edge3" class="edge">
<title>Node4&#45;&gt;Node2</title>
<path fill="none" stroke="orange" stroke-dasharray="5,2" d="M148.38,-129.13C132.21,-116.87 109.44,-99.61 93.57,-87.58"/>
<polygon fill="orange" stroke="orange" points="146.51,-132.1 156.6,-135.36 150.74,-126.53 146.51,-132.1"/>
<text text-anchor="middle" x="178.5" y="-109" font-family="Helvetica,sans-Serif" font-size="10.00"> &lt; MotorJointConf &gt;</text>
</g>
</g>
</svg>
