<?xml version="1.0" encoding="UTF-8" standalone="no"?>
<!DOCTYPE svg PUBLIC "-//W3C//DTD SVG 1.1//EN"
 "http://www.w3.org/Graphics/SVG/1.1/DTD/svg11.dtd">
<!-- Generated by graphviz version 2.43.0 (0)
 -->
<!-- Title: playrho::detail::IsEqualityComparable&lt; T1, T2, std::void_t&lt; decltype(T1{}==T2{})&gt; &gt; Pages: 1 -->
<svg width="150pt" height="117pt"
 viewBox="0.00 0.00 150.00 117.00" xmlns="http://www.w3.org/2000/svg" xmlns:xlink="http://www.w3.org/1999/xlink">
<g id="graph0" class="graph" transform="scale(1 1) rotate(0) translate(4 113)">
<title>playrho::detail::IsEqualityComparable&lt; T1, T2, std::void_t&lt; decltype(T1{}==T2{})&gt; &gt;</title>
<polygon fill="white" stroke="transparent" points="-4,4 -4,-113 146,-113 146,4 -4,4"/>
<!-- Node1 -->
<g id="node1" class="node">
<title>Node1</title>
<g id="a_node1"><a xlink:title="Template specialization for equality comparable types.">
<polygon fill="#bfbfbf" stroke="black" points="0,-0.5 0,-52.5 142,-52.5 142,-0.5 0,-0.5"/>
<text text-anchor="start" x="8" y="-40.5" font-family="Helvetica,sans-Serif" font-size="10.00">playrho::detail::IsEquality</text>
<text text-anchor="start" x="8" y="-29.5" font-family="Helvetica,sans-Serif" font-size="10.00">Comparable&lt; T1, T2, std</text>
<text text-anchor="start" x="8" y="-18.5" font-family="Helvetica,sans-Serif" font-size="10.00">::void_t&lt; decltype(T1{}=</text>
<text text-anchor="middle" x="71" y="-7.5" font-family="Helvetica,sans-Serif" font-size="10.00">=T2{})&gt; &gt;</text>
</a>
</g>
</g>
<!-- Node2 -->
<g id="node2" class="node">
<title>Node2</title>
<g id="a_node2"><a xlink:title=" ">
<polygon fill="white" stroke="#bfbfbf" points="29,-89.5 29,-108.5 113,-108.5 113,-89.5 29,-89.5"/>
<text text-anchor="middle" x="71" y="-96.5" font-family="Helvetica,sans-Serif" font-size="10.00">std::true_type</text>
</a>
</g>
</g>
<!-- Node2&#45;&gt;Node1 -->
<g id="edge1" class="edge">
<title>Node2&#45;&gt;Node1</title>
<path fill="none" stroke="midnightblue" d="M71,-79.1C71,-70.96 71,-61.33 71,-52.6"/>
<polygon fill="midnightblue" stroke="midnightblue" points="67.5,-79.36 71,-89.36 74.5,-79.36 67.5,-79.36"/>
</g>
</g>
</svg>
