<?xml version="1.0" encoding="UTF-8" standalone="no"?>
<!DOCTYPE svg PUBLIC "-//W3C//DTD SVG 1.1//EN"
 "http://www.w3.org/Graphics/SVG/1.1/DTD/svg11.dtd">
<!-- Generated by graphviz version 2.43.0 (0)
 -->
<!-- Title: playrho::d2::part::FrictionIs&lt; Policy &gt; Pages: 1 -->
<svg width="121pt" height="106pt"
 viewBox="0.00 0.00 121.00 106.00" xmlns="http://www.w3.org/2000/svg" xmlns:xlink="http://www.w3.org/1999/xlink">
<g id="graph0" class="graph" transform="scale(1 1) rotate(0) translate(4 102)">
<title>playrho::d2::part::FrictionIs&lt; Policy &gt;</title>
<polygon fill="white" stroke="transparent" points="-4,4 -4,-102 117,-102 117,4 -4,4"/>
<!-- Node1 -->
<g id="node1" class="node">
<title>Node1</title>
<g id="a_node1"><a xlink:title="Sets the implementing class of the Compositor friction policy.">
<polygon fill="#bfbfbf" stroke="black" points="0,-0.5 0,-30.5 113,-30.5 113,-0.5 0,-0.5"/>
<text text-anchor="start" x="8" y="-18.5" font-family="Helvetica,sans-Serif" font-size="10.00">playrho::d2::part::</text>
<text text-anchor="middle" x="56.5" y="-7.5" font-family="Helvetica,sans-Serif" font-size="10.00">FrictionIs&lt; Policy &gt;</text>
</a>
</g>
</g>
<!-- Node2 -->
<g id="node2" class="node">
<title>Node2</title>
<g id="a_node2"><a xlink:href="structplayrho_1_1d2_1_1part_1_1DefaultPolicies.html" target="_top" xlink:title="Default policy class implementations for the Compositor host class template.">
<polygon fill="white" stroke="black" points="5,-67.5 5,-97.5 108,-97.5 108,-67.5 5,-67.5"/>
<text text-anchor="start" x="13" y="-85.5" font-family="Helvetica,sans-Serif" font-size="10.00">playrho::d2::part::</text>
<text text-anchor="middle" x="56.5" y="-74.5" font-family="Helvetica,sans-Serif" font-size="10.00">DefaultPolicies</text>
</a>
</g>
</g>
<!-- Node2&#45;&gt;Node1 -->
<g id="edge1" class="edge">
<title>Node2&#45;&gt;Node1</title>
<path fill="none" stroke="midnightblue" d="M56.5,-57.11C56.5,-48.15 56.5,-38.32 56.5,-30.58"/>
<polygon fill="midnightblue" stroke="midnightblue" points="53,-57.4 56.5,-67.4 60,-57.4 53,-57.4"/>
</g>
</g>
</svg>
