<?xml version="1.0" encoding="UTF-8" standalone="no"?>
<!DOCTYPE svg PUBLIC "-//W3C//DTD SVG 1.1//EN"
 "http://www.w3.org/Graphics/SVG/1.1/DTD/svg11.dtd">
<!-- Generated by graphviz version 2.43.0 (0)
 -->
<!-- Title: playrho::d2::FrictionJointConf Pages: 1 -->
<svg width="261pt" height="220pt"
 viewBox="0.00 0.00 261.00 220.00" xmlns="http://www.w3.org/2000/svg" xmlns:xlink="http://www.w3.org/1999/xlink">
<g id="graph0" class="graph" transform="scale(1 1) rotate(0) translate(4 216)">
<title>playrho::d2::FrictionJointConf</title>
<polygon fill="white" stroke="transparent" points="-4,4 -4,-216 257,-216 257,4 -4,4"/>
<!-- Node1 -->
<g id="node1" class="node">
<title>Node1</title>
<g id="a_node1"><a xlink:title="Friction joint definition.">
<polygon fill="#bfbfbf" stroke="black" points="0,-0.5 0,-19.5 158,-19.5 158,-0.5 0,-0.5"/>
<text text-anchor="middle" x="79" y="-7.5" font-family="Helvetica,sans-Serif" font-size="10.00">playrho::d2::FrictionJointConf</text>
</a>
</g>
</g>
<!-- Node2 -->
<g id="node2" class="node">
<title>Node2</title>
<g id="a_node2"><a xlink:href="structplayrho_1_1d2_1_1JointBuilder.html" target="_top" xlink:title=" ">
<polygon fill="white" stroke="black" points="12,-57.5 12,-87.5 146,-87.5 146,-57.5 12,-57.5"/>
<text text-anchor="start" x="20" y="-75.5" font-family="Helvetica,sans-Serif" font-size="10.00">playrho::d2::JointBuilder</text>
<text text-anchor="middle" x="79" y="-64.5" font-family="Helvetica,sans-Serif" font-size="10.00">&lt; FrictionJointConf &gt;</text>
</a>
</g>
</g>
<!-- Node2&#45;&gt;Node1 -->
<g id="edge1" class="edge">
<title>Node2&#45;&gt;Node1</title>
<path fill="none" stroke="midnightblue" d="M79,-47.35C79,-37.51 79,-26.78 79,-19.54"/>
<polygon fill="midnightblue" stroke="midnightblue" points="75.5,-47.47 79,-57.47 82.5,-47.47 75.5,-47.47"/>
</g>
<!-- Node3 -->
<g id="node3" class="node">
<title>Node3</title>
<g id="a_node3"><a xlink:href="structplayrho_1_1d2_1_1JointConf.html" target="_top" xlink:title="Base joint definition class.">
<polygon fill="white" stroke="black" points="14,-192.5 14,-211.5 136,-211.5 136,-192.5 14,-192.5"/>
<text text-anchor="middle" x="75" y="-199.5" font-family="Helvetica,sans-Serif" font-size="10.00">playrho::d2::JointConf</text>
</a>
</g>
</g>
<!-- Node3&#45;&gt;Node2 -->
<g id="edge2" class="edge">
<title>Node3&#45;&gt;Node2</title>
<path fill="none" stroke="midnightblue" d="M75.6,-181.9C76.41,-156.05 77.84,-110.54 78.56,-87.59"/>
<polygon fill="midnightblue" stroke="midnightblue" points="72.09,-182.13 75.27,-192.24 79.09,-182.35 72.09,-182.13"/>
</g>
<!-- Node4 -->
<g id="node4" class="node">
<title>Node4</title>
<g id="a_node4"><a xlink:href="structplayrho_1_1d2_1_1JointBuilder.html" target="_top" xlink:title="Joint builder definition structure.">
<polygon fill="white" stroke="black" points="91,-135.5 91,-154.5 253,-154.5 253,-135.5 91,-135.5"/>
<text text-anchor="middle" x="172" y="-142.5" font-family="Helvetica,sans-Serif" font-size="10.00">playrho::d2::JointBuilder&lt; T &gt;</text>
</a>
</g>
</g>
<!-- Node3&#45;&gt;Node4 -->
<g id="edge4" class="edge">
<title>Node3&#45;&gt;Node4</title>
<path fill="none" stroke="midnightblue" d="M99,-187.39C117.13,-177.11 141.47,-163.31 156.95,-154.53"/>
<polygon fill="midnightblue" stroke="midnightblue" points="97.13,-184.43 90.16,-192.41 100.58,-190.52 97.13,-184.43"/>
</g>
<!-- Node4&#45;&gt;Node2 -->
<g id="edge3" class="edge">
<title>Node4&#45;&gt;Node2</title>
<path fill="none" stroke="orange" stroke-dasharray="5,2" d="M152.38,-129.13C136.21,-116.87 113.44,-99.61 97.57,-87.58"/>
<polygon fill="orange" stroke="orange" points="150.51,-132.1 160.6,-135.36 154.74,-126.53 150.51,-132.1"/>
<text text-anchor="middle" x="186" y="-109" font-family="Helvetica,sans-Serif" font-size="10.00"> &lt; FrictionJointConf &gt;</text>
</g>
</g>
</svg>
