<?xml version="1.0" encoding="UTF-8" standalone="no"?>
<!DOCTYPE svg PUBLIC "-//W3C//DTD SVG 1.1//EN"
 "http://www.w3.org/Graphics/SVG/1.1/DTD/svg11.dtd">
<!-- Generated by graphviz version 2.43.0 (0)
 -->
<!-- Title: playrho::d2::GearJointConf Pages: 1 -->
<!--zoomable 162 -->
<svg id="main" version="1.1" xmlns="http://www.w3.org/2000/svg" xmlns:xlink="http://www.w3.org/1999/xlink" xml:space="preserve" onload="init(evt)">
<style type="text/css"><![CDATA[
.edge:hover path { stroke: red; }
.edge:hover polygon { stroke: red; fill: red; }
]]></style>
<script type="text/javascript"><![CDATA[
var edges = document.getElementsByTagName('g');
if (edges && edges.length) {
  for (var i=0;i<edges.length;i++) {
    if (edges[i].id.substr(0,4)=='edge') {
      edges[i].setAttribute('class','edge');
    }
  }
}
]]></script>
        <defs>
                <circle id="rim" cx="0" cy="0" r="7"/>
                <circle id="rim2" cx="0" cy="0" r="3.5"/>
                <g id="zoomPlus">
                        <use xlink:href="#rim" fill="#404040">
                                <set attributeName="fill" to="#808080" begin="zoomplus.mouseover" end="zoomplus.mouseout"/>
                        </use>
                        <path d="M-4,0h8M0,-4v8" fill="none" stroke="white" stroke-width="1.5" pointer-events="none"/>
                </g>
                <g id="zoomMin">
                        <use xlink:href="#rim" fill="#404040">
                                <set attributeName="fill" to="#808080" begin="zoomminus.mouseover" end="zoomminus.mouseout"/>
                        </use>
                        <path d="M-4,0h8" fill="none" stroke="white" stroke-width="1.5" pointer-events="none"/>
                </g>
                <g id="dirArrow">
                        <path fill="none" stroke="white" stroke-width="1.5" d="M0,-3.0v7 M-2.5,-0.5L0,-3.0L2.5,-0.5"/>
                </g>
               <g id="resetDef">
                       <use xlink:href="#rim2" fill="#404040">
                               <set attributeName="fill" to="#808080" begin="reset.mouseover" end="reset.mouseout"/>
                       </use>
               </g>
        </defs>

<script type="text/javascript">
var viewWidth = 1305;
var viewHeight = 162;
var sectionId = 'dynsection-1';
</script>
<script xlink:href="svgpan.js"/>
<svg id="graph" class="graph">
<g id="viewport">
<title>playrho::d2::GearJointConf</title>
<polygon fill="white" stroke="transparent" points="-4,4 -4,-158 1301,-158 1301,4 -4,4"/>
<!-- Node1 -->
<g id="node1" class="node">
<title>Node1</title>
<g id="a_node1"><a xlink:title="Gear joint definition.">
<polygon fill="#bfbfbf" stroke="black" points="1152,-68.5 1152,-87.5 1297,-87.5 1297,-68.5 1152,-68.5"/>
<text text-anchor="middle" x="1224.5" y="-75.5" font-family="Helvetica,sans-Serif" font-size="10.00">playrho::d2::GearJointConf</text>
</a>
</g>
</g>
<!-- Node2 -->
<g id="node2" class="node">
<title>Node2</title>
<g id="a_node2"><a xlink:href="structplayrho_1_1d2_1_1JointBuilder.html" target="_top" xlink:title=" ">
<polygon fill="white" stroke="black" points="956,-63 956,-93 1090,-93 1090,-63 956,-63"/>
<text text-anchor="start" x="964" y="-81" font-family="Helvetica,sans-Serif" font-size="10.00">playrho::d2::JointBuilder</text>
<text text-anchor="middle" x="1023" y="-70" font-family="Helvetica,sans-Serif" font-size="10.00">&lt; GearJointConf &gt;</text>
</a>
</g>
</g>
<!-- Node2&#45;&gt;Node1 -->
<g id="edge1" class="edge">
<title>Node2&#45;&gt;Node1</title>
<path fill="none" stroke="midnightblue" d="M1100.49,-78C1117.31,-78 1135.06,-78 1151.69,-78"/>
<polygon fill="midnightblue" stroke="midnightblue" points="1100.15,-74.5 1090.15,-78 1100.15,-81.5 1100.15,-74.5"/>
</g>
<!-- Node3 -->
<g id="node3" class="node">
<title>Node3</title>
<g id="a_node3"><a xlink:href="structplayrho_1_1d2_1_1JointConf.html" target="_top" xlink:title="Base joint definition class.">
<polygon fill="white" stroke="black" points="505,-76.5 505,-95.5 627,-95.5 627,-76.5 505,-76.5"/>
<text text-anchor="middle" x="566" y="-83.5" font-family="Helvetica,sans-Serif" font-size="10.00">playrho::d2::JointConf</text>
</a>
</g>
</g>
<!-- Node3&#45;&gt;Node2 -->
<g id="edge2" class="edge">
<title>Node3&#45;&gt;Node2</title>
<path fill="none" stroke="midnightblue" d="M637.45,-84.76C724.34,-83.23 870.9,-80.66 955.79,-79.16"/>
<polygon fill="midnightblue" stroke="midnightblue" points="637.36,-81.26 627.42,-84.94 637.48,-88.26 637.36,-81.26"/>
</g>
<!-- Node6 -->
<g id="node6" class="node">
<title>Node6</title>
<g id="a_node6"><a xlink:href="structplayrho_1_1d2_1_1JointBuilder.html" target="_top" xlink:title="Joint builder definition structure.">
<polygon fill="white" stroke="black" points="664,-38.5 664,-57.5 826,-57.5 826,-38.5 664,-38.5"/>
<text text-anchor="middle" x="745" y="-45.5" font-family="Helvetica,sans-Serif" font-size="10.00">playrho::d2::JointBuilder&lt; T &gt;</text>
</a>
</g>
</g>
<!-- Node3&#45;&gt;Node6 -->
<g id="edge6" class="edge">
<title>Node3&#45;&gt;Node6</title>
<path fill="none" stroke="midnightblue" d="M621.74,-74.25C646.77,-68.87 676.03,-62.59 699.66,-57.52"/>
<polygon fill="midnightblue" stroke="midnightblue" points="620.71,-70.89 611.66,-76.41 622.18,-77.73 620.71,-70.89"/>
</g>
<!-- Node4 -->
<g id="node4" class="node">
<title>Node4</title>
<g id="a_node4"><a xlink:href="classplayrho_1_1detail_1_1IndexingNamedType.html" target="_top" xlink:title=" ">
<polygon fill="white" stroke="black" points="283,-88.5 283,-129.5 435,-129.5 435,-88.5 283,-88.5"/>
<text text-anchor="start" x="291" y="-117.5" font-family="Helvetica,sans-Serif" font-size="10.00">playrho::detail::Indexing</text>
<text text-anchor="start" x="291" y="-106.5" font-family="Helvetica,sans-Serif" font-size="10.00">NamedType&lt; BodyCounter,</text>
<text text-anchor="middle" x="359" y="-95.5" font-family="Helvetica,sans-Serif" font-size="10.00"> struct BodyIdentifier &gt;</text>
</a>
</g>
</g>
<!-- Node4&#45;&gt;Node1 -->
<g id="edge7" class="edge">
<title>Node4&#45;&gt;Node1</title>
<path fill="none" stroke="#9a32cd" stroke-dasharray="5,2" d="M445.39,-122.89C482.1,-127.74 525.55,-132 565,-132 565,-132 565,-132 1024,-132 1091.28,-132 1167.02,-103.03 1202.74,-87.53"/>
<polygon fill="#9a32cd" stroke="#9a32cd" points="445.61,-119.39 435.23,-121.51 444.67,-126.32 445.61,-119.39"/>
<text text-anchor="middle" x="745" y="-146" font-family="Helvetica,sans-Serif" font-size="10.00"> bodyC</text>
<text text-anchor="middle" x="745" y="-135" font-family="Helvetica,sans-Serif" font-size="10.00">bodyD</text>
</g>
<!-- Node4&#45;&gt;Node3 -->
<g id="edge3" class="edge">
<title>Node4&#45;&gt;Node3</title>
<path fill="none" stroke="#9a32cd" stroke-dasharray="5,2" d="M445.25,-96.91C447.86,-96.6 450.45,-96.29 453,-96 469.78,-94.08 488,-92.32 504.78,-90.82"/>
<polygon fill="#9a32cd" stroke="#9a32cd" points="444.57,-93.47 435.08,-98.18 445.44,-100.42 444.57,-93.47"/>
<text text-anchor="middle" x="470" y="-110" font-family="Helvetica,sans-Serif" font-size="10.00"> bodyA</text>
<text text-anchor="middle" x="470" y="-99" font-family="Helvetica,sans-Serif" font-size="10.00">bodyB</text>
</g>
<!-- Node5 -->
<g id="node5" class="node">
<title>Node5</title>
<g id="a_node5"><a xlink:href="classplayrho_1_1detail_1_1IndexingNamedType.html" target="_top" xlink:title="An indexable, hashable, named &quot;strong type&quot; template class.">
<polygon fill="white" stroke="black" points="0,-94 0,-124 135,-124 135,-94 0,-94"/>
<text text-anchor="start" x="8" y="-112" font-family="Helvetica,sans-Serif" font-size="10.00">playrho::detail::Indexing</text>
<text text-anchor="middle" x="67.5" y="-101" font-family="Helvetica,sans-Serif" font-size="10.00">NamedType&lt; T, Tag &gt;</text>
</a>
</g>
</g>
<!-- Node5&#45;&gt;Node4 -->
<g id="edge4" class="edge">
<title>Node5&#45;&gt;Node4</title>
<path fill="none" stroke="orange" stroke-dasharray="5,2" d="M145.31,-109C187.88,-109 240.59,-109 282.89,-109"/>
<polygon fill="orange" stroke="orange" points="145.28,-105.5 135.28,-109 145.28,-112.5 145.28,-105.5"/>
<text text-anchor="start" x="153" y="-123" font-family="Helvetica,sans-Serif" font-size="10.00"> &lt; BodyCounter, struct</text>
<text text-anchor="middle" x="209" y="-112" font-family="Helvetica,sans-Serif" font-size="10.00"> BodyIdentifier &gt;</text>
</g>
<!-- Node6&#45;&gt;Node2 -->
<g id="edge5" class="edge">
<title>Node6&#45;&gt;Node2</title>
<path fill="none" stroke="orange" stroke-dasharray="5,2" d="M836.39,-51.66C868.56,-53.61 904.98,-56.56 938,-61 943.75,-61.77 949.7,-62.71 955.65,-63.73"/>
<polygon fill="orange" stroke="orange" points="836.29,-48.14 826.11,-51.06 835.89,-55.13 836.29,-48.14"/>
<text text-anchor="middle" x="891" y="-64" font-family="Helvetica,sans-Serif" font-size="10.00"> &lt; GearJointConf &gt;</text>
</g>
<!-- Node7 -->
<g id="node7" class="node">
<title>Node7</title>
<g id="a_node7"><a xlink:href="structplayrho_1_1Vector.html" target="_top" xlink:title=" ">
<polygon fill="white" stroke="black" points="956,-8.5 956,-27.5 1090,-27.5 1090,-8.5 956,-8.5"/>
<text text-anchor="middle" x="1023" y="-15.5" font-family="Helvetica,sans-Serif" font-size="10.00">playrho::Vector&lt; Real &gt;</text>
</a>
</g>
</g>
<!-- Node7&#45;&gt;Node1 -->
<g id="edge8" class="edge">
<title>Node7&#45;&gt;Node1</title>
<path fill="none" stroke="#9a32cd" stroke-dasharray="5,2" d="M1065.24,-30.4C1102.79,-41.7 1157.44,-58.13 1191.71,-68.44"/>
<polygon fill="#9a32cd" stroke="#9a32cd" points="1066.2,-27.04 1055.61,-27.51 1064.18,-33.74 1066.2,-27.04"/>
<text text-anchor="middle" x="1121" y="-63" font-family="Helvetica,sans-Serif" font-size="10.00"> JvAC</text>
<text text-anchor="middle" x="1121" y="-52" font-family="Helvetica,sans-Serif" font-size="10.00">JvBD</text>
</g>
<!-- Node8 -->
<g id="node8" class="node">
<title>Node8</title>
<g id="a_node8"><a xlink:href="structplayrho_1_1Vector.html" target="_top" xlink:title="Vector.">
<polygon fill="white" stroke="black" points="679,-0.5 679,-19.5 811,-19.5 811,-0.5 679,-0.5"/>
<text text-anchor="middle" x="745" y="-7.5" font-family="Helvetica,sans-Serif" font-size="10.00">playrho::Vector&lt; T, N &gt;</text>
</a>
</g>
</g>
<!-- Node8&#45;&gt;Node7 -->
<g id="edge9" class="edge">
<title>Node8&#45;&gt;Node7</title>
<path fill="none" stroke="orange" stroke-dasharray="5,2" d="M821.26,-12.18C863.38,-13.4 915.41,-14.91 955.94,-16.09"/>
<polygon fill="orange" stroke="orange" points="821.16,-8.68 811.06,-11.89 820.95,-15.67 821.16,-8.68"/>
<text text-anchor="middle" x="891" y="-19" font-family="Helvetica,sans-Serif" font-size="10.00"> &lt; Real &gt;</text>
</g>
</g>
</svg>
        <g id="navigator" transform="translate(0 0)" fill="#404254">
                <rect fill="#f2f5e9" fill-opacity="0.5" stroke="#606060" stroke-width=".5" x="0" y="0" width="60" height="60"/>
                <use id="zoomplus" xlink:href="#zoomPlus" x="17" y="9" onmousedown="handleZoom(evt,'in')"/>
                <use id="zoomminus" xlink:href="#zoomMin" x="42" y="9" onmousedown="handleZoom(evt,'out')"/>
                <use id="reset" xlink:href="#resetDef" x="30" y="36" onmousedown="handleReset()"/>
                <g id="arrowUp" xlink:href="#dirArrow" transform="translate(30 24)" onmousedown="handlePan(0,-1)">
                  <use xlink:href="#rim" fill="#404040">
                        <set attributeName="fill" to="#808080" begin="arrowUp.mouseover" end="arrowUp.mouseout"/>
                  </use>
                  <path fill="none" stroke="white" stroke-width="1.5" d="M0,-3.0v7 M-2.5,-0.5L0,-3.0L2.5,-0.5"/>
                </g>
                <g id="arrowRight" xlink:href="#dirArrow" transform="rotate(90) translate(36 -43)" onmousedown="handlePan(1,0)">
                  <use xlink:href="#rim" fill="#404040">
                        <set attributeName="fill" to="#808080" begin="arrowRight.mouseover" end="arrowRight.mouseout"/>
                  </use>
                  <path fill="none" stroke="white" stroke-width="1.5" d="M0,-3.0v7 M-2.5,-0.5L0,-3.0L2.5,-0.5"/>
                </g>
                <g id="arrowDown" xlink:href="#dirArrow" transform="rotate(180) translate(-30 -48)" onmousedown="handlePan(0,1)">
                  <use xlink:href="#rim" fill="#404040">
                        <set attributeName="fill" to="#808080" begin="arrowDown.mouseover" end="arrowDown.mouseout"/>
                  </use>
                  <path fill="none" stroke="white" stroke-width="1.5" d="M0,-3.0v7 M-2.5,-0.5L0,-3.0L2.5,-0.5"/>
                </g>
                <g id="arrowLeft" xlink:href="#dirArrow" transform="rotate(270) translate(-36 17)" onmousedown="handlePan(-1,0)">
                  <use xlink:href="#rim" fill="#404040">
                        <set attributeName="fill" to="#808080" begin="arrowLeft.mouseover" end="arrowLeft.mouseout"/>
                  </use>
                  <path fill="none" stroke="white" stroke-width="1.5" d="M0,-3.0v7 M-2.5,-0.5L0,-3.0L2.5,-0.5"/>
                </g>
        </g>
        <svg viewBox="0 0 15 15" width="100%" height="30px" preserveAspectRatio="xMaxYMin meet">
         <g id="arrow_out" transform="scale(0.3 0.3)">
          <a xlink:href="structplayrho_1_1d2_1_1GearJointConf__coll__graph_org.svg" target="_base">
           <rect id="button" ry="5" rx="5" y="6" x="6" height="38" width="38"
                fill="#f2f5e9" fill-opacity="0.5" stroke="#606060" stroke-width="1.0"/>
           <path id="arrow"
             d="M 11.500037,31.436501 C 11.940474,20.09759 22.043105,11.32322 32.158766,21.979434 L 37.068811,17.246167 C 37.068811,17.246167 37.088388,32 37.088388,32 L 22.160133,31.978069 C 22.160133,31.978069 26.997745,27.140456 26.997745,27.140456 C 18.528582,18.264221 13.291696,25.230495 11.500037,31.436501 z"
             style="fill:#404040;"/>
          </a>
         </g>
        </svg>
</svg>
