<?xml version="1.0" encoding="UTF-8" standalone="no"?>
<!DOCTYPE svg PUBLIC "-//W3C//DTD SVG 1.1//EN"
 "http://www.w3.org/Graphics/SVG/1.1/DTD/svg11.dtd">
<!-- Generated by graphviz version 2.40.1 (20161225.0304)
 -->
<!-- Title: playrho::d2::TypeJointVisitor Pages: 1 -->
<svg width="486pt" height="232pt"
 viewBox="0.00 0.00 486.29 232.00" xmlns="http://www.w3.org/2000/svg" xmlns:xlink="http://www.w3.org/1999/xlink">
<g id="graph0" class="graph" transform="scale(1 1) rotate(0) translate(4 228)">
<title>playrho::d2::TypeJointVisitor</title>
<polygon fill="#ffffff" stroke="transparent" points="-4,4 -4,-228 482.2861,-228 482.2861,4 -4,4"/>
<!-- Node2 -->
<g id="node1" class="node">
<title>Node2</title>
<polygon fill="#bfbfbf" stroke="#000000" points="77.1577,-.5 77.1577,-18.5 218.6069,-18.5 218.6069,-.5 77.1577,-.5"/>
<text text-anchor="middle" x="147.8823" y="-6.5" font-family="Helvetica,sans-Serif" font-size="10.00" fill="#000000">playrho::d2::TypeJointVisitor</text>
</g>
<!-- Node3 -->
<g id="node2" class="node">
<title>Node3</title>
<g id="a_node2"><a xlink:href="classplayrho_1_1d2_1_1JointVisitor.html" target="_top" xlink:title="Visitor interface for Joint instances. ">
<polygon fill="#ffffff" stroke="#000000" points="0,-70.5 0,-88.5 119.7646,-88.5 119.7646,-70.5 0,-70.5"/>
<text text-anchor="middle" x="59.8823" y="-76.5" font-family="Helvetica,sans-Serif" font-size="10.00" fill="#000000">playrho::d2::JointVisitor</text>
</a>
</g>
</g>
<!-- Node3&#45;&gt;Node2 -->
<g id="edge1" class="edge">
<title>Node3&#45;&gt;Node2</title>
<path fill="none" stroke="#191970" d="M79.2755,-64.0736C96.7582,-50.1669 121.8802,-30.1835 136.375,-18.6535"/>
<polygon fill="#191970" stroke="#191970" points="77.034,-61.3843 71.3868,-70.3487 81.3917,-66.8626 77.034,-61.3843"/>
</g>
<!-- Node4 -->
<g id="node3" class="node">
<title>Node4</title>
<g id="a_node3"><a xlink:href="classplayrho_1_1OptionalValue.html" target="_top" xlink:title="playrho::OptionalValue\l\&lt; JointType \&gt;">
<polygon fill="#ffffff" stroke="#000000" points="224.6626,-65.5 224.6626,-93.5 341.1021,-93.5 341.1021,-65.5 224.6626,-65.5"/>
<text text-anchor="start" x="232.6626" y="-81.5" font-family="Helvetica,sans-Serif" font-size="10.00" fill="#000000">playrho::OptionalValue</text>
<text text-anchor="middle" x="282.8823" y="-71.5" font-family="Helvetica,sans-Serif" font-size="10.00" fill="#000000">&lt; JointType &gt;</text>
</a>
</g>
</g>
<!-- Node4&#45;&gt;Node2 -->
<g id="edge2" class="edge">
<title>Node4&#45;&gt;Node2</title>
<path fill="none" stroke="#9a32cd" stroke-dasharray="5,2" d="M246.6183,-60.6964C220.2666,-47.0326 185.7666,-29.1437 165.3022,-18.5325"/>
<polygon fill="#9a32cd" stroke="#9a32cd" points="245.0744,-63.8384 255.5631,-65.3345 248.2966,-57.6241 245.0744,-63.8384"/>
<text text-anchor="middle" x="237.668" y="-39" font-family="Helvetica,sans-Serif" font-size="10.00" fill="#000000"> m_type</text>
</g>
<!-- Node5 -->
<g id="node4" class="node">
<title>Node5</title>
<polygon fill="#ffffff" stroke="#bfbfbf" points="196.4292,-205.5 196.4292,-223.5 231.3354,-223.5 231.3354,-205.5 196.4292,-205.5"/>
<text text-anchor="middle" x="213.8823" y="-211.5" font-family="Helvetica,sans-Serif" font-size="10.00" fill="#000000">bool</text>
</g>
<!-- Node5&#45;&gt;Node2 -->
<g id="edge8" class="edge">
<title>Node5&#45;&gt;Node2</title>
<path fill="none" stroke="#9a32cd" stroke-dasharray="5,2" d="M206.6029,-196.0691C199.3846,-177.5052 188.2106,-147.972 179.7544,-122 167.3735,-83.9739 155.1736,-37.8523 150.2079,-18.6129"/>
<polygon fill="#9a32cd" stroke="#9a32cd" points="203.3484,-197.3573 210.2545,-205.392 209.8663,-194.8042 203.3484,-197.3573"/>
<text text-anchor="middle" x="205.4463" y="-114" font-family="Helvetica,sans-Serif" font-size="10.00" fill="#000000"> m_writable</text>
</g>
<!-- Node5&#45;&gt;Node4 -->
<g id="edge3" class="edge">
<title>Node5&#45;&gt;Node4</title>
<path fill="none" stroke="#9a32cd" stroke-dasharray="5,2" d="M212.848,-195.1961C212.7797,-179.5627 214.47,-157.3631 222.8726,-140 232.0236,-121.0903 249.4864,-104.544 263.2245,-93.5573"/>
<polygon fill="#9a32cd" stroke="#9a32cd" points="209.3512,-195.361 213.1378,-205.2561 216.3483,-195.1594 209.3512,-195.361"/>
<text text-anchor="middle" x="237.8872" y="-146.5" font-family="Helvetica,sans-Serif" font-size="10.00" fill="#000000"> m_set</text>
</g>
<!-- Node7 -->
<g id="node6" class="node">
<title>Node7</title>
<g id="a_node6"><a xlink:href="classplayrho_1_1OptionalValue.html" target="_top" xlink:title="Optional value template class. ">
<polygon fill="#ffffff" stroke="#000000" points="262.166,-140.5 262.166,-158.5 401.5986,-158.5 401.5986,-140.5 262.166,-140.5"/>
<text text-anchor="middle" x="331.8823" y="-146.5" font-family="Helvetica,sans-Serif" font-size="10.00" fill="#000000">playrho::OptionalValue&lt; T &gt;</text>
</a>
</g>
</g>
<!-- Node5&#45;&gt;Node7 -->
<g id="edge6" class="edge">
<title>Node5&#45;&gt;Node7</title>
<path fill="none" stroke="#9a32cd" stroke-dasharray="5,2" d="M239.1442,-200.5846C262.1351,-187.9201 295.4209,-169.5847 315.2339,-158.6708"/>
<polygon fill="#9a32cd" stroke="#9a32cd" points="237.36,-197.5714 230.2897,-205.462 240.7375,-203.7028 237.36,-197.5714"/>
<text text-anchor="middle" x="295.8872" y="-179" font-family="Helvetica,sans-Serif" font-size="10.00" fill="#000000"> m_set</text>
</g>
<!-- Node6 -->
<g id="node5" class="node">
<title>Node6</title>
<polygon fill="#ffffff" stroke="#bfbfbf" points="419.4785,-140.5 419.4785,-158.5 478.2861,-158.5 478.2861,-140.5 419.4785,-140.5"/>
<text text-anchor="middle" x="448.8823" y="-146.5" font-family="Helvetica,sans-Serif" font-size="10.00" fill="#000000">JointType</text>
</g>
<!-- Node6&#45;&gt;Node4 -->
<g id="edge4" class="edge">
<title>Node6&#45;&gt;Node4</title>
<path fill="none" stroke="#9a32cd" stroke-dasharray="5,2" d="M424.7274,-135.2815C411.4592,-127.8001 394.5572,-118.7964 378.8823,-112 363.0615,-105.1403 345.2851,-98.7699 329.3689,-93.5193"/>
<polygon fill="#9a32cd" stroke="#9a32cd" points="423.2598,-138.4743 433.6769,-140.4068 426.7386,-132.3999 423.2598,-138.4743"/>
<text text-anchor="middle" x="418.1704" y="-114" font-family="Helvetica,sans-Serif" font-size="10.00" fill="#000000"> m_value</text>
</g>
<!-- Node7&#45;&gt;Node4 -->
<g id="edge5" class="edge">
<title>Node7&#45;&gt;Node4</title>
<path fill="none" stroke="#ffa500" stroke-dasharray="5,2" d="M319.7355,-132.1475C311.4573,-120.3214 300.6307,-104.8548 292.8573,-93.7499"/>
<polygon fill="#ffa500" stroke="#ffa500" points="316.8744,-134.1635 325.4764,-140.3487 322.6091,-130.1493 316.8744,-134.1635"/>
<text text-anchor="middle" x="343.2935" y="-114" font-family="Helvetica,sans-Serif" font-size="10.00" fill="#000000"> &lt; JointType &gt;</text>
</g>
<!-- Node8 -->
<g id="node7" class="node">
<title>Node8</title>
<polygon fill="#ffffff" stroke="#bfbfbf" points="317.3823,-205.5 317.3823,-223.5 346.3823,-223.5 346.3823,-205.5 317.3823,-205.5"/>
<text text-anchor="middle" x="331.4365" y="-211.5" font-family="Helvetica,sans-Serif" font-size="10.00" fill="#000000">T</text>
</g>
<!-- Node8&#45;&gt;Node7 -->
<g id="edge7" class="edge">
<title>Node8&#45;&gt;Node7</title>
<path fill="none" stroke="#9a32cd" stroke-dasharray="5,2" d="M331.8823,-195.1265C331.8823,-183.1522 331.8823,-168.3205 331.8823,-158.8821"/>
<polygon fill="#9a32cd" stroke="#9a32cd" points="328.3824,-195.462 331.8823,-205.462 335.3824,-195.4621 328.3824,-195.462"/>
<text text-anchor="middle" x="352.1704" y="-179" font-family="Helvetica,sans-Serif" font-size="10.00" fill="#000000"> m_value</text>
</g>
</g>
</svg>
