<?xml version="1.0" encoding="UTF-8" standalone="no"?>
<!DOCTYPE svg PUBLIC "-//W3C//DTD SVG 1.1//EN"
 "http://www.w3.org/Graphics/SVG/1.1/DTD/svg11.dtd">
<!-- Generated by graphviz version 2.40.1 (20161225.0304)
 -->
<!-- Title: playrho::Span&lt; T &gt; Pages: 1 -->
<svg width="134pt" height="92pt"
 viewBox="0.00 0.00 134.36 92.00" xmlns="http://www.w3.org/2000/svg" xmlns:xlink="http://www.w3.org/1999/xlink">
<g id="graph0" class="graph" transform="scale(1 1) rotate(0) translate(4 88)">
<title>playrho::Span&lt; T &gt;</title>
<polygon fill="#ffffff" stroke="transparent" points="-4,4 -4,-88 130.3594,-88 130.3594,4 -4,4"/>
<!-- Node1 -->
<g id="node1" class="node">
<title>Node1</title>
<polygon fill="#bfbfbf" stroke="#000000" points="18.9468,-.5 18.9468,-18.5 119.6489,-18.5 119.6489,-.5 18.9468,-.5"/>
<text text-anchor="middle" x="69.2979" y="-6.5" font-family="Helvetica,sans-Serif" font-size="10.00" fill="#000000">playrho::Span&lt; T &gt;</text>
</g>
<!-- Node2 -->
<g id="node2" class="node">
<title>Node2</title>
<polygon fill="#ffffff" stroke="#bfbfbf" points="0,-65.5 0,-83.5 66.5957,-83.5 66.5957,-65.5 0,-65.5"/>
<text text-anchor="middle" x="33.2979" y="-71.5" font-family="Helvetica,sans-Serif" font-size="10.00" fill="#000000">data_type *</text>
</g>
<!-- Node2&#45;&gt;Node1 -->
<g id="edge1" class="edge">
<title>Node2&#45;&gt;Node1</title>
<path fill="none" stroke="#9a32cd" stroke-dasharray="5,2" d="M36.8407,-55.3113C38.4439,-49.2152 40.7056,-42.6058 43.8447,-37 47.7224,-30.0751 53.6849,-23.5049 58.8644,-18.5241"/>
<polygon fill="#9a32cd" stroke="#9a32cd" points="33.3511,-54.8838 34.6188,-65.4025 40.1873,-56.3891 33.3511,-54.8838"/>
<text text-anchor="middle" x="63.0244" y="-39" font-family="Helvetica,sans-Serif" font-size="10.00" fill="#000000"> m_array</text>
</g>
<!-- Node3 -->
<g id="node3" class="node">
<title>Node3</title>
<polygon fill="#ffffff" stroke="#bfbfbf" points="84.2363,-65.5 84.2363,-83.5 126.3594,-83.5 126.3594,-65.5 84.2363,-65.5"/>
<text text-anchor="middle" x="105.2979" y="-71.5" font-family="Helvetica,sans-Serif" font-size="10.00" fill="#000000">size_t</text>
</g>
<!-- Node3&#45;&gt;Node1 -->
<g id="edge2" class="edge">
<title>Node3&#45;&gt;Node1</title>
<path fill="none" stroke="#9a32cd" stroke-dasharray="5,2" d="M95.3799,-56.5926C88.6186,-44.3846 79.9371,-28.7097 74.4941,-18.8821"/>
<polygon fill="#9a32cd" stroke="#9a32cd" points="92.3854,-58.4099 100.2922,-65.462 98.5089,-55.0183 92.3854,-58.4099"/>
<text text-anchor="middle" x="106.5244" y="-39" font-family="Helvetica,sans-Serif" font-size="10.00" fill="#000000"> m_size</text>
</g>
</g>
</svg>
