<?xml version="1.0" encoding="UTF-8" standalone="no"?>
<!DOCTYPE svg PUBLIC "-//W3C//DTD SVG 1.1//EN"
 "http://www.w3.org/Graphics/SVG/1.1/DTD/svg11.dtd">
<!-- Generated by graphviz version 2.44.1 (20200629.0846)
 -->
<!-- Title: playrho::d2::Simplex Pages: 1 -->
<svg width="736pt" height="132pt"
 viewBox="0.00 0.00 736.00 132.00" xmlns="http://www.w3.org/2000/svg" xmlns:xlink="http://www.w3.org/1999/xlink">
<g id="graph0" class="graph" transform="scale(1 1) rotate(0) translate(4 128)">
<title>playrho::d2::Simplex</title>
<polygon fill="white" stroke="transparent" points="-4,4 -4,-128 732,-128 732,4 -4,4"/>
<!-- Node1 -->
<g id="node1" class="node">
<title>Node1</title>
<g id="a_node1"><a xlink:title="An encapsulation of a point, line segment, or triangle.">
<polygon fill="#bfbfbf" stroke="black" points="622,-56 622,-75 728,-75 728,-56 622,-56"/>
<text text-anchor="middle" x="675" y="-63" font-family="Helvetica,sans-Serif" font-size="10.00">playrho::d2::Simplex</text>
</a>
</g>
</g>
<!-- Node2 -->
<g id="node2" class="node">
<title>Node2</title>
<g id="a_node2"><a xlink:href="classplayrho_1_1ArrayList.html" target="_top" xlink:title=" ">
<polygon fill="white" stroke="black" points="326,-71.5 326,-123.5 472,-123.5 472,-71.5 326,-71.5"/>
<text text-anchor="start" x="334" y="-111.5" font-family="Helvetica,sans-Serif" font-size="10.00">playrho::ArrayList</text>
<text text-anchor="start" x="334" y="-100.5" font-family="Helvetica,sans-Serif" font-size="10.00">&lt; Real, MaxSimplexEdges,</text>
<text text-anchor="start" x="334" y="-89.5" font-family="Helvetica,sans-Serif" font-size="10.00"> std::remove_const&lt; decltype</text>
<text text-anchor="middle" x="399" y="-78.5" font-family="Helvetica,sans-Serif" font-size="10.00">(MaxSimplexEdges)&gt;::type &gt;</text>
</a>
</g>
</g>
<!-- Node2&#45;&gt;Node1 -->
<g id="edge1" class="edge">
<title>Node2&#45;&gt;Node1</title>
<path fill="none" stroke="#9a32cd" stroke-dasharray="5,2" d="M482.43,-87.87C527.64,-82.59 582.32,-76.21 621.67,-71.61"/>
<polygon fill="#9a32cd" stroke="#9a32cd" points="481.88,-84.41 472.35,-89.05 482.69,-91.37 481.88,-84.41"/>
<text text-anchor="middle" x="554" y="-87.5" font-family="Helvetica,sans-Serif" font-size="10.00"> m_normalizedWeights</text>
</g>
<!-- Node3 -->
<g id="node3" class="node">
<title>Node3</title>
<g id="a_node3"><a xlink:href="classplayrho_1_1ArrayList.html" target="_top" xlink:title="Array list.">
<polygon fill="white" stroke="black" points="0,-41 0,-82 142,-82 142,-41 0,-41"/>
<text text-anchor="start" x="8" y="-70" font-family="Helvetica,sans-Serif" font-size="10.00">playrho::ArrayList</text>
<text text-anchor="start" x="8" y="-59" font-family="Helvetica,sans-Serif" font-size="10.00">&lt; VALUE_TYPE, MAXSIZE,</text>
<text text-anchor="middle" x="71" y="-48" font-family="Helvetica,sans-Serif" font-size="10.00"> SIZE_TYPE &gt;</text>
</a>
</g>
</g>
<!-- Node3&#45;&gt;Node2 -->
<g id="edge2" class="edge">
<title>Node3&#45;&gt;Node2</title>
<path fill="none" stroke="orange" stroke-dasharray="5,2" d="M152.25,-73.53C154.86,-73.86 157.45,-74.19 160,-74.5 215.52,-81.28 278.54,-87.29 325.77,-91.47"/>
<polygon fill="orange" stroke="orange" points="152.46,-70.02 142.09,-72.18 151.54,-76.96 152.46,-70.02"/>
<text text-anchor="start" x="162" y="-112.5" font-family="Helvetica,sans-Serif" font-size="10.00"> &lt; Real, MaxSimplexEdges,</text>
<text text-anchor="start" x="162" y="-101.5" font-family="Helvetica,sans-Serif" font-size="10.00"> std::remove_const&lt; decltype</text>
<text text-anchor="middle" x="227" y="-90.5" font-family="Helvetica,sans-Serif" font-size="10.00">(MaxSimplexEdges)&gt;::type &gt;</text>
</g>
<!-- Node4 -->
<g id="node4" class="node">
<title>Node4</title>
<g id="a_node4"><a xlink:href="classplayrho_1_1ArrayList.html" target="_top" xlink:title=" ">
<polygon fill="white" stroke="black" points="312,-0.5 312,-52.5 486,-52.5 486,-0.5 312,-0.5"/>
<text text-anchor="start" x="320" y="-40.5" font-family="Helvetica,sans-Serif" font-size="10.00">playrho::ArrayList</text>
<text text-anchor="start" x="320" y="-29.5" font-family="Helvetica,sans-Serif" font-size="10.00">&lt; SimplexEdge, MaxSimplexEdges,</text>
<text text-anchor="start" x="320" y="-18.5" font-family="Helvetica,sans-Serif" font-size="10.00"> std::remove_const&lt; decltype</text>
<text text-anchor="middle" x="399" y="-7.5" font-family="Helvetica,sans-Serif" font-size="10.00">(MaxSimplexEdges)&gt;::type &gt;</text>
</a>
</g>
</g>
<!-- Node3&#45;&gt;Node4 -->
<g id="edge4" class="edge">
<title>Node3&#45;&gt;Node4</title>
<path fill="none" stroke="orange" stroke-dasharray="5,2" d="M131.24,-37.74C140.73,-34.78 150.53,-32.2 160,-30.5 209.83,-21.55 266.46,-20.25 311.98,-21.33"/>
<polygon fill="orange" stroke="orange" points="129.91,-34.49 121.5,-40.94 132.1,-41.14 129.91,-34.49"/>
<text text-anchor="start" x="160" y="-66.5" font-family="Helvetica,sans-Serif" font-size="10.00"> &lt; SimplexEdge, MaxSimplex</text>
<text text-anchor="start" x="160" y="-55.5" font-family="Helvetica,sans-Serif" font-size="10.00">Edges, std::remove_const</text>
<text text-anchor="start" x="160" y="-44.5" font-family="Helvetica,sans-Serif" font-size="10.00">&lt; decltype(MaxSimplexEdges)</text>
<text text-anchor="middle" x="227" y="-33.5" font-family="Helvetica,sans-Serif" font-size="10.00">&gt;::type &gt;</text>
</g>
<!-- Node4&#45;&gt;Node1 -->
<g id="edge3" class="edge">
<title>Node4&#45;&gt;Node1</title>
<path fill="none" stroke="#9a32cd" stroke-dasharray="5,2" d="M496.37,-40.22C538.64,-46.23 586.58,-53.06 622,-58.1"/>
<polygon fill="#9a32cd" stroke="#9a32cd" points="496.71,-36.73 486.32,-38.79 495.73,-43.66 496.71,-36.73"/>
<text text-anchor="middle" x="554" y="-57.5" font-family="Helvetica,sans-Serif" font-size="10.00"> m_simplexEdges</text>
</g>
</g>
</svg>
