<?xml version="1.0" encoding="UTF-8" standalone="no"?>
<!DOCTYPE svg PUBLIC "-//W3C//DTD SVG 1.1//EN"
 "http://www.w3.org/Graphics/SVG/1.1/DTD/svg11.dtd">
<!-- Generated by graphviz version 2.40.1 (20161225.0304)
 -->
<!-- Title: playrho::d2::Sweep Pages: 1 -->
<svg width="282pt" height="297pt"
 viewBox="0.00 0.00 281.69 297.00" xmlns="http://www.w3.org/2000/svg" xmlns:xlink="http://www.w3.org/1999/xlink">
<g id="graph0" class="graph" transform="scale(1 1) rotate(0) translate(4 293)">
<title>playrho::d2::Sweep</title>
<polygon fill="#ffffff" stroke="transparent" points="-4,4 -4,-293 277.6875,-293 277.6875,4 -4,4"/>
<!-- Node1 -->
<g id="node1" class="node">
<title>Node1</title>
<polygon fill="#bfbfbf" stroke="#000000" points="106.1084,-.5 106.1084,-18.5 207.7188,-18.5 207.7188,-.5 106.1084,-.5"/>
<text text-anchor="middle" x="156.9136" y="-6.5" font-family="Helvetica,sans-Serif" font-size="10.00" fill="#000000">playrho::d2::Sweep</text>
</g>
<!-- Node2 -->
<g id="node2" class="node">
<title>Node2</title>
<g id="a_node2"><a xlink:href="structplayrho_1_1Vector.html" target="_top" xlink:title="playrho::Vector\&lt; Length \&gt;">
<polygon fill="#ffffff" stroke="#000000" points="91.6479,-140.5 91.6479,-158.5 222.1792,-158.5 222.1792,-140.5 91.6479,-140.5"/>
<text text-anchor="middle" x="156.9136" y="-146.5" font-family="Helvetica,sans-Serif" font-size="10.00" fill="#000000">playrho::Vector&lt; Length &gt;</text>
</a>
</g>
</g>
<!-- Node2&#45;&gt;Node1 -->
<g id="edge1" class="edge">
<title>Node2&#45;&gt;Node1</title>
<path fill="none" stroke="#9a32cd" stroke-dasharray="5,2" d="M156.9136,-130.0475C156.9136,-99.3662 156.9136,-40.9269 156.9136,-18.5376"/>
<polygon fill="#9a32cd" stroke="#9a32cd" points="153.4137,-130.3142 156.9136,-140.3142 160.4137,-130.3142 153.4137,-130.3142"/>
<text text-anchor="middle" x="183.5933" y="-81.5" font-family="Helvetica,sans-Serif" font-size="10.00" fill="#000000"> localCenter</text>
</g>
<!-- Node6 -->
<g id="node6" class="node">
<title>Node6</title>
<g id="a_node6"><a xlink:href="structplayrho_1_1d2_1_1Position.html" target="_top" xlink:title="2&#45;D positional data structure. ">
<polygon fill="#ffffff" stroke="#000000" points="14.6084,-75.5 14.6084,-93.5 121.2188,-93.5 121.2188,-75.5 14.6084,-75.5"/>
<text text-anchor="middle" x="67.9136" y="-81.5" font-family="Helvetica,sans-Serif" font-size="10.00" fill="#000000">playrho::d2::Position</text>
</a>
</g>
</g>
<!-- Node2&#45;&gt;Node6 -->
<g id="edge6" class="edge">
<title>Node2&#45;&gt;Node6</title>
<path fill="none" stroke="#9a32cd" stroke-dasharray="5,2" d="M134.1517,-134.7759C128.084,-130.7276 121.5769,-126.2733 115.6772,-122 102.8701,-112.7232 88.6729,-101.4431 79.1117,-93.6922"/>
<polygon fill="#9a32cd" stroke="#9a32cd" points="132.3297,-137.7669 142.6052,-140.3482 136.1822,-131.9223 132.3297,-137.7669"/>
<text text-anchor="middle" x="129.5317" y="-114" font-family="Helvetica,sans-Serif" font-size="10.00" fill="#000000"> linear</text>
</g>
<!-- Node3 -->
<g id="node3" class="node">
<title>Node3</title>
<polygon fill="#ffffff" stroke="#bfbfbf" points="91.6206,-205.5 91.6206,-223.5 138.2065,-223.5 138.2065,-205.5 91.6206,-205.5"/>
<text text-anchor="middle" x="114.9136" y="-211.5" font-family="Helvetica,sans-Serif" font-size="10.00" fill="#000000">Length</text>
</g>
<!-- Node3&#45;&gt;Node2 -->
<g id="edge2" class="edge">
<title>Node3&#45;&gt;Node2</title>
<path fill="none" stroke="#9a32cd" stroke-dasharray="5,2" d="M122.4042,-195.8893C125.2311,-189.6772 128.7059,-182.8516 132.5591,-177 136.9081,-170.3953 142.7581,-163.7368 147.6345,-158.6263"/>
<polygon fill="#9a32cd" stroke="#9a32cd" points="119.0153,-194.9131 118.306,-205.4841 125.4527,-197.6626 119.0153,-194.9131"/>
<text text-anchor="middle" x="154.5908" y="-179" font-family="Helvetica,sans-Serif" font-size="10.00" fill="#000000"> elements</text>
</g>
<!-- Node4 -->
<g id="node4" class="node">
<title>Node4</title>
<g id="a_node4"><a xlink:href="structplayrho_1_1Vector.html" target="_top" xlink:title="Vector. ">
<polygon fill="#ffffff" stroke="#000000" points="156.1396,-205.5 156.1396,-223.5 273.6875,-223.5 273.6875,-205.5 156.1396,-205.5"/>
<text text-anchor="middle" x="214.9136" y="-211.5" font-family="Helvetica,sans-Serif" font-size="10.00" fill="#000000">playrho::Vector&lt; T, N &gt;</text>
</a>
</g>
</g>
<!-- Node4&#45;&gt;Node2 -->
<g id="edge3" class="edge">
<title>Node4&#45;&gt;Node2</title>
<path fill="none" stroke="#ffa500" stroke-dasharray="5,2" d="M199.897,-197.6711C188.8769,-185.321 174.315,-169.0016 165.2853,-158.8821"/>
<polygon fill="#ffa500" stroke="#ffa500" points="197.5795,-200.3309 206.8489,-205.462 202.8025,-195.6703 197.5795,-200.3309"/>
<text text-anchor="middle" x="214.2139" y="-179" font-family="Helvetica,sans-Serif" font-size="10.00" fill="#000000"> &lt; Length &gt;</text>
</g>
<!-- Node5 -->
<g id="node5" class="node">
<title>Node5</title>
<polygon fill="#ffffff" stroke="#bfbfbf" points="200.4136,-270.5 200.4136,-288.5 229.4136,-288.5 229.4136,-270.5 200.4136,-270.5"/>
<text text-anchor="middle" x="214.4678" y="-276.5" font-family="Helvetica,sans-Serif" font-size="10.00" fill="#000000">T</text>
</g>
<!-- Node5&#45;&gt;Node4 -->
<g id="edge4" class="edge">
<title>Node5&#45;&gt;Node4</title>
<path fill="none" stroke="#9a32cd" stroke-dasharray="5,2" d="M214.9136,-260.1265C214.9136,-248.1522 214.9136,-233.3205 214.9136,-223.8821"/>
<polygon fill="#9a32cd" stroke="#9a32cd" points="211.4137,-260.462 214.9136,-270.462 218.4137,-260.4621 211.4137,-260.462"/>
<text text-anchor="middle" x="236.5908" y="-244" font-family="Helvetica,sans-Serif" font-size="10.00" fill="#000000"> elements</text>
</g>
<!-- Node6&#45;&gt;Node1 -->
<g id="edge5" class="edge">
<title>Node6&#45;&gt;Node1</title>
<path fill="none" stroke="#9a32cd" stroke-dasharray="5,2" d="M84.2209,-68.1139C93.8811,-58.6798 106.5284,-46.7912 118.4507,-37 126.3169,-30.5399 135.5868,-23.886 143.0551,-18.7417"/>
<polygon fill="#9a32cd" stroke="#9a32cd" points="81.541,-65.8416 76.8903,-75.3612 86.4624,-70.8195 81.541,-65.8416"/>
<text text-anchor="middle" x="131.145" y="-49" font-family="Helvetica,sans-Serif" font-size="10.00" fill="#000000"> pos0</text>
<text text-anchor="middle" x="131.145" y="-39" font-family="Helvetica,sans-Serif" font-size="10.00" fill="#000000">pos1</text>
</g>
<!-- Node7 -->
<g id="node7" class="node">
<title>Node7</title>
<polygon fill="#ffffff" stroke="#bfbfbf" points="0,-140.5 0,-158.5 73.8271,-158.5 73.8271,-140.5 0,-140.5"/>
<text text-anchor="middle" x="36.9136" y="-146.5" font-family="Helvetica,sans-Serif" font-size="10.00" fill="#000000">plane_angle)</text>
</g>
<!-- Node7&#45;&gt;Node6 -->
<g id="edge7" class="edge">
<title>Node7&#45;&gt;Node6</title>
<path fill="none" stroke="#9a32cd" stroke-dasharray="5,2" d="M41.0936,-130.2756C42.7649,-124.2573 44.9719,-117.7023 47.7759,-112 51.0137,-105.4153 55.8396,-98.7575 59.9554,-93.6423"/>
<polygon fill="#9a32cd" stroke="#9a32cd" points="37.6353,-129.683 38.6508,-140.2291 44.4335,-131.3516 37.6353,-129.683"/>
<text text-anchor="middle" x="65.9824" y="-114" font-family="Helvetica,sans-Serif" font-size="10.00" fill="#000000"> angular</text>
</g>
<!-- Node8 -->
<g id="node8" class="node">
<title>Node8</title>
<polygon fill="#ffffff" stroke="#bfbfbf" points="228.4629,-75.5 228.4629,-93.5 263.3643,-93.5 263.3643,-75.5 228.4629,-75.5"/>
<text text-anchor="middle" x="245.9136" y="-81.5" font-family="Helvetica,sans-Serif" font-size="10.00" fill="#000000">float</text>
</g>
<!-- Node8&#45;&gt;Node1 -->
<g id="edge8" class="edge">
<title>Node8&#45;&gt;Node1</title>
<path fill="none" stroke="#9a32cd" stroke-dasharray="5,2" d="M226.8974,-68.4751C208.8257,-53.2462 182.296,-30.8897 167.638,-18.5374"/>
<polygon fill="#9a32cd" stroke="#9a32cd" points="225.0981,-71.5359 235.0004,-75.3035 229.6089,-66.1831 225.0981,-71.5359"/>
<text text-anchor="middle" x="228.3174" y="-44" font-family="Helvetica,sans-Serif" font-size="10.00" fill="#000000"> alpha0</text>
</g>
</g>
</svg>
