<?xml version="1.0" encoding="UTF-8" standalone="no"?>
<!DOCTYPE svg PUBLIC "-//W3C//DTD SVG 1.1//EN"
 "http://www.w3.org/Graphics/SVG/1.1/DTD/svg11.dtd">
<!-- Generated by graphviz version 2.44.1 (20200629.0846)
 -->
<!-- Title: playrho::BlockAllocator Pages: 1 -->
<svg width="529pt" height="195pt"
 viewBox="0.00 0.00 529.00 194.50" xmlns="http://www.w3.org/2000/svg" xmlns:xlink="http://www.w3.org/1999/xlink">
<g id="graph0" class="graph" transform="scale(1 1) rotate(0) translate(4 190.5)">
<title>playrho::BlockAllocator</title>
<polygon fill="white" stroke="transparent" points="-4,4 -4,-190.5 525,-190.5 525,4 -4,4"/>
<!-- Node1 -->
<g id="node1" class="node">
<title>Node1</title>
<g id="a_node1"><a xlink:title="Block allocator.">
<polygon fill="#bfbfbf" stroke="black" points="404,-74.5 404,-93.5 521,-93.5 521,-74.5 404,-74.5"/>
<text text-anchor="middle" x="462.5" y="-81.5" font-family="Helvetica,sans-Serif" font-size="10.00">playrho::BlockAllocator</text>
</a>
</g>
</g>
<!-- Node2 -->
<g id="node2" class="node">
<title>Node2</title>
<g id="a_node2"><a xlink:href="structplayrho_1_1BlockAllocator_1_1Block.html" target="_top" xlink:title="Block.">
<polygon fill="white" stroke="black" points="0,-127 0,-157 117,-157 117,-127 0,-127"/>
<text text-anchor="start" x="8" y="-145" font-family="Helvetica,sans-Serif" font-size="10.00">playrho::BlockAllocator</text>
<text text-anchor="middle" x="58.5" y="-134" font-family="Helvetica,sans-Serif" font-size="10.00">::Block</text>
</a>
</g>
</g>
<!-- Node2&#45;&gt;Node1 -->
<g id="edge1" class="edge">
<title>Node2&#45;&gt;Node1</title>
<path fill="none" stroke="#9a32cd" stroke-dasharray="5,2" d="M127.31,-143.88C129.9,-143.93 132.48,-143.97 135,-144 247.24,-145.49 280.41,-154.09 386,-116 404.75,-109.24 425.57,-100.3 440.59,-93.59"/>
<polygon fill="#9a32cd" stroke="#9a32cd" points="127.27,-140.38 117.21,-143.69 127.14,-147.38 127.27,-140.38"/>
<text text-anchor="middle" x="257.5" y="-148" font-family="Helvetica,sans-Serif" font-size="10.00"> m_freeLists</text>
</g>
<!-- Node2&#45;&gt;Node2 -->
<g id="edge2" class="edge">
<title>Node2&#45;&gt;Node2</title>
<path fill="none" stroke="#9a32cd" stroke-dasharray="5,2" d="M41.09,-167.46C43.25,-172.18 49.05,-175.5 58.5,-175.5 74,-175.5 79.7,-166.56 75.58,-157.16"/>
<polygon fill="#9a32cd" stroke="#9a32cd" points="44.59,-167.27 41.42,-157.16 37.6,-167.04 44.59,-167.27"/>
<text text-anchor="middle" x="58.5" y="-178.5" font-family="Helvetica,sans-Serif" font-size="10.00"> next</text>
</g>
<!-- Node4 -->
<g id="node4" class="node">
<title>Node4</title>
<g id="a_node4"><a xlink:href="structplayrho_1_1BlockAllocator_1_1Chunk.html" target="_top" xlink:title="Chunk.">
<polygon fill="white" stroke="black" points="199,-97 199,-127 316,-127 316,-97 199,-97"/>
<text text-anchor="start" x="207" y="-115" font-family="Helvetica,sans-Serif" font-size="10.00">playrho::BlockAllocator</text>
<text text-anchor="middle" x="257.5" y="-104" font-family="Helvetica,sans-Serif" font-size="10.00">::Chunk</text>
</a>
</g>
</g>
<!-- Node2&#45;&gt;Node4 -->
<g id="edge5" class="edge">
<title>Node2&#45;&gt;Node4</title>
<path fill="none" stroke="#9a32cd" stroke-dasharray="5,2" d="M127.19,-131.69C150.54,-128.14 176.45,-124.19 198.92,-120.77"/>
<polygon fill="#9a32cd" stroke="#9a32cd" points="126.37,-128.28 117.01,-133.24 127.42,-135.2 126.37,-128.28"/>
<text text-anchor="middle" x="158" y="-132" font-family="Helvetica,sans-Serif" font-size="10.00"> blocks</text>
</g>
<!-- Node3 -->
<g id="node3" class="node">
<title>Node3</title>
<g id="a_node3"><a xlink:title=" ">
<polygon fill="white" stroke="#bfbfbf" points="203.5,-0.5 203.5,-19.5 311.5,-19.5 311.5,-0.5 203.5,-0.5"/>
<text text-anchor="middle" x="257.5" y="-7.5" font-family="Helvetica,sans-Serif" font-size="10.00">static constexpr auto</text>
</a>
</g>
</g>
<!-- Node3&#45;&gt;Node1 -->
<g id="edge3" class="edge">
<title>Node3&#45;&gt;Node1</title>
<path fill="none" stroke="#9a32cd" stroke-dasharray="5,2" d="M321.85,-14.75C342.82,-17.8 365.92,-22.8 386,-31 411.8,-41.53 437.41,-62.23 451.16,-74.41"/>
<polygon fill="#9a32cd" stroke="#9a32cd" points="322.12,-11.26 311.75,-13.4 321.2,-18.19 322.12,-11.26"/>
<text text-anchor="middle" x="360" y="-34" font-family="Helvetica,sans-Serif" font-size="10.00"> ChunkSize</text>
</g>
<!-- Node4&#45;&gt;Node1 -->
<g id="edge4" class="edge">
<title>Node4&#45;&gt;Node1</title>
<path fill="none" stroke="#9a32cd" stroke-dasharray="5,2" d="M326.31,-102.65C351.41,-99.19 379.6,-95.3 403.73,-91.97"/>
<polygon fill="#9a32cd" stroke="#9a32cd" points="325.56,-99.22 316.13,-104.05 326.51,-106.15 325.56,-99.22"/>
<text text-anchor="middle" x="360" y="-104" font-family="Helvetica,sans-Serif" font-size="10.00"> m_chunks</text>
</g>
<!-- Node5 -->
<g id="node5" class="node">
<title>Node5</title>
<g id="a_node5"><a xlink:title=" ">
<polygon fill="white" stroke="#bfbfbf" points="37,-77.5 37,-96.5 80,-96.5 80,-77.5 37,-77.5"/>
<text text-anchor="middle" x="58.5" y="-84.5" font-family="Helvetica,sans-Serif" font-size="10.00">size_t</text>
</a>
</g>
</g>
<!-- Node5&#45;&gt;Node1 -->
<g id="edge7" class="edge">
<title>Node5&#45;&gt;Node1</title>
<path fill="none" stroke="#9a32cd" stroke-dasharray="5,2" d="M90.22,-81.02C118.39,-75.87 161.32,-68.82 199,-66 250.85,-62.12 264.1,-62.8 316,-66 345.09,-67.79 377.26,-71.58 403.94,-75.22"/>
<polygon fill="#9a32cd" stroke="#9a32cd" points="89.38,-77.62 80.19,-82.9 90.66,-84.5 89.38,-77.62"/>
<text text-anchor="middle" x="257.5" y="-80" font-family="Helvetica,sans-Serif" font-size="10.00"> m_chunkCount</text>
<text text-anchor="middle" x="257.5" y="-69" font-family="Helvetica,sans-Serif" font-size="10.00">m_chunkSpace</text>
</g>
<!-- Node5&#45;&gt;Node4 -->
<g id="edge6" class="edge">
<title>Node5&#45;&gt;Node4</title>
<path fill="none" stroke="#9a32cd" stroke-dasharray="5,2" d="M90.32,-90.29C114.9,-92.98 150.19,-96.98 181,-101 186.78,-101.75 192.8,-102.57 198.81,-103.41"/>
<polygon fill="#9a32cd" stroke="#9a32cd" points="90.48,-86.79 80.16,-89.19 89.72,-93.75 90.48,-86.79"/>
<text text-anchor="middle" x="158" y="-104" font-family="Helvetica,sans-Serif" font-size="10.00"> blockSize</text>
</g>
</g>
</svg>
