<?xml version="1.0" encoding="UTF-8" standalone="no"?>
<!DOCTYPE svg PUBLIC "-//W3C//DTD SVG 1.1//EN"
 "http://www.w3.org/Graphics/SVG/1.1/DTD/svg11.dtd">
<!-- Generated by graphviz version 2.44.1 (20200629.0846)
 -->
<!-- Title: playrho::strongtype::IndexingNamedType&lt; T, Tag &gt; Pages: 1 -->
<svg width="393pt" height="203pt"
 viewBox="0.00 0.00 393.00 203.00" xmlns="http://www.w3.org/2000/svg" xmlns:xlink="http://www.w3.org/1999/xlink">
<g id="graph0" class="graph" transform="scale(1 1) rotate(0) translate(4 199)">
<title>playrho::strongtype::IndexingNamedType&lt; T, Tag &gt;</title>
<polygon fill="white" stroke="transparent" points="-4,4 -4,-199 389,-199 389,4 -4,4"/>
<!-- Node1 -->
<g id="node1" class="node">
<title>Node1</title>
<g id="a_node1"><a xlink:title="An indexable, hashable, named &quot;strong type&quot; template class.">
<polygon fill="#bfbfbf" stroke="black" points="0,-77 0,-118 112,-118 112,-77 0,-77"/>
<text text-anchor="start" x="8" y="-106" font-family="Helvetica,sans-Serif" font-size="10.00">playrho::strongtype</text>
<text text-anchor="start" x="8" y="-95" font-family="Helvetica,sans-Serif" font-size="10.00">::IndexingNamedType</text>
<text text-anchor="middle" x="56" y="-84" font-family="Helvetica,sans-Serif" font-size="10.00">&lt; T, Tag &gt;</text>
</a>
</g>
</g>
<!-- Node2 -->
<g id="node2" class="node">
<title>Node2</title>
<g id="a_node2"><a xlink:href="classplayrho_1_1strongtype_1_1IndexingNamedType.html" target="_top" xlink:title=" ">
<polygon fill="white" stroke="black" points="262.5,-142.5 262.5,-194.5 382.5,-194.5 382.5,-142.5 262.5,-142.5"/>
<text text-anchor="start" x="270.5" y="-182.5" font-family="Helvetica,sans-Serif" font-size="10.00">playrho::strongtype</text>
<text text-anchor="start" x="270.5" y="-171.5" font-family="Helvetica,sans-Serif" font-size="10.00">::IndexingNamedType</text>
<text text-anchor="start" x="270.5" y="-160.5" font-family="Helvetica,sans-Serif" font-size="10.00">&lt; FixtureCounter, struct</text>
<text text-anchor="middle" x="322.5" y="-149.5" font-family="Helvetica,sans-Serif" font-size="10.00"> FixtureIdentifier &gt;</text>
</a>
</g>
</g>
<!-- Node1&#45;&gt;Node2 -->
<g id="edge1" class="edge">
<title>Node1&#45;&gt;Node2</title>
<path fill="none" stroke="orange" stroke-dasharray="5,2" d="M121.72,-120.97C124.51,-121.85 127.28,-122.7 130,-123.5 173.9,-136.43 224.31,-148.15 262.39,-156.39"/>
<polygon fill="orange" stroke="orange" points="122.78,-117.64 112.19,-117.89 120.62,-124.3 122.78,-117.64"/>
<text text-anchor="start" x="132.5" y="-164.5" font-family="Helvetica,sans-Serif" font-size="10.00"> &lt; FixtureCounter, struct</text>
<text text-anchor="middle" x="186" y="-153.5" font-family="Helvetica,sans-Serif" font-size="10.00"> FixtureIdentifier &gt;</text>
</g>
<!-- Node3 -->
<g id="node3" class="node">
<title>Node3</title>
<g id="a_node3"><a xlink:href="classplayrho_1_1strongtype_1_1IndexingNamedType.html" target="_top" xlink:title=" ">
<polygon fill="white" stroke="black" points="260,-71.5 260,-123.5 385,-123.5 385,-71.5 260,-71.5"/>
<text text-anchor="start" x="268" y="-111.5" font-family="Helvetica,sans-Serif" font-size="10.00">playrho::strongtype</text>
<text text-anchor="start" x="268" y="-100.5" font-family="Helvetica,sans-Serif" font-size="10.00">::IndexingNamedType</text>
<text text-anchor="start" x="268" y="-89.5" font-family="Helvetica,sans-Serif" font-size="10.00">&lt; ContactCounter, struct</text>
<text text-anchor="middle" x="322.5" y="-78.5" font-family="Helvetica,sans-Serif" font-size="10.00"> ContactIdentifier &gt;</text>
</a>
</g>
</g>
<!-- Node1&#45;&gt;Node3 -->
<g id="edge2" class="edge">
<title>Node1&#45;&gt;Node3</title>
<path fill="none" stroke="orange" stroke-dasharray="5,2" d="M122.27,-97.5C164.33,-97.5 218.67,-97.5 259.97,-97.5"/>
<polygon fill="orange" stroke="orange" points="122.13,-94 112.13,-97.5 122.13,-101 122.13,-94"/>
<text text-anchor="start" x="130" y="-111.5" font-family="Helvetica,sans-Serif" font-size="10.00"> &lt; ContactCounter, struct</text>
<text text-anchor="middle" x="186" y="-100.5" font-family="Helvetica,sans-Serif" font-size="10.00"> ContactIdentifier &gt;</text>
</g>
<!-- Node4 -->
<g id="node4" class="node">
<title>Node4</title>
<g id="a_node4"><a xlink:href="classplayrho_1_1strongtype_1_1IndexingNamedType.html" target="_top" xlink:title=" ">
<polygon fill="white" stroke="black" points="266,-0.5 266,-52.5 379,-52.5 379,-0.5 266,-0.5"/>
<text text-anchor="start" x="274" y="-40.5" font-family="Helvetica,sans-Serif" font-size="10.00">playrho::strongtype</text>
<text text-anchor="start" x="274" y="-29.5" font-family="Helvetica,sans-Serif" font-size="10.00">::IndexingNamedType</text>
<text text-anchor="start" x="274" y="-18.5" font-family="Helvetica,sans-Serif" font-size="10.00">&lt; BodyCounter, struct</text>
<text text-anchor="middle" x="322.5" y="-7.5" font-family="Helvetica,sans-Serif" font-size="10.00"> BodyIdentifier &gt;</text>
</a>
</g>
</g>
<!-- Node1&#45;&gt;Node4 -->
<g id="edge3" class="edge">
<title>Node1&#45;&gt;Node4</title>
<path fill="none" stroke="orange" stroke-dasharray="5,2" d="M121.72,-74.03C124.51,-73.15 127.28,-72.3 130,-71.5 175.21,-58.18 227.32,-46.15 265.76,-37.88"/>
<polygon fill="orange" stroke="orange" points="120.62,-70.7 112.19,-77.11 122.78,-77.36 120.62,-70.7"/>
<text text-anchor="start" x="136" y="-85.5" font-family="Helvetica,sans-Serif" font-size="10.00"> &lt; BodyCounter, struct</text>
<text text-anchor="middle" x="186" y="-74.5" font-family="Helvetica,sans-Serif" font-size="10.00"> BodyIdentifier &gt;</text>
</g>
</g>
</svg>
