<?xml version="1.0" encoding="UTF-8" standalone="no"?>
<!DOCTYPE svg PUBLIC "-//W3C//DTD SVG 1.1//EN"
 "http://www.w3.org/Graphics/SVG/1.1/DTD/svg11.dtd">
<!-- Generated by graphviz version 2.44.1 (20200629.0846)
 -->
<!-- Title: playrho::OptionalValue&lt; T &gt; Pages: 1 -->
<svg width="146pt" height="95pt"
 viewBox="0.00 0.00 146.00 95.00" xmlns="http://www.w3.org/2000/svg" xmlns:xlink="http://www.w3.org/1999/xlink">
<g id="graph0" class="graph" transform="scale(1 1) rotate(0) translate(4 91)">
<title>playrho::OptionalValue&lt; T &gt;</title>
<polygon fill="white" stroke="transparent" points="-4,4 -4,-91 142,-91 142,4 -4,4"/>
<!-- Node1 -->
<g id="node1" class="node">
<title>Node1</title>
<g id="a_node1"><a xlink:title="Optional value template class.">
<polygon fill="#bfbfbf" stroke="black" points="0,-0.5 0,-19.5 138,-19.5 138,-0.5 0,-0.5"/>
<text text-anchor="middle" x="69" y="-7.5" font-family="Helvetica,sans-Serif" font-size="10.00">playrho::OptionalValue&lt; T &gt;</text>
</a>
</g>
</g>
<!-- Node2 -->
<g id="node2" class="node">
<title>Node2</title>
<g id="a_node2"><a xlink:title=" ">
<polygon fill="white" stroke="#bfbfbf" points="24.5,-67.5 24.5,-86.5 59.5,-86.5 59.5,-67.5 24.5,-67.5"/>
<text text-anchor="middle" x="42" y="-74.5" font-family="Helvetica,sans-Serif" font-size="10.00">bool</text>
</a>
</g>
</g>
<!-- Node2&#45;&gt;Node1 -->
<g id="edge1" class="edge">
<title>Node2&#45;&gt;Node1</title>
<path fill="none" stroke="#9a32cd" stroke-dasharray="5,2" d="M39.82,-57.16C39.78,-50.86 40.52,-43.94 43,-38 46.02,-30.8 51.92,-24.41 57.34,-19.66"/>
<polygon fill="#9a32cd" stroke="#9a32cd" points="36.35,-57.74 40.52,-67.48 43.33,-57.27 36.35,-57.74"/>
<text text-anchor="middle" x="58.5" y="-41" font-family="Helvetica,sans-Serif" font-size="10.00"> m_set</text>
</g>
<!-- Node3 -->
<g id="node3" class="node">
<title>Node3</title>
<g id="a_node3"><a xlink:title=" ">
<polygon fill="white" stroke="#bfbfbf" points="81.5,-67.5 81.5,-86.5 110.5,-86.5 110.5,-67.5 81.5,-67.5"/>
<text text-anchor="middle" x="96" y="-74.5" font-family="Helvetica,sans-Serif" font-size="10.00">T</text>
</a>
</g>
</g>
<!-- Node3&#45;&gt;Node1 -->
<g id="edge2" class="edge">
<title>Node3&#45;&gt;Node1</title>
<path fill="none" stroke="#9a32cd" stroke-dasharray="5,2" d="M88.44,-57.79C83.25,-45.31 76.61,-29.31 72.58,-19.63"/>
<polygon fill="#9a32cd" stroke="#9a32cd" points="85.29,-59.34 92.36,-67.23 91.75,-56.66 85.29,-59.34"/>
<text text-anchor="middle" x="104" y="-41" font-family="Helvetica,sans-Serif" font-size="10.00"> m_value</text>
</g>
</g>
</svg>
