<?xml version="1.0" encoding="UTF-8" standalone="no"?>
<!DOCTYPE svg PUBLIC "-//W3C//DTD SVG 1.1//EN"
 "http://www.w3.org/Graphics/SVG/1.1/DTD/svg11.dtd">
<!-- Generated by graphviz version 2.44.1 (20200629.0846)
 -->
<!-- Title: playrho::d2::World Pages: 1 -->
<svg width="271pt" height="273pt"
 viewBox="0.00 0.00 271.00 273.00" xmlns="http://www.w3.org/2000/svg" xmlns:xlink="http://www.w3.org/1999/xlink">
<g id="graph0" class="graph" transform="scale(1 1) rotate(0) translate(4 269)">
<title>playrho::d2::World</title>
<polygon fill="white" stroke="transparent" points="-4,4 -4,-269 267,-269 267,4 -4,4"/>
<!-- Node1 -->
<g id="node1" class="node">
<title>Node1</title>
<g id="a_node1"><a xlink:title="Definition of an independent and simulatable &quot;world&quot;.">
<polygon fill="#bfbfbf" stroke="black" points="31.5,-0.5 31.5,-19.5 126.5,-19.5 126.5,-0.5 31.5,-0.5"/>
<text text-anchor="middle" x="79" y="-7.5" font-family="Helvetica,sans-Serif" font-size="10.00">playrho::d2::World</text>
</a>
</g>
</g>
<!-- Node2 -->
<g id="node2" class="node">
<title>Node2</title>
<g id="a_node2"><a xlink:href="classplayrho_1_1propagate__const.html" target="_top" xlink:title=" ">
<polygon fill="white" stroke="black" points="0,-67.5 0,-108.5 158,-108.5 158,-67.5 0,-67.5"/>
<text text-anchor="start" x="8" y="-96.5" font-family="Helvetica,sans-Serif" font-size="10.00">playrho::propagate</text>
<text text-anchor="start" x="8" y="-85.5" font-family="Helvetica,sans-Serif" font-size="10.00">_const&lt; std::unique</text>
<text text-anchor="middle" x="79" y="-74.5" font-family="Helvetica,sans-Serif" font-size="10.00">_ptr&lt; playrho::d2::WorldImpl &gt; &gt;</text>
</a>
</g>
</g>
<!-- Node2&#45;&gt;Node1 -->
<g id="edge1" class="edge">
<title>Node2&#45;&gt;Node1</title>
<path fill="none" stroke="#9a32cd" stroke-dasharray="5,2" d="M79,-57.05C79,-43.56 79,-28.65 79,-19.55"/>
<polygon fill="#9a32cd" stroke="#9a32cd" points="75.5,-57.43 79,-67.43 82.5,-57.43 75.5,-57.43"/>
<text text-anchor="middle" x="96.5" y="-41" font-family="Helvetica,sans-Serif" font-size="10.00"> m_impl</text>
</g>
<!-- Node3 -->
<g id="node3" class="node">
<title>Node3</title>
<g id="a_node3"><a xlink:title=" ">
<polygon fill="white" stroke="#bfbfbf" points="11,-167.5 11,-197.5 113,-197.5 113,-167.5 11,-167.5"/>
<text text-anchor="start" x="19" y="-185.5" font-family="Helvetica,sans-Serif" font-size="10.00">unique_ptr&lt; playrho</text>
<text text-anchor="middle" x="62" y="-174.5" font-family="Helvetica,sans-Serif" font-size="10.00">::d2::WorldImpl &gt;</text>
</a>
</g>
</g>
<!-- Node3&#45;&gt;Node2 -->
<g id="edge2" class="edge">
<title>Node3&#45;&gt;Node2</title>
<path fill="none" stroke="#9a32cd" stroke-dasharray="5,2" d="M66.45,-157.28C69.23,-142.14 72.77,-122.88 75.38,-108.68"/>
<polygon fill="#9a32cd" stroke="#9a32cd" points="62.95,-156.98 64.58,-167.45 69.83,-158.25 62.95,-156.98"/>
<text text-anchor="middle" x="78" y="-135.5" font-family="Helvetica,sans-Serif" font-size="10.00"> t_</text>
</g>
<!-- Node4 -->
<g id="node4" class="node">
<title>Node4</title>
<g id="a_node4"><a xlink:href="classplayrho_1_1propagate__const.html" target="_top" xlink:title="Constant propagating template wrapper type.">
<polygon fill="white" stroke="black" points="131.5,-167.5 131.5,-197.5 228.5,-197.5 228.5,-167.5 131.5,-167.5"/>
<text text-anchor="start" x="139.5" y="-185.5" font-family="Helvetica,sans-Serif" font-size="10.00">playrho::propagate</text>
<text text-anchor="middle" x="180" y="-174.5" font-family="Helvetica,sans-Serif" font-size="10.00">_const&lt; T &gt;</text>
</a>
</g>
</g>
<!-- Node4&#45;&gt;Node2 -->
<g id="edge3" class="edge">
<title>Node4&#45;&gt;Node2</title>
<path fill="none" stroke="orange" stroke-dasharray="5,2" d="M156.86,-160.31C139.9,-144.78 117.05,-123.85 100.49,-108.68"/>
<polygon fill="orange" stroke="orange" points="154.92,-163.28 164.66,-167.45 159.65,-158.12 154.92,-163.28"/>
<text text-anchor="start" x="144" y="-141" font-family="Helvetica,sans-Serif" font-size="10.00"> &lt; std::unique_ptr&lt;</text>
<text text-anchor="middle" x="203.5" y="-130" font-family="Helvetica,sans-Serif" font-size="10.00"> playrho::d2::WorldImpl &gt; &gt;</text>
</g>
<!-- Node5 -->
<g id="node5" class="node">
<title>Node5</title>
<g id="a_node5"><a xlink:title=" ">
<polygon fill="white" stroke="#bfbfbf" points="165.5,-245.5 165.5,-264.5 194.5,-264.5 194.5,-245.5 165.5,-245.5"/>
<text text-anchor="middle" x="180" y="-252.5" font-family="Helvetica,sans-Serif" font-size="10.00">T</text>
</a>
</g>
</g>
<!-- Node5&#45;&gt;Node4 -->
<g id="edge4" class="edge">
<title>Node5&#45;&gt;Node4</title>
<path fill="none" stroke="#9a32cd" stroke-dasharray="5,2" d="M180,-235.24C180,-223.41 180,-208.38 180,-197.58"/>
<polygon fill="#9a32cd" stroke="#9a32cd" points="176.5,-235.36 180,-245.36 183.5,-235.36 176.5,-235.36"/>
<text text-anchor="middle" x="186" y="-219" font-family="Helvetica,sans-Serif" font-size="10.00"> t_</text>
</g>
</g>
</svg>
