<?xml version="1.0" encoding="UTF-8" standalone="no"?>
<!DOCTYPE svg PUBLIC "-//W3C//DTD SVG 1.1//EN"
 "http://www.w3.org/Graphics/SVG/1.1/DTD/svg11.dtd">
<!-- Generated by graphviz version 2.40.1 (20161225.0304)
 -->
<!-- Title: playrho::BoundedValue&lt; T, lo, hi &gt; Pages: 1 -->
<svg width="333pt" height="131pt"
 viewBox="0.00 0.00 333.07 131.00" xmlns="http://www.w3.org/2000/svg" xmlns:xlink="http://www.w3.org/1999/xlink">
<g id="graph0" class="graph" transform="scale(1 1) rotate(0) translate(4 127)">
<title>playrho::BoundedValue&lt; T, lo, hi &gt;</title>
<polygon fill="#ffffff" stroke="transparent" points="-4,4 -4,-127 329.0654,-127 329.0654,4 -4,4"/>
<!-- Node0 -->
<g id="node1" class="node">
<title>Node0</title>
<polygon fill="#bfbfbf" stroke="#000000" points="0,-47.5 0,-75.5 119.2324,-75.5 119.2324,-47.5 0,-47.5"/>
<text text-anchor="start" x="8" y="-63.5" font-family="Helvetica,sans-Serif" font-size="10.00" fill="#000000">playrho::BoundedValue</text>
<text text-anchor="middle" x="59.6162" y="-53.5" font-family="Helvetica,sans-Serif" font-size="10.00" fill="#000000">&lt; T, lo, hi &gt;</text>
</g>
<!-- Node1 -->
<g id="node2" class="node">
<title>Node1</title>
<g id="a_node2"><a xlink:href="classplayrho_1_1BoundedValue.html" target="_top" xlink:title="playrho::BoundedValue\l\&lt; Length \&gt;">
<polygon fill="#ffffff" stroke="#000000" points="205.833,-94.5 205.833,-122.5 325.0654,-122.5 325.0654,-94.5 205.833,-94.5"/>
<text text-anchor="start" x="213.833" y="-110.5" font-family="Helvetica,sans-Serif" font-size="10.00" fill="#000000">playrho::BoundedValue</text>
<text text-anchor="middle" x="265.4492" y="-100.5" font-family="Helvetica,sans-Serif" font-size="10.00" fill="#000000">&lt; Length &gt;</text>
</a>
</g>
</g>
<!-- Node0&#45;&gt;Node1 -->
<g id="edge1" class="edge">
<title>Node0&#45;&gt;Node1</title>
<path fill="none" stroke="#ffa500" stroke-dasharray="5,2" d="M129.4559,-77.4472C154.1499,-83.0859 181.6867,-89.3736 205.4881,-94.8085"/>
<polygon fill="#ffa500" stroke="#ffa500" points="129.9564,-73.9715 119.4281,-75.1575 128.398,-80.7958 129.9564,-73.9715"/>
<text text-anchor="middle" x="162.5327" y="-92.5" font-family="Helvetica,sans-Serif" font-size="10.00" fill="#000000"> &lt; Length &gt;</text>
</g>
<!-- Node2 -->
<g id="node3" class="node">
<title>Node2</title>
<g id="a_node3"><a xlink:href="classplayrho_1_1BoundedValue.html" target="_top" xlink:title="playrho::BoundedValue\l\&lt; Real \&gt;">
<polygon fill="#ffffff" stroke="#000000" points="205.833,-47.5 205.833,-75.5 325.0654,-75.5 325.0654,-47.5 205.833,-47.5"/>
<text text-anchor="start" x="213.833" y="-63.5" font-family="Helvetica,sans-Serif" font-size="10.00" fill="#000000">playrho::BoundedValue</text>
<text text-anchor="middle" x="265.4492" y="-53.5" font-family="Helvetica,sans-Serif" font-size="10.00" fill="#000000">&lt; Real &gt;</text>
</a>
</g>
</g>
<!-- Node0&#45;&gt;Node2 -->
<g id="edge2" class="edge">
<title>Node0&#45;&gt;Node2</title>
<path fill="none" stroke="#ffa500" stroke-dasharray="5,2" d="M129.4559,-61.5C154.1499,-61.5 181.6867,-61.5 205.4881,-61.5"/>
<polygon fill="#ffa500" stroke="#ffa500" points="129.4282,-58.0001 119.4281,-61.5 129.4281,-65.0001 129.4282,-58.0001"/>
<text text-anchor="middle" x="162.5327" y="-63.5" font-family="Helvetica,sans-Serif" font-size="10.00" fill="#000000"> &lt; Real &gt;</text>
</g>
<!-- Node3 -->
<g id="node4" class="node">
<title>Node3</title>
<g id="a_node4"><a xlink:href="classplayrho_1_1BoundedValue.html" target="_top" xlink:title="playrho::BoundedValue\l\&lt; Angle \&gt;">
<polygon fill="#ffffff" stroke="#000000" points="205.833,-.5 205.833,-28.5 325.0654,-28.5 325.0654,-.5 205.833,-.5"/>
<text text-anchor="start" x="213.833" y="-16.5" font-family="Helvetica,sans-Serif" font-size="10.00" fill="#000000">playrho::BoundedValue</text>
<text text-anchor="middle" x="265.4492" y="-6.5" font-family="Helvetica,sans-Serif" font-size="10.00" fill="#000000">&lt; Angle &gt;</text>
</a>
</g>
</g>
<!-- Node0&#45;&gt;Node3 -->
<g id="edge3" class="edge">
<title>Node0&#45;&gt;Node3</title>
<path fill="none" stroke="#ffa500" stroke-dasharray="5,2" d="M129.4559,-45.5528C154.1499,-39.9141 181.6867,-33.6264 205.4881,-28.1915"/>
<polygon fill="#ffa500" stroke="#ffa500" points="128.398,-42.2042 119.4281,-47.8425 129.9564,-49.0285 128.398,-42.2042"/>
<text text-anchor="middle" x="162.5327" y="-45.5" font-family="Helvetica,sans-Serif" font-size="10.00" fill="#000000"> &lt; Angle &gt;</text>
</g>
</g>
</svg>
