<?xml version="1.0" encoding="UTF-8" standalone="no"?>
<!DOCTYPE svg PUBLIC "-//W3C//DTD SVG 1.1//EN"
 "http://www.w3.org/Graphics/SVG/1.1/DTD/svg11.dtd">
<!-- Generated by graphviz version 2.44.1 (20200629.0846)
 -->
<!-- Title: std::tuple_size&lt; playrho::ArrayList&lt; T, N, SIZE_TYPE &gt; &gt; Pages: 1 -->
<svg width="129pt" height="117pt"
 viewBox="0.00 0.00 129.00 117.00" xmlns="http://www.w3.org/2000/svg" xmlns:xlink="http://www.w3.org/1999/xlink">
<g id="graph0" class="graph" transform="scale(1 1) rotate(0) translate(4 113)">
<title>std::tuple_size&lt; playrho::ArrayList&lt; T, N, SIZE_TYPE &gt; &gt;</title>
<polygon fill="white" stroke="transparent" points="-4,4 -4,-113 125,-113 125,4 -4,4"/>
<!-- Node1 -->
<g id="node1" class="node">
<title>Node1</title>
<g id="a_node1"><a xlink:title="Tuple size specialization for ArrayList classes.">
<polygon fill="#bfbfbf" stroke="black" points="0,-0.5 0,-41.5 121,-41.5 121,-0.5 0,-0.5"/>
<text text-anchor="start" x="8" y="-29.5" font-family="Helvetica,sans-Serif" font-size="10.00">std::tuple_size&lt; playrho</text>
<text text-anchor="start" x="8" y="-18.5" font-family="Helvetica,sans-Serif" font-size="10.00">::ArrayList&lt; T, N, SIZE</text>
<text text-anchor="middle" x="60.5" y="-7.5" font-family="Helvetica,sans-Serif" font-size="10.00">_TYPE &gt; &gt;</text>
</a>
</g>
</g>
<!-- Node2 -->
<g id="node2" class="node">
<title>Node2</title>
<g id="a_node2"><a xlink:title=" ">
<polygon fill="white" stroke="#bfbfbf" points="5.5,-78.5 5.5,-108.5 115.5,-108.5 115.5,-78.5 5.5,-78.5"/>
<text text-anchor="start" x="13.5" y="-96.5" font-family="Helvetica,sans-Serif" font-size="10.00">std::integral_constant</text>
<text text-anchor="middle" x="60.5" y="-85.5" font-family="Helvetica,sans-Serif" font-size="10.00">&lt; std::size_t, N &gt;</text>
</a>
</g>
</g>
<!-- Node2&#45;&gt;Node1 -->
<g id="edge1" class="edge">
<title>Node2&#45;&gt;Node1</title>
<path fill="none" stroke="midnightblue" d="M60.5,-67.98C60.5,-59.35 60.5,-49.76 60.5,-41.59"/>
<polygon fill="midnightblue" stroke="midnightblue" points="57,-68.23 60.5,-78.23 64,-68.23 57,-68.23"/>
</g>
</g>
</svg>
