<?xml version="1.0" encoding="UTF-8" standalone="no"?>
<!DOCTYPE svg PUBLIC "-//W3C//DTD SVG 1.1//EN"
 "http://www.w3.org/Graphics/SVG/1.1/DTD/svg11.dtd">
<!-- Generated by graphviz version 2.44.1 (20200629.0846)
 -->
<!-- Title: playrho::d2::Body Pages: 1 -->
<svg width="1275pt" height="435pt"
 viewBox="0.00 0.00 1275.00 435.32" xmlns="http://www.w3.org/2000/svg" xmlns:xlink="http://www.w3.org/1999/xlink">
<g id="graph0" class="graph" transform="scale(1 1) rotate(0) translate(4 431.32)">
<title>playrho::d2::Body</title>
<polygon fill="white" stroke="transparent" points="-4,4 -4,-431.32 1271,-431.32 1271,4 -4,4"/>
<!-- Node1 -->
<g id="node1" class="node">
<title>Node1</title>
<g id="a_node1"><a xlink:title="Physical entity that exists within a World.">
<polygon fill="#bfbfbf" stroke="black" points="1174,-205.82 1174,-224.82 1267,-224.82 1267,-205.82 1174,-205.82"/>
<text text-anchor="middle" x="1220.5" y="-212.82" font-family="Helvetica,sans-Serif" font-size="10.00">playrho::d2::Body</text>
</a>
</g>
</g>
<!-- Node2 -->
<g id="node2" class="node">
<title>Node2</title>
<g id="a_node2"><a xlink:title=" ">
<polygon fill="white" stroke="#bfbfbf" points="912,-399.82 912,-418.82 1021,-418.82 1021,-399.82 912,-399.82"/>
<text text-anchor="middle" x="966.5" y="-406.82" font-family="Helvetica,sans-Serif" font-size="10.00">angular_acceleration)</text>
</a>
</g>
</g>
<!-- Node2&#45;&gt;Node1 -->
<g id="edge1" class="edge">
<title>Node2&#45;&gt;Node1</title>
<path fill="none" stroke="#9a32cd" stroke-dasharray="5,2" d="M1031.24,-416.85C1071.1,-418.08 1121.27,-412.83 1156,-385.32 1208.35,-343.84 1217.54,-254.47 1219.16,-224.98"/>
<polygon fill="#9a32cd" stroke="#9a32cd" points="1031.24,-413.35 1021.09,-416.4 1030.92,-420.34 1031.24,-413.35"/>
<text text-anchor="middle" x="1104.5" y="-419.32" font-family="Helvetica,sans-Serif" font-size="10.00"> m_angularAcceleration</text>
</g>
<!-- Node3 -->
<g id="node3" class="node">
<title>Node3</title>
<g id="a_node3"><a xlink:href="structplayrho_1_1Vector.html" target="_top" xlink:title=" ">
<polygon fill="white" stroke="black" points="374.5,-367.82 374.5,-386.82 536.5,-386.82 536.5,-367.82 374.5,-367.82"/>
<text text-anchor="middle" x="455.5" y="-374.82" font-family="Helvetica,sans-Serif" font-size="10.00">playrho::Vector&lt; LinearVelocity &gt;</text>
</a>
</g>
</g>
<!-- Node3&#45;&gt;Node1 -->
<g id="edge2" class="edge">
<title>Node3&#45;&gt;Node1</title>
<path fill="none" stroke="#9a32cd" stroke-dasharray="5,2" d="M546.69,-377.97C724.25,-378.53 1106.26,-375.87 1156,-343.32 1198.76,-315.34 1213.82,-249.5 1218.07,-224.85"/>
<polygon fill="#9a32cd" stroke="#9a32cd" points="546.6,-374.47 536.59,-377.93 546.57,-381.47 546.6,-374.47"/>
<text text-anchor="middle" x="833" y="-378.32" font-family="Helvetica,sans-Serif" font-size="10.00"> m_linearVelocity</text>
</g>
<!-- Node4 -->
<g id="node4" class="node">
<title>Node4</title>
<g id="a_node4"><a xlink:title=" ">
<polygon fill="white" stroke="#bfbfbf" points="128.5,-367.82 128.5,-386.82 206.5,-386.82 206.5,-367.82 128.5,-367.82"/>
<text text-anchor="middle" x="167.5" y="-374.82" font-family="Helvetica,sans-Serif" font-size="10.00">LinearVelocity</text>
</a>
</g>
</g>
<!-- Node4&#45;&gt;Node3 -->
<g id="edge3" class="edge">
<title>Node4&#45;&gt;Node3</title>
<path fill="none" stroke="#9a32cd" stroke-dasharray="5,2" d="M216.97,-377.32C259.98,-377.32 323.66,-377.32 374.26,-377.32"/>
<polygon fill="#9a32cd" stroke="#9a32cd" points="216.77,-373.82 206.77,-377.32 216.77,-380.82 216.77,-373.82"/>
<text text-anchor="middle" x="296" y="-380.32" font-family="Helvetica,sans-Serif" font-size="10.00"> elements</text>
</g>
<!-- Node5 -->
<g id="node5" class="node">
<title>Node5</title>
<g id="a_node5"><a xlink:href="structplayrho_1_1Vector.html" target="_top" xlink:title="Vector.">
<polygon fill="white" stroke="black" points="108,-283.82 108,-302.82 227,-302.82 227,-283.82 108,-283.82"/>
<text text-anchor="middle" x="167.5" y="-290.82" font-family="Helvetica,sans-Serif" font-size="10.00">playrho::Vector&lt; T, N &gt;</text>
</a>
</g>
</g>
<!-- Node5&#45;&gt;Node3 -->
<g id="edge4" class="edge">
<title>Node5&#45;&gt;Node3</title>
<path fill="none" stroke="orange" stroke-dasharray="5,2" d="M203.88,-306.33C242.95,-320.39 307.89,-342.86 365,-358.32 377.73,-361.76 391.61,-364.97 404.56,-367.73"/>
<polygon fill="orange" stroke="orange" points="204.88,-302.97 194.29,-302.86 202.5,-309.55 204.88,-302.97"/>
<text text-anchor="middle" x="296" y="-354.32" font-family="Helvetica,sans-Serif" font-size="10.00"> &lt; LinearVelocity &gt;</text>
</g>
<!-- Node9 -->
<g id="node9" class="node">
<title>Node9</title>
<g id="a_node9"><a xlink:href="structplayrho_1_1Vector.html" target="_top" xlink:title=" ">
<polygon fill="white" stroke="black" points="390.5,-276.82 390.5,-295.82 520.5,-295.82 520.5,-276.82 390.5,-276.82"/>
<text text-anchor="middle" x="455.5" y="-283.82" font-family="Helvetica,sans-Serif" font-size="10.00">playrho::Vector&lt; Length &gt;</text>
</a>
</g>
</g>
<!-- Node5&#45;&gt;Node9 -->
<g id="edge10" class="edge">
<title>Node5&#45;&gt;Node9</title>
<path fill="none" stroke="orange" stroke-dasharray="5,2" d="M237.35,-291.63C283.85,-290.49 344.8,-289 390.29,-287.89"/>
<polygon fill="orange" stroke="orange" points="236.98,-288.14 227.07,-291.88 237.15,-295.14 236.98,-288.14"/>
<text text-anchor="middle" x="296" y="-294.32" font-family="Helvetica,sans-Serif" font-size="10.00"> &lt; Length &gt;</text>
</g>
<!-- Node13 -->
<g id="node13" class="node">
<title>Node13</title>
<g id="a_node13"><a xlink:href="structplayrho_1_1Vector.html" target="_top" xlink:title=" ">
<polygon fill="white" stroke="black" points="365,-110.82 365,-129.82 546,-129.82 546,-110.82 365,-110.82"/>
<text text-anchor="middle" x="455.5" y="-117.82" font-family="Helvetica,sans-Serif" font-size="10.00">playrho::Vector&lt; LinearAcceleration &gt;</text>
</a>
</g>
</g>
<!-- Node5&#45;&gt;Node13 -->
<g id="edge15" class="edge">
<title>Node5&#45;&gt;Node13</title>
<path fill="none" stroke="orange" stroke-dasharray="5,2" d="M215.73,-281.1C265.47,-267.84 337.85,-247.22 347,-237.32 371.43,-210.85 341.89,-185.94 365,-158.32 376.59,-144.46 394.13,-135.55 410.61,-129.87"/>
<polygon fill="orange" stroke="orange" points="214.57,-277.79 205.8,-283.74 216.36,-284.56 214.57,-277.79"/>
<text text-anchor="middle" x="296" y="-275.32" font-family="Helvetica,sans-Serif" font-size="10.00"> &lt; LinearAcceleration &gt;</text>
</g>
<!-- Node6 -->
<g id="node6" class="node">
<title>Node6</title>
<g id="a_node6"><a xlink:title=" ">
<polygon fill="white" stroke="#bfbfbf" points="0,-283.82 0,-302.82 29,-302.82 29,-283.82 0,-283.82"/>
<text text-anchor="middle" x="14.5" y="-290.82" font-family="Helvetica,sans-Serif" font-size="10.00">T</text>
</a>
</g>
</g>
<!-- Node6&#45;&gt;Node5 -->
<g id="edge5" class="edge">
<title>Node6&#45;&gt;Node5</title>
<path fill="none" stroke="#9a32cd" stroke-dasharray="5,2" d="M39.27,-293.32C57.68,-293.32 83.99,-293.32 107.92,-293.32"/>
<polygon fill="#9a32cd" stroke="#9a32cd" points="39.17,-289.82 29.17,-293.32 39.17,-296.82 39.17,-289.82"/>
<text text-anchor="middle" x="68.5" y="-296.32" font-family="Helvetica,sans-Serif" font-size="10.00"> elements</text>
</g>
<!-- Node7 -->
<g id="node7" class="node">
<title>Node7</title>
<g id="a_node7"><a xlink:title=" ">
<polygon fill="white" stroke="#bfbfbf" points="941,-319.82 941,-338.82 992,-338.82 992,-319.82 941,-319.82"/>
<text text-anchor="middle" x="966.5" y="-326.82" font-family="Helvetica,sans-Serif" font-size="10.00">uint16_t</text>
</a>
</g>
</g>
<!-- Node7&#45;&gt;Node1 -->
<g id="edge6" class="edge">
<title>Node7&#45;&gt;Node1</title>
<path fill="none" stroke="#9a32cd" stroke-dasharray="5,2" d="M1002.08,-331.01C1041.98,-331.37 1108.22,-326.98 1156,-298.32 1185.87,-280.39 1206.65,-242.67 1215.18,-224.92"/>
<polygon fill="#9a32cd" stroke="#9a32cd" points="1002.11,-327.51 992.05,-330.81 1001.97,-334.5 1002.11,-327.51"/>
<text text-anchor="middle" x="1104.5" y="-331.32" font-family="Helvetica,sans-Serif" font-size="10.00"> m_flags</text>
</g>
<!-- Node8 -->
<g id="node8" class="node">
<title>Node8</title>
<g id="a_node8"><a xlink:href="structplayrho_1_1d2_1_1Transformation.html" target="_top" xlink:title="Describes a geometric transformation.">
<polygon fill="white" stroke="black" points="898.5,-243.82 898.5,-262.82 1034.5,-262.82 1034.5,-243.82 898.5,-243.82"/>
<text text-anchor="middle" x="966.5" y="-250.82" font-family="Helvetica,sans-Serif" font-size="10.00">playrho::d2::Transformation</text>
</a>
</g>
</g>
<!-- Node8&#45;&gt;Node1 -->
<g id="edge7" class="edge">
<title>Node8&#45;&gt;Node1</title>
<path fill="none" stroke="#9a32cd" stroke-dasharray="5,2" d="M1045.26,-245.02C1079.35,-240.97 1119.77,-235.6 1156,-229.32 1163.45,-228.02 1171.35,-226.45 1178.96,-224.83"/>
<polygon fill="#9a32cd" stroke="#9a32cd" points="1044.42,-241.59 1034.9,-246.23 1045.24,-248.54 1044.42,-241.59"/>
<text text-anchor="middle" x="1104.5" y="-246.32" font-family="Helvetica,sans-Serif" font-size="10.00"> m_xf</text>
</g>
<!-- Node9&#45;&gt;Node8 -->
<g id="edge8" class="edge">
<title>Node9&#45;&gt;Node8</title>
<path fill="none" stroke="#9a32cd" stroke-dasharray="5,2" d="M508.74,-274.69C541.86,-267.89 585.72,-259.96 625,-256.32 719.62,-247.54 829.67,-248.6 898.46,-250.61"/>
<polygon fill="#9a32cd" stroke="#9a32cd" points="507.9,-271.29 498.82,-276.75 509.33,-278.14 507.9,-271.29"/>
<text text-anchor="middle" x="696.5" y="-259.32" font-family="Helvetica,sans-Serif" font-size="10.00"> p</text>
</g>
<!-- Node18 -->
<g id="node18" class="node">
<title>Node18</title>
<g id="a_node18"><a xlink:href="classplayrho_1_1d2_1_1Sweep.html" target="_top" xlink:title="Description of a &quot;sweep&quot; of motion in 2&#45;D space.">
<polygon fill="white" stroke="black" points="916,-281.82 916,-300.82 1017,-300.82 1017,-281.82 916,-281.82"/>
<text text-anchor="middle" x="966.5" y="-288.82" font-family="Helvetica,sans-Serif" font-size="10.00">playrho::d2::Sweep</text>
</a>
</g>
</g>
<!-- Node9&#45;&gt;Node18 -->
<g id="edge20" class="edge">
<title>Node9&#45;&gt;Node18</title>
<path fill="none" stroke="#9a32cd" stroke-dasharray="5,2" d="M513.79,-297.64C595.42,-312.11 749.78,-333.25 880,-315.32 880.35,-315.27 907.73,-307.57 931.41,-300.91"/>
<polygon fill="#9a32cd" stroke="#9a32cd" points="514.18,-294.16 503.72,-295.83 512.94,-301.05 514.18,-294.16"/>
<text text-anchor="middle" x="696.5" y="-324.32" font-family="Helvetica,sans-Serif" font-size="10.00"> localCenter</text>
</g>
<!-- Node19 -->
<g id="node19" class="node">
<title>Node19</title>
<g id="a_node19"><a xlink:href="structplayrho_1_1d2_1_1Position.html" target="_top" xlink:title="2&#45;D positional data structure.">
<polygon fill="white" stroke="black" points="643.5,-276.82 643.5,-295.82 749.5,-295.82 749.5,-276.82 643.5,-276.82"/>
<text text-anchor="middle" x="696.5" y="-283.82" font-family="Helvetica,sans-Serif" font-size="10.00">playrho::d2::Position</text>
</a>
</g>
</g>
<!-- Node9&#45;&gt;Node19 -->
<g id="edge22" class="edge">
<title>Node9&#45;&gt;Node19</title>
<path fill="none" stroke="#9a32cd" stroke-dasharray="5,2" d="M530.66,-286.32C567.19,-286.32 610.36,-286.32 643.36,-286.32"/>
<polygon fill="#9a32cd" stroke="#9a32cd" points="530.55,-282.82 520.55,-286.32 530.55,-289.82 530.55,-282.82"/>
<text text-anchor="middle" x="585.5" y="-289.32" font-family="Helvetica,sans-Serif" font-size="10.00"> linear</text>
</g>
<!-- Node10 -->
<g id="node10" class="node">
<title>Node10</title>
<g id="a_node10"><a xlink:title=" ">
<polygon fill="white" stroke="#bfbfbf" points="144.5,-215.82 144.5,-234.82 190.5,-234.82 190.5,-215.82 144.5,-215.82"/>
<text text-anchor="middle" x="167.5" y="-222.82" font-family="Helvetica,sans-Serif" font-size="10.00">Length</text>
</a>
</g>
</g>
<!-- Node10&#45;&gt;Node9 -->
<g id="edge9" class="edge">
<title>Node10&#45;&gt;Node9</title>
<path fill="none" stroke="#9a32cd" stroke-dasharray="5,2" d="M200.66,-220.75C236.89,-216.69 297.22,-213.21 347,-226.32 384.62,-236.22 423.08,-262.37 442.18,-276.66"/>
<polygon fill="#9a32cd" stroke="#9a32cd" points="200.18,-217.29 190.67,-221.96 201.01,-224.23 200.18,-217.29"/>
<text text-anchor="middle" x="296" y="-229.32" font-family="Helvetica,sans-Serif" font-size="10.00"> elements</text>
</g>
<!-- Node11 -->
<g id="node11" class="node">
<title>Node11</title>
<g id="a_node11"><a xlink:href="classplayrho_1_1d2_1_1UnitVec.html" target="_top" xlink:title="2&#45;D unit vector.">
<polygon fill="white" stroke="black" points="643.5,-144.82 643.5,-163.82 749.5,-163.82 749.5,-144.82 643.5,-144.82"/>
<text text-anchor="middle" x="696.5" y="-151.82" font-family="Helvetica,sans-Serif" font-size="10.00">playrho::d2::UnitVec</text>
</a>
</g>
</g>
<!-- Node11&#45;&gt;Node8 -->
<g id="edge11" class="edge">
<title>Node11&#45;&gt;Node8</title>
<path fill="none" stroke="#9a32cd" stroke-dasharray="5,2" d="M759.95,-145.44C798.69,-143.49 847.16,-147.96 880,-175.32 901.06,-192.86 878.4,-215.14 898,-234.32 901.92,-238.15 906.54,-241.22 911.5,-243.68"/>
<polygon fill="#9a32cd" stroke="#9a32cd" points="759.56,-141.96 749.81,-146.11 760.02,-148.94 759.56,-141.96"/>
<text text-anchor="middle" x="833" y="-178.32" font-family="Helvetica,sans-Serif" font-size="10.00"> q</text>
</g>
<!-- Node12 -->
<g id="node12" class="node">
<title>Node12</title>
<g id="a_node12"><a xlink:title=" ">
<polygon fill="white" stroke="#bfbfbf" points="438,-167.82 438,-186.82 473,-186.82 473,-167.82 438,-167.82"/>
<text text-anchor="middle" x="455.5" y="-174.82" font-family="Helvetica,sans-Serif" font-size="10.00">float</text>
</a>
</g>
</g>
<!-- Node12&#45;&gt;Node11 -->
<g id="edge12" class="edge">
<title>Node12&#45;&gt;Node11</title>
<path fill="none" stroke="#9a32cd" stroke-dasharray="5,2" d="M483.74,-174.69C522.39,-170.98 593.9,-164.09 643.04,-159.36"/>
<polygon fill="#9a32cd" stroke="#9a32cd" points="482.92,-171.26 473.31,-175.7 483.6,-178.22 482.92,-171.26"/>
<text text-anchor="middle" x="585.5" y="-169.32" font-family="Helvetica,sans-Serif" font-size="10.00"> m_elems</text>
</g>
<!-- Node12&#45;&gt;Node18 -->
<g id="edge24" class="edge">
<title>Node12&#45;&gt;Node18</title>
<path fill="none" stroke="#9a32cd" stroke-dasharray="5,2" d="M483.31,-181.26C537.47,-189.45 663.65,-209.59 768,-234.32 826.57,-248.2 840.14,-255.72 898,-272.32 908.88,-275.44 920.77,-278.8 931.49,-281.81"/>
<polygon fill="#9a32cd" stroke="#9a32cd" points="483.58,-177.77 473.17,-179.74 482.54,-184.69 483.58,-177.77"/>
<text text-anchor="middle" x="696.5" y="-237.32" font-family="Helvetica,sans-Serif" font-size="10.00"> alpha0</text>
</g>
<!-- Node13&#45;&gt;Node1 -->
<g id="edge13" class="edge">
<title>Node13&#45;&gt;Node1</title>
<path fill="none" stroke="#9a32cd" stroke-dasharray="5,2" d="M556.63,-115.11C672.15,-110.32 867.69,-105.9 1035,-120.32 1089.38,-125 1108.54,-114.35 1156,-141.32 1183.67,-157.04 1204.95,-189.58 1214.3,-205.75"/>
<polygon fill="#9a32cd" stroke="#9a32cd" points="556.23,-111.63 546.39,-115.55 556.53,-118.62 556.23,-111.63"/>
<text text-anchor="middle" x="833" y="-114.32" font-family="Helvetica,sans-Serif" font-size="10.00"> m_linearAcceleration</text>
</g>
<!-- Node14 -->
<g id="node14" class="node">
<title>Node14</title>
<g id="a_node14"><a xlink:title=" ">
<polygon fill="white" stroke="#bfbfbf" points="119,-110.82 119,-129.82 216,-129.82 216,-110.82 119,-110.82"/>
<text text-anchor="middle" x="167.5" y="-117.82" font-family="Helvetica,sans-Serif" font-size="10.00">LinearAcceleration</text>
</a>
</g>
</g>
<!-- Node14&#45;&gt;Node13 -->
<g id="edge14" class="edge">
<title>Node14&#45;&gt;Node13</title>
<path fill="none" stroke="#9a32cd" stroke-dasharray="5,2" d="M226.11,-120.32C265.88,-120.32 319.57,-120.32 364.9,-120.32"/>
<polygon fill="#9a32cd" stroke="#9a32cd" points="226.05,-116.82 216.05,-120.32 226.05,-123.82 226.05,-116.82"/>
<text text-anchor="middle" x="296" y="-123.32" font-family="Helvetica,sans-Serif" font-size="10.00"> elements</text>
</g>
<!-- Node15 -->
<g id="node15" class="node">
<title>Node15</title>
<g id="a_node15"><a xlink:title=" ">
<polygon fill="white" stroke="#bfbfbf" points="926.5,-205.82 926.5,-224.82 1006.5,-224.82 1006.5,-205.82 926.5,-205.82"/>
<text text-anchor="middle" x="966.5" y="-212.82" font-family="Helvetica,sans-Serif" font-size="10.00">inverse_mass)</text>
</a>
</g>
</g>
<!-- Node15&#45;&gt;Node1 -->
<g id="edge16" class="edge">
<title>Node15&#45;&gt;Node1</title>
<path fill="none" stroke="#9a32cd" stroke-dasharray="5,2" d="M1016.83,-215.32C1062.41,-215.32 1129.56,-215.32 1173.91,-215.32"/>
<polygon fill="#9a32cd" stroke="#9a32cd" points="1016.6,-211.82 1006.6,-215.32 1016.6,-218.82 1016.6,-211.82"/>
<text text-anchor="middle" x="1104.5" y="-218.32" font-family="Helvetica,sans-Serif" font-size="10.00"> m_invMass</text>
</g>
<!-- Node16 -->
<g id="node16" class="node">
<title>Node16</title>
<g id="a_node16"><a xlink:title=" ">
<polygon fill="white" stroke="#bfbfbf" points="947.5,-167.82 947.5,-186.82 985.5,-186.82 985.5,-167.82 947.5,-167.82"/>
<text text-anchor="middle" x="966.5" y="-174.82" font-family="Helvetica,sans-Serif" font-size="10.00">time)</text>
</a>
</g>
</g>
<!-- Node16&#45;&gt;Node1 -->
<g id="edge17" class="edge">
<title>Node16&#45;&gt;Node1</title>
<path fill="none" stroke="#9a32cd" stroke-dasharray="5,2" d="M995.56,-179.76C1032.51,-183.21 1099.43,-190.22 1156,-200.32 1164.48,-201.83 1173.51,-203.77 1182.04,-205.74"/>
<polygon fill="#9a32cd" stroke="#9a32cd" points="995.81,-176.27 985.53,-178.85 995.17,-183.24 995.81,-176.27"/>
<text text-anchor="middle" x="1104.5" y="-203.32" font-family="Helvetica,sans-Serif" font-size="10.00"> m_underActiveTime</text>
</g>
<!-- Node17 -->
<g id="node17" class="node">
<title>Node17</title>
<g id="a_node17"><a xlink:title=" ">
<polygon fill="white" stroke="#bfbfbf" points="921.5,-129.82 921.5,-148.82 1011.5,-148.82 1011.5,-129.82 921.5,-129.82"/>
<text text-anchor="middle" x="966.5" y="-136.82" font-family="Helvetica,sans-Serif" font-size="10.00">angular_velocity)</text>
</a>
</g>
</g>
<!-- Node17&#45;&gt;Node1 -->
<g id="edge18" class="edge">
<title>Node17&#45;&gt;Node1</title>
<path fill="none" stroke="#9a32cd" stroke-dasharray="5,2" d="M1021.71,-141.74C1060.37,-145.01 1112.91,-152.62 1156,-170.32 1176.75,-178.84 1197.29,-195.23 1209.17,-205.7"/>
<polygon fill="#9a32cd" stroke="#9a32cd" points="1021.93,-138.25 1011.69,-140.97 1021.39,-145.23 1021.93,-138.25"/>
<text text-anchor="middle" x="1104.5" y="-173.32" font-family="Helvetica,sans-Serif" font-size="10.00"> m_angularVelocity</text>
</g>
<!-- Node18&#45;&gt;Node1 -->
<g id="edge19" class="edge">
<title>Node18&#45;&gt;Node1</title>
<path fill="none" stroke="#9a32cd" stroke-dasharray="5,2" d="M1027.47,-287.3C1065.42,-283.2 1114.9,-274.94 1156,-258.32 1176,-250.23 1196.11,-235.16 1208.19,-225.18"/>
<polygon fill="#9a32cd" stroke="#9a32cd" points="1026.69,-283.86 1017.09,-288.35 1027.39,-290.82 1026.69,-283.86"/>
<text text-anchor="middle" x="1104.5" y="-286.32" font-family="Helvetica,sans-Serif" font-size="10.00"> m_sweep</text>
</g>
<!-- Node19&#45;&gt;Node18 -->
<g id="edge21" class="edge">
<title>Node19&#45;&gt;Node18</title>
<path fill="none" stroke="#9a32cd" stroke-dasharray="5,2" d="M759.95,-287.48C807.33,-288.36 871.6,-289.56 915.59,-290.38"/>
<polygon fill="#9a32cd" stroke="#9a32cd" points="759.87,-283.98 749.81,-287.29 759.74,-290.98 759.87,-283.98"/>
<text text-anchor="middle" x="833" y="-303.32" font-family="Helvetica,sans-Serif" font-size="10.00"> pos0</text>
<text text-anchor="middle" x="833" y="-292.32" font-family="Helvetica,sans-Serif" font-size="10.00">pos1</text>
</g>
<!-- Node20 -->
<g id="node20" class="node">
<title>Node20</title>
<g id="a_node20"><a xlink:title=" ">
<polygon fill="white" stroke="#bfbfbf" points="420,-329.82 420,-348.82 491,-348.82 491,-329.82 420,-329.82"/>
<text text-anchor="middle" x="455.5" y="-336.82" font-family="Helvetica,sans-Serif" font-size="10.00">plane_angle)</text>
</a>
</g>
</g>
<!-- Node20&#45;&gt;Node19 -->
<g id="edge23" class="edge">
<title>Node20&#45;&gt;Node19</title>
<path fill="none" stroke="#9a32cd" stroke-dasharray="5,2" d="M501.23,-329.4C544.59,-319.78 609.9,-305.3 652.62,-295.82"/>
<polygon fill="#9a32cd" stroke="#9a32cd" points="500.26,-326.03 491.25,-331.61 501.77,-332.86 500.26,-326.03"/>
<text text-anchor="middle" x="585.5" y="-317.32" font-family="Helvetica,sans-Serif" font-size="10.00"> angular</text>
</g>
<!-- Node21 -->
<g id="node21" class="node">
<title>Node21</title>
<g id="a_node21"><a xlink:href="classplayrho_1_1CheckedValue.html" target="_top" xlink:title=" ">
<polygon fill="white" stroke="black" points="908,-42.32 908,-72.32 1025,-72.32 1025,-42.32 908,-42.32"/>
<text text-anchor="start" x="916" y="-60.32" font-family="Helvetica,sans-Serif" font-size="10.00">playrho::CheckedValue</text>
<text text-anchor="middle" x="966.5" y="-49.32" font-family="Helvetica,sans-Serif" font-size="10.00">&lt; Frequency &gt;</text>
</a>
</g>
</g>
<!-- Node21&#45;&gt;Node1 -->
<g id="edge25" class="edge">
<title>Node21&#45;&gt;Node1</title>
<path fill="none" stroke="#9a32cd" stroke-dasharray="5,2" d="M1035.45,-43.44C1074.04,-39.41 1121.41,-41.33 1156,-65.32 1204.8,-99.16 1216.27,-178.42 1218.81,-205.8"/>
<polygon fill="#9a32cd" stroke="#9a32cd" points="1034.84,-39.99 1025.32,-44.66 1035.67,-46.94 1034.84,-39.99"/>
<text text-anchor="middle" x="1104.5" y="-79.32" font-family="Helvetica,sans-Serif" font-size="10.00"> m_angularDamping</text>
<text text-anchor="middle" x="1104.5" y="-68.32" font-family="Helvetica,sans-Serif" font-size="10.00">m_linearDamping</text>
</g>
<!-- Node22 -->
<g id="node22" class="node">
<title>Node22</title>
<g id="a_node22"><a xlink:title=" ">
<polygon fill="white" stroke="#bfbfbf" points="665.5,-3.82 665.5,-22.82 727.5,-22.82 727.5,-3.82 665.5,-3.82"/>
<text text-anchor="middle" x="696.5" y="-10.82" font-family="Helvetica,sans-Serif" font-size="10.00">Frequency</text>
</a>
</g>
</g>
<!-- Node22&#45;&gt;Node21 -->
<g id="edge26" class="edge">
<title>Node22&#45;&gt;Node21</title>
<path fill="none" stroke="#9a32cd" stroke-dasharray="5,2" d="M737.45,-19.47C774.45,-25.22 830.98,-34.12 880,-42.32 888.92,-43.81 898.35,-45.42 907.57,-47.02"/>
<polygon fill="#9a32cd" stroke="#9a32cd" points="737.98,-16.01 727.56,-17.94 736.9,-22.93 737.98,-16.01"/>
<text text-anchor="middle" x="833" y="-45.32" font-family="Helvetica,sans-Serif" font-size="10.00"> m_value</text>
</g>
<!-- Node23 -->
<g id="node23" class="node">
<title>Node23</title>
<g id="a_node23"><a xlink:href="classplayrho_1_1CheckedValue.html" target="_top" xlink:title="Checked value.">
<polygon fill="white" stroke="black" points="625,-42.32 625,-72.32 768,-72.32 768,-42.32 625,-42.32"/>
<text text-anchor="start" x="633" y="-60.32" font-family="Helvetica,sans-Serif" font-size="10.00">playrho::CheckedValue</text>
<text text-anchor="middle" x="696.5" y="-49.32" font-family="Helvetica,sans-Serif" font-size="10.00">&lt; ValueType, CheckerType &gt;</text>
</a>
</g>
</g>
<!-- Node23&#45;&gt;Node21 -->
<g id="edge27" class="edge">
<title>Node23&#45;&gt;Node21</title>
<path fill="none" stroke="orange" stroke-dasharray="5,2" d="M778.41,-57.32C820.16,-57.32 870.11,-57.32 907.89,-57.32"/>
<polygon fill="orange" stroke="orange" points="778.26,-53.82 768.26,-57.32 778.26,-60.82 778.26,-53.82"/>
<text text-anchor="middle" x="833" y="-60.32" font-family="Helvetica,sans-Serif" font-size="10.00"> &lt; Frequency &gt;</text>
</g>
<!-- Node24 -->
<g id="node24" class="node">
<title>Node24</title>
<g id="a_node24"><a xlink:title=" ">
<polygon fill="white" stroke="#bfbfbf" points="424.5,-47.82 424.5,-66.82 486.5,-66.82 486.5,-47.82 424.5,-47.82"/>
<text text-anchor="middle" x="455.5" y="-54.82" font-family="Helvetica,sans-Serif" font-size="10.00">ValueType</text>
</a>
</g>
</g>
<!-- Node24&#45;&gt;Node23 -->
<g id="edge28" class="edge">
<title>Node24&#45;&gt;Node23</title>
<path fill="none" stroke="#9a32cd" stroke-dasharray="5,2" d="M497.07,-57.32C532.02,-57.32 583.27,-57.32 624.94,-57.32"/>
<polygon fill="#9a32cd" stroke="#9a32cd" points="496.77,-53.82 486.77,-57.32 496.77,-60.82 496.77,-53.82"/>
<text text-anchor="middle" x="585.5" y="-60.32" font-family="Helvetica,sans-Serif" font-size="10.00"> m_value</text>
</g>
<!-- Node25 -->
<g id="node25" class="node">
<title>Node25</title>
<g id="a_node25"><a xlink:title=" ">
<polygon fill="white" stroke="#bfbfbf" points="898,-3.82 898,-22.82 1035,-22.82 1035,-3.82 898,-3.82"/>
<text text-anchor="middle" x="966.5" y="-10.82" font-family="Helvetica,sans-Serif" font-size="10.00">inverse_moment_of_inertia)</text>
</a>
</g>
</g>
<!-- Node25&#45;&gt;Node1 -->
<g id="edge29" class="edge">
<title>Node25&#45;&gt;Node1</title>
<path fill="none" stroke="#9a32cd" stroke-dasharray="5,2" d="M1022.1,-2.46C1063.12,2.46 1118.47,1.79 1156,-27.32 1214.26,-72.49 1219.49,-173.51 1219.64,-205.44"/>
<polygon fill="#9a32cd" stroke="#9a32cd" points="1021.45,0.99 1012,-3.81 1022.38,-5.95 1021.45,0.99"/>
<text text-anchor="middle" x="1104.5" y="-30.32" font-family="Helvetica,sans-Serif" font-size="10.00"> m_invRotI</text>
</g>
</g>
</svg>
