<?xml version="1.0" encoding="UTF-8" standalone="no"?>
<!DOCTYPE svg PUBLIC "-//W3C//DTD SVG 1.1//EN"
 "http://www.w3.org/Graphics/SVG/1.1/DTD/svg11.dtd">
<!-- Generated by graphviz version 2.44.1 (20200629.0846)
 -->
<!-- Title: playrho::d2::PositionConstraint Pages: 1 -->
<svg width="1458pt" height="404pt"
 viewBox="0.00 0.00 1458.00 404.00" xmlns="http://www.w3.org/2000/svg" xmlns:xlink="http://www.w3.org/1999/xlink">
<g id="graph0" class="graph" transform="scale(1 1) rotate(0) translate(4 400)">
<title>playrho::d2::PositionConstraint</title>
<polygon fill="white" stroke="transparent" points="-4,4 -4,-400 1454,-400 1454,4 -4,4"/>
<!-- Node1 -->
<g id="node1" class="node">
<title>Node1</title>
<g id="a_node1"><a xlink:title="Contact Position Constraint.">
<polygon fill="#bfbfbf" stroke="black" points="1299,-188.5 1299,-207.5 1450,-207.5 1450,-188.5 1299,-188.5"/>
<text text-anchor="middle" x="1374.5" y="-195.5" font-family="Helvetica,sans-Serif" font-size="10.00">playrho::d2::PositionConstraint</text>
</a>
</g>
</g>
<!-- Node2 -->
<g id="node2" class="node">
<title>Node2</title>
<g id="a_node2"><a xlink:href="classplayrho_1_1d2_1_1Manifold.html" target="_top" xlink:title="A collision response oriented description of the intersection of two convex shapes.">
<polygon fill="white" stroke="black" points="1089,-256.5 1089,-275.5 1196,-275.5 1196,-256.5 1089,-256.5"/>
<text text-anchor="middle" x="1142.5" y="-263.5" font-family="Helvetica,sans-Serif" font-size="10.00">playrho::d2::Manifold</text>
</a>
</g>
</g>
<!-- Node2&#45;&gt;Node1 -->
<g id="edge1" class="edge">
<title>Node2&#45;&gt;Node1</title>
<path fill="none" stroke="#9a32cd" stroke-dasharray="5,2" d="M1185.69,-253.53C1230.55,-240.26 1300.53,-219.57 1341.2,-207.55"/>
<polygon fill="#9a32cd" stroke="#9a32cd" points="1184.56,-250.21 1175.97,-256.4 1186.55,-256.92 1184.56,-250.21"/>
<text text-anchor="middle" x="1247.5" y="-247" font-family="Helvetica,sans-Serif" font-size="10.00"> manifold</text>
</g>
<!-- Node3 -->
<g id="node3" class="node">
<title>Node3</title>
<g id="a_node3"><a xlink:href="structplayrho_1_1Vector.html" target="_top" xlink:title=" ">
<polygon fill="white" stroke="black" points="362,-160.5 362,-179.5 492,-179.5 492,-160.5 362,-160.5"/>
<text text-anchor="middle" x="427" y="-167.5" font-family="Helvetica,sans-Serif" font-size="10.00">playrho::Vector&lt; Length &gt;</text>
</a>
</g>
</g>
<!-- Node3&#45;&gt;Node2 -->
<g id="edge2" class="edge">
<title>Node3&#45;&gt;Node2</title>
<path fill="none" stroke="#9a32cd" stroke-dasharray="5,2" d="M461.75,-183.19C498.38,-196.89 558.9,-217.72 613,-228 784.93,-260.67 993.2,-265.77 1088.85,-266.23"/>
<polygon fill="#9a32cd" stroke="#9a32cd" points="462.67,-179.8 452.08,-179.53 460.19,-186.34 462.67,-179.8"/>
<text text-anchor="middle" x="798" y="-258" font-family="Helvetica,sans-Serif" font-size="10.00"> m_localPoint</text>
</g>
<!-- Node9 -->
<g id="node9" class="node">
<title>Node9</title>
<g id="a_node9"><a xlink:href="structplayrho_1_1d2_1_1Manifold_1_1Point.html" target="_top" xlink:title="Data for a point of collision in a Manifold.">
<polygon fill="white" stroke="black" points="628,-337 628,-367 735,-367 735,-337 628,-337"/>
<text text-anchor="start" x="636" y="-355" font-family="Helvetica,sans-Serif" font-size="10.00">playrho::d2::Manifold</text>
<text text-anchor="middle" x="681.5" y="-344" font-family="Helvetica,sans-Serif" font-size="10.00">::Point</text>
</a>
</g>
</g>
<!-- Node3&#45;&gt;Node9 -->
<g id="edge9" class="edge">
<title>Node3&#45;&gt;Node9</title>
<path fill="none" stroke="#9a32cd" stroke-dasharray="5,2" d="M448.47,-186.08C482.18,-212.39 551.77,-265.91 613,-308 627.29,-317.83 643.58,-328.46 656.57,-336.81"/>
<polygon fill="#9a32cd" stroke="#9a32cd" points="450.35,-183.11 440.32,-179.71 446.04,-188.63 450.35,-183.11"/>
<text text-anchor="middle" x="560.5" y="-296" font-family="Helvetica,sans-Serif" font-size="10.00"> localPoint</text>
</g>
<!-- Node17 -->
<g id="node17" class="node">
<title>Node17</title>
<g id="a_node17"><a xlink:href="classplayrho_1_1d2_1_1BodyConstraint.html" target="_top" xlink:title="Body Constraint.">
<polygon fill="white" stroke="black" points="846,-93.5 846,-112.5 984,-112.5 984,-93.5 846,-93.5"/>
<text text-anchor="middle" x="915" y="-100.5" font-family="Helvetica,sans-Serif" font-size="10.00">playrho::d2::BodyConstraint</text>
</a>
</g>
</g>
<!-- Node3&#45;&gt;Node17 -->
<g id="edge19" class="edge">
<title>Node3&#45;&gt;Node17</title>
<path fill="none" stroke="#9a32cd" stroke-dasharray="5,2" d="M502.38,-168.79C583.46,-166.08 716.53,-157.54 828,-131 848.62,-126.09 871.41,-118.57 888.34,-112.56"/>
<polygon fill="#9a32cd" stroke="#9a32cd" points="502.16,-165.29 492.27,-169.11 502.38,-172.29 502.16,-165.29"/>
<text text-anchor="middle" x="681.5" y="-166" font-family="Helvetica,sans-Serif" font-size="10.00"> m_localCenter</text>
</g>
<!-- Node22 -->
<g id="node22" class="node">
<title>Node22</title>
<g id="a_node22"><a xlink:href="structplayrho_1_1d2_1_1Position.html" target="_top" xlink:title="2&#45;D positional data structure.">
<polygon fill="white" stroke="black" points="628.5,-114.5 628.5,-133.5 734.5,-133.5 734.5,-114.5 628.5,-114.5"/>
<text text-anchor="middle" x="681.5" y="-121.5" font-family="Helvetica,sans-Serif" font-size="10.00">playrho::d2::Position</text>
</a>
</g>
</g>
<!-- Node3&#45;&gt;Node22 -->
<g id="edge26" class="edge">
<title>Node3&#45;&gt;Node22</title>
<path fill="none" stroke="#9a32cd" stroke-dasharray="5,2" d="M471.02,-157.89C488.04,-153.4 507.85,-148.54 526,-145 559.88,-138.4 598.33,-133.16 628.4,-129.57"/>
<polygon fill="#9a32cd" stroke="#9a32cd" points="470.1,-154.51 461.35,-160.48 471.91,-161.27 470.1,-154.51"/>
<text text-anchor="middle" x="560.5" y="-148" font-family="Helvetica,sans-Serif" font-size="10.00"> linear</text>
</g>
<!-- Node4 -->
<g id="node4" class="node">
<title>Node4</title>
<g id="a_node4"><a xlink:title=" ">
<polygon fill="white" stroke="#bfbfbf" points="144.5,-160.5 144.5,-179.5 190.5,-179.5 190.5,-160.5 144.5,-160.5"/>
<text text-anchor="middle" x="167.5" y="-167.5" font-family="Helvetica,sans-Serif" font-size="10.00">Length</text>
</a>
</g>
</g>
<!-- Node4&#45;&gt;Node3 -->
<g id="edge3" class="edge">
<title>Node4&#45;&gt;Node3</title>
<path fill="none" stroke="#9a32cd" stroke-dasharray="5,2" d="M200.96,-170C241.23,-170 310.83,-170 361.99,-170"/>
<polygon fill="#9a32cd" stroke="#9a32cd" points="200.9,-166.5 190.9,-170 200.9,-173.5 200.9,-166.5"/>
<text text-anchor="middle" x="286.5" y="-173" font-family="Helvetica,sans-Serif" font-size="10.00"> elements</text>
</g>
<!-- Node5 -->
<g id="node5" class="node">
<title>Node5</title>
<g id="a_node5"><a xlink:href="structplayrho_1_1Vector.html" target="_top" xlink:title="Vector.">
<polygon fill="white" stroke="black" points="108,-107.5 108,-126.5 227,-126.5 227,-107.5 108,-107.5"/>
<text text-anchor="middle" x="167.5" y="-114.5" font-family="Helvetica,sans-Serif" font-size="10.00">playrho::Vector&lt; T, N &gt;</text>
</a>
</g>
</g>
<!-- Node5&#45;&gt;Node3 -->
<g id="edge4" class="edge">
<title>Node5&#45;&gt;Node3</title>
<path fill="none" stroke="orange" stroke-dasharray="5,2" d="M224.73,-128.57C271.12,-138.12 336.15,-151.51 379.61,-160.45"/>
<polygon fill="orange" stroke="orange" points="225.33,-125.12 214.83,-126.54 223.92,-131.98 225.33,-125.12"/>
<text text-anchor="middle" x="286.5" y="-153" font-family="Helvetica,sans-Serif" font-size="10.00"> &lt; Length &gt;</text>
</g>
<!-- Node19 -->
<g id="node19" class="node">
<title>Node19</title>
<g id="a_node19"><a xlink:href="structplayrho_1_1Vector.html" target="_top" xlink:title=" ">
<polygon fill="white" stroke="black" points="346,-24.5 346,-43.5 508,-43.5 508,-24.5 346,-24.5"/>
<text text-anchor="middle" x="427" y="-31.5" font-family="Helvetica,sans-Serif" font-size="10.00">playrho::Vector&lt; LinearVelocity &gt;</text>
</a>
</g>
</g>
<!-- Node5&#45;&gt;Node19 -->
<g id="edge23" class="edge">
<title>Node5&#45;&gt;Node19</title>
<path fill="none" stroke="orange" stroke-dasharray="5,2" d="M201.69,-103.76C237.07,-89.95 294.92,-68.22 346,-53 357.49,-49.58 370.06,-46.35 381.75,-43.57"/>
<polygon fill="orange" stroke="orange" points="200.36,-100.52 192.33,-107.43 202.92,-107.04 200.36,-100.52"/>
<text text-anchor="middle" x="286.5" y="-89" font-family="Helvetica,sans-Serif" font-size="10.00"> &lt; LinearVelocity &gt;</text>
</g>
<!-- Node6 -->
<g id="node6" class="node">
<title>Node6</title>
<g id="a_node6"><a xlink:title=" ">
<polygon fill="white" stroke="#bfbfbf" points="0,-107.5 0,-126.5 29,-126.5 29,-107.5 0,-107.5"/>
<text text-anchor="middle" x="14.5" y="-114.5" font-family="Helvetica,sans-Serif" font-size="10.00">T</text>
</a>
</g>
</g>
<!-- Node6&#45;&gt;Node5 -->
<g id="edge5" class="edge">
<title>Node6&#45;&gt;Node5</title>
<path fill="none" stroke="#9a32cd" stroke-dasharray="5,2" d="M39.27,-117C57.68,-117 83.99,-117 107.92,-117"/>
<polygon fill="#9a32cd" stroke="#9a32cd" points="39.17,-113.5 29.17,-117 39.17,-120.5 39.17,-113.5"/>
<text text-anchor="middle" x="68.5" y="-120" font-family="Helvetica,sans-Serif" font-size="10.00"> elements</text>
</g>
<!-- Node7 -->
<g id="node7" class="node">
<title>Node7</title>
<g id="a_node7"><a xlink:title=" ">
<polygon fill="white" stroke="#bfbfbf" points="148.5,-300.5 148.5,-319.5 186.5,-319.5 186.5,-300.5 148.5,-300.5"/>
<text text-anchor="middle" x="167.5" y="-307.5" font-family="Helvetica,sans-Serif" font-size="10.00">Type</text>
</a>
</g>
</g>
<!-- Node7&#45;&gt;Node2 -->
<g id="edge6" class="edge">
<title>Node7&#45;&gt;Node2</title>
<path fill="none" stroke="#9a32cd" stroke-dasharray="5,2" d="M196.74,-309.81C308.07,-308.88 727.33,-303.54 1071,-275 1076.78,-274.52 1082.81,-273.91 1088.81,-273.24"/>
<polygon fill="#9a32cd" stroke="#9a32cd" points="196.63,-306.31 186.65,-309.89 196.68,-313.31 196.63,-306.31"/>
<text text-anchor="middle" x="681.5" y="-303" font-family="Helvetica,sans-Serif" font-size="10.00"> m_type</text>
</g>
<!-- Node11 -->
<g id="node11" class="node">
<title>Node11</title>
<g id="a_node11"><a xlink:href="structplayrho_1_1ContactFeature.html" target="_top" xlink:title="Contact Feature.">
<polygon fill="white" stroke="black" points="366,-364.5 366,-383.5 488,-383.5 488,-364.5 366,-364.5"/>
<text text-anchor="middle" x="427" y="-371.5" font-family="Helvetica,sans-Serif" font-size="10.00">playrho::ContactFeature</text>
</a>
</g>
</g>
<!-- Node7&#45;&gt;Node11 -->
<g id="edge13" class="edge">
<title>Node7&#45;&gt;Node11</title>
<path fill="none" stroke="#9a32cd" stroke-dasharray="5,2" d="M196.67,-316.48C228.58,-323.88 282.12,-336.45 328,-348 348.83,-353.24 372.06,-359.39 390.67,-364.4"/>
<polygon fill="#9a32cd" stroke="#9a32cd" points="197.25,-313.02 186.72,-314.18 195.67,-319.84 197.25,-313.02"/>
<text text-anchor="middle" x="286.5" y="-362" font-family="Helvetica,sans-Serif" font-size="10.00"> typeA</text>
<text text-anchor="middle" x="286.5" y="-351" font-family="Helvetica,sans-Serif" font-size="10.00">typeB</text>
</g>
<!-- Node8 -->
<g id="node8" class="node">
<title>Node8</title>
<g id="a_node8"><a xlink:href="structplayrho_1_1d2_1_1Manifold_1_1PointArray.html" target="_top" xlink:title="Point array structure.">
<polygon fill="white" stroke="black" points="861.5,-356 861.5,-386 968.5,-386 968.5,-356 861.5,-356"/>
<text text-anchor="start" x="869.5" y="-374" font-family="Helvetica,sans-Serif" font-size="10.00">playrho::d2::Manifold</text>
<text text-anchor="middle" x="915" y="-363" font-family="Helvetica,sans-Serif" font-size="10.00">::PointArray</text>
</a>
</g>
</g>
<!-- Node8&#45;&gt;Node2 -->
<g id="edge7" class="edge">
<title>Node8&#45;&gt;Node2</title>
<path fill="none" stroke="#9a32cd" stroke-dasharray="5,2" d="M978.84,-363.21C1008.16,-357.71 1042.73,-348.45 1071,-333 1097.97,-318.26 1122.22,-290.62 1133.99,-275.86"/>
<polygon fill="#9a32cd" stroke="#9a32cd" points="977.95,-359.81 968.71,-365 979.17,-366.7 977.95,-359.81"/>
<text text-anchor="middle" x="1036.5" y="-360" font-family="Helvetica,sans-Serif" font-size="10.00"> m_points</text>
</g>
<!-- Node9&#45;&gt;Node8 -->
<g id="edge8" class="edge">
<title>Node9&#45;&gt;Node8</title>
<path fill="none" stroke="#9a32cd" stroke-dasharray="5,2" d="M745.03,-357.13C781.4,-360.12 826.73,-363.84 861.28,-366.67"/>
<polygon fill="#9a32cd" stroke="#9a32cd" points="745.28,-353.64 735.03,-356.31 744.71,-360.62 745.28,-353.64"/>
<text text-anchor="middle" x="798" y="-366" font-family="Helvetica,sans-Serif" font-size="10.00"> elements</text>
</g>
<!-- Node10 -->
<g id="node10" class="node">
<title>Node10</title>
<g id="a_node10"><a xlink:title=" ">
<polygon fill="white" stroke="#bfbfbf" points="393,-321.5 393,-340.5 461,-340.5 461,-321.5 393,-321.5"/>
<text text-anchor="middle" x="427" y="-328.5" font-family="Helvetica,sans-Serif" font-size="10.00">momentum)</text>
</a>
</g>
</g>
<!-- Node10&#45;&gt;Node9 -->
<g id="edge10" class="edge">
<title>Node10&#45;&gt;Node9</title>
<path fill="none" stroke="#9a32cd" stroke-dasharray="5,2" d="M471.1,-328.62C504.92,-327.39 553.12,-327.04 595,-332 605.75,-333.27 617.11,-335.38 627.92,-337.76"/>
<polygon fill="#9a32cd" stroke="#9a32cd" points="470.94,-325.13 461.09,-329.03 471.22,-332.12 470.94,-325.13"/>
<text text-anchor="middle" x="560.5" y="-346" font-family="Helvetica,sans-Serif" font-size="10.00"> normalImpulse</text>
<text text-anchor="middle" x="560.5" y="-335" font-family="Helvetica,sans-Serif" font-size="10.00">tangentImpulse</text>
</g>
<!-- Node11&#45;&gt;Node9 -->
<g id="edge11" class="edge">
<title>Node11&#45;&gt;Node9</title>
<path fill="none" stroke="#9a32cd" stroke-dasharray="5,2" d="M498.35,-367.87C539.31,-364.3 590.12,-359.87 627.65,-356.6"/>
<polygon fill="#9a32cd" stroke="#9a32cd" points="497.82,-364.4 488.16,-368.76 498.43,-371.38 497.82,-364.4"/>
<text text-anchor="middle" x="560.5" y="-367" font-family="Helvetica,sans-Serif" font-size="10.00"> contactFeature</text>
</g>
<!-- Node12 -->
<g id="node12" class="node">
<title>Node12</title>
<g id="a_node12"><a xlink:title=" ">
<polygon fill="white" stroke="#bfbfbf" points="144.5,-364.5 144.5,-383.5 190.5,-383.5 190.5,-364.5 144.5,-364.5"/>
<text text-anchor="middle" x="167.5" y="-371.5" font-family="Helvetica,sans-Serif" font-size="10.00">uint8_t</text>
</a>
</g>
</g>
<!-- Node12&#45;&gt;Node11 -->
<g id="edge12" class="edge">
<title>Node12&#45;&gt;Node11</title>
<path fill="none" stroke="#9a32cd" stroke-dasharray="5,2" d="M200.94,-374C242.21,-374 314.28,-374 365.75,-374"/>
<polygon fill="#9a32cd" stroke="#9a32cd" points="200.9,-370.5 190.9,-374 200.9,-377.5 200.9,-370.5"/>
<text text-anchor="middle" x="286.5" y="-388" font-family="Helvetica,sans-Serif" font-size="10.00"> indexA</text>
<text text-anchor="middle" x="286.5" y="-377" font-family="Helvetica,sans-Serif" font-size="10.00">indexB</text>
</g>
<!-- Node13 -->
<g id="node13" class="node">
<title>Node13</title>
<g id="a_node13"><a xlink:title=" ">
<polygon fill="white" stroke="#bfbfbf" points="897.5,-317.5 897.5,-336.5 932.5,-336.5 932.5,-317.5 897.5,-317.5"/>
<text text-anchor="middle" x="915" y="-324.5" font-family="Helvetica,sans-Serif" font-size="10.00">type</text>
</a>
</g>
</g>
<!-- Node13&#45;&gt;Node2 -->
<g id="edge14" class="edge">
<title>Node13&#45;&gt;Node2</title>
<path fill="none" stroke="#9a32cd" stroke-dasharray="5,2" d="M942.86,-325.53C974.27,-323.2 1027.51,-317.34 1071,-303 1091.35,-296.29 1112.9,-284.14 1126.74,-275.6"/>
<polygon fill="#9a32cd" stroke="#9a32cd" points="942.45,-322.05 932.71,-326.21 942.92,-329.03 942.45,-322.05"/>
<text text-anchor="middle" x="1036.5" y="-321" font-family="Helvetica,sans-Serif" font-size="10.00"> m_pointCount</text>
</g>
<!-- Node14 -->
<g id="node14" class="node">
<title>Node14</title>
<g id="a_node14"><a xlink:href="classplayrho_1_1d2_1_1UnitVec.html" target="_top" xlink:title="2&#45;D unit vector.">
<polygon fill="white" stroke="black" points="862,-199.5 862,-218.5 968,-218.5 968,-199.5 862,-199.5"/>
<text text-anchor="middle" x="915" y="-206.5" font-family="Helvetica,sans-Serif" font-size="10.00">playrho::d2::UnitVec</text>
</a>
</g>
</g>
<!-- Node14&#45;&gt;Node2 -->
<g id="edge15" class="edge">
<title>Node14&#45;&gt;Node2</title>
<path fill="none" stroke="#9a32cd" stroke-dasharray="5,2" d="M978.53,-207.58C1007.32,-208.6 1041.56,-212.22 1071,-222 1093.73,-229.55 1116.62,-245.81 1129.91,-256.31"/>
<polygon fill="#9a32cd" stroke="#9a32cd" points="978.27,-204.07 968.18,-207.31 978.09,-211.07 978.27,-204.07"/>
<text text-anchor="middle" x="1036.5" y="-225" font-family="Helvetica,sans-Serif" font-size="10.00"> m_localNormal</text>
</g>
<!-- Node15 -->
<g id="node15" class="node">
<title>Node15</title>
<g id="a_node15"><a xlink:title=" ">
<polygon fill="white" stroke="#bfbfbf" points="664,-199.5 664,-218.5 699,-218.5 699,-199.5 664,-199.5"/>
<text text-anchor="middle" x="681.5" y="-206.5" font-family="Helvetica,sans-Serif" font-size="10.00">float</text>
</a>
</g>
</g>
<!-- Node15&#45;&gt;Node14 -->
<g id="edge16" class="edge">
<title>Node15&#45;&gt;Node14</title>
<path fill="none" stroke="#9a32cd" stroke-dasharray="5,2" d="M709.21,-209C746.39,-209 814.54,-209 861.96,-209"/>
<polygon fill="#9a32cd" stroke="#9a32cd" points="709.15,-205.5 699.15,-209 709.15,-212.5 709.15,-205.5"/>
<text text-anchor="middle" x="798" y="-212" font-family="Helvetica,sans-Serif" font-size="10.00"> m_elems</text>
</g>
<!-- Node16 -->
<g id="node16" class="node">
<title>Node16</title>
<g id="a_node16"><a xlink:title=" ">
<polygon fill="white" stroke="#bfbfbf" points="1119.5,-188.5 1119.5,-207.5 1165.5,-207.5 1165.5,-188.5 1119.5,-188.5"/>
<text text-anchor="middle" x="1142.5" y="-195.5" font-family="Helvetica,sans-Serif" font-size="10.00">length)</text>
</a>
</g>
</g>
<!-- Node16&#45;&gt;Node1 -->
<g id="edge17" class="edge">
<title>Node16&#45;&gt;Node1</title>
<path fill="none" stroke="#9a32cd" stroke-dasharray="5,2" d="M1175.6,-198C1207.39,-198 1257.21,-198 1298.91,-198"/>
<polygon fill="#9a32cd" stroke="#9a32cd" points="1175.55,-194.5 1165.55,-198 1175.55,-201.5 1175.55,-194.5"/>
<text text-anchor="middle" x="1247.5" y="-201" font-family="Helvetica,sans-Serif" font-size="10.00"> m_totalRadius</text>
</g>
<!-- Node17&#45;&gt;Node1 -->
<g id="edge18" class="edge">
<title>Node17&#45;&gt;Node1</title>
<path fill="none" stroke="#9a32cd" stroke-dasharray="5,2" d="M978.4,-114.36C1035.24,-124.87 1121.41,-141.2 1196,-157 1243.65,-167.09 1298.2,-179.88 1334.11,-188.47"/>
<polygon fill="#9a32cd" stroke="#9a32cd" points="978.96,-110.9 968.49,-112.53 977.69,-117.79 978.96,-110.9"/>
<text text-anchor="middle" x="1142.5" y="-171" font-family="Helvetica,sans-Serif" font-size="10.00"> m_bodyA</text>
<text text-anchor="middle" x="1142.5" y="-160" font-family="Helvetica,sans-Serif" font-size="10.00">m_bodyB</text>
</g>
<!-- Node18 -->
<g id="node18" class="node">
<title>Node18</title>
<g id="a_node18"><a xlink:href="structplayrho_1_1d2_1_1Velocity.html" target="_top" xlink:title="2&#45;D velocity related data structure.">
<polygon fill="white" stroke="black" points="628.5,-38.5 628.5,-57.5 734.5,-57.5 734.5,-38.5 628.5,-38.5"/>
<text text-anchor="middle" x="681.5" y="-45.5" font-family="Helvetica,sans-Serif" font-size="10.00">playrho::d2::Velocity</text>
</a>
</g>
</g>
<!-- Node18&#45;&gt;Node17 -->
<g id="edge20" class="edge">
<title>Node18&#45;&gt;Node17</title>
<path fill="none" stroke="#9a32cd" stroke-dasharray="5,2" d="M744.64,-55.04C770.64,-58.71 801.03,-63.93 828,-71 850.34,-76.86 874.97,-86.35 892.12,-93.47"/>
<polygon fill="#9a32cd" stroke="#9a32cd" points="744.91,-51.55 734.53,-53.67 743.97,-58.48 744.91,-51.55"/>
<text text-anchor="middle" x="798" y="-74" font-family="Helvetica,sans-Serif" font-size="10.00"> m_velocity</text>
</g>
<!-- Node19&#45;&gt;Node18 -->
<g id="edge21" class="edge">
<title>Node19&#45;&gt;Node18</title>
<path fill="none" stroke="#9a32cd" stroke-dasharray="5,2" d="M518.46,-35.47C543.29,-36.21 570.2,-37.33 595,-39 605.72,-39.72 617.18,-40.75 628.1,-41.86"/>
<polygon fill="#9a32cd" stroke="#9a32cd" points="518.43,-31.97 508.33,-35.19 518.23,-38.97 518.43,-31.97"/>
<text text-anchor="middle" x="560.5" y="-42" font-family="Helvetica,sans-Serif" font-size="10.00"> linear</text>
</g>
<!-- Node20 -->
<g id="node20" class="node">
<title>Node20</title>
<g id="a_node20"><a xlink:title=" ">
<polygon fill="white" stroke="#bfbfbf" points="128.5,-24.5 128.5,-43.5 206.5,-43.5 206.5,-24.5 128.5,-24.5"/>
<text text-anchor="middle" x="167.5" y="-31.5" font-family="Helvetica,sans-Serif" font-size="10.00">LinearVelocity</text>
</a>
</g>
</g>
<!-- Node20&#45;&gt;Node19 -->
<g id="edge22" class="edge">
<title>Node20&#45;&gt;Node19</title>
<path fill="none" stroke="#9a32cd" stroke-dasharray="5,2" d="M217.08,-34C253.37,-34 303.76,-34 345.96,-34"/>
<polygon fill="#9a32cd" stroke="#9a32cd" points="216.77,-30.5 206.77,-34 216.77,-37.5 216.77,-30.5"/>
<text text-anchor="middle" x="286.5" y="-37" font-family="Helvetica,sans-Serif" font-size="10.00"> elements</text>
</g>
<!-- Node21 -->
<g id="node21" class="node">
<title>Node21</title>
<g id="a_node21"><a xlink:title=" ">
<polygon fill="white" stroke="#bfbfbf" points="382,-62.5 382,-81.5 472,-81.5 472,-62.5 382,-62.5"/>
<text text-anchor="middle" x="427" y="-69.5" font-family="Helvetica,sans-Serif" font-size="10.00">angular_velocity)</text>
</a>
</g>
</g>
<!-- Node21&#45;&gt;Node18 -->
<g id="edge24" class="edge">
<title>Node21&#45;&gt;Node18</title>
<path fill="none" stroke="#9a32cd" stroke-dasharray="5,2" d="M482.33,-66.84C525.59,-62.72 585.76,-57.01 628.42,-52.95"/>
<polygon fill="#9a32cd" stroke="#9a32cd" points="481.9,-63.36 472.27,-67.79 482.56,-70.33 481.9,-63.36"/>
<text text-anchor="middle" x="560.5" y="-66" font-family="Helvetica,sans-Serif" font-size="10.00"> angular</text>
</g>
<!-- Node22&#45;&gt;Node17 -->
<g id="edge25" class="edge">
<title>Node22&#45;&gt;Node17</title>
<path fill="none" stroke="#9a32cd" stroke-dasharray="5,2" d="M745.02,-118.33C776.14,-115.51 813.81,-112.09 845.69,-109.2"/>
<polygon fill="#9a32cd" stroke="#9a32cd" points="744.38,-114.87 734.74,-119.26 745.02,-121.84 744.38,-114.87"/>
<text text-anchor="middle" x="798" y="-119" font-family="Helvetica,sans-Serif" font-size="10.00"> m_position</text>
</g>
<!-- Node23 -->
<g id="node23" class="node">
<title>Node23</title>
<g id="a_node23"><a xlink:title=" ">
<polygon fill="white" stroke="#bfbfbf" points="391.5,-100.5 391.5,-119.5 462.5,-119.5 462.5,-100.5 391.5,-100.5"/>
<text text-anchor="middle" x="427" y="-107.5" font-family="Helvetica,sans-Serif" font-size="10.00">plane_angle)</text>
</a>
</g>
</g>
<!-- Node23&#45;&gt;Node22 -->
<g id="edge27" class="edge">
<title>Node23&#45;&gt;Node22</title>
<path fill="none" stroke="#9a32cd" stroke-dasharray="5,2" d="M473.03,-108.51C506.69,-107.82 553.79,-107.76 595,-111 605.78,-111.85 617.26,-113.25 628.19,-114.82"/>
<polygon fill="#9a32cd" stroke="#9a32cd" points="472.52,-105.02 462.6,-108.75 472.68,-112.02 472.52,-105.02"/>
<text text-anchor="middle" x="560.5" y="-114" font-family="Helvetica,sans-Serif" font-size="10.00"> angular</text>
</g>
<!-- Node24 -->
<g id="node24" class="node">
<title>Node24</title>
<g id="a_node24"><a xlink:title=" ">
<polygon fill="white" stroke="#bfbfbf" points="641.5,-76.5 641.5,-95.5 721.5,-95.5 721.5,-76.5 641.5,-76.5"/>
<text text-anchor="middle" x="681.5" y="-83.5" font-family="Helvetica,sans-Serif" font-size="10.00">inverse_mass)</text>
</a>
</g>
</g>
<!-- Node24&#45;&gt;Node17 -->
<g id="edge28" class="edge">
<title>Node24&#45;&gt;Node17</title>
<path fill="none" stroke="#9a32cd" stroke-dasharray="5,2" d="M731.82,-85.3C760.04,-85.32 796.07,-86.09 828,-89 839.3,-90.03 851.36,-91.66 862.76,-93.45"/>
<polygon fill="#9a32cd" stroke="#9a32cd" points="731.79,-81.8 721.8,-85.32 731.8,-88.8 731.79,-81.8"/>
<text text-anchor="middle" x="798" y="-92" font-family="Helvetica,sans-Serif" font-size="10.00"> m_invMass</text>
</g>
<!-- Node25 -->
<g id="node25" class="node">
<title>Node25</title>
<g id="a_node25"><a xlink:title=" ">
<polygon fill="white" stroke="#bfbfbf" points="613,-0.5 613,-19.5 750,-19.5 750,-0.5 613,-0.5"/>
<text text-anchor="middle" x="681.5" y="-7.5" font-family="Helvetica,sans-Serif" font-size="10.00">inverse_moment_of_inertia)</text>
</a>
</g>
</g>
<!-- Node25&#45;&gt;Node17 -->
<g id="edge29" class="edge">
<title>Node25&#45;&gt;Node17</title>
<path fill="none" stroke="#9a32cd" stroke-dasharray="5,2" d="M756.05,-21.64C779.64,-26.82 805.47,-34.06 828,-44 857.32,-56.93 887.21,-80.19 902.86,-93.31"/>
<polygon fill="#9a32cd" stroke="#9a32cd" points="756.61,-18.18 746.1,-19.54 755.16,-25.03 756.61,-18.18"/>
<text text-anchor="middle" x="798" y="-47" font-family="Helvetica,sans-Serif" font-size="10.00"> m_invRotI</text>
</g>
</g>
</svg>
