<?xml version="1.0" encoding="UTF-8" standalone="no"?>
<!DOCTYPE svg PUBLIC "-//W3C//DTD SVG 1.1//EN"
 "http://www.w3.org/Graphics/SVG/1.1/DTD/svg11.dtd">
<!-- Generated by graphviz version 2.44.1 (20200629.0846)
 -->
<!-- Title: playrho::d2::Fixture Pages: 1 -->
<svg width="680pt" height="262pt"
 viewBox="0.00 0.00 680.00 262.00" xmlns="http://www.w3.org/2000/svg" xmlns:xlink="http://www.w3.org/1999/xlink">
<g id="graph0" class="graph" transform="scale(1 1) rotate(0) translate(4 258)">
<title>playrho::d2::Fixture</title>
<polygon fill="white" stroke="transparent" points="-4,4 -4,-258 676,-258 676,4 -4,4"/>
<!-- Node1 -->
<g id="node1" class="node">
<title>Node1</title>
<g id="a_node1"><a xlink:title="An association between a body and a shape.">
<polygon fill="#bfbfbf" stroke="black" points="571,-76.5 571,-95.5 672,-95.5 672,-76.5 571,-76.5"/>
<text text-anchor="middle" x="621.5" y="-83.5" font-family="Helvetica,sans-Serif" font-size="10.00">playrho::d2::Fixture</text>
</a>
</g>
</g>
<!-- Node2 -->
<g id="node2" class="node">
<title>Node2</title>
<g id="a_node2"><a xlink:href="classplayrho_1_1strongtype_1_1IndexingNamedType.html" target="_top" xlink:title=" ">
<polygon fill="white" stroke="black" points="365,-169 365,-221 478,-221 478,-169 365,-169"/>
<text text-anchor="start" x="373" y="-209" font-family="Helvetica,sans-Serif" font-size="10.00">playrho::strongtype</text>
<text text-anchor="start" x="373" y="-198" font-family="Helvetica,sans-Serif" font-size="10.00">::IndexingNamedType</text>
<text text-anchor="start" x="373" y="-187" font-family="Helvetica,sans-Serif" font-size="10.00">&lt; BodyCounter, struct</text>
<text text-anchor="middle" x="421.5" y="-176" font-family="Helvetica,sans-Serif" font-size="10.00"> BodyIdentifier &gt;</text>
</a>
</g>
</g>
<!-- Node2&#45;&gt;Node1 -->
<g id="edge1" class="edge">
<title>Node2&#45;&gt;Node1</title>
<path fill="none" stroke="#9a32cd" stroke-dasharray="5,2" d="M481.08,-164.08C503.65,-152.04 529.61,-138.03 553,-125 570.62,-115.19 590.59,-103.59 604.21,-95.6"/>
<polygon fill="#9a32cd" stroke="#9a32cd" points="479.15,-161.15 471.96,-168.94 482.44,-167.33 479.15,-161.15"/>
<text text-anchor="middle" x="525.5" y="-157" font-family="Helvetica,sans-Serif" font-size="10.00"> m_body</text>
</g>
<!-- Node3 -->
<g id="node3" class="node">
<title>Node3</title>
<g id="a_node3"><a xlink:title=" ">
<polygon fill="white" stroke="#bfbfbf" points="125,-234.5 125,-253.5 199,-253.5 199,-234.5 125,-234.5"/>
<text text-anchor="middle" x="162" y="-241.5" font-family="Helvetica,sans-Serif" font-size="10.00">BodyCounter</text>
</a>
</g>
</g>
<!-- Node3&#45;&gt;Node2 -->
<g id="edge2" class="edge">
<title>Node3&#45;&gt;Node2</title>
<path fill="none" stroke="#9a32cd" stroke-dasharray="5,2" d="M209.31,-240.79C246.37,-237.6 299.49,-231.59 345,-221 351.48,-219.49 358.19,-217.63 364.8,-215.61"/>
<polygon fill="#9a32cd" stroke="#9a32cd" points="208.98,-237.31 199.3,-241.62 209.56,-244.29 208.98,-237.31"/>
<text text-anchor="middle" x="295" y="-240" font-family="Helvetica,sans-Serif" font-size="10.00"> value_</text>
</g>
<!-- Node4 -->
<g id="node4" class="node">
<title>Node4</title>
<g id="a_node4"><a xlink:href="classplayrho_1_1strongtype_1_1IndexingNamedType.html" target="_top" xlink:title="An indexable, hashable, named &quot;strong type&quot; template class.">
<polygon fill="white" stroke="black" points="106,-174.5 106,-215.5 218,-215.5 218,-174.5 106,-174.5"/>
<text text-anchor="start" x="114" y="-203.5" font-family="Helvetica,sans-Serif" font-size="10.00">playrho::strongtype</text>
<text text-anchor="start" x="114" y="-192.5" font-family="Helvetica,sans-Serif" font-size="10.00">::IndexingNamedType</text>
<text text-anchor="middle" x="162" y="-181.5" font-family="Helvetica,sans-Serif" font-size="10.00">&lt; T, Tag &gt;</text>
</a>
</g>
</g>
<!-- Node4&#45;&gt;Node2 -->
<g id="edge3" class="edge">
<title>Node4&#45;&gt;Node2</title>
<path fill="none" stroke="orange" stroke-dasharray="5,2" d="M228.41,-195C270.58,-195 324.82,-195 364.91,-195"/>
<polygon fill="orange" stroke="orange" points="228.24,-191.5 218.24,-195 228.24,-198.5 228.24,-191.5"/>
<text text-anchor="start" x="245" y="-209" font-family="Helvetica,sans-Serif" font-size="10.00"> &lt; BodyCounter, struct</text>
<text text-anchor="middle" x="295" y="-198" font-family="Helvetica,sans-Serif" font-size="10.00"> BodyIdentifier &gt;</text>
</g>
<!-- Node5 -->
<g id="node5" class="node">
<title>Node5</title>
<g id="a_node5"><a xlink:title=" ">
<polygon fill="white" stroke="#bfbfbf" points="0,-185.5 0,-204.5 29,-204.5 29,-185.5 0,-185.5"/>
<text text-anchor="middle" x="14.5" y="-192.5" font-family="Helvetica,sans-Serif" font-size="10.00">T</text>
</a>
</g>
</g>
<!-- Node5&#45;&gt;Node4 -->
<g id="edge4" class="edge">
<title>Node5&#45;&gt;Node4</title>
<path fill="none" stroke="#9a32cd" stroke-dasharray="5,2" d="M39.38,-195C57.44,-195 82.98,-195 106,-195"/>
<polygon fill="#9a32cd" stroke="#9a32cd" points="39.19,-191.5 29.19,-195 39.19,-198.5 39.19,-191.5"/>
<text text-anchor="middle" x="63" y="-198" font-family="Helvetica,sans-Serif" font-size="10.00"> value_</text>
</g>
<!-- Node6 -->
<g id="node6" class="node">
<title>Node6</title>
<g id="a_node6"><a xlink:href="structplayrho_1_1Filter.html" target="_top" xlink:title="A holder for contact filtering data.">
<polygon fill="white" stroke="black" points="383.5,-114.5 383.5,-133.5 459.5,-133.5 459.5,-114.5 383.5,-114.5"/>
<text text-anchor="middle" x="421.5" y="-121.5" font-family="Helvetica,sans-Serif" font-size="10.00">playrho::Filter</text>
</a>
</g>
</g>
<!-- Node6&#45;&gt;Node1 -->
<g id="edge5" class="edge">
<title>Node6&#45;&gt;Node1</title>
<path fill="none" stroke="#9a32cd" stroke-dasharray="5,2" d="M469.56,-115.61C494.4,-111.12 525.38,-105.4 553,-100 560.16,-98.6 567.75,-97.07 575.14,-95.55"/>
<polygon fill="#9a32cd" stroke="#9a32cd" points="468.89,-112.18 459.67,-117.4 470.13,-119.06 468.89,-112.18"/>
<text text-anchor="middle" x="525.5" y="-113" font-family="Helvetica,sans-Serif" font-size="10.00"> m_filter</text>
</g>
<!-- Node7 -->
<g id="node7" class="node">
<title>Node7</title>
<g id="a_node7"><a xlink:title=" ">
<polygon fill="white" stroke="#bfbfbf" points="136.5,-136.5 136.5,-155.5 187.5,-155.5 187.5,-136.5 136.5,-136.5"/>
<text text-anchor="middle" x="162" y="-143.5" font-family="Helvetica,sans-Serif" font-size="10.00">uint16_t</text>
</a>
</g>
</g>
<!-- Node7&#45;&gt;Node6 -->
<g id="edge6" class="edge">
<title>Node7&#45;&gt;Node6</title>
<path fill="none" stroke="#9a32cd" stroke-dasharray="5,2" d="M197.67,-143.04C246.02,-138.91 333.35,-131.45 383.11,-127.19"/>
<polygon fill="#9a32cd" stroke="#9a32cd" points="197.36,-139.55 187.69,-143.89 197.95,-146.53 197.36,-139.55"/>
<text text-anchor="middle" x="295" y="-152" font-family="Helvetica,sans-Serif" font-size="10.00"> categoryBits</text>
<text text-anchor="middle" x="295" y="-141" font-family="Helvetica,sans-Serif" font-size="10.00">maskBits</text>
</g>
<!-- Node8 -->
<g id="node8" class="node">
<title>Node8</title>
<g id="a_node8"><a xlink:title=" ">
<polygon fill="white" stroke="#bfbfbf" points="139,-98.5 139,-117.5 185,-117.5 185,-98.5 139,-98.5"/>
<text text-anchor="middle" x="162" y="-105.5" font-family="Helvetica,sans-Serif" font-size="10.00">int16_t</text>
</a>
</g>
</g>
<!-- Node8&#45;&gt;Node6 -->
<g id="edge7" class="edge">
<title>Node8&#45;&gt;Node6</title>
<path fill="none" stroke="#9a32cd" stroke-dasharray="5,2" d="M195.22,-107.75C231.64,-107.73 292.69,-108.49 345,-113 357.54,-114.08 371.17,-115.88 383.35,-117.7"/>
<polygon fill="#9a32cd" stroke="#9a32cd" points="195.17,-104.25 185.18,-107.77 195.19,-111.25 195.17,-104.25"/>
<text text-anchor="middle" x="295" y="-116" font-family="Helvetica,sans-Serif" font-size="10.00"> groupIndex</text>
</g>
<!-- Node9 -->
<g id="node9" class="node">
<title>Node9</title>
<g id="a_node9"><a xlink:href="classplayrho_1_1d2_1_1Shape.html" target="_top" xlink:title="Shape.">
<polygon fill="white" stroke="black" points="372.5,-76.5 372.5,-95.5 470.5,-95.5 470.5,-76.5 372.5,-76.5"/>
<text text-anchor="middle" x="421.5" y="-83.5" font-family="Helvetica,sans-Serif" font-size="10.00">playrho::d2::Shape</text>
</a>
</g>
</g>
<!-- Node9&#45;&gt;Node1 -->
<g id="edge8" class="edge">
<title>Node9&#45;&gt;Node1</title>
<path fill="none" stroke="#9a32cd" stroke-dasharray="5,2" d="M480.93,-86C509.46,-86 543.44,-86 570.72,-86"/>
<polygon fill="#9a32cd" stroke="#9a32cd" points="480.68,-82.5 470.68,-86 480.68,-89.5 480.68,-82.5"/>
<text text-anchor="middle" x="525.5" y="-89" font-family="Helvetica,sans-Serif" font-size="10.00"> m_shape</text>
</g>
<!-- Node10 -->
<g id="node10" class="node">
<title>Node10</title>
<g id="a_node10"><a xlink:title=" ">
<polygon fill="white" stroke="#bfbfbf" points="97,-49 97,-79 227,-79 227,-49 97,-49"/>
<text text-anchor="start" x="105" y="-67" font-family="Helvetica,sans-Serif" font-size="10.00">shared_ptr&lt; const playrho</text>
<text text-anchor="middle" x="162" y="-56" font-family="Helvetica,sans-Serif" font-size="10.00">::d2::Shape::Concept &gt;</text>
</a>
</g>
</g>
<!-- Node10&#45;&gt;Node9 -->
<g id="edge9" class="edge">
<title>Node10&#45;&gt;Node9</title>
<path fill="none" stroke="#9a32cd" stroke-dasharray="5,2" d="M237.55,-70.37C280.98,-74.08 334.47,-78.65 372.37,-81.89"/>
<polygon fill="#9a32cd" stroke="#9a32cd" points="237.58,-66.86 227.31,-69.49 236.98,-73.83 237.58,-66.86"/>
<text text-anchor="middle" x="295" y="-82" font-family="Helvetica,sans-Serif" font-size="10.00"> m_self</text>
</g>
<!-- Node11 -->
<g id="node11" class="node">
<title>Node11</title>
<g id="a_node11"><a xlink:title=" ">
<polygon fill="white" stroke="#bfbfbf" points="404,-38.5 404,-57.5 439,-57.5 439,-38.5 404,-38.5"/>
<text text-anchor="middle" x="421.5" y="-45.5" font-family="Helvetica,sans-Serif" font-size="10.00">bool</text>
</a>
</g>
</g>
<!-- Node11&#45;&gt;Node1 -->
<g id="edge10" class="edge">
<title>Node11&#45;&gt;Node1</title>
<path fill="none" stroke="#9a32cd" stroke-dasharray="5,2" d="M449.02,-52.32C475.43,-56.71 517.11,-63.85 553,-71 561.36,-72.66 570.27,-74.56 578.79,-76.43"/>
<polygon fill="#9a32cd" stroke="#9a32cd" points="449.46,-48.85 439.02,-50.67 448.32,-55.75 449.46,-48.85"/>
<text text-anchor="middle" x="525.5" y="-74" font-family="Helvetica,sans-Serif" font-size="10.00"> m_isSensor</text>
</g>
<!-- Node12 -->
<g id="node12" class="node">
<title>Node12</title>
<g id="a_node12"><a xlink:title=" ">
<polygon fill="white" stroke="#bfbfbf" points="363,-0.5 363,-19.5 480,-19.5 480,-0.5 363,-0.5"/>
<text text-anchor="middle" x="421.5" y="-7.5" font-family="Helvetica,sans-Serif" font-size="10.00">vector&lt; FixtureProxy &gt;</text>
</a>
</g>
</g>
<!-- Node12&#45;&gt;Node1 -->
<g id="edge11" class="edge">
<title>Node12&#45;&gt;Node1</title>
<path fill="none" stroke="#9a32cd" stroke-dasharray="5,2" d="M480.96,-21.93C503.91,-27.57 530.17,-35.24 553,-45 573.05,-53.57 594.23,-67.31 607.41,-76.49"/>
<polygon fill="#9a32cd" stroke="#9a32cd" points="481.55,-18.47 471.01,-19.56 479.93,-25.28 481.55,-18.47"/>
<text text-anchor="middle" x="525.5" y="-48" font-family="Helvetica,sans-Serif" font-size="10.00"> m_proxies</text>
</g>
</g>
</svg>
