<?xml version="1.0" encoding="UTF-8" standalone="no"?>
<!DOCTYPE svg PUBLIC "-//W3C//DTD SVG 1.1//EN"
 "http://www.w3.org/Graphics/SVG/1.1/DTD/svg11.dtd">
<!-- Generated by graphviz version 2.44.1 (20200629.0846)
 -->
<!-- Title: Library Defined Constraints Pages: 1 -->
<svg width="391pt" height="64pt"
 viewBox="0.00 0.00 391.00 64.00" xmlns="http://www.w3.org/2000/svg" xmlns:xlink="http://www.w3.org/1999/xlink">
<g id="graph0" class="graph" transform="scale(1 1) rotate(0) translate(4 60)">
<title>Library Defined Constraints</title>
<polygon fill="white" stroke="transparent" points="-4,4 -4,-60 387,-60 387,4 -4,4"/>
<!-- Node3 -->
<g id="node1" class="node">
<title>Node3</title>
<g id="a_node1"><a xlink:href="group__PhysicalEntities.html" target="_top" xlink:title="Classes representing physical entities typically created/destroyed via factory methods.">
<polygon fill="white" stroke="black" points="383,-56 261,-56 261,-37 383,-37 383,-56"/>
<text text-anchor="middle" x="322" y="-44" font-family="Helvetica,sans-Serif" font-size="10.00">Physical Entity Classes</text>
</a>
</g>
</g>
<!-- Node2 -->
<g id="node2" class="node">
<title>Node2</title>
<g id="a_node2"><a xlink:href="group__JointsGroup.html" target="_top" xlink:title="The user creatable classes that specify constraints on one or more body instances.">
<polygon fill="white" stroke="black" points="360.5,-19 283.5,-19 283.5,0 360.5,0 360.5,-19"/>
<text text-anchor="middle" x="322" y="-7" font-family="Helvetica,sans-Serif" font-size="10.00">Joint Classes</text>
</a>
</g>
</g>
<!-- Node1 -->
<g id="node3" class="node">
<title>Node1</title>
<g id="a_node3"><a xlink:title="Constraints defined and used by the PlayRho library.">
<polygon fill="#bfbfbf" stroke="black" points="136,-37 0,-37 0,-18 136,-18 136,-37"/>
<text text-anchor="middle" x="68" y="-25" font-family="Helvetica,sans-Serif" font-size="10.00">Library Defined Constraints</text>
</a>
</g>
</g>
<!-- Node1&#45;&gt;Node3 -->
<g id="edge2" class="edge">
<title>Node1&#45;&gt;Node3</title>
<path fill="none" stroke="orange" stroke-dasharray="5,2" d="M136.2,-32.57C174.98,-35.49 223.35,-39.14 260.87,-41.97"/>
<text text-anchor="middle" x="198.5" y="-42.5" font-family="Helvetica,sans-Serif" font-size="10.00">playrho::d2::Contact</text>
</g>
<!-- Node1&#45;&gt;Node2 -->
<g id="edge1" class="edge">
<title>Node1&#45;&gt;Node2</title>
<path fill="none" stroke="black" d="M146.33,-21.98C191.79,-18.73 247.24,-14.77 283.3,-12.19"/>
<polygon fill="black" stroke="black" points="145.93,-18.5 136.2,-22.7 146.42,-25.48 145.93,-18.5"/>
</g>
</g>
</svg>
