<?xml version="1.0" encoding="UTF-8" standalone="no"?>
<!DOCTYPE svg PUBLIC "-//W3C//DTD SVG 1.1//EN"
 "http://www.w3.org/Graphics/SVG/1.1/DTD/svg11.dtd">
<!-- Generated by graphviz version 2.44.1 (20200629.0846)
 -->
<!-- Title: Graphical Class Hierarchy Pages: 1 -->
<svg width="263pt" height="688pt"
 viewBox="0.00 0.00 263.00 687.50" xmlns="http://www.w3.org/2000/svg" xmlns:xlink="http://www.w3.org/1999/xlink">
<g id="graph0" class="graph" transform="scale(1 1) rotate(0) translate(4 683.5)">
<title>Graphical Class Hierarchy</title>
<polygon fill="white" stroke="transparent" points="-4,4 -4,-683.5 259,-683.5 259,4 -4,4"/>
<!-- Node186 -->
<g id="node1" class="node">
<title>Node186</title>
<g id="a_node1"><a xlink:title=" ">
<polygon fill="white" stroke="#bfbfbf" points="0,-335.5 0,-354.5 62,-354.5 62,-335.5 0,-335.5"/>
<text text-anchor="middle" x="31" y="-342.5" font-family="Helvetica,sans-Serif" font-size="10.00">false_type</text>
</a>
</g>
</g>
<!-- Node0 -->
<g id="node2" class="node">
<title>Node0</title>
<g id="a_node2"><a xlink:href="structplayrho_1_1d2_1_1IsValidJointType.html" target="_top" xlink:title="An &quot;is valid joint type&quot; trait.">
<polygon fill="white" stroke="black" points="116,-649 116,-679 237,-679 237,-649 116,-649"/>
<text text-anchor="start" x="124" y="-667" font-family="Helvetica,sans-Serif" font-size="10.00">playrho::d2::IsValidJoint</text>
<text text-anchor="middle" x="176.5" y="-656" font-family="Helvetica,sans-Serif" font-size="10.00">Type&lt; T, class &gt;</text>
</a>
</g>
</g>
<!-- Node186&#45;&gt;Node0 -->
<g id="edge1" class="edge">
<title>Node186&#45;&gt;Node0</title>
<path fill="none" stroke="midnightblue" d="M33.89,-365.02C39.88,-424.62 60.38,-599.23 98,-640 102.97,-645.38 109.11,-649.57 115.76,-652.82"/>
<polygon fill="midnightblue" stroke="midnightblue" points="37.33,-364.32 32.88,-354.71 30.37,-365.01 37.33,-364.32"/>
</g>
<!-- Node188 -->
<g id="node3" class="node">
<title>Node188</title>
<g id="a_node3"><a xlink:href="structplayrho_1_1d2_1_1IsValidShapeType.html" target="_top" xlink:title="An &quot;is valid shape type&quot; trait.">
<polygon fill="white" stroke="black" points="112.5,-600 112.5,-630 240.5,-630 240.5,-600 112.5,-600"/>
<text text-anchor="start" x="120.5" y="-618" font-family="Helvetica,sans-Serif" font-size="10.00">playrho::d2::IsValidShape</text>
<text text-anchor="middle" x="176.5" y="-607" font-family="Helvetica,sans-Serif" font-size="10.00">Type&lt; T, class &gt;</text>
</a>
</g>
</g>
<!-- Node186&#45;&gt;Node188 -->
<g id="edge2" class="edge">
<title>Node186&#45;&gt;Node188</title>
<path fill="none" stroke="midnightblue" d="M31.3,-364.7C30.78,-410.81 36.09,-526.68 98,-591 102.1,-595.26 106.94,-598.77 112.17,-601.66"/>
<polygon fill="midnightblue" stroke="midnightblue" points="34.8,-364.63 31.53,-354.56 27.81,-364.48 34.8,-364.63"/>
</g>
<!-- Node189 -->
<g id="node4" class="node">
<title>Node189</title>
<g id="a_node4"><a xlink:href="structplayrho_1_1detail_1_1IsIterableImpl.html" target="_top" xlink:title="Low&#45;level implementation of the is&#45;iterable default value trait.">
<polygon fill="white" stroke="black" points="114.5,-551 114.5,-581 238.5,-581 238.5,-551 114.5,-551"/>
<text text-anchor="start" x="122.5" y="-569" font-family="Helvetica,sans-Serif" font-size="10.00">playrho::detail::IsIterable</text>
<text text-anchor="middle" x="176.5" y="-558" font-family="Helvetica,sans-Serif" font-size="10.00">Impl&lt; T, class &gt;</text>
</a>
</g>
</g>
<!-- Node186&#45;&gt;Node189 -->
<g id="edge3" class="edge">
<title>Node186&#45;&gt;Node189</title>
<path fill="none" stroke="midnightblue" d="M32.9,-364.99C35.76,-404.48 47.76,-492.9 98,-542 102.73,-546.63 108.34,-550.36 114.34,-553.38"/>
<polygon fill="midnightblue" stroke="midnightblue" points="36.38,-364.58 32.29,-354.81 29.39,-365 36.38,-364.58"/>
</g>
<!-- Node190 -->
<g id="node5" class="node">
<title>Node190</title>
<g id="a_node5"><a xlink:href="structplayrho_1_1HasType_3_01T_00_01std_1_1tuple_3_4_01_4.html" target="_top" xlink:title="Has&#45;type trait template class specialized for std::tuple classes.">
<polygon fill="white" stroke="black" points="121.5,-502 121.5,-532 231.5,-532 231.5,-502 121.5,-502"/>
<text text-anchor="start" x="129.5" y="-520" font-family="Helvetica,sans-Serif" font-size="10.00">playrho::HasType&lt; T,</text>
<text text-anchor="middle" x="176.5" y="-509" font-family="Helvetica,sans-Serif" font-size="10.00"> std::tuple&lt;&gt; &gt;</text>
</a>
</g>
</g>
<!-- Node186&#45;&gt;Node190 -->
<g id="edge4" class="edge">
<title>Node186&#45;&gt;Node190</title>
<path fill="none" stroke="midnightblue" d="M35.4,-364.74C41.89,-396.38 59.02,-458.41 98,-493 104.74,-498.98 112.96,-503.48 121.49,-506.85"/>
<polygon fill="midnightblue" stroke="midnightblue" points="38.78,-363.73 33.47,-354.56 31.9,-365.04 38.78,-363.73"/>
</g>
<!-- Node191 -->
<g id="node6" class="node">
<title>Node191</title>
<g id="a_node6"><a xlink:href="structplayrho_1_1IsAddable.html" target="_top" xlink:title="Template for determining if the given types are addable.">
<polygon fill="white" stroke="black" points="127.5,-453 127.5,-483 225.5,-483 225.5,-453 127.5,-453"/>
<text text-anchor="start" x="135.5" y="-471" font-family="Helvetica,sans-Serif" font-size="10.00">playrho::IsAddable</text>
<text text-anchor="middle" x="176.5" y="-460" font-family="Helvetica,sans-Serif" font-size="10.00">&lt; T1, T2, class &gt;</text>
</a>
</g>
</g>
<!-- Node186&#45;&gt;Node191 -->
<g id="edge5" class="edge">
<title>Node186&#45;&gt;Node191</title>
<path fill="none" stroke="midnightblue" d="M39.96,-364.21C50.18,-386.57 70,-423.08 98,-444 106.58,-450.41 116.89,-455.12 127.16,-458.59"/>
<polygon fill="midnightblue" stroke="midnightblue" points="43.05,-362.53 35.83,-354.77 36.63,-365.34 43.05,-362.53"/>
</g>
<!-- Node192 -->
<g id="node7" class="node">
<title>Node192</title>
<g id="a_node7"><a xlink:href="structplayrho_1_1IsArithmetic.html" target="_top" xlink:title="Template for determining if the given type is an &quot;arithmetic&quot; type.">
<polygon fill="white" stroke="black" points="123,-404 123,-434 230,-434 230,-404 123,-404"/>
<text text-anchor="start" x="131" y="-422" font-family="Helvetica,sans-Serif" font-size="10.00">playrho::IsArithmetic</text>
<text text-anchor="middle" x="176.5" y="-411" font-family="Helvetica,sans-Serif" font-size="10.00">&lt; T, class &gt;</text>
</a>
</g>
</g>
<!-- Node186&#45;&gt;Node192 -->
<g id="edge6" class="edge">
<title>Node186&#45;&gt;Node192</title>
<path fill="none" stroke="midnightblue" d="M49.94,-361.35C62.6,-372.16 80.38,-385.95 98,-395 105.77,-398.99 114.32,-402.45 122.82,-405.41"/>
<polygon fill="midnightblue" stroke="midnightblue" points="52.25,-358.71 42.42,-354.75 47.63,-363.97 52.25,-358.71"/>
</g>
<!-- Node193 -->
<g id="node8" class="node">
<title>Node193</title>
<g id="a_node8"><a xlink:href="structplayrho_1_1IsDivisable.html" target="_top" xlink:title="Template for determining if the given types are divisable.">
<polygon fill="white" stroke="black" points="125,-355 125,-385 228,-385 228,-355 125,-355"/>
<text text-anchor="start" x="133" y="-373" font-family="Helvetica,sans-Serif" font-size="10.00">playrho::IsDivisable</text>
<text text-anchor="middle" x="176.5" y="-362" font-family="Helvetica,sans-Serif" font-size="10.00">&lt; T1, T2, class &gt;</text>
</a>
</g>
</g>
<!-- Node186&#45;&gt;Node193 -->
<g id="edge7" class="edge">
<title>Node186&#45;&gt;Node193</title>
<path fill="none" stroke="midnightblue" d="M72.35,-352.03C88.65,-354.87 107.63,-358.18 124.84,-361.17"/>
<polygon fill="midnightblue" stroke="midnightblue" points="72.53,-348.51 62.08,-350.24 71.33,-355.41 72.53,-348.51"/>
</g>
<!-- Node194 -->
<g id="node9" class="node">
<title>Node194</title>
<g id="a_node9"><a xlink:href="structplayrho_1_1IsEqualityComparable.html" target="_top" xlink:title="Template for determining if the given type is an equality comparable type.">
<polygon fill="white" stroke="black" points="101.5,-306 101.5,-336 251.5,-336 251.5,-306 101.5,-306"/>
<text text-anchor="start" x="109.5" y="-324" font-family="Helvetica,sans-Serif" font-size="10.00">playrho::IsEqualityComparable</text>
<text text-anchor="middle" x="176.5" y="-313" font-family="Helvetica,sans-Serif" font-size="10.00">&lt; T1, T2, class &gt;</text>
</a>
</g>
</g>
<!-- Node186&#45;&gt;Node194 -->
<g id="edge8" class="edge">
<title>Node186&#45;&gt;Node194</title>
<path fill="none" stroke="midnightblue" d="M72.04,-338.3C81.23,-336.77 91.29,-335.08 101.4,-333.39"/>
<polygon fill="midnightblue" stroke="midnightblue" points="71.37,-334.87 62.08,-339.97 72.52,-341.77 71.37,-334.87"/>
</g>
<!-- Node195 -->
<g id="node10" class="node">
<title>Node195</title>
<g id="a_node10"><a xlink:href="structplayrho_1_1IsInequalityComparable.html" target="_top" xlink:title="Template for determining if the given type is an inequality comparable type.">
<polygon fill="white" stroke="black" points="98,-257 98,-287 255,-287 255,-257 98,-257"/>
<text text-anchor="start" x="106" y="-275" font-family="Helvetica,sans-Serif" font-size="10.00">playrho::IsInequalityComparable</text>
<text text-anchor="middle" x="176.5" y="-264" font-family="Helvetica,sans-Serif" font-size="10.00">&lt; T1, T2, class &gt;</text>
</a>
</g>
</g>
<!-- Node186&#45;&gt;Node195 -->
<g id="edge9" class="edge">
<title>Node186&#45;&gt;Node195</title>
<path fill="none" stroke="midnightblue" d="M50.9,-328.75C63.56,-318.52 80.97,-305.66 98,-297 105.31,-293.28 113.28,-289.97 121.25,-287.06"/>
<polygon fill="midnightblue" stroke="midnightblue" points="48.43,-326.25 42.96,-335.33 52.9,-331.64 48.43,-326.25"/>
</g>
<!-- Node196 -->
<g id="node11" class="node">
<title>Node196</title>
<g id="a_node11"><a xlink:href="structplayrho_1_1IsMatrix.html" target="_top" xlink:title="Trait class for checking if type is a matrix type.">
<polygon fill="white" stroke="black" points="129,-208 129,-238 224,-238 224,-208 129,-208"/>
<text text-anchor="start" x="137" y="-226" font-family="Helvetica,sans-Serif" font-size="10.00">playrho::IsMatrix&lt;</text>
<text text-anchor="middle" x="176.5" y="-215" font-family="Helvetica,sans-Serif" font-size="10.00"> typename &gt;</text>
</a>
</g>
</g>
<!-- Node186&#45;&gt;Node196 -->
<g id="edge10" class="edge">
<title>Node186&#45;&gt;Node196</title>
<path fill="none" stroke="midnightblue" d="M40.1,-326.23C50.46,-304.38 70.41,-268.66 98,-248 107.05,-241.22 118.02,-236.24 128.81,-232.59"/>
<polygon fill="midnightblue" stroke="midnightblue" points="36.86,-324.9 35.91,-335.46 43.23,-327.8 36.86,-324.9"/>
</g>
<!-- Node197 -->
<g id="node12" class="node">
<title>Node197</title>
<g id="a_node12"><a xlink:href="structplayrho_1_1IsMultipliable.html" target="_top" xlink:title="Template for determining if the given types are multipliable.">
<polygon fill="white" stroke="black" points="121,-159 121,-189 232,-189 232,-159 121,-159"/>
<text text-anchor="start" x="129" y="-177" font-family="Helvetica,sans-Serif" font-size="10.00">playrho::IsMultipliable</text>
<text text-anchor="middle" x="176.5" y="-166" font-family="Helvetica,sans-Serif" font-size="10.00">&lt; T1, T2, class &gt;</text>
</a>
</g>
</g>
<!-- Node186&#45;&gt;Node197 -->
<g id="edge11" class="edge">
<title>Node186&#45;&gt;Node197</title>
<path fill="none" stroke="midnightblue" d="M35.63,-325.12C42.37,-293.84 59.76,-233.17 98,-199 104.54,-193.16 112.45,-188.68 120.7,-185.25"/>
<polygon fill="midnightblue" stroke="midnightblue" points="32.14,-324.72 33.61,-335.22 39,-326.1 32.14,-324.72"/>
</g>
<!-- Node198 -->
<g id="node13" class="node">
<title>Node198</title>
<g id="a_node13"><a xlink:href="structplayrho_1_1IsSquareMatrix.html" target="_top" xlink:title="Trait class for checking if type is a square matrix type.">
<polygon fill="white" stroke="black" points="116.5,-110 116.5,-140 236.5,-140 236.5,-110 116.5,-110"/>
<text text-anchor="start" x="124.5" y="-128" font-family="Helvetica,sans-Serif" font-size="10.00">playrho::IsSquareMatrix</text>
<text text-anchor="middle" x="176.5" y="-117" font-family="Helvetica,sans-Serif" font-size="10.00">&lt; typename &gt;</text>
</a>
</g>
</g>
<!-- Node186&#45;&gt;Node198 -->
<g id="edge12" class="edge">
<title>Node186&#45;&gt;Node198</title>
<path fill="none" stroke="midnightblue" d="M33.01,-325.26C36.08,-286.26 48.42,-198.87 98,-150 103.24,-144.84 109.54,-140.74 116.27,-137.49"/>
<polygon fill="midnightblue" stroke="midnightblue" points="29.52,-325.1 32.35,-335.31 36.5,-325.56 29.52,-325.1"/>
</g>
<!-- Node199 -->
<g id="node14" class="node">
<title>Node199</title>
<g id="a_node14"><a xlink:href="structplayrho_1_1IsVector.html" target="_top" xlink:title="Trait class for checking if type is a Vector type.">
<polygon fill="white" stroke="black" points="128,-61 128,-91 225,-91 225,-61 128,-61"/>
<text text-anchor="start" x="136" y="-79" font-family="Helvetica,sans-Serif" font-size="10.00">playrho::IsVector&lt;</text>
<text text-anchor="middle" x="176.5" y="-68" font-family="Helvetica,sans-Serif" font-size="10.00"> typename &gt;</text>
</a>
</g>
</g>
<!-- Node186&#45;&gt;Node199 -->
<g id="edge13" class="edge">
<title>Node186&#45;&gt;Node199</title>
<path fill="none" stroke="midnightblue" d="M31.4,-324.87C31.16,-278.82 37.15,-164.84 98,-101 106,-92.61 116.82,-87.03 127.85,-83.32"/>
<polygon fill="midnightblue" stroke="midnightblue" points="27.91,-325.1 31.57,-335.04 34.9,-324.99 27.91,-325.1"/>
</g>
<!-- Node200 -->
<g id="node15" class="node">
<title>Node200</title>
<g id="a_node15"><a xlink:href="structplayrho_1_1propagate__const_1_1is__propagate__const.html" target="_top" xlink:title="Trait for detecting that the given type is not this one.">
<polygon fill="white" stroke="black" points="111,-0.5 111,-41.5 242,-41.5 242,-0.5 111,-0.5"/>
<text text-anchor="start" x="119" y="-29.5" font-family="Helvetica,sans-Serif" font-size="10.00">playrho::propagate</text>
<text text-anchor="start" x="119" y="-18.5" font-family="Helvetica,sans-Serif" font-size="10.00">_const&lt; T &gt;::is_propagate</text>
<text text-anchor="middle" x="176.5" y="-7.5" font-family="Helvetica,sans-Serif" font-size="10.00">_const&lt; U &gt;</text>
</a>
</g>
</g>
<!-- Node186&#45;&gt;Node200 -->
<g id="edge14" class="edge">
<title>Node186&#45;&gt;Node200</title>
<path fill="none" stroke="midnightblue" d="M34.06,-325.24C40.53,-266.43 62.24,-93.94 98,-52 101.67,-47.7 106.01,-43.99 110.75,-40.79"/>
<polygon fill="midnightblue" stroke="midnightblue" points="30.55,-325.1 32.96,-335.42 37.51,-325.85 30.55,-325.1"/>
</g>
</g>
</svg>
