<?xml version="1.0" encoding="UTF-8" standalone="no"?>
<!DOCTYPE svg PUBLIC "-//W3C//DTD SVG 1.1//EN"
 "http://www.w3.org/Graphics/SVG/1.1/DTD/svg11.dtd">
<!-- Generated by graphviz version 2.40.1 (20161225.0304)
 -->
<!-- Title: Graphical Class Hierarchy Pages: 1 -->
<svg width="258pt" height="141pt"
 viewBox="0.00 0.00 257.50 141.00" xmlns="http://www.w3.org/2000/svg" xmlns:xlink="http://www.w3.org/1999/xlink">
<g id="graph0" class="graph" transform="scale(1 1) rotate(0) translate(4 137)">
<title>Graphical Class Hierarchy</title>
<polygon fill="#ffffff" stroke="transparent" points="-4,4 -4,-137 253.5039,-137 253.5039,4 -4,4"/>
<!-- Node145 -->
<g id="node1" class="node">
<title>Node145</title>
<polygon fill="#ffffff" stroke="#bfbfbf" points="0,-52.5 0,-70.5 92.1621,-70.5 92.1621,-52.5 0,-52.5"/>
<text text-anchor="middle" x="46.0811" y="-58.5" font-family="Helvetica,sans-Serif" font-size="10.00" fill="#000000">integral_constant</text>
</g>
<!-- Node0 -->
<g id="node2" class="node">
<title>Node0</title>
<g id="a_node2"><a xlink:href="classstd_1_1tuple__size_3_01playrho_1_1ArrayList_3_01T_00_01N_00_01SIZE__TYPE_01_4_01_4.html" target="_top" xlink:title="Tuple size specialization for ArrayList classes. ">
<polygon fill="#ffffff" stroke="#000000" points="128.1621,-94.5 128.1621,-132.5 249.5039,-132.5 249.5039,-94.5 128.1621,-94.5"/>
<text text-anchor="start" x="136.1621" y="-120.5" font-family="Helvetica,sans-Serif" font-size="10.00" fill="#000000">std::tuple_size&lt; playrho</text>
<text text-anchor="start" x="136.1621" y="-110.5" font-family="Helvetica,sans-Serif" font-size="10.00" fill="#000000">::ArrayList&lt; T, N, SIZE</text>
<text text-anchor="middle" x="188.833" y="-100.5" font-family="Helvetica,sans-Serif" font-size="10.00" fill="#000000">_TYPE &gt; &gt;</text>
</a>
</g>
</g>
<!-- Node145&#45;&gt;Node0 -->
<g id="edge1" class="edge">
<title>Node145&#45;&gt;Node0</title>
<path fill="none" stroke="#191970" d="M80.357,-73.9856C97.1582,-80.1058 117.7579,-87.6096 136.4754,-94.4278"/>
<polygon fill="#191970" stroke="#191970" points="81.5405,-70.6918 70.9465,-70.5577 79.1446,-77.2691 81.5405,-70.6918"/>
</g>
<!-- Node147 -->
<g id="node3" class="node">
<title>Node147</title>
<g id="a_node3"><a xlink:href="classstd_1_1tuple__size_3_01playrho_1_1d2_1_1UnitVec_01_4.html" target="_top" xlink:title="Tuple size info for playrho::d2::UnitVec. ">
<polygon fill="#ffffff" stroke="#000000" points="128.1621,-47.5 128.1621,-75.5 249.5039,-75.5 249.5039,-47.5 128.1621,-47.5"/>
<text text-anchor="start" x="136.1621" y="-63.5" font-family="Helvetica,sans-Serif" font-size="10.00" fill="#000000">std::tuple_size&lt; playrho</text>
<text text-anchor="middle" x="188.833" y="-53.5" font-family="Helvetica,sans-Serif" font-size="10.00" fill="#000000">::d2::UnitVec &gt;</text>
</a>
</g>
</g>
<!-- Node145&#45;&gt;Node147 -->
<g id="edge2" class="edge">
<title>Node145&#45;&gt;Node147</title>
<path fill="none" stroke="#191970" d="M102.5233,-61.5C110.9447,-61.5 119.6564,-61.5 128.1607,-61.5"/>
<polygon fill="#191970" stroke="#191970" points="102.4286,-58.0001 92.4285,-61.5 102.4285,-65.0001 102.4286,-58.0001"/>
</g>
<!-- Node148 -->
<g id="node4" class="node">
<title>Node148</title>
<g id="a_node4"><a xlink:href="classstd_1_1tuple__size_3_01playrho_1_1Vector_3_01T_00_01N_01_4_01_4.html" target="_top" xlink:title="Tuple size info for playrho::Vector ">
<polygon fill="#ffffff" stroke="#000000" points="128.1621,-.5 128.1621,-28.5 249.5039,-28.5 249.5039,-.5 128.1621,-.5"/>
<text text-anchor="start" x="136.1621" y="-16.5" font-family="Helvetica,sans-Serif" font-size="10.00" fill="#000000">std::tuple_size&lt; playrho</text>
<text text-anchor="middle" x="188.833" y="-6.5" font-family="Helvetica,sans-Serif" font-size="10.00" fill="#000000">::Vector&lt; T, N &gt; &gt;</text>
</a>
</g>
</g>
<!-- Node145&#45;&gt;Node148 -->
<g id="edge3" class="edge">
<title>Node145&#45;&gt;Node148</title>
<path fill="none" stroke="#191970" d="M83.2517,-49.2619C102.5405,-42.9111 126.1942,-35.1233 146.2202,-28.5299"/>
<polygon fill="#191970" stroke="#191970" points="82.0089,-45.9861 73.6051,-52.4379 84.1981,-52.635 82.0089,-45.9861"/>
</g>
</g>
</svg>
