<?xml version="1.0" encoding="UTF-8" standalone="no"?>
<!DOCTYPE svg PUBLIC "-//W3C//DTD SVG 1.1//EN"
 "http://www.w3.org/Graphics/SVG/1.1/DTD/svg11.dtd">
<!-- Generated by graphviz version 2.40.1 (20161225.0304)
 -->
<!-- Title: Graphical Class Hierarchy Pages: 1 -->
<svg width="227pt" height="366pt"
 viewBox="0.00 0.00 227.19 366.00" xmlns="http://www.w3.org/2000/svg" xmlns:xlink="http://www.w3.org/1999/xlink">
<g id="graph0" class="graph" transform="scale(1 1) rotate(0) translate(4 362)">
<title>Graphical Class Hierarchy</title>
<polygon fill="#ffffff" stroke="transparent" points="-4,4 -4,-362 223.1865,-362 223.1865,4 -4,4"/>
<!-- Node162 -->
<g id="node1" class="node">
<title>Node162</title>
<polygon fill="#ffffff" stroke="#bfbfbf" points="0,-169.5 0,-187.5 61.5859,-187.5 61.5859,-169.5 0,-169.5"/>
<text text-anchor="middle" x="30.793" y="-175.5" font-family="Helvetica,sans-Serif" font-size="10.00" fill="#000000">false_type</text>
</g>
<!-- Node0 -->
<g id="node2" class="node">
<title>Node0</title>
<g id="a_node2"><a xlink:href="structplayrho_1_1HasOne.html" target="_top" xlink:title="playrho::HasOne\&lt; T,\l class \&gt;">
<polygon fill="#ffffff" stroke="#000000" points="104.7563,-329.5 104.7563,-357.5 212.0161,-357.5 212.0161,-329.5 104.7563,-329.5"/>
<text text-anchor="start" x="112.7563" y="-345.5" font-family="Helvetica,sans-Serif" font-size="10.00" fill="#000000">playrho::HasOne&lt; T,</text>
<text text-anchor="middle" x="158.3862" y="-335.5" font-family="Helvetica,sans-Serif" font-size="10.00" fill="#000000"> class &gt;</text>
</a>
</g>
</g>
<!-- Node162&#45;&gt;Node0 -->
<g id="edge1" class="edge">
<title>Node162&#45;&gt;Node0</title>
<path fill="none" stroke="#191970" d="M34.8852,-197.587C42.2922,-227.7186 60.6967,-286.3821 97.5859,-320.5 101.3143,-323.9483 105.6106,-326.895 110.1599,-329.4098"/>
<polygon fill="#191970" stroke="#191970" points="38.2274,-196.5039 32.5693,-187.5464 31.4065,-198.0772 38.2274,-196.5039"/>
</g>
<!-- Node164 -->
<g id="node3" class="node">
<title>Node164</title>
<g id="a_node3"><a xlink:href="structplayrho_1_1HasType_3_01T_00_01std_1_1tuple_3_4_01_4.html" target="_top" xlink:title="Has&#45;type trait template class specialized for std::tuple classes. ">
<polygon fill="#ffffff" stroke="#000000" points="103.3647,-282.5 103.3647,-310.5 213.4077,-310.5 213.4077,-282.5 103.3647,-282.5"/>
<text text-anchor="start" x="111.3647" y="-298.5" font-family="Helvetica,sans-Serif" font-size="10.00" fill="#000000">playrho::HasType&lt; T,</text>
<text text-anchor="middle" x="158.3862" y="-288.5" font-family="Helvetica,sans-Serif" font-size="10.00" fill="#000000"> std::tuple&lt;&gt; &gt;</text>
</a>
</g>
</g>
<!-- Node162&#45;&gt;Node164 -->
<g id="edge2" class="edge">
<title>Node162&#45;&gt;Node164</title>
<path fill="none" stroke="#191970" d="M39.4729,-196.9336C50.3157,-218.1333 70.7545,-252.6834 97.5859,-273.5 101.9551,-276.8898 106.8793,-279.8245 111.9858,-282.3542"/>
<polygon fill="#191970" stroke="#191970" points="42.4925,-195.1428 34.935,-187.7175 36.2125,-198.2351 42.4925,-195.1428"/>
</g>
<!-- Node165 -->
<g id="node4" class="node">
<title>Node165</title>
<g id="a_node4"><a xlink:href="structplayrho_1_1IsArithmetic.html" target="_top" xlink:title="Template for determining if the given type is an &quot;arithmetic&quot; type. ">
<polygon fill="#ffffff" stroke="#000000" points="105.0933,-235.5 105.0933,-263.5 211.6792,-263.5 211.6792,-235.5 105.0933,-235.5"/>
<text text-anchor="start" x="113.0933" y="-251.5" font-family="Helvetica,sans-Serif" font-size="10.00" fill="#000000">playrho::IsArithmetic</text>
<text text-anchor="middle" x="158.3862" y="-241.5" font-family="Helvetica,sans-Serif" font-size="10.00" fill="#000000">&lt; T, class &gt;</text>
</a>
</g>
</g>
<!-- Node162&#45;&gt;Node165 -->
<g id="edge3" class="edge">
<title>Node162&#45;&gt;Node165</title>
<path fill="none" stroke="#191970" d="M49.6396,-194.0894C62.5606,-204.2508 80.4096,-217.2856 97.5859,-226.5 103.6524,-229.7544 110.2799,-232.7638 116.8566,-235.4601"/>
<polygon fill="#191970" stroke="#191970" points="51.5397,-191.1266 41.5504,-187.596 47.1577,-196.5854 51.5397,-191.1266"/>
</g>
<!-- Node166 -->
<g id="node5" class="node">
<title>Node166</title>
<g id="a_node5"><a xlink:href="structplayrho_1_1IsDivisable.html" target="_top" xlink:title="playrho::IsDivisable\l\&lt; T1, T2, class \&gt;">
<polygon fill="#ffffff" stroke="#000000" points="107.0342,-188.5 107.0342,-216.5 209.7383,-216.5 209.7383,-188.5 107.0342,-188.5"/>
<text text-anchor="start" x="115.0342" y="-204.5" font-family="Helvetica,sans-Serif" font-size="10.00" fill="#000000">playrho::IsDivisable</text>
<text text-anchor="middle" x="158.3862" y="-194.5" font-family="Helvetica,sans-Serif" font-size="10.00" fill="#000000">&lt; T1, T2, class &gt;</text>
</a>
</g>
</g>
<!-- Node162&#45;&gt;Node166 -->
<g id="edge4" class="edge">
<title>Node162&#45;&gt;Node166</title>
<path fill="none" stroke="#191970" d="M71.6245,-186.1803C82.8399,-188.2899 95.1481,-190.6051 106.8799,-192.8118"/>
<polygon fill="#191970" stroke="#191970" points="72.1544,-182.7187 61.6797,-184.3097 70.8604,-189.5981 72.1544,-182.7187"/>
</g>
<!-- Node167 -->
<g id="node6" class="node">
<title>Node167</title>
<g id="a_node6"><a xlink:href="structplayrho_1_1IsMatrix.html" target="_top" xlink:title="Trait class for checking if type is a matrix type. ">
<polygon fill="#ffffff" stroke="#000000" points="110.7891,-141.5 110.7891,-169.5 205.9834,-169.5 205.9834,-141.5 110.7891,-141.5"/>
<text text-anchor="start" x="118.7891" y="-157.5" font-family="Helvetica,sans-Serif" font-size="10.00" fill="#000000">playrho::IsMatrix&lt;</text>
<text text-anchor="middle" x="158.3862" y="-147.5" font-family="Helvetica,sans-Serif" font-size="10.00" fill="#000000"> typename &gt;</text>
</a>
</g>
</g>
<!-- Node162&#45;&gt;Node167 -->
<g id="edge5" class="edge">
<title>Node162&#45;&gt;Node167</title>
<path fill="none" stroke="#191970" d="M71.6693,-171.1316C83.9876,-168.9111 97.6207,-166.4536 110.3589,-164.1574"/>
<polygon fill="#191970" stroke="#191970" points="70.9002,-167.7138 61.6797,-172.9323 72.1421,-174.6027 70.9002,-167.7138"/>
</g>
<!-- Node168 -->
<g id="node7" class="node">
<title>Node168</title>
<g id="a_node7"><a xlink:href="structplayrho_1_1IsMultipliable.html" target="_top" xlink:title="playrho::IsMultipliable\l\&lt; T1, T2, class \&gt;">
<polygon fill="#ffffff" stroke="#000000" points="102.3076,-94.5 102.3076,-122.5 214.4648,-122.5 214.4648,-94.5 102.3076,-94.5"/>
<text text-anchor="start" x="110.3076" y="-110.5" font-family="Helvetica,sans-Serif" font-size="10.00" fill="#000000">playrho::IsMultipliable</text>
<text text-anchor="middle" x="158.3862" y="-100.5" font-family="Helvetica,sans-Serif" font-size="10.00" fill="#000000">&lt; T1, T2, class &gt;</text>
</a>
</g>
</g>
<!-- Node162&#45;&gt;Node168 -->
<g id="edge6" class="edge">
<title>Node162&#45;&gt;Node168</title>
<path fill="none" stroke="#191970" d="M50.7152,-162.999C63.6109,-153.4227 81.0279,-141.3219 97.5859,-132.5 104.2963,-128.9248 111.6588,-125.5771 118.8725,-122.5827"/>
<polygon fill="#191970" stroke="#191970" points="48.4409,-160.3307 42.5759,-169.1541 52.6631,-165.914 48.4409,-160.3307"/>
</g>
<!-- Node169 -->
<g id="node8" class="node">
<title>Node169</title>
<g id="a_node8"><a xlink:href="structplayrho_1_1IsSquareMatrix.html" target="_top" xlink:title="Trait class for checking if type is a square matrix type. ">
<polygon fill="#ffffff" stroke="#000000" points="97.5859,-47.5 97.5859,-75.5 219.1865,-75.5 219.1865,-47.5 97.5859,-47.5"/>
<text text-anchor="start" x="105.5859" y="-63.5" font-family="Helvetica,sans-Serif" font-size="10.00" fill="#000000">playrho::IsSquareMatrix</text>
<text text-anchor="middle" x="158.3862" y="-53.5" font-family="Helvetica,sans-Serif" font-size="10.00" fill="#000000">&lt; typename &gt;</text>
</a>
</g>
</g>
<!-- Node162&#45;&gt;Node169 -->
<g id="edge7" class="edge">
<title>Node162&#45;&gt;Node169</title>
<path fill="none" stroke="#191970" d="M39.7894,-160.2079C50.8134,-139.4954 71.3097,-105.9757 97.5859,-85.5 102.5092,-81.6636 108.1234,-78.3678 113.9044,-75.5575"/>
<polygon fill="#191970" stroke="#191970" points="36.6091,-158.7392 35.1547,-169.2338 42.8361,-161.9368 36.6091,-158.7392"/>
</g>
<!-- Node170 -->
<g id="node9" class="node">
<title>Node170</title>
<g id="a_node9"><a xlink:href="structplayrho_1_1IsVector.html" target="_top" xlink:title="Trait class for checking if type is a Vector type. ">
<polygon fill="#ffffff" stroke="#000000" points="110.2227,-.5 110.2227,-28.5 206.5498,-28.5 206.5498,-.5 110.2227,-.5"/>
<text text-anchor="start" x="118.2227" y="-16.5" font-family="Helvetica,sans-Serif" font-size="10.00" fill="#000000">playrho::IsVector&lt;</text>
<text text-anchor="middle" x="158.3862" y="-6.5" font-family="Helvetica,sans-Serif" font-size="10.00" fill="#000000"> typename &gt;</text>
</a>
</g>
</g>
<!-- Node162&#45;&gt;Node170 -->
<g id="edge8" class="edge">
<title>Node162&#45;&gt;Node170</title>
<path fill="none" stroke="#191970" d="M35.1301,-159.3108C42.7929,-129.5588 61.4453,-72.2226 97.5859,-38.5 101.7345,-34.629 106.5819,-31.3546 111.6969,-28.5913"/>
<polygon fill="#191970" stroke="#191970" points="31.6737,-158.7129 32.7177,-169.2561 38.4764,-160.363 31.6737,-158.7129"/>
</g>
</g>
</svg>
