<?xml version="1.0" encoding="UTF-8" standalone="no"?>
<!DOCTYPE svg PUBLIC "-//W3C//DTD SVG 1.1//EN"
 "http://www.w3.org/Graphics/SVG/1.1/DTD/svg11.dtd">
<!-- Generated by graphviz version 2.40.1 (20161225.0304)
 -->
<!-- Title: Graphical Class Hierarchy Pages: 1 -->
<svg width="236pt" height="436pt"
 viewBox="0.00 0.00 235.54 436.00" xmlns="http://www.w3.org/2000/svg" xmlns:xlink="http://www.w3.org/1999/xlink">
<g id="graph0" class="graph" transform="scale(1 1) rotate(0) translate(4 432)">
<title>Graphical Class Hierarchy</title>
<polygon fill="#ffffff" stroke="transparent" points="-4,4 -4,-432 231.5361,-432 231.5361,4 -4,4"/>
<!-- Node41 -->
<g id="node1" class="node">
<title>Node41</title>
<polygon fill="#ffffff" stroke="#bfbfbf" points="0,-199.5 0,-217.5 57.6943,-217.5 57.6943,-199.5 0,-199.5"/>
<text text-anchor="middle" x="28.8472" y="-205.5" font-family="Helvetica,sans-Serif" font-size="10.00" fill="#000000">true_type</text>
</g>
<!-- Node0 -->
<g id="node2" class="node">
<title>Node0</title>
<g id="a_node2"><a xlink:href="structplayrho_1_1HasOne_3_01T_00_01VoidT_3_01decltype_07T_021_03_08_01_4_01_4.html" target="_top" xlink:title="Template specialization for valid/acceptable &quot;arithmetic&quot; types. ">
<polygon fill="#ffffff" stroke="#000000" points="94.3828,-399.5 94.3828,-427.5 226.8477,-427.5 226.8477,-399.5 94.3828,-399.5"/>
<text text-anchor="start" x="102.3828" y="-415.5" font-family="Helvetica,sans-Serif" font-size="10.00" fill="#000000">playrho::HasOne&lt; T,</text>
<text text-anchor="middle" x="160.6152" y="-405.5" font-family="Helvetica,sans-Serif" font-size="10.00" fill="#000000"> VoidT&lt; decltype(T{1}) &gt; &gt;</text>
</a>
</g>
</g>
<!-- Node41&#45;&gt;Node0 -->
<g id="edge1" class="edge">
<title>Node41&#45;&gt;Node0</title>
<path fill="none" stroke="#191970" d="M30.3264,-227.8137C34.1657,-264.5675 47.637,-344.9573 93.6943,-390.5 97.1886,-393.9552 101.2247,-396.8922 105.548,-399.3885"/>
<polygon fill="#191970" stroke="#191970" points="33.781,-227.1551 29.3892,-217.5134 26.8098,-227.7895 33.781,-227.1551"/>
</g>
<!-- Node43 -->
<g id="node3" class="node">
<title>Node43</title>
<g id="a_node3"><a xlink:href="structplayrho_1_1HasType_3_01T_00_01std_1_1tuple_3_01T_00_01Ts_8_8_8_01_4_01_4.html" target="_top" xlink:title="Has&#45;type trait true class. ">
<polygon fill="#ffffff" stroke="#000000" points="103.7383,-352.5 103.7383,-380.5 217.4922,-380.5 217.4922,-352.5 103.7383,-352.5"/>
<text text-anchor="start" x="111.7383" y="-368.5" font-family="Helvetica,sans-Serif" font-size="10.00" fill="#000000">playrho::HasType&lt; T,</text>
<text text-anchor="middle" x="160.6152" y="-358.5" font-family="Helvetica,sans-Serif" font-size="10.00" fill="#000000"> std::tuple&lt; T, Ts... &gt; &gt;</text>
</a>
</g>
</g>
<!-- Node41&#45;&gt;Node43 -->
<g id="edge2" class="edge">
<title>Node41&#45;&gt;Node43</title>
<path fill="none" stroke="#191970" d="M33.0173,-227.5797C40.3322,-256.6346 58.1929,-311.9193 93.6943,-343.5 97.5495,-346.9294 101.941,-349.8527 106.5891,-352.3435"/>
<polygon fill="#191970" stroke="#191970" points="36.3454,-226.4433 30.6451,-217.5126 29.532,-228.0488 36.3454,-226.4433"/>
</g>
<!-- Node44 -->
<g id="node4" class="node">
<title>Node44</title>
<g id="a_node4"><a xlink:href="structplayrho_1_1IsArithmetic_3_01T_00_01VoidT_3_01decltype_07T_02_03_09T_02_03_08_00_01decltype0b2e449314e00fef5ceeea648917bc10.html" target="_top" xlink:title="Template specialization for valid/acceptable &quot;arithmetic&quot; types. ">
<polygon fill="#ffffff" stroke="#000000" points="93.6943,-275.5 93.6943,-333.5 227.5361,-333.5 227.5361,-275.5 93.6943,-275.5"/>
<text text-anchor="start" x="101.6943" y="-321.5" font-family="Helvetica,sans-Serif" font-size="10.00" fill="#000000">playrho::IsArithmetic</text>
<text text-anchor="start" x="101.6943" y="-311.5" font-family="Helvetica,sans-Serif" font-size="10.00" fill="#000000">&lt; T, VoidT&lt; decltype</text>
<text text-anchor="start" x="101.6943" y="-301.5" font-family="Helvetica,sans-Serif" font-size="10.00" fill="#000000">(T{}+T{}), decltype(T</text>
<text text-anchor="start" x="101.6943" y="-291.5" font-family="Helvetica,sans-Serif" font-size="10.00" fill="#000000">{} &#45; T{}), decltype(T{}</text>
<text text-anchor="middle" x="160.6152" y="-281.5" font-family="Helvetica,sans-Serif" font-size="10.00" fill="#000000"> *T{}), decltype(T{}/T{}) &gt; &gt;</text>
</a>
</g>
</g>
<!-- Node41&#45;&gt;Node44 -->
<g id="edge3" class="edge">
<title>Node41&#45;&gt;Node44</title>
<path fill="none" stroke="#191970" d="M45.4151,-225.1266C58.0429,-237.3373 76.1865,-253.9195 93.6943,-266.5 97.9258,-269.5406 102.4212,-272.5367 107.0018,-275.4313"/>
<polygon fill="#191970" stroke="#191970" points="47.5625,-222.3298 37.9755,-217.8197 42.6574,-227.3239 47.5625,-222.3298"/>
</g>
<!-- Node45 -->
<g id="node5" class="node">
<title>Node45</title>
<g id="a_node5"><a xlink:href="structplayrho_1_1IsDivisable_3_01T1_00_01T2_00_01VoidT_3_01decltype_07T1_02_03_2T2_02_03_08_4_01_4.html" target="_top" xlink:title="playrho::IsDivisable\l\&lt; T1, T2, VoidT\&lt; decltype\l(T1\{\}/T2\{\})\&gt; \&gt;">
<polygon fill="#ffffff" stroke="#000000" points="95.5352,-218.5 95.5352,-256.5 225.6953,-256.5 225.6953,-218.5 95.5352,-218.5"/>
<text text-anchor="start" x="103.5352" y="-244.5" font-family="Helvetica,sans-Serif" font-size="10.00" fill="#000000">playrho::IsDivisable</text>
<text text-anchor="start" x="103.5352" y="-234.5" font-family="Helvetica,sans-Serif" font-size="10.00" fill="#000000">&lt; T1, T2, VoidT&lt; decltype</text>
<text text-anchor="middle" x="160.6152" y="-224.5" font-family="Helvetica,sans-Serif" font-size="10.00" fill="#000000">(T1{}/T2{})&gt; &gt;</text>
</a>
</g>
</g>
<!-- Node41&#45;&gt;Node45 -->
<g id="edge4" class="edge">
<title>Node41&#45;&gt;Node45</title>
<path fill="none" stroke="#191970" d="M67.608,-217.0306C76.3344,-218.9512 85.8299,-221.041 95.3095,-223.1273"/>
<polygon fill="#191970" stroke="#191970" points="68.2828,-213.5955 57.7642,-214.8642 66.7782,-220.4318 68.2828,-213.5955"/>
</g>
<!-- Node46 -->
<g id="node6" class="node">
<title>Node46</title>
<g id="a_node6"><a xlink:href="structplayrho_1_1IsMatrix_3_01Vector_3_01Vector_3_01T_00_01N_01_4_00_01M_01_4_01_4.html" target="_top" xlink:title="Trait class specialization for checking if type is a matrix type. ">
<polygon fill="#ffffff" stroke="#000000" points="110.4521,-161.5 110.4521,-199.5 210.7783,-199.5 210.7783,-161.5 110.4521,-161.5"/>
<text text-anchor="start" x="118.4521" y="-187.5" font-family="Helvetica,sans-Serif" font-size="10.00" fill="#000000">playrho::IsMatrix&lt;</text>
<text text-anchor="start" x="118.4521" y="-177.5" font-family="Helvetica,sans-Serif" font-size="10.00" fill="#000000"> Vector&lt; Vector&lt; T,</text>
<text text-anchor="middle" x="160.6152" y="-167.5" font-family="Helvetica,sans-Serif" font-size="10.00" fill="#000000"> N &gt;, M &gt; &gt;</text>
</a>
</g>
</g>
<!-- Node41&#45;&gt;Node46 -->
<g id="edge5" class="edge">
<title>Node41&#45;&gt;Node46</title>
<path fill="none" stroke="#191970" d="M67.5809,-200.2693C80.9391,-197.4308 96.1021,-194.2087 110.2523,-191.2019"/>
<polygon fill="#191970" stroke="#191970" points="66.8183,-196.8531 57.7642,-202.3553 68.2733,-203.7002 66.8183,-196.8531"/>
</g>
<!-- Node47 -->
<g id="node7" class="node">
<title>Node47</title>
<g id="a_node7"><a xlink:href="structplayrho_1_1IsMultipliable_3_01T1_00_01T2_00_01VoidT_3_01decltype_07T1_02_03_01_5T2_02_03_08_4_01_4.html" target="_top" xlink:title="playrho::IsMultipliable\l\&lt; T1, T2, VoidT\&lt; decltype\l(T1\{\} *T2\{\})\&gt; \&gt;">
<polygon fill="#ffffff" stroke="#000000" points="95.5352,-104.5 95.5352,-142.5 225.6953,-142.5 225.6953,-104.5 95.5352,-104.5"/>
<text text-anchor="start" x="103.5352" y="-130.5" font-family="Helvetica,sans-Serif" font-size="10.00" fill="#000000">playrho::IsMultipliable</text>
<text text-anchor="start" x="103.5352" y="-120.5" font-family="Helvetica,sans-Serif" font-size="10.00" fill="#000000">&lt; T1, T2, VoidT&lt; decltype</text>
<text text-anchor="middle" x="160.6152" y="-110.5" font-family="Helvetica,sans-Serif" font-size="10.00" fill="#000000">(T1{} *T2{})&gt; &gt;</text>
</a>
</g>
</g>
<!-- Node41&#45;&gt;Node47 -->
<g id="edge6" class="edge">
<title>Node41&#45;&gt;Node47</title>
<path fill="none" stroke="#191970" d="M45.1368,-191.9432C57.6235,-179.8983 75.7125,-163.7892 93.6943,-152.5 99.378,-148.9317 105.5767,-145.5979 111.8334,-142.5545"/>
<polygon fill="#191970" stroke="#191970" points="42.4608,-189.6665 37.7977,-199.1799 47.3757,-194.6509 42.4608,-189.6665"/>
</g>
<!-- Node48 -->
<g id="node8" class="node">
<title>Node48</title>
<g id="a_node8"><a xlink:href="structplayrho_1_1IsSquareMatrix_3_01Vector_3_01Vector_3_01T_00_01M_01_4_00_01M_01_4_01_4.html" target="_top" xlink:title="Trait class specialization for checking if type is a square matrix type. ">
<polygon fill="#ffffff" stroke="#000000" points="99.8149,-47.5 99.8149,-85.5 221.4155,-85.5 221.4155,-47.5 99.8149,-47.5"/>
<text text-anchor="start" x="107.8149" y="-73.5" font-family="Helvetica,sans-Serif" font-size="10.00" fill="#000000">playrho::IsSquareMatrix</text>
<text text-anchor="start" x="107.8149" y="-63.5" font-family="Helvetica,sans-Serif" font-size="10.00" fill="#000000">&lt; Vector&lt; Vector&lt; T, M</text>
<text text-anchor="middle" x="160.6152" y="-53.5" font-family="Helvetica,sans-Serif" font-size="10.00" fill="#000000"> &gt;, M &gt; &gt;</text>
</a>
</g>
</g>
<!-- Node41&#45;&gt;Node48 -->
<g id="edge7" class="edge">
<title>Node41&#45;&gt;Node48</title>
<path fill="none" stroke="#191970" d="M35.3367,-189.6809C44.695,-165.0416 64.1662,-121.8916 93.6943,-95.5 97.8483,-91.7873 102.5513,-88.4941 107.4918,-85.5859"/>
<polygon fill="#191970" stroke="#191970" points="31.9712,-188.6949 31.8467,-199.289 38.5506,-191.0848 31.9712,-188.6949"/>
</g>
<!-- Node49 -->
<g id="node9" class="node">
<title>Node49</title>
<g id="a_node9"><a xlink:href="structplayrho_1_1IsVector_3_01Vector_3_01T_00_01N_01_4_01_4.html" target="_top" xlink:title="Trait class specialization for checking if type is a Vector type.. ">
<polygon fill="#ffffff" stroke="#000000" points="112.4517,-.5 112.4517,-28.5 208.7788,-28.5 208.7788,-.5 112.4517,-.5"/>
<text text-anchor="start" x="120.4517" y="-16.5" font-family="Helvetica,sans-Serif" font-size="10.00" fill="#000000">playrho::IsVector&lt;</text>
<text text-anchor="middle" x="160.6152" y="-6.5" font-family="Helvetica,sans-Serif" font-size="10.00" fill="#000000"> Vector&lt; T, N &gt; &gt;</text>
</a>
</g>
</g>
<!-- Node41&#45;&gt;Node49 -->
<g id="edge8" class="edge">
<title>Node41&#45;&gt;Node49</title>
<path fill="none" stroke="#191970" d="M30.9726,-189.0633C35.7991,-154.1669 50.7259,-80.6145 93.6943,-38.5 98.9832,-33.3162 105.469,-29.244 112.3001,-26.047"/>
<polygon fill="#191970" stroke="#191970" points="27.4587,-188.959 29.6972,-199.3146 34.4052,-189.8233 27.4587,-188.959"/>
</g>
</g>
</svg>
