<?xml version="1.0" encoding="UTF-8" standalone="no"?>
<!DOCTYPE svg PUBLIC "-//W3C//DTD SVG 1.1//EN"
 "http://www.w3.org/Graphics/SVG/1.1/DTD/svg11.dtd">
<!-- Generated by graphviz version 2.44.1 (20200629.0846)
 -->
<!-- Title: playrho::d2::TargetJointConf Pages: 1 -->
<svg width="1445pt" height="530pt"
 viewBox="0.00 0.00 1445.00 529.79" xmlns="http://www.w3.org/2000/svg" xmlns:xlink="http://www.w3.org/1999/xlink">
<g id="graph0" class="graph" transform="scale(1 1) rotate(0) translate(4 525.79)">
<title>playrho::d2::TargetJointConf</title>
<polygon fill="white" stroke="transparent" points="-4,4 -4,-525.79 1441,-525.79 1441,4 -4,4"/>
<!-- Node1 -->
<g id="node1" class="node">
<title>Node1</title>
<g id="a_node1"><a xlink:title="Target joint definition.">
<polygon fill="#bfbfbf" stroke="black" points="1297,-238.5 1297,-257.5 1437,-257.5 1437,-238.5 1297,-238.5"/>
<text text-anchor="middle" x="1367" y="-245.5" font-family="Helvetica,sans-Serif" font-size="10.00">playrho::d2::TargetJointConf</text>
</a>
</g>
</g>
<!-- Node2 -->
<g id="node2" class="node">
<title>Node2</title>
<g id="a_node2"><a xlink:href="structplayrho_1_1d2_1_1JointBuilder.html" target="_top" xlink:title=" ">
<polygon fill="white" stroke="black" points="1055,-480 1055,-510 1177,-510 1177,-480 1055,-480"/>
<text text-anchor="start" x="1063" y="-498" font-family="Helvetica,sans-Serif" font-size="10.00">playrho::d2::JointBuilder</text>
<text text-anchor="middle" x="1116" y="-487" font-family="Helvetica,sans-Serif" font-size="10.00">&lt; TargetJointConf &gt;</text>
</a>
</g>
</g>
<!-- Node2&#45;&gt;Node1 -->
<g id="edge1" class="edge">
<title>Node2&#45;&gt;Node1</title>
<path fill="none" stroke="midnightblue" d="M1157.26,-475.16C1192.37,-456.45 1243.16,-425.8 1279,-389 1320.14,-346.75 1351.18,-281.75 1361.92,-257.53"/>
<polygon fill="midnightblue" stroke="midnightblue" points="1155.47,-472.15 1148.24,-479.89 1158.72,-478.35 1155.47,-472.15"/>
</g>
<!-- Node3 -->
<g id="node3" class="node">
<title>Node3</title>
<g id="a_node3"><a xlink:href="structplayrho_1_1d2_1_1JointConf.html" target="_top" xlink:title="Abstract base joint definition class.">
<polygon fill="white" stroke="black" points="573,-485.5 573,-504.5 686,-504.5 686,-485.5 573,-485.5"/>
<text text-anchor="middle" x="629.5" y="-492.5" font-family="Helvetica,sans-Serif" font-size="10.00">playrho::d2::JointConf</text>
</a>
</g>
</g>
<!-- Node3&#45;&gt;Node2 -->
<g id="edge2" class="edge">
<title>Node3&#45;&gt;Node2</title>
<path fill="none" stroke="midnightblue" d="M686.5,-506.28C692.4,-507.28 698.31,-508.22 704,-509 841.81,-528.01 878.51,-523.1 1017,-510 1029.25,-508.84 1042.3,-507.16 1054.76,-505.34"/>
<polygon fill="midnightblue" stroke="midnightblue" points="687.1,-502.83 676.65,-504.54 685.88,-509.73 687.1,-502.83"/>
</g>
<!-- Node9 -->
<g id="node9" class="node">
<title>Node9</title>
<g id="a_node9"><a xlink:href="structplayrho_1_1d2_1_1JointBuilder.html" target="_top" xlink:title="Joint builder definition structure.">
<polygon fill="white" stroke="black" points="762,-485.5 762,-504.5 908,-504.5 908,-485.5 762,-485.5"/>
<text text-anchor="middle" x="835" y="-492.5" font-family="Helvetica,sans-Serif" font-size="10.00">playrho::d2::JointBuilder&lt; T &gt;</text>
</a>
</g>
</g>
<!-- Node3&#45;&gt;Node9 -->
<g id="edge9" class="edge">
<title>Node3&#45;&gt;Node9</title>
<path fill="none" stroke="midnightblue" d="M696.16,-495C717.06,-495 740.3,-495 761.64,-495"/>
<polygon fill="midnightblue" stroke="midnightblue" points="696.11,-491.5 686.11,-495 696.11,-498.5 696.11,-491.5"/>
</g>
<!-- Node4 -->
<g id="node4" class="node">
<title>Node4</title>
<g id="a_node4"><a xlink:href="classplayrho_1_1strongtype_1_1IndexingNamedType.html" target="_top" xlink:title=" ">
<polygon fill="white" stroke="black" points="345,-414 345,-466 458,-466 458,-414 345,-414"/>
<text text-anchor="start" x="353" y="-454" font-family="Helvetica,sans-Serif" font-size="10.00">playrho::strongtype</text>
<text text-anchor="start" x="353" y="-443" font-family="Helvetica,sans-Serif" font-size="10.00">::IndexingNamedType</text>
<text text-anchor="start" x="353" y="-432" font-family="Helvetica,sans-Serif" font-size="10.00">&lt; BodyCounter, struct</text>
<text text-anchor="middle" x="401.5" y="-421" font-family="Helvetica,sans-Serif" font-size="10.00"> BodyIdentifier &gt;</text>
</a>
</g>
</g>
<!-- Node4&#45;&gt;Node3 -->
<g id="edge3" class="edge">
<title>Node4&#45;&gt;Node3</title>
<path fill="none" stroke="#9a32cd" stroke-dasharray="5,2" d="M468.17,-450.23C495.26,-455.04 526.86,-461.39 555,-469 571.73,-473.52 590.1,-480.02 604.29,-485.39"/>
<polygon fill="#9a32cd" stroke="#9a32cd" points="468.47,-446.73 458.02,-448.47 467.27,-453.63 468.47,-446.73"/>
<text text-anchor="middle" x="515.5" y="-483" font-family="Helvetica,sans-Serif" font-size="10.00"> bodyA</text>
<text text-anchor="middle" x="515.5" y="-472" font-family="Helvetica,sans-Serif" font-size="10.00">bodyB</text>
</g>
<!-- Node5 -->
<g id="node5" class="node">
<title>Node5</title>
<g id="a_node5"><a xlink:title=" ">
<polygon fill="white" stroke="#bfbfbf" points="116,-382.5 116,-401.5 190,-401.5 190,-382.5 116,-382.5"/>
<text text-anchor="middle" x="153" y="-389.5" font-family="Helvetica,sans-Serif" font-size="10.00">BodyCounter</text>
</a>
</g>
</g>
<!-- Node5&#45;&gt;Node4 -->
<g id="edge4" class="edge">
<title>Node5&#45;&gt;Node4</title>
<path fill="none" stroke="#9a32cd" stroke-dasharray="5,2" d="M200.04,-400.62C234.91,-407.18 284,-416.51 327,-425 332.75,-426.14 338.75,-427.33 344.73,-428.54"/>
<polygon fill="#9a32cd" stroke="#9a32cd" points="200.62,-397.16 190.14,-398.75 199.32,-404.04 200.62,-397.16"/>
<text text-anchor="middle" x="277" y="-428" font-family="Helvetica,sans-Serif" font-size="10.00"> value_</text>
</g>
<!-- Node6 -->
<g id="node6" class="node">
<title>Node6</title>
<g id="a_node6"><a xlink:href="classplayrho_1_1strongtype_1_1IndexingNamedType.html" target="_top" xlink:title="An indexable, hashable, named &quot;strong type&quot; template class.">
<polygon fill="white" stroke="black" points="97,-420.5 97,-461.5 209,-461.5 209,-420.5 97,-420.5"/>
<text text-anchor="start" x="105" y="-449.5" font-family="Helvetica,sans-Serif" font-size="10.00">playrho::strongtype</text>
<text text-anchor="start" x="105" y="-438.5" font-family="Helvetica,sans-Serif" font-size="10.00">::IndexingNamedType</text>
<text text-anchor="middle" x="153" y="-427.5" font-family="Helvetica,sans-Serif" font-size="10.00">&lt; T, Tag &gt;</text>
</a>
</g>
</g>
<!-- Node6&#45;&gt;Node4 -->
<g id="edge5" class="edge">
<title>Node6&#45;&gt;Node4</title>
<path fill="none" stroke="orange" stroke-dasharray="5,2" d="M219.24,-440.74C258.34,-440.58 307.53,-440.38 344.8,-440.23"/>
<polygon fill="orange" stroke="orange" points="219,-437.24 209.01,-440.78 219.03,-444.24 219,-437.24"/>
<text text-anchor="start" x="227" y="-454" font-family="Helvetica,sans-Serif" font-size="10.00"> &lt; BodyCounter, struct</text>
<text text-anchor="middle" x="277" y="-443" font-family="Helvetica,sans-Serif" font-size="10.00"> BodyIdentifier &gt;</text>
</g>
<!-- Node7 -->
<g id="node7" class="node">
<title>Node7</title>
<g id="a_node7"><a xlink:title=" ">
<polygon fill="white" stroke="#bfbfbf" points="0,-360.5 0,-379.5 29,-379.5 29,-360.5 0,-360.5"/>
<text text-anchor="middle" x="14.5" y="-367.5" font-family="Helvetica,sans-Serif" font-size="10.00">T</text>
</a>
</g>
</g>
<!-- Node7&#45;&gt;Node6 -->
<g id="edge6" class="edge">
<title>Node7&#45;&gt;Node6</title>
<path fill="none" stroke="#9a32cd" stroke-dasharray="5,2" d="M38.15,-381.78C58.37,-392.3 88.42,-407.93 112.57,-420.49"/>
<polygon fill="#9a32cd" stroke="#9a32cd" points="39.57,-378.58 29.09,-377.07 36.34,-384.79 39.57,-378.58"/>
<text text-anchor="middle" x="63" y="-404" font-family="Helvetica,sans-Serif" font-size="10.00"> value_</text>
</g>
<!-- Node12 -->
<g id="node12" class="node">
<title>Node12</title>
<g id="a_node12"><a xlink:href="structplayrho_1_1Vector.html" target="_top" xlink:title="Vector.">
<polygon fill="white" stroke="black" points="775.5,-344.5 775.5,-363.5 894.5,-363.5 894.5,-344.5 775.5,-344.5"/>
<text text-anchor="middle" x="835" y="-351.5" font-family="Helvetica,sans-Serif" font-size="10.00">playrho::Vector&lt; T, N &gt;</text>
</a>
</g>
</g>
<!-- Node7&#45;&gt;Node12 -->
<g id="edge13" class="edge">
<title>Node7&#45;&gt;Node12</title>
<path fill="none" stroke="#9a32cd" stroke-dasharray="5,2" d="M39.08,-365.54C66.21,-360.81 112.16,-354 152,-354 152,-354 152,-354 630.5,-354 679.26,-354 734.58,-354 775.23,-354"/>
<polygon fill="#9a32cd" stroke="#9a32cd" points="38.22,-362.14 29,-367.36 39.46,-369.03 38.22,-362.14"/>
<text text-anchor="middle" x="401.5" y="-357" font-family="Helvetica,sans-Serif" font-size="10.00"> elements</text>
</g>
<!-- Node8 -->
<g id="node8" class="node">
<title>Node8</title>
<g id="a_node8"><a xlink:title=" ">
<polygon fill="white" stroke="#bfbfbf" points="384,-485.5 384,-504.5 419,-504.5 419,-485.5 384,-485.5"/>
<text text-anchor="middle" x="401.5" y="-492.5" font-family="Helvetica,sans-Serif" font-size="10.00">bool</text>
</a>
</g>
</g>
<!-- Node8&#45;&gt;Node3 -->
<g id="edge7" class="edge">
<title>Node8&#45;&gt;Node3</title>
<path fill="none" stroke="#9a32cd" stroke-dasharray="5,2" d="M429.53,-495C464.72,-495 527.1,-495 572.66,-495"/>
<polygon fill="#9a32cd" stroke="#9a32cd" points="429.12,-491.5 419.12,-495 429.12,-498.5 429.12,-491.5"/>
<text text-anchor="middle" x="515.5" y="-498" font-family="Helvetica,sans-Serif" font-size="10.00"> collideConnected</text>
</g>
<!-- Node9&#45;&gt;Node2 -->
<g id="edge8" class="edge">
<title>Node9&#45;&gt;Node2</title>
<path fill="none" stroke="orange" stroke-dasharray="5,2" d="M918.27,-495C962.06,-495 1014.96,-495 1054.87,-495"/>
<polygon fill="orange" stroke="orange" points="918.21,-491.5 908.21,-495 918.21,-498.5 918.21,-491.5"/>
<text text-anchor="middle" x="971.5" y="-498" font-family="Helvetica,sans-Serif" font-size="10.00"> &lt; TargetJointConf &gt;</text>
</g>
<!-- Node10 -->
<g id="node10" class="node">
<title>Node10</title>
<g id="a_node10"><a xlink:href="structplayrho_1_1Vector.html" target="_top" xlink:title=" ">
<polygon fill="white" stroke="black" points="1051,-342.5 1051,-361.5 1181,-361.5 1181,-342.5 1051,-342.5"/>
<text text-anchor="middle" x="1116" y="-349.5" font-family="Helvetica,sans-Serif" font-size="10.00">playrho::Vector&lt; Length &gt;</text>
</a>
</g>
</g>
<!-- Node10&#45;&gt;Node1 -->
<g id="edge10" class="edge">
<title>Node10&#45;&gt;Node1</title>
<path fill="none" stroke="#9a32cd" stroke-dasharray="5,2" d="M1150.52,-338.63C1183.35,-325.46 1234.75,-304.67 1279,-286 1301.47,-276.52 1327.04,-265.3 1344.61,-257.52"/>
<polygon fill="#9a32cd" stroke="#9a32cd" points="1148.94,-335.49 1140.96,-342.46 1151.54,-341.99 1148.94,-335.49"/>
<text text-anchor="middle" x="1247" y="-336" font-family="Helvetica,sans-Serif" font-size="10.00"> localAnchorB</text>
<text text-anchor="middle" x="1247" y="-325" font-family="Helvetica,sans-Serif" font-size="10.00">rB</text>
<text text-anchor="middle" x="1247" y="-314" font-family="Helvetica,sans-Serif" font-size="10.00">target</text>
</g>
<!-- Node11 -->
<g id="node11" class="node">
<title>Node11</title>
<g id="a_node11"><a xlink:title=" ">
<polygon fill="white" stroke="#bfbfbf" points="812,-409.5 812,-428.5 858,-428.5 858,-409.5 812,-409.5"/>
<text text-anchor="middle" x="835" y="-416.5" font-family="Helvetica,sans-Serif" font-size="10.00">Length</text>
</a>
</g>
</g>
<!-- Node11&#45;&gt;Node10 -->
<g id="edge11" class="edge">
<title>Node11&#45;&gt;Node10</title>
<path fill="none" stroke="#9a32cd" stroke-dasharray="5,2" d="M868.64,-420.77C906.65,-421.4 970.18,-417.89 1017,-392 1027.76,-386.05 1024.51,-377.4 1035,-371 1041.34,-367.13 1048.4,-364.06 1055.63,-361.6"/>
<polygon fill="#9a32cd" stroke="#9a32cd" points="868.27,-417.26 858.18,-420.49 868.07,-424.26 868.27,-417.26"/>
<text text-anchor="middle" x="971.5" y="-420" font-family="Helvetica,sans-Serif" font-size="10.00"> elements</text>
</g>
<!-- Node12&#45;&gt;Node10 -->
<g id="edge12" class="edge">
<title>Node12&#45;&gt;Node10</title>
<path fill="none" stroke="orange" stroke-dasharray="5,2" d="M905,-353.51C949.62,-353.19 1007.29,-352.77 1050.9,-352.46"/>
<polygon fill="orange" stroke="orange" points="904.8,-350.01 894.83,-353.58 904.85,-357.01 904.8,-350.01"/>
<text text-anchor="middle" x="971.5" y="-356" font-family="Helvetica,sans-Serif" font-size="10.00"> &lt; Length &gt;</text>
</g>
<!-- Node13 -->
<g id="node13" class="node">
<title>Node13</title>
<g id="a_node13"><a xlink:href="structplayrho_1_1Vector.html" target="_top" xlink:title=" ">
<polygon fill="white" stroke="black" points="1053.5,-380.5 1053.5,-399.5 1178.5,-399.5 1178.5,-380.5 1053.5,-380.5"/>
<text text-anchor="middle" x="1116" y="-387.5" font-family="Helvetica,sans-Serif" font-size="10.00">playrho::Vector&lt; Mass &gt;</text>
</a>
</g>
</g>
<!-- Node12&#45;&gt;Node13 -->
<g id="edge16" class="edge">
<title>Node12&#45;&gt;Node13</title>
<path fill="none" stroke="orange" stroke-dasharray="5,2" d="M904.95,-363.24C912.06,-364.18 919.17,-365.11 926,-366 968.48,-371.53 1016.34,-377.61 1053.28,-382.26"/>
<polygon fill="orange" stroke="orange" points="904.95,-359.71 894.57,-361.86 904.03,-366.65 904.95,-359.71"/>
<text text-anchor="middle" x="971.5" y="-380" font-family="Helvetica,sans-Serif" font-size="10.00"> &lt; Mass &gt;</text>
</g>
<!-- Node19 -->
<g id="node19" class="node">
<title>Node19</title>
<g id="a_node19"><a xlink:href="structplayrho_1_1Vector.html" target="_top" xlink:title=" ">
<polygon fill="white" stroke="black" points="1035,-238.5 1035,-257.5 1197,-257.5 1197,-238.5 1035,-238.5"/>
<text text-anchor="middle" x="1116" y="-245.5" font-family="Helvetica,sans-Serif" font-size="10.00">playrho::Vector&lt; LinearVelocity &gt;</text>
</a>
</g>
</g>
<!-- Node12&#45;&gt;Node19 -->
<g id="edge23" class="edge">
<title>Node12&#45;&gt;Node19</title>
<path fill="none" stroke="orange" stroke-dasharray="5,2" d="M855.71,-337.93C873.2,-324.41 899.96,-305.49 926,-294 966.32,-276.21 1014.65,-264.61 1052.34,-257.5"/>
<polygon fill="orange" stroke="orange" points="853.14,-335.5 847.46,-344.44 857.47,-340.99 853.14,-335.5"/>
<text text-anchor="middle" x="971.5" y="-297" font-family="Helvetica,sans-Serif" font-size="10.00"> &lt; LinearVelocity &gt;</text>
</g>
<!-- Node21 -->
<g id="node21" class="node">
<title>Node21</title>
<g id="a_node21"><a xlink:href="structplayrho_1_1Vector.html" target="_top" xlink:title=" ">
<polygon fill="white" stroke="black" points="1041.5,-276.5 1041.5,-295.5 1190.5,-295.5 1190.5,-276.5 1041.5,-276.5"/>
<text text-anchor="middle" x="1116" y="-283.5" font-family="Helvetica,sans-Serif" font-size="10.00">playrho::Vector&lt; Momentum &gt;</text>
</a>
</g>
</g>
<!-- Node12&#45;&gt;Node21 -->
<g id="edge26" class="edge">
<title>Node12&#45;&gt;Node21</title>
<path fill="none" stroke="orange" stroke-dasharray="5,2" d="M884.83,-342.1C939.09,-328.87 1025.66,-307.78 1075.73,-295.57"/>
<polygon fill="orange" stroke="orange" points="883.97,-338.7 875.09,-344.47 885.63,-345.51 883.97,-338.7"/>
<text text-anchor="middle" x="971.5" y="-335" font-family="Helvetica,sans-Serif" font-size="10.00"> &lt; Momentum &gt;</text>
</g>
<!-- Node13&#45;&gt;Node1 -->
<g id="edge14" class="edge">
<title>Node13&#45;&gt;Node1</title>
<path fill="none" stroke="#9a32cd" stroke-dasharray="5,2" d="M1188.57,-381.28C1218.25,-375.26 1251.98,-365.1 1279,-348 1317.31,-323.76 1348.18,-277.61 1360.37,-257.62"/>
<polygon fill="#9a32cd" stroke="#9a32cd" points="1187.85,-377.86 1178.68,-383.17 1189.16,-384.73 1187.85,-377.86"/>
<text text-anchor="middle" x="1247" y="-377" font-family="Helvetica,sans-Serif" font-size="10.00"> mass</text>
</g>
<!-- Node14 -->
<g id="node14" class="node">
<title>Node14</title>
<g id="a_node14"><a xlink:title=" ">
<polygon fill="white" stroke="#bfbfbf" points="814.5,-447.5 814.5,-466.5 855.5,-466.5 855.5,-447.5 814.5,-447.5"/>
<text text-anchor="middle" x="835" y="-454.5" font-family="Helvetica,sans-Serif" font-size="10.00">Mass</text>
</a>
</g>
</g>
<!-- Node14&#45;&gt;Node13 -->
<g id="edge15" class="edge">
<title>Node14&#45;&gt;Node13</title>
<path fill="none" stroke="#9a32cd" stroke-dasharray="5,2" d="M866.01,-455.32C902.33,-452.72 965.07,-446.43 1017,-432 1045.89,-423.97 1077.46,-409.28 1096.75,-399.58"/>
<polygon fill="#9a32cd" stroke="#9a32cd" points="865.38,-451.85 855.63,-456.01 865.84,-458.84 865.38,-451.85"/>
<text text-anchor="middle" x="971.5" y="-452" font-family="Helvetica,sans-Serif" font-size="10.00"> elements</text>
</g>
<!-- Node15 -->
<g id="node15" class="node">
<title>Node15</title>
<g id="a_node15"><a xlink:href="classplayrho_1_1CheckedValue.html" target="_top" xlink:title=" ">
<polygon fill="white" stroke="black" points="1057.5,-189 1057.5,-219 1174.5,-219 1174.5,-189 1057.5,-189"/>
<text text-anchor="start" x="1065.5" y="-207" font-family="Helvetica,sans-Serif" font-size="10.00">playrho::CheckedValue</text>
<text text-anchor="middle" x="1116" y="-196" font-family="Helvetica,sans-Serif" font-size="10.00">&lt; Real &gt;</text>
</a>
</g>
</g>
<!-- Node15&#45;&gt;Node1 -->
<g id="edge17" class="edge">
<title>Node15&#45;&gt;Node1</title>
<path fill="none" stroke="#9a32cd" stroke-dasharray="5,2" d="M1184.69,-215.96C1224.68,-223.03 1274.63,-231.85 1311.97,-238.45"/>
<polygon fill="#9a32cd" stroke="#9a32cd" points="1185.21,-212.5 1174.75,-214.21 1183.99,-219.39 1185.21,-212.5"/>
<text text-anchor="middle" x="1247" y="-235" font-family="Helvetica,sans-Serif" font-size="10.00"> dampingRatio</text>
</g>
<!-- Node16 -->
<g id="node16" class="node">
<title>Node16</title>
<g id="a_node16"><a xlink:title=" ">
<polygon fill="white" stroke="#bfbfbf" points="817.5,-170.5 817.5,-189.5 852.5,-189.5 852.5,-170.5 817.5,-170.5"/>
<text text-anchor="middle" x="835" y="-177.5" font-family="Helvetica,sans-Serif" font-size="10.00">float</text>
</a>
</g>
</g>
<!-- Node16&#45;&gt;Node15 -->
<g id="edge18" class="edge">
<title>Node16&#45;&gt;Node15</title>
<path fill="none" stroke="#9a32cd" stroke-dasharray="5,2" d="M862.99,-179.37C898.44,-178.86 962.58,-179.01 1017,-185 1030.18,-186.45 1044.23,-188.73 1057.46,-191.21"/>
<polygon fill="#9a32cd" stroke="#9a32cd" points="862.47,-175.88 852.53,-179.55 862.59,-182.88 862.47,-175.88"/>
<text text-anchor="middle" x="971.5" y="-188" font-family="Helvetica,sans-Serif" font-size="10.00"> m_value</text>
</g>
<!-- Node17 -->
<g id="node17" class="node">
<title>Node17</title>
<g id="a_node17"><a xlink:href="classplayrho_1_1CheckedValue.html" target="_top" xlink:title="Checked value.">
<polygon fill="white" stroke="black" points="763.5,-101 763.5,-131 906.5,-131 906.5,-101 763.5,-101"/>
<text text-anchor="start" x="771.5" y="-119" font-family="Helvetica,sans-Serif" font-size="10.00">playrho::CheckedValue</text>
<text text-anchor="middle" x="835" y="-108" font-family="Helvetica,sans-Serif" font-size="10.00">&lt; ValueType, CheckerType &gt;</text>
</a>
</g>
</g>
<!-- Node17&#45;&gt;Node15 -->
<g id="edge19" class="edge">
<title>Node17&#45;&gt;Node15</title>
<path fill="none" stroke="orange" stroke-dasharray="5,2" d="M916.4,-129.45C948.83,-136.85 985.85,-147.9 1017,-164 1026.25,-168.78 1025.86,-174.02 1035,-179 1042.03,-182.83 1049.73,-186.17 1057.49,-189.05"/>
<polygon fill="orange" stroke="orange" points="917.02,-126 906.5,-127.27 915.51,-132.84 917.02,-126"/>
<text text-anchor="middle" x="971.5" y="-167" font-family="Helvetica,sans-Serif" font-size="10.00"> &lt; Real &gt;</text>
</g>
<!-- Node24 -->
<g id="node24" class="node">
<title>Node24</title>
<g id="a_node24"><a xlink:href="classplayrho_1_1CheckedValue.html" target="_top" xlink:title=" ">
<polygon fill="white" stroke="black" points="1057.5,-101 1057.5,-131 1174.5,-131 1174.5,-101 1057.5,-101"/>
<text text-anchor="start" x="1065.5" y="-119" font-family="Helvetica,sans-Serif" font-size="10.00">playrho::CheckedValue</text>
<text text-anchor="middle" x="1116" y="-108" font-family="Helvetica,sans-Serif" font-size="10.00">&lt; Force &gt;</text>
</a>
</g>
</g>
<!-- Node17&#45;&gt;Node24 -->
<g id="edge30" class="edge">
<title>Node17&#45;&gt;Node24</title>
<path fill="none" stroke="orange" stroke-dasharray="5,2" d="M916.8,-116C961.82,-116 1016.82,-116 1057.45,-116"/>
<polygon fill="orange" stroke="orange" points="916.76,-112.5 906.76,-116 916.76,-119.5 916.76,-112.5"/>
<text text-anchor="middle" x="971.5" y="-119" font-family="Helvetica,sans-Serif" font-size="10.00"> &lt; Force &gt;</text>
</g>
<!-- Node26 -->
<g id="node26" class="node">
<title>Node26</title>
<g id="a_node26"><a xlink:href="classplayrho_1_1CheckedValue.html" target="_top" xlink:title=" ">
<polygon fill="white" stroke="black" points="1057.5,-52 1057.5,-82 1174.5,-82 1174.5,-52 1057.5,-52"/>
<text text-anchor="start" x="1065.5" y="-70" font-family="Helvetica,sans-Serif" font-size="10.00">playrho::CheckedValue</text>
<text text-anchor="middle" x="1116" y="-59" font-family="Helvetica,sans-Serif" font-size="10.00">&lt; Frequency &gt;</text>
</a>
</g>
</g>
<!-- Node17&#45;&gt;Node26 -->
<g id="edge33" class="edge">
<title>Node17&#45;&gt;Node26</title>
<path fill="none" stroke="orange" stroke-dasharray="5,2" d="M916.8,-101.81C961.82,-93.9 1016.82,-84.24 1057.45,-77.11"/>
<polygon fill="orange" stroke="orange" points="916.01,-98.39 906.76,-103.57 917.22,-105.29 916.01,-98.39"/>
<text text-anchor="middle" x="971.5" y="-103" font-family="Helvetica,sans-Serif" font-size="10.00"> &lt; Frequency &gt;</text>
</g>
<!-- Node18 -->
<g id="node18" class="node">
<title>Node18</title>
<g id="a_node18"><a xlink:title=" ">
<polygon fill="white" stroke="#bfbfbf" points="598.5,-106.5 598.5,-125.5 660.5,-125.5 660.5,-106.5 598.5,-106.5"/>
<text text-anchor="middle" x="629.5" y="-113.5" font-family="Helvetica,sans-Serif" font-size="10.00">ValueType</text>
</a>
</g>
</g>
<!-- Node18&#45;&gt;Node17 -->
<g id="edge20" class="edge">
<title>Node18&#45;&gt;Node17</title>
<path fill="none" stroke="#9a32cd" stroke-dasharray="5,2" d="M670.54,-116C696.96,-116 732.29,-116 763.34,-116"/>
<polygon fill="#9a32cd" stroke="#9a32cd" points="670.53,-112.5 660.53,-116 670.53,-119.5 670.53,-112.5"/>
<text text-anchor="middle" x="724" y="-119" font-family="Helvetica,sans-Serif" font-size="10.00"> m_value</text>
</g>
<!-- Node19&#45;&gt;Node1 -->
<g id="edge21" class="edge">
<title>Node19&#45;&gt;Node1</title>
<path fill="none" stroke="#9a32cd" stroke-dasharray="5,2" d="M1207.46,-248C1236.96,-248 1269.21,-248 1296.88,-248"/>
<polygon fill="#9a32cd" stroke="#9a32cd" points="1207.16,-244.5 1197.16,-248 1207.16,-251.5 1207.16,-244.5"/>
<text text-anchor="middle" x="1247" y="-251" font-family="Helvetica,sans-Serif" font-size="10.00"> C</text>
</g>
<!-- Node20 -->
<g id="node20" class="node">
<title>Node20</title>
<g id="a_node20"><a xlink:title=" ">
<polygon fill="white" stroke="#bfbfbf" points="796,-208.5 796,-227.5 874,-227.5 874,-208.5 796,-208.5"/>
<text text-anchor="middle" x="835" y="-215.5" font-family="Helvetica,sans-Serif" font-size="10.00">LinearVelocity</text>
</a>
</g>
</g>
<!-- Node20&#45;&gt;Node19 -->
<g id="edge22" class="edge">
<title>Node20&#45;&gt;Node19</title>
<path fill="none" stroke="#9a32cd" stroke-dasharray="5,2" d="M884.16,-211.85C921.13,-208.65 973.1,-207.49 1017,-219 1025.85,-221.32 1026.47,-225.69 1035,-229 1044.58,-232.72 1055.1,-235.85 1065.28,-238.43"/>
<polygon fill="#9a32cd" stroke="#9a32cd" points="883.78,-208.37 874.15,-212.79 884.44,-215.34 883.78,-208.37"/>
<text text-anchor="middle" x="971.5" y="-222" font-family="Helvetica,sans-Serif" font-size="10.00"> elements</text>
</g>
<!-- Node21&#45;&gt;Node1 -->
<g id="edge24" class="edge">
<title>Node21&#45;&gt;Node1</title>
<path fill="none" stroke="#9a32cd" stroke-dasharray="5,2" d="M1192.69,-274.99C1219.91,-270.97 1250.85,-266.35 1279,-262 1288.22,-260.57 1297.99,-259.03 1307.52,-257.51"/>
<polygon fill="#9a32cd" stroke="#9a32cd" points="1191.84,-271.57 1182.45,-276.49 1192.85,-278.5 1191.84,-271.57"/>
<text text-anchor="middle" x="1247" y="-274" font-family="Helvetica,sans-Serif" font-size="10.00"> impulse</text>
</g>
<!-- Node22 -->
<g id="node22" class="node">
<title>Node22</title>
<g id="a_node22"><a xlink:title=" ">
<polygon fill="white" stroke="#bfbfbf" points="802.5,-246.5 802.5,-265.5 867.5,-265.5 867.5,-246.5 802.5,-246.5"/>
<text text-anchor="middle" x="835" y="-253.5" font-family="Helvetica,sans-Serif" font-size="10.00">Momentum</text>
</a>
</g>
</g>
<!-- Node22&#45;&gt;Node21 -->
<g id="edge25" class="edge">
<title>Node22&#45;&gt;Node21</title>
<path fill="none" stroke="#9a32cd" stroke-dasharray="5,2" d="M877.78,-254.32C892.96,-253.78 910.25,-253.26 926,-253 966.44,-252.33 978.74,-239.87 1017,-253 1026.59,-256.29 1025.86,-262.62 1035,-267 1042.98,-270.83 1051.79,-273.91 1060.55,-276.4"/>
<polygon fill="#9a32cd" stroke="#9a32cd" points="877.51,-250.82 867.65,-254.69 877.77,-257.82 877.51,-250.82"/>
<text text-anchor="middle" x="971.5" y="-256" font-family="Helvetica,sans-Serif" font-size="10.00"> elements</text>
</g>
<!-- Node23 -->
<g id="node23" class="node">
<title>Node23</title>
<g id="a_node23"><a xlink:title=" ">
<polygon fill="white" stroke="#bfbfbf" points="1076,-150.5 1076,-169.5 1156,-169.5 1156,-150.5 1076,-150.5"/>
<text text-anchor="middle" x="1116" y="-157.5" font-family="Helvetica,sans-Serif" font-size="10.00">inverse_mass)</text>
</a>
</g>
</g>
<!-- Node23&#45;&gt;Node1 -->
<g id="edge27" class="edge">
<title>Node23&#45;&gt;Node1</title>
<path fill="none" stroke="#9a32cd" stroke-dasharray="5,2" d="M1166.23,-171.71C1176.44,-174.3 1187.1,-177.14 1197,-180 1233.86,-190.66 1243.36,-192.8 1279,-207 1303.04,-216.58 1329.86,-229.59 1347.29,-238.36"/>
<polygon fill="#9a32cd" stroke="#9a32cd" points="1166.77,-168.23 1156.22,-169.2 1165.07,-175.02 1166.77,-168.23"/>
<text text-anchor="middle" x="1247" y="-210" font-family="Helvetica,sans-Serif" font-size="10.00"> gamma</text>
</g>
<!-- Node24&#45;&gt;Node1 -->
<g id="edge28" class="edge">
<title>Node24&#45;&gt;Node1</title>
<path fill="none" stroke="#9a32cd" stroke-dasharray="5,2" d="M1184.68,-131.58C1214.84,-140.24 1250.02,-152.81 1279,-170 1311.63,-189.35 1343.01,-222.05 1357.56,-238.27"/>
<polygon fill="#9a32cd" stroke="#9a32cd" points="1185.24,-128.1 1174.66,-128.79 1183.36,-134.84 1185.24,-128.1"/>
<text text-anchor="middle" x="1247" y="-173" font-family="Helvetica,sans-Serif" font-size="10.00"> maxForce</text>
</g>
<!-- Node25 -->
<g id="node25" class="node">
<title>Node25</title>
<g id="a_node25"><a xlink:title=" ">
<polygon fill="white" stroke="#bfbfbf" points="814.5,-38.5 814.5,-57.5 855.5,-57.5 855.5,-38.5 814.5,-38.5"/>
<text text-anchor="middle" x="835" y="-45.5" font-family="Helvetica,sans-Serif" font-size="10.00">Force</text>
</a>
</g>
</g>
<!-- Node25&#45;&gt;Node24 -->
<g id="edge29" class="edge">
<title>Node25&#45;&gt;Node24</title>
<path fill="none" stroke="#9a32cd" stroke-dasharray="5,2" d="M865.95,-45.09C903.63,-42.84 969.17,-43.68 1017,-70 1028.07,-76.09 1024.49,-84.99 1035,-92 1041.76,-96.51 1049.38,-100.19 1057.18,-103.19"/>
<polygon fill="#9a32cd" stroke="#9a32cd" points="865.38,-41.62 855.66,-45.83 865.88,-48.61 865.38,-41.62"/>
<text text-anchor="middle" x="971.5" y="-73" font-family="Helvetica,sans-Serif" font-size="10.00"> m_value</text>
</g>
<!-- Node26&#45;&gt;Node1 -->
<g id="edge31" class="edge">
<title>Node26&#45;&gt;Node1</title>
<path fill="none" stroke="#9a32cd" stroke-dasharray="5,2" d="M1184.66,-81.14C1215.77,-90.14 1251.74,-104.3 1279,-126 1320.12,-158.72 1350.51,-215.76 1361.51,-238.37"/>
<polygon fill="#9a32cd" stroke="#9a32cd" points="1185.32,-77.69 1174.74,-78.4 1183.45,-84.44 1185.32,-77.69"/>
<text text-anchor="middle" x="1247" y="-129" font-family="Helvetica,sans-Serif" font-size="10.00"> frequency</text>
</g>
<!-- Node27 -->
<g id="node27" class="node">
<title>Node27</title>
<g id="a_node27"><a xlink:title=" ">
<polygon fill="white" stroke="#bfbfbf" points="804,-0.5 804,-19.5 866,-19.5 866,-0.5 804,-0.5"/>
<text text-anchor="middle" x="835" y="-7.5" font-family="Helvetica,sans-Serif" font-size="10.00">Frequency</text>
</a>
</g>
</g>
<!-- Node27&#45;&gt;Node26 -->
<g id="edge32" class="edge">
<title>Node27&#45;&gt;Node26</title>
<path fill="none" stroke="#9a32cd" stroke-dasharray="5,2" d="M876.49,-5.91C913.67,-3.36 969.97,-2.6 1017,-15 1045.31,-22.46 1074.55,-39.39 1093.64,-51.92"/>
<polygon fill="#9a32cd" stroke="#9a32cd" points="875.77,-2.45 866.06,-6.7 876.3,-9.43 875.77,-2.45"/>
<text text-anchor="middle" x="971.5" y="-18" font-family="Helvetica,sans-Serif" font-size="10.00"> m_value</text>
</g>
</g>
</svg>
