<?xml version="1.0" encoding="UTF-8" standalone="no"?>
<!DOCTYPE svg PUBLIC "-//W3C//DTD SVG 1.1//EN"
 "http://www.w3.org/Graphics/SVG/1.1/DTD/svg11.dtd">
<!-- Generated by graphviz version 2.44.1 (20200629.0846)
 -->
<!-- Title: playrho::d2::Simplex::Cache Pages: 1 -->
<svg width="210pt" height="117pt"
 viewBox="0.00 0.00 209.50 117.00" xmlns="http://www.w3.org/2000/svg" xmlns:xlink="http://www.w3.org/1999/xlink">
<g id="graph0" class="graph" transform="scale(1 1) rotate(0) translate(4 113)">
<title>playrho::d2::Simplex::Cache</title>
<polygon fill="white" stroke="transparent" points="-4,4 -4,-113 205.5,-113 205.5,4 -4,4"/>
<!-- Node1 -->
<g id="node1" class="node">
<title>Node1</title>
<g id="a_node1"><a xlink:title="Simplex cache.">
<polygon fill="#bfbfbf" stroke="black" points="19.5,-0.5 19.5,-30.5 125.5,-30.5 125.5,-0.5 19.5,-0.5"/>
<text text-anchor="start" x="27.5" y="-18.5" font-family="Helvetica,sans-Serif" font-size="10.00">playrho::d2::Simplex</text>
<text text-anchor="middle" x="72.5" y="-7.5" font-family="Helvetica,sans-Serif" font-size="10.00">::Cache</text>
</a>
</g>
</g>
<!-- Node2 -->
<g id="node2" class="node">
<title>Node2</title>
<g id="a_node2"><a xlink:title=" ">
<polygon fill="white" stroke="#bfbfbf" points="0,-84 0,-103 35,-103 35,-84 0,-84"/>
<text text-anchor="middle" x="17.5" y="-91" font-family="Helvetica,sans-Serif" font-size="10.00">float</text>
</a>
</g>
</g>
<!-- Node2&#45;&gt;Node1 -->
<g id="edge1" class="edge">
<title>Node2&#45;&gt;Node1</title>
<path fill="none" stroke="#9a32cd" stroke-dasharray="5,2" d="M29.9,-75.37C39.7,-61.83 53.2,-43.17 62.35,-30.52"/>
<polygon fill="#9a32cd" stroke="#9a32cd" points="26.84,-73.63 23.81,-83.78 32.51,-77.73 26.84,-73.63"/>
<text text-anchor="middle" x="64" y="-52" font-family="Helvetica,sans-Serif" font-size="10.00"> metric</text>
</g>
<!-- Node3 -->
<g id="node3" class="node">
<title>Node3</title>
<g id="a_node3"><a xlink:title=" ">
<polygon fill="white" stroke="#bfbfbf" points="53.5,-78.5 53.5,-108.5 201.5,-108.5 201.5,-78.5 53.5,-78.5"/>
<text text-anchor="start" x="61.5" y="-96.5" font-family="Helvetica,sans-Serif" font-size="10.00">array&lt; IndexPair, MaxSimplex</text>
<text text-anchor="middle" x="127.5" y="-85.5" font-family="Helvetica,sans-Serif" font-size="10.00">Edges &gt;</text>
</a>
</g>
</g>
<!-- Node3&#45;&gt;Node1 -->
<g id="edge2" class="edge">
<title>Node3&#45;&gt;Node1</title>
<path fill="none" stroke="#9a32cd" stroke-dasharray="5,2" d="M111.17,-69.94C101.98,-57.23 90.78,-41.75 82.8,-30.73"/>
<polygon fill="#9a32cd" stroke="#9a32cd" points="108.46,-72.16 117.15,-78.2 114.13,-68.05 108.46,-72.16"/>
<text text-anchor="middle" x="119.5" y="-52" font-family="Helvetica,sans-Serif" font-size="10.00"> indices</text>
</g>
</g>
</svg>
