<?xml version="1.0" encoding="UTF-8" standalone="no"?>
<!DOCTYPE svg PUBLIC "-//W3C//DTD SVG 1.1//EN"
 "http://www.w3.org/Graphics/SVG/1.1/DTD/svg11.dtd">
<!-- Generated by graphviz version 2.44.1 (20200629.0846)
 -->
<!-- Title: playrho::d2::WeldJointConf Pages: 1 -->
<svg width="1445pt" height="419pt"
 viewBox="0.00 0.00 1445.00 419.00" xmlns="http://www.w3.org/2000/svg" xmlns:xlink="http://www.w3.org/1999/xlink">
<g id="graph0" class="graph" transform="scale(1 1) rotate(0) translate(4 415)">
<title>playrho::d2::WeldJointConf</title>
<polygon fill="white" stroke="transparent" points="-4,4 -4,-415 1441,-415 1441,4 -4,4"/>
<!-- Node1 -->
<g id="node1" class="node">
<title>Node1</title>
<g id="a_node1"><a xlink:title="Weld joint definition.">
<polygon fill="#bfbfbf" stroke="black" points="1303,-165.5 1303,-184.5 1437,-184.5 1437,-165.5 1303,-165.5"/>
<text text-anchor="middle" x="1370" y="-172.5" font-family="Helvetica,sans-Serif" font-size="10.00">playrho::d2::WeldJointConf</text>
</a>
</g>
</g>
<!-- Node2 -->
<g id="node2" class="node">
<title>Node2</title>
<g id="a_node2"><a xlink:href="structplayrho_1_1d2_1_1JointBuilder.html" target="_top" xlink:title=" ">
<polygon fill="white" stroke="black" points="1068.5,-356 1068.5,-386 1190.5,-386 1190.5,-356 1068.5,-356"/>
<text text-anchor="start" x="1076.5" y="-374" font-family="Helvetica,sans-Serif" font-size="10.00">playrho::d2::JointBuilder</text>
<text text-anchor="middle" x="1129.5" y="-363" font-family="Helvetica,sans-Serif" font-size="10.00">&lt; WeldJointConf &gt;</text>
</a>
</g>
</g>
<!-- Node2&#45;&gt;Node1 -->
<g id="edge1" class="edge">
<title>Node2&#45;&gt;Node1</title>
<path fill="none" stroke="midnightblue" d="M1200.48,-363.02C1229.07,-356.91 1260.98,-346.1 1285,-327 1334.33,-287.79 1359.1,-211.29 1366.53,-184.52"/>
<polygon fill="midnightblue" stroke="midnightblue" points="1199.66,-359.62 1190.53,-365 1201.02,-366.49 1199.66,-359.62"/>
</g>
<!-- Node3 -->
<g id="node3" class="node">
<title>Node3</title>
<g id="a_node3"><a xlink:href="structplayrho_1_1d2_1_1JointConf.html" target="_top" xlink:title="Base joint definition class.">
<polygon fill="white" stroke="black" points="605,-378.5 605,-397.5 718,-397.5 718,-378.5 605,-378.5"/>
<text text-anchor="middle" x="661.5" y="-385.5" font-family="Helvetica,sans-Serif" font-size="10.00">playrho::d2::JointConf</text>
</a>
</g>
</g>
<!-- Node3&#45;&gt;Node2 -->
<g id="edge2" class="edge">
<title>Node3&#45;&gt;Node2</title>
<path fill="none" stroke="midnightblue" d="M728.32,-393.64C730.92,-393.78 733.48,-393.9 736,-394 872.38,-399.56 907.28,-400.47 1043,-386 1051.24,-385.12 1059.89,-383.93 1068.39,-382.59"/>
<polygon fill="midnightblue" stroke="midnightblue" points="728.45,-390.14 718.25,-393.03 728.03,-397.13 728.45,-390.14"/>
</g>
<!-- Node9 -->
<g id="node9" class="node">
<title>Node9</title>
<g id="a_node9"><a xlink:href="structplayrho_1_1d2_1_1JointBuilder.html" target="_top" xlink:title="Joint builder definition structure.">
<polygon fill="white" stroke="black" points="794,-361.5 794,-380.5 940,-380.5 940,-361.5 794,-361.5"/>
<text text-anchor="middle" x="867" y="-368.5" font-family="Helvetica,sans-Serif" font-size="10.00">playrho::d2::JointBuilder&lt; T &gt;</text>
</a>
</g>
</g>
<!-- Node3&#45;&gt;Node9 -->
<g id="edge9" class="edge">
<title>Node3&#45;&gt;Node9</title>
<path fill="none" stroke="midnightblue" d="M728.16,-382.51C749.06,-380.77 772.3,-378.83 793.64,-377.04"/>
<polygon fill="midnightblue" stroke="midnightblue" points="727.78,-379.03 718.11,-383.35 728.36,-386.01 727.78,-379.03"/>
</g>
<!-- Node4 -->
<g id="node4" class="node">
<title>Node4</title>
<g id="a_node4"><a xlink:href="classplayrho_1_1detail_1_1IndexingNamedType.html" target="_top" xlink:title=" ">
<polygon fill="white" stroke="black" points="353,-331.5 353,-372.5 490,-372.5 490,-331.5 353,-331.5"/>
<text text-anchor="start" x="361" y="-360.5" font-family="Helvetica,sans-Serif" font-size="10.00">playrho::detail::Indexing</text>
<text text-anchor="start" x="361" y="-349.5" font-family="Helvetica,sans-Serif" font-size="10.00">NamedType&lt; BodyCounter,</text>
<text text-anchor="middle" x="421.5" y="-338.5" font-family="Helvetica,sans-Serif" font-size="10.00"> struct BodyIdentifier &gt;</text>
</a>
</g>
</g>
<!-- Node4&#45;&gt;Node3 -->
<g id="edge3" class="edge">
<title>Node4&#45;&gt;Node3</title>
<path fill="none" stroke="#9a32cd" stroke-dasharray="5,2" d="M500.15,-355.31C527.74,-357.36 558.91,-360.66 587,-366 602.7,-368.99 619.83,-374.01 633.6,-378.5"/>
<polygon fill="#9a32cd" stroke="#9a32cd" points="500.38,-351.82 490.16,-354.61 499.89,-358.8 500.38,-351.82"/>
<text text-anchor="middle" x="547.5" y="-380" font-family="Helvetica,sans-Serif" font-size="10.00"> bodyA</text>
<text text-anchor="middle" x="547.5" y="-369" font-family="Helvetica,sans-Serif" font-size="10.00">bodyB</text>
</g>
<!-- Node5 -->
<g id="node5" class="node">
<title>Node5</title>
<g id="a_node5"><a xlink:title=" ">
<polygon fill="white" stroke="#bfbfbf" points="120,-317.5 120,-336.5 194,-336.5 194,-317.5 120,-317.5"/>
<text text-anchor="middle" x="157" y="-324.5" font-family="Helvetica,sans-Serif" font-size="10.00">BodyCounter</text>
</a>
</g>
</g>
<!-- Node5&#45;&gt;Node4 -->
<g id="edge4" class="edge">
<title>Node5&#45;&gt;Node4</title>
<path fill="none" stroke="#9a32cd" stroke-dasharray="5,2" d="M204.41,-331.01C240.12,-334.14 290.7,-338.67 335,-343 340.79,-343.57 346.81,-344.17 352.84,-344.78"/>
<polygon fill="#9a32cd" stroke="#9a32cd" points="204.55,-327.51 194.29,-330.12 203.94,-334.48 204.55,-327.51"/>
<text text-anchor="middle" x="285" y="-346" font-family="Helvetica,sans-Serif" font-size="10.00"> value_</text>
</g>
<!-- Node6 -->
<g id="node6" class="node">
<title>Node6</title>
<g id="a_node6"><a xlink:href="classplayrho_1_1detail_1_1IndexingNamedType.html" target="_top" xlink:title="An indexable, hashable, named &quot;strong type&quot; template class.">
<polygon fill="white" stroke="black" points="97,-356 97,-386 217,-386 217,-356 97,-356"/>
<text text-anchor="start" x="105" y="-374" font-family="Helvetica,sans-Serif" font-size="10.00">playrho::detail::Indexing</text>
<text text-anchor="middle" x="157" y="-363" font-family="Helvetica,sans-Serif" font-size="10.00">NamedType&lt; T, Tag &gt;</text>
</a>
</g>
</g>
<!-- Node6&#45;&gt;Node4 -->
<g id="edge5" class="edge">
<title>Node6&#45;&gt;Node4</title>
<path fill="none" stroke="orange" stroke-dasharray="5,2" d="M227.39,-365.98C266.13,-363.17 314.19,-359.69 352.68,-356.91"/>
<polygon fill="orange" stroke="orange" points="226.96,-362.5 217.24,-366.71 227.46,-369.48 226.96,-362.5"/>
<text text-anchor="start" x="235" y="-379" font-family="Helvetica,sans-Serif" font-size="10.00"> &lt; BodyCounter, struct</text>
<text text-anchor="middle" x="285" y="-368" font-family="Helvetica,sans-Serif" font-size="10.00"> BodyIdentifier &gt;</text>
</g>
<!-- Node7 -->
<g id="node7" class="node">
<title>Node7</title>
<g id="a_node7"><a xlink:title=" ">
<polygon fill="white" stroke="#bfbfbf" points="0,-295.5 0,-314.5 29,-314.5 29,-295.5 0,-295.5"/>
<text text-anchor="middle" x="14.5" y="-302.5" font-family="Helvetica,sans-Serif" font-size="10.00">T</text>
</a>
</g>
</g>
<!-- Node7&#45;&gt;Node6 -->
<g id="edge6" class="edge">
<title>Node7&#45;&gt;Node6</title>
<path fill="none" stroke="#9a32cd" stroke-dasharray="5,2" d="M38.45,-317.05C54.67,-325.44 77,-336.74 97,-346 104.17,-349.32 111.9,-352.72 119.33,-355.9"/>
<polygon fill="#9a32cd" stroke="#9a32cd" points="39.7,-313.75 29.21,-312.24 36.47,-319.96 39.7,-313.75"/>
<text text-anchor="middle" x="63" y="-340" font-family="Helvetica,sans-Serif" font-size="10.00"> value_</text>
</g>
<!-- Node12 -->
<g id="node12" class="node">
<title>Node12</title>
<g id="a_node12"><a xlink:href="structplayrho_1_1Vector.html" target="_top" xlink:title="Vector.">
<polygon fill="white" stroke="black" points="807.5,-279.5 807.5,-298.5 926.5,-298.5 926.5,-279.5 807.5,-279.5"/>
<text text-anchor="middle" x="867" y="-286.5" font-family="Helvetica,sans-Serif" font-size="10.00">playrho::Vector&lt; T, N &gt;</text>
</a>
</g>
</g>
<!-- Node7&#45;&gt;Node12 -->
<g id="edge13" class="edge">
<title>Node7&#45;&gt;Node12</title>
<path fill="none" stroke="#9a32cd" stroke-dasharray="5,2" d="M38.97,-300.68C66.79,-295.94 114.6,-289 156,-289 156,-289 156,-289 662.5,-289 711.26,-289 766.58,-289 807.23,-289"/>
<polygon fill="#9a32cd" stroke="#9a32cd" points="38.25,-297.25 29,-302.43 39.46,-304.15 38.25,-297.25"/>
<text text-anchor="middle" x="421.5" y="-292" font-family="Helvetica,sans-Serif" font-size="10.00"> elements</text>
</g>
<!-- Node8 -->
<g id="node8" class="node">
<title>Node8</title>
<g id="a_node8"><a xlink:title=" ">
<polygon fill="white" stroke="#bfbfbf" points="404,-391.5 404,-410.5 439,-410.5 439,-391.5 404,-391.5"/>
<text text-anchor="middle" x="421.5" y="-398.5" font-family="Helvetica,sans-Serif" font-size="10.00">bool</text>
</a>
</g>
</g>
<!-- Node8&#45;&gt;Node3 -->
<g id="edge7" class="edge">
<title>Node8&#45;&gt;Node3</title>
<path fill="none" stroke="#9a32cd" stroke-dasharray="5,2" d="M449.38,-399.53C486.91,-397.48 555.89,-393.71 604.77,-391.04"/>
<polygon fill="#9a32cd" stroke="#9a32cd" points="449.03,-396.05 439.24,-400.09 449.41,-403.04 449.03,-396.05"/>
<text text-anchor="middle" x="547.5" y="-399" font-family="Helvetica,sans-Serif" font-size="10.00"> collideConnected</text>
</g>
<!-- Node9&#45;&gt;Node2 -->
<g id="edge8" class="edge">
<title>Node9&#45;&gt;Node2</title>
<path fill="none" stroke="orange" stroke-dasharray="5,2" d="M950.33,-371C988.65,-371 1033.4,-371 1068.47,-371"/>
<polygon fill="orange" stroke="orange" points="950.22,-367.5 940.22,-371 950.22,-374.5 950.22,-367.5"/>
<text text-anchor="middle" x="1000.5" y="-374" font-family="Helvetica,sans-Serif" font-size="10.00"> &lt; WeldJointConf &gt;</text>
</g>
<!-- Node10 -->
<g id="node10" class="node">
<title>Node10</title>
<g id="a_node10"><a xlink:href="structplayrho_1_1Vector.html" target="_top" xlink:title=" ">
<polygon fill="white" stroke="black" points="1064.5,-289.5 1064.5,-308.5 1194.5,-308.5 1194.5,-289.5 1064.5,-289.5"/>
<text text-anchor="middle" x="1129.5" y="-296.5" font-family="Helvetica,sans-Serif" font-size="10.00">playrho::Vector&lt; Length &gt;</text>
</a>
</g>
</g>
<!-- Node10&#45;&gt;Node1 -->
<g id="edge10" class="edge">
<title>Node10&#45;&gt;Node1</title>
<path fill="none" stroke="#9a32cd" stroke-dasharray="5,2" d="M1191.63,-287.07C1221.11,-279.69 1256.23,-268.42 1285,-252 1317.3,-233.56 1347.46,-200.68 1361.21,-184.51"/>
<polygon fill="#9a32cd" stroke="#9a32cd" points="1190.76,-283.68 1181.86,-289.43 1192.4,-290.49 1190.76,-283.68"/>
<text text-anchor="middle" x="1250.5" y="-315" font-family="Helvetica,sans-Serif" font-size="10.00"> localAnchorA</text>
<text text-anchor="middle" x="1250.5" y="-304" font-family="Helvetica,sans-Serif" font-size="10.00">localAnchorB</text>
<text text-anchor="middle" x="1250.5" y="-293" font-family="Helvetica,sans-Serif" font-size="10.00">rA</text>
<text text-anchor="middle" x="1250.5" y="-282" font-family="Helvetica,sans-Serif" font-size="10.00">rB</text>
</g>
<!-- Node11 -->
<g id="node11" class="node">
<title>Node11</title>
<g id="a_node11"><a xlink:title=" ">
<polygon fill="white" stroke="#bfbfbf" points="844,-323.5 844,-342.5 890,-342.5 890,-323.5 844,-323.5"/>
<text text-anchor="middle" x="867" y="-330.5" font-family="Helvetica,sans-Serif" font-size="10.00">Length</text>
</a>
</g>
</g>
<!-- Node11&#45;&gt;Node10 -->
<g id="edge11" class="edge">
<title>Node11&#45;&gt;Node10</title>
<path fill="none" stroke="#9a32cd" stroke-dasharray="5,2" d="M900.13,-328.81C940.91,-323.48 1012.2,-314.18 1064.31,-307.38"/>
<polygon fill="#9a32cd" stroke="#9a32cd" points="899.67,-325.34 890.21,-330.1 900.58,-332.28 899.67,-325.34"/>
<text text-anchor="middle" x="1000.5" y="-324" font-family="Helvetica,sans-Serif" font-size="10.00"> elements</text>
</g>
<!-- Node12&#45;&gt;Node10 -->
<g id="edge12" class="edge">
<title>Node12&#45;&gt;Node10</title>
<path fill="none" stroke="orange" stroke-dasharray="5,2" d="M936.88,-291.64C976.42,-293.16 1025.75,-295.06 1064.45,-296.54"/>
<polygon fill="orange" stroke="orange" points="936.91,-288.14 926.79,-291.26 936.64,-295.14 936.91,-288.14"/>
<text text-anchor="middle" x="1000.5" y="-298" font-family="Helvetica,sans-Serif" font-size="10.00"> &lt; Length &gt;</text>
</g>
<!-- Node13 -->
<g id="node13" class="node">
<title>Node13</title>
<g id="a_node13"><a xlink:href="structplayrho_1_1Vector.html" target="_top" xlink:title=" ">
<polygon fill="white" stroke="black" points="1069,-227.5 1069,-246.5 1190,-246.5 1190,-227.5 1069,-227.5"/>
<text text-anchor="middle" x="1129.5" y="-234.5" font-family="Helvetica,sans-Serif" font-size="10.00">playrho::Vector&lt; Real &gt;</text>
</a>
</g>
</g>
<!-- Node12&#45;&gt;Node13 -->
<g id="edge16" class="edge">
<title>Node12&#45;&gt;Node13</title>
<path fill="none" stroke="orange" stroke-dasharray="5,2" d="M925.71,-277.48C972.24,-268.19 1036.89,-255.29 1080.58,-246.57"/>
<polygon fill="orange" stroke="orange" points="924.9,-274.07 915.78,-279.46 926.27,-280.94 924.9,-274.07"/>
<text text-anchor="middle" x="1000.5" y="-273" font-family="Helvetica,sans-Serif" font-size="10.00"> &lt; Real &gt;</text>
</g>
<!-- Node13&#45;&gt;Node1 -->
<g id="edge14" class="edge">
<title>Node13&#45;&gt;Node1</title>
<path fill="none" stroke="#9a32cd" stroke-dasharray="5,2" d="M1200.42,-229.53C1227.21,-225.67 1257.85,-220.03 1285,-212 1308.53,-205.04 1334.15,-193.06 1350.83,-184.62"/>
<polygon fill="#9a32cd" stroke="#9a32cd" points="1199.78,-226.08 1190.35,-230.92 1200.74,-233.01 1199.78,-226.08"/>
<text text-anchor="middle" x="1250.5" y="-240" font-family="Helvetica,sans-Serif" font-size="10.00"> impulse</text>
<text text-anchor="middle" x="1250.5" y="-229" font-family="Helvetica,sans-Serif" font-size="10.00">mass</text>
</g>
<!-- Node14 -->
<g id="node14" class="node">
<title>Node14</title>
<g id="a_node14"><a xlink:title=" ">
<polygon fill="white" stroke="#bfbfbf" points="849.5,-205.5 849.5,-224.5 884.5,-224.5 884.5,-205.5 849.5,-205.5"/>
<text text-anchor="middle" x="867" y="-212.5" font-family="Helvetica,sans-Serif" font-size="10.00">float</text>
</a>
</g>
</g>
<!-- Node14&#45;&gt;Node1 -->
<g id="edge17" class="edge">
<title>Node14&#45;&gt;Node1</title>
<path fill="none" stroke="#9a32cd" stroke-dasharray="5,2" d="M894.87,-212.85C971.28,-206.75 1191.44,-189.18 1302.81,-180.28"/>
<polygon fill="#9a32cd" stroke="#9a32cd" points="894.36,-209.38 884.67,-213.67 894.92,-216.36 894.36,-209.38"/>
<text text-anchor="middle" x="1129.5" y="-201" font-family="Helvetica,sans-Serif" font-size="10.00"> dampingRatio</text>
</g>
<!-- Node14&#45;&gt;Node13 -->
<g id="edge15" class="edge">
<title>Node14&#45;&gt;Node13</title>
<path fill="none" stroke="#9a32cd" stroke-dasharray="5,2" d="M894.9,-217.27C935.65,-220.71 1014.06,-227.34 1068.74,-231.95"/>
<polygon fill="#9a32cd" stroke="#9a32cd" points="894.95,-213.76 884.69,-216.41 894.36,-220.74 894.95,-213.76"/>
<text text-anchor="middle" x="1000.5" y="-232" font-family="Helvetica,sans-Serif" font-size="10.00"> elements</text>
</g>
<!-- Node15 -->
<g id="node15" class="node">
<title>Node15</title>
<g id="a_node15"><a xlink:title=" ">
<polygon fill="white" stroke="#bfbfbf" points="1084.5,-142.5 1084.5,-161.5 1174.5,-161.5 1174.5,-142.5 1084.5,-142.5"/>
<text text-anchor="middle" x="1129.5" y="-149.5" font-family="Helvetica,sans-Serif" font-size="10.00">angular_velocity)</text>
</a>
</g>
</g>
<!-- Node15&#45;&gt;Node1 -->
<g id="edge18" class="edge">
<title>Node15&#45;&gt;Node1</title>
<path fill="none" stroke="#9a32cd" stroke-dasharray="5,2" d="M1184.56,-157.21C1219.6,-160.59 1265.48,-165.02 1302.71,-168.61"/>
<polygon fill="#9a32cd" stroke="#9a32cd" points="1184.81,-153.72 1174.52,-156.25 1184.14,-160.69 1184.81,-153.72"/>
<text text-anchor="middle" x="1250.5" y="-169" font-family="Helvetica,sans-Serif" font-size="10.00"> bias</text>
</g>
<!-- Node16 -->
<g id="node16" class="node">
<title>Node16</title>
<g id="a_node16"><a xlink:title=" ">
<polygon fill="white" stroke="#bfbfbf" points="1061,-104.5 1061,-123.5 1198,-123.5 1198,-104.5 1061,-104.5"/>
<text text-anchor="middle" x="1129.5" y="-111.5" font-family="Helvetica,sans-Serif" font-size="10.00">inverse_moment_of_inertia)</text>
</a>
</g>
</g>
<!-- Node16&#45;&gt;Node1 -->
<g id="edge19" class="edge">
<title>Node16&#45;&gt;Node1</title>
<path fill="none" stroke="#9a32cd" stroke-dasharray="5,2" d="M1198.38,-125.42C1225.52,-130.55 1256.95,-137.22 1285,-145 1305.59,-150.71 1328.39,-158.98 1345.04,-165.39"/>
<polygon fill="#9a32cd" stroke="#9a32cd" points="1198.67,-121.91 1188.2,-123.52 1197.39,-128.79 1198.67,-121.91"/>
<text text-anchor="middle" x="1250.5" y="-148" font-family="Helvetica,sans-Serif" font-size="10.00"> gamma</text>
</g>
<!-- Node17 -->
<g id="node17" class="node">
<title>Node17</title>
<g id="a_node17"><a xlink:title=" ">
<polygon fill="white" stroke="#bfbfbf" points="1094,-66.5 1094,-85.5 1165,-85.5 1165,-66.5 1094,-66.5"/>
<text text-anchor="middle" x="1129.5" y="-73.5" font-family="Helvetica,sans-Serif" font-size="10.00">plane_angle)</text>
</a>
</g>
</g>
<!-- Node17&#45;&gt;Node1 -->
<g id="edge20" class="edge">
<title>Node17&#45;&gt;Node1</title>
<path fill="none" stroke="#9a32cd" stroke-dasharray="5,2" d="M1175.1,-82.27C1206.81,-87.83 1249.85,-97.68 1285,-114 1314.26,-127.58 1343.67,-152 1358.72,-165.45"/>
<polygon fill="#9a32cd" stroke="#9a32cd" points="1175.67,-78.81 1165.23,-80.61 1174.51,-85.72 1175.67,-78.81"/>
<text text-anchor="middle" x="1250.5" y="-117" font-family="Helvetica,sans-Serif" font-size="10.00"> referenceAngle</text>
</g>
<!-- Node18 -->
<g id="node18" class="node">
<title>Node18</title>
<g id="a_node18"><a xlink:href="classplayrho_1_1CheckedValue.html" target="_top" xlink:title=" ">
<polygon fill="white" stroke="black" points="1071,-17 1071,-47 1188,-47 1188,-17 1071,-17"/>
<text text-anchor="start" x="1079" y="-35" font-family="Helvetica,sans-Serif" font-size="10.00">playrho::CheckedValue</text>
<text text-anchor="middle" x="1129.5" y="-24" font-family="Helvetica,sans-Serif" font-size="10.00">&lt; Frequency &gt;</text>
</a>
</g>
</g>
<!-- Node18&#45;&gt;Node1 -->
<g id="edge21" class="edge">
<title>Node18&#45;&gt;Node1</title>
<path fill="none" stroke="#9a32cd" stroke-dasharray="5,2" d="M1198.06,-42.23C1226.52,-48.75 1258.99,-59.25 1285,-76 1322.33,-100.05 1351.95,-145.71 1363.62,-165.48"/>
<polygon fill="#9a32cd" stroke="#9a32cd" points="1198.7,-38.79 1188.18,-40.09 1197.21,-45.63 1198.7,-38.79"/>
<text text-anchor="middle" x="1250.5" y="-79" font-family="Helvetica,sans-Serif" font-size="10.00"> frequency</text>
</g>
<!-- Node19 -->
<g id="node19" class="node">
<title>Node19</title>
<g id="a_node19"><a xlink:title=" ">
<polygon fill="white" stroke="#bfbfbf" points="836,-0.5 836,-19.5 898,-19.5 898,-0.5 836,-0.5"/>
<text text-anchor="middle" x="867" y="-7.5" font-family="Helvetica,sans-Serif" font-size="10.00">Frequency</text>
</a>
</g>
</g>
<!-- Node19&#45;&gt;Node18 -->
<g id="edge22" class="edge">
<title>Node19&#45;&gt;Node18</title>
<path fill="none" stroke="#9a32cd" stroke-dasharray="5,2" d="M908.58,-9.66C944.13,-9.78 997.13,-10.95 1043,-16 1052.01,-16.99 1061.49,-18.4 1070.73,-19.97"/>
<polygon fill="#9a32cd" stroke="#9a32cd" points="908.14,-6.16 898.14,-9.66 908.13,-13.16 908.14,-6.16"/>
<text text-anchor="middle" x="1000.5" y="-19" font-family="Helvetica,sans-Serif" font-size="10.00"> m_value</text>
</g>
<!-- Node20 -->
<g id="node20" class="node">
<title>Node20</title>
<g id="a_node20"><a xlink:href="classplayrho_1_1CheckedValue.html" target="_top" xlink:title="Checked value.">
<polygon fill="white" stroke="black" points="795.5,-39 795.5,-69 938.5,-69 938.5,-39 795.5,-39"/>
<text text-anchor="start" x="803.5" y="-57" font-family="Helvetica,sans-Serif" font-size="10.00">playrho::CheckedValue</text>
<text text-anchor="middle" x="867" y="-46" font-family="Helvetica,sans-Serif" font-size="10.00">&lt; ValueType, CheckerType &gt;</text>
</a>
</g>
</g>
<!-- Node20&#45;&gt;Node18 -->
<g id="edge23" class="edge">
<title>Node20&#45;&gt;Node18</title>
<path fill="none" stroke="orange" stroke-dasharray="5,2" d="M948.98,-47.16C988.46,-43.83 1035.03,-39.89 1070.84,-36.87"/>
<polygon fill="orange" stroke="orange" points="948.51,-43.69 938.84,-48.02 949.1,-50.66 948.51,-43.69"/>
<text text-anchor="middle" x="1000.5" y="-49" font-family="Helvetica,sans-Serif" font-size="10.00"> &lt; Frequency &gt;</text>
</g>
<!-- Node21 -->
<g id="node21" class="node">
<title>Node21</title>
<g id="a_node21"><a xlink:title=" ">
<polygon fill="white" stroke="#bfbfbf" points="630.5,-44.5 630.5,-63.5 692.5,-63.5 692.5,-44.5 630.5,-44.5"/>
<text text-anchor="middle" x="661.5" y="-51.5" font-family="Helvetica,sans-Serif" font-size="10.00">ValueType</text>
</a>
</g>
</g>
<!-- Node21&#45;&gt;Node20 -->
<g id="edge24" class="edge">
<title>Node21&#45;&gt;Node20</title>
<path fill="none" stroke="#9a32cd" stroke-dasharray="5,2" d="M702.54,-54C728.96,-54 764.29,-54 795.34,-54"/>
<polygon fill="#9a32cd" stroke="#9a32cd" points="702.53,-50.5 692.53,-54 702.53,-57.5 702.53,-50.5"/>
<text text-anchor="middle" x="756" y="-57" font-family="Helvetica,sans-Serif" font-size="10.00"> m_value</text>
</g>
</g>
</svg>
