<?xml version="1.0" encoding="UTF-8" standalone="no"?>
<!DOCTYPE svg PUBLIC "-//W3C//DTD SVG 1.1//EN"
 "http://www.w3.org/Graphics/SVG/1.1/DTD/svg11.dtd">
<!-- Generated by graphviz version 2.40.1 (20161225.0304)
 -->
<!-- Title: playrho::d2::WorldManifold::PointData Pages: 1 -->
<svg width="371pt" height="232pt"
 viewBox="0.00 0.00 370.55 232.00" xmlns="http://www.w3.org/2000/svg" xmlns:xlink="http://www.w3.org/1999/xlink">
<g id="graph0" class="graph" transform="scale(1 1) rotate(0) translate(4 228)">
<title>playrho::d2::WorldManifold::PointData</title>
<polygon fill="#ffffff" stroke="transparent" points="-4,4 -4,-228 366.5537,-228 366.5537,4 -4,4"/>
<!-- Node1 -->
<g id="node1" class="node">
<title>Node1</title>
<polygon fill="#bfbfbf" stroke="#000000" points="155.8809,-.5 155.8809,-28.5 290.6504,-28.5 290.6504,-.5 155.8809,-.5"/>
<text text-anchor="start" x="163.8809" y="-16.5" font-family="Helvetica,sans-Serif" font-size="10.00" fill="#000000">playrho::d2::WorldManifold</text>
<text text-anchor="middle" x="223.2656" y="-6.5" font-family="Helvetica,sans-Serif" font-size="10.00" fill="#000000">::PointData</text>
</g>
<!-- Node2 -->
<g id="node2" class="node">
<title>Node2</title>
<g id="a_node2"><a xlink:href="structplayrho_1_1Vector.html" target="_top" xlink:title="playrho::Vector\&lt; Length \&gt;">
<polygon fill="#ffffff" stroke="#000000" points="0,-75.5 0,-93.5 130.5313,-93.5 130.5313,-75.5 0,-75.5"/>
<text text-anchor="middle" x="65.2656" y="-81.5" font-family="Helvetica,sans-Serif" font-size="10.00" fill="#000000">playrho::Vector&lt; Length &gt;</text>
</a>
</g>
</g>
<!-- Node2&#45;&gt;Node1 -->
<g id="edge1" class="edge">
<title>Node2&#45;&gt;Node1</title>
<path fill="none" stroke="#9a32cd" stroke-dasharray="5,2" d="M95.0987,-71.2828C122.6422,-59.08 163.4214,-41.0133 191.5488,-28.5518"/>
<polygon fill="#9a32cd" stroke="#9a32cd" points="93.323,-68.2413 85.5979,-75.492 96.1585,-74.6413 93.323,-68.2413"/>
<text text-anchor="middle" x="167.8887" y="-49" font-family="Helvetica,sans-Serif" font-size="10.00" fill="#000000"> location</text>
</g>
<!-- Node3 -->
<g id="node3" class="node">
<title>Node3</title>
<polygon fill="#ffffff" stroke="#bfbfbf" points="8.9727,-140.5 8.9727,-158.5 55.5586,-158.5 55.5586,-140.5 8.9727,-140.5"/>
<text text-anchor="middle" x="32.2656" y="-146.5" font-family="Helvetica,sans-Serif" font-size="10.00" fill="#000000">Length</text>
</g>
<!-- Node3&#45;&gt;Node2 -->
<g id="edge2" class="edge">
<title>Node3&#45;&gt;Node2</title>
<path fill="none" stroke="#9a32cd" stroke-dasharray="5,2" d="M29.5723,-130.2949C29.4957,-124.1978 30.2665,-117.592 32.9111,-112 36.4412,-104.5361 43.0753,-98.3394 49.4217,-93.7298"/>
<polygon fill="#9a32cd" stroke="#9a32cd" points="26.0948,-130.7124 30.4036,-140.3915 33.0712,-130.138 26.0948,-130.7124"/>
<text text-anchor="middle" x="54.9429" y="-114" font-family="Helvetica,sans-Serif" font-size="10.00" fill="#000000"> elements</text>
</g>
<!-- Node4 -->
<g id="node4" class="node">
<title>Node4</title>
<g id="a_node4"><a xlink:href="structplayrho_1_1Vector.html" target="_top" xlink:title="Vector. ">
<polygon fill="#ffffff" stroke="#000000" points="85.4917,-140.5 85.4917,-158.5 203.0396,-158.5 203.0396,-140.5 85.4917,-140.5"/>
<text text-anchor="middle" x="144.2656" y="-146.5" font-family="Helvetica,sans-Serif" font-size="10.00" fill="#000000">playrho::Vector&lt; T, N &gt;</text>
</a>
</g>
</g>
<!-- Node4&#45;&gt;Node2 -->
<g id="edge3" class="edge">
<title>Node4&#45;&gt;Node2</title>
<path fill="none" stroke="#ffa500" stroke-dasharray="5,2" d="M118.1106,-135.0418C111.8357,-131.128 105.3192,-126.6714 99.665,-122 89.3125,-113.4468 79.1265,-101.8303 72.5589,-93.8035"/>
<polygon fill="#ffa500" stroke="#ffa500" points="116.622,-138.2294 127.0026,-140.3494 120.2098,-132.2187 116.622,-138.2294"/>
<text text-anchor="middle" x="125.5659" y="-114" font-family="Helvetica,sans-Serif" font-size="10.00" fill="#000000"> &lt; Length &gt;</text>
</g>
<!-- Node7 -->
<g id="node7" class="node">
<title>Node7</title>
<g id="a_node7"><a xlink:href="structplayrho_1_1Vector.html" target="_top" xlink:title="playrho::Vector\&lt; Momentum \&gt;">
<polygon fill="#ffffff" stroke="#000000" points="148.2856,-75.5 148.2856,-93.5 298.2456,-93.5 298.2456,-75.5 148.2856,-75.5"/>
<text text-anchor="middle" x="223.2656" y="-81.5" font-family="Helvetica,sans-Serif" font-size="10.00" fill="#000000">playrho::Vector&lt; Momentum &gt;</text>
</a>
</g>
</g>
<!-- Node4&#45;&gt;Node7 -->
<g id="edge8" class="edge">
<title>Node4&#45;&gt;Node7</title>
<path fill="none" stroke="#ffa500" stroke-dasharray="5,2" d="M153.8566,-131.1549C157.9519,-124.5362 163.1898,-117.3793 169.2363,-112 177.8863,-104.3045 189.0782,-98.1449 199.0305,-93.6222"/>
<polygon fill="#ffa500" stroke="#ffa500" points="150.6151,-129.7747 148.7131,-140.1974 156.6997,-133.2357 150.6151,-129.7747"/>
<text text-anchor="middle" x="204.2803" y="-114" font-family="Helvetica,sans-Serif" font-size="10.00" fill="#000000"> &lt; Momentum &gt;</text>
</g>
<!-- Node5 -->
<g id="node5" class="node">
<title>Node5</title>
<polygon fill="#ffffff" stroke="#bfbfbf" points="129.7656,-205.5 129.7656,-223.5 158.7656,-223.5 158.7656,-205.5 129.7656,-205.5"/>
<text text-anchor="middle" x="143.8198" y="-211.5" font-family="Helvetica,sans-Serif" font-size="10.00" fill="#000000">T</text>
</g>
<!-- Node5&#45;&gt;Node4 -->
<g id="edge4" class="edge">
<title>Node5&#45;&gt;Node4</title>
<path fill="none" stroke="#9a32cd" stroke-dasharray="5,2" d="M144.2656,-195.1265C144.2656,-183.1522 144.2656,-168.3205 144.2656,-158.8821"/>
<polygon fill="#9a32cd" stroke="#9a32cd" points="140.7657,-195.462 144.2656,-205.462 147.7657,-195.4621 140.7657,-195.462"/>
<text text-anchor="middle" x="165.9429" y="-179" font-family="Helvetica,sans-Serif" font-size="10.00" fill="#000000"> elements</text>
</g>
<!-- Node6 -->
<g id="node6" class="node">
<title>Node6</title>
<polygon fill="#ffffff" stroke="#bfbfbf" points="315.9775,-75.5 315.9775,-93.5 362.5537,-93.5 362.5537,-75.5 315.9775,-75.5"/>
<text text-anchor="middle" x="339.2656" y="-81.5" font-family="Helvetica,sans-Serif" font-size="10.00" fill="#000000">length)</text>
</g>
<!-- Node6&#45;&gt;Node1 -->
<g id="edge5" class="edge">
<title>Node6&#45;&gt;Node1</title>
<path fill="none" stroke="#9a32cd" stroke-dasharray="5,2" d="M315.276,-70.0235C295.2345,-57.9295 266.8157,-40.7802 246.8798,-28.7499"/>
<polygon fill="#9a32cd" stroke="#9a32cd" points="313.7304,-73.1787 324.1007,-75.3487 317.3471,-67.1854 313.7304,-73.1787"/>
<text text-anchor="middle" x="316.0044" y="-49" font-family="Helvetica,sans-Serif" font-size="10.00" fill="#000000"> separation</text>
</g>
<!-- Node7&#45;&gt;Node1 -->
<g id="edge6" class="edge">
<title>Node7&#45;&gt;Node1</title>
<path fill="none" stroke="#9a32cd" stroke-dasharray="5,2" d="M223.2656,-65.0243C223.2656,-53.5169 223.2656,-39.2016 223.2656,-28.7499"/>
<polygon fill="#9a32cd" stroke="#9a32cd" points="219.7657,-65.3487 223.2656,-75.3487 226.7657,-65.3488 219.7657,-65.3487"/>
<text text-anchor="middle" x="241.8838" y="-49" font-family="Helvetica,sans-Serif" font-size="10.00" fill="#000000"> impulse</text>
</g>
<!-- Node8 -->
<g id="node8" class="node">
<title>Node8</title>
<polygon fill="#ffffff" stroke="#bfbfbf" points="232.2583,-140.5 232.2583,-158.5 298.2729,-158.5 298.2729,-140.5 232.2583,-140.5"/>
<text text-anchor="middle" x="265.2656" y="-146.5" font-family="Helvetica,sans-Serif" font-size="10.00" fill="#000000">Momentum</text>
</g>
<!-- Node8&#45;&gt;Node7 -->
<g id="edge7" class="edge">
<title>Node8&#45;&gt;Node7</title>
<path fill="none" stroke="#9a32cd" stroke-dasharray="5,2" d="M255.1478,-131.4344C251.5283,-125.1967 247.3355,-118.2164 243.2656,-112 239.1266,-105.678 234.1266,-98.803 230.1614,-93.5085"/>
<polygon fill="#9a32cd" stroke="#9a32cd" points="252.2704,-133.4542 260.2635,-140.4085 258.3518,-129.9876 252.2704,-133.4542"/>
<text text-anchor="middle" x="269.9429" y="-114" font-family="Helvetica,sans-Serif" font-size="10.00" fill="#000000"> elements</text>
</g>
</g>
</svg>
