<?xml version="1.0" encoding="UTF-8" standalone="no"?>
<!DOCTYPE svg PUBLIC "-//W3C//DTD SVG 1.1//EN"
 "http://www.w3.org/Graphics/SVG/1.1/DTD/svg11.dtd">
<!-- Generated by graphviz version 2.44.1 (20200629.0846)
 -->
<!-- Title: playrho::d2::MotorJointConf Pages: 1 -->
<svg width="235pt" height="220pt"
 viewBox="0.00 0.00 234.50 220.00" xmlns="http://www.w3.org/2000/svg" xmlns:xlink="http://www.w3.org/1999/xlink">
<g id="graph0" class="graph" transform="scale(1 1) rotate(0) translate(4 216)">
<title>playrho::d2::MotorJointConf</title>
<polygon fill="white" stroke="transparent" points="-4,4 -4,-216 230.5,-216 230.5,4 -4,4"/>
<!-- Node1 -->
<g id="node1" class="node">
<title>Node1</title>
<g id="a_node1"><a xlink:title="Motor joint definition.">
<polygon fill="#bfbfbf" stroke="black" points="0,-0.5 0,-19.5 137,-19.5 137,-0.5 0,-0.5"/>
<text text-anchor="middle" x="68.5" y="-7.5" font-family="Helvetica,sans-Serif" font-size="10.00">playrho::d2::MotorJointConf</text>
</a>
</g>
</g>
<!-- Node2 -->
<g id="node2" class="node">
<title>Node2</title>
<g id="a_node2"><a xlink:href="structplayrho_1_1d2_1_1JointBuilder.html" target="_top" xlink:title=" ">
<polygon fill="white" stroke="black" points="7.5,-57.5 7.5,-87.5 129.5,-87.5 129.5,-57.5 7.5,-57.5"/>
<text text-anchor="start" x="15.5" y="-75.5" font-family="Helvetica,sans-Serif" font-size="10.00">playrho::d2::JointBuilder</text>
<text text-anchor="middle" x="68.5" y="-64.5" font-family="Helvetica,sans-Serif" font-size="10.00">&lt; MotorJointConf &gt;</text>
</a>
</g>
</g>
<!-- Node2&#45;&gt;Node1 -->
<g id="edge1" class="edge">
<title>Node2&#45;&gt;Node1</title>
<path fill="none" stroke="midnightblue" d="M68.5,-47.35C68.5,-37.51 68.5,-26.78 68.5,-19.54"/>
<polygon fill="midnightblue" stroke="midnightblue" points="65,-47.47 68.5,-57.47 72,-47.47 65,-47.47"/>
</g>
<!-- Node3 -->
<g id="node3" class="node">
<title>Node3</title>
<g id="a_node3"><a xlink:href="structplayrho_1_1d2_1_1JointConf.html" target="_top" xlink:title="Base joint definition class.">
<polygon fill="white" stroke="black" points="8,-192.5 8,-211.5 121,-211.5 121,-192.5 8,-192.5"/>
<text text-anchor="middle" x="64.5" y="-199.5" font-family="Helvetica,sans-Serif" font-size="10.00">playrho::d2::JointConf</text>
</a>
</g>
</g>
<!-- Node3&#45;&gt;Node2 -->
<g id="edge2" class="edge">
<title>Node3&#45;&gt;Node2</title>
<path fill="none" stroke="midnightblue" d="M65.1,-181.9C65.91,-156.05 67.34,-110.54 68.06,-87.59"/>
<polygon fill="midnightblue" stroke="midnightblue" points="61.59,-182.13 64.77,-192.24 68.59,-182.35 61.59,-182.13"/>
</g>
<!-- Node4 -->
<g id="node4" class="node">
<title>Node4</title>
<g id="a_node4"><a xlink:href="structplayrho_1_1d2_1_1JointBuilder.html" target="_top" xlink:title="Joint builder definition structure.">
<polygon fill="white" stroke="black" points="80.5,-135.5 80.5,-154.5 226.5,-154.5 226.5,-135.5 80.5,-135.5"/>
<text text-anchor="middle" x="153.5" y="-142.5" font-family="Helvetica,sans-Serif" font-size="10.00">playrho::d2::JointBuilder&lt; T &gt;</text>
</a>
</g>
</g>
<!-- Node3&#45;&gt;Node4 -->
<g id="edge4" class="edge">
<title>Node3&#45;&gt;Node4</title>
<path fill="none" stroke="midnightblue" d="M86.98,-187.11C103.57,-176.86 125.62,-163.23 139.69,-154.53"/>
<polygon fill="midnightblue" stroke="midnightblue" points="85.07,-184.17 78.41,-192.41 88.75,-190.13 85.07,-184.17"/>
</g>
<!-- Node4&#45;&gt;Node2 -->
<g id="edge3" class="edge">
<title>Node4&#45;&gt;Node2</title>
<path fill="none" stroke="orange" stroke-dasharray="5,2" d="M135.15,-128.78C120.41,-116.55 99.84,-99.5 85.47,-87.58"/>
<polygon fill="orange" stroke="orange" points="133.15,-131.67 143.08,-135.36 137.61,-126.28 133.15,-131.67"/>
<text text-anchor="middle" x="162.5" y="-109" font-family="Helvetica,sans-Serif" font-size="10.00"> &lt; MotorJointConf &gt;</text>
</g>
</g>
</svg>
