<?xml version="1.0" encoding="UTF-8" standalone="no"?>
<!DOCTYPE svg PUBLIC "-//W3C//DTD SVG 1.1//EN"
 "http://www.w3.org/Graphics/SVG/1.1/DTD/svg11.dtd">
<!-- Generated by graphviz version 2.44.1 (20200629.0846)
 -->
<!-- Title: playrho::d2::WeldJointConf Pages: 1 -->
<svg width="1413pt" height="426pt"
 viewBox="0.00 0.00 1413.00 426.00" xmlns="http://www.w3.org/2000/svg" xmlns:xlink="http://www.w3.org/1999/xlink">
<g id="graph0" class="graph" transform="scale(1 1) rotate(0) translate(4 422)">
<title>playrho::d2::WeldJointConf</title>
<polygon fill="white" stroke="transparent" points="-4,4 -4,-422 1409,-422 1409,4 -4,4"/>
<!-- Node1 -->
<g id="node1" class="node">
<title>Node1</title>
<g id="a_node1"><a xlink:title="Weld joint definition.">
<polygon fill="#bfbfbf" stroke="black" points="1271,-165.5 1271,-184.5 1405,-184.5 1405,-165.5 1271,-165.5"/>
<text text-anchor="middle" x="1338" y="-172.5" font-family="Helvetica,sans-Serif" font-size="10.00">playrho::d2::WeldJointConf</text>
</a>
</g>
</g>
<!-- Node2 -->
<g id="node2" class="node">
<title>Node2</title>
<g id="a_node2"><a xlink:href="structplayrho_1_1d2_1_1JointBuilder.html" target="_top" xlink:title=" ">
<polygon fill="white" stroke="black" points="1036.5,-356 1036.5,-386 1158.5,-386 1158.5,-356 1036.5,-356"/>
<text text-anchor="start" x="1044.5" y="-374" font-family="Helvetica,sans-Serif" font-size="10.00">playrho::d2::JointBuilder</text>
<text text-anchor="middle" x="1097.5" y="-363" font-family="Helvetica,sans-Serif" font-size="10.00">&lt; WeldJointConf &gt;</text>
</a>
</g>
</g>
<!-- Node2&#45;&gt;Node1 -->
<g id="edge1" class="edge">
<title>Node2&#45;&gt;Node1</title>
<path fill="none" stroke="midnightblue" d="M1168.48,-363.02C1197.07,-356.91 1228.98,-346.1 1253,-327 1302.33,-287.79 1327.1,-211.29 1334.53,-184.52"/>
<polygon fill="midnightblue" stroke="midnightblue" points="1167.66,-359.62 1158.53,-365 1169.02,-366.49 1167.66,-359.62"/>
</g>
<!-- Node3 -->
<g id="node3" class="node">
<title>Node3</title>
<g id="a_node3"><a xlink:href="structplayrho_1_1d2_1_1JointConf.html" target="_top" xlink:title="Abstract base joint definition class.">
<polygon fill="white" stroke="black" points="573,-384.5 573,-403.5 686,-403.5 686,-384.5 573,-384.5"/>
<text text-anchor="middle" x="629.5" y="-391.5" font-family="Helvetica,sans-Serif" font-size="10.00">playrho::d2::JointConf</text>
</a>
</g>
</g>
<!-- Node3&#45;&gt;Node2 -->
<g id="edge2" class="edge">
<title>Node3&#45;&gt;Node2</title>
<path fill="none" stroke="midnightblue" d="M696.52,-396.01C772.57,-397.54 901.19,-397.71 1011,-386 1019.24,-385.12 1027.89,-383.93 1036.39,-382.59"/>
<polygon fill="midnightblue" stroke="midnightblue" points="696.21,-392.5 686.14,-395.79 696.06,-399.5 696.21,-392.5"/>
</g>
<!-- Node9 -->
<g id="node9" class="node">
<title>Node9</title>
<g id="a_node9"><a xlink:href="structplayrho_1_1d2_1_1JointBuilder.html" target="_top" xlink:title="Joint builder definition structure.">
<polygon fill="white" stroke="black" points="762,-361.5 762,-380.5 908,-380.5 908,-361.5 762,-361.5"/>
<text text-anchor="middle" x="835" y="-368.5" font-family="Helvetica,sans-Serif" font-size="10.00">playrho::d2::JointBuilder&lt; T &gt;</text>
</a>
</g>
</g>
<!-- Node3&#45;&gt;Node9 -->
<g id="edge9" class="edge">
<title>Node3&#45;&gt;Node9</title>
<path fill="none" stroke="midnightblue" d="M696.16,-386.58C717.06,-384.22 740.3,-381.59 761.64,-379.18"/>
<polygon fill="midnightblue" stroke="midnightblue" points="695.65,-383.11 686.11,-387.72 696.44,-390.07 695.65,-383.11"/>
</g>
<!-- Node4 -->
<g id="node4" class="node">
<title>Node4</title>
<g id="a_node4"><a xlink:href="classplayrho_1_1strongtype_1_1IndexingNamedType.html" target="_top" xlink:title=" ">
<polygon fill="white" stroke="black" points="345,-327 345,-379 458,-379 458,-327 345,-327"/>
<text text-anchor="start" x="353" y="-367" font-family="Helvetica,sans-Serif" font-size="10.00">playrho::strongtype</text>
<text text-anchor="start" x="353" y="-356" font-family="Helvetica,sans-Serif" font-size="10.00">::IndexingNamedType</text>
<text text-anchor="start" x="353" y="-345" font-family="Helvetica,sans-Serif" font-size="10.00">&lt; BodyCounter, struct</text>
<text text-anchor="middle" x="401.5" y="-334" font-family="Helvetica,sans-Serif" font-size="10.00"> BodyIdentifier &gt;</text>
</a>
</g>
</g>
<!-- Node4&#45;&gt;Node3 -->
<g id="edge3" class="edge">
<title>Node4&#45;&gt;Node3</title>
<path fill="none" stroke="#9a32cd" stroke-dasharray="5,2" d="M468.4,-358.78C495.41,-361.78 526.87,-366.08 555,-372 570.25,-375.21 586.91,-380.08 600.51,-384.42"/>
<polygon fill="#9a32cd" stroke="#9a32cd" points="468.6,-355.28 458.28,-357.7 467.85,-362.24 468.6,-355.28"/>
<text text-anchor="middle" x="515.5" y="-386" font-family="Helvetica,sans-Serif" font-size="10.00"> bodyA</text>
<text text-anchor="middle" x="515.5" y="-375" font-family="Helvetica,sans-Serif" font-size="10.00">bodyB</text>
</g>
<!-- Node5 -->
<g id="node5" class="node">
<title>Node5</title>
<g id="a_node5"><a xlink:title=" ">
<polygon fill="white" stroke="#bfbfbf" points="116,-314.5 116,-333.5 190,-333.5 190,-314.5 116,-314.5"/>
<text text-anchor="middle" x="153" y="-321.5" font-family="Helvetica,sans-Serif" font-size="10.00">BodyCounter</text>
</a>
</g>
</g>
<!-- Node5&#45;&gt;Node4 -->
<g id="edge4" class="edge">
<title>Node5&#45;&gt;Node4</title>
<path fill="none" stroke="#9a32cd" stroke-dasharray="5,2" d="M200.46,-329.29C235.3,-333.27 284.15,-338.9 327,-344 332.74,-344.68 338.74,-345.41 344.72,-346.13"/>
<polygon fill="#9a32cd" stroke="#9a32cd" points="200.46,-325.76 190.12,-328.1 199.66,-332.72 200.46,-325.76"/>
<text text-anchor="middle" x="277" y="-347" font-family="Helvetica,sans-Serif" font-size="10.00"> value_</text>
</g>
<!-- Node6 -->
<g id="node6" class="node">
<title>Node6</title>
<g id="a_node6"><a xlink:href="classplayrho_1_1strongtype_1_1IndexingNamedType.html" target="_top" xlink:title="An indexable, hashable, named &quot;strong type&quot; template class.">
<polygon fill="white" stroke="black" points="97,-352.5 97,-393.5 209,-393.5 209,-352.5 97,-352.5"/>
<text text-anchor="start" x="105" y="-381.5" font-family="Helvetica,sans-Serif" font-size="10.00">playrho::strongtype</text>
<text text-anchor="start" x="105" y="-370.5" font-family="Helvetica,sans-Serif" font-size="10.00">::IndexingNamedType</text>
<text text-anchor="middle" x="153" y="-359.5" font-family="Helvetica,sans-Serif" font-size="10.00">&lt; T, Tag &gt;</text>
</a>
</g>
</g>
<!-- Node6&#45;&gt;Node4 -->
<g id="edge5" class="edge">
<title>Node6&#45;&gt;Node4</title>
<path fill="none" stroke="orange" stroke-dasharray="5,2" d="M219.24,-367.71C258.34,-364.53 307.53,-360.54 344.8,-357.52"/>
<polygon fill="orange" stroke="orange" points="218.7,-364.24 209.01,-368.54 219.26,-371.22 218.7,-364.24"/>
<text text-anchor="start" x="227" y="-380" font-family="Helvetica,sans-Serif" font-size="10.00"> &lt; BodyCounter, struct</text>
<text text-anchor="middle" x="277" y="-369" font-family="Helvetica,sans-Serif" font-size="10.00"> BodyIdentifier &gt;</text>
</g>
<!-- Node7 -->
<g id="node7" class="node">
<title>Node7</title>
<g id="a_node7"><a xlink:title=" ">
<polygon fill="white" stroke="#bfbfbf" points="0,-292.5 0,-311.5 29,-311.5 29,-292.5 0,-292.5"/>
<text text-anchor="middle" x="14.5" y="-299.5" font-family="Helvetica,sans-Serif" font-size="10.00">T</text>
</a>
</g>
</g>
<!-- Node7&#45;&gt;Node6 -->
<g id="edge6" class="edge">
<title>Node7&#45;&gt;Node6</title>
<path fill="none" stroke="#9a32cd" stroke-dasharray="5,2" d="M38.15,-313.78C58.37,-324.3 88.42,-339.93 112.57,-352.49"/>
<polygon fill="#9a32cd" stroke="#9a32cd" points="39.57,-310.58 29.09,-309.07 36.34,-316.79 39.57,-310.58"/>
<text text-anchor="middle" x="63" y="-336" font-family="Helvetica,sans-Serif" font-size="10.00"> value_</text>
</g>
<!-- Node12 -->
<g id="node12" class="node">
<title>Node12</title>
<g id="a_node12"><a xlink:href="structplayrho_1_1Vector.html" target="_top" xlink:title="Vector.">
<polygon fill="white" stroke="black" points="775.5,-276.5 775.5,-295.5 894.5,-295.5 894.5,-276.5 775.5,-276.5"/>
<text text-anchor="middle" x="835" y="-283.5" font-family="Helvetica,sans-Serif" font-size="10.00">playrho::Vector&lt; T, N &gt;</text>
</a>
</g>
</g>
<!-- Node7&#45;&gt;Node12 -->
<g id="edge13" class="edge">
<title>Node7&#45;&gt;Node12</title>
<path fill="none" stroke="#9a32cd" stroke-dasharray="5,2" d="M39.08,-297.54C66.21,-292.81 112.16,-286 152,-286 152,-286 152,-286 630.5,-286 679.26,-286 734.58,-286 775.23,-286"/>
<polygon fill="#9a32cd" stroke="#9a32cd" points="38.22,-294.14 29,-299.36 39.46,-301.03 38.22,-294.14"/>
<text text-anchor="middle" x="401.5" y="-289" font-family="Helvetica,sans-Serif" font-size="10.00"> elements</text>
</g>
<!-- Node8 -->
<g id="node8" class="node">
<title>Node8</title>
<g id="a_node8"><a xlink:title=" ">
<polygon fill="white" stroke="#bfbfbf" points="384,-398.5 384,-417.5 419,-417.5 419,-398.5 384,-398.5"/>
<text text-anchor="middle" x="401.5" y="-405.5" font-family="Helvetica,sans-Serif" font-size="10.00">bool</text>
</a>
</g>
</g>
<!-- Node8&#45;&gt;Node3 -->
<g id="edge7" class="edge">
<title>Node8&#45;&gt;Node3</title>
<path fill="none" stroke="#9a32cd" stroke-dasharray="5,2" d="M429.53,-406.33C464.72,-404.15 527.1,-400.28 572.66,-397.46"/>
<polygon fill="#9a32cd" stroke="#9a32cd" points="428.88,-402.86 419.12,-406.97 429.32,-409.85 428.88,-402.86"/>
<text text-anchor="middle" x="515.5" y="-406" font-family="Helvetica,sans-Serif" font-size="10.00"> collideConnected</text>
</g>
<!-- Node9&#45;&gt;Node2 -->
<g id="edge8" class="edge">
<title>Node9&#45;&gt;Node2</title>
<path fill="none" stroke="orange" stroke-dasharray="5,2" d="M918.33,-371C956.65,-371 1001.4,-371 1036.47,-371"/>
<polygon fill="orange" stroke="orange" points="918.22,-367.5 908.22,-371 918.22,-374.5 918.22,-367.5"/>
<text text-anchor="middle" x="968.5" y="-374" font-family="Helvetica,sans-Serif" font-size="10.00"> &lt; WeldJointConf &gt;</text>
</g>
<!-- Node10 -->
<g id="node10" class="node">
<title>Node10</title>
<g id="a_node10"><a xlink:href="structplayrho_1_1Vector.html" target="_top" xlink:title=" ">
<polygon fill="white" stroke="black" points="1032.5,-289.5 1032.5,-308.5 1162.5,-308.5 1162.5,-289.5 1032.5,-289.5"/>
<text text-anchor="middle" x="1097.5" y="-296.5" font-family="Helvetica,sans-Serif" font-size="10.00">playrho::Vector&lt; Length &gt;</text>
</a>
</g>
</g>
<!-- Node10&#45;&gt;Node1 -->
<g id="edge10" class="edge">
<title>Node10&#45;&gt;Node1</title>
<path fill="none" stroke="#9a32cd" stroke-dasharray="5,2" d="M1159.63,-287.07C1189.11,-279.69 1224.23,-268.42 1253,-252 1285.3,-233.56 1315.46,-200.68 1329.21,-184.51"/>
<polygon fill="#9a32cd" stroke="#9a32cd" points="1158.76,-283.68 1149.86,-289.43 1160.4,-290.49 1158.76,-283.68"/>
<text text-anchor="middle" x="1218.5" y="-315" font-family="Helvetica,sans-Serif" font-size="10.00"> localAnchorA</text>
<text text-anchor="middle" x="1218.5" y="-304" font-family="Helvetica,sans-Serif" font-size="10.00">localAnchorB</text>
<text text-anchor="middle" x="1218.5" y="-293" font-family="Helvetica,sans-Serif" font-size="10.00">rA</text>
<text text-anchor="middle" x="1218.5" y="-282" font-family="Helvetica,sans-Serif" font-size="10.00">rB</text>
</g>
<!-- Node11 -->
<g id="node11" class="node">
<title>Node11</title>
<g id="a_node11"><a xlink:title=" ">
<polygon fill="white" stroke="#bfbfbf" points="812,-323.5 812,-342.5 858,-342.5 858,-323.5 812,-323.5"/>
<text text-anchor="middle" x="835" y="-330.5" font-family="Helvetica,sans-Serif" font-size="10.00">Length</text>
</a>
</g>
</g>
<!-- Node11&#45;&gt;Node10 -->
<g id="edge11" class="edge">
<title>Node11&#45;&gt;Node10</title>
<path fill="none" stroke="#9a32cd" stroke-dasharray="5,2" d="M868.13,-328.81C908.91,-323.48 980.2,-314.18 1032.31,-307.38"/>
<polygon fill="#9a32cd" stroke="#9a32cd" points="867.67,-325.34 858.21,-330.1 868.58,-332.28 867.67,-325.34"/>
<text text-anchor="middle" x="968.5" y="-324" font-family="Helvetica,sans-Serif" font-size="10.00"> elements</text>
</g>
<!-- Node12&#45;&gt;Node10 -->
<g id="edge12" class="edge">
<title>Node12&#45;&gt;Node10</title>
<path fill="none" stroke="orange" stroke-dasharray="5,2" d="M904.88,-289.44C944.42,-291.41 993.75,-293.87 1032.45,-295.8"/>
<polygon fill="orange" stroke="orange" points="904.95,-285.94 894.79,-288.93 904.6,-292.93 904.95,-285.94"/>
<text text-anchor="middle" x="968.5" y="-297" font-family="Helvetica,sans-Serif" font-size="10.00"> &lt; Length &gt;</text>
</g>
<!-- Node13 -->
<g id="node13" class="node">
<title>Node13</title>
<g id="a_node13"><a xlink:href="structplayrho_1_1Vector.html" target="_top" xlink:title=" ">
<polygon fill="white" stroke="black" points="1037,-227.5 1037,-246.5 1158,-246.5 1158,-227.5 1037,-227.5"/>
<text text-anchor="middle" x="1097.5" y="-234.5" font-family="Helvetica,sans-Serif" font-size="10.00">playrho::Vector&lt; Real &gt;</text>
</a>
</g>
</g>
<!-- Node12&#45;&gt;Node13 -->
<g id="edge16" class="edge">
<title>Node12&#45;&gt;Node13</title>
<path fill="none" stroke="orange" stroke-dasharray="5,2" d="M896.51,-274.62C941.76,-266.11 1002.93,-254.6 1045.66,-246.56"/>
<polygon fill="orange" stroke="orange" points="895.72,-271.21 886.54,-276.49 897.01,-278.09 895.72,-271.21"/>
<text text-anchor="middle" x="968.5" y="-271" font-family="Helvetica,sans-Serif" font-size="10.00"> &lt; Real &gt;</text>
</g>
<!-- Node13&#45;&gt;Node1 -->
<g id="edge14" class="edge">
<title>Node13&#45;&gt;Node1</title>
<path fill="none" stroke="#9a32cd" stroke-dasharray="5,2" d="M1168.42,-229.53C1195.21,-225.67 1225.85,-220.03 1253,-212 1276.53,-205.04 1302.15,-193.06 1318.83,-184.62"/>
<polygon fill="#9a32cd" stroke="#9a32cd" points="1167.78,-226.08 1158.35,-230.92 1168.74,-233.01 1167.78,-226.08"/>
<text text-anchor="middle" x="1218.5" y="-240" font-family="Helvetica,sans-Serif" font-size="10.00"> impulse</text>
<text text-anchor="middle" x="1218.5" y="-229" font-family="Helvetica,sans-Serif" font-size="10.00">mass</text>
</g>
<!-- Node14 -->
<g id="node14" class="node">
<title>Node14</title>
<g id="a_node14"><a xlink:title=" ">
<polygon fill="white" stroke="#bfbfbf" points="817.5,-205.5 817.5,-224.5 852.5,-224.5 852.5,-205.5 817.5,-205.5"/>
<text text-anchor="middle" x="835" y="-212.5" font-family="Helvetica,sans-Serif" font-size="10.00">float</text>
</a>
</g>
</g>
<!-- Node14&#45;&gt;Node1 -->
<g id="edge17" class="edge">
<title>Node14&#45;&gt;Node1</title>
<path fill="none" stroke="#9a32cd" stroke-dasharray="5,2" d="M862.87,-212.85C939.28,-206.75 1159.44,-189.18 1270.81,-180.28"/>
<polygon fill="#9a32cd" stroke="#9a32cd" points="862.36,-209.38 852.67,-213.67 862.92,-216.36 862.36,-209.38"/>
<text text-anchor="middle" x="1097.5" y="-201" font-family="Helvetica,sans-Serif" font-size="10.00"> dampingRatio</text>
</g>
<!-- Node14&#45;&gt;Node13 -->
<g id="edge15" class="edge">
<title>Node14&#45;&gt;Node13</title>
<path fill="none" stroke="#9a32cd" stroke-dasharray="5,2" d="M862.9,-217.27C903.65,-220.71 982.06,-227.34 1036.74,-231.95"/>
<polygon fill="#9a32cd" stroke="#9a32cd" points="862.95,-213.76 852.69,-216.41 862.36,-220.74 862.95,-213.76"/>
<text text-anchor="middle" x="968.5" y="-232" font-family="Helvetica,sans-Serif" font-size="10.00"> elements</text>
</g>
<!-- Node15 -->
<g id="node15" class="node">
<title>Node15</title>
<g id="a_node15"><a xlink:title=" ">
<polygon fill="white" stroke="#bfbfbf" points="1052.5,-142.5 1052.5,-161.5 1142.5,-161.5 1142.5,-142.5 1052.5,-142.5"/>
<text text-anchor="middle" x="1097.5" y="-149.5" font-family="Helvetica,sans-Serif" font-size="10.00">angular_velocity)</text>
</a>
</g>
</g>
<!-- Node15&#45;&gt;Node1 -->
<g id="edge18" class="edge">
<title>Node15&#45;&gt;Node1</title>
<path fill="none" stroke="#9a32cd" stroke-dasharray="5,2" d="M1152.56,-157.21C1187.6,-160.59 1233.48,-165.02 1270.71,-168.61"/>
<polygon fill="#9a32cd" stroke="#9a32cd" points="1152.81,-153.72 1142.52,-156.25 1152.14,-160.69 1152.81,-153.72"/>
<text text-anchor="middle" x="1218.5" y="-169" font-family="Helvetica,sans-Serif" font-size="10.00"> bias</text>
</g>
<!-- Node16 -->
<g id="node16" class="node">
<title>Node16</title>
<g id="a_node16"><a xlink:title=" ">
<polygon fill="white" stroke="#bfbfbf" points="1062,-104.5 1062,-123.5 1133,-123.5 1133,-104.5 1062,-104.5"/>
<text text-anchor="middle" x="1097.5" y="-111.5" font-family="Helvetica,sans-Serif" font-size="10.00">plane_angle)</text>
</a>
</g>
</g>
<!-- Node16&#45;&gt;Node1 -->
<g id="edge19" class="edge">
<title>Node16&#45;&gt;Node1</title>
<path fill="none" stroke="#9a32cd" stroke-dasharray="5,2" d="M1143.28,-121.21C1174.35,-126.65 1216.52,-134.88 1253,-145 1273.59,-150.71 1296.39,-158.98 1313.04,-165.39"/>
<polygon fill="#9a32cd" stroke="#9a32cd" points="1143.65,-117.73 1133.2,-119.48 1142.46,-124.62 1143.65,-117.73"/>
<text text-anchor="middle" x="1218.5" y="-148" font-family="Helvetica,sans-Serif" font-size="10.00"> referenceAngle</text>
</g>
<!-- Node17 -->
<g id="node17" class="node">
<title>Node17</title>
<g id="a_node17"><a xlink:title=" ">
<polygon fill="white" stroke="#bfbfbf" points="1029,-66.5 1029,-85.5 1166,-85.5 1166,-66.5 1029,-66.5"/>
<text text-anchor="middle" x="1097.5" y="-73.5" font-family="Helvetica,sans-Serif" font-size="10.00">inverse_moment_of_inertia)</text>
</a>
</g>
</g>
<!-- Node17&#45;&gt;Node1 -->
<g id="edge20" class="edge">
<title>Node17&#45;&gt;Node1</title>
<path fill="none" stroke="#9a32cd" stroke-dasharray="5,2" d="M1170.55,-87.68C1197.23,-93.55 1227.23,-102.04 1253,-114 1282.26,-127.58 1311.67,-152 1326.72,-165.45"/>
<polygon fill="#9a32cd" stroke="#9a32cd" points="1171.01,-84.2 1160.51,-85.56 1169.57,-91.05 1171.01,-84.2"/>
<text text-anchor="middle" x="1218.5" y="-117" font-family="Helvetica,sans-Serif" font-size="10.00"> gamma</text>
</g>
<!-- Node18 -->
<g id="node18" class="node">
<title>Node18</title>
<g id="a_node18"><a xlink:href="classplayrho_1_1CheckedValue.html" target="_top" xlink:title=" ">
<polygon fill="white" stroke="black" points="1039,-17 1039,-47 1156,-47 1156,-17 1039,-17"/>
<text text-anchor="start" x="1047" y="-35" font-family="Helvetica,sans-Serif" font-size="10.00">playrho::CheckedValue</text>
<text text-anchor="middle" x="1097.5" y="-24" font-family="Helvetica,sans-Serif" font-size="10.00">&lt; Frequency &gt;</text>
</a>
</g>
</g>
<!-- Node18&#45;&gt;Node1 -->
<g id="edge21" class="edge">
<title>Node18&#45;&gt;Node1</title>
<path fill="none" stroke="#9a32cd" stroke-dasharray="5,2" d="M1166.06,-42.23C1194.52,-48.75 1226.99,-59.25 1253,-76 1290.33,-100.05 1319.95,-145.71 1331.62,-165.48"/>
<polygon fill="#9a32cd" stroke="#9a32cd" points="1166.7,-38.79 1156.18,-40.09 1165.21,-45.63 1166.7,-38.79"/>
<text text-anchor="middle" x="1218.5" y="-79" font-family="Helvetica,sans-Serif" font-size="10.00"> frequency</text>
</g>
<!-- Node19 -->
<g id="node19" class="node">
<title>Node19</title>
<g id="a_node19"><a xlink:title=" ">
<polygon fill="white" stroke="#bfbfbf" points="804,-0.5 804,-19.5 866,-19.5 866,-0.5 804,-0.5"/>
<text text-anchor="middle" x="835" y="-7.5" font-family="Helvetica,sans-Serif" font-size="10.00">Frequency</text>
</a>
</g>
</g>
<!-- Node19&#45;&gt;Node18 -->
<g id="edge22" class="edge">
<title>Node19&#45;&gt;Node18</title>
<path fill="none" stroke="#9a32cd" stroke-dasharray="5,2" d="M876.58,-9.66C912.13,-9.78 965.13,-10.95 1011,-16 1020.01,-16.99 1029.49,-18.4 1038.73,-19.97"/>
<polygon fill="#9a32cd" stroke="#9a32cd" points="876.14,-6.16 866.14,-9.66 876.13,-13.16 876.14,-6.16"/>
<text text-anchor="middle" x="968.5" y="-19" font-family="Helvetica,sans-Serif" font-size="10.00"> m_value</text>
</g>
<!-- Node20 -->
<g id="node20" class="node">
<title>Node20</title>
<g id="a_node20"><a xlink:href="classplayrho_1_1CheckedValue.html" target="_top" xlink:title="Checked value.">
<polygon fill="white" stroke="black" points="763.5,-39 763.5,-69 906.5,-69 906.5,-39 763.5,-39"/>
<text text-anchor="start" x="771.5" y="-57" font-family="Helvetica,sans-Serif" font-size="10.00">playrho::CheckedValue</text>
<text text-anchor="middle" x="835" y="-46" font-family="Helvetica,sans-Serif" font-size="10.00">&lt; ValueType, CheckerType &gt;</text>
</a>
</g>
</g>
<!-- Node20&#45;&gt;Node18 -->
<g id="edge23" class="edge">
<title>Node20&#45;&gt;Node18</title>
<path fill="none" stroke="orange" stroke-dasharray="5,2" d="M916.98,-47.16C956.46,-43.83 1003.03,-39.89 1038.84,-36.87"/>
<polygon fill="orange" stroke="orange" points="916.51,-43.69 906.84,-48.02 917.1,-50.66 916.51,-43.69"/>
<text text-anchor="middle" x="968.5" y="-49" font-family="Helvetica,sans-Serif" font-size="10.00"> &lt; Frequency &gt;</text>
</g>
<!-- Node21 -->
<g id="node21" class="node">
<title>Node21</title>
<g id="a_node21"><a xlink:title=" ">
<polygon fill="white" stroke="#bfbfbf" points="598.5,-44.5 598.5,-63.5 660.5,-63.5 660.5,-44.5 598.5,-44.5"/>
<text text-anchor="middle" x="629.5" y="-51.5" font-family="Helvetica,sans-Serif" font-size="10.00">ValueType</text>
</a>
</g>
</g>
<!-- Node21&#45;&gt;Node20 -->
<g id="edge24" class="edge">
<title>Node21&#45;&gt;Node20</title>
<path fill="none" stroke="#9a32cd" stroke-dasharray="5,2" d="M670.54,-54C696.96,-54 732.29,-54 763.34,-54"/>
<polygon fill="#9a32cd" stroke="#9a32cd" points="670.53,-50.5 660.53,-54 670.53,-57.5 670.53,-50.5"/>
<text text-anchor="middle" x="724" y="-57" font-family="Helvetica,sans-Serif" font-size="10.00"> m_value</text>
</g>
</g>
</svg>
