<?xml version="1.0" encoding="UTF-8" standalone="no"?>
<!DOCTYPE svg PUBLIC "-//W3C//DTD SVG 1.1//EN"
 "http://www.w3.org/Graphics/SVG/1.1/DTD/svg11.dtd">
<!-- Generated by graphviz version 2.44.1 (20200629.0846)
 -->
<!-- Title: playrho::Wider&lt; T &gt; Pages: 1 -->
<svg width="384pt" height="176pt"
 viewBox="0.00 0.00 384.00 175.50" xmlns="http://www.w3.org/2000/svg" xmlns:xlink="http://www.w3.org/1999/xlink">
<g id="graph0" class="graph" transform="scale(1 1) rotate(0) translate(4 171.5)">
<title>playrho::Wider&lt; T &gt;</title>
<polygon fill="white" stroke="transparent" points="-4,4 -4,-171.5 380,-171.5 380,4 -4,4"/>
<!-- Node1 -->
<g id="node1" class="node">
<title>Node1</title>
<g id="a_node1"><a xlink:title="Wider data type obtainer.">
<polygon fill="#bfbfbf" stroke="black" points="0,-79 0,-98 104,-98 104,-79 0,-79"/>
<text text-anchor="middle" x="52" y="-86" font-family="Helvetica,sans-Serif" font-size="10.00">playrho::Wider&lt; T &gt;</text>
</a>
</g>
</g>
<!-- Node2 -->
<g id="node2" class="node">
<title>Node2</title>
<g id="a_node2"><a xlink:href="structplayrho_1_1Wider.html" target="_top" xlink:title=" ">
<polygon fill="white" stroke="black" points="221,-148 221,-167 376,-167 376,-148 221,-148"/>
<text text-anchor="middle" x="298.5" y="-155" font-family="Helvetica,sans-Serif" font-size="10.00">playrho::Wider&lt; BodyCounter &gt;</text>
</a>
</g>
</g>
<!-- Node1&#45;&gt;Node2 -->
<g id="edge1" class="edge">
<title>Node1&#45;&gt;Node2</title>
<path fill="none" stroke="orange" stroke-dasharray="5,2" d="M82.36,-102.17C94.45,-107.45 108.72,-113.23 122,-117.5 162.46,-130.5 209.46,-140.98 244.64,-147.95"/>
<polygon fill="orange" stroke="orange" points="83.74,-98.95 73.18,-98.08 80.89,-105.34 83.74,-98.95"/>
<text text-anchor="middle" x="162.5" y="-141.5" font-family="Helvetica,sans-Serif" font-size="10.00"> &lt; BodyCounter &gt;</text>
</g>
<!-- Node3 -->
<g id="node3" class="node">
<title>Node3</title>
<g id="a_node3"><a xlink:href="structplayrho_1_1Wider.html" target="_top" xlink:title=" ">
<polygon fill="white" stroke="black" points="249,-98.5 249,-128.5 348,-128.5 348,-98.5 249,-98.5"/>
<text text-anchor="start" x="257" y="-116.5" font-family="Helvetica,sans-Serif" font-size="10.00">playrho::Wider&lt; toi</text>
<text text-anchor="middle" x="298.5" y="-105.5" font-family="Helvetica,sans-Serif" font-size="10.00">_iter_type &gt;</text>
</a>
</g>
</g>
<!-- Node1&#45;&gt;Node3 -->
<g id="edge2" class="edge">
<title>Node1&#45;&gt;Node3</title>
<path fill="none" stroke="orange" stroke-dasharray="5,2" d="M114.27,-94.77C155.88,-99.02 210.16,-104.57 248.81,-108.52"/>
<polygon fill="orange" stroke="orange" points="114.56,-91.28 104.26,-93.74 113.85,-98.24 114.56,-91.28"/>
<text text-anchor="middle" x="162.5" y="-105.5" font-family="Helvetica,sans-Serif" font-size="10.00"> &lt; toi_iter_type &gt;</text>
</g>
<!-- Node4 -->
<g id="node4" class="node">
<title>Node4</title>
<g id="a_node4"><a xlink:href="structplayrho_1_1Wider.html" target="_top" xlink:title=" ">
<polygon fill="white" stroke="black" points="246,-49.5 246,-79.5 351,-79.5 351,-49.5 246,-49.5"/>
<text text-anchor="start" x="254" y="-67.5" font-family="Helvetica,sans-Serif" font-size="10.00">playrho::Wider&lt; root</text>
<text text-anchor="middle" x="298.5" y="-56.5" font-family="Helvetica,sans-Serif" font-size="10.00">_iter_type &gt;</text>
</a>
</g>
</g>
<!-- Node1&#45;&gt;Node4 -->
<g id="edge3" class="edge">
<title>Node1&#45;&gt;Node4</title>
<path fill="none" stroke="orange" stroke-dasharray="5,2" d="M114.32,-81.31C116.91,-81.03 119.48,-80.76 122,-80.5 163.54,-76.2 210.68,-71.94 245.63,-68.89"/>
<polygon fill="orange" stroke="orange" points="113.79,-77.85 104.23,-82.42 114.55,-84.81 113.79,-77.85"/>
<text text-anchor="middle" x="162.5" y="-83.5" font-family="Helvetica,sans-Serif" font-size="10.00"> &lt; root_iter_type &gt;</text>
</g>
<!-- Node5 -->
<g id="node5" class="node">
<title>Node5</title>
<g id="a_node5"><a xlink:href="structplayrho_1_1Wider.html" target="_top" xlink:title=" ">
<polygon fill="white" stroke="black" points="246.5,-0.5 246.5,-30.5 350.5,-30.5 350.5,-0.5 246.5,-0.5"/>
<text text-anchor="start" x="254.5" y="-18.5" font-family="Helvetica,sans-Serif" font-size="10.00">playrho::Wider&lt; dist</text>
<text text-anchor="middle" x="298.5" y="-7.5" font-family="Helvetica,sans-Serif" font-size="10.00">_iter_type &gt;</text>
</a>
</g>
</g>
<!-- Node1&#45;&gt;Node5 -->
<g id="edge4" class="edge">
<title>Node1&#45;&gt;Node5</title>
<path fill="none" stroke="orange" stroke-dasharray="5,2" d="M80.97,-74.5C93.33,-68.69 108.17,-62.21 122,-57.5 163.07,-43.5 211.07,-32.35 246.48,-25.07"/>
<polygon fill="orange" stroke="orange" points="79.15,-71.49 71.65,-78.97 82.18,-77.8 79.15,-71.49"/>
<text text-anchor="middle" x="162.5" y="-60.5" font-family="Helvetica,sans-Serif" font-size="10.00"> &lt; dist_iter_type &gt;</text>
</g>
</g>
</svg>
