<?xml version="1.0" encoding="UTF-8" standalone="no"?>
<!DOCTYPE svg PUBLIC "-//W3C//DTD SVG 1.1//EN"
 "http://www.w3.org/Graphics/SVG/1.1/DTD/svg11.dtd">
<!-- Generated by graphviz version 2.40.1 (20161225.0304)
 -->
<!-- Title: playrho::d2::Island Pages: 1 -->
<svg width="315pt" height="92pt"
 viewBox="0.00 0.00 315.32 92.00" xmlns="http://www.w3.org/2000/svg" xmlns:xlink="http://www.w3.org/1999/xlink">
<g id="graph0" class="graph" transform="scale(1 1) rotate(0) translate(4 88)">
<title>playrho::d2::Island</title>
<polygon fill="#ffffff" stroke="transparent" points="-4,4 -4,-88 311.3174,-88 311.3174,4 -4,4"/>
<!-- Node1 -->
<g id="node1" class="node">
<title>Node1</title>
<polygon fill="#bfbfbf" stroke="#000000" points="103.8818,-.5 103.8818,-18.5 201.6006,-18.5 201.6006,-.5 103.8818,-.5"/>
<text text-anchor="middle" x="152.7412" y="-6.5" font-family="Helvetica,sans-Serif" font-size="10.00" fill="#000000">playrho::d2::Island</text>
</g>
<!-- Node2 -->
<g id="node2" class="node">
<title>Node2</title>
<polygon fill="#ffffff" stroke="#bfbfbf" points="0,-65.5 0,-83.5 85.4824,-83.5 85.4824,-65.5 0,-65.5"/>
<text text-anchor="middle" x="42.7412" y="-71.5" font-family="Helvetica,sans-Serif" font-size="10.00" fill="#000000">vector&lt; Joint *&gt;</text>
</g>
<!-- Node2&#45;&gt;Node1 -->
<g id="edge1" class="edge">
<title>Node2&#45;&gt;Node1</title>
<path fill="none" stroke="#9a32cd" stroke-dasharray="5,2" d="M66.8642,-60.2455C88.2733,-47.5947 118.916,-29.4876 137.2215,-18.6708"/>
<polygon fill="#9a32cd" stroke="#9a32cd" points="64.8649,-57.3614 58.0362,-65.462 68.4261,-63.3879 64.8649,-57.3614"/>
<text text-anchor="middle" x="124.7485" y="-39" font-family="Helvetica,sans-Serif" font-size="10.00" fill="#000000"> m_joints</text>
</g>
<!-- Node3 -->
<g id="node3" class="node">
<title>Node3</title>
<polygon fill="#ffffff" stroke="#bfbfbf" points="103.3301,-65.5 103.3301,-83.5 202.1523,-83.5 202.1523,-65.5 103.3301,-65.5"/>
<text text-anchor="middle" x="152.7412" y="-71.5" font-family="Helvetica,sans-Serif" font-size="10.00" fill="#000000">vector&lt; Contact *&gt;</text>
</g>
<!-- Node3&#45;&gt;Node1 -->
<g id="edge2" class="edge">
<title>Node3&#45;&gt;Node1</title>
<path fill="none" stroke="#9a32cd" stroke-dasharray="5,2" d="M152.7412,-55.1265C152.7412,-43.1522 152.7412,-28.3205 152.7412,-18.8821"/>
<polygon fill="#9a32cd" stroke="#9a32cd" points="149.2413,-55.462 152.7412,-65.462 156.2413,-55.4621 149.2413,-55.462"/>
<text text-anchor="middle" x="179.6968" y="-39" font-family="Helvetica,sans-Serif" font-size="10.00" fill="#000000"> m_contacts</text>
</g>
<!-- Node4 -->
<g id="node4" class="node">
<title>Node4</title>
<polygon fill="#ffffff" stroke="#bfbfbf" points="220.165,-65.5 220.165,-83.5 307.3174,-83.5 307.3174,-65.5 220.165,-65.5"/>
<text text-anchor="middle" x="263.7412" y="-71.5" font-family="Helvetica,sans-Serif" font-size="10.00" fill="#000000">vector&lt; Body *&gt;</text>
</g>
<!-- Node4&#45;&gt;Node1 -->
<g id="edge3" class="edge">
<title>Node4&#45;&gt;Node1</title>
<path fill="none" stroke="#9a32cd" stroke-dasharray="5,2" d="M243.7456,-59.1131C234.0448,-51.9739 222.0639,-43.6229 210.7412,-37 199.0057,-30.1357 185.2831,-23.5683 174.1327,-18.5739"/>
<polygon fill="#9a32cd" stroke="#9a32cd" points="241.8276,-62.0495 251.9292,-65.2446 246.0249,-56.4474 241.8276,-62.0495"/>
<text text-anchor="middle" x="248.8101" y="-39" font-family="Helvetica,sans-Serif" font-size="10.00" fill="#000000"> m_bodies</text>
</g>
</g>
</svg>
