<?xml version="1.0" encoding="UTF-8" standalone="no"?>
<!DOCTYPE svg PUBLIC "-//W3C//DTD SVG 1.1//EN"
 "http://www.w3.org/Graphics/SVG/1.1/DTD/svg11.dtd">
<!-- Generated by graphviz version 2.44.1 (20200629.0846)
 -->
<!-- Title: playrho::d2::ShapeBuilder&lt; ConcreteConf &gt; Pages: 1 -->
<svg width="777pt" height="284pt"
 viewBox="0.00 0.00 777.00 284.00" xmlns="http://www.w3.org/2000/svg" xmlns:xlink="http://www.w3.org/1999/xlink">
<g id="graph0" class="graph" transform="scale(1 1) rotate(0) translate(4 280)">
<title>playrho::d2::ShapeBuilder&lt; ConcreteConf &gt;</title>
<polygon fill="white" stroke="transparent" points="-4,4 -4,-280 773,-280 773,4 -4,4"/>
<!-- Node1 -->
<g id="node1" class="node">
<title>Node1</title>
<g id="a_node1"><a xlink:title="Builder configuration structure.">
<polygon fill="#bfbfbf" stroke="black" points="179,-122.5 179,-152.5 307,-152.5 307,-122.5 179,-122.5"/>
<text text-anchor="start" x="187" y="-140.5" font-family="Helvetica,sans-Serif" font-size="10.00">playrho::d2::ShapeBuilder</text>
<text text-anchor="middle" x="243" y="-129.5" font-family="Helvetica,sans-Serif" font-size="10.00">&lt; ConcreteConf &gt;</text>
</a>
</g>
</g>
<!-- Node3 -->
<g id="node3" class="node">
<title>Node3</title>
<g id="a_node3"><a xlink:href="structplayrho_1_1d2_1_1ShapeBuilder.html" target="_top" xlink:title=" ">
<polygon fill="white" stroke="black" points="449,-245.5 449,-275.5 577,-275.5 577,-245.5 449,-245.5"/>
<text text-anchor="start" x="457" y="-263.5" font-family="Helvetica,sans-Serif" font-size="10.00">playrho::d2::ShapeBuilder</text>
<text text-anchor="middle" x="513" y="-252.5" font-family="Helvetica,sans-Serif" font-size="10.00">&lt; DiskShapeConf &gt;</text>
</a>
</g>
</g>
<!-- Node1&#45;&gt;Node3 -->
<g id="edge2" class="edge">
<title>Node1&#45;&gt;Node3</title>
<path fill="none" stroke="orange" stroke-dasharray="5,2" d="M263.97,-160.12C279.22,-176.07 301.54,-196.79 325,-209.5 363.47,-230.34 411.09,-243.16 448.65,-250.74"/>
<polygon fill="orange" stroke="orange" points="266.46,-157.65 257.08,-152.72 261.34,-162.42 266.46,-157.65"/>
<text text-anchor="middle" x="378" y="-248.5" font-family="Helvetica,sans-Serif" font-size="10.00"> &lt; DiskShapeConf &gt;</text>
</g>
<!-- Node5 -->
<g id="node5" class="node">
<title>Node5</title>
<g id="a_node5"><a xlink:href="structplayrho_1_1d2_1_1ShapeBuilder.html" target="_top" xlink:title=" ">
<polygon fill="white" stroke="black" points="449,-196.5 449,-226.5 577,-226.5 577,-196.5 449,-196.5"/>
<text text-anchor="start" x="457" y="-214.5" font-family="Helvetica,sans-Serif" font-size="10.00">playrho::d2::ShapeBuilder</text>
<text text-anchor="middle" x="513" y="-203.5" font-family="Helvetica,sans-Serif" font-size="10.00">&lt; EdgeShapeConf &gt;</text>
</a>
</g>
</g>
<!-- Node1&#45;&gt;Node5 -->
<g id="edge4" class="edge">
<title>Node1&#45;&gt;Node5</title>
<path fill="none" stroke="orange" stroke-dasharray="5,2" d="M289.67,-156.26C301.1,-160.59 313.41,-164.97 325,-168.5 365.63,-180.88 412.17,-191.59 448.66,-199.23"/>
<polygon fill="orange" stroke="orange" points="290.91,-152.98 280.32,-152.64 288.38,-159.51 290.91,-152.98"/>
<text text-anchor="middle" x="378" y="-197.5" font-family="Helvetica,sans-Serif" font-size="10.00"> &lt; EdgeShapeConf &gt;</text>
</g>
<!-- Node7 -->
<g id="node7" class="node">
<title>Node7</title>
<g id="a_node7"><a xlink:href="structplayrho_1_1d2_1_1ShapeBuilder.html" target="_top" xlink:title=" ">
<polygon fill="white" stroke="black" points="449,-147.5 449,-177.5 577,-177.5 577,-147.5 449,-147.5"/>
<text text-anchor="start" x="457" y="-165.5" font-family="Helvetica,sans-Serif" font-size="10.00">playrho::d2::ShapeBuilder</text>
<text text-anchor="middle" x="513" y="-154.5" font-family="Helvetica,sans-Serif" font-size="10.00">&lt; PolygonShapeConf &gt;</text>
</a>
</g>
</g>
<!-- Node1&#45;&gt;Node7 -->
<g id="edge6" class="edge">
<title>Node1&#45;&gt;Node7</title>
<path fill="none" stroke="orange" stroke-dasharray="5,2" d="M317.16,-144.32C358.37,-148.17 409.32,-152.92 448.79,-156.6"/>
<polygon fill="orange" stroke="orange" points="317.45,-140.84 307.17,-143.39 316.8,-147.81 317.45,-140.84"/>
<text text-anchor="middle" x="378" y="-156.5" font-family="Helvetica,sans-Serif" font-size="10.00"> &lt; PolygonShapeConf &gt;</text>
</g>
<!-- Node9 -->
<g id="node9" class="node">
<title>Node9</title>
<g id="a_node9"><a xlink:href="structplayrho_1_1d2_1_1ShapeBuilder.html" target="_top" xlink:title=" ">
<polygon fill="white" stroke="black" points="449,-98.5 449,-128.5 577,-128.5 577,-98.5 449,-98.5"/>
<text text-anchor="start" x="457" y="-116.5" font-family="Helvetica,sans-Serif" font-size="10.00">playrho::d2::ShapeBuilder</text>
<text text-anchor="middle" x="513" y="-105.5" font-family="Helvetica,sans-Serif" font-size="10.00">&lt; ShapeConf &gt;</text>
</a>
</g>
</g>
<!-- Node1&#45;&gt;Node9 -->
<g id="edge8" class="edge">
<title>Node1&#45;&gt;Node9</title>
<path fill="none" stroke="orange" stroke-dasharray="5,2" d="M317.28,-126.37C319.89,-126.06 322.46,-125.77 325,-125.5 366.09,-121.15 412.43,-118.16 448.7,-116.25"/>
<polygon fill="orange" stroke="orange" points="316.66,-122.92 307.17,-127.62 317.52,-129.86 316.66,-122.92"/>
<text text-anchor="middle" x="378" y="-128.5" font-family="Helvetica,sans-Serif" font-size="10.00"> &lt; ShapeConf &gt;</text>
</g>
<!-- Node11 -->
<g id="node11" class="node">
<title>Node11</title>
<g id="a_node11"><a xlink:href="structplayrho_1_1d2_1_1ShapeBuilder.html" target="_top" xlink:title=" ">
<polygon fill="white" stroke="black" points="449,-49.5 449,-79.5 577,-79.5 577,-49.5 449,-49.5"/>
<text text-anchor="start" x="457" y="-67.5" font-family="Helvetica,sans-Serif" font-size="10.00">playrho::d2::ShapeBuilder</text>
<text text-anchor="middle" x="513" y="-56.5" font-family="Helvetica,sans-Serif" font-size="10.00">&lt; MultiShapeConf &gt;</text>
</a>
</g>
</g>
<!-- Node1&#45;&gt;Node11 -->
<g id="edge10" class="edge">
<title>Node1&#45;&gt;Node11</title>
<path fill="none" stroke="orange" stroke-dasharray="5,2" d="M284.07,-118.23C296.93,-112.58 311.37,-106.78 325,-102.5 365.46,-89.8 412.21,-80.3 448.84,-73.97"/>
<polygon fill="orange" stroke="orange" points="282.27,-115.2 274.58,-122.5 285.14,-121.59 282.27,-115.2"/>
<text text-anchor="middle" x="378" y="-105.5" font-family="Helvetica,sans-Serif" font-size="10.00"> &lt; MultiShapeConf &gt;</text>
</g>
<!-- Node13 -->
<g id="node13" class="node">
<title>Node13</title>
<g id="a_node13"><a xlink:href="structplayrho_1_1d2_1_1ShapeBuilder.html" target="_top" xlink:title=" ">
<polygon fill="white" stroke="black" points="449,-0.5 449,-30.5 577,-30.5 577,-0.5 449,-0.5"/>
<text text-anchor="start" x="457" y="-18.5" font-family="Helvetica,sans-Serif" font-size="10.00">playrho::d2::ShapeBuilder</text>
<text text-anchor="middle" x="513" y="-7.5" font-family="Helvetica,sans-Serif" font-size="10.00">&lt; ChainShapeConf &gt;</text>
</a>
</g>
</g>
<!-- Node1&#45;&gt;Node13 -->
<g id="edge12" class="edge">
<title>Node1&#45;&gt;Node13</title>
<path fill="none" stroke="orange" stroke-dasharray="5,2" d="M262.89,-114.68C278.02,-97.85 300.67,-75.68 325,-62.5 363.41,-41.69 411.25,-29.88 448.93,-23.31"/>
<polygon fill="orange" stroke="orange" points="260.05,-112.61 256.1,-122.44 265.32,-117.22 260.05,-112.61"/>
<text text-anchor="middle" x="378" y="-65.5" font-family="Helvetica,sans-Serif" font-size="10.00"> &lt; ChainShapeConf &gt;</text>
</g>
<!-- Node2 -->
<g id="node2" class="node">
<title>Node2</title>
<g id="a_node2"><a xlink:href="structplayrho_1_1d2_1_1BaseShapeConf.html" target="_top" xlink:title="Base configuration for initializing shapes.">
<polygon fill="white" stroke="black" points="0,-128 0,-147 142,-147 142,-128 0,-128"/>
<text text-anchor="middle" x="71" y="-135" font-family="Helvetica,sans-Serif" font-size="10.00">playrho::d2::BaseShapeConf</text>
</a>
</g>
</g>
<!-- Node2&#45;&gt;Node1 -->
<g id="edge1" class="edge">
<title>Node2&#45;&gt;Node1</title>
<path fill="none" stroke="midnightblue" d="M152.18,-137.5C161.13,-137.5 170.15,-137.5 178.84,-137.5"/>
<polygon fill="midnightblue" stroke="midnightblue" points="152.13,-134 142.13,-137.5 152.13,-141 152.13,-134"/>
</g>
<!-- Node4 -->
<g id="node4" class="node">
<title>Node4</title>
<g id="a_node4"><a xlink:href="structplayrho_1_1d2_1_1DiskShapeConf.html" target="_top" xlink:title="Disk shape configuration.">
<polygon fill="white" stroke="black" points="621.5,-251 621.5,-270 761.5,-270 761.5,-251 621.5,-251"/>
<text text-anchor="middle" x="691.5" y="-258" font-family="Helvetica,sans-Serif" font-size="10.00">playrho::d2::DiskShapeConf</text>
</a>
</g>
</g>
<!-- Node3&#45;&gt;Node4 -->
<g id="edge3" class="edge">
<title>Node3&#45;&gt;Node4</title>
<path fill="none" stroke="midnightblue" d="M587.44,-260.5C598.7,-260.5 610.28,-260.5 621.44,-260.5"/>
<polygon fill="midnightblue" stroke="midnightblue" points="587.22,-257 577.22,-260.5 587.22,-264 587.22,-257"/>
</g>
<!-- Node6 -->
<g id="node6" class="node">
<title>Node6</title>
<g id="a_node6"><a xlink:href="classplayrho_1_1d2_1_1EdgeShapeConf.html" target="_top" xlink:title="Edge shape configuration.">
<polygon fill="white" stroke="black" points="620.5,-202 620.5,-221 762.5,-221 762.5,-202 620.5,-202"/>
<text text-anchor="middle" x="691.5" y="-209" font-family="Helvetica,sans-Serif" font-size="10.00">playrho::d2::EdgeShapeConf</text>
</a>
</g>
</g>
<!-- Node5&#45;&gt;Node6 -->
<g id="edge5" class="edge">
<title>Node5&#45;&gt;Node6</title>
<path fill="none" stroke="midnightblue" d="M587.49,-211.5C598.33,-211.5 609.47,-211.5 620.23,-211.5"/>
<polygon fill="midnightblue" stroke="midnightblue" points="587.22,-208 577.22,-211.5 587.22,-215 587.22,-208"/>
</g>
<!-- Node8 -->
<g id="node8" class="node">
<title>Node8</title>
<g id="a_node8"><a xlink:href="classplayrho_1_1d2_1_1PolygonShapeConf.html" target="_top" xlink:title="Polygon shape configuration.">
<polygon fill="white" stroke="black" points="614,-153 614,-172 769,-172 769,-153 614,-153"/>
<text text-anchor="middle" x="691.5" y="-160" font-family="Helvetica,sans-Serif" font-size="10.00">playrho::d2::PolygonShapeConf</text>
</a>
</g>
</g>
<!-- Node7&#45;&gt;Node8 -->
<g id="edge7" class="edge">
<title>Node7&#45;&gt;Node8</title>
<path fill="none" stroke="midnightblue" d="M587.37,-162.5C596.12,-162.5 605.06,-162.5 613.85,-162.5"/>
<polygon fill="midnightblue" stroke="midnightblue" points="587.22,-159 577.22,-162.5 587.22,-166 587.22,-159"/>
</g>
<!-- Node10 -->
<g id="node10" class="node">
<title>Node10</title>
<g id="a_node10"><a xlink:href="structplayrho_1_1d2_1_1ShapeConf.html" target="_top" xlink:title="Shape configuration structure.">
<polygon fill="white" stroke="black" points="632,-104 632,-123 751,-123 751,-104 632,-104"/>
<text text-anchor="middle" x="691.5" y="-111" font-family="Helvetica,sans-Serif" font-size="10.00">playrho::d2::ShapeConf</text>
</a>
</g>
</g>
<!-- Node9&#45;&gt;Node10 -->
<g id="edge9" class="edge">
<title>Node9&#45;&gt;Node10</title>
<path fill="none" stroke="midnightblue" d="M587.37,-113.5C602.2,-113.5 617.6,-113.5 631.84,-113.5"/>
<polygon fill="midnightblue" stroke="midnightblue" points="587.22,-110 577.22,-113.5 587.22,-117 587.22,-110"/>
</g>
<!-- Node12 -->
<g id="node12" class="node">
<title>Node12</title>
<g id="a_node12"><a xlink:href="structplayrho_1_1d2_1_1MultiShapeConf.html" target="_top" xlink:title="The &quot;multi&#45;shape&quot; shape configuration.">
<polygon fill="white" stroke="black" points="621.5,-55 621.5,-74 761.5,-74 761.5,-55 621.5,-55"/>
<text text-anchor="middle" x="691.5" y="-62" font-family="Helvetica,sans-Serif" font-size="10.00">playrho::d2::MultiShapeConf</text>
</a>
</g>
</g>
<!-- Node11&#45;&gt;Node12 -->
<g id="edge11" class="edge">
<title>Node11&#45;&gt;Node12</title>
<path fill="none" stroke="midnightblue" d="M587.44,-64.5C598.7,-64.5 610.28,-64.5 621.44,-64.5"/>
<polygon fill="midnightblue" stroke="midnightblue" points="587.22,-61 577.22,-64.5 587.22,-68 587.22,-61"/>
</g>
<!-- Node14 -->
<g id="node14" class="node">
<title>Node14</title>
<g id="a_node14"><a xlink:href="classplayrho_1_1d2_1_1ChainShapeConf.html" target="_top" xlink:title="Chain shape configuration.">
<polygon fill="white" stroke="black" points="619,-6 619,-25 764,-25 764,-6 619,-6"/>
<text text-anchor="middle" x="691.5" y="-13" font-family="Helvetica,sans-Serif" font-size="10.00">playrho::d2::ChainShapeConf</text>
</a>
</g>
</g>
<!-- Node13&#45;&gt;Node14 -->
<g id="edge13" class="edge">
<title>Node13&#45;&gt;Node14</title>
<path fill="none" stroke="midnightblue" d="M587.45,-15.5C597.79,-15.5 608.41,-15.5 618.72,-15.5"/>
<polygon fill="midnightblue" stroke="midnightblue" points="587.22,-12 577.22,-15.5 587.22,-19 587.22,-12"/>
</g>
</g>
</svg>
