<?xml version="1.0" encoding="UTF-8" standalone="no"?>
<!DOCTYPE svg PUBLIC "-//W3C//DTD SVG 1.1//EN"
 "http://www.w3.org/Graphics/SVG/1.1/DTD/svg11.dtd">
<!-- Generated by graphviz version 2.40.1 (20161225.0304)
 -->
<!-- Title: playrho::PreStepStats Pages: 1 -->
<svg width="130pt" height="142pt"
 viewBox="0.00 0.00 129.67 142.00" xmlns="http://www.w3.org/2000/svg" xmlns:xlink="http://www.w3.org/1999/xlink">
<g id="graph0" class="graph" transform="scale(1 1) rotate(0) translate(4 138)">
<title>playrho::PreStepStats</title>
<polygon fill="#ffffff" stroke="transparent" points="-4,4 -4,-138 125.667,-138 125.667,4 -4,4"/>
<!-- Node1 -->
<g id="node1" class="node">
<title>Node1</title>
<polygon fill="#bfbfbf" stroke="#000000" points="0,-.5 0,-18.5 113.2754,-18.5 113.2754,-.5 0,-.5"/>
<text text-anchor="middle" x="56.6377" y="-6.5" font-family="Helvetica,sans-Serif" font-size="10.00" fill="#000000">playrho::PreStepStats</text>
</g>
<!-- Node2 -->
<g id="node2" class="node">
<title>Node2</title>
<polygon fill="#ffffff" stroke="#bfbfbf" points="30.8447,-115.5 30.8447,-133.5 82.4307,-133.5 82.4307,-115.5 30.8447,-115.5"/>
<text text-anchor="middle" x="56.6377" y="-121.5" font-family="Helvetica,sans-Serif" font-size="10.00" fill="#000000">uint32_t</text>
</g>
<!-- Node2&#45;&gt;Node1 -->
<g id="edge1" class="edge">
<title>Node2&#45;&gt;Node1</title>
<path fill="none" stroke="#9a32cd" stroke-dasharray="5,2" d="M56.6377,-105.398C56.6377,-80.4064 56.6377,-37.591 56.6377,-18.8014"/>
<polygon fill="#9a32cd" stroke="#9a32cd" points="53.1378,-105.4761 56.6377,-115.4761 60.1378,-105.4762 53.1378,-105.4761"/>
<text text-anchor="middle" x="89.1523" y="-89" font-family="Helvetica,sans-Serif" font-size="10.00" fill="#000000"> proxiesMoved</text>
<text text-anchor="middle" x="89.1523" y="-79" font-family="Helvetica,sans-Serif" font-size="10.00" fill="#000000">updated</text>
<text text-anchor="middle" x="89.1523" y="-69" font-family="Helvetica,sans-Serif" font-size="10.00" fill="#000000">destroyed</text>
<text text-anchor="middle" x="89.1523" y="-59" font-family="Helvetica,sans-Serif" font-size="10.00" fill="#000000">added</text>
<text text-anchor="middle" x="89.1523" y="-49" font-family="Helvetica,sans-Serif" font-size="10.00" fill="#000000">skipped</text>
<text text-anchor="middle" x="89.1523" y="-39" font-family="Helvetica,sans-Serif" font-size="10.00" fill="#000000">ignored</text>
</g>
</g>
</svg>
