<?xml version="1.0" encoding="UTF-8" standalone="no"?>
<!DOCTYPE svg PUBLIC "-//W3C//DTD SVG 1.1//EN"
 "http://www.w3.org/Graphics/SVG/1.1/DTD/svg11.dtd">
<!-- Generated by graphviz version 2.44.1 (20200629.0846)
 -->
<!-- Title: playrho::BlockDeallocator Pages: 1 -->
<svg width="733pt" height="195pt"
 viewBox="0.00 0.00 733.00 194.50" xmlns="http://www.w3.org/2000/svg" xmlns:xlink="http://www.w3.org/1999/xlink">
<g id="graph0" class="graph" transform="scale(1 1) rotate(0) translate(4 190.5)">
<title>playrho::BlockDeallocator</title>
<polygon fill="white" stroke="transparent" points="-4,4 -4,-190.5 729,-190.5 729,4 -4,4"/>
<!-- Node1 -->
<g id="node1" class="node">
<title>Node1</title>
<g id="a_node1"><a xlink:title="Block deallocator.">
<polygon fill="#bfbfbf" stroke="black" points="597,-47.5 597,-66.5 725,-66.5 725,-47.5 597,-47.5"/>
<text text-anchor="middle" x="661" y="-54.5" font-family="Helvetica,sans-Serif" font-size="10.00">playrho::BlockDeallocator</text>
</a>
</g>
</g>
<!-- Node2 -->
<g id="node2" class="node">
<title>Node2</title>
<g id="a_node2"><a xlink:href="classplayrho_1_1BlockAllocator.html" target="_top" xlink:title="Block allocator.">
<polygon fill="white" stroke="black" points="404,-68.5 404,-87.5 521,-87.5 521,-68.5 404,-68.5"/>
<text text-anchor="middle" x="462.5" y="-75.5" font-family="Helvetica,sans-Serif" font-size="10.00">playrho::BlockAllocator</text>
</a>
</g>
</g>
<!-- Node2&#45;&gt;Node1 -->
<g id="edge1" class="edge">
<title>Node2&#45;&gt;Node1</title>
<path fill="none" stroke="#9a32cd" stroke-dasharray="5,2" d="M531.08,-70.78C552.4,-68.5 575.87,-65.99 596.87,-63.75"/>
<polygon fill="#9a32cd" stroke="#9a32cd" points="530.7,-67.3 521.13,-71.84 531.44,-74.26 530.7,-67.3"/>
<text text-anchor="middle" x="559" y="-72" font-family="Helvetica,sans-Serif" font-size="10.00"> allocator</text>
</g>
<!-- Node3 -->
<g id="node3" class="node">
<title>Node3</title>
<g id="a_node3"><a xlink:href="structplayrho_1_1BlockAllocator_1_1Block.html" target="_top" xlink:title="Block.">
<polygon fill="white" stroke="black" points="0,-127 0,-157 117,-157 117,-127 0,-127"/>
<text text-anchor="start" x="8" y="-145" font-family="Helvetica,sans-Serif" font-size="10.00">playrho::BlockAllocator</text>
<text text-anchor="middle" x="58.5" y="-134" font-family="Helvetica,sans-Serif" font-size="10.00">::Block</text>
</a>
</g>
</g>
<!-- Node3&#45;&gt;Node2 -->
<g id="edge2" class="edge">
<title>Node3&#45;&gt;Node2</title>
<path fill="none" stroke="#9a32cd" stroke-dasharray="5,2" d="M127.31,-143.88C129.9,-143.93 132.48,-143.97 135,-144 247.34,-145.49 281.71,-155.8 386,-114 405.95,-106 428.07,-95.22 443.18,-87.55"/>
<polygon fill="#9a32cd" stroke="#9a32cd" points="127.27,-140.38 117.21,-143.69 127.14,-147.38 127.27,-140.38"/>
<text text-anchor="middle" x="257.5" y="-149" font-family="Helvetica,sans-Serif" font-size="10.00"> m_freeLists</text>
</g>
<!-- Node3&#45;&gt;Node3 -->
<g id="edge3" class="edge">
<title>Node3&#45;&gt;Node3</title>
<path fill="none" stroke="#9a32cd" stroke-dasharray="5,2" d="M41.09,-167.46C43.25,-172.18 49.05,-175.5 58.5,-175.5 74,-175.5 79.7,-166.56 75.58,-157.16"/>
<polygon fill="#9a32cd" stroke="#9a32cd" points="44.59,-167.27 41.42,-157.16 37.6,-167.04 44.59,-167.27"/>
<text text-anchor="middle" x="58.5" y="-178.5" font-family="Helvetica,sans-Serif" font-size="10.00"> next</text>
</g>
<!-- Node5 -->
<g id="node5" class="node">
<title>Node5</title>
<g id="a_node5"><a xlink:href="structplayrho_1_1BlockAllocator_1_1Chunk.html" target="_top" xlink:title="Chunk.">
<polygon fill="white" stroke="black" points="199,-97 199,-127 316,-127 316,-97 199,-97"/>
<text text-anchor="start" x="207" y="-115" font-family="Helvetica,sans-Serif" font-size="10.00">playrho::BlockAllocator</text>
<text text-anchor="middle" x="257.5" y="-104" font-family="Helvetica,sans-Serif" font-size="10.00">::Chunk</text>
</a>
</g>
</g>
<!-- Node3&#45;&gt;Node5 -->
<g id="edge6" class="edge">
<title>Node3&#45;&gt;Node5</title>
<path fill="none" stroke="#9a32cd" stroke-dasharray="5,2" d="M127.19,-131.69C150.54,-128.14 176.45,-124.19 198.92,-120.77"/>
<polygon fill="#9a32cd" stroke="#9a32cd" points="126.37,-128.28 117.01,-133.24 127.42,-135.2 126.37,-128.28"/>
<text text-anchor="middle" x="158" y="-132" font-family="Helvetica,sans-Serif" font-size="10.00"> blocks</text>
</g>
<!-- Node4 -->
<g id="node4" class="node">
<title>Node4</title>
<g id="a_node4"><a xlink:title=" ">
<polygon fill="white" stroke="#bfbfbf" points="203.5,-0.5 203.5,-19.5 311.5,-19.5 311.5,-0.5 203.5,-0.5"/>
<text text-anchor="middle" x="257.5" y="-7.5" font-family="Helvetica,sans-Serif" font-size="10.00">static constexpr auto</text>
</a>
</g>
</g>
<!-- Node4&#45;&gt;Node2 -->
<g id="edge4" class="edge">
<title>Node4&#45;&gt;Node2</title>
<path fill="none" stroke="#9a32cd" stroke-dasharray="5,2" d="M321.86,-10.16C343.63,-12.76 367.23,-18.66 386,-31 398.36,-39.12 392.31,-49.94 404,-59 408.99,-62.86 414.79,-65.96 420.76,-68.44"/>
<polygon fill="#9a32cd" stroke="#9a32cd" points="321.97,-6.65 311.68,-9.15 321.28,-13.62 321.97,-6.65"/>
<text text-anchor="middle" x="360" y="-34" font-family="Helvetica,sans-Serif" font-size="10.00"> ChunkSize</text>
</g>
<!-- Node5&#45;&gt;Node2 -->
<g id="edge5" class="edge">
<title>Node5&#45;&gt;Node2</title>
<path fill="none" stroke="#9a32cd" stroke-dasharray="5,2" d="M326.06,-100.68C351.46,-96.43 380.07,-91.64 404.43,-87.56"/>
<polygon fill="#9a32cd" stroke="#9a32cd" points="325.41,-97.24 316.13,-102.35 326.57,-104.15 325.41,-97.24"/>
<text text-anchor="middle" x="360" y="-102" font-family="Helvetica,sans-Serif" font-size="10.00"> m_chunks</text>
</g>
<!-- Node6 -->
<g id="node6" class="node">
<title>Node6</title>
<g id="a_node6"><a xlink:title=" ">
<polygon fill="white" stroke="#bfbfbf" points="37,-77.5 37,-96.5 80,-96.5 80,-77.5 37,-77.5"/>
<text text-anchor="middle" x="58.5" y="-84.5" font-family="Helvetica,sans-Serif" font-size="10.00">size_t</text>
</a>
</g>
</g>
<!-- Node6&#45;&gt;Node2 -->
<g id="edge8" class="edge">
<title>Node6&#45;&gt;Node2</title>
<path fill="none" stroke="#9a32cd" stroke-dasharray="5,2" d="M90.22,-81.02C118.39,-75.87 161.32,-68.82 199,-66 269.4,-60.73 350.61,-66.22 403.83,-71.38"/>
<polygon fill="#9a32cd" stroke="#9a32cd" points="89.38,-77.62 80.19,-82.9 90.66,-84.5 89.38,-77.62"/>
<text text-anchor="middle" x="257.5" y="-80" font-family="Helvetica,sans-Serif" font-size="10.00"> m_chunkCount</text>
<text text-anchor="middle" x="257.5" y="-69" font-family="Helvetica,sans-Serif" font-size="10.00">m_chunkSpace</text>
</g>
<!-- Node6&#45;&gt;Node5 -->
<g id="edge7" class="edge">
<title>Node6&#45;&gt;Node5</title>
<path fill="none" stroke="#9a32cd" stroke-dasharray="5,2" d="M90.32,-90.29C114.9,-92.98 150.19,-96.98 181,-101 186.78,-101.75 192.8,-102.57 198.81,-103.41"/>
<polygon fill="#9a32cd" stroke="#9a32cd" points="90.48,-86.79 80.16,-89.19 89.72,-93.75 90.48,-86.79"/>
<text text-anchor="middle" x="158" y="-104" font-family="Helvetica,sans-Serif" font-size="10.00"> blockSize</text>
</g>
<!-- Node7 -->
<g id="node7" class="node">
<title>Node7</title>
<g id="a_node7"><a xlink:title=" ">
<polygon fill="white" stroke="#bfbfbf" points="433,-30.5 433,-49.5 492,-49.5 492,-30.5 433,-30.5"/>
<text text-anchor="middle" x="462.5" y="-37.5" font-family="Helvetica,sans-Serif" font-size="10.00">size_type</text>
</a>
</g>
</g>
<!-- Node7&#45;&gt;Node1 -->
<g id="edge9" class="edge">
<title>Node7&#45;&gt;Node1</title>
<path fill="none" stroke="#9a32cd" stroke-dasharray="5,2" d="M502.21,-39.61C524.68,-39.73 553.5,-40.48 579,-43 589.65,-44.05 601.01,-45.69 611.76,-47.48"/>
<polygon fill="#9a32cd" stroke="#9a32cd" points="502.06,-36.11 492.05,-39.59 502.05,-43.11 502.06,-36.11"/>
<text text-anchor="middle" x="559" y="-46" font-family="Helvetica,sans-Serif" font-size="10.00"> nelem</text>
</g>
</g>
</svg>
