<?xml version="1.0" encoding="UTF-8" standalone="no"?>
<!DOCTYPE svg PUBLIC "-//W3C//DTD SVG 1.1//EN"
 "http://www.w3.org/Graphics/SVG/1.1/DTD/svg11.dtd">
<!-- Generated by graphviz version 2.44.1 (20200629.0846)
 -->
<!-- Title: playrho::d2::VelocityConstraint::Conf Pages: 1 -->
<svg width="230pt" height="106pt"
 viewBox="0.00 0.00 229.50 106.00" xmlns="http://www.w3.org/2000/svg" xmlns:xlink="http://www.w3.org/1999/xlink">
<g id="graph0" class="graph" transform="scale(1 1) rotate(0) translate(4 102)">
<title>playrho::d2::VelocityConstraint::Conf</title>
<polygon fill="white" stroke="transparent" points="-4,4 -4,-102 225.5,-102 225.5,4 -4,4"/>
<!-- Node1 -->
<g id="node1" class="node">
<title>Node1</title>
<g id="a_node1"><a xlink:title="Configuration data for velocity constraints.">
<polygon fill="#bfbfbf" stroke="black" points="4,-0.5 4,-30.5 155,-30.5 155,-0.5 4,-0.5"/>
<text text-anchor="start" x="12" y="-18.5" font-family="Helvetica,sans-Serif" font-size="10.00">playrho::d2::VelocityConstraint</text>
<text text-anchor="middle" x="79.5" y="-7.5" font-family="Helvetica,sans-Serif" font-size="10.00">::Conf</text>
</a>
</g>
</g>
<!-- Node2 -->
<g id="node2" class="node">
<title>Node2</title>
<g id="a_node2"><a xlink:title=" ">
<polygon fill="white" stroke="#bfbfbf" points="0,-78.5 0,-97.5 35,-97.5 35,-78.5 0,-78.5"/>
<text text-anchor="middle" x="17.5" y="-85.5" font-family="Helvetica,sans-Serif" font-size="10.00">float</text>
</a>
</g>
</g>
<!-- Node2&#45;&gt;Node1 -->
<g id="edge1" class="edge">
<title>Node2&#45;&gt;Node1</title>
<path fill="none" stroke="#9a32cd" stroke-dasharray="5,2" d="M26.58,-69.31C30.42,-62.61 35.23,-55.13 40.5,-49 46.25,-42.32 53.45,-35.9 60.1,-30.55"/>
<polygon fill="#9a32cd" stroke="#9a32cd" points="23.38,-67.85 21.7,-78.31 29.54,-71.19 23.38,-67.85"/>
<text text-anchor="middle" x="58" y="-52" font-family="Helvetica,sans-Serif" font-size="10.00"> dtRatio</text>
</g>
<!-- Node3 -->
<g id="node3" class="node">
<title>Node3</title>
<g id="a_node3"><a xlink:title=" ">
<polygon fill="white" stroke="#bfbfbf" points="53,-78.5 53,-97.5 106,-97.5 106,-78.5 53,-78.5"/>
<text text-anchor="middle" x="79.5" y="-85.5" font-family="Helvetica,sans-Serif" font-size="10.00">velocity)</text>
</a>
</g>
</g>
<!-- Node3&#45;&gt;Node1 -->
<g id="edge2" class="edge">
<title>Node3&#45;&gt;Node1</title>
<path fill="none" stroke="#9a32cd" stroke-dasharray="5,2" d="M79.5,-68.24C79.5,-56.41 79.5,-41.38 79.5,-30.58"/>
<polygon fill="#9a32cd" stroke="#9a32cd" points="76,-68.36 79.5,-78.36 83,-68.36 76,-68.36"/>
<text text-anchor="middle" x="119.5" y="-52" font-family="Helvetica,sans-Serif" font-size="10.00"> velocityThreshold</text>
</g>
<!-- Node4 -->
<g id="node4" class="node">
<title>Node4</title>
<g id="a_node4"><a xlink:title=" ">
<polygon fill="white" stroke="#bfbfbf" points="165,-78.5 165,-97.5 200,-97.5 200,-78.5 165,-78.5"/>
<text text-anchor="middle" x="182.5" y="-85.5" font-family="Helvetica,sans-Serif" font-size="10.00">bool</text>
</a>
</g>
</g>
<!-- Node4&#45;&gt;Node1 -->
<g id="edge3" class="edge">
<title>Node4&#45;&gt;Node1</title>
<path fill="none" stroke="#9a32cd" stroke-dasharray="5,2" d="M175.13,-68.89C171.57,-61.93 166.69,-54.37 160.5,-49 151.57,-41.26 140.56,-35.22 129.57,-30.56"/>
<polygon fill="#9a32cd" stroke="#9a32cd" points="172.11,-70.69 179.43,-78.35 178.48,-67.79 172.11,-70.69"/>
<text text-anchor="middle" x="195.5" y="-52" font-family="Helvetica,sans-Serif" font-size="10.00"> blockSolve</text>
</g>
</g>
</svg>
