<?xml version="1.0" encoding="UTF-8" standalone="no"?>
<!DOCTYPE svg PUBLIC "-//W3C//DTD SVG 1.1//EN"
 "http://www.w3.org/Graphics/SVG/1.1/DTD/svg11.dtd">
<!-- Generated by graphviz version 2.40.1 (20161225.0304)
 -->
<!-- Title: playrho::d2::GearJointConf Pages: 1 -->
<svg width="234pt" height="214pt"
 viewBox="0.00 0.00 233.90 214.00" xmlns="http://www.w3.org/2000/svg" xmlns:xlink="http://www.w3.org/1999/xlink">
<g id="graph0" class="graph" transform="scale(1 1) rotate(0) translate(4 210)">
<title>playrho::d2::GearJointConf</title>
<polygon fill="#ffffff" stroke="transparent" points="-4,4 -4,-210 229.895,-210 229.895,4 -4,4"/>
<!-- Node0 -->
<g id="node1" class="node">
<title>Node0</title>
<polygon fill="#bfbfbf" stroke="#000000" points="0,-.5 0,-18.5 135.5117,-18.5 135.5117,-.5 0,-.5"/>
<text text-anchor="middle" x="67.7559" y="-6.5" font-family="Helvetica,sans-Serif" font-size="10.00" fill="#000000">playrho::d2::GearJointConf</text>
</g>
<!-- Node1 -->
<g id="node2" class="node">
<title>Node1</title>
<g id="a_node2"><a xlink:href="structplayrho_1_1d2_1_1JointBuilder.html" target="_top" xlink:title="playrho::d2::JointBuilder\l\&lt; GearJointConf \&gt;">
<polygon fill="#ffffff" stroke="#000000" points="6.1133,-56.5 6.1133,-84.5 129.3984,-84.5 129.3984,-56.5 6.1133,-56.5"/>
<text text-anchor="start" x="14.1133" y="-72.5" font-family="Helvetica,sans-Serif" font-size="10.00" fill="#000000">playrho::d2::JointBuilder</text>
<text text-anchor="middle" x="67.7559" y="-62.5" font-family="Helvetica,sans-Serif" font-size="10.00" fill="#000000">&lt; GearJointConf &gt;</text>
</a>
</g>
</g>
<!-- Node1&#45;&gt;Node0 -->
<g id="edge1" class="edge">
<title>Node1&#45;&gt;Node0</title>
<path fill="none" stroke="#191970" d="M67.7559,-46.1001C67.7559,-36.5157 67.7559,-26.0935 67.7559,-18.831"/>
<polygon fill="#191970" stroke="#191970" points="64.256,-46.352 67.7559,-56.3521 71.256,-46.3521 64.256,-46.352"/>
</g>
<!-- Node2 -->
<g id="node3" class="node">
<title>Node2</title>
<g id="a_node3"><a xlink:href="structplayrho_1_1d2_1_1JointConf.html" target="_top" xlink:title="Abstract base Joint definition class. ">
<polygon fill="#ffffff" stroke="#000000" points="7.1157,-187.5 7.1157,-205.5 120.396,-205.5 120.396,-187.5 7.1157,-187.5"/>
<text text-anchor="middle" x="63.7559" y="-193.5" font-family="Helvetica,sans-Serif" font-size="10.00" fill="#000000">playrho::d2::JointConf</text>
</a>
</g>
</g>
<!-- Node2&#45;&gt;Node1 -->
<g id="edge2" class="edge">
<title>Node2&#45;&gt;Node1</title>
<path fill="none" stroke="#191970" d="M64.3689,-177.1897C65.1786,-151.6844 66.5858,-107.3578 67.3048,-84.7089"/>
<polygon fill="#191970" stroke="#191970" points="60.8627,-177.3323 64.0435,-187.4384 67.8592,-177.5545 60.8627,-177.3323"/>
</g>
<!-- Node3 -->
<g id="node4" class="node">
<title>Node3</title>
<g id="a_node4"><a xlink:href="structplayrho_1_1d2_1_1JointBuilder.html" target="_top" xlink:title="Joint builder definition structure. ">
<polygon fill="#ffffff" stroke="#000000" points="79.6167,-131.5 79.6167,-149.5 225.895,-149.5 225.895,-131.5 79.6167,-131.5"/>
<text text-anchor="middle" x="152.7559" y="-137.5" font-family="Helvetica,sans-Serif" font-size="10.00" fill="#000000">playrho::d2::JointBuilder&lt; T &gt;</text>
</a>
</g>
</g>
<!-- Node2&#45;&gt;Node3 -->
<g id="edge4" class="edge">
<title>Node2&#45;&gt;Node3</title>
<path fill="none" stroke="#191970" d="M87.3523,-181.6528C103.562,-171.4534 124.5602,-158.2411 138.3328,-149.5752"/>
<polygon fill="#191970" stroke="#191970" points="85.0524,-178.9647 78.4524,-187.2527 88.7803,-184.8895 85.0524,-178.9647"/>
</g>
<!-- Node3&#45;&gt;Node1 -->
<g id="edge3" class="edge">
<title>Node3&#45;&gt;Node1</title>
<path fill="none" stroke="#ffa500" stroke-dasharray="5,2" d="M133.7637,-124.8594C119.1787,-112.8482 99.2049,-96.3992 85.0593,-84.7499"/>
<polygon fill="#ffa500" stroke="#ffa500" points="131.6993,-127.6934 141.6436,-131.3487 136.1493,-122.2899 131.6993,-127.6934"/>
<text text-anchor="middle" x="160.002" y="-105" font-family="Helvetica,sans-Serif" font-size="10.00" fill="#000000"> &lt; GearJointConf &gt;</text>
</g>
</g>
</svg>
