<?xml version="1.0" encoding="UTF-8" standalone="no"?>
<!DOCTYPE svg PUBLIC "-//W3C//DTD SVG 1.1//EN"
 "http://www.w3.org/Graphics/SVG/1.1/DTD/svg11.dtd">
<!-- Generated by graphviz version 2.40.1 (20161225.0304)
 -->
<!-- Title: playrho::Wider&lt; T &gt; Pages: 1 -->
<svg width="385pt" height="168pt"
 viewBox="0.00 0.00 384.70 168.00" xmlns="http://www.w3.org/2000/svg" xmlns:xlink="http://www.w3.org/1999/xlink">
<g id="graph0" class="graph" transform="scale(1 1) rotate(0) translate(4 164)">
<title>playrho::Wider&lt; T &gt;</title>
<polygon fill="#ffffff" stroke="transparent" points="-4,4 -4,-164 380.6963,-164 380.6963,4 -4,4"/>
<!-- Node0 -->
<g id="node1" class="node">
<title>Node0</title>
<polygon fill="#bfbfbf" stroke="#000000" points="0,-75.5 0,-93.5 103.4609,-93.5 103.4609,-75.5 0,-75.5"/>
<text text-anchor="middle" x="51.7305" y="-81.5" font-family="Helvetica,sans-Serif" font-size="10.00" fill="#000000">playrho::Wider&lt; T &gt;</text>
</g>
<!-- Node1 -->
<g id="node2" class="node">
<title>Node1</title>
<g id="a_node2"><a xlink:href="structplayrho_1_1Wider.html" target="_top" xlink:title="playrho::Wider\&lt; BodyCounter \&gt;">
<polygon fill="#ffffff" stroke="#000000" points="220.623,-141.5 220.623,-159.5 376.6963,-159.5 376.6963,-141.5 220.623,-141.5"/>
<text text-anchor="middle" x="298.6597" y="-147.5" font-family="Helvetica,sans-Serif" font-size="10.00" fill="#000000">playrho::Wider&lt; BodyCounter &gt;</text>
</a>
</g>
</g>
<!-- Node0&#45;&gt;Node1 -->
<g id="edge1" class="edge">
<title>Node0&#45;&gt;Node1</title>
<path fill="none" stroke="#ffa500" stroke-dasharray="5,2" d="M80.887,-97.4996C93.2314,-102.6633 107.8756,-108.349 121.4609,-112.5 162.2326,-124.9579 209.4868,-134.8739 244.9387,-141.4486"/>
<polygon fill="#ffa500" stroke="#ffa500" points="82.1154,-94.2184 71.5443,-93.5096 79.3661,-100.6559 82.1154,-94.2184"/>
<text text-anchor="middle" x="162.042" y="-133.5" font-family="Helvetica,sans-Serif" font-size="10.00" fill="#000000"> &lt; BodyCounter &gt;</text>
</g>
<!-- Node2 -->
<g id="node3" class="node">
<title>Node2</title>
<g id="a_node3"><a xlink:href="structplayrho_1_1Wider.html" target="_top" xlink:title="playrho::Wider\&lt; toi\l_iter_type \&gt;">
<polygon fill="#ffffff" stroke="#000000" points="248.8359,-94.5 248.8359,-122.5 348.4834,-122.5 348.4834,-94.5 248.8359,-94.5"/>
<text text-anchor="start" x="256.8359" y="-110.5" font-family="Helvetica,sans-Serif" font-size="10.00" fill="#000000">playrho::Wider&lt; toi</text>
<text text-anchor="middle" x="298.6597" y="-100.5" font-family="Helvetica,sans-Serif" font-size="10.00" fill="#000000">_iter_type &gt;</text>
</a>
</g>
</g>
<!-- Node0&#45;&gt;Node2 -->
<g id="edge2" class="edge">
<title>Node0&#45;&gt;Node2</title>
<path fill="none" stroke="#ffa500" stroke-dasharray="5,2" d="M113.5438,-90.5079C155.2747,-94.5639 209.6466,-99.8485 248.6504,-103.6394"/>
<polygon fill="#ffa500" stroke="#ffa500" points="113.7866,-87.0151 103.4949,-89.5312 113.1094,-93.9822 113.7866,-87.0151"/>
<text text-anchor="middle" x="162.042" y="-100.5" font-family="Helvetica,sans-Serif" font-size="10.00" fill="#000000"> &lt; toi_iter_type &gt;</text>
</g>
<!-- Node3 -->
<g id="node4" class="node">
<title>Node3</title>
<g id="a_node4"><a xlink:href="structplayrho_1_1Wider.html" target="_top" xlink:title="playrho::Wider\&lt; root\l_iter_type \&gt;">
<polygon fill="#ffffff" stroke="#000000" points="245.501,-47.5 245.501,-75.5 351.8184,-75.5 351.8184,-47.5 245.501,-47.5"/>
<text text-anchor="start" x="253.501" y="-63.5" font-family="Helvetica,sans-Serif" font-size="10.00" fill="#000000">playrho::Wider&lt; root</text>
<text text-anchor="middle" x="298.6597" y="-53.5" font-family="Helvetica,sans-Serif" font-size="10.00" fill="#000000">_iter_type &gt;</text>
</a>
</g>
</g>
<!-- Node0&#45;&gt;Node3 -->
<g id="edge3" class="edge">
<title>Node0&#45;&gt;Node3</title>
<path fill="none" stroke="#ffa500" stroke-dasharray="5,2" d="M113.6932,-77.2942C116.3168,-77.0198 118.9146,-76.7538 121.4609,-76.5 162.9349,-72.3664 209.9443,-68.4211 245.1173,-65.615"/>
<polygon fill="#ffa500" stroke="#ffa500" points="113.0691,-73.841 103.4992,-78.3871 113.8154,-80.8011 113.0691,-73.841"/>
<text text-anchor="middle" x="162.042" y="-78.5" font-family="Helvetica,sans-Serif" font-size="10.00" fill="#000000"> &lt; root_iter_type &gt;</text>
</g>
<!-- Node4 -->
<g id="node5" class="node">
<title>Node4</title>
<g id="a_node5"><a xlink:href="structplayrho_1_1Wider.html" target="_top" xlink:title="playrho::Wider\&lt; dist\l_iter_type \&gt;">
<polygon fill="#ffffff" stroke="#000000" points="246.3359,-.5 246.3359,-28.5 350.9834,-28.5 350.9834,-.5 246.3359,-.5"/>
<text text-anchor="start" x="254.3359" y="-16.5" font-family="Helvetica,sans-Serif" font-size="10.00" fill="#000000">playrho::Wider&lt; dist</text>
<text text-anchor="middle" x="298.6597" y="-6.5" font-family="Helvetica,sans-Serif" font-size="10.00" fill="#000000">_iter_type &gt;</text>
</a>
</g>
</g>
<!-- Node0&#45;&gt;Node4 -->
<g id="edge4" class="edge">
<title>Node0&#45;&gt;Node4</title>
<path fill="none" stroke="#ffa500" stroke-dasharray="5,2" d="M79.7581,-71.0387C92.3088,-65.3787 107.4172,-59.063 121.4609,-54.5 162.553,-41.1487 210.4121,-30.6318 246.0269,-23.7393"/>
<polygon fill="#ffa500" stroke="#ffa500" points="77.9282,-68.0281 70.3102,-75.3914 80.8572,-74.3859 77.9282,-68.0281"/>
<text text-anchor="middle" x="162.042" y="-56.5" font-family="Helvetica,sans-Serif" font-size="10.00" fill="#000000"> &lt; dist_iter_type &gt;</text>
</g>
</g>
</svg>
