<?xml version="1.0" encoding="UTF-8" standalone="no"?>
<!DOCTYPE svg PUBLIC "-//W3C//DTD SVG 1.1//EN"
 "http://www.w3.org/Graphics/SVG/1.1/DTD/svg11.dtd">
<!-- Generated by graphviz version 2.44.1 (20200629.0846)
 -->
<!-- Title: playrho::d2::PrismaticJointConf Pages: 1 -->
<svg width="243pt" height="220pt"
 viewBox="0.00 0.00 243.00 220.00" xmlns="http://www.w3.org/2000/svg" xmlns:xlink="http://www.w3.org/1999/xlink">
<g id="graph0" class="graph" transform="scale(1 1) rotate(0) translate(4 216)">
<title>playrho::d2::PrismaticJointConf</title>
<polygon fill="white" stroke="transparent" points="-4,4 -4,-216 239,-216 239,4 -4,4"/>
<!-- Node1 -->
<g id="node1" class="node">
<title>Node1</title>
<g id="a_node1"><a xlink:title="Prismatic joint definition.">
<polygon fill="#bfbfbf" stroke="black" points="0,-0.5 0,-19.5 154,-19.5 154,-0.5 0,-0.5"/>
<text text-anchor="middle" x="77" y="-7.5" font-family="Helvetica,sans-Serif" font-size="10.00">playrho::d2::PrismaticJointConf</text>
</a>
</g>
</g>
<!-- Node2 -->
<g id="node2" class="node">
<title>Node2</title>
<g id="a_node2"><a xlink:href="structplayrho_1_1d2_1_1JointBuilder.html" target="_top" xlink:title=" ">
<polygon fill="white" stroke="black" points="16,-57.5 16,-87.5 138,-87.5 138,-57.5 16,-57.5"/>
<text text-anchor="start" x="24" y="-75.5" font-family="Helvetica,sans-Serif" font-size="10.00">playrho::d2::JointBuilder</text>
<text text-anchor="middle" x="77" y="-64.5" font-family="Helvetica,sans-Serif" font-size="10.00">&lt; PrismaticJointConf &gt;</text>
</a>
</g>
</g>
<!-- Node2&#45;&gt;Node1 -->
<g id="edge1" class="edge">
<title>Node2&#45;&gt;Node1</title>
<path fill="none" stroke="midnightblue" d="M77,-47.35C77,-37.51 77,-26.78 77,-19.54"/>
<polygon fill="midnightblue" stroke="midnightblue" points="73.5,-47.47 77,-57.47 80.5,-47.47 73.5,-47.47"/>
</g>
<!-- Node3 -->
<g id="node3" class="node">
<title>Node3</title>
<g id="a_node3"><a xlink:href="structplayrho_1_1d2_1_1JointConf.html" target="_top" xlink:title="Base joint definition class.">
<polygon fill="white" stroke="black" points="16.5,-192.5 16.5,-211.5 129.5,-211.5 129.5,-192.5 16.5,-192.5"/>
<text text-anchor="middle" x="73" y="-199.5" font-family="Helvetica,sans-Serif" font-size="10.00">playrho::d2::JointConf</text>
</a>
</g>
</g>
<!-- Node3&#45;&gt;Node2 -->
<g id="edge2" class="edge">
<title>Node3&#45;&gt;Node2</title>
<path fill="none" stroke="midnightblue" d="M73.6,-181.9C74.41,-156.05 75.84,-110.54 76.56,-87.59"/>
<polygon fill="midnightblue" stroke="midnightblue" points="70.09,-182.13 73.27,-192.24 77.09,-182.35 70.09,-182.13"/>
</g>
<!-- Node4 -->
<g id="node4" class="node">
<title>Node4</title>
<g id="a_node4"><a xlink:href="structplayrho_1_1d2_1_1JointBuilder.html" target="_top" xlink:title="Joint builder definition structure.">
<polygon fill="white" stroke="black" points="89,-135.5 89,-154.5 235,-154.5 235,-135.5 89,-135.5"/>
<text text-anchor="middle" x="162" y="-142.5" font-family="Helvetica,sans-Serif" font-size="10.00">playrho::d2::JointBuilder&lt; T &gt;</text>
</a>
</g>
</g>
<!-- Node3&#45;&gt;Node4 -->
<g id="edge4" class="edge">
<title>Node3&#45;&gt;Node4</title>
<path fill="none" stroke="midnightblue" d="M95.48,-187.11C112.07,-176.86 134.12,-163.23 148.19,-154.53"/>
<polygon fill="midnightblue" stroke="midnightblue" points="93.57,-184.17 86.91,-192.41 97.25,-190.13 93.57,-184.17"/>
</g>
<!-- Node4&#45;&gt;Node2 -->
<g id="edge3" class="edge">
<title>Node4&#45;&gt;Node2</title>
<path fill="none" stroke="orange" stroke-dasharray="5,2" d="M143.65,-128.78C128.91,-116.55 108.34,-99.5 93.97,-87.58"/>
<polygon fill="orange" stroke="orange" points="141.65,-131.67 151.58,-135.36 146.11,-126.28 141.65,-131.67"/>
<text text-anchor="middle" x="179.5" y="-109" font-family="Helvetica,sans-Serif" font-size="10.00"> &lt; PrismaticJointConf &gt;</text>
</g>
</g>
</svg>
