<?xml version="1.0" encoding="UTF-8" standalone="no"?>
<!DOCTYPE svg PUBLIC "-//W3C//DTD SVG 1.1//EN"
 "http://www.w3.org/Graphics/SVG/1.1/DTD/svg11.dtd">
<!-- Generated by graphviz version 2.40.1 (20161225.0304)
 -->
<!-- Title: playrho::d2::RayCastHit Pages: 1 -->
<svg width="250pt" height="242pt"
 viewBox="0.00 0.00 250.37 242.00" xmlns="http://www.w3.org/2000/svg" xmlns:xlink="http://www.w3.org/1999/xlink">
<g id="graph0" class="graph" transform="scale(1 1) rotate(0) translate(4 238)">
<title>playrho::d2::RayCastHit</title>
<polygon fill="#ffffff" stroke="transparent" points="-4,4 -4,-238 246.3672,-238 246.3672,4 -4,4"/>
<!-- Node1 -->
<g id="node1" class="node">
<title>Node1</title>
<polygon fill="#bfbfbf" stroke="#000000" points="65.9507,-.5 65.9507,-18.5 187.5513,-18.5 187.5513,-.5 65.9507,-.5"/>
<text text-anchor="middle" x="126.751" y="-6.5" font-family="Helvetica,sans-Serif" font-size="10.00" fill="#000000">playrho::d2::RayCastHit</text>
</g>
<!-- Node2 -->
<g id="node2" class="node">
<title>Node2</title>
<g id="a_node2"><a xlink:href="classplayrho_1_1BoundedValue.html" target="_top" xlink:title="playrho::BoundedValue\l\&lt; Real \&gt;">
<polygon fill="#ffffff" stroke="#000000" points="123.1348,-65.5 123.1348,-93.5 242.3672,-93.5 242.3672,-65.5 123.1348,-65.5"/>
<text text-anchor="start" x="131.1348" y="-81.5" font-family="Helvetica,sans-Serif" font-size="10.00" fill="#000000">playrho::BoundedValue</text>
<text text-anchor="middle" x="182.751" y="-71.5" font-family="Helvetica,sans-Serif" font-size="10.00" fill="#000000">&lt; Real &gt;</text>
</a>
</g>
</g>
<!-- Node2&#45;&gt;Node1 -->
<g id="edge1" class="edge">
<title>Node2&#45;&gt;Node1</title>
<path fill="none" stroke="#9a32cd" stroke-dasharray="5,2" d="M164.9621,-57.2639C154.5471,-44.2451 141.948,-28.4963 134.1404,-18.7368"/>
<polygon fill="#9a32cd" stroke="#9a32cd" points="162.4385,-59.7122 171.4185,-65.3345 167.9046,-55.3393 162.4385,-59.7122"/>
<text text-anchor="middle" x="174.5366" y="-39" font-family="Helvetica,sans-Serif" font-size="10.00" fill="#000000"> fraction</text>
</g>
<!-- Node3 -->
<g id="node3" class="node">
<title>Node3</title>
<polygon fill="#ffffff" stroke="#bfbfbf" points="53.3003,-145.5 53.3003,-163.5 88.2017,-163.5 88.2017,-145.5 53.3003,-145.5"/>
<text text-anchor="middle" x="70.751" y="-151.5" font-family="Helvetica,sans-Serif" font-size="10.00" fill="#000000">float</text>
</g>
<!-- Node3&#45;&gt;Node2 -->
<g id="edge2" class="edge">
<title>Node3&#45;&gt;Node2</title>
<path fill="none" stroke="#9a32cd" stroke-dasharray="5,2" d="M92.943,-139.6393C112.9011,-126.2745 142.0153,-106.7783 161.6353,-93.64"/>
<polygon fill="#9a32cd" stroke="#9a32cd" points="90.846,-136.8312 84.4844,-145.3035 94.7409,-142.6476 90.846,-136.8312"/>
<text text-anchor="middle" x="154.0391" y="-114" font-family="Helvetica,sans-Serif" font-size="10.00" fill="#000000"> m_value</text>
</g>
<!-- Node6 -->
<g id="node6" class="node">
<title>Node6</title>
<g id="a_node6"><a xlink:href="classplayrho_1_1d2_1_1UnitVec.html" target="_top" xlink:title="2&#45;D unit vector. ">
<polygon fill="#ffffff" stroke="#000000" points="0,-70.5 0,-88.5 105.502,-88.5 105.502,-70.5 0,-70.5"/>
<text text-anchor="middle" x="52.751" y="-76.5" font-family="Helvetica,sans-Serif" font-size="10.00" fill="#000000">playrho::d2::UnitVec</text>
</a>
</g>
</g>
<!-- Node3&#45;&gt;Node6 -->
<g id="edge6" class="edge">
<title>Node3&#45;&gt;Node6</title>
<path fill="none" stroke="#9a32cd" stroke-dasharray="5,2" d="M59.1211,-136.3258C56.7854,-131.8124 54.6641,-126.8687 53.4063,-122 50.5267,-110.8542 50.9133,-97.5105 51.6547,-88.7864"/>
<polygon fill="#9a32cd" stroke="#9a32cd" points="56.2883,-138.4187 64.3248,-145.3227 62.3478,-134.914 56.2883,-138.4187"/>
<text text-anchor="middle" x="75.4233" y="-114" font-family="Helvetica,sans-Serif" font-size="10.00" fill="#000000"> m_elems</text>
</g>
<!-- Node4 -->
<g id="node4" class="node">
<title>Node4</title>
<g id="a_node4"><a xlink:href="classplayrho_1_1BoundedValue.html" target="_top" xlink:title="Bounded value. ">
<polygon fill="#ffffff" stroke="#000000" points="123.1348,-140.5 123.1348,-168.5 242.3672,-168.5 242.3672,-140.5 123.1348,-140.5"/>
<text text-anchor="start" x="131.1348" y="-156.5" font-family="Helvetica,sans-Serif" font-size="10.00" fill="#000000">playrho::BoundedValue</text>
<text text-anchor="middle" x="182.751" y="-146.5" font-family="Helvetica,sans-Serif" font-size="10.00" fill="#000000">&lt; T, lo, hi &gt;</text>
</a>
</g>
</g>
<!-- Node4&#45;&gt;Node2 -->
<g id="edge3" class="edge">
<title>Node4&#45;&gt;Node2</title>
<path fill="none" stroke="#ffa500" stroke-dasharray="5,2" d="M182.751,-130.0415C182.751,-117.9507 182.751,-103.7938 182.751,-93.5437"/>
<polygon fill="#ffa500" stroke="#ffa500" points="179.2511,-130.393 182.751,-140.3931 186.2511,-130.3931 179.2511,-130.393"/>
<text text-anchor="middle" x="203.0415" y="-114" font-family="Helvetica,sans-Serif" font-size="10.00" fill="#000000"> &lt; Real &gt;</text>
</g>
<!-- Node5 -->
<g id="node5" class="node">
<title>Node5</title>
<polygon fill="#ffffff" stroke="#bfbfbf" points="168.251,-215.5 168.251,-233.5 197.251,-233.5 197.251,-215.5 168.251,-215.5"/>
<text text-anchor="middle" x="182.3052" y="-221.5" font-family="Helvetica,sans-Serif" font-size="10.00" fill="#000000">T</text>
</g>
<!-- Node5&#45;&gt;Node4 -->
<g id="edge4" class="edge">
<title>Node5&#45;&gt;Node4</title>
<path fill="none" stroke="#9a32cd" stroke-dasharray="5,2" d="M182.751,-205.0243C182.751,-193.5169 182.751,-179.2016 182.751,-168.7499"/>
<polygon fill="#9a32cd" stroke="#9a32cd" points="179.2511,-205.3487 182.751,-215.3487 186.2511,-205.3488 179.2511,-205.3487"/>
<text text-anchor="middle" x="203.0391" y="-189" font-family="Helvetica,sans-Serif" font-size="10.00" fill="#000000"> m_value</text>
</g>
<!-- Node6&#45;&gt;Node1 -->
<g id="edge5" class="edge">
<title>Node6&#45;&gt;Node1</title>
<path fill="none" stroke="#9a32cd" stroke-dasharray="5,2" d="M69.8221,-63.3517C84.3875,-49.5736 104.8255,-30.2403 116.8382,-18.8769"/>
<polygon fill="#9a32cd" stroke="#9a32cd" points="67.2847,-60.934 62.4252,-70.3487 72.0951,-66.0193 67.2847,-60.934"/>
<text text-anchor="middle" x="113.4233" y="-39" font-family="Helvetica,sans-Serif" font-size="10.00" fill="#000000"> normal</text>
</g>
</g>
</svg>
