<?xml version="1.0" encoding="UTF-8" standalone="no"?>
<!DOCTYPE svg PUBLIC "-//W3C//DTD SVG 1.1//EN"
 "http://www.w3.org/Graphics/SVG/1.1/DTD/svg11.dtd">
<!-- Generated by graphviz version 2.40.1 (20161225.0304)
 -->
<!-- Title: playrho::d2::RopeJointConf Pages: 1 -->
<svg width="235pt" height="214pt"
 viewBox="0.00 0.00 234.73 214.00" xmlns="http://www.w3.org/2000/svg" xmlns:xlink="http://www.w3.org/1999/xlink">
<g id="graph0" class="graph" transform="scale(1 1) rotate(0) translate(4 210)">
<title>playrho::d2::RopeJointConf</title>
<polygon fill="#ffffff" stroke="transparent" points="-4,4 -4,-210 230.7324,-210 230.7324,4 -4,4"/>
<!-- Node0 -->
<g id="node1" class="node">
<title>Node0</title>
<polygon fill="#bfbfbf" stroke="#000000" points="0,-.5 0,-18.5 137.1865,-18.5 137.1865,-.5 0,-.5"/>
<text text-anchor="middle" x="68.5933" y="-6.5" font-family="Helvetica,sans-Serif" font-size="10.00" fill="#000000">playrho::d2::RopeJointConf</text>
</g>
<!-- Node1 -->
<g id="node2" class="node">
<title>Node1</title>
<g id="a_node2"><a xlink:href="structplayrho_1_1d2_1_1JointBuilder.html" target="_top" xlink:title="playrho::d2::JointBuilder\l\&lt; RopeJointConf \&gt;">
<polygon fill="#ffffff" stroke="#000000" points="6.9507,-56.5 6.9507,-84.5 130.2358,-84.5 130.2358,-56.5 6.9507,-56.5"/>
<text text-anchor="start" x="14.9507" y="-72.5" font-family="Helvetica,sans-Serif" font-size="10.00" fill="#000000">playrho::d2::JointBuilder</text>
<text text-anchor="middle" x="68.5933" y="-62.5" font-family="Helvetica,sans-Serif" font-size="10.00" fill="#000000">&lt; RopeJointConf &gt;</text>
</a>
</g>
</g>
<!-- Node1&#45;&gt;Node0 -->
<g id="edge1" class="edge">
<title>Node1&#45;&gt;Node0</title>
<path fill="none" stroke="#191970" d="M68.5933,-46.1001C68.5933,-36.5157 68.5933,-26.0935 68.5933,-18.831"/>
<polygon fill="#191970" stroke="#191970" points="65.0934,-46.352 68.5933,-56.3521 72.0934,-46.3521 65.0934,-46.352"/>
</g>
<!-- Node2 -->
<g id="node3" class="node">
<title>Node2</title>
<g id="a_node3"><a xlink:href="structplayrho_1_1d2_1_1JointConf.html" target="_top" xlink:title="Abstract base Joint definition class. ">
<polygon fill="#ffffff" stroke="#000000" points="7.9531,-187.5 7.9531,-205.5 121.2334,-205.5 121.2334,-187.5 7.9531,-187.5"/>
<text text-anchor="middle" x="64.5933" y="-193.5" font-family="Helvetica,sans-Serif" font-size="10.00" fill="#000000">playrho::d2::JointConf</text>
</a>
</g>
</g>
<!-- Node2&#45;&gt;Node1 -->
<g id="edge2" class="edge">
<title>Node2&#45;&gt;Node1</title>
<path fill="none" stroke="#191970" d="M65.2063,-177.1897C66.016,-151.6844 67.4232,-107.3578 68.1422,-84.7089"/>
<polygon fill="#191970" stroke="#191970" points="61.7001,-177.3323 64.8809,-187.4384 68.6966,-177.5545 61.7001,-177.3323"/>
</g>
<!-- Node3 -->
<g id="node4" class="node">
<title>Node3</title>
<g id="a_node4"><a xlink:href="structplayrho_1_1d2_1_1JointBuilder.html" target="_top" xlink:title="Joint builder definition structure. ">
<polygon fill="#ffffff" stroke="#000000" points="80.4541,-131.5 80.4541,-149.5 226.7324,-149.5 226.7324,-131.5 80.4541,-131.5"/>
<text text-anchor="middle" x="153.5933" y="-137.5" font-family="Helvetica,sans-Serif" font-size="10.00" fill="#000000">playrho::d2::JointBuilder&lt; T &gt;</text>
</a>
</g>
</g>
<!-- Node2&#45;&gt;Node3 -->
<g id="edge4" class="edge">
<title>Node2&#45;&gt;Node3</title>
<path fill="none" stroke="#191970" d="M88.1897,-181.6528C104.3994,-171.4534 125.3976,-158.2411 139.1702,-149.5752"/>
<polygon fill="#191970" stroke="#191970" points="85.8898,-178.9647 79.2898,-187.2527 89.6177,-184.8895 85.8898,-178.9647"/>
</g>
<!-- Node3&#45;&gt;Node1 -->
<g id="edge3" class="edge">
<title>Node3&#45;&gt;Node1</title>
<path fill="none" stroke="#ffa500" stroke-dasharray="5,2" d="M134.6011,-124.8594C120.0161,-112.8482 100.0423,-96.3992 85.8967,-84.7499"/>
<polygon fill="#ffa500" stroke="#ffa500" points="132.5367,-127.6934 142.481,-131.3487 136.9867,-122.2899 132.5367,-127.6934"/>
<text text-anchor="middle" x="161.6768" y="-105" font-family="Helvetica,sans-Serif" font-size="10.00" fill="#000000"> &lt; RopeJointConf &gt;</text>
</g>
</g>
</svg>
