<?xml version="1.0" encoding="UTF-8" standalone="no"?>
<!DOCTYPE svg PUBLIC "-//W3C//DTD SVG 1.1//EN"
 "http://www.w3.org/Graphics/SVG/1.1/DTD/svg11.dtd">
<!-- Generated by graphviz version 2.44.1 (20200629.0846)
 -->
<!-- Title: playrho::d2::WorldImpl::ContactToiData Pages: 1 -->
<svg width="731pt" height="138pt"
 viewBox="0.00 0.00 731.00 138.00" xmlns="http://www.w3.org/2000/svg" xmlns:xlink="http://www.w3.org/1999/xlink">
<g id="graph0" class="graph" transform="scale(1 1) rotate(0) translate(4 134)">
<title>playrho::d2::WorldImpl::ContactToiData</title>
<polygon fill="white" stroke="transparent" points="-4,4 -4,-134 727,-134 727,4 -4,4"/>
<!-- Node1 -->
<g id="node1" class="node">
<title>Node1</title>
<g id="a_node1"><a xlink:title="Contact TOI data.">
<polygon fill="#bfbfbf" stroke="black" points="609,-50 609,-80 723,-80 723,-50 609,-50"/>
<text text-anchor="start" x="617" y="-68" font-family="Helvetica,sans-Serif" font-size="10.00">playrho::d2::WorldImpl</text>
<text text-anchor="middle" x="666" y="-57" font-family="Helvetica,sans-Serif" font-size="10.00">::ContactToiData</text>
</a>
</g>
</g>
<!-- Node2 -->
<g id="node2" class="node">
<title>Node2</title>
<g id="a_node2"><a xlink:title=" ">
<polygon fill="white" stroke="#bfbfbf" points="417,-110.5 417,-129.5 452,-129.5 452,-110.5 417,-110.5"/>
<text text-anchor="middle" x="434.5" y="-117.5" font-family="Helvetica,sans-Serif" font-size="10.00">float</text>
</a>
</g>
</g>
<!-- Node2&#45;&gt;Node1 -->
<g id="edge1" class="edge">
<title>Node2&#45;&gt;Node1</title>
<path fill="none" stroke="#9a32cd" stroke-dasharray="5,2" d="M462.1,-113.63C497.74,-105.08 561.9,-89.71 608.55,-78.53"/>
<polygon fill="#9a32cd" stroke="#9a32cd" points="460.91,-110.31 452.01,-116.04 462.55,-117.12 460.91,-110.31"/>
<text text-anchor="middle" x="560.5" y="-98" font-family="Helvetica,sans-Serif" font-size="10.00"> toi</text>
</g>
<!-- Node3 -->
<g id="node3" class="node">
<title>Node3</title>
<g id="a_node3"><a xlink:href="classplayrho_1_1strongtype_1_1IndexingNamedType.html" target="_top" xlink:title=" ">
<polygon fill="white" stroke="black" points="372,-39 372,-91 497,-91 497,-39 372,-39"/>
<text text-anchor="start" x="380" y="-79" font-family="Helvetica,sans-Serif" font-size="10.00">playrho::strongtype</text>
<text text-anchor="start" x="380" y="-68" font-family="Helvetica,sans-Serif" font-size="10.00">::IndexingNamedType</text>
<text text-anchor="start" x="380" y="-57" font-family="Helvetica,sans-Serif" font-size="10.00">&lt; ContactCounter, struct</text>
<text text-anchor="middle" x="434.5" y="-46" font-family="Helvetica,sans-Serif" font-size="10.00"> ContactIdentifier &gt;</text>
</a>
</g>
</g>
<!-- Node3&#45;&gt;Node1 -->
<g id="edge2" class="edge">
<title>Node3&#45;&gt;Node1</title>
<path fill="none" stroke="#9a32cd" stroke-dasharray="5,2" d="M507.42,-65C540.13,-65 578.27,-65 608.84,-65"/>
<polygon fill="#9a32cd" stroke="#9a32cd" points="507,-61.5 497,-65 507,-68.5 507,-61.5"/>
<text text-anchor="middle" x="560.5" y="-68" font-family="Helvetica,sans-Serif" font-size="10.00"> contact</text>
</g>
<!-- Node4 -->
<g id="node4" class="node">
<title>Node4</title>
<g id="a_node4"><a xlink:title=" ">
<polygon fill="white" stroke="#bfbfbf" points="110,-101.5 110,-120.5 196,-120.5 196,-101.5 110,-101.5"/>
<text text-anchor="middle" x="153" y="-108.5" font-family="Helvetica,sans-Serif" font-size="10.00">ContactCounter</text>
</a>
</g>
</g>
<!-- Node4&#45;&gt;Node3 -->
<g id="edge3" class="edge">
<title>Node4&#45;&gt;Node3</title>
<path fill="none" stroke="#9a32cd" stroke-dasharray="5,2" d="M206.22,-106.62C243.43,-103.06 294.53,-97.26 339,-89 349.73,-87.01 361.06,-84.5 371.99,-81.85"/>
<polygon fill="#9a32cd" stroke="#9a32cd" points="205.75,-103.15 196.12,-107.57 206.4,-110.12 205.75,-103.15"/>
<text text-anchor="middle" x="283" y="-107" font-family="Helvetica,sans-Serif" font-size="10.00"> value_</text>
</g>
<!-- Node5 -->
<g id="node5" class="node">
<title>Node5</title>
<g id="a_node5"><a xlink:href="classplayrho_1_1strongtype_1_1IndexingNamedType.html" target="_top" xlink:title="An indexable, hashable, named &quot;strong type&quot; template class.">
<polygon fill="white" stroke="black" points="97,-41.5 97,-82.5 209,-82.5 209,-41.5 97,-41.5"/>
<text text-anchor="start" x="105" y="-70.5" font-family="Helvetica,sans-Serif" font-size="10.00">playrho::strongtype</text>
<text text-anchor="start" x="105" y="-59.5" font-family="Helvetica,sans-Serif" font-size="10.00">::IndexingNamedType</text>
<text text-anchor="middle" x="153" y="-48.5" font-family="Helvetica,sans-Serif" font-size="10.00">&lt; T, Tag &gt;</text>
</a>
</g>
</g>
<!-- Node5&#45;&gt;Node3 -->
<g id="edge4" class="edge">
<title>Node5&#45;&gt;Node3</title>
<path fill="none" stroke="orange" stroke-dasharray="5,2" d="M219.37,-62.7C265.33,-63.19 326.42,-63.85 371.58,-64.34"/>
<polygon fill="orange" stroke="orange" points="219.26,-59.2 209.22,-62.59 219.18,-66.2 219.26,-59.2"/>
<text text-anchor="start" x="227" y="-77" font-family="Helvetica,sans-Serif" font-size="10.00"> &lt; ContactCounter, struct</text>
<text text-anchor="middle" x="283" y="-66" font-family="Helvetica,sans-Serif" font-size="10.00"> ContactIdentifier &gt;</text>
</g>
<!-- Node6 -->
<g id="node6" class="node">
<title>Node6</title>
<g id="a_node6"><a xlink:title=" ">
<polygon fill="white" stroke="#bfbfbf" points="0,-52.5 0,-71.5 29,-71.5 29,-52.5 0,-52.5"/>
<text text-anchor="middle" x="14.5" y="-59.5" font-family="Helvetica,sans-Serif" font-size="10.00">T</text>
</a>
</g>
</g>
<!-- Node6&#45;&gt;Node5 -->
<g id="edge5" class="edge">
<title>Node6&#45;&gt;Node5</title>
<path fill="none" stroke="#9a32cd" stroke-dasharray="5,2" d="M39.11,-62C55.05,-62 76.78,-62 96.91,-62"/>
<polygon fill="#9a32cd" stroke="#9a32cd" points="39.09,-58.5 29.09,-62 39.09,-65.5 39.09,-58.5"/>
<text text-anchor="middle" x="63" y="-65" font-family="Helvetica,sans-Serif" font-size="10.00"> value_</text>
</g>
<!-- Node7 -->
<g id="node7" class="node">
<title>Node7</title>
<g id="a_node7"><a xlink:href="structplayrho_1_1Wider.html" target="_top" xlink:title=" ">
<polygon fill="white" stroke="black" points="357,-0.5 357,-19.5 512,-19.5 512,-0.5 357,-0.5"/>
<text text-anchor="middle" x="434.5" y="-7.5" font-family="Helvetica,sans-Serif" font-size="10.00">playrho::Wider&lt; BodyCounter &gt;</text>
</a>
</g>
</g>
<!-- Node7&#45;&gt;Node1 -->
<g id="edge6" class="edge">
<title>Node7&#45;&gt;Node1</title>
<path fill="none" stroke="#9a32cd" stroke-dasharray="5,2" d="M485.09,-21.88C521.42,-30.59 570.76,-42.42 608.59,-51.48"/>
<polygon fill="#9a32cd" stroke="#9a32cd" points="485.75,-18.44 475.21,-19.52 484.12,-25.25 485.75,-18.44"/>
<text text-anchor="middle" x="560.5" y="-51" font-family="Helvetica,sans-Serif" font-size="10.00"> simultaneous</text>
</g>
<!-- Node8 -->
<g id="node8" class="node">
<title>Node8</title>
<g id="a_node8"><a xlink:href="structplayrho_1_1Wider.html" target="_top" xlink:title="Wider data type obtainer.">
<polygon fill="white" stroke="black" points="101,-0.5 101,-19.5 205,-19.5 205,-0.5 101,-0.5"/>
<text text-anchor="middle" x="153" y="-7.5" font-family="Helvetica,sans-Serif" font-size="10.00">playrho::Wider&lt; T &gt;</text>
</a>
</g>
</g>
<!-- Node8&#45;&gt;Node7 -->
<g id="edge7" class="edge">
<title>Node8&#45;&gt;Node7</title>
<path fill="none" stroke="orange" stroke-dasharray="5,2" d="M215.28,-10C256.96,-10 312.41,-10 356.98,-10"/>
<polygon fill="orange" stroke="orange" points="215.26,-6.5 205.26,-10 215.26,-13.5 215.26,-6.5"/>
<text text-anchor="middle" x="283" y="-13" font-family="Helvetica,sans-Serif" font-size="10.00"> &lt; BodyCounter &gt;</text>
</g>
</g>
</svg>
