<?xml version="1.0" encoding="UTF-8" standalone="no"?>
<!DOCTYPE svg PUBLIC "-//W3C//DTD SVG 1.1//EN"
 "http://www.w3.org/Graphics/SVG/1.1/DTD/svg11.dtd">
<!-- Generated by graphviz version 2.40.1 (20161225.0304)
 -->
<!-- Title: playrho::d2::DynamicTree::BranchData Pages: 1 -->
<svg width="138pt" height="112pt"
 viewBox="0.00 0.00 138.13 112.00" xmlns="http://www.w3.org/2000/svg" xmlns:xlink="http://www.w3.org/1999/xlink">
<g id="graph0" class="graph" transform="scale(1 1) rotate(0) translate(4 108)">
<title>playrho::d2::DynamicTree::BranchData</title>
<polygon fill="#ffffff" stroke="transparent" points="-4,4 -4,-108 134.126,-108 134.126,4 -4,4"/>
<!-- Node1 -->
<g id="node1" class="node">
<title>Node1</title>
<polygon fill="#bfbfbf" stroke="#000000" points="0,-.5 0,-28.5 130.126,-28.5 130.126,-.5 0,-.5"/>
<text text-anchor="start" x="8" y="-16.5" font-family="Helvetica,sans-Serif" font-size="10.00" fill="#000000">playrho::d2::DynamicTree</text>
<text text-anchor="middle" x="65.063" y="-6.5" font-family="Helvetica,sans-Serif" font-size="10.00" fill="#000000">::BranchData</text>
</g>
<!-- Node2 -->
<g id="node2" class="node">
<title>Node2</title>
<polygon fill="#ffffff" stroke="#bfbfbf" points="22.0435,-85.5 22.0435,-103.5 108.0825,-103.5 108.0825,-85.5 22.0435,-85.5"/>
<text text-anchor="middle" x="65.063" y="-91.5" font-family="Helvetica,sans-Serif" font-size="10.00" fill="#000000">ContactCounter</text>
</g>
<!-- Node2&#45;&gt;Node1 -->
<g id="edge1" class="edge">
<title>Node2&#45;&gt;Node1</title>
<path fill="none" stroke="#9a32cd" stroke-dasharray="5,2" d="M65.063,-75.0816C65.063,-60.7521 65.063,-41.579 65.063,-28.6728"/>
<polygon fill="#9a32cd" stroke="#9a32cd" points="61.5631,-75.3229 65.063,-85.323 68.5631,-75.323 61.5631,-75.3229"/>
<text text-anchor="middle" x="79.5161" y="-59" font-family="Helvetica,sans-Serif" font-size="10.00" fill="#000000"> child1</text>
<text text-anchor="middle" x="79.5161" y="-49" font-family="Helvetica,sans-Serif" font-size="10.00" fill="#000000">child2</text>
</g>
</g>
</svg>
