<?xml version="1.0" encoding="UTF-8" standalone="no"?>
<!DOCTYPE svg PUBLIC "-//W3C//DTD SVG 1.1//EN"
 "http://www.w3.org/Graphics/SVG/1.1/DTD/svg11.dtd">
<!-- Generated by graphviz version 2.40.1 (20161225.0304)
 -->
<!-- Title: playrho::d2::ShapeConf Pages: 1 -->
<svg width="475pt" height="439pt"
 viewBox="0.00 0.00 475.42 439.00" xmlns="http://www.w3.org/2000/svg" xmlns:xlink="http://www.w3.org/1999/xlink">
<g id="graph0" class="graph" transform="scale(1 1) rotate(0) translate(4 435)">
<title>playrho::d2::ShapeConf</title>
<polygon fill="#ffffff" stroke="transparent" points="-4,4 -4,-435 471.4238,-435 471.4238,4 -4,4"/>
<!-- Node4 -->
<g id="node1" class="node">
<title>Node4</title>
<polygon fill="#bfbfbf" stroke="#000000" points="145.271,-.5 145.271,-18.5 266.3442,-18.5 266.3442,-.5 145.271,-.5"/>
<text text-anchor="middle" x="205.8076" y="-6.5" font-family="Helvetica,sans-Serif" font-size="10.00" fill="#000000">playrho::d2::ShapeConf</text>
</g>
<!-- Node5 -->
<g id="node2" class="node">
<title>Node5</title>
<g id="a_node2"><a xlink:href="structplayrho_1_1d2_1_1ShapeBuilder.html" target="_top" xlink:title="playrho::d2::ShapeBuilder\l\&lt; ShapeConf \&gt;">
<polygon fill="#ffffff" stroke="#000000" points="140.2686,-56.5 140.2686,-84.5 271.3467,-84.5 271.3467,-56.5 140.2686,-56.5"/>
<text text-anchor="start" x="148.2686" y="-72.5" font-family="Helvetica,sans-Serif" font-size="10.00" fill="#000000">playrho::d2::ShapeBuilder</text>
<text text-anchor="middle" x="205.8076" y="-62.5" font-family="Helvetica,sans-Serif" font-size="10.00" fill="#000000">&lt; ShapeConf &gt;</text>
</a>
</g>
</g>
<!-- Node5&#45;&gt;Node4 -->
<g id="edge1" class="edge">
<title>Node5&#45;&gt;Node4</title>
<path fill="none" stroke="#191970" d="M205.8076,-46.1001C205.8076,-36.5157 205.8076,-26.0935 205.8076,-18.831"/>
<polygon fill="#191970" stroke="#191970" points="202.3077,-46.352 205.8076,-56.3521 209.3077,-46.3521 202.3077,-46.352"/>
</g>
<!-- Node6 -->
<g id="node3" class="node">
<title>Node6</title>
<g id="a_node3"><a xlink:href="structplayrho_1_1d2_1_1BaseShapeConf.html" target="_top" xlink:title="Base configuration for initializing shapes. ">
<polygon fill="#ffffff" stroke="#000000" points="129.8745,-197.5 129.8745,-215.5 273.7407,-215.5 273.7407,-197.5 129.8745,-197.5"/>
<text text-anchor="middle" x="201.8076" y="-203.5" font-family="Helvetica,sans-Serif" font-size="10.00" fill="#000000">playrho::d2::BaseShapeConf</text>
</a>
</g>
</g>
<!-- Node6&#45;&gt;Node5 -->
<g id="edge2" class="edge">
<title>Node6&#45;&gt;Node5</title>
<path fill="none" stroke="#191970" d="M202.3779,-187.1119C203.1927,-159.4066 204.6711,-109.1399 205.3912,-84.6595"/>
<polygon fill="#191970" stroke="#191970" points="198.8782,-187.0536 202.0826,-197.1522 205.8751,-187.2594 198.8782,-187.0536"/>
</g>
<!-- Node13 -->
<g id="node10" class="node">
<title>Node13</title>
<g id="a_node10"><a xlink:href="structplayrho_1_1d2_1_1ShapeBuilder.html" target="_top" xlink:title="Builder configuration structure. ">
<polygon fill="#ffffff" stroke="#000000" points="218.2686,-131.5 218.2686,-159.5 349.3467,-159.5 349.3467,-131.5 218.2686,-131.5"/>
<text text-anchor="start" x="226.2686" y="-147.5" font-family="Helvetica,sans-Serif" font-size="10.00" fill="#000000">playrho::d2::ShapeBuilder</text>
<text text-anchor="middle" x="283.8076" y="-137.5" font-family="Helvetica,sans-Serif" font-size="10.00" fill="#000000">&lt; ConcreteConf &gt;</text>
</a>
</g>
</g>
<!-- Node6&#45;&gt;Node13 -->
<g id="edge10" class="edge">
<title>Node6&#45;&gt;Node13</title>
<path fill="none" stroke="#191970" d="M222.2694,-191.2784C235.3565,-181.5429 252.2075,-169.0074 264.9662,-159.5162"/>
<polygon fill="#191970" stroke="#191970" points="219.8414,-188.7224 213.907,-197.4992 224.0195,-194.3388 219.8414,-188.7224"/>
</g>
<!-- Node7 -->
<g id="node4" class="node">
<title>Node7</title>
<polygon fill="#ffffff" stroke="#bfbfbf" points="0,-267.5 0,-285.5 111.6152,-285.5 111.6152,-267.5 0,-267.5"/>
<text text-anchor="middle" x="55.8076" y="-273.5" font-family="Helvetica,sans-Serif" font-size="10.00" fill="#000000">NonNegative&lt; Real &gt;</text>
</g>
<!-- Node7&#45;&gt;Node6 -->
<g id="edge3" class="edge">
<title>Node7&#45;&gt;Node6</title>
<path fill="none" stroke="#9a32cd" stroke-dasharray="5,2" d="M83.7878,-263.0848C112.8009,-249.1745 157.3782,-227.8018 182.6281,-215.6957"/>
<polygon fill="#9a32cd" stroke="#9a32cd" points="82.0997,-260.0127 74.5957,-267.492 85.126,-266.3247 82.0997,-260.0127"/>
<text text-anchor="middle" x="158.9233" y="-236" font-family="Helvetica,sans-Serif" font-size="10.00" fill="#000000"> friction</text>
</g>
<!-- Node8 -->
<g id="node5" class="node">
<title>Node8</title>
<polygon fill="#ffffff" stroke="#bfbfbf" points="129.3228,-267.5 129.3228,-285.5 274.2925,-285.5 274.2925,-267.5 129.3228,-267.5"/>
<text text-anchor="middle" x="201.8076" y="-273.5" font-family="Helvetica,sans-Serif" font-size="10.00" fill="#000000">NonNegative&lt; AreaDensity &gt;</text>
</g>
<!-- Node8&#45;&gt;Node6 -->
<g id="edge4" class="edge">
<title>Node8&#45;&gt;Node6</title>
<path fill="none" stroke="#9a32cd" stroke-dasharray="5,2" d="M201.8076,-257.2039C201.8076,-243.7531 201.8076,-226.3986 201.8076,-215.8769"/>
<polygon fill="#9a32cd" stroke="#9a32cd" points="198.3077,-257.3487 201.8076,-267.3487 205.3077,-257.3488 198.3077,-257.3487"/>
<text text-anchor="middle" x="219.0391" y="-236" font-family="Helvetica,sans-Serif" font-size="10.00" fill="#000000"> density</text>
</g>
<!-- Node9 -->
<g id="node6" class="node">
<title>Node9</title>
<g id="a_node6"><a xlink:href="classplayrho_1_1BoundedValue.html" target="_top" xlink:title="playrho::BoundedValue\l\&lt; Real \&gt;">
<polygon fill="#ffffff" stroke="#000000" points="292.1914,-262.5 292.1914,-290.5 411.4238,-290.5 411.4238,-262.5 292.1914,-262.5"/>
<text text-anchor="start" x="300.1914" y="-278.5" font-family="Helvetica,sans-Serif" font-size="10.00" fill="#000000">playrho::BoundedValue</text>
<text text-anchor="middle" x="351.8076" y="-268.5" font-family="Helvetica,sans-Serif" font-size="10.00" fill="#000000">&lt; Real &gt;</text>
</a>
</g>
</g>
<!-- Node9&#45;&gt;Node6 -->
<g id="edge5" class="edge">
<title>Node9&#45;&gt;Node6</title>
<path fill="none" stroke="#9a32cd" stroke-dasharray="5,2" d="M312.2793,-258.0535C282.9053,-244.3456 244.0998,-226.2364 221.1631,-215.5325"/>
<polygon fill="#9a32cd" stroke="#9a32cd" points="310.9109,-261.2772 321.4529,-262.3345 313.8712,-254.9339 310.9109,-261.2772"/>
<text text-anchor="middle" x="304.874" y="-236" font-family="Helvetica,sans-Serif" font-size="10.00" fill="#000000"> restitution</text>
</g>
<!-- Node10 -->
<g id="node7" class="node">
<title>Node10</title>
<polygon fill="#ffffff" stroke="#bfbfbf" points="295.3569,-342.5 295.3569,-360.5 330.2583,-360.5 330.2583,-342.5 295.3569,-342.5"/>
<text text-anchor="middle" x="312.8076" y="-348.5" font-family="Helvetica,sans-Serif" font-size="10.00" fill="#000000">float</text>
</g>
<!-- Node10&#45;&gt;Node9 -->
<g id="edge6" class="edge">
<title>Node10&#45;&gt;Node9</title>
<path fill="none" stroke="#9a32cd" stroke-dasharray="5,2" d="M318.9596,-332.7479C321.7175,-325.1906 325.2489,-316.5035 329.2314,-309 332.5811,-302.6889 336.9351,-296.1418 340.9246,-290.592"/>
<polygon fill="#9a32cd" stroke="#9a32cd" points="315.5693,-331.8426 315.6094,-342.4373 322.185,-334.13 315.5693,-331.8426"/>
<text text-anchor="middle" x="350.0957" y="-311" font-family="Helvetica,sans-Serif" font-size="10.00" fill="#000000"> m_value</text>
</g>
<!-- Node11 -->
<g id="node8" class="node">
<title>Node11</title>
<g id="a_node8"><a xlink:href="classplayrho_1_1BoundedValue.html" target="_top" xlink:title="Bounded value. ">
<polygon fill="#ffffff" stroke="#000000" points="348.1914,-337.5 348.1914,-365.5 467.4238,-365.5 467.4238,-337.5 348.1914,-337.5"/>
<text text-anchor="start" x="356.1914" y="-353.5" font-family="Helvetica,sans-Serif" font-size="10.00" fill="#000000">playrho::BoundedValue</text>
<text text-anchor="middle" x="407.8076" y="-343.5" font-family="Helvetica,sans-Serif" font-size="10.00" fill="#000000">&lt; T, lo, hi &gt;</text>
</a>
</g>
</g>
<!-- Node11&#45;&gt;Node9 -->
<g id="edge7" class="edge">
<title>Node11&#45;&gt;Node9</title>
<path fill="none" stroke="#ffa500" stroke-dasharray="5,2" d="M391.185,-329.2376C381.8227,-316.6988 370.4155,-301.4213 362.2936,-290.5437"/>
<polygon fill="#ffa500" stroke="#ffa500" points="388.487,-331.4743 397.2744,-337.3931 394.096,-327.2862 388.487,-331.4743"/>
<text text-anchor="middle" x="403.0981" y="-311" font-family="Helvetica,sans-Serif" font-size="10.00" fill="#000000"> &lt; Real &gt;</text>
</g>
<!-- Node12 -->
<g id="node9" class="node">
<title>Node12</title>
<polygon fill="#ffffff" stroke="#bfbfbf" points="393.3076,-412.5 393.3076,-430.5 422.3076,-430.5 422.3076,-412.5 393.3076,-412.5"/>
<text text-anchor="middle" x="407.3618" y="-418.5" font-family="Helvetica,sans-Serif" font-size="10.00" fill="#000000">T</text>
</g>
<!-- Node12&#45;&gt;Node11 -->
<g id="edge8" class="edge">
<title>Node12&#45;&gt;Node11</title>
<path fill="none" stroke="#9a32cd" stroke-dasharray="5,2" d="M407.8076,-402.0243C407.8076,-390.5169 407.8076,-376.2016 407.8076,-365.7499"/>
<polygon fill="#9a32cd" stroke="#9a32cd" points="404.3077,-402.3487 407.8076,-412.3487 411.3077,-402.3488 404.3077,-402.3487"/>
<text text-anchor="middle" x="428.0957" y="-386" font-family="Helvetica,sans-Serif" font-size="10.00" fill="#000000"> m_value</text>
</g>
<!-- Node13&#45;&gt;Node5 -->
<g id="edge9" class="edge">
<title>Node13&#45;&gt;Node5</title>
<path fill="none" stroke="#ffa500" stroke-dasharray="5,2" d="M261.7759,-124.3157C248.5348,-111.5839 232.0521,-95.7351 220.413,-84.5437"/>
<polygon fill="#ffa500" stroke="#ffa500" points="259.5022,-126.9849 269.1364,-131.3931 264.3539,-121.939 259.5022,-126.9849"/>
<text text-anchor="middle" x="284.8345" y="-105" font-family="Helvetica,sans-Serif" font-size="10.00" fill="#000000"> &lt; ShapeConf &gt;</text>
</g>
</g>
</svg>
