<?xml version="1.0" encoding="UTF-8" standalone="no"?>
<!DOCTYPE svg PUBLIC "-//W3C//DTD SVG 1.1//EN"
 "http://www.w3.org/Graphics/SVG/1.1/DTD/svg11.dtd">
<!-- Generated by graphviz version 2.40.1 (20161225.0304)
 -->
<!-- Title: playrho::d2::Manifold::Point Pages: 1 -->
<svg width="367pt" height="252pt"
 viewBox="0.00 0.00 366.91 252.00" xmlns="http://www.w3.org/2000/svg" xmlns:xlink="http://www.w3.org/1999/xlink">
<g id="graph0" class="graph" transform="scale(1 1) rotate(0) translate(4 248)">
<title>playrho::d2::Manifold::Point</title>
<polygon fill="#ffffff" stroke="transparent" points="-4,4 -4,-248 362.9058,-248 362.9058,4 -4,4"/>
<!-- Node1 -->
<g id="node1" class="node">
<title>Node1</title>
<polygon fill="#bfbfbf" stroke="#000000" points="128.8496,-.5 128.8496,-28.5 237.6816,-28.5 237.6816,-.5 128.8496,-.5"/>
<text text-anchor="start" x="136.8496" y="-16.5" font-family="Helvetica,sans-Serif" font-size="10.00" fill="#000000">playrho::d2::Manifold</text>
<text text-anchor="middle" x="183.2656" y="-6.5" font-family="Helvetica,sans-Serif" font-size="10.00" fill="#000000">::Point</text>
</g>
<!-- Node2 -->
<g id="node2" class="node">
<title>Node2</title>
<g id="a_node2"><a xlink:href="structplayrho_1_1Vector.html" target="_top" xlink:title="playrho::Vector\&lt; Length \&gt;">
<polygon fill="#ffffff" stroke="#000000" points="0,-85.5 0,-103.5 130.5313,-103.5 130.5313,-85.5 0,-85.5"/>
<text text-anchor="middle" x="65.2656" y="-91.5" font-family="Helvetica,sans-Serif" font-size="10.00" fill="#000000">playrho::Vector&lt; Length &gt;</text>
</a>
</g>
</g>
<!-- Node2&#45;&gt;Node1 -->
<g id="edge1" class="edge">
<title>Node2&#45;&gt;Node1</title>
<path fill="none" stroke="#9a32cd" stroke-dasharray="5,2" d="M86.6395,-79.2484C99.9342,-69.8346 117.4297,-57.577 133.1279,-47 142.2468,-40.856 152.4101,-34.2279 161.1895,-28.57"/>
<polygon fill="#9a32cd" stroke="#9a32cd" points="84.3071,-76.612 78.1804,-85.2558 88.3602,-82.3193 84.3071,-76.612"/>
<text text-anchor="middle" x="156.3345" y="-54" font-family="Helvetica,sans-Serif" font-size="10.00" fill="#000000"> localPoint</text>
</g>
<!-- Node3 -->
<g id="node3" class="node">
<title>Node3</title>
<polygon fill="#ffffff" stroke="#bfbfbf" points="7.9727,-160.5 7.9727,-178.5 54.5586,-178.5 54.5586,-160.5 7.9727,-160.5"/>
<text text-anchor="middle" x="31.2656" y="-166.5" font-family="Helvetica,sans-Serif" font-size="10.00" fill="#000000">Length</text>
</g>
<!-- Node3&#45;&gt;Node2 -->
<g id="edge2" class="edge">
<title>Node3&#45;&gt;Node2</title>
<path fill="none" stroke="#9a32cd" stroke-dasharray="5,2" d="M37.4416,-150.4898C40.5301,-141.6704 44.5397,-131.1403 48.9111,-122 51.9309,-115.6859 55.9399,-108.9254 59.2329,-103.6875"/>
<polygon fill="#9a32cd" stroke="#9a32cd" points="34.0492,-149.5964 34.1687,-160.1906 40.6819,-151.8343 34.0492,-149.5964"/>
<text text-anchor="middle" x="70.9429" y="-129" font-family="Helvetica,sans-Serif" font-size="10.00" fill="#000000"> elements</text>
</g>
<!-- Node4 -->
<g id="node4" class="node">
<title>Node4</title>
<g id="a_node4"><a xlink:href="structplayrho_1_1Vector.html" target="_top" xlink:title="Vector. ">
<polygon fill="#ffffff" stroke="#000000" points="72.4917,-160.5 72.4917,-178.5 190.0396,-178.5 190.0396,-160.5 72.4917,-160.5"/>
<text text-anchor="middle" x="131.2656" y="-166.5" font-family="Helvetica,sans-Serif" font-size="10.00" fill="#000000">playrho::Vector&lt; T, N &gt;</text>
</a>
</g>
</g>
<!-- Node4&#45;&gt;Node2 -->
<g id="edge3" class="edge">
<title>Node4&#45;&gt;Node2</title>
<path fill="none" stroke="#ffa500" stroke-dasharray="5,2" d="M117.683,-152.2128C110.3458,-143.0672 101.0189,-131.7451 92.2656,-122 86.6321,-115.7282 80.0034,-108.9684 74.7238,-103.7203"/>
<polygon fill="#ffa500" stroke="#ffa500" points="115.0625,-154.5408 124.0245,-160.1917 120.5425,-150.1854 115.0625,-154.5408"/>
<text text-anchor="middle" x="134.5659" y="-129" font-family="Helvetica,sans-Serif" font-size="10.00" fill="#000000"> &lt; Length &gt;</text>
</g>
<!-- Node5 -->
<g id="node5" class="node">
<title>Node5</title>
<polygon fill="#ffffff" stroke="#bfbfbf" points="116.7656,-225.5 116.7656,-243.5 145.7656,-243.5 145.7656,-225.5 116.7656,-225.5"/>
<text text-anchor="middle" x="130.8198" y="-231.5" font-family="Helvetica,sans-Serif" font-size="10.00" fill="#000000">T</text>
</g>
<!-- Node5&#45;&gt;Node4 -->
<g id="edge4" class="edge">
<title>Node5&#45;&gt;Node4</title>
<path fill="none" stroke="#9a32cd" stroke-dasharray="5,2" d="M131.2656,-215.1265C131.2656,-203.1522 131.2656,-188.3205 131.2656,-178.8821"/>
<polygon fill="#9a32cd" stroke="#9a32cd" points="127.7657,-215.462 131.2656,-225.462 134.7657,-215.4621 127.7657,-215.462"/>
<text text-anchor="middle" x="152.9429" y="-199" font-family="Helvetica,sans-Serif" font-size="10.00" fill="#000000"> elements</text>
</g>
<!-- Node6 -->
<g id="node6" class="node">
<title>Node6</title>
<polygon fill="#ffffff" stroke="#bfbfbf" points="148.5933,-85.5 148.5933,-103.5 217.938,-103.5 217.938,-85.5 148.5933,-85.5"/>
<text text-anchor="middle" x="183.2656" y="-91.5" font-family="Helvetica,sans-Serif" font-size="10.00" fill="#000000">momentum)</text>
</g>
<!-- Node6&#45;&gt;Node1 -->
<g id="edge5" class="edge">
<title>Node6&#45;&gt;Node1</title>
<path fill="none" stroke="#9a32cd" stroke-dasharray="5,2" d="M183.2656,-75.0816C183.2656,-60.7521 183.2656,-41.579 183.2656,-28.6728"/>
<polygon fill="#9a32cd" stroke="#9a32cd" points="179.7657,-75.3229 183.2656,-85.323 186.7657,-75.323 179.7657,-75.3229"/>
<text text-anchor="middle" x="218.8442" y="-59" font-family="Helvetica,sans-Serif" font-size="10.00" fill="#000000"> tangentImpulse</text>
<text text-anchor="middle" x="218.8442" y="-49" font-family="Helvetica,sans-Serif" font-size="10.00" fill="#000000">normalImpulse</text>
</g>
<!-- Node7 -->
<g id="node7" class="node">
<title>Node7</title>
<g id="a_node7"><a xlink:href="structplayrho_1_1ContactFeature.html" target="_top" xlink:title="Contact Feature. ">
<polygon fill="#ffffff" stroke="#000000" points="235.6255,-85.5 235.6255,-103.5 358.9058,-103.5 358.9058,-85.5 235.6255,-85.5"/>
<text text-anchor="middle" x="297.2656" y="-91.5" font-family="Helvetica,sans-Serif" font-size="10.00" fill="#000000">playrho::ContactFeature</text>
</a>
</g>
</g>
<!-- Node7&#45;&gt;Node1 -->
<g id="edge6" class="edge">
<title>Node7&#45;&gt;Node1</title>
<path fill="none" stroke="#9a32cd" stroke-dasharray="5,2" d="M286.0467,-77.0611C279.0153,-67.2143 269.2234,-55.2634 258.2656,-47 248.4083,-39.5665 236.5889,-33.4319 225.2794,-28.5719"/>
<polygon fill="#9a32cd" stroke="#9a32cd" points="283.1641,-79.0464 291.6823,-85.3465 288.9521,-75.1094 283.1641,-79.0464"/>
<text text-anchor="middle" x="313.0068" y="-54" font-family="Helvetica,sans-Serif" font-size="10.00" fill="#000000"> contactFeature</text>
</g>
<!-- Node8 -->
<g id="node8" class="node">
<title>Node8</title>
<polygon fill="#ffffff" stroke="#bfbfbf" points="244.2534,-160.5 244.2534,-178.5 290.2778,-178.5 290.2778,-160.5 244.2534,-160.5"/>
<text text-anchor="middle" x="267.2656" y="-166.5" font-family="Helvetica,sans-Serif" font-size="10.00" fill="#000000">uint8_t</text>
</g>
<!-- Node8&#45;&gt;Node7 -->
<g id="edge7" class="edge">
<title>Node8&#45;&gt;Node7</title>
<path fill="none" stroke="#9a32cd" stroke-dasharray="5,2" d="M266.3935,-150.1309C266.6753,-141.2216 268.005,-130.7197 271.9111,-122 275.0969,-114.8883 280.8671,-108.4014 286.0988,-103.5161"/>
<polygon fill="#9a32cd" stroke="#9a32cd" points="262.8951,-150.3411 266.4819,-160.3103 269.8948,-150.2802 262.8951,-150.3411"/>
<text text-anchor="middle" x="288.9429" y="-134" font-family="Helvetica,sans-Serif" font-size="10.00" fill="#000000"> indexA</text>
<text text-anchor="middle" x="288.9429" y="-124" font-family="Helvetica,sans-Serif" font-size="10.00" fill="#000000">indexB</text>
</g>
<!-- Node9 -->
<g id="node9" class="node">
<title>Node9</title>
<polygon fill="#ffffff" stroke="#bfbfbf" points="308.4233,-160.5 308.4233,-178.5 346.1079,-178.5 346.1079,-160.5 308.4233,-160.5"/>
<text text-anchor="middle" x="327.2656" y="-166.5" font-family="Helvetica,sans-Serif" font-size="10.00" fill="#000000">Type</text>
</g>
<!-- Node9&#45;&gt;Node7 -->
<g id="edge8" class="edge">
<title>Node9&#45;&gt;Node7</title>
<path fill="none" stroke="#9a32cd" stroke-dasharray="5,2" d="M319.8571,-150.9787C313.8611,-135.9888 305.6675,-115.5048 300.9743,-103.7717"/>
<polygon fill="#9a32cd" stroke="#9a32cd" points="316.6234,-152.3186 323.587,-160.3035 323.1227,-149.7189 316.6234,-152.3186"/>
<text text-anchor="middle" x="330.4404" y="-134" font-family="Helvetica,sans-Serif" font-size="10.00" fill="#000000"> typeA</text>
<text text-anchor="middle" x="330.4404" y="-124" font-family="Helvetica,sans-Serif" font-size="10.00" fill="#000000">typeB</text>
</g>
</g>
</svg>
