<?xml version="1.0" encoding="UTF-8" standalone="no"?>
<!DOCTYPE svg PUBLIC "-//W3C//DTD SVG 1.1//EN"
 "http://www.w3.org/Graphics/SVG/1.1/DTD/svg11.dtd">
<!-- Generated by graphviz version 2.44.1 (20200629.0846)
 -->
<!-- Title: playrho::d2::GearJointConf Pages: 1 -->
<svg width="1431pt" height="508pt"
 viewBox="0.00 0.00 1431.00 508.42" xmlns="http://www.w3.org/2000/svg" xmlns:xlink="http://www.w3.org/1999/xlink">
<g id="graph0" class="graph" transform="scale(1 1) rotate(0) translate(4 504.42)">
<title>playrho::d2::GearJointConf</title>
<polygon fill="white" stroke="transparent" points="-4,4 -4,-504.42 1427,-504.42 1427,4 -4,4"/>
<!-- Node1 -->
<g id="node1" class="node">
<title>Node1</title>
<g id="a_node1"><a xlink:title="Gear joint definition.">
<polygon fill="#bfbfbf" stroke="black" points="1289,-207.92 1289,-226.92 1423,-226.92 1423,-207.92 1289,-207.92"/>
<text text-anchor="middle" x="1356" y="-214.92" font-family="Helvetica,sans-Serif" font-size="10.00">playrho::d2::GearJointConf</text>
</a>
</g>
</g>
<!-- Node2 -->
<g id="node2" class="node">
<title>Node2</title>
<g id="a_node2"><a xlink:href="structplayrho_1_1d2_1_1JointBuilder.html" target="_top" xlink:title=" ">
<polygon fill="white" stroke="black" points="1053,-379.42 1053,-409.42 1175,-409.42 1175,-379.42 1053,-379.42"/>
<text text-anchor="start" x="1061" y="-397.42" font-family="Helvetica,sans-Serif" font-size="10.00">playrho::d2::JointBuilder</text>
<text text-anchor="middle" x="1114" y="-386.42" font-family="Helvetica,sans-Serif" font-size="10.00">&lt; GearJointConf &gt;</text>
</a>
</g>
</g>
<!-- Node2&#45;&gt;Node1 -->
<g id="edge1" class="edge">
<title>Node2&#45;&gt;Node1</title>
<path fill="none" stroke="midnightblue" d="M1185.22,-390.23C1214.01,-385.62 1246.29,-376.44 1271,-358.42 1318.65,-323.66 1344.16,-252.92 1352.18,-227.12"/>
<polygon fill="midnightblue" stroke="midnightblue" points="1184.6,-386.78 1175.2,-391.68 1185.6,-393.71 1184.6,-386.78"/>
</g>
<!-- Node3 -->
<g id="node3" class="node">
<title>Node3</title>
<g id="a_node3"><a xlink:href="structplayrho_1_1d2_1_1JointConf.html" target="_top" xlink:title="Base joint definition class.">
<polygon fill="white" stroke="black" points="632,-409.92 632,-428.92 745,-428.92 745,-409.92 632,-409.92"/>
<text text-anchor="middle" x="688.5" y="-416.92" font-family="Helvetica,sans-Serif" font-size="10.00">playrho::d2::JointConf</text>
</a>
</g>
</g>
<!-- Node3&#45;&gt;Node2 -->
<g id="edge2" class="edge">
<title>Node3&#45;&gt;Node2</title>
<path fill="none" stroke="midnightblue" d="M755.3,-415.09C764.27,-414.52 773.36,-413.94 782,-413.42 876.65,-407.63 986.57,-401.42 1052.89,-397.73"/>
<polygon fill="midnightblue" stroke="midnightblue" points="755.01,-411.6 745.26,-415.73 755.46,-418.59 755.01,-411.6"/>
</g>
<!-- Node9 -->
<g id="node9" class="node">
<title>Node9</title>
<g id="a_node9"><a xlink:href="structplayrho_1_1d2_1_1JointBuilder.html" target="_top" xlink:title="Joint builder definition structure.">
<polygon fill="white" stroke="black" points="782,-422.92 782,-441.92 928,-441.92 928,-422.92 782,-422.92"/>
<text text-anchor="middle" x="855" y="-429.92" font-family="Helvetica,sans-Serif" font-size="10.00">playrho::d2::JointBuilder&lt; T &gt;</text>
</a>
</g>
</g>
<!-- Node3&#45;&gt;Node9 -->
<g id="edge9" class="edge">
<title>Node3&#45;&gt;Node9</title>
<path fill="none" stroke="midnightblue" d="M755.27,-424.61C763.97,-425.3 772.94,-426.01 781.74,-426.71"/>
<polygon fill="midnightblue" stroke="midnightblue" points="755.44,-421.12 745.19,-423.82 754.89,-428.1 755.44,-421.12"/>
</g>
<!-- Node4 -->
<g id="node4" class="node">
<title>Node4</title>
<g id="a_node4"><a xlink:href="classplayrho_1_1detail_1_1IndexingNamedType.html" target="_top" xlink:title=" ">
<polygon fill="white" stroke="black" points="371,-431.92 371,-472.92 508,-472.92 508,-431.92 371,-431.92"/>
<text text-anchor="start" x="379" y="-460.92" font-family="Helvetica,sans-Serif" font-size="10.00">playrho::detail::Indexing</text>
<text text-anchor="start" x="379" y="-449.92" font-family="Helvetica,sans-Serif" font-size="10.00">NamedType&lt; BodyCounter,</text>
<text text-anchor="middle" x="439.5" y="-438.92" font-family="Helvetica,sans-Serif" font-size="10.00"> struct BodyIdentifier &gt;</text>
</a>
</g>
</g>
<!-- Node4&#45;&gt;Node1 -->
<g id="edge15" class="edge">
<title>Node4&#45;&gt;Node1</title>
<path fill="none" stroke="#9a32cd" stroke-dasharray="5,2" d="M518.29,-464.83C566.82,-471.52 630.64,-478.42 687.5,-478.42 687.5,-478.42 687.5,-478.42 1115,-478.42 1195.49,-478.42 1216.16,-445.33 1271,-386.42 1317.88,-336.05 1344.37,-254.6 1352.38,-226.95"/>
<polygon fill="#9a32cd" stroke="#9a32cd" points="518.57,-461.33 508.18,-463.41 517.6,-468.26 518.57,-461.33"/>
<text text-anchor="middle" x="855" y="-492.42" font-family="Helvetica,sans-Serif" font-size="10.00"> bodyC</text>
<text text-anchor="middle" x="855" y="-481.42" font-family="Helvetica,sans-Serif" font-size="10.00">bodyD</text>
</g>
<!-- Node4&#45;&gt;Node3 -->
<g id="edge3" class="edge">
<title>Node4&#45;&gt;Node3</title>
<path fill="none" stroke="#9a32cd" stroke-dasharray="5,2" d="M518.53,-441.99C555.36,-437.07 598.45,-431.31 631.9,-426.84"/>
<polygon fill="#9a32cd" stroke="#9a32cd" points="517.77,-438.56 508.32,-443.36 518.7,-445.5 517.77,-438.56"/>
<text text-anchor="middle" x="574.5" y="-452.42" font-family="Helvetica,sans-Serif" font-size="10.00"> bodyA</text>
<text text-anchor="middle" x="574.5" y="-441.42" font-family="Helvetica,sans-Serif" font-size="10.00">bodyB</text>
</g>
<!-- Node5 -->
<g id="node5" class="node">
<title>Node5</title>
<g id="a_node5"><a xlink:title=" ">
<polygon fill="white" stroke="#bfbfbf" points="120,-442.92 120,-461.92 194,-461.92 194,-442.92 120,-442.92"/>
<text text-anchor="middle" x="157" y="-449.92" font-family="Helvetica,sans-Serif" font-size="10.00">BodyCounter</text>
</a>
</g>
</g>
<!-- Node5&#45;&gt;Node4 -->
<g id="edge4" class="edge">
<title>Node5&#45;&gt;Node4</title>
<path fill="none" stroke="#9a32cd" stroke-dasharray="5,2" d="M204.23,-452.42C249.6,-452.42 319.29,-452.42 370.88,-452.42"/>
<polygon fill="#9a32cd" stroke="#9a32cd" points="204.1,-448.92 194.1,-452.42 204.1,-455.92 204.1,-448.92"/>
<text text-anchor="middle" x="289.5" y="-455.42" font-family="Helvetica,sans-Serif" font-size="10.00"> value_</text>
</g>
<!-- Node6 -->
<g id="node6" class="node">
<title>Node6</title>
<g id="a_node6"><a xlink:href="classplayrho_1_1detail_1_1IndexingNamedType.html" target="_top" xlink:title="An indexable, hashable, named &quot;strong type&quot; template class.">
<polygon fill="white" stroke="black" points="97,-336.42 97,-366.42 217,-366.42 217,-336.42 97,-336.42"/>
<text text-anchor="start" x="105" y="-354.42" font-family="Helvetica,sans-Serif" font-size="10.00">playrho::detail::Indexing</text>
<text text-anchor="middle" x="157" y="-343.42" font-family="Helvetica,sans-Serif" font-size="10.00">NamedType&lt; T, Tag &gt;</text>
</a>
</g>
</g>
<!-- Node6&#45;&gt;Node4 -->
<g id="edge5" class="edge">
<title>Node6&#45;&gt;Node4</title>
<path fill="none" stroke="orange" stroke-dasharray="5,2" d="M209.39,-369.92C258.08,-387.45 331.06,-413.73 381.51,-431.9"/>
<polygon fill="orange" stroke="orange" points="210.29,-366.52 199.69,-366.43 207.91,-373.11 210.29,-366.52"/>
<text text-anchor="start" x="239.5" y="-430.42" font-family="Helvetica,sans-Serif" font-size="10.00"> &lt; BodyCounter, struct</text>
<text text-anchor="middle" x="289.5" y="-419.42" font-family="Helvetica,sans-Serif" font-size="10.00"> BodyIdentifier &gt;</text>
</g>
<!-- Node19 -->
<g id="node19" class="node">
<title>Node19</title>
<g id="a_node19"><a xlink:href="classplayrho_1_1detail_1_1IndexingNamedType.html" target="_top" xlink:title=" ">
<polygon fill="white" stroke="black" points="362,-323.92 362,-364.92 517,-364.92 517,-323.92 362,-323.92"/>
<text text-anchor="start" x="370" y="-352.92" font-family="Helvetica,sans-Serif" font-size="10.00">playrho::detail::Indexing</text>
<text text-anchor="start" x="370" y="-341.92" font-family="Helvetica,sans-Serif" font-size="10.00">NamedType&lt; const char *const</text>
<text text-anchor="middle" x="439.5" y="-330.92" font-family="Helvetica,sans-Serif" font-size="10.00"> *, struct TypeIdentifier &gt;</text>
</a>
</g>
</g>
<!-- Node6&#45;&gt;Node19 -->
<g id="edge26" class="edge">
<title>Node6&#45;&gt;Node19</title>
<path fill="none" stroke="orange" stroke-dasharray="5,2" d="M227.27,-349.69C268.09,-348.67 319.8,-347.38 361.83,-346.33"/>
<polygon fill="orange" stroke="orange" points="227.05,-346.19 217.14,-349.94 227.23,-353.19 227.05,-346.19"/>
<text text-anchor="start" x="235" y="-362.42" font-family="Helvetica,sans-Serif" font-size="10.00"> &lt; const char *const</text>
<text text-anchor="middle" x="289.5" y="-351.42" font-family="Helvetica,sans-Serif" font-size="10.00"> *, struct TypeIdentifier &gt;</text>
</g>
<!-- Node7 -->
<g id="node7" class="node">
<title>Node7</title>
<g id="a_node7"><a xlink:title=" ">
<polygon fill="white" stroke="#bfbfbf" points="0,-269.92 0,-288.92 29,-288.92 29,-269.92 0,-269.92"/>
<text text-anchor="middle" x="14.5" y="-276.92" font-family="Helvetica,sans-Serif" font-size="10.00">T</text>
</a>
</g>
</g>
<!-- Node7&#45;&gt;Node6 -->
<g id="edge6" class="edge">
<title>Node7&#45;&gt;Node6</title>
<path fill="none" stroke="#9a32cd" stroke-dasharray="5,2" d="M37.78,-293.25C53.93,-303.04 76.47,-316.19 97,-326.42 103.87,-329.84 111.32,-333.23 118.55,-336.36"/>
<polygon fill="#9a32cd" stroke="#9a32cd" points="39.42,-290.16 29.06,-287.92 35.77,-296.13 39.42,-290.16"/>
<text text-anchor="middle" x="63" y="-319.42" font-family="Helvetica,sans-Serif" font-size="10.00"> value_</text>
</g>
<!-- Node12 -->
<g id="node12" class="node">
<title>Node12</title>
<g id="a_node12"><a xlink:href="structplayrho_1_1Vector.html" target="_top" xlink:title="Vector.">
<polygon fill="white" stroke="black" points="795.5,-250.92 795.5,-269.92 914.5,-269.92 914.5,-250.92 795.5,-250.92"/>
<text text-anchor="middle" x="855" y="-257.92" font-family="Helvetica,sans-Serif" font-size="10.00">playrho::Vector&lt; T, N &gt;</text>
</a>
</g>
</g>
<!-- Node7&#45;&gt;Node12 -->
<g id="edge13" class="edge">
<title>Node7&#45;&gt;Node12</title>
<path fill="none" stroke="#9a32cd" stroke-dasharray="5,2" d="M38.97,-275.1C66.79,-270.36 114.6,-263.42 156,-263.42 156,-263.42 156,-263.42 689.5,-263.42 724.63,-263.42 763.98,-262.72 795.38,-262"/>
<polygon fill="#9a32cd" stroke="#9a32cd" points="38.25,-271.67 29,-276.85 39.46,-278.56 38.25,-271.67"/>
<text text-anchor="middle" x="439.5" y="-266.42" font-family="Helvetica,sans-Serif" font-size="10.00"> elements</text>
</g>
<!-- Node8 -->
<g id="node8" class="node">
<title>Node8</title>
<g id="a_node8"><a xlink:title=" ">
<polygon fill="white" stroke="#bfbfbf" points="422,-393.92 422,-412.92 457,-412.92 457,-393.92 422,-393.92"/>
<text text-anchor="middle" x="439.5" y="-400.92" font-family="Helvetica,sans-Serif" font-size="10.00">bool</text>
</a>
</g>
</g>
<!-- Node8&#45;&gt;Node3 -->
<g id="edge7" class="edge">
<title>Node8&#45;&gt;Node3</title>
<path fill="none" stroke="#9a32cd" stroke-dasharray="5,2" d="M467.41,-402.88C501.57,-402.47 562.29,-402.62 614,-407.42 620.69,-408.04 627.7,-408.9 634.62,-409.88"/>
<polygon fill="#9a32cd" stroke="#9a32cd" points="467.24,-399.39 457.29,-403.03 467.34,-406.38 467.24,-399.39"/>
<text text-anchor="middle" x="574.5" y="-410.42" font-family="Helvetica,sans-Serif" font-size="10.00"> collideConnected</text>
</g>
<!-- Node9&#45;&gt;Node2 -->
<g id="edge8" class="edge">
<title>Node9&#45;&gt;Node2</title>
<path fill="none" stroke="orange" stroke-dasharray="5,2" d="M934.64,-421.44C964.79,-417.17 999.51,-412.16 1031,-407.42 1037.98,-406.36 1045.3,-405.24 1052.56,-404.11"/>
<polygon fill="orange" stroke="orange" points="934.01,-418 924.6,-422.86 934.99,-424.93 934.01,-418"/>
<text text-anchor="middle" x="988.5" y="-421.42" font-family="Helvetica,sans-Serif" font-size="10.00"> &lt; GearJointConf &gt;</text>
</g>
<!-- Node10 -->
<g id="node10" class="node">
<title>Node10</title>
<g id="a_node10"><a xlink:href="structplayrho_1_1Vector.html" target="_top" xlink:title=" ">
<polygon fill="white" stroke="black" points="1049,-275.92 1049,-294.92 1179,-294.92 1179,-275.92 1049,-275.92"/>
<text text-anchor="middle" x="1114" y="-282.92" font-family="Helvetica,sans-Serif" font-size="10.00">playrho::Vector&lt; Length &gt;</text>
</a>
</g>
</g>
<!-- Node10&#45;&gt;Node1 -->
<g id="edge10" class="edge">
<title>Node10&#45;&gt;Node1</title>
<path fill="none" stroke="#9a32cd" stroke-dasharray="5,2" d="M1188.99,-278.4C1215.31,-274.64 1244.88,-268.96 1271,-260.42 1296.38,-252.12 1323.5,-236.95 1339.85,-227.03"/>
<polygon fill="#9a32cd" stroke="#9a32cd" points="1188.51,-274.93 1179.07,-279.75 1189.45,-281.87 1188.51,-274.93"/>
<text text-anchor="middle" x="1234" y="-312.42" font-family="Helvetica,sans-Serif" font-size="10.00"> localAnchorA</text>
<text text-anchor="middle" x="1234" y="-301.42" font-family="Helvetica,sans-Serif" font-size="10.00">localAnchorB</text>
<text text-anchor="middle" x="1234" y="-290.42" font-family="Helvetica,sans-Serif" font-size="10.00">localAnchorC</text>
<text text-anchor="middle" x="1234" y="-279.42" font-family="Helvetica,sans-Serif" font-size="10.00">localAnchorD</text>
</g>
<!-- Node11 -->
<g id="node11" class="node">
<title>Node11</title>
<g id="a_node11"><a xlink:title=" ">
<polygon fill="white" stroke="#bfbfbf" points="832,-288.92 832,-307.92 878,-307.92 878,-288.92 832,-288.92"/>
<text text-anchor="middle" x="855" y="-295.92" font-family="Helvetica,sans-Serif" font-size="10.00">Length</text>
</a>
</g>
</g>
<!-- Node11&#45;&gt;Node10 -->
<g id="edge11" class="edge">
<title>Node11&#45;&gt;Node10</title>
<path fill="none" stroke="#9a32cd" stroke-dasharray="5,2" d="M888.26,-297.8C923.39,-297.02 981.22,-295.39 1031,-292.42 1036.7,-292.08 1042.63,-291.67 1048.56,-291.23"/>
<polygon fill="#9a32cd" stroke="#9a32cd" points="888.04,-294.31 878.12,-298.02 888.19,-301.3 888.04,-294.31"/>
<text text-anchor="middle" x="988.5" y="-298.42" font-family="Helvetica,sans-Serif" font-size="10.00"> elements</text>
</g>
<!-- Node12&#45;&gt;Node10 -->
<g id="edge12" class="edge">
<title>Node12&#45;&gt;Node10</title>
<path fill="none" stroke="orange" stroke-dasharray="5,2" d="M924.73,-267.1C963.25,-270.85 1010.99,-275.49 1048.76,-279.17"/>
<polygon fill="orange" stroke="orange" points="924.93,-263.61 914.64,-266.12 924.25,-270.57 924.93,-263.61"/>
<text text-anchor="middle" x="988.5" y="-279.42" font-family="Helvetica,sans-Serif" font-size="10.00"> &lt; Length &gt;</text>
</g>
<!-- Node14 -->
<g id="node14" class="node">
<title>Node14</title>
<g id="a_node14"><a xlink:href="structplayrho_1_1Vector.html" target="_top" xlink:title=" ">
<polygon fill="white" stroke="black" points="1053.5,-234.92 1053.5,-253.92 1174.5,-253.92 1174.5,-234.92 1053.5,-234.92"/>
<text text-anchor="middle" x="1114" y="-241.92" font-family="Helvetica,sans-Serif" font-size="10.00">playrho::Vector&lt; Real &gt;</text>
</a>
</g>
</g>
<!-- Node12&#45;&gt;Node14 -->
<g id="edge18" class="edge">
<title>Node12&#45;&gt;Node14</title>
<path fill="none" stroke="orange" stroke-dasharray="5,2" d="M924.85,-249.57C931.98,-248.72 939.13,-247.97 946,-247.42 981.55,-244.54 1021.49,-243.74 1053.4,-243.68"/>
<polygon fill="orange" stroke="orange" points="923.94,-246.16 914.46,-250.89 924.82,-253.1 923.94,-246.16"/>
<text text-anchor="middle" x="988.5" y="-250.42" font-family="Helvetica,sans-Serif" font-size="10.00"> &lt; Real &gt;</text>
</g>
<!-- Node13 -->
<g id="node13" class="node">
<title>Node13</title>
<g id="a_node13"><a xlink:title=" ">
<polygon fill="white" stroke="#bfbfbf" points="1091,-83.92 1091,-102.92 1137,-102.92 1137,-83.92 1091,-83.92"/>
<text text-anchor="middle" x="1114" y="-90.92" font-family="Helvetica,sans-Serif" font-size="10.00">length)</text>
</a>
</g>
</g>
<!-- Node13&#45;&gt;Node1 -->
<g id="edge14" class="edge">
<title>Node13&#45;&gt;Node1</title>
<path fill="none" stroke="#9a32cd" stroke-dasharray="5,2" d="M1147.28,-85.33C1180.39,-78.85 1232.38,-73.87 1271,-94.42 1317.8,-119.32 1343.51,-183.21 1351.9,-207.68"/>
<polygon fill="#9a32cd" stroke="#9a32cd" points="1146.29,-81.96 1137.23,-87.45 1147.74,-88.81 1146.29,-81.96"/>
<text text-anchor="middle" x="1234" y="-130.42" font-family="Helvetica,sans-Serif" font-size="10.00"> JwA</text>
<text text-anchor="middle" x="1234" y="-119.42" font-family="Helvetica,sans-Serif" font-size="10.00">JwB</text>
<text text-anchor="middle" x="1234" y="-108.42" font-family="Helvetica,sans-Serif" font-size="10.00">JwC</text>
<text text-anchor="middle" x="1234" y="-97.42" font-family="Helvetica,sans-Serif" font-size="10.00">JwD</text>
</g>
<!-- Node14&#45;&gt;Node1 -->
<g id="edge16" class="edge">
<title>Node14&#45;&gt;Node1</title>
<path fill="none" stroke="#9a32cd" stroke-dasharray="5,2" d="M1184.62,-236.58C1217.49,-232.89 1256.51,-228.5 1288.91,-224.85"/>
<polygon fill="#9a32cd" stroke="#9a32cd" points="1184.18,-233.11 1174.63,-237.71 1184.96,-240.07 1184.18,-233.11"/>
<text text-anchor="middle" x="1234" y="-248.42" font-family="Helvetica,sans-Serif" font-size="10.00"> JvAC</text>
<text text-anchor="middle" x="1234" y="-237.42" font-family="Helvetica,sans-Serif" font-size="10.00">JvBD</text>
</g>
<!-- Node15 -->
<g id="node15" class="node">
<title>Node15</title>
<g id="a_node15"><a xlink:title=" ">
<polygon fill="white" stroke="#bfbfbf" points="837.5,-168.92 837.5,-187.92 872.5,-187.92 872.5,-168.92 837.5,-168.92"/>
<text text-anchor="middle" x="855" y="-175.92" font-family="Helvetica,sans-Serif" font-size="10.00">float</text>
</a>
</g>
</g>
<!-- Node15&#45;&gt;Node1 -->
<g id="edge19" class="edge">
<title>Node15&#45;&gt;Node1</title>
<path fill="none" stroke="#9a32cd" stroke-dasharray="5,2" d="M882.67,-172.05C938.22,-159.75 1070.19,-135.53 1179,-154.42 1238,-164.66 1303.37,-192.86 1335.29,-207.82"/>
<polygon fill="#9a32cd" stroke="#9a32cd" points="881.59,-168.71 872.61,-174.33 883.14,-175.53 881.59,-168.71"/>
<text text-anchor="middle" x="1114" y="-179.42" font-family="Helvetica,sans-Serif" font-size="10.00"> constant</text>
<text text-anchor="middle" x="1114" y="-168.42" font-family="Helvetica,sans-Serif" font-size="10.00">mass</text>
<text text-anchor="middle" x="1114" y="-157.42" font-family="Helvetica,sans-Serif" font-size="10.00">ratio</text>
</g>
<!-- Node15&#45;&gt;Node14 -->
<g id="edge17" class="edge">
<title>Node15&#45;&gt;Node14</title>
<path fill="none" stroke="#9a32cd" stroke-dasharray="5,2" d="M882.72,-185.28C928.85,-197.13 1023.54,-221.44 1075.99,-234.91"/>
<polygon fill="#9a32cd" stroke="#9a32cd" points="883.42,-181.84 872.86,-182.75 881.68,-188.62 883.42,-181.84"/>
<text text-anchor="middle" x="988.5" y="-225.42" font-family="Helvetica,sans-Serif" font-size="10.00"> elements</text>
</g>
<!-- Node16 -->
<g id="node16" class="node">
<title>Node16</title>
<g id="a_node16"><a xlink:href="classplayrho_1_1d2_1_1UnitVec.html" target="_top" xlink:title="2&#45;D unit vector.">
<polygon fill="white" stroke="black" points="1061,-196.92 1061,-215.92 1167,-215.92 1167,-196.92 1061,-196.92"/>
<text text-anchor="middle" x="1114" y="-203.92" font-family="Helvetica,sans-Serif" font-size="10.00">playrho::d2::UnitVec</text>
</a>
</g>
</g>
<!-- Node15&#45;&gt;Node16 -->
<g id="edge21" class="edge">
<title>Node15&#45;&gt;Node16</title>
<path fill="none" stroke="#9a32cd" stroke-dasharray="5,2" d="M882.75,-176C917.27,-173.47 979.05,-170.93 1031,-179.42 1051.71,-182.8 1074.29,-190.56 1090.5,-196.89"/>
<polygon fill="#9a32cd" stroke="#9a32cd" points="882.24,-172.53 872.55,-176.81 882.79,-179.51 882.24,-172.53"/>
<text text-anchor="middle" x="988.5" y="-182.42" font-family="Helvetica,sans-Serif" font-size="10.00"> m_elems</text>
</g>
<!-- Node16&#45;&gt;Node1 -->
<g id="edge20" class="edge">
<title>Node16&#45;&gt;Node1</title>
<path fill="none" stroke="#9a32cd" stroke-dasharray="5,2" d="M1177.4,-197.11C1206,-194.21 1240.29,-192.64 1271,-196.42 1289.05,-198.64 1308.81,-203.45 1324.62,-207.91"/>
<polygon fill="#9a32cd" stroke="#9a32cd" points="1176.7,-193.67 1167.14,-198.23 1177.46,-200.62 1176.7,-193.67"/>
<text text-anchor="middle" x="1234" y="-210.42" font-family="Helvetica,sans-Serif" font-size="10.00"> localAxis1</text>
<text text-anchor="middle" x="1234" y="-199.42" font-family="Helvetica,sans-Serif" font-size="10.00">localAxis2</text>
</g>
<!-- Node17 -->
<g id="node17" class="node">
<title>Node17</title>
<g id="a_node17"><a xlink:title=" ">
<polygon fill="white" stroke="#bfbfbf" points="1078.5,-38.92 1078.5,-57.92 1149.5,-57.92 1149.5,-38.92 1078.5,-38.92"/>
<text text-anchor="middle" x="1114" y="-45.92" font-family="Helvetica,sans-Serif" font-size="10.00">plane_angle)</text>
</a>
</g>
</g>
<!-- Node17&#45;&gt;Node1 -->
<g id="edge22" class="edge">
<title>Node17&#45;&gt;Node1</title>
<path fill="none" stroke="#9a32cd" stroke-dasharray="5,2" d="M1159.46,-38.47C1192.74,-33.56 1238.02,-32.52 1271,-53.42 1328.29,-89.71 1348.3,-178.36 1353.49,-207.76"/>
<polygon fill="#9a32cd" stroke="#9a32cd" points="1158.84,-35.02 1149.54,-40.09 1159.98,-41.93 1158.84,-35.02"/>
<text text-anchor="middle" x="1234" y="-67.42" font-family="Helvetica,sans-Serif" font-size="10.00"> referenceAngle1</text>
<text text-anchor="middle" x="1234" y="-56.42" font-family="Helvetica,sans-Serif" font-size="10.00">referenceAngle2</text>
</g>
<!-- Node18 -->
<g id="node18" class="node">
<title>Node18</title>
<g id="a_node18"><a xlink:title=" ">
<polygon fill="white" stroke="#bfbfbf" points="1080,-0.92 1080,-19.92 1148,-19.92 1148,-0.92 1080,-0.92"/>
<text text-anchor="middle" x="1114" y="-7.92" font-family="Helvetica,sans-Serif" font-size="10.00">momentum)</text>
</a>
</g>
</g>
<!-- Node18&#45;&gt;Node1 -->
<g id="edge23" class="edge">
<title>Node18&#45;&gt;Node1</title>
<path fill="none" stroke="#9a32cd" stroke-dasharray="5,2" d="M1158.2,-2.11C1191.98,1.91 1238.52,1.68 1271,-21.42 1335.87,-67.54 1351.03,-174.44 1354.22,-207.49"/>
<polygon fill="#9a32cd" stroke="#9a32cd" points="1157.59,1.34 1148.15,-3.47 1158.53,-5.59 1157.59,1.34"/>
<text text-anchor="middle" x="1234" y="-24.42" font-family="Helvetica,sans-Serif" font-size="10.00"> impulse</text>
</g>
<!-- Node19&#45;&gt;Node1 -->
<g id="edge24" class="edge">
<title>Node19&#45;&gt;Node1</title>
<path fill="none" stroke="#9a32cd" stroke-dasharray="5,2" d="M527.48,-344.42C574.8,-344.42 634.37,-344.42 687.5,-344.42 687.5,-344.42 687.5,-344.42 1115,-344.42 1184.9,-344.42 1210.21,-358.93 1271,-324.42 1312.08,-301.1 1340.24,-248.91 1350.6,-227.19"/>
<polygon fill="#9a32cd" stroke="#9a32cd" points="527.27,-340.92 517.27,-344.42 527.27,-347.92 527.27,-340.92"/>
<text text-anchor="middle" x="855" y="-358.42" font-family="Helvetica,sans-Serif" font-size="10.00"> type1</text>
<text text-anchor="middle" x="855" y="-347.42" font-family="Helvetica,sans-Serif" font-size="10.00">type2</text>
</g>
<!-- Node20 -->
<g id="node20" class="node">
<title>Node20</title>
<g id="a_node20"><a xlink:title=" ">
<polygon fill="white" stroke="#bfbfbf" points="107,-297.92 107,-316.92 207,-316.92 207,-297.92 107,-297.92"/>
<text text-anchor="middle" x="157" y="-304.92" font-family="Helvetica,sans-Serif" font-size="10.00">const char *const *</text>
</a>
</g>
</g>
<!-- Node20&#45;&gt;Node19 -->
<g id="edge25" class="edge">
<title>Node20&#45;&gt;Node19</title>
<path fill="none" stroke="#9a32cd" stroke-dasharray="5,2" d="M217.35,-314.95C253.88,-319.61 301.67,-325.77 344,-331.42 349.83,-332.19 355.86,-333.01 361.92,-333.83"/>
<polygon fill="#9a32cd" stroke="#9a32cd" points="217.72,-311.47 207.36,-313.67 216.83,-318.41 217.72,-311.47"/>
<text text-anchor="middle" x="289.5" y="-334.42" font-family="Helvetica,sans-Serif" font-size="10.00"> value_</text>
</g>
</g>
</svg>
