<?xml version="1.0" encoding="UTF-8" standalone="no"?>
<!DOCTYPE svg PUBLIC "-//W3C//DTD SVG 1.1//EN"
 "http://www.w3.org/Graphics/SVG/1.1/DTD/svg11.dtd">
<!-- Generated by graphviz version 2.44.1 (20200629.0846)
 -->
<!-- Title: playrho::d2::PositionSolution Pages: 1 -->
<svg width="228pt" height="307pt"
 viewBox="0.00 0.00 227.50 307.00" xmlns="http://www.w3.org/2000/svg" xmlns:xlink="http://www.w3.org/1999/xlink">
<g id="graph0" class="graph" transform="scale(1 1) rotate(0) translate(4 303)">
<title>playrho::d2::PositionSolution</title>
<polygon fill="white" stroke="transparent" points="-4,4 -4,-303 223.5,-303 223.5,4 -4,4"/>
<!-- Node1 -->
<g id="node1" class="node">
<title>Node1</title>
<g id="a_node1"><a xlink:title="Solution for position constraint.">
<polygon fill="#bfbfbf" stroke="black" points="23.5,-0.5 23.5,-19.5 164.5,-19.5 164.5,-0.5 23.5,-0.5"/>
<text text-anchor="middle" x="94" y="-7.5" font-family="Helvetica,sans-Serif" font-size="10.00">playrho::d2::PositionSolution</text>
</a>
</g>
</g>
<!-- Node2 -->
<g id="node2" class="node">
<title>Node2</title>
<g id="a_node2"><a xlink:title=" ">
<polygon fill="white" stroke="#bfbfbf" points="25,-78.5 25,-97.5 71,-97.5 71,-78.5 25,-78.5"/>
<text text-anchor="middle" x="48" y="-85.5" font-family="Helvetica,sans-Serif" font-size="10.00">length)</text>
</a>
</g>
</g>
<!-- Node2&#45;&gt;Node1 -->
<g id="edge1" class="edge">
<title>Node2&#45;&gt;Node1</title>
<path fill="none" stroke="#9a32cd" stroke-dasharray="5,2" d="M44.26,-68.2C43.32,-58.57 43.79,-46.99 49,-38 53.75,-29.8 62.07,-23.81 70.27,-19.58"/>
<polygon fill="#9a32cd" stroke="#9a32cd" points="40.84,-69 45.81,-78.36 47.76,-67.95 40.84,-69"/>
<text text-anchor="middle" x="84" y="-46.5" font-family="Helvetica,sans-Serif" font-size="10.00"> min_separation</text>
</g>
<!-- Node3 -->
<g id="node3" class="node">
<title>Node3</title>
<g id="a_node3"><a xlink:href="structplayrho_1_1d2_1_1Position.html" target="_top" xlink:title="2&#45;D positional data structure.">
<polygon fill="white" stroke="black" points="89,-78.5 89,-97.5 195,-97.5 195,-78.5 89,-78.5"/>
<text text-anchor="middle" x="142" y="-85.5" font-family="Helvetica,sans-Serif" font-size="10.00">playrho::d2::Position</text>
</a>
</g>
</g>
<!-- Node3&#45;&gt;Node1 -->
<g id="edge2" class="edge">
<title>Node3&#45;&gt;Node1</title>
<path fill="none" stroke="#9a32cd" stroke-dasharray="5,2" d="M135.09,-68.91C131.05,-59.34 125.48,-47.62 119,-38 114.57,-31.43 108.57,-24.89 103.56,-19.89"/>
<polygon fill="#9a32cd" stroke="#9a32cd" points="131.87,-70.28 138.84,-78.25 138.36,-67.67 131.87,-70.28"/>
<text text-anchor="middle" x="146" y="-52" font-family="Helvetica,sans-Serif" font-size="10.00"> pos_a</text>
<text text-anchor="middle" x="146" y="-41" font-family="Helvetica,sans-Serif" font-size="10.00">pos_b</text>
</g>
<!-- Node4 -->
<g id="node4" class="node">
<title>Node4</title>
<g id="a_node4"><a xlink:href="structplayrho_1_1Vector.html" target="_top" xlink:title=" ">
<polygon fill="white" stroke="black" points="0,-145.5 0,-164.5 130,-164.5 130,-145.5 0,-145.5"/>
<text text-anchor="middle" x="65" y="-152.5" font-family="Helvetica,sans-Serif" font-size="10.00">playrho::Vector&lt; Length &gt;</text>
</a>
</g>
</g>
<!-- Node4&#45;&gt;Node3 -->
<g id="edge3" class="edge">
<title>Node4&#45;&gt;Node3</title>
<path fill="none" stroke="#9a32cd" stroke-dasharray="5,2" d="M83.11,-138.71C98.28,-125.91 119.39,-108.09 131.78,-97.63"/>
<polygon fill="#9a32cd" stroke="#9a32cd" points="80.77,-136.11 75.38,-145.23 85.28,-141.46 80.77,-136.11"/>
<text text-anchor="middle" x="122.5" y="-119" font-family="Helvetica,sans-Serif" font-size="10.00"> linear</text>
</g>
<!-- Node5 -->
<g id="node5" class="node">
<title>Node5</title>
<g id="a_node5"><a xlink:title=" ">
<polygon fill="white" stroke="#bfbfbf" points="9,-212.5 9,-231.5 55,-231.5 55,-212.5 9,-212.5"/>
<text text-anchor="middle" x="32" y="-219.5" font-family="Helvetica,sans-Serif" font-size="10.00">Length</text>
</a>
</g>
</g>
<!-- Node5&#45;&gt;Node4 -->
<g id="edge4" class="edge">
<title>Node5&#45;&gt;Node4</title>
<path fill="none" stroke="#9a32cd" stroke-dasharray="5,2" d="M40.09,-203.3C43.11,-196.86 46.63,-189.56 50,-183 53.14,-176.9 56.89,-170.15 59.85,-164.92"/>
<polygon fill="#9a32cd" stroke="#9a32cd" points="36.87,-201.93 35.85,-212.47 43.23,-204.87 36.87,-201.93"/>
<text text-anchor="middle" x="71.5" y="-186" font-family="Helvetica,sans-Serif" font-size="10.00"> elements</text>
</g>
<!-- Node6 -->
<g id="node6" class="node">
<title>Node6</title>
<g id="a_node6"><a xlink:href="structplayrho_1_1Vector.html" target="_top" xlink:title="Vector.">
<polygon fill="white" stroke="black" points="73.5,-212.5 73.5,-231.5 192.5,-231.5 192.5,-212.5 73.5,-212.5"/>
<text text-anchor="middle" x="133" y="-219.5" font-family="Helvetica,sans-Serif" font-size="10.00">playrho::Vector&lt; T, N &gt;</text>
</a>
</g>
</g>
<!-- Node6&#45;&gt;Node4 -->
<g id="edge5" class="edge">
<title>Node6&#45;&gt;Node4</title>
<path fill="none" stroke="orange" stroke-dasharray="5,2" d="M116.26,-205C102.92,-192.25 84.77,-174.89 74.03,-164.63"/>
<polygon fill="orange" stroke="orange" points="114.18,-207.85 123.83,-212.23 119.02,-202.79 114.18,-207.85"/>
<text text-anchor="middle" x="129.5" y="-186" font-family="Helvetica,sans-Serif" font-size="10.00"> &lt; Length &gt;</text>
</g>
<!-- Node7 -->
<g id="node7" class="node">
<title>Node7</title>
<g id="a_node7"><a xlink:title=" ">
<polygon fill="white" stroke="#bfbfbf" points="118.5,-279.5 118.5,-298.5 147.5,-298.5 147.5,-279.5 118.5,-279.5"/>
<text text-anchor="middle" x="133" y="-286.5" font-family="Helvetica,sans-Serif" font-size="10.00">T</text>
</a>
</g>
</g>
<!-- Node7&#45;&gt;Node6 -->
<g id="edge6" class="edge">
<title>Node7&#45;&gt;Node6</title>
<path fill="none" stroke="#9a32cd" stroke-dasharray="5,2" d="M133,-269.04C133,-256.67 133,-241.12 133,-231.63"/>
<polygon fill="#9a32cd" stroke="#9a32cd" points="129.5,-269.23 133,-279.23 136.5,-269.23 129.5,-269.23"/>
<text text-anchor="middle" x="154.5" y="-253" font-family="Helvetica,sans-Serif" font-size="10.00"> elements</text>
</g>
<!-- Node8 -->
<g id="node8" class="node">
<title>Node8</title>
<g id="a_node8"><a xlink:title=" ">
<polygon fill="white" stroke="#bfbfbf" points="148.5,-145.5 148.5,-164.5 219.5,-164.5 219.5,-145.5 148.5,-145.5"/>
<text text-anchor="middle" x="184" y="-152.5" font-family="Helvetica,sans-Serif" font-size="10.00">plane_angle)</text>
</a>
</g>
</g>
<!-- Node8&#45;&gt;Node3 -->
<g id="edge7" class="edge">
<title>Node8&#45;&gt;Node3</title>
<path fill="none" stroke="#9a32cd" stroke-dasharray="5,2" d="M172.71,-136.53C164.58,-123.95 153.96,-107.51 147.57,-97.63"/>
<polygon fill="#9a32cd" stroke="#9a32cd" points="169.97,-138.73 178.34,-145.23 175.85,-134.94 169.97,-138.73"/>
<text text-anchor="middle" x="182.5" y="-119" font-family="Helvetica,sans-Serif" font-size="10.00"> angular</text>
</g>
</g>
</svg>
