<?xml version="1.0" encoding="UTF-8" standalone="no"?>
<!DOCTYPE svg PUBLIC "-//W3C//DTD SVG 1.1//EN"
 "http://www.w3.org/Graphics/SVG/1.1/DTD/svg11.dtd">
<!-- Generated by graphviz version 2.40.1 (20161225.0304)
 -->
<!-- Title: playrho::d2::Simplex::Cache Pages: 1 -->
<svg width="210pt" height="112pt"
 viewBox="0.00 0.00 210.01 112.00" xmlns="http://www.w3.org/2000/svg" xmlns:xlink="http://www.w3.org/1999/xlink">
<g id="graph0" class="graph" transform="scale(1 1) rotate(0) translate(4 108)">
<title>playrho::d2::Simplex::Cache</title>
<polygon fill="#ffffff" stroke="transparent" points="-4,4 -4,-108 206.0083,-108 206.0083,4 -4,4"/>
<!-- Node1 -->
<g id="node1" class="node">
<title>Node1</title>
<polygon fill="#bfbfbf" stroke="#000000" points="19.1504,-.5 19.1504,-28.5 125.751,-28.5 125.751,-.5 19.1504,-.5"/>
<text text-anchor="start" x="27.1504" y="-16.5" font-family="Helvetica,sans-Serif" font-size="10.00" fill="#000000">playrho::d2::Simplex</text>
<text text-anchor="middle" x="72.4507" y="-6.5" font-family="Helvetica,sans-Serif" font-size="10.00" fill="#000000">::Cache</text>
</g>
<!-- Node2 -->
<g id="node2" class="node">
<title>Node2</title>
<polygon fill="#ffffff" stroke="#bfbfbf" points="0,-80.5 0,-98.5 34.9014,-98.5 34.9014,-80.5 0,-80.5"/>
<text text-anchor="middle" x="17.4507" y="-86.5" font-family="Helvetica,sans-Serif" font-size="10.00" fill="#000000">float</text>
</g>
<!-- Node2&#45;&gt;Node1 -->
<g id="edge1" class="edge">
<title>Node2&#45;&gt;Node1</title>
<path fill="none" stroke="#9a32cd" stroke-dasharray="5,2" d="M30.2541,-72.0408C39.9341,-58.8408 53.0542,-40.9498 62.0814,-28.64"/>
<polygon fill="#9a32cd" stroke="#9a32cd" points="27.286,-70.1697 24.1948,-80.3035 32.9309,-74.3092 27.286,-70.1697"/>
<text text-anchor="middle" x="63.4507" y="-49" font-family="Helvetica,sans-Serif" font-size="10.00" fill="#000000"> metric</text>
</g>
<!-- Node3 -->
<g id="node3" class="node">
<title>Node3</title>
<polygon fill="#ffffff" stroke="#bfbfbf" points="52.8931,-75.5 52.8931,-103.5 202.0083,-103.5 202.0083,-75.5 52.8931,-75.5"/>
<text text-anchor="start" x="60.8931" y="-91.5" font-family="Helvetica,sans-Serif" font-size="10.00" fill="#000000">array&lt; IndexPair, MaxSimplex</text>
<text text-anchor="middle" x="127.4507" y="-81.5" font-family="Helvetica,sans-Serif" font-size="10.00" fill="#000000">Edges &gt;</text>
</g>
<!-- Node3&#45;&gt;Node1 -->
<g id="edge2" class="edge">
<title>Node3&#45;&gt;Node1</title>
<path fill="none" stroke="#9a32cd" stroke-dasharray="5,2" d="M111.1249,-67.2376C101.9298,-54.6988 90.7263,-39.4213 82.7494,-28.5437"/>
<polygon fill="#9a32cd" stroke="#9a32cd" points="108.3695,-69.3988 117.1056,-75.3931 114.0144,-65.2592 108.3695,-69.3988"/>
<text text-anchor="middle" x="119.4038" y="-49" font-family="Helvetica,sans-Serif" font-size="10.00" fill="#000000"> indices</text>
</g>
</g>
</svg>
