<?xml version="1.0" encoding="UTF-8" standalone="no"?>
<!DOCTYPE svg PUBLIC "-//W3C//DTD SVG 1.1//EN"
 "http://www.w3.org/Graphics/SVG/1.1/DTD/svg11.dtd">
<!-- Generated by graphviz version 2.40.1 (20161225.0304)
 -->
<!-- Title: playrho::d2::BaseShapeConf Pages: 1 -->
<svg width="475pt" height="242pt"
 viewBox="0.00 0.00 475.42 242.00" xmlns="http://www.w3.org/2000/svg" xmlns:xlink="http://www.w3.org/1999/xlink">
<g id="graph0" class="graph" transform="scale(1 1) rotate(0) translate(4 238)">
<title>playrho::d2::BaseShapeConf</title>
<polygon fill="#ffffff" stroke="transparent" points="-4,4 -4,-238 471.4238,-238 471.4238,4 -4,4"/>
<!-- Node14 -->
<g id="node1" class="node">
<title>Node14</title>
<polygon fill="#bfbfbf" stroke="#000000" points="129.8745,-.5 129.8745,-18.5 273.7407,-18.5 273.7407,-.5 129.8745,-.5"/>
<text text-anchor="middle" x="201.8076" y="-6.5" font-family="Helvetica,sans-Serif" font-size="10.00" fill="#000000">playrho::d2::BaseShapeConf</text>
</g>
<!-- Node15 -->
<g id="node2" class="node">
<title>Node15</title>
<polygon fill="#ffffff" stroke="#bfbfbf" points="0,-70.5 0,-88.5 111.6152,-88.5 111.6152,-70.5 0,-70.5"/>
<text text-anchor="middle" x="55.8076" y="-76.5" font-family="Helvetica,sans-Serif" font-size="10.00" fill="#000000">NonNegative&lt; Real &gt;</text>
</g>
<!-- Node15&#45;&gt;Node14 -->
<g id="edge1" class="edge">
<title>Node15&#45;&gt;Node14</title>
<path fill="none" stroke="#9a32cd" stroke-dasharray="5,2" d="M83.7878,-66.0848C112.8009,-52.1745 157.3782,-30.8018 182.6281,-18.6957"/>
<polygon fill="#9a32cd" stroke="#9a32cd" points="82.0997,-63.0127 74.5957,-70.492 85.126,-69.3247 82.0997,-63.0127"/>
<text text-anchor="middle" x="158.9233" y="-39" font-family="Helvetica,sans-Serif" font-size="10.00" fill="#000000"> friction</text>
</g>
<!-- Node16 -->
<g id="node3" class="node">
<title>Node16</title>
<polygon fill="#ffffff" stroke="#bfbfbf" points="129.3228,-70.5 129.3228,-88.5 274.2925,-88.5 274.2925,-70.5 129.3228,-70.5"/>
<text text-anchor="middle" x="201.8076" y="-76.5" font-family="Helvetica,sans-Serif" font-size="10.00" fill="#000000">NonNegative&lt; AreaDensity &gt;</text>
</g>
<!-- Node16&#45;&gt;Node14 -->
<g id="edge2" class="edge">
<title>Node16&#45;&gt;Node14</title>
<path fill="none" stroke="#9a32cd" stroke-dasharray="5,2" d="M201.8076,-60.2039C201.8076,-46.7531 201.8076,-29.3986 201.8076,-18.8769"/>
<polygon fill="#9a32cd" stroke="#9a32cd" points="198.3077,-60.3487 201.8076,-70.3487 205.3077,-60.3488 198.3077,-60.3487"/>
<text text-anchor="middle" x="219.0391" y="-39" font-family="Helvetica,sans-Serif" font-size="10.00" fill="#000000"> density</text>
</g>
<!-- Node17 -->
<g id="node4" class="node">
<title>Node17</title>
<g id="a_node4"><a xlink:href="classplayrho_1_1BoundedValue.html" target="_top" xlink:title="playrho::BoundedValue\l\&lt; Real \&gt;">
<polygon fill="#ffffff" stroke="#000000" points="292.1914,-65.5 292.1914,-93.5 411.4238,-93.5 411.4238,-65.5 292.1914,-65.5"/>
<text text-anchor="start" x="300.1914" y="-81.5" font-family="Helvetica,sans-Serif" font-size="10.00" fill="#000000">playrho::BoundedValue</text>
<text text-anchor="middle" x="351.8076" y="-71.5" font-family="Helvetica,sans-Serif" font-size="10.00" fill="#000000">&lt; Real &gt;</text>
</a>
</g>
</g>
<!-- Node17&#45;&gt;Node14 -->
<g id="edge3" class="edge">
<title>Node17&#45;&gt;Node14</title>
<path fill="none" stroke="#9a32cd" stroke-dasharray="5,2" d="M312.2793,-61.0535C282.9053,-47.3456 244.0998,-29.2364 221.1631,-18.5325"/>
<polygon fill="#9a32cd" stroke="#9a32cd" points="310.9109,-64.2772 321.4529,-65.3345 313.8712,-57.9339 310.9109,-64.2772"/>
<text text-anchor="middle" x="304.874" y="-39" font-family="Helvetica,sans-Serif" font-size="10.00" fill="#000000"> restitution</text>
</g>
<!-- Node18 -->
<g id="node5" class="node">
<title>Node18</title>
<polygon fill="#ffffff" stroke="#bfbfbf" points="295.3569,-145.5 295.3569,-163.5 330.2583,-163.5 330.2583,-145.5 295.3569,-145.5"/>
<text text-anchor="middle" x="312.8076" y="-151.5" font-family="Helvetica,sans-Serif" font-size="10.00" fill="#000000">float</text>
</g>
<!-- Node18&#45;&gt;Node17 -->
<g id="edge4" class="edge">
<title>Node18&#45;&gt;Node17</title>
<path fill="none" stroke="#9a32cd" stroke-dasharray="5,2" d="M318.9596,-135.7479C321.7175,-128.1906 325.2489,-119.5035 329.2314,-112 332.5811,-105.6889 336.9351,-99.1418 340.9246,-93.592"/>
<polygon fill="#9a32cd" stroke="#9a32cd" points="315.5693,-134.8426 315.6094,-145.4373 322.185,-137.13 315.5693,-134.8426"/>
<text text-anchor="middle" x="350.0957" y="-114" font-family="Helvetica,sans-Serif" font-size="10.00" fill="#000000"> m_value</text>
</g>
<!-- Node19 -->
<g id="node6" class="node">
<title>Node19</title>
<g id="a_node6"><a xlink:href="classplayrho_1_1BoundedValue.html" target="_top" xlink:title="Bounded value. ">
<polygon fill="#ffffff" stroke="#000000" points="348.1914,-140.5 348.1914,-168.5 467.4238,-168.5 467.4238,-140.5 348.1914,-140.5"/>
<text text-anchor="start" x="356.1914" y="-156.5" font-family="Helvetica,sans-Serif" font-size="10.00" fill="#000000">playrho::BoundedValue</text>
<text text-anchor="middle" x="407.8076" y="-146.5" font-family="Helvetica,sans-Serif" font-size="10.00" fill="#000000">&lt; T, lo, hi &gt;</text>
</a>
</g>
</g>
<!-- Node19&#45;&gt;Node17 -->
<g id="edge5" class="edge">
<title>Node19&#45;&gt;Node17</title>
<path fill="none" stroke="#ffa500" stroke-dasharray="5,2" d="M391.185,-132.2376C381.8227,-119.6988 370.4155,-104.4213 362.2936,-93.5437"/>
<polygon fill="#ffa500" stroke="#ffa500" points="388.487,-134.4743 397.2744,-140.3931 394.096,-130.2862 388.487,-134.4743"/>
<text text-anchor="middle" x="403.0981" y="-114" font-family="Helvetica,sans-Serif" font-size="10.00" fill="#000000"> &lt; Real &gt;</text>
</g>
<!-- Node20 -->
<g id="node7" class="node">
<title>Node20</title>
<polygon fill="#ffffff" stroke="#bfbfbf" points="393.3076,-215.5 393.3076,-233.5 422.3076,-233.5 422.3076,-215.5 393.3076,-215.5"/>
<text text-anchor="middle" x="407.3618" y="-221.5" font-family="Helvetica,sans-Serif" font-size="10.00" fill="#000000">T</text>
</g>
<!-- Node20&#45;&gt;Node19 -->
<g id="edge6" class="edge">
<title>Node20&#45;&gt;Node19</title>
<path fill="none" stroke="#9a32cd" stroke-dasharray="5,2" d="M407.8076,-205.0243C407.8076,-193.5169 407.8076,-179.2016 407.8076,-168.7499"/>
<polygon fill="#9a32cd" stroke="#9a32cd" points="404.3077,-205.3487 407.8076,-215.3487 411.3077,-205.3488 404.3077,-205.3487"/>
<text text-anchor="middle" x="428.0957" y="-189" font-family="Helvetica,sans-Serif" font-size="10.00" fill="#000000"> m_value</text>
</g>
</g>
</svg>
