<?xml version="1.0" encoding="UTF-8" standalone="no"?>
<!DOCTYPE svg PUBLIC "-//W3C//DTD SVG 1.1//EN"
 "http://www.w3.org/Graphics/SVG/1.1/DTD/svg11.dtd">
<!-- Generated by graphviz version 2.44.1 (20200629.0846)
 -->
<!-- Title: playrho::d2::DistanceJointConf Pages: 1 -->
<!--zoomable 455 -->
<svg id="main" version="1.1" xmlns="http://www.w3.org/2000/svg" xmlns:xlink="http://www.w3.org/1999/xlink" xml:space="preserve" onload="init(evt)">
<style type="text/css"><![CDATA[
.edge:hover path { stroke: red; }
.edge:hover polygon { stroke: red; fill: red; }
]]></style>
<script type="text/javascript"><![CDATA[
var edges = document.getElementsByTagName('g');
if (edges && edges.length) {
  for (var i=0;i<edges.length;i++) {
    if (edges[i].id.substr(0,4)=='edge') {
      edges[i].setAttribute('class','edge');
    }
  }
}
]]></script>
        <defs>
                <circle id="rim" cx="0" cy="0" r="7"/>
                <circle id="rim2" cx="0" cy="0" r="3.5"/>
                <g id="zoomPlus">
                        <use xlink:href="#rim" fill="#404040">
                                <set attributeName="fill" to="#808080" begin="zoomplus.mouseover" end="zoomplus.mouseout"/>
                        </use>
                        <path d="M-4,0h8M0,-4v8" fill="none" stroke="white" stroke-width="1.5" pointer-events="none"/>
                </g>
                <g id="zoomMin">
                        <use xlink:href="#rim" fill="#404040">
                                <set attributeName="fill" to="#808080" begin="zoomminus.mouseover" end="zoomminus.mouseout"/>
                        </use>
                        <path d="M-4,0h8" fill="none" stroke="white" stroke-width="1.5" pointer-events="none"/>
                </g>
                <g id="dirArrow">
                        <path fill="none" stroke="white" stroke-width="1.5" d="M0,-3.0v7 M-2.5,-0.5L0,-3.0L2.5,-0.5"/>
                </g>
               <g id="resetDef">
                       <use xlink:href="#rim2" fill="#404040">
                               <set attributeName="fill" to="#808080" begin="reset.mouseover" end="reset.mouseout"/>
                       </use>
               </g>
        </defs>

<script type="text/javascript">
var viewWidth = 1459;
var viewHeight = 455;
var sectionId = 'dynsection-1';
</script>
<script xlink:href="svgpan.js"/>
<svg id="graph" class="graph">
<g id="viewport">
<title>playrho::d2::DistanceJointConf</title>
<polygon fill="white" stroke="transparent" points="-4,4 -4,-451 1455,-451 1455,4 -4,4"/>
<!-- Node1 -->
<g id="node1" class="node">
<title>Node1</title>
<g id="a_node1"><a xlink:title="Distance joint definition.">
<polygon fill="#bfbfbf" stroke="black" points="1299,-210.5 1299,-229.5 1451,-229.5 1451,-210.5 1299,-210.5"/>
<text text-anchor="middle" x="1375" y="-217.5" font-family="Helvetica,sans-Serif" font-size="10.00">playrho::d2::DistanceJointConf</text>
</a>
</g>
</g>
<!-- Node2 -->
<g id="node2" class="node">
<title>Node2</title>
<g id="a_node2"><a xlink:href="structplayrho_1_1d2_1_1JointBuilder.html" target="_top" xlink:title=" ">
<polygon fill="white" stroke="black" points="1090,-342 1090,-372 1212,-372 1212,-342 1090,-342"/>
<text text-anchor="start" x="1098" y="-360" font-family="Helvetica,sans-Serif" font-size="10.00">playrho::d2::JointBuilder</text>
<text text-anchor="middle" x="1151" y="-349" font-family="Helvetica,sans-Serif" font-size="10.00">&lt; DistanceJointConf &gt;</text>
</a>
</g>
</g>
<!-- Node2&#45;&gt;Node1 -->
<g id="edge1" class="edge">
<title>Node2&#45;&gt;Node1</title>
<path fill="none" stroke="midnightblue" d="M1197.51,-338.05C1202.4,-336.01 1207.31,-333.96 1212,-332 1242.69,-319.16 1252.87,-320.76 1281,-303 1315.58,-281.16 1349.79,-246.33 1365.33,-229.59"/>
<polygon fill="midnightblue" stroke="midnightblue" points="1196.06,-334.87 1188.18,-341.95 1198.75,-341.33 1196.06,-334.87"/>
</g>
<!-- Node3 -->
<g id="node3" class="node">
<title>Node3</title>
<g id="a_node3"><a xlink:href="structplayrho_1_1d2_1_1JointConf.html" target="_top" xlink:title="Base joint definition class.">
<polygon fill="white" stroke="black" points="616,-330.5 616,-349.5 729,-349.5 729,-330.5 616,-330.5"/>
<text text-anchor="middle" x="672.5" y="-337.5" font-family="Helvetica,sans-Serif" font-size="10.00">playrho::d2::JointConf</text>
</a>
</g>
</g>
<!-- Node3&#45;&gt;Node2 -->
<g id="edge2" class="edge">
<title>Node3&#45;&gt;Node2</title>
<path fill="none" stroke="midnightblue" d="M739.34,-342.71C741.93,-342.81 744.49,-342.91 747,-343 868.73,-347.6 1011.16,-352.41 1089.91,-355.03"/>
<polygon fill="midnightblue" stroke="midnightblue" points="739.41,-339.21 729.28,-342.31 739.14,-346.2 739.41,-339.21"/>
</g>
<!-- Node9 -->
<g id="node9" class="node">
<title>Node9</title>
<g id="a_node9"><a xlink:href="structplayrho_1_1d2_1_1JointBuilder.html" target="_top" xlink:title="Joint builder definition structure.">
<polygon fill="white" stroke="black" points="805,-309.5 805,-328.5 951,-328.5 951,-309.5 805,-309.5"/>
<text text-anchor="middle" x="878" y="-316.5" font-family="Helvetica,sans-Serif" font-size="10.00">playrho::d2::JointBuilder&lt; T &gt;</text>
</a>
</g>
</g>
<!-- Node3&#45;&gt;Node9 -->
<g id="edge9" class="edge">
<title>Node3&#45;&gt;Node9</title>
<path fill="none" stroke="midnightblue" d="M739.16,-333.22C760.06,-331.07 783.3,-328.67 804.64,-326.47"/>
<polygon fill="midnightblue" stroke="midnightblue" points="738.7,-329.75 729.11,-334.26 739.41,-336.72 738.7,-329.75"/>
</g>
<!-- Node4 -->
<g id="node4" class="node">
<title>Node4</title>
<g id="a_node4"><a xlink:href="classplayrho_1_1detail_1_1IndexingNamedType.html" target="_top" xlink:title=" ">
<polygon fill="white" stroke="black" points="364,-324.5 364,-365.5 501,-365.5 501,-324.5 364,-324.5"/>
<text text-anchor="start" x="372" y="-353.5" font-family="Helvetica,sans-Serif" font-size="10.00">playrho::detail::Indexing</text>
<text text-anchor="start" x="372" y="-342.5" font-family="Helvetica,sans-Serif" font-size="10.00">NamedType&lt; BodyCounter,</text>
<text text-anchor="middle" x="432.5" y="-331.5" font-family="Helvetica,sans-Serif" font-size="10.00"> struct BodyIdentifier &gt;</text>
</a>
</g>
</g>
<!-- Node4&#45;&gt;Node3 -->
<g id="edge3" class="edge">
<title>Node4&#45;&gt;Node3</title>
<path fill="none" stroke="#9a32cd" stroke-dasharray="5,2" d="M511.46,-343.36C545.54,-342.65 584.74,-341.82 615.81,-341.17"/>
<polygon fill="#9a32cd" stroke="#9a32cd" points="510.99,-339.87 501.06,-343.58 511.14,-346.87 510.99,-339.87"/>
<text text-anchor="middle" x="558.5" y="-357" font-family="Helvetica,sans-Serif" font-size="10.00"> bodyA</text>
<text text-anchor="middle" x="558.5" y="-346" font-family="Helvetica,sans-Serif" font-size="10.00">bodyB</text>
</g>
<!-- Node5 -->
<g id="node5" class="node">
<title>Node5</title>
<g id="a_node5"><a xlink:title=" ">
<polygon fill="white" stroke="#bfbfbf" points="131,-345.5 131,-364.5 205,-364.5 205,-345.5 131,-345.5"/>
<text text-anchor="middle" x="168" y="-352.5" font-family="Helvetica,sans-Serif" font-size="10.00">BodyCounter</text>
</a>
</g>
</g>
<!-- Node5&#45;&gt;Node4 -->
<g id="edge4" class="edge">
<title>Node5&#45;&gt;Node4</title>
<path fill="none" stroke="#9a32cd" stroke-dasharray="5,2" d="M215.25,-353.24C256.41,-351.67 317.14,-349.36 363.77,-347.58"/>
<polygon fill="#9a32cd" stroke="#9a32cd" points="215.08,-349.74 205.22,-353.62 215.35,-356.74 215.08,-349.74"/>
<text text-anchor="middle" x="296" y="-355" font-family="Helvetica,sans-Serif" font-size="10.00"> value_</text>
</g>
<!-- Node6 -->
<g id="node6" class="node">
<title>Node6</title>
<g id="a_node6"><a xlink:href="classplayrho_1_1detail_1_1IndexingNamedType.html" target="_top" xlink:title="An indexable, hashable, named &quot;strong type&quot; template class.">
<polygon fill="white" stroke="black" points="108,-296 108,-326 228,-326 228,-296 108,-296"/>
<text text-anchor="start" x="116" y="-314" font-family="Helvetica,sans-Serif" font-size="10.00">playrho::detail::Indexing</text>
<text text-anchor="middle" x="168" y="-303" font-family="Helvetica,sans-Serif" font-size="10.00">NamedType&lt; T, Tag &gt;</text>
</a>
</g>
</g>
<!-- Node6&#45;&gt;Node4 -->
<g id="edge5" class="edge">
<title>Node6&#45;&gt;Node4</title>
<path fill="none" stroke="orange" stroke-dasharray="5,2" d="M238.71,-312.11C271.45,-313.45 310.91,-316.25 346,-322 351.76,-322.94 357.7,-324.12 363.63,-325.42"/>
<polygon fill="orange" stroke="orange" points="238.46,-308.59 228.33,-311.72 238.19,-315.59 238.46,-308.59"/>
<text text-anchor="start" x="246" y="-336" font-family="Helvetica,sans-Serif" font-size="10.00"> &lt; BodyCounter, struct</text>
<text text-anchor="middle" x="296" y="-325" font-family="Helvetica,sans-Serif" font-size="10.00"> BodyIdentifier &gt;</text>
</g>
<!-- Node7 -->
<g id="node7" class="node">
<title>Node7</title>
<g id="a_node7"><a xlink:title=" ">
<polygon fill="white" stroke="#bfbfbf" points="0,-361.5 0,-380.5 29,-380.5 29,-361.5 0,-361.5"/>
<text text-anchor="middle" x="14.5" y="-368.5" font-family="Helvetica,sans-Serif" font-size="10.00">T</text>
</a>
</g>
</g>
<!-- Node7&#45;&gt;Node6 -->
<g id="edge6" class="edge">
<title>Node7&#45;&gt;Node6</title>
<path fill="none" stroke="#9a32cd" stroke-dasharray="5,2" d="M38.56,-361.87C62.52,-352.38 100.43,-337.37 128.86,-326.11"/>
<polygon fill="#9a32cd" stroke="#9a32cd" points="37.22,-358.63 29.21,-365.57 39.8,-365.14 37.22,-358.63"/>
<text text-anchor="middle" x="68.5" y="-361" font-family="Helvetica,sans-Serif" font-size="10.00"> value_</text>
</g>
<!-- Node12 -->
<g id="node12" class="node">
<title>Node12</title>
<g id="a_node12"><a xlink:href="structplayrho_1_1Vector.html" target="_top" xlink:title="Vector.">
<polygon fill="white" stroke="black" points="108.5,-421.5 108.5,-440.5 227.5,-440.5 227.5,-421.5 108.5,-421.5"/>
<text text-anchor="middle" x="168" y="-428.5" font-family="Helvetica,sans-Serif" font-size="10.00">playrho::Vector&lt; T, N &gt;</text>
</a>
</g>
</g>
<!-- Node7&#45;&gt;Node12 -->
<g id="edge13" class="edge">
<title>Node7&#45;&gt;Node12</title>
<path fill="none" stroke="#9a32cd" stroke-dasharray="5,2" d="M38.22,-381.88C56.77,-390.56 83.79,-402.77 108,-412 116.75,-415.34 126.36,-418.6 135.25,-421.45"/>
<polygon fill="#9a32cd" stroke="#9a32cd" points="39.64,-378.68 29.1,-377.57 36.65,-385.01 39.64,-378.68"/>
<text text-anchor="middle" x="68.5" y="-406" font-family="Helvetica,sans-Serif" font-size="10.00"> elements</text>
</g>
<!-- Node8 -->
<g id="node8" class="node">
<title>Node8</title>
<g id="a_node8"><a xlink:title=" ">
<polygon fill="white" stroke="#bfbfbf" points="415,-286.5 415,-305.5 450,-305.5 450,-286.5 415,-286.5"/>
<text text-anchor="middle" x="432.5" y="-293.5" font-family="Helvetica,sans-Serif" font-size="10.00">bool</text>
</a>
</g>
</g>
<!-- Node8&#45;&gt;Node3 -->
<g id="edge7" class="edge">
<title>Node8&#45;&gt;Node3</title>
<path fill="none" stroke="#9a32cd" stroke-dasharray="5,2" d="M460.41,-300.84C492.99,-306.72 549.54,-316.97 598,-326 605.66,-327.43 613.77,-328.96 621.69,-330.46"/>
<polygon fill="#9a32cd" stroke="#9a32cd" points="460.78,-297.35 450.32,-299.02 459.54,-304.24 460.78,-297.35"/>
<text text-anchor="middle" x="558.5" y="-329" font-family="Helvetica,sans-Serif" font-size="10.00"> collideConnected</text>
</g>
<!-- Node9&#45;&gt;Node2 -->
<g id="edge8" class="edge">
<title>Node9&#45;&gt;Node2</title>
<path fill="none" stroke="orange" stroke-dasharray="5,2" d="M961.05,-320.13C995.56,-321.74 1035.97,-325.12 1072,-332 1084.43,-334.37 1097.65,-338.12 1109.6,-341.99"/>
<polygon fill="orange" stroke="orange" points="961.16,-316.64 951.02,-319.71 960.86,-323.63 961.16,-316.64"/>
<text text-anchor="middle" x="1020.5" y="-335" font-family="Helvetica,sans-Serif" font-size="10.00"> &lt; DistanceJointConf &gt;</text>
</g>
<!-- Node10 -->
<g id="node10" class="node">
<title>Node10</title>
<g id="a_node10"><a xlink:href="structplayrho_1_1Vector.html" target="_top" xlink:title=" ">
<polygon fill="white" stroke="black" points="367.5,-393.5 367.5,-412.5 497.5,-412.5 497.5,-393.5 367.5,-393.5"/>
<text text-anchor="middle" x="432.5" y="-400.5" font-family="Helvetica,sans-Serif" font-size="10.00">playrho::Vector&lt; Length &gt;</text>
</a>
</g>
</g>
<!-- Node10&#45;&gt;Node1 -->
<g id="edge10" class="edge">
<title>Node10&#45;&gt;Node1</title>
<path fill="none" stroke="#9a32cd" stroke-dasharray="5,2" d="M507.73,-403C554.68,-403 616.64,-403 671.5,-403 671.5,-403 671.5,-403 1152,-403 1262.14,-403 1347.24,-267.23 1368.73,-229.58"/>
<polygon fill="#9a32cd" stroke="#9a32cd" points="507.64,-399.5 497.64,-403 507.64,-406.5 507.64,-399.5"/>
<text text-anchor="middle" x="878" y="-439" font-family="Helvetica,sans-Serif" font-size="10.00"> localAnchorA</text>
<text text-anchor="middle" x="878" y="-428" font-family="Helvetica,sans-Serif" font-size="10.00">localAnchorB</text>
<text text-anchor="middle" x="878" y="-417" font-family="Helvetica,sans-Serif" font-size="10.00">rA</text>
<text text-anchor="middle" x="878" y="-406" font-family="Helvetica,sans-Serif" font-size="10.00">rB</text>
</g>
<!-- Node11 -->
<g id="node11" class="node">
<title>Node11</title>
<g id="a_node11"><a xlink:title=" ">
<polygon fill="white" stroke="#bfbfbf" points="145,-383.5 145,-402.5 191,-402.5 191,-383.5 145,-383.5"/>
<text text-anchor="middle" x="168" y="-390.5" font-family="Helvetica,sans-Serif" font-size="10.00">Length</text>
</a>
</g>
</g>
<!-- Node11&#45;&gt;Node10 -->
<g id="edge11" class="edge">
<title>Node11&#45;&gt;Node10</title>
<path fill="none" stroke="#9a32cd" stroke-dasharray="5,2" d="M201.33,-392.92C236.83,-392.98 295.51,-393.51 346,-396 352.84,-396.34 359.99,-396.78 367.1,-397.28"/>
<polygon fill="#9a32cd" stroke="#9a32cd" points="201.09,-389.42 191.09,-392.92 201.09,-396.42 201.09,-389.42"/>
<text text-anchor="middle" x="296" y="-399" font-family="Helvetica,sans-Serif" font-size="10.00"> elements</text>
</g>
<!-- Node12&#45;&gt;Node10 -->
<g id="edge12" class="edge">
<title>Node12&#45;&gt;Node10</title>
<path fill="none" stroke="orange" stroke-dasharray="5,2" d="M237.53,-423.69C277.58,-419.42 327.81,-414.06 367.12,-409.87"/>
<polygon fill="orange" stroke="orange" points="237.16,-420.21 227.58,-424.75 237.9,-427.17 237.16,-420.21"/>
<text text-anchor="middle" x="296" y="-425" font-family="Helvetica,sans-Serif" font-size="10.00"> &lt; Length &gt;</text>
</g>
<!-- Node13 -->
<g id="node13" class="node">
<title>Node13</title>
<g id="a_node13"><a xlink:title=" ">
<polygon fill="white" stroke="#bfbfbf" points="1128,-303.5 1128,-322.5 1174,-322.5 1174,-303.5 1128,-303.5"/>
<text text-anchor="middle" x="1151" y="-310.5" font-family="Helvetica,sans-Serif" font-size="10.00">length)</text>
</a>
</g>
</g>
<!-- Node13&#45;&gt;Node1 -->
<g id="edge14" class="edge">
<title>Node13&#45;&gt;Node1</title>
<path fill="none" stroke="#9a32cd" stroke-dasharray="5,2" d="M1184.02,-302.87C1193.07,-300.01 1202.92,-296.88 1212,-294 1242.68,-284.25 1251.47,-284.81 1281,-272 1309.68,-259.56 1341.02,-240.88 1359.02,-229.62"/>
<polygon fill="#9a32cd" stroke="#9a32cd" points="1182.71,-299.62 1174.23,-305.97 1184.82,-306.29 1182.71,-299.62"/>
<text text-anchor="middle" x="1255.5" y="-291" font-family="Helvetica,sans-Serif" font-size="10.00"> length</text>
</g>
<!-- Node14 -->
<g id="node14" class="node">
<title>Node14</title>
<g id="a_node14"><a xlink:title=" ">
<polygon fill="white" stroke="#bfbfbf" points="1129,-265.5 1129,-284.5 1173,-284.5 1173,-265.5 1129,-265.5"/>
<text text-anchor="middle" x="1151" y="-272.5" font-family="Helvetica,sans-Serif" font-size="10.00">mass)</text>
</a>
</g>
</g>
<!-- Node14&#45;&gt;Node1 -->
<g id="edge15" class="edge">
<title>Node14&#45;&gt;Node1</title>
<path fill="none" stroke="#9a32cd" stroke-dasharray="5,2" d="M1183.17,-268.46C1209.36,-262.86 1247.74,-254.38 1281,-246 1301.16,-240.92 1323.61,-234.66 1341.4,-229.56"/>
<polygon fill="#9a32cd" stroke="#9a32cd" points="1182.13,-265.11 1173.08,-270.61 1183.59,-271.95 1182.13,-265.11"/>
<text text-anchor="middle" x="1255.5" y="-260" font-family="Helvetica,sans-Serif" font-size="10.00"> mass</text>
</g>
<!-- Node15 -->
<g id="node15" class="node">
<title>Node15</title>
<g id="a_node15"><a xlink:title=" ">
<polygon fill="white" stroke="#bfbfbf" points="1111,-227.5 1111,-246.5 1191,-246.5 1191,-227.5 1111,-227.5"/>
<text text-anchor="middle" x="1151" y="-234.5" font-family="Helvetica,sans-Serif" font-size="10.00">inverse_mass)</text>
</a>
</g>
</g>
<!-- Node15&#45;&gt;Node1 -->
<g id="edge16" class="edge">
<title>Node15&#45;&gt;Node1</title>
<path fill="none" stroke="#9a32cd" stroke-dasharray="5,2" d="M1201.35,-233.22C1230.01,-231.03 1266.69,-228.22 1298.87,-225.75"/>
<polygon fill="#9a32cd" stroke="#9a32cd" points="1200.88,-229.75 1191.18,-234 1201.42,-236.73 1200.88,-229.75"/>
<text text-anchor="middle" x="1255.5" y="-234" font-family="Helvetica,sans-Serif" font-size="10.00"> invGamma</text>
</g>
<!-- Node16 -->
<g id="node16" class="node">
<title>Node16</title>
<g id="a_node16"><a xlink:title=" ">
<polygon fill="white" stroke="#bfbfbf" points="860.5,-168.5 860.5,-187.5 895.5,-187.5 895.5,-168.5 860.5,-168.5"/>
<text text-anchor="middle" x="878" y="-175.5" font-family="Helvetica,sans-Serif" font-size="10.00">float</text>
</a>
</g>
</g>
<!-- Node16&#45;&gt;Node1 -->
<g id="edge17" class="edge">
<title>Node16&#45;&gt;Node1</title>
<path fill="none" stroke="#9a32cd" stroke-dasharray="5,2" d="M905.72,-174.06C962.5,-166.39 1099.23,-151.67 1212,-169 1263.29,-176.88 1320.63,-198.03 1351.45,-210.48"/>
<polygon fill="#9a32cd" stroke="#9a32cd" points="905.19,-170.6 895.76,-175.45 906.15,-177.54 905.19,-170.6"/>
<text text-anchor="middle" x="1151" y="-172" font-family="Helvetica,sans-Serif" font-size="10.00"> dampingRatio</text>
</g>
<!-- Node18 -->
<g id="node18" class="node">
<title>Node18</title>
<g id="a_node18"><a xlink:href="classplayrho_1_1d2_1_1UnitVec.html" target="_top" xlink:title="2&#45;D unit vector.">
<polygon fill="white" stroke="black" points="1098,-189.5 1098,-208.5 1204,-208.5 1204,-189.5 1098,-189.5"/>
<text text-anchor="middle" x="1151" y="-196.5" font-family="Helvetica,sans-Serif" font-size="10.00">playrho::d2::UnitVec</text>
</a>
</g>
</g>
<!-- Node16&#45;&gt;Node18 -->
<g id="edge20" class="edge">
<title>Node16&#45;&gt;Node18</title>
<path fill="none" stroke="#9a32cd" stroke-dasharray="5,2" d="M905.56,-180.06C950,-183.5 1040.21,-190.49 1097.74,-194.95"/>
<polygon fill="#9a32cd" stroke="#9a32cd" points="905.78,-176.57 895.54,-179.28 905.24,-183.54 905.78,-176.57"/>
<text text-anchor="middle" x="1020.5" y="-195" font-family="Helvetica,sans-Serif" font-size="10.00"> m_elems</text>
</g>
<!-- Node17 -->
<g id="node17" class="node">
<title>Node17</title>
<g id="a_node17"><a xlink:title=" ">
<polygon fill="white" stroke="#bfbfbf" points="1124.5,-104.5 1124.5,-123.5 1177.5,-123.5 1177.5,-104.5 1124.5,-104.5"/>
<text text-anchor="middle" x="1151" y="-111.5" font-family="Helvetica,sans-Serif" font-size="10.00">velocity)</text>
</a>
</g>
</g>
<!-- Node17&#45;&gt;Node1 -->
<g id="edge18" class="edge">
<title>Node17&#45;&gt;Node1</title>
<path fill="none" stroke="#9a32cd" stroke-dasharray="5,2" d="M1187.64,-114.37C1214.5,-115.9 1251.61,-120.77 1281,-135 1319,-153.4 1352.56,-192.37 1366.78,-210.43"/>
<polygon fill="#9a32cd" stroke="#9a32cd" points="1187.67,-110.87 1177.52,-113.92 1187.36,-117.86 1187.67,-110.87"/>
<text text-anchor="middle" x="1255.5" y="-138" font-family="Helvetica,sans-Serif" font-size="10.00"> bias</text>
</g>
<!-- Node18&#45;&gt;Node1 -->
<g id="edge19" class="edge">
<title>Node18&#45;&gt;Node1</title>
<path fill="none" stroke="#9a32cd" stroke-dasharray="5,2" d="M1214.24,-204.89C1240.47,-207.37 1271.24,-210.28 1298.73,-212.88"/>
<polygon fill="#9a32cd" stroke="#9a32cd" points="1214.33,-201.38 1204.05,-203.92 1213.68,-208.35 1214.33,-201.38"/>
<text text-anchor="middle" x="1255.5" y="-213" font-family="Helvetica,sans-Serif" font-size="10.00"> u</text>
</g>
<!-- Node19 -->
<g id="node19" class="node">
<title>Node19</title>
<g id="a_node19"><a xlink:title=" ">
<polygon fill="white" stroke="#bfbfbf" points="1117,-66.5 1117,-85.5 1185,-85.5 1185,-66.5 1117,-66.5"/>
<text text-anchor="middle" x="1151" y="-73.5" font-family="Helvetica,sans-Serif" font-size="10.00">momentum)</text>
</a>
</g>
</g>
<!-- Node19&#45;&gt;Node1 -->
<g id="edge21" class="edge">
<title>Node19&#45;&gt;Node1</title>
<path fill="none" stroke="#9a32cd" stroke-dasharray="5,2" d="M1195.12,-78.11C1221.57,-81.08 1255.2,-88.02 1281,-104 1325.33,-131.45 1357.61,-187.8 1369.25,-210.36"/>
<polygon fill="#9a32cd" stroke="#9a32cd" points="1195.29,-74.61 1185,-77.12 1194.61,-81.57 1195.29,-74.61"/>
<text text-anchor="middle" x="1255.5" y="-107" font-family="Helvetica,sans-Serif" font-size="10.00"> impulse</text>
</g>
<!-- Node20 -->
<g id="node20" class="node">
<title>Node20</title>
<g id="a_node20"><a xlink:href="classplayrho_1_1CheckedValue.html" target="_top" xlink:title=" ">
<polygon fill="white" stroke="black" points="1092.5,-17 1092.5,-47 1209.5,-47 1209.5,-17 1092.5,-17"/>
<text text-anchor="start" x="1100.5" y="-35" font-family="Helvetica,sans-Serif" font-size="10.00">playrho::CheckedValue</text>
<text text-anchor="middle" x="1151" y="-24" font-family="Helvetica,sans-Serif" font-size="10.00">&lt; Frequency &gt;</text>
</a>
</g>
</g>
<!-- Node20&#45;&gt;Node1 -->
<g id="edge22" class="edge">
<title>Node20&#45;&gt;Node1</title>
<path fill="none" stroke="#9a32cd" stroke-dasharray="5,2" d="M1219.71,-41.55C1240.87,-47.01 1263.29,-55.57 1281,-69 1332.02,-107.71 1361.53,-183.2 1370.8,-210.15"/>
<polygon fill="#9a32cd" stroke="#9a32cd" points="1220.31,-38.1 1209.77,-39.19 1218.69,-44.91 1220.31,-38.1"/>
<text text-anchor="middle" x="1255.5" y="-72" font-family="Helvetica,sans-Serif" font-size="10.00"> frequency</text>
</g>
<!-- Node21 -->
<g id="node21" class="node">
<title>Node21</title>
<g id="a_node21"><a xlink:title=" ">
<polygon fill="white" stroke="#bfbfbf" points="847,-0.5 847,-19.5 909,-19.5 909,-0.5 847,-0.5"/>
<text text-anchor="middle" x="878" y="-7.5" font-family="Helvetica,sans-Serif" font-size="10.00">Frequency</text>
</a>
</g>
</g>
<!-- Node21&#45;&gt;Node20 -->
<g id="edge23" class="edge">
<title>Node21&#45;&gt;Node20</title>
<path fill="none" stroke="#9a32cd" stroke-dasharray="5,2" d="M919.4,-9.25C958.55,-9 1019.54,-9.85 1072,-16 1078.59,-16.77 1085.45,-17.82 1092.25,-19.01"/>
<polygon fill="#9a32cd" stroke="#9a32cd" points="919.17,-5.75 909.2,-9.35 919.24,-12.75 919.17,-5.75"/>
<text text-anchor="middle" x="1020.5" y="-19" font-family="Helvetica,sans-Serif" font-size="10.00"> m_value</text>
</g>
<!-- Node22 -->
<g id="node22" class="node">
<title>Node22</title>
<g id="a_node22"><a xlink:href="classplayrho_1_1CheckedValue.html" target="_top" xlink:title="Checked value.">
<polygon fill="white" stroke="black" points="806.5,-39 806.5,-69 949.5,-69 949.5,-39 806.5,-39"/>
<text text-anchor="start" x="814.5" y="-57" font-family="Helvetica,sans-Serif" font-size="10.00">playrho::CheckedValue</text>
<text text-anchor="middle" x="878" y="-46" font-family="Helvetica,sans-Serif" font-size="10.00">&lt; ValueType, CheckerType &gt;</text>
</a>
</g>
</g>
<!-- Node22&#45;&gt;Node20 -->
<g id="edge24" class="edge">
<title>Node22&#45;&gt;Node20</title>
<path fill="none" stroke="orange" stroke-dasharray="5,2" d="M959.92,-47.43C1002.53,-43.97 1053.79,-39.81 1092.33,-36.68"/>
<polygon fill="orange" stroke="orange" points="959.53,-43.95 949.85,-48.25 960.1,-50.93 959.53,-43.95"/>
<text text-anchor="middle" x="1020.5" y="-49" font-family="Helvetica,sans-Serif" font-size="10.00"> &lt; Frequency &gt;</text>
</g>
<!-- Node23 -->
<g id="node23" class="node">
<title>Node23</title>
<g id="a_node23"><a xlink:title=" ">
<polygon fill="white" stroke="#bfbfbf" points="641.5,-44.5 641.5,-63.5 703.5,-63.5 703.5,-44.5 641.5,-44.5"/>
<text text-anchor="middle" x="672.5" y="-51.5" font-family="Helvetica,sans-Serif" font-size="10.00">ValueType</text>
</a>
</g>
</g>
<!-- Node23&#45;&gt;Node22 -->
<g id="edge25" class="edge">
<title>Node23&#45;&gt;Node22</title>
<path fill="none" stroke="#9a32cd" stroke-dasharray="5,2" d="M713.54,-54C739.96,-54 775.29,-54 806.34,-54"/>
<polygon fill="#9a32cd" stroke="#9a32cd" points="713.53,-50.5 703.53,-54 713.53,-57.5 713.53,-50.5"/>
<text text-anchor="middle" x="767" y="-57" font-family="Helvetica,sans-Serif" font-size="10.00"> m_value</text>
</g>
</g>
</svg>
        <g id="navigator" transform="translate(0 0)" fill="#404254">
                <rect fill="#f2f5e9" fill-opacity="0.5" stroke="#606060" stroke-width=".5" x="0" y="0" width="60" height="60"/>
                <use id="zoomplus" xlink:href="#zoomPlus" x="17" y="9" onmousedown="handleZoom(evt,'in')"/>
                <use id="zoomminus" xlink:href="#zoomMin" x="42" y="9" onmousedown="handleZoom(evt,'out')"/>
                <use id="reset" xlink:href="#resetDef" x="30" y="36" onmousedown="handleReset()"/>
                <g id="arrowUp" xlink:href="#dirArrow" transform="translate(30 24)" onmousedown="handlePan(0,-1)">
                  <use xlink:href="#rim" fill="#404040">
                        <set attributeName="fill" to="#808080" begin="arrowUp.mouseover" end="arrowUp.mouseout"/>
                  </use>
                  <path fill="none" stroke="white" stroke-width="1.5" d="M0,-3.0v7 M-2.5,-0.5L0,-3.0L2.5,-0.5"/>
                </g>
                <g id="arrowRight" xlink:href="#dirArrow" transform="rotate(90) translate(36 -43)" onmousedown="handlePan(1,0)">
                  <use xlink:href="#rim" fill="#404040">
                        <set attributeName="fill" to="#808080" begin="arrowRight.mouseover" end="arrowRight.mouseout"/>
                  </use>
                  <path fill="none" stroke="white" stroke-width="1.5" d="M0,-3.0v7 M-2.5,-0.5L0,-3.0L2.5,-0.5"/>
                </g>
                <g id="arrowDown" xlink:href="#dirArrow" transform="rotate(180) translate(-30 -48)" onmousedown="handlePan(0,1)">
                  <use xlink:href="#rim" fill="#404040">
                        <set attributeName="fill" to="#808080" begin="arrowDown.mouseover" end="arrowDown.mouseout"/>
                  </use>
                  <path fill="none" stroke="white" stroke-width="1.5" d="M0,-3.0v7 M-2.5,-0.5L0,-3.0L2.5,-0.5"/>
                </g>
                <g id="arrowLeft" xlink:href="#dirArrow" transform="rotate(270) translate(-36 17)" onmousedown="handlePan(-1,0)">
                  <use xlink:href="#rim" fill="#404040">
                        <set attributeName="fill" to="#808080" begin="arrowLeft.mouseover" end="arrowLeft.mouseout"/>
                  </use>
                  <path fill="none" stroke="white" stroke-width="1.5" d="M0,-3.0v7 M-2.5,-0.5L0,-3.0L2.5,-0.5"/>
                </g>
        </g>
        <svg viewBox="0 0 15 15" width="100%" height="30px" preserveAspectRatio="xMaxYMin meet">
         <g id="arrow_out" transform="scale(0.3 0.3)">
          <a xlink:href="structplayrho_1_1d2_1_1DistanceJointConf__coll__graph_org.svg" target="_base">
           <rect id="button" ry="5" rx="5" y="6" x="6" height="38" width="38"
                fill="#f2f5e9" fill-opacity="0.5" stroke="#606060" stroke-width="1.0"/>
           <path id="arrow"
             d="M 11.500037,31.436501 C 11.940474,20.09759 22.043105,11.32322 32.158766,21.979434 L 37.068811,17.246167 C 37.068811,17.246167 37.088388,32 37.088388,32 L 22.160133,31.978069 C 22.160133,31.978069 26.997745,27.140456 26.997745,27.140456 C 18.528582,18.264221 13.291696,25.230495 11.500037,31.436501 z"
             style="fill:#404040;"/>
          </a>
         </g>
        </svg>
</svg>
