<?xml version="1.0" encoding="UTF-8" standalone="no"?>
<!DOCTYPE svg PUBLIC "-//W3C//DTD SVG 1.1//EN"
 "http://www.w3.org/Graphics/SVG/1.1/DTD/svg11.dtd">
<!-- Generated by graphviz version 2.40.1 (20161225.0304)
 -->
<!-- Title: playrho::ConstraintSolverConf Pages: 1 -->
<svg width="328pt" height="102pt"
 viewBox="0.00 0.00 327.78 102.00" xmlns="http://www.w3.org/2000/svg" xmlns:xlink="http://www.w3.org/1999/xlink">
<g id="graph0" class="graph" transform="scale(1 1) rotate(0) translate(4 98)">
<title>playrho::ConstraintSolverConf</title>
<polygon fill="#ffffff" stroke="transparent" points="-4,4 -4,-98 323.7754,-98 323.7754,4 -4,4"/>
<!-- Node1 -->
<g id="node1" class="node">
<title>Node1</title>
<polygon fill="#bfbfbf" stroke="#000000" points="64.5889,-.5 64.5889,-18.5 213.9873,-18.5 213.9873,-.5 64.5889,-.5"/>
<text text-anchor="middle" x="139.2881" y="-6.5" font-family="Helvetica,sans-Serif" font-size="10.00" fill="#000000">playrho::ConstraintSolverConf</text>
</g>
<!-- Node2 -->
<g id="node2" class="node">
<title>Node2</title>
<polygon fill="#ffffff" stroke="#bfbfbf" points="0,-75.5 0,-93.5 46.5762,-93.5 46.5762,-75.5 0,-75.5"/>
<text text-anchor="middle" x="23.2881" y="-81.5" font-family="Helvetica,sans-Serif" font-size="10.00" fill="#000000">length)</text>
</g>
<!-- Node2&#45;&gt;Node1 -->
<g id="edge1" class="edge">
<title>Node2&#45;&gt;Node1</title>
<path fill="none" stroke="#9a32cd" stroke-dasharray="5,2" d="M26.8172,-65.4006C29.5468,-55.6555 34.2986,-44.3408 42.4707,-37 50.3026,-29.9647 72.2125,-23.4596 93.212,-18.5442"/>
<polygon fill="#9a32cd" stroke="#9a32cd" points="23.3387,-64.9118 24.5201,-75.4406 30.1623,-66.4731 23.3387,-64.9118"/>
<text text-anchor="middle" x="89.6968" y="-49" font-family="Helvetica,sans-Serif" font-size="10.00" fill="#000000"> linearSlop</text>
<text text-anchor="middle" x="89.6968" y="-39" font-family="Helvetica,sans-Serif" font-size="10.00" fill="#000000">maxLinearCorrection</text>
</g>
<!-- Node3 -->
<g id="node3" class="node">
<title>Node3</title>
<polygon fill="#ffffff" stroke="#bfbfbf" points="121.8374,-75.5 121.8374,-93.5 156.7388,-93.5 156.7388,-75.5 121.8374,-75.5"/>
<text text-anchor="middle" x="139.2881" y="-81.5" font-family="Helvetica,sans-Serif" font-size="10.00" fill="#000000">float</text>
</g>
<!-- Node3&#45;&gt;Node1 -->
<g id="edge2" class="edge">
<title>Node3&#45;&gt;Node1</title>
<path fill="none" stroke="#9a32cd" stroke-dasharray="5,2" d="M139.2881,-65.1079C139.2881,-50.2042 139.2881,-30.2791 139.2881,-18.7717"/>
<polygon fill="#9a32cd" stroke="#9a32cd" points="135.7882,-65.3035 139.2881,-75.3035 142.7882,-65.3036 135.7882,-65.3035"/>
<text text-anchor="middle" x="172.9185" y="-44" font-family="Helvetica,sans-Serif" font-size="10.00" fill="#000000"> resolutionRate</text>
</g>
<!-- Node4 -->
<g id="node4" class="node">
<title>Node4</title>
<polygon fill="#ffffff" stroke="#bfbfbf" points="192.3745,-75.5 192.3745,-93.5 266.2017,-93.5 266.2017,-75.5 192.3745,-75.5"/>
<text text-anchor="middle" x="229.2881" y="-81.5" font-family="Helvetica,sans-Serif" font-size="10.00" fill="#000000">plane_angle)</text>
</g>
<!-- Node4&#45;&gt;Node1 -->
<g id="edge3" class="edge">
<title>Node4&#45;&gt;Node1</title>
<path fill="none" stroke="#9a32cd" stroke-dasharray="5,2" d="M224.2318,-65.6874C220.8132,-56.0417 215.41,-44.73 207.2881,-37 198.5249,-28.6597 186.9013,-22.7224 175.7471,-18.5532"/>
<polygon fill="#9a32cd" stroke="#9a32cd" points="220.8927,-66.7368 227.197,-75.2518 227.5787,-64.6638 220.8927,-66.7368"/>
<text text-anchor="middle" x="270.0317" y="-49" font-family="Helvetica,sans-Serif" font-size="10.00" fill="#000000"> angularSlop</text>
<text text-anchor="middle" x="270.0317" y="-39" font-family="Helvetica,sans-Serif" font-size="10.00" fill="#000000">maxAngularCorrection</text>
</g>
</g>
</svg>
