<?xml version="1.0" encoding="UTF-8" standalone="no"?>
<!DOCTYPE svg PUBLIC "-//W3C//DTD SVG 1.1//EN"
 "http://www.w3.org/Graphics/SVG/1.1/DTD/svg11.dtd">
<!-- Generated by graphviz version 2.40.1 (20161225.0304)
 -->
<!-- Title: playrho::detail::LengthIndices&lt; N &gt; Pages: 1 -->
<svg width="210pt" height="92pt"
 viewBox="0.00 0.00 210.41 92.00" xmlns="http://www.w3.org/2000/svg" xmlns:xlink="http://www.w3.org/1999/xlink">
<g id="graph0" class="graph" transform="scale(1 1) rotate(0) translate(4 88)">
<title>playrho::detail::LengthIndices&lt; N &gt;</title>
<polygon fill="#ffffff" stroke="transparent" points="-4,4 -4,-88 206.4131,-88 206.4131,4 -4,4"/>
<!-- Node1 -->
<g id="node1" class="node">
<title>Node1</title>
<polygon fill="#bfbfbf" stroke="#000000" points="0,-.5 0,-18.5 170.5459,-18.5 170.5459,-.5 0,-.5"/>
<text text-anchor="middle" x="85.2729" y="-6.5" font-family="Helvetica,sans-Serif" font-size="10.00" fill="#000000">playrho::detail::LengthIndices&lt; N &gt;</text>
</g>
<!-- Node2 -->
<g id="node2" class="node">
<title>Node2</title>
<polygon fill="#ffffff" stroke="#bfbfbf" points="9.9849,-65.5 9.9849,-83.5 56.561,-83.5 56.561,-65.5 9.9849,-65.5"/>
<text text-anchor="middle" x="33.2729" y="-71.5" font-family="Helvetica,sans-Serif" font-size="10.00" fill="#000000">length)</text>
</g>
<!-- Node2&#45;&gt;Node1 -->
<g id="edge1" class="edge">
<title>Node2&#45;&gt;Node1</title>
<path fill="none" stroke="#9a32cd" stroke-dasharray="5,2" d="M47.022,-57.3137C56.8668,-45.0077 69.7495,-28.9043 77.7672,-18.8821"/>
<polygon fill="#9a32cd" stroke="#9a32cd" points="44.0173,-55.4669 40.5033,-65.462 49.4834,-59.8398 44.0173,-55.4669"/>
<text text-anchor="middle" x="83.2852" y="-39" font-family="Helvetica,sans-Serif" font-size="10.00" fill="#000000"> distance</text>
</g>
<!-- Node3 -->
<g id="node3" class="node">
<title>Node3</title>
<polygon fill="#ffffff" stroke="#bfbfbf" points="74.1328,-65.5 74.1328,-83.5 202.4131,-83.5 202.4131,-65.5 74.1328,-65.5"/>
<text text-anchor="middle" x="138.2729" y="-71.5" font-family="Helvetica,sans-Serif" font-size="10.00" fill="#000000">VertexCounterArray&lt; N &gt;</text>
</g>
<!-- Node3&#45;&gt;Node1 -->
<g id="edge2" class="edge">
<title>Node3&#45;&gt;Node1</title>
<path fill="none" stroke="#9a32cd" stroke-dasharray="5,2" d="M124.5509,-57.6711C114.4808,-45.321 101.1743,-29.0016 92.923,-18.8821"/>
<polygon fill="#9a32cd" stroke="#9a32cd" points="121.8715,-59.9236 130.9035,-65.462 127.2967,-55.5 121.8715,-59.9236"/>
<text text-anchor="middle" x="131.2261" y="-39" font-family="Helvetica,sans-Serif" font-size="10.00" fill="#000000"> indices</text>
</g>
</g>
</svg>
