<?xml version="1.0" encoding="UTF-8" standalone="no"?>
<!DOCTYPE svg PUBLIC "-//W3C//DTD SVG 1.1//EN"
 "http://www.w3.org/Graphics/SVG/1.1/DTD/svg11.dtd">
<!-- Generated by graphviz version 2.44.1 (20200629.0846)
 -->
<!-- Title: playrho::detail::SeparationInfo&lt; N &gt; Pages: 1 -->
<svg width="258pt" height="106pt"
 viewBox="0.00 0.00 258.00 106.00" xmlns="http://www.w3.org/2000/svg" xmlns:xlink="http://www.w3.org/1999/xlink">
<g id="graph0" class="graph" transform="scale(1 1) rotate(0) translate(4 102)">
<title>playrho::detail::SeparationInfo&lt; N &gt;</title>
<polygon fill="white" stroke="transparent" points="-4,4 -4,-102 254,-102 254,4 -4,4"/>
<!-- Node1 -->
<g id="node1" class="node">
<title>Node1</title>
<g id="a_node1"><a xlink:title="Separation information.">
<polygon fill="#bfbfbf" stroke="black" points="21,-0.5 21,-30.5 151,-30.5 151,-0.5 21,-0.5"/>
<text text-anchor="start" x="29" y="-18.5" font-family="Helvetica,sans-Serif" font-size="10.00">playrho::detail::Separation</text>
<text text-anchor="middle" x="86" y="-7.5" font-family="Helvetica,sans-Serif" font-size="10.00">Info&lt; N &gt;</text>
</a>
</g>
</g>
<!-- Node2 -->
<g id="node2" class="node">
<title>Node2</title>
<g id="a_node2"><a xlink:title=" ">
<polygon fill="white" stroke="#bfbfbf" points="0,-78.5 0,-97.5 46,-97.5 46,-78.5 0,-78.5"/>
<text text-anchor="middle" x="23" y="-85.5" font-family="Helvetica,sans-Serif" font-size="10.00">length)</text>
</a>
</g>
</g>
<!-- Node2&#45;&gt;Node1 -->
<g id="edge1" class="edge">
<title>Node2&#45;&gt;Node1</title>
<path fill="none" stroke="#9a32cd" stroke-dasharray="5,2" d="M29.95,-68.87C33.03,-62.2 37.08,-54.85 42,-49 47.87,-42.02 55.52,-35.71 62.8,-30.54"/>
<polygon fill="#9a32cd" stroke="#9a32cd" points="26.56,-67.9 25.92,-78.48 33.01,-70.61 26.56,-67.9"/>
<text text-anchor="middle" x="62" y="-52" font-family="Helvetica,sans-Serif" font-size="10.00"> distance</text>
</g>
<!-- Node3 -->
<g id="node3" class="node">
<title>Node3</title>
<g id="a_node3"><a xlink:title=" ">
<polygon fill="white" stroke="#bfbfbf" points="68.5,-78.5 68.5,-97.5 103.5,-97.5 103.5,-78.5 68.5,-78.5"/>
<text text-anchor="middle" x="86" y="-85.5" font-family="Helvetica,sans-Serif" font-size="10.00">type</text>
</a>
</g>
</g>
<!-- Node3&#45;&gt;Node1 -->
<g id="edge2" class="edge">
<title>Node3&#45;&gt;Node1</title>
<path fill="none" stroke="#9a32cd" stroke-dasharray="5,2" d="M86,-68.24C86,-56.41 86,-41.38 86,-30.58"/>
<polygon fill="#9a32cd" stroke="#9a32cd" points="82.5,-68.36 86,-78.36 89.5,-68.36 82.5,-68.36"/>
<text text-anchor="middle" x="110" y="-52" font-family="Helvetica,sans-Serif" font-size="10.00"> firstShape</text>
</g>
<!-- Node4 -->
<g id="node4" class="node">
<title>Node4</title>
<g id="a_node4"><a xlink:title=" ">
<polygon fill="white" stroke="#bfbfbf" points="122,-78.5 122,-97.5 250,-97.5 250,-78.5 122,-78.5"/>
<text text-anchor="middle" x="186" y="-85.5" font-family="Helvetica,sans-Serif" font-size="10.00">VertexCounterArray&lt; N &gt;</text>
</a>
</g>
</g>
<!-- Node4&#45;&gt;Node1 -->
<g id="edge3" class="edge">
<title>Node4&#45;&gt;Node1</title>
<path fill="none" stroke="#9a32cd" stroke-dasharray="5,2" d="M167.84,-71.84C159.01,-64.68 148.14,-56.15 138,-49 128.95,-42.62 118.67,-36.06 109.66,-30.52"/>
<polygon fill="#9a32cd" stroke="#9a32cd" points="165.63,-74.56 175.58,-78.2 170.08,-69.15 165.63,-74.56"/>
<text text-anchor="middle" x="182.5" y="-52" font-family="Helvetica,sans-Serif" font-size="10.00"> secondShape</text>
</g>
</g>
</svg>
