<?xml version="1.0" encoding="UTF-8" standalone="no"?>
<!DOCTYPE svg PUBLIC "-//W3C//DTD SVG 1.1//EN"
 "http://www.w3.org/Graphics/SVG/1.1/DTD/svg11.dtd">
<!-- Generated by graphviz version 2.44.1 (20200629.0846)
 -->
<!-- Title: playrho::d2::RevoluteJointConf Pages: 1 -->
<svg width="1428pt" height="446pt"
 viewBox="0.00 0.00 1428.00 445.50" xmlns="http://www.w3.org/2000/svg" xmlns:xlink="http://www.w3.org/1999/xlink">
<g id="graph0" class="graph" transform="scale(1 1) rotate(0) translate(4 441.5)">
<title>playrho::d2::RevoluteJointConf</title>
<polygon fill="white" stroke="transparent" points="-4,4 -4,-441.5 1424,-441.5 1424,4 -4,4"/>
<!-- Node1 -->
<g id="node1" class="node">
<title>Node1</title>
<g id="a_node1"><a xlink:title="Revolute joint definition.">
<polygon fill="#bfbfbf" stroke="black" points="1268,-182.5 1268,-201.5 1420,-201.5 1420,-182.5 1268,-182.5"/>
<text text-anchor="middle" x="1344" y="-189.5" font-family="Helvetica,sans-Serif" font-size="10.00">playrho::d2::RevoluteJointConf</text>
</a>
</g>
</g>
<!-- Node2 -->
<g id="node2" class="node">
<title>Node2</title>
<g id="a_node2"><a xlink:href="structplayrho_1_1d2_1_1JointBuilder.html" target="_top" xlink:title=" ">
<polygon fill="white" stroke="black" points="1012,-382 1012,-412 1134,-412 1134,-382 1012,-382"/>
<text text-anchor="start" x="1020" y="-400" font-family="Helvetica,sans-Serif" font-size="10.00">playrho::d2::JointBuilder</text>
<text text-anchor="middle" x="1073" y="-389" font-family="Helvetica,sans-Serif" font-size="10.00">&lt; RevoluteJointConf &gt;</text>
</a>
</g>
</g>
<!-- Node2&#45;&gt;Node1 -->
<g id="edge1" class="edge">
<title>Node2&#45;&gt;Node1</title>
<path fill="none" stroke="midnightblue" d="M1144.21,-396.16C1178.91,-392.58 1219.71,-383.3 1250,-361 1307.17,-318.9 1333.43,-230.63 1340.77,-201.53"/>
<polygon fill="midnightblue" stroke="midnightblue" points="1143.78,-392.68 1134.13,-397.06 1144.4,-399.65 1143.78,-392.68"/>
</g>
<!-- Node3 -->
<g id="node3" class="node">
<title>Node3</title>
<g id="a_node3"><a xlink:href="structplayrho_1_1d2_1_1JointConf.html" target="_top" xlink:title="Abstract base joint definition class.">
<polygon fill="white" stroke="black" points="573,-396.5 573,-415.5 686,-415.5 686,-396.5 573,-396.5"/>
<text text-anchor="middle" x="629.5" y="-403.5" font-family="Helvetica,sans-Serif" font-size="10.00">playrho::d2::JointConf</text>
</a>
</g>
</g>
<!-- Node3&#45;&gt;Node2 -->
<g id="edge2" class="edge">
<title>Node3&#45;&gt;Node2</title>
<path fill="none" stroke="midnightblue" d="M696.22,-414.43C705.2,-415.2 714.32,-415.77 723,-416 841.64,-419.12 872,-424.67 990,-412 997.05,-411.24 1004.41,-410.23 1011.69,-409.08"/>
<polygon fill="midnightblue" stroke="midnightblue" points="696.44,-410.94 686.16,-413.5 695.8,-417.91 696.44,-410.94"/>
</g>
<!-- Node9 -->
<g id="node9" class="node">
<title>Node9</title>
<g id="a_node9"><a xlink:href="structplayrho_1_1d2_1_1JointBuilder.html" target="_top" xlink:title="Joint builder definition structure.">
<polygon fill="white" stroke="black" points="723,-387.5 723,-406.5 869,-406.5 869,-387.5 723,-387.5"/>
<text text-anchor="middle" x="796" y="-394.5" font-family="Helvetica,sans-Serif" font-size="10.00">playrho::d2::JointBuilder&lt; T &gt;</text>
</a>
</g>
</g>
<!-- Node3&#45;&gt;Node9 -->
<g id="edge9" class="edge">
<title>Node3&#45;&gt;Node9</title>
<path fill="none" stroke="midnightblue" d="M696.27,-402.4C704.97,-401.93 713.94,-401.44 722.74,-400.95"/>
<polygon fill="midnightblue" stroke="midnightblue" points="695.99,-398.91 686.19,-402.95 696.37,-405.9 695.99,-398.91"/>
</g>
<!-- Node4 -->
<g id="node4" class="node">
<title>Node4</title>
<g id="a_node4"><a xlink:href="classplayrho_1_1strongtype_1_1IndexingNamedType.html" target="_top" xlink:title=" ">
<polygon fill="white" stroke="black" points="345,-385 345,-437 458,-437 458,-385 345,-385"/>
<text text-anchor="start" x="353" y="-425" font-family="Helvetica,sans-Serif" font-size="10.00">playrho::strongtype</text>
<text text-anchor="start" x="353" y="-414" font-family="Helvetica,sans-Serif" font-size="10.00">::IndexingNamedType</text>
<text text-anchor="start" x="353" y="-403" font-family="Helvetica,sans-Serif" font-size="10.00">&lt; BodyCounter, struct</text>
<text text-anchor="middle" x="401.5" y="-392" font-family="Helvetica,sans-Serif" font-size="10.00"> BodyIdentifier &gt;</text>
</a>
</g>
</g>
<!-- Node4&#45;&gt;Node3 -->
<g id="edge3" class="edge">
<title>Node4&#45;&gt;Node3</title>
<path fill="none" stroke="#9a32cd" stroke-dasharray="5,2" d="M468.14,-409.55C501.29,-408.81 541.09,-407.93 572.75,-407.23"/>
<polygon fill="#9a32cd" stroke="#9a32cd" points="468,-406.05 458.08,-409.77 468.15,-413.05 468,-406.05"/>
<text text-anchor="middle" x="515.5" y="-423" font-family="Helvetica,sans-Serif" font-size="10.00"> bodyA</text>
<text text-anchor="middle" x="515.5" y="-412" font-family="Helvetica,sans-Serif" font-size="10.00">bodyB</text>
</g>
<!-- Node5 -->
<g id="node5" class="node">
<title>Node5</title>
<g id="a_node5"><a xlink:title=" ">
<polygon fill="white" stroke="#bfbfbf" points="116,-401.5 116,-420.5 190,-420.5 190,-401.5 116,-401.5"/>
<text text-anchor="middle" x="153" y="-408.5" font-family="Helvetica,sans-Serif" font-size="10.00">BodyCounter</text>
</a>
</g>
</g>
<!-- Node5&#45;&gt;Node4 -->
<g id="edge4" class="edge">
<title>Node5&#45;&gt;Node4</title>
<path fill="none" stroke="#9a32cd" stroke-dasharray="5,2" d="M200.35,-411C241.3,-411 301.1,-411 344.67,-411"/>
<polygon fill="#9a32cd" stroke="#9a32cd" points="200.11,-407.5 190.11,-411 200.11,-414.5 200.11,-407.5"/>
<text text-anchor="middle" x="277" y="-414" font-family="Helvetica,sans-Serif" font-size="10.00"> value_</text>
</g>
<!-- Node6 -->
<g id="node6" class="node">
<title>Node6</title>
<g id="a_node6"><a xlink:href="classplayrho_1_1strongtype_1_1IndexingNamedType.html" target="_top" xlink:title="An indexable, hashable, named &quot;strong type&quot; template class.">
<polygon fill="white" stroke="black" points="97,-338.5 97,-379.5 209,-379.5 209,-338.5 97,-338.5"/>
<text text-anchor="start" x="105" y="-367.5" font-family="Helvetica,sans-Serif" font-size="10.00">playrho::strongtype</text>
<text text-anchor="start" x="105" y="-356.5" font-family="Helvetica,sans-Serif" font-size="10.00">::IndexingNamedType</text>
<text text-anchor="middle" x="153" y="-345.5" font-family="Helvetica,sans-Serif" font-size="10.00">&lt; T, Tag &gt;</text>
</a>
</g>
</g>
<!-- Node6&#45;&gt;Node4 -->
<g id="edge5" class="edge">
<title>Node6&#45;&gt;Node4</title>
<path fill="none" stroke="orange" stroke-dasharray="5,2" d="M219.39,-365.84C252.01,-370 291.9,-376.24 327,-385 332.78,-386.44 338.74,-388.16 344.66,-390.01"/>
<polygon fill="orange" stroke="orange" points="219.42,-362.32 209.07,-364.56 218.56,-369.26 219.42,-362.32"/>
<text text-anchor="start" x="227" y="-399" font-family="Helvetica,sans-Serif" font-size="10.00"> &lt; BodyCounter, struct</text>
<text text-anchor="middle" x="277" y="-388" font-family="Helvetica,sans-Serif" font-size="10.00"> BodyIdentifier &gt;</text>
</g>
<!-- Node7 -->
<g id="node7" class="node">
<title>Node7</title>
<g id="a_node7"><a xlink:title=" ">
<polygon fill="white" stroke="#bfbfbf" points="0,-292.5 0,-311.5 29,-311.5 29,-292.5 0,-292.5"/>
<text text-anchor="middle" x="14.5" y="-299.5" font-family="Helvetica,sans-Serif" font-size="10.00">T</text>
</a>
</g>
</g>
<!-- Node7&#45;&gt;Node6 -->
<g id="edge6" class="edge">
<title>Node7&#45;&gt;Node6</title>
<path fill="none" stroke="#9a32cd" stroke-dasharray="5,2" d="M38.51,-311.61C56.07,-318.94 80.91,-329.31 102.87,-338.48"/>
<polygon fill="#9a32cd" stroke="#9a32cd" points="39.66,-308.3 29.09,-307.67 36.97,-314.76 39.66,-308.3"/>
<text text-anchor="middle" x="63" y="-330" font-family="Helvetica,sans-Serif" font-size="10.00"> value_</text>
</g>
<!-- Node12 -->
<g id="node12" class="node">
<title>Node12</title>
<g id="a_node12"><a xlink:href="structplayrho_1_1Vector.html" target="_top" xlink:title="Vector.">
<polygon fill="white" stroke="black" points="736.5,-253.5 736.5,-272.5 855.5,-272.5 855.5,-253.5 736.5,-253.5"/>
<text text-anchor="middle" x="796" y="-260.5" font-family="Helvetica,sans-Serif" font-size="10.00">playrho::Vector&lt; T, N &gt;</text>
</a>
</g>
</g>
<!-- Node7&#45;&gt;Node12 -->
<g id="edge13" class="edge">
<title>Node7&#45;&gt;Node12</title>
<path fill="none" stroke="#9a32cd" stroke-dasharray="5,2" d="M39.08,-297.54C66.21,-292.81 112.16,-286 152,-286 152,-286 152,-286 630.5,-286 671.59,-286 717.91,-278.87 750.9,-272.55"/>
<polygon fill="#9a32cd" stroke="#9a32cd" points="38.22,-294.14 29,-299.36 39.46,-301.03 38.22,-294.14"/>
<text text-anchor="middle" x="401.5" y="-289" font-family="Helvetica,sans-Serif" font-size="10.00"> elements</text>
</g>
<!-- Node8 -->
<g id="node8" class="node">
<title>Node8</title>
<g id="a_node8"><a xlink:title=" ">
<polygon fill="white" stroke="#bfbfbf" points="384,-341.5 384,-360.5 419,-360.5 419,-341.5 384,-341.5"/>
<text text-anchor="middle" x="401.5" y="-348.5" font-family="Helvetica,sans-Serif" font-size="10.00">bool</text>
</a>
</g>
</g>
<!-- Node8&#45;&gt;Node1 -->
<g id="edge19" class="edge">
<title>Node8&#45;&gt;Node1</title>
<path fill="none" stroke="#9a32cd" stroke-dasharray="5,2" d="M429.27,-350.22C471.57,-349.06 556.48,-347 628.5,-347 628.5,-347 628.5,-347 1074,-347 1152.47,-347 1182.44,-372.91 1250,-333 1302.52,-301.98 1331.09,-228.28 1339.96,-201.74"/>
<polygon fill="#9a32cd" stroke="#9a32cd" points="429.12,-346.72 419.23,-350.5 429.32,-353.72 429.12,-346.72"/>
<text text-anchor="middle" x="796" y="-361" font-family="Helvetica,sans-Serif" font-size="10.00"> enableLimit</text>
<text text-anchor="middle" x="796" y="-350" font-family="Helvetica,sans-Serif" font-size="10.00">enableMotor</text>
</g>
<!-- Node8&#45;&gt;Node3 -->
<g id="edge7" class="edge">
<title>Node8&#45;&gt;Node3</title>
<path fill="none" stroke="#9a32cd" stroke-dasharray="5,2" d="M429.06,-357.46C468.62,-367.09 543.26,-385.26 589.17,-396.43"/>
<polygon fill="#9a32cd" stroke="#9a32cd" points="429.66,-354.01 419.12,-355.04 428.01,-360.81 429.66,-354.01"/>
<text text-anchor="middle" x="515.5" y="-389" font-family="Helvetica,sans-Serif" font-size="10.00"> collideConnected</text>
</g>
<!-- Node9&#45;&gt;Node2 -->
<g id="edge8" class="edge">
<title>Node9&#45;&gt;Node2</title>
<path fill="none" stroke="orange" stroke-dasharray="5,2" d="M879.32,-397C921.92,-397 972.98,-397 1011.84,-397"/>
<polygon fill="orange" stroke="orange" points="879.25,-393.5 869.25,-397 879.25,-400.5 879.25,-393.5"/>
<text text-anchor="middle" x="938.5" y="-400" font-family="Helvetica,sans-Serif" font-size="10.00"> &lt; RevoluteJointConf &gt;</text>
</g>
<!-- Node10 -->
<g id="node10" class="node">
<title>Node10</title>
<g id="a_node10"><a xlink:href="structplayrho_1_1Vector.html" target="_top" xlink:title=" ">
<polygon fill="white" stroke="black" points="1008,-282.5 1008,-301.5 1138,-301.5 1138,-282.5 1008,-282.5"/>
<text text-anchor="middle" x="1073" y="-289.5" font-family="Helvetica,sans-Serif" font-size="10.00">playrho::Vector&lt; Length &gt;</text>
</a>
</g>
</g>
<!-- Node10&#45;&gt;Node1 -->
<g id="edge10" class="edge">
<title>Node10&#45;&gt;Node1</title>
<path fill="none" stroke="#9a32cd" stroke-dasharray="5,2" d="M1148.28,-287.84C1180.56,-284.01 1218.19,-276.74 1250,-263 1284.69,-248.02 1318.06,-217.33 1333.72,-201.66"/>
<polygon fill="#9a32cd" stroke="#9a32cd" points="1147.56,-284.39 1138.01,-288.96 1148.33,-291.35 1147.56,-284.39"/>
<text text-anchor="middle" x="1203" y="-322" font-family="Helvetica,sans-Serif" font-size="10.00"> localAnchorA</text>
<text text-anchor="middle" x="1203" y="-311" font-family="Helvetica,sans-Serif" font-size="10.00">localAnchorB</text>
<text text-anchor="middle" x="1203" y="-300" font-family="Helvetica,sans-Serif" font-size="10.00">rA</text>
<text text-anchor="middle" x="1203" y="-289" font-family="Helvetica,sans-Serif" font-size="10.00">rB</text>
</g>
<!-- Node11 -->
<g id="node11" class="node">
<title>Node11</title>
<g id="a_node11"><a xlink:title=" ">
<polygon fill="white" stroke="#bfbfbf" points="773,-291.5 773,-310.5 819,-310.5 819,-291.5 773,-291.5"/>
<text text-anchor="middle" x="796" y="-298.5" font-family="Helvetica,sans-Serif" font-size="10.00">Length</text>
</a>
</g>
</g>
<!-- Node11&#45;&gt;Node10 -->
<g id="edge11" class="edge">
<title>Node11&#45;&gt;Node10</title>
<path fill="none" stroke="#9a32cd" stroke-dasharray="5,2" d="M829.07,-299.95C872.69,-298.52 951.68,-295.94 1007.74,-294.1"/>
<polygon fill="#9a32cd" stroke="#9a32cd" points="828.92,-296.45 819.04,-300.28 829.15,-303.45 828.92,-296.45"/>
<text text-anchor="middle" x="938.5" y="-300" font-family="Helvetica,sans-Serif" font-size="10.00"> elements</text>
</g>
<!-- Node12&#45;&gt;Node10 -->
<g id="edge12" class="edge">
<title>Node12&#45;&gt;Node10</title>
<path fill="none" stroke="orange" stroke-dasharray="5,2" d="M865.96,-267.46C902.83,-270.17 948.96,-274.05 990,-279 998.3,-280 1007.05,-281.22 1015.62,-282.5"/>
<polygon fill="orange" stroke="orange" points="866.04,-263.96 855.82,-266.73 865.54,-270.94 866.04,-263.96"/>
<text text-anchor="middle" x="938.5" y="-282" font-family="Helvetica,sans-Serif" font-size="10.00"> &lt; Length &gt;</text>
</g>
<!-- Node14 -->
<g id="node14" class="node">
<title>Node14</title>
<g id="a_node14"><a xlink:href="structplayrho_1_1Vector.html" target="_top" xlink:title=" ">
<polygon fill="white" stroke="black" points="1012.5,-206.5 1012.5,-225.5 1133.5,-225.5 1133.5,-206.5 1012.5,-206.5"/>
<text text-anchor="middle" x="1073" y="-213.5" font-family="Helvetica,sans-Serif" font-size="10.00">playrho::Vector&lt; Real &gt;</text>
</a>
</g>
</g>
<!-- Node12&#45;&gt;Node14 -->
<g id="edge17" class="edge">
<title>Node12&#45;&gt;Node14</title>
<path fill="none" stroke="orange" stroke-dasharray="5,2" d="M862.68,-251.78C909.42,-243.79 971.55,-233.17 1015.96,-225.58"/>
<polygon fill="orange" stroke="orange" points="861.92,-248.35 852.65,-253.49 863.1,-255.25 861.92,-248.35"/>
<text text-anchor="middle" x="938.5" y="-249" font-family="Helvetica,sans-Serif" font-size="10.00"> &lt; Real &gt;</text>
</g>
<!-- Node13 -->
<g id="node13" class="node">
<title>Node13</title>
<g id="a_node13"><a xlink:title=" ">
<polygon fill="white" stroke="#bfbfbf" points="1023,-244.5 1023,-263.5 1123,-263.5 1123,-244.5 1023,-244.5"/>
<text text-anchor="middle" x="1073" y="-251.5" font-family="Helvetica,sans-Serif" font-size="10.00">moment_of_inertia)</text>
</a>
</g>
</g>
<!-- Node13&#45;&gt;Node1 -->
<g id="edge14" class="edge">
<title>Node13&#45;&gt;Node1</title>
<path fill="none" stroke="#9a32cd" stroke-dasharray="5,2" d="M1133.65,-250.74C1168.11,-247.81 1212.03,-242.32 1250,-232 1277.14,-224.63 1306.68,-210.85 1325.02,-201.55"/>
<polygon fill="#9a32cd" stroke="#9a32cd" points="1132.96,-247.28 1123.27,-251.56 1133.52,-254.26 1132.96,-247.28"/>
<text text-anchor="middle" x="1203" y="-251" font-family="Helvetica,sans-Serif" font-size="10.00"> angularMass</text>
</g>
<!-- Node14&#45;&gt;Node1 -->
<g id="edge15" class="edge">
<title>Node14&#45;&gt;Node1</title>
<path fill="none" stroke="#9a32cd" stroke-dasharray="5,2" d="M1144.14,-209.74C1182.05,-206.36 1228.88,-202.18 1267.57,-198.73"/>
<polygon fill="#9a32cd" stroke="#9a32cd" points="1143.35,-206.3 1133.7,-210.67 1143.97,-213.27 1143.35,-206.3"/>
<text text-anchor="middle" x="1203" y="-222" font-family="Helvetica,sans-Serif" font-size="10.00"> impulse</text>
<text text-anchor="middle" x="1203" y="-211" font-family="Helvetica,sans-Serif" font-size="10.00">mass</text>
</g>
<!-- Node15 -->
<g id="node15" class="node">
<title>Node15</title>
<g id="a_node15"><a xlink:title=" ">
<polygon fill="white" stroke="#bfbfbf" points="778.5,-189.5 778.5,-208.5 813.5,-208.5 813.5,-189.5 778.5,-189.5"/>
<text text-anchor="middle" x="796" y="-196.5" font-family="Helvetica,sans-Serif" font-size="10.00">float</text>
</a>
</g>
</g>
<!-- Node15&#45;&gt;Node14 -->
<g id="edge16" class="edge">
<title>Node15&#45;&gt;Node14</title>
<path fill="none" stroke="#9a32cd" stroke-dasharray="5,2" d="M823.63,-197.57C860.93,-195.92 930.82,-194.13 990,-200 1003.42,-201.33 1017.92,-203.81 1030.93,-206.42"/>
<polygon fill="#9a32cd" stroke="#9a32cd" points="823.4,-194.07 813.58,-198.04 823.73,-201.07 823.4,-194.07"/>
<text text-anchor="middle" x="938.5" y="-203" font-family="Helvetica,sans-Serif" font-size="10.00"> elements</text>
</g>
<!-- Node16 -->
<g id="node16" class="node">
<title>Node16</title>
<g id="a_node16"><a xlink:title=" ">
<polygon fill="white" stroke="#bfbfbf" points="1049.5,-168.5 1049.5,-187.5 1096.5,-187.5 1096.5,-168.5 1049.5,-168.5"/>
<text text-anchor="middle" x="1073" y="-175.5" font-family="Helvetica,sans-Serif" font-size="10.00">torque)</text>
</a>
</g>
</g>
<!-- Node16&#45;&gt;Node1 -->
<g id="edge18" class="edge">
<title>Node16&#45;&gt;Node1</title>
<path fill="none" stroke="#9a32cd" stroke-dasharray="5,2" d="M1106.93,-177.01C1121.9,-176.61 1139.84,-176.2 1156,-176 1197.77,-175.49 1208.37,-172.45 1250,-176 1265.34,-177.31 1281.96,-179.82 1296.84,-182.46"/>
<polygon fill="#9a32cd" stroke="#9a32cd" points="1106.52,-173.52 1096.62,-177.3 1106.71,-180.52 1106.52,-173.52"/>
<text text-anchor="middle" x="1203" y="-179" font-family="Helvetica,sans-Serif" font-size="10.00"> maxMotorTorque</text>
</g>
<!-- Node17 -->
<g id="node17" class="node">
<title>Node17</title>
<g id="a_node17"><a xlink:title=" ">
<polygon fill="white" stroke="#bfbfbf" points="1020.5,-130.5 1020.5,-149.5 1125.5,-149.5 1125.5,-130.5 1020.5,-130.5"/>
<text text-anchor="middle" x="1073" y="-137.5" font-family="Helvetica,sans-Serif" font-size="10.00">angular_momentum)</text>
</a>
</g>
</g>
<!-- Node17&#45;&gt;Node1 -->
<g id="edge20" class="edge">
<title>Node17&#45;&gt;Node1</title>
<path fill="none" stroke="#9a32cd" stroke-dasharray="5,2" d="M1135.99,-143.15C1169.97,-145.76 1212.66,-150.48 1250,-159 1274.89,-164.68 1302.31,-174.92 1320.88,-182.5"/>
<polygon fill="#9a32cd" stroke="#9a32cd" points="1135.96,-139.64 1125.74,-142.4 1135.46,-146.62 1135.96,-139.64"/>
<text text-anchor="middle" x="1203" y="-162" font-family="Helvetica,sans-Serif" font-size="10.00"> angularMotorImpulse</text>
</g>
<!-- Node18 -->
<g id="node18" class="node">
<title>Node18</title>
<g id="a_node18"><a xlink:title=" ">
<polygon fill="white" stroke="#bfbfbf" points="1028,-92.5 1028,-111.5 1118,-111.5 1118,-92.5 1028,-92.5"/>
<text text-anchor="middle" x="1073" y="-99.5" font-family="Helvetica,sans-Serif" font-size="10.00">angular_velocity)</text>
</a>
</g>
</g>
<!-- Node18&#45;&gt;Node1 -->
<g id="edge21" class="edge">
<title>Node18&#45;&gt;Node1</title>
<path fill="none" stroke="#9a32cd" stroke-dasharray="5,2" d="M1128.23,-104.61C1163.86,-107.77 1210.92,-114.71 1250,-130 1282.71,-142.8 1315.66,-168.49 1332.15,-182.45"/>
<polygon fill="#9a32cd" stroke="#9a32cd" points="1128.29,-101.1 1118.04,-103.78 1127.72,-108.08 1128.29,-101.1"/>
<text text-anchor="middle" x="1203" y="-133" font-family="Helvetica,sans-Serif" font-size="10.00"> motorSpeed</text>
</g>
<!-- Node19 -->
<g id="node19" class="node">
<title>Node19</title>
<g id="a_node19"><a xlink:title=" ">
<polygon fill="white" stroke="#bfbfbf" points="1042.5,-54.5 1042.5,-73.5 1103.5,-73.5 1103.5,-54.5 1042.5,-54.5"/>
<text text-anchor="middle" x="1073" y="-61.5" font-family="Helvetica,sans-Serif" font-size="10.00">LimitState</text>
</a>
</g>
</g>
<!-- Node19&#45;&gt;Node1 -->
<g id="edge22" class="edge">
<title>Node19&#45;&gt;Node1</title>
<path fill="none" stroke="#9a32cd" stroke-dasharray="5,2" d="M1114.02,-63.09C1151.3,-63.86 1207.38,-69.28 1250,-92 1291.43,-114.08 1324.4,-161.83 1337.22,-182.33"/>
<polygon fill="#9a32cd" stroke="#9a32cd" points="1113.6,-59.58 1103.56,-62.98 1113.53,-66.58 1113.6,-59.58"/>
<text text-anchor="middle" x="1203" y="-95" font-family="Helvetica,sans-Serif" font-size="10.00"> limitState</text>
</g>
<!-- Node20 -->
<g id="node20" class="node">
<title>Node20</title>
<g id="a_node20"><a xlink:title=" ">
<polygon fill="white" stroke="#bfbfbf" points="1037.5,-0.5 1037.5,-19.5 1108.5,-19.5 1108.5,-0.5 1037.5,-0.5"/>
<text text-anchor="middle" x="1073" y="-7.5" font-family="Helvetica,sans-Serif" font-size="10.00">plane_angle)</text>
</a>
</g>
</g>
<!-- Node20&#45;&gt;Node1 -->
<g id="edge23" class="edge">
<title>Node20&#45;&gt;Node1</title>
<path fill="none" stroke="#9a32cd" stroke-dasharray="5,2" d="M1119.08,-4.12C1157.05,-1.53 1211.23,-3.6 1250,-29 1307.51,-66.67 1333.4,-152.98 1340.72,-182.15"/>
<polygon fill="#9a32cd" stroke="#9a32cd" points="1118.51,-0.66 1108.83,-4.96 1119.08,-7.64 1118.51,-0.66"/>
<text text-anchor="middle" x="1203" y="-54" font-family="Helvetica,sans-Serif" font-size="10.00"> lowerAngle</text>
<text text-anchor="middle" x="1203" y="-43" font-family="Helvetica,sans-Serif" font-size="10.00">referenceAngle</text>
<text text-anchor="middle" x="1203" y="-32" font-family="Helvetica,sans-Serif" font-size="10.00">upperAngle</text>
</g>
</g>
</svg>
