<?xml version="1.0" encoding="UTF-8" standalone="no"?>
<!DOCTYPE svg PUBLIC "-//W3C//DTD SVG 1.1//EN"
 "http://www.w3.org/Graphics/SVG/1.1/DTD/svg11.dtd">
<!-- Generated by graphviz version 2.40.1 (20161225.0304)
 -->
<!-- Title: playrho::d2::VelocityConstraint::Conf Pages: 1 -->
<svg width="229pt" height="102pt"
 viewBox="0.00 0.00 228.59 102.00" xmlns="http://www.w3.org/2000/svg" xmlns:xlink="http://www.w3.org/1999/xlink">
<g id="graph0" class="graph" transform="scale(1 1) rotate(0) translate(4 98)">
<title>playrho::d2::VelocityConstraint::Conf</title>
<polygon fill="#ffffff" stroke="transparent" points="-4,4 -4,-98 224.5884,-98 224.5884,4 -4,4"/>
<!-- Node1 -->
<g id="node1" class="node">
<title>Node1</title>
<polygon fill="#bfbfbf" stroke="#000000" points="3.9116,-.5 3.9116,-28.5 154.9897,-28.5 154.9897,-.5 3.9116,-.5"/>
<text text-anchor="start" x="11.9116" y="-16.5" font-family="Helvetica,sans-Serif" font-size="10.00" fill="#000000">playrho::d2::VelocityConstraint</text>
<text text-anchor="middle" x="79.4507" y="-6.5" font-family="Helvetica,sans-Serif" font-size="10.00" fill="#000000">::Conf</text>
</g>
<!-- Node2 -->
<g id="node2" class="node">
<title>Node2</title>
<polygon fill="#ffffff" stroke="#bfbfbf" points="0,-75.5 0,-93.5 34.9014,-93.5 34.9014,-75.5 0,-75.5"/>
<text text-anchor="middle" x="17.4507" y="-81.5" font-family="Helvetica,sans-Serif" font-size="10.00" fill="#000000">float</text>
</g>
<!-- Node2&#45;&gt;Node1 -->
<g id="edge1" class="edge">
<title>Node2&#45;&gt;Node1</title>
<path fill="none" stroke="#9a32cd" stroke-dasharray="5,2" d="M27.1618,-66.5673C31.0561,-60.0943 35.842,-52.9281 40.9878,-47 46.7185,-40.3981 53.841,-33.9948 60.3936,-28.6423"/>
<polygon fill="#9a32cd" stroke="#9a32cd" points="24.0772,-64.9109 22.1561,-75.3302 30.1554,-68.3831 24.0772,-64.9109"/>
<text text-anchor="middle" x="58.6821" y="-49" font-family="Helvetica,sans-Serif" font-size="10.00" fill="#000000"> dtRatio</text>
</g>
<!-- Node3 -->
<g id="node3" class="node">
<title>Node3</title>
<polygon fill="#ffffff" stroke="#bfbfbf" points="53.1133,-75.5 53.1133,-93.5 105.7881,-93.5 105.7881,-75.5 53.1133,-75.5"/>
<text text-anchor="middle" x="79.4507" y="-81.5" font-family="Helvetica,sans-Serif" font-size="10.00" fill="#000000">velocity)</text>
</g>
<!-- Node3&#45;&gt;Node1 -->
<g id="edge2" class="edge">
<title>Node3&#45;&gt;Node1</title>
<path fill="none" stroke="#9a32cd" stroke-dasharray="5,2" d="M79.4507,-65.0243C79.4507,-53.5169 79.4507,-39.2016 79.4507,-28.7499"/>
<polygon fill="#9a32cd" stroke="#9a32cd" points="75.9508,-65.3487 79.4507,-75.3487 82.9508,-65.3488 75.9508,-65.3487"/>
<text text-anchor="middle" x="119.7461" y="-49" font-family="Helvetica,sans-Serif" font-size="10.00" fill="#000000"> velocityThreshold</text>
</g>
<!-- Node4 -->
<g id="node4" class="node">
<title>Node4</title>
<polygon fill="#ffffff" stroke="#bfbfbf" points="165.9976,-75.5 165.9976,-93.5 200.9038,-93.5 200.9038,-75.5 165.9976,-75.5"/>
<text text-anchor="middle" x="183.4507" y="-81.5" font-family="Helvetica,sans-Serif" font-size="10.00" fill="#000000">bool</text>
</g>
<!-- Node4&#45;&gt;Node1 -->
<g id="edge3" class="edge">
<title>Node4&#45;&gt;Node1</title>
<path fill="none" stroke="#9a32cd" stroke-dasharray="5,2" d="M175.7786,-66.0991C172.2324,-59.3686 167.4566,-52.1496 161.4507,-47 152.383,-39.2251 141.2285,-33.1709 130.1007,-28.5106"/>
<polygon fill="#9a32cd" stroke="#9a32cd" points="172.683,-67.7417 180.0944,-75.3128 179.022,-64.7723 172.683,-67.7417"/>
<text text-anchor="middle" x="195.0195" y="-49" font-family="Helvetica,sans-Serif" font-size="10.00" fill="#000000"> blockSolve</text>
</g>
</g>
</svg>
