<?xml version="1.0" encoding="UTF-8" standalone="no"?>
<!DOCTYPE svg PUBLIC "-//W3C//DTD SVG 1.1//EN"
 "http://www.w3.org/Graphics/SVG/1.1/DTD/svg11.dtd">
<!-- Generated by graphviz version 2.40.1 (20161225.0304)
 -->
<!-- Title: playrho::d2::DistanceOutput Pages: 1 -->
<svg width="958pt" height="145pt"
 viewBox="0.00 0.00 958.05 145.00" xmlns="http://www.w3.org/2000/svg" xmlns:xlink="http://www.w3.org/1999/xlink">
<g id="graph0" class="graph" transform="scale(1 1) rotate(0) translate(4 141)">
<title>playrho::d2::DistanceOutput</title>
<polygon fill="#ffffff" stroke="transparent" points="-4,4 -4,-141 954.0518,-141 954.0518,4 -4,4"/>
<!-- Node1 -->
<g id="node1" class="node">
<title>Node1</title>
<polygon fill="#bfbfbf" stroke="#000000" points="810.0918,-37.5 810.0918,-55.5 950.0518,-55.5 950.0518,-37.5 810.0918,-37.5"/>
<text text-anchor="middle" x="880.0718" y="-43.5" font-family="Helvetica,sans-Serif" font-size="10.00" fill="#000000">playrho::d2::DistanceOutput</text>
</g>
<!-- Node2 -->
<g id="node2" class="node">
<title>Node2</title>
<g id="a_node2"><a xlink:href="classplayrho_1_1d2_1_1Simplex.html" target="_top" xlink:title="An encapsulation of a point, line segment, or triangle. ">
<polygon fill="#ffffff" stroke="#000000" points="624.1367,-74.5 624.1367,-92.5 730.7373,-92.5 730.7373,-74.5 624.1367,-74.5"/>
<text text-anchor="middle" x="677.437" y="-80.5" font-family="Helvetica,sans-Serif" font-size="10.00" fill="#000000">playrho::d2::Simplex</text>
</a>
</g>
</g>
<!-- Node2&#45;&gt;Node1 -->
<g id="edge1" class="edge">
<title>Node2&#45;&gt;Node1</title>
<path fill="none" stroke="#9a32cd" stroke-dasharray="5,2" d="M736.6153,-72.6944C766.4383,-67.2489 802.1885,-60.7211 830.5397,-55.5443"/>
<polygon fill="#9a32cd" stroke="#9a32cd" points="735.9566,-69.2567 726.7479,-74.4961 737.214,-76.1428 735.9566,-69.2567"/>
<text text-anchor="middle" x="770.4146" y="-71.5" font-family="Helvetica,sans-Serif" font-size="10.00" fill="#000000"> simplex</text>
</g>
<!-- Node3 -->
<g id="node3" class="node">
<title>Node3</title>
<g id="a_node3"><a xlink:href="classplayrho_1_1ArrayList.html" target="_top" xlink:title="playrho::ArrayList\l\&lt; Real, MaxSimplexEdges,\l std::remove_const\&lt; decltype\l(MaxSimplexEdges)\&gt;::type \&gt;">
<polygon fill="#ffffff" stroke="#000000" points="326.0918,-88.5 326.0918,-136.5 472.4385,-136.5 472.4385,-88.5 326.0918,-88.5"/>
<text text-anchor="start" x="334.0918" y="-124.5" font-family="Helvetica,sans-Serif" font-size="10.00" fill="#000000">playrho::ArrayList</text>
<text text-anchor="start" x="334.0918" y="-114.5" font-family="Helvetica,sans-Serif" font-size="10.00" fill="#000000">&lt; Real, MaxSimplexEdges,</text>
<text text-anchor="start" x="334.0918" y="-104.5" font-family="Helvetica,sans-Serif" font-size="10.00" fill="#000000"> std::remove_const&lt; decltype</text>
<text text-anchor="middle" x="399.2651" y="-94.5" font-family="Helvetica,sans-Serif" font-size="10.00" fill="#000000">(MaxSimplexEdges)&gt;::type &gt;</text>
</a>
</g>
</g>
<!-- Node3&#45;&gt;Node2 -->
<g id="edge2" class="edge">
<title>Node3&#45;&gt;Node2</title>
<path fill="none" stroke="#9a32cd" stroke-dasharray="5,2" d="M482.9173,-103.7791C528.6521,-99.0111 583.9481,-93.2464 623.8754,-89.0839"/>
<polygon fill="#9a32cd" stroke="#9a32cd" points="482.2985,-100.3245 472.7154,-104.8427 483.0244,-107.2868 482.2985,-100.3245"/>
<text text-anchor="middle" x="555.3726" y="-102.5" font-family="Helvetica,sans-Serif" font-size="10.00" fill="#000000"> m_normalizedWeights</text>
</g>
<!-- Node4 -->
<g id="node4" class="node">
<title>Node4</title>
<g id="a_node4"><a xlink:href="classplayrho_1_1ArrayList.html" target="_top" xlink:title="Array list. ">
<polygon fill="#ffffff" stroke="#000000" points="0,-59.5 0,-97.5 140.585,-97.5 140.585,-59.5 0,-59.5"/>
<text text-anchor="start" x="8" y="-85.5" font-family="Helvetica,sans-Serif" font-size="10.00" fill="#000000">playrho::ArrayList</text>
<text text-anchor="start" x="8" y="-75.5" font-family="Helvetica,sans-Serif" font-size="10.00" fill="#000000">&lt; VALUE_TYPE, MAXSIZE,</text>
<text text-anchor="middle" x="70.2925" y="-65.5" font-family="Helvetica,sans-Serif" font-size="10.00" fill="#000000"> SIZE_TYPE &gt;</text>
</a>
</g>
</g>
<!-- Node4&#45;&gt;Node3 -->
<g id="edge3" class="edge">
<title>Node4&#45;&gt;Node3</title>
<path fill="none" stroke="#ffa500" stroke-dasharray="5,2" d="M150.8206,-88.63C153.4388,-88.9282 156.0323,-89.2191 158.585,-89.5 214.7027,-95.6758 278.2892,-101.711 326.0059,-106.0486"/>
<polygon fill="#ffa500" stroke="#ffa500" points="150.9699,-85.1239 140.6331,-87.4479 150.1631,-92.0773 150.9699,-85.1239"/>
<text text-anchor="start" x="161.0801" y="-124.5" font-family="Helvetica,sans-Serif" font-size="10.00" fill="#000000"> &lt; Real, MaxSimplexEdges,</text>
<text text-anchor="start" x="161.0801" y="-114.5" font-family="Helvetica,sans-Serif" font-size="10.00" fill="#000000"> std::remove_const&lt; decltype</text>
<text text-anchor="middle" x="226.2534" y="-104.5" font-family="Helvetica,sans-Serif" font-size="10.00" fill="#000000">(MaxSimplexEdges)&gt;::type &gt;</text>
</g>
<!-- Node5 -->
<g id="node5" class="node">
<title>Node5</title>
<g id="a_node5"><a xlink:href="classplayrho_1_1ArrayList.html" target="_top" xlink:title="playrho::ArrayList\l\&lt; SimplexEdge, MaxSimplexEdges,\l std::remove_const\&lt; decltype\l(MaxSimplexEdges)\&gt;::type \&gt;">
<polygon fill="#ffffff" stroke="#000000" points="311.9219,-21.5 311.9219,-69.5 486.6084,-69.5 486.6084,-21.5 311.9219,-21.5"/>
<text text-anchor="start" x="319.9219" y="-57.5" font-family="Helvetica,sans-Serif" font-size="10.00" fill="#000000">playrho::ArrayList</text>
<text text-anchor="start" x="319.9219" y="-47.5" font-family="Helvetica,sans-Serif" font-size="10.00" fill="#000000">&lt; SimplexEdge, MaxSimplexEdges,</text>
<text text-anchor="start" x="319.9219" y="-37.5" font-family="Helvetica,sans-Serif" font-size="10.00" fill="#000000"> std::remove_const&lt; decltype</text>
<text text-anchor="middle" x="399.2651" y="-27.5" font-family="Helvetica,sans-Serif" font-size="10.00" fill="#000000">(MaxSimplexEdges)&gt;::type &gt;</text>
</a>
</g>
</g>
<!-- Node4&#45;&gt;Node5 -->
<g id="edge5" class="edge">
<title>Node4&#45;&gt;Node5</title>
<path fill="none" stroke="#ffa500" stroke-dasharray="5,2" d="M129.1617,-56.4672C138.8697,-53.6181 148.9198,-51.1291 158.585,-49.5 208.8602,-41.0259 265.8782,-39.7202 311.7941,-40.6751"/>
<polygon fill="#ffa500" stroke="#ffa500" points="128.119,-53.126 119.5947,-59.4177 130.182,-59.8151 128.119,-53.126"/>
<text text-anchor="start" x="158.585" y="-81.5" font-family="Helvetica,sans-Serif" font-size="10.00" fill="#000000"> &lt; SimplexEdge, MaxSimplex</text>
<text text-anchor="start" x="158.585" y="-71.5" font-family="Helvetica,sans-Serif" font-size="10.00" fill="#000000">Edges, std::remove_const</text>
<text text-anchor="start" x="158.585" y="-61.5" font-family="Helvetica,sans-Serif" font-size="10.00" fill="#000000">&lt; decltype(MaxSimplexEdges)</text>
<text text-anchor="middle" x="226.2534" y="-51.5" font-family="Helvetica,sans-Serif" font-size="10.00" fill="#000000">&gt;::type &gt;</text>
</g>
<!-- Node5&#45;&gt;Node2 -->
<g id="edge4" class="edge">
<title>Node5&#45;&gt;Node2</title>
<path fill="none" stroke="#9a32cd" stroke-dasharray="5,2" d="M497.0264,-58.8548C539.6312,-64.6749 587.9262,-71.2723 623.8194,-76.1755"/>
<polygon fill="#9a32cd" stroke="#9a32cd" points="497.2804,-55.3571 486.8986,-57.4713 496.3329,-62.2926 497.2804,-55.3571"/>
<text text-anchor="middle" x="555.3726" y="-74.5" font-family="Helvetica,sans-Serif" font-size="10.00" fill="#000000"> m_simplexEdges</text>
</g>
<!-- Node6 -->
<g id="node6" class="node">
<title>Node6</title>
<polygon fill="#ffffff" stroke="#bfbfbf" points="659.9863,-37.5 659.9863,-55.5 694.8877,-55.5 694.8877,-37.5 659.9863,-37.5"/>
<text text-anchor="middle" x="677.437" y="-43.5" font-family="Helvetica,sans-Serif" font-size="10.00" fill="#000000">type</text>
</g>
<!-- Node6&#45;&gt;Node1 -->
<g id="edge6" class="edge">
<title>Node6&#45;&gt;Node1</title>
<path fill="none" stroke="#9a32cd" stroke-dasharray="5,2" d="M705.2563,-46.5C732.0958,-46.5 773.8332,-46.5 809.7953,-46.5"/>
<polygon fill="#9a32cd" stroke="#9a32cd" points="705.0651,-43.0001 695.065,-46.5 705.065,-50.0001 705.0651,-43.0001"/>
<text text-anchor="middle" x="770.4146" y="-48.5" font-family="Helvetica,sans-Serif" font-size="10.00" fill="#000000"> iterations</text>
</g>
<!-- Node7 -->
<g id="node7" class="node">
<title>Node7</title>
<polygon fill="#ffffff" stroke="#bfbfbf" points="657.7622,-.5 657.7622,-18.5 697.1118,-18.5 697.1118,-.5 657.7622,-.5"/>
<text text-anchor="middle" x="677.437" y="-6.5" font-family="Helvetica,sans-Serif" font-size="10.00" fill="#000000">State</text>
</g>
<!-- Node7&#45;&gt;Node1 -->
<g id="edge7" class="edge">
<title>Node7&#45;&gt;Node1</title>
<path fill="none" stroke="#9a32cd" stroke-dasharray="5,2" d="M707.438,-14.978C739.9063,-20.9065 792.1981,-30.4547 830.7325,-37.4909"/>
<polygon fill="#9a32cd" stroke="#9a32cd" points="707.7015,-11.4683 697.2354,-13.1151 706.4441,-18.3545 707.7015,-11.4683"/>
<text text-anchor="middle" x="770.4146" y="-32.5" font-family="Helvetica,sans-Serif" font-size="10.00" fill="#000000"> state</text>
</g>
</g>
</svg>
