<?xml version="1.0" encoding="UTF-8" standalone="no"?>
<!DOCTYPE svg PUBLIC "-//W3C//DTD SVG 1.1//EN"
 "http://www.w3.org/Graphics/SVG/1.1/DTD/svg11.dtd">
<!-- Generated by graphviz version 2.40.1 (20161225.0304)
 -->
<!-- Title: playrho::IsSquareMatrix&lt; Vector&lt; Vector&lt; T, M &gt;, M &gt; &gt; Pages: 1 -->
<svg width="130pt" height="102pt"
 viewBox="0.00 0.00 129.60 102.00" xmlns="http://www.w3.org/2000/svg" xmlns:xlink="http://www.w3.org/1999/xlink">
<g id="graph0" class="graph" transform="scale(1 1) rotate(0) translate(4 98)">
<title>playrho::IsSquareMatrix&lt; Vector&lt; Vector&lt; T, M &gt;, M &gt; &gt;</title>
<polygon fill="#ffffff" stroke="transparent" points="-4,4 -4,-98 125.6006,-98 125.6006,4 -4,4"/>
<!-- Node0 -->
<g id="node1" class="node">
<title>Node0</title>
<polygon fill="#bfbfbf" stroke="#000000" points="0,-.5 0,-38.5 121.6006,-38.5 121.6006,-.5 0,-.5"/>
<text text-anchor="start" x="8" y="-26.5" font-family="Helvetica,sans-Serif" font-size="10.00" fill="#000000">playrho::IsSquareMatrix</text>
<text text-anchor="start" x="8" y="-16.5" font-family="Helvetica,sans-Serif" font-size="10.00" fill="#000000">&lt; Vector&lt; Vector&lt; T, M</text>
<text text-anchor="middle" x="60.8003" y="-6.5" font-family="Helvetica,sans-Serif" font-size="10.00" fill="#000000"> &gt;, M &gt; &gt;</text>
</g>
<!-- Node1 -->
<g id="node2" class="node">
<title>Node1</title>
<polygon fill="#ffffff" stroke="#bfbfbf" points="31.9531,-75.5 31.9531,-93.5 89.6475,-93.5 89.6475,-75.5 31.9531,-75.5"/>
<text text-anchor="middle" x="60.8003" y="-81.5" font-family="Helvetica,sans-Serif" font-size="10.00" fill="#000000">true_type</text>
</g>
<!-- Node1&#45;&gt;Node0 -->
<g id="edge1" class="edge">
<title>Node1&#45;&gt;Node0</title>
<path fill="none" stroke="#191970" d="M60.8003,-65.4456C60.8003,-56.9924 60.8003,-47.066 60.8003,-38.6068"/>
<polygon fill="#191970" stroke="#191970" points="57.3004,-65.462 60.8003,-75.462 64.3004,-65.4621 57.3004,-65.462"/>
</g>
</g>
</svg>
