<?xml version="1.0" encoding="UTF-8" standalone="no"?>
<!DOCTYPE svg PUBLIC "-//W3C//DTD SVG 1.1//EN"
 "http://www.w3.org/Graphics/SVG/1.1/DTD/svg11.dtd">
<!-- Generated by graphviz version 2.43.0 (0)
 -->
<!-- Title: Library/include/playrho/d2/AabbTreeWorldBody.hpp Pages: 1 -->
<!--zoomable 509 -->
<svg id="main" version="1.1" xmlns="http://www.w3.org/2000/svg" xmlns:xlink="http://www.w3.org/1999/xlink" xml:space="preserve" onload="init(evt)">
<style type="text/css"><![CDATA[
.edge:hover path { stroke: red; }
.edge:hover polygon { stroke: red; fill: red; }
]]></style>
<script type="text/javascript"><![CDATA[
var edges = document.getElementsByTagName('g');
if (edges && edges.length) {
  for (var i=0;i<edges.length;i++) {
    if (edges[i].id.substr(0,4)=='edge') {
      edges[i].setAttribute('class','edge');
    }
  }
}
]]></script>
        <defs>
                <circle id="rim" cx="0" cy="0" r="7"/>
                <circle id="rim2" cx="0" cy="0" r="3.5"/>
                <g id="zoomPlus">
                        <use xlink:href="#rim" fill="#404040">
                                <set attributeName="fill" to="#808080" begin="zoomplus.mouseover" end="zoomplus.mouseout"/>
                        </use>
                        <path d="M-4,0h8M0,-4v8" fill="none" stroke="white" stroke-width="1.5" pointer-events="none"/>
                </g>
                <g id="zoomMin">
                        <use xlink:href="#rim" fill="#404040">
                                <set attributeName="fill" to="#808080" begin="zoomminus.mouseover" end="zoomminus.mouseout"/>
                        </use>
                        <path d="M-4,0h8" fill="none" stroke="white" stroke-width="1.5" pointer-events="none"/>
                </g>
                <g id="dirArrow">
                        <path fill="none" stroke="white" stroke-width="1.5" d="M0,-3.0v7 M-2.5,-0.5L0,-3.0L2.5,-0.5"/>
                </g>
               <g id="resetDef">
                       <use xlink:href="#rim2" fill="#404040">
                               <set attributeName="fill" to="#808080" begin="reset.mouseover" end="reset.mouseout"/>
                       </use>
               </g>
        </defs>

<script type="text/javascript">
var viewWidth = 834;
var viewHeight = 509;
var sectionId = 'dynsection-0';
</script>
<script xlink:href="svgpan.js"/>
<svg id="graph" class="graph">
<g id="viewport">
<title>Library/include/playrho/d2/AabbTreeWorldBody.hpp</title>
<polygon fill="white" stroke="transparent" points="-4,4 -4,-505 830,-505 830,4 -4,4"/>
<!-- Node1 -->
<g id="node1" class="node">
<title>Node1</title>
<g id="a_node1"><a xlink:title="Declarations of free functions of AabbTreeWorld for bodies.">
<polygon fill="#bfbfbf" stroke="black" points="132,-470.5 132,-500.5 284,-500.5 284,-470.5 132,-470.5"/>
<text text-anchor="start" x="140" y="-488.5" font-family="Helvetica,sans-Serif" font-size="10.00">Library/include/playrho</text>
<text text-anchor="middle" x="208" y="-477.5" font-family="Helvetica,sans-Serif" font-size="10.00">/d2/AabbTreeWorldBody.hpp</text>
</a>
</g>
</g>
<!-- Node2 -->
<g id="node2" class="node">
<title>Node2</title>
<g id="a_node2"><a xlink:title=" ">
<polygon fill="white" stroke="#bfbfbf" points="86.5,-414.5 86.5,-433.5 133.5,-433.5 133.5,-414.5 86.5,-414.5"/>
<text text-anchor="middle" x="110" y="-421.5" font-family="Helvetica,sans-Serif" font-size="10.00">vector</text>
</a>
</g>
</g>
<!-- Node1&#45;&gt;Node2 -->
<g id="edge1" class="edge">
<title>Node1&#45;&gt;Node2</title>
<path fill="none" stroke="midnightblue" d="M184.78,-470.4C169.21,-460.95 148.8,-448.56 133.24,-439.11"/>
<polygon fill="midnightblue" stroke="midnightblue" points="134.62,-435.86 124.26,-433.66 130.99,-441.84 134.62,-435.86"/>
</g>
<!-- Node3 -->
<g id="node3" class="node">
<title>Node3</title>
<g id="a_node3"><a xlink:href="BodyID_8hpp.html" target="_top" xlink:title="Definition of the BodyID alias and closely related code.">
<polygon fill="white" stroke="black" points="151.5,-414.5 151.5,-433.5 264.5,-433.5 264.5,-414.5 151.5,-414.5"/>
<text text-anchor="middle" x="208" y="-421.5" font-family="Helvetica,sans-Serif" font-size="10.00">playrho/BodyID.hpp</text>
</a>
</g>
</g>
<!-- Node1&#45;&gt;Node3 -->
<g id="edge2" class="edge">
<title>Node1&#45;&gt;Node3</title>
<path fill="none" stroke="midnightblue" d="M208,-470.4C208,-462.47 208,-452.46 208,-443.86"/>
<polygon fill="midnightblue" stroke="midnightblue" points="211.5,-443.66 208,-433.66 204.5,-443.66 211.5,-443.66"/>
</g>
<!-- Node27 -->
<g id="node27" class="node">
<title>Node27</title>
<g id="a_node27"><a xlink:href="ShapeID_8hpp.html" target="_top" xlink:title="Definition of the ShapeID alias and closely related code.">
<polygon fill="white" stroke="black" points="283,-414.5 283,-433.5 401,-433.5 401,-414.5 283,-414.5"/>
<text text-anchor="middle" x="342" y="-421.5" font-family="Helvetica,sans-Serif" font-size="10.00">playrho/ShapeID.hpp</text>
</a>
</g>
</g>
<!-- Node1&#45;&gt;Node27 -->
<g id="edge39" class="edge">
<title>Node1&#45;&gt;Node27</title>
<path fill="none" stroke="midnightblue" d="M239.76,-470.4C262.04,-460.51 291.59,-447.38 313.19,-437.79"/>
<polygon fill="midnightblue" stroke="midnightblue" points="314.78,-440.91 322.5,-433.66 311.94,-434.52 314.78,-440.91"/>
</g>
<!-- Node4 -->
<g id="node4" class="node">
<title>Node4</title>
<g id="a_node4"><a xlink:href="IndexingNamedType_8hpp.html" target="_top" xlink:title="Definition of IndexingNamedType class template and related code.">
<polygon fill="white" stroke="black" points="0,-56.5 0,-86.5 164,-86.5 164,-56.5 0,-56.5"/>
<text text-anchor="start" x="8" y="-74.5" font-family="Helvetica,sans-Serif" font-size="10.00">playrho/detail/IndexingNamed</text>
<text text-anchor="middle" x="82" y="-63.5" font-family="Helvetica,sans-Serif" font-size="10.00">Type.hpp</text>
</a>
</g>
</g>
<!-- Node3&#45;&gt;Node4 -->
<g id="edge3" class="edge">
<title>Node3&#45;&gt;Node4</title>
<path fill="none" stroke="midnightblue" d="M151.28,-415.45C124.87,-409.31 94.78,-398.17 74,-378 51.9,-356.55 50,-343.8 50,-313 50,-313 50,-313 50,-199 50,-162.17 62.91,-121.09 72.33,-96.02"/>
<polygon fill="midnightblue" stroke="midnightblue" points="75.62,-97.21 75.98,-86.62 69.1,-94.68 75.62,-97.21"/>
</g>
<!-- Node8 -->
<g id="node8" class="node">
<title>Node8</title>
<g id="a_node8"><a xlink:href="Settings_8hpp.html" target="_top" xlink:title="Types and default settings file.">
<polygon fill="white" stroke="black" points="441.5,-358.5 441.5,-377.5 558.5,-377.5 558.5,-358.5 441.5,-358.5"/>
<text text-anchor="middle" x="500" y="-365.5" font-family="Helvetica,sans-Serif" font-size="10.00">playrho/Settings.hpp</text>
</a>
</g>
</g>
<!-- Node3&#45;&gt;Node8 -->
<g id="edge7" class="edge">
<title>Node3&#45;&gt;Node8</title>
<path fill="none" stroke="midnightblue" d="M254.27,-414.44C305.74,-404.92 388.89,-389.55 444,-379.36"/>
<polygon fill="midnightblue" stroke="midnightblue" points="444.75,-382.78 453.95,-377.52 443.48,-375.89 444.75,-382.78"/>
</g>
<!-- Node5 -->
<g id="node5" class="node">
<title>Node5</title>
<g id="a_node5"><a xlink:title=" ">
<polygon fill="white" stroke="#bfbfbf" points="59.5,-0.5 59.5,-19.5 104.5,-19.5 104.5,-0.5 59.5,-0.5"/>
<text text-anchor="middle" x="82" y="-7.5" font-family="Helvetica,sans-Serif" font-size="10.00">utility</text>
</a>
</g>
</g>
<!-- Node4&#45;&gt;Node5 -->
<g id="edge4" class="edge">
<title>Node4&#45;&gt;Node5</title>
<path fill="none" stroke="midnightblue" d="M82,-56.4C82,-48.47 82,-38.46 82,-29.86"/>
<polygon fill="midnightblue" stroke="midnightblue" points="85.5,-29.66 82,-19.66 78.5,-29.66 85.5,-29.66"/>
</g>
<!-- Node6 -->
<g id="node6" class="node">
<title>Node6</title>
<g id="a_node6"><a xlink:title=" ">
<polygon fill="white" stroke="#bfbfbf" points="122.5,-0.5 122.5,-19.5 187.5,-19.5 187.5,-0.5 122.5,-0.5"/>
<text text-anchor="middle" x="155" y="-7.5" font-family="Helvetica,sans-Serif" font-size="10.00">functional</text>
</a>
</g>
</g>
<!-- Node4&#45;&gt;Node6 -->
<g id="edge5" class="edge">
<title>Node4&#45;&gt;Node6</title>
<path fill="none" stroke="midnightblue" d="M99.3,-56.4C110.45,-47.31 124.95,-35.49 136.36,-26.19"/>
<polygon fill="midnightblue" stroke="midnightblue" points="138.84,-28.69 144.38,-19.66 134.42,-23.26 138.84,-28.69"/>
</g>
<!-- Node7 -->
<g id="node7" class="node">
<title>Node7</title>
<g id="a_node7"><a xlink:title=" ">
<polygon fill="white" stroke="#bfbfbf" points="339.5,-0.5 339.5,-19.5 408.5,-19.5 408.5,-0.5 339.5,-0.5"/>
<text text-anchor="middle" x="374" y="-7.5" font-family="Helvetica,sans-Serif" font-size="10.00">type_traits</text>
</a>
</g>
</g>
<!-- Node4&#45;&gt;Node7 -->
<g id="edge6" class="edge">
<title>Node4&#45;&gt;Node7</title>
<path fill="none" stroke="midnightblue" d="M150.96,-56.48C198.39,-46.83 263.1,-33.65 329.59,-20.08"/>
<polygon fill="midnightblue" stroke="midnightblue" points="330.32,-23.51 339.41,-18.08 328.92,-16.65 330.32,-23.51"/>
</g>
<!-- Node9 -->
<g id="node9" class="node">
<title>Node9</title>
<g id="a_node9"><a xlink:title=" ">
<polygon fill="white" stroke="#bfbfbf" points="574.5,-302.5 574.5,-321.5 627.5,-321.5 627.5,-302.5 574.5,-302.5"/>
<text text-anchor="middle" x="601" y="-309.5" font-family="Helvetica,sans-Serif" font-size="10.00">cstddef</text>
</a>
</g>
</g>
<!-- Node8&#45;&gt;Node9 -->
<g id="edge8" class="edge">
<title>Node8&#45;&gt;Node9</title>
<path fill="none" stroke="midnightblue" d="M516.23,-358.32C532.35,-349.7 557.3,-336.36 575.96,-326.39"/>
<polygon fill="midnightblue" stroke="midnightblue" points="577.64,-329.46 584.81,-321.65 574.34,-323.28 577.64,-329.46"/>
</g>
<!-- Node10 -->
<g id="node10" class="node">
<title>Node10</title>
<g id="a_node10"><a xlink:title=" ">
<polygon fill="white" stroke="#bfbfbf" points="646,-302.5 646,-321.5 698,-321.5 698,-302.5 646,-302.5"/>
<text text-anchor="middle" x="672" y="-309.5" font-family="Helvetica,sans-Serif" font-size="10.00">cassert</text>
</a>
</g>
</g>
<!-- Node8&#45;&gt;Node10 -->
<g id="edge9" class="edge">
<title>Node8&#45;&gt;Node10</title>
<path fill="none" stroke="midnightblue" d="M527.25,-358.44C556.78,-349.17 604.02,-334.34 636.45,-324.16"/>
<polygon fill="midnightblue" stroke="midnightblue" points="637.51,-327.5 646,-321.16 635.41,-320.82 637.51,-327.5"/>
</g>
<!-- Node11 -->
<g id="node11" class="node">
<title>Node11</title>
<g id="a_node11"><a xlink:title=" ">
<polygon fill="white" stroke="#bfbfbf" points="716,-302.5 716,-321.5 760,-321.5 760,-302.5 716,-302.5"/>
<text text-anchor="middle" x="738" y="-309.5" font-family="Helvetica,sans-Serif" font-size="10.00">cfloat</text>
</a>
</g>
</g>
<!-- Node8&#45;&gt;Node11 -->
<g id="edge10" class="edge">
<title>Node8&#45;&gt;Node11</title>
<path fill="none" stroke="midnightblue" d="M543.42,-358.46C583.31,-350.42 644.27,-337.62 705.82,-322.17"/>
<polygon fill="midnightblue" stroke="midnightblue" points="706.86,-325.52 715.7,-319.67 705.15,-318.73 706.86,-325.52"/>
</g>
<!-- Node12 -->
<g id="node12" class="node">
<title>Node12</title>
<g id="a_node12"><a xlink:title=" ">
<polygon fill="white" stroke="#bfbfbf" points="712.5,-246.5 712.5,-265.5 759.5,-265.5 759.5,-246.5 712.5,-246.5"/>
<text text-anchor="middle" x="736" y="-253.5" font-family="Helvetica,sans-Serif" font-size="10.00">cmath</text>
</a>
</g>
</g>
<!-- Node8&#45;&gt;Node12 -->
<g id="edge11" class="edge">
<title>Node8&#45;&gt;Node12</title>
<path fill="none" stroke="midnightblue" d="M506.27,-358.4C516.94,-344.4 540,-316.79 566,-302 618.04,-272.38 640.01,-281.27 702.29,-266.06"/>
<polygon fill="midnightblue" stroke="midnightblue" points="703.4,-269.39 712.21,-263.52 701.66,-262.61 703.4,-269.39"/>
</g>
<!-- Node13 -->
<g id="node13" class="node">
<title>Node13</title>
<g id="a_node13"><a xlink:title=" ">
<polygon fill="white" stroke="#bfbfbf" points="701,-190.5 701,-209.5 751,-209.5 751,-190.5 701,-190.5"/>
<text text-anchor="middle" x="726" y="-197.5" font-family="Helvetica,sans-Serif" font-size="10.00">cstdint</text>
</a>
</g>
</g>
<!-- Node8&#45;&gt;Node13 -->
<g id="edge12" class="edge">
<title>Node8&#45;&gt;Node13</title>
<path fill="none" stroke="midnightblue" d="M558.76,-365.71C629.65,-362.77 742.61,-353.17 769,-322 790.83,-296.22 781.57,-277.35 769,-246 764.32,-234.33 755.01,-223.97 746.24,-216.14"/>
<polygon fill="midnightblue" stroke="midnightblue" points="748.42,-213.4 738.5,-209.7 743.95,-218.78 748.42,-213.4"/>
</g>
<!-- Node14 -->
<g id="node14" class="node">
<title>Node14</title>
<g id="a_node14"><a xlink:title=" ">
<polygon fill="white" stroke="#bfbfbf" points="610,-0.5 610,-19.5 674,-19.5 674,-0.5 610,-0.5"/>
<text text-anchor="middle" x="642" y="-7.5" font-family="Helvetica,sans-Serif" font-size="10.00">algorithm</text>
</a>
</g>
</g>
<!-- Node8&#45;&gt;Node14 -->
<g id="edge13" class="edge">
<title>Node8&#45;&gt;Node14</title>
<path fill="none" stroke="midnightblue" d="M558.52,-363.74C631.65,-358.68 751.62,-346.8 788,-322 815.65,-303.15 826,-290.46 826,-257 826,-257 826,-257 826,-137.5 826,-68.89 738.06,-34.69 683.77,-20.11"/>
<polygon fill="midnightblue" stroke="midnightblue" points="684.61,-16.71 674.05,-17.61 682.86,-23.49 684.61,-16.71"/>
</g>
<!-- Node15 -->
<g id="node15" class="node">
<title>Node15</title>
<g id="a_node15"><a xlink:href="RealConstants_8hpp.html" target="_top" xlink:title="Definitions file for constant expressions of type Real.">
<polygon fill="white" stroke="black" points="154,-246.5 154,-265.5 302,-265.5 302,-246.5 154,-246.5"/>
<text text-anchor="middle" x="228" y="-253.5" font-family="Helvetica,sans-Serif" font-size="10.00">playrho/RealConstants.hpp</text>
</a>
</g>
</g>
<!-- Node8&#45;&gt;Node15 -->
<g id="edge14" class="edge">
<title>Node8&#45;&gt;Node15</title>
<path fill="none" stroke="midnightblue" d="M441.41,-362.15C379.47,-355.98 286.93,-343.46 259,-322 244.31,-310.71 236.24,-290.7 232.04,-275.86"/>
<polygon fill="midnightblue" stroke="midnightblue" points="235.34,-274.61 229.55,-265.74 228.55,-276.29 235.34,-274.61"/>
</g>
<!-- Node18 -->
<g id="node18" class="node">
<title>Node18</title>
<g id="a_node18"><a xlink:href="Templates_8hpp.html" target="_top" xlink:title="Definitions of miscellaneous template related code.">
<polygon fill="white" stroke="black" points="186,-129 186,-148 314,-148 314,-129 186,-129"/>
<text text-anchor="middle" x="250" y="-136" font-family="Helvetica,sans-Serif" font-size="10.00">playrho/Templates.hpp</text>
</a>
</g>
</g>
<!-- Node8&#45;&gt;Node18 -->
<g id="edge25" class="edge">
<title>Node8&#45;&gt;Node18</title>
<path fill="none" stroke="midnightblue" d="M441.4,-363.05C387.43,-357.99 305.85,-346.71 239,-322 193.39,-305.14 169.03,-308.28 145,-266 119.07,-220.36 184.59,-175.01 223.54,-153.09"/>
<polygon fill="midnightblue" stroke="midnightblue" points="225.7,-155.89 232.8,-148.03 222.35,-149.75 225.7,-155.89"/>
</g>
<!-- Node22 -->
<g id="node22" class="node">
<title>Node22</title>
<g id="a_node22"><a xlink:href="Units_8hpp.html" target="_top" xlink:title="Declarations for physical units possibly backed by strong types.">
<polygon fill="white" stroke="black" points="268.5,-302.5 268.5,-321.5 371.5,-321.5 371.5,-302.5 268.5,-302.5"/>
<text text-anchor="middle" x="320" y="-309.5" font-family="Helvetica,sans-Serif" font-size="10.00">playrho/Units.hpp</text>
</a>
</g>
</g>
<!-- Node8&#45;&gt;Node22 -->
<g id="edge26" class="edge">
<title>Node8&#45;&gt;Node22</title>
<path fill="none" stroke="midnightblue" d="M471.48,-358.44C440.93,-349.28 392.29,-334.69 358.4,-324.52"/>
<polygon fill="midnightblue" stroke="midnightblue" points="358.97,-321.04 348.39,-321.52 356.96,-327.74 358.97,-321.04"/>
</g>
<!-- Node25 -->
<g id="node25" class="node">
<title>Node25</title>
<g id="a_node25"><a xlink:href="WiderType_8hpp.html" target="_top" xlink:title="Definition of the WiderType alias template.">
<polygon fill="white" stroke="black" points="390,-302.5 390,-321.5 518,-321.5 518,-302.5 390,-302.5"/>
<text text-anchor="middle" x="454" y="-309.5" font-family="Helvetica,sans-Serif" font-size="10.00">playrho/WiderType.hpp</text>
</a>
</g>
</g>
<!-- Node8&#45;&gt;Node25 -->
<g id="edge34" class="edge">
<title>Node8&#45;&gt;Node25</title>
<path fill="none" stroke="midnightblue" d="M492.4,-358.08C485.77,-350.3 475.98,-338.8 467.94,-329.37"/>
<polygon fill="midnightblue" stroke="midnightblue" points="470.6,-327.09 461.45,-321.75 465.27,-331.63 470.6,-327.09"/>
</g>
<!-- Node16 -->
<g id="node16" class="node">
<title>Node16</title>
<g id="a_node16"><a xlink:href="Defines_8hpp.html" target="_top" xlink:title="Miscellaneous C&#45;preprocessor definitions.">
<polygon fill="white" stroke="black" points="489,-190.5 489,-209.5 603,-209.5 603,-190.5 489,-190.5"/>
<text text-anchor="middle" x="546" y="-197.5" font-family="Helvetica,sans-Serif" font-size="10.00">playrho/Defines.hpp</text>
</a>
</g>
</g>
<!-- Node15&#45;&gt;Node16 -->
<g id="edge15" class="edge">
<title>Node15&#45;&gt;Node16</title>
<path fill="none" stroke="midnightblue" d="M278.39,-246.44C334.68,-236.89 425.75,-221.42 485.76,-211.23"/>
<polygon fill="midnightblue" stroke="midnightblue" points="486.57,-214.64 495.85,-209.52 485.4,-207.74 486.57,-214.64"/>
</g>
<!-- Node17 -->
<g id="node17" class="node">
<title>Node17</title>
<g id="a_node17"><a xlink:href="Real_8hpp.html" target="_top" xlink:title="Real number definition file.">
<polygon fill="white" stroke="black" points="190.5,-190.5 190.5,-209.5 289.5,-209.5 289.5,-190.5 190.5,-190.5"/>
<text text-anchor="middle" x="240" y="-197.5" font-family="Helvetica,sans-Serif" font-size="10.00">playrho/Real.hpp</text>
</a>
</g>
</g>
<!-- Node15&#45;&gt;Node17 -->
<g id="edge16" class="edge">
<title>Node15&#45;&gt;Node17</title>
<path fill="none" stroke="midnightblue" d="M229.98,-246.08C231.57,-238.93 233.86,-228.64 235.85,-219.69"/>
<polygon fill="midnightblue" stroke="midnightblue" points="239.3,-220.27 238.06,-209.75 232.47,-218.75 239.3,-220.27"/>
</g>
<!-- Node17&#45;&gt;Node18 -->
<g id="edge17" class="edge">
<title>Node17&#45;&gt;Node18</title>
<path fill="none" stroke="midnightblue" d="M241.43,-190.48C242.84,-182.08 245.05,-168.98 246.86,-158.16"/>
<polygon fill="midnightblue" stroke="midnightblue" points="250.36,-158.45 248.57,-148.01 243.46,-157.29 250.36,-158.45"/>
</g>
<!-- Node19 -->
<g id="node19" class="node">
<title>Node19</title>
<g id="a_node19"><a xlink:href="detail_2Templates_8hpp.html" target="_top" xlink:title="Low&#45;level declarations for general class &amp; function templates.">
<polygon fill="white" stroke="black" points="182,-62 182,-81 340,-81 340,-62 182,-62"/>
<text text-anchor="middle" x="261" y="-69" font-family="Helvetica,sans-Serif" font-size="10.00">playrho/detail/Templates.hpp</text>
</a>
</g>
</g>
<!-- Node18&#45;&gt;Node19 -->
<g id="edge18" class="edge">
<title>Node18&#45;&gt;Node19</title>
<path fill="none" stroke="midnightblue" d="M251.48,-128.73C253.1,-119.18 255.73,-103.62 257.82,-91.28"/>
<polygon fill="midnightblue" stroke="midnightblue" points="261.32,-91.57 259.54,-81.13 254.42,-90.4 261.32,-91.57"/>
</g>
<!-- Node19&#45;&gt;Node5 -->
<g id="edge24" class="edge">
<title>Node19&#45;&gt;Node5</title>
<path fill="none" stroke="midnightblue" d="M235.35,-61.98C203.5,-51.39 149.14,-33.32 114.43,-21.78"/>
<polygon fill="midnightblue" stroke="midnightblue" points="115.36,-18.4 104.76,-18.57 113.15,-25.04 115.36,-18.4"/>
</g>
<!-- Node19&#45;&gt;Node6 -->
<g id="edge20" class="edge">
<title>Node19&#45;&gt;Node6</title>
<path fill="none" stroke="midnightblue" d="M245.81,-61.98C228.34,-52.17 199.42,-35.93 178.92,-24.42"/>
<polygon fill="midnightblue" stroke="midnightblue" points="180.59,-21.35 170.16,-19.51 177.17,-27.46 180.59,-21.35"/>
</g>
<!-- Node19&#45;&gt;Node7 -->
<g id="edge23" class="edge">
<title>Node19&#45;&gt;Node7</title>
<path fill="none" stroke="midnightblue" d="M277.19,-61.98C295.9,-52.12 326.92,-35.79 348.8,-24.27"/>
<polygon fill="midnightblue" stroke="midnightblue" points="350.62,-27.27 357.84,-19.51 347.36,-21.07 350.62,-27.27"/>
</g>
<!-- Node19&#45;&gt;Node14 -->
<g id="edge19" class="edge">
<title>Node19&#45;&gt;Node14</title>
<path fill="none" stroke="midnightblue" d="M315.59,-61.98C392.31,-49.99 530.39,-28.43 599.78,-17.59"/>
<polygon fill="midnightblue" stroke="midnightblue" points="600.57,-21.01 609.91,-16.01 599.49,-14.1 600.57,-21.01"/>
</g>
<!-- Node20 -->
<g id="node20" class="node">
<title>Node20</title>
<g id="a_node20"><a xlink:title=" ">
<polygon fill="white" stroke="#bfbfbf" points="205.5,-0.5 205.5,-19.5 258.5,-19.5 258.5,-0.5 205.5,-0.5"/>
<text text-anchor="middle" x="232" y="-7.5" font-family="Helvetica,sans-Serif" font-size="10.00">iterator</text>
</a>
</g>
</g>
<!-- Node19&#45;&gt;Node20 -->
<g id="edge21" class="edge">
<title>Node19&#45;&gt;Node20</title>
<path fill="none" stroke="midnightblue" d="M256.85,-61.98C252.62,-53.32 245.96,-39.65 240.6,-28.65"/>
<polygon fill="midnightblue" stroke="midnightblue" points="243.67,-26.96 236.15,-19.51 237.38,-30.03 243.67,-26.96"/>
</g>
<!-- Node21 -->
<g id="node21" class="node">
<title>Node21</title>
<g id="a_node21"><a xlink:title=" ">
<polygon fill="white" stroke="#bfbfbf" points="277,-0.5 277,-19.5 321,-19.5 321,-0.5 277,-0.5"/>
<text text-anchor="middle" x="299" y="-7.5" font-family="Helvetica,sans-Serif" font-size="10.00">limits</text>
</a>
</g>
</g>
<!-- Node19&#45;&gt;Node21 -->
<g id="edge22" class="edge">
<title>Node19&#45;&gt;Node21</title>
<path fill="none" stroke="midnightblue" d="M266.44,-61.98C272.09,-53.14 281.06,-39.09 288.16,-27.98"/>
<polygon fill="midnightblue" stroke="midnightblue" points="291.13,-29.82 293.57,-19.51 285.23,-26.05 291.13,-29.82"/>
</g>
<!-- Node22&#45;&gt;Node7 -->
<g id="edge28" class="edge">
<title>Node22&#45;&gt;Node7</title>
<path fill="none" stroke="midnightblue" d="M326.67,-302.44C339.86,-284.62 368,-241.84 368,-201 368,-201 368,-201 368,-137.5 368,-99.16 370.78,-54.36 372.56,-29.68"/>
<polygon fill="midnightblue" stroke="midnightblue" points="376.06,-29.82 373.31,-19.58 369.08,-29.3 376.06,-29.82"/>
</g>
<!-- Node22&#45;&gt;Node12 -->
<g id="edge27" class="edge">
<title>Node22&#45;&gt;Node12</title>
<path fill="none" stroke="midnightblue" d="M371.57,-303.26C374.76,-302.82 377.92,-302.4 381,-302 520.6,-283.9 559.81,-292.61 702.32,-265.84"/>
<polygon fill="midnightblue" stroke="midnightblue" points="703.14,-269.24 712.31,-263.93 701.83,-262.37 703.14,-269.24"/>
</g>
<!-- Node22&#45;&gt;Node15 -->
<g id="edge29" class="edge">
<title>Node22&#45;&gt;Node15</title>
<path fill="none" stroke="midnightblue" d="M305.22,-302.32C290.73,-293.82 268.43,-280.73 251.51,-270.8"/>
<polygon fill="midnightblue" stroke="midnightblue" points="253.14,-267.7 242.74,-265.65 249.6,-273.74 253.14,-267.7"/>
</g>
<!-- Node22&#45;&gt;Node18 -->
<g id="edge30" class="edge">
<title>Node22&#45;&gt;Node18</title>
<path fill="none" stroke="midnightblue" d="M320.2,-302.5C320.34,-281.89 318.55,-228.16 298,-190 290.76,-176.56 278.99,-164.09 268.91,-154.91"/>
<polygon fill="midnightblue" stroke="midnightblue" points="271.16,-152.22 261.32,-148.29 266.56,-157.5 271.16,-152.22"/>
</g>
<!-- Node23 -->
<g id="node23" class="node">
<title>Node23</title>
<g id="a_node23"><a xlink:href="to__underlying_8hpp.html" target="_top" xlink:title="Definition of to_underlying function template.">
<polygon fill="white" stroke="black" points="396,-246.5 396,-265.5 540,-265.5 540,-246.5 396,-246.5"/>
<text text-anchor="middle" x="468" y="-253.5" font-family="Helvetica,sans-Serif" font-size="10.00">playrho/to_underlying.hpp</text>
</a>
</g>
</g>
<!-- Node22&#45;&gt;Node23 -->
<g id="edge31" class="edge">
<title>Node22&#45;&gt;Node23</title>
<path fill="none" stroke="midnightblue" d="M343.45,-302.44C368.13,-293.44 407.19,-279.19 434.98,-269.05"/>
<polygon fill="midnightblue" stroke="midnightblue" points="436.46,-272.23 444.66,-265.52 434.06,-265.66 436.46,-272.23"/>
</g>
<!-- Node24 -->
<g id="node24" class="node">
<title>Node24</title>
<g id="a_node24"><a xlink:href="underlying__type_8hpp.html" target="_top" xlink:title="Definition of underlying_type trait class and related code.">
<polygon fill="white" stroke="black" points="396.5,-123.5 396.5,-153.5 535.5,-153.5 535.5,-123.5 396.5,-123.5"/>
<text text-anchor="start" x="404.5" y="-141.5" font-family="Helvetica,sans-Serif" font-size="10.00">playrho/detail/underlying</text>
<text text-anchor="middle" x="466" y="-130.5" font-family="Helvetica,sans-Serif" font-size="10.00">_type.hpp</text>
</a>
</g>
</g>
<!-- Node23&#45;&gt;Node24 -->
<g id="edge32" class="edge">
<title>Node23&#45;&gt;Node24</title>
<path fill="none" stroke="midnightblue" d="M467.85,-246.32C467.55,-228.97 466.87,-189.46 466.42,-163.66"/>
<polygon fill="midnightblue" stroke="midnightblue" points="469.92,-163.48 466.24,-153.55 462.92,-163.6 469.92,-163.48"/>
</g>
<!-- Node24&#45;&gt;Node7 -->
<g id="edge33" class="edge">
<title>Node24&#45;&gt;Node7</title>
<path fill="none" stroke="midnightblue" d="M455.8,-123.48C438.8,-100.1 404.73,-53.25 386.38,-28.02"/>
<polygon fill="midnightblue" stroke="midnightblue" points="389.1,-25.82 380.39,-19.79 383.44,-29.93 389.1,-25.82"/>
</g>
<!-- Node26 -->
<g id="node26" class="node">
<title>Node26</title>
<g id="a_node26"><a xlink:href="Wider_8hpp.html" target="_top" xlink:title="Definition of the Wider class template and specializations.">
<polygon fill="white" stroke="black" points="558,-246.5 558,-265.5 694,-265.5 694,-246.5 558,-246.5"/>
<text text-anchor="middle" x="626" y="-253.5" font-family="Helvetica,sans-Serif" font-size="10.00">playrho/detail/Wider.hpp</text>
</a>
</g>
</g>
<!-- Node25&#45;&gt;Node26 -->
<g id="edge35" class="edge">
<title>Node25&#45;&gt;Node26</title>
<path fill="none" stroke="midnightblue" d="M481.25,-302.44C510.44,-293.28 556.92,-278.69 589.31,-268.52"/>
<polygon fill="midnightblue" stroke="midnightblue" points="590.38,-271.85 598.87,-265.52 588.28,-265.17 590.38,-271.85"/>
</g>
<!-- Node26&#45;&gt;Node7 -->
<g id="edge37" class="edge">
<title>Node26&#45;&gt;Node7</title>
<path fill="none" stroke="midnightblue" d="M625.69,-246.47C624.89,-233.52 622.05,-208.45 612,-190 565.2,-104.09 457.56,-47.38 404.58,-23.65"/>
<polygon fill="midnightblue" stroke="midnightblue" points="405.92,-20.41 395.35,-19.6 403.1,-26.82 405.92,-20.41"/>
</g>
<!-- Node26&#45;&gt;Node13 -->
<g id="edge36" class="edge">
<title>Node26&#45;&gt;Node13</title>
<path fill="none" stroke="midnightblue" d="M642.07,-246.32C657.96,-237.74 682.51,-224.49 700.96,-214.52"/>
<polygon fill="midnightblue" stroke="midnightblue" points="702.84,-217.49 709.97,-209.65 699.51,-211.33 702.84,-217.49"/>
</g>
<!-- Node26&#45;&gt;Node16 -->
<g id="edge38" class="edge">
<title>Node26&#45;&gt;Node16</title>
<path fill="none" stroke="midnightblue" d="M613.15,-246.32C600.78,-237.98 581.87,-225.21 567.26,-215.35"/>
<polygon fill="midnightblue" stroke="midnightblue" points="569.07,-212.35 558.82,-209.65 565.15,-218.15 569.07,-212.35"/>
</g>
<!-- Node27&#45;&gt;Node4 -->
<g id="edge40" class="edge">
<title>Node27&#45;&gt;Node4</title>
<path fill="none" stroke="midnightblue" d="M302.31,-414.46C230.88,-397.94 88,-359.13 88,-313 88,-313 88,-313 88,-199 88,-163.38 85.6,-122.17 83.83,-96.72"/>
<polygon fill="midnightblue" stroke="midnightblue" points="87.31,-96.25 83.1,-86.53 80.33,-96.75 87.31,-96.25"/>
</g>
<!-- Node27&#45;&gt;Node8 -->
<g id="edge41" class="edge">
<title>Node27&#45;&gt;Node8</title>
<path fill="none" stroke="midnightblue" d="M367.04,-414.44C393.62,-405.36 435.81,-390.94 465.52,-380.78"/>
<polygon fill="midnightblue" stroke="midnightblue" points="466.75,-384.06 475.08,-377.52 464.49,-377.44 466.75,-384.06"/>
</g>
</g>
</svg>
        <g id="navigator" transform="translate(0 0)" fill="#404254">
                <rect fill="#f2f5e9" fill-opacity="0.5" stroke="#606060" stroke-width=".5" x="0" y="0" width="60" height="60"/>
                <use id="zoomplus" xlink:href="#zoomPlus" x="17" y="9" onmousedown="handleZoom(evt,'in')"/>
                <use id="zoomminus" xlink:href="#zoomMin" x="42" y="9" onmousedown="handleZoom(evt,'out')"/>
                <use id="reset" xlink:href="#resetDef" x="30" y="36" onmousedown="handleReset()"/>
                <g id="arrowUp" xlink:href="#dirArrow" transform="translate(30 24)" onmousedown="handlePan(0,-1)">
                  <use xlink:href="#rim" fill="#404040">
                        <set attributeName="fill" to="#808080" begin="arrowUp.mouseover" end="arrowUp.mouseout"/>
                  </use>
                  <path fill="none" stroke="white" stroke-width="1.5" d="M0,-3.0v7 M-2.5,-0.5L0,-3.0L2.5,-0.5"/>
                </g>
                <g id="arrowRight" xlink:href="#dirArrow" transform="rotate(90) translate(36 -43)" onmousedown="handlePan(1,0)">
                  <use xlink:href="#rim" fill="#404040">
                        <set attributeName="fill" to="#808080" begin="arrowRight.mouseover" end="arrowRight.mouseout"/>
                  </use>
                  <path fill="none" stroke="white" stroke-width="1.5" d="M0,-3.0v7 M-2.5,-0.5L0,-3.0L2.5,-0.5"/>
                </g>
                <g id="arrowDown" xlink:href="#dirArrow" transform="rotate(180) translate(-30 -48)" onmousedown="handlePan(0,1)">
                  <use xlink:href="#rim" fill="#404040">
                        <set attributeName="fill" to="#808080" begin="arrowDown.mouseover" end="arrowDown.mouseout"/>
                  </use>
                  <path fill="none" stroke="white" stroke-width="1.5" d="M0,-3.0v7 M-2.5,-0.5L0,-3.0L2.5,-0.5"/>
                </g>
                <g id="arrowLeft" xlink:href="#dirArrow" transform="rotate(270) translate(-36 17)" onmousedown="handlePan(-1,0)">
                  <use xlink:href="#rim" fill="#404040">
                        <set attributeName="fill" to="#808080" begin="arrowLeft.mouseover" end="arrowLeft.mouseout"/>
                  </use>
                  <path fill="none" stroke="white" stroke-width="1.5" d="M0,-3.0v7 M-2.5,-0.5L0,-3.0L2.5,-0.5"/>
                </g>
        </g>
        <svg viewBox="0 0 15 15" width="100%" height="30px" preserveAspectRatio="xMaxYMin meet">
         <g id="arrow_out" transform="scale(0.3 0.3)">
          <a xlink:href="AabbTreeWorldBody_8hpp__incl_org.svg" target="_base">
           <rect id="button" ry="5" rx="5" y="6" x="6" height="38" width="38"
                fill="#f2f5e9" fill-opacity="0.5" stroke="#606060" stroke-width="1.0"/>
           <path id="arrow"
             d="M 11.500037,31.436501 C 11.940474,20.09759 22.043105,11.32322 32.158766,21.979434 L 37.068811,17.246167 C 37.068811,17.246167 37.088388,32 37.088388,32 L 22.160133,31.978069 C 22.160133,31.978069 26.997745,27.140456 26.997745,27.140456 C 18.528582,18.264221 13.291696,25.230495 11.500037,31.436501 z"
             style="fill:#404040;"/>
          </a>
         </g>
        </svg>
</svg>
