<?xml version="1.0" encoding="UTF-8" standalone="no"?>
<!DOCTYPE svg PUBLIC "-//W3C//DTD SVG 1.1//EN"
 "http://www.w3.org/Graphics/SVG/1.1/DTD/svg11.dtd">
<!-- Generated by graphviz version 2.43.0 (0)
 -->
<!-- Title: Library/include/playrho/d2/Acceleration.hpp Pages: 1 -->
<svg width="1526pt" height="498pt"
 viewBox="0.00 0.00 1526.35 498.00" xmlns="http://www.w3.org/2000/svg" xmlns:xlink="http://www.w3.org/1999/xlink">
<g id="graph0" class="graph" transform="scale(1 1) rotate(0) translate(4 494)">
<title>Library/include/playrho/d2/Acceleration.hpp</title>
<polygon fill="white" stroke="transparent" points="-4,4 -4,-494 1522.35,-494 1522.35,4 -4,4"/>
<!-- Node1 -->
<g id="node1" class="node">
<title>Node1</title>
<g id="a_node1"><a xlink:title="Definition of the Acceleration class and closely related code.">
<polygon fill="#bfbfbf" stroke="black" points="588.35,-459.5 588.35,-489.5 716.35,-489.5 716.35,-459.5 588.35,-459.5"/>
<text text-anchor="start" x="596.35" y="-477.5" font-family="Helvetica,sans-Serif" font-size="10.00">Library/include/playrho</text>
<text text-anchor="middle" x="652.35" y="-466.5" font-family="Helvetica,sans-Serif" font-size="10.00">/d2/Acceleration.hpp</text>
</a>
</g>
</g>
<!-- Node2 -->
<g id="node2" class="node">
<title>Node2</title>
<g id="a_node2"><a xlink:href="Templates_8hpp.html" target="_top" xlink:title="Definitions of miscellaneous template related code.">
<polygon fill="white" stroke="black" points="573.35,-123.5 573.35,-142.5 701.35,-142.5 701.35,-123.5 573.35,-123.5"/>
<text text-anchor="middle" x="637.35" y="-130.5" font-family="Helvetica,sans-Serif" font-size="10.00">playrho/Templates.hpp</text>
</a>
</g>
</g>
<!-- Node1&#45;&gt;Node2 -->
<g id="edge1" class="edge">
<title>Node1&#45;&gt;Node2</title>
<path fill="none" stroke="midnightblue" d="M643.44,-459.16C631.11,-437.91 610.35,-396.41 610.35,-358 610.35,-358 610.35,-358 610.35,-244 610.35,-210.86 622.05,-173.68 630.05,-152.14"/>
<polygon fill="midnightblue" stroke="midnightblue" points="633.37,-153.25 633.71,-142.66 626.84,-150.73 633.37,-153.25"/>
</g>
<!-- Node9 -->
<g id="node9" class="node">
<title>Node9</title>
<g id="a_node9"><a xlink:href="Vector2_8hpp.html" target="_top" xlink:title="Definition of the Vector2 alias template and closely related code.">
<polygon fill="white" stroke="black" points="638.35,-403.5 638.35,-422.5 752.35,-422.5 752.35,-403.5 638.35,-403.5"/>
<text text-anchor="middle" x="695.35" y="-410.5" font-family="Helvetica,sans-Serif" font-size="10.00">playrho/Vector2.hpp</text>
</a>
</g>
</g>
<!-- Node1&#45;&gt;Node9 -->
<g id="edge9" class="edge">
<title>Node1&#45;&gt;Node9</title>
<path fill="none" stroke="midnightblue" d="M662.54,-459.4C668.72,-450.84 676.65,-439.87 683.17,-430.86"/>
<polygon fill="midnightblue" stroke="midnightblue" points="686.07,-432.81 689.09,-422.66 680.4,-428.71 686.07,-432.81"/>
</g>
<!-- Node3 -->
<g id="node3" class="node">
<title>Node3</title>
<g id="a_node3"><a xlink:title=" ">
<polygon fill="white" stroke="#bfbfbf" points="612.85,-62 612.85,-81 661.85,-81 661.85,-62 612.85,-62"/>
<text text-anchor="middle" x="637.35" y="-69" font-family="Helvetica,sans-Serif" font-size="10.00">cstdlib</text>
</a>
</g>
</g>
<!-- Node2&#45;&gt;Node3 -->
<g id="edge2" class="edge">
<title>Node2&#45;&gt;Node3</title>
<path fill="none" stroke="midnightblue" d="M637.35,-123.48C637.35,-115.08 637.35,-101.98 637.35,-91.16"/>
<polygon fill="midnightblue" stroke="midnightblue" points="640.85,-91.01 637.35,-81.01 633.85,-91.01 640.85,-91.01"/>
</g>
<!-- Node4 -->
<g id="node4" class="node">
<title>Node4</title>
<g id="a_node4"><a xlink:title=" ">
<polygon fill="white" stroke="#bfbfbf" points="1021.85,-0.5 1021.85,-19.5 1090.85,-19.5 1090.85,-0.5 1021.85,-0.5"/>
<text text-anchor="middle" x="1056.35" y="-7.5" font-family="Helvetica,sans-Serif" font-size="10.00">type_traits</text>
</a>
</g>
</g>
<!-- Node2&#45;&gt;Node4 -->
<g id="edge3" class="edge">
<title>Node2&#45;&gt;Node4</title>
<path fill="none" stroke="midnightblue" d="M666.81,-123.49C740.65,-102.17 933.64,-46.44 1017.03,-22.36"/>
<polygon fill="midnightblue" stroke="midnightblue" points="1018,-25.72 1026.64,-19.58 1016.06,-18.99 1018,-25.72"/>
</g>
<!-- Node5 -->
<g id="node5" class="node">
<title>Node5</title>
<g id="a_node5"><a xlink:href="detail_2Templates_8hpp.html" target="_top" xlink:title="Low&#45;level declarations for general class &amp; function templates.">
<polygon fill="white" stroke="black" points="314.35,-62 314.35,-81 472.35,-81 472.35,-62 314.35,-62"/>
<text text-anchor="middle" x="393.35" y="-69" font-family="Helvetica,sans-Serif" font-size="10.00">playrho/detail/Templates.hpp</text>
</a>
</g>
</g>
<!-- Node2&#45;&gt;Node5 -->
<g id="edge4" class="edge">
<title>Node2&#45;&gt;Node5</title>
<path fill="none" stroke="midnightblue" d="M602.39,-123.48C559.18,-112.94 485.56,-94.99 438.22,-83.44"/>
<polygon fill="midnightblue" stroke="midnightblue" points="438.79,-79.98 428.24,-81.01 437.13,-86.78 438.79,-79.98"/>
</g>
<!-- Node5&#45;&gt;Node4 -->
<g id="edge7" class="edge">
<title>Node5&#45;&gt;Node4</title>
<path fill="none" stroke="midnightblue" d="M464.51,-62C482.7,-59.93 502.24,-57.79 520.35,-56 702.44,-37.97 919.81,-21.17 1011.76,-14.29"/>
<polygon fill="midnightblue" stroke="midnightblue" points="1012.12,-17.77 1021.83,-13.54 1011.6,-10.79 1012.12,-17.77"/>
</g>
<!-- Node6 -->
<g id="node6" class="node">
<title>Node6</title>
<g id="a_node6"><a xlink:title=" ">
<polygon fill="white" stroke="#bfbfbf" points="219.35,-0.5 219.35,-19.5 283.35,-19.5 283.35,-0.5 219.35,-0.5"/>
<text text-anchor="middle" x="251.35" y="-7.5" font-family="Helvetica,sans-Serif" font-size="10.00">algorithm</text>
</a>
</g>
</g>
<!-- Node5&#45;&gt;Node6 -->
<g id="edge5" class="edge">
<title>Node5&#45;&gt;Node6</title>
<path fill="none" stroke="midnightblue" d="M373.01,-61.98C348.96,-51.9 308.75,-35.05 281.19,-23.5"/>
<polygon fill="midnightblue" stroke="midnightblue" points="282.23,-20.15 271.66,-19.51 279.53,-26.6 282.23,-20.15"/>
</g>
<!-- Node7 -->
<g id="node7" class="node">
<title>Node7</title>
<g id="a_node7"><a xlink:title=" ">
<polygon fill="white" stroke="#bfbfbf" points="10.85,-0.5 10.85,-19.5 63.85,-19.5 63.85,-0.5 10.85,-0.5"/>
<text text-anchor="middle" x="37.35" y="-7.5" font-family="Helvetica,sans-Serif" font-size="10.00">iterator</text>
</a>
</g>
</g>
<!-- Node5&#45;&gt;Node7 -->
<g id="edge6" class="edge">
<title>Node5&#45;&gt;Node7</title>
<path fill="none" stroke="midnightblue" d="M342.34,-61.98C269.68,-49.83 138.09,-27.84 74.18,-17.15"/>
<polygon fill="midnightblue" stroke="midnightblue" points="74.59,-13.68 64.15,-15.48 73.44,-20.58 74.59,-13.68"/>
</g>
<!-- Node8 -->
<g id="node8" class="node">
<title>Node8</title>
<g id="a_node8"><a xlink:title=" ">
<polygon fill="white" stroke="#bfbfbf" points="370.85,-0.5 370.85,-19.5 415.85,-19.5 415.85,-0.5 370.85,-0.5"/>
<text text-anchor="middle" x="393.35" y="-7.5" font-family="Helvetica,sans-Serif" font-size="10.00">utility</text>
</a>
</g>
</g>
<!-- Node5&#45;&gt;Node8 -->
<g id="edge8" class="edge">
<title>Node5&#45;&gt;Node8</title>
<path fill="none" stroke="midnightblue" d="M393.35,-61.98C393.35,-53.58 393.35,-40.48 393.35,-29.66"/>
<polygon fill="midnightblue" stroke="midnightblue" points="396.85,-29.51 393.35,-19.51 389.85,-29.51 396.85,-29.51"/>
</g>
<!-- Node10 -->
<g id="node10" class="node">
<title>Node10</title>
<g id="a_node10"><a xlink:href="Real_8hpp.html" target="_top" xlink:title="Real number definition file.">
<polygon fill="white" stroke="black" points="740.85,-179.5 740.85,-198.5 839.85,-198.5 839.85,-179.5 740.85,-179.5"/>
<text text-anchor="middle" x="790.35" y="-186.5" font-family="Helvetica,sans-Serif" font-size="10.00">playrho/Real.hpp</text>
</a>
</g>
</g>
<!-- Node9&#45;&gt;Node10 -->
<g id="edge10" class="edge">
<title>Node9&#45;&gt;Node10</title>
<path fill="none" stroke="midnightblue" d="M693.18,-403.37C686.84,-376.07 670.93,-290.19 706.35,-235 716.21,-219.64 733.18,-209.16 749.29,-202.2"/>
<polygon fill="midnightblue" stroke="midnightblue" points="750.61,-205.45 758.62,-198.51 748.03,-198.94 750.61,-205.45"/>
</g>
<!-- Node12 -->
<g id="node12" class="node">
<title>Node12</title>
<g id="a_node12"><a xlink:href="Settings_8hpp.html" target="_top" xlink:title="Types and default settings file.">
<polygon fill="white" stroke="black" points="1154.85,-347.5 1154.85,-366.5 1271.85,-366.5 1271.85,-347.5 1154.85,-347.5"/>
<text text-anchor="middle" x="1213.35" y="-354.5" font-family="Helvetica,sans-Serif" font-size="10.00">playrho/Settings.hpp</text>
</a>
</g>
</g>
<!-- Node9&#45;&gt;Node12 -->
<g id="edge13" class="edge">
<title>Node9&#45;&gt;Node12</title>
<path fill="none" stroke="midnightblue" d="M752.76,-406.01C848.74,-396.01 1041.38,-375.93 1144.49,-365.18"/>
<polygon fill="midnightblue" stroke="midnightblue" points="1144.9,-368.65 1154.49,-364.14 1144.18,-361.69 1144.9,-368.65"/>
</g>
<!-- Node15 -->
<g id="node15" class="node">
<title>Node15</title>
<g id="a_node15"><a xlink:href="Units_8hpp.html" target="_top" xlink:title="Declarations for physical units possibly backed by strong types.">
<polygon fill="white" stroke="black" points="794.85,-291.5 794.85,-310.5 897.85,-310.5 897.85,-291.5 794.85,-291.5"/>
<text text-anchor="middle" x="846.35" y="-298.5" font-family="Helvetica,sans-Serif" font-size="10.00">playrho/Units.hpp</text>
</a>
</g>
</g>
<!-- Node9&#45;&gt;Node15 -->
<g id="edge34" class="edge">
<title>Node9&#45;&gt;Node15</title>
<path fill="none" stroke="midnightblue" d="M707.2,-403.37C733,-384.57 794.5,-339.77 826.4,-316.53"/>
<polygon fill="midnightblue" stroke="midnightblue" points="828.53,-319.31 834.56,-310.59 824.41,-313.65 828.53,-319.31"/>
</g>
<!-- Node22 -->
<g id="node22" class="node">
<title>Node22</title>
<g id="a_node22"><a xlink:href="Vector_8hpp.html" target="_top" xlink:title="Definition of the Vector class template and closely related code.">
<polygon fill="white" stroke="black" points="362.85,-235.5 362.85,-254.5 469.85,-254.5 469.85,-235.5 362.85,-235.5"/>
<text text-anchor="middle" x="416.35" y="-242.5" font-family="Helvetica,sans-Serif" font-size="10.00">playrho/Vector.hpp</text>
</a>
</g>
</g>
<!-- Node9&#45;&gt;Node22 -->
<g id="edge35" class="edge">
<title>Node9&#45;&gt;Node22</title>
<path fill="none" stroke="midnightblue" d="M680.74,-403.31C635.17,-376.19 495.31,-292.98 439.6,-259.83"/>
<polygon fill="midnightblue" stroke="midnightblue" points="441.2,-256.71 430.81,-254.61 437.62,-262.73 441.2,-256.71"/>
</g>
<!-- Node10&#45;&gt;Node2 -->
<g id="edge12" class="edge">
<title>Node10&#45;&gt;Node2</title>
<path fill="none" stroke="midnightblue" d="M766.11,-179.44C740.48,-170.4 699.87,-156.06 671.11,-145.92"/>
<polygon fill="midnightblue" stroke="midnightblue" points="672.08,-142.54 661.48,-142.52 669.75,-149.15 672.08,-142.54"/>
</g>
<!-- Node11 -->
<g id="node11" class="node">
<title>Node11</title>
<g id="a_node11"><a xlink:title=" ">
<polygon fill="white" stroke="#bfbfbf" points="1084.35,-123.5 1084.35,-142.5 1128.35,-142.5 1128.35,-123.5 1084.35,-123.5"/>
<text text-anchor="middle" x="1106.35" y="-130.5" font-family="Helvetica,sans-Serif" font-size="10.00">limits</text>
</a>
</g>
</g>
<!-- Node10&#45;&gt;Node11 -->
<g id="edge11" class="edge">
<title>Node10&#45;&gt;Node11</title>
<path fill="none" stroke="midnightblue" d="M840.07,-179.5C905.55,-168.31 1018.83,-148.96 1074.12,-139.51"/>
<polygon fill="midnightblue" stroke="midnightblue" points="1074.79,-142.94 1084.06,-137.81 1073.61,-136.04 1074.79,-142.94"/>
</g>
<!-- Node12&#45;&gt;Node4 -->
<g id="edge16" class="edge">
<title>Node12&#45;&gt;Node4</title>
<path fill="none" stroke="midnightblue" d="M1221.52,-347.38C1237.28,-329.81 1270.35,-287.94 1270.35,-246 1270.35,-246 1270.35,-246 1270.35,-132 1270.35,-54.98 1164.02,-26.42 1101.26,-16.27"/>
<polygon fill="midnightblue" stroke="midnightblue" points="1101.62,-12.79 1091.21,-14.74 1100.57,-19.71 1101.62,-12.79"/>
</g>
<!-- Node12&#45;&gt;Node10 -->
<g id="edge17" class="edge">
<title>Node12&#45;&gt;Node10</title>
<path fill="none" stroke="midnightblue" d="M1210.82,-347.44C1203.6,-324.71 1180.6,-262.69 1137.35,-235 1091.01,-205.34 936.53,-195.12 850.13,-191.68"/>
<polygon fill="midnightblue" stroke="midnightblue" points="850.07,-188.18 839.94,-191.3 849.8,-195.17 850.07,-188.18"/>
</g>
<!-- Node12&#45;&gt;Node11 -->
<g id="edge15" class="edge">
<title>Node12&#45;&gt;Node11</title>
<path fill="none" stroke="midnightblue" d="M1213.47,-347.31C1213.39,-334.58 1212.22,-310.28 1205.35,-291 1185.33,-234.86 1142.55,-177.88 1120.36,-150.58"/>
<polygon fill="midnightblue" stroke="midnightblue" points="1123,-148.28 1113.93,-142.8 1117.6,-152.74 1123,-148.28"/>
</g>
<!-- Node13 -->
<g id="node13" class="node">
<title>Node13</title>
<g id="a_node13"><a xlink:title=" ">
<polygon fill="white" stroke="#bfbfbf" points="1468.35,-179.5 1468.35,-198.5 1518.35,-198.5 1518.35,-179.5 1468.35,-179.5"/>
<text text-anchor="middle" x="1493.35" y="-186.5" font-family="Helvetica,sans-Serif" font-size="10.00">cstdint</text>
</a>
</g>
</g>
<!-- Node12&#45;&gt;Node13 -->
<g id="edge14" class="edge">
<title>Node12&#45;&gt;Node13</title>
<path fill="none" stroke="midnightblue" d="M1271.95,-351.51C1333.24,-345.68 1424.11,-333.48 1450.35,-311 1480.86,-284.85 1489.73,-235.54 1492.3,-208.64"/>
<polygon fill="midnightblue" stroke="midnightblue" points="1495.79,-208.86 1493.06,-198.62 1488.81,-208.33 1495.79,-208.86"/>
</g>
<!-- Node14 -->
<g id="node14" class="node">
<title>Node14</title>
<g id="a_node14"><a xlink:href="RealConstants_8hpp.html" target="_top" xlink:title="Definitions file for constant expressions of type Real.">
<polygon fill="white" stroke="black" points="818.35,-235.5 818.35,-254.5 966.35,-254.5 966.35,-235.5 818.35,-235.5"/>
<text text-anchor="middle" x="892.35" y="-242.5" font-family="Helvetica,sans-Serif" font-size="10.00">playrho/RealConstants.hpp</text>
</a>
</g>
</g>
<!-- Node12&#45;&gt;Node14 -->
<g id="edge18" class="edge">
<title>Node12&#45;&gt;Node14</title>
<path fill="none" stroke="midnightblue" d="M1188.43,-347.46C1131.66,-328.01 992.61,-280.36 927.3,-257.98"/>
<polygon fill="midnightblue" stroke="midnightblue" points="928.07,-254.54 917.48,-254.61 925.8,-261.16 928.07,-254.54"/>
</g>
<!-- Node12&#45;&gt;Node15 -->
<g id="edge20" class="edge">
<title>Node12&#45;&gt;Node15</title>
<path fill="none" stroke="midnightblue" d="M1155.2,-347.44C1087.82,-337.53 977.24,-321.26 908.28,-311.11"/>
<polygon fill="midnightblue" stroke="midnightblue" points="908.41,-307.59 898.01,-309.6 907.39,-314.52 908.41,-307.59"/>
</g>
<!-- Node19 -->
<g id="node19" class="node">
<title>Node19</title>
<g id="a_node19"><a xlink:href="WiderType_8hpp.html" target="_top" xlink:title="Definition of the WiderType alias template.">
<polygon fill="white" stroke="black" points="1313.35,-291.5 1313.35,-310.5 1441.35,-310.5 1441.35,-291.5 1313.35,-291.5"/>
<text text-anchor="middle" x="1377.35" y="-298.5" font-family="Helvetica,sans-Serif" font-size="10.00">playrho/WiderType.hpp</text>
</a>
</g>
</g>
<!-- Node12&#45;&gt;Node19 -->
<g id="edge29" class="edge">
<title>Node12&#45;&gt;Node19</title>
<path fill="none" stroke="midnightblue" d="M1239.34,-347.44C1267.05,-338.32 1311.1,-323.81 1341.97,-313.65"/>
<polygon fill="midnightblue" stroke="midnightblue" points="1343.08,-316.97 1351.49,-310.52 1340.89,-310.32 1343.08,-316.97"/>
</g>
<!-- Node14&#45;&gt;Node10 -->
<g id="edge19" class="edge">
<title>Node14&#45;&gt;Node10</title>
<path fill="none" stroke="midnightblue" d="M875.96,-235.32C859.68,-226.7 834.48,-213.36 815.63,-203.39"/>
<polygon fill="midnightblue" stroke="midnightblue" points="817.17,-200.24 806.7,-198.65 813.9,-206.43 817.17,-200.24"/>
</g>
<!-- Node15&#45;&gt;Node2 -->
<g id="edge25" class="edge">
<title>Node15&#45;&gt;Node2</title>
<path fill="none" stroke="midnightblue" d="M794.71,-292.8C766.18,-286.67 731.53,-275.43 706.35,-255 672.52,-227.54 652.13,-178.8 643.02,-152.33"/>
<polygon fill="midnightblue" stroke="midnightblue" points="646.33,-151.19 639.89,-142.77 639.68,-153.37 646.33,-151.19"/>
</g>
<!-- Node15&#45;&gt;Node4 -->
<g id="edge22" class="edge">
<title>Node15&#45;&gt;Node4</title>
<path fill="none" stroke="midnightblue" d="M898,-298.52C971.86,-295.34 1102.61,-285.46 1137.35,-255 1159.98,-235.16 1156.35,-220.1 1156.35,-190 1156.35,-190 1156.35,-190 1156.35,-132 1156.35,-96.96 1156.87,-83.66 1135.35,-56 1124.11,-41.56 1106.85,-30.97 1091.32,-23.7"/>
<polygon fill="midnightblue" stroke="midnightblue" points="1092.52,-20.4 1081.95,-19.6 1089.71,-26.82 1092.52,-20.4"/>
</g>
<!-- Node15&#45;&gt;Node10 -->
<g id="edge23" class="edge">
<title>Node15&#45;&gt;Node10</title>
<path fill="none" stroke="midnightblue" d="M837.52,-291.48C829.16,-282.96 816.82,-269.13 809.35,-255 801.62,-240.38 796.65,-222.21 793.74,-208.8"/>
<polygon fill="midnightblue" stroke="midnightblue" points="797.14,-207.97 791.76,-198.84 790.28,-209.33 797.14,-207.97"/>
</g>
<!-- Node15&#45;&gt;Node14 -->
<g id="edge24" class="edge">
<title>Node15&#45;&gt;Node14</title>
<path fill="none" stroke="midnightblue" d="M853.95,-291.08C860.58,-283.3 870.37,-271.8 878.41,-262.37"/>
<polygon fill="midnightblue" stroke="midnightblue" points="881.08,-264.63 884.9,-254.75 875.75,-260.09 881.08,-264.63"/>
</g>
<!-- Node16 -->
<g id="node16" class="node">
<title>Node16</title>
<g id="a_node16"><a xlink:title=" ">
<polygon fill="white" stroke="#bfbfbf" points="714.85,-235.5 714.85,-254.5 761.85,-254.5 761.85,-235.5 714.85,-235.5"/>
<text text-anchor="middle" x="738.35" y="-242.5" font-family="Helvetica,sans-Serif" font-size="10.00">cmath</text>
</a>
</g>
</g>
<!-- Node15&#45;&gt;Node16 -->
<g id="edge21" class="edge">
<title>Node15&#45;&gt;Node16</title>
<path fill="none" stroke="midnightblue" d="M829,-291.32C811.68,-282.66 784.84,-269.24 764.85,-259.25"/>
<polygon fill="midnightblue" stroke="midnightblue" points="766.17,-256 755.66,-254.65 763.04,-262.26 766.17,-256"/>
</g>
<!-- Node17 -->
<g id="node17" class="node">
<title>Node17</title>
<g id="a_node17"><a xlink:href="to__underlying_8hpp.html" target="_top" xlink:title="Definition of to_underlying function template.">
<polygon fill="white" stroke="black" points="984.35,-235.5 984.35,-254.5 1128.35,-254.5 1128.35,-235.5 984.35,-235.5"/>
<text text-anchor="middle" x="1056.35" y="-242.5" font-family="Helvetica,sans-Serif" font-size="10.00">playrho/to_underlying.hpp</text>
</a>
</g>
</g>
<!-- Node15&#45;&gt;Node17 -->
<g id="edge26" class="edge">
<title>Node15&#45;&gt;Node17</title>
<path fill="none" stroke="midnightblue" d="M879.63,-291.44C915.8,-282.14 973.73,-267.25 1013.33,-257.06"/>
<polygon fill="midnightblue" stroke="midnightblue" points="1014.42,-260.4 1023.23,-254.52 1012.67,-253.62 1014.42,-260.4"/>
</g>
<!-- Node18 -->
<g id="node18" class="node">
<title>Node18</title>
<g id="a_node18"><a xlink:href="underlying__type_8hpp.html" target="_top" xlink:title="Definition of underlying_type trait class and related code.">
<polygon fill="white" stroke="black" points="986.85,-56.5 986.85,-86.5 1125.85,-86.5 1125.85,-56.5 986.85,-56.5"/>
<text text-anchor="start" x="994.85" y="-74.5" font-family="Helvetica,sans-Serif" font-size="10.00">playrho/detail/underlying</text>
<text text-anchor="middle" x="1056.35" y="-63.5" font-family="Helvetica,sans-Serif" font-size="10.00">_type.hpp</text>
</a>
</g>
</g>
<!-- Node17&#45;&gt;Node18 -->
<g id="edge27" class="edge">
<title>Node17&#45;&gt;Node18</title>
<path fill="none" stroke="midnightblue" d="M1056.35,-235.26C1056.35,-209.97 1056.35,-136.08 1056.35,-97.15"/>
<polygon fill="midnightblue" stroke="midnightblue" points="1059.85,-96.72 1056.35,-86.72 1052.85,-96.72 1059.85,-96.72"/>
</g>
<!-- Node18&#45;&gt;Node4 -->
<g id="edge28" class="edge">
<title>Node18&#45;&gt;Node4</title>
<path fill="none" stroke="midnightblue" d="M1056.35,-56.4C1056.35,-48.47 1056.35,-38.46 1056.35,-29.86"/>
<polygon fill="midnightblue" stroke="midnightblue" points="1059.85,-29.66 1056.35,-19.66 1052.85,-29.66 1059.85,-29.66"/>
</g>
<!-- Node20 -->
<g id="node20" class="node">
<title>Node20</title>
<g id="a_node20"><a xlink:href="Wider_8hpp.html" target="_top" xlink:title="Definition of the Wider class template and specializations.">
<polygon fill="white" stroke="black" points="1311.35,-235.5 1311.35,-254.5 1447.35,-254.5 1447.35,-235.5 1311.35,-235.5"/>
<text text-anchor="middle" x="1379.35" y="-242.5" font-family="Helvetica,sans-Serif" font-size="10.00">playrho/detail/Wider.hpp</text>
</a>
</g>
</g>
<!-- Node19&#45;&gt;Node20 -->
<g id="edge30" class="edge">
<title>Node19&#45;&gt;Node20</title>
<path fill="none" stroke="midnightblue" d="M1377.68,-291.08C1377.94,-284.01 1378.32,-273.86 1378.65,-264.99"/>
<polygon fill="midnightblue" stroke="midnightblue" points="1382.15,-264.87 1379.03,-254.75 1375.16,-264.61 1382.15,-264.87"/>
</g>
<!-- Node20&#45;&gt;Node4 -->
<g id="edge32" class="edge">
<title>Node20&#45;&gt;Node4</title>
<path fill="none" stroke="midnightblue" d="M1365.46,-235.3C1353.7,-227.24 1337.22,-214.23 1327.35,-199 1291.27,-143.3 1333.5,-100.59 1284.35,-56 1257.99,-32.09 1159.69,-19.76 1101.12,-14.41"/>
<polygon fill="midnightblue" stroke="midnightblue" points="1101.29,-10.91 1091.02,-13.52 1100.68,-17.89 1101.29,-10.91"/>
</g>
<!-- Node20&#45;&gt;Node13 -->
<g id="edge31" class="edge">
<title>Node20&#45;&gt;Node13</title>
<path fill="none" stroke="midnightblue" d="M1397.41,-235.44C1415.93,-226.68 1444.93,-212.94 1466.21,-202.86"/>
<polygon fill="midnightblue" stroke="midnightblue" points="1467.83,-205.96 1475.37,-198.52 1464.84,-199.63 1467.83,-205.96"/>
</g>
<!-- Node21 -->
<g id="node21" class="node">
<title>Node21</title>
<g id="a_node21"><a xlink:href="Defines_8hpp.html" target="_top" xlink:title="Miscellaneous C&#45;preprocessor definitions.">
<polygon fill="white" stroke="black" points="1336.35,-179.5 1336.35,-198.5 1450.35,-198.5 1450.35,-179.5 1336.35,-179.5"/>
<text text-anchor="middle" x="1393.35" y="-186.5" font-family="Helvetica,sans-Serif" font-size="10.00">playrho/Defines.hpp</text>
</a>
</g>
</g>
<!-- Node20&#45;&gt;Node21 -->
<g id="edge33" class="edge">
<title>Node20&#45;&gt;Node21</title>
<path fill="none" stroke="midnightblue" d="M1381.66,-235.08C1383.52,-227.93 1386.19,-217.64 1388.5,-208.69"/>
<polygon fill="midnightblue" stroke="midnightblue" points="1391.96,-209.31 1391.08,-198.75 1385.18,-207.55 1391.96,-209.31"/>
</g>
<!-- Node22&#45;&gt;Node2 -->
<g id="edge46" class="edge">
<title>Node22&#45;&gt;Node2</title>
<path fill="none" stroke="midnightblue" d="M450.31,-235.48C477.67,-227.91 516.67,-215.48 548.35,-199 574.95,-185.16 602.33,-163.92 619.57,-149.51"/>
<polygon fill="midnightblue" stroke="midnightblue" points="622.25,-151.82 627.6,-142.68 617.72,-146.49 622.25,-151.82"/>
</g>
<!-- Node22&#45;&gt;Node4 -->
<g id="edge42" class="edge">
<title>Node22&#45;&gt;Node4</title>
<path fill="none" stroke="midnightblue" d="M446.67,-235.39C467.74,-228.26 495.49,-216.44 515.35,-199 571.61,-149.62 540.79,-95.55 604.35,-56 671.52,-14.2 911.07,-10.28 1011.52,-10.54"/>
<polygon fill="midnightblue" stroke="midnightblue" points="1011.63,-14.04 1021.65,-10.58 1011.66,-7.04 1011.63,-14.04"/>
</g>
<!-- Node22&#45;&gt;Node6 -->
<g id="edge36" class="edge">
<title>Node22&#45;&gt;Node6</title>
<path fill="none" stroke="midnightblue" d="M362.65,-237.94C315.13,-231.33 250.96,-218.96 235.35,-199 195.87,-148.5 226.09,-65.36 242.53,-28.98"/>
<polygon fill="midnightblue" stroke="midnightblue" points="245.83,-30.19 246.91,-19.65 239.49,-27.21 245.83,-30.19"/>
</g>
<!-- Node22&#45;&gt;Node7 -->
<g id="edge39" class="edge">
<title>Node22&#45;&gt;Node7</title>
<path fill="none" stroke="midnightblue" d="M362.78,-241.79C260.1,-237.01 43.7,-224.04 21.35,-199 -21.52,-150.97 10.86,-65.89 28.22,-28.95"/>
<polygon fill="midnightblue" stroke="midnightblue" points="31.41,-30.4 32.64,-19.88 25.11,-27.33 31.41,-30.4"/>
</g>
<!-- Node22&#45;&gt;Node10 -->
<g id="edge45" class="edge">
<title>Node22&#45;&gt;Node10</title>
<path fill="none" stroke="midnightblue" d="M469.94,-236.26C538.95,-226.3 658.56,-209.03 730.49,-198.64"/>
<polygon fill="midnightblue" stroke="midnightblue" points="731.35,-202.06 740.74,-197.16 730.35,-195.13 731.35,-202.06"/>
</g>
<!-- Node23 -->
<g id="node23" class="node">
<title>Node23</title>
<g id="a_node23"><a xlink:title=" ">
<polygon fill="white" stroke="#bfbfbf" points="244.35,-179.5 244.35,-198.5 296.35,-198.5 296.35,-179.5 244.35,-179.5"/>
<text text-anchor="middle" x="270.35" y="-186.5" font-family="Helvetica,sans-Serif" font-size="10.00">cassert</text>
</a>
</g>
</g>
<!-- Node22&#45;&gt;Node23 -->
<g id="edge37" class="edge">
<title>Node22&#45;&gt;Node23</title>
<path fill="none" stroke="midnightblue" d="M393.22,-235.44C368.87,-226.44 330.34,-212.19 302.93,-202.05"/>
<polygon fill="midnightblue" stroke="midnightblue" points="303.97,-198.7 293.38,-198.52 301.54,-205.27 303.97,-198.7"/>
</g>
<!-- Node24 -->
<g id="node24" class="node">
<title>Node24</title>
<g id="a_node24"><a xlink:title=" ">
<polygon fill="white" stroke="#bfbfbf" points="314.85,-179.5 314.85,-198.5 367.85,-198.5 367.85,-179.5 314.85,-179.5"/>
<text text-anchor="middle" x="341.35" y="-186.5" font-family="Helvetica,sans-Serif" font-size="10.00">cstddef</text>
</a>
</g>
</g>
<!-- Node22&#45;&gt;Node24 -->
<g id="edge38" class="edge">
<title>Node22&#45;&gt;Node24</title>
<path fill="none" stroke="midnightblue" d="M404.3,-235.32C392.89,-227.11 375.52,-214.6 361.92,-204.81"/>
<polygon fill="midnightblue" stroke="midnightblue" points="363.78,-201.84 353.62,-198.83 359.69,-207.52 363.78,-201.84"/>
</g>
<!-- Node25 -->
<g id="node25" class="node">
<title>Node25</title>
<g id="a_node25"><a xlink:title=" ">
<polygon fill="white" stroke="#bfbfbf" points="386.35,-179.5 386.35,-198.5 446.35,-198.5 446.35,-179.5 386.35,-179.5"/>
<text text-anchor="middle" x="416.35" y="-186.5" font-family="Helvetica,sans-Serif" font-size="10.00">iostream</text>
</a>
</g>
</g>
<!-- Node22&#45;&gt;Node25 -->
<g id="edge40" class="edge">
<title>Node22&#45;&gt;Node25</title>
<path fill="none" stroke="midnightblue" d="M416.35,-235.08C416.35,-228.01 416.35,-217.86 416.35,-208.99"/>
<polygon fill="midnightblue" stroke="midnightblue" points="419.85,-208.75 416.35,-198.75 412.85,-208.75 419.85,-208.75"/>
</g>
<!-- Node26 -->
<g id="node26" class="node">
<title>Node26</title>
<g id="a_node26"><a xlink:title=" ">
<polygon fill="white" stroke="#bfbfbf" points="464.85,-179.5 464.85,-198.5 505.85,-198.5 505.85,-179.5 464.85,-179.5"/>
<text text-anchor="middle" x="485.35" y="-186.5" font-family="Helvetica,sans-Serif" font-size="10.00">tuple</text>
</a>
</g>
</g>
<!-- Node22&#45;&gt;Node26 -->
<g id="edge41" class="edge">
<title>Node22&#45;&gt;Node26</title>
<path fill="none" stroke="midnightblue" d="M427.44,-235.32C437.84,-227.18 453.61,-214.84 466.07,-205.09"/>
<polygon fill="midnightblue" stroke="midnightblue" points="468.34,-207.75 474.06,-198.83 464.03,-202.24 468.34,-207.75"/>
</g>
<!-- Node27 -->
<g id="node27" class="node">
<title>Node27</title>
<g id="a_node27"><a xlink:href="InvalidArgument_8hpp.html" target="_top" xlink:title="Definition of the InvalidArgument class.">
<polygon fill="white" stroke="black" points="30.35,-179.5 30.35,-198.5 188.35,-198.5 188.35,-179.5 30.35,-179.5"/>
<text text-anchor="middle" x="109.35" y="-186.5" font-family="Helvetica,sans-Serif" font-size="10.00">playrho/InvalidArgument.hpp</text>
</a>
</g>
</g>
<!-- Node22&#45;&gt;Node27 -->
<g id="edge43" class="edge">
<title>Node22&#45;&gt;Node27</title>
<path fill="none" stroke="midnightblue" d="M367.71,-235.44C313.48,-225.9 225.8,-210.48 167.87,-200.29"/>
<polygon fill="midnightblue" stroke="midnightblue" points="168.22,-196.8 157.77,-198.52 167.01,-203.7 168.22,-196.8"/>
</g>
<!-- Node28 -->
<g id="node28" class="node">
<title>Node28</title>
<g id="a_node28"><a xlink:title=" ">
<polygon fill="white" stroke="#bfbfbf" points="76.85,-123.5 76.85,-142.5 141.85,-142.5 141.85,-123.5 76.85,-123.5"/>
<text text-anchor="middle" x="109.35" y="-130.5" font-family="Helvetica,sans-Serif" font-size="10.00">stdexcept</text>
</a>
</g>
</g>
<!-- Node27&#45;&gt;Node28 -->
<g id="edge44" class="edge">
<title>Node27&#45;&gt;Node28</title>
<path fill="none" stroke="midnightblue" d="M109.35,-179.08C109.35,-172.01 109.35,-161.86 109.35,-152.99"/>
<polygon fill="midnightblue" stroke="midnightblue" points="112.85,-152.75 109.35,-142.75 105.85,-152.75 112.85,-152.75"/>
</g>
</g>
</svg>
