<?xml version="1.0" encoding="UTF-8" standalone="no"?>
<!DOCTYPE svg PUBLIC "-//W3C//DTD SVG 1.1//EN"
 "http://www.w3.org/Graphics/SVG/1.1/DTD/svg11.dtd">
<!-- Generated by graphviz version 2.43.0 (0)
 -->
<!-- Title: Library/include/playrho/d2/Acceleration.hpp Pages: 1 -->
<!--zoomable 498 -->
<svg id="main" version="1.1" xmlns="http://www.w3.org/2000/svg" xmlns:xlink="http://www.w3.org/1999/xlink" xml:space="preserve" onload="init(evt)">
<style type="text/css"><![CDATA[
.edge:hover path { stroke: red; }
.edge:hover polygon { stroke: red; fill: red; }
]]></style>
<script type="text/javascript"><![CDATA[
var edges = document.getElementsByTagName('g');
if (edges && edges.length) {
  for (var i=0;i<edges.length;i++) {
    if (edges[i].id.substr(0,4)=='edge') {
      edges[i].setAttribute('class','edge');
    }
  }
}
]]></script>
        <defs>
                <circle id="rim" cx="0" cy="0" r="7"/>
                <circle id="rim2" cx="0" cy="0" r="3.5"/>
                <g id="zoomPlus">
                        <use xlink:href="#rim" fill="#404040">
                                <set attributeName="fill" to="#808080" begin="zoomplus.mouseover" end="zoomplus.mouseout"/>
                        </use>
                        <path d="M-4,0h8M0,-4v8" fill="none" stroke="white" stroke-width="1.5" pointer-events="none"/>
                </g>
                <g id="zoomMin">
                        <use xlink:href="#rim" fill="#404040">
                                <set attributeName="fill" to="#808080" begin="zoomminus.mouseover" end="zoomminus.mouseout"/>
                        </use>
                        <path d="M-4,0h8" fill="none" stroke="white" stroke-width="1.5" pointer-events="none"/>
                </g>
                <g id="dirArrow">
                        <path fill="none" stroke="white" stroke-width="1.5" d="M0,-3.0v7 M-2.5,-0.5L0,-3.0L2.5,-0.5"/>
                </g>
               <g id="resetDef">
                       <use xlink:href="#rim2" fill="#404040">
                               <set attributeName="fill" to="#808080" begin="reset.mouseover" end="reset.mouseout"/>
                       </use>
               </g>
        </defs>

<script type="text/javascript">
var viewWidth = 1423;
var viewHeight = 498;
var sectionId = 'dynsection-0';
</script>
<script xlink:href="svgpan.js"/>
<svg id="graph" class="graph">
<g id="viewport">
<title>Library/include/playrho/d2/Acceleration.hpp</title>
<polygon fill="white" stroke="transparent" points="-4,4 -4,-494 1419,-494 1419,4 -4,4"/>
<!-- Node1 -->
<g id="node1" class="node">
<title>Node1</title>
<g id="a_node1"><a xlink:title="Definition of the Acceleration class and closely related code.">
<polygon fill="#bfbfbf" stroke="black" points="773,-459.5 773,-489.5 901,-489.5 901,-459.5 773,-459.5"/>
<text text-anchor="start" x="781" y="-477.5" font-family="Helvetica,sans-Serif" font-size="10.00">Library/include/playrho</text>
<text text-anchor="middle" x="837" y="-466.5" font-family="Helvetica,sans-Serif" font-size="10.00">/d2/Acceleration.hpp</text>
</a>
</g>
</g>
<!-- Node2 -->
<g id="node2" class="node">
<title>Node2</title>
<g id="a_node2"><a xlink:href="Real_8hpp.html" target="_top" xlink:title="Real number definition file.">
<polygon fill="white" stroke="black" points="882.5,-179.5 882.5,-198.5 981.5,-198.5 981.5,-179.5 882.5,-179.5"/>
<text text-anchor="middle" x="932" y="-186.5" font-family="Helvetica,sans-Serif" font-size="10.00">playrho/Real.hpp</text>
</a>
</g>
</g>
<!-- Node1&#45;&gt;Node2 -->
<g id="edge1" class="edge">
<title>Node1&#45;&gt;Node2</title>
<path fill="none" stroke="midnightblue" d="M901.18,-461.82C1021.96,-438.37 1275.36,-381.71 1325,-311 1330.11,-303.72 1330.45,-298.02 1325,-291 1314.27,-277.16 1083.03,-223.87 980.37,-200.77"/>
<polygon fill="midnightblue" stroke="midnightblue" points="981.07,-197.35 970.55,-198.57 979.54,-204.18 981.07,-197.35"/>
</g>
<!-- Node4 -->
<g id="node4" class="node">
<title>Node4</title>
<g id="a_node4"><a xlink:href="Templates_8hpp.html" target="_top" xlink:title="Definitions of miscellaneous template related code.">
<polygon fill="white" stroke="black" points="518,-123.5 518,-142.5 646,-142.5 646,-123.5 518,-123.5"/>
<text text-anchor="middle" x="582" y="-130.5" font-family="Helvetica,sans-Serif" font-size="10.00">playrho/Templates.hpp</text>
</a>
</g>
</g>
<!-- Node1&#45;&gt;Node4 -->
<g id="edge12" class="edge">
<title>Node1&#45;&gt;Node4</title>
<path fill="none" stroke="midnightblue" d="M772.82,-464.86C675.04,-449.86 500,-415.05 500,-358 500,-358 500,-358 500,-300 500,-239.7 544.03,-178.64 567.56,-150.31"/>
<polygon fill="midnightblue" stroke="midnightblue" points="570.31,-152.48 574.14,-142.6 564.98,-147.94 570.31,-152.48"/>
</g>
<!-- Node12 -->
<g id="node12" class="node">
<title>Node12</title>
<g id="a_node12"><a xlink:href="Units_8hpp.html" target="_top" xlink:title="Declarations for physical units possibly backed by strong types.">
<polygon fill="white" stroke="black" points="748.5,-291.5 748.5,-310.5 851.5,-310.5 851.5,-291.5 748.5,-291.5"/>
<text text-anchor="middle" x="800" y="-298.5" font-family="Helvetica,sans-Serif" font-size="10.00">playrho/Units.hpp</text>
</a>
</g>
</g>
<!-- Node1&#45;&gt;Node12 -->
<g id="edge13" class="edge">
<title>Node1&#45;&gt;Node12</title>
<path fill="none" stroke="midnightblue" d="M829.12,-459.37C823.97,-449.48 817.56,-435.81 814,-423 804.21,-387.81 801.26,-345.02 800.37,-320.91"/>
<polygon fill="midnightblue" stroke="midnightblue" points="803.87,-320.58 800.08,-310.68 796.87,-320.78 803.87,-320.58"/>
</g>
<!-- Node17 -->
<g id="node17" class="node">
<title>Node17</title>
<g id="a_node17"><a xlink:href="Vector2_8hpp.html" target="_top" xlink:title="Definition of the Vector2 alias template and closely related code.">
<polygon fill="white" stroke="black" points="823,-403.5 823,-422.5 937,-422.5 937,-403.5 823,-403.5"/>
<text text-anchor="middle" x="880" y="-410.5" font-family="Helvetica,sans-Serif" font-size="10.00">playrho/Vector2.hpp</text>
</a>
</g>
</g>
<!-- Node1&#45;&gt;Node17 -->
<g id="edge23" class="edge">
<title>Node1&#45;&gt;Node17</title>
<path fill="none" stroke="midnightblue" d="M847.19,-459.4C853.37,-450.84 861.3,-439.87 867.82,-430.86"/>
<polygon fill="midnightblue" stroke="midnightblue" points="870.72,-432.81 873.74,-422.66 865.05,-428.71 870.72,-432.81"/>
</g>
<!-- Node3 -->
<g id="node3" class="node">
<title>Node3</title>
<g id="a_node3"><a xlink:title=" ">
<polygon fill="white" stroke="#bfbfbf" points="955,-123.5 955,-142.5 999,-142.5 999,-123.5 955,-123.5"/>
<text text-anchor="middle" x="977" y="-130.5" font-family="Helvetica,sans-Serif" font-size="10.00">limits</text>
</a>
</g>
</g>
<!-- Node2&#45;&gt;Node3 -->
<g id="edge2" class="edge">
<title>Node2&#45;&gt;Node3</title>
<path fill="none" stroke="midnightblue" d="M939.43,-179.08C945.85,-171.38 955.31,-160.03 963.12,-150.65"/>
<polygon fill="midnightblue" stroke="midnightblue" points="965.99,-152.67 969.71,-142.75 960.62,-148.19 965.99,-152.67"/>
</g>
<!-- Node2&#45;&gt;Node4 -->
<g id="edge3" class="edge">
<title>Node2&#45;&gt;Node4</title>
<path fill="none" stroke="midnightblue" d="M882.23,-180.32C820.65,-170.82 715.65,-154.62 647.56,-144.12"/>
<polygon fill="midnightblue" stroke="midnightblue" points="647.79,-140.61 637.38,-142.54 646.73,-147.53 647.79,-140.61"/>
</g>
<!-- Node5 -->
<g id="node5" class="node">
<title>Node5</title>
<g id="a_node5"><a xlink:title=" ">
<polygon fill="white" stroke="#bfbfbf" points="529.5,-62 529.5,-81 578.5,-81 578.5,-62 529.5,-62"/>
<text text-anchor="middle" x="554" y="-69" font-family="Helvetica,sans-Serif" font-size="10.00">cstdlib</text>
</a>
</g>
</g>
<!-- Node4&#45;&gt;Node5 -->
<g id="edge4" class="edge">
<title>Node4&#45;&gt;Node5</title>
<path fill="none" stroke="midnightblue" d="M577.99,-123.48C573.91,-114.82 567.48,-101.15 562.3,-90.15"/>
<polygon fill="midnightblue" stroke="midnightblue" points="565.43,-88.57 558,-81.01 559.1,-91.55 565.43,-88.57"/>
</g>
<!-- Node6 -->
<g id="node6" class="node">
<title>Node6</title>
<g id="a_node6"><a xlink:title=" ">
<polygon fill="white" stroke="#bfbfbf" points="670.5,-0.5 670.5,-19.5 739.5,-19.5 739.5,-0.5 670.5,-0.5"/>
<text text-anchor="middle" x="705" y="-7.5" font-family="Helvetica,sans-Serif" font-size="10.00">type_traits</text>
</a>
</g>
</g>
<!-- Node4&#45;&gt;Node6 -->
<g id="edge5" class="edge">
<title>Node4&#45;&gt;Node6</title>
<path fill="none" stroke="midnightblue" d="M585.36,-123.04C591.47,-107.72 605.66,-76.2 626,-56 639.63,-42.46 658.17,-31.62 673.85,-23.98"/>
<polygon fill="midnightblue" stroke="midnightblue" points="675.6,-27.03 683.18,-19.64 672.64,-20.68 675.6,-27.03"/>
</g>
<!-- Node7 -->
<g id="node7" class="node">
<title>Node7</title>
<g id="a_node7"><a xlink:href="detail_2Templates_8hpp.html" target="_top" xlink:title="Low&#45;level declarations for general class &amp; function templates.">
<polygon fill="white" stroke="black" points="290,-62 290,-81 448,-81 448,-62 290,-62"/>
<text text-anchor="middle" x="369" y="-69" font-family="Helvetica,sans-Serif" font-size="10.00">playrho/detail/Templates.hpp</text>
</a>
</g>
</g>
<!-- Node4&#45;&gt;Node7 -->
<g id="edge6" class="edge">
<title>Node4&#45;&gt;Node7</title>
<path fill="none" stroke="midnightblue" d="M551.48,-123.48C514.08,-113.03 450.57,-95.29 409.21,-83.73"/>
<polygon fill="midnightblue" stroke="midnightblue" points="410.03,-80.33 399.46,-81.01 408.15,-87.07 410.03,-80.33"/>
</g>
<!-- Node7&#45;&gt;Node6 -->
<g id="edge10" class="edge">
<title>Node7&#45;&gt;Node6</title>
<path fill="none" stroke="midnightblue" d="M417.14,-61.98C482.11,-50.47 597,-30.13 660.21,-18.93"/>
<polygon fill="midnightblue" stroke="midnightblue" points="661.03,-22.34 670.26,-17.15 659.81,-15.45 661.03,-22.34"/>
</g>
<!-- Node8 -->
<g id="node8" class="node">
<title>Node8</title>
<g id="a_node8"><a xlink:title=" ">
<polygon fill="white" stroke="#bfbfbf" points="0,-0.5 0,-19.5 64,-19.5 64,-0.5 0,-0.5"/>
<text text-anchor="middle" x="32" y="-7.5" font-family="Helvetica,sans-Serif" font-size="10.00">algorithm</text>
</a>
</g>
</g>
<!-- Node7&#45;&gt;Node8 -->
<g id="edge7" class="edge">
<title>Node7&#45;&gt;Node8</title>
<path fill="none" stroke="midnightblue" d="M320.72,-61.98C254.51,-50.29 136.65,-29.48 73.95,-18.41"/>
<polygon fill="midnightblue" stroke="midnightblue" points="74.46,-14.94 64.01,-16.65 73.25,-21.84 74.46,-14.94"/>
</g>
<!-- Node9 -->
<g id="node9" class="node">
<title>Node9</title>
<g id="a_node9"><a xlink:title=" ">
<polygon fill="white" stroke="#bfbfbf" points="381.5,-0.5 381.5,-19.5 446.5,-19.5 446.5,-0.5 381.5,-0.5"/>
<text text-anchor="middle" x="414" y="-7.5" font-family="Helvetica,sans-Serif" font-size="10.00">functional</text>
</a>
</g>
</g>
<!-- Node7&#45;&gt;Node9 -->
<g id="edge8" class="edge">
<title>Node7&#45;&gt;Node9</title>
<path fill="none" stroke="midnightblue" d="M375.45,-61.98C382.2,-53.05 392.97,-38.81 401.41,-27.64"/>
<polygon fill="midnightblue" stroke="midnightblue" points="404.32,-29.6 407.56,-19.51 398.74,-25.37 404.32,-29.6"/>
</g>
<!-- Node10 -->
<g id="node10" class="node">
<title>Node10</title>
<g id="a_node10"><a xlink:title=" ">
<polygon fill="white" stroke="#bfbfbf" points="192.5,-0.5 192.5,-19.5 245.5,-19.5 245.5,-0.5 192.5,-0.5"/>
<text text-anchor="middle" x="219" y="-7.5" font-family="Helvetica,sans-Serif" font-size="10.00">iterator</text>
</a>
</g>
</g>
<!-- Node7&#45;&gt;Node10 -->
<g id="edge9" class="edge">
<title>Node7&#45;&gt;Node10</title>
<path fill="none" stroke="midnightblue" d="M347.51,-61.98C321.89,-51.81 278.89,-34.76 249.76,-23.2"/>
<polygon fill="midnightblue" stroke="midnightblue" points="251.04,-19.94 240.45,-19.51 248.46,-26.45 251.04,-19.94"/>
</g>
<!-- Node11 -->
<g id="node11" class="node">
<title>Node11</title>
<g id="a_node11"><a xlink:title=" ">
<polygon fill="white" stroke="#bfbfbf" points="318.5,-0.5 318.5,-19.5 363.5,-19.5 363.5,-0.5 318.5,-0.5"/>
<text text-anchor="middle" x="341" y="-7.5" font-family="Helvetica,sans-Serif" font-size="10.00">utility</text>
</a>
</g>
</g>
<!-- Node7&#45;&gt;Node11 -->
<g id="edge11" class="edge">
<title>Node7&#45;&gt;Node11</title>
<path fill="none" stroke="midnightblue" d="M364.99,-61.98C360.91,-53.32 354.48,-39.65 349.3,-28.65"/>
<polygon fill="midnightblue" stroke="midnightblue" points="352.43,-27.07 345,-19.51 346.1,-30.05 352.43,-27.07"/>
</g>
<!-- Node12&#45;&gt;Node2 -->
<g id="edge16" class="edge">
<title>Node12&#45;&gt;Node2</title>
<path fill="none" stroke="midnightblue" d="M808.08,-291.08C820.09,-278.05 843.64,-253.38 866,-235 879.62,-223.8 895.99,-212.63 909.02,-204.22"/>
<polygon fill="midnightblue" stroke="midnightblue" points="911.27,-206.93 917.83,-198.62 907.51,-201.03 911.27,-206.93"/>
</g>
<!-- Node12&#45;&gt;Node4 -->
<g id="edge19" class="edge">
<title>Node12&#45;&gt;Node4</title>
<path fill="none" stroke="midnightblue" d="M748.46,-299.6C709.41,-296.58 656.86,-286.33 623,-255 593.93,-228.1 585.46,-179.85 583,-153.13"/>
<polygon fill="midnightblue" stroke="midnightblue" points="586.47,-152.54 582.26,-142.82 579.49,-153.04 586.47,-152.54"/>
</g>
<!-- Node12&#45;&gt;Node6 -->
<g id="edge15" class="edge">
<title>Node12&#45;&gt;Node6</title>
<path fill="none" stroke="midnightblue" d="M800.52,-291.45C801.61,-272.95 804,-227.84 804,-190 804,-190 804,-190 804,-132 804,-96.96 804.45,-83.72 783,-56 771.83,-41.56 754.62,-30.93 739.21,-23.64"/>
<polygon fill="midnightblue" stroke="midnightblue" points="740.47,-20.38 729.91,-19.53 737.64,-26.78 740.47,-20.38"/>
</g>
<!-- Node13 -->
<g id="node13" class="node">
<title>Node13</title>
<g id="a_node13"><a xlink:title=" ">
<polygon fill="white" stroke="#bfbfbf" points="528.5,-235.5 528.5,-254.5 575.5,-254.5 575.5,-235.5 528.5,-235.5"/>
<text text-anchor="middle" x="552" y="-242.5" font-family="Helvetica,sans-Serif" font-size="10.00">cmath</text>
</a>
</g>
</g>
<!-- Node12&#45;&gt;Node13 -->
<g id="edge14" class="edge">
<title>Node12&#45;&gt;Node13</title>
<path fill="none" stroke="midnightblue" d="M758.9,-291.46C716.52,-282.6 648.56,-268.21 590,-255 588.55,-254.67 587.08,-254.34 585.58,-254"/>
<polygon fill="midnightblue" stroke="midnightblue" points="586.23,-250.55 575.7,-251.7 584.65,-257.37 586.23,-250.55"/>
</g>
<!-- Node14 -->
<g id="node14" class="node">
<title>Node14</title>
<g id="a_node14"><a xlink:href="RealConstants_8hpp.html" target="_top" xlink:title="Definitions file for constant expressions of type Real.">
<polygon fill="white" stroke="black" points="908,-235.5 908,-254.5 1056,-254.5 1056,-235.5 908,-235.5"/>
<text text-anchor="middle" x="982" y="-242.5" font-family="Helvetica,sans-Serif" font-size="10.00">playrho/RealConstants.hpp</text>
</a>
</g>
</g>
<!-- Node12&#45;&gt;Node14 -->
<g id="edge17" class="edge">
<title>Node12&#45;&gt;Node14</title>
<path fill="none" stroke="midnightblue" d="M828.84,-291.44C859.86,-282.24 909.33,-267.56 943.62,-257.39"/>
<polygon fill="midnightblue" stroke="midnightblue" points="944.71,-260.72 953.3,-254.52 942.71,-254.01 944.71,-260.72"/>
</g>
<!-- Node15 -->
<g id="node15" class="node">
<title>Node15</title>
<g id="a_node15"><a xlink:href="to__underlying_8hpp.html" target="_top" xlink:title="Definition of to_underlying function template.">
<polygon fill="white" stroke="black" points="632,-235.5 632,-254.5 776,-254.5 776,-235.5 632,-235.5"/>
<text text-anchor="middle" x="704" y="-242.5" font-family="Helvetica,sans-Serif" font-size="10.00">playrho/to_underlying.hpp</text>
</a>
</g>
</g>
<!-- Node12&#45;&gt;Node15 -->
<g id="edge20" class="edge">
<title>Node12&#45;&gt;Node15</title>
<path fill="none" stroke="midnightblue" d="M784.58,-291.32C769.46,-282.82 746.18,-269.73 728.53,-259.8"/>
<polygon fill="midnightblue" stroke="midnightblue" points="729.82,-256.51 719.39,-254.65 726.39,-262.61 729.82,-256.51"/>
</g>
<!-- Node14&#45;&gt;Node2 -->
<g id="edge18" class="edge">
<title>Node14&#45;&gt;Node2</title>
<path fill="none" stroke="midnightblue" d="M973.74,-235.08C966.54,-227.3 955.89,-215.8 947.15,-206.37"/>
<polygon fill="midnightblue" stroke="midnightblue" points="949.47,-203.71 940.1,-198.75 944.33,-208.47 949.47,-203.71"/>
</g>
<!-- Node16 -->
<g id="node16" class="node">
<title>Node16</title>
<g id="a_node16"><a xlink:href="underlying__type_8hpp.html" target="_top" xlink:title="Definition of underlying_type trait class and related code.">
<polygon fill="white" stroke="black" points="635.5,-56.5 635.5,-86.5 774.5,-86.5 774.5,-56.5 635.5,-56.5"/>
<text text-anchor="start" x="643.5" y="-74.5" font-family="Helvetica,sans-Serif" font-size="10.00">playrho/detail/underlying</text>
<text text-anchor="middle" x="705" y="-63.5" font-family="Helvetica,sans-Serif" font-size="10.00">_type.hpp</text>
</a>
</g>
</g>
<!-- Node15&#45;&gt;Node16 -->
<g id="edge21" class="edge">
<title>Node15&#45;&gt;Node16</title>
<path fill="none" stroke="midnightblue" d="M704.05,-235.26C704.2,-209.97 704.63,-136.08 704.86,-97.15"/>
<polygon fill="midnightblue" stroke="midnightblue" points="708.36,-96.74 704.92,-86.72 701.36,-96.7 708.36,-96.74"/>
</g>
<!-- Node16&#45;&gt;Node6 -->
<g id="edge22" class="edge">
<title>Node16&#45;&gt;Node6</title>
<path fill="none" stroke="midnightblue" d="M705,-56.4C705,-48.47 705,-38.46 705,-29.86"/>
<polygon fill="midnightblue" stroke="midnightblue" points="708.5,-29.66 705,-19.66 701.5,-29.66 708.5,-29.66"/>
</g>
<!-- Node17&#45;&gt;Node2 -->
<g id="edge24" class="edge">
<title>Node17&#45;&gt;Node2</title>
<path fill="none" stroke="midnightblue" d="M879.37,-403.15C877.81,-376.62 875.43,-295.8 899,-235 903.01,-224.65 910.04,-214.55 916.59,-206.55"/>
<polygon fill="midnightblue" stroke="midnightblue" points="919.42,-208.63 923.33,-198.78 914.13,-204.04 919.42,-208.63"/>
</g>
<!-- Node17&#45;&gt;Node12 -->
<g id="edge37" class="edge">
<title>Node17&#45;&gt;Node12</title>
<path fill="none" stroke="midnightblue" d="M873.72,-403.37C860.52,-385.22 829.67,-342.8 812.36,-318.99"/>
<polygon fill="midnightblue" stroke="midnightblue" points="814.96,-316.62 806.25,-310.59 809.3,-320.74 814.96,-316.62"/>
</g>
<!-- Node18 -->
<g id="node18" class="node">
<title>Node18</title>
<g id="a_node18"><a xlink:href="Settings_8hpp.html" target="_top" xlink:title="Types and default settings file.">
<polygon fill="white" stroke="black" points="1044.5,-347.5 1044.5,-366.5 1161.5,-366.5 1161.5,-347.5 1044.5,-347.5"/>
<text text-anchor="middle" x="1103" y="-354.5" font-family="Helvetica,sans-Serif" font-size="10.00">playrho/Settings.hpp</text>
</a>
</g>
</g>
<!-- Node17&#45;&gt;Node18 -->
<g id="edge25" class="edge">
<title>Node17&#45;&gt;Node18</title>
<path fill="none" stroke="midnightblue" d="M915.34,-403.44C953.91,-394.1 1015.78,-379.12 1057.85,-368.93"/>
<polygon fill="midnightblue" stroke="midnightblue" points="1058.93,-372.27 1067.83,-366.52 1057.29,-365.47 1058.93,-372.27"/>
</g>
<!-- Node23 -->
<g id="node23" class="node">
<title>Node23</title>
<g id="a_node23"><a xlink:href="Vector_8hpp.html" target="_top" xlink:title="Definition of the Vector class template and closely related code.">
<polygon fill="white" stroke="black" points="334.5,-235.5 334.5,-254.5 441.5,-254.5 441.5,-235.5 334.5,-235.5"/>
<text text-anchor="middle" x="388" y="-242.5" font-family="Helvetica,sans-Serif" font-size="10.00">playrho/Vector.hpp</text>
</a>
</g>
</g>
<!-- Node17&#45;&gt;Node23 -->
<g id="edge38" class="edge">
<title>Node17&#45;&gt;Node23</title>
<path fill="none" stroke="midnightblue" d="M854.58,-403.42C772.85,-375.85 516.65,-289.41 422.85,-257.76"/>
<polygon fill="midnightblue" stroke="midnightblue" points="423.86,-254.4 413.26,-254.52 421.62,-261.04 423.86,-254.4"/>
</g>
<!-- Node18&#45;&gt;Node2 -->
<g id="edge29" class="edge">
<title>Node18&#45;&gt;Node2</title>
<path fill="none" stroke="midnightblue" d="M1102.83,-347.35C1101.94,-325.45 1096.57,-267.27 1065,-235 1045.66,-215.23 1017.35,-204.15 991.81,-197.93"/>
<polygon fill="midnightblue" stroke="midnightblue" points="992.33,-194.46 981.81,-195.71 990.81,-201.3 992.33,-194.46"/>
</g>
<!-- Node18&#45;&gt;Node3 -->
<g id="edge27" class="edge">
<title>Node18&#45;&gt;Node3</title>
<path fill="none" stroke="midnightblue" d="M1104.99,-347.43C1106.97,-338.42 1109.87,-323.8 1111,-311 1114.11,-275.72 1107.48,-263.9 1087,-235 1061.64,-199.2 1021.74,-166.6 997.61,-148.61"/>
<polygon fill="midnightblue" stroke="midnightblue" points="999.62,-145.75 989.49,-142.66 995.49,-151.39 999.62,-145.75"/>
</g>
<!-- Node18&#45;&gt;Node6 -->
<g id="edge28" class="edge">
<title>Node18&#45;&gt;Node6</title>
<path fill="none" stroke="midnightblue" d="M1105.56,-347.25C1110.75,-328.74 1122,-284.18 1122,-246 1122,-246 1122,-246 1122,-132 1122,-55.22 857.94,-24.01 750.08,-14.47"/>
<polygon fill="midnightblue" stroke="midnightblue" points="750.1,-10.96 739.84,-13.59 749.5,-17.93 750.1,-10.96"/>
</g>
<!-- Node18&#45;&gt;Node12 -->
<g id="edge31" class="edge">
<title>Node18&#45;&gt;Node12</title>
<path fill="none" stroke="midnightblue" d="M1054.99,-347.44C1001.47,-337.9 914.93,-322.48 857.76,-312.29"/>
<polygon fill="midnightblue" stroke="midnightblue" points="858.25,-308.83 847.79,-310.52 857.02,-315.72 858.25,-308.83"/>
</g>
<!-- Node18&#45;&gt;Node14 -->
<g id="edge30" class="edge">
<title>Node18&#45;&gt;Node14</title>
<path fill="none" stroke="midnightblue" d="M1093.51,-347.37C1073.1,-328.81 1024.8,-284.91 998.98,-261.44"/>
<polygon fill="midnightblue" stroke="midnightblue" points="1001.2,-258.73 991.45,-254.59 996.5,-263.91 1001.2,-258.73"/>
</g>
<!-- Node19 -->
<g id="node19" class="node">
<title>Node19</title>
<g id="a_node19"><a xlink:title=" ">
<polygon fill="white" stroke="#bfbfbf" points="1365,-179.5 1365,-198.5 1415,-198.5 1415,-179.5 1365,-179.5"/>
<text text-anchor="middle" x="1390" y="-186.5" font-family="Helvetica,sans-Serif" font-size="10.00">cstdint</text>
</a>
</g>
</g>
<!-- Node18&#45;&gt;Node19 -->
<g id="edge26" class="edge">
<title>Node18&#45;&gt;Node19</title>
<path fill="none" stroke="midnightblue" d="M1161.57,-354.75C1208.72,-351.35 1275.13,-341 1325,-311 1352.6,-294.4 1355.95,-283.48 1371,-255 1378.72,-240.38 1383.69,-222.21 1386.61,-208.8"/>
<polygon fill="midnightblue" stroke="midnightblue" points="1390.07,-209.33 1388.58,-198.84 1383.2,-207.96 1390.07,-209.33"/>
</g>
<!-- Node20 -->
<g id="node20" class="node">
<title>Node20</title>
<g id="a_node20"><a xlink:href="WiderType_8hpp.html" target="_top" xlink:title="Definition of the WiderType alias template.">
<polygon fill="white" stroke="black" points="1188,-291.5 1188,-310.5 1316,-310.5 1316,-291.5 1188,-291.5"/>
<text text-anchor="middle" x="1252" y="-298.5" font-family="Helvetica,sans-Serif" font-size="10.00">playrho/WiderType.hpp</text>
</a>
</g>
</g>
<!-- Node18&#45;&gt;Node20 -->
<g id="edge32" class="edge">
<title>Node18&#45;&gt;Node20</title>
<path fill="none" stroke="midnightblue" d="M1126.61,-347.44C1151.46,-338.44 1190.77,-324.19 1218.75,-314.05"/>
<polygon fill="midnightblue" stroke="midnightblue" points="1220.29,-317.21 1228.5,-310.52 1217.91,-310.63 1220.29,-317.21"/>
</g>
<!-- Node21 -->
<g id="node21" class="node">
<title>Node21</title>
<g id="a_node21"><a xlink:href="Wider_8hpp.html" target="_top" xlink:title="Definition of the Wider class template and specializations.">
<polygon fill="white" stroke="black" points="1226,-235.5 1226,-254.5 1362,-254.5 1362,-235.5 1226,-235.5"/>
<text text-anchor="middle" x="1294" y="-242.5" font-family="Helvetica,sans-Serif" font-size="10.00">playrho/detail/Wider.hpp</text>
</a>
</g>
</g>
<!-- Node20&#45;&gt;Node21 -->
<g id="edge33" class="edge">
<title>Node20&#45;&gt;Node21</title>
<path fill="none" stroke="midnightblue" d="M1258.94,-291.08C1264.93,-283.38 1273.75,-272.03 1281.05,-262.65"/>
<polygon fill="midnightblue" stroke="midnightblue" points="1283.82,-264.79 1287.19,-254.75 1278.29,-260.5 1283.82,-264.79"/>
</g>
<!-- Node21&#45;&gt;Node6 -->
<g id="edge35" class="edge">
<title>Node21&#45;&gt;Node6</title>
<path fill="none" stroke="midnightblue" d="M1276.04,-235.36C1260.88,-227.43 1239.27,-214.58 1224,-199 1171.75,-145.71 1199.16,-95.74 1136,-56 1072.56,-16.09 846.8,-11.04 749.81,-10.77"/>
<polygon fill="midnightblue" stroke="midnightblue" points="749.74,-7.27 739.74,-10.76 749.73,-14.27 749.74,-7.27"/>
</g>
<!-- Node21&#45;&gt;Node19 -->
<g id="edge34" class="edge">
<title>Node21&#45;&gt;Node19</title>
<path fill="none" stroke="midnightblue" d="M1309.42,-235.32C1324.54,-226.82 1347.82,-213.73 1365.47,-203.8"/>
<polygon fill="midnightblue" stroke="midnightblue" points="1367.61,-206.61 1374.61,-198.65 1364.18,-200.51 1367.61,-206.61"/>
</g>
<!-- Node22 -->
<g id="node22" class="node">
<title>Node22</title>
<g id="a_node22"><a xlink:href="Defines_8hpp.html" target="_top" xlink:title="Miscellaneous C&#45;preprocessor definitions.">
<polygon fill="white" stroke="black" points="1233,-179.5 1233,-198.5 1347,-198.5 1347,-179.5 1233,-179.5"/>
<text text-anchor="middle" x="1290" y="-186.5" font-family="Helvetica,sans-Serif" font-size="10.00">playrho/Defines.hpp</text>
</a>
</g>
</g>
<!-- Node21&#45;&gt;Node22 -->
<g id="edge36" class="edge">
<title>Node21&#45;&gt;Node22</title>
<path fill="none" stroke="midnightblue" d="M1293.34,-235.08C1292.82,-228.01 1292.06,-217.86 1291.41,-208.99"/>
<polygon fill="midnightblue" stroke="midnightblue" points="1294.88,-208.47 1290.65,-198.75 1287.9,-208.98 1294.88,-208.47"/>
</g>
<!-- Node23&#45;&gt;Node2 -->
<g id="edge47" class="edge">
<title>Node23&#45;&gt;Node2</title>
<path fill="none" stroke="midnightblue" d="M441.65,-238.67C543.83,-228.53 765.68,-206.51 872.35,-195.92"/>
<polygon fill="midnightblue" stroke="midnightblue" points="872.7,-199.4 882.31,-194.93 872.01,-192.44 872.7,-199.4"/>
</g>
<!-- Node23&#45;&gt;Node4 -->
<g id="edge48" class="edge">
<title>Node23&#45;&gt;Node4</title>
<path fill="none" stroke="midnightblue" d="M417.81,-235.4C441.99,-227.73 476.46,-215.23 504,-199 527.58,-185.11 551.25,-164.16 566.22,-149.82"/>
<polygon fill="midnightblue" stroke="midnightblue" points="568.88,-152.12 573.59,-142.63 563.99,-147.11 568.88,-152.12"/>
</g>
<!-- Node23&#45;&gt;Node6 -->
<g id="edge41" class="edge">
<title>Node23&#45;&gt;Node6</title>
<path fill="none" stroke="midnightblue" d="M414.55,-235.45C432.75,-228.34 456.18,-216.52 471,-199 514.39,-147.7 470.37,-101.28 520,-56 540.3,-37.47 612.29,-24.03 660.25,-16.88"/>
<polygon fill="midnightblue" stroke="midnightblue" points="661,-20.31 670.39,-15.41 659.99,-13.38 661,-20.31"/>
</g>
<!-- Node23&#45;&gt;Node8 -->
<g id="edge43" class="edge">
<title>Node23&#45;&gt;Node8</title>
<path fill="none" stroke="midnightblue" d="M334.36,-244.15C251.43,-243.2 97.71,-236.28 60,-199 14.06,-153.59 22.01,-67.7 28.29,-29.79"/>
<polygon fill="midnightblue" stroke="midnightblue" points="31.79,-30.13 30.12,-19.67 24.9,-28.88 31.79,-30.13"/>
</g>
<!-- Node23&#45;&gt;Node10 -->
<g id="edge42" class="edge">
<title>Node23&#45;&gt;Node10</title>
<path fill="none" stroke="midnightblue" d="M334.19,-244.37C253.7,-243.65 107.9,-236.96 75,-199 20.9,-136.57 140.44,-56.32 194.37,-24.69"/>
<polygon fill="midnightblue" stroke="midnightblue" points="196.41,-27.55 203.32,-19.53 192.91,-21.49 196.41,-27.55"/>
</g>
<!-- Node24 -->
<g id="node24" class="node">
<title>Node24</title>
<g id="a_node24"><a xlink:title=" ">
<polygon fill="white" stroke="#bfbfbf" points="260,-179.5 260,-198.5 312,-198.5 312,-179.5 260,-179.5"/>
<text text-anchor="middle" x="286" y="-186.5" font-family="Helvetica,sans-Serif" font-size="10.00">cassert</text>
</a>
</g>
</g>
<!-- Node23&#45;&gt;Node24 -->
<g id="edge39" class="edge">
<title>Node23&#45;&gt;Node24</title>
<path fill="none" stroke="midnightblue" d="M371.61,-235.32C355.33,-226.7 330.13,-213.36 311.28,-203.39"/>
<polygon fill="midnightblue" stroke="midnightblue" points="312.82,-200.24 302.35,-198.65 309.55,-206.43 312.82,-200.24"/>
</g>
<!-- Node25 -->
<g id="node25" class="node">
<title>Node25</title>
<g id="a_node25"><a xlink:title=" ">
<polygon fill="white" stroke="#bfbfbf" points="330.5,-179.5 330.5,-198.5 383.5,-198.5 383.5,-179.5 330.5,-179.5"/>
<text text-anchor="middle" x="357" y="-186.5" font-family="Helvetica,sans-Serif" font-size="10.00">cstddef</text>
</a>
</g>
</g>
<!-- Node23&#45;&gt;Node25 -->
<g id="edge40" class="edge">
<title>Node23&#45;&gt;Node25</title>
<path fill="none" stroke="midnightblue" d="M382.88,-235.08C378.59,-227.61 372.34,-216.72 367.06,-207.52"/>
<polygon fill="midnightblue" stroke="midnightblue" points="370.04,-205.68 362.02,-198.75 363.97,-209.17 370.04,-205.68"/>
</g>
<!-- Node26 -->
<g id="node26" class="node">
<title>Node26</title>
<g id="a_node26"><a xlink:title=" ">
<polygon fill="white" stroke="#bfbfbf" points="402,-179.5 402,-198.5 462,-198.5 462,-179.5 402,-179.5"/>
<text text-anchor="middle" x="432" y="-186.5" font-family="Helvetica,sans-Serif" font-size="10.00">iostream</text>
</a>
</g>
</g>
<!-- Node23&#45;&gt;Node26 -->
<g id="edge44" class="edge">
<title>Node23&#45;&gt;Node26</title>
<path fill="none" stroke="midnightblue" d="M395.27,-235.08C401.54,-227.38 410.79,-216.03 418.43,-206.65"/>
<polygon fill="midnightblue" stroke="midnightblue" points="421.27,-208.71 424.87,-198.75 415.84,-204.29 421.27,-208.71"/>
</g>
<!-- Node27 -->
<g id="node27" class="node">
<title>Node27</title>
<g id="a_node27"><a xlink:href="InvalidArgument_8hpp.html" target="_top" xlink:title="Definition of the InvalidArgument class.">
<polygon fill="white" stroke="black" points="84,-179.5 84,-198.5 242,-198.5 242,-179.5 84,-179.5"/>
<text text-anchor="middle" x="163" y="-186.5" font-family="Helvetica,sans-Serif" font-size="10.00">playrho/InvalidArgument.hpp</text>
</a>
</g>
</g>
<!-- Node23&#45;&gt;Node27 -->
<g id="edge45" class="edge">
<title>Node23&#45;&gt;Node27</title>
<path fill="none" stroke="midnightblue" d="M352.35,-235.44C313.34,-226.08 250.73,-211.06 208.28,-200.87"/>
<polygon fill="midnightblue" stroke="midnightblue" points="209.03,-197.45 198.49,-198.52 207.39,-204.25 209.03,-197.45"/>
</g>
<!-- Node28 -->
<g id="node28" class="node">
<title>Node28</title>
<g id="a_node28"><a xlink:title=" ">
<polygon fill="white" stroke="#bfbfbf" points="130.5,-123.5 130.5,-142.5 195.5,-142.5 195.5,-123.5 130.5,-123.5"/>
<text text-anchor="middle" x="163" y="-130.5" font-family="Helvetica,sans-Serif" font-size="10.00">stdexcept</text>
</a>
</g>
</g>
<!-- Node27&#45;&gt;Node28 -->
<g id="edge46" class="edge">
<title>Node27&#45;&gt;Node28</title>
<path fill="none" stroke="midnightblue" d="M163,-179.08C163,-172.01 163,-161.86 163,-152.99"/>
<polygon fill="midnightblue" stroke="midnightblue" points="166.5,-152.75 163,-142.75 159.5,-152.75 166.5,-152.75"/>
</g>
</g>
</svg>
        <g id="navigator" transform="translate(0 0)" fill="#404254">
                <rect fill="#f2f5e9" fill-opacity="0.5" stroke="#606060" stroke-width=".5" x="0" y="0" width="60" height="60"/>
                <use id="zoomplus" xlink:href="#zoomPlus" x="17" y="9" onmousedown="handleZoom(evt,'in')"/>
                <use id="zoomminus" xlink:href="#zoomMin" x="42" y="9" onmousedown="handleZoom(evt,'out')"/>
                <use id="reset" xlink:href="#resetDef" x="30" y="36" onmousedown="handleReset()"/>
                <g id="arrowUp" xlink:href="#dirArrow" transform="translate(30 24)" onmousedown="handlePan(0,-1)">
                  <use xlink:href="#rim" fill="#404040">
                        <set attributeName="fill" to="#808080" begin="arrowUp.mouseover" end="arrowUp.mouseout"/>
                  </use>
                  <path fill="none" stroke="white" stroke-width="1.5" d="M0,-3.0v7 M-2.5,-0.5L0,-3.0L2.5,-0.5"/>
                </g>
                <g id="arrowRight" xlink:href="#dirArrow" transform="rotate(90) translate(36 -43)" onmousedown="handlePan(1,0)">
                  <use xlink:href="#rim" fill="#404040">
                        <set attributeName="fill" to="#808080" begin="arrowRight.mouseover" end="arrowRight.mouseout"/>
                  </use>
                  <path fill="none" stroke="white" stroke-width="1.5" d="M0,-3.0v7 M-2.5,-0.5L0,-3.0L2.5,-0.5"/>
                </g>
                <g id="arrowDown" xlink:href="#dirArrow" transform="rotate(180) translate(-30 -48)" onmousedown="handlePan(0,1)">
                  <use xlink:href="#rim" fill="#404040">
                        <set attributeName="fill" to="#808080" begin="arrowDown.mouseover" end="arrowDown.mouseout"/>
                  </use>
                  <path fill="none" stroke="white" stroke-width="1.5" d="M0,-3.0v7 M-2.5,-0.5L0,-3.0L2.5,-0.5"/>
                </g>
                <g id="arrowLeft" xlink:href="#dirArrow" transform="rotate(270) translate(-36 17)" onmousedown="handlePan(-1,0)">
                  <use xlink:href="#rim" fill="#404040">
                        <set attributeName="fill" to="#808080" begin="arrowLeft.mouseover" end="arrowLeft.mouseout"/>
                  </use>
                  <path fill="none" stroke="white" stroke-width="1.5" d="M0,-3.0v7 M-2.5,-0.5L0,-3.0L2.5,-0.5"/>
                </g>
        </g>
        <svg viewBox="0 0 15 15" width="100%" height="30px" preserveAspectRatio="xMaxYMin meet">
         <g id="arrow_out" transform="scale(0.3 0.3)">
          <a xlink:href="Acceleration_8hpp__incl_org.svg" target="_base">
           <rect id="button" ry="5" rx="5" y="6" x="6" height="38" width="38"
                fill="#f2f5e9" fill-opacity="0.5" stroke="#606060" stroke-width="1.0"/>
           <path id="arrow"
             d="M 11.500037,31.436501 C 11.940474,20.09759 22.043105,11.32322 32.158766,21.979434 L 37.068811,17.246167 C 37.068811,17.246167 37.088388,32 37.088388,32 L 22.160133,31.978069 C 22.160133,31.978069 26.997745,27.140456 26.997745,27.140456 C 18.528582,18.264221 13.291696,25.230495 11.500037,31.436501 z"
             style="fill:#404040;"/>
          </a>
         </g>
        </svg>
</svg>
