<?xml version="1.0" encoding="UTF-8" standalone="no"?>
<!DOCTYPE svg PUBLIC "-//W3C//DTD SVG 1.1//EN"
 "http://www.w3.org/Graphics/SVG/1.1/DTD/svg11.dtd">
<!-- Generated by graphviz version 2.43.0 (0)
 -->
<!-- Title: Library/include/playrho/ArrayList.hpp Pages: 1 -->
<svg width="818pt" height="263pt"
 viewBox="0.00 0.00 817.50 263.00" xmlns="http://www.w3.org/2000/svg" xmlns:xlink="http://www.w3.org/1999/xlink">
<g id="graph0" class="graph" transform="scale(1 1) rotate(0) translate(4 259)">
<title>Library/include/playrho/ArrayList.hpp</title>
<polygon fill="white" stroke="transparent" points="-4,4 -4,-259 813.5,-259 813.5,4 -4,4"/>
<!-- Node1 -->
<g id="node1" class="node">
<title>Node1</title>
<g id="a_node1"><a xlink:title="Definition of the ArrayList class and closely related functions.">
<polygon fill="#bfbfbf" stroke="black" points="249,-224.5 249,-254.5 377,-254.5 377,-224.5 249,-224.5"/>
<text text-anchor="start" x="257" y="-242.5" font-family="Helvetica,sans-Serif" font-size="10.00">Library/include/playrho</text>
<text text-anchor="middle" x="313" y="-231.5" font-family="Helvetica,sans-Serif" font-size="10.00">/ArrayList.hpp</text>
</a>
</g>
</g>
<!-- Node2 -->
<g id="node2" class="node">
<title>Node2</title>
<g id="a_node2"><a xlink:title=" ">
<polygon fill="white" stroke="#bfbfbf" points="0,-168.5 0,-187.5 42,-187.5 42,-168.5 0,-168.5"/>
<text text-anchor="middle" x="21" y="-175.5" font-family="Helvetica,sans-Serif" font-size="10.00">array</text>
</a>
</g>
</g>
<!-- Node1&#45;&gt;Node2 -->
<g id="edge1" class="edge">
<title>Node1&#45;&gt;Node2</title>
<path fill="none" stroke="midnightblue" d="M248.89,-226.96C196.76,-217.33 121.41,-202.82 56,-188 54.73,-187.71 53.43,-187.41 52.12,-187.1"/>
<polygon fill="midnightblue" stroke="midnightblue" points="52.6,-183.61 42.05,-184.62 50.93,-190.41 52.6,-183.61"/>
</g>
<!-- Node3 -->
<g id="node3" class="node">
<title>Node3</title>
<g id="a_node3"><a xlink:title=" ">
<polygon fill="white" stroke="#bfbfbf" points="98,-112.5 98,-131.5 150,-131.5 150,-112.5 98,-112.5"/>
<text text-anchor="middle" x="124" y="-119.5" font-family="Helvetica,sans-Serif" font-size="10.00">cassert</text>
</a>
</g>
</g>
<!-- Node1&#45;&gt;Node3 -->
<g id="edge2" class="edge">
<title>Node1&#45;&gt;Node3</title>
<path fill="none" stroke="midnightblue" d="M289.82,-224.34C253.45,-202.11 183.37,-159.28 147.06,-137.09"/>
<polygon fill="midnightblue" stroke="midnightblue" points="148.54,-133.9 138.19,-131.67 144.89,-139.87 148.54,-133.9"/>
</g>
<!-- Node4 -->
<g id="node4" class="node">
<title>Node4</title>
<g id="a_node4"><a xlink:title=" ">
<polygon fill="white" stroke="#bfbfbf" points="570.5,-56.5 570.5,-75.5 619.5,-75.5 619.5,-56.5 570.5,-56.5"/>
<text text-anchor="middle" x="595" y="-63.5" font-family="Helvetica,sans-Serif" font-size="10.00">cstdlib</text>
</a>
</g>
</g>
<!-- Node1&#45;&gt;Node4 -->
<g id="edge3" class="edge">
<title>Node1&#45;&gt;Node4</title>
<path fill="none" stroke="midnightblue" d="M354.53,-224.47C401.66,-207.3 479.45,-175.12 537,-132 555.27,-118.31 572.16,-98.17 582.94,-83.94"/>
<polygon fill="midnightblue" stroke="midnightblue" points="585.99,-85.7 589.1,-75.57 580.36,-81.55 585.99,-85.7"/>
</g>
<!-- Node5 -->
<g id="node5" class="node">
<title>Node5</title>
<g id="a_node5"><a xlink:title=" ">
<polygon fill="white" stroke="#bfbfbf" points="168.5,-112.5 168.5,-131.5 251.5,-131.5 251.5,-112.5 168.5,-112.5"/>
<text text-anchor="middle" x="210" y="-119.5" font-family="Helvetica,sans-Serif" font-size="10.00">initializer_list</text>
</a>
</g>
</g>
<!-- Node1&#45;&gt;Node5 -->
<g id="edge4" class="edge">
<title>Node1&#45;&gt;Node5</title>
<path fill="none" stroke="midnightblue" d="M293.38,-224.31C281.01,-214.82 265.14,-201.62 253,-188 239.82,-173.2 227.65,-154.06 219.64,-140.39"/>
<polygon fill="midnightblue" stroke="midnightblue" points="222.59,-138.5 214.6,-131.54 216.51,-141.97 222.59,-138.5"/>
</g>
<!-- Node6 -->
<g id="node6" class="node">
<title>Node6</title>
<g id="a_node6"><a xlink:title=" ">
<polygon fill="white" stroke="#bfbfbf" points="261.5,-0.5 261.5,-19.5 330.5,-19.5 330.5,-0.5 261.5,-0.5"/>
<text text-anchor="middle" x="296" y="-7.5" font-family="Helvetica,sans-Serif" font-size="10.00">type_traits</text>
</a>
</g>
</g>
<!-- Node1&#45;&gt;Node6 -->
<g id="edge5" class="edge">
<title>Node1&#45;&gt;Node6</title>
<path fill="none" stroke="midnightblue" d="M248.75,-227.65C195.44,-214.85 123.05,-187.77 89,-132 48.27,-65.29 178.65,-31.34 251.04,-17.99"/>
<polygon fill="midnightblue" stroke="midnightblue" points="252.04,-21.36 261.27,-16.17 250.82,-14.47 252.04,-21.36"/>
</g>
<!-- Node7 -->
<g id="node7" class="node">
<title>Node7</title>
<g id="a_node7"><a xlink:title=" ">
<polygon fill="white" stroke="#bfbfbf" points="519.5,-0.5 519.5,-19.5 564.5,-19.5 564.5,-0.5 519.5,-0.5"/>
<text text-anchor="middle" x="542" y="-7.5" font-family="Helvetica,sans-Serif" font-size="10.00">utility</text>
</a>
</g>
</g>
<!-- Node1&#45;&gt;Node7 -->
<g id="edge6" class="edge">
<title>Node1&#45;&gt;Node7</title>
<path fill="none" stroke="midnightblue" d="M377.2,-228.75C455.75,-212.79 583.87,-172.54 629,-76 641.88,-48.46 604,-29.82 574.21,-19.8"/>
<polygon fill="midnightblue" stroke="midnightblue" points="575.09,-16.41 564.5,-16.73 572.98,-23.08 575.09,-16.41"/>
</g>
<!-- Node8 -->
<g id="node8" class="node">
<title>Node8</title>
<g id="a_node8"><a xlink:href="LengthError_8hpp.html" target="_top" xlink:title="Definition of the LengthError class.">
<polygon fill="white" stroke="black" points="676.5,-168.5 676.5,-187.5 809.5,-187.5 809.5,-168.5 676.5,-168.5"/>
<text text-anchor="middle" x="743" y="-175.5" font-family="Helvetica,sans-Serif" font-size="10.00">playrho/LengthError.hpp</text>
</a>
</g>
</g>
<!-- Node1&#45;&gt;Node8 -->
<g id="edge7" class="edge">
<title>Node1&#45;&gt;Node8</title>
<path fill="none" stroke="midnightblue" d="M377.38,-229.59C456.21,-218.68 589.33,-200.26 671.34,-188.92"/>
<polygon fill="midnightblue" stroke="midnightblue" points="671.9,-192.37 681.33,-187.53 670.94,-185.44 671.9,-192.37"/>
</g>
<!-- Node10 -->
<g id="node10" class="node">
<title>Node10</title>
<g id="a_node10"><a xlink:href="Span_8hpp.html" target="_top" xlink:title="Definition of the Span class template.">
<polygon fill="white" stroke="black" points="262.5,-168.5 262.5,-187.5 363.5,-187.5 363.5,-168.5 262.5,-168.5"/>
<text text-anchor="middle" x="313" y="-175.5" font-family="Helvetica,sans-Serif" font-size="10.00">playrho/Span.hpp</text>
</a>
</g>
</g>
<!-- Node1&#45;&gt;Node10 -->
<g id="edge9" class="edge">
<title>Node1&#45;&gt;Node10</title>
<path fill="none" stroke="midnightblue" d="M313,-224.4C313,-216.47 313,-206.46 313,-197.86"/>
<polygon fill="midnightblue" stroke="midnightblue" points="316.5,-197.66 313,-187.66 309.5,-197.66 316.5,-197.66"/>
</g>
<!-- Node12 -->
<g id="node12" class="node">
<title>Node12</title>
<g id="a_node12"><a xlink:href="Templates_8hpp.html" target="_top" xlink:title="Definitions of miscellaneous template related code.">
<polygon fill="white" stroke="black" points="379,-112.5 379,-131.5 507,-131.5 507,-112.5 379,-112.5"/>
<text text-anchor="middle" x="443" y="-119.5" font-family="Helvetica,sans-Serif" font-size="10.00">playrho/Templates.hpp</text>
</a>
</g>
</g>
<!-- Node1&#45;&gt;Node12 -->
<g id="edge23" class="edge">
<title>Node1&#45;&gt;Node12</title>
<path fill="none" stroke="midnightblue" d="M329.66,-224.5C341.55,-214.44 357.87,-200.51 372,-188 390.83,-171.33 412.05,-151.8 426.35,-138.53"/>
<polygon fill="midnightblue" stroke="midnightblue" points="428.96,-140.89 433.9,-131.51 424.19,-135.76 428.96,-140.89"/>
</g>
<!-- Node9 -->
<g id="node9" class="node">
<title>Node9</title>
<g id="a_node9"><a xlink:title=" ">
<polygon fill="white" stroke="#bfbfbf" points="710.5,-112.5 710.5,-131.5 775.5,-131.5 775.5,-112.5 710.5,-112.5"/>
<text text-anchor="middle" x="743" y="-119.5" font-family="Helvetica,sans-Serif" font-size="10.00">stdexcept</text>
</a>
</g>
</g>
<!-- Node8&#45;&gt;Node9 -->
<g id="edge8" class="edge">
<title>Node8&#45;&gt;Node9</title>
<path fill="none" stroke="midnightblue" d="M743,-168.08C743,-161.01 743,-150.86 743,-141.99"/>
<polygon fill="midnightblue" stroke="midnightblue" points="746.5,-141.75 743,-131.75 739.5,-141.75 746.5,-141.75"/>
</g>
<!-- Node10&#45;&gt;Node3 -->
<g id="edge11" class="edge">
<title>Node10&#45;&gt;Node3</title>
<path fill="none" stroke="midnightblue" d="M283.05,-168.44C249.71,-158.92 195.82,-143.52 160.15,-133.33"/>
<polygon fill="midnightblue" stroke="midnightblue" points="160.73,-129.85 150.16,-130.47 158.81,-136.59 160.73,-129.85"/>
</g>
<!-- Node10&#45;&gt;Node5 -->
<g id="edge12" class="edge">
<title>Node10&#45;&gt;Node5</title>
<path fill="none" stroke="midnightblue" d="M296.45,-168.32C280.01,-159.7 254.57,-146.36 235.53,-136.39"/>
<polygon fill="midnightblue" stroke="midnightblue" points="236.99,-133.2 226.51,-131.65 233.74,-139.4 236.99,-133.2"/>
</g>
<!-- Node10&#45;&gt;Node6 -->
<g id="edge13" class="edge">
<title>Node10&#45;&gt;Node6</title>
<path fill="none" stroke="midnightblue" d="M317.62,-168.34C322.06,-159.49 328.45,-145.22 331,-132 332.68,-123.27 332.48,-120.77 331,-112 325.93,-81.91 312.93,-48.8 304.28,-28.97"/>
<polygon fill="midnightblue" stroke="midnightblue" points="307.39,-27.35 300.11,-19.66 301.01,-30.21 307.39,-27.35"/>
</g>
<!-- Node10&#45;&gt;Node7 -->
<g id="edge14" class="edge">
<title>Node10&#45;&gt;Node7</title>
<path fill="none" stroke="midnightblue" d="M363.76,-171.99C416.75,-165.71 495.01,-153.13 516,-132 543.04,-104.78 545.01,-56.66 543.72,-30.04"/>
<polygon fill="midnightblue" stroke="midnightblue" points="547.2,-29.51 543.01,-19.77 540.21,-29.99 547.2,-29.51"/>
</g>
<!-- Node11 -->
<g id="node11" class="node">
<title>Node11</title>
<g id="a_node11"><a xlink:title=" ">
<polygon fill="white" stroke="#bfbfbf" points="269.5,-112.5 269.5,-131.5 322.5,-131.5 322.5,-112.5 269.5,-112.5"/>
<text text-anchor="middle" x="296" y="-119.5" font-family="Helvetica,sans-Serif" font-size="10.00">cstddef</text>
</a>
</g>
</g>
<!-- Node10&#45;&gt;Node11 -->
<g id="edge10" class="edge">
<title>Node10&#45;&gt;Node11</title>
<path fill="none" stroke="midnightblue" d="M310.19,-168.08C307.92,-160.85 304.63,-150.41 301.79,-141.4"/>
<polygon fill="midnightblue" stroke="midnightblue" points="305.1,-140.24 298.75,-131.75 298.42,-142.34 305.1,-140.24"/>
</g>
<!-- Node10&#45;&gt;Node12 -->
<g id="edge15" class="edge">
<title>Node10&#45;&gt;Node12</title>
<path fill="none" stroke="midnightblue" d="M333.6,-168.44C354.99,-159.56 388.68,-145.56 413.02,-135.45"/>
<polygon fill="midnightblue" stroke="midnightblue" points="414.61,-138.58 422.5,-131.52 411.92,-132.12 414.61,-138.58"/>
</g>
<!-- Node12&#45;&gt;Node4 -->
<g id="edge16" class="edge">
<title>Node12&#45;&gt;Node4</title>
<path fill="none" stroke="midnightblue" d="M467.08,-112.44C492.54,-103.4 532.89,-89.06 561.46,-78.92"/>
<polygon fill="midnightblue" stroke="midnightblue" points="562.78,-82.16 571.03,-75.52 560.43,-75.57 562.78,-82.16"/>
</g>
<!-- Node12&#45;&gt;Node6 -->
<g id="edge17" class="edge">
<title>Node12&#45;&gt;Node6</title>
<path fill="none" stroke="midnightblue" d="M416.71,-112.48C396.3,-105.01 368.03,-92.73 347,-76 330.22,-62.65 315.64,-42.73 306.42,-28.46"/>
<polygon fill="midnightblue" stroke="midnightblue" points="309.19,-26.28 300.93,-19.63 303.24,-29.97 309.19,-26.28"/>
</g>
<!-- Node13 -->
<g id="node13" class="node">
<title>Node13</title>
<g id="a_node13"><a xlink:href="detail_2Templates_8hpp.html" target="_top" xlink:title="Low&#45;level declarations for general class &amp; function templates.">
<polygon fill="white" stroke="black" points="356,-56.5 356,-75.5 514,-75.5 514,-56.5 356,-56.5"/>
<text text-anchor="middle" x="435" y="-63.5" font-family="Helvetica,sans-Serif" font-size="10.00">playrho/detail/Templates.hpp</text>
</a>
</g>
</g>
<!-- Node12&#45;&gt;Node13 -->
<g id="edge18" class="edge">
<title>Node12&#45;&gt;Node13</title>
<path fill="none" stroke="midnightblue" d="M441.68,-112.08C440.62,-104.93 439.09,-94.64 437.77,-85.69"/>
<polygon fill="midnightblue" stroke="midnightblue" points="441.22,-85.13 436.3,-75.75 434.3,-86.16 441.22,-85.13"/>
</g>
<!-- Node13&#45;&gt;Node6 -->
<g id="edge21" class="edge">
<title>Node13&#45;&gt;Node6</title>
<path fill="none" stroke="midnightblue" d="M412.98,-56.44C389.9,-47.48 353.44,-33.31 327.36,-23.18"/>
<polygon fill="midnightblue" stroke="midnightblue" points="328.51,-19.88 317.92,-19.52 325.98,-26.4 328.51,-19.88"/>
</g>
<!-- Node13&#45;&gt;Node7 -->
<g id="edge22" class="edge">
<title>Node13&#45;&gt;Node7</title>
<path fill="none" stroke="midnightblue" d="M452.19,-56.32C469.35,-47.66 495.95,-34.24 515.75,-24.25"/>
<polygon fill="midnightblue" stroke="midnightblue" points="517.5,-27.28 524.85,-19.65 514.35,-21.04 517.5,-27.28"/>
</g>
<!-- Node14 -->
<g id="node14" class="node">
<title>Node14</title>
<g id="a_node14"><a xlink:title=" ">
<polygon fill="white" stroke="#bfbfbf" points="360,-0.5 360,-19.5 424,-19.5 424,-0.5 360,-0.5"/>
<text text-anchor="middle" x="392" y="-7.5" font-family="Helvetica,sans-Serif" font-size="10.00">algorithm</text>
</a>
</g>
</g>
<!-- Node13&#45;&gt;Node14 -->
<g id="edge19" class="edge">
<title>Node13&#45;&gt;Node14</title>
<path fill="none" stroke="midnightblue" d="M427.9,-56.08C421.76,-48.38 412.73,-37.03 405.26,-27.65"/>
<polygon fill="midnightblue" stroke="midnightblue" points="407.94,-25.39 398.97,-19.75 402.46,-29.75 407.94,-25.39"/>
</g>
<!-- Node15 -->
<g id="node15" class="node">
<title>Node15</title>
<g id="a_node15"><a xlink:title=" ">
<polygon fill="white" stroke="#bfbfbf" points="442.5,-0.5 442.5,-19.5 495.5,-19.5 495.5,-0.5 442.5,-0.5"/>
<text text-anchor="middle" x="469" y="-7.5" font-family="Helvetica,sans-Serif" font-size="10.00">iterator</text>
</a>
</g>
</g>
<!-- Node13&#45;&gt;Node15 -->
<g id="edge20" class="edge">
<title>Node13&#45;&gt;Node15</title>
<path fill="none" stroke="midnightblue" d="M440.61,-56.08C445.37,-48.53 452.32,-37.49 458.15,-28.23"/>
<polygon fill="midnightblue" stroke="midnightblue" points="461.12,-30.08 463.49,-19.75 455.2,-26.35 461.12,-30.08"/>
</g>
</g>
</svg>
