<?xml version="1.0" encoding="UTF-8" standalone="no"?>
<!DOCTYPE svg PUBLIC "-//W3C//DTD SVG 1.1//EN"
 "http://www.w3.org/Graphics/SVG/1.1/DTD/svg11.dtd">
<!-- Generated by graphviz version 2.43.0 (0)
 -->
<!-- Title: Library/include/playrho/ArrayList.hpp Pages: 1 -->
<svg width="562pt" height="441pt"
 viewBox="0.00 0.00 562.27 441.00" xmlns="http://www.w3.org/2000/svg" xmlns:xlink="http://www.w3.org/1999/xlink">
<g id="graph0" class="graph" transform="scale(1 1) rotate(0) translate(4 437)">
<title>Library/include/playrho/ArrayList.hpp</title>
<polygon fill="white" stroke="transparent" points="-4,4 -4,-437 558.27,-437 558.27,4 -4,4"/>
<!-- Node1 -->
<g id="node1" class="node">
<title>Node1</title>
<g id="a_node1"><a xlink:title="Definition of the ArrayList class and closely related functions.">
<polygon fill="#bfbfbf" stroke="black" points="205.27,-402.5 205.27,-432.5 333.27,-432.5 333.27,-402.5 205.27,-402.5"/>
<text text-anchor="start" x="213.27" y="-420.5" font-family="Helvetica,sans-Serif" font-size="10.00">Library/include/playrho</text>
<text text-anchor="middle" x="269.27" y="-409.5" font-family="Helvetica,sans-Serif" font-size="10.00">/ArrayList.hpp</text>
</a>
</g>
</g>
<!-- Node2 -->
<g id="node2" class="node">
<title>Node2</title>
<g id="a_node2"><a xlink:href="BodyConf_8hpp.html" target="_top" xlink:title="Declarations of BodyConf class and free functions associated with it.">
<polygon fill="white" stroke="black" points="59.27,-335.5 59.27,-365.5 187.27,-365.5 187.27,-335.5 59.27,-335.5"/>
<text text-anchor="start" x="67.27" y="-353.5" font-family="Helvetica,sans-Serif" font-size="10.00">Library/include/playrho</text>
<text text-anchor="middle" x="123.27" y="-342.5" font-family="Helvetica,sans-Serif" font-size="10.00">/d2/BodyConf.hpp</text>
</a>
</g>
</g>
<!-- Node1&#45;&gt;Node2 -->
<g id="edge1" class="edge">
<title>Node1&#45;&gt;Node2</title>
<path fill="none" stroke="midnightblue" d="M228.32,-398.27C205.06,-387.92 176.4,-375.15 154.89,-365.58"/>
<polygon fill="midnightblue" stroke="midnightblue" points="227.03,-401.53 237.59,-402.4 229.88,-395.13 227.03,-401.53"/>
</g>
<!-- Node12 -->
<g id="node12" class="node">
<title>Node12</title>
<g id="a_node12"><a xlink:href="ClipList_8hpp.html" target="_top" xlink:title="Structures and functions used for computing clip lists.">
<polygon fill="white" stroke="black" points="205.27,-335.5 205.27,-365.5 333.27,-365.5 333.27,-335.5 205.27,-335.5"/>
<text text-anchor="start" x="213.27" y="-353.5" font-family="Helvetica,sans-Serif" font-size="10.00">Library/include/playrho</text>
<text text-anchor="middle" x="269.27" y="-342.5" font-family="Helvetica,sans-Serif" font-size="10.00">/d2/ClipList.hpp</text>
</a>
</g>
</g>
<!-- Node1&#45;&gt;Node12 -->
<g id="edge15" class="edge">
<title>Node1&#45;&gt;Node12</title>
<path fill="none" stroke="midnightblue" d="M269.27,-392.11C269.27,-383.15 269.27,-373.32 269.27,-365.58"/>
<polygon fill="midnightblue" stroke="midnightblue" points="265.77,-392.4 269.27,-402.4 272.77,-392.4 265.77,-392.4"/>
</g>
<!-- Node13 -->
<g id="node13" class="node">
<title>Node13</title>
<g id="a_node13"><a xlink:href="Simplex_8hpp.html" target="_top" xlink:title="Definition of the Simplex class and closely related code.">
<polygon fill="white" stroke="black" points="351.27,-335.5 351.27,-365.5 479.27,-365.5 479.27,-335.5 351.27,-335.5"/>
<text text-anchor="start" x="359.27" y="-353.5" font-family="Helvetica,sans-Serif" font-size="10.00">Library/include/playrho</text>
<text text-anchor="middle" x="415.27" y="-342.5" font-family="Helvetica,sans-Serif" font-size="10.00">/d2/Simplex.hpp</text>
</a>
</g>
</g>
<!-- Node1&#45;&gt;Node13 -->
<g id="edge16" class="edge">
<title>Node1&#45;&gt;Node13</title>
<path fill="none" stroke="midnightblue" d="M310.22,-398.27C333.47,-387.92 362.14,-375.15 383.65,-365.58"/>
<polygon fill="midnightblue" stroke="midnightblue" points="308.66,-395.13 300.95,-402.4 311.51,-401.53 308.66,-395.13"/>
</g>
<!-- Node3 -->
<g id="node3" class="node">
<title>Node3</title>
<g id="a_node3"><a xlink:href="Body_8hpp.html" target="_top" xlink:title="Declarations of the Body class, and functions associated with it.">
<polygon fill="white" stroke="black" points="132.27,-268.5 132.27,-298.5 260.27,-298.5 260.27,-268.5 132.27,-268.5"/>
<text text-anchor="start" x="140.27" y="-286.5" font-family="Helvetica,sans-Serif" font-size="10.00">Library/include/playrho</text>
<text text-anchor="middle" x="196.27" y="-275.5" font-family="Helvetica,sans-Serif" font-size="10.00">/d2/Body.hpp</text>
</a>
</g>
</g>
<!-- Node2&#45;&gt;Node3 -->
<g id="edge2" class="edge">
<title>Node2&#45;&gt;Node3</title>
<path fill="none" stroke="midnightblue" d="M146.74,-328.6C157.77,-318.78 170.61,-307.34 180.46,-298.58"/>
<polygon fill="midnightblue" stroke="midnightblue" points="144.25,-326.13 139.11,-335.4 148.9,-331.36 144.25,-326.13"/>
</g>
<!-- Node9 -->
<g id="node9" class="node">
<title>Node9</title>
<g id="a_node9"><a xlink:href="World_8hpp.html" target="_top" xlink:title="Definitions of the World class and closely related code.">
<polygon fill="white" stroke="black" points="24.27,-67.5 24.27,-97.5 152.27,-97.5 152.27,-67.5 24.27,-67.5"/>
<text text-anchor="start" x="32.27" y="-85.5" font-family="Helvetica,sans-Serif" font-size="10.00">Library/include/playrho</text>
<text text-anchor="middle" x="88.27" y="-74.5" font-family="Helvetica,sans-Serif" font-size="10.00">/d2/World.hpp</text>
</a>
</g>
</g>
<!-- Node2&#45;&gt;Node9 -->
<g id="edge14" class="edge">
<title>Node2&#45;&gt;Node9</title>
<path fill="none" stroke="midnightblue" d="M92.16,-329.45C63.47,-308.92 22.76,-274.1 5.27,-232 -0.98,-216.96 -3.17,-152.16 7.27,-134 16.76,-117.48 34.07,-105.61 50.26,-97.55"/>
<polygon fill="midnightblue" stroke="midnightblue" points="90.44,-332.51 100.64,-335.36 94.44,-326.77 90.44,-332.51"/>
</g>
<!-- Node4 -->
<g id="node4" class="node">
<title>Node4</title>
<g id="a_node4"><a xlink:href="BodyConstraint_8hpp.html" target="_top" xlink:title="Definition of the BodyConstraint class and closely related code.">
<polygon fill="white" stroke="black" points="269.77,-201.5 269.77,-231.5 400.77,-231.5 400.77,-201.5 269.77,-201.5"/>
<text text-anchor="start" x="277.77" y="-219.5" font-family="Helvetica,sans-Serif" font-size="10.00">Library/include/playrho</text>
<text text-anchor="middle" x="335.27" y="-208.5" font-family="Helvetica,sans-Serif" font-size="10.00">/d2/BodyConstraint.hpp</text>
</a>
</g>
</g>
<!-- Node3&#45;&gt;Node4 -->
<g id="edge3" class="edge">
<title>Node3&#45;&gt;Node4</title>
<path fill="none" stroke="midnightblue" d="M235.55,-264.13C257.64,-253.8 284.78,-241.11 305.17,-231.58"/>
<polygon fill="midnightblue" stroke="midnightblue" points="234.01,-260.99 226.43,-268.4 236.97,-267.33 234.01,-260.99"/>
</g>
<!-- Node7 -->
<g id="node7" class="node">
<title>Node7</title>
<g id="a_node7"><a xlink:href="WorldConcept_8hpp.html" target="_top" xlink:title="Definition of the internal WorldConcept interface class.">
<polygon fill="white" stroke="black" points="14.27,-201.5 14.27,-231.5 168.27,-231.5 168.27,-201.5 14.27,-201.5"/>
<text text-anchor="start" x="22.27" y="-219.5" font-family="Helvetica,sans-Serif" font-size="10.00">Library/include/playrho</text>
<text text-anchor="middle" x="91.27" y="-208.5" font-family="Helvetica,sans-Serif" font-size="10.00">/d2/detail/WorldConcept.hpp</text>
</a>
</g>
</g>
<!-- Node3&#45;&gt;Node7 -->
<g id="edge6" class="edge">
<title>Node3&#45;&gt;Node7</title>
<path fill="none" stroke="midnightblue" d="M164.79,-263.02C148.45,-252.9 128.86,-240.77 114.01,-231.58"/>
<polygon fill="midnightblue" stroke="midnightblue" points="163.14,-266.11 173.48,-268.4 166.82,-260.16 163.14,-266.11"/>
</g>
<!-- Node3&#45;&gt;Node9 -->
<g id="edge11" class="edge">
<title>Node3&#45;&gt;Node9</title>
<path fill="none" stroke="midnightblue" d="M199.4,-258.35C202.19,-226.94 202.53,-171.65 177.27,-134 166.08,-117.33 147.43,-105.54 130.08,-97.56"/>
<polygon fill="midnightblue" stroke="midnightblue" points="195.91,-258.08 198.36,-268.39 202.87,-258.81 195.91,-258.08"/>
</g>
<!-- Node11 -->
<g id="node11" class="node">
<title>Node11</title>
<g id="a_node11"><a xlink:href="WorldBody_8hpp.html" target="_top" xlink:title="Declarations of free functions of World for bodies identified by BodyID.">
<polygon fill="white" stroke="black" points="170.27,-67.5 170.27,-97.5 298.27,-97.5 298.27,-67.5 170.27,-67.5"/>
<text text-anchor="start" x="178.27" y="-85.5" font-family="Helvetica,sans-Serif" font-size="10.00">Library/include/playrho</text>
<text text-anchor="middle" x="234.27" y="-74.5" font-family="Helvetica,sans-Serif" font-size="10.00">/d2/WorldBody.hpp</text>
</a>
</g>
</g>
<!-- Node3&#45;&gt;Node11 -->
<g id="edge12" class="edge">
<title>Node3&#45;&gt;Node11</title>
<path fill="none" stroke="midnightblue" d="M203.48,-258.6C205.84,-250.24 208.35,-240.75 210.27,-232 220.98,-183.02 229.13,-123.98 232.53,-97.52"/>
<polygon fill="midnightblue" stroke="midnightblue" points="200.04,-257.88 200.61,-268.45 206.76,-259.83 200.04,-257.88"/>
</g>
<!-- Node5 -->
<g id="node5" class="node">
<title>Node5</title>
<g id="a_node5"><a xlink:href="AabbTreeWorld_8hpp.html" target="_top" xlink:title="Declarations of the AabbTreeWorld class.">
<polygon fill="white" stroke="black" points="426.27,-134.5 426.27,-164.5 554.27,-164.5 554.27,-134.5 426.27,-134.5"/>
<text text-anchor="start" x="434.27" y="-152.5" font-family="Helvetica,sans-Serif" font-size="10.00">Library/include/playrho</text>
<text text-anchor="middle" x="490.27" y="-141.5" font-family="Helvetica,sans-Serif" font-size="10.00">/d2/AabbTreeWorld.hpp</text>
</a>
</g>
</g>
<!-- Node4&#45;&gt;Node5 -->
<g id="edge4" class="edge">
<title>Node4&#45;&gt;Node5</title>
<path fill="none" stroke="midnightblue" d="M378.41,-197.41C403.16,-187.03 433.76,-174.2 456.7,-164.58"/>
<polygon fill="midnightblue" stroke="midnightblue" points="376.77,-194.3 368.9,-201.4 379.48,-200.76 376.77,-194.3"/>
</g>
<!-- Node6 -->
<g id="node6" class="node">
<title>Node6</title>
<g id="a_node6"><a xlink:href="VelocityConstraint_8hpp.html" target="_top" xlink:title="Definition of the VelocityConstraint class and closely related code.">
<polygon fill="white" stroke="black" points="262.77,-134.5 262.77,-164.5 407.77,-164.5 407.77,-134.5 262.77,-134.5"/>
<text text-anchor="start" x="270.77" y="-152.5" font-family="Helvetica,sans-Serif" font-size="10.00">Library/include/playrho</text>
<text text-anchor="middle" x="335.27" y="-141.5" font-family="Helvetica,sans-Serif" font-size="10.00">/d2/VelocityConstraint.hpp</text>
</a>
</g>
</g>
<!-- Node4&#45;&gt;Node6 -->
<g id="edge5" class="edge">
<title>Node4&#45;&gt;Node6</title>
<path fill="none" stroke="midnightblue" d="M335.27,-191.11C335.27,-182.15 335.27,-172.32 335.27,-164.58"/>
<polygon fill="midnightblue" stroke="midnightblue" points="331.77,-191.4 335.27,-201.4 338.77,-191.4 331.77,-191.4"/>
</g>
<!-- Node8 -->
<g id="node8" class="node">
<title>Node8</title>
<g id="a_node8"><a xlink:href="WorldModel_8hpp.html" target="_top" xlink:title="Definitions of the WorldModel class and closely related code.">
<polygon fill="white" stroke="black" points="24.27,-134.5 24.27,-164.5 168.27,-164.5 168.27,-134.5 24.27,-134.5"/>
<text text-anchor="start" x="32.27" y="-152.5" font-family="Helvetica,sans-Serif" font-size="10.00">Library/include/playrho</text>
<text text-anchor="middle" x="96.27" y="-141.5" font-family="Helvetica,sans-Serif" font-size="10.00">/d2/detail/WorldModel.hpp</text>
</a>
</g>
</g>
<!-- Node7&#45;&gt;Node8 -->
<g id="edge7" class="edge">
<title>Node7&#45;&gt;Node8</title>
<path fill="none" stroke="midnightblue" d="M93.12,-191.4C93.82,-182.37 94.58,-172.41 95.19,-164.58"/>
<polygon fill="midnightblue" stroke="midnightblue" points="89.63,-191.16 92.35,-201.4 96.61,-191.69 89.63,-191.16"/>
</g>
<!-- Node7&#45;&gt;Node9 -->
<g id="edge10" class="edge">
<title>Node7&#45;&gt;Node9</title>
<path fill="none" stroke="midnightblue" d="M47.36,-196.46C34.7,-188.65 22.38,-178.27 15.27,-165 8.76,-152.86 8.87,-146.2 15.27,-134 23.71,-117.89 39.88,-105.91 54.86,-97.66"/>
<polygon fill="midnightblue" stroke="midnightblue" points="45.71,-199.54 56.13,-201.45 49.17,-193.46 45.71,-199.54"/>
</g>
<!-- Node8&#45;&gt;Node9 -->
<g id="edge8" class="edge">
<title>Node8&#45;&gt;Node9</title>
<path fill="none" stroke="midnightblue" d="M93.3,-124.4C92.19,-115.37 90.96,-105.41 90,-97.58"/>
<polygon fill="midnightblue" stroke="midnightblue" points="89.84,-124.9 94.53,-134.4 96.78,-124.04 89.84,-124.9"/>
</g>
<!-- Node10 -->
<g id="node10" class="node">
<title>Node10</title>
<g id="a_node10"><a xlink:href="BasicAPI_8hpp.html" target="_top" xlink:title="Basic API include file to pull in at once most headers used.">
<polygon fill="white" stroke="black" points="97.27,-0.5 97.27,-30.5 225.27,-30.5 225.27,-0.5 97.27,-0.5"/>
<text text-anchor="start" x="105.27" y="-18.5" font-family="Helvetica,sans-Serif" font-size="10.00">Library/include/playrho</text>
<text text-anchor="middle" x="161.27" y="-7.5" font-family="Helvetica,sans-Serif" font-size="10.00">/d2/BasicAPI.hpp</text>
</a>
</g>
</g>
<!-- Node9&#45;&gt;Node10 -->
<g id="edge9" class="edge">
<title>Node9&#45;&gt;Node10</title>
<path fill="none" stroke="midnightblue" d="M111.74,-60.6C122.77,-50.78 135.61,-39.34 145.46,-30.58"/>
<polygon fill="midnightblue" stroke="midnightblue" points="109.25,-58.13 104.11,-67.4 113.9,-63.36 109.25,-58.13"/>
</g>
<!-- Node11&#45;&gt;Node10 -->
<g id="edge13" class="edge">
<title>Node11&#45;&gt;Node10</title>
<path fill="none" stroke="midnightblue" d="M210.79,-60.6C199.77,-50.78 186.92,-39.34 177.08,-30.58"/>
<polygon fill="midnightblue" stroke="midnightblue" points="208.63,-63.36 218.43,-67.4 213.29,-58.13 208.63,-63.36"/>
</g>
<!-- Node14 -->
<g id="node14" class="node">
<title>Node14</title>
<g id="a_node14"><a xlink:href="DistanceConf_8hpp.html" target="_top" xlink:title="Definition of the DistanceConf class and closely related code.">
<polygon fill="white" stroke="black" points="351.27,-268.5 351.27,-298.5 479.27,-298.5 479.27,-268.5 351.27,-268.5"/>
<text text-anchor="start" x="359.27" y="-286.5" font-family="Helvetica,sans-Serif" font-size="10.00">Library/include/playrho</text>
<text text-anchor="middle" x="415.27" y="-275.5" font-family="Helvetica,sans-Serif" font-size="10.00">/d2/DistanceConf.hpp</text>
</a>
</g>
</g>
<!-- Node13&#45;&gt;Node14 -->
<g id="edge17" class="edge">
<title>Node13&#45;&gt;Node14</title>
<path fill="none" stroke="midnightblue" d="M415.27,-325.11C415.27,-316.15 415.27,-306.32 415.27,-298.58"/>
<polygon fill="midnightblue" stroke="midnightblue" points="411.77,-325.4 415.27,-335.4 418.77,-325.4 411.77,-325.4"/>
</g>
</g>
</svg>
