<?xml version="1.0" encoding="UTF-8" standalone="no"?>
<!DOCTYPE svg PUBLIC "-//W3C//DTD SVG 1.1//EN"
 "http://www.w3.org/Graphics/SVG/1.1/DTD/svg11.dtd">
<!-- Generated by graphviz version 2.43.0 (0)
 -->
<!-- Title: Library/include/playrho/BlockAllocator.hpp Pages: 1 -->
<svg width="822pt" height="442pt"
 viewBox="0.00 0.00 822.00 442.00" xmlns="http://www.w3.org/2000/svg" xmlns:xlink="http://www.w3.org/1999/xlink">
<g id="graph0" class="graph" transform="scale(1 1) rotate(0) translate(4 438)">
<title>Library/include/playrho/BlockAllocator.hpp</title>
<polygon fill="white" stroke="transparent" points="-4,4 -4,-438 818,-438 818,4 -4,4"/>
<!-- Node1 -->
<g id="node1" class="node">
<title>Node1</title>
<g id="a_node1"><a xlink:title="Definition of the BlockAllocator class and closely related code.">
<polygon fill="#bfbfbf" stroke="black" points="25,-403.5 25,-433.5 153,-433.5 153,-403.5 25,-403.5"/>
<text text-anchor="start" x="33" y="-421.5" font-family="Helvetica,sans-Serif" font-size="10.00">Library/include/playrho</text>
<text text-anchor="middle" x="89" y="-410.5" font-family="Helvetica,sans-Serif" font-size="10.00">/BlockAllocator.hpp</text>
</a>
</g>
</g>
<!-- Node2 -->
<g id="node2" class="node">
<title>Node2</title>
<g id="a_node2"><a xlink:title=" ">
<polygon fill="white" stroke="#bfbfbf" points="20.5,-56.5 20.5,-75.5 69.5,-75.5 69.5,-56.5 20.5,-56.5"/>
<text text-anchor="middle" x="45" y="-63.5" font-family="Helvetica,sans-Serif" font-size="10.00">cstdlib</text>
</a>
</g>
</g>
<!-- Node1&#45;&gt;Node2 -->
<g id="edge1" class="edge">
<title>Node1&#45;&gt;Node2</title>
<path fill="none" stroke="midnightblue" d="M67.91,-403.43C41.59,-384.01 0,-346.3 0,-302 0,-302 0,-302 0,-188 0,-149.15 20.63,-107.43 33.96,-84.54"/>
<polygon fill="midnightblue" stroke="midnightblue" points="37.13,-86.06 39.3,-75.69 31.14,-82.44 37.13,-86.06"/>
</g>
<!-- Node3 -->
<g id="node3" class="node">
<title>Node3</title>
<g id="a_node3"><a xlink:href="Settings_8hpp.html" target="_top" xlink:title="Types and default settings file.">
<polygon fill="white" stroke="black" points="219.5,-347.5 219.5,-366.5 336.5,-366.5 336.5,-347.5 219.5,-347.5"/>
<text text-anchor="middle" x="278" y="-354.5" font-family="Helvetica,sans-Serif" font-size="10.00">playrho/Settings.hpp</text>
</a>
</g>
</g>
<!-- Node1&#45;&gt;Node3 -->
<g id="edge2" class="edge">
<title>Node1&#45;&gt;Node3</title>
<path fill="none" stroke="midnightblue" d="M133.79,-403.4C166.45,-393.12 210.18,-379.35 240.89,-369.68"/>
<polygon fill="midnightblue" stroke="midnightblue" points="242.29,-372.91 250.77,-366.57 240.19,-366.24 242.29,-372.91"/>
</g>
<!-- Node4 -->
<g id="node4" class="node">
<title>Node4</title>
<g id="a_node4"><a xlink:title=" ">
<polygon fill="white" stroke="#bfbfbf" points="736,-179.5 736,-198.5 786,-198.5 786,-179.5 736,-179.5"/>
<text text-anchor="middle" x="761" y="-186.5" font-family="Helvetica,sans-Serif" font-size="10.00">cstdint</text>
</a>
</g>
</g>
<!-- Node3&#45;&gt;Node4 -->
<g id="edge3" class="edge">
<title>Node3&#45;&gt;Node4</title>
<path fill="none" stroke="midnightblue" d="M336.67,-354.4C409.07,-351.14 535.31,-341.22 639,-311 694.73,-294.76 724.48,-303.09 757,-255 766.1,-241.55 766.24,-222.74 764.62,-208.81"/>
<polygon fill="midnightblue" stroke="midnightblue" points="768.07,-208.22 763.08,-198.88 761.16,-209.3 768.07,-208.22"/>
</g>
<!-- Node5 -->
<g id="node5" class="node">
<title>Node5</title>
<g id="a_node5"><a xlink:title=" ">
<polygon fill="white" stroke="#bfbfbf" points="57,-118 57,-137 101,-137 101,-118 57,-118"/>
<text text-anchor="middle" x="79" y="-125" font-family="Helvetica,sans-Serif" font-size="10.00">limits</text>
</a>
</g>
</g>
<!-- Node3&#45;&gt;Node5 -->
<g id="edge4" class="edge">
<title>Node3&#45;&gt;Node5</title>
<path fill="none" stroke="midnightblue" d="M219.24,-349.53C187.83,-343.64 149.99,-332.41 122,-311 71.39,-272.29 73.04,-186.07 76.61,-147.63"/>
<polygon fill="midnightblue" stroke="midnightblue" points="80.13,-147.66 77.73,-137.35 73.17,-146.91 80.13,-147.66"/>
</g>
<!-- Node6 -->
<g id="node6" class="node">
<title>Node6</title>
<g id="a_node6"><a xlink:title=" ">
<polygon fill="white" stroke="#bfbfbf" points="403.5,-0.5 403.5,-19.5 472.5,-19.5 472.5,-0.5 403.5,-0.5"/>
<text text-anchor="middle" x="438" y="-7.5" font-family="Helvetica,sans-Serif" font-size="10.00">type_traits</text>
</a>
</g>
</g>
<!-- Node3&#45;&gt;Node6 -->
<g id="edge5" class="edge">
<title>Node3&#45;&gt;Node6</title>
<path fill="none" stroke="midnightblue" d="M336.64,-356.21C475.72,-355.14 814,-342.6 814,-246 814,-246 814,-246 814,-126.5 814,-57.91 582.46,-25.84 482.77,-15.22"/>
<polygon fill="midnightblue" stroke="midnightblue" points="483.01,-11.72 472.7,-14.17 482.28,-18.69 483.01,-11.72"/>
</g>
<!-- Node7 -->
<g id="node7" class="node">
<title>Node7</title>
<g id="a_node7"><a xlink:href="Real_8hpp.html" target="_top" xlink:title="Real number definition file.">
<polygon fill="white" stroke="black" points="128.5,-179.5 128.5,-198.5 227.5,-198.5 227.5,-179.5 128.5,-179.5"/>
<text text-anchor="middle" x="178" y="-186.5" font-family="Helvetica,sans-Serif" font-size="10.00">playrho/Real.hpp</text>
</a>
</g>
</g>
<!-- Node3&#45;&gt;Node7 -->
<g id="edge6" class="edge">
<title>Node3&#45;&gt;Node7</title>
<path fill="none" stroke="midnightblue" d="M240.54,-347.45C196.77,-335.23 126.36,-308.13 95,-255 81.1,-231.45 111.69,-213.25 139.57,-202.18"/>
<polygon fill="midnightblue" stroke="midnightblue" points="141.11,-205.34 149.25,-198.56 138.65,-198.79 141.11,-205.34"/>
</g>
<!-- Node14 -->
<g id="node14" class="node">
<title>Node14</title>
<g id="a_node14"><a xlink:href="RealConstants_8hpp.html" target="_top" xlink:title="Definitions file for constant expressions of type Real.">
<polygon fill="white" stroke="black" points="104,-235.5 104,-254.5 252,-254.5 252,-235.5 104,-235.5"/>
<text text-anchor="middle" x="178" y="-242.5" font-family="Helvetica,sans-Serif" font-size="10.00">playrho/RealConstants.hpp</text>
</a>
</g>
</g>
<!-- Node3&#45;&gt;Node14 -->
<g id="edge17" class="edge">
<title>Node3&#45;&gt;Node14</title>
<path fill="none" stroke="midnightblue" d="M270.15,-347.37C253.43,-328.97 214.06,-285.67 192.59,-262.05"/>
<polygon fill="midnightblue" stroke="midnightblue" points="195.13,-259.64 185.81,-254.59 189.95,-264.35 195.13,-259.64"/>
</g>
<!-- Node15 -->
<g id="node15" class="node">
<title>Node15</title>
<g id="a_node15"><a xlink:href="Units_8hpp.html" target="_top" xlink:title="Declarations for physical units possibly backed by strong types.">
<polygon fill="white" stroke="black" points="266.5,-291.5 266.5,-310.5 369.5,-310.5 369.5,-291.5 266.5,-291.5"/>
<text text-anchor="middle" x="318" y="-298.5" font-family="Helvetica,sans-Serif" font-size="10.00">playrho/Units.hpp</text>
</a>
</g>
</g>
<!-- Node3&#45;&gt;Node15 -->
<g id="edge19" class="edge">
<title>Node3&#45;&gt;Node15</title>
<path fill="none" stroke="midnightblue" d="M284.61,-347.08C290.26,-339.46 298.54,-328.26 305.45,-318.94"/>
<polygon fill="midnightblue" stroke="midnightblue" points="308.38,-320.87 311.52,-310.75 302.75,-316.7 308.38,-320.87"/>
</g>
<!-- Node19 -->
<g id="node19" class="node">
<title>Node19</title>
<g id="a_node19"><a xlink:href="WiderType_8hpp.html" target="_top" xlink:title="Definition of the WiderType alias template.">
<polygon fill="white" stroke="black" points="502,-291.5 502,-310.5 630,-310.5 630,-291.5 502,-291.5"/>
<text text-anchor="middle" x="566" y="-298.5" font-family="Helvetica,sans-Serif" font-size="10.00">playrho/WiderType.hpp</text>
</a>
</g>
</g>
<!-- Node3&#45;&gt;Node19 -->
<g id="edge28" class="edge">
<title>Node3&#45;&gt;Node19</title>
<path fill="none" stroke="midnightblue" d="M323.63,-347.44C374.3,-337.94 456.07,-322.61 510.43,-312.42"/>
<polygon fill="midnightblue" stroke="midnightblue" points="511.4,-315.8 520.58,-310.52 510.11,-308.92 511.4,-315.8"/>
</g>
<!-- Node7&#45;&gt;Node5 -->
<g id="edge7" class="edge">
<title>Node7&#45;&gt;Node5</title>
<path fill="none" stroke="midnightblue" d="M163.82,-179.48C147.64,-169.75 120.97,-153.73 101.86,-142.24"/>
<polygon fill="midnightblue" stroke="midnightblue" points="103.53,-139.16 93.16,-137.01 99.93,-145.16 103.53,-139.16"/>
</g>
<!-- Node8 -->
<g id="node8" class="node">
<title>Node8</title>
<g id="a_node8"><a xlink:href="Templates_8hpp.html" target="_top" xlink:title="Definitions of miscellaneous template related code.">
<polygon fill="white" stroke="black" points="147,-118 147,-137 275,-137 275,-118 147,-118"/>
<text text-anchor="middle" x="211" y="-125" font-family="Helvetica,sans-Serif" font-size="10.00">playrho/Templates.hpp</text>
</a>
</g>
</g>
<!-- Node7&#45;&gt;Node8 -->
<g id="edge8" class="edge">
<title>Node7&#45;&gt;Node8</title>
<path fill="none" stroke="midnightblue" d="M182.73,-179.48C187.58,-170.73 195.27,-156.87 201.4,-145.81"/>
<polygon fill="midnightblue" stroke="midnightblue" points="204.49,-147.45 206.28,-137.01 198.37,-144.06 204.49,-147.45"/>
</g>
<!-- Node8&#45;&gt;Node2 -->
<g id="edge9" class="edge">
<title>Node8&#45;&gt;Node2</title>
<path fill="none" stroke="midnightblue" d="M187.22,-117.98C158.62,-107.72 110.45,-90.46 78.2,-78.9"/>
<polygon fill="midnightblue" stroke="midnightblue" points="79.33,-75.59 68.74,-75.51 76.97,-82.18 79.33,-75.59"/>
</g>
<!-- Node8&#45;&gt;Node6 -->
<g id="edge10" class="edge">
<title>Node8&#45;&gt;Node6</title>
<path fill="none" stroke="midnightblue" d="M226.18,-117.97C250.44,-104.43 299.55,-77.35 342,-56 364.51,-44.68 390.39,-32.6 409.61,-23.81"/>
<polygon fill="midnightblue" stroke="midnightblue" points="411.08,-26.99 418.72,-19.66 408.17,-20.62 411.08,-26.99"/>
</g>
<!-- Node9 -->
<g id="node9" class="node">
<title>Node9</title>
<g id="a_node9"><a xlink:href="detail_2Templates_8hpp.html" target="_top" xlink:title="Low&#45;level declarations for general class &amp; function templates.">
<polygon fill="white" stroke="black" points="132,-56.5 132,-75.5 290,-75.5 290,-56.5 132,-56.5"/>
<text text-anchor="middle" x="211" y="-63.5" font-family="Helvetica,sans-Serif" font-size="10.00">playrho/detail/Templates.hpp</text>
</a>
</g>
</g>
<!-- Node8&#45;&gt;Node9 -->
<g id="edge11" class="edge">
<title>Node8&#45;&gt;Node9</title>
<path fill="none" stroke="midnightblue" d="M211,-117.98C211,-109.58 211,-96.48 211,-85.66"/>
<polygon fill="midnightblue" stroke="midnightblue" points="214.5,-85.51 211,-75.51 207.5,-85.51 214.5,-85.51"/>
</g>
<!-- Node9&#45;&gt;Node6 -->
<g id="edge15" class="edge">
<title>Node9&#45;&gt;Node6</title>
<path fill="none" stroke="midnightblue" d="M246.97,-56.44C286.67,-47 350.6,-31.79 393.44,-21.6"/>
<polygon fill="midnightblue" stroke="midnightblue" points="394.4,-24.97 403.32,-19.25 392.78,-18.16 394.4,-24.97"/>
</g>
<!-- Node10 -->
<g id="node10" class="node">
<title>Node10</title>
<g id="a_node10"><a xlink:title=" ">
<polygon fill="white" stroke="#bfbfbf" points="58,-0.5 58,-19.5 122,-19.5 122,-0.5 58,-0.5"/>
<text text-anchor="middle" x="90" y="-7.5" font-family="Helvetica,sans-Serif" font-size="10.00">algorithm</text>
</a>
</g>
</g>
<!-- Node9&#45;&gt;Node10 -->
<g id="edge12" class="edge">
<title>Node9&#45;&gt;Node10</title>
<path fill="none" stroke="midnightblue" d="M191.83,-56.44C172.09,-47.64 141.11,-33.81 118.51,-23.72"/>
<polygon fill="midnightblue" stroke="midnightblue" points="119.64,-20.4 109.08,-19.52 116.79,-26.79 119.64,-20.4"/>
</g>
<!-- Node11 -->
<g id="node11" class="node">
<title>Node11</title>
<g id="a_node11"><a xlink:title=" ">
<polygon fill="white" stroke="#bfbfbf" points="140.5,-0.5 140.5,-19.5 205.5,-19.5 205.5,-0.5 140.5,-0.5"/>
<text text-anchor="middle" x="173" y="-7.5" font-family="Helvetica,sans-Serif" font-size="10.00">functional</text>
</a>
</g>
</g>
<!-- Node9&#45;&gt;Node11 -->
<g id="edge13" class="edge">
<title>Node9&#45;&gt;Node11</title>
<path fill="none" stroke="midnightblue" d="M204.73,-56.08C199.36,-48.46 191.48,-37.26 184.92,-27.94"/>
<polygon fill="midnightblue" stroke="midnightblue" points="187.78,-25.91 179.16,-19.75 182.05,-29.94 187.78,-25.91"/>
</g>
<!-- Node12 -->
<g id="node12" class="node">
<title>Node12</title>
<g id="a_node12"><a xlink:title=" ">
<polygon fill="white" stroke="#bfbfbf" points="223.5,-0.5 223.5,-19.5 276.5,-19.5 276.5,-0.5 223.5,-0.5"/>
<text text-anchor="middle" x="250" y="-7.5" font-family="Helvetica,sans-Serif" font-size="10.00">iterator</text>
</a>
</g>
</g>
<!-- Node9&#45;&gt;Node12 -->
<g id="edge14" class="edge">
<title>Node9&#45;&gt;Node12</title>
<path fill="none" stroke="midnightblue" d="M217.44,-56.08C222.95,-48.46 231.03,-37.26 237.76,-27.94"/>
<polygon fill="midnightblue" stroke="midnightblue" points="240.66,-29.91 243.68,-19.75 234.99,-25.81 240.66,-29.91"/>
</g>
<!-- Node13 -->
<g id="node13" class="node">
<title>Node13</title>
<g id="a_node13"><a xlink:title=" ">
<polygon fill="white" stroke="#bfbfbf" points="294.5,-0.5 294.5,-19.5 339.5,-19.5 339.5,-0.5 294.5,-0.5"/>
<text text-anchor="middle" x="317" y="-7.5" font-family="Helvetica,sans-Serif" font-size="10.00">utility</text>
</a>
</g>
</g>
<!-- Node9&#45;&gt;Node13 -->
<g id="edge16" class="edge">
<title>Node9&#45;&gt;Node13</title>
<path fill="none" stroke="midnightblue" d="M228.03,-56.32C245.03,-47.66 271.38,-34.24 290.99,-24.25"/>
<polygon fill="midnightblue" stroke="midnightblue" points="292.69,-27.31 300.01,-19.65 289.51,-21.08 292.69,-27.31"/>
</g>
<!-- Node14&#45;&gt;Node7 -->
<g id="edge18" class="edge">
<title>Node14&#45;&gt;Node7</title>
<path fill="none" stroke="midnightblue" d="M178,-235.08C178,-228.01 178,-217.86 178,-208.99"/>
<polygon fill="midnightblue" stroke="midnightblue" points="181.5,-208.75 178,-198.75 174.5,-208.75 181.5,-208.75"/>
</g>
<!-- Node15&#45;&gt;Node6 -->
<g id="edge21" class="edge">
<title>Node15&#45;&gt;Node6</title>
<path fill="none" stroke="midnightblue" d="M323.28,-291.23C333.73,-273.04 356,-229.6 356,-190 356,-190 356,-190 356,-126.5 356,-83.82 393.68,-45.93 417.96,-25.95"/>
<polygon fill="midnightblue" stroke="midnightblue" points="420.24,-28.6 425.9,-19.65 415.89,-23.12 420.24,-28.6"/>
</g>
<!-- Node15&#45;&gt;Node7 -->
<g id="edge22" class="edge">
<title>Node15&#45;&gt;Node7</title>
<path fill="none" stroke="midnightblue" d="M311.82,-291.12C302.15,-277.71 282.35,-252.05 261,-235 244.73,-222 224.16,-210.82 207.57,-202.86"/>
<polygon fill="midnightblue" stroke="midnightblue" points="208.87,-199.6 198.33,-198.55 205.91,-205.95 208.87,-199.6"/>
</g>
<!-- Node15&#45;&gt;Node8 -->
<g id="edge24" class="edge">
<title>Node15&#45;&gt;Node8</title>
<path fill="none" stroke="midnightblue" d="M314.09,-291.39C308.25,-278.75 296.68,-254.56 285,-235 265.29,-202 238.95,-165.65 223.6,-145.09"/>
<polygon fill="midnightblue" stroke="midnightblue" points="226.37,-142.95 217.56,-137.07 220.78,-147.16 226.37,-142.95"/>
</g>
<!-- Node15&#45;&gt;Node14 -->
<g id="edge23" class="edge">
<title>Node15&#45;&gt;Node14</title>
<path fill="none" stroke="midnightblue" d="M295.82,-291.44C272.57,-282.48 235.85,-268.31 209.58,-258.18"/>
<polygon fill="midnightblue" stroke="midnightblue" points="210.67,-254.85 200.08,-254.52 208.15,-261.38 210.67,-254.85"/>
</g>
<!-- Node16 -->
<g id="node16" class="node">
<title>Node16</title>
<g id="a_node16"><a xlink:title=" ">
<polygon fill="white" stroke="#bfbfbf" points="384.5,-235.5 384.5,-254.5 431.5,-254.5 431.5,-235.5 384.5,-235.5"/>
<text text-anchor="middle" x="408" y="-242.5" font-family="Helvetica,sans-Serif" font-size="10.00">cmath</text>
</a>
</g>
</g>
<!-- Node15&#45;&gt;Node16 -->
<g id="edge20" class="edge">
<title>Node15&#45;&gt;Node16</title>
<path fill="none" stroke="midnightblue" d="M332.46,-291.32C346.5,-282.9 368.05,-269.97 384.54,-260.07"/>
<polygon fill="midnightblue" stroke="midnightblue" points="386.8,-262.8 393.58,-254.65 383.2,-256.8 386.8,-262.8"/>
</g>
<!-- Node17 -->
<g id="node17" class="node">
<title>Node17</title>
<g id="a_node17"><a xlink:href="to__underlying_8hpp.html" target="_top" xlink:title="Definition of to_underlying function template.">
<polygon fill="white" stroke="black" points="450,-235.5 450,-254.5 594,-254.5 594,-235.5 450,-235.5"/>
<text text-anchor="middle" x="522" y="-242.5" font-family="Helvetica,sans-Serif" font-size="10.00">playrho/to_underlying.hpp</text>
</a>
</g>
</g>
<!-- Node15&#45;&gt;Node17 -->
<g id="edge25" class="edge">
<title>Node15&#45;&gt;Node17</title>
<path fill="none" stroke="midnightblue" d="M350.32,-291.44C385.39,-282.16 441.5,-267.31 479.96,-257.13"/>
<polygon fill="midnightblue" stroke="midnightblue" points="481.06,-260.46 489.83,-254.52 479.26,-253.69 481.06,-260.46"/>
</g>
<!-- Node18 -->
<g id="node18" class="node">
<title>Node18</title>
<g id="a_node18"><a xlink:href="underlying__type_8hpp.html" target="_top" xlink:title="Definition of underlying_type trait class and related code.">
<polygon fill="white" stroke="black" points="390.5,-112.5 390.5,-142.5 529.5,-142.5 529.5,-112.5 390.5,-112.5"/>
<text text-anchor="start" x="398.5" y="-130.5" font-family="Helvetica,sans-Serif" font-size="10.00">playrho/detail/underlying</text>
<text text-anchor="middle" x="460" y="-119.5" font-family="Helvetica,sans-Serif" font-size="10.00">_type.hpp</text>
</a>
</g>
</g>
<!-- Node17&#45;&gt;Node18 -->
<g id="edge26" class="edge">
<title>Node17&#45;&gt;Node18</title>
<path fill="none" stroke="midnightblue" d="M517.34,-235.32C507.9,-217.73 486.25,-177.39 472.42,-151.63"/>
<polygon fill="midnightblue" stroke="midnightblue" points="475.35,-149.7 467.54,-142.55 469.19,-153.01 475.35,-149.7"/>
</g>
<!-- Node18&#45;&gt;Node6 -->
<g id="edge27" class="edge">
<title>Node18&#45;&gt;Node6</title>
<path fill="none" stroke="midnightblue" d="M457.3,-112.34C453.34,-91.53 445.94,-52.66 441.54,-29.58"/>
<polygon fill="midnightblue" stroke="midnightblue" points="444.96,-28.84 439.65,-19.67 438.08,-30.15 444.96,-28.84"/>
</g>
<!-- Node20 -->
<g id="node20" class="node">
<title>Node20</title>
<g id="a_node20"><a xlink:href="Wider_8hpp.html" target="_top" xlink:title="Definition of the Wider class template and specializations.">
<polygon fill="white" stroke="black" points="612,-235.5 612,-254.5 748,-254.5 748,-235.5 612,-235.5"/>
<text text-anchor="middle" x="680" y="-242.5" font-family="Helvetica,sans-Serif" font-size="10.00">playrho/detail/Wider.hpp</text>
</a>
</g>
</g>
<!-- Node19&#45;&gt;Node20 -->
<g id="edge29" class="edge">
<title>Node19&#45;&gt;Node20</title>
<path fill="none" stroke="midnightblue" d="M584.06,-291.44C602.57,-282.68 631.58,-268.94 652.86,-258.86"/>
<polygon fill="midnightblue" stroke="midnightblue" points="654.48,-261.96 662.02,-254.52 651.49,-255.63 654.48,-261.96"/>
</g>
<!-- Node20&#45;&gt;Node4 -->
<g id="edge30" class="edge">
<title>Node20&#45;&gt;Node4</title>
<path fill="none" stroke="midnightblue" d="M693.01,-235.32C705.53,-226.98 724.68,-214.21 739.47,-204.35"/>
<polygon fill="midnightblue" stroke="midnightblue" points="741.64,-207.11 748.02,-198.65 737.76,-201.29 741.64,-207.11"/>
</g>
<!-- Node20&#45;&gt;Node6 -->
<g id="edge31" class="edge">
<title>Node20&#45;&gt;Node6</title>
<path fill="none" stroke="midnightblue" d="M656.35,-235.35C638.08,-227.81 612.95,-215.49 595,-199 561.13,-167.9 567.87,-147.8 539,-112 512.48,-79.11 476.52,-45.26 455.43,-26.3"/>
<polygon fill="midnightblue" stroke="midnightblue" points="457.68,-23.61 447.88,-19.57 453.02,-28.84 457.68,-23.61"/>
</g>
<!-- Node21 -->
<g id="node21" class="node">
<title>Node21</title>
<g id="a_node21"><a xlink:href="Defines_8hpp.html" target="_top" xlink:title="Miscellaneous C&#45;preprocessor definitions.">
<polygon fill="white" stroke="black" points="604,-179.5 604,-198.5 718,-198.5 718,-179.5 604,-179.5"/>
<text text-anchor="middle" x="661" y="-186.5" font-family="Helvetica,sans-Serif" font-size="10.00">playrho/Defines.hpp</text>
</a>
</g>
</g>
<!-- Node20&#45;&gt;Node21 -->
<g id="edge32" class="edge">
<title>Node20&#45;&gt;Node21</title>
<path fill="none" stroke="midnightblue" d="M676.86,-235.08C674.32,-227.85 670.64,-217.41 667.47,-208.4"/>
<polygon fill="midnightblue" stroke="midnightblue" points="670.7,-207.02 664.08,-198.75 664.1,-209.35 670.7,-207.02"/>
</g>
</g>
</svg>
