<?xml version="1.0" encoding="UTF-8" standalone="no"?>
<!DOCTYPE svg PUBLIC "-//W3C//DTD SVG 1.1//EN"
 "http://www.w3.org/Graphics/SVG/1.1/DTD/svg11.dtd">
<!-- Generated by graphviz version 2.43.0 (0)
 -->
<!-- Title: Library/include/playrho/d2/BodyConstraint.hpp Pages: 1 -->
<svg width="463pt" height="106pt"
 viewBox="0.00 0.00 462.50 106.00" xmlns="http://www.w3.org/2000/svg" xmlns:xlink="http://www.w3.org/1999/xlink">
<g id="graph0" class="graph" transform="scale(1 1) rotate(0) translate(4 102)">
<title>Library/include/playrho/d2/BodyConstraint.hpp</title>
<polygon fill="white" stroke="transparent" points="-4,4 -4,-102 458.5,-102 458.5,4 -4,4"/>
<!-- Node1 -->
<g id="node1" class="node">
<title>Node1</title>
<g id="a_node1"><a xlink:title="Definition of the BodyConstraint class and closely related code.">
<polygon fill="#bfbfbf" stroke="black" points="170,-67.5 170,-97.5 301,-97.5 301,-67.5 170,-67.5"/>
<text text-anchor="start" x="178" y="-85.5" font-family="Helvetica,sans-Serif" font-size="10.00">Library/include/playrho</text>
<text text-anchor="middle" x="235.5" y="-74.5" font-family="Helvetica,sans-Serif" font-size="10.00">/d2/BodyConstraint.hpp</text>
</a>
</g>
</g>
<!-- Node2 -->
<g id="node2" class="node">
<title>Node2</title>
<g id="a_node2"><a xlink:href="PositionConstraint_8hpp.html" target="_top" xlink:title="Definition of the PositionConstraint class and closely related code.">
<polygon fill="white" stroke="black" points="0,-0.5 0,-30.5 145,-30.5 145,-0.5 0,-0.5"/>
<text text-anchor="start" x="8" y="-18.5" font-family="Helvetica,sans-Serif" font-size="10.00">Library/include/playrho</text>
<text text-anchor="middle" x="72.5" y="-7.5" font-family="Helvetica,sans-Serif" font-size="10.00">/d2/PositionConstraint.hpp</text>
</a>
</g>
</g>
<!-- Node1&#45;&gt;Node2 -->
<g id="edge1" class="edge">
<title>Node1&#45;&gt;Node2</title>
<path fill="none" stroke="midnightblue" d="M190.82,-63.68C164.67,-53.26 132.13,-40.28 107.8,-30.58"/>
<polygon fill="midnightblue" stroke="midnightblue" points="189.55,-66.94 200.13,-67.4 192.14,-60.44 189.55,-66.94"/>
</g>
<!-- Node3 -->
<g id="node3" class="node">
<title>Node3</title>
<g id="a_node3"><a xlink:href="VelocityConstraint_8hpp.html" target="_top" xlink:title="Definition of the VelocityConstraint class and closely related code.">
<polygon fill="white" stroke="black" points="163,-0.5 163,-30.5 308,-30.5 308,-0.5 163,-0.5"/>
<text text-anchor="start" x="171" y="-18.5" font-family="Helvetica,sans-Serif" font-size="10.00">Library/include/playrho</text>
<text text-anchor="middle" x="235.5" y="-7.5" font-family="Helvetica,sans-Serif" font-size="10.00">/d2/VelocityConstraint.hpp</text>
</a>
</g>
</g>
<!-- Node1&#45;&gt;Node3 -->
<g id="edge2" class="edge">
<title>Node1&#45;&gt;Node3</title>
<path fill="none" stroke="midnightblue" d="M235.5,-57.11C235.5,-48.15 235.5,-38.32 235.5,-30.58"/>
<polygon fill="midnightblue" stroke="midnightblue" points="232,-57.4 235.5,-67.4 239,-57.4 232,-57.4"/>
</g>
<!-- Node4 -->
<g id="node4" class="node">
<title>Node4</title>
<g id="a_node4"><a xlink:href="WorldImpl_8hpp.html" target="_top" xlink:title="Declarations of the WorldImpl class.">
<polygon fill="white" stroke="black" points="326.5,-0.5 326.5,-30.5 454.5,-30.5 454.5,-0.5 326.5,-0.5"/>
<text text-anchor="start" x="334.5" y="-18.5" font-family="Helvetica,sans-Serif" font-size="10.00">Library/include/playrho</text>
<text text-anchor="middle" x="390.5" y="-7.5" font-family="Helvetica,sans-Serif" font-size="10.00">/d2/WorldImpl.hpp</text>
</a>
</g>
</g>
<!-- Node1&#45;&gt;Node4 -->
<g id="edge3" class="edge">
<title>Node1&#45;&gt;Node4</title>
<path fill="none" stroke="midnightblue" d="M278.65,-63.41C303.39,-53.03 334,-40.2 356.93,-30.58"/>
<polygon fill="midnightblue" stroke="midnightblue" points="277,-60.3 269.13,-67.4 279.71,-66.76 277,-60.3"/>
</g>
</g>
</svg>
