<?xml version="1.0" encoding="UTF-8" standalone="no"?>
<!DOCTYPE svg PUBLIC "-//W3C//DTD SVG 1.1//EN"
 "http://www.w3.org/Graphics/SVG/1.1/DTD/svg11.dtd">
<!-- Generated by graphviz version 2.43.0 (0)
 -->
<!-- Title: Library/include/playrho/d2/BodyConstraint.hpp Pages: 1 -->
<svg width="3123pt" height="755pt"
 viewBox="0.00 0.00 3122.82 755.00" xmlns="http://www.w3.org/2000/svg" xmlns:xlink="http://www.w3.org/1999/xlink">
<g id="graph0" class="graph" transform="scale(1 1) rotate(0) translate(4 751)">
<title>Library/include/playrho/d2/BodyConstraint.hpp</title>
<polygon fill="white" stroke="transparent" points="-4,4 -4,-751 3118.82,-751 3118.82,4 -4,4"/>
<!-- Node1 -->
<g id="node1" class="node">
<title>Node1</title>
<g id="a_node1"><a xlink:title="Definition of the BodyConstraint class and closely related code.">
<polygon fill="#bfbfbf" stroke="black" points="219.32,-716.5 219.32,-746.5 350.32,-746.5 350.32,-716.5 219.32,-716.5"/>
<text text-anchor="start" x="227.32" y="-734.5" font-family="Helvetica,sans-Serif" font-size="10.00">Library/include/playrho</text>
<text text-anchor="middle" x="284.82" y="-723.5" font-family="Helvetica,sans-Serif" font-size="10.00">/d2/BodyConstraint.hpp</text>
</a>
</g>
</g>
<!-- Node2 -->
<g id="node2" class="node">
<title>Node2</title>
<g id="a_node2"><a xlink:title=" ">
<polygon fill="white" stroke="#bfbfbf" points="2624.82,-302.5 2624.82,-321.5 2676.82,-321.5 2676.82,-302.5 2624.82,-302.5"/>
<text text-anchor="middle" x="2650.82" y="-309.5" font-family="Helvetica,sans-Serif" font-size="10.00">cassert</text>
</a>
</g>
</g>
<!-- Node1&#45;&gt;Node2 -->
<g id="edge1" class="edge">
<title>Node1&#45;&gt;Node2</title>
<path fill="none" stroke="midnightblue" d="M350.34,-729.89C680.38,-726.47 2162.71,-706.67 2614.82,-624 2695.98,-609.16 2741.3,-633.24 2791.82,-568 2851.11,-491.44 2805.78,-422.79 2733.82,-358 2718.75,-344.43 2698.86,-333.47 2682.33,-325.76"/>
<polygon fill="midnightblue" stroke="midnightblue" points="2683.6,-322.5 2673.05,-321.6 2680.74,-328.88 2683.6,-322.5"/>
</g>
<!-- Node3 -->
<g id="node3" class="node">
<title>Node3</title>
<g id="a_node3"><a xlink:href="MovementConf_8hpp.html" target="_top" xlink:title="Definition of the MovementConf class and closely related code.">
<polygon fill="white" stroke="black" points="28.82,-660.5 28.82,-679.5 180.82,-679.5 180.82,-660.5 28.82,-660.5"/>
<text text-anchor="middle" x="104.82" y="-667.5" font-family="Helvetica,sans-Serif" font-size="10.00">playrho/MovementConf.hpp</text>
</a>
</g>
</g>
<!-- Node1&#45;&gt;Node3 -->
<g id="edge2" class="edge">
<title>Node1&#45;&gt;Node3</title>
<path fill="none" stroke="midnightblue" d="M242.16,-716.4C211.19,-706.16 169.77,-692.47 140.54,-682.81"/>
<polygon fill="midnightblue" stroke="midnightblue" points="141.34,-679.39 130.75,-679.57 139.14,-686.03 141.34,-679.39"/>
</g>
<!-- Node4 -->
<g id="node4" class="node">
<title>Node4</title>
<g id="a_node4"><a xlink:href="Units_8hpp.html" target="_top" xlink:title="Declarations for physical units possibly backed by strong types.">
<polygon fill="white" stroke="black" points="451.32,-302.5 451.32,-321.5 554.32,-321.5 554.32,-302.5 451.32,-302.5"/>
<text text-anchor="middle" x="502.82" y="-309.5" font-family="Helvetica,sans-Serif" font-size="10.00">playrho/Units.hpp</text>
</a>
</g>
</g>
<!-- Node1&#45;&gt;Node4 -->
<g id="edge22" class="edge">
<title>Node1&#45;&gt;Node4</title>
<path fill="none" stroke="midnightblue" d="M219.01,-725.74C150.24,-719.45 48.42,-705.98 19.82,-680 -2.46,-659.76 0.82,-645.1 0.82,-615 0.82,-615 0.82,-615 0.82,-501 0.82,-408.03 306.59,-345.67 440.85,-322.76"/>
<polygon fill="midnightblue" stroke="midnightblue" points="441.71,-326.17 450.99,-321.05 440.55,-319.27 441.71,-326.17"/>
</g>
<!-- Node19 -->
<g id="node18" class="node">
<title>Node19</title>
<g id="a_node18"><a xlink:href="Vector2_8hpp.html" target="_top" xlink:title="Definition of the Vector2 alias template and closely related code.">
<polygon fill="white" stroke="black" points="648.82,-431 648.82,-450 762.82,-450 762.82,-431 648.82,-431"/>
<text text-anchor="middle" x="705.82" y="-438" font-family="Helvetica,sans-Serif" font-size="10.00">playrho/Vector2.hpp</text>
</a>
</g>
</g>
<!-- Node1&#45;&gt;Node19 -->
<g id="edge23" class="edge">
<title>Node1&#45;&gt;Node19</title>
<path fill="none" stroke="midnightblue" d="M288.33,-716.35C299.53,-674.39 338.61,-549.94 420.82,-492 438.39,-479.62 559.74,-461.23 638.33,-450.4"/>
<polygon fill="midnightblue" stroke="midnightblue" points="639.21,-453.81 648.64,-448.99 638.26,-446.88 639.21,-453.81"/>
</g>
<!-- Node31 -->
<g id="node27" class="node">
<title>Node31</title>
<g id="a_node27"><a xlink:href="Body_8hpp.html" target="_top" xlink:title="Declarations of the Body class, and functions associated with it.">
<polygon fill="white" stroke="black" points="1477.82,-660.5 1477.82,-679.5 1593.82,-679.5 1593.82,-660.5 1477.82,-660.5"/>
<text text-anchor="middle" x="1535.82" y="-667.5" font-family="Helvetica,sans-Serif" font-size="10.00">playrho/d2/Body.hpp</text>
</a>
</g>
</g>
<!-- Node1&#45;&gt;Node31 -->
<g id="edge45" class="edge">
<title>Node1&#45;&gt;Node31</title>
<path fill="none" stroke="midnightblue" d="M350.76,-727.36C566.3,-717.11 1248.72,-684.66 1467.57,-674.25"/>
<polygon fill="midnightblue" stroke="midnightblue" points="1467.81,-677.74 1477.63,-673.77 1467.48,-670.75 1467.81,-677.74"/>
</g>
<!-- Node52 -->
<g id="node45" class="node">
<title>Node52</title>
<g id="a_node45"><a xlink:href="Position_8hpp.html" target="_top" xlink:title="Definition of the Position class and closely related code.">
<polygon fill="white" stroke="black" points="429.32,-492.5 429.32,-511.5 560.32,-511.5 560.32,-492.5 429.32,-492.5"/>
<text text-anchor="middle" x="494.82" y="-499.5" font-family="Helvetica,sans-Serif" font-size="10.00">playrho/d2/Position.hpp</text>
</a>
</g>
</g>
<!-- Node1&#45;&gt;Node52 -->
<g id="edge181" class="edge">
<title>Node1&#45;&gt;Node52</title>
<path fill="none" stroke="midnightblue" d="M297.96,-716.27C335,-676.14 440.14,-562.24 479.6,-519.49"/>
<polygon fill="midnightblue" stroke="midnightblue" points="482.37,-521.65 486.58,-511.93 477.22,-516.9 482.37,-521.65"/>
</g>
<!-- Node56 -->
<g id="node49" class="node">
<title>Node56</title>
<g id="a_node49"><a xlink:href="Velocity_8hpp.html" target="_top" xlink:title="Definition of the Velocity class and closely related code.">
<polygon fill="white" stroke="black" points="1110.82,-492.5 1110.82,-511.5 1240.82,-511.5 1240.82,-492.5 1110.82,-492.5"/>
<text text-anchor="middle" x="1175.82" y="-499.5" font-family="Helvetica,sans-Serif" font-size="10.00">playrho/d2/Velocity.hpp</text>
</a>
</g>
</g>
<!-- Node1&#45;&gt;Node56 -->
<g id="edge182" class="edge">
<title>Node1&#45;&gt;Node56</title>
<path fill="none" stroke="midnightblue" d="M350.47,-728.01C554.22,-719.62 1165.63,-689.16 1223.82,-624 1251.41,-593.1 1214.89,-544.43 1191.92,-519.26"/>
<polygon fill="midnightblue" stroke="midnightblue" points="1194.17,-516.55 1184.76,-511.69 1189.08,-521.36 1194.17,-516.55"/>
</g>
<!-- Node3&#45;&gt;Node4 -->
<g id="edge3" class="edge">
<title>Node3&#45;&gt;Node4</title>
<path fill="none" stroke="midnightblue" d="M106.45,-660.5C111.91,-633.6 131.64,-548.75 172.82,-492 228.3,-415.54 253.77,-401.14 337.82,-358 370,-341.48 408.91,-330.5 440.87,-323.52"/>
<polygon fill="midnightblue" stroke="midnightblue" points="441.92,-326.87 450.98,-321.39 440.48,-320.02 441.92,-326.87"/>
</g>
<!-- Node5 -->
<g id="node5" class="node">
<title>Node5</title>
<g id="a_node5"><a xlink:title=" ">
<polygon fill="white" stroke="#bfbfbf" points="685.32,-246.5 685.32,-265.5 732.32,-265.5 732.32,-246.5 685.32,-246.5"/>
<text text-anchor="middle" x="708.82" y="-253.5" font-family="Helvetica,sans-Serif" font-size="10.00">cmath</text>
</a>
</g>
</g>
<!-- Node4&#45;&gt;Node5 -->
<g id="edge4" class="edge">
<title>Node4&#45;&gt;Node5</title>
<path fill="none" stroke="midnightblue" d="M535.46,-302.44C573.79,-292.4 637.01,-275.83 675.58,-265.71"/>
<polygon fill="midnightblue" stroke="midnightblue" points="676.52,-269.09 685.3,-263.16 674.74,-262.32 676.52,-269.09"/>
</g>
<!-- Node6 -->
<g id="node6" class="node">
<title>Node6</title>
<g id="a_node6"><a xlink:title=" ">
<polygon fill="white" stroke="#bfbfbf" points="1660.32,-0.5 1660.32,-19.5 1729.32,-19.5 1729.32,-0.5 1660.32,-0.5"/>
<text text-anchor="middle" x="1694.82" y="-7.5" font-family="Helvetica,sans-Serif" font-size="10.00">type_traits</text>
</a>
</g>
</g>
<!-- Node4&#45;&gt;Node6 -->
<g id="edge5" class="edge">
<title>Node4&#45;&gt;Node6</title>
<path fill="none" stroke="midnightblue" d="M451.3,-307.56C378.52,-301.95 249.98,-289.08 209.82,-266 174.89,-245.92 152.82,-235.79 152.82,-195.5 152.82,-195.5 152.82,-195.5 152.82,-132 152.82,-54.86 1395.6,-18.7 1649.75,-12.12"/>
<polygon fill="midnightblue" stroke="midnightblue" points="1650.18,-15.61 1660.08,-11.85 1650,-8.61 1650.18,-15.61"/>
</g>
<!-- Node7 -->
<g id="node7" class="node">
<title>Node7</title>
<g id="a_node7"><a xlink:href="Real_8hpp.html" target="_top" xlink:title="Real number definition file.">
<polygon fill="white" stroke="black" points="972.32,-185 972.32,-204 1071.32,-204 1071.32,-185 972.32,-185"/>
<text text-anchor="middle" x="1021.82" y="-192" font-family="Helvetica,sans-Serif" font-size="10.00">playrho/Real.hpp</text>
</a>
</g>
</g>
<!-- Node4&#45;&gt;Node7 -->
<g id="edge6" class="edge">
<title>Node4&#45;&gt;Node7</title>
<path fill="none" stroke="midnightblue" d="M512.72,-302.5C530.07,-288.13 567.66,-259.31 604.82,-246 669.14,-222.96 862.69,-206.6 961.85,-199.48"/>
<polygon fill="midnightblue" stroke="midnightblue" points="962.28,-202.95 972.01,-198.75 961.79,-195.97 962.28,-202.95"/>
</g>
<!-- Node9 -->
<g id="node9" class="node">
<title>Node9</title>
<g id="a_node9"><a xlink:href="Templates_8hpp.html" target="_top" xlink:title="Definitions of miscellaneous template related code.">
<polygon fill="white" stroke="black" points="1516.82,-123.5 1516.82,-142.5 1644.82,-142.5 1644.82,-123.5 1516.82,-123.5"/>
<text text-anchor="middle" x="1580.82" y="-130.5" font-family="Helvetica,sans-Serif" font-size="10.00">playrho/Templates.hpp</text>
</a>
</g>
</g>
<!-- Node4&#45;&gt;Node9 -->
<g id="edge18" class="edge">
<title>Node4&#45;&gt;Node9</title>
<path fill="none" stroke="midnightblue" d="M508.11,-302.21C517.19,-287.96 537.16,-259.98 561.82,-246 632.8,-205.78 663.45,-232.66 741.82,-210 778.85,-199.29 785.14,-187.13 822.82,-179 951.73,-151.2 1342.08,-139.37 1506.52,-135.52"/>
<polygon fill="midnightblue" stroke="midnightblue" points="1506.64,-139.02 1516.55,-135.29 1506.47,-132.03 1506.64,-139.02"/>
</g>
<!-- Node16 -->
<g id="node15" class="node">
<title>Node16</title>
<g id="a_node15"><a xlink:href="RealConstants_8hpp.html" target="_top" xlink:title="Definitions file for constant expressions of type Real.">
<polygon fill="white" stroke="black" points="788.82,-246.5 788.82,-265.5 936.82,-265.5 936.82,-246.5 788.82,-246.5"/>
<text text-anchor="middle" x="862.82" y="-253.5" font-family="Helvetica,sans-Serif" font-size="10.00">playrho/RealConstants.hpp</text>
</a>
</g>
</g>
<!-- Node4&#45;&gt;Node16 -->
<g id="edge16" class="edge">
<title>Node4&#45;&gt;Node16</title>
<path fill="none" stroke="midnightblue" d="M554.4,-303.26C617.96,-293.73 726.1,-277.51 795.97,-267.03"/>
<polygon fill="midnightblue" stroke="midnightblue" points="796.62,-270.47 805.99,-265.52 795.58,-263.55 796.62,-270.47"/>
</g>
<!-- Node17 -->
<g id="node16" class="node">
<title>Node17</title>
<g id="a_node16"><a xlink:href="to__underlying_8hpp.html" target="_top" xlink:title="Definition of to_underlying function template.">
<polygon fill="white" stroke="black" points="218.82,-246.5 218.82,-265.5 362.82,-265.5 362.82,-246.5 218.82,-246.5"/>
<text text-anchor="middle" x="290.82" y="-253.5" font-family="Helvetica,sans-Serif" font-size="10.00">playrho/to_underlying.hpp</text>
</a>
</g>
</g>
<!-- Node4&#45;&gt;Node17 -->
<g id="edge19" class="edge">
<title>Node4&#45;&gt;Node17</title>
<path fill="none" stroke="midnightblue" d="M469.23,-302.44C432.63,-293.12 373.98,-278.18 333.99,-268"/>
<polygon fill="midnightblue" stroke="midnightblue" points="334.81,-264.59 324.25,-265.52 333.08,-271.38 334.81,-264.59"/>
</g>
<!-- Node8 -->
<g id="node8" class="node">
<title>Node8</title>
<g id="a_node8"><a xlink:title=" ">
<polygon fill="white" stroke="#bfbfbf" points="374.82,-123.5 374.82,-142.5 418.82,-142.5 418.82,-123.5 374.82,-123.5"/>
<text text-anchor="middle" x="396.82" y="-130.5" font-family="Helvetica,sans-Serif" font-size="10.00">limits</text>
</a>
</g>
</g>
<!-- Node7&#45;&gt;Node8 -->
<g id="edge7" class="edge">
<title>Node7&#45;&gt;Node8</title>
<path fill="none" stroke="midnightblue" d="M972.25,-188.78C849,-177.05 531.25,-146.8 429.02,-137.07"/>
<polygon fill="midnightblue" stroke="midnightblue" points="429.28,-133.57 418.99,-136.11 428.61,-140.54 429.28,-133.57"/>
</g>
<!-- Node7&#45;&gt;Node9 -->
<g id="edge8" class="edge">
<title>Node7&#45;&gt;Node9</title>
<path fill="none" stroke="midnightblue" d="M1071.59,-187.22C1092.9,-184.58 1118.07,-181.55 1140.82,-179 1269.28,-164.61 1419.05,-149.68 1506.56,-141.15"/>
<polygon fill="midnightblue" stroke="midnightblue" points="1507.04,-144.62 1516.65,-140.17 1506.36,-137.66 1507.04,-144.62"/>
</g>
<!-- Node9&#45;&gt;Node6 -->
<g id="edge10" class="edge">
<title>Node9&#45;&gt;Node6</title>
<path fill="none" stroke="midnightblue" d="M1589.02,-123.3C1608,-103.15 1655.2,-53.06 1679.63,-27.12"/>
<polygon fill="midnightblue" stroke="midnightblue" points="1682.39,-29.3 1686.7,-19.62 1677.29,-24.5 1682.39,-29.3"/>
</g>
<!-- Node10 -->
<g id="node10" class="node">
<title>Node10</title>
<g id="a_node10"><a xlink:title=" ">
<polygon fill="white" stroke="#bfbfbf" points="1756.32,-62 1756.32,-81 1805.32,-81 1805.32,-62 1756.32,-62"/>
<text text-anchor="middle" x="1780.82" y="-69" font-family="Helvetica,sans-Serif" font-size="10.00">cstdlib</text>
</a>
</g>
</g>
<!-- Node9&#45;&gt;Node10 -->
<g id="edge9" class="edge">
<title>Node9&#45;&gt;Node10</title>
<path fill="none" stroke="midnightblue" d="M1609.48,-123.48C1645.67,-112.71 1707.87,-94.2 1746.54,-82.7"/>
<polygon fill="midnightblue" stroke="midnightblue" points="1747.72,-86 1756.31,-79.79 1745.72,-79.29 1747.72,-86"/>
</g>
<!-- Node11 -->
<g id="node11" class="node">
<title>Node11</title>
<g id="a_node11"><a xlink:href="detail_2Templates_8hpp.html" target="_top" xlink:title="Low&#45;level declarations for general class &amp; function templates.">
<polygon fill="white" stroke="red" points="2302.82,-62 2302.82,-81 2460.82,-81 2460.82,-62 2302.82,-62"/>
<text text-anchor="middle" x="2381.82" y="-69" font-family="Helvetica,sans-Serif" font-size="10.00">playrho/detail/Templates.hpp</text>
</a>
</g>
</g>
<!-- Node9&#45;&gt;Node11 -->
<g id="edge11" class="edge">
<title>Node9&#45;&gt;Node11</title>
<path fill="none" stroke="midnightblue" d="M1645.02,-127.23C1787.37,-116.66 2129.8,-91.22 2292.75,-79.12"/>
<polygon fill="midnightblue" stroke="midnightblue" points="2293.03,-82.61 2302.75,-78.37 2292.51,-75.62 2293.03,-82.61"/>
</g>
<!-- Node11&#45;&gt;Node6 -->
<g id="edge14" class="edge">
<title>Node11&#45;&gt;Node6</title>
<path fill="none" stroke="midnightblue" d="M2308.42,-61.99C2289.65,-59.92 2269.5,-57.79 2250.82,-56 2060.8,-37.8 1833.78,-20.95 1739.38,-14.16"/>
<polygon fill="midnightblue" stroke="midnightblue" points="1739.56,-10.66 1729.34,-13.44 1739.06,-17.64 1739.56,-10.66"/>
</g>
<!-- Node12 -->
<g id="node12" class="node">
<title>Node12</title>
<g id="a_node12"><a xlink:title=" ">
<polygon fill="white" stroke="#bfbfbf" points="2402.82,-0.5 2402.82,-19.5 2466.82,-19.5 2466.82,-0.5 2402.82,-0.5"/>
<text text-anchor="middle" x="2434.82" y="-7.5" font-family="Helvetica,sans-Serif" font-size="10.00">algorithm</text>
</a>
</g>
</g>
<!-- Node11&#45;&gt;Node12 -->
<g id="edge12" class="edge">
<title>Node11&#45;&gt;Node12</title>
<path fill="none" stroke="midnightblue" d="M2389.41,-61.98C2397.52,-52.87 2410.55,-38.24 2420.58,-26.98"/>
<polygon fill="midnightblue" stroke="midnightblue" points="2423.2,-29.3 2427.24,-19.51 2417.98,-24.65 2423.2,-29.3"/>
</g>
<!-- Node14 -->
<g id="node13" class="node">
<title>Node14</title>
<g id="a_node13"><a xlink:title=" ">
<polygon fill="white" stroke="#bfbfbf" points="2248.32,-0.5 2248.32,-19.5 2301.32,-19.5 2301.32,-0.5 2248.32,-0.5"/>
<text text-anchor="middle" x="2274.82" y="-7.5" font-family="Helvetica,sans-Serif" font-size="10.00">iterator</text>
</a>
</g>
</g>
<!-- Node11&#45;&gt;Node14 -->
<g id="edge13" class="edge">
<title>Node11&#45;&gt;Node14</title>
<path fill="none" stroke="midnightblue" d="M2366.49,-61.98C2348.85,-52.17 2319.66,-35.93 2298.96,-24.42"/>
<polygon fill="midnightblue" stroke="midnightblue" points="2300.56,-21.31 2290.12,-19.51 2297.16,-27.43 2300.56,-21.31"/>
</g>
<!-- Node15 -->
<g id="node14" class="node">
<title>Node15</title>
<g id="a_node14"><a xlink:title=" ">
<polygon fill="white" stroke="#bfbfbf" points="2743.32,-0.5 2743.32,-19.5 2788.32,-19.5 2788.32,-0.5 2743.32,-0.5"/>
<text text-anchor="middle" x="2765.82" y="-7.5" font-family="Helvetica,sans-Serif" font-size="10.00">utility</text>
</a>
</g>
</g>
<!-- Node11&#45;&gt;Node15 -->
<g id="edge15" class="edge">
<title>Node11&#45;&gt;Node15</title>
<path fill="none" stroke="midnightblue" d="M2436.84,-61.98C2517.97,-49.4 2667.19,-26.28 2733.08,-16.07"/>
<polygon fill="midnightblue" stroke="midnightblue" points="2733.94,-19.48 2743.28,-14.49 2732.87,-12.56 2733.94,-19.48"/>
</g>
<!-- Node16&#45;&gt;Node7 -->
<g id="edge17" class="edge">
<title>Node16&#45;&gt;Node7</title>
<path fill="none" stroke="midnightblue" d="M885.6,-246.48C912.87,-236.27 958.73,-219.11 989.62,-207.55"/>
<polygon fill="midnightblue" stroke="midnightblue" points="990.94,-210.79 999.08,-204.01 988.49,-204.24 990.94,-210.79"/>
</g>
<!-- Node18 -->
<g id="node17" class="node">
<title>Node18</title>
<g id="a_node17"><a xlink:href="underlying__type_8hpp.html" target="_top" xlink:title="Definition of underlying_type trait class and related code.">
<polygon fill="white" stroke="black" points="593.32,-179.5 593.32,-209.5 732.32,-209.5 732.32,-179.5 593.32,-179.5"/>
<text text-anchor="start" x="601.32" y="-197.5" font-family="Helvetica,sans-Serif" font-size="10.00">playrho/detail/underlying</text>
<text text-anchor="middle" x="662.82" y="-186.5" font-family="Helvetica,sans-Serif" font-size="10.00">_type.hpp</text>
</a>
</g>
</g>
<!-- Node17&#45;&gt;Node18 -->
<g id="edge20" class="edge">
<title>Node17&#45;&gt;Node18</title>
<path fill="none" stroke="midnightblue" d="M344.12,-246.48C406.67,-236.47 511,-219.78 583.17,-208.24"/>
<polygon fill="midnightblue" stroke="midnightblue" points="583.81,-211.68 593.13,-206.65 582.7,-204.77 583.81,-211.68"/>
</g>
<!-- Node18&#45;&gt;Node6 -->
<g id="edge21" class="edge">
<title>Node18&#45;&gt;Node6</title>
<path fill="none" stroke="midnightblue" d="M666.59,-179.43C675.22,-150.37 699.41,-84.09 746.82,-56 825.04,-9.65 1473.14,-9.77 1650.24,-10.69"/>
<polygon fill="midnightblue" stroke="midnightblue" points="1650.24,-14.19 1660.26,-10.74 1650.28,-7.19 1650.24,-14.19"/>
</g>
<!-- Node19&#45;&gt;Node4 -->
<g id="edge33" class="edge">
<title>Node19&#45;&gt;Node4</title>
<path fill="none" stroke="midnightblue" d="M686.72,-430.87C666.42,-421.44 633.61,-405.48 606.82,-389 575.62,-369.81 541.78,-344.07 521.44,-328.02"/>
<polygon fill="midnightblue" stroke="midnightblue" points="523.36,-325.07 513.36,-321.58 519,-330.54 523.36,-325.07"/>
</g>
<!-- Node19&#45;&gt;Node7 -->
<g id="edge24" class="edge">
<title>Node19&#45;&gt;Node7</title>
<path fill="none" stroke="midnightblue" d="M648.66,-432.81C556.64,-419.51 390.99,-383.68 442.82,-302 474.14,-252.65 505.56,-261.85 561.82,-246 701.48,-206.66 873.02,-197.69 961.96,-195.82"/>
<polygon fill="midnightblue" stroke="midnightblue" points="962.19,-199.32 972.13,-195.63 962.06,-192.32 962.19,-199.32"/>
</g>
<!-- Node20 -->
<g id="node19" class="node">
<title>Node20</title>
<g id="a_node19"><a xlink:href="Settings_8hpp.html" target="_top" xlink:title="Types and default settings file.">
<polygon fill="white" stroke="black" points="839.32,-364 839.32,-383 956.32,-383 956.32,-364 839.32,-364"/>
<text text-anchor="middle" x="897.82" y="-371" font-family="Helvetica,sans-Serif" font-size="10.00">playrho/Settings.hpp</text>
</a>
</g>
</g>
<!-- Node19&#45;&gt;Node20 -->
<g id="edge25" class="edge">
<title>Node19&#45;&gt;Node20</title>
<path fill="none" stroke="midnightblue" d="M731.32,-430.87C765.12,-419.42 824.92,-399.18 862.9,-386.32"/>
<polygon fill="midnightblue" stroke="midnightblue" points="864.17,-389.59 872.52,-383.06 861.93,-382.96 864.17,-389.59"/>
</g>
<!-- Node25 -->
<g id="node22" class="node">
<title>Node25</title>
<g id="a_node22"><a xlink:href="Vector_8hpp.html" target="_top" xlink:title="Definition of the Vector class template and closely related code.">
<polygon fill="white" stroke="black" points="1976.32,-364 1976.32,-383 2083.32,-383 2083.32,-364 1976.32,-364"/>
<text text-anchor="middle" x="2029.82" y="-371" font-family="Helvetica,sans-Serif" font-size="10.00">playrho/Vector.hpp</text>
</a>
</g>
</g>
<!-- Node19&#45;&gt;Node25 -->
<g id="edge34" class="edge">
<title>Node19&#45;&gt;Node25</title>
<path fill="none" stroke="midnightblue" d="M762.96,-439.2C937.81,-437.82 1481,-430.28 1928.82,-389 1941.35,-387.85 1954.7,-386.22 1967.45,-384.46"/>
<polygon fill="midnightblue" stroke="midnightblue" points="1968.11,-387.9 1977.52,-383.04 1967.13,-380.97 1968.11,-387.9"/>
</g>
<!-- Node20&#45;&gt;Node4 -->
<g id="edge31" class="edge">
<title>Node20&#45;&gt;Node4</title>
<path fill="none" stroke="midnightblue" d="M856.97,-363.96C846.51,-361.89 835.27,-359.77 824.82,-358 799.76,-353.76 650.56,-333.21 564.32,-321.4"/>
<polygon fill="midnightblue" stroke="midnightblue" points="564.76,-317.93 554.38,-320.04 563.81,-324.86 564.76,-317.93"/>
</g>
<!-- Node20&#45;&gt;Node6 -->
<g id="edge28" class="edge">
<title>Node20&#45;&gt;Node6</title>
<path fill="none" stroke="midnightblue" d="M857.3,-363.96C806.36,-352.83 724.5,-333.42 715.82,-322 710.44,-314.92 713.09,-310.46 715.82,-302 721.89,-283.22 733.34,-283.82 741.82,-266 755.77,-236.7 760.82,-227.95 760.82,-195.5 760.82,-195.5 760.82,-195.5 760.82,-132 760.82,-41.23 1463.61,-16.89 1649.93,-12.03"/>
<polygon fill="midnightblue" stroke="midnightblue" points="1650.28,-15.52 1660.19,-11.77 1650.11,-8.52 1650.28,-15.52"/>
</g>
<!-- Node20&#45;&gt;Node7 -->
<g id="edge29" class="edge">
<title>Node20&#45;&gt;Node7</title>
<path fill="none" stroke="midnightblue" d="M903.8,-363.96C923.07,-336.46 983.77,-249.82 1009.79,-212.68"/>
<polygon fill="midnightblue" stroke="midnightblue" points="1012.74,-214.57 1015.61,-204.37 1007,-210.55 1012.74,-214.57"/>
</g>
<!-- Node20&#45;&gt;Node8 -->
<g id="edge27" class="edge">
<title>Node20&#45;&gt;Node8</title>
<path fill="none" stroke="midnightblue" d="M853.35,-363.96C799.75,-353.34 713.11,-335.03 682.82,-322 572.51,-274.57 458.14,-184.87 414.86,-149.2"/>
<polygon fill="midnightblue" stroke="midnightblue" points="416.88,-146.32 406.95,-142.62 412.4,-151.71 416.88,-146.32"/>
</g>
<!-- Node20&#45;&gt;Node16 -->
<g id="edge30" class="edge">
<title>Node20&#45;&gt;Node16</title>
<path fill="none" stroke="midnightblue" d="M895.19,-363.82C889.54,-345.17 876.14,-300.94 868.47,-275.63"/>
<polygon fill="midnightblue" stroke="midnightblue" points="871.73,-274.34 865.48,-265.78 865.03,-276.37 871.73,-274.34"/>
</g>
<!-- Node21 -->
<g id="node20" class="node">
<title>Node21</title>
<g id="a_node20"><a xlink:title=" ">
<polygon fill="white" stroke="#bfbfbf" points="2998.82,-302.5 2998.82,-321.5 3048.82,-321.5 3048.82,-302.5 2998.82,-302.5"/>
<text text-anchor="middle" x="3023.82" y="-309.5" font-family="Helvetica,sans-Serif" font-size="10.00">cstdint</text>
</a>
</g>
</g>
<!-- Node20&#45;&gt;Node21 -->
<g id="edge26" class="edge">
<title>Node20&#45;&gt;Node21</title>
<path fill="none" stroke="midnightblue" d="M956.34,-370.86C1269.36,-362.1 2740.84,-320.92 2988.42,-313.99"/>
<polygon fill="midnightblue" stroke="midnightblue" points="2988.74,-317.48 2998.64,-313.7 2988.55,-310.49 2988.74,-317.48"/>
</g>
<!-- Node22 -->
<g id="node21" class="node">
<title>Node22</title>
<g id="a_node21"><a xlink:href="WiderType_8hpp.html" target="_top" xlink:title="Definition of the WiderType alias template.">
<polygon fill="white" stroke="red" points="724.82,-302.5 724.82,-321.5 852.82,-321.5 852.82,-302.5 724.82,-302.5"/>
<text text-anchor="middle" x="788.82" y="-309.5" font-family="Helvetica,sans-Serif" font-size="10.00">playrho/WiderType.hpp</text>
</a>
</g>
</g>
<!-- Node20&#45;&gt;Node22 -->
<g id="edge32" class="edge">
<title>Node20&#45;&gt;Node22</title>
<path fill="none" stroke="midnightblue" d="M882.2,-363.98C864.23,-354.17 834.5,-337.93 813.41,-326.42"/>
<polygon fill="midnightblue" stroke="midnightblue" points="814.86,-323.23 804.41,-321.51 811.51,-329.37 814.86,-323.23"/>
</g>
<!-- Node25&#45;&gt;Node2 -->
<g id="edge36" class="edge">
<title>Node25&#45;&gt;Node2</title>
<path fill="none" stroke="midnightblue" d="M2065.3,-363.99C2075.73,-361.74 2087.19,-359.53 2097.82,-358 2309.58,-327.62 2364.93,-343.09 2577.82,-322 2589.69,-320.82 2602.62,-319.31 2614.25,-317.86"/>
<polygon fill="midnightblue" stroke="midnightblue" points="2615.02,-321.29 2624.5,-316.55 2614.14,-314.34 2615.02,-321.29"/>
</g>
<!-- Node25&#45;&gt;Node6 -->
<g id="edge41" class="edge">
<title>Node25&#45;&gt;Node6</title>
<path fill="none" stroke="midnightblue" d="M2062.16,-363.99C2070.79,-361.88 2080.13,-359.72 2088.82,-358 2141.07,-347.63 2291.1,-362.4 2325.82,-322 2331.61,-315.26 2329.89,-309.9 2325.82,-302 2239.86,-134.85 2155.8,-127.14 1981.82,-56 1900.74,-22.84 1797.57,-13.96 1739.6,-11.68"/>
<polygon fill="midnightblue" stroke="midnightblue" points="1739.44,-8.17 1729.32,-11.33 1739.2,-15.17 1739.44,-8.17"/>
</g>
<!-- Node25&#45;&gt;Node7 -->
<g id="edge43" class="edge">
<title>Node25&#45;&gt;Node7</title>
<path fill="none" stroke="midnightblue" d="M2042.23,-363.81C2060.77,-349.8 2091.72,-321.8 2073.82,-302 2006.91,-227.97 1294.72,-202.87 1081.68,-196.98"/>
<polygon fill="midnightblue" stroke="midnightblue" points="1081.71,-193.48 1071.62,-196.71 1081.52,-200.48 1081.71,-193.48"/>
</g>
<!-- Node25&#45;&gt;Node9 -->
<g id="edge44" class="edge">
<title>Node25&#45;&gt;Node9</title>
<path fill="none" stroke="midnightblue" d="M2046.93,-363.81C2070.01,-350.92 2106.42,-325.7 2089.82,-302 2036.98,-226.57 1761.56,-167.35 1639.34,-144.37"/>
<polygon fill="midnightblue" stroke="midnightblue" points="1639.88,-140.91 1629.41,-142.51 1638.6,-147.79 1639.88,-140.91"/>
</g>
<!-- Node25&#45;&gt;Node12 -->
<g id="edge35" class="edge">
<title>Node25&#45;&gt;Node12</title>
<path fill="none" stroke="midnightblue" d="M2061.52,-364C2070.32,-361.83 2079.9,-359.65 2088.82,-358 2151.59,-346.36 2323.17,-360.85 2373.82,-322 2463.34,-253.33 2448.08,-197.71 2469.82,-87 2472.47,-73.48 2474.29,-69.03 2469.82,-56 2466.1,-45.16 2458.59,-34.92 2451.47,-26.96"/>
<polygon fill="midnightblue" stroke="midnightblue" points="2453.82,-24.35 2444.38,-19.55 2448.77,-29.19 2453.82,-24.35"/>
</g>
<!-- Node25&#45;&gt;Node14 -->
<g id="edge38" class="edge">
<title>Node25&#45;&gt;Node14</title>
<path fill="none" stroke="midnightblue" d="M2061.83,-363.96C2070.55,-361.82 2080.01,-359.66 2088.82,-358 2148.3,-346.76 2318.95,-367.54 2358.82,-322 2364.68,-315.31 2360.12,-310.79 2358.82,-302 2344.22,-203.25 2320.38,-183.23 2293.82,-87 2288.46,-67.59 2282.95,-45.21 2279.25,-29.79"/>
<polygon fill="midnightblue" stroke="midnightblue" points="2282.62,-28.85 2276.9,-19.93 2275.81,-30.47 2282.62,-28.85"/>
</g>
<!-- Node26 -->
<g id="node23" class="node">
<title>Node26</title>
<g id="a_node23"><a xlink:title=" ">
<polygon fill="white" stroke="#bfbfbf" points="2011.32,-302.5 2011.32,-321.5 2064.32,-321.5 2064.32,-302.5 2011.32,-302.5"/>
<text text-anchor="middle" x="2037.82" y="-309.5" font-family="Helvetica,sans-Serif" font-size="10.00">cstddef</text>
</a>
</g>
</g>
<!-- Node25&#45;&gt;Node26 -->
<g id="edge37" class="edge">
<title>Node25&#45;&gt;Node26</title>
<path fill="none" stroke="midnightblue" d="M2030.97,-363.98C2032.09,-355.58 2033.86,-342.48 2035.31,-331.66"/>
<polygon fill="midnightblue" stroke="midnightblue" points="2038.81,-331.89 2036.68,-321.51 2031.87,-330.95 2038.81,-331.89"/>
</g>
<!-- Node27 -->
<g id="node24" class="node">
<title>Node27</title>
<g id="a_node24"><a xlink:title=" ">
<polygon fill="white" stroke="#bfbfbf" points="2448.82,-302.5 2448.82,-321.5 2508.82,-321.5 2508.82,-302.5 2448.82,-302.5"/>
<text text-anchor="middle" x="2478.82" y="-309.5" font-family="Helvetica,sans-Serif" font-size="10.00">iostream</text>
</a>
</g>
</g>
<!-- Node25&#45;&gt;Node27 -->
<g id="edge39" class="edge">
<title>Node25&#45;&gt;Node27</title>
<path fill="none" stroke="midnightblue" d="M2066.39,-363.97C2076.53,-361.81 2087.57,-359.64 2097.82,-358 2246.57,-334.26 2285.97,-345.12 2434.82,-322 2436.08,-321.8 2437.35,-321.6 2438.64,-321.38"/>
<polygon fill="midnightblue" stroke="midnightblue" points="2439.38,-324.81 2448.59,-319.58 2438.13,-317.92 2439.38,-324.81"/>
</g>
<!-- Node28 -->
<g id="node25" class="node">
<title>Node28</title>
<g id="a_node25"><a xlink:title=" ">
<polygon fill="white" stroke="#bfbfbf" points="2527.32,-302.5 2527.32,-321.5 2568.32,-321.5 2568.32,-302.5 2527.32,-302.5"/>
<text text-anchor="middle" x="2547.82" y="-309.5" font-family="Helvetica,sans-Serif" font-size="10.00">tuple</text>
</a>
</g>
</g>
<!-- Node25&#45;&gt;Node28 -->
<g id="edge40" class="edge">
<title>Node25&#45;&gt;Node28</title>
<path fill="none" stroke="midnightblue" d="M2065.66,-363.98C2075.99,-361.77 2087.31,-359.56 2097.82,-358 2279.87,-330.9 2331.96,-356.18 2517.23,-321.67"/>
<polygon fill="midnightblue" stroke="midnightblue" points="2518.13,-325.06 2527.3,-319.76 2516.82,-318.19 2518.13,-325.06"/>
</g>
<!-- Node29 -->
<g id="node26" class="node">
<title>Node29</title>
<g id="a_node26"><a xlink:href="InvalidArgument_8hpp.html" target="_top" xlink:title="Definition of the InvalidArgument class.">
<polygon fill="white" stroke="red" points="2158.82,-302.5 2158.82,-321.5 2316.82,-321.5 2316.82,-302.5 2158.82,-302.5"/>
<text text-anchor="middle" x="2237.82" y="-309.5" font-family="Helvetica,sans-Serif" font-size="10.00">playrho/InvalidArgument.hpp</text>
</a>
</g>
</g>
<!-- Node25&#45;&gt;Node29 -->
<g id="edge42" class="edge">
<title>Node25&#45;&gt;Node29</title>
<path fill="none" stroke="midnightblue" d="M2059.62,-363.98C2096.07,-353.55 2157.9,-335.86 2198.29,-324.31"/>
<polygon fill="midnightblue" stroke="midnightblue" points="2199.42,-327.62 2208.07,-321.51 2197.5,-320.89 2199.42,-327.62"/>
</g>
<!-- Node31&#45;&gt;Node2 -->
<g id="edge46" class="edge">
<title>Node31&#45;&gt;Node2</title>
<path fill="none" stroke="midnightblue" d="M1594.2,-666.94C1840.34,-657.89 2780.82,-619.35 2780.82,-559 2780.82,-559 2780.82,-559 2780.82,-501 2780.82,-424.59 2707.27,-356.76 2670.81,-327.83"/>
<polygon fill="midnightblue" stroke="midnightblue" points="2672.87,-325 2662.82,-321.64 2668.58,-330.53 2672.87,-325"/>
</g>
<!-- Node31&#45;&gt;Node4 -->
<g id="edge98" class="edge">
<title>Node31&#45;&gt;Node4</title>
<path fill="none" stroke="midnightblue" d="M1477.73,-668.27C1296.8,-665.67 744.94,-655.33 568.82,-624 474.3,-607.18 362.82,-655.01 362.82,-559 362.82,-559 362.82,-559 362.82,-501 362.82,-422.83 441.65,-356.11 481.01,-327.68"/>
<polygon fill="midnightblue" stroke="midnightblue" points="483.49,-330.21 489.65,-321.59 479.46,-324.49 483.49,-330.21"/>
</g>
<!-- Node31&#45;&gt;Node7 -->
<g id="edge92" class="edge">
<title>Node31&#45;&gt;Node7</title>
<path fill="none" stroke="midnightblue" d="M1536.17,-660.22C1536.38,-647.38 1535.58,-622.94 1527.82,-604 1515.93,-574.96 1508.14,-569 1484.82,-548 1426.7,-495.67 1398.18,-501.85 1334.82,-456 1217.81,-371.33 1198.98,-336.99 1086.82,-246 1071.85,-233.86 1054.61,-220.49 1041.65,-210.56"/>
<polygon fill="midnightblue" stroke="midnightblue" points="1043.51,-207.58 1033.44,-204.29 1039.27,-213.14 1043.51,-207.58"/>
</g>
<!-- Node31&#45;&gt;Node8 -->
<g id="edge48" class="edge">
<title>Node31&#45;&gt;Node8</title>
<path fill="none" stroke="midnightblue" d="M1477.68,-668.72C1250.34,-667.36 428.64,-659.97 317.82,-624 190.03,-582.52 76.82,-575.86 76.82,-441.5 76.82,-441.5 76.82,-441.5 76.82,-311 76.82,-180.52 283.07,-145.46 364.4,-136.71"/>
<polygon fill="midnightblue" stroke="midnightblue" points="364.97,-140.17 374.57,-135.69 364.27,-133.21 364.97,-140.17"/>
</g>
<!-- Node31&#45;&gt;Node15 -->
<g id="edge49" class="edge">
<title>Node31&#45;&gt;Node15</title>
<path fill="none" stroke="midnightblue" d="M1593.97,-668.26C1788.49,-665.52 2415.35,-654.5 2614.82,-624 2709.88,-609.46 2732.89,-599.3 2823.82,-568 2957.17,-522.1 3114.82,-582.52 3114.82,-441.5 3114.82,-441.5 3114.82,-441.5 3114.82,-132 3114.82,-65.44 2885.33,-27.26 2798.54,-15.2"/>
<polygon fill="midnightblue" stroke="midnightblue" points="2798.83,-11.71 2788.45,-13.83 2797.89,-18.65 2798.83,-11.71"/>
</g>
<!-- Node31&#45;&gt;Node19 -->
<g id="edge99" class="edge">
<title>Node31&#45;&gt;Node19</title>
<path fill="none" stroke="midnightblue" d="M1477.82,-667.59C1371.27,-664.33 1137.45,-654.1 942.82,-624 835.43,-607.39 779.54,-646.9 704.82,-568 677.22,-538.86 689.53,-486.86 698.84,-459.49"/>
<polygon fill="midnightblue" stroke="midnightblue" points="702.16,-460.6 702.29,-450 695.58,-458.21 702.16,-460.6"/>
</g>
<!-- Node31&#45;&gt;Node21 -->
<g id="edge47" class="edge">
<title>Node31&#45;&gt;Node21</title>
<path fill="none" stroke="midnightblue" d="M1594.01,-669.27C1745.07,-669.34 2161.87,-665.42 2505.82,-624 2634.42,-608.51 2675.86,-625.7 2791.82,-568 2898.62,-514.86 2922.54,-486.11 2991.82,-389 3004.52,-371.2 3013.46,-347.58 3018.6,-331.43"/>
<polygon fill="midnightblue" stroke="midnightblue" points="3022.03,-332.18 3021.55,-321.6 3015.32,-330.17 3022.03,-332.18"/>
</g>
<!-- Node32 -->
<g id="node28" class="node">
<title>Node32</title>
<g id="a_node28"><a xlink:title=" ">
<polygon fill="white" stroke="#bfbfbf" points="2069.32,-492.5 2069.32,-511.5 2116.32,-511.5 2116.32,-492.5 2069.32,-492.5"/>
<text text-anchor="middle" x="2092.82" y="-499.5" font-family="Helvetica,sans-Serif" font-size="10.00">vector</text>
</a>
</g>
</g>
<!-- Node31&#45;&gt;Node32 -->
<g id="edge50" class="edge">
<title>Node31&#45;&gt;Node32</title>
<path fill="none" stroke="midnightblue" d="M1585.33,-660.43C1628.78,-652.46 1693.5,-639.5 1748.82,-624 1866.38,-591.06 2002.03,-539.08 2061.8,-515.44"/>
<polygon fill="midnightblue" stroke="midnightblue" points="2063.4,-518.58 2071.4,-511.64 2060.81,-512.07 2063.4,-518.58"/>
</g>
<!-- Node33 -->
<g id="node29" class="node">
<title>Node33</title>
<g id="a_node29"><a xlink:href="BodyType_8hpp.html" target="_top" xlink:title="Definition of the BodyType enumeration and closely related code.">
<polygon fill="white" stroke="black" points="1325.32,-548.5 1325.32,-567.5 1450.32,-567.5 1450.32,-548.5 1325.32,-548.5"/>
<text text-anchor="middle" x="1387.82" y="-555.5" font-family="Helvetica,sans-Serif" font-size="10.00">playrho/BodyType.hpp</text>
</a>
</g>
</g>
<!-- Node31&#45;&gt;Node33 -->
<g id="edge51" class="edge">
<title>Node31&#45;&gt;Node33</title>
<path fill="none" stroke="midnightblue" d="M1524.21,-660.37C1499.03,-641.65 1439.15,-597.15 1407.78,-573.83"/>
<polygon fill="midnightblue" stroke="midnightblue" points="1409.49,-570.75 1399.38,-567.59 1405.32,-576.37 1409.49,-570.75"/>
</g>
<!-- Node34 -->
<g id="node30" class="node">
<title>Node34</title>
<g id="a_node30"><a xlink:href="Math_8hpp.html" target="_top" xlink:title="Conventional and custom math related code.">
<polygon fill="white" stroke="black" points="1734.82,-548.5 1734.82,-567.5 1836.82,-567.5 1836.82,-548.5 1734.82,-548.5"/>
<text text-anchor="middle" x="1785.82" y="-555.5" font-family="Helvetica,sans-Serif" font-size="10.00">playrho/Math.hpp</text>
</a>
</g>
</g>
<!-- Node31&#45;&gt;Node34 -->
<g id="edge52" class="edge">
<title>Node31&#45;&gt;Node34</title>
<path fill="none" stroke="midnightblue" d="M1594.14,-663.51C1632.7,-657.89 1683.23,-646.59 1722.82,-624 1743.84,-612 1762.38,-590.91 1773.8,-576.01"/>
<polygon fill="midnightblue" stroke="midnightblue" points="1776.84,-577.8 1779.96,-567.67 1771.2,-573.64 1776.84,-577.8"/>
</g>
<!-- Node37 -->
<g id="node33" class="node">
<title>Node37</title>
<g id="a_node33"><a xlink:href="NonNegative_8hpp.html" target="_top" xlink:title="Definition of the NonNegative value checked types.">
<polygon fill="white" stroke="black" points="2373.32,-492.5 2373.32,-511.5 2514.32,-511.5 2514.32,-492.5 2373.32,-492.5"/>
<text text-anchor="middle" x="2443.82" y="-499.5" font-family="Helvetica,sans-Serif" font-size="10.00">playrho/NonNegative.hpp</text>
</a>
</g>
</g>
<!-- Node31&#45;&gt;Node37 -->
<g id="edge91" class="edge">
<title>Node31&#45;&gt;Node37</title>
<path fill="none" stroke="midnightblue" d="M1594.07,-667.85C1763.01,-664.21 2245.4,-651.51 2310.82,-624 2364.59,-601.39 2410.73,-547.31 2431.73,-519.76"/>
<polygon fill="midnightblue" stroke="midnightblue" points="2434.7,-521.62 2437.86,-511.51 2429.08,-517.45 2434.7,-521.62"/>
</g>
<!-- Node43 -->
<g id="node38" class="node">
<title>Node43</title>
<g id="a_node38"><a xlink:href="ShapeID_8hpp.html" target="_top" xlink:title="Definition of the ShapeID alias and closely related code.">
<polygon fill="white" stroke="black" points="2074.82,-548.5 2074.82,-567.5 2192.82,-567.5 2192.82,-548.5 2074.82,-548.5"/>
<text text-anchor="middle" x="2133.82" y="-555.5" font-family="Helvetica,sans-Serif" font-size="10.00">playrho/ShapeID.hpp</text>
</a>
</g>
</g>
<!-- Node31&#45;&gt;Node43 -->
<g id="edge93" class="edge">
<title>Node31&#45;&gt;Node43</title>
<path fill="none" stroke="midnightblue" d="M1593.88,-666.79C1705.16,-662.05 1944.41,-649.2 2022.82,-624 2057.79,-612.76 2093.65,-589.13 2114.82,-573.67"/>
<polygon fill="midnightblue" stroke="midnightblue" points="2117.02,-576.39 2122.95,-567.6 2112.84,-570.78 2117.02,-576.39"/>
</g>
<!-- Node45 -->
<g id="node40" class="node">
<title>Node45</title>
<g id="a_node40"><a xlink:href="ZeroToUnderOne_8hpp.html" target="_top" xlink:title="Definition of the ZeroToUnderOne value checked types and related code.">
<polygon fill="white" stroke="black" points="2082.32,-431 2082.32,-450 2241.32,-450 2241.32,-431 2082.32,-431"/>
<text text-anchor="middle" x="2161.82" y="-438" font-family="Helvetica,sans-Serif" font-size="10.00">playrho/ZeroToUnderOne.hpp</text>
</a>
</g>
</g>
<!-- Node31&#45;&gt;Node45 -->
<g id="edge100" class="edge">
<title>Node31&#45;&gt;Node45</title>
<path fill="none" stroke="midnightblue" d="M1593.89,-667.4C1757.69,-662.61 2213.01,-647.26 2234.82,-624 2274.95,-581.2 2262.06,-543.96 2234.82,-492 2226.05,-475.27 2208.95,-462.99 2193.5,-454.72"/>
<polygon fill="midnightblue" stroke="midnightblue" points="2194.69,-451.41 2184.18,-450.09 2191.58,-457.68 2194.69,-451.41"/>
</g>
<!-- Node47 -->
<g id="node42" class="node">
<title>Node47</title>
<g id="a_node42"><a xlink:href="Acceleration_8hpp.html" target="_top" xlink:title="Definition of the Acceleration class and closely related code.">
<polygon fill="white" stroke="black" points="181.32,-492.5 181.32,-511.5 334.32,-511.5 334.32,-492.5 181.32,-492.5"/>
<text text-anchor="middle" x="257.82" y="-499.5" font-family="Helvetica,sans-Serif" font-size="10.00">playrho/d2/Acceleration.hpp</text>
</a>
</g>
</g>
<!-- Node31&#45;&gt;Node47 -->
<g id="edge104" class="edge">
<title>Node31&#45;&gt;Node47</title>
<path fill="none" stroke="midnightblue" d="M1477.76,-668.18C1246.28,-664.74 399.27,-650.39 348.82,-624 306.07,-601.64 277.84,-549.14 265.29,-521.22"/>
<polygon fill="midnightblue" stroke="midnightblue" points="268.42,-519.63 261.25,-511.83 261.99,-522.4 268.42,-519.63"/>
</g>
<!-- Node48 -->
<g id="node43" class="node">
<title>Node48</title>
<g id="a_node43"><a xlink:href="BodyConf_8hpp.html" target="_top" xlink:title="Declarations of BodyConf class &amp; free functions associated with it.">
<polygon fill="white" stroke="black" points="1075.32,-604.5 1075.32,-623.5 1214.32,-623.5 1214.32,-604.5 1075.32,-604.5"/>
<text text-anchor="middle" x="1144.82" y="-611.5" font-family="Helvetica,sans-Serif" font-size="10.00">playrho/d2/BodyConf.hpp</text>
</a>
</g>
</g>
<!-- Node31&#45;&gt;Node48 -->
<g id="edge109" class="edge">
<title>Node31&#45;&gt;Node48</title>
<path fill="none" stroke="midnightblue" d="M1477.71,-660.97C1408.22,-651.38 1291.91,-635.31 1216.8,-624.94"/>
<polygon fill="midnightblue" stroke="midnightblue" points="1216.87,-621.42 1206.48,-623.52 1215.91,-628.35 1216.87,-621.42"/>
</g>
<!-- Node31&#45;&gt;Node52 -->
<g id="edge176" class="edge">
<title>Node31&#45;&gt;Node52</title>
<path fill="none" stroke="midnightblue" d="M1477.64,-668.12C1287.79,-664.96 693.92,-652.86 612.82,-624 573.29,-609.93 565.56,-598.56 536.82,-568 523.34,-553.67 511.54,-534.46 503.9,-520.65"/>
<polygon fill="midnightblue" stroke="midnightblue" points="506.92,-518.86 499.12,-511.69 500.74,-522.16 506.92,-518.86"/>
</g>
<!-- Node53 -->
<g id="node46" class="node">
<title>Node53</title>
<g id="a_node46"><a xlink:href="Sweep_8hpp.html" target="_top" xlink:title="Definition of the Sweep class and closely related code.">
<polygon fill="white" stroke="black" points="731.32,-548.5 731.32,-567.5 856.32,-567.5 856.32,-548.5 731.32,-548.5"/>
<text text-anchor="middle" x="793.82" y="-555.5" font-family="Helvetica,sans-Serif" font-size="10.00">playrho/d2/Sweep.hpp</text>
</a>
</g>
</g>
<!-- Node31&#45;&gt;Node53 -->
<g id="edge177" class="edge">
<title>Node31&#45;&gt;Node53</title>
<path fill="none" stroke="midnightblue" d="M1477.79,-667.1C1383.85,-663.28 1192.96,-652.46 1033.82,-624 959.79,-610.76 875.37,-585.44 828.99,-570.61"/>
<polygon fill="midnightblue" stroke="midnightblue" points="830,-567.26 819.41,-567.52 827.85,-573.92 830,-567.26"/>
</g>
<!-- Node54 -->
<g id="node47" class="node">
<title>Node54</title>
<g id="a_node47"><a xlink:href="Transformation_8hpp.html" target="_top" xlink:title="Definition of the Transformation class and free functions directly associated with it.">
<polygon fill="white" stroke="black" points="912.82,-548.5 912.82,-567.5 1078.82,-567.5 1078.82,-548.5 912.82,-548.5"/>
<text text-anchor="middle" x="995.82" y="-555.5" font-family="Helvetica,sans-Serif" font-size="10.00">playrho/d2/Transformation.hpp</text>
</a>
</g>
</g>
<!-- Node31&#45;&gt;Node54 -->
<g id="edge178" class="edge">
<title>Node31&#45;&gt;Node54</title>
<path fill="none" stroke="midnightblue" d="M1477.69,-667.99C1368.89,-665.36 1138.94,-656.08 1066.82,-624 1042.82,-613.33 1021.53,-591.26 1008.67,-575.81"/>
<polygon fill="midnightblue" stroke="midnightblue" points="1011.09,-573.24 1002.11,-567.62 1005.63,-577.61 1011.09,-573.24"/>
</g>
<!-- Node55 -->
<g id="node48" class="node">
<title>Node55</title>
<g id="a_node48"><a xlink:href="UnitVec_8hpp.html" target="_top" xlink:title="Declarations of the UnitVec class and free functions associated with it.">
<polygon fill="white" stroke="black" points="1669.82,-364 1669.82,-383 1799.82,-383 1799.82,-364 1669.82,-364"/>
<text text-anchor="middle" x="1734.82" y="-371" font-family="Helvetica,sans-Serif" font-size="10.00">playrho/d2/UnitVec.hpp</text>
</a>
</g>
</g>
<!-- Node31&#45;&gt;Node55 -->
<g id="edge179" class="edge">
<title>Node31&#45;&gt;Node55</title>
<path fill="none" stroke="midnightblue" d="M1594.08,-669.29C1691.28,-668.59 1892.08,-662.11 2056.82,-624 2124.13,-608.43 2162.75,-624.97 2201.82,-568 2252.98,-493.41 1918.98,-413.48 1786.91,-385.18"/>
<polygon fill="midnightblue" stroke="midnightblue" points="1787.51,-381.73 1777.01,-383.07 1786.06,-388.57 1787.51,-381.73"/>
</g>
<!-- Node31&#45;&gt;Node56 -->
<g id="edge180" class="edge">
<title>Node31&#45;&gt;Node56</title>
<path fill="none" stroke="midnightblue" d="M1533.14,-660.18C1525.69,-637.35 1502.47,-576.16 1459.82,-548 1442.63,-536.65 1329.5,-521.22 1251.33,-511.7"/>
<polygon fill="midnightblue" stroke="midnightblue" points="1251.37,-508.18 1241.02,-510.45 1250.53,-515.13 1251.37,-508.18"/>
</g>
<!-- Node57 -->
<g id="node50" class="node">
<title>Node57</title>
<g id="a_node50"><a xlink:href="d2_2Math_8hpp.html" target="_top" xlink:title="Declarations of general 2&#45;D math related code.">
<polygon fill="white" stroke="red" points="1596.32,-604.5 1596.32,-623.5 1713.32,-623.5 1713.32,-604.5 1596.32,-604.5"/>
<text text-anchor="middle" x="1654.82" y="-611.5" font-family="Helvetica,sans-Serif" font-size="10.00">playrho/d2/Math.hpp</text>
</a>
</g>
</g>
<!-- Node31&#45;&gt;Node57 -->
<g id="edge160" class="edge">
<title>Node31&#45;&gt;Node57</title>
<path fill="none" stroke="midnightblue" d="M1554.68,-660.44C1574.09,-651.64 1604.55,-637.81 1626.78,-627.72"/>
<polygon fill="midnightblue" stroke="midnightblue" points="1628.39,-630.84 1636.05,-623.52 1625.5,-624.46 1628.39,-630.84"/>
</g>
<!-- Node34&#45;&gt;Node2 -->
<g id="edge53" class="edge">
<title>Node34&#45;&gt;Node2</title>
<path fill="none" stroke="midnightblue" d="M1822.58,-548.46C1855.36,-540.41 1904.42,-527.34 1945.82,-512 1965.58,-504.68 1968.6,-497.95 1988.82,-492 2101.59,-458.85 2140.13,-495.54 2250.82,-456 2329.35,-427.95 2332.89,-387.67 2410.82,-358 2495.23,-325.86 2522.3,-339.92 2610.82,-322 2612.08,-321.75 2613.35,-321.48 2614.64,-321.21"/>
<polygon fill="midnightblue" stroke="midnightblue" points="2615.57,-324.6 2624.6,-319.07 2614.09,-317.75 2615.57,-324.6"/>
</g>
<!-- Node34&#45;&gt;Node4 -->
<g id="edge84" class="edge">
<title>Node34&#45;&gt;Node4</title>
<path fill="none" stroke="midnightblue" d="M1734.65,-552.55C1655.88,-545.46 1500.23,-530.5 1368.82,-512 1350.84,-509.47 1064.57,-459.82 1046.82,-456 930.17,-430.87 898.16,-431.93 786.82,-389 759.18,-378.34 755.74,-367.89 727.82,-358 674.24,-339.01 610.47,-327.21 564.53,-320.48"/>
<polygon fill="midnightblue" stroke="midnightblue" points="564.82,-316.99 554.43,-319.04 563.83,-323.92 564.82,-316.99"/>
</g>
<!-- Node34&#45;&gt;Node5 -->
<g id="edge54" class="edge">
<title>Node34&#45;&gt;Node5</title>
<path fill="none" stroke="midnightblue" d="M1734.76,-552.4C1673.39,-546.2 1567.58,-533.42 1478.82,-512 1197.23,-444.05 1137.94,-389.55 861.82,-302 820.92,-289.03 773.46,-275.27 742.38,-266.43"/>
<polygon fill="midnightblue" stroke="midnightblue" points="743.08,-262.99 732.5,-263.63 741.17,-269.73 743.08,-262.99"/>
</g>
<!-- Node34&#45;&gt;Node6 -->
<g id="edge59" class="edge">
<title>Node34&#45;&gt;Node6</title>
<path fill="none" stroke="midnightblue" d="M1836.82,-548.6C1894.56,-538.83 1984.89,-522.67 2017.82,-512 2037.87,-505.5 2040.52,-497.67 2060.82,-492 2202.07,-452.55 2244.54,-482.3 2388.82,-456 2403.55,-453.32 2636.33,-395.49 2649.82,-389 2699.67,-365.03 2765.68,-350.35 2738.82,-302 2715.94,-260.82 2691.38,-266.19 2648.82,-246 2530.85,-190.04 2220.22,-84.61 2092.82,-56 1966.88,-27.71 1814.33,-16.79 1739.97,-12.92"/>
<polygon fill="midnightblue" stroke="midnightblue" points="1739.74,-9.4 1729.58,-12.4 1739.39,-16.4 1739.74,-9.4"/>
</g>
<!-- Node34&#45;&gt;Node7 -->
<g id="edge77" class="edge">
<title>Node34&#45;&gt;Node7</title>
<path fill="none" stroke="midnightblue" d="M1761.96,-548.49C1716.99,-532.2 1616.9,-494.78 1535.82,-456 1362.79,-373.25 1333.1,-326.08 1158.82,-246 1125.69,-230.78 1086.54,-216.72 1058.59,-207.32"/>
<polygon fill="midnightblue" stroke="midnightblue" points="1059.43,-203.91 1048.84,-204.08 1057.22,-210.55 1059.43,-203.91"/>
</g>
<!-- Node34&#45;&gt;Node8 -->
<g id="edge57" class="edge">
<title>Node34&#45;&gt;Node8</title>
<path fill="none" stroke="midnightblue" d="M1734.43,-555.57C1459.3,-547.89 172.82,-512 172.82,-512 161.29,-500.15 79.12,-441.11 209.82,-246 247.06,-190.41 322.07,-158.18 364.91,-143.56"/>
<polygon fill="midnightblue" stroke="midnightblue" points="366.15,-146.83 374.56,-140.38 363.96,-140.19 366.15,-146.83"/>
</g>
<!-- Node34&#45;&gt;Node10 -->
<g id="edge56" class="edge">
<title>Node34&#45;&gt;Node10</title>
<path fill="none" stroke="midnightblue" d="M1833.77,-548.48C1873.66,-540.79 1931.65,-528.21 1980.82,-512 2001.99,-505.02 2005.35,-498 2026.82,-492 2141.72,-459.91 2175.51,-477.68 2292.82,-456 2420.77,-432.36 2454.91,-431.72 2577.82,-389 2648.09,-364.57 2762.05,-363.92 2720.82,-302 2668.32,-223.16 1978.66,-105.1 1815.33,-78.12"/>
<polygon fill="midnightblue" stroke="midnightblue" points="1815.78,-74.65 1805.34,-76.48 1814.64,-81.56 1815.78,-74.65"/>
</g>
<!-- Node34&#45;&gt;Node19 -->
<g id="edge86" class="edge">
<title>Node34&#45;&gt;Node19</title>
<path fill="none" stroke="midnightblue" d="M1734.59,-555.56C1620.54,-551.94 1337.21,-540.61 1101.82,-512 976.19,-496.73 829.98,-467.75 755.28,-452.12"/>
<polygon fill="midnightblue" stroke="midnightblue" points="755.73,-448.64 745.23,-450.01 754.29,-455.49 755.73,-448.64"/>
</g>
<!-- Node34&#45;&gt;Node21 -->
<g id="edge55" class="edge">
<title>Node34&#45;&gt;Node21</title>
<path fill="none" stroke="midnightblue" d="M1836.86,-555.05C1981.26,-549.36 2390.84,-531.88 2523.82,-512 2629.15,-496.25 2654.34,-485.01 2756.82,-456 2849.05,-429.89 2882.77,-443.22 2961.82,-389 2984.24,-373.62 3002.81,-347.86 3013.61,-330.65"/>
<polygon fill="midnightblue" stroke="midnightblue" points="3016.88,-332.02 3019.05,-321.65 3010.88,-328.41 3016.88,-332.02"/>
</g>
<!-- Node34&#45;&gt;Node25 -->
<g id="edge85" class="edge">
<title>Node34&#45;&gt;Node25</title>
<path fill="none" stroke="midnightblue" d="M1797.21,-548.35C1813.65,-535.87 1845.02,-512.1 1871.82,-492 1921.39,-454.83 1979.97,-411.4 2009.95,-389.2"/>
<polygon fill="midnightblue" stroke="midnightblue" points="2012.34,-391.78 2018.3,-383.02 2008.18,-386.16 2012.34,-391.78"/>
</g>
<!-- Node34&#45;&gt;Node32 -->
<g id="edge60" class="edge">
<title>Node34&#45;&gt;Node32</title>
<path fill="none" stroke="midnightblue" d="M1837.08,-549.47C1891.34,-541.25 1979.4,-527.22 2054.82,-512 2056.27,-511.71 2057.76,-511.4 2059.25,-511.08"/>
<polygon fill="midnightblue" stroke="midnightblue" points="2060.16,-514.46 2069.16,-508.86 2058.63,-507.63 2060.16,-514.46"/>
</g>
<!-- Node35 -->
<g id="node31" class="node">
<title>Node35</title>
<g id="a_node31"><a xlink:title=" ">
<polygon fill="white" stroke="#bfbfbf" points="1880.82,-492.5 1880.82,-511.5 1936.82,-511.5 1936.82,-492.5 1880.82,-492.5"/>
<text text-anchor="middle" x="1908.82" y="-499.5" font-family="Helvetica,sans-Serif" font-size="10.00">numeric</text>
</a>
</g>
</g>
<!-- Node34&#45;&gt;Node35 -->
<g id="edge58" class="edge">
<title>Node34&#45;&gt;Node35</title>
<path fill="none" stroke="midnightblue" d="M1805.31,-548.44C1825.46,-539.6 1857.14,-525.69 1880.15,-515.59"/>
<polygon fill="midnightblue" stroke="midnightblue" points="1881.67,-518.74 1889.42,-511.52 1878.86,-512.33 1881.67,-518.74"/>
</g>
<!-- Node36 -->
<g id="node32" class="node">
<title>Node36</title>
<g id="a_node32"><a xlink:href="Matrix_8hpp.html" target="_top" xlink:title="Definition of the Matrix alias and closely related code.">
<polygon fill="white" stroke="black" points="1487.32,-492.5 1487.32,-511.5 1596.32,-511.5 1596.32,-492.5 1487.32,-492.5"/>
<text text-anchor="middle" x="1541.82" y="-499.5" font-family="Helvetica,sans-Serif" font-size="10.00">playrho/Matrix.hpp</text>
</a>
</g>
</g>
<!-- Node34&#45;&gt;Node36 -->
<g id="edge61" class="edge">
<title>Node34&#45;&gt;Node36</title>
<path fill="none" stroke="midnightblue" d="M1747.16,-548.44C1704.68,-539.04 1636.39,-523.93 1590.35,-513.74"/>
<polygon fill="midnightblue" stroke="midnightblue" points="1590.82,-510.26 1580.3,-511.52 1589.31,-517.09 1590.82,-510.26"/>
</g>
<!-- Node34&#45;&gt;Node37 -->
<g id="edge68" class="edge">
<title>Node34&#45;&gt;Node37</title>
<path fill="none" stroke="midnightblue" d="M1836.9,-552.81C1950.69,-543.47 2225.73,-520.9 2363.03,-509.63"/>
<polygon fill="midnightblue" stroke="midnightblue" points="2363.4,-513.11 2373.08,-508.81 2362.83,-506.14 2363.4,-513.11"/>
</g>
<!-- Node40 -->
<g id="node36" class="node">
<title>Node40</title>
<g id="a_node36"><a xlink:href="Span_8hpp.html" target="_top" xlink:title="Definition of the Span class template.">
<polygon fill="white" stroke="red" points="1818.32,-364 1818.32,-383 1919.32,-383 1919.32,-364 1818.32,-364"/>
<text text-anchor="middle" x="1868.82" y="-371" font-family="Helvetica,sans-Serif" font-size="10.00">playrho/Span.hpp</text>
</a>
</g>
</g>
<!-- Node34&#45;&gt;Node40 -->
<g id="edge78" class="edge">
<title>Node34&#45;&gt;Node40</title>
<path fill="none" stroke="midnightblue" d="M1791.19,-548.33C1801.67,-531.17 1825.21,-491.45 1840.82,-456 1850.12,-434.88 1858.37,-409.63 1863.47,-392.89"/>
<polygon fill="midnightblue" stroke="midnightblue" points="1866.84,-393.83 1866.34,-383.25 1860.13,-391.83 1866.84,-393.83"/>
</g>
<!-- Node42 -->
<g id="node37" class="node">
<title>Node42</title>
<g id="a_node37"><a xlink:href="Vector3_8hpp.html" target="_top" xlink:title="Definition of the Vector3 alias template and closely related code.">
<polygon fill="white" stroke="black" points="1544.82,-431 1544.82,-450 1658.82,-450 1658.82,-431 1544.82,-431"/>
<text text-anchor="middle" x="1601.82" y="-438" font-family="Helvetica,sans-Serif" font-size="10.00">playrho/Vector3.hpp</text>
</a>
</g>
</g>
<!-- Node34&#45;&gt;Node42 -->
<g id="edge87" class="edge">
<title>Node34&#45;&gt;Node42</title>
<path fill="none" stroke="midnightblue" d="M1778.23,-548.47C1765.96,-535.07 1740.53,-508.87 1714.82,-492 1690.14,-475.8 1659.41,-462.45 1636.23,-453.55"/>
<polygon fill="midnightblue" stroke="midnightblue" points="1637.39,-450.24 1626.79,-450.01 1634.93,-456.8 1637.39,-450.24"/>
</g>
<!-- Node36&#45;&gt;Node4 -->
<g id="edge67" class="edge">
<title>Node36&#45;&gt;Node4</title>
<path fill="none" stroke="midnightblue" d="M1487.08,-495.63C1342.05,-480.87 950.76,-437.6 830.82,-389 808.65,-380.02 808.99,-366.99 786.82,-358 776.59,-353.85 644.84,-333.94 564.43,-322.04"/>
<polygon fill="midnightblue" stroke="midnightblue" points="564.81,-318.56 554.41,-320.56 563.79,-325.48 564.81,-318.56"/>
</g>
<!-- Node36&#45;&gt;Node6 -->
<g id="edge63" class="edge">
<title>Node36&#45;&gt;Node6</title>
<path fill="none" stroke="midnightblue" d="M1519.42,-492.36C1502.55,-484.9 1479.85,-472.68 1464.82,-456 1399.85,-383.88 1374.82,-354.07 1374.82,-257 1374.82,-257 1374.82,-257 1374.82,-132 1374.82,-96.58 1371.91,-79.03 1398.82,-56 1435.75,-24.39 1576.74,-14.95 1650.01,-12.16"/>
<polygon fill="midnightblue" stroke="midnightblue" points="1650.44,-15.64 1660.31,-11.79 1650.19,-8.65 1650.44,-15.64"/>
</g>
<!-- Node36&#45;&gt;Node7 -->
<g id="edge66" class="edge">
<title>Node36&#45;&gt;Node7</title>
<path fill="none" stroke="midnightblue" d="M1495.82,-492.48C1464.45,-485.49 1422.63,-473.8 1388.82,-456 1257.99,-387.12 1256.2,-324.35 1130.82,-246 1106.17,-230.6 1076.05,-217 1053.73,-207.8"/>
<polygon fill="midnightblue" stroke="midnightblue" points="1054.95,-204.52 1044.37,-204.02 1052.33,-211.01 1054.95,-204.52"/>
</g>
<!-- Node36&#45;&gt;Node10 -->
<g id="edge62" class="edge">
<title>Node36&#45;&gt;Node10</title>
<path fill="none" stroke="midnightblue" d="M1596.43,-492.78C1598.25,-492.51 1600.05,-492.25 1601.82,-492 1719.92,-475.15 1751.19,-481.1 1867.82,-456 1969.82,-434.05 1994.4,-423.63 2092.82,-389 2127.23,-376.89 2133.36,-366.58 2168.82,-358 2257.5,-336.53 2516.2,-389.29 2577.82,-322 2684.08,-205.97 2038.04,-203.53 1892.82,-143 1857.75,-128.38 1821.25,-103.23 1799.8,-87.25"/>
<polygon fill="midnightblue" stroke="midnightblue" points="1801.67,-84.27 1791.58,-81.03 1797.44,-89.85 1801.67,-84.27"/>
</g>
<!-- Node36&#45;&gt;Node19 -->
<g id="edge65" class="edge">
<title>Node36&#45;&gt;Node19</title>
<path fill="none" stroke="midnightblue" d="M1487.29,-497.12C1339.98,-486.63 934.3,-457.76 773.12,-446.29"/>
<polygon fill="midnightblue" stroke="midnightblue" points="773.08,-442.78 762.86,-445.56 772.59,-449.76 773.08,-442.78"/>
</g>
<!-- Node36&#45;&gt;Node25 -->
<g id="edge64" class="edge">
<title>Node36&#45;&gt;Node25</title>
<path fill="none" stroke="midnightblue" d="M1596.45,-494.75C1650.67,-487.85 1735.85,-475.12 1807.82,-456 1878.9,-437.11 1959.21,-404.75 2001.02,-387.02"/>
<polygon fill="midnightblue" stroke="midnightblue" points="2002.49,-390.2 2010.31,-383.05 1999.74,-383.76 2002.49,-390.2"/>
</g>
<!-- Node37&#45;&gt;Node6 -->
<g id="edge69" class="edge">
<title>Node37&#45;&gt;Node6</title>
<path fill="none" stroke="midnightblue" d="M2512.62,-492.47C2561.61,-485.37 2628.62,-473.55 2685.82,-456 2718.74,-445.9 2725.03,-438.22 2756.82,-425 2796.98,-408.3 2812.03,-413.72 2847.82,-389 2886.68,-362.16 2935.03,-341.28 2908.82,-302 2748.09,-61.15 2568.39,-178.95 2293.82,-87 2257.27,-74.76 2250.39,-64.64 2212.82,-56 2041.25,-16.54 1830.46,-11.08 1739.78,-10.73"/>
<polygon fill="midnightblue" stroke="midnightblue" points="1739.59,-7.23 1729.58,-10.71 1739.57,-14.23 1739.59,-7.23"/>
</g>
<!-- Node38 -->
<g id="node34" class="node">
<title>Node38</title>
<g id="a_node34"><a xlink:href="Checked_8hpp.html" target="_top" xlink:title="Declarations of the Checked class template and closely related code.">
<polygon fill="white" stroke="black" points="2419.32,-364 2419.32,-383 2568.32,-383 2568.32,-364 2419.32,-364"/>
<text text-anchor="middle" x="2493.82" y="-371" font-family="Helvetica,sans-Serif" font-size="10.00">playrho/detail/Checked.hpp</text>
</a>
</g>
</g>
<!-- Node37&#45;&gt;Node38 -->
<g id="edge70" class="edge">
<title>Node37&#45;&gt;Node38</title>
<path fill="none" stroke="midnightblue" d="M2447.26,-492.31C2455.32,-471.9 2475.6,-420.6 2486.54,-392.91"/>
<polygon fill="midnightblue" stroke="midnightblue" points="2489.94,-393.84 2490.36,-383.26 2483.43,-391.27 2489.94,-393.84"/>
</g>
<!-- Node39 -->
<g id="node35" class="node">
<title>Node39</title>
<g id="a_node35"><a xlink:href="NonNegativeChecker_8hpp.html" target="_top" xlink:title="Definition of the NonNegativeChecker class template.">
<polygon fill="white" stroke="black" points="2525.32,-425.5 2525.32,-455.5 2676.32,-455.5 2676.32,-425.5 2525.32,-425.5"/>
<text text-anchor="start" x="2533.32" y="-443.5" font-family="Helvetica,sans-Serif" font-size="10.00">playrho/detail/NonNegative</text>
<text text-anchor="middle" x="2600.82" y="-432.5" font-family="Helvetica,sans-Serif" font-size="10.00">Checker.hpp</text>
</a>
</g>
</g>
<!-- Node37&#45;&gt;Node39 -->
<g id="edge76" class="edge">
<title>Node37&#45;&gt;Node39</title>
<path fill="none" stroke="midnightblue" d="M2466.31,-492.48C2489.17,-483.81 2525.23,-470.15 2554.27,-459.14"/>
<polygon fill="midnightblue" stroke="midnightblue" points="2555.71,-462.34 2563.82,-455.52 2553.23,-455.79 2555.71,-462.34"/>
</g>
<!-- Node38&#45;&gt;Node6 -->
<g id="edge72" class="edge">
<title>Node38&#45;&gt;Node6</title>
<path fill="none" stroke="midnightblue" d="M2568.38,-372.42C2641.51,-369.33 2737.49,-355.45 2703.82,-302 2673.09,-253.22 2640.47,-267.09 2586.82,-246 2443.82,-189.8 2401.81,-193.84 2256.82,-143 2156.43,-107.8 2136.85,-82.52 2033.82,-56 1930.4,-29.37 1804.95,-17.95 1739.48,-13.51"/>
<polygon fill="midnightblue" stroke="midnightblue" points="1739.71,-10.02 1729.5,-12.85 1739.25,-17 1739.71,-10.02"/>
</g>
<!-- Node38&#45;&gt;Node9 -->
<g id="edge75" class="edge">
<title>Node38&#45;&gt;Node9</title>
<path fill="none" stroke="midnightblue" d="M2568.59,-368.52C2637.27,-362.12 2723.14,-345.42 2685.82,-302 2618.21,-223.33 1892.67,-158.88 1655.42,-139.77"/>
<polygon fill="midnightblue" stroke="midnightblue" points="1655.41,-136.26 1645.17,-138.95 1654.85,-143.24 1655.41,-136.26"/>
</g>
<!-- Node38&#45;&gt;Node15 -->
<g id="edge73" class="edge">
<title>Node38&#45;&gt;Node15</title>
<path fill="none" stroke="midnightblue" d="M2568.58,-366.31C2636.08,-359.3 2728.94,-345.64 2756.82,-322 2780.31,-302.08 2780.82,-287.8 2780.82,-257 2780.82,-257 2780.82,-257 2780.82,-193.5 2780.82,-133.5 2772.67,-62.77 2768.38,-29.74"/>
<polygon fill="midnightblue" stroke="midnightblue" points="2771.84,-29.17 2767.05,-19.72 2764.9,-30.09 2771.84,-29.17"/>
</g>
<!-- Node38&#45;&gt;Node27 -->
<g id="edge71" class="edge">
<title>Node38&#45;&gt;Node27</title>
<path fill="none" stroke="midnightblue" d="M2491.67,-363.98C2489.53,-355.49 2486.18,-342.2 2483.44,-331.32"/>
<polygon fill="midnightblue" stroke="midnightblue" points="2486.8,-330.35 2480.97,-321.51 2480.02,-332.06 2486.8,-330.35"/>
</g>
<!-- Node38&#45;&gt;Node29 -->
<g id="edge74" class="edge">
<title>Node38&#45;&gt;Node29</title>
<path fill="none" stroke="midnightblue" d="M2457.14,-363.98C2411.61,-353.39 2333.92,-335.34 2284.27,-323.8"/>
<polygon fill="midnightblue" stroke="midnightblue" points="2284.96,-320.36 2274.43,-321.51 2283.38,-327.18 2284.96,-320.36"/>
</g>
<!-- Node40&#45;&gt;Node2 -->
<g id="edge80" class="edge">
<title>Node40&#45;&gt;Node2</title>
<path fill="none" stroke="midnightblue" d="M1919.33,-364.24C1934.85,-361.94 1952.01,-359.62 1967.82,-358 2237.99,-330.3 2307.36,-346.63 2577.82,-322 2589.7,-320.92 2602.63,-319.43 2614.26,-317.97"/>
<polygon fill="midnightblue" stroke="midnightblue" points="2615.04,-321.4 2624.51,-316.65 2614.14,-314.46 2615.04,-321.4"/>
</g>
<!-- Node40&#45;&gt;Node6 -->
<g id="edge81" class="edge">
<title>Node40&#45;&gt;Node6</title>
<path fill="none" stroke="midnightblue" d="M1876.33,-363.76C1909.96,-323.52 2041.54,-154.01 1958.82,-56 1931.32,-23.41 1807.68,-14.42 1739.8,-11.94"/>
<polygon fill="midnightblue" stroke="midnightblue" points="1739.52,-8.43 1729.41,-11.6 1739.29,-15.43 1739.52,-8.43"/>
</g>
<!-- Node40&#45;&gt;Node9 -->
<g id="edge83" class="edge">
<title>Node40&#45;&gt;Node9</title>
<path fill="none" stroke="midnightblue" d="M1858.23,-363.73C1815.27,-328.15 1653.69,-194.34 1599.02,-149.08"/>
<polygon fill="midnightblue" stroke="midnightblue" points="1601.14,-146.28 1591.2,-142.6 1596.67,-151.67 1601.14,-146.28"/>
</g>
<!-- Node40&#45;&gt;Node15 -->
<g id="edge82" class="edge">
<title>Node40&#45;&gt;Node15</title>
<path fill="none" stroke="midnightblue" d="M1884.35,-363.95C1909.15,-350.37 1959.37,-323.25 2002.82,-302 2062.32,-272.9 2482.81,-76.43 2545.82,-56 2610.74,-34.95 2689.75,-21.64 2733.22,-15.34"/>
<polygon fill="midnightblue" stroke="midnightblue" points="2733.81,-18.79 2743.22,-13.92 2732.83,-11.86 2733.81,-18.79"/>
</g>
<!-- Node40&#45;&gt;Node26 -->
<g id="edge79" class="edge">
<title>Node40&#45;&gt;Node26</title>
<path fill="none" stroke="midnightblue" d="M1893.03,-363.98C1922.15,-353.72 1971.19,-336.46 2004.02,-324.9"/>
<polygon fill="midnightblue" stroke="midnightblue" points="2005.38,-328.13 2013.65,-321.51 2003.06,-321.53 2005.38,-328.13"/>
</g>
<!-- Node42&#45;&gt;Node7 -->
<g id="edge88" class="edge">
<title>Node42&#45;&gt;Node7</title>
<path fill="none" stroke="midnightblue" d="M1589.53,-430.83C1538.42,-394.82 1343.93,-258.46 1312.82,-246 1236.55,-215.46 1141.75,-203.36 1081.5,-198.59"/>
<polygon fill="midnightblue" stroke="midnightblue" points="1081.64,-195.09 1071.4,-197.83 1081.11,-202.07 1081.64,-195.09"/>
</g>
<!-- Node42&#45;&gt;Node20 -->
<g id="edge89" class="edge">
<title>Node42&#45;&gt;Node20</title>
<path fill="none" stroke="midnightblue" d="M1564.38,-430.97C1553.6,-428.75 1541.78,-426.55 1530.82,-425 1326.85,-396.14 1083.39,-382.51 966.76,-377.25"/>
<polygon fill="midnightblue" stroke="midnightblue" points="966.7,-373.74 956.55,-376.79 966.39,-380.73 966.7,-373.74"/>
</g>
<!-- Node42&#45;&gt;Node25 -->
<g id="edge90" class="edge">
<title>Node42&#45;&gt;Node25</title>
<path fill="none" stroke="midnightblue" d="M1638.93,-430.95C1648.63,-428.85 1659.09,-426.72 1668.82,-425 1783.69,-404.65 1813.3,-405.29 1928.82,-389 1940.81,-387.31 1953.6,-385.49 1965.91,-383.73"/>
<polygon fill="midnightblue" stroke="midnightblue" points="1966.7,-387.15 1976.1,-382.26 1965.7,-380.22 1966.7,-387.15"/>
</g>
<!-- Node43&#45;&gt;Node20 -->
<g id="edge97" class="edge">
<title>Node43&#45;&gt;Node20</title>
<path fill="none" stroke="midnightblue" d="M2135.81,-548.33C2138.47,-534.24 2141.23,-506.49 2125.82,-492 2077.97,-447.01 1601.21,-462.16 1535.82,-456 1326.74,-436.29 1080.52,-401.55 964.58,-384.51"/>
<polygon fill="midnightblue" stroke="midnightblue" points="964.84,-381.01 954.44,-383.01 963.82,-387.93 964.84,-381.01"/>
</g>
<!-- Node44 -->
<g id="node39" class="node">
<title>Node44</title>
<g id="a_node39"><a xlink:href="IndexingNamedType_8hpp.html" target="_top" xlink:title="Definition of IndexingNamedType class template and related code.">
<polygon fill="white" stroke="red" points="2554.82,-56.5 2554.82,-86.5 2718.82,-86.5 2718.82,-56.5 2554.82,-56.5"/>
<text text-anchor="start" x="2562.82" y="-74.5" font-family="Helvetica,sans-Serif" font-size="10.00">playrho/detail/IndexingNamed</text>
<text text-anchor="middle" x="2636.82" y="-63.5" font-family="Helvetica,sans-Serif" font-size="10.00">Type.hpp</text>
</a>
</g>
</g>
<!-- Node43&#45;&gt;Node44 -->
<g id="edge94" class="edge">
<title>Node43&#45;&gt;Node44</title>
<path fill="none" stroke="midnightblue" d="M2193.17,-556C2400.03,-551.73 3076.82,-530.93 3076.82,-441.5 3076.82,-441.5 3076.82,-441.5 3076.82,-372.5 3076.82,-200.57 2844.64,-120.12 2717.6,-88.97"/>
<polygon fill="midnightblue" stroke="midnightblue" points="2718.05,-85.48 2707.51,-86.55 2716.42,-92.29 2718.05,-85.48"/>
</g>
<!-- Node44&#45;&gt;Node6 -->
<g id="edge96" class="edge">
<title>Node44&#45;&gt;Node6</title>
<path fill="none" stroke="midnightblue" d="M2554.46,-62.88C2527.5,-60.51 2497.39,-58 2469.82,-56 2192.54,-35.92 1858.93,-18.98 1739.8,-13.16"/>
<polygon fill="midnightblue" stroke="midnightblue" points="1739.76,-9.65 1729.6,-12.66 1739.42,-16.65 1739.76,-9.65"/>
</g>
<!-- Node44&#45;&gt;Node15 -->
<g id="edge95" class="edge">
<title>Node44&#45;&gt;Node15</title>
<path fill="none" stroke="midnightblue" d="M2667.39,-56.4C2688.75,-46.55 2717.04,-33.5 2737.8,-23.92"/>
<polygon fill="midnightblue" stroke="midnightblue" points="2739.43,-27.02 2747.05,-19.66 2736.5,-20.67 2739.43,-27.02"/>
</g>
<!-- Node45&#45;&gt;Node6 -->
<g id="edge101" class="edge">
<title>Node45&#45;&gt;Node6</title>
<path fill="none" stroke="midnightblue" d="M2101.15,-430.98C2051.2,-422.7 1985.8,-408.52 1967.82,-389 1927.48,-345.2 1944.82,-316.55 1944.82,-257 1944.82,-257 1944.82,-257 1944.82,-132 1944.82,-41.92 1811.69,-18.88 1739.73,-13"/>
<polygon fill="midnightblue" stroke="midnightblue" points="1739.81,-9.49 1729.58,-12.25 1739.3,-16.48 1739.81,-9.49"/>
</g>
<!-- Node45&#45;&gt;Node38 -->
<g id="edge102" class="edge">
<title>Node45&#45;&gt;Node38</title>
<path fill="none" stroke="midnightblue" d="M2205.56,-430.94C2265.98,-419.11 2374.89,-397.78 2440.16,-385.01"/>
<polygon fill="midnightblue" stroke="midnightblue" points="2441.1,-388.39 2450.24,-383.03 2439.76,-381.52 2441.1,-388.39"/>
</g>
<!-- Node46 -->
<g id="node41" class="node">
<title>Node46</title>
<g id="a_node41"><a xlink:href="ZeroToUnderOneChecker_8hpp.html" target="_top" xlink:title="Definition of the ZeroToUnderOneChecker class template.">
<polygon fill="white" stroke="black" points="2177.32,-358.5 2177.32,-388.5 2326.32,-388.5 2326.32,-358.5 2177.32,-358.5"/>
<text text-anchor="start" x="2185.32" y="-376.5" font-family="Helvetica,sans-Serif" font-size="10.00">playrho/detail/ZeroToUnder</text>
<text text-anchor="middle" x="2251.82" y="-365.5" font-family="Helvetica,sans-Serif" font-size="10.00">OneChecker.hpp</text>
</a>
</g>
</g>
<!-- Node45&#45;&gt;Node46 -->
<g id="edge103" class="edge">
<title>Node45&#45;&gt;Node46</title>
<path fill="none" stroke="midnightblue" d="M2173.96,-430.73C2186.71,-421.53 2207.19,-406.73 2223.95,-394.63"/>
<polygon fill="midnightblue" stroke="midnightblue" points="2226.25,-397.28 2232.31,-388.59 2222.16,-391.61 2226.25,-397.28"/>
</g>
<!-- Node47&#45;&gt;Node4 -->
<g id="edge107" class="edge">
<title>Node47&#45;&gt;Node4</title>
<path fill="none" stroke="midnightblue" d="M262.92,-492.24C277.69,-467.58 323.04,-396.84 378.82,-358 401.45,-342.24 430.22,-331.35 454.36,-324.24"/>
<polygon fill="midnightblue" stroke="midnightblue" points="455.36,-327.59 464.04,-321.51 453.46,-320.85 455.36,-327.59"/>
</g>
<!-- Node47&#45;&gt;Node7 -->
<g id="edge105" class="edge">
<title>Node47&#45;&gt;Node7</title>
<path fill="none" stroke="midnightblue" d="M259.61,-492.14C262.82,-477.5 270.38,-447.64 282.82,-425 334.22,-331.49 346.85,-292.64 442.82,-246 488.69,-223.71 823.28,-205.13 961.91,-198.3"/>
<polygon fill="midnightblue" stroke="midnightblue" points="962.13,-201.79 971.94,-197.81 961.78,-194.8 962.13,-201.79"/>
</g>
<!-- Node47&#45;&gt;Node9 -->
<g id="edge106" class="edge">
<title>Node47&#45;&gt;Node9</title>
<path fill="none" stroke="midnightblue" d="M273.31,-492.4C318.57,-467.15 454.36,-390.73 563.82,-322 615.08,-289.82 621.33,-270.16 676.82,-246 736.87,-219.85 899.07,-188.86 963.82,-179 1158.1,-149.42 1389.87,-139.14 1506.28,-135.68"/>
<polygon fill="midnightblue" stroke="midnightblue" points="1506.6,-139.17 1516.5,-135.38 1506.4,-132.17 1506.6,-139.17"/>
</g>
<!-- Node47&#45;&gt;Node19 -->
<g id="edge108" class="edge">
<title>Node47&#45;&gt;Node19</title>
<path fill="none" stroke="midnightblue" d="M322.18,-492.46C390.37,-483.42 501.18,-468.71 596.82,-456 610.37,-454.2 624.87,-452.27 638.73,-450.43"/>
<polygon fill="midnightblue" stroke="midnightblue" points="639.23,-453.89 648.68,-449.1 638.31,-446.95 639.23,-453.89"/>
</g>
<!-- Node48&#45;&gt;Node4 -->
<g id="edge124" class="edge">
<title>Node48&#45;&gt;Node4</title>
<path fill="none" stroke="midnightblue" d="M1075.14,-611.49C968.05,-608.22 768.69,-598.18 704.82,-568 603.95,-520.33 586.39,-484.57 528.82,-389 517.95,-370.95 510.85,-347.72 506.86,-331.72"/>
<polygon fill="midnightblue" stroke="midnightblue" points="510.26,-330.9 504.59,-321.96 503.44,-332.49 510.26,-330.9"/>
</g>
<!-- Node48&#45;&gt;Node6 -->
<g id="edge111" class="edge">
<title>Node48&#45;&gt;Node6</title>
<path fill="none" stroke="midnightblue" d="M1075.06,-613.09C875.96,-612.23 309.17,-601.76 150.82,-512 82.25,-473.13 38.82,-453.32 38.82,-374.5 38.82,-374.5 38.82,-374.5 38.82,-132 38.82,-80.32 78.65,-74.71 126.82,-56 199.63,-27.72 1401.59,-13.98 1650.09,-11.44"/>
<polygon fill="midnightblue" stroke="midnightblue" points="1650.23,-14.94 1660.2,-11.34 1650.16,-7.94 1650.23,-14.94"/>
</g>
<!-- Node48&#45;&gt;Node7 -->
<g id="edge121" class="edge">
<title>Node48&#45;&gt;Node7</title>
<path fill="none" stroke="midnightblue" d="M1140.55,-604.26C1132.23,-586.97 1113.63,-547.04 1101.82,-512 1064.46,-401.13 1035.34,-263.28 1025.46,-214.04"/>
<polygon fill="midnightblue" stroke="midnightblue" points="1028.88,-213.33 1023.5,-204.2 1022.02,-214.69 1028.88,-213.33"/>
</g>
<!-- Node48&#45;&gt;Node10 -->
<g id="edge110" class="edge">
<title>Node48&#45;&gt;Node10</title>
<path fill="none" stroke="midnightblue" d="M1151.84,-604.11C1162.3,-591.13 1182.86,-566.52 1202.82,-548 1222.11,-530.1 1229.24,-528.39 1249.82,-512 1454.08,-349.33 1695.91,-144.67 1762.87,-87.77"/>
<polygon fill="midnightblue" stroke="midnightblue" points="1765.46,-90.17 1770.81,-81.02 1760.93,-84.83 1765.46,-90.17"/>
</g>
<!-- Node48&#45;&gt;Node19 -->
<g id="edge125" class="edge">
<title>Node48&#45;&gt;Node19</title>
<path fill="none" stroke="midnightblue" d="M1075.21,-610.21C961.87,-604.99 747.54,-592.05 722.82,-568 693.93,-539.89 697.51,-487.84 702.01,-460.08"/>
<polygon fill="midnightblue" stroke="midnightblue" points="705.48,-460.58 703.84,-450.11 698.59,-459.32 705.48,-460.58"/>
</g>
<!-- Node48&#45;&gt;Node33 -->
<g id="edge119" class="edge">
<title>Node48&#45;&gt;Node33</title>
<path fill="none" stroke="midnightblue" d="M1183.32,-604.44C1225.63,-595.04 1293.64,-579.93 1339.49,-569.74"/>
<polygon fill="midnightblue" stroke="midnightblue" points="1340.49,-573.1 1349.5,-567.52 1338.97,-566.27 1340.49,-573.1"/>
</g>
<!-- Node48&#45;&gt;Node37 -->
<g id="edge120" class="edge">
<title>Node48&#45;&gt;Node37</title>
<path fill="none" stroke="midnightblue" d="M1214.54,-609.55C1340.65,-603.07 1614.97,-587.95 1845.82,-568 2031.9,-551.92 2249.86,-526.58 2364.33,-512.77"/>
<polygon fill="midnightblue" stroke="midnightblue" points="2364.9,-516.23 2374.4,-511.55 2364.06,-509.28 2364.9,-516.23"/>
</g>
<!-- Node48&#45;&gt;Node40 -->
<g id="edge123" class="edge">
<title>Node48&#45;&gt;Node40</title>
<path fill="none" stroke="midnightblue" d="M1163.44,-604.28C1194.5,-590.11 1259.18,-562.26 1316.82,-548 1532.34,-494.66 1624.5,-581.24 1807.82,-456 1831.82,-439.6 1850.16,-410.64 1860.2,-392.03"/>
<polygon fill="midnightblue" stroke="midnightblue" points="1863.32,-393.61 1864.8,-383.12 1857.1,-390.4 1863.32,-393.61"/>
</g>
<!-- Node48&#45;&gt;Node43 -->
<g id="edge122" class="edge">
<title>Node48&#45;&gt;Node43</title>
<path fill="none" stroke="midnightblue" d="M1214.52,-609.43C1358.47,-602.01 1699.04,-584.29 1984.82,-568 2010.86,-566.52 2039.45,-564.81 2064.56,-563.28"/>
<polygon fill="midnightblue" stroke="midnightblue" points="2064.96,-566.76 2074.73,-562.66 2064.54,-559.78 2064.96,-566.76"/>
</g>
<!-- Node49 -->
<g id="node44" class="node">
<title>Node49</title>
<g id="a_node44"><a xlink:href="ArrayList_8hpp.html" target="_top" xlink:title="Definition of the ArrayList class and closely related functions.">
<polygon fill="white" stroke="red" points="1677.32,-431 1677.32,-450 1798.32,-450 1798.32,-431 1677.32,-431"/>
<text text-anchor="middle" x="1737.82" y="-438" font-family="Helvetica,sans-Serif" font-size="10.00">playrho/ArrayList.hpp</text>
</a>
</g>
</g>
<!-- Node48&#45;&gt;Node49 -->
<g id="edge112" class="edge">
<title>Node48&#45;&gt;Node49</title>
<path fill="none" stroke="midnightblue" d="M1155.22,-604.49C1172.68,-590.62 1209.43,-563.2 1244.82,-548 1421.6,-472.08 1479.12,-493.51 1667.82,-456 1674.05,-454.76 1680.59,-453.44 1687.06,-452.11"/>
<polygon fill="midnightblue" stroke="midnightblue" points="1688.04,-455.49 1697.13,-450.04 1686.63,-448.63 1688.04,-455.49"/>
</g>
<!-- Node48&#45;&gt;Node52 -->
<g id="edge126" class="edge">
<title>Node48&#45;&gt;Node52</title>
<path fill="none" stroke="midnightblue" d="M1075.18,-612.64C943.65,-611.12 663.93,-603.65 574.82,-568 548.46,-557.46 524.05,-535.02 509.3,-519.48"/>
<polygon fill="midnightblue" stroke="midnightblue" points="511.48,-516.68 502.14,-511.68 506.32,-521.41 511.48,-516.68"/>
</g>
<!-- Node48&#45;&gt;Node53 -->
<g id="edge132" class="edge">
<title>Node48&#45;&gt;Node53</title>
<path fill="none" stroke="midnightblue" d="M1089.2,-604.44C1026.69,-594.83 925.3,-579.23 859.09,-569.04"/>
<polygon fill="midnightblue" stroke="midnightblue" points="859.59,-565.58 849.18,-567.52 858.53,-572.5 859.59,-565.58"/>
</g>
<!-- Node48&#45;&gt;Node54 -->
<g id="edge139" class="edge">
<title>Node48&#45;&gt;Node54</title>
<path fill="none" stroke="midnightblue" d="M1121.21,-604.44C1096.36,-595.44 1057.05,-581.19 1029.07,-571.05"/>
<polygon fill="midnightblue" stroke="midnightblue" points="1029.91,-567.63 1019.32,-567.52 1027.53,-574.21 1029.91,-567.63"/>
</g>
<!-- Node48&#45;&gt;Node56 -->
<g id="edge154" class="edge">
<title>Node48&#45;&gt;Node56</title>
<path fill="none" stroke="midnightblue" d="M1147.25,-604.37C1152.28,-586.54 1163.9,-545.3 1170.67,-521.27"/>
<polygon fill="midnightblue" stroke="midnightblue" points="1174.05,-522.17 1173.4,-511.59 1167.32,-520.27 1174.05,-522.17"/>
</g>
<!-- Node49&#45;&gt;Node2 -->
<g id="edge113" class="edge">
<title>Node49&#45;&gt;Node2</title>
<path fill="none" stroke="midnightblue" d="M1798.4,-435.44C1869.81,-429.61 1991.57,-416.4 2092.82,-389 2128.03,-379.47 2133.36,-366.58 2168.82,-358 2346.18,-315.06 2396.35,-341.17 2577.82,-322 2589.68,-320.75 2602.61,-319.21 2614.24,-317.76"/>
<polygon fill="midnightblue" stroke="midnightblue" points="2615.01,-321.19 2624.49,-316.47 2614.13,-314.25 2615.01,-321.19"/>
</g>
<!-- Node49&#45;&gt;Node6 -->
<g id="edge115" class="edge">
<title>Node49&#45;&gt;Node6</title>
<path fill="none" stroke="midnightblue" d="M1691.65,-430.94C1664.53,-423.8 1631.28,-411.09 1608.82,-389 1524.56,-306.12 1530.7,-258.95 1507.82,-143 1494.08,-73.34 1590.6,-36.62 1650.17,-20.79"/>
<polygon fill="midnightblue" stroke="midnightblue" points="1651.29,-24.12 1660.11,-18.25 1649.56,-17.34 1651.29,-24.12"/>
</g>
<!-- Node49&#45;&gt;Node9 -->
<g id="edge118" class="edge">
<title>Node49&#45;&gt;Node9</title>
<path fill="none" stroke="midnightblue" d="M1697,-430.96C1672.95,-423.79 1643.98,-411.06 1626.82,-389 1597.93,-351.86 1585.54,-205.16 1581.97,-152.74"/>
<polygon fill="midnightblue" stroke="midnightblue" points="1585.45,-152.31 1581.31,-142.55 1578.47,-152.76 1585.45,-152.31"/>
</g>
<!-- Node49&#45;&gt;Node10 -->
<g id="edge114" class="edge">
<title>Node49&#45;&gt;Node10</title>
<path fill="none" stroke="midnightblue" d="M1713.53,-430.92C1695.4,-423.07 1671.91,-409.54 1660.82,-389 1654.27,-376.88 1658.1,-371.51 1660.82,-358 1682.41,-250.92 1745.32,-133.98 1770.36,-90.27"/>
<polygon fill="midnightblue" stroke="midnightblue" points="1773.49,-91.84 1775.48,-81.43 1767.44,-88.33 1773.49,-91.84"/>
</g>
<!-- Node49&#45;&gt;Node15 -->
<g id="edge116" class="edge">
<title>Node49&#45;&gt;Node15</title>
<path fill="none" stroke="midnightblue" d="M1798.58,-436.77C1978.72,-428.54 2502.02,-403.65 2577.82,-389 2670.27,-371.13 2714.26,-390.55 2778.82,-322 2859.91,-235.89 2816.72,-170.43 2786.82,-56 2784.34,-46.51 2779.92,-36.57 2775.77,-28.45"/>
<polygon fill="midnightblue" stroke="midnightblue" points="2778.82,-26.74 2770.99,-19.61 2772.67,-30.07 2778.82,-26.74"/>
</g>
<!-- Node49&#45;&gt;Node40 -->
<g id="edge117" class="edge">
<title>Node49&#45;&gt;Node40</title>
<path fill="none" stroke="midnightblue" d="M1755.22,-430.87C1777.43,-419.84 1816.11,-400.66 1842.08,-387.77"/>
<polygon fill="midnightblue" stroke="midnightblue" points="1843.95,-390.75 1851.35,-383.17 1840.84,-384.48 1843.95,-390.75"/>
</g>
<!-- Node52&#45;&gt;Node4 -->
<g id="edge130" class="edge">
<title>Node52&#45;&gt;Node4</title>
<path fill="none" stroke="midnightblue" d="M493.95,-492.26C491.89,-469.86 487.27,-408.6 492.82,-358 493.79,-349.14 495.81,-339.47 497.78,-331.38"/>
<polygon fill="midnightblue" stroke="midnightblue" points="501.21,-332.09 500.34,-321.53 494.44,-330.33 501.21,-332.09"/>
</g>
<!-- Node52&#45;&gt;Node6 -->
<g id="edge127" class="edge">
<title>Node52&#45;&gt;Node6</title>
<path fill="none" stroke="midnightblue" d="M429.06,-497.58C320.3,-488 114.82,-451.56 114.82,-313 114.82,-313 114.82,-313 114.82,-132 114.82,-39.4 218.12,-74.66 308.82,-56 442.51,-28.49 1426.96,-14.41 1649.98,-11.55"/>
<polygon fill="midnightblue" stroke="midnightblue" points="1650.07,-15.05 1660.02,-11.42 1649.98,-8.05 1650.07,-15.05"/>
</g>
<!-- Node52&#45;&gt;Node7 -->
<g id="edge128" class="edge">
<title>Node52&#45;&gt;Node7</title>
<path fill="none" stroke="midnightblue" d="M490.44,-492.36C477.88,-467.03 441.85,-390.38 429.82,-322 422.9,-282.65 442.34,-264.36 477.82,-246 520.01,-224.18 829.28,-205.58 961.81,-198.53"/>
<polygon fill="midnightblue" stroke="midnightblue" points="962.38,-202 972.18,-197.98 962.01,-195.01 962.38,-202"/>
</g>
<!-- Node52&#45;&gt;Node9 -->
<g id="edge129" class="edge">
<title>Node52&#45;&gt;Node9</title>
<path fill="none" stroke="midnightblue" d="M517.77,-492.48C538.89,-484.26 570.79,-470.91 596.82,-456 617.26,-444.29 617.83,-433.46 639.82,-425 775.87,-372.65 828.92,-439.07 965.82,-389 1072.91,-349.84 1075.25,-293.69 1178.82,-246 1294.47,-192.75 1440.78,-159.83 1521.15,-144.42"/>
<polygon fill="midnightblue" stroke="midnightblue" points="1521.92,-147.84 1531.09,-142.54 1520.62,-140.96 1521.92,-147.84"/>
</g>
<!-- Node52&#45;&gt;Node19 -->
<g id="edge131" class="edge">
<title>Node52&#45;&gt;Node19</title>
<path fill="none" stroke="midnightblue" d="M525.05,-492.48C562.11,-482.03 625.01,-464.29 665.98,-452.73"/>
<polygon fill="midnightblue" stroke="midnightblue" points="666.97,-456.09 675.64,-450.01 665.07,-449.35 666.97,-456.09"/>
</g>
<!-- Node53&#45;&gt;Node4 -->
<g id="edge135" class="edge">
<title>Node53&#45;&gt;Node4</title>
<path fill="none" stroke="midnightblue" d="M777.67,-548.39C737.13,-526.19 629.28,-463.53 558.82,-389 541.31,-370.48 524.41,-346.42 513.84,-330.38"/>
<polygon fill="midnightblue" stroke="midnightblue" points="516.77,-328.46 508.39,-321.97 510.89,-332.27 516.77,-328.46"/>
</g>
<!-- Node53&#45;&gt;Node7 -->
<g id="edge133" class="edge">
<title>Node53&#45;&gt;Node7</title>
<path fill="none" stroke="midnightblue" d="M793.49,-548.38C792.43,-526.9 788.15,-469.49 771.82,-425 740.78,-340.45 617.93,-314.14 676.82,-246 695.18,-224.76 868.16,-207.78 961.98,-200.04"/>
<polygon fill="midnightblue" stroke="midnightblue" points="962.5,-203.51 972.19,-199.21 961.93,-196.53 962.5,-203.51"/>
</g>
<!-- Node53&#45;&gt;Node9 -->
<g id="edge134" class="edge">
<title>Node53&#45;&gt;Node9</title>
<path fill="none" stroke="midnightblue" d="M809.25,-548.49C884.11,-507.21 1217.17,-323.98 1492.82,-179 1513.58,-168.08 1537.26,-155.99 1554.82,-147.1"/>
<polygon fill="midnightblue" stroke="midnightblue" points="1556.55,-150.15 1563.89,-142.51 1553.39,-143.9 1556.55,-150.15"/>
</g>
<!-- Node53&#45;&gt;Node19 -->
<g id="edge136" class="edge">
<title>Node53&#45;&gt;Node19</title>
<path fill="none" stroke="midnightblue" d="M787.21,-548.32C772.68,-529.26 737.78,-483.45 718.74,-458.46"/>
<polygon fill="midnightblue" stroke="midnightblue" points="721.36,-456.12 712.51,-450.28 715.79,-460.36 721.36,-456.12"/>
</g>
<!-- Node53&#45;&gt;Node45 -->
<g id="edge137" class="edge">
<title>Node53&#45;&gt;Node45</title>
<path fill="none" stroke="midnightblue" d="M856.33,-551.55C871.84,-550.29 888.43,-549.02 903.82,-548 1215.54,-527.26 1294.64,-539.67 1605.82,-512 1783.33,-496.22 1991.43,-466.93 2095.5,-451.54"/>
<polygon fill="midnightblue" stroke="midnightblue" points="2096.16,-454.98 2105.54,-450.05 2095.14,-448.06 2096.16,-454.98"/>
</g>
<!-- Node53&#45;&gt;Node52 -->
<g id="edge138" class="edge">
<title>Node53&#45;&gt;Node52</title>
<path fill="none" stroke="midnightblue" d="M746.44,-548.44C693.74,-538.92 608.59,-523.55 552.16,-513.36"/>
<polygon fill="midnightblue" stroke="midnightblue" points="552.44,-509.85 541.98,-511.52 551.19,-516.74 552.44,-509.85"/>
</g>
<!-- Node54&#45;&gt;Node19 -->
<g id="edge141" class="edge">
<title>Node54&#45;&gt;Node19</title>
<path fill="none" stroke="midnightblue" d="M972.9,-548.34C949.27,-539.37 911.4,-524.9 878.82,-512 828.6,-492.11 770.49,-468.26 736.02,-454.02"/>
<polygon fill="midnightblue" stroke="midnightblue" points="737.12,-450.68 726.54,-450.1 734.44,-457.15 737.12,-450.68"/>
</g>
<!-- Node54&#45;&gt;Node20 -->
<g id="edge140" class="edge">
<title>Node54&#45;&gt;Node20</title>
<path fill="none" stroke="midnightblue" d="M991.09,-548.2C975.86,-519.83 927.86,-430.44 907.31,-392.17"/>
<polygon fill="midnightblue" stroke="midnightblue" points="910.31,-390.37 902.5,-383.21 904.15,-393.68 910.31,-390.37"/>
</g>
<!-- Node54&#45;&gt;Node55 -->
<g id="edge142" class="edge">
<title>Node54&#45;&gt;Node55</title>
<path fill="none" stroke="midnightblue" d="M1006.85,-548.31C1025.37,-534.19 1064.34,-506.4 1101.82,-492 1294.19,-418.09 1537.81,-389.69 1659.07,-379.59"/>
<polygon fill="midnightblue" stroke="midnightblue" points="1659.68,-383.05 1669.36,-378.75 1659.11,-376.08 1659.68,-383.05"/>
</g>
<!-- Node55&#45;&gt;Node2 -->
<g id="edge143" class="edge">
<title>Node55&#45;&gt;Node2</title>
<path fill="none" stroke="midnightblue" d="M1773.19,-363.98C1784.9,-361.68 1797.84,-359.43 1809.82,-358 2149.12,-317.46 2237.34,-350.93 2577.82,-322 2589.7,-320.99 2602.64,-319.52 2614.27,-318.06"/>
<polygon fill="midnightblue" stroke="midnightblue" points="2615.05,-321.49 2624.51,-316.73 2614.15,-314.54 2615.05,-321.49"/>
</g>
<!-- Node55&#45;&gt;Node4 -->
<g id="edge153" class="edge">
<title>Node55&#45;&gt;Node4</title>
<path fill="none" stroke="midnightblue" d="M1669.45,-369.34C1454.94,-358.98 774.22,-326.11 564.76,-315.99"/>
<polygon fill="midnightblue" stroke="midnightblue" points="564.71,-312.49 554.56,-315.5 564.38,-319.48 564.71,-312.49"/>
</g>
<!-- Node55&#45;&gt;Node6 -->
<g id="edge148" class="edge">
<title>Node55&#45;&gt;Node6</title>
<path fill="none" stroke="midnightblue" d="M1733.87,-363.92C1728.74,-317.52 1704.25,-96.26 1696.91,-29.87"/>
<polygon fill="midnightblue" stroke="midnightblue" points="1700.36,-29.21 1695.78,-19.66 1693.4,-29.98 1700.36,-29.21"/>
</g>
<!-- Node55&#45;&gt;Node7 -->
<g id="edge150" class="edge">
<title>Node55&#45;&gt;Node7</title>
<path fill="none" stroke="midnightblue" d="M1713.11,-363.93C1655.19,-341.38 1491.77,-279.79 1350.82,-246 1258.01,-223.75 1148.01,-209.19 1081.63,-201.66"/>
<polygon fill="midnightblue" stroke="midnightblue" points="1081.69,-198.14 1071.37,-200.51 1080.91,-205.1 1081.69,-198.14"/>
</g>
<!-- Node55&#45;&gt;Node9 -->
<g id="edge152" class="edge">
<title>Node55&#45;&gt;Node9</title>
<path fill="none" stroke="midnightblue" d="M1729.16,-363.73C1706.51,-328.66 1622.26,-198.18 1591.85,-151.09"/>
<polygon fill="midnightblue" stroke="midnightblue" points="1594.74,-149.1 1586.37,-142.6 1588.86,-152.9 1594.74,-149.1"/>
</g>
<!-- Node55&#45;&gt;Node10 -->
<g id="edge144" class="edge">
<title>Node55&#45;&gt;Node10</title>
<path fill="none" stroke="midnightblue" d="M1737.03,-363.76C1743.09,-339.52 1760.06,-269.31 1768.82,-210 1775.04,-167.88 1778.41,-117.98 1779.89,-91.4"/>
<polygon fill="midnightblue" stroke="midnightblue" points="1783.39,-91.4 1780.42,-81.23 1776.4,-91.03 1783.39,-91.4"/>
</g>
<!-- Node55&#45;&gt;Node14 -->
<g id="edge146" class="edge">
<title>Node55&#45;&gt;Node14</title>
<path fill="none" stroke="midnightblue" d="M1747.64,-363.92C1818.59,-316.42 2163.35,-85.62 2253.31,-25.4"/>
<polygon fill="midnightblue" stroke="midnightblue" points="2255.52,-28.13 2261.88,-19.66 2251.63,-22.31 2255.52,-28.13"/>
</g>
<!-- Node55&#45;&gt;Node15 -->
<g id="edge147" class="edge">
<title>Node55&#45;&gt;Node15</title>
<path fill="none" stroke="midnightblue" d="M1767.27,-363.96C1934.05,-319.95 2688.57,-119.63 2727.82,-87 2745.59,-72.22 2755.85,-47.07 2761.12,-29.77"/>
<polygon fill="midnightblue" stroke="midnightblue" points="2764.61,-30.3 2763.91,-19.73 2757.86,-28.43 2764.61,-30.3"/>
</g>
<!-- Node55&#45;&gt;Node16 -->
<g id="edge151" class="edge">
<title>Node55&#45;&gt;Node16</title>
<path fill="none" stroke="midnightblue" d="M1670.35,-363.96C1512.13,-343 1105.39,-289.13 937.26,-266.86"/>
<polygon fill="midnightblue" stroke="midnightblue" points="937.63,-263.38 927.26,-265.54 936.71,-270.32 937.63,-263.38"/>
</g>
<!-- Node55&#45;&gt;Node27 -->
<g id="edge145" class="edge">
<title>Node55&#45;&gt;Node27</title>
<path fill="none" stroke="midnightblue" d="M1773.99,-363.98C1785.48,-361.73 1798.11,-359.52 1809.82,-358 1871.99,-349.93 2303.23,-323.58 2438.4,-315.43"/>
<polygon fill="midnightblue" stroke="midnightblue" points="2438.94,-318.9 2448.72,-314.8 2438.52,-311.91 2438.94,-318.9"/>
</g>
<!-- Node55&#45;&gt;Node29 -->
<g id="edge149" class="edge">
<title>Node55&#45;&gt;Node29</title>
<path fill="none" stroke="midnightblue" d="M1775.58,-363.96C1786.66,-361.82 1798.67,-359.66 1809.82,-358 1926.4,-340.64 2061.83,-327.58 2148.6,-320.12"/>
<polygon fill="midnightblue" stroke="midnightblue" points="2149.01,-323.6 2158.68,-319.26 2148.42,-316.63 2149.01,-323.6"/>
</g>
<!-- Node56&#45;&gt;Node4 -->
<g id="edge158" class="edge">
<title>Node56&#45;&gt;Node4</title>
<path fill="none" stroke="midnightblue" d="M1110.6,-493.88C1039.27,-485.53 929.89,-470.93 890.82,-456 867.1,-446.93 865.41,-436.6 842.82,-425 806.7,-406.45 711.4,-370.66 672.82,-358 631.76,-344.53 584.15,-332.2 549.77,-323.86"/>
<polygon fill="midnightblue" stroke="midnightblue" points="550.53,-320.45 539.99,-321.52 548.9,-327.26 550.53,-320.45"/>
</g>
<!-- Node56&#45;&gt;Node7 -->
<g id="edge156" class="edge">
<title>Node56&#45;&gt;Node7</title>
<path fill="none" stroke="midnightblue" d="M1171.38,-492.19C1150.25,-450.28 1059.8,-270.84 1030.8,-213.32"/>
<polygon fill="midnightblue" stroke="midnightblue" points="1033.76,-211.41 1026.13,-204.06 1027.51,-214.56 1033.76,-211.41"/>
</g>
<!-- Node56&#45;&gt;Node9 -->
<g id="edge157" class="edge">
<title>Node56&#45;&gt;Node9</title>
<path fill="none" stroke="midnightblue" d="M1185.43,-492.29C1238.38,-444.31 1494.61,-212.12 1563.65,-149.56"/>
<polygon fill="midnightblue" stroke="midnightblue" points="1566.06,-152.1 1571.12,-142.79 1561.36,-146.91 1566.06,-152.1"/>
</g>
<!-- Node56&#45;&gt;Node15 -->
<g id="edge155" class="edge">
<title>Node56&#45;&gt;Node15</title>
<path fill="none" stroke="midnightblue" d="M1240.88,-498.72C1458.17,-491.05 2150.75,-466.08 2250.82,-456 2344.42,-446.57 2578.55,-415.49 2668.82,-389 2809.37,-347.74 2970.82,-403.48 2970.82,-257 2970.82,-257 2970.82,-257 2970.82,-132 2970.82,-53.02 2856.58,-24.53 2798.66,-15.16"/>
<polygon fill="midnightblue" stroke="midnightblue" points="2798.95,-11.66 2788.54,-13.62 2797.9,-18.58 2798.95,-11.66"/>
</g>
<!-- Node56&#45;&gt;Node19 -->
<g id="edge159" class="edge">
<title>Node56&#45;&gt;Node19</title>
<path fill="none" stroke="midnightblue" d="M1110.47,-492.73C1021.46,-481.46 862.91,-461.39 772.97,-450"/>
<polygon fill="midnightblue" stroke="midnightblue" points="773.25,-446.51 762.89,-448.72 772.37,-453.45 773.25,-446.51"/>
</g>
<!-- Node57&#45;&gt;Node2 -->
<g id="edge161" class="edge">
<title>Node57&#45;&gt;Node2</title>
<path fill="none" stroke="midnightblue" d="M1713.4,-612.17C1855.09,-608.88 2226.61,-592.58 2523.82,-512 2597.35,-492.06 2641.62,-518.05 2685.82,-456 2713.53,-417.1 2682.14,-358.79 2663.16,-330.14"/>
<polygon fill="midnightblue" stroke="midnightblue" points="2665.86,-327.88 2657.3,-321.63 2660.09,-331.85 2665.86,-327.88"/>
</g>
<!-- Node57&#45;&gt;Node4 -->
<g id="edge168" class="edge">
<title>Node57&#45;&gt;Node4</title>
<path fill="none" stroke="midnightblue" d="M1630.15,-604.44C1581.6,-587.63 1476.87,-551.65 1459.82,-548 1303.45,-514.51 1259.78,-536.94 1101.82,-512 985.49,-493.63 954.89,-492.19 842.82,-456 810.05,-445.42 803.79,-437.78 771.82,-425 728.34,-407.62 716.22,-406.57 672.82,-389 621.82,-368.36 563.49,-341.57 530.12,-325.93"/>
<polygon fill="midnightblue" stroke="midnightblue" points="531.54,-322.73 521,-321.64 528.56,-329.07 531.54,-322.73"/>
</g>
<!-- Node57&#45;&gt;Node6 -->
<g id="edge163" class="edge">
<title>Node57&#45;&gt;Node6</title>
<path fill="none" stroke="midnightblue" d="M1658.61,-604.21C1663.56,-591.34 1670.74,-566.87 1662.82,-548 1649.08,-515.25 1634.6,-512.8 1605.82,-492 1577.46,-471.51 1555.63,-484.83 1535.82,-456 1451.57,-333.38 1483.38,-270.62 1501.82,-123 1505.63,-92.52 1497.12,-77.74 1518.82,-56 1537.1,-37.69 1604.26,-24.36 1650.12,-17.15"/>
<polygon fill="midnightblue" stroke="midnightblue" points="1650.77,-20.6 1660.13,-15.62 1649.72,-13.68 1650.77,-20.6"/>
</g>
<!-- Node57&#45;&gt;Node7 -->
<g id="edge167" class="edge">
<title>Node57&#45;&gt;Node7</title>
<path fill="none" stroke="midnightblue" d="M1645.23,-604.48C1629.81,-591.09 1598.12,-564.9 1567.82,-548 1543.51,-534.44 1359.5,-468.88 1334.82,-456 1239.3,-406.17 1213.95,-392.89 1132.82,-322 1122.06,-312.6 1062.99,-243.77 1035.67,-211.77"/>
<polygon fill="midnightblue" stroke="midnightblue" points="1038.32,-209.48 1029.17,-204.14 1033,-214.02 1038.32,-209.48"/>
</g>
<!-- Node57&#45;&gt;Node19 -->
<g id="edge169" class="edge">
<title>Node57&#45;&gt;Node19</title>
<path fill="none" stroke="midnightblue" d="M1596.22,-611.19C1430.96,-605.84 968.92,-589.15 903.82,-568 884.36,-561.68 773.8,-487.57 726.87,-455.81"/>
<polygon fill="midnightblue" stroke="midnightblue" points="728.62,-452.77 718.38,-450.05 724.7,-458.56 728.62,-452.77"/>
</g>
<!-- Node57&#45;&gt;Node28 -->
<g id="edge162" class="edge">
<title>Node57&#45;&gt;Node28</title>
<path fill="none" stroke="midnightblue" d="M1713.47,-609.32C1781.68,-604.1 1897.25,-592.34 1993.82,-568 2062.02,-550.82 2077.55,-540.56 2141.82,-512 2191.59,-489.88 2203.34,-482.69 2250.82,-456 2323.51,-415.14 2335.14,-393.03 2410.82,-358 2420.66,-353.45 2479.9,-334.45 2517.19,-322.65"/>
<polygon fill="midnightblue" stroke="midnightblue" points="2518.59,-325.88 2527.07,-319.52 2516.48,-319.2 2518.59,-325.88"/>
</g>
<!-- Node57&#45;&gt;Node32 -->
<g id="edge164" class="edge">
<title>Node57&#45;&gt;Node32</title>
<path fill="none" stroke="midnightblue" d="M1692.97,-604.44C1731.59,-595.67 1793,-581.45 1845.82,-568 1878.42,-559.7 1886.31,-556.66 1918.82,-548 1967.67,-534.99 2024.37,-520.43 2059.43,-511.48"/>
<polygon fill="midnightblue" stroke="midnightblue" points="2060.32,-514.87 2069.15,-509.01 2058.6,-508.08 2060.32,-514.87"/>
</g>
<!-- Node57&#45;&gt;Node34 -->
<g id="edge165" class="edge">
<title>Node57&#45;&gt;Node34</title>
<path fill="none" stroke="midnightblue" d="M1675.58,-604.44C1697.14,-595.56 1731.08,-581.56 1755.61,-571.45"/>
<polygon fill="midnightblue" stroke="midnightblue" points="1757.25,-574.56 1765.16,-567.52 1754.58,-568.09 1757.25,-574.56"/>
</g>
<!-- Node57&#45;&gt;Node36 -->
<g id="edge166" class="edge">
<title>Node57&#45;&gt;Node36</title>
<path fill="none" stroke="midnightblue" d="M1655.93,-604.42C1657.19,-590.95 1657.63,-564.65 1644.82,-548 1632.46,-531.93 1613.17,-521.49 1594.61,-514.76"/>
<polygon fill="midnightblue" stroke="midnightblue" points="1595.6,-511.41 1585.01,-511.57 1593.39,-518.05 1595.6,-511.41"/>
</g>
<!-- Node57&#45;&gt;Node38 -->
<g id="edge170" class="edge">
<title>Node57&#45;&gt;Node38</title>
<path fill="none" stroke="midnightblue" d="M1713.68,-610.81C1835.4,-605.84 2111.03,-592.25 2201.82,-568 2322.45,-535.78 2437.41,-430.78 2478.2,-390.46"/>
<polygon fill="midnightblue" stroke="midnightblue" points="2480.76,-392.85 2485.35,-383.3 2475.81,-387.91 2480.76,-392.85"/>
</g>
<!-- Node57&#45;&gt;Node52 -->
<g id="edge172" class="edge">
<title>Node57&#45;&gt;Node52</title>
<path fill="none" stroke="midnightblue" d="M1596.08,-611.93C1418.98,-608.41 892.06,-595.83 722.82,-568 651.79,-556.32 571.41,-530.27 527.6,-514.93"/>
<polygon fill="midnightblue" stroke="midnightblue" points="528.64,-511.58 518.05,-511.55 526.31,-518.18 528.64,-511.58"/>
</g>
<!-- Node57&#45;&gt;Node53 -->
<g id="edge175" class="edge">
<title>Node57&#45;&gt;Node53</title>
<path fill="none" stroke="midnightblue" d="M1596.22,-610.82C1465.74,-605.71 1141.44,-591.56 870.82,-568 869.35,-567.87 867.87,-567.74 866.38,-567.6"/>
<polygon fill="midnightblue" stroke="midnightblue" points="866.7,-564.12 856.4,-566.63 866.02,-571.08 866.7,-564.12"/>
</g>
<!-- Node57&#45;&gt;Node54 -->
<g id="edge174" class="edge">
<title>Node57&#45;&gt;Node54</title>
<path fill="none" stroke="midnightblue" d="M1596.05,-608.18C1481.41,-598.79 1227.12,-577.95 1089.18,-566.65"/>
<polygon fill="midnightblue" stroke="midnightblue" points="1089.3,-563.15 1079.04,-565.82 1088.72,-570.12 1089.3,-563.15"/>
</g>
<!-- Node57&#45;&gt;Node55 -->
<g id="edge171" class="edge">
<title>Node57&#45;&gt;Node55</title>
<path fill="none" stroke="midnightblue" d="M1713.37,-604.67C1833.83,-586.95 2100.31,-544.47 2125.82,-512 2131.31,-505.01 2131.61,-498.74 2125.82,-492 2091.1,-451.6 1939.41,-472.69 1888.82,-456 1838.28,-439.32 1784.46,-407.07 1755.75,-388.53"/>
<polygon fill="midnightblue" stroke="midnightblue" points="1757.63,-385.58 1747.34,-383.03 1753.79,-391.43 1757.63,-385.58"/>
</g>
<!-- Node57&#45;&gt;Node56 -->
<g id="edge173" class="edge">
<title>Node57&#45;&gt;Node56</title>
<path fill="none" stroke="midnightblue" d="M1642.1,-604.35C1620.36,-590.03 1574.18,-561.63 1530.82,-548 1480.24,-532.11 1339.32,-517.4 1250.99,-509.37"/>
<polygon fill="midnightblue" stroke="midnightblue" points="1251.29,-505.88 1241.02,-508.47 1250.67,-512.85 1251.29,-505.88"/>
</g>
</g>
</svg>
