<?xml version="1.0" encoding="UTF-8" standalone="no"?>
<!DOCTYPE svg PUBLIC "-//W3C//DTD SVG 1.1//EN"
 "http://www.w3.org/Graphics/SVG/1.1/DTD/svg11.dtd">
<!-- Generated by graphviz version 2.43.0 (0)
 -->
<!-- Title: Library/include/playrho/detail/CheckedMath.hpp Pages: 1 -->
<svg width="488pt" height="263pt"
 viewBox="0.00 0.00 488.00 263.00" xmlns="http://www.w3.org/2000/svg" xmlns:xlink="http://www.w3.org/1999/xlink">
<g id="graph0" class="graph" transform="scale(1 1) rotate(0) translate(4 259)">
<title>Library/include/playrho/detail/CheckedMath.hpp</title>
<polygon fill="white" stroke="transparent" points="-4,4 -4,-259 484,-259 484,4 -4,4"/>
<!-- Node1 -->
<g id="node1" class="node">
<title>Node1</title>
<g id="a_node1"><a xlink:title="Conventional math functions for the Checked class template.">
<polygon fill="#bfbfbf" stroke="black" points="13,-224.5 13,-254.5 150,-254.5 150,-224.5 13,-224.5"/>
<text text-anchor="start" x="21" y="-242.5" font-family="Helvetica,sans-Serif" font-size="10.00">Library/include/playrho</text>
<text text-anchor="middle" x="81.5" y="-231.5" font-family="Helvetica,sans-Serif" font-size="10.00">/detail/CheckedMath.hpp</text>
</a>
</g>
</g>
<!-- Node2 -->
<g id="node2" class="node">
<title>Node2</title>
<g id="a_node2"><a xlink:title=" ">
<polygon fill="white" stroke="#bfbfbf" points="0,-168.5 0,-187.5 47,-187.5 47,-168.5 0,-168.5"/>
<text text-anchor="middle" x="23.5" y="-175.5" font-family="Helvetica,sans-Serif" font-size="10.00">cmath</text>
</a>
</g>
</g>
<!-- Node1&#45;&gt;Node2 -->
<g id="edge1" class="edge">
<title>Node1&#45;&gt;Node2</title>
<path fill="none" stroke="midnightblue" d="M67.75,-224.4C59.15,-215.58 48.05,-204.18 39.11,-195.02"/>
<polygon fill="midnightblue" stroke="midnightblue" points="41.43,-192.38 31.94,-187.66 36.41,-197.26 41.43,-192.38"/>
</g>
<!-- Node3 -->
<g id="node3" class="node">
<title>Node3</title>
<g id="a_node3"><a xlink:href="Checked_8hpp.html" target="_top" xlink:title="Declarations of the Checked class template and closely related code.">
<polygon fill="white" stroke="black" points="65,-168.5 65,-187.5 214,-187.5 214,-168.5 65,-168.5"/>
<text text-anchor="middle" x="139.5" y="-175.5" font-family="Helvetica,sans-Serif" font-size="10.00">playrho/detail/Checked.hpp</text>
</a>
</g>
</g>
<!-- Node1&#45;&gt;Node3 -->
<g id="edge2" class="edge">
<title>Node1&#45;&gt;Node3</title>
<path fill="none" stroke="midnightblue" d="M95.25,-224.4C103.85,-215.58 114.95,-204.18 123.89,-195.02"/>
<polygon fill="midnightblue" stroke="midnightblue" points="126.59,-197.26 131.06,-187.66 121.57,-192.38 126.59,-197.26"/>
</g>
<!-- Node4 -->
<g id="node4" class="node">
<title>Node4</title>
<g id="a_node4"><a xlink:title=" ">
<polygon fill="white" stroke="#bfbfbf" points="13.5,-112.5 13.5,-131.5 73.5,-131.5 73.5,-112.5 13.5,-112.5"/>
<text text-anchor="middle" x="43.5" y="-119.5" font-family="Helvetica,sans-Serif" font-size="10.00">iostream</text>
</a>
</g>
</g>
<!-- Node3&#45;&gt;Node4 -->
<g id="edge3" class="edge">
<title>Node3&#45;&gt;Node4</title>
<path fill="none" stroke="midnightblue" d="M124.08,-168.32C108.96,-159.82 85.68,-146.73 68.03,-136.8"/>
<polygon fill="midnightblue" stroke="midnightblue" points="69.32,-133.51 58.89,-131.65 65.89,-139.61 69.32,-133.51"/>
</g>
<!-- Node5 -->
<g id="node5" class="node">
<title>Node5</title>
<g id="a_node5"><a xlink:title=" ">
<polygon fill="white" stroke="#bfbfbf" points="49,-0.5 49,-19.5 118,-19.5 118,-0.5 49,-0.5"/>
<text text-anchor="middle" x="83.5" y="-7.5" font-family="Helvetica,sans-Serif" font-size="10.00">type_traits</text>
</a>
</g>
</g>
<!-- Node3&#45;&gt;Node5 -->
<g id="edge4" class="edge">
<title>Node3&#45;&gt;Node5</title>
<path fill="none" stroke="midnightblue" d="M136.49,-168.08C127.64,-141.83 101.56,-64.55 89.61,-29.12"/>
<polygon fill="midnightblue" stroke="midnightblue" points="92.9,-27.92 86.39,-19.57 86.27,-30.16 92.9,-27.92"/>
</g>
<!-- Node6 -->
<g id="node6" class="node">
<title>Node6</title>
<g id="a_node6"><a xlink:title=" ">
<polygon fill="white" stroke="#bfbfbf" points="136,-0.5 136,-19.5 181,-19.5 181,-0.5 136,-0.5"/>
<text text-anchor="middle" x="158.5" y="-7.5" font-family="Helvetica,sans-Serif" font-size="10.00">utility</text>
</a>
</g>
</g>
<!-- Node3&#45;&gt;Node6 -->
<g id="edge5" class="edge">
<title>Node3&#45;&gt;Node6</title>
<path fill="none" stroke="midnightblue" d="M140.52,-168.08C143.51,-141.95 152.3,-65.21 156.37,-29.58"/>
<polygon fill="midnightblue" stroke="midnightblue" points="159.86,-29.9 157.52,-19.57 152.9,-29.11 159.86,-29.9"/>
</g>
<!-- Node7 -->
<g id="node7" class="node">
<title>Node7</title>
<g id="a_node7"><a xlink:href="InvalidArgument_8hpp.html" target="_top" xlink:title="Definition of the InvalidArgument class.">
<polygon fill="white" stroke="black" points="313.5,-112.5 313.5,-131.5 471.5,-131.5 471.5,-112.5 313.5,-112.5"/>
<text text-anchor="middle" x="392.5" y="-119.5" font-family="Helvetica,sans-Serif" font-size="10.00">playrho/InvalidArgument.hpp</text>
</a>
</g>
</g>
<!-- Node3&#45;&gt;Node7 -->
<g id="edge6" class="edge">
<title>Node3&#45;&gt;Node7</title>
<path fill="none" stroke="midnightblue" d="M179.59,-168.44C223.82,-159 295.04,-143.8 342.78,-133.61"/>
<polygon fill="midnightblue" stroke="midnightblue" points="343.55,-137.03 352.6,-131.52 342.09,-130.18 343.55,-137.03"/>
</g>
<!-- Node9 -->
<g id="node9" class="node">
<title>Node9</title>
<g id="a_node9"><a xlink:href="Templates_8hpp.html" target="_top" xlink:title="Definitions of miscellaneous template related code.">
<polygon fill="white" stroke="black" points="167.5,-112.5 167.5,-131.5 295.5,-131.5 295.5,-112.5 167.5,-112.5"/>
<text text-anchor="middle" x="231.5" y="-119.5" font-family="Helvetica,sans-Serif" font-size="10.00">playrho/Templates.hpp</text>
</a>
</g>
</g>
<!-- Node3&#45;&gt;Node9 -->
<g id="edge8" class="edge">
<title>Node3&#45;&gt;Node9</title>
<path fill="none" stroke="midnightblue" d="M154.28,-168.32C168.77,-159.82 191.07,-146.73 207.99,-136.8"/>
<polygon fill="midnightblue" stroke="midnightblue" points="209.9,-139.74 216.76,-131.65 206.36,-133.7 209.9,-139.74"/>
</g>
<!-- Node8 -->
<g id="node8" class="node">
<title>Node8</title>
<g id="a_node8"><a xlink:title=" ">
<polygon fill="white" stroke="#bfbfbf" points="360,-56.5 360,-75.5 425,-75.5 425,-56.5 360,-56.5"/>
<text text-anchor="middle" x="392.5" y="-63.5" font-family="Helvetica,sans-Serif" font-size="10.00">stdexcept</text>
</a>
</g>
</g>
<!-- Node7&#45;&gt;Node8 -->
<g id="edge7" class="edge">
<title>Node7&#45;&gt;Node8</title>
<path fill="none" stroke="midnightblue" d="M392.5,-112.08C392.5,-105.01 392.5,-94.86 392.5,-85.99"/>
<polygon fill="midnightblue" stroke="midnightblue" points="396,-85.75 392.5,-75.75 389,-85.75 396,-85.75"/>
</g>
<!-- Node10 -->
<g id="node10" class="node">
<title>Node10</title>
<g id="a_node10"><a xlink:href="detail_2Templates_8hpp.html" target="_top" xlink:title="Low&#45;level declarations for general class &amp; function templates.">
<polygon fill="white" stroke="black" points="167.5,-56.5 167.5,-75.5 325.5,-75.5 325.5,-56.5 167.5,-56.5"/>
<text text-anchor="middle" x="246.5" y="-63.5" font-family="Helvetica,sans-Serif" font-size="10.00">playrho/detail/Templates.hpp</text>
</a>
</g>
</g>
<!-- Node9&#45;&gt;Node10 -->
<g id="edge9" class="edge">
<title>Node9&#45;&gt;Node10</title>
<path fill="none" stroke="midnightblue" d="M233.98,-112.08C235.99,-104.85 238.89,-94.41 241.39,-85.4"/>
<polygon fill="midnightblue" stroke="midnightblue" points="244.76,-86.32 244.07,-75.75 238.02,-84.45 244.76,-86.32"/>
</g>
<!-- Node10&#45;&gt;Node5 -->
<g id="edge14" class="edge">
<title>Node10&#45;&gt;Node5</title>
<path fill="none" stroke="midnightblue" d="M220.67,-56.44C193.25,-47.36 149.72,-32.94 119.07,-22.78"/>
<polygon fill="midnightblue" stroke="midnightblue" points="119.8,-19.34 109.21,-19.52 117.6,-25.98 119.8,-19.34"/>
</g>
<!-- Node10&#45;&gt;Node6 -->
<g id="edge15" class="edge">
<title>Node10&#45;&gt;Node6</title>
<path fill="none" stroke="midnightblue" d="M232.36,-56.32C218.63,-47.9 197.56,-34.97 181.44,-25.07"/>
<polygon fill="midnightblue" stroke="midnightblue" points="182.96,-21.9 172.6,-19.65 179.3,-27.87 182.96,-21.9"/>
</g>
<!-- Node11 -->
<g id="node11" class="node">
<title>Node11</title>
<g id="a_node11"><a xlink:title=" ">
<polygon fill="white" stroke="#bfbfbf" points="332.5,-0.5 332.5,-19.5 396.5,-19.5 396.5,-0.5 332.5,-0.5"/>
<text text-anchor="middle" x="364.5" y="-7.5" font-family="Helvetica,sans-Serif" font-size="10.00">algorithm</text>
</a>
</g>
</g>
<!-- Node10&#45;&gt;Node11 -->
<g id="edge10" class="edge">
<title>Node10&#45;&gt;Node11</title>
<path fill="none" stroke="midnightblue" d="M265.2,-56.44C284.44,-47.64 314.65,-33.81 336.7,-23.72"/>
<polygon fill="midnightblue" stroke="midnightblue" points="338.25,-26.86 345.89,-19.52 335.34,-20.5 338.25,-26.86"/>
</g>
<!-- Node12 -->
<g id="node12" class="node">
<title>Node12</title>
<g id="a_node12"><a xlink:title=" ">
<polygon fill="white" stroke="#bfbfbf" points="415,-0.5 415,-19.5 480,-19.5 480,-0.5 415,-0.5"/>
<text text-anchor="middle" x="447.5" y="-7.5" font-family="Helvetica,sans-Serif" font-size="10.00">functional</text>
</a>
</g>
</g>
<!-- Node10&#45;&gt;Node12 -->
<g id="edge11" class="edge">
<title>Node10&#45;&gt;Node12</title>
<path fill="none" stroke="midnightblue" d="M278.35,-56.44C312.9,-47.16 368.18,-32.31 406.08,-22.13"/>
<polygon fill="midnightblue" stroke="midnightblue" points="407.05,-25.49 415.8,-19.52 405.23,-18.73 407.05,-25.49"/>
</g>
<!-- Node13 -->
<g id="node13" class="node">
<title>Node13</title>
<g id="a_node13"><a xlink:title=" ">
<polygon fill="white" stroke="#bfbfbf" points="199,-0.5 199,-19.5 252,-19.5 252,-0.5 199,-0.5"/>
<text text-anchor="middle" x="225.5" y="-7.5" font-family="Helvetica,sans-Serif" font-size="10.00">iterator</text>
</a>
</g>
</g>
<!-- Node10&#45;&gt;Node13 -->
<g id="edge12" class="edge">
<title>Node10&#45;&gt;Node13</title>
<path fill="none" stroke="midnightblue" d="M243.03,-56.08C240.19,-48.77 236.07,-38.18 232.54,-29.1"/>
<polygon fill="midnightblue" stroke="midnightblue" points="235.79,-27.8 228.9,-19.75 229.27,-30.34 235.79,-27.8"/>
</g>
<!-- Node14 -->
<g id="node14" class="node">
<title>Node14</title>
<g id="a_node14"><a xlink:title=" ">
<polygon fill="white" stroke="#bfbfbf" points="270.5,-0.5 270.5,-19.5 314.5,-19.5 314.5,-0.5 270.5,-0.5"/>
<text text-anchor="middle" x="292.5" y="-7.5" font-family="Helvetica,sans-Serif" font-size="10.00">limits</text>
</a>
</g>
</g>
<!-- Node10&#45;&gt;Node14 -->
<g id="edge13" class="edge">
<title>Node10&#45;&gt;Node14</title>
<path fill="none" stroke="midnightblue" d="M254.1,-56.08C260.73,-48.3 270.52,-36.8 278.56,-27.37"/>
<polygon fill="midnightblue" stroke="midnightblue" points="281.23,-29.63 285.05,-19.75 275.9,-25.09 281.23,-29.63"/>
</g>
</g>
</svg>
