<?xml version="1.0" encoding="UTF-8" standalone="no"?>
<!DOCTYPE svg PUBLIC "-//W3C//DTD SVG 1.1//EN"
 "http://www.w3.org/Graphics/SVG/1.1/DTD/svg11.dtd">
<!-- Generated by graphviz version 2.43.0 (0)
 -->
<!-- Title: Library/include/playrho/detail/Checked.hpp Pages: 1 -->
<svg width="466pt" height="207pt"
 viewBox="0.00 0.00 466.00 207.00" xmlns="http://www.w3.org/2000/svg" xmlns:xlink="http://www.w3.org/1999/xlink">
<g id="graph0" class="graph" transform="scale(1 1) rotate(0) translate(4 203)">
<title>Library/include/playrho/detail/Checked.hpp</title>
<polygon fill="white" stroke="transparent" points="-4,4 -4,-203 462,-203 462,4 -4,4"/>
<!-- Node1 -->
<g id="node1" class="node">
<title>Node1</title>
<g id="a_node1"><a xlink:title="Declarations of the Checked class template and closely related code.">
<polygon fill="#bfbfbf" stroke="black" points="62,-168.5 62,-198.5 190,-198.5 190,-168.5 62,-168.5"/>
<text text-anchor="start" x="70" y="-186.5" font-family="Helvetica,sans-Serif" font-size="10.00">Library/include/playrho</text>
<text text-anchor="middle" x="126" y="-175.5" font-family="Helvetica,sans-Serif" font-size="10.00">/detail/Checked.hpp</text>
</a>
</g>
</g>
<!-- Node2 -->
<g id="node2" class="node">
<title>Node2</title>
<g id="a_node2"><a xlink:title=" ">
<polygon fill="white" stroke="#bfbfbf" points="0,-112.5 0,-131.5 60,-131.5 60,-112.5 0,-112.5"/>
<text text-anchor="middle" x="30" y="-119.5" font-family="Helvetica,sans-Serif" font-size="10.00">iostream</text>
</a>
</g>
</g>
<!-- Node1&#45;&gt;Node2 -->
<g id="edge1" class="edge">
<title>Node1&#45;&gt;Node2</title>
<path fill="none" stroke="midnightblue" d="M103.25,-168.4C88.01,-158.95 68.01,-146.56 52.76,-137.11"/>
<polygon fill="midnightblue" stroke="midnightblue" points="54.31,-133.95 43.97,-131.66 50.62,-139.9 54.31,-133.95"/>
</g>
<!-- Node3 -->
<g id="node3" class="node">
<title>Node3</title>
<g id="a_node3"><a xlink:title=" ">
<polygon fill="white" stroke="#bfbfbf" points="50.5,-0.5 50.5,-19.5 119.5,-19.5 119.5,-0.5 50.5,-0.5"/>
<text text-anchor="middle" x="85" y="-7.5" font-family="Helvetica,sans-Serif" font-size="10.00">type_traits</text>
</a>
</g>
</g>
<!-- Node1&#45;&gt;Node3 -->
<g id="edge2" class="edge">
<title>Node1&#45;&gt;Node3</title>
<path fill="none" stroke="midnightblue" d="M122.64,-168.47C115.29,-137.7 97.75,-64.33 89.47,-29.7"/>
<polygon fill="midnightblue" stroke="midnightblue" points="92.78,-28.47 87.05,-19.56 85.97,-30.1 92.78,-28.47"/>
</g>
<!-- Node4 -->
<g id="node4" class="node">
<title>Node4</title>
<g id="a_node4"><a xlink:title=" ">
<polygon fill="white" stroke="#bfbfbf" points="137.5,-0.5 137.5,-19.5 182.5,-19.5 182.5,-0.5 137.5,-0.5"/>
<text text-anchor="middle" x="160" y="-7.5" font-family="Helvetica,sans-Serif" font-size="10.00">utility</text>
</a>
</g>
</g>
<!-- Node1&#45;&gt;Node4 -->
<g id="edge3" class="edge">
<title>Node1&#45;&gt;Node4</title>
<path fill="none" stroke="midnightblue" d="M127.32,-168.31C129.7,-144.75 135.37,-96.17 145,-56 147.14,-47.09 150.25,-37.43 153.09,-29.35"/>
<polygon fill="midnightblue" stroke="midnightblue" points="156.42,-30.43 156.55,-19.83 149.84,-28.03 156.42,-30.43"/>
</g>
<!-- Node5 -->
<g id="node5" class="node">
<title>Node5</title>
<g id="a_node5"><a xlink:href="InvalidArgument_8hpp.html" target="_top" xlink:title="Definition of the InvalidArgument class.">
<polygon fill="white" stroke="black" points="300,-112.5 300,-131.5 458,-131.5 458,-112.5 300,-112.5"/>
<text text-anchor="middle" x="379" y="-119.5" font-family="Helvetica,sans-Serif" font-size="10.00">playrho/InvalidArgument.hpp</text>
</a>
</g>
</g>
<!-- Node1&#45;&gt;Node5 -->
<g id="edge4" class="edge">
<title>Node1&#45;&gt;Node5</title>
<path fill="none" stroke="midnightblue" d="M185.64,-168.47C230.71,-157.87 291.69,-143.53 333.03,-133.81"/>
<polygon fill="midnightblue" stroke="midnightblue" points="333.9,-137.2 342.83,-131.51 332.29,-130.39 333.9,-137.2"/>
</g>
<!-- Node7 -->
<g id="node7" class="node">
<title>Node7</title>
<g id="a_node7"><a xlink:href="Templates_8hpp.html" target="_top" xlink:title="Definitions of miscellaneous template related code.">
<polygon fill="white" stroke="black" points="154,-112.5 154,-131.5 282,-131.5 282,-112.5 154,-112.5"/>
<text text-anchor="middle" x="218" y="-119.5" font-family="Helvetica,sans-Serif" font-size="10.00">playrho/Templates.hpp</text>
</a>
</g>
</g>
<!-- Node1&#45;&gt;Node7 -->
<g id="edge6" class="edge">
<title>Node1&#45;&gt;Node7</title>
<path fill="none" stroke="midnightblue" d="M147.8,-168.4C162.41,-158.95 181.57,-146.56 196.18,-137.11"/>
<polygon fill="midnightblue" stroke="midnightblue" points="198.12,-140.03 204.61,-131.66 194.32,-134.15 198.12,-140.03"/>
</g>
<!-- Node6 -->
<g id="node6" class="node">
<title>Node6</title>
<g id="a_node6"><a xlink:title=" ">
<polygon fill="white" stroke="#bfbfbf" points="346.5,-56.5 346.5,-75.5 411.5,-75.5 411.5,-56.5 346.5,-56.5"/>
<text text-anchor="middle" x="379" y="-63.5" font-family="Helvetica,sans-Serif" font-size="10.00">stdexcept</text>
</a>
</g>
</g>
<!-- Node5&#45;&gt;Node6 -->
<g id="edge5" class="edge">
<title>Node5&#45;&gt;Node6</title>
<path fill="none" stroke="midnightblue" d="M379,-112.08C379,-105.01 379,-94.86 379,-85.99"/>
<polygon fill="midnightblue" stroke="midnightblue" points="382.5,-85.75 379,-75.75 375.5,-85.75 382.5,-85.75"/>
</g>
<!-- Node8 -->
<g id="node8" class="node">
<title>Node8</title>
<g id="a_node8"><a xlink:href="detail_2Templates_8hpp.html" target="_top" xlink:title="Low&#45;level declarations for general class &amp; function templates.">
<polygon fill="white" stroke="black" points="154,-56.5 154,-75.5 312,-75.5 312,-56.5 154,-56.5"/>
<text text-anchor="middle" x="233" y="-63.5" font-family="Helvetica,sans-Serif" font-size="10.00">playrho/detail/Templates.hpp</text>
</a>
</g>
</g>
<!-- Node7&#45;&gt;Node8 -->
<g id="edge7" class="edge">
<title>Node7&#45;&gt;Node8</title>
<path fill="none" stroke="midnightblue" d="M220.48,-112.08C222.49,-104.85 225.39,-94.41 227.89,-85.4"/>
<polygon fill="midnightblue" stroke="midnightblue" points="231.26,-86.32 230.57,-75.75 224.52,-84.45 231.26,-86.32"/>
</g>
<!-- Node8&#45;&gt;Node3 -->
<g id="edge11" class="edge">
<title>Node8&#45;&gt;Node3</title>
<path fill="none" stroke="midnightblue" d="M209.55,-56.44C184.87,-47.44 145.81,-33.19 118.02,-23.05"/>
<polygon fill="midnightblue" stroke="midnightblue" points="118.94,-19.66 108.34,-19.52 116.54,-26.23 118.94,-19.66"/>
</g>
<!-- Node8&#45;&gt;Node4 -->
<g id="edge12" class="edge">
<title>Node8&#45;&gt;Node4</title>
<path fill="none" stroke="midnightblue" d="M221.27,-56.32C210.16,-48.11 193.26,-35.6 180.02,-25.81"/>
<polygon fill="midnightblue" stroke="midnightblue" points="182.06,-22.97 171.94,-19.83 177.9,-28.59 182.06,-22.97"/>
</g>
<!-- Node9 -->
<g id="node9" class="node">
<title>Node9</title>
<g id="a_node9"><a xlink:title=" ">
<polygon fill="white" stroke="#bfbfbf" points="201,-0.5 201,-19.5 265,-19.5 265,-0.5 201,-0.5"/>
<text text-anchor="middle" x="233" y="-7.5" font-family="Helvetica,sans-Serif" font-size="10.00">algorithm</text>
</a>
</g>
</g>
<!-- Node8&#45;&gt;Node9 -->
<g id="edge8" class="edge">
<title>Node8&#45;&gt;Node9</title>
<path fill="none" stroke="midnightblue" d="M233,-56.08C233,-49.01 233,-38.86 233,-29.99"/>
<polygon fill="midnightblue" stroke="midnightblue" points="236.5,-29.75 233,-19.75 229.5,-29.75 236.5,-29.75"/>
</g>
<!-- Node10 -->
<g id="node10" class="node">
<title>Node10</title>
<g id="a_node10"><a xlink:title=" ">
<polygon fill="white" stroke="#bfbfbf" points="283.5,-0.5 283.5,-19.5 348.5,-19.5 348.5,-0.5 283.5,-0.5"/>
<text text-anchor="middle" x="316" y="-7.5" font-family="Helvetica,sans-Serif" font-size="10.00">functional</text>
</a>
</g>
</g>
<!-- Node8&#45;&gt;Node10 -->
<g id="edge9" class="edge">
<title>Node8&#45;&gt;Node10</title>
<path fill="none" stroke="midnightblue" d="M246.34,-56.32C259.16,-47.98 278.78,-35.21 293.94,-25.35"/>
<polygon fill="midnightblue" stroke="midnightblue" points="296.22,-28.04 302.7,-19.65 292.41,-22.17 296.22,-28.04"/>
</g>
<!-- Node11 -->
<g id="node11" class="node">
<title>Node11</title>
<g id="a_node11"><a xlink:title=" ">
<polygon fill="white" stroke="#bfbfbf" points="366.5,-0.5 366.5,-19.5 419.5,-19.5 419.5,-0.5 366.5,-0.5"/>
<text text-anchor="middle" x="393" y="-7.5" font-family="Helvetica,sans-Serif" font-size="10.00">iterator</text>
</a>
</g>
</g>
<!-- Node8&#45;&gt;Node11 -->
<g id="edge10" class="edge">
<title>Node8&#45;&gt;Node11</title>
<path fill="none" stroke="midnightblue" d="M258.35,-56.44C285.27,-47.36 328,-32.94 358.09,-22.78"/>
<polygon fill="midnightblue" stroke="midnightblue" points="359.41,-26.03 367.77,-19.52 357.17,-19.4 359.41,-26.03"/>
</g>
</g>
</svg>
