<?xml version="1.0" encoding="UTF-8" standalone="no"?>
<!DOCTYPE svg PUBLIC "-//W3C//DTD SVG 1.1//EN"
 "http://www.w3.org/Graphics/SVG/1.1/DTD/svg11.dtd">
<!-- Generated by graphviz version 2.43.0 (0)
 -->
<!-- Title: playrho::ArrayList&lt; VALUE_TYPE, MAXSIZE, SIZE_TYPE &gt; Pages: 1 -->
<svg width="557pt" height="132pt"
 viewBox="0.00 0.00 557.00 132.00" xmlns="http://www.w3.org/2000/svg" xmlns:xlink="http://www.w3.org/1999/xlink">
<g id="graph0" class="graph" transform="scale(1 1) rotate(0) translate(4 128)">
<title>playrho::ArrayList&lt; VALUE_TYPE, MAXSIZE, SIZE_TYPE &gt;</title>
<polygon fill="white" stroke="transparent" points="-4,4 -4,-128 553,-128 553,4 -4,4"/>
<!-- Node1 -->
<g id="node1" class="node">
<title>Node1</title>
<g id="a_node1"><a xlink:title="Array list.">
<polygon fill="#bfbfbf" stroke="black" points="0,-41 0,-82 142,-82 142,-41 0,-41"/>
<text text-anchor="start" x="8" y="-70" font-family="Helvetica,sans-Serif" font-size="10.00">playrho::ArrayList</text>
<text text-anchor="start" x="8" y="-59" font-family="Helvetica,sans-Serif" font-size="10.00">&lt; VALUE_TYPE, MAXSIZE,</text>
<text text-anchor="middle" x="71" y="-48" font-family="Helvetica,sans-Serif" font-size="10.00"> SIZE_TYPE &gt;</text>
</a>
</g>
</g>
<!-- Node2 -->
<g id="node2" class="node">
<title>Node2</title>
<g id="a_node2"><a xlink:href="classplayrho_1_1ArrayList.html" target="_top" xlink:title=" ">
<polygon fill="white" stroke="black" points="367.5,-71.5 367.5,-123.5 539.5,-123.5 539.5,-71.5 367.5,-71.5"/>
<text text-anchor="start" x="375.5" y="-111.5" font-family="Helvetica,sans-Serif" font-size="10.00">playrho::ArrayList</text>
<text text-anchor="start" x="375.5" y="-100.5" font-family="Helvetica,sans-Serif" font-size="10.00">&lt; Real, MaxSimplexEdges,</text>
<text text-anchor="start" x="375.5" y="-89.5" font-family="Helvetica,sans-Serif" font-size="10.00"> std::remove_const_t&lt; decltype</text>
<text text-anchor="middle" x="453.5" y="-78.5" font-family="Helvetica,sans-Serif" font-size="10.00">(MaxSimplexEdges)&gt; &gt;</text>
</a>
</g>
</g>
<!-- Node1&#45;&gt;Node2 -->
<g id="edge1" class="edge">
<title>Node1&#45;&gt;Node2</title>
<path fill="none" stroke="orange" stroke-dasharray="5,2" d="M152.23,-74.55C154.85,-74.88 157.45,-75.2 160,-75.5 229.55,-83.63 308.77,-89.38 367.21,-92.95"/>
<polygon fill="orange" stroke="orange" points="152.43,-71.04 142.06,-73.18 151.5,-77.98 152.43,-71.04"/>
<text text-anchor="start" x="168.5" y="-115.5" font-family="Helvetica,sans-Serif" font-size="10.00"> &lt; Real, MaxSimplexEdges,</text>
<text text-anchor="start" x="168.5" y="-104.5" font-family="Helvetica,sans-Serif" font-size="10.00"> std::remove_const_t&lt;</text>
<text text-anchor="middle" x="250" y="-93.5" font-family="Helvetica,sans-Serif" font-size="10.00"> decltype(MaxSimplexEdges)&gt; &gt;</text>
</g>
<!-- Node3 -->
<g id="node3" class="node">
<title>Node3</title>
<g id="a_node3"><a xlink:href="classplayrho_1_1ArrayList.html" target="_top" xlink:title=" ">
<polygon fill="white" stroke="black" points="358,-0.5 358,-52.5 549,-52.5 549,-0.5 358,-0.5"/>
<text text-anchor="start" x="366" y="-40.5" font-family="Helvetica,sans-Serif" font-size="10.00">playrho::ArrayList</text>
<text text-anchor="start" x="366" y="-29.5" font-family="Helvetica,sans-Serif" font-size="10.00">&lt; SimplexEdge, MaxSimplexEdges,</text>
<text text-anchor="start" x="366" y="-18.5" font-family="Helvetica,sans-Serif" font-size="10.00"> std::remove_const_t&lt; decltype</text>
<text text-anchor="middle" x="453.5" y="-7.5" font-family="Helvetica,sans-Serif" font-size="10.00">(MaxSimplexEdges)&gt; &gt;</text>
</a>
</g>
</g>
<!-- Node1&#45;&gt;Node3 -->
<g id="edge2" class="edge">
<title>Node1&#45;&gt;Node3</title>
<path fill="none" stroke="orange" stroke-dasharray="5,2" d="M152.39,-43.61C154.95,-43.21 157.49,-42.84 160,-42.5 225.78,-33.66 300.5,-29.67 357.96,-27.89"/>
<polygon fill="orange" stroke="orange" points="151.72,-40.17 142.43,-45.27 152.87,-47.07 151.72,-40.17"/>
<text text-anchor="start" x="160" y="-67.5" font-family="Helvetica,sans-Serif" font-size="10.00"> &lt; SimplexEdge, MaxSimplex</text>
<text text-anchor="start" x="160" y="-56.5" font-family="Helvetica,sans-Serif" font-size="10.00">Edges, std::remove_const</text>
<text text-anchor="middle" x="250" y="-45.5" font-family="Helvetica,sans-Serif" font-size="10.00">_t&lt; decltype(MaxSimplexEdges)&gt; &gt;</text>
</g>
</g>
</svg>
