<?xml version="1.0" encoding="UTF-8" standalone="no"?>
<!DOCTYPE svg PUBLIC "-//W3C//DTD SVG 1.1//EN"
 "http://www.w3.org/Graphics/SVG/1.1/DTD/svg11.dtd">
<!-- Generated by graphviz version 2.43.0 (0)
 -->
<!-- Title: playrho::Interval&lt; T &gt; Pages: 1 -->
<svg width="186pt" height="128pt"
 viewBox="0.00 0.00 185.50 128.00" xmlns="http://www.w3.org/2000/svg" xmlns:xlink="http://www.w3.org/1999/xlink">
<g id="graph0" class="graph" transform="scale(1 1) rotate(0) translate(4 124)">
<title>playrho::Interval&lt; T &gt;</title>
<polygon fill="white" stroke="transparent" points="-4,4 -4,-124 181.5,-124 181.5,4 -4,4"/>
<!-- Node1 -->
<g id="node1" class="node">
<title>Node1</title>
<g id="a_node1"><a xlink:title="Interval template type.">
<polygon fill="#bfbfbf" stroke="black" points="6,-100.5 6,-119.5 131,-119.5 131,-100.5 6,-100.5"/>
<text text-anchor="middle" x="68.5" y="-107.5" font-family="Helvetica,sans-Serif" font-size="10.00">playrho::Interval&lt; T &gt;</text>
</a>
</g>
</g>
<!-- Node2 -->
<g id="node2" class="node">
<title>Node2</title>
<g id="a_node2"><a xlink:href="classplayrho_1_1Interval.html" target="_top" xlink:title=" ">
<polygon fill="white" stroke="black" points="0,-0.5 0,-41.5 137,-41.5 137,-0.5 0,-0.5"/>
<text text-anchor="start" x="8" y="-29.5" font-family="Helvetica,sans-Serif" font-size="10.00">playrho::Interval&lt;</text>
<text text-anchor="start" x="8" y="-18.5" font-family="Helvetica,sans-Serif" font-size="10.00"> playrho::detail::Checked</text>
<text text-anchor="middle" x="68.5" y="-7.5" font-family="Helvetica,sans-Serif" font-size="10.00">&lt; Length &gt; &gt;</text>
</a>
</g>
</g>
<!-- Node1&#45;&gt;Node2 -->
<g id="edge1" class="edge">
<title>Node1&#45;&gt;Node2</title>
<path fill="none" stroke="orange" stroke-dasharray="5,2" d="M68.5,-90.2C68.5,-75.88 68.5,-56.21 68.5,-41.68"/>
<polygon fill="orange" stroke="orange" points="65,-90.34 68.5,-100.34 72,-90.34 65,-90.34"/>
<text text-anchor="start" x="68.5" y="-74" font-family="Helvetica,sans-Serif" font-size="10.00"> &lt; playrho::detail::</text>
<text text-anchor="middle" x="123" y="-63" font-family="Helvetica,sans-Serif" font-size="10.00">Checked&lt; Length &gt; &gt;</text>
</g>
</g>
</svg>
