<?xml version="1.0" encoding="UTF-8" standalone="no"?>
<!DOCTYPE svg PUBLIC "-//W3C//DTD SVG 1.1//EN"
 "http://www.w3.org/Graphics/SVG/1.1/DTD/svg11.dtd">
<!-- Generated by graphviz version 2.43.0 (0)
 -->
<!-- Title: playrho::ObjectPool&lt; T &gt; Pages: 1 -->
<svg width="457pt" height="382pt"
 viewBox="0.00 0.00 457.00 382.00" xmlns="http://www.w3.org/2000/svg" xmlns:xlink="http://www.w3.org/1999/xlink">
<g id="graph0" class="graph" transform="scale(1 1) rotate(0) translate(4 378)">
<title>playrho::ObjectPool&lt; T &gt;</title>
<polygon fill="white" stroke="transparent" points="-4,4 -4,-378 453,-378 453,4 -4,4"/>
<!-- Node1 -->
<g id="node1" class="node">
<title>Node1</title>
<g id="a_node1"><a xlink:title="Object pool with indexable properties.">
<polygon fill="#bfbfbf" stroke="black" points="0,-177 0,-196 140,-196 140,-177 0,-177"/>
<text text-anchor="middle" x="70" y="-184" font-family="Helvetica,sans-Serif" font-size="10.00">playrho::ObjectPool&lt; T &gt;</text>
</a>
</g>
</g>
<!-- Node2 -->
<g id="node2" class="node">
<title>Node2</title>
<g id="a_node2"><a xlink:href="classplayrho_1_1ObjectPool.html" target="_top" xlink:title=" ">
<polygon fill="white" stroke="black" points="316.5,-343.5 316.5,-373.5 438.5,-373.5 438.5,-343.5 316.5,-343.5"/>
<text text-anchor="start" x="324.5" y="-361.5" font-family="Helvetica,sans-Serif" font-size="10.00">playrho::ObjectPool</text>
<text text-anchor="middle" x="377.5" y="-350.5" font-family="Helvetica,sans-Serif" font-size="10.00">&lt; playrho::d2::Joint &gt;</text>
</a>
</g>
</g>
<!-- Node1&#45;&gt;Node2 -->
<g id="edge1" class="edge">
<title>Node1&#45;&gt;Node2</title>
<path fill="none" stroke="orange" stroke-dasharray="5,2" d="M78.44,-205.73C90.54,-234.29 117.31,-287.48 158,-314.5 205.06,-345.76 269.51,-355.67 316.21,-358.42"/>
<polygon fill="orange" stroke="orange" points="81.53,-204.03 74.52,-196.09 75.04,-206.67 81.53,-204.03"/>
<text text-anchor="middle" x="223" y="-358.5" font-family="Helvetica,sans-Serif" font-size="10.00"> &lt; playrho::d2::Joint &gt;</text>
</g>
<!-- Node3 -->
<g id="node3" class="node">
<title>Node3</title>
<g id="a_node3"><a xlink:href="classplayrho_1_1ObjectPool.html" target="_top" xlink:title=" ">
<polygon fill="white" stroke="black" points="321.5,-294.5 321.5,-324.5 433.5,-324.5 433.5,-294.5 321.5,-294.5"/>
<text text-anchor="start" x="329.5" y="-312.5" font-family="Helvetica,sans-Serif" font-size="10.00">playrho::ObjectPool</text>
<text text-anchor="middle" x="377.5" y="-301.5" font-family="Helvetica,sans-Serif" font-size="10.00">&lt; BodyJoints &gt;</text>
</a>
</g>
</g>
<!-- Node1&#45;&gt;Node3 -->
<g id="edge2" class="edge">
<title>Node1&#45;&gt;Node3</title>
<path fill="none" stroke="orange" stroke-dasharray="5,2" d="M86.02,-203.7C102.09,-220.99 129.19,-247.09 158,-261.5 209.93,-287.48 275.72,-299.48 321.48,-304.98"/>
<polygon fill="orange" stroke="orange" points="88.36,-201.08 79.06,-196.01 83.17,-205.78 88.36,-201.08"/>
<text text-anchor="middle" x="223" y="-302.5" font-family="Helvetica,sans-Serif" font-size="10.00"> &lt; BodyJoints &gt;</text>
</g>
<!-- Node4 -->
<g id="node4" class="node">
<title>Node4</title>
<g id="a_node4"><a xlink:href="classplayrho_1_1ObjectPool.html" target="_top" xlink:title=" ">
<polygon fill="white" stroke="black" points="321.5,-245.5 321.5,-275.5 433.5,-275.5 433.5,-245.5 321.5,-245.5"/>
<text text-anchor="start" x="329.5" y="-263.5" font-family="Helvetica,sans-Serif" font-size="10.00">playrho::ObjectPool</text>
<text text-anchor="middle" x="377.5" y="-252.5" font-family="Helvetica,sans-Serif" font-size="10.00">&lt; Proxies &gt;</text>
</a>
</g>
</g>
<!-- Node1&#45;&gt;Node4 -->
<g id="edge3" class="edge">
<title>Node1&#45;&gt;Node4</title>
<path fill="none" stroke="orange" stroke-dasharray="5,2" d="M103.46,-199.87C119.65,-206.17 139.64,-213.39 158,-218.5 212.71,-233.71 276.63,-245.3 321.15,-252.41"/>
<polygon fill="orange" stroke="orange" points="104.51,-196.52 93.93,-196.1 101.94,-203.03 104.51,-196.52"/>
<text text-anchor="middle" x="223" y="-249.5" font-family="Helvetica,sans-Serif" font-size="10.00"> &lt; Proxies &gt;</text>
</g>
<!-- Node5 -->
<g id="node5" class="node">
<title>Node5</title>
<g id="a_node5"><a xlink:href="classplayrho_1_1ObjectPool.html" target="_top" xlink:title=" ">
<polygon fill="white" stroke="black" points="321.5,-196.5 321.5,-226.5 433.5,-226.5 433.5,-196.5 321.5,-196.5"/>
<text text-anchor="start" x="329.5" y="-214.5" font-family="Helvetica,sans-Serif" font-size="10.00">playrho::ObjectPool</text>
<text text-anchor="middle" x="377.5" y="-203.5" font-family="Helvetica,sans-Serif" font-size="10.00">&lt; BodyContacts &gt;</text>
</a>
</g>
</g>
<!-- Node1&#45;&gt;Node5 -->
<g id="edge4" class="edge">
<title>Node1&#45;&gt;Node5</title>
<path fill="none" stroke="orange" stroke-dasharray="5,2" d="M150.48,-193C204.11,-197.39 273.52,-203.07 321.2,-206.97"/>
<polygon fill="orange" stroke="orange" points="150.57,-189.5 140.32,-192.17 150,-196.48 150.57,-189.5"/>
<text text-anchor="middle" x="223" y="-206.5" font-family="Helvetica,sans-Serif" font-size="10.00"> &lt; BodyContacts &gt;</text>
</g>
<!-- Node6 -->
<g id="node6" class="node">
<title>Node6</title>
<g id="a_node6"><a xlink:href="classplayrho_1_1ObjectPool.html" target="_top" xlink:title=" ">
<polygon fill="white" stroke="black" points="312.5,-147.5 312.5,-177.5 442.5,-177.5 442.5,-147.5 312.5,-147.5"/>
<text text-anchor="start" x="320.5" y="-165.5" font-family="Helvetica,sans-Serif" font-size="10.00">playrho::ObjectPool</text>
<text text-anchor="middle" x="377.5" y="-154.5" font-family="Helvetica,sans-Serif" font-size="10.00">&lt; playrho::d2::Shape &gt;</text>
</a>
</g>
</g>
<!-- Node1&#45;&gt;Node6 -->
<g id="edge5" class="edge">
<title>Node1&#45;&gt;Node6</title>
<path fill="none" stroke="orange" stroke-dasharray="5,2" d="M150.36,-179.14C152.93,-178.92 155.49,-178.71 158,-178.5 209.93,-174.21 268.86,-169.93 312.42,-166.88"/>
<polygon fill="orange" stroke="orange" points="149.98,-175.66 140.32,-180.01 150.59,-182.63 149.98,-175.66"/>
<text text-anchor="middle" x="223" y="-181.5" font-family="Helvetica,sans-Serif" font-size="10.00"> &lt; playrho::d2::Shape &gt;</text>
</g>
<!-- Node7 -->
<g id="node7" class="node">
<title>Node7</title>
<g id="a_node7"><a xlink:href="classplayrho_1_1ObjectPool.html" target="_top" xlink:title=" ">
<polygon fill="white" stroke="black" points="315,-98.5 315,-128.5 440,-128.5 440,-98.5 315,-98.5"/>
<text text-anchor="start" x="323" y="-116.5" font-family="Helvetica,sans-Serif" font-size="10.00">playrho::ObjectPool</text>
<text text-anchor="middle" x="377.5" y="-105.5" font-family="Helvetica,sans-Serif" font-size="10.00">&lt; playrho::d2::Body &gt;</text>
</a>
</g>
</g>
<!-- Node1&#45;&gt;Node7 -->
<g id="edge6" class="edge">
<title>Node1&#45;&gt;Node7</title>
<path fill="none" stroke="orange" stroke-dasharray="5,2" d="M102.39,-173.01C118.74,-166.4 139.19,-158.74 158,-153.5 210.01,-139.01 270.48,-128.4 314.6,-121.77"/>
<polygon fill="orange" stroke="orange" points="100.71,-169.92 92.8,-176.96 103.38,-176.39 100.71,-169.92"/>
<text text-anchor="middle" x="223" y="-156.5" font-family="Helvetica,sans-Serif" font-size="10.00"> &lt; playrho::d2::Body &gt;</text>
</g>
<!-- Node8 -->
<g id="node8" class="node">
<title>Node8</title>
<g id="a_node8"><a xlink:href="classplayrho_1_1ObjectPool.html" target="_top" xlink:title=" ">
<polygon fill="white" stroke="black" points="306,-49.5 306,-79.5 449,-79.5 449,-49.5 306,-49.5"/>
<text text-anchor="start" x="314" y="-67.5" font-family="Helvetica,sans-Serif" font-size="10.00">playrho::ObjectPool</text>
<text text-anchor="middle" x="377.5" y="-56.5" font-family="Helvetica,sans-Serif" font-size="10.00">&lt; playrho::d2::Manifold &gt;</text>
</a>
</g>
</g>
<!-- Node1&#45;&gt;Node8 -->
<g id="edge7" class="edge">
<title>Node1&#45;&gt;Node8</title>
<path fill="none" stroke="orange" stroke-dasharray="5,2" d="M85.95,-169.01C101.96,-151.44 129.01,-124.96 158,-110.5 204.14,-87.48 261.31,-75.97 305.6,-70.21"/>
<polygon fill="orange" stroke="orange" points="83.03,-167.02 79.01,-176.82 88.27,-171.67 83.03,-167.02"/>
<text text-anchor="middle" x="223" y="-113.5" font-family="Helvetica,sans-Serif" font-size="10.00"> &lt; playrho::d2::Manifold &gt;</text>
</g>
<!-- Node9 -->
<g id="node9" class="node">
<title>Node9</title>
<g id="a_node9"><a xlink:href="classplayrho_1_1ObjectPool.html" target="_top" xlink:title=" ">
<polygon fill="white" stroke="black" points="318,-0.5 318,-30.5 437,-30.5 437,-0.5 318,-0.5"/>
<text text-anchor="start" x="326" y="-18.5" font-family="Helvetica,sans-Serif" font-size="10.00">playrho::ObjectPool</text>
<text text-anchor="middle" x="377.5" y="-7.5" font-family="Helvetica,sans-Serif" font-size="10.00">&lt; playrho::Contact &gt;</text>
</a>
</g>
</g>
<!-- Node1&#45;&gt;Node9 -->
<g id="edge8" class="edge">
<title>Node1&#45;&gt;Node9</title>
<path fill="none" stroke="orange" stroke-dasharray="5,2" d="M78.21,-167.46C90.14,-138.71 116.85,-84.68 158,-57.5 205.54,-26.1 270.84,-16.94 317.64,-14.82"/>
<polygon fill="orange" stroke="orange" points="74.93,-166.23 74.48,-176.81 81.43,-168.82 74.93,-166.23"/>
<text text-anchor="middle" x="223" y="-60.5" font-family="Helvetica,sans-Serif" font-size="10.00"> &lt; playrho::Contact &gt;</text>
</g>
</g>
</svg>
