<?xml version="1.0" encoding="UTF-8" standalone="no"?>
<!DOCTYPE svg PUBLIC "-//W3C//DTD SVG 1.1//EN"
 "http://www.w3.org/Graphics/SVG/1.1/DTD/svg11.dtd">
<!-- Generated by graphviz version 2.43.0 (0)
 -->
<!-- Title: playrho::detail::IndexingNamedType&lt; T, Tag &gt; Pages: 1 -->
<svg width="453pt" height="110pt"
 viewBox="0.00 0.00 453.00 110.00" xmlns="http://www.w3.org/2000/svg" xmlns:xlink="http://www.w3.org/1999/xlink">
<g id="graph0" class="graph" transform="scale(1 1) rotate(0) translate(4 106)">
<title>playrho::detail::IndexingNamedType&lt; T, Tag &gt;</title>
<polygon fill="white" stroke="transparent" points="-4,4 -4,-106 449,-106 449,4 -4,4"/>
<!-- Node1 -->
<g id="node1" class="node">
<title>Node1</title>
<g id="a_node1"><a xlink:title="An indexable, hashable, named &quot;strong type&quot; template class.">
<polygon fill="#bfbfbf" stroke="black" points="0,-36 0,-66 135,-66 135,-36 0,-36"/>
<text text-anchor="start" x="8" y="-54" font-family="Helvetica,sans-Serif" font-size="10.00">playrho::detail::Indexing</text>
<text text-anchor="middle" x="67.5" y="-43" font-family="Helvetica,sans-Serif" font-size="10.00">NamedType&lt; T, Tag &gt;</text>
</a>
</g>
</g>
<!-- Node2 -->
<g id="node2" class="node">
<title>Node2</title>
<g id="a_node2"><a xlink:href="classplayrho_1_1detail_1_1IndexingNamedType.html" target="_top" xlink:title=" ">
<polygon fill="white" stroke="black" points="288,-60.5 288,-101.5 445,-101.5 445,-60.5 288,-60.5"/>
<text text-anchor="start" x="296" y="-89.5" font-family="Helvetica,sans-Serif" font-size="10.00">playrho::detail::Indexing</text>
<text text-anchor="start" x="296" y="-78.5" font-family="Helvetica,sans-Serif" font-size="10.00">NamedType&lt; ShapeCounter,</text>
<text text-anchor="middle" x="366.5" y="-67.5" font-family="Helvetica,sans-Serif" font-size="10.00"> struct ShapeIdentifier &gt;</text>
</a>
</g>
</g>
<!-- Node1&#45;&gt;Node2 -->
<g id="edge1" class="edge">
<title>Node1&#45;&gt;Node2</title>
<path fill="none" stroke="orange" stroke-dasharray="5,2" d="M145.18,-58.75C188.99,-63.17 243.79,-68.71 287.77,-73.15"/>
<polygon fill="orange" stroke="orange" points="145.45,-55.26 135.15,-57.73 144.75,-62.22 145.45,-55.26"/>
<text text-anchor="start" x="153" y="-85" font-family="Helvetica,sans-Serif" font-size="10.00"> &lt; ShapeCounter, struct</text>
<text text-anchor="middle" x="211.5" y="-74" font-family="Helvetica,sans-Serif" font-size="10.00"> ShapeIdentifier &gt;</text>
</g>
<!-- Node3 -->
<g id="node3" class="node">
<title>Node3</title>
<g id="a_node3"><a xlink:href="classplayrho_1_1detail_1_1IndexingNamedType.html" target="_top" xlink:title=" ">
<polygon fill="white" stroke="black" points="290.5,-0.5 290.5,-41.5 442.5,-41.5 442.5,-0.5 290.5,-0.5"/>
<text text-anchor="start" x="298.5" y="-29.5" font-family="Helvetica,sans-Serif" font-size="10.00">playrho::detail::Indexing</text>
<text text-anchor="start" x="298.5" y="-18.5" font-family="Helvetica,sans-Serif" font-size="10.00">NamedType&lt; BodyCounter,</text>
<text text-anchor="middle" x="366.5" y="-7.5" font-family="Helvetica,sans-Serif" font-size="10.00"> struct BodyIdentifier &gt;</text>
</a>
</g>
</g>
<!-- Node1&#45;&gt;Node3 -->
<g id="edge2" class="edge">
<title>Node1&#45;&gt;Node3</title>
<path fill="none" stroke="orange" stroke-dasharray="5,2" d="M144.31,-34.27C147.24,-33.81 150.14,-33.38 153,-33 198.41,-26.92 249.69,-23.91 290.49,-22.43"/>
<polygon fill="orange" stroke="orange" points="143.57,-30.85 134.29,-35.96 144.74,-37.75 143.57,-30.85"/>
<text text-anchor="start" x="155.5" y="-47" font-family="Helvetica,sans-Serif" font-size="10.00"> &lt; BodyCounter, struct</text>
<text text-anchor="middle" x="211.5" y="-36" font-family="Helvetica,sans-Serif" font-size="10.00"> BodyIdentifier &gt;</text>
</g>
</g>
</svg>
