<?xml version="1.0" encoding="UTF-8" standalone="no"?>
<!DOCTYPE svg PUBLIC "-//W3C//DTD SVG 1.1//EN"
 "http://www.w3.org/Graphics/SVG/1.1/DTD/svg11.dtd">
<!-- Generated by graphviz version 2.43.0 (0)
 -->
<!-- Title: playrho::d2::ChainShapeConf Pages: 1 -->
<svg width="243pt" height="231pt"
 viewBox="0.00 0.00 243.00 231.00" xmlns="http://www.w3.org/2000/svg" xmlns:xlink="http://www.w3.org/1999/xlink">
<g id="graph0" class="graph" transform="scale(1 1) rotate(0) translate(4 227)">
<title>playrho::d2::ChainShapeConf</title>
<polygon fill="white" stroke="transparent" points="-4,4 -4,-227 239,-227 239,4 -4,4"/>
<!-- Node1 -->
<g id="node1" class="node">
<title>Node1</title>
<g id="a_node1"><a xlink:title="Chain shape configuration.">
<polygon fill="#bfbfbf" stroke="black" points="2,-0.5 2,-19.5 160,-19.5 160,-0.5 2,-0.5"/>
<text text-anchor="middle" x="81" y="-7.5" font-family="Helvetica,sans-Serif" font-size="10.00">playrho::d2::ChainShapeConf</text>
</a>
</g>
</g>
<!-- Node2 -->
<g id="node2" class="node">
<title>Node2</title>
<g id="a_node2"><a xlink:href="structplayrho_1_1d2_1_1ShapeBuilder.html" target="_top" xlink:title=" ">
<polygon fill="white" stroke="black" points="10,-57.5 10,-87.5 152,-87.5 152,-57.5 10,-57.5"/>
<text text-anchor="start" x="18" y="-75.5" font-family="Helvetica,sans-Serif" font-size="10.00">playrho::d2::ShapeBuilder</text>
<text text-anchor="middle" x="81" y="-64.5" font-family="Helvetica,sans-Serif" font-size="10.00">&lt; ChainShapeConf &gt;</text>
</a>
</g>
</g>
<!-- Node2&#45;&gt;Node1 -->
<g id="edge1" class="edge">
<title>Node2&#45;&gt;Node1</title>
<path fill="none" stroke="midnightblue" d="M81,-47.35C81,-37.51 81,-26.78 81,-19.54"/>
<polygon fill="midnightblue" stroke="midnightblue" points="77.5,-47.47 81,-57.47 84.5,-47.47 77.5,-47.47"/>
</g>
<!-- Node3 -->
<g id="node3" class="node">
<title>Node3</title>
<g id="a_node3"><a xlink:href="structplayrho_1_1d2_1_1BaseShapeConf.html" target="_top" xlink:title="Base configuration for initializing shapes.">
<polygon fill="white" stroke="black" points="0,-203.5 0,-222.5 154,-222.5 154,-203.5 0,-203.5"/>
<text text-anchor="middle" x="77" y="-210.5" font-family="Helvetica,sans-Serif" font-size="10.00">playrho::d2::BaseShapeConf</text>
</a>
</g>
</g>
<!-- Node3&#45;&gt;Node2 -->
<g id="edge2" class="edge">
<title>Node3&#45;&gt;Node2</title>
<path fill="none" stroke="midnightblue" d="M77.54,-193.25C78.35,-165.19 79.86,-112.88 80.59,-87.73"/>
<polygon fill="midnightblue" stroke="midnightblue" points="74.04,-193.24 77.25,-203.34 81.04,-193.44 74.04,-193.24"/>
</g>
<!-- Node4 -->
<g id="node4" class="node">
<title>Node4</title>
<g id="a_node4"><a xlink:href="structplayrho_1_1d2_1_1ShapeBuilder.html" target="_top" xlink:title="Builder configuration structure.">
<polygon fill="white" stroke="black" points="93,-135.5 93,-165.5 235,-165.5 235,-135.5 93,-135.5"/>
<text text-anchor="start" x="101" y="-153.5" font-family="Helvetica,sans-Serif" font-size="10.00">playrho::d2::ShapeBuilder</text>
<text text-anchor="middle" x="164" y="-142.5" font-family="Helvetica,sans-Serif" font-size="10.00">&lt; ConcreteConf &gt;</text>
</a>
</g>
</g>
<!-- Node3&#45;&gt;Node4 -->
<g id="edge4" class="edge">
<title>Node3&#45;&gt;Node4</title>
<path fill="none" stroke="midnightblue" d="M97.91,-197.46C111.84,-187.77 130.05,-175.11 143.83,-165.53"/>
<polygon fill="midnightblue" stroke="midnightblue" points="95.68,-194.75 89.46,-203.33 99.67,-200.5 95.68,-194.75"/>
</g>
<!-- Node4&#45;&gt;Node2 -->
<g id="edge3" class="edge">
<title>Node4&#45;&gt;Node2</title>
<path fill="none" stroke="orange" stroke-dasharray="5,2" d="M140.95,-128.39C126.79,-115.43 109.04,-99.18 96.54,-87.73"/>
<polygon fill="orange" stroke="orange" points="138.65,-131.03 148.39,-135.2 143.38,-125.87 138.65,-131.03"/>
<text text-anchor="middle" x="180" y="-109" font-family="Helvetica,sans-Serif" font-size="10.00"> &lt; ChainShapeConf &gt;</text>
</g>
</g>
</svg>
