<?xml version="1.0" encoding="UTF-8" standalone="no"?>
<!DOCTYPE svg PUBLIC "-//W3C//DTD SVG 1.1//EN"
 "http://www.w3.org/Graphics/SVG/1.1/DTD/svg11.dtd">
<!-- Generated by graphviz version 2.43.0 (0)
 -->
<!-- Title: playrho::detail::Checked&lt; ValueType, Checker, NoExcept &gt; Pages: 1 -->
<!--zoomable 529 -->
<svg id="main" version="1.1" xmlns="http://www.w3.org/2000/svg" xmlns:xlink="http://www.w3.org/1999/xlink" xml:space="preserve" onload="init(evt)">
<style type="text/css"><![CDATA[
.edge:hover path { stroke: red; }
.edge:hover polygon { stroke: red; fill: red; }
]]></style>
<script type="text/javascript"><![CDATA[
var edges = document.getElementsByTagName('g');
if (edges && edges.length) {
  for (var i=0;i<edges.length;i++) {
    if (edges[i].id.substr(0,4)=='edge') {
      edges[i].setAttribute('class','edge');
    }
  }
}
]]></script>
        <defs>
                <circle id="rim" cx="0" cy="0" r="7"/>
                <circle id="rim2" cx="0" cy="0" r="3.5"/>
                <g id="zoomPlus">
                        <use xlink:href="#rim" fill="#404040">
                                <set attributeName="fill" to="#808080" begin="zoomplus.mouseover" end="zoomplus.mouseout"/>
                        </use>
                        <path d="M-4,0h8M0,-4v8" fill="none" stroke="white" stroke-width="1.5" pointer-events="none"/>
                </g>
                <g id="zoomMin">
                        <use xlink:href="#rim" fill="#404040">
                                <set attributeName="fill" to="#808080" begin="zoomminus.mouseover" end="zoomminus.mouseout"/>
                        </use>
                        <path d="M-4,0h8" fill="none" stroke="white" stroke-width="1.5" pointer-events="none"/>
                </g>
                <g id="dirArrow">
                        <path fill="none" stroke="white" stroke-width="1.5" d="M0,-3.0v7 M-2.5,-0.5L0,-3.0L2.5,-0.5"/>
                </g>
               <g id="resetDef">
                       <use xlink:href="#rim2" fill="#404040">
                               <set attributeName="fill" to="#808080" begin="reset.mouseover" end="reset.mouseout"/>
                       </use>
               </g>
        </defs>

<script type="text/javascript">
var viewWidth = 453;
var viewHeight = 529;
var sectionId = 'dynsection-0';
</script>
<script xlink:href="svgpan.js"/>
<svg id="graph" class="graph">
<g id="viewport">
<title>playrho::detail::Checked&lt; ValueType, Checker, NoExcept &gt;</title>
<polygon fill="white" stroke="transparent" points="-4,4 -4,-525 449,-525 449,4 -4,4"/>
<!-- Node1 -->
<g id="node1" class="node">
<title>Node1</title>
<g id="a_node1"><a xlink:title="Class template for construction&#45;time constraining a type&#39;s value.">
<polygon fill="#bfbfbf" stroke="black" points="0,-245.5 0,-275.5 186,-275.5 186,-245.5 0,-245.5"/>
<text text-anchor="start" x="8" y="-263.5" font-family="Helvetica,sans-Serif" font-size="10.00">playrho::detail::Checked</text>
<text text-anchor="middle" x="93" y="-252.5" font-family="Helvetica,sans-Serif" font-size="10.00">&lt; ValueType, Checker, NoExcept &gt;</text>
</a>
</g>
</g>
<!-- Node2 -->
<g id="node2" class="node">
<title>Node2</title>
<g id="a_node2"><a xlink:href="classplayrho_1_1detail_1_1Checked.html" target="_top" xlink:title=" ">
<polygon fill="white" stroke="black" points="311,-490.5 311,-520.5 445,-520.5 445,-490.5 311,-490.5"/>
<text text-anchor="start" x="319" y="-508.5" font-family="Helvetica,sans-Serif" font-size="10.00">playrho::detail::Checked</text>
<text text-anchor="middle" x="378" y="-497.5" font-family="Helvetica,sans-Serif" font-size="10.00">&lt; AreaDensity &gt;</text>
</a>
</g>
</g>
<!-- Node1&#45;&gt;Node2 -->
<g id="edge1" class="edge">
<title>Node1&#45;&gt;Node2</title>
<path fill="none" stroke="orange" stroke-dasharray="5,2" d="M101.42,-285.38C114.98,-326.53 147.65,-408.64 204,-453.5 234.42,-477.72 275.96,-490.68 310.71,-497.6"/>
<polygon fill="orange" stroke="orange" points="104.69,-284.09 98.32,-275.62 98.02,-286.21 104.69,-284.09"/>
<text text-anchor="middle" x="248.5" y="-495.5" font-family="Helvetica,sans-Serif" font-size="10.00"> &lt; AreaDensity &gt;</text>
</g>
<!-- Node3 -->
<g id="node3" class="node">
<title>Node3</title>
<g id="a_node3"><a xlink:href="classplayrho_1_1detail_1_1Checked.html" target="_top" xlink:title=" ">
<polygon fill="white" stroke="black" points="311,-441.5 311,-471.5 445,-471.5 445,-441.5 311,-441.5"/>
<text text-anchor="start" x="319" y="-459.5" font-family="Helvetica,sans-Serif" font-size="10.00">playrho::detail::Checked</text>
<text text-anchor="middle" x="378" y="-448.5" font-family="Helvetica,sans-Serif" font-size="10.00">&lt; InvRotInertia &gt;</text>
</a>
</g>
</g>
<!-- Node1&#45;&gt;Node3 -->
<g id="edge2" class="edge">
<title>Node1&#45;&gt;Node3</title>
<path fill="none" stroke="orange" stroke-dasharray="5,2" d="M106.7,-284.64C124.41,-316.03 159.43,-370.48 204,-401.5 235.69,-423.55 276.66,-437.1 310.78,-445.22"/>
<polygon fill="orange" stroke="orange" points="109.66,-282.76 101.77,-275.7 103.53,-286.14 109.66,-282.76"/>
<text text-anchor="middle" x="248.5" y="-441.5" font-family="Helvetica,sans-Serif" font-size="10.00"> &lt; InvRotInertia &gt;</text>
</g>
<!-- Node4 -->
<g id="node4" class="node">
<title>Node4</title>
<g id="a_node4"><a xlink:href="classplayrho_1_1detail_1_1Checked.html" target="_top" xlink:title=" ">
<polygon fill="white" stroke="black" points="311,-392.5 311,-422.5 445,-422.5 445,-392.5 311,-392.5"/>
<text text-anchor="start" x="319" y="-410.5" font-family="Helvetica,sans-Serif" font-size="10.00">playrho::detail::Checked</text>
<text text-anchor="middle" x="378" y="-399.5" font-family="Helvetica,sans-Serif" font-size="10.00">&lt; Force &gt;</text>
</a>
</g>
</g>
<!-- Node1&#45;&gt;Node4 -->
<g id="edge3" class="edge">
<title>Node1&#45;&gt;Node4</title>
<path fill="none" stroke="orange" stroke-dasharray="5,2" d="M115.78,-282.85C136.73,-303.22 170.14,-332.91 204,-351.5 237.35,-369.81 277.63,-383.29 310.93,-392.43"/>
<polygon fill="orange" stroke="orange" points="118.22,-280.34 108.65,-275.8 113.3,-285.31 118.22,-280.34"/>
<text text-anchor="middle" x="248.5" y="-389.5" font-family="Helvetica,sans-Serif" font-size="10.00"> &lt; Force &gt;</text>
</g>
<!-- Node5 -->
<g id="node5" class="node">
<title>Node5</title>
<g id="a_node5"><a xlink:href="classplayrho_1_1detail_1_1Checked.html" target="_top" xlink:title=" ">
<polygon fill="white" stroke="black" points="311,-343.5 311,-373.5 445,-373.5 445,-343.5 311,-343.5"/>
<text text-anchor="start" x="319" y="-361.5" font-family="Helvetica,sans-Serif" font-size="10.00">playrho::detail::Checked</text>
<text text-anchor="middle" x="378" y="-350.5" font-family="Helvetica,sans-Serif" font-size="10.00">&lt; Mass &gt;</text>
</a>
</g>
</g>
<!-- Node1&#45;&gt;Node5 -->
<g id="edge4" class="edge">
<title>Node1&#45;&gt;Node5</title>
<path fill="none" stroke="orange" stroke-dasharray="5,2" d="M135.13,-279.97C155.58,-289.25 180.82,-300.13 204,-308.5 241.35,-321.98 284.22,-334.39 317.94,-343.48"/>
<polygon fill="orange" stroke="orange" points="136.35,-276.68 125.8,-275.69 133.44,-283.04 136.35,-276.68"/>
<text text-anchor="middle" x="248.5" y="-339.5" font-family="Helvetica,sans-Serif" font-size="10.00"> &lt; Mass &gt;</text>
</g>
<!-- Node6 -->
<g id="node6" class="node">
<title>Node6</title>
<g id="a_node6"><a xlink:href="classplayrho_1_1detail_1_1Checked.html" target="_top" xlink:title=" ">
<polygon fill="white" stroke="black" points="311,-294.5 311,-324.5 445,-324.5 445,-294.5 311,-294.5"/>
<text text-anchor="start" x="319" y="-312.5" font-family="Helvetica,sans-Serif" font-size="10.00">playrho::detail::Checked</text>
<text text-anchor="middle" x="378" y="-301.5" font-family="Helvetica,sans-Serif" font-size="10.00">&lt; Frequency &gt;</text>
</a>
</g>
</g>
<!-- Node1&#45;&gt;Node6 -->
<g id="edge5" class="edge">
<title>Node1&#45;&gt;Node6</title>
<path fill="none" stroke="orange" stroke-dasharray="5,2" d="M190.75,-277.25C230.22,-284.09 274.88,-291.82 310.56,-298"/>
<polygon fill="orange" stroke="orange" points="191.28,-273.79 180.83,-275.53 190.09,-280.69 191.28,-273.79"/>
<text text-anchor="middle" x="248.5" y="-296.5" font-family="Helvetica,sans-Serif" font-size="10.00"> &lt; Frequency &gt;</text>
</g>
<!-- Node7 -->
<g id="node7" class="node">
<title>Node7</title>
<g id="a_node7"><a xlink:href="classplayrho_1_1detail_1_1Checked.html" target="_top" xlink:title=" ">
<polygon fill="white" stroke="black" points="311,-245.5 311,-275.5 445,-275.5 445,-245.5 311,-245.5"/>
<text text-anchor="start" x="319" y="-263.5" font-family="Helvetica,sans-Serif" font-size="10.00">playrho::detail::Checked</text>
<text text-anchor="middle" x="378" y="-252.5" font-family="Helvetica,sans-Serif" font-size="10.00">&lt; Torque &gt;</text>
</a>
</g>
</g>
<!-- Node1&#45;&gt;Node7 -->
<g id="edge6" class="edge">
<title>Node1&#45;&gt;Node7</title>
<path fill="none" stroke="orange" stroke-dasharray="5,2" d="M196.39,-260.5C234.54,-260.5 276.8,-260.5 310.85,-260.5"/>
<polygon fill="orange" stroke="orange" points="196.27,-257 186.27,-260.5 196.27,-264 196.27,-257"/>
<text text-anchor="middle" x="248.5" y="-263.5" font-family="Helvetica,sans-Serif" font-size="10.00"> &lt; Torque &gt;</text>
</g>
<!-- Node8 -->
<g id="node8" class="node">
<title>Node8</title>
<g id="a_node8"><a xlink:href="classplayrho_1_1detail_1_1Checked.html" target="_top" xlink:title=" ">
<polygon fill="white" stroke="black" points="311,-196.5 311,-226.5 445,-226.5 445,-196.5 311,-196.5"/>
<text text-anchor="start" x="319" y="-214.5" font-family="Helvetica,sans-Serif" font-size="10.00">playrho::detail::Checked</text>
<text text-anchor="middle" x="378" y="-203.5" font-family="Helvetica,sans-Serif" font-size="10.00">&lt; Length &gt;</text>
</a>
</g>
</g>
<!-- Node1&#45;&gt;Node8 -->
<g id="edge7" class="edge">
<title>Node1&#45;&gt;Node8</title>
<path fill="none" stroke="orange" stroke-dasharray="5,2" d="M190.75,-243.75C230.22,-236.91 274.88,-229.18 310.56,-223"/>
<polygon fill="orange" stroke="orange" points="190.09,-240.31 180.83,-245.47 191.28,-247.21 190.09,-240.31"/>
<text text-anchor="middle" x="248.5" y="-242.5" font-family="Helvetica,sans-Serif" font-size="10.00"> &lt; Length &gt;</text>
</g>
<!-- Node9 -->
<g id="node9" class="node">
<title>Node9</title>
<g id="a_node9"><a xlink:href="classplayrho_1_1detail_1_1Checked.html" target="_top" xlink:title=" ">
<polygon fill="white" stroke="black" points="311,-147.5 311,-177.5 445,-177.5 445,-147.5 311,-147.5"/>
<text text-anchor="start" x="319" y="-165.5" font-family="Helvetica,sans-Serif" font-size="10.00">playrho::detail::Checked</text>
<text text-anchor="middle" x="378" y="-154.5" font-family="Helvetica,sans-Serif" font-size="10.00">&lt; InvMass &gt;</text>
</a>
</g>
</g>
<!-- Node1&#45;&gt;Node9 -->
<g id="edge8" class="edge">
<title>Node1&#45;&gt;Node9</title>
<path fill="none" stroke="orange" stroke-dasharray="5,2" d="M133.9,-241.07C154.54,-231.45 180.31,-220.08 204,-211.5 240.54,-198.26 282.46,-186.31 315.88,-177.53"/>
<polygon fill="orange" stroke="orange" points="132.36,-237.93 124.81,-245.35 135.34,-244.26 132.36,-237.93"/>
<text text-anchor="middle" x="248.5" y="-214.5" font-family="Helvetica,sans-Serif" font-size="10.00"> &lt; InvMass &gt;</text>
</g>
<!-- Node10 -->
<g id="node10" class="node">
<title>Node10</title>
<g id="a_node10"><a xlink:href="classplayrho_1_1detail_1_1Checked.html" target="_top" xlink:title=" ">
<polygon fill="white" stroke="black" points="311,-98.5 311,-128.5 445,-128.5 445,-98.5 311,-98.5"/>
<text text-anchor="start" x="319" y="-116.5" font-family="Helvetica,sans-Serif" font-size="10.00">playrho::detail::Checked</text>
<text text-anchor="middle" x="378" y="-105.5" font-family="Helvetica,sans-Serif" font-size="10.00">&lt; Real &gt;</text>
</a>
</g>
</g>
<!-- Node1&#45;&gt;Node10 -->
<g id="edge9" class="edge">
<title>Node1&#45;&gt;Node10</title>
<path fill="none" stroke="orange" stroke-dasharray="5,2" d="M115.36,-238.21C136.24,-217.56 169.79,-187.28 204,-168.5 237.29,-150.22 277.57,-136.96 310.88,-128.05"/>
<polygon fill="orange" stroke="orange" points="112.83,-235.78 108.26,-245.34 117.79,-240.72 112.83,-235.78"/>
<text text-anchor="middle" x="248.5" y="-171.5" font-family="Helvetica,sans-Serif" font-size="10.00"> &lt; Real &gt;</text>
</g>
<!-- Node11 -->
<g id="node11" class="node">
<title>Node11</title>
<g id="a_node11"><a xlink:href="classplayrho_1_1detail_1_1Checked.html" target="_top" xlink:title=" ">
<polygon fill="white" stroke="black" points="311,-49.5 311,-79.5 445,-79.5 445,-49.5 311,-49.5"/>
<text text-anchor="start" x="319" y="-67.5" font-family="Helvetica,sans-Serif" font-size="10.00">playrho::detail::Checked</text>
<text text-anchor="middle" x="378" y="-56.5" font-family="Helvetica,sans-Serif" font-size="10.00">&lt; RotInertia &gt;</text>
</a>
</g>
</g>
<!-- Node1&#45;&gt;Node11 -->
<g id="edge10" class="edge">
<title>Node1&#45;&gt;Node11</title>
<path fill="none" stroke="orange" stroke-dasharray="5,2" d="M106.64,-236.15C124.27,-204.5 159.2,-149.62 204,-118.5 235.66,-96.51 276.63,-83.2 310.75,-75.3"/>
<polygon fill="orange" stroke="orange" points="103.43,-234.72 101.73,-245.17 109.58,-238.06 103.43,-234.72"/>
<text text-anchor="middle" x="248.5" y="-121.5" font-family="Helvetica,sans-Serif" font-size="10.00"> &lt; RotInertia &gt;</text>
</g>
<!-- Node12 -->
<g id="node12" class="node">
<title>Node12</title>
<g id="a_node12"><a xlink:href="classplayrho_1_1detail_1_1Checked.html" target="_top" xlink:title=" ">
<polygon fill="white" stroke="black" points="311,-0.5 311,-30.5 445,-30.5 445,-0.5 311,-0.5"/>
<text text-anchor="start" x="319" y="-18.5" font-family="Helvetica,sans-Serif" font-size="10.00">playrho::detail::Checked</text>
<text text-anchor="middle" x="378" y="-7.5" font-family="Helvetica,sans-Serif" font-size="10.00">&lt; Angle &gt;</text>
</a>
</g>
</g>
<!-- Node1&#45;&gt;Node12 -->
<g id="edge11" class="edge">
<title>Node1&#45;&gt;Node12</title>
<path fill="none" stroke="orange" stroke-dasharray="5,2" d="M101.11,-235.87C114.37,-194.39 146.81,-110.74 204,-65.5 234.4,-41.45 275.94,-28.97 310.7,-22.49"/>
<polygon fill="orange" stroke="orange" points="97.76,-234.86 98.15,-245.45 104.45,-236.93 97.76,-234.86"/>
<text text-anchor="middle" x="248.5" y="-68.5" font-family="Helvetica,sans-Serif" font-size="10.00"> &lt; Angle &gt;</text>
</g>
</g>
</svg>
        <g id="navigator" transform="translate(0 0)" fill="#404254">
                <rect fill="#f2f5e9" fill-opacity="0.5" stroke="#606060" stroke-width=".5" x="0" y="0" width="60" height="60"/>
                <use id="zoomplus" xlink:href="#zoomPlus" x="17" y="9" onmousedown="handleZoom(evt,'in')"/>
                <use id="zoomminus" xlink:href="#zoomMin" x="42" y="9" onmousedown="handleZoom(evt,'out')"/>
                <use id="reset" xlink:href="#resetDef" x="30" y="36" onmousedown="handleReset()"/>
                <g id="arrowUp" xlink:href="#dirArrow" transform="translate(30 24)" onmousedown="handlePan(0,-1)">
                  <use xlink:href="#rim" fill="#404040">
                        <set attributeName="fill" to="#808080" begin="arrowUp.mouseover" end="arrowUp.mouseout"/>
                  </use>
                  <path fill="none" stroke="white" stroke-width="1.5" d="M0,-3.0v7 M-2.5,-0.5L0,-3.0L2.5,-0.5"/>
                </g>
                <g id="arrowRight" xlink:href="#dirArrow" transform="rotate(90) translate(36 -43)" onmousedown="handlePan(1,0)">
                  <use xlink:href="#rim" fill="#404040">
                        <set attributeName="fill" to="#808080" begin="arrowRight.mouseover" end="arrowRight.mouseout"/>
                  </use>
                  <path fill="none" stroke="white" stroke-width="1.5" d="M0,-3.0v7 M-2.5,-0.5L0,-3.0L2.5,-0.5"/>
                </g>
                <g id="arrowDown" xlink:href="#dirArrow" transform="rotate(180) translate(-30 -48)" onmousedown="handlePan(0,1)">
                  <use xlink:href="#rim" fill="#404040">
                        <set attributeName="fill" to="#808080" begin="arrowDown.mouseover" end="arrowDown.mouseout"/>
                  </use>
                  <path fill="none" stroke="white" stroke-width="1.5" d="M0,-3.0v7 M-2.5,-0.5L0,-3.0L2.5,-0.5"/>
                </g>
                <g id="arrowLeft" xlink:href="#dirArrow" transform="rotate(270) translate(-36 17)" onmousedown="handlePan(-1,0)">
                  <use xlink:href="#rim" fill="#404040">
                        <set attributeName="fill" to="#808080" begin="arrowLeft.mouseover" end="arrowLeft.mouseout"/>
                  </use>
                  <path fill="none" stroke="white" stroke-width="1.5" d="M0,-3.0v7 M-2.5,-0.5L0,-3.0L2.5,-0.5"/>
                </g>
        </g>
        <svg viewBox="0 0 15 15" width="100%" height="30px" preserveAspectRatio="xMaxYMin meet">
         <g id="arrow_out" transform="scale(0.3 0.3)">
          <a xlink:href="classplayrho_1_1detail_1_1Checked__inherit__graph_org.svg" target="_base">
           <rect id="button" ry="5" rx="5" y="6" x="6" height="38" width="38"
                fill="#f2f5e9" fill-opacity="0.5" stroke="#606060" stroke-width="1.0"/>
           <path id="arrow"
             d="M 11.500037,31.436501 C 11.940474,20.09759 22.043105,11.32322 32.158766,21.979434 L 37.068811,17.246167 C 37.068811,17.246167 37.088388,32 37.088388,32 L 22.160133,31.978069 C 22.160133,31.978069 26.997745,27.140456 26.997745,27.140456 C 18.528582,18.264221 13.291696,25.230495 11.500037,31.436501 z"
             style="fill:#404040;"/>
          </a>
         </g>
        </svg>
</svg>
