<?xml version="1.0" encoding="UTF-8" standalone="no"?>
<!DOCTYPE svg PUBLIC "-//W3C//DTD SVG 1.1//EN"
 "http://www.w3.org/Graphics/SVG/1.1/DTD/svg11.dtd">
<!-- Generated by graphviz version 2.43.0 (0)
 -->
<!-- Title: Library/include/playrho/ConstraintSolverConf.hpp Pages: 1 -->
<!--zoomable 442 -->
<svg id="main" version="1.1" xmlns="http://www.w3.org/2000/svg" xmlns:xlink="http://www.w3.org/1999/xlink" xml:space="preserve" onload="init(evt)">
<style type="text/css"><![CDATA[
.edge:hover path { stroke: red; }
.edge:hover polygon { stroke: red; fill: red; }
]]></style>
<script type="text/javascript"><![CDATA[
var edges = document.getElementsByTagName('g');
if (edges && edges.length) {
  for (var i=0;i<edges.length;i++) {
    if (edges[i].id.substr(0,4)=='edge') {
      edges[i].setAttribute('class','edge');
    }
  }
}
]]></script>
        <defs>
                <circle id="rim" cx="0" cy="0" r="7"/>
                <circle id="rim2" cx="0" cy="0" r="3.5"/>
                <g id="zoomPlus">
                        <use xlink:href="#rim" fill="#404040">
                                <set attributeName="fill" to="#808080" begin="zoomplus.mouseover" end="zoomplus.mouseout"/>
                        </use>
                        <path d="M-4,0h8M0,-4v8" fill="none" stroke="white" stroke-width="1.5" pointer-events="none"/>
                </g>
                <g id="zoomMin">
                        <use xlink:href="#rim" fill="#404040">
                                <set attributeName="fill" to="#808080" begin="zoomminus.mouseover" end="zoomminus.mouseout"/>
                        </use>
                        <path d="M-4,0h8" fill="none" stroke="white" stroke-width="1.5" pointer-events="none"/>
                </g>
                <g id="dirArrow">
                        <path fill="none" stroke="white" stroke-width="1.5" d="M0,-3.0v7 M-2.5,-0.5L0,-3.0L2.5,-0.5"/>
                </g>
               <g id="resetDef">
                       <use xlink:href="#rim2" fill="#404040">
                               <set attributeName="fill" to="#808080" begin="reset.mouseover" end="reset.mouseout"/>
                       </use>
               </g>
        </defs>

<script type="text/javascript">
var viewWidth = 1081;
var viewHeight = 442;
var sectionId = 'dynsection-0';
</script>
<script xlink:href="svgpan.js"/>
<svg id="graph" class="graph">
<g id="viewport">
<title>Library/include/playrho/ConstraintSolverConf.hpp</title>
<polygon fill="white" stroke="transparent" points="-4,4 -4,-438 1076.5,-438 1076.5,4 -4,4"/>
<!-- Node1 -->
<g id="node1" class="node">
<title>Node1</title>
<g id="a_node1"><a xlink:title="Definition of the ConstraintSolverConf class and closely related code.">
<polygon fill="#bfbfbf" stroke="black" points="639,-403.5 639,-433.5 782,-433.5 782,-403.5 639,-403.5"/>
<text text-anchor="start" x="647" y="-421.5" font-family="Helvetica,sans-Serif" font-size="10.00">Library/include/playrho</text>
<text text-anchor="middle" x="710.5" y="-410.5" font-family="Helvetica,sans-Serif" font-size="10.00">/ConstraintSolverConf.hpp</text>
</a>
</g>
</g>
<!-- Node2 -->
<g id="node2" class="node">
<title>Node2</title>
<g id="a_node2"><a xlink:href="Real_8hpp.html" target="_top" xlink:title="Real number definition file.">
<polygon fill="white" stroke="black" points="609,-179.5 609,-198.5 708,-198.5 708,-179.5 609,-179.5"/>
<text text-anchor="middle" x="658.5" y="-186.5" font-family="Helvetica,sans-Serif" font-size="10.00">playrho/Real.hpp</text>
</a>
</g>
</g>
<!-- Node1&#45;&gt;Node2 -->
<g id="edge1" class="edge">
<title>Node1&#45;&gt;Node2</title>
<path fill="none" stroke="midnightblue" d="M711.49,-403.18C713.14,-371.61 714.32,-294.14 691.5,-235 687.5,-224.65 680.48,-214.55 673.93,-206.55"/>
<polygon fill="midnightblue" stroke="midnightblue" points="676.38,-204.03 667.18,-198.78 671.1,-208.62 676.38,-204.03"/>
</g>
<!-- Node11 -->
<g id="node11" class="node">
<title>Node11</title>
<g id="a_node11"><a xlink:href="Settings_8hpp.html" target="_top" xlink:title="Types and default settings file.">
<polygon fill="white" stroke="black" points="739,-347.5 739,-366.5 856,-366.5 856,-347.5 739,-347.5"/>
<text text-anchor="middle" x="797.5" y="-354.5" font-family="Helvetica,sans-Serif" font-size="10.00">playrho/Settings.hpp</text>
</a>
</g>
</g>
<!-- Node1&#45;&gt;Node11 -->
<g id="edge11" class="edge">
<title>Node1&#45;&gt;Node11</title>
<path fill="none" stroke="midnightblue" d="M731.12,-403.4C744.8,-394.04 762.71,-381.79 776.48,-372.38"/>
<polygon fill="midnightblue" stroke="midnightblue" points="778.56,-375.19 784.84,-366.66 774.61,-369.41 778.56,-375.19"/>
</g>
<!-- Node14 -->
<g id="node14" class="node">
<title>Node14</title>
<g id="a_node14"><a xlink:href="Units_8hpp.html" target="_top" xlink:title="Declarations for physical units possibly backed by strong types.">
<polygon fill="white" stroke="black" points="405,-291.5 405,-310.5 508,-310.5 508,-291.5 405,-291.5"/>
<text text-anchor="middle" x="456.5" y="-298.5" font-family="Helvetica,sans-Serif" font-size="10.00">playrho/Units.hpp</text>
</a>
</g>
</g>
<!-- Node1&#45;&gt;Node14 -->
<g id="edge32" class="edge">
<title>Node1&#45;&gt;Node14</title>
<path fill="none" stroke="midnightblue" d="M679.61,-403.45C629.76,-380.79 532.35,-336.49 484.45,-314.71"/>
<polygon fill="midnightblue" stroke="midnightblue" points="485.84,-311.5 475.29,-310.54 482.94,-317.87 485.84,-311.5"/>
</g>
<!-- Node3 -->
<g id="node3" class="node">
<title>Node3</title>
<g id="a_node3"><a xlink:title=" ">
<polygon fill="white" stroke="#bfbfbf" points="719.5,-118 719.5,-137 763.5,-137 763.5,-118 719.5,-118"/>
<text text-anchor="middle" x="741.5" y="-125" font-family="Helvetica,sans-Serif" font-size="10.00">limits</text>
</a>
</g>
</g>
<!-- Node2&#45;&gt;Node3 -->
<g id="edge2" class="edge">
<title>Node2&#45;&gt;Node3</title>
<path fill="none" stroke="midnightblue" d="M670.39,-179.48C683.7,-169.93 705.5,-154.31 721.46,-142.87"/>
<polygon fill="midnightblue" stroke="midnightblue" points="723.54,-145.68 729.63,-137.01 719.46,-139.99 723.54,-145.68"/>
</g>
<!-- Node4 -->
<g id="node4" class="node">
<title>Node4</title>
<g id="a_node4"><a xlink:href="Templates_8hpp.html" target="_top" xlink:title="Definitions of miscellaneous template related code.">
<polygon fill="white" stroke="black" points="236.5,-118 236.5,-137 364.5,-137 364.5,-118 236.5,-118"/>
<text text-anchor="middle" x="300.5" y="-125" font-family="Helvetica,sans-Serif" font-size="10.00">playrho/Templates.hpp</text>
</a>
</g>
</g>
<!-- Node2&#45;&gt;Node4 -->
<g id="edge3" class="edge">
<title>Node2&#45;&gt;Node4</title>
<path fill="none" stroke="midnightblue" d="M608.97,-180.79C552.05,-172.35 455.86,-157.68 373.5,-143 366.66,-141.78 359.48,-140.44 352.39,-139.07"/>
<polygon fill="midnightblue" stroke="midnightblue" points="352.62,-135.55 342.14,-137.07 351.28,-142.42 352.62,-135.55"/>
</g>
<!-- Node5 -->
<g id="node5" class="node">
<title>Node5</title>
<g id="a_node5"><a xlink:title=" ">
<polygon fill="white" stroke="#bfbfbf" points="276,-56.5 276,-75.5 325,-75.5 325,-56.5 276,-56.5"/>
<text text-anchor="middle" x="300.5" y="-63.5" font-family="Helvetica,sans-Serif" font-size="10.00">cstdlib</text>
</a>
</g>
</g>
<!-- Node4&#45;&gt;Node5 -->
<g id="edge4" class="edge">
<title>Node4&#45;&gt;Node5</title>
<path fill="none" stroke="midnightblue" d="M300.5,-117.98C300.5,-109.58 300.5,-96.48 300.5,-85.66"/>
<polygon fill="midnightblue" stroke="midnightblue" points="304,-85.51 300.5,-75.51 297,-85.51 304,-85.51"/>
</g>
<!-- Node6 -->
<g id="node6" class="node">
<title>Node6</title>
<g id="a_node6"><a xlink:title=" ">
<polygon fill="white" stroke="#bfbfbf" points="383,-0.5 383,-19.5 452,-19.5 452,-0.5 383,-0.5"/>
<text text-anchor="middle" x="417.5" y="-7.5" font-family="Helvetica,sans-Serif" font-size="10.00">type_traits</text>
</a>
</g>
</g>
<!-- Node4&#45;&gt;Node6 -->
<g id="edge5" class="edge">
<title>Node4&#45;&gt;Node6</title>
<path fill="none" stroke="midnightblue" d="M309.29,-117.82C328.86,-98.5 376.23,-51.74 401.31,-26.98"/>
<polygon fill="midnightblue" stroke="midnightblue" points="403.95,-29.3 408.6,-19.78 399.03,-24.32 403.95,-29.3"/>
</g>
<!-- Node7 -->
<g id="node7" class="node">
<title>Node7</title>
<g id="a_node7"><a xlink:href="detail_2Templates_8hpp.html" target="_top" xlink:title="Low&#45;level declarations for general class &amp; function templates.">
<polygon fill="white" stroke="black" points="16.5,-56.5 16.5,-75.5 174.5,-75.5 174.5,-56.5 16.5,-56.5"/>
<text text-anchor="middle" x="95.5" y="-63.5" font-family="Helvetica,sans-Serif" font-size="10.00">playrho/detail/Templates.hpp</text>
</a>
</g>
</g>
<!-- Node4&#45;&gt;Node7 -->
<g id="edge6" class="edge">
<title>Node4&#45;&gt;Node7</title>
<path fill="none" stroke="midnightblue" d="M271.13,-117.98C235.2,-107.55 174.27,-89.86 134.46,-78.31"/>
<polygon fill="midnightblue" stroke="midnightblue" points="135.4,-74.94 124.82,-75.51 133.45,-81.66 135.4,-74.94"/>
</g>
<!-- Node7&#45;&gt;Node6 -->
<g id="edge9" class="edge">
<title>Node7&#45;&gt;Node6</title>
<path fill="none" stroke="midnightblue" d="M146.52,-56.44C208.75,-46.01 312.98,-28.53 372.4,-18.56"/>
<polygon fill="midnightblue" stroke="midnightblue" points="373.31,-21.96 382.6,-16.85 372.15,-15.06 373.31,-21.96"/>
</g>
<!-- Node8 -->
<g id="node8" class="node">
<title>Node8</title>
<g id="a_node8"><a xlink:title=" ">
<polygon fill="white" stroke="#bfbfbf" points="63.5,-0.5 63.5,-19.5 127.5,-19.5 127.5,-0.5 63.5,-0.5"/>
<text text-anchor="middle" x="95.5" y="-7.5" font-family="Helvetica,sans-Serif" font-size="10.00">algorithm</text>
</a>
</g>
</g>
<!-- Node7&#45;&gt;Node8 -->
<g id="edge7" class="edge">
<title>Node7&#45;&gt;Node8</title>
<path fill="none" stroke="midnightblue" d="M95.5,-56.08C95.5,-49.01 95.5,-38.86 95.5,-29.99"/>
<polygon fill="midnightblue" stroke="midnightblue" points="99,-29.75 95.5,-19.75 92,-29.75 99,-29.75"/>
</g>
<!-- Node9 -->
<g id="node9" class="node">
<title>Node9</title>
<g id="a_node9"><a xlink:title=" ">
<polygon fill="white" stroke="#bfbfbf" points="146,-0.5 146,-19.5 199,-19.5 199,-0.5 146,-0.5"/>
<text text-anchor="middle" x="172.5" y="-7.5" font-family="Helvetica,sans-Serif" font-size="10.00">iterator</text>
</a>
</g>
</g>
<!-- Node7&#45;&gt;Node9 -->
<g id="edge8" class="edge">
<title>Node7&#45;&gt;Node9</title>
<path fill="none" stroke="midnightblue" d="M107.87,-56.32C119.66,-48.06 137.63,-35.45 151.64,-25.63"/>
<polygon fill="midnightblue" stroke="midnightblue" points="153.98,-28.26 160.16,-19.65 149.96,-22.53 153.98,-28.26"/>
</g>
<!-- Node10 -->
<g id="node10" class="node">
<title>Node10</title>
<g id="a_node10"><a xlink:title=" ">
<polygon fill="white" stroke="#bfbfbf" points="0,-0.5 0,-19.5 45,-19.5 45,-0.5 0,-0.5"/>
<text text-anchor="middle" x="22.5" y="-7.5" font-family="Helvetica,sans-Serif" font-size="10.00">utility</text>
</a>
</g>
</g>
<!-- Node7&#45;&gt;Node10 -->
<g id="edge10" class="edge">
<title>Node7&#45;&gt;Node10</title>
<path fill="none" stroke="midnightblue" d="M83.77,-56.32C72.66,-48.11 55.76,-35.6 42.52,-25.81"/>
<polygon fill="midnightblue" stroke="midnightblue" points="44.56,-22.97 34.44,-19.83 40.4,-28.59 44.56,-22.97"/>
</g>
<!-- Node11&#45;&gt;Node2 -->
<g id="edge15" class="edge">
<title>Node11&#45;&gt;Node2</title>
<path fill="none" stroke="midnightblue" d="M792.56,-347.34C777.63,-321.23 733.44,-244.45 724.5,-235 712.65,-222.48 696.75,-211.5 683.52,-203.53"/>
<polygon fill="midnightblue" stroke="midnightblue" points="685.28,-200.5 674.87,-198.51 681.76,-206.56 685.28,-200.5"/>
</g>
<!-- Node11&#45;&gt;Node3 -->
<g id="edge13" class="edge">
<title>Node11&#45;&gt;Node3</title>
<path fill="none" stroke="midnightblue" d="M795.37,-347.36C787.18,-314.07 757.54,-193.65 746.07,-147.07"/>
<polygon fill="midnightblue" stroke="midnightblue" points="749.42,-146.02 743.63,-137.15 742.62,-147.7 749.42,-146.02"/>
</g>
<!-- Node11&#45;&gt;Node6 -->
<g id="edge14" class="edge">
<title>Node11&#45;&gt;Node6</title>
<path fill="none" stroke="midnightblue" d="M801.14,-347.34C808.51,-329 824.5,-284.74 824.5,-246 824.5,-246 824.5,-246 824.5,-126.5 824.5,-51.86 567.99,-22.94 462.25,-14.19"/>
<polygon fill="midnightblue" stroke="midnightblue" points="462.45,-10.69 452.2,-13.38 461.89,-17.67 462.45,-10.69"/>
</g>
<!-- Node12 -->
<g id="node12" class="node">
<title>Node12</title>
<g id="a_node12"><a xlink:title=" ">
<polygon fill="white" stroke="#bfbfbf" points="1022.5,-179.5 1022.5,-198.5 1072.5,-198.5 1072.5,-179.5 1022.5,-179.5"/>
<text text-anchor="middle" x="1047.5" y="-186.5" font-family="Helvetica,sans-Serif" font-size="10.00">cstdint</text>
</a>
</g>
</g>
<!-- Node11&#45;&gt;Node12 -->
<g id="edge12" class="edge">
<title>Node11&#45;&gt;Node12</title>
<path fill="none" stroke="midnightblue" d="M856.3,-348.95C907.69,-341.72 977.29,-328.98 998.5,-311 1029.66,-284.58 1041.23,-235.38 1045.35,-208.57"/>
<polygon fill="midnightblue" stroke="midnightblue" points="1048.83,-208.97 1046.7,-198.59 1041.89,-208.03 1048.83,-208.97"/>
</g>
<!-- Node13 -->
<g id="node13" class="node">
<title>Node13</title>
<g id="a_node13"><a xlink:href="RealConstants_8hpp.html" target="_top" xlink:title="Definitions file for constant expressions of type Real.">
<polygon fill="white" stroke="black" points="534.5,-235.5 534.5,-254.5 682.5,-254.5 682.5,-235.5 534.5,-235.5"/>
<text text-anchor="middle" x="608.5" y="-242.5" font-family="Helvetica,sans-Serif" font-size="10.00">playrho/RealConstants.hpp</text>
</a>
</g>
</g>
<!-- Node11&#45;&gt;Node13 -->
<g id="edge16" class="edge">
<title>Node11&#45;&gt;Node13</title>
<path fill="none" stroke="midnightblue" d="M782.67,-347.37C749.96,-328.33 671.41,-282.62 631.95,-259.65"/>
<polygon fill="midnightblue" stroke="midnightblue" points="633.66,-256.6 623.26,-254.59 630.14,-262.65 633.66,-256.6"/>
</g>
<!-- Node11&#45;&gt;Node14 -->
<g id="edge18" class="edge">
<title>Node11&#45;&gt;Node14</title>
<path fill="none" stroke="midnightblue" d="M743.47,-347.44C682.15,-337.73 582.32,-321.92 518.05,-311.75"/>
<polygon fill="midnightblue" stroke="midnightblue" points="518.47,-308.27 508.05,-310.16 517.38,-315.18 518.47,-308.27"/>
</g>
<!-- Node18 -->
<g id="node18" class="node">
<title>Node18</title>
<g id="a_node18"><a xlink:href="WiderType_8hpp.html" target="_top" xlink:title="Definition of the WiderType alias template.">
<polygon fill="white" stroke="black" points="861.5,-291.5 861.5,-310.5 989.5,-310.5 989.5,-291.5 861.5,-291.5"/>
<text text-anchor="middle" x="925.5" y="-298.5" font-family="Helvetica,sans-Serif" font-size="10.00">playrho/WiderType.hpp</text>
</a>
</g>
</g>
<!-- Node11&#45;&gt;Node18 -->
<g id="edge27" class="edge">
<title>Node11&#45;&gt;Node18</title>
<path fill="none" stroke="midnightblue" d="M817.78,-347.44C838.85,-338.56 872.02,-324.56 895.99,-314.45"/>
<polygon fill="midnightblue" stroke="midnightblue" points="897.46,-317.63 905.31,-310.52 894.74,-311.18 897.46,-317.63"/>
</g>
<!-- Node13&#45;&gt;Node2 -->
<g id="edge17" class="edge">
<title>Node13&#45;&gt;Node2</title>
<path fill="none" stroke="midnightblue" d="M616.76,-235.08C623.96,-227.3 634.61,-215.8 643.35,-206.37"/>
<polygon fill="midnightblue" stroke="midnightblue" points="646.17,-208.47 650.4,-198.75 641.03,-203.71 646.17,-208.47"/>
</g>
<!-- Node14&#45;&gt;Node2 -->
<g id="edge21" class="edge">
<title>Node14&#45;&gt;Node2</title>
<path fill="none" stroke="midnightblue" d="M463.64,-291.17C475.25,-277.35 499.54,-250.59 525.5,-235 551.44,-219.42 583.5,-208.37 609.64,-201.12"/>
<polygon fill="midnightblue" stroke="midnightblue" points="610.59,-204.49 619.34,-198.52 608.78,-197.72 610.59,-204.49"/>
</g>
<!-- Node14&#45;&gt;Node4 -->
<g id="edge23" class="edge">
<title>Node14&#45;&gt;Node4</title>
<path fill="none" stroke="midnightblue" d="M404.88,-294.63C377.47,-289.09 345.42,-277.83 325.5,-255 298.97,-224.6 297.4,-174.29 298.8,-147.19"/>
<polygon fill="midnightblue" stroke="midnightblue" points="302.3,-147.34 299.52,-137.12 295.32,-146.84 302.3,-147.34"/>
</g>
<!-- Node14&#45;&gt;Node6 -->
<g id="edge20" class="edge">
<title>Node14&#45;&gt;Node6</title>
<path fill="none" stroke="midnightblue" d="M404.94,-296.34C344.09,-290.98 247.82,-278.93 221.5,-255 199.23,-234.75 202.5,-220.1 202.5,-190 202.5,-190 202.5,-190 202.5,-126.5 202.5,-49.84 309.89,-23.85 372.88,-15.19"/>
<polygon fill="midnightblue" stroke="midnightblue" points="373.48,-18.65 382.96,-13.9 372.59,-11.7 373.48,-18.65"/>
</g>
<!-- Node14&#45;&gt;Node13 -->
<g id="edge22" class="edge">
<title>Node14&#45;&gt;Node13</title>
<path fill="none" stroke="midnightblue" d="M480.58,-291.44C506.04,-282.4 546.39,-268.06 574.96,-257.92"/>
<polygon fill="midnightblue" stroke="midnightblue" points="576.28,-261.16 584.53,-254.52 573.93,-254.57 576.28,-261.16"/>
</g>
<!-- Node15 -->
<g id="node15" class="node">
<title>Node15</title>
<g id="a_node15"><a xlink:title=" ">
<polygon fill="white" stroke="#bfbfbf" points="231,-235.5 231,-254.5 278,-254.5 278,-235.5 231,-235.5"/>
<text text-anchor="middle" x="254.5" y="-242.5" font-family="Helvetica,sans-Serif" font-size="10.00">cmath</text>
</a>
</g>
</g>
<!-- Node14&#45;&gt;Node15 -->
<g id="edge19" class="edge">
<title>Node14&#45;&gt;Node15</title>
<path fill="none" stroke="midnightblue" d="M424.49,-291.44C387.28,-281.49 326.12,-265.15 288.19,-255.01"/>
<polygon fill="midnightblue" stroke="midnightblue" points="288.72,-251.52 278.15,-252.32 286.91,-258.29 288.72,-251.52"/>
</g>
<!-- Node16 -->
<g id="node16" class="node">
<title>Node16</title>
<g id="a_node16"><a xlink:href="to__underlying_8hpp.html" target="_top" xlink:title="Definition of to_underlying function template.">
<polygon fill="white" stroke="black" points="334.5,-235.5 334.5,-254.5 478.5,-254.5 478.5,-235.5 334.5,-235.5"/>
<text text-anchor="middle" x="406.5" y="-242.5" font-family="Helvetica,sans-Serif" font-size="10.00">playrho/to_underlying.hpp</text>
</a>
</g>
</g>
<!-- Node14&#45;&gt;Node16 -->
<g id="edge24" class="edge">
<title>Node14&#45;&gt;Node16</title>
<path fill="none" stroke="midnightblue" d="M448.24,-291.08C441.04,-283.3 430.39,-271.8 421.65,-262.37"/>
<polygon fill="midnightblue" stroke="midnightblue" points="423.97,-259.71 414.6,-254.75 418.83,-264.47 423.97,-259.71"/>
</g>
<!-- Node17 -->
<g id="node17" class="node">
<title>Node17</title>
<g id="a_node17"><a xlink:href="underlying__type_8hpp.html" target="_top" xlink:title="Definition of underlying_type trait class and related code.">
<polygon fill="white" stroke="black" points="383,-112.5 383,-142.5 522,-142.5 522,-112.5 383,-112.5"/>
<text text-anchor="start" x="391" y="-130.5" font-family="Helvetica,sans-Serif" font-size="10.00">playrho/detail/underlying</text>
<text text-anchor="middle" x="452.5" y="-119.5" font-family="Helvetica,sans-Serif" font-size="10.00">_type.hpp</text>
</a>
</g>
</g>
<!-- Node16&#45;&gt;Node17 -->
<g id="edge25" class="edge">
<title>Node16&#45;&gt;Node17</title>
<path fill="none" stroke="midnightblue" d="M409.96,-235.32C416.93,-217.81 432.89,-177.75 443.15,-151.97"/>
<polygon fill="midnightblue" stroke="midnightblue" points="446.46,-153.13 446.91,-142.55 439.95,-150.54 446.46,-153.13"/>
</g>
<!-- Node17&#45;&gt;Node6 -->
<g id="edge26" class="edge">
<title>Node17&#45;&gt;Node6</title>
<path fill="none" stroke="midnightblue" d="M448.21,-112.34C441.87,-91.43 430.02,-52.31 423.04,-29.27"/>
<polygon fill="midnightblue" stroke="midnightblue" points="426.38,-28.22 420.13,-19.67 419.68,-30.25 426.38,-28.22"/>
</g>
<!-- Node19 -->
<g id="node19" class="node">
<title>Node19</title>
<g id="a_node19"><a xlink:href="Wider_8hpp.html" target="_top" xlink:title="Definition of the Wider class template and specializations.">
<polygon fill="white" stroke="black" points="865.5,-235.5 865.5,-254.5 1001.5,-254.5 1001.5,-235.5 865.5,-235.5"/>
<text text-anchor="middle" x="933.5" y="-242.5" font-family="Helvetica,sans-Serif" font-size="10.00">playrho/detail/Wider.hpp</text>
</a>
</g>
</g>
<!-- Node18&#45;&gt;Node19 -->
<g id="edge28" class="edge">
<title>Node18&#45;&gt;Node19</title>
<path fill="none" stroke="midnightblue" d="M926.82,-291.08C927.88,-283.93 929.41,-273.64 930.73,-264.69"/>
<polygon fill="midnightblue" stroke="midnightblue" points="934.2,-265.16 932.2,-254.75 927.28,-264.13 934.2,-265.16"/>
</g>
<!-- Node19&#45;&gt;Node6 -->
<g id="edge30" class="edge">
<title>Node19&#45;&gt;Node6</title>
<path fill="none" stroke="midnightblue" d="M919.61,-235.3C907.85,-227.24 891.37,-214.23 881.5,-199 845.42,-143.3 889.58,-98.38 838.5,-56 809.96,-32.32 564.77,-18.01 462.26,-13.01"/>
<polygon fill="midnightblue" stroke="midnightblue" points="462.37,-9.51 452.21,-12.53 462.04,-16.51 462.37,-9.51"/>
</g>
<!-- Node19&#45;&gt;Node12 -->
<g id="edge29" class="edge">
<title>Node19&#45;&gt;Node12</title>
<path fill="none" stroke="midnightblue" d="M951.56,-235.44C970.07,-226.68 999.08,-212.94 1020.36,-202.86"/>
<polygon fill="midnightblue" stroke="midnightblue" points="1021.98,-205.96 1029.52,-198.52 1018.99,-199.63 1021.98,-205.96"/>
</g>
<!-- Node20 -->
<g id="node20" class="node">
<title>Node20</title>
<g id="a_node20"><a xlink:href="Defines_8hpp.html" target="_top" xlink:title="Miscellaneous C&#45;preprocessor definitions.">
<polygon fill="white" stroke="black" points="890.5,-179.5 890.5,-198.5 1004.5,-198.5 1004.5,-179.5 890.5,-179.5"/>
<text text-anchor="middle" x="947.5" y="-186.5" font-family="Helvetica,sans-Serif" font-size="10.00">playrho/Defines.hpp</text>
</a>
</g>
</g>
<!-- Node19&#45;&gt;Node20 -->
<g id="edge31" class="edge">
<title>Node19&#45;&gt;Node20</title>
<path fill="none" stroke="midnightblue" d="M935.81,-235.08C937.67,-227.93 940.34,-217.64 942.65,-208.69"/>
<polygon fill="midnightblue" stroke="midnightblue" points="946.11,-209.31 945.23,-198.75 939.33,-207.55 946.11,-209.31"/>
</g>
</g>
</svg>
        <g id="navigator" transform="translate(0 0)" fill="#404254">
                <rect fill="#f2f5e9" fill-opacity="0.5" stroke="#606060" stroke-width=".5" x="0" y="0" width="60" height="60"/>
                <use id="zoomplus" xlink:href="#zoomPlus" x="17" y="9" onmousedown="handleZoom(evt,'in')"/>
                <use id="zoomminus" xlink:href="#zoomMin" x="42" y="9" onmousedown="handleZoom(evt,'out')"/>
                <use id="reset" xlink:href="#resetDef" x="30" y="36" onmousedown="handleReset()"/>
                <g id="arrowUp" xlink:href="#dirArrow" transform="translate(30 24)" onmousedown="handlePan(0,-1)">
                  <use xlink:href="#rim" fill="#404040">
                        <set attributeName="fill" to="#808080" begin="arrowUp.mouseover" end="arrowUp.mouseout"/>
                  </use>
                  <path fill="none" stroke="white" stroke-width="1.5" d="M0,-3.0v7 M-2.5,-0.5L0,-3.0L2.5,-0.5"/>
                </g>
                <g id="arrowRight" xlink:href="#dirArrow" transform="rotate(90) translate(36 -43)" onmousedown="handlePan(1,0)">
                  <use xlink:href="#rim" fill="#404040">
                        <set attributeName="fill" to="#808080" begin="arrowRight.mouseover" end="arrowRight.mouseout"/>
                  </use>
                  <path fill="none" stroke="white" stroke-width="1.5" d="M0,-3.0v7 M-2.5,-0.5L0,-3.0L2.5,-0.5"/>
                </g>
                <g id="arrowDown" xlink:href="#dirArrow" transform="rotate(180) translate(-30 -48)" onmousedown="handlePan(0,1)">
                  <use xlink:href="#rim" fill="#404040">
                        <set attributeName="fill" to="#808080" begin="arrowDown.mouseover" end="arrowDown.mouseout"/>
                  </use>
                  <path fill="none" stroke="white" stroke-width="1.5" d="M0,-3.0v7 M-2.5,-0.5L0,-3.0L2.5,-0.5"/>
                </g>
                <g id="arrowLeft" xlink:href="#dirArrow" transform="rotate(270) translate(-36 17)" onmousedown="handlePan(-1,0)">
                  <use xlink:href="#rim" fill="#404040">
                        <set attributeName="fill" to="#808080" begin="arrowLeft.mouseover" end="arrowLeft.mouseout"/>
                  </use>
                  <path fill="none" stroke="white" stroke-width="1.5" d="M0,-3.0v7 M-2.5,-0.5L0,-3.0L2.5,-0.5"/>
                </g>
        </g>
        <svg viewBox="0 0 15 15" width="100%" height="30px" preserveAspectRatio="xMaxYMin meet">
         <g id="arrow_out" transform="scale(0.3 0.3)">
          <a xlink:href="ConstraintSolverConf_8hpp__incl_org.svg" target="_base">
           <rect id="button" ry="5" rx="5" y="6" x="6" height="38" width="38"
                fill="#f2f5e9" fill-opacity="0.5" stroke="#606060" stroke-width="1.0"/>
           <path id="arrow"
             d="M 11.500037,31.436501 C 11.940474,20.09759 22.043105,11.32322 32.158766,21.979434 L 37.068811,17.246167 C 37.068811,17.246167 37.088388,32 37.088388,32 L 22.160133,31.978069 C 22.160133,31.978069 26.997745,27.140456 26.997745,27.140456 C 18.528582,18.264221 13.291696,25.230495 11.500037,31.436501 z"
             style="fill:#404040;"/>
          </a>
         </g>
        </svg>
</svg>
