<?xml version="1.0" encoding="UTF-8" standalone="no"?>
<!DOCTYPE svg PUBLIC "-//W3C//DTD SVG 1.1//EN"
 "http://www.w3.org/Graphics/SVG/1.1/DTD/svg11.dtd">
<!-- Generated by graphviz version 2.43.0 (0)
 -->
<!-- Title: Library/include/playrho/ContactID.hpp Pages: 1 -->
<!--zoomable 374 -->
<svg id="main" version="1.1" xmlns="http://www.w3.org/2000/svg" xmlns:xlink="http://www.w3.org/1999/xlink" xml:space="preserve" onload="init(evt)">
<style type="text/css"><![CDATA[
.edge:hover path { stroke: red; }
.edge:hover polygon { stroke: red; fill: red; }
]]></style>
<script type="text/javascript"><![CDATA[
var edges = document.getElementsByTagName('g');
if (edges && edges.length) {
  for (var i=0;i<edges.length;i++) {
    if (edges[i].id.substr(0,4)=='edge') {
      edges[i].setAttribute('class','edge');
    }
  }
}
]]></script>
        <defs>
                <circle id="rim" cx="0" cy="0" r="7"/>
                <circle id="rim2" cx="0" cy="0" r="3.5"/>
                <g id="zoomPlus">
                        <use xlink:href="#rim" fill="#404040">
                                <set attributeName="fill" to="#808080" begin="zoomplus.mouseover" end="zoomplus.mouseout"/>
                        </use>
                        <path d="M-4,0h8M0,-4v8" fill="none" stroke="white" stroke-width="1.5" pointer-events="none"/>
                </g>
                <g id="zoomMin">
                        <use xlink:href="#rim" fill="#404040">
                                <set attributeName="fill" to="#808080" begin="zoomminus.mouseover" end="zoomminus.mouseout"/>
                        </use>
                        <path d="M-4,0h8" fill="none" stroke="white" stroke-width="1.5" pointer-events="none"/>
                </g>
                <g id="dirArrow">
                        <path fill="none" stroke="white" stroke-width="1.5" d="M0,-3.0v7 M-2.5,-0.5L0,-3.0L2.5,-0.5"/>
                </g>
               <g id="resetDef">
                       <use xlink:href="#rim2" fill="#404040">
                               <set attributeName="fill" to="#808080" begin="reset.mouseover" end="reset.mouseout"/>
                       </use>
               </g>
        </defs>

<script type="text/javascript">
var viewWidth = 977;
var viewHeight = 374;
var sectionId = 'dynsection-1';
</script>
<script xlink:href="svgpan.js"/>
<svg id="graph" class="graph">
<g id="viewport">
<title>Library/include/playrho/ContactID.hpp</title>
<polygon fill="white" stroke="transparent" points="-4,4 -4,-370 973.25,-370 973.25,4 -4,4"/>
<!-- Node1 -->
<g id="node1" class="node">
<title>Node1</title>
<g id="a_node1"><a xlink:title="Definition of the ContactID alias and closely related code.">
<polygon fill="#bfbfbf" stroke="black" points="343.25,-335.5 343.25,-365.5 471.25,-365.5 471.25,-335.5 343.25,-335.5"/>
<text text-anchor="start" x="351.25" y="-353.5" font-family="Helvetica,sans-Serif" font-size="10.00">Library/include/playrho</text>
<text text-anchor="middle" x="407.25" y="-342.5" font-family="Helvetica,sans-Serif" font-size="10.00">/ContactID.hpp</text>
</a>
</g>
</g>
<!-- Node2 -->
<g id="node2" class="node">
<title>Node2</title>
<g id="a_node2"><a xlink:href="ContactFunction_8hpp.html" target="_top" xlink:title="Definition of the ContactFunction type alias.">
<polygon fill="white" stroke="black" points="171.25,-268.5 171.25,-298.5 299.25,-298.5 299.25,-268.5 171.25,-268.5"/>
<text text-anchor="start" x="179.25" y="-286.5" font-family="Helvetica,sans-Serif" font-size="10.00">Library/include/playrho</text>
<text text-anchor="middle" x="235.25" y="-275.5" font-family="Helvetica,sans-Serif" font-size="10.00">/ContactFunction.hpp</text>
</a>
</g>
</g>
<!-- Node1&#45;&gt;Node2 -->
<g id="edge1" class="edge">
<title>Node1&#45;&gt;Node2</title>
<path fill="none" stroke="midnightblue" d="M360.47,-331.82C332.82,-321.37 298.29,-308.32 272.5,-298.58"/>
<polygon fill="midnightblue" stroke="midnightblue" points="359.34,-335.13 369.93,-335.4 361.81,-328.59 359.34,-335.13"/>
</g>
<!-- Node3 -->
<g id="node3" class="node">
<title>Node3</title>
<g id="a_node3"><a xlink:href="AabbTreeWorld_8hpp.html" target="_top" xlink:title="Declarations of the AabbTreeWorld class.">
<polygon fill="white" stroke="black" points="251.25,-201.5 251.25,-231.5 379.25,-231.5 379.25,-201.5 251.25,-201.5"/>
<text text-anchor="start" x="259.25" y="-219.5" font-family="Helvetica,sans-Serif" font-size="10.00">Library/include/playrho</text>
<text text-anchor="middle" x="315.25" y="-208.5" font-family="Helvetica,sans-Serif" font-size="10.00">/d2/AabbTreeWorld.hpp</text>
</a>
</g>
</g>
<!-- Node1&#45;&gt;Node3 -->
<g id="edge9" class="edge">
<title>Node1&#45;&gt;Node3</title>
<path fill="none" stroke="midnightblue" d="M333.08,-345.13C225.52,-338.03 36.8,-322.37 16.25,-299 7.16,-288.65 7.36,-278.52 16.25,-268 45.69,-233.17 172.23,-222.35 250.95,-219"/>
<polygon fill="midnightblue" stroke="midnightblue" points="333.02,-348.63 343.22,-345.79 333.47,-341.65 333.02,-348.63"/>
</g>
<!-- Node6 -->
<g id="node6" class="node">
<title>Node6</title>
<g id="a_node6"><a xlink:href="World_8hpp.html" target="_top" xlink:title="Definitions of the World class and closely related code.">
<polygon fill="white" stroke="black" points="431.25,-67.5 431.25,-97.5 559.25,-97.5 559.25,-67.5 431.25,-67.5"/>
<text text-anchor="start" x="439.25" y="-85.5" font-family="Helvetica,sans-Serif" font-size="10.00">Library/include/playrho</text>
<text text-anchor="middle" x="495.25" y="-74.5" font-family="Helvetica,sans-Serif" font-size="10.00">/d2/World.hpp</text>
</a>
</g>
</g>
<!-- Node1&#45;&gt;Node6 -->
<g id="edge18" class="edge">
<title>Node1&#45;&gt;Node6</title>
<path fill="none" stroke="midnightblue" d="M332.84,-345.37C222.83,-338.5 27.46,-323.05 6.25,-299 -2.86,-288.67 -1,-279.71 6.25,-268 96.52,-122.19 320.04,-91.11 430.85,-84.83"/>
<polygon fill="midnightblue" stroke="midnightblue" points="332.68,-348.87 342.88,-345.99 333.11,-341.88 332.68,-348.87"/>
</g>
<!-- Node8 -->
<g id="node8" class="node">
<title>Node8</title>
<g id="a_node8"><a xlink:href="ContactImpulsesFunction_8hpp.html" target="_top" xlink:title="Definition of the ContactImpulsesFunction type alias.">
<polygon fill="white" stroke="black" points="317.75,-268.5 317.75,-298.5 496.75,-298.5 496.75,-268.5 317.75,-268.5"/>
<text text-anchor="start" x="325.75" y="-286.5" font-family="Helvetica,sans-Serif" font-size="10.00">Library/include/playrho</text>
<text text-anchor="middle" x="407.25" y="-275.5" font-family="Helvetica,sans-Serif" font-size="10.00">/d2/ContactImpulsesFunction.hpp</text>
</a>
</g>
</g>
<!-- Node1&#45;&gt;Node8 -->
<g id="edge10" class="edge">
<title>Node1&#45;&gt;Node8</title>
<path fill="none" stroke="midnightblue" d="M407.25,-325.11C407.25,-316.15 407.25,-306.32 407.25,-298.58"/>
<polygon fill="midnightblue" stroke="midnightblue" points="403.75,-325.4 407.25,-335.4 410.75,-325.4 403.75,-325.4"/>
</g>
<!-- Node9 -->
<g id="node9" class="node">
<title>Node9</title>
<g id="a_node9"><a xlink:href="ContactManifoldFunction_8hpp.html" target="_top" xlink:title="Definition of the ContactManifoldFunction type alias.">
<polygon fill="white" stroke="black" points="514.75,-268.5 514.75,-298.5 691.75,-298.5 691.75,-268.5 514.75,-268.5"/>
<text text-anchor="start" x="522.75" y="-286.5" font-family="Helvetica,sans-Serif" font-size="10.00">Library/include/playrho</text>
<text text-anchor="middle" x="603.25" y="-275.5" font-family="Helvetica,sans-Serif" font-size="10.00">/d2/ContactManifoldFunction.hpp</text>
</a>
</g>
</g>
<!-- Node1&#45;&gt;Node9 -->
<g id="edge14" class="edge">
<title>Node1&#45;&gt;Node9</title>
<path fill="none" stroke="midnightblue" d="M459.34,-332.23C491.04,-321.71 531.03,-308.45 560.81,-298.58"/>
<polygon fill="midnightblue" stroke="midnightblue" points="458.17,-328.93 449.78,-335.4 460.38,-335.57 458.17,-328.93"/>
</g>
<!-- Node10 -->
<g id="node10" class="node">
<title>Node10</title>
<g id="a_node10"><a xlink:href="WorldContact_8hpp.html" target="_top" xlink:title="Declarations of free functions of World for contacts identified by ContactID.">
<polygon fill="white" stroke="black" points="749.25,-201.5 749.25,-231.5 877.25,-231.5 877.25,-201.5 749.25,-201.5"/>
<text text-anchor="start" x="757.25" y="-219.5" font-family="Helvetica,sans-Serif" font-size="10.00">Library/include/playrho</text>
<text text-anchor="middle" x="813.25" y="-208.5" font-family="Helvetica,sans-Serif" font-size="10.00">/d2/WorldContact.hpp</text>
</a>
</g>
</g>
<!-- Node1&#45;&gt;Node10 -->
<g id="edge19" class="edge">
<title>Node1&#45;&gt;Node10</title>
<path fill="none" stroke="midnightblue" d="M481.54,-346.28C600.63,-340.34 823.38,-325.77 847.25,-299 864.8,-279.32 843.42,-249.29 827.5,-231.71"/>
<polygon fill="midnightblue" stroke="midnightblue" points="481.21,-342.79 471.4,-346.77 481.56,-349.78 481.21,-342.79"/>
</g>
<!-- Node11 -->
<g id="node11" class="node">
<title>Node11</title>
<g id="a_node11"><a xlink:href="WorldMisc_8hpp.html" target="_top" xlink:title="Declarations of free functions of World for unidentified information.">
<polygon fill="white" stroke="black" points="841.25,-134.5 841.25,-164.5 969.25,-164.5 969.25,-134.5 841.25,-134.5"/>
<text text-anchor="start" x="849.25" y="-152.5" font-family="Helvetica,sans-Serif" font-size="10.00">Library/include/playrho</text>
<text text-anchor="middle" x="905.25" y="-141.5" font-family="Helvetica,sans-Serif" font-size="10.00">/d2/WorldMisc.hpp</text>
</a>
</g>
</g>
<!-- Node1&#45;&gt;Node11 -->
<g id="edge21" class="edge">
<title>Node1&#45;&gt;Node11</title>
<path fill="none" stroke="midnightblue" d="M481.7,-345.65C603.6,-338.71 835.2,-322.58 864.25,-299 905.37,-265.63 907.41,-195.04 906.23,-164.77"/>
<polygon fill="midnightblue" stroke="midnightblue" points="481.48,-342.16 471.69,-346.21 481.87,-349.15 481.48,-342.16"/>
</g>
<!-- Node12 -->
<g id="node12" class="node">
<title>Node12</title>
<g id="a_node12"><a xlink:href="Island_8hpp.html" target="_top" xlink:title="Definition of the Island class and related code.">
<polygon fill="white" stroke="black" points="25.25,-268.5 25.25,-298.5 153.25,-298.5 153.25,-268.5 25.25,-268.5"/>
<text text-anchor="start" x="33.25" y="-286.5" font-family="Helvetica,sans-Serif" font-size="10.00">Library/include/playrho</text>
<text text-anchor="middle" x="89.25" y="-275.5" font-family="Helvetica,sans-Serif" font-size="10.00">/Island.hpp</text>
</a>
</g>
</g>
<!-- Node1&#45;&gt;Node12 -->
<g id="edge23" class="edge">
<title>Node1&#45;&gt;Node12</title>
<path fill="none" stroke="midnightblue" d="M332.97,-334.32C278.55,-323.19 205.42,-308.25 153.51,-297.63"/>
<polygon fill="midnightblue" stroke="midnightblue" points="332.4,-337.77 342.9,-336.35 333.8,-330.91 332.4,-337.77"/>
</g>
<!-- Node13 -->
<g id="node13" class="node">
<title>Node13</title>
<g id="a_node13"><a xlink:href="KeyedContactID_8hpp.html" target="_top" xlink:title="Declaration of the KeyedContactID alias.">
<polygon fill="white" stroke="black" points="710.25,-268.5 710.25,-298.5 838.25,-298.5 838.25,-268.5 710.25,-268.5"/>
<text text-anchor="start" x="718.25" y="-286.5" font-family="Helvetica,sans-Serif" font-size="10.00">Library/include/playrho</text>
<text text-anchor="middle" x="774.25" y="-275.5" font-family="Helvetica,sans-Serif" font-size="10.00">/KeyedContactID.hpp</text>
</a>
</g>
</g>
<!-- Node1&#45;&gt;Node13 -->
<g id="edge25" class="edge">
<title>Node1&#45;&gt;Node13</title>
<path fill="none" stroke="midnightblue" d="M481.34,-337.32C540.85,-327.41 626.52,-312.84 701.25,-299 704.18,-298.46 707.16,-297.9 710.18,-297.33"/>
<polygon fill="midnightblue" stroke="midnightblue" points="480.58,-333.9 471.29,-338.99 481.72,-340.81 480.58,-333.9"/>
</g>
<!-- Node2&#45;&gt;Node3 -->
<g id="edge2" class="edge">
<title>Node2&#45;&gt;Node3</title>
<path fill="none" stroke="midnightblue" d="M260.63,-261.88C272.79,-252.01 287.03,-240.43 297.93,-231.58"/>
<polygon fill="midnightblue" stroke="midnightblue" points="258.17,-259.37 252.61,-268.4 262.58,-264.81 258.17,-259.37"/>
</g>
<!-- Node4 -->
<g id="node4" class="node">
<title>Node4</title>
<g id="a_node4"><a xlink:href="WorldConcept_8hpp.html" target="_top" xlink:title="Definition of the internal WorldConcept interface class.">
<polygon fill="white" stroke="black" points="449.25,-201.5 449.25,-231.5 603.25,-231.5 603.25,-201.5 449.25,-201.5"/>
<text text-anchor="start" x="457.25" y="-219.5" font-family="Helvetica,sans-Serif" font-size="10.00">Library/include/playrho</text>
<text text-anchor="middle" x="526.25" y="-208.5" font-family="Helvetica,sans-Serif" font-size="10.00">/d2/detail/WorldConcept.hpp</text>
</a>
</g>
</g>
<!-- Node2&#45;&gt;Node4 -->
<g id="edge3" class="edge">
<title>Node2&#45;&gt;Node4</title>
<path fill="none" stroke="midnightblue" d="M308.01,-266.25C355.79,-255.58 417.67,-241.75 463.33,-231.55"/>
<polygon fill="midnightblue" stroke="midnightblue" points="307.03,-262.88 298.04,-268.48 308.56,-269.71 307.03,-262.88"/>
</g>
<!-- Node2&#45;&gt;Node6 -->
<g id="edge8" class="edge">
<title>Node2&#45;&gt;Node6</title>
<path fill="none" stroke="midnightblue" d="M231.31,-258.4C229.79,-240.93 230.65,-217.57 242.25,-201 286,-138.52 371.68,-108.44 431.14,-94.55"/>
<polygon fill="midnightblue" stroke="midnightblue" points="227.85,-258.88 232.49,-268.4 234.8,-258.06 227.85,-258.88"/>
</g>
<!-- Node5 -->
<g id="node5" class="node">
<title>Node5</title>
<g id="a_node5"><a xlink:href="WorldModel_8hpp.html" target="_top" xlink:title="Definitions of the WorldModel class and closely related code.">
<polygon fill="white" stroke="black" points="473.25,-134.5 473.25,-164.5 617.25,-164.5 617.25,-134.5 473.25,-134.5"/>
<text text-anchor="start" x="481.25" y="-152.5" font-family="Helvetica,sans-Serif" font-size="10.00">Library/include/playrho</text>
<text text-anchor="middle" x="545.25" y="-141.5" font-family="Helvetica,sans-Serif" font-size="10.00">/d2/detail/WorldModel.hpp</text>
</a>
</g>
</g>
<!-- Node4&#45;&gt;Node5 -->
<g id="edge4" class="edge">
<title>Node4&#45;&gt;Node5</title>
<path fill="none" stroke="midnightblue" d="M533.21,-191.7C535.87,-182.59 538.82,-172.49 541.14,-164.58"/>
<polygon fill="midnightblue" stroke="midnightblue" points="529.82,-190.82 530.38,-201.4 536.54,-192.78 529.82,-190.82"/>
</g>
<!-- Node4&#45;&gt;Node6 -->
<g id="edge7" class="edge">
<title>Node4&#45;&gt;Node6</title>
<path fill="none" stroke="midnightblue" d="M491.18,-195.54C480.51,-187.54 470.08,-177.27 464.25,-165 453.34,-142.03 470.1,-114.11 482.91,-97.63"/>
<polygon fill="midnightblue" stroke="midnightblue" points="489.49,-198.63 499.69,-201.47 493.49,-192.88 489.49,-198.63"/>
</g>
<!-- Node5&#45;&gt;Node6 -->
<g id="edge5" class="edge">
<title>Node5&#45;&gt;Node6</title>
<path fill="none" stroke="midnightblue" d="M528.29,-126.45C520.94,-116.9 512.56,-106 506.08,-97.58"/>
<polygon fill="midnightblue" stroke="midnightblue" points="525.53,-128.6 534.4,-134.4 531.08,-124.34 525.53,-128.6"/>
</g>
<!-- Node7 -->
<g id="node7" class="node">
<title>Node7</title>
<g id="a_node7"><a xlink:href="BasicAPI_8hpp.html" target="_top" xlink:title="Basic API include file to pull in at once most headers used.">
<polygon fill="white" stroke="black" points="703.25,-0.5 703.25,-30.5 831.25,-30.5 831.25,-0.5 703.25,-0.5"/>
<text text-anchor="start" x="711.25" y="-18.5" font-family="Helvetica,sans-Serif" font-size="10.00">Library/include/playrho</text>
<text text-anchor="middle" x="767.25" y="-7.5" font-family="Helvetica,sans-Serif" font-size="10.00">/d2/BasicAPI.hpp</text>
</a>
</g>
</g>
<!-- Node6&#45;&gt;Node7 -->
<g id="edge6" class="edge">
<title>Node6&#45;&gt;Node7</title>
<path fill="none" stroke="midnightblue" d="M563.8,-65.12C608.31,-54.48 665.72,-40.76 708.2,-30.61"/>
<polygon fill="midnightblue" stroke="midnightblue" points="562.85,-61.75 553.94,-67.48 564.48,-68.56 562.85,-61.75"/>
</g>
<!-- Node8&#45;&gt;Node3 -->
<g id="edge11" class="edge">
<title>Node8&#45;&gt;Node3</title>
<path fill="none" stroke="midnightblue" d="M378.88,-262.45C364.72,-252.45 347.95,-240.6 335.18,-231.58"/>
<polygon fill="midnightblue" stroke="midnightblue" points="377.1,-265.48 387.29,-268.4 381.14,-259.77 377.1,-265.48"/>
</g>
<!-- Node8&#45;&gt;Node4 -->
<g id="edge12" class="edge">
<title>Node8&#45;&gt;Node4</title>
<path fill="none" stroke="midnightblue" d="M441.9,-263.57C460.62,-253.35 483.34,-240.94 500.48,-231.58"/>
<polygon fill="midnightblue" stroke="midnightblue" points="440.17,-260.53 433.07,-268.4 443.53,-266.67 440.17,-260.53"/>
</g>
<!-- Node8&#45;&gt;Node6 -->
<g id="edge13" class="edge">
<title>Node8&#45;&gt;Node6</title>
<path fill="none" stroke="midnightblue" d="M412.56,-258.29C419.78,-228.03 434.37,-175.21 456.25,-134 463.32,-120.69 473.88,-107.27 482.24,-97.62"/>
<polygon fill="midnightblue" stroke="midnightblue" points="409.07,-257.82 410.23,-268.35 415.89,-259.4 409.07,-257.82"/>
</g>
<!-- Node9&#45;&gt;Node3 -->
<g id="edge15" class="edge">
<title>Node9&#45;&gt;Node3</title>
<path fill="none" stroke="midnightblue" d="M531.26,-266.25C484.06,-255.6 422.95,-241.81 377.78,-231.61"/>
<polygon fill="midnightblue" stroke="midnightblue" points="530.59,-269.69 541.12,-268.48 532.13,-262.86 530.59,-269.69"/>
</g>
<!-- Node9&#45;&gt;Node4 -->
<g id="edge16" class="edge">
<title>Node9&#45;&gt;Node4</title>
<path fill="none" stroke="midnightblue" d="M578.83,-261.88C567.13,-252.01 553.42,-240.43 542.93,-231.58"/>
<polygon fill="midnightblue" stroke="midnightblue" points="576.65,-264.62 586.55,-268.4 581.16,-259.27 576.65,-264.62"/>
</g>
<!-- Node9&#45;&gt;Node6 -->
<g id="edge17" class="edge">
<title>Node9&#45;&gt;Node6</title>
<path fill="none" stroke="midnightblue" d="M616.21,-259.13C631.63,-227.82 652.23,-171.85 626.25,-134 611.01,-111.79 584.52,-99.35 559.33,-92.37"/>
<polygon fill="midnightblue" stroke="midnightblue" points="612.92,-257.88 611.45,-268.37 619.14,-261.08 612.92,-257.88"/>
</g>
<!-- Node10&#45;&gt;Node7 -->
<g id="edge20" class="edge">
<title>Node10&#45;&gt;Node7</title>
<path fill="none" stroke="midnightblue" d="M812.82,-190.87C811.68,-160.92 807.72,-109.15 794.25,-67 790.14,-54.12 782.78,-40.67 776.78,-30.9"/>
<polygon fill="midnightblue" stroke="midnightblue" points="809.33,-191.32 813.13,-201.21 816.33,-191.11 809.33,-191.32"/>
</g>
<!-- Node11&#45;&gt;Node7 -->
<g id="edge22" class="edge">
<title>Node11&#45;&gt;Node7</title>
<path fill="none" stroke="midnightblue" d="M885.46,-126.56C870.05,-109.79 847.88,-86.35 827.25,-67 813.55,-54.14 797.19,-40.47 785.01,-30.6"/>
<polygon fill="midnightblue" stroke="midnightblue" points="883.12,-129.19 892.45,-134.21 888.29,-124.47 883.12,-129.19"/>
</g>
<!-- Node12&#45;&gt;Node3 -->
<g id="edge24" class="edge">
<title>Node12&#45;&gt;Node3</title>
<path fill="none" stroke="midnightblue" d="M148.08,-265.58C184.79,-255.02 231.49,-241.59 266.19,-231.61"/>
<polygon fill="midnightblue" stroke="midnightblue" points="146.66,-262.35 138.01,-268.48 148.59,-269.08 146.66,-262.35"/>
</g>
<!-- Node13&#45;&gt;Node3 -->
<g id="edge26" class="edge">
<title>Node13&#45;&gt;Node3</title>
<path fill="none" stroke="midnightblue" d="M700.27,-267.93C625.84,-256.17 468.28,-236.36 379.31,-225.36"/>
<polygon fill="midnightblue" stroke="midnightblue" points="699.77,-271.39 710.2,-269.53 700.89,-264.48 699.77,-271.39"/>
</g>
<!-- Node13&#45;&gt;Node4 -->
<g id="edge27" class="edge">
<title>Node13&#45;&gt;Node4</title>
<path fill="none" stroke="midnightblue" d="M710.98,-265.92C670.51,-255.31 618.58,-241.7 580.09,-231.61"/>
<polygon fill="midnightblue" stroke="midnightblue" points="710.19,-269.33 720.75,-268.48 711.96,-262.55 710.19,-269.33"/>
</g>
<!-- Node13&#45;&gt;Node6 -->
<g id="edge28" class="edge">
<title>Node13&#45;&gt;Node6</title>
<path fill="none" stroke="midnightblue" d="M753.06,-260.87C744.59,-252.04 734.82,-241.66 726.25,-232 688.77,-189.72 691.81,-166.02 645.25,-134 619.67,-116.41 587.45,-104.5 559.43,-96.7"/>
<polygon fill="midnightblue" stroke="midnightblue" points="750.65,-263.41 760.12,-268.16 755.68,-258.54 750.65,-263.41"/>
</g>
<!-- Node13&#45;&gt;Node10 -->
<g id="edge31" class="edge">
<title>Node13&#45;&gt;Node10</title>
<path fill="none" stroke="midnightblue" d="M788.01,-259.58C793.61,-250.24 799.9,-239.75 804.81,-231.58"/>
<polygon fill="midnightblue" stroke="midnightblue" points="784.86,-258.02 782.72,-268.4 790.86,-261.62 784.86,-258.02"/>
</g>
<!-- Node14 -->
<g id="node14" class="node">
<title>Node14</title>
<g id="a_node14"><a xlink:href="WorldBody_8hpp.html" target="_top" xlink:title="Declarations of free functions of World for bodies identified by BodyID.">
<polygon fill="white" stroke="black" points="657.25,-67.5 657.25,-97.5 785.25,-97.5 785.25,-67.5 657.25,-67.5"/>
<text text-anchor="start" x="665.25" y="-85.5" font-family="Helvetica,sans-Serif" font-size="10.00">Library/include/playrho</text>
<text text-anchor="middle" x="721.25" y="-74.5" font-family="Helvetica,sans-Serif" font-size="10.00">/d2/WorldBody.hpp</text>
</a>
</g>
</g>
<!-- Node13&#45;&gt;Node14 -->
<g id="edge29" class="edge">
<title>Node13&#45;&gt;Node14</title>
<path fill="none" stroke="midnightblue" d="M756.08,-260.35C750.09,-251.95 744.01,-241.98 740.25,-232 722.59,-185.05 720.76,-124.49 720.93,-97.52"/>
<polygon fill="midnightblue" stroke="midnightblue" points="753.38,-262.59 762.18,-268.48 758.98,-258.38 753.38,-262.59"/>
</g>
<!-- Node14&#45;&gt;Node7 -->
<g id="edge30" class="edge">
<title>Node14&#45;&gt;Node7</title>
<path fill="none" stroke="midnightblue" d="M737.07,-59.16C743.77,-49.68 751.39,-38.92 757.29,-30.58"/>
<polygon fill="midnightblue" stroke="midnightblue" points="734.15,-57.21 731.23,-67.4 739.87,-61.26 734.15,-57.21"/>
</g>
</g>
</svg>
        <g id="navigator" transform="translate(0 0)" fill="#404254">
                <rect fill="#f2f5e9" fill-opacity="0.5" stroke="#606060" stroke-width=".5" x="0" y="0" width="60" height="60"/>
                <use id="zoomplus" xlink:href="#zoomPlus" x="17" y="9" onmousedown="handleZoom(evt,'in')"/>
                <use id="zoomminus" xlink:href="#zoomMin" x="42" y="9" onmousedown="handleZoom(evt,'out')"/>
                <use id="reset" xlink:href="#resetDef" x="30" y="36" onmousedown="handleReset()"/>
                <g id="arrowUp" xlink:href="#dirArrow" transform="translate(30 24)" onmousedown="handlePan(0,-1)">
                  <use xlink:href="#rim" fill="#404040">
                        <set attributeName="fill" to="#808080" begin="arrowUp.mouseover" end="arrowUp.mouseout"/>
                  </use>
                  <path fill="none" stroke="white" stroke-width="1.5" d="M0,-3.0v7 M-2.5,-0.5L0,-3.0L2.5,-0.5"/>
                </g>
                <g id="arrowRight" xlink:href="#dirArrow" transform="rotate(90) translate(36 -43)" onmousedown="handlePan(1,0)">
                  <use xlink:href="#rim" fill="#404040">
                        <set attributeName="fill" to="#808080" begin="arrowRight.mouseover" end="arrowRight.mouseout"/>
                  </use>
                  <path fill="none" stroke="white" stroke-width="1.5" d="M0,-3.0v7 M-2.5,-0.5L0,-3.0L2.5,-0.5"/>
                </g>
                <g id="arrowDown" xlink:href="#dirArrow" transform="rotate(180) translate(-30 -48)" onmousedown="handlePan(0,1)">
                  <use xlink:href="#rim" fill="#404040">
                        <set attributeName="fill" to="#808080" begin="arrowDown.mouseover" end="arrowDown.mouseout"/>
                  </use>
                  <path fill="none" stroke="white" stroke-width="1.5" d="M0,-3.0v7 M-2.5,-0.5L0,-3.0L2.5,-0.5"/>
                </g>
                <g id="arrowLeft" xlink:href="#dirArrow" transform="rotate(270) translate(-36 17)" onmousedown="handlePan(-1,0)">
                  <use xlink:href="#rim" fill="#404040">
                        <set attributeName="fill" to="#808080" begin="arrowLeft.mouseover" end="arrowLeft.mouseout"/>
                  </use>
                  <path fill="none" stroke="white" stroke-width="1.5" d="M0,-3.0v7 M-2.5,-0.5L0,-3.0L2.5,-0.5"/>
                </g>
        </g>
        <svg viewBox="0 0 15 15" width="100%" height="30px" preserveAspectRatio="xMaxYMin meet">
         <g id="arrow_out" transform="scale(0.3 0.3)">
          <a xlink:href="ContactID_8hpp__dep__incl_org.svg" target="_base">
           <rect id="button" ry="5" rx="5" y="6" x="6" height="38" width="38"
                fill="#f2f5e9" fill-opacity="0.5" stroke="#606060" stroke-width="1.0"/>
           <path id="arrow"
             d="M 11.500037,31.436501 C 11.940474,20.09759 22.043105,11.32322 32.158766,21.979434 L 37.068811,17.246167 C 37.068811,17.246167 37.088388,32 37.088388,32 L 22.160133,31.978069 C 22.160133,31.978069 26.997745,27.140456 26.997745,27.140456 C 18.528582,18.264221 13.291696,25.230495 11.500037,31.436501 z"
             style="fill:#404040;"/>
          </a>
         </g>
        </svg>
</svg>
