<?xml version="1.0" encoding="UTF-8" standalone="no"?>
<!DOCTYPE svg PUBLIC "-//W3C//DTD SVG 1.1//EN"
 "http://www.w3.org/Graphics/SVG/1.1/DTD/svg11.dtd">
<!-- Generated by graphviz version 2.43.0 (0)
 -->
<!-- Title: Library/include/playrho/ContactID.hpp Pages: 1 -->
<svg width="666pt" height="240pt"
 viewBox="0.00 0.00 666.00 240.00" xmlns="http://www.w3.org/2000/svg" xmlns:xlink="http://www.w3.org/1999/xlink">
<g id="graph0" class="graph" transform="scale(1 1) rotate(0) translate(4 236)">
<title>Library/include/playrho/ContactID.hpp</title>
<polygon fill="white" stroke="transparent" points="-4,4 -4,-236 662,-236 662,4 -4,4"/>
<!-- Node1 -->
<g id="node1" class="node">
<title>Node1</title>
<g id="a_node1"><a xlink:title="Definition of the ContactID alias and closely related code.">
<polygon fill="#bfbfbf" stroke="black" points="311,-201.5 311,-231.5 439,-231.5 439,-201.5 311,-201.5"/>
<text text-anchor="start" x="319" y="-219.5" font-family="Helvetica,sans-Serif" font-size="10.00">Library/include/playrho</text>
<text text-anchor="middle" x="375" y="-208.5" font-family="Helvetica,sans-Serif" font-size="10.00">/ContactID.hpp</text>
</a>
</g>
</g>
<!-- Node2 -->
<g id="node2" class="node">
<title>Node2</title>
<g id="a_node2"><a xlink:href="WorldContact_8hpp.html" target="_top" xlink:title="Declarations of free functions of World for contacts identified by ContactID.">
<polygon fill="white" stroke="black" points="0,-67.5 0,-97.5 128,-97.5 128,-67.5 0,-67.5"/>
<text text-anchor="start" x="8" y="-85.5" font-family="Helvetica,sans-Serif" font-size="10.00">Library/include/playrho</text>
<text text-anchor="middle" x="64" y="-74.5" font-family="Helvetica,sans-Serif" font-size="10.00">/d2/WorldContact.hpp</text>
</a>
</g>
</g>
<!-- Node1&#45;&gt;Node2 -->
<g id="edge1" class="edge">
<title>Node1&#45;&gt;Node2</title>
<path fill="none" stroke="midnightblue" d="M319.85,-198.24C292.26,-189.15 258.53,-177.34 229,-165 178.59,-143.93 121.91,-114.65 89.82,-97.52"/>
<polygon fill="midnightblue" stroke="midnightblue" points="319.13,-201.69 329.72,-201.47 321.3,-195.04 319.13,-201.69"/>
</g>
<!-- Node4 -->
<g id="node4" class="node">
<title>Node4</title>
<g id="a_node4"><a xlink:href="WorldMisc_8hpp.html" target="_top" xlink:title="Declarations of free functions of World for unidentified information.">
<polygon fill="white" stroke="black" points="530,-134.5 530,-164.5 658,-164.5 658,-134.5 530,-134.5"/>
<text text-anchor="start" x="538" y="-152.5" font-family="Helvetica,sans-Serif" font-size="10.00">Library/include/playrho</text>
<text text-anchor="middle" x="594" y="-141.5" font-family="Helvetica,sans-Serif" font-size="10.00">/d2/WorldMisc.hpp</text>
</a>
</g>
</g>
<!-- Node1&#45;&gt;Node4 -->
<g id="edge3" class="edge">
<title>Node1&#45;&gt;Node4</title>
<path fill="none" stroke="midnightblue" d="M432.01,-198.58C467.58,-188.02 512.83,-174.59 546.46,-164.61"/>
<polygon fill="midnightblue" stroke="midnightblue" points="430.84,-195.28 422.25,-201.48 432.83,-201.99 430.84,-195.28"/>
</g>
<!-- Node5 -->
<g id="node5" class="node">
<title>Node5</title>
<g id="a_node5"><a xlink:href="Island_8hpp.html" target="_top" xlink:title="Definition of the Island class and related code.">
<polygon fill="white" stroke="black" points="384,-134.5 384,-164.5 512,-164.5 512,-134.5 384,-134.5"/>
<text text-anchor="start" x="392" y="-152.5" font-family="Helvetica,sans-Serif" font-size="10.00">Library/include/playrho</text>
<text text-anchor="middle" x="448" y="-141.5" font-family="Helvetica,sans-Serif" font-size="10.00">/Island.hpp</text>
</a>
</g>
</g>
<!-- Node1&#45;&gt;Node5 -->
<g id="edge5" class="edge">
<title>Node1&#45;&gt;Node5</title>
<path fill="none" stroke="midnightblue" d="M398.47,-194.6C409.5,-184.78 422.34,-173.34 432.19,-164.58"/>
<polygon fill="midnightblue" stroke="midnightblue" points="395.98,-192.13 390.84,-201.4 400.64,-197.36 395.98,-192.13"/>
</g>
<!-- Node7 -->
<g id="node7" class="node">
<title>Node7</title>
<g id="a_node7"><a xlink:href="KeyedContactID_8hpp.html" target="_top" xlink:title="Declaration of the KeyedContactID alias.">
<polygon fill="white" stroke="black" points="238,-134.5 238,-164.5 366,-164.5 366,-134.5 238,-134.5"/>
<text text-anchor="start" x="246" y="-152.5" font-family="Helvetica,sans-Serif" font-size="10.00">Library/include/playrho</text>
<text text-anchor="middle" x="302" y="-141.5" font-family="Helvetica,sans-Serif" font-size="10.00">/KeyedContactID.hpp</text>
</a>
</g>
</g>
<!-- Node1&#45;&gt;Node7 -->
<g id="edge7" class="edge">
<title>Node1&#45;&gt;Node7</title>
<path fill="none" stroke="midnightblue" d="M351.53,-194.6C340.5,-184.78 327.66,-173.34 317.81,-164.58"/>
<polygon fill="midnightblue" stroke="midnightblue" points="349.36,-197.36 359.16,-201.4 354.02,-192.13 349.36,-197.36"/>
</g>
<!-- Node3 -->
<g id="node3" class="node">
<title>Node3</title>
<g id="a_node3"><a xlink:href="BasicAPI_8hpp.html" target="_top" xlink:title="Basic API include file to pull in at once most headers used.">
<polygon fill="white" stroke="black" points="219,-0.5 219,-30.5 347,-30.5 347,-0.5 219,-0.5"/>
<text text-anchor="start" x="227" y="-18.5" font-family="Helvetica,sans-Serif" font-size="10.00">Library/include/playrho</text>
<text text-anchor="middle" x="283" y="-7.5" font-family="Helvetica,sans-Serif" font-size="10.00">/d2/BasicAPI.hpp</text>
</a>
</g>
</g>
<!-- Node2&#45;&gt;Node3 -->
<g id="edge2" class="edge">
<title>Node2&#45;&gt;Node3</title>
<path fill="none" stroke="midnightblue" d="M121.01,-64.58C156.58,-54.02 201.83,-40.59 235.46,-30.61"/>
<polygon fill="midnightblue" stroke="midnightblue" points="119.84,-61.28 111.25,-67.48 121.83,-67.99 119.84,-61.28"/>
</g>
<!-- Node4&#45;&gt;Node3 -->
<g id="edge4" class="edge">
<title>Node4&#45;&gt;Node3</title>
<path fill="none" stroke="midnightblue" d="M595.03,-124.2C594.41,-105.89 590.38,-81.52 575,-67 542.96,-36.76 423.12,-24.38 347.28,-19.5"/>
<polygon fill="midnightblue" stroke="midnightblue" points="591.53,-124.43 595.05,-134.43 598.53,-124.42 591.53,-124.43"/>
</g>
<!-- Node6 -->
<g id="node6" class="node">
<title>Node6</title>
<g id="a_node6"><a xlink:href="AabbTreeWorld_8hpp.html" target="_top" xlink:title="Declarations of the AabbTreeWorld class.">
<polygon fill="white" stroke="black" points="438,-67.5 438,-97.5 566,-97.5 566,-67.5 438,-67.5"/>
<text text-anchor="start" x="446" y="-85.5" font-family="Helvetica,sans-Serif" font-size="10.00">Library/include/playrho</text>
<text text-anchor="middle" x="502" y="-74.5" font-family="Helvetica,sans-Serif" font-size="10.00">/d2/AabbTreeWorld.hpp</text>
</a>
</g>
</g>
<!-- Node5&#45;&gt;Node6 -->
<g id="edge6" class="edge">
<title>Node5&#45;&gt;Node6</title>
<path fill="none" stroke="midnightblue" d="M466.32,-126.45C474.25,-116.9 483.3,-106 490.31,-97.58"/>
<polygon fill="midnightblue" stroke="midnightblue" points="463.42,-124.47 459.72,-134.4 468.8,-128.94 463.42,-124.47"/>
</g>
<!-- Node7&#45;&gt;Node2 -->
<g id="edge13" class="edge">
<title>Node7&#45;&gt;Node2</title>
<path fill="none" stroke="midnightblue" d="M240.54,-131.71C201.81,-121.14 152.37,-107.63 115.67,-97.61"/>
<polygon fill="midnightblue" stroke="midnightblue" points="240.08,-135.22 250.65,-134.48 241.93,-128.46 240.08,-135.22"/>
</g>
<!-- Node7&#45;&gt;Node6 -->
<g id="edge8" class="edge">
<title>Node7&#45;&gt;Node6</title>
<path fill="none" stroke="midnightblue" d="M355.15,-131.23C387.5,-120.71 428.31,-107.45 458.69,-97.58"/>
<polygon fill="midnightblue" stroke="midnightblue" points="353.83,-127.98 345.4,-134.4 355.99,-134.63 353.83,-127.98"/>
</g>
<!-- Node8 -->
<g id="node8" class="node">
<title>Node8</title>
<g id="a_node8"><a xlink:href="World_8hpp.html" target="_top" xlink:title="Definitions of the World class and closely related code.">
<polygon fill="white" stroke="black" points="292,-67.5 292,-97.5 420,-97.5 420,-67.5 292,-67.5"/>
<text text-anchor="start" x="300" y="-85.5" font-family="Helvetica,sans-Serif" font-size="10.00">Library/include/playrho</text>
<text text-anchor="middle" x="356" y="-74.5" font-family="Helvetica,sans-Serif" font-size="10.00">/d2/World.hpp</text>
</a>
</g>
</g>
<!-- Node7&#45;&gt;Node8 -->
<g id="edge9" class="edge">
<title>Node7&#45;&gt;Node8</title>
<path fill="none" stroke="midnightblue" d="M320.32,-126.45C328.25,-116.9 337.3,-106 344.31,-97.58"/>
<polygon fill="midnightblue" stroke="midnightblue" points="317.42,-124.47 313.72,-134.4 322.8,-128.94 317.42,-124.47"/>
</g>
<!-- Node9 -->
<g id="node9" class="node">
<title>Node9</title>
<g id="a_node9"><a xlink:href="WorldBody_8hpp.html" target="_top" xlink:title="Declarations of free functions of World for bodies identified by BodyID.">
<polygon fill="white" stroke="black" points="146,-67.5 146,-97.5 274,-97.5 274,-67.5 146,-67.5"/>
<text text-anchor="start" x="154" y="-85.5" font-family="Helvetica,sans-Serif" font-size="10.00">Library/include/playrho</text>
<text text-anchor="middle" x="210" y="-74.5" font-family="Helvetica,sans-Serif" font-size="10.00">/d2/WorldBody.hpp</text>
</a>
</g>
</g>
<!-- Node7&#45;&gt;Node9 -->
<g id="edge11" class="edge">
<title>Node7&#45;&gt;Node9</title>
<path fill="none" stroke="midnightblue" d="M273.62,-128.45C259.47,-118.45 242.69,-106.6 229.92,-97.58"/>
<polygon fill="midnightblue" stroke="midnightblue" points="271.85,-131.48 282.04,-134.4 275.89,-125.77 271.85,-131.48"/>
</g>
<!-- Node8&#45;&gt;Node3 -->
<g id="edge10" class="edge">
<title>Node8&#45;&gt;Node3</title>
<path fill="none" stroke="midnightblue" d="M332.53,-60.6C321.5,-50.78 308.66,-39.34 298.81,-30.58"/>
<polygon fill="midnightblue" stroke="midnightblue" points="330.36,-63.36 340.16,-67.4 335.02,-58.13 330.36,-63.36"/>
</g>
<!-- Node9&#45;&gt;Node3 -->
<g id="edge12" class="edge">
<title>Node9&#45;&gt;Node3</title>
<path fill="none" stroke="midnightblue" d="M233.47,-60.6C244.5,-50.78 257.34,-39.34 267.19,-30.58"/>
<polygon fill="midnightblue" stroke="midnightblue" points="230.98,-58.13 225.84,-67.4 235.64,-63.36 230.98,-58.13"/>
</g>
</g>
</svg>
