<?xml version="1.0" encoding="UTF-8" standalone="no"?>
<!DOCTYPE svg PUBLIC "-//W3C//DTD SVG 1.1//EN"
 "http://www.w3.org/Graphics/SVG/1.1/DTD/svg11.dtd">
<!-- Generated by graphviz version 2.43.0 (0)
 -->
<!-- Title: Library/include/playrho/d2/ContactImpulsesFunction.hpp Pages: 1 -->
<!--zoomable 520 -->
<svg id="main" version="1.1" xmlns="http://www.w3.org/2000/svg" xmlns:xlink="http://www.w3.org/1999/xlink" xml:space="preserve" onload="init(evt)">
<style type="text/css"><![CDATA[
.edge:hover path { stroke: red; }
.edge:hover polygon { stroke: red; fill: red; }
]]></style>
<script type="text/javascript"><![CDATA[
var edges = document.getElementsByTagName('g');
if (edges && edges.length) {
  for (var i=0;i<edges.length;i++) {
    if (edges[i].id.substr(0,4)=='edge') {
      edges[i].setAttribute('class','edge');
    }
  }
}
]]></script>
        <defs>
                <circle id="rim" cx="0" cy="0" r="7"/>
                <circle id="rim2" cx="0" cy="0" r="3.5"/>
                <g id="zoomPlus">
                        <use xlink:href="#rim" fill="#404040">
                                <set attributeName="fill" to="#808080" begin="zoomplus.mouseover" end="zoomplus.mouseout"/>
                        </use>
                        <path d="M-4,0h8M0,-4v8" fill="none" stroke="white" stroke-width="1.5" pointer-events="none"/>
                </g>
                <g id="zoomMin">
                        <use xlink:href="#rim" fill="#404040">
                                <set attributeName="fill" to="#808080" begin="zoomminus.mouseover" end="zoomminus.mouseout"/>
                        </use>
                        <path d="M-4,0h8" fill="none" stroke="white" stroke-width="1.5" pointer-events="none"/>
                </g>
                <g id="dirArrow">
                        <path fill="none" stroke="white" stroke-width="1.5" d="M0,-3.0v7 M-2.5,-0.5L0,-3.0L2.5,-0.5"/>
                </g>
               <g id="resetDef">
                       <use xlink:href="#rim2" fill="#404040">
                               <set attributeName="fill" to="#808080" begin="reset.mouseover" end="reset.mouseout"/>
                       </use>
               </g>
        </defs>

<script type="text/javascript">
var viewWidth = 1104;
var viewHeight = 520;
var sectionId = 'dynsection-0';
</script>
<script xlink:href="svgpan.js"/>
<svg id="graph" class="graph">
<g id="viewport">
<title>Library/include/playrho/d2/ContactImpulsesFunction.hpp</title>
<polygon fill="white" stroke="transparent" points="-4,4 -4,-516 1099.5,-516 1099.5,4 -4,4"/>
<!-- Node1 -->
<g id="node1" class="node">
<title>Node1</title>
<g id="a_node1"><a xlink:title="Definition of the ContactImpulsesFunction type alias.">
<polygon fill="#bfbfbf" stroke="black" points="109,-481.5 109,-511.5 288,-511.5 288,-481.5 109,-481.5"/>
<text text-anchor="start" x="117" y="-499.5" font-family="Helvetica,sans-Serif" font-size="10.00">Library/include/playrho</text>
<text text-anchor="middle" x="198.5" y="-488.5" font-family="Helvetica,sans-Serif" font-size="10.00">/d2/ContactImpulsesFunction.hpp</text>
</a>
</g>
</g>
<!-- Node2 -->
<g id="node2" class="node">
<title>Node2</title>
<g id="a_node2"><a xlink:title=" ">
<polygon fill="white" stroke="#bfbfbf" points="0,-291.5 0,-310.5 65,-310.5 65,-291.5 0,-291.5"/>
<text text-anchor="middle" x="32.5" y="-298.5" font-family="Helvetica,sans-Serif" font-size="10.00">functional</text>
</a>
</g>
</g>
<!-- Node1&#45;&gt;Node2 -->
<g id="edge1" class="edge">
<title>Node1&#45;&gt;Node2</title>
<path fill="none" stroke="midnightblue" d="M168.27,-481.47C132.47,-463.13 74.1,-427.43 45.5,-378 35.36,-360.47 32.66,-337.12 32.15,-320.95"/>
<polygon fill="midnightblue" stroke="midnightblue" points="35.65,-320.61 32.1,-310.63 28.65,-320.65 35.65,-320.61"/>
</g>
<!-- Node3 -->
<g id="node3" class="node">
<title>Node3</title>
<g id="a_node3"><a xlink:href="ContactID_8hpp.html" target="_top" xlink:title="Definition of the ContactID alias and closely related code.">
<polygon fill="white" stroke="black" points="136,-420 136,-439 261,-439 261,-420 136,-420"/>
<text text-anchor="middle" x="198.5" y="-427" font-family="Helvetica,sans-Serif" font-size="10.00">playrho/ContactID.hpp</text>
</a>
</g>
</g>
<!-- Node1&#45;&gt;Node3 -->
<g id="edge2" class="edge">
<title>Node1&#45;&gt;Node3</title>
<path fill="none" stroke="midnightblue" d="M198.5,-481.4C198.5,-472.06 198.5,-459.71 198.5,-449.52"/>
<polygon fill="midnightblue" stroke="midnightblue" points="202,-449.19 198.5,-439.19 195,-449.19 202,-449.19"/>
</g>
<!-- Node25 -->
<g id="node25" class="node">
<title>Node25</title>
<g id="a_node25"><a xlink:href="ContactImpulsesList_8hpp.html" target="_top" xlink:title="Definition of the ContactImpulsesList class and closely related code.">
<polygon fill="white" stroke="black" points="431,-414.5 431,-444.5 584,-444.5 584,-414.5 431,-414.5"/>
<text text-anchor="start" x="439" y="-432.5" font-family="Helvetica,sans-Serif" font-size="10.00">playrho/d2/ContactImpulses</text>
<text text-anchor="middle" x="507.5" y="-421.5" font-family="Helvetica,sans-Serif" font-size="10.00">List.hpp</text>
</a>
</g>
</g>
<!-- Node1&#45;&gt;Node25 -->
<g id="edge38" class="edge">
<title>Node1&#45;&gt;Node25</title>
<path fill="none" stroke="midnightblue" d="M265.17,-481.48C313.82,-471.24 379.87,-457.35 430.73,-446.65"/>
<polygon fill="midnightblue" stroke="midnightblue" points="431.62,-450.04 440.69,-444.55 430.18,-443.19 431.62,-450.04"/>
</g>
<!-- Node4 -->
<g id="node4" class="node">
<title>Node4</title>
<g id="a_node4"><a xlink:href="IndexingNamedType_8hpp.html" target="_top" xlink:title="Definition of IndexingNamedType class template and related code.">
<polygon fill="white" stroke="black" points="54.5,-347.5 54.5,-377.5 218.5,-377.5 218.5,-347.5 54.5,-347.5"/>
<text text-anchor="start" x="62.5" y="-365.5" font-family="Helvetica,sans-Serif" font-size="10.00">playrho/detail/IndexingNamed</text>
<text text-anchor="middle" x="136.5" y="-354.5" font-family="Helvetica,sans-Serif" font-size="10.00">Type.hpp</text>
</a>
</g>
</g>
<!-- Node3&#45;&gt;Node4 -->
<g id="edge3" class="edge">
<title>Node3&#45;&gt;Node4</title>
<path fill="none" stroke="midnightblue" d="M190.14,-419.73C181.68,-410.86 168.27,-396.81 156.98,-384.97"/>
<polygon fill="midnightblue" stroke="midnightblue" points="159.37,-382.41 149.94,-377.59 154.31,-387.24 159.37,-382.41"/>
</g>
<!-- Node8 -->
<g id="node8" class="node">
<title>Node8</title>
<g id="a_node8"><a xlink:href="Settings_8hpp.html" target="_top" xlink:title="Types and default settings file.">
<polygon fill="white" stroke="black" points="406,-353 406,-372 523,-372 523,-353 406,-353"/>
<text text-anchor="middle" x="464.5" y="-360" font-family="Helvetica,sans-Serif" font-size="10.00">playrho/Settings.hpp</text>
</a>
</g>
</g>
<!-- Node3&#45;&gt;Node8 -->
<g id="edge8" class="edge">
<title>Node3&#45;&gt;Node8</title>
<path fill="none" stroke="midnightblue" d="M233.55,-419.94C281.29,-408.27 366.83,-387.37 419.33,-374.54"/>
<polygon fill="midnightblue" stroke="midnightblue" points="420.49,-377.86 429.37,-372.08 418.83,-371.06 420.49,-377.86"/>
</g>
<!-- Node4&#45;&gt;Node2 -->
<g id="edge5" class="edge">
<title>Node4&#45;&gt;Node2</title>
<path fill="none" stroke="midnightblue" d="M111.85,-347.4C95.18,-337.86 73.27,-325.32 56.69,-315.84"/>
<polygon fill="midnightblue" stroke="midnightblue" points="58.05,-312.59 47.63,-310.66 54.57,-318.66 58.05,-312.59"/>
</g>
<!-- Node5 -->
<g id="node5" class="node">
<title>Node5</title>
<g id="a_node5"><a xlink:title=" ">
<polygon fill="white" stroke="#bfbfbf" points="86,-291.5 86,-310.5 139,-310.5 139,-291.5 86,-291.5"/>
<text text-anchor="middle" x="112.5" y="-298.5" font-family="Helvetica,sans-Serif" font-size="10.00">cstddef</text>
</a>
</g>
</g>
<!-- Node4&#45;&gt;Node5 -->
<g id="edge4" class="edge">
<title>Node4&#45;&gt;Node5</title>
<path fill="none" stroke="midnightblue" d="M130.81,-347.4C127.5,-339.2 123.3,-328.78 119.76,-319.99"/>
<polygon fill="midnightblue" stroke="midnightblue" points="122.98,-318.62 115.99,-310.66 116.49,-321.24 122.98,-318.62"/>
</g>
<!-- Node6 -->
<g id="node6" class="node">
<title>Node6</title>
<g id="a_node6"><a xlink:title=" ">
<polygon fill="white" stroke="#bfbfbf" points="668,-0.5 668,-19.5 737,-19.5 737,-0.5 668,-0.5"/>
<text text-anchor="middle" x="702.5" y="-7.5" font-family="Helvetica,sans-Serif" font-size="10.00">type_traits</text>
</a>
</g>
</g>
<!-- Node4&#45;&gt;Node6 -->
<g id="edge6" class="edge">
<title>Node4&#45;&gt;Node6</title>
<path fill="none" stroke="midnightblue" d="M151.81,-347.45C172.14,-327.18 205.5,-287.58 205.5,-246 205.5,-246 205.5,-246 205.5,-188 205.5,-140.17 536.37,-52.56 658.18,-21.92"/>
<polygon fill="midnightblue" stroke="midnightblue" points="659.1,-25.3 667.95,-19.48 657.4,-18.51 659.1,-25.3"/>
</g>
<!-- Node7 -->
<g id="node7" class="node">
<title>Node7</title>
<g id="a_node7"><a xlink:title=" ">
<polygon fill="white" stroke="#bfbfbf" points="161,-0.5 161,-19.5 206,-19.5 206,-0.5 161,-0.5"/>
<text text-anchor="middle" x="183.5" y="-7.5" font-family="Helvetica,sans-Serif" font-size="10.00">utility</text>
</a>
</g>
</g>
<!-- Node4&#45;&gt;Node7 -->
<g id="edge7" class="edge">
<title>Node4&#45;&gt;Node7</title>
<path fill="none" stroke="midnightblue" d="M142.92,-347.24C152,-325.76 167.5,-283.58 167.5,-246 167.5,-246 167.5,-246 167.5,-126.5 167.5,-92.04 174.58,-52.33 179.32,-29.6"/>
<polygon fill="midnightblue" stroke="midnightblue" points="182.78,-30.15 181.47,-19.64 175.94,-28.67 182.78,-30.15"/>
</g>
<!-- Node8&#45;&gt;Node6 -->
<g id="edge11" class="edge">
<title>Node8&#45;&gt;Node6</title>
<path fill="none" stroke="midnightblue" d="M492.03,-352.99C548.25,-335.01 672.93,-291.75 696.5,-255 701.3,-247.52 697.81,-243.79 696.5,-235 690.21,-192.72 674.79,-185.28 668.5,-143 666.47,-129.37 668.38,-125.78 668.5,-112 668.72,-87.11 661.54,-79.59 669.5,-56 673.08,-45.37 680.18,-35.15 686.87,-27.15"/>
<polygon fill="midnightblue" stroke="midnightblue" points="689.49,-29.47 693.54,-19.68 684.27,-24.81 689.49,-29.47"/>
</g>
<!-- Node9 -->
<g id="node9" class="node">
<title>Node9</title>
<g id="a_node9"><a xlink:title=" ">
<polygon fill="white" stroke="#bfbfbf" points="309.5,-179.5 309.5,-198.5 359.5,-198.5 359.5,-179.5 309.5,-179.5"/>
<text text-anchor="middle" x="334.5" y="-186.5" font-family="Helvetica,sans-Serif" font-size="10.00">cstdint</text>
</a>
</g>
</g>
<!-- Node8&#45;&gt;Node9 -->
<g id="edge9" class="edge">
<title>Node8&#45;&gt;Node9</title>
<path fill="none" stroke="midnightblue" d="M414.73,-352.92C389.67,-345.94 361.16,-333.4 344.5,-311 322.14,-280.95 326.01,-234.31 330.46,-208.6"/>
<polygon fill="midnightblue" stroke="midnightblue" points="333.92,-209.16 332.39,-198.68 327.04,-207.82 333.92,-209.16"/>
</g>
<!-- Node10 -->
<g id="node10" class="node">
<title>Node10</title>
<g id="a_node10"><a xlink:title=" ">
<polygon fill="white" stroke="#bfbfbf" points="359.5,-118 359.5,-137 403.5,-137 403.5,-118 359.5,-118"/>
<text text-anchor="middle" x="381.5" y="-125" font-family="Helvetica,sans-Serif" font-size="10.00">limits</text>
</a>
</g>
</g>
<!-- Node8&#45;&gt;Node10 -->
<g id="edge10" class="edge">
<title>Node8&#45;&gt;Node10</title>
<path fill="none" stroke="midnightblue" d="M409.53,-352.95C382.25,-346 350.86,-333.48 330.5,-311 290.11,-266.41 271.31,-231.6 300.5,-179 311.02,-160.05 331.93,-147.28 349.87,-139.33"/>
<polygon fill="midnightblue" stroke="midnightblue" points="351.52,-142.43 359.44,-135.39 348.86,-135.95 351.52,-142.43"/>
</g>
<!-- Node11 -->
<g id="node11" class="node">
<title>Node11</title>
<g id="a_node11"><a xlink:href="Real_8hpp.html" target="_top" xlink:title="Real number definition file.">
<polygon fill="white" stroke="black" points="564,-179.5 564,-198.5 663,-198.5 663,-179.5 564,-179.5"/>
<text text-anchor="middle" x="613.5" y="-186.5" font-family="Helvetica,sans-Serif" font-size="10.00">playrho/Real.hpp</text>
</a>
</g>
</g>
<!-- Node8&#45;&gt;Node11 -->
<g id="edge12" class="edge">
<title>Node8&#45;&gt;Node11</title>
<path fill="none" stroke="midnightblue" d="M468.95,-352.9C483.57,-324.61 529.33,-236.19 530.5,-235 544.34,-220.94 563.52,-210.15 579.95,-202.67"/>
<polygon fill="midnightblue" stroke="midnightblue" points="581.46,-205.83 589.25,-198.64 578.68,-199.4 581.46,-205.83"/>
</g>
<!-- Node17 -->
<g id="node17" class="node">
<title>Node17</title>
<g id="a_node17"><a xlink:href="RealConstants_8hpp.html" target="_top" xlink:title="Definitions file for constant expressions of type Real.">
<polygon fill="white" stroke="black" points="539.5,-235.5 539.5,-254.5 687.5,-254.5 687.5,-235.5 539.5,-235.5"/>
<text text-anchor="middle" x="613.5" y="-242.5" font-family="Helvetica,sans-Serif" font-size="10.00">playrho/RealConstants.hpp</text>
</a>
</g>
</g>
<!-- Node8&#45;&gt;Node17 -->
<g id="edge22" class="edge">
<title>Node8&#45;&gt;Node17</title>
<path fill="none" stroke="midnightblue" d="M475.7,-352.82C500.94,-333.25 562.52,-285.52 594.11,-261.03"/>
<polygon fill="midnightblue" stroke="midnightblue" points="596.41,-263.67 602.17,-254.78 592.12,-258.14 596.41,-263.67"/>
</g>
<!-- Node18 -->
<g id="node18" class="node">
<title>Node18</title>
<g id="a_node18"><a xlink:href="Units_8hpp.html" target="_top" xlink:title="Declarations for physical units possibly backed by strong types.">
<polygon fill="white" stroke="black" points="782,-291.5 782,-310.5 885,-310.5 885,-291.5 782,-291.5"/>
<text text-anchor="middle" x="833.5" y="-298.5" font-family="Helvetica,sans-Serif" font-size="10.00">playrho/Units.hpp</text>
</a>
</g>
</g>
<!-- Node8&#45;&gt;Node18 -->
<g id="edge24" class="edge">
<title>Node8&#45;&gt;Node18</title>
<path fill="none" stroke="midnightblue" d="M505.75,-352.97C516.1,-350.92 527.19,-348.81 537.5,-347 618.21,-332.86 711.75,-319.07 771.72,-310.56"/>
<polygon fill="midnightblue" stroke="midnightblue" points="772.37,-314.01 781.78,-309.14 771.39,-307.07 772.37,-314.01"/>
</g>
<!-- Node22 -->
<g id="node22" class="node">
<title>Node22</title>
<g id="a_node22"><a xlink:href="WiderType_8hpp.html" target="_top" xlink:title="Definition of the WiderType alias template.">
<polygon fill="white" stroke="black" points="353.5,-291.5 353.5,-310.5 481.5,-310.5 481.5,-291.5 353.5,-291.5"/>
<text text-anchor="middle" x="417.5" y="-298.5" font-family="Helvetica,sans-Serif" font-size="10.00">playrho/WiderType.hpp</text>
</a>
</g>
</g>
<!-- Node8&#45;&gt;Node22 -->
<g id="edge33" class="edge">
<title>Node8&#45;&gt;Node22</title>
<path fill="none" stroke="midnightblue" d="M457.77,-352.98C450.72,-344.05 439.47,-329.81 430.65,-318.64"/>
<polygon fill="midnightblue" stroke="midnightblue" points="433.17,-316.19 424.22,-310.51 427.67,-320.53 433.17,-316.19"/>
</g>
<!-- Node11&#45;&gt;Node10 -->
<g id="edge13" class="edge">
<title>Node11&#45;&gt;Node10</title>
<path fill="none" stroke="midnightblue" d="M580.26,-179.48C535.72,-168.05 457.21,-147.92 413.37,-136.67"/>
<polygon fill="midnightblue" stroke="midnightblue" points="414.09,-133.25 403.54,-134.15 412.35,-140.03 414.09,-133.25"/>
</g>
<!-- Node12 -->
<g id="node12" class="node">
<title>Node12</title>
<g id="a_node12"><a xlink:href="Templates_8hpp.html" target="_top" xlink:title="Definitions of miscellaneous template related code.">
<polygon fill="white" stroke="black" points="677.5,-118 677.5,-137 805.5,-137 805.5,-118 677.5,-118"/>
<text text-anchor="middle" x="741.5" y="-125" font-family="Helvetica,sans-Serif" font-size="10.00">playrho/Templates.hpp</text>
</a>
</g>
</g>
<!-- Node11&#45;&gt;Node12 -->
<g id="edge14" class="edge">
<title>Node11&#45;&gt;Node12</title>
<path fill="none" stroke="midnightblue" d="M631.84,-179.48C653.32,-169.49 689.12,-152.85 713.95,-141.31"/>
<polygon fill="midnightblue" stroke="midnightblue" points="715.6,-144.4 723.19,-137.01 712.65,-138.05 715.6,-144.4"/>
</g>
<!-- Node12&#45;&gt;Node6 -->
<g id="edge16" class="edge">
<title>Node12&#45;&gt;Node6</title>
<path fill="none" stroke="midnightblue" d="M742.42,-117.92C743.54,-104.31 744.43,-77.14 736.5,-56 732.52,-45.39 725.18,-35.17 718.34,-27.16"/>
<polygon fill="midnightblue" stroke="midnightblue" points="720.87,-24.74 711.55,-19.69 715.69,-29.44 720.87,-24.74"/>
</g>
<!-- Node13 -->
<g id="node13" class="node">
<title>Node13</title>
<g id="a_node13"><a xlink:title=" ">
<polygon fill="white" stroke="#bfbfbf" points="678,-56.5 678,-75.5 727,-75.5 727,-56.5 678,-56.5"/>
<text text-anchor="middle" x="702.5" y="-63.5" font-family="Helvetica,sans-Serif" font-size="10.00">cstdlib</text>
</a>
</g>
</g>
<!-- Node12&#45;&gt;Node13 -->
<g id="edge15" class="edge">
<title>Node12&#45;&gt;Node13</title>
<path fill="none" stroke="midnightblue" d="M735.91,-117.98C730.12,-109.14 720.91,-95.09 713.63,-83.98"/>
<polygon fill="midnightblue" stroke="midnightblue" points="716.49,-81.95 708.08,-75.51 710.63,-85.79 716.49,-81.95"/>
</g>
<!-- Node14 -->
<g id="node14" class="node">
<title>Node14</title>
<g id="a_node14"><a xlink:href="detail_2Templates_8hpp.html" target="_top" xlink:title="Low&#45;level declarations for general class &amp; function templates.">
<polygon fill="white" stroke="black" points="271.5,-56.5 271.5,-75.5 429.5,-75.5 429.5,-56.5 271.5,-56.5"/>
<text text-anchor="middle" x="350.5" y="-63.5" font-family="Helvetica,sans-Serif" font-size="10.00">playrho/detail/Templates.hpp</text>
</a>
</g>
</g>
<!-- Node12&#45;&gt;Node14 -->
<g id="edge17" class="edge">
<title>Node12&#45;&gt;Node14</title>
<path fill="none" stroke="midnightblue" d="M685.48,-117.98C614.49,-107.17 492.3,-88.58 416.76,-77.08"/>
<polygon fill="midnightblue" stroke="midnightblue" points="416.83,-73.55 406.42,-75.51 415.78,-80.47 416.83,-73.55"/>
</g>
<!-- Node14&#45;&gt;Node6 -->
<g id="edge20" class="edge">
<title>Node14&#45;&gt;Node6</title>
<path fill="none" stroke="midnightblue" d="M406.28,-56.44C475.87,-45.77 593.51,-27.72 657.6,-17.89"/>
<polygon fill="midnightblue" stroke="midnightblue" points="658.44,-21.3 667.79,-16.32 657.38,-14.38 658.44,-21.3"/>
</g>
<!-- Node14&#45;&gt;Node7 -->
<g id="edge21" class="edge">
<title>Node14&#45;&gt;Node7</title>
<path fill="none" stroke="midnightblue" d="M324.04,-56.44C294.66,-46.94 247.24,-31.61 215.72,-21.42"/>
<polygon fill="midnightblue" stroke="midnightblue" points="216.68,-18.05 206.09,-18.3 214.53,-24.71 216.68,-18.05"/>
</g>
<!-- Node15 -->
<g id="node15" class="node">
<title>Node15</title>
<g id="a_node15"><a xlink:title=" ">
<polygon fill="white" stroke="#bfbfbf" points="233.5,-0.5 233.5,-19.5 297.5,-19.5 297.5,-0.5 233.5,-0.5"/>
<text text-anchor="middle" x="265.5" y="-7.5" font-family="Helvetica,sans-Serif" font-size="10.00">algorithm</text>
</a>
</g>
</g>
<!-- Node14&#45;&gt;Node15 -->
<g id="edge18" class="edge">
<title>Node14&#45;&gt;Node15</title>
<path fill="none" stroke="midnightblue" d="M336.84,-56.32C323.58,-47.9 303.23,-34.97 287.65,-25.07"/>
<polygon fill="midnightblue" stroke="midnightblue" points="289.44,-22.06 279.12,-19.65 285.69,-27.97 289.44,-22.06"/>
</g>
<!-- Node16 -->
<g id="node16" class="node">
<title>Node16</title>
<g id="a_node16"><a xlink:title=" ">
<polygon fill="white" stroke="#bfbfbf" points="324,-0.5 324,-19.5 377,-19.5 377,-0.5 324,-0.5"/>
<text text-anchor="middle" x="350.5" y="-7.5" font-family="Helvetica,sans-Serif" font-size="10.00">iterator</text>
</a>
</g>
</g>
<!-- Node14&#45;&gt;Node16 -->
<g id="edge19" class="edge">
<title>Node14&#45;&gt;Node16</title>
<path fill="none" stroke="midnightblue" d="M350.5,-56.08C350.5,-49.01 350.5,-38.86 350.5,-29.99"/>
<polygon fill="midnightblue" stroke="midnightblue" points="354,-29.75 350.5,-19.75 347,-29.75 354,-29.75"/>
</g>
<!-- Node17&#45;&gt;Node11 -->
<g id="edge23" class="edge">
<title>Node17&#45;&gt;Node11</title>
<path fill="none" stroke="midnightblue" d="M613.5,-235.08C613.5,-228.01 613.5,-217.86 613.5,-208.99"/>
<polygon fill="midnightblue" stroke="midnightblue" points="617,-208.75 613.5,-198.75 610,-208.75 617,-208.75"/>
</g>
<!-- Node18&#45;&gt;Node6 -->
<g id="edge26" class="edge">
<title>Node18&#45;&gt;Node6</title>
<path fill="none" stroke="midnightblue" d="M885.01,-295.15C914.31,-289.8 949.61,-278.56 972.5,-255 993.47,-233.41 991.5,-220.1 991.5,-190 991.5,-190 991.5,-190 991.5,-126.5 991.5,-74.49 828.06,-35.39 747,-19.19"/>
<polygon fill="midnightblue" stroke="midnightblue" points="747.56,-15.73 737.07,-17.24 746.21,-22.6 747.56,-15.73"/>
</g>
<!-- Node18&#45;&gt;Node11 -->
<g id="edge27" class="edge">
<title>Node18&#45;&gt;Node11</title>
<path fill="none" stroke="midnightblue" d="M816.24,-291.37C777.84,-272.17 685.18,-225.84 639.65,-203.07"/>
<polygon fill="midnightblue" stroke="midnightblue" points="641.19,-199.93 630.68,-198.59 638.06,-206.19 641.19,-199.93"/>
</g>
<!-- Node18&#45;&gt;Node12 -->
<g id="edge29" class="edge">
<title>Node18&#45;&gt;Node12</title>
<path fill="none" stroke="midnightblue" d="M828.81,-291.26C814.35,-264.31 770.26,-182.12 750.85,-145.92"/>
<polygon fill="midnightblue" stroke="midnightblue" points="753.88,-144.18 746.07,-137.02 747.71,-147.49 753.88,-144.18"/>
</g>
<!-- Node18&#45;&gt;Node17 -->
<g id="edge28" class="edge">
<title>Node18&#45;&gt;Node17</title>
<path fill="none" stroke="midnightblue" d="M798.64,-291.44C760.58,-282.1 699.54,-267.12 658.04,-256.93"/>
<polygon fill="midnightblue" stroke="midnightblue" points="658.74,-253.5 648.2,-254.52 657.07,-260.3 658.74,-253.5"/>
</g>
<!-- Node19 -->
<g id="node19" class="node">
<title>Node19</title>
<g id="a_node19"><a xlink:title=" ">
<polygon fill="white" stroke="#bfbfbf" points="1020,-235.5 1020,-254.5 1067,-254.5 1067,-235.5 1020,-235.5"/>
<text text-anchor="middle" x="1043.5" y="-242.5" font-family="Helvetica,sans-Serif" font-size="10.00">cmath</text>
</a>
</g>
</g>
<!-- Node18&#45;&gt;Node19 -->
<g id="edge25" class="edge">
<title>Node18&#45;&gt;Node19</title>
<path fill="none" stroke="midnightblue" d="M866.78,-291.44C905.95,-281.37 970.64,-264.74 1009.94,-254.63"/>
<polygon fill="midnightblue" stroke="midnightblue" points="1011.02,-257.97 1019.83,-252.09 1009.27,-251.19 1011.02,-257.97"/>
</g>
<!-- Node20 -->
<g id="node20" class="node">
<title>Node20</title>
<g id="a_node20"><a xlink:href="to__underlying_8hpp.html" target="_top" xlink:title="Definition of to_underlying function template.">
<polygon fill="white" stroke="black" points="819.5,-235.5 819.5,-254.5 963.5,-254.5 963.5,-235.5 819.5,-235.5"/>
<text text-anchor="middle" x="891.5" y="-242.5" font-family="Helvetica,sans-Serif" font-size="10.00">playrho/to_underlying.hpp</text>
</a>
</g>
</g>
<!-- Node18&#45;&gt;Node20 -->
<g id="edge30" class="edge">
<title>Node18&#45;&gt;Node20</title>
<path fill="none" stroke="midnightblue" d="M842.82,-291.32C851.39,-283.34 864.31,-271.31 874.69,-261.65"/>
<polygon fill="midnightblue" stroke="midnightblue" points="877.08,-264.21 882.01,-254.83 872.31,-259.09 877.08,-264.21"/>
</g>
<!-- Node21 -->
<g id="node21" class="node">
<title>Node21</title>
<g id="a_node21"><a xlink:href="underlying__type_8hpp.html" target="_top" xlink:title="Definition of underlying_type trait class and related code.">
<polygon fill="white" stroke="black" points="824,-112.5 824,-142.5 963,-142.5 963,-112.5 824,-112.5"/>
<text text-anchor="start" x="832" y="-130.5" font-family="Helvetica,sans-Serif" font-size="10.00">playrho/detail/underlying</text>
<text text-anchor="middle" x="893.5" y="-119.5" font-family="Helvetica,sans-Serif" font-size="10.00">_type.hpp</text>
</a>
</g>
</g>
<!-- Node20&#45;&gt;Node21 -->
<g id="edge31" class="edge">
<title>Node20&#45;&gt;Node21</title>
<path fill="none" stroke="midnightblue" d="M891.65,-235.32C891.95,-217.97 892.63,-178.46 893.08,-152.66"/>
<polygon fill="midnightblue" stroke="midnightblue" points="896.58,-152.6 893.26,-142.55 889.58,-152.48 896.58,-152.6"/>
</g>
<!-- Node21&#45;&gt;Node6 -->
<g id="edge32" class="edge">
<title>Node21&#45;&gt;Node6</title>
<path fill="none" stroke="midnightblue" d="M870.08,-112.34C833.32,-90.11 762.5,-47.28 725.81,-25.09"/>
<polygon fill="midnightblue" stroke="midnightblue" points="727.2,-21.85 716.84,-19.67 723.58,-27.84 727.2,-21.85"/>
</g>
<!-- Node23 -->
<g id="node23" class="node">
<title>Node23</title>
<g id="a_node23"><a xlink:href="Wider_8hpp.html" target="_top" xlink:title="Definition of the Wider class template and specializations.">
<polygon fill="white" stroke="black" points="347.5,-235.5 347.5,-254.5 483.5,-254.5 483.5,-235.5 347.5,-235.5"/>
<text text-anchor="middle" x="415.5" y="-242.5" font-family="Helvetica,sans-Serif" font-size="10.00">playrho/detail/Wider.hpp</text>
</a>
</g>
</g>
<!-- Node22&#45;&gt;Node23 -->
<g id="edge34" class="edge">
<title>Node22&#45;&gt;Node23</title>
<path fill="none" stroke="midnightblue" d="M417.17,-291.08C416.91,-284.01 416.53,-273.86 416.2,-264.99"/>
<polygon fill="midnightblue" stroke="midnightblue" points="419.69,-264.61 415.82,-254.75 412.7,-264.87 419.69,-264.61"/>
</g>
<!-- Node23&#45;&gt;Node6 -->
<g id="edge36" class="edge">
<title>Node23&#45;&gt;Node6</title>
<path fill="none" stroke="midnightblue" d="M436.19,-235.36C454.12,-227.35 480.3,-214.37 500.5,-199 570.05,-146.07 568.81,-112.49 635.5,-56 649.14,-44.45 665.82,-33.23 679.13,-24.89"/>
<polygon fill="midnightblue" stroke="midnightblue" points="681.04,-27.83 687.72,-19.6 677.37,-21.86 681.04,-27.83"/>
</g>
<!-- Node23&#45;&gt;Node9 -->
<g id="edge35" class="edge">
<title>Node23&#45;&gt;Node9</title>
<path fill="none" stroke="midnightblue" d="M402.49,-235.32C389.97,-226.98 370.82,-214.21 356.03,-204.35"/>
<polygon fill="midnightblue" stroke="midnightblue" points="357.74,-201.29 347.48,-198.65 353.86,-207.11 357.74,-201.29"/>
</g>
<!-- Node24 -->
<g id="node24" class="node">
<title>Node24</title>
<g id="a_node24"><a xlink:href="Defines_8hpp.html" target="_top" xlink:title="Miscellaneous C&#45;preprocessor definitions.">
<polygon fill="white" stroke="black" points="377.5,-179.5 377.5,-198.5 491.5,-198.5 491.5,-179.5 377.5,-179.5"/>
<text text-anchor="middle" x="434.5" y="-186.5" font-family="Helvetica,sans-Serif" font-size="10.00">playrho/Defines.hpp</text>
</a>
</g>
</g>
<!-- Node23&#45;&gt;Node24 -->
<g id="edge37" class="edge">
<title>Node23&#45;&gt;Node24</title>
<path fill="none" stroke="midnightblue" d="M418.64,-235.08C421.18,-227.85 424.86,-217.41 428.03,-208.4"/>
<polygon fill="midnightblue" stroke="midnightblue" points="431.4,-209.35 431.42,-198.75 424.8,-207.02 431.4,-209.35"/>
</g>
<!-- Node25&#45;&gt;Node6 -->
<g id="edge41" class="edge">
<title>Node25&#45;&gt;Node6</title>
<path fill="none" stroke="midnightblue" d="M584.07,-427.89C743.31,-424.54 1095.5,-405.44 1095.5,-302 1095.5,-302 1095.5,-302 1095.5,-126.5 1095.5,-54.57 850.08,-24.2 747.12,-14.62"/>
<polygon fill="midnightblue" stroke="midnightblue" points="747.31,-11.12 737.03,-13.7 746.68,-18.09 747.31,-11.12"/>
</g>
<!-- Node25&#45;&gt;Node8 -->
<g id="edge42" class="edge">
<title>Node25&#45;&gt;Node8</title>
<path fill="none" stroke="midnightblue" d="M498.17,-414.4C491.6,-404.46 482.76,-391.11 475.79,-380.57"/>
<polygon fill="midnightblue" stroke="midnightblue" points="478.69,-378.6 470.25,-372.19 472.85,-382.47 478.69,-378.6"/>
</g>
<!-- Node25&#45;&gt;Node15 -->
<g id="edge39" class="edge">
<title>Node25&#45;&gt;Node15</title>
<path fill="none" stroke="midnightblue" d="M444.6,-414.44C366.52,-392.84 243.5,-343.37 243.5,-246 243.5,-246 243.5,-246 243.5,-126.5 243.5,-91.59 253.32,-51.78 259.84,-29.19"/>
<polygon fill="midnightblue" stroke="midnightblue" points="263.2,-30.17 262.71,-19.59 256.49,-28.16 263.2,-30.17"/>
</g>
<!-- Node25&#45;&gt;Node18 -->
<g id="edge43" class="edge">
<title>Node25&#45;&gt;Node18</title>
<path fill="none" stroke="midnightblue" d="M514.21,-414.35C523.86,-395.65 543.52,-363.21 570.5,-347 579.1,-341.83 696.64,-323.03 771.65,-311.43"/>
<polygon fill="midnightblue" stroke="midnightblue" points="772.58,-314.82 781.93,-309.84 771.52,-307.91 772.58,-314.82"/>
</g>
<!-- Node26 -->
<g id="node26" class="node">
<title>Node26</title>
<g id="a_node26"><a xlink:title=" ">
<polygon fill="white" stroke="#bfbfbf" points="579.5,-353 579.5,-372 631.5,-372 631.5,-353 579.5,-353"/>
<text text-anchor="middle" x="605.5" y="-360" font-family="Helvetica,sans-Serif" font-size="10.00">cassert</text>
</a>
</g>
</g>
<!-- Node25&#45;&gt;Node26 -->
<g id="edge40" class="edge">
<title>Node25&#45;&gt;Node26</title>
<path fill="none" stroke="midnightblue" d="M528.76,-414.4C545.2,-403.5 567.84,-388.48 584.27,-377.58"/>
<polygon fill="midnightblue" stroke="midnightblue" points="586.28,-380.45 592.67,-372.01 582.41,-374.62 586.28,-380.45"/>
</g>
</g>
</svg>
        <g id="navigator" transform="translate(0 0)" fill="#404254">
                <rect fill="#f2f5e9" fill-opacity="0.5" stroke="#606060" stroke-width=".5" x="0" y="0" width="60" height="60"/>
                <use id="zoomplus" xlink:href="#zoomPlus" x="17" y="9" onmousedown="handleZoom(evt,'in')"/>
                <use id="zoomminus" xlink:href="#zoomMin" x="42" y="9" onmousedown="handleZoom(evt,'out')"/>
                <use id="reset" xlink:href="#resetDef" x="30" y="36" onmousedown="handleReset()"/>
                <g id="arrowUp" xlink:href="#dirArrow" transform="translate(30 24)" onmousedown="handlePan(0,-1)">
                  <use xlink:href="#rim" fill="#404040">
                        <set attributeName="fill" to="#808080" begin="arrowUp.mouseover" end="arrowUp.mouseout"/>
                  </use>
                  <path fill="none" stroke="white" stroke-width="1.5" d="M0,-3.0v7 M-2.5,-0.5L0,-3.0L2.5,-0.5"/>
                </g>
                <g id="arrowRight" xlink:href="#dirArrow" transform="rotate(90) translate(36 -43)" onmousedown="handlePan(1,0)">
                  <use xlink:href="#rim" fill="#404040">
                        <set attributeName="fill" to="#808080" begin="arrowRight.mouseover" end="arrowRight.mouseout"/>
                  </use>
                  <path fill="none" stroke="white" stroke-width="1.5" d="M0,-3.0v7 M-2.5,-0.5L0,-3.0L2.5,-0.5"/>
                </g>
                <g id="arrowDown" xlink:href="#dirArrow" transform="rotate(180) translate(-30 -48)" onmousedown="handlePan(0,1)">
                  <use xlink:href="#rim" fill="#404040">
                        <set attributeName="fill" to="#808080" begin="arrowDown.mouseover" end="arrowDown.mouseout"/>
                  </use>
                  <path fill="none" stroke="white" stroke-width="1.5" d="M0,-3.0v7 M-2.5,-0.5L0,-3.0L2.5,-0.5"/>
                </g>
                <g id="arrowLeft" xlink:href="#dirArrow" transform="rotate(270) translate(-36 17)" onmousedown="handlePan(-1,0)">
                  <use xlink:href="#rim" fill="#404040">
                        <set attributeName="fill" to="#808080" begin="arrowLeft.mouseover" end="arrowLeft.mouseout"/>
                  </use>
                  <path fill="none" stroke="white" stroke-width="1.5" d="M0,-3.0v7 M-2.5,-0.5L0,-3.0L2.5,-0.5"/>
                </g>
        </g>
        <svg viewBox="0 0 15 15" width="100%" height="30px" preserveAspectRatio="xMaxYMin meet">
         <g id="arrow_out" transform="scale(0.3 0.3)">
          <a xlink:href="ContactImpulsesFunction_8hpp__incl_org.svg" target="_base">
           <rect id="button" ry="5" rx="5" y="6" x="6" height="38" width="38"
                fill="#f2f5e9" fill-opacity="0.5" stroke="#606060" stroke-width="1.0"/>
           <path id="arrow"
             d="M 11.500037,31.436501 C 11.940474,20.09759 22.043105,11.32322 32.158766,21.979434 L 37.068811,17.246167 C 37.068811,17.246167 37.088388,32 37.088388,32 L 22.160133,31.978069 C 22.160133,31.978069 26.997745,27.140456 26.997745,27.140456 C 18.528582,18.264221 13.291696,25.230495 11.500037,31.436501 z"
             style="fill:#404040;"/>
          </a>
         </g>
        </svg>
</svg>
