<?xml version="1.0" encoding="UTF-8" standalone="no"?>
<!DOCTYPE svg PUBLIC "-//W3C//DTD SVG 1.1//EN"
 "http://www.w3.org/Graphics/SVG/1.1/DTD/svg11.dtd">
<!-- Generated by graphviz version 2.43.0 (0)
 -->
<!-- Title: Library/include/playrho/d2/ContactImpulsesList.hpp Pages: 1 -->
<!--zoomable 442 -->
<svg id="main" version="1.1" xmlns="http://www.w3.org/2000/svg" xmlns:xlink="http://www.w3.org/1999/xlink" xml:space="preserve" onload="init(evt)">
<style type="text/css"><![CDATA[
.edge:hover path { stroke: red; }
.edge:hover polygon { stroke: red; fill: red; }
]]></style>
<script type="text/javascript"><![CDATA[
var edges = document.getElementsByTagName('g');
if (edges && edges.length) {
  for (var i=0;i<edges.length;i++) {
    if (edges[i].id.substr(0,4)=='edge') {
      edges[i].setAttribute('class','edge');
    }
  }
}
]]></script>
        <defs>
                <circle id="rim" cx="0" cy="0" r="7"/>
                <circle id="rim2" cx="0" cy="0" r="3.5"/>
                <g id="zoomPlus">
                        <use xlink:href="#rim" fill="#404040">
                                <set attributeName="fill" to="#808080" begin="zoomplus.mouseover" end="zoomplus.mouseout"/>
                        </use>
                        <path d="M-4,0h8M0,-4v8" fill="none" stroke="white" stroke-width="1.5" pointer-events="none"/>
                </g>
                <g id="zoomMin">
                        <use xlink:href="#rim" fill="#404040">
                                <set attributeName="fill" to="#808080" begin="zoomminus.mouseover" end="zoomminus.mouseout"/>
                        </use>
                        <path d="M-4,0h8" fill="none" stroke="white" stroke-width="1.5" pointer-events="none"/>
                </g>
                <g id="dirArrow">
                        <path fill="none" stroke="white" stroke-width="1.5" d="M0,-3.0v7 M-2.5,-0.5L0,-3.0L2.5,-0.5"/>
                </g>
               <g id="resetDef">
                       <use xlink:href="#rim2" fill="#404040">
                               <set attributeName="fill" to="#808080" begin="reset.mouseover" end="reset.mouseout"/>
                       </use>
               </g>
        </defs>

<script type="text/javascript">
var viewWidth = 925;
var viewHeight = 442;
var sectionId = 'dynsection-0';
</script>
<script xlink:href="svgpan.js"/>
<svg id="graph" class="graph">
<g id="viewport">
<title>Library/include/playrho/d2/ContactImpulsesList.hpp</title>
<polygon fill="white" stroke="transparent" points="-4,4 -4,-438 920.98,-438 920.98,4 -4,4"/>
<!-- Node1 -->
<g id="node1" class="node">
<title>Node1</title>
<g id="a_node1"><a xlink:title="Definition of the ContactImpulsesList class and closely related code.">
<polygon fill="#bfbfbf" stroke="black" points="0,-403.5 0,-433.5 155,-433.5 155,-403.5 0,-403.5"/>
<text text-anchor="start" x="8" y="-421.5" font-family="Helvetica,sans-Serif" font-size="10.00">Library/include/playrho</text>
<text text-anchor="middle" x="77.5" y="-410.5" font-family="Helvetica,sans-Serif" font-size="10.00">/d2/ContactImpulsesList.hpp</text>
</a>
</g>
</g>
<!-- Node2 -->
<g id="node2" class="node">
<title>Node2</title>
<g id="a_node2"><a xlink:title=" ">
<polygon fill="white" stroke="#bfbfbf" points="143.5,-0.5 143.5,-19.5 207.5,-19.5 207.5,-0.5 143.5,-0.5"/>
<text text-anchor="middle" x="175.5" y="-7.5" font-family="Helvetica,sans-Serif" font-size="10.00">algorithm</text>
</a>
</g>
</g>
<!-- Node1&#45;&gt;Node2 -->
<g id="edge1" class="edge">
<title>Node1&#45;&gt;Node2</title>
<path fill="none" stroke="midnightblue" d="M65.78,-403.19C49.9,-382.3 23.5,-341.62 23.5,-302 23.5,-302 23.5,-302 23.5,-132 23.5,-74.18 91.65,-39.54 136.69,-22.96"/>
<polygon fill="midnightblue" stroke="midnightblue" points="137.93,-26.24 146.19,-19.6 135.6,-19.64 137.93,-26.24"/>
</g>
<!-- Node3 -->
<g id="node3" class="node">
<title>Node3</title>
<g id="a_node3"><a xlink:title=" ">
<polygon fill="white" stroke="#bfbfbf" points="51.5,-291.5 51.5,-310.5 103.5,-310.5 103.5,-291.5 51.5,-291.5"/>
<text text-anchor="middle" x="77.5" y="-298.5" font-family="Helvetica,sans-Serif" font-size="10.00">cassert</text>
</a>
</g>
</g>
<!-- Node1&#45;&gt;Node3 -->
<g id="edge2" class="edge">
<title>Node1&#45;&gt;Node3</title>
<path fill="none" stroke="midnightblue" d="M77.5,-403.34C77.5,-382.62 77.5,-344.02 77.5,-320.9"/>
<polygon fill="midnightblue" stroke="midnightblue" points="81,-320.67 77.5,-310.67 74,-320.67 81,-320.67"/>
</g>
<!-- Node4 -->
<g id="node4" class="node">
<title>Node4</title>
<g id="a_node4"><a xlink:href="Settings_8hpp.html" target="_top" xlink:title="Types and default settings file.">
<polygon fill="white" stroke="black" points="268,-347.5 268,-366.5 385,-366.5 385,-347.5 268,-347.5"/>
<text text-anchor="middle" x="326.5" y="-354.5" font-family="Helvetica,sans-Serif" font-size="10.00">playrho/Settings.hpp</text>
</a>
</g>
</g>
<!-- Node1&#45;&gt;Node4 -->
<g id="edge3" class="edge">
<title>Node1&#45;&gt;Node4</title>
<path fill="none" stroke="midnightblue" d="M136.19,-403.47C180.46,-392.9 240.31,-378.59 280.99,-368.87"/>
<polygon fill="midnightblue" stroke="midnightblue" points="281.99,-372.23 290.9,-366.51 280.36,-365.43 281.99,-372.23"/>
</g>
<!-- Node4&#45;&gt;Node2 -->
<g id="edge4" class="edge">
<title>Node4&#45;&gt;Node2</title>
<path fill="none" stroke="midnightblue" d="M299.59,-347.41C260.72,-333.13 193.5,-300.54 193.5,-246 193.5,-246 193.5,-246 193.5,-132 193.5,-95.5 185.39,-53.47 180.05,-29.79"/>
<polygon fill="midnightblue" stroke="midnightblue" points="183.39,-28.68 177.71,-19.74 176.57,-30.27 183.39,-28.68"/>
</g>
<!-- Node4&#45;&gt;Node3 -->
<g id="edge6" class="edge">
<title>Node4&#45;&gt;Node3</title>
<path fill="none" stroke="midnightblue" d="M282.93,-347.43C241.71,-339.19 177.89,-326.09 113.72,-311.21"/>
<polygon fill="midnightblue" stroke="midnightblue" points="114.38,-307.77 103.84,-308.91 112.79,-314.59 114.38,-307.77"/>
</g>
<!-- Node5 -->
<g id="node5" class="node">
<title>Node5</title>
<g id="a_node5"><a xlink:title=" ">
<polygon fill="white" stroke="#bfbfbf" points="680,-291.5 680,-310.5 733,-310.5 733,-291.5 680,-291.5"/>
<text text-anchor="middle" x="706.5" y="-298.5" font-family="Helvetica,sans-Serif" font-size="10.00">cstddef</text>
</a>
</g>
</g>
<!-- Node4&#45;&gt;Node5 -->
<g id="edge5" class="edge">
<title>Node4&#45;&gt;Node5</title>
<path fill="none" stroke="midnightblue" d="M385.26,-350.39C451.92,-343.56 564.04,-330.68 669.94,-310.9"/>
<polygon fill="midnightblue" stroke="midnightblue" points="670.66,-314.33 679.84,-309.03 669.36,-307.45 670.66,-314.33"/>
</g>
<!-- Node6 -->
<g id="node6" class="node">
<title>Node6</title>
<g id="a_node6"><a xlink:title=" ">
<polygon fill="white" stroke="#bfbfbf" points="121.5,-291.5 121.5,-310.5 165.5,-310.5 165.5,-291.5 121.5,-291.5"/>
<text text-anchor="middle" x="143.5" y="-298.5" font-family="Helvetica,sans-Serif" font-size="10.00">cfloat</text>
</a>
</g>
</g>
<!-- Node4&#45;&gt;Node6 -->
<g id="edge7" class="edge">
<title>Node4&#45;&gt;Node6</title>
<path fill="none" stroke="midnightblue" d="M297.5,-347.44C264.35,-337.66 210.22,-321.69 175.76,-311.52"/>
<polygon fill="midnightblue" stroke="midnightblue" points="176.32,-308.04 165.74,-308.56 174.34,-314.75 176.32,-308.04"/>
</g>
<!-- Node7 -->
<g id="node7" class="node">
<title>Node7</title>
<g id="a_node7"><a xlink:title=" ">
<polygon fill="white" stroke="#bfbfbf" points="702,-235.5 702,-254.5 749,-254.5 749,-235.5 702,-235.5"/>
<text text-anchor="middle" x="725.5" y="-242.5" font-family="Helvetica,sans-Serif" font-size="10.00">cmath</text>
</a>
</g>
</g>
<!-- Node4&#45;&gt;Node7 -->
<g id="edge8" class="edge">
<title>Node4&#45;&gt;Node7</title>
<path fill="none" stroke="midnightblue" d="M364.78,-347.43C397.43,-339.58 445.32,-326.81 485.5,-311 503.63,-303.87 506.15,-297.54 524.5,-291 593.48,-266.41 616.42,-272.48 691.78,-255.02"/>
<polygon fill="midnightblue" stroke="midnightblue" points="692.83,-258.37 701.75,-252.65 691.21,-251.56 692.83,-258.37"/>
</g>
<!-- Node8 -->
<g id="node8" class="node">
<title>Node8</title>
<g id="a_node8"><a xlink:title=" ">
<polygon fill="white" stroke="#bfbfbf" points="858.5,-179.5 858.5,-198.5 908.5,-198.5 908.5,-179.5 858.5,-179.5"/>
<text text-anchor="middle" x="883.5" y="-186.5" font-family="Helvetica,sans-Serif" font-size="10.00">cstdint</text>
</a>
</g>
</g>
<!-- Node4&#45;&gt;Node8 -->
<g id="edge9" class="edge">
<title>Node4&#45;&gt;Node8</title>
<path fill="none" stroke="midnightblue" d="M385.34,-353.54C466.5,-349.25 617,-338.14 742.5,-311 820.25,-294.18 865.87,-319.45 912.5,-255 923.42,-239.91 911.43,-220.06 899.72,-206.28"/>
<polygon fill="midnightblue" stroke="midnightblue" points="902.01,-203.6 892.67,-198.59 896.84,-208.33 902.01,-203.6"/>
</g>
<!-- Node9 -->
<g id="node9" class="node">
<title>Node9</title>
<g id="a_node9"><a xlink:title=" ">
<polygon fill="white" stroke="#bfbfbf" points="367.5,-123.5 367.5,-142.5 411.5,-142.5 411.5,-123.5 367.5,-123.5"/>
<text text-anchor="middle" x="389.5" y="-130.5" font-family="Helvetica,sans-Serif" font-size="10.00">limits</text>
</a>
</g>
</g>
<!-- Node4&#45;&gt;Node9 -->
<g id="edge10" class="edge">
<title>Node4&#45;&gt;Node9</title>
<path fill="none" stroke="midnightblue" d="M324.07,-347.19C317.11,-320.09 299.53,-236.33 330.5,-179 337.62,-165.81 350.46,-155.32 362.34,-147.79"/>
<polygon fill="midnightblue" stroke="midnightblue" points="364.29,-150.71 371.13,-142.62 360.74,-144.67 364.29,-150.71"/>
</g>
<!-- Node10 -->
<g id="node10" class="node">
<title>Node10</title>
<g id="a_node10"><a xlink:href="RealConstants_8hpp.html" target="_top" xlink:title="Definitions file for constant expressions of type Real.">
<polygon fill="white" stroke="black" points="335.5,-235.5 335.5,-254.5 483.5,-254.5 483.5,-235.5 335.5,-235.5"/>
<text text-anchor="middle" x="409.5" y="-242.5" font-family="Helvetica,sans-Serif" font-size="10.00">playrho/RealConstants.hpp</text>
</a>
</g>
</g>
<!-- Node4&#45;&gt;Node10 -->
<g id="edge11" class="edge">
<title>Node4&#45;&gt;Node10</title>
<path fill="none" stroke="midnightblue" d="M330.76,-347.14C337.18,-334.2 350.13,-309.63 364.5,-291 372.67,-280.42 383.16,-269.79 391.96,-261.52"/>
<polygon fill="midnightblue" stroke="midnightblue" points="394.44,-263.99 399.45,-254.66 389.72,-258.83 394.44,-263.99"/>
</g>
<!-- Node13 -->
<g id="node13" class="node">
<title>Node13</title>
<g id="a_node13"><a xlink:href="Templates_8hpp.html" target="_top" xlink:title="Definitions of miscellaneous template related code.">
<polygon fill="white" stroke="black" points="221.5,-123.5 221.5,-142.5 349.5,-142.5 349.5,-123.5 221.5,-123.5"/>
<text text-anchor="middle" x="285.5" y="-130.5" font-family="Helvetica,sans-Serif" font-size="10.00">playrho/Templates.hpp</text>
</a>
</g>
</g>
<!-- Node4&#45;&gt;Node13 -->
<g id="edge22" class="edge">
<title>Node4&#45;&gt;Node13</title>
<path fill="none" stroke="midnightblue" d="M317.63,-347.29C309.68,-338.85 298.53,-325.25 293.5,-311 274.2,-256.24 279.01,-186.01 282.87,-152.89"/>
<polygon fill="midnightblue" stroke="midnightblue" points="286.36,-153.17 284.15,-142.81 279.42,-152.29 286.36,-153.17"/>
</g>
<!-- Node19 -->
<g id="node19" class="node">
<title>Node19</title>
<g id="a_node19"><a xlink:href="Units_8hpp.html" target="_top" xlink:title="Declarations for physical units possibly backed by strong types.">
<polygon fill="white" stroke="black" points="374,-291.5 374,-310.5 477,-310.5 477,-291.5 374,-291.5"/>
<text text-anchor="middle" x="425.5" y="-298.5" font-family="Helvetica,sans-Serif" font-size="10.00">playrho/Units.hpp</text>
</a>
</g>
</g>
<!-- Node4&#45;&gt;Node19 -->
<g id="edge23" class="edge">
<title>Node4&#45;&gt;Node19</title>
<path fill="none" stroke="midnightblue" d="M342.41,-347.32C358.14,-338.74 382.44,-325.49 400.71,-315.52"/>
<polygon fill="midnightblue" stroke="midnightblue" points="402.53,-318.52 409.63,-310.65 399.18,-312.37 402.53,-318.52"/>
</g>
<!-- Node22 -->
<g id="node22" class="node">
<title>Node22</title>
<g id="a_node22"><a xlink:href="WiderType_8hpp.html" target="_top" xlink:title="Definition of the WiderType alias template.">
<polygon fill="white" stroke="black" points="533.5,-291.5 533.5,-310.5 661.5,-310.5 661.5,-291.5 533.5,-291.5"/>
<text text-anchor="middle" x="597.5" y="-298.5" font-family="Helvetica,sans-Serif" font-size="10.00">playrho/WiderType.hpp</text>
</a>
</g>
</g>
<!-- Node4&#45;&gt;Node22 -->
<g id="edge31" class="edge">
<title>Node4&#45;&gt;Node22</title>
<path fill="none" stroke="midnightblue" d="M369.44,-347.44C417.01,-337.96 493.74,-322.67 544.89,-312.48"/>
<polygon fill="midnightblue" stroke="midnightblue" points="545.64,-315.9 554.76,-310.52 544.27,-309.04 545.64,-315.9"/>
</g>
<!-- Node11 -->
<g id="node11" class="node">
<title>Node11</title>
<g id="a_node11"><a xlink:href="Defines_8hpp.html" target="_top" xlink:title="Miscellaneous C&#45;preprocessor definitions.">
<polygon fill="white" stroke="black" points="539.5,-179.5 539.5,-198.5 653.5,-198.5 653.5,-179.5 539.5,-179.5"/>
<text text-anchor="middle" x="596.5" y="-186.5" font-family="Helvetica,sans-Serif" font-size="10.00">playrho/Defines.hpp</text>
</a>
</g>
</g>
<!-- Node10&#45;&gt;Node11 -->
<g id="edge12" class="edge">
<title>Node10&#45;&gt;Node11</title>
<path fill="none" stroke="midnightblue" d="M439.13,-235.44C471,-226.24 521.83,-211.56 557.06,-201.39"/>
<polygon fill="midnightblue" stroke="midnightblue" points="558.37,-204.65 567.01,-198.52 556.43,-197.93 558.37,-204.65"/>
</g>
<!-- Node12 -->
<g id="node12" class="node">
<title>Node12</title>
<g id="a_node12"><a xlink:href="Real_8hpp.html" target="_top" xlink:title="Real number definition file.">
<polygon fill="white" stroke="black" points="340,-179.5 340,-198.5 439,-198.5 439,-179.5 340,-179.5"/>
<text text-anchor="middle" x="389.5" y="-186.5" font-family="Helvetica,sans-Serif" font-size="10.00">playrho/Real.hpp</text>
</a>
</g>
</g>
<!-- Node10&#45;&gt;Node12 -->
<g id="edge13" class="edge">
<title>Node10&#45;&gt;Node12</title>
<path fill="none" stroke="midnightblue" d="M406.2,-235.08C403.52,-227.85 399.65,-217.41 396.31,-208.4"/>
<polygon fill="midnightblue" stroke="midnightblue" points="399.5,-206.91 392.74,-198.75 392.93,-209.34 399.5,-206.91"/>
</g>
<!-- Node12&#45;&gt;Node9 -->
<g id="edge14" class="edge">
<title>Node12&#45;&gt;Node9</title>
<path fill="none" stroke="midnightblue" d="M389.5,-179.08C389.5,-172.01 389.5,-161.86 389.5,-152.99"/>
<polygon fill="midnightblue" stroke="midnightblue" points="393,-152.75 389.5,-142.75 386,-152.75 393,-152.75"/>
</g>
<!-- Node12&#45;&gt;Node13 -->
<g id="edge15" class="edge">
<title>Node12&#45;&gt;Node13</title>
<path fill="none" stroke="midnightblue" d="M372.79,-179.32C356.19,-170.7 330.5,-157.36 311.28,-147.39"/>
<polygon fill="midnightblue" stroke="midnightblue" points="312.66,-144.16 302.17,-142.65 309.43,-150.37 312.66,-144.16"/>
</g>
<!-- Node14 -->
<g id="node14" class="node">
<title>Node14</title>
<g id="a_node14"><a xlink:href="detail_2Templates_8hpp.html" target="_top" xlink:title="Low&#45;level declarations for general class &amp; function templates.">
<polygon fill="white" stroke="black" points="231.5,-62 231.5,-81 389.5,-81 389.5,-62 231.5,-62"/>
<text text-anchor="middle" x="310.5" y="-69" font-family="Helvetica,sans-Serif" font-size="10.00">playrho/detail/Templates.hpp</text>
</a>
</g>
</g>
<!-- Node13&#45;&gt;Node14 -->
<g id="edge16" class="edge">
<title>Node13&#45;&gt;Node14</title>
<path fill="none" stroke="midnightblue" d="M289.08,-123.48C292.68,-114.9 298.35,-101.43 302.94,-90.48"/>
<polygon fill="midnightblue" stroke="midnightblue" points="306.28,-91.58 306.92,-81.01 299.82,-88.87 306.28,-91.58"/>
</g>
<!-- Node14&#45;&gt;Node2 -->
<g id="edge17" class="edge">
<title>Node14&#45;&gt;Node2</title>
<path fill="none" stroke="midnightblue" d="M291.16,-61.98C268.4,-51.95 230.41,-35.2 204.21,-23.65"/>
<polygon fill="midnightblue" stroke="midnightblue" points="205.37,-20.34 194.81,-19.51 202.55,-26.74 205.37,-20.34"/>
</g>
<!-- Node15 -->
<g id="node15" class="node">
<title>Node15</title>
<g id="a_node15"><a xlink:title=" ">
<polygon fill="white" stroke="#bfbfbf" points="360,-0.5 360,-19.5 425,-19.5 425,-0.5 360,-0.5"/>
<text text-anchor="middle" x="392.5" y="-7.5" font-family="Helvetica,sans-Serif" font-size="10.00">functional</text>
</a>
</g>
</g>
<!-- Node14&#45;&gt;Node15 -->
<g id="edge18" class="edge">
<title>Node14&#45;&gt;Node15</title>
<path fill="none" stroke="midnightblue" d="M322.25,-61.98C335.28,-52.52 356.54,-37.1 372.26,-25.69"/>
<polygon fill="midnightblue" stroke="midnightblue" points="374.73,-28.21 380.77,-19.51 370.62,-22.55 374.73,-28.21"/>
</g>
<!-- Node16 -->
<g id="node16" class="node">
<title>Node16</title>
<g id="a_node16"><a xlink:title=" ">
<polygon fill="white" stroke="#bfbfbf" points="226,-0.5 226,-19.5 279,-19.5 279,-0.5 226,-0.5"/>
<text text-anchor="middle" x="252.5" y="-7.5" font-family="Helvetica,sans-Serif" font-size="10.00">iterator</text>
</a>
</g>
</g>
<!-- Node14&#45;&gt;Node16 -->
<g id="edge19" class="edge">
<title>Node14&#45;&gt;Node16</title>
<path fill="none" stroke="midnightblue" d="M302.19,-61.98C293.32,-52.87 279.05,-38.24 268.08,-26.98"/>
<polygon fill="midnightblue" stroke="midnightblue" points="270.28,-24.23 260.79,-19.51 265.27,-29.11 270.28,-24.23"/>
</g>
<!-- Node17 -->
<g id="node17" class="node">
<title>Node17</title>
<g id="a_node17"><a xlink:title=" ">
<polygon fill="white" stroke="#bfbfbf" points="547,-0.5 547,-19.5 616,-19.5 616,-0.5 547,-0.5"/>
<text text-anchor="middle" x="581.5" y="-7.5" font-family="Helvetica,sans-Serif" font-size="10.00">type_traits</text>
</a>
</g>
</g>
<!-- Node14&#45;&gt;Node17 -->
<g id="edge20" class="edge">
<title>Node14&#45;&gt;Node17</title>
<path fill="none" stroke="midnightblue" d="M349.33,-61.98C398.86,-51.1 484.35,-32.33 536.62,-20.85"/>
<polygon fill="midnightblue" stroke="midnightblue" points="537.6,-24.22 546.62,-18.66 536.1,-17.39 537.6,-24.22"/>
</g>
<!-- Node18 -->
<g id="node18" class="node">
<title>Node18</title>
<g id="a_node18"><a xlink:title=" ">
<polygon fill="white" stroke="#bfbfbf" points="297,-0.5 297,-19.5 342,-19.5 342,-0.5 297,-0.5"/>
<text text-anchor="middle" x="319.5" y="-7.5" font-family="Helvetica,sans-Serif" font-size="10.00">utility</text>
</a>
</g>
</g>
<!-- Node14&#45;&gt;Node18 -->
<g id="edge21" class="edge">
<title>Node14&#45;&gt;Node18</title>
<path fill="none" stroke="midnightblue" d="M311.79,-61.98C313.06,-53.58 315.04,-40.48 316.68,-29.66"/>
<polygon fill="midnightblue" stroke="midnightblue" points="320.18,-29.92 318.21,-19.51 313.26,-28.87 320.18,-29.92"/>
</g>
<!-- Node19&#45;&gt;Node7 -->
<g id="edge24" class="edge">
<title>Node19&#45;&gt;Node7</title>
<path fill="none" stroke="midnightblue" d="M477.23,-292.84C529.12,-285.3 611.49,-272.4 691.97,-254.93"/>
<polygon fill="midnightblue" stroke="midnightblue" points="692.76,-258.34 701.78,-252.77 691.26,-251.5 692.76,-258.34"/>
</g>
<!-- Node19&#45;&gt;Node10 -->
<g id="edge26" class="edge">
<title>Node19&#45;&gt;Node10</title>
<path fill="none" stroke="midnightblue" d="M422.86,-291.08C420.71,-283.85 417.62,-273.41 414.95,-264.4"/>
<polygon fill="midnightblue" stroke="midnightblue" points="418.29,-263.34 412.09,-254.75 411.58,-265.33 418.29,-263.34"/>
</g>
<!-- Node19&#45;&gt;Node13 -->
<g id="edge27" class="edge">
<title>Node19&#45;&gt;Node13</title>
<path fill="none" stroke="midnightblue" d="M389.61,-291.41C368.63,-284.69 343.09,-273.34 326.5,-255 300.06,-225.77 290.57,-178.82 287.24,-152.83"/>
<polygon fill="midnightblue" stroke="midnightblue" points="290.71,-152.35 286.13,-142.8 283.75,-153.12 290.71,-152.35"/>
</g>
<!-- Node19&#45;&gt;Node17 -->
<g id="edge25" class="edge">
<title>Node19&#45;&gt;Node17</title>
<path fill="none" stroke="midnightblue" d="M445.29,-291.36C460.32,-283.82 480.42,-271.51 492.5,-255 510.28,-230.71 511.5,-220.1 511.5,-190 511.5,-190 511.5,-190 511.5,-132 511.5,-89.61 544.09,-48.73 564.8,-27.04"/>
<polygon fill="midnightblue" stroke="midnightblue" points="567.51,-29.27 572.06,-19.7 562.54,-24.35 567.51,-29.27"/>
</g>
<!-- Node20 -->
<g id="node20" class="node">
<title>Node20</title>
<g id="a_node20"><a xlink:href="to__underlying_8hpp.html" target="_top" xlink:title="Definition of to_underlying function template.">
<polygon fill="white" stroke="black" points="539.5,-235.5 539.5,-254.5 683.5,-254.5 683.5,-235.5 539.5,-235.5"/>
<text text-anchor="middle" x="611.5" y="-242.5" font-family="Helvetica,sans-Serif" font-size="10.00">playrho/to_underlying.hpp</text>
</a>
</g>
</g>
<!-- Node19&#45;&gt;Node20 -->
<g id="edge28" class="edge">
<title>Node19&#45;&gt;Node20</title>
<path fill="none" stroke="midnightblue" d="M454.97,-291.44C486.67,-282.24 537.23,-267.56 572.27,-257.39"/>
<polygon fill="midnightblue" stroke="midnightblue" points="573.54,-260.67 582.17,-254.52 571.59,-253.94 573.54,-260.67"/>
</g>
<!-- Node21 -->
<g id="node21" class="node">
<title>Node21</title>
<g id="a_node21"><a xlink:href="underlying__type_8hpp.html" target="_top" xlink:title="Definition of underlying_type trait class and related code.">
<polygon fill="white" stroke="black" points="582,-56.5 582,-86.5 721,-86.5 721,-56.5 582,-56.5"/>
<text text-anchor="start" x="590" y="-74.5" font-family="Helvetica,sans-Serif" font-size="10.00">playrho/detail/underlying</text>
<text text-anchor="middle" x="651.5" y="-63.5" font-family="Helvetica,sans-Serif" font-size="10.00">_type.hpp</text>
</a>
</g>
</g>
<!-- Node20&#45;&gt;Node21 -->
<g id="edge29" class="edge">
<title>Node20&#45;&gt;Node21</title>
<path fill="none" stroke="midnightblue" d="M627.23,-235.24C639.39,-227.48 655.31,-214.93 662.5,-199 677.55,-165.65 668.46,-122.37 660.21,-96.06"/>
<polygon fill="midnightblue" stroke="midnightblue" points="663.52,-94.91 657.02,-86.54 656.88,-97.13 663.52,-94.91"/>
</g>
<!-- Node21&#45;&gt;Node17 -->
<g id="edge30" class="edge">
<title>Node21&#45;&gt;Node17</title>
<path fill="none" stroke="midnightblue" d="M634.91,-56.4C624.21,-47.31 610.31,-35.49 599.37,-26.19"/>
<polygon fill="midnightblue" stroke="midnightblue" points="601.57,-23.47 591.69,-19.66 597.04,-28.8 601.57,-23.47"/>
</g>
<!-- Node23 -->
<g id="node23" class="node">
<title>Node23</title>
<g id="a_node23"><a xlink:href="Wider_8hpp.html" target="_top" xlink:title="Definition of the Wider class template and specializations.">
<polygon fill="white" stroke="black" points="767.5,-235.5 767.5,-254.5 903.5,-254.5 903.5,-235.5 767.5,-235.5"/>
<text text-anchor="middle" x="835.5" y="-242.5" font-family="Helvetica,sans-Serif" font-size="10.00">playrho/detail/Wider.hpp</text>
</a>
</g>
</g>
<!-- Node22&#45;&gt;Node23 -->
<g id="edge32" class="edge">
<title>Node22&#45;&gt;Node23</title>
<path fill="none" stroke="midnightblue" d="M635.21,-291.44C676.64,-282.04 743.26,-266.93 788.17,-256.74"/>
<polygon fill="midnightblue" stroke="midnightblue" points="788.99,-260.14 797.96,-254.52 787.44,-253.32 788.99,-260.14"/>
</g>
<!-- Node23&#45;&gt;Node8 -->
<g id="edge33" class="edge">
<title>Node23&#45;&gt;Node8</title>
<path fill="none" stroke="midnightblue" d="M843.43,-235.08C850.35,-227.3 860.57,-215.8 868.95,-206.37"/>
<polygon fill="midnightblue" stroke="midnightblue" points="871.69,-208.55 875.72,-198.75 866.46,-203.9 871.69,-208.55"/>
</g>
<!-- Node23&#45;&gt;Node11 -->
<g id="edge35" class="edge">
<title>Node23&#45;&gt;Node11</title>
<path fill="none" stroke="midnightblue" d="M797.63,-235.44C756.02,-226.04 689.13,-210.93 644.03,-200.74"/>
<polygon fill="midnightblue" stroke="midnightblue" points="644.72,-197.31 634.19,-198.52 643.18,-204.13 644.72,-197.31"/>
</g>
<!-- Node23&#45;&gt;Node17 -->
<g id="edge34" class="edge">
<title>Node23&#45;&gt;Node17</title>
<path fill="none" stroke="midnightblue" d="M833.22,-235.37C824.91,-205.66 793.42,-106.61 730.5,-56 700.67,-32.01 658.23,-20.79 626.26,-15.55"/>
<polygon fill="midnightblue" stroke="midnightblue" points="626.69,-12.08 616.28,-14.05 625.65,-19 626.69,-12.08"/>
</g>
</g>
</svg>
        <g id="navigator" transform="translate(0 0)" fill="#404254">
                <rect fill="#f2f5e9" fill-opacity="0.5" stroke="#606060" stroke-width=".5" x="0" y="0" width="60" height="60"/>
                <use id="zoomplus" xlink:href="#zoomPlus" x="17" y="9" onmousedown="handleZoom(evt,'in')"/>
                <use id="zoomminus" xlink:href="#zoomMin" x="42" y="9" onmousedown="handleZoom(evt,'out')"/>
                <use id="reset" xlink:href="#resetDef" x="30" y="36" onmousedown="handleReset()"/>
                <g id="arrowUp" xlink:href="#dirArrow" transform="translate(30 24)" onmousedown="handlePan(0,-1)">
                  <use xlink:href="#rim" fill="#404040">
                        <set attributeName="fill" to="#808080" begin="arrowUp.mouseover" end="arrowUp.mouseout"/>
                  </use>
                  <path fill="none" stroke="white" stroke-width="1.5" d="M0,-3.0v7 M-2.5,-0.5L0,-3.0L2.5,-0.5"/>
                </g>
                <g id="arrowRight" xlink:href="#dirArrow" transform="rotate(90) translate(36 -43)" onmousedown="handlePan(1,0)">
                  <use xlink:href="#rim" fill="#404040">
                        <set attributeName="fill" to="#808080" begin="arrowRight.mouseover" end="arrowRight.mouseout"/>
                  </use>
                  <path fill="none" stroke="white" stroke-width="1.5" d="M0,-3.0v7 M-2.5,-0.5L0,-3.0L2.5,-0.5"/>
                </g>
                <g id="arrowDown" xlink:href="#dirArrow" transform="rotate(180) translate(-30 -48)" onmousedown="handlePan(0,1)">
                  <use xlink:href="#rim" fill="#404040">
                        <set attributeName="fill" to="#808080" begin="arrowDown.mouseover" end="arrowDown.mouseout"/>
                  </use>
                  <path fill="none" stroke="white" stroke-width="1.5" d="M0,-3.0v7 M-2.5,-0.5L0,-3.0L2.5,-0.5"/>
                </g>
                <g id="arrowLeft" xlink:href="#dirArrow" transform="rotate(270) translate(-36 17)" onmousedown="handlePan(-1,0)">
                  <use xlink:href="#rim" fill="#404040">
                        <set attributeName="fill" to="#808080" begin="arrowLeft.mouseover" end="arrowLeft.mouseout"/>
                  </use>
                  <path fill="none" stroke="white" stroke-width="1.5" d="M0,-3.0v7 M-2.5,-0.5L0,-3.0L2.5,-0.5"/>
                </g>
        </g>
        <svg viewBox="0 0 15 15" width="100%" height="30px" preserveAspectRatio="xMaxYMin meet">
         <g id="arrow_out" transform="scale(0.3 0.3)">
          <a xlink:href="ContactImpulsesList_8hpp__incl_org.svg" target="_base">
           <rect id="button" ry="5" rx="5" y="6" x="6" height="38" width="38"
                fill="#f2f5e9" fill-opacity="0.5" stroke="#606060" stroke-width="1.0"/>
           <path id="arrow"
             d="M 11.500037,31.436501 C 11.940474,20.09759 22.043105,11.32322 32.158766,21.979434 L 37.068811,17.246167 C 37.068811,17.246167 37.088388,32 37.088388,32 L 22.160133,31.978069 C 22.160133,31.978069 26.997745,27.140456 26.997745,27.140456 C 18.528582,18.264221 13.291696,25.230495 11.500037,31.436501 z"
             style="fill:#404040;"/>
          </a>
         </g>
        </svg>
</svg>
