<?xml version="1.0" encoding="UTF-8" standalone="no"?>
<!DOCTYPE svg PUBLIC "-//W3C//DTD SVG 1.1//EN"
 "http://www.w3.org/Graphics/SVG/1.1/DTD/svg11.dtd">
<!-- Generated by graphviz version 2.43.0 (0)
 -->
<!-- Title: Library/include/playrho/d2/ContactManifoldFunction.hpp Pages: 1 -->
<svg width="1758pt" height="565pt"
 viewBox="0.00 0.00 1757.50 565.00" xmlns="http://www.w3.org/2000/svg" xmlns:xlink="http://www.w3.org/1999/xlink">
<g id="graph0" class="graph" transform="scale(1 1) rotate(0) translate(4 561)">
<title>Library/include/playrho/d2/ContactManifoldFunction.hpp</title>
<polygon fill="white" stroke="transparent" points="-4,4 -4,-561 1753.5,-561 1753.5,4 -4,4"/>
<!-- Node1 -->
<g id="node1" class="node">
<title>Node1</title>
<g id="a_node1"><a xlink:title="Definition of the ContactManifoldFunction type alias.">
<polygon fill="#bfbfbf" stroke="black" points="39,-526.5 39,-556.5 216,-556.5 216,-526.5 39,-526.5"/>
<text text-anchor="start" x="47" y="-544.5" font-family="Helvetica,sans-Serif" font-size="10.00">Library/include/playrho</text>
<text text-anchor="middle" x="127.5" y="-533.5" font-family="Helvetica,sans-Serif" font-size="10.00">/d2/ContactManifoldFunction.hpp</text>
</a>
</g>
</g>
<!-- Node2 -->
<g id="node2" class="node">
<title>Node2</title>
<g id="a_node2"><a xlink:title=" ">
<polygon fill="white" stroke="#bfbfbf" points="0,-291.5 0,-310.5 65,-310.5 65,-291.5 0,-291.5"/>
<text text-anchor="middle" x="32.5" y="-298.5" font-family="Helvetica,sans-Serif" font-size="10.00">functional</text>
</a>
</g>
</g>
<!-- Node1&#45;&gt;Node2 -->
<g id="edge1" class="edge">
<title>Node1&#45;&gt;Node2</title>
<path fill="none" stroke="midnightblue" d="M114.24,-526.3C90.55,-499.73 42.04,-439.58 27.5,-378 22.95,-358.74 25.43,-336.02 28.28,-320.47"/>
<polygon fill="midnightblue" stroke="midnightblue" points="31.73,-321.07 30.32,-310.57 24.87,-319.66 31.73,-321.07"/>
</g>
<!-- Node3 -->
<g id="node3" class="node">
<title>Node3</title>
<g id="a_node3"><a xlink:href="ContactID_8hpp.html" target="_top" xlink:title="Definition of the ContactID alias and closely related code.">
<polygon fill="white" stroke="black" points="65,-414.5 65,-433.5 190,-433.5 190,-414.5 65,-414.5"/>
<text text-anchor="middle" x="127.5" y="-421.5" font-family="Helvetica,sans-Serif" font-size="10.00">playrho/ContactID.hpp</text>
</a>
</g>
</g>
<!-- Node1&#45;&gt;Node3 -->
<g id="edge2" class="edge">
<title>Node1&#45;&gt;Node3</title>
<path fill="none" stroke="midnightblue" d="M127.5,-526.34C127.5,-505.62 127.5,-467.02 127.5,-443.9"/>
<polygon fill="midnightblue" stroke="midnightblue" points="131,-443.67 127.5,-433.67 124,-443.67 131,-443.67"/>
</g>
<!-- Node25 -->
<g id="node25" class="node">
<title>Node25</title>
<g id="a_node25"><a xlink:href="Manifold_8hpp.html" target="_top" xlink:title="Definition of the Manifold class and closely related code.">
<polygon fill="white" stroke="black" points="736,-470.5 736,-489.5 871,-489.5 871,-470.5 736,-470.5"/>
<text text-anchor="middle" x="803.5" y="-477.5" font-family="Helvetica,sans-Serif" font-size="10.00">playrho/d2/Manifold.hpp</text>
</a>
</g>
</g>
<!-- Node1&#45;&gt;Node25 -->
<g id="edge38" class="edge">
<title>Node1&#45;&gt;Node25</title>
<path fill="none" stroke="midnightblue" d="M216.22,-532.69C349.45,-520.96 599.02,-499 725.6,-487.86"/>
<polygon fill="midnightblue" stroke="midnightblue" points="725.95,-491.34 735.61,-486.98 725.34,-484.37 725.95,-491.34"/>
</g>
<!-- Node4 -->
<g id="node4" class="node">
<title>Node4</title>
<g id="a_node4"><a xlink:href="IndexingNamedType_8hpp.html" target="_top" xlink:title="Definition of IndexingNamedType class template and related code.">
<polygon fill="white" stroke="black" points="36.5,-347.5 36.5,-377.5 200.5,-377.5 200.5,-347.5 36.5,-347.5"/>
<text text-anchor="start" x="44.5" y="-365.5" font-family="Helvetica,sans-Serif" font-size="10.00">playrho/detail/IndexingNamed</text>
<text text-anchor="middle" x="118.5" y="-354.5" font-family="Helvetica,sans-Serif" font-size="10.00">Type.hpp</text>
</a>
</g>
</g>
<!-- Node3&#45;&gt;Node4 -->
<g id="edge3" class="edge">
<title>Node3&#45;&gt;Node4</title>
<path fill="none" stroke="midnightblue" d="M126.21,-414.48C125.15,-407.47 123.6,-397.19 122.16,-387.7"/>
<polygon fill="midnightblue" stroke="midnightblue" points="125.58,-386.89 120.62,-377.52 118.66,-387.93 125.58,-386.89"/>
</g>
<!-- Node8 -->
<g id="node8" class="node">
<title>Node8</title>
<g id="a_node8"><a xlink:href="Settings_8hpp.html" target="_top" xlink:title="Types and default settings file.">
<polygon fill="white" stroke="black" points="468,-353 468,-372 585,-372 585,-353 468,-353"/>
<text text-anchor="middle" x="526.5" y="-360" font-family="Helvetica,sans-Serif" font-size="10.00">playrho/Settings.hpp</text>
</a>
</g>
</g>
<!-- Node3&#45;&gt;Node8 -->
<g id="edge8" class="edge">
<title>Node3&#45;&gt;Node8</title>
<path fill="none" stroke="midnightblue" d="M190.14,-415.99C257.06,-408.16 366.12,-394.41 459.5,-378 465.88,-376.88 472.59,-375.58 479.18,-374.22"/>
<polygon fill="midnightblue" stroke="midnightblue" points="480.33,-377.56 489.39,-372.07 478.88,-370.71 480.33,-377.56"/>
</g>
<!-- Node4&#45;&gt;Node2 -->
<g id="edge5" class="edge">
<title>Node4&#45;&gt;Node2</title>
<path fill="none" stroke="midnightblue" d="M98.12,-347.4C84.59,-338.04 66.89,-325.79 53.28,-316.38"/>
<polygon fill="midnightblue" stroke="midnightblue" points="55.23,-313.47 45.01,-310.66 51.25,-319.23 55.23,-313.47"/>
</g>
<!-- Node5 -->
<g id="node5" class="node">
<title>Node5</title>
<g id="a_node5"><a xlink:title=" ">
<polygon fill="white" stroke="#bfbfbf" points="631,-291.5 631,-310.5 684,-310.5 684,-291.5 631,-291.5"/>
<text text-anchor="middle" x="657.5" y="-298.5" font-family="Helvetica,sans-Serif" font-size="10.00">cstddef</text>
</a>
</g>
</g>
<!-- Node4&#45;&gt;Node5 -->
<g id="edge4" class="edge">
<title>Node4&#45;&gt;Node5</title>
<path fill="none" stroke="midnightblue" d="M200.66,-352.43C319.62,-339.3 534.97,-315.53 620.77,-306.05"/>
<polygon fill="midnightblue" stroke="midnightblue" points="621.26,-309.52 630.82,-304.95 620.49,-302.56 621.26,-309.52"/>
</g>
<!-- Node6 -->
<g id="node6" class="node">
<title>Node6</title>
<g id="a_node6"><a xlink:title=" ">
<polygon fill="white" stroke="#bfbfbf" points="865,-0.5 865,-19.5 934,-19.5 934,-0.5 865,-0.5"/>
<text text-anchor="middle" x="899.5" y="-7.5" font-family="Helvetica,sans-Serif" font-size="10.00">type_traits</text>
</a>
</g>
</g>
<!-- Node4&#45;&gt;Node6 -->
<g id="edge6" class="edge">
<title>Node4&#45;&gt;Node6</title>
<path fill="none" stroke="midnightblue" d="M120.93,-347.32C124.43,-325.59 130.5,-282.69 130.5,-246 130.5,-246 130.5,-246 130.5,-126.5 130.5,-32.67 237.72,-75.53 329.5,-56 521.78,-15.09 757.67,-10.55 854.64,-10.58"/>
<polygon fill="midnightblue" stroke="midnightblue" points="854.67,-14.08 864.67,-10.61 854.68,-7.08 854.67,-14.08"/>
</g>
<!-- Node7 -->
<g id="node7" class="node">
<title>Node7</title>
<g id="a_node7"><a xlink:title=" ">
<polygon fill="white" stroke="#bfbfbf" points="1494,-0.5 1494,-19.5 1539,-19.5 1539,-0.5 1494,-0.5"/>
<text text-anchor="middle" x="1516.5" y="-7.5" font-family="Helvetica,sans-Serif" font-size="10.00">utility</text>
</a>
</g>
</g>
<!-- Node4&#45;&gt;Node7 -->
<g id="edge7" class="edge">
<title>Node4&#45;&gt;Node7</title>
<path fill="none" stroke="midnightblue" d="M126.37,-347.48C147.29,-311.76 208.24,-217.42 288.5,-179 388.78,-131 678.62,-165.48 787.5,-143 828.52,-134.53 835.59,-120.99 876.5,-112 1037.01,-76.72 1086.82,-122.31 1244.5,-76 1263.19,-70.51 1265.05,-62.25 1283.5,-56 1368.21,-27.28 1394.13,-39.15 1481.5,-20 1482.38,-19.81 1483.28,-19.61 1484.18,-19.4"/>
<polygon fill="midnightblue" stroke="midnightblue" points="1485.06,-22.79 1493.96,-17.05 1483.42,-15.98 1485.06,-22.79"/>
</g>
<!-- Node8&#45;&gt;Node6 -->
<g id="edge11" class="edge">
<title>Node8&#45;&gt;Node6</title>
<path fill="none" stroke="midnightblue" d="M486.42,-352.99C440.03,-342.71 366.9,-325.05 342.5,-311 276.05,-272.73 219.5,-266.68 219.5,-190 219.5,-190 219.5,-190 219.5,-126.5 219.5,-61.89 702.8,-24.13 854.51,-13.87"/>
<polygon fill="midnightblue" stroke="midnightblue" points="855.1,-17.34 864.84,-13.18 854.63,-10.35 855.1,-17.34"/>
</g>
<!-- Node9 -->
<g id="node9" class="node">
<title>Node9</title>
<g id="a_node9"><a xlink:title=" ">
<polygon fill="white" stroke="#bfbfbf" points="297.5,-179.5 297.5,-198.5 347.5,-198.5 347.5,-179.5 297.5,-179.5"/>
<text text-anchor="middle" x="322.5" y="-186.5" font-family="Helvetica,sans-Serif" font-size="10.00">cstdint</text>
</a>
</g>
</g>
<!-- Node8&#45;&gt;Node9 -->
<g id="edge9" class="edge">
<title>Node8&#45;&gt;Node9</title>
<path fill="none" stroke="midnightblue" d="M492.91,-353C447.49,-341.23 371.02,-320.38 361.5,-311 333.43,-283.34 325.54,-235.39 323.34,-208.92"/>
<polygon fill="midnightblue" stroke="midnightblue" points="326.82,-208.47 322.69,-198.71 319.83,-208.91 326.82,-208.47"/>
</g>
<!-- Node10 -->
<g id="node10" class="node">
<title>Node10</title>
<g id="a_node10"><a xlink:title=" ">
<polygon fill="white" stroke="#bfbfbf" points="885.5,-118 885.5,-137 929.5,-137 929.5,-118 885.5,-118"/>
<text text-anchor="middle" x="907.5" y="-125" font-family="Helvetica,sans-Serif" font-size="10.00">limits</text>
</a>
</g>
</g>
<!-- Node8&#45;&gt;Node10 -->
<g id="edge10" class="edge">
<title>Node8&#45;&gt;Node10</title>
<path fill="none" stroke="midnightblue" d="M527.99,-352.86C530.57,-339.16 536.7,-311.87 547.5,-291 562.05,-262.89 565.65,-253.26 591.5,-235 615.49,-218.05 800.05,-161.04 875.51,-138.14"/>
<polygon fill="midnightblue" stroke="midnightblue" points="876.85,-141.39 885.4,-135.14 874.82,-134.69 876.85,-141.39"/>
</g>
<!-- Node11 -->
<g id="node11" class="node">
<title>Node11</title>
<g id="a_node11"><a xlink:href="Real_8hpp.html" target="_top" xlink:title="Real number definition file.">
<polygon fill="white" stroke="black" points="866,-179.5 866,-198.5 965,-198.5 965,-179.5 866,-179.5"/>
<text text-anchor="middle" x="915.5" y="-186.5" font-family="Helvetica,sans-Serif" font-size="10.00">playrho/Real.hpp</text>
</a>
</g>
</g>
<!-- Node8&#45;&gt;Node11 -->
<g id="edge12" class="edge">
<title>Node8&#45;&gt;Node11</title>
<path fill="none" stroke="midnightblue" d="M530.03,-352.92C540.16,-329.51 571.73,-264.34 620.5,-235 659.08,-211.79 781.28,-199.35 855.75,-193.76"/>
<polygon fill="midnightblue" stroke="midnightblue" points="856.21,-197.23 865.93,-193.01 855.7,-190.25 856.21,-197.23"/>
</g>
<!-- Node17 -->
<g id="node17" class="node">
<title>Node17</title>
<g id="a_node17"><a xlink:href="RealConstants_8hpp.html" target="_top" xlink:title="Definitions file for constant expressions of type Real.">
<polygon fill="white" stroke="black" points="829.5,-235.5 829.5,-254.5 977.5,-254.5 977.5,-235.5 829.5,-235.5"/>
<text text-anchor="middle" x="903.5" y="-242.5" font-family="Helvetica,sans-Serif" font-size="10.00">playrho/RealConstants.hpp</text>
</a>
</g>
</g>
<!-- Node8&#45;&gt;Node17 -->
<g id="edge22" class="edge">
<title>Node8&#45;&gt;Node17</title>
<path fill="none" stroke="midnightblue" d="M535.12,-352.88C550.93,-337.65 586.25,-306.16 622.5,-291 657.15,-276.51 749.74,-263.36 819.24,-255.07"/>
<polygon fill="midnightblue" stroke="midnightblue" points="819.79,-258.53 829.31,-253.88 818.97,-251.58 819.79,-258.53"/>
</g>
<!-- Node18 -->
<g id="node18" class="node">
<title>Node18</title>
<g id="a_node18"><a xlink:href="Units_8hpp.html" target="_top" xlink:title="Declarations for physical units possibly backed by strong types.">
<polygon fill="white" stroke="black" points="702,-291.5 702,-310.5 805,-310.5 805,-291.5 702,-291.5"/>
<text text-anchor="middle" x="753.5" y="-298.5" font-family="Helvetica,sans-Serif" font-size="10.00">playrho/Units.hpp</text>
</a>
</g>
</g>
<!-- Node8&#45;&gt;Node18 -->
<g id="edge24" class="edge">
<title>Node8&#45;&gt;Node18</title>
<path fill="none" stroke="midnightblue" d="M559.02,-352.98C599.06,-342.48 667.14,-324.64 711.2,-313.09"/>
<polygon fill="midnightblue" stroke="midnightblue" points="712.25,-316.43 721.04,-310.51 710.48,-309.66 712.25,-316.43"/>
</g>
<!-- Node22 -->
<g id="node22" class="node">
<title>Node22</title>
<g id="a_node22"><a xlink:href="WiderType_8hpp.html" target="_top" xlink:title="Definition of the WiderType alias template.">
<polygon fill="white" stroke="black" points="370.5,-291.5 370.5,-310.5 498.5,-310.5 498.5,-291.5 370.5,-291.5"/>
<text text-anchor="middle" x="434.5" y="-298.5" font-family="Helvetica,sans-Serif" font-size="10.00">playrho/WiderType.hpp</text>
</a>
</g>
</g>
<!-- Node8&#45;&gt;Node22 -->
<g id="edge33" class="edge">
<title>Node8&#45;&gt;Node22</title>
<path fill="none" stroke="midnightblue" d="M513.32,-352.98C498.43,-343.34 473.96,-327.52 456.23,-316.05"/>
<polygon fill="midnightblue" stroke="midnightblue" points="457.95,-313 447.66,-310.51 454.15,-318.88 457.95,-313"/>
</g>
<!-- Node11&#45;&gt;Node10 -->
<g id="edge13" class="edge">
<title>Node11&#45;&gt;Node10</title>
<path fill="none" stroke="midnightblue" d="M914.35,-179.48C913.23,-171.08 911.46,-157.98 910.01,-147.16"/>
<polygon fill="midnightblue" stroke="midnightblue" points="913.45,-146.45 908.64,-137.01 906.51,-147.39 913.45,-146.45"/>
</g>
<!-- Node12 -->
<g id="node12" class="node">
<title>Node12</title>
<g id="a_node12"><a xlink:href="Templates_8hpp.html" target="_top" xlink:title="Definitions of miscellaneous template related code.">
<polygon fill="white" stroke="black" points="1001.5,-118 1001.5,-137 1129.5,-137 1129.5,-118 1001.5,-118"/>
<text text-anchor="middle" x="1065.5" y="-125" font-family="Helvetica,sans-Serif" font-size="10.00">playrho/Templates.hpp</text>
</a>
</g>
</g>
<!-- Node11&#45;&gt;Node12 -->
<g id="edge14" class="edge">
<title>Node11&#45;&gt;Node12</title>
<path fill="none" stroke="midnightblue" d="M936.99,-179.48C962.61,-169.31 1005.61,-152.26 1034.74,-140.7"/>
<polygon fill="midnightblue" stroke="midnightblue" points="1036.04,-143.95 1044.05,-137.01 1033.46,-137.44 1036.04,-143.95"/>
</g>
<!-- Node12&#45;&gt;Node6 -->
<g id="edge16" class="edge">
<title>Node12&#45;&gt;Node6</title>
<path fill="none" stroke="midnightblue" d="M1053.02,-117.82C1024.78,-98.17 955.71,-50.11 920.65,-25.72"/>
<polygon fill="midnightblue" stroke="midnightblue" points="922.33,-22.62 912.12,-19.78 918.33,-28.37 922.33,-22.62"/>
</g>
<!-- Node13 -->
<g id="node13" class="node">
<title>Node13</title>
<g id="a_node13"><a xlink:title=" ">
<polygon fill="white" stroke="#bfbfbf" points="1292,-56.5 1292,-75.5 1341,-75.5 1341,-56.5 1292,-56.5"/>
<text text-anchor="middle" x="1316.5" y="-63.5" font-family="Helvetica,sans-Serif" font-size="10.00">cstdlib</text>
</a>
</g>
</g>
<!-- Node12&#45;&gt;Node13 -->
<g id="edge15" class="edge">
<title>Node12&#45;&gt;Node13</title>
<path fill="none" stroke="midnightblue" d="M1101.46,-117.98C1149.7,-106.54 1234.78,-86.37 1282.17,-75.14"/>
<polygon fill="midnightblue" stroke="midnightblue" points="1283.04,-78.53 1291.97,-72.82 1281.43,-71.72 1283.04,-78.53"/>
</g>
<!-- Node14 -->
<g id="node14" class="node">
<title>Node14</title>
<g id="a_node14"><a xlink:href="detail_2Templates_8hpp.html" target="_top" xlink:title="Low&#45;level declarations for general class &amp; function templates.">
<polygon fill="white" stroke="black" points="1077.5,-56.5 1077.5,-75.5 1235.5,-75.5 1235.5,-56.5 1077.5,-56.5"/>
<text text-anchor="middle" x="1156.5" y="-63.5" font-family="Helvetica,sans-Serif" font-size="10.00">playrho/detail/Templates.hpp</text>
</a>
</g>
</g>
<!-- Node12&#45;&gt;Node14 -->
<g id="edge17" class="edge">
<title>Node12&#45;&gt;Node14</title>
<path fill="none" stroke="midnightblue" d="M1078.54,-117.98C1093.27,-108.34 1117.47,-92.52 1135.01,-81.05"/>
<polygon fill="midnightblue" stroke="midnightblue" points="1137.03,-83.91 1143.49,-75.51 1133.2,-78.05 1137.03,-83.91"/>
</g>
<!-- Node14&#45;&gt;Node6 -->
<g id="edge20" class="edge">
<title>Node14&#45;&gt;Node6</title>
<path fill="none" stroke="midnightblue" d="M1115.78,-56.44C1069,-46.61 992.5,-30.54 944.13,-20.38"/>
<polygon fill="midnightblue" stroke="midnightblue" points="944.77,-16.94 934.26,-18.3 943.33,-23.79 944.77,-16.94"/>
</g>
<!-- Node14&#45;&gt;Node7 -->
<g id="edge21" class="edge">
<title>Node14&#45;&gt;Node7</title>
<path fill="none" stroke="midnightblue" d="M1235.73,-56.59C1301.79,-48.97 1398.23,-36.42 1481.5,-20 1482.39,-19.82 1483.29,-19.64 1484.2,-19.45"/>
<polygon fill="midnightblue" stroke="midnightblue" points="1485.04,-22.85 1493.99,-17.19 1483.46,-16.03 1485.04,-22.85"/>
</g>
<!-- Node15 -->
<g id="node15" class="node">
<title>Node15</title>
<g id="a_node15"><a xlink:title=" ">
<polygon fill="white" stroke="#bfbfbf" points="1230.5,-0.5 1230.5,-19.5 1294.5,-19.5 1294.5,-0.5 1230.5,-0.5"/>
<text text-anchor="middle" x="1262.5" y="-7.5" font-family="Helvetica,sans-Serif" font-size="10.00">algorithm</text>
</a>
</g>
</g>
<!-- Node14&#45;&gt;Node15 -->
<g id="edge18" class="edge">
<title>Node14&#45;&gt;Node15</title>
<path fill="none" stroke="midnightblue" d="M1173.53,-56.32C1190.53,-47.66 1216.88,-34.24 1236.49,-24.25"/>
<polygon fill="midnightblue" stroke="midnightblue" points="1238.19,-27.31 1245.51,-19.65 1235.01,-21.08 1238.19,-27.31"/>
</g>
<!-- Node16 -->
<g id="node16" class="node">
<title>Node16</title>
<g id="a_node16"><a xlink:title=" ">
<polygon fill="white" stroke="#bfbfbf" points="1419,-0.5 1419,-19.5 1472,-19.5 1472,-0.5 1419,-0.5"/>
<text text-anchor="middle" x="1445.5" y="-7.5" font-family="Helvetica,sans-Serif" font-size="10.00">iterator</text>
</a>
</g>
</g>
<!-- Node14&#45;&gt;Node16 -->
<g id="edge19" class="edge">
<title>Node14&#45;&gt;Node16</title>
<path fill="none" stroke="midnightblue" d="M1202.29,-56.44C1259.59,-45.74 1356.55,-27.62 1409.07,-17.81"/>
<polygon fill="midnightblue" stroke="midnightblue" points="1409.77,-21.24 1418.96,-15.96 1408.49,-14.36 1409.77,-21.24"/>
</g>
<!-- Node17&#45;&gt;Node11 -->
<g id="edge23" class="edge">
<title>Node17&#45;&gt;Node11</title>
<path fill="none" stroke="midnightblue" d="M905.48,-235.08C907.07,-227.93 909.36,-217.64 911.35,-208.69"/>
<polygon fill="midnightblue" stroke="midnightblue" points="914.8,-209.27 913.56,-198.75 907.97,-207.75 914.8,-209.27"/>
</g>
<!-- Node18&#45;&gt;Node6 -->
<g id="edge26" class="edge">
<title>Node18&#45;&gt;Node6</title>
<path fill="none" stroke="midnightblue" d="M716.14,-291.46C681.67,-282.87 633.87,-268.94 620.5,-255 599.67,-233.28 601.5,-220.1 601.5,-190 601.5,-190 601.5,-190 601.5,-126.5 601.5,-72.84 771.63,-34.33 854.8,-18.71"/>
<polygon fill="midnightblue" stroke="midnightblue" points="855.53,-22.13 864.73,-16.87 854.26,-15.25 855.53,-22.13"/>
</g>
<!-- Node18&#45;&gt;Node11 -->
<g id="edge27" class="edge">
<title>Node18&#45;&gt;Node11</title>
<path fill="none" stroke="midnightblue" d="M760.6,-291.5C772.1,-278.14 796,-251.99 820.5,-235 839.78,-221.63 863.66,-210.34 882.66,-202.41"/>
<polygon fill="midnightblue" stroke="midnightblue" points="884.15,-205.58 892.09,-198.58 881.51,-199.1 884.15,-205.58"/>
</g>
<!-- Node18&#45;&gt;Node12 -->
<g id="edge29" class="edge">
<title>Node18&#45;&gt;Node12</title>
<path fill="none" stroke="midnightblue" d="M805.21,-294.86C864.63,-288.12 957.67,-274.79 986.5,-255 1025.51,-228.22 1049.08,-175.21 1059.38,-147.07"/>
<polygon fill="midnightblue" stroke="midnightblue" points="1062.8,-147.89 1062.78,-137.3 1056.19,-145.59 1062.8,-147.89"/>
</g>
<!-- Node18&#45;&gt;Node17 -->
<g id="edge28" class="edge">
<title>Node18&#45;&gt;Node17</title>
<path fill="none" stroke="midnightblue" d="M777.27,-291.44C802.39,-282.4 842.21,-268.06 870.4,-257.92"/>
<polygon fill="midnightblue" stroke="midnightblue" points="871.62,-261.2 879.84,-254.52 869.25,-254.61 871.62,-261.2"/>
</g>
<!-- Node19 -->
<g id="node19" class="node">
<title>Node19</title>
<g id="a_node19"><a xlink:title=" ">
<polygon fill="white" stroke="#bfbfbf" points="1186,-235.5 1186,-254.5 1233,-254.5 1233,-235.5 1186,-235.5"/>
<text text-anchor="middle" x="1209.5" y="-242.5" font-family="Helvetica,sans-Serif" font-size="10.00">cmath</text>
</a>
</g>
</g>
<!-- Node18&#45;&gt;Node19 -->
<g id="edge25" class="edge">
<title>Node18&#45;&gt;Node19</title>
<path fill="none" stroke="midnightblue" d="M805.37,-293.86C899.56,-282.7 1096.31,-259.4 1175.45,-250.03"/>
<polygon fill="midnightblue" stroke="midnightblue" points="1176.29,-253.46 1185.81,-248.81 1175.47,-246.51 1176.29,-253.46"/>
</g>
<!-- Node20 -->
<g id="node20" class="node">
<title>Node20</title>
<g id="a_node20"><a xlink:href="to__underlying_8hpp.html" target="_top" xlink:title="Definition of to_underlying function template.">
<polygon fill="white" stroke="black" points="629.5,-235.5 629.5,-254.5 773.5,-254.5 773.5,-235.5 629.5,-235.5"/>
<text text-anchor="middle" x="701.5" y="-242.5" font-family="Helvetica,sans-Serif" font-size="10.00">playrho/to_underlying.hpp</text>
</a>
</g>
</g>
<!-- Node18&#45;&gt;Node20 -->
<g id="edge30" class="edge">
<title>Node18&#45;&gt;Node20</title>
<path fill="none" stroke="midnightblue" d="M744.91,-291.08C737.34,-283.22 726.12,-271.57 716.99,-262.08"/>
<polygon fill="midnightblue" stroke="midnightblue" points="719.38,-259.53 709.93,-254.75 714.34,-264.38 719.38,-259.53"/>
</g>
<!-- Node21 -->
<g id="node21" class="node">
<title>Node21</title>
<g id="a_node21"><a xlink:href="underlying__type_8hpp.html" target="_top" xlink:title="Definition of underlying_type trait class and related code.">
<polygon fill="white" stroke="black" points="639,-112.5 639,-142.5 778,-142.5 778,-112.5 639,-112.5"/>
<text text-anchor="start" x="647" y="-130.5" font-family="Helvetica,sans-Serif" font-size="10.00">playrho/detail/underlying</text>
<text text-anchor="middle" x="708.5" y="-119.5" font-family="Helvetica,sans-Serif" font-size="10.00">_type.hpp</text>
</a>
</g>
</g>
<!-- Node20&#45;&gt;Node21 -->
<g id="edge31" class="edge">
<title>Node20&#45;&gt;Node21</title>
<path fill="none" stroke="midnightblue" d="M702.03,-235.32C703.08,-217.97 705.47,-178.46 707.04,-152.66"/>
<polygon fill="midnightblue" stroke="midnightblue" points="710.54,-152.74 707.65,-142.55 703.55,-152.32 710.54,-152.74"/>
</g>
<!-- Node21&#45;&gt;Node6 -->
<g id="edge32" class="edge">
<title>Node21&#45;&gt;Node6</title>
<path fill="none" stroke="midnightblue" d="M731.92,-112.34C768.68,-90.11 839.5,-47.28 876.19,-25.09"/>
<polygon fill="midnightblue" stroke="midnightblue" points="878.42,-27.84 885.16,-19.67 874.8,-21.85 878.42,-27.84"/>
</g>
<!-- Node23 -->
<g id="node23" class="node">
<title>Node23</title>
<g id="a_node23"><a xlink:href="Wider_8hpp.html" target="_top" xlink:title="Definition of the Wider class template and specializations.">
<polygon fill="white" stroke="black" points="361.5,-235.5 361.5,-254.5 497.5,-254.5 497.5,-235.5 361.5,-235.5"/>
<text text-anchor="middle" x="429.5" y="-242.5" font-family="Helvetica,sans-Serif" font-size="10.00">playrho/detail/Wider.hpp</text>
</a>
</g>
</g>
<!-- Node22&#45;&gt;Node23 -->
<g id="edge34" class="edge">
<title>Node22&#45;&gt;Node23</title>
<path fill="none" stroke="midnightblue" d="M433.67,-291.08C433.02,-284.01 432.08,-273.86 431.26,-264.99"/>
<polygon fill="midnightblue" stroke="midnightblue" points="434.72,-264.39 430.31,-254.75 427.75,-265.03 434.72,-264.39"/>
</g>
<!-- Node23&#45;&gt;Node6 -->
<g id="edge36" class="edge">
<title>Node23&#45;&gt;Node6</title>
<path fill="none" stroke="midnightblue" d="M430.47,-235.38C432.27,-222.3 437.04,-197.07 448.5,-179 492.69,-109.35 512.65,-90.68 587.5,-56 634.16,-34.39 780.42,-20.26 854.93,-14.27"/>
<polygon fill="midnightblue" stroke="midnightblue" points="855.25,-17.76 864.95,-13.48 854.7,-10.78 855.25,-17.76"/>
</g>
<!-- Node23&#45;&gt;Node9 -->
<g id="edge35" class="edge">
<title>Node23&#45;&gt;Node9</title>
<path fill="none" stroke="midnightblue" d="M412.31,-235.32C395.15,-226.66 368.55,-213.24 348.75,-203.25"/>
<polygon fill="midnightblue" stroke="midnightblue" points="350.15,-200.04 339.65,-198.65 347,-206.28 350.15,-200.04"/>
</g>
<!-- Node24 -->
<g id="node24" class="node">
<title>Node24</title>
<g id="a_node24"><a xlink:href="Defines_8hpp.html" target="_top" xlink:title="Miscellaneous C&#45;preprocessor definitions.">
<polygon fill="white" stroke="black" points="457.5,-179.5 457.5,-198.5 571.5,-198.5 571.5,-179.5 457.5,-179.5"/>
<text text-anchor="middle" x="514.5" y="-186.5" font-family="Helvetica,sans-Serif" font-size="10.00">playrho/Defines.hpp</text>
</a>
</g>
</g>
<!-- Node23&#45;&gt;Node24 -->
<g id="edge37" class="edge">
<title>Node23&#45;&gt;Node24</title>
<path fill="none" stroke="midnightblue" d="M443.16,-235.32C456.42,-226.9 476.77,-213.97 492.35,-204.07"/>
<polygon fill="midnightblue" stroke="midnightblue" points="494.31,-206.97 500.88,-198.65 490.56,-201.06 494.31,-206.97"/>
</g>
<!-- Node25&#45;&gt;Node5 -->
<g id="edge40" class="edge">
<title>Node25&#45;&gt;Node5</title>
<path fill="none" stroke="midnightblue" d="M787.13,-470.49C772.82,-462.47 752.1,-449.4 737.5,-434 703.98,-398.63 677.71,-346.9 665.31,-319.9"/>
<polygon fill="midnightblue" stroke="midnightblue" points="668.4,-318.25 661.12,-310.55 662.01,-321.11 668.4,-318.25"/>
</g>
<!-- Node25&#45;&gt;Node6 -->
<g id="edge42" class="edge">
<title>Node25&#45;&gt;Node6</title>
<path fill="none" stroke="midnightblue" d="M871.24,-476.88C974.44,-469.51 1167.78,-438.43 1250.5,-311 1303.45,-229.43 1235.31,-172.92 1159.5,-112 1125.6,-84.75 1108.21,-93.74 1068.5,-76 1050.35,-67.89 1046.81,-63.73 1028.5,-56 998.31,-43.25 963.13,-31.15 937.15,-22.72"/>
<polygon fill="midnightblue" stroke="midnightblue" points="937.91,-19.29 927.32,-19.56 935.77,-25.95 937.91,-19.29"/>
</g>
<!-- Node25&#45;&gt;Node9 -->
<g id="edge41" class="edge">
<title>Node25&#45;&gt;Node9</title>
<path fill="none" stroke="midnightblue" d="M735.95,-478.43C633.9,-476.46 446.27,-468.14 389.5,-434 315.87,-389.72 323.34,-340.64 316.5,-255 315.26,-239.45 317.09,-221.82 319.04,-208.86"/>
<polygon fill="midnightblue" stroke="midnightblue" points="322.52,-209.27 320.72,-198.83 315.62,-208.11 322.52,-209.27"/>
</g>
<!-- Node26 -->
<g id="node26" class="node">
<title>Node26</title>
<g id="a_node26"><a xlink:title=" ">
<polygon fill="white" stroke="#bfbfbf" points="1111.5,-291.5 1111.5,-310.5 1163.5,-310.5 1163.5,-291.5 1111.5,-291.5"/>
<text text-anchor="middle" x="1137.5" y="-298.5" font-family="Helvetica,sans-Serif" font-size="10.00">cassert</text>
</a>
</g>
</g>
<!-- Node25&#45;&gt;Node26 -->
<g id="edge39" class="edge">
<title>Node25&#45;&gt;Node26</title>
<path fill="none" stroke="midnightblue" d="M833.28,-470.46C881.45,-455.89 978.42,-423.34 1051.5,-378 1079.15,-360.85 1106.51,-334.66 1122.71,-317.94"/>
<polygon fill="midnightblue" stroke="midnightblue" points="1125.36,-320.23 1129.71,-310.57 1120.29,-315.41 1125.36,-320.23"/>
</g>
<!-- Node27 -->
<g id="node27" class="node">
<title>Node27</title>
<g id="a_node27"><a xlink:href="ContactFeature_8hpp.html" target="_top" xlink:title="Definition of the ContactFeature class and closely related code.">
<polygon fill="white" stroke="black" points="398.5,-414.5 398.5,-433.5 550.5,-433.5 550.5,-414.5 398.5,-414.5"/>
<text text-anchor="middle" x="474.5" y="-421.5" font-family="Helvetica,sans-Serif" font-size="10.00">playrho/ContactFeature.hpp</text>
</a>
</g>
</g>
<!-- Node25&#45;&gt;Node27 -->
<g id="edge43" class="edge">
<title>Node25&#45;&gt;Node27</title>
<path fill="none" stroke="midnightblue" d="M751.37,-470.44C693.01,-460.87 598.52,-445.36 536.44,-435.17"/>
<polygon fill="midnightblue" stroke="midnightblue" points="536.82,-431.68 526.39,-433.52 535.69,-438.59 536.82,-431.68"/>
</g>
<!-- Node29 -->
<g id="node29" class="node">
<title>Node29</title>
<g id="a_node29"><a xlink:href="Vector_8hpp.html" target="_top" xlink:title="Definition of the Vector class template and closely related code.">
<polygon fill="white" stroke="black" points="935,-353 935,-372 1042,-372 1042,-353 935,-353"/>
<text text-anchor="middle" x="988.5" y="-360" font-family="Helvetica,sans-Serif" font-size="10.00">playrho/Vector.hpp</text>
</a>
</g>
</g>
<!-- Node25&#45;&gt;Node29 -->
<g id="edge47" class="edge">
<title>Node25&#45;&gt;Node29</title>
<path fill="none" stroke="midnightblue" d="M817.41,-470.32C849.15,-450.5 927.17,-401.79 965.92,-377.6"/>
<polygon fill="midnightblue" stroke="midnightblue" points="967.8,-380.55 974.43,-372.28 964.1,-374.61 967.8,-380.55"/>
</g>
<!-- Node35 -->
<g id="node35" class="node">
<title>Node35</title>
<g id="a_node35"><a xlink:href="Vector2_8hpp.html" target="_top" xlink:title="Definition of the Vector2 alias template and closely related code.">
<polygon fill="white" stroke="black" points="746.5,-414.5 746.5,-433.5 860.5,-433.5 860.5,-414.5 746.5,-414.5"/>
<text text-anchor="middle" x="803.5" y="-421.5" font-family="Helvetica,sans-Serif" font-size="10.00">playrho/Vector2.hpp</text>
</a>
</g>
</g>
<!-- Node25&#45;&gt;Node35 -->
<g id="edge61" class="edge">
<title>Node25&#45;&gt;Node35</title>
<path fill="none" stroke="midnightblue" d="M803.5,-470.08C803.5,-463.01 803.5,-452.86 803.5,-443.99"/>
<polygon fill="midnightblue" stroke="midnightblue" points="807,-443.75 803.5,-433.75 800,-443.75 807,-443.75"/>
</g>
<!-- Node36 -->
<g id="node36" class="node">
<title>Node36</title>
<g id="a_node36"><a xlink:href="UnitVec_8hpp.html" target="_top" xlink:title="Declarations of the UnitVec class and free functions associated with it.">
<polygon fill="white" stroke="black" points="1387.5,-353 1387.5,-372 1517.5,-372 1517.5,-353 1387.5,-353"/>
<text text-anchor="middle" x="1452.5" y="-360" font-family="Helvetica,sans-Serif" font-size="10.00">playrho/d2/UnitVec.hpp</text>
</a>
</g>
</g>
<!-- Node25&#45;&gt;Node36 -->
<g id="edge66" class="edge">
<title>Node25&#45;&gt;Node36</title>
<path fill="none" stroke="midnightblue" d="M871.35,-479.03C965.32,-477.63 1139.75,-469.84 1283.5,-434 1336.61,-420.76 1394.73,-393.43 1427.1,-376.96"/>
<polygon fill="midnightblue" stroke="midnightblue" points="1429,-379.92 1436.28,-372.23 1425.79,-373.7 1429,-379.92"/>
</g>
<!-- Node27&#45;&gt;Node8 -->
<g id="edge46" class="edge">
<title>Node27&#45;&gt;Node8</title>
<path fill="none" stroke="midnightblue" d="M481.95,-414.48C489.83,-405.46 502.44,-391.02 512.24,-379.81"/>
<polygon fill="midnightblue" stroke="midnightblue" points="515.12,-381.84 519.06,-372.01 509.85,-377.24 515.12,-381.84"/>
</g>
<!-- Node27&#45;&gt;Node9 -->
<g id="edge44" class="edge">
<title>Node27&#45;&gt;Node9</title>
<path fill="none" stroke="midnightblue" d="M448.59,-414.41C429.27,-407.04 403.12,-394.91 384.5,-378 339.18,-336.85 332.95,-315.32 322.5,-255 319.85,-239.69 320.05,-222.05 320.8,-209.01"/>
<polygon fill="midnightblue" stroke="midnightblue" points="324.3,-209.14 321.55,-198.91 317.32,-208.63 324.3,-209.14"/>
</g>
<!-- Node28 -->
<g id="node28" class="node">
<title>Node28</title>
<g id="a_node28"><a xlink:title=" ">
<polygon fill="white" stroke="#bfbfbf" points="393,-353 393,-372 450,-372 450,-353 393,-353"/>
<text text-anchor="middle" x="421.5" y="-360" font-family="Helvetica,sans-Serif" font-size="10.00">ostream</text>
</a>
</g>
</g>
<!-- Node27&#45;&gt;Node28 -->
<g id="edge45" class="edge">
<title>Node27&#45;&gt;Node28</title>
<path fill="none" stroke="midnightblue" d="M466.91,-414.48C458.8,-405.37 445.77,-390.74 435.74,-379.48"/>
<polygon fill="midnightblue" stroke="midnightblue" points="438.34,-377.15 429.08,-372.01 433.12,-381.8 438.34,-377.15"/>
</g>
<!-- Node29&#45;&gt;Node5 -->
<g id="edge50" class="edge">
<title>Node29&#45;&gt;Node5</title>
<path fill="none" stroke="midnightblue" d="M934.98,-353.58C877.78,-344.84 784.26,-329.75 694.03,-310.98"/>
<polygon fill="midnightblue" stroke="midnightblue" points="694.69,-307.54 684.18,-308.91 693.25,-314.39 694.69,-307.54"/>
</g>
<!-- Node29&#45;&gt;Node6 -->
<g id="edge54" class="edge">
<title>Node29&#45;&gt;Node6</title>
<path fill="none" stroke="midnightblue" d="M992.14,-352.78C998.45,-338.49 1012.58,-309.79 1031.5,-291 1053.57,-269.09 1071.14,-278.51 1091.5,-255 1135.3,-204.43 1177.22,-166.55 1138.5,-112 1110.43,-72.46 1080.33,-94.48 1035.5,-76 1034.12,-75.43 965.91,-42.79 926.63,-23.99"/>
<polygon fill="midnightblue" stroke="midnightblue" points="927.86,-20.7 917.33,-19.54 924.83,-27.01 927.86,-20.7"/>
</g>
<!-- Node29&#45;&gt;Node11 -->
<g id="edge59" class="edge">
<title>Node29&#45;&gt;Node11</title>
<path fill="none" stroke="midnightblue" d="M978.73,-352.72C964.47,-338.84 941.14,-311.3 955.5,-291 985.37,-248.78 1088.05,-276.73 1057.5,-235 1038.63,-209.22 1004.9,-197.84 975.05,-192.97"/>
<polygon fill="midnightblue" stroke="midnightblue" points="975.5,-189.5 965.11,-191.56 974.52,-196.43 975.5,-189.5"/>
</g>
<!-- Node29&#45;&gt;Node12 -->
<g id="edge60" class="edge">
<title>Node29&#45;&gt;Node12</title>
<path fill="none" stroke="midnightblue" d="M986.49,-352.77C983.72,-338.45 980.44,-309.71 993.5,-291 1015.82,-259.03 1052.33,-287.74 1073.5,-255 1095.03,-221.7 1082.29,-172.61 1072.86,-146.46"/>
<polygon fill="midnightblue" stroke="midnightblue" points="1076.1,-145.13 1069.24,-137.05 1069.56,-147.64 1076.1,-145.13"/>
</g>
<!-- Node29&#45;&gt;Node15 -->
<g id="edge48" class="edge">
<title>Node29&#45;&gt;Node15</title>
<path fill="none" stroke="midnightblue" d="M995.55,-353C1008.52,-337.95 1037.77,-306.75 1069.5,-291 1139.85,-256.09 1178.42,-300.41 1242.5,-255 1318.31,-201.28 1325.59,-165.51 1350.5,-76 1352.88,-67.44 1355.14,-63.58 1350.5,-56 1340.3,-39.33 1321.75,-28.58 1304.31,-21.79"/>
<polygon fill="midnightblue" stroke="midnightblue" points="1305.39,-18.46 1294.79,-18.41 1303.04,-25.06 1305.39,-18.46"/>
</g>
<!-- Node29&#45;&gt;Node16 -->
<g id="edge51" class="edge">
<title>Node29&#45;&gt;Node16</title>
<path fill="none" stroke="midnightblue" d="M1001.76,-352.95C1029.46,-335.13 1091.82,-295.31 1102.5,-291 1172.5,-262.74 1202.56,-291.76 1268.5,-255 1362.64,-202.52 1419.87,-76.55 1438.65,-29.31"/>
<polygon fill="midnightblue" stroke="midnightblue" points="1441.99,-30.36 1442.33,-19.78 1435.46,-27.84 1441.99,-30.36"/>
</g>
<!-- Node29&#45;&gt;Node26 -->
<g id="edge49" class="edge">
<title>Node29&#45;&gt;Node26</title>
<path fill="none" stroke="midnightblue" d="M1009.85,-352.98C1035.19,-342.86 1077.64,-325.9 1106.57,-314.35"/>
<polygon fill="midnightblue" stroke="midnightblue" points="1108.2,-317.47 1116.19,-310.51 1105.61,-310.97 1108.2,-317.47"/>
</g>
<!-- Node30 -->
<g id="node30" class="node">
<title>Node30</title>
<g id="a_node30"><a xlink:title=" ">
<polygon fill="white" stroke="#bfbfbf" points="1181.5,-291.5 1181.5,-310.5 1241.5,-310.5 1241.5,-291.5 1181.5,-291.5"/>
<text text-anchor="middle" x="1211.5" y="-298.5" font-family="Helvetica,sans-Serif" font-size="10.00">iostream</text>
</a>
</g>
</g>
<!-- Node29&#45;&gt;Node30 -->
<g id="edge52" class="edge">
<title>Node29&#45;&gt;Node30</title>
<path fill="none" stroke="midnightblue" d="M1020.45,-352.98C1060.25,-342.35 1128.28,-324.2 1171.5,-312.67"/>
<polygon fill="midnightblue" stroke="midnightblue" points="1172.63,-315.99 1181.39,-310.03 1170.83,-309.23 1172.63,-315.99"/>
</g>
<!-- Node31 -->
<g id="node31" class="node">
<title>Node31</title>
<g id="a_node31"><a xlink:title=" ">
<polygon fill="white" stroke="#bfbfbf" points="862,-291.5 862,-310.5 903,-310.5 903,-291.5 862,-291.5"/>
<text text-anchor="middle" x="882.5" y="-298.5" font-family="Helvetica,sans-Serif" font-size="10.00">tuple</text>
</a>
</g>
</g>
<!-- Node29&#45;&gt;Node31 -->
<g id="edge53" class="edge">
<title>Node29&#45;&gt;Node31</title>
<path fill="none" stroke="midnightblue" d="M973.31,-352.98C955.84,-343.17 926.92,-326.93 906.42,-315.42"/>
<polygon fill="midnightblue" stroke="midnightblue" points="908.09,-312.35 897.66,-310.51 904.67,-318.46 908.09,-312.35"/>
</g>
<!-- Node32 -->
<g id="node32" class="node">
<title>Node32</title>
<g id="a_node32"><a xlink:href="InvalidArgument_8hpp.html" target="_top" xlink:title="Definition of the InvalidArgument class.">
<polygon fill="white" stroke="black" points="1373.5,-291.5 1373.5,-310.5 1531.5,-310.5 1531.5,-291.5 1373.5,-291.5"/>
<text text-anchor="middle" x="1452.5" y="-298.5" font-family="Helvetica,sans-Serif" font-size="10.00">playrho/InvalidArgument.hpp</text>
</a>
</g>
</g>
<!-- Node29&#45;&gt;Node32 -->
<g id="edge55" class="edge">
<title>Node29&#45;&gt;Node32</title>
<path fill="none" stroke="midnightblue" d="M1042.18,-354.62C1124.35,-344.08 1281.67,-323.91 1375.83,-311.83"/>
<polygon fill="midnightblue" stroke="midnightblue" points="1376.4,-315.29 1385.87,-310.54 1375.5,-308.34 1376.4,-315.29"/>
</g>
<!-- Node32&#45;&gt;Node7 -->
<g id="edge58" class="edge">
<title>Node32&#45;&gt;Node7</title>
<path fill="none" stroke="midnightblue" d="M1465.87,-291.19C1477.2,-283.08 1493.05,-270.03 1502.5,-255 1518.52,-229.52 1521.5,-220.1 1521.5,-190 1521.5,-190 1521.5,-190 1521.5,-126.5 1521.5,-92.33 1519.29,-52.53 1517.81,-29.7"/>
<polygon fill="midnightblue" stroke="midnightblue" points="1521.3,-29.43 1517.13,-19.69 1514.31,-29.9 1521.3,-29.43"/>
</g>
<!-- Node33 -->
<g id="node33" class="node">
<title>Node33</title>
<g id="a_node33"><a xlink:title=" ">
<polygon fill="white" stroke="#bfbfbf" points="1366,-235.5 1366,-254.5 1431,-254.5 1431,-235.5 1366,-235.5"/>
<text text-anchor="middle" x="1398.5" y="-242.5" font-family="Helvetica,sans-Serif" font-size="10.00">stdexcept</text>
</a>
</g>
</g>
<!-- Node32&#45;&gt;Node33 -->
<g id="edge56" class="edge">
<title>Node32&#45;&gt;Node33</title>
<path fill="none" stroke="midnightblue" d="M1443.58,-291.08C1435.72,-283.22 1424.07,-271.57 1414.58,-262.08"/>
<polygon fill="midnightblue" stroke="midnightblue" points="1416.8,-259.35 1407.25,-254.75 1411.85,-264.3 1416.8,-259.35"/>
</g>
<!-- Node34 -->
<g id="node34" class="node">
<title>Node34</title>
<g id="a_node34"><a xlink:title=" ">
<polygon fill="white" stroke="#bfbfbf" points="1449.5,-235.5 1449.5,-254.5 1493.5,-254.5 1493.5,-235.5 1449.5,-235.5"/>
<text text-anchor="middle" x="1471.5" y="-242.5" font-family="Helvetica,sans-Serif" font-size="10.00">string</text>
</a>
</g>
</g>
<!-- Node32&#45;&gt;Node34 -->
<g id="edge57" class="edge">
<title>Node32&#45;&gt;Node34</title>
<path fill="none" stroke="midnightblue" d="M1455.64,-291.08C1458.18,-283.85 1461.86,-273.41 1465.03,-264.4"/>
<polygon fill="midnightblue" stroke="midnightblue" points="1468.4,-265.35 1468.42,-254.75 1461.8,-263.02 1468.4,-265.35"/>
</g>
<!-- Node35&#45;&gt;Node8 -->
<g id="edge63" class="edge">
<title>Node35&#45;&gt;Node8</title>
<path fill="none" stroke="midnightblue" d="M763.81,-414.48C714.34,-403.85 629.78,-385.68 576.09,-374.15"/>
<polygon fill="midnightblue" stroke="midnightblue" points="576.63,-370.69 566.11,-372.01 575.16,-377.53 576.63,-370.69"/>
</g>
<!-- Node35&#45;&gt;Node11 -->
<g id="edge62" class="edge">
<title>Node35&#45;&gt;Node11</title>
<path fill="none" stroke="midnightblue" d="M804.13,-414.43C806.33,-390.98 815.74,-325.24 853.5,-291 898.87,-249.87 949.28,-303.63 986.5,-255 1002.24,-234.43 972.91,-214.95 947.3,-202.77"/>
<polygon fill="midnightblue" stroke="midnightblue" points="948.68,-199.55 938.13,-198.63 945.8,-205.93 948.68,-199.55"/>
</g>
<!-- Node35&#45;&gt;Node18 -->
<g id="edge64" class="edge">
<title>Node35&#45;&gt;Node18</title>
<path fill="none" stroke="midnightblue" d="M799.9,-414.3C791.8,-394.68 771.95,-346.64 761.02,-320.19"/>
<polygon fill="midnightblue" stroke="midnightblue" points="764.12,-318.53 757.06,-310.62 757.65,-321.2 764.12,-318.53"/>
</g>
<!-- Node35&#45;&gt;Node29 -->
<g id="edge65" class="edge">
<title>Node35&#45;&gt;Node29</title>
<path fill="none" stroke="midnightblue" d="M830.01,-414.48C862.15,-404.14 916.49,-386.66 952.43,-375.1"/>
<polygon fill="midnightblue" stroke="midnightblue" points="953.6,-378.4 962.04,-372.01 951.45,-371.74 953.6,-378.4"/>
</g>
<!-- Node36&#45;&gt;Node6 -->
<g id="edge73" class="edge">
<title>Node36&#45;&gt;Node6</title>
<path fill="none" stroke="midnightblue" d="M1517.78,-353.31C1543.94,-346.46 1571.6,-333.93 1587.5,-311 1592.57,-303.7 1588.95,-299.77 1587.5,-291 1563.35,-144.64 1490.68,-104.5 1350.5,-56 1276.24,-30.31 1043.34,-17.31 944.54,-12.84"/>
<polygon fill="midnightblue" stroke="midnightblue" points="944.43,-9.33 934.28,-12.39 944.12,-16.33 944.43,-9.33"/>
</g>
<!-- Node36&#45;&gt;Node7 -->
<g id="edge72" class="edge">
<title>Node36&#45;&gt;Node7</title>
<path fill="none" stroke="midnightblue" d="M1517.56,-354.45C1582.59,-346.39 1677.16,-331.59 1707.5,-311 1735.96,-291.68 1749.5,-280.39 1749.5,-246 1749.5,-246 1749.5,-246 1749.5,-126.5 1749.5,-38.18 1613.46,-17.4 1549.28,-12.51"/>
<polygon fill="midnightblue" stroke="midnightblue" points="1549.48,-9.01 1539.27,-11.83 1549.01,-16 1549.48,-9.01"/>
</g>
<!-- Node36&#45;&gt;Node11 -->
<g id="edge75" class="edge">
<title>Node36&#45;&gt;Node11</title>
<path fill="none" stroke="midnightblue" d="M1482.72,-352.94C1502.98,-345.44 1528.14,-332.34 1540.5,-311 1558.73,-279.53 1508.52,-238.49 1502.5,-235 1479.94,-221.92 1120.23,-201.09 975.31,-193.19"/>
<polygon fill="midnightblue" stroke="midnightblue" points="975.43,-189.69 965.26,-192.64 975.05,-196.68 975.43,-189.69"/>
</g>
<!-- Node36&#45;&gt;Node12 -->
<g id="edge77" class="edge">
<title>Node36&#45;&gt;Node12</title>
<path fill="none" stroke="midnightblue" d="M1492.32,-352.97C1515.05,-345.84 1541.7,-333.14 1555.5,-311 1571.9,-284.69 1535.46,-241.95 1526.5,-235 1510.14,-222.3 1233.48,-163.52 1116.78,-139.14"/>
<polygon fill="midnightblue" stroke="midnightblue" points="1117.16,-135.65 1106.66,-137.03 1115.73,-142.5 1117.16,-135.65"/>
</g>
<!-- Node36&#45;&gt;Node13 -->
<g id="edge69" class="edge">
<title>Node36&#45;&gt;Node13</title>
<path fill="none" stroke="midnightblue" d="M1504.68,-352.99C1529.33,-346.06 1556.57,-333.55 1571.5,-311 1586.05,-289.01 1558.51,-247.72 1548.5,-235 1490.23,-160.97 1391.15,-104.51 1343.57,-80.15"/>
<polygon fill="midnightblue" stroke="midnightblue" points="1345.01,-76.95 1334.5,-75.58 1341.86,-83.2 1345.01,-76.95"/>
</g>
<!-- Node36&#45;&gt;Node16 -->
<g id="edge71" class="edge">
<title>Node36&#45;&gt;Node16</title>
<path fill="none" stroke="midnightblue" d="M1517.71,-356.51C1579.7,-350.24 1666.49,-337.01 1687.5,-311 1724.37,-265.37 1713.1,-231.78 1687.5,-179 1646.33,-94.13 1538.88,-44.35 1482.02,-23.15"/>
<polygon fill="midnightblue" stroke="midnightblue" points="1482.94,-19.76 1472.35,-19.64 1480.55,-26.34 1482.94,-19.76"/>
</g>
<!-- Node36&#45;&gt;Node17 -->
<g id="edge76" class="edge">
<title>Node36&#45;&gt;Node17</title>
<path fill="none" stroke="midnightblue" d="M1432.56,-352.98C1396.77,-338.05 1319,-307.21 1250.5,-291 1162.18,-270.1 1058.76,-258.27 987.95,-252.04"/>
<polygon fill="midnightblue" stroke="midnightblue" points="988.01,-248.53 977.74,-251.16 987.41,-255.5 988.01,-248.53"/>
</g>
<!-- Node36&#45;&gt;Node18 -->
<g id="edge78" class="edge">
<title>Node36&#45;&gt;Node18</title>
<path fill="none" stroke="midnightblue" d="M1387.34,-356.13C1277.31,-347.03 1047.66,-327.92 853.5,-311 841.1,-309.92 827.84,-308.74 815.16,-307.6"/>
<polygon fill="midnightblue" stroke="midnightblue" points="815.41,-304.11 805.14,-306.7 814.79,-311.09 815.41,-304.11"/>
</g>
<!-- Node36&#45;&gt;Node19 -->
<g id="edge68" class="edge">
<title>Node36&#45;&gt;Node19</title>
<path fill="none" stroke="midnightblue" d="M1437.85,-352.91C1413.92,-339.06 1364.77,-311.26 1321.5,-291 1295.38,-278.77 1264.97,-266.68 1242.44,-258.12"/>
<polygon fill="midnightblue" stroke="midnightblue" points="1243.58,-254.81 1232.99,-254.56 1241.11,-261.36 1243.58,-254.81"/>
</g>
<!-- Node36&#45;&gt;Node26 -->
<g id="edge67" class="edge">
<title>Node36&#45;&gt;Node26</title>
<path fill="none" stroke="midnightblue" d="M1398.59,-352.98C1344.19,-344.11 1257.59,-329.26 1173.77,-311.16"/>
<polygon fill="midnightblue" stroke="midnightblue" points="1174.34,-307.7 1163.82,-308.99 1172.85,-314.54 1174.34,-307.7"/>
</g>
<!-- Node36&#45;&gt;Node30 -->
<g id="edge70" class="edge">
<title>Node36&#45;&gt;Node30</title>
<path fill="none" stroke="midnightblue" d="M1417.97,-352.98C1373.95,-342.11 1298.01,-323.36 1251.51,-311.88"/>
<polygon fill="midnightblue" stroke="midnightblue" points="1252.32,-308.47 1241.78,-309.47 1250.65,-315.27 1252.32,-308.47"/>
</g>
<!-- Node36&#45;&gt;Node32 -->
<g id="edge74" class="edge">
<title>Node36&#45;&gt;Node32</title>
<path fill="none" stroke="midnightblue" d="M1452.5,-352.98C1452.5,-344.58 1452.5,-331.48 1452.5,-320.66"/>
<polygon fill="midnightblue" stroke="midnightblue" points="1456,-320.51 1452.5,-310.51 1449,-320.51 1456,-320.51"/>
</g>
</g>
</svg>
