<?xml version="1.0" encoding="UTF-8" standalone="no"?>
<!DOCTYPE svg PUBLIC "-//W3C//DTD SVG 1.1//EN"
 "http://www.w3.org/Graphics/SVG/1.1/DTD/svg11.dtd">
<!-- Generated by graphviz version 2.43.0 (0)
 -->
<!-- Title: Library/include/playrho/d2/ContactImpulsesFunction.hpp Pages: 1 -->
<!--zoomable 520 -->
<svg id="main" version="1.1" xmlns="http://www.w3.org/2000/svg" xmlns:xlink="http://www.w3.org/1999/xlink" xml:space="preserve" onload="init(evt)">
<style type="text/css"><![CDATA[
.edge:hover path { stroke: red; }
.edge:hover polygon { stroke: red; fill: red; }
]]></style>
<script type="text/javascript"><![CDATA[
var edges = document.getElementsByTagName('g');
if (edges && edges.length) {
  for (var i=0;i<edges.length;i++) {
    if (edges[i].id.substr(0,4)=='edge') {
      edges[i].setAttribute('class','edge');
    }
  }
}
]]></script>
        <defs>
                <circle id="rim" cx="0" cy="0" r="7"/>
                <circle id="rim2" cx="0" cy="0" r="3.5"/>
                <g id="zoomPlus">
                        <use xlink:href="#rim" fill="#404040">
                                <set attributeName="fill" to="#808080" begin="zoomplus.mouseover" end="zoomplus.mouseout"/>
                        </use>
                        <path d="M-4,0h8M0,-4v8" fill="none" stroke="white" stroke-width="1.5" pointer-events="none"/>
                </g>
                <g id="zoomMin">
                        <use xlink:href="#rim" fill="#404040">
                                <set attributeName="fill" to="#808080" begin="zoomminus.mouseover" end="zoomminus.mouseout"/>
                        </use>
                        <path d="M-4,0h8" fill="none" stroke="white" stroke-width="1.5" pointer-events="none"/>
                </g>
                <g id="dirArrow">
                        <path fill="none" stroke="white" stroke-width="1.5" d="M0,-3.0v7 M-2.5,-0.5L0,-3.0L2.5,-0.5"/>
                </g>
               <g id="resetDef">
                       <use xlink:href="#rim2" fill="#404040">
                               <set attributeName="fill" to="#808080" begin="reset.mouseover" end="reset.mouseout"/>
                       </use>
               </g>
        </defs>

<script type="text/javascript">
var viewWidth = 1056;
var viewHeight = 520;
var sectionId = 'dynsection-0';
</script>
<script xlink:href="svgpan.js"/>
<svg id="graph" class="graph">
<g id="viewport">
<title>Library/include/playrho/d2/ContactImpulsesFunction.hpp</title>
<polygon fill="white" stroke="transparent" points="-4,4 -4,-516 1052,-516 1052,4 -4,4"/>
<!-- Node1 -->
<g id="node1" class="node">
<title>Node1</title>
<g id="a_node1"><a xlink:title="Definition of the ContactImpulsesFunction type alias.">
<polygon fill="#bfbfbf" stroke="black" points="221.5,-481.5 221.5,-511.5 400.5,-511.5 400.5,-481.5 221.5,-481.5"/>
<text text-anchor="start" x="229.5" y="-499.5" font-family="Helvetica,sans-Serif" font-size="10.00">Library/include/playrho</text>
<text text-anchor="middle" x="311" y="-488.5" font-family="Helvetica,sans-Serif" font-size="10.00">/d2/ContactImpulsesFunction.hpp</text>
</a>
</g>
</g>
<!-- Node2 -->
<g id="node2" class="node">
<title>Node2</title>
<g id="a_node2"><a xlink:title=" ">
<polygon fill="white" stroke="#bfbfbf" points="141.5,-0.5 141.5,-19.5 206.5,-19.5 206.5,-0.5 141.5,-0.5"/>
<text text-anchor="middle" x="174" y="-7.5" font-family="Helvetica,sans-Serif" font-size="10.00">functional</text>
</a>
</g>
</g>
<!-- Node1&#45;&gt;Node2 -->
<g id="edge1" class="edge">
<title>Node1&#45;&gt;Node2</title>
<path fill="none" stroke="midnightblue" d="M240.04,-481.45C148.25,-461.2 0,-420.51 0,-369 0,-369 0,-369 0,-137.5 0,-72.72 79.86,-37.66 131.38,-21.77"/>
<polygon fill="midnightblue" stroke="midnightblue" points="132.67,-25.04 141.27,-18.85 130.69,-18.33 132.67,-25.04"/>
</g>
<!-- Node3 -->
<g id="node3" class="node">
<title>Node3</title>
<g id="a_node3"><a xlink:href="ContactID_8hpp.html" target="_top" xlink:title="Definition of the ContactID alias and closely related code.">
<polygon fill="white" stroke="black" points="248.5,-420 248.5,-439 373.5,-439 373.5,-420 248.5,-420"/>
<text text-anchor="middle" x="311" y="-427" font-family="Helvetica,sans-Serif" font-size="10.00">playrho/ContactID.hpp</text>
</a>
</g>
</g>
<!-- Node1&#45;&gt;Node3 -->
<g id="edge2" class="edge">
<title>Node1&#45;&gt;Node3</title>
<path fill="none" stroke="midnightblue" d="M311,-481.4C311,-472.06 311,-459.71 311,-449.52"/>
<polygon fill="midnightblue" stroke="midnightblue" points="314.5,-449.19 311,-439.19 307.5,-449.19 314.5,-449.19"/>
</g>
<!-- Node26 -->
<g id="node26" class="node">
<title>Node26</title>
<g id="a_node26"><a xlink:href="ContactImpulsesList_8hpp.html" target="_top" xlink:title="Definition of the ContactImpulsesList class and closely related code.">
<polygon fill="white" stroke="black" points="709.5,-414.5 709.5,-444.5 862.5,-444.5 862.5,-414.5 709.5,-414.5"/>
<text text-anchor="start" x="717.5" y="-432.5" font-family="Helvetica,sans-Serif" font-size="10.00">playrho/d2/ContactImpulses</text>
<text text-anchor="middle" x="786" y="-421.5" font-family="Helvetica,sans-Serif" font-size="10.00">List.hpp</text>
</a>
</g>
</g>
<!-- Node1&#45;&gt;Node26 -->
<g id="edge40" class="edge">
<title>Node1&#45;&gt;Node26</title>
<path fill="none" stroke="midnightblue" d="M400.62,-483.24C486.27,-471.52 614.52,-453.97 699.21,-442.38"/>
<polygon fill="midnightblue" stroke="midnightblue" points="699.88,-445.82 709.31,-440.99 698.93,-438.88 699.88,-445.82"/>
</g>
<!-- Node4 -->
<g id="node4" class="node">
<title>Node4</title>
<g id="a_node4"><a xlink:href="IndexingNamedType_8hpp.html" target="_top" xlink:title="Definition of IndexingNamedType class template and related code.">
<polygon fill="white" stroke="black" points="92,-56.5 92,-86.5 256,-86.5 256,-56.5 92,-56.5"/>
<text text-anchor="start" x="100" y="-74.5" font-family="Helvetica,sans-Serif" font-size="10.00">playrho/detail/IndexingNamed</text>
<text text-anchor="middle" x="174" y="-63.5" font-family="Helvetica,sans-Serif" font-size="10.00">Type.hpp</text>
</a>
</g>
</g>
<!-- Node3&#45;&gt;Node4 -->
<g id="edge3" class="edge">
<title>Node3&#45;&gt;Node4</title>
<path fill="none" stroke="midnightblue" d="M248.37,-428.28C167.77,-424.32 38,-403.83 38,-313 38,-313 38,-313 38,-199 38,-147.54 90.84,-111.09 130.65,-90.92"/>
<polygon fill="midnightblue" stroke="midnightblue" points="132.23,-94.04 139.68,-86.51 129.16,-87.75 132.23,-94.04"/>
</g>
<!-- Node7 -->
<g id="node7" class="node">
<title>Node7</title>
<g id="a_node7"><a xlink:href="Settings_8hpp.html" target="_top" xlink:title="Types and default settings file.">
<polygon fill="white" stroke="black" points="629.5,-358.5 629.5,-377.5 746.5,-377.5 746.5,-358.5 629.5,-358.5"/>
<text text-anchor="middle" x="688" y="-365.5" font-family="Helvetica,sans-Serif" font-size="10.00">playrho/Settings.hpp</text>
</a>
</g>
</g>
<!-- Node3&#45;&gt;Node7 -->
<g id="edge7" class="edge">
<title>Node3&#45;&gt;Node7</title>
<path fill="none" stroke="midnightblue" d="M365.01,-419.98C433.46,-409.17 551.28,-390.58 624.12,-379.08"/>
<polygon fill="midnightblue" stroke="midnightblue" points="624.75,-382.53 634.09,-377.51 623.66,-375.61 624.75,-382.53"/>
</g>
<!-- Node4&#45;&gt;Node2 -->
<g id="edge5" class="edge">
<title>Node4&#45;&gt;Node2</title>
<path fill="none" stroke="midnightblue" d="M174,-56.4C174,-48.47 174,-38.46 174,-29.86"/>
<polygon fill="midnightblue" stroke="midnightblue" points="177.5,-29.66 174,-19.66 170.5,-29.66 177.5,-29.66"/>
</g>
<!-- Node5 -->
<g id="node5" class="node">
<title>Node5</title>
<g id="a_node5"><a xlink:title=" ">
<polygon fill="white" stroke="#bfbfbf" points="647.5,-0.5 647.5,-19.5 692.5,-19.5 692.5,-0.5 647.5,-0.5"/>
<text text-anchor="middle" x="670" y="-7.5" font-family="Helvetica,sans-Serif" font-size="10.00">utility</text>
</a>
</g>
</g>
<!-- Node4&#45;&gt;Node5 -->
<g id="edge4" class="edge">
<title>Node4&#45;&gt;Node5</title>
<path fill="none" stroke="midnightblue" d="M256.04,-62.2C344.52,-52.99 489.46,-37.15 614,-20 621.58,-18.96 629.71,-17.72 637.37,-16.5"/>
<polygon fill="midnightblue" stroke="midnightblue" points="638.11,-19.92 647.42,-14.87 636.99,-13.01 638.11,-19.92"/>
</g>
<!-- Node6 -->
<g id="node6" class="node">
<title>Node6</title>
<g id="a_node6"><a xlink:title=" ">
<polygon fill="white" stroke="#bfbfbf" points="536.5,-0.5 536.5,-19.5 605.5,-19.5 605.5,-0.5 536.5,-0.5"/>
<text text-anchor="middle" x="571" y="-7.5" font-family="Helvetica,sans-Serif" font-size="10.00">type_traits</text>
</a>
</g>
</g>
<!-- Node4&#45;&gt;Node6 -->
<g id="edge6" class="edge">
<title>Node4&#45;&gt;Node6</title>
<path fill="none" stroke="midnightblue" d="M256.22,-58.07C260.88,-57.37 265.5,-56.68 270,-56 360.94,-42.33 467.36,-26.45 526.17,-17.68"/>
<polygon fill="midnightblue" stroke="midnightblue" points="526.86,-21.12 536.24,-16.18 525.83,-14.19 526.86,-21.12"/>
</g>
<!-- Node8 -->
<g id="node8" class="node">
<title>Node8</title>
<g id="a_node8"><a xlink:title=" ">
<polygon fill="white" stroke="#bfbfbf" points="836,-0.5 836,-19.5 900,-19.5 900,-0.5 836,-0.5"/>
<text text-anchor="middle" x="868" y="-7.5" font-family="Helvetica,sans-Serif" font-size="10.00">algorithm</text>
</a>
</g>
</g>
<!-- Node7&#45;&gt;Node8 -->
<g id="edge8" class="edge">
<title>Node7&#45;&gt;Node8</title>
<path fill="none" stroke="midnightblue" d="M738.62,-358.43C791.86,-346.17 868,-317.98 868,-257 868,-257 868,-257 868,-137.5 868,-99.2 868,-54.38 868,-29.7"/>
<polygon fill="midnightblue" stroke="midnightblue" points="871.5,-29.59 868,-19.59 864.5,-29.59 871.5,-29.59"/>
</g>
<!-- Node9 -->
<g id="node9" class="node">
<title>Node9</title>
<g id="a_node9"><a xlink:title=" ">
<polygon fill="white" stroke="#bfbfbf" points="896.5,-302.5 896.5,-321.5 949.5,-321.5 949.5,-302.5 896.5,-302.5"/>
<text text-anchor="middle" x="923" y="-309.5" font-family="Helvetica,sans-Serif" font-size="10.00">cstddef</text>
</a>
</g>
</g>
<!-- Node7&#45;&gt;Node9 -->
<g id="edge9" class="edge">
<title>Node7&#45;&gt;Node9</title>
<path fill="none" stroke="midnightblue" d="M725.24,-358.44C769.33,-348.31 842.31,-331.54 886.2,-321.46"/>
<polygon fill="midnightblue" stroke="midnightblue" points="887.21,-324.82 896.17,-319.16 885.64,-317.99 887.21,-324.82"/>
</g>
<!-- Node10 -->
<g id="node10" class="node">
<title>Node10</title>
<g id="a_node10"><a xlink:title=" ">
<polygon fill="white" stroke="#bfbfbf" points="968,-302.5 968,-321.5 1020,-321.5 1020,-302.5 968,-302.5"/>
<text text-anchor="middle" x="994" y="-309.5" font-family="Helvetica,sans-Serif" font-size="10.00">cassert</text>
</a>
</g>
</g>
<!-- Node7&#45;&gt;Node10 -->
<g id="edge10" class="edge">
<title>Node7&#45;&gt;Node10</title>
<path fill="none" stroke="midnightblue" d="M746.69,-358.76C799.51,-351.01 879.43,-338.43 957.66,-322.14"/>
<polygon fill="midnightblue" stroke="midnightblue" points="958.62,-325.51 967.68,-320.03 957.18,-318.66 958.62,-325.51"/>
</g>
<!-- Node11 -->
<g id="node11" class="node">
<title>Node11</title>
<g id="a_node11"><a xlink:title=" ">
<polygon fill="white" stroke="#bfbfbf" points="66,-302.5 66,-321.5 110,-321.5 110,-302.5 66,-302.5"/>
<text text-anchor="middle" x="88" y="-309.5" font-family="Helvetica,sans-Serif" font-size="10.00">cfloat</text>
</a>
</g>
</g>
<!-- Node7&#45;&gt;Node11 -->
<g id="edge11" class="edge">
<title>Node7&#45;&gt;Node11</title>
<path fill="none" stroke="midnightblue" d="M629.16,-365.5C526.15,-362.18 306.73,-351.92 124,-322 122.75,-321.8 121.48,-321.57 120.19,-321.32"/>
<polygon fill="midnightblue" stroke="midnightblue" points="120.86,-317.89 110.35,-319.2 119.38,-324.73 120.86,-317.89"/>
</g>
<!-- Node12 -->
<g id="node12" class="node">
<title>Node12</title>
<g id="a_node12"><a xlink:title=" ">
<polygon fill="white" stroke="#bfbfbf" points="754.5,-246.5 754.5,-265.5 801.5,-265.5 801.5,-246.5 754.5,-246.5"/>
<text text-anchor="middle" x="778" y="-253.5" font-family="Helvetica,sans-Serif" font-size="10.00">cmath</text>
</a>
</g>
</g>
<!-- Node7&#45;&gt;Node12 -->
<g id="edge12" class="edge">
<title>Node7&#45;&gt;Node12</title>
<path fill="none" stroke="midnightblue" d="M703.81,-358.47C717.31,-350.53 736.46,-337.59 749,-322 760.12,-308.17 767.89,-289.4 772.57,-275.59"/>
<polygon fill="midnightblue" stroke="midnightblue" points="776,-276.35 775.66,-265.76 769.32,-274.25 776,-276.35"/>
</g>
<!-- Node13 -->
<g id="node13" class="node">
<title>Node13</title>
<g id="a_node13"><a xlink:title=" ">
<polygon fill="white" stroke="#bfbfbf" points="153,-190.5 153,-209.5 203,-209.5 203,-190.5 153,-190.5"/>
<text text-anchor="middle" x="178" y="-197.5" font-family="Helvetica,sans-Serif" font-size="10.00">cstdint</text>
</a>
</g>
</g>
<!-- Node7&#45;&gt;Node13 -->
<g id="edge13" class="edge">
<title>Node7&#45;&gt;Node13</title>
<path fill="none" stroke="midnightblue" d="M629.19,-366.07C498.1,-363.43 190.76,-353.88 157,-322 132.3,-298.68 139.41,-278.58 149,-246 152.01,-235.76 158.15,-225.66 164.01,-217.63"/>
<polygon fill="midnightblue" stroke="midnightblue" points="166.93,-219.58 170.33,-209.54 161.41,-215.27 166.93,-219.58"/>
</g>
<!-- Node14 -->
<g id="node14" class="node">
<title>Node14</title>
<g id="a_node14"><a xlink:title=" ">
<polygon fill="white" stroke="#bfbfbf" points="376,-129 376,-148 420,-148 420,-129 376,-129"/>
<text text-anchor="middle" x="398" y="-136" font-family="Helvetica,sans-Serif" font-size="10.00">limits</text>
</a>
</g>
</g>
<!-- Node7&#45;&gt;Node14 -->
<g id="edge14" class="edge">
<title>Node7&#45;&gt;Node14</title>
<path fill="none" stroke="midnightblue" d="M629.28,-358.51C539.67,-344.21 375.5,-312.28 341,-266 320.81,-238.92 327.14,-220.8 341,-190 347.77,-174.96 361.47,-162.59 373.75,-153.86"/>
<polygon fill="midnightblue" stroke="midnightblue" points="375.93,-156.61 382.31,-148.15 372.05,-150.78 375.93,-156.61"/>
</g>
<!-- Node15 -->
<g id="node15" class="node">
<title>Node15</title>
<g id="a_node15"><a xlink:href="RealConstants_8hpp.html" target="_top" xlink:title="Definitions file for constant expressions of type Real.">
<polygon fill="white" stroke="black" points="350,-246.5 350,-265.5 498,-265.5 498,-246.5 350,-246.5"/>
<text text-anchor="middle" x="424" y="-253.5" font-family="Helvetica,sans-Serif" font-size="10.00">playrho/RealConstants.hpp</text>
</a>
</g>
</g>
<!-- Node7&#45;&gt;Node15 -->
<g id="edge15" class="edge">
<title>Node7&#45;&gt;Node15</title>
<path fill="none" stroke="midnightblue" d="M667.28,-358.37C620.83,-339.01 508.15,-292.06 454.02,-269.51"/>
<polygon fill="midnightblue" stroke="midnightblue" points="455.2,-266.21 444.62,-265.59 452.5,-272.67 455.2,-266.21"/>
</g>
<!-- Node18 -->
<g id="node18" class="node">
<title>Node18</title>
<g id="a_node18"><a xlink:href="Templates_8hpp.html" target="_top" xlink:title="Definitions of miscellaneous template related code.">
<polygon fill="white" stroke="black" points="697,-129 697,-148 825,-148 825,-129 697,-129"/>
<text text-anchor="middle" x="761" y="-136" font-family="Helvetica,sans-Serif" font-size="10.00">playrho/Templates.hpp</text>
</a>
</g>
</g>
<!-- Node7&#45;&gt;Node18 -->
<g id="edge26" class="edge">
<title>Node7&#45;&gt;Node18</title>
<path fill="none" stroke="midnightblue" d="M709.16,-358.41C739.94,-344.46 795.14,-313.58 811,-266 824.37,-225.89 794.59,-180.02 775.47,-156.06"/>
<polygon fill="midnightblue" stroke="midnightblue" points="778.09,-153.73 769.01,-148.27 772.7,-158.2 778.09,-153.73"/>
</g>
<!-- Node21 -->
<g id="node21" class="node">
<title>Node21</title>
<g id="a_node21"><a xlink:href="Units_8hpp.html" target="_top" xlink:title="Declarations for physical units possibly backed by strong types.">
<polygon fill="white" stroke="black" points="636.5,-302.5 636.5,-321.5 739.5,-321.5 739.5,-302.5 636.5,-302.5"/>
<text text-anchor="middle" x="688" y="-309.5" font-family="Helvetica,sans-Serif" font-size="10.00">playrho/Units.hpp</text>
</a>
</g>
</g>
<!-- Node7&#45;&gt;Node21 -->
<g id="edge27" class="edge">
<title>Node7&#45;&gt;Node21</title>
<path fill="none" stroke="midnightblue" d="M688,-358.08C688,-351.01 688,-340.86 688,-331.99"/>
<polygon fill="midnightblue" stroke="midnightblue" points="691.5,-331.75 688,-321.75 684.5,-331.75 691.5,-331.75"/>
</g>
<!-- Node24 -->
<g id="node24" class="node">
<title>Node24</title>
<g id="a_node24"><a xlink:href="WiderType_8hpp.html" target="_top" xlink:title="Definition of the WiderType alias template.">
<polygon fill="white" stroke="black" points="166,-302.5 166,-321.5 294,-321.5 294,-302.5 166,-302.5"/>
<text text-anchor="middle" x="230" y="-309.5" font-family="Helvetica,sans-Serif" font-size="10.00">playrho/WiderType.hpp</text>
</a>
</g>
</g>
<!-- Node7&#45;&gt;Node24 -->
<g id="edge35" class="edge">
<title>Node7&#45;&gt;Node24</title>
<path fill="none" stroke="midnightblue" d="M629.06,-360.05C546.13,-350.27 395.02,-332.46 304.43,-321.78"/>
<polygon fill="midnightblue" stroke="midnightblue" points="304.58,-318.27 294.24,-320.57 303.76,-325.22 304.58,-318.27"/>
</g>
<!-- Node16 -->
<g id="node16" class="node">
<title>Node16</title>
<g id="a_node16"><a xlink:href="Defines_8hpp.html" target="_top" xlink:title="Miscellaneous C&#45;preprocessor definitions.">
<polygon fill="white" stroke="black" points="350,-190.5 350,-209.5 464,-209.5 464,-190.5 350,-190.5"/>
<text text-anchor="middle" x="407" y="-197.5" font-family="Helvetica,sans-Serif" font-size="10.00">playrho/Defines.hpp</text>
</a>
</g>
</g>
<!-- Node15&#45;&gt;Node16 -->
<g id="edge16" class="edge">
<title>Node15&#45;&gt;Node16</title>
<path fill="none" stroke="midnightblue" d="M421.19,-246.08C418.92,-238.85 415.63,-228.41 412.79,-219.4"/>
<polygon fill="midnightblue" stroke="midnightblue" points="416.1,-218.24 409.75,-209.75 409.42,-220.34 416.1,-218.24"/>
</g>
<!-- Node17 -->
<g id="node17" class="node">
<title>Node17</title>
<g id="a_node17"><a xlink:href="Real_8hpp.html" target="_top" xlink:title="Real number definition file.">
<polygon fill="white" stroke="black" points="482.5,-190.5 482.5,-209.5 581.5,-209.5 581.5,-190.5 482.5,-190.5"/>
<text text-anchor="middle" x="532" y="-197.5" font-family="Helvetica,sans-Serif" font-size="10.00">playrho/Real.hpp</text>
</a>
</g>
</g>
<!-- Node15&#45;&gt;Node17 -->
<g id="edge17" class="edge">
<title>Node15&#45;&gt;Node17</title>
<path fill="none" stroke="midnightblue" d="M441.35,-246.32C458.67,-237.66 485.52,-224.24 505.5,-214.25"/>
<polygon fill="midnightblue" stroke="midnightblue" points="507.31,-217.26 514.69,-209.65 504.18,-211 507.31,-217.26"/>
</g>
<!-- Node17&#45;&gt;Node14 -->
<g id="edge18" class="edge">
<title>Node17&#45;&gt;Node14</title>
<path fill="none" stroke="midnightblue" d="M512.8,-190.48C490.21,-180.45 452.5,-163.7 426.5,-152.15"/>
<polygon fill="midnightblue" stroke="midnightblue" points="427.72,-148.87 417.16,-148.01 424.88,-155.27 427.72,-148.87"/>
</g>
<!-- Node17&#45;&gt;Node18 -->
<g id="edge19" class="edge">
<title>Node17&#45;&gt;Node18</title>
<path fill="none" stroke="midnightblue" d="M564.81,-190.48C605.2,-179.98 673.88,-162.14 718.33,-150.59"/>
<polygon fill="midnightblue" stroke="midnightblue" points="719.45,-153.91 728.25,-148.01 717.69,-147.14 719.45,-153.91"/>
</g>
<!-- Node19 -->
<g id="node19" class="node">
<title>Node19</title>
<g id="a_node19"><a xlink:href="detail_2Templates_8hpp.html" target="_top" xlink:title="Low&#45;level declarations for general class &amp; function templates.">
<polygon fill="white" stroke="black" points="682,-62 682,-81 840,-81 840,-62 682,-62"/>
<text text-anchor="middle" x="761" y="-69" font-family="Helvetica,sans-Serif" font-size="10.00">playrho/detail/Templates.hpp</text>
</a>
</g>
</g>
<!-- Node18&#45;&gt;Node19 -->
<g id="edge20" class="edge">
<title>Node18&#45;&gt;Node19</title>
<path fill="none" stroke="midnightblue" d="M761,-128.73C761,-119.18 761,-103.62 761,-91.28"/>
<polygon fill="midnightblue" stroke="midnightblue" points="764.5,-91.13 761,-81.13 757.5,-91.13 764.5,-91.13"/>
</g>
<!-- Node19&#45;&gt;Node2 -->
<g id="edge22" class="edge">
<title>Node19&#45;&gt;Node2</title>
<path fill="none" stroke="midnightblue" d="M681.83,-62.48C556.08,-49.73 314.89,-25.28 216.93,-15.35"/>
<polygon fill="midnightblue" stroke="midnightblue" points="217.11,-11.85 206.81,-14.33 216.41,-18.82 217.11,-11.85"/>
</g>
<!-- Node19&#45;&gt;Node5 -->
<g id="edge25" class="edge">
<title>Node19&#45;&gt;Node5</title>
<path fill="none" stroke="midnightblue" d="M747.96,-61.98C733.23,-52.34 709.03,-36.52 691.49,-25.05"/>
<polygon fill="midnightblue" stroke="midnightblue" points="693.3,-22.05 683.01,-19.51 689.47,-27.91 693.3,-22.05"/>
</g>
<!-- Node19&#45;&gt;Node6 -->
<g id="edge24" class="edge">
<title>Node19&#45;&gt;Node6</title>
<path fill="none" stroke="midnightblue" d="M733.78,-61.98C700.76,-51.64 644.96,-34.16 608.05,-22.6"/>
<polygon fill="midnightblue" stroke="midnightblue" points="608.76,-19.16 598.17,-19.51 606.67,-25.84 608.76,-19.16"/>
</g>
<!-- Node19&#45;&gt;Node8 -->
<g id="edge21" class="edge">
<title>Node19&#45;&gt;Node8</title>
<path fill="none" stroke="midnightblue" d="M776.33,-61.98C793.97,-52.17 823.16,-35.93 843.86,-24.42"/>
<polygon fill="midnightblue" stroke="midnightblue" points="845.66,-27.43 852.7,-19.51 842.26,-21.31 845.66,-27.43"/>
</g>
<!-- Node20 -->
<g id="node20" class="node">
<title>Node20</title>
<g id="a_node20"><a xlink:title=" ">
<polygon fill="white" stroke="#bfbfbf" points="734.5,-0.5 734.5,-19.5 787.5,-19.5 787.5,-0.5 734.5,-0.5"/>
<text text-anchor="middle" x="761" y="-7.5" font-family="Helvetica,sans-Serif" font-size="10.00">iterator</text>
</a>
</g>
</g>
<!-- Node19&#45;&gt;Node20 -->
<g id="edge23" class="edge">
<title>Node19&#45;&gt;Node20</title>
<path fill="none" stroke="midnightblue" d="M761,-61.98C761,-53.58 761,-40.48 761,-29.66"/>
<polygon fill="midnightblue" stroke="midnightblue" points="764.5,-29.51 761,-19.51 757.5,-29.51 764.5,-29.51"/>
</g>
<!-- Node21&#45;&gt;Node6 -->
<g id="edge29" class="edge">
<title>Node21&#45;&gt;Node6</title>
<path fill="none" stroke="midnightblue" d="M687.44,-302.39C685.43,-275.06 677.07,-188.22 649,-123 632.93,-85.67 603.39,-48.09 585.63,-27.35"/>
<polygon fill="midnightblue" stroke="midnightblue" points="588.03,-24.78 578.82,-19.54 582.76,-29.38 588.03,-24.78"/>
</g>
<!-- Node21&#45;&gt;Node12 -->
<g id="edge28" class="edge">
<title>Node21&#45;&gt;Node12</title>
<path fill="none" stroke="midnightblue" d="M702.46,-302.32C716.5,-293.9 738.05,-280.97 754.54,-271.07"/>
<polygon fill="midnightblue" stroke="midnightblue" points="756.8,-273.8 763.58,-265.65 753.2,-267.8 756.8,-273.8"/>
</g>
<!-- Node21&#45;&gt;Node15 -->
<g id="edge30" class="edge">
<title>Node21&#45;&gt;Node15</title>
<path fill="none" stroke="midnightblue" d="M646.17,-302.44C599.92,-292.98 525.39,-277.74 475.56,-267.55"/>
<polygon fill="midnightblue" stroke="midnightblue" points="476.13,-264.09 465.64,-265.52 474.73,-270.95 476.13,-264.09"/>
</g>
<!-- Node21&#45;&gt;Node18 -->
<g id="edge31" class="edge">
<title>Node21&#45;&gt;Node18</title>
<path fill="none" stroke="midnightblue" d="M691.72,-302.26C703.14,-275.42 737.88,-193.82 753.38,-157.39"/>
<polygon fill="midnightblue" stroke="midnightblue" points="756.68,-158.59 757.37,-148.02 750.24,-155.85 756.68,-158.59"/>
</g>
<!-- Node22 -->
<g id="node22" class="node">
<title>Node22</title>
<g id="a_node22"><a xlink:href="to__underlying_8hpp.html" target="_top" xlink:title="Definition of to_underlying function template.">
<polygon fill="white" stroke="black" points="516,-246.5 516,-265.5 660,-265.5 660,-246.5 516,-246.5"/>
<text text-anchor="middle" x="588" y="-253.5" font-family="Helvetica,sans-Serif" font-size="10.00">playrho/to_underlying.hpp</text>
</a>
</g>
</g>
<!-- Node21&#45;&gt;Node22 -->
<g id="edge32" class="edge">
<title>Node21&#45;&gt;Node22</title>
<path fill="none" stroke="midnightblue" d="M671.93,-302.32C656.04,-293.74 631.49,-280.49 613.04,-270.52"/>
<polygon fill="midnightblue" stroke="midnightblue" points="614.49,-267.33 604.03,-265.65 611.16,-273.49 614.49,-267.33"/>
</g>
<!-- Node23 -->
<g id="node23" class="node">
<title>Node23</title>
<g id="a_node23"><a xlink:href="underlying__type_8hpp.html" target="_top" xlink:title="Definition of underlying_type trait class and related code.">
<polygon fill="white" stroke="black" points="501.5,-123.5 501.5,-153.5 640.5,-153.5 640.5,-123.5 501.5,-123.5"/>
<text text-anchor="start" x="509.5" y="-141.5" font-family="Helvetica,sans-Serif" font-size="10.00">playrho/detail/underlying</text>
<text text-anchor="middle" x="571" y="-130.5" font-family="Helvetica,sans-Serif" font-size="10.00">_type.hpp</text>
</a>
</g>
</g>
<!-- Node22&#45;&gt;Node23 -->
<g id="edge33" class="edge">
<title>Node22&#45;&gt;Node23</title>
<path fill="none" stroke="midnightblue" d="M589.45,-246.08C591.22,-233.47 593.6,-209.77 590,-190 588.36,-180.96 585.18,-171.43 581.89,-163.12"/>
<polygon fill="midnightblue" stroke="midnightblue" points="585.03,-161.54 577.91,-153.69 578.58,-164.26 585.03,-161.54"/>
</g>
<!-- Node23&#45;&gt;Node6 -->
<g id="edge34" class="edge">
<title>Node23&#45;&gt;Node6</title>
<path fill="none" stroke="midnightblue" d="M571,-123.48C571,-100.72 571,-55.7 571,-30.06"/>
<polygon fill="midnightblue" stroke="midnightblue" points="574.5,-29.79 571,-19.79 567.5,-29.79 574.5,-29.79"/>
</g>
<!-- Node25 -->
<g id="node25" class="node">
<title>Node25</title>
<g id="a_node25"><a xlink:href="Wider_8hpp.html" target="_top" xlink:title="Definition of the Wider class template and specializations.">
<polygon fill="white" stroke="black" points="158,-246.5 158,-265.5 294,-265.5 294,-246.5 158,-246.5"/>
<text text-anchor="middle" x="226" y="-253.5" font-family="Helvetica,sans-Serif" font-size="10.00">playrho/detail/Wider.hpp</text>
</a>
</g>
</g>
<!-- Node24&#45;&gt;Node25 -->
<g id="edge36" class="edge">
<title>Node24&#45;&gt;Node25</title>
<path fill="none" stroke="midnightblue" d="M229.34,-302.08C228.82,-295.01 228.06,-284.86 227.41,-275.99"/>
<polygon fill="midnightblue" stroke="midnightblue" points="230.88,-275.47 226.65,-265.75 223.9,-275.98 230.88,-275.47"/>
</g>
<!-- Node25&#45;&gt;Node6 -->
<g id="edge38" class="edge">
<title>Node25&#45;&gt;Node6</title>
<path fill="none" stroke="midnightblue" d="M233.93,-246.17C254.41,-223.72 311.35,-163.35 367,-123 425.48,-80.61 501.76,-42.81 542.46,-23.86"/>
<polygon fill="midnightblue" stroke="midnightblue" points="544.16,-26.93 551.78,-19.56 541.23,-20.57 544.16,-26.93"/>
</g>
<!-- Node25&#45;&gt;Node13 -->
<g id="edge37" class="edge">
<title>Node25&#45;&gt;Node13</title>
<path fill="none" stroke="midnightblue" d="M218.07,-246.08C211.15,-238.3 200.93,-226.8 192.55,-217.37"/>
<polygon fill="midnightblue" stroke="midnightblue" points="195.04,-214.9 185.78,-209.75 189.81,-219.55 195.04,-214.9"/>
</g>
<!-- Node25&#45;&gt;Node16 -->
<g id="edge39" class="edge">
<title>Node25&#45;&gt;Node16</title>
<path fill="none" stroke="midnightblue" d="M254.68,-246.44C285.53,-237.24 334.73,-222.56 368.83,-212.39"/>
<polygon fill="midnightblue" stroke="midnightblue" points="369.87,-215.73 378.45,-209.52 367.87,-209.02 369.87,-215.73"/>
</g>
<!-- Node26&#45;&gt;Node7 -->
<g id="edge43" class="edge">
<title>Node26&#45;&gt;Node7</title>
<path fill="none" stroke="midnightblue" d="M762.78,-414.4C747.21,-404.95 726.8,-392.56 711.24,-383.11"/>
<polygon fill="midnightblue" stroke="midnightblue" points="712.62,-379.86 702.26,-377.66 708.99,-385.84 712.62,-379.86"/>
</g>
<!-- Node26&#45;&gt;Node8 -->
<g id="edge41" class="edge">
<title>Node26&#45;&gt;Node8</title>
<path fill="none" stroke="midnightblue" d="M862.84,-426.09C940.15,-419.07 1048,-394.65 1048,-313 1048,-313 1048,-313 1048,-137.5 1048,-70.4 963.23,-35.82 910.04,-20.73"/>
<polygon fill="midnightblue" stroke="midnightblue" points="910.75,-17.29 900.18,-18.05 908.91,-24.05 910.75,-17.29"/>
</g>
<!-- Node26&#45;&gt;Node10 -->
<g id="edge42" class="edge">
<title>Node26&#45;&gt;Node10</title>
<path fill="none" stroke="midnightblue" d="M811.5,-414.34C851.81,-391.96 929.71,-348.7 969.42,-326.65"/>
<polygon fill="midnightblue" stroke="midnightblue" points="971.61,-329.44 978.65,-321.52 968.21,-323.32 971.61,-329.44"/>
</g>
</g>
</svg>
        <g id="navigator" transform="translate(0 0)" fill="#404254">
                <rect fill="#f2f5e9" fill-opacity="0.5" stroke="#606060" stroke-width=".5" x="0" y="0" width="60" height="60"/>
                <use id="zoomplus" xlink:href="#zoomPlus" x="17" y="9" onmousedown="handleZoom(evt,'in')"/>
                <use id="zoomminus" xlink:href="#zoomMin" x="42" y="9" onmousedown="handleZoom(evt,'out')"/>
                <use id="reset" xlink:href="#resetDef" x="30" y="36" onmousedown="handleReset()"/>
                <g id="arrowUp" xlink:href="#dirArrow" transform="translate(30 24)" onmousedown="handlePan(0,-1)">
                  <use xlink:href="#rim" fill="#404040">
                        <set attributeName="fill" to="#808080" begin="arrowUp.mouseover" end="arrowUp.mouseout"/>
                  </use>
                  <path fill="none" stroke="white" stroke-width="1.5" d="M0,-3.0v7 M-2.5,-0.5L0,-3.0L2.5,-0.5"/>
                </g>
                <g id="arrowRight" xlink:href="#dirArrow" transform="rotate(90) translate(36 -43)" onmousedown="handlePan(1,0)">
                  <use xlink:href="#rim" fill="#404040">
                        <set attributeName="fill" to="#808080" begin="arrowRight.mouseover" end="arrowRight.mouseout"/>
                  </use>
                  <path fill="none" stroke="white" stroke-width="1.5" d="M0,-3.0v7 M-2.5,-0.5L0,-3.0L2.5,-0.5"/>
                </g>
                <g id="arrowDown" xlink:href="#dirArrow" transform="rotate(180) translate(-30 -48)" onmousedown="handlePan(0,1)">
                  <use xlink:href="#rim" fill="#404040">
                        <set attributeName="fill" to="#808080" begin="arrowDown.mouseover" end="arrowDown.mouseout"/>
                  </use>
                  <path fill="none" stroke="white" stroke-width="1.5" d="M0,-3.0v7 M-2.5,-0.5L0,-3.0L2.5,-0.5"/>
                </g>
                <g id="arrowLeft" xlink:href="#dirArrow" transform="rotate(270) translate(-36 17)" onmousedown="handlePan(-1,0)">
                  <use xlink:href="#rim" fill="#404040">
                        <set attributeName="fill" to="#808080" begin="arrowLeft.mouseover" end="arrowLeft.mouseout"/>
                  </use>
                  <path fill="none" stroke="white" stroke-width="1.5" d="M0,-3.0v7 M-2.5,-0.5L0,-3.0L2.5,-0.5"/>
                </g>
        </g>
        <svg viewBox="0 0 15 15" width="100%" height="30px" preserveAspectRatio="xMaxYMin meet">
         <g id="arrow_out" transform="scale(0.3 0.3)">
          <a xlink:href="ContactImpulsesFunction_8hpp__incl_org.svg" target="_base">
           <rect id="button" ry="5" rx="5" y="6" x="6" height="38" width="38"
                fill="#f2f5e9" fill-opacity="0.5" stroke="#606060" stroke-width="1.0"/>
           <path id="arrow"
             d="M 11.500037,31.436501 C 11.940474,20.09759 22.043105,11.32322 32.158766,21.979434 L 37.068811,17.246167 C 37.068811,17.246167 37.088388,32 37.088388,32 L 22.160133,31.978069 C 22.160133,31.978069 26.997745,27.140456 26.997745,27.140456 C 18.528582,18.264221 13.291696,25.230495 11.500037,31.436501 z"
             style="fill:#404040;"/>
          </a>
         </g>
        </svg>
</svg>
