<?xml version="1.0" encoding="UTF-8" standalone="no"?>
<!DOCTYPE svg PUBLIC "-//W3C//DTD SVG 1.1//EN"
 "http://www.w3.org/Graphics/SVG/1.1/DTD/svg11.dtd">
<!-- Generated by graphviz version 2.43.0 (0)
 -->
<!-- Title: Library/include/playrho/ContactKey.hpp Pages: 1 -->
<svg width="584pt" height="374pt"
 viewBox="0.00 0.00 584.00 374.00" xmlns="http://www.w3.org/2000/svg" xmlns:xlink="http://www.w3.org/1999/xlink">
<g id="graph0" class="graph" transform="scale(1 1) rotate(0) translate(4 370)">
<title>Library/include/playrho/ContactKey.hpp</title>
<polygon fill="white" stroke="transparent" points="-4,4 -4,-370 580,-370 580,4 -4,4"/>
<!-- Node1 -->
<g id="node1" class="node">
<title>Node1</title>
<g id="a_node1"><a xlink:title="Declaration of the ContactKey class and closely related code.">
<polygon fill="#bfbfbf" stroke="black" points="112,-335.5 112,-365.5 240,-365.5 240,-335.5 112,-335.5"/>
<text text-anchor="start" x="120" y="-353.5" font-family="Helvetica,sans-Serif" font-size="10.00">Library/include/playrho</text>
<text text-anchor="middle" x="176" y="-342.5" font-family="Helvetica,sans-Serif" font-size="10.00">/ContactKey.hpp</text>
</a>
</g>
</g>
<!-- Node2 -->
<g id="node2" class="node">
<title>Node2</title>
<g id="a_node2"><a xlink:href="AabbTreeWorld_8hpp.html" target="_top" xlink:title="Declarations of the AabbTreeWorld class.">
<polygon fill="white" stroke="black" points="0,-201.5 0,-231.5 128,-231.5 128,-201.5 0,-201.5"/>
<text text-anchor="start" x="8" y="-219.5" font-family="Helvetica,sans-Serif" font-size="10.00">Library/include/playrho</text>
<text text-anchor="middle" x="64" y="-208.5" font-family="Helvetica,sans-Serif" font-size="10.00">/d2/AabbTreeWorld.hpp</text>
</a>
</g>
</g>
<!-- Node1&#45;&gt;Node2 -->
<g id="edge1" class="edge">
<title>Node1&#45;&gt;Node2</title>
<path fill="none" stroke="midnightblue" d="M157.37,-327.54C134.21,-300.25 95.38,-254.48 75.9,-231.52"/>
<polygon fill="midnightblue" stroke="midnightblue" points="154.88,-330.01 164.01,-335.37 160.21,-325.48 154.88,-330.01"/>
</g>
<!-- Node3 -->
<g id="node3" class="node">
<title>Node3</title>
<g id="a_node3"><a xlink:href="KeyedContactID_8hpp.html" target="_top" xlink:title="Declaration of the KeyedContactID alias.">
<polygon fill="white" stroke="black" points="211,-268.5 211,-298.5 339,-298.5 339,-268.5 211,-268.5"/>
<text text-anchor="start" x="219" y="-286.5" font-family="Helvetica,sans-Serif" font-size="10.00">Library/include/playrho</text>
<text text-anchor="middle" x="275" y="-275.5" font-family="Helvetica,sans-Serif" font-size="10.00">/KeyedContactID.hpp</text>
</a>
</g>
</g>
<!-- Node1&#45;&gt;Node3 -->
<g id="edge2" class="edge">
<title>Node1&#45;&gt;Node3</title>
<path fill="none" stroke="midnightblue" d="M206.11,-329.73C221.42,-319.68 239.69,-307.68 253.56,-298.58"/>
<polygon fill="midnightblue" stroke="midnightblue" points="203.92,-326.98 197.48,-335.4 207.76,-332.83 203.92,-326.98"/>
</g>
<!-- Node3&#45;&gt;Node2 -->
<g id="edge3" class="edge">
<title>Node3&#45;&gt;Node2</title>
<path fill="none" stroke="midnightblue" d="M219.63,-265.44C185.43,-254.91 142.07,-241.55 109.81,-231.61"/>
<polygon fill="midnightblue" stroke="midnightblue" points="218.89,-268.88 229.48,-268.48 220.95,-262.19 218.89,-268.88"/>
</g>
<!-- Node4 -->
<g id="node4" class="node">
<title>Node4</title>
<g id="a_node4"><a xlink:href="WorldConcept_8hpp.html" target="_top" xlink:title="Definition of the internal WorldConcept interface class.">
<polygon fill="white" stroke="black" points="146,-201.5 146,-231.5 300,-231.5 300,-201.5 146,-201.5"/>
<text text-anchor="start" x="154" y="-219.5" font-family="Helvetica,sans-Serif" font-size="10.00">Library/include/playrho</text>
<text text-anchor="middle" x="223" y="-208.5" font-family="Helvetica,sans-Serif" font-size="10.00">/d2/detail/WorldConcept.hpp</text>
</a>
</g>
</g>
<!-- Node3&#45;&gt;Node4 -->
<g id="edge4" class="edge">
<title>Node3&#45;&gt;Node4</title>
<path fill="none" stroke="midnightblue" d="M257.36,-260.45C249.72,-250.9 241,-240 234.26,-231.58"/>
<polygon fill="midnightblue" stroke="midnightblue" points="254.74,-262.77 263.72,-268.4 260.2,-258.4 254.74,-262.77"/>
</g>
<!-- Node6 -->
<g id="node6" class="node">
<title>Node6</title>
<g id="a_node6"><a xlink:href="World_8hpp.html" target="_top" xlink:title="Definitions of the World class and closely related code.">
<polygon fill="white" stroke="black" points="245,-67.5 245,-97.5 373,-97.5 373,-67.5 245,-67.5"/>
<text text-anchor="start" x="253" y="-85.5" font-family="Helvetica,sans-Serif" font-size="10.00">Library/include/playrho</text>
<text text-anchor="middle" x="309" y="-74.5" font-family="Helvetica,sans-Serif" font-size="10.00">/d2/World.hpp</text>
</a>
</g>
</g>
<!-- Node3&#45;&gt;Node6 -->
<g id="edge9" class="edge">
<title>Node3&#45;&gt;Node6</title>
<path fill="none" stroke="midnightblue" d="M294.15,-260.22C300.12,-251.92 305.93,-242.05 309,-232 323.45,-184.66 316.23,-124.8 311.71,-97.83"/>
<polygon fill="midnightblue" stroke="midnightblue" points="291.3,-258.19 287.99,-268.25 296.85,-262.45 291.3,-258.19"/>
</g>
<!-- Node8 -->
<g id="node8" class="node">
<title>Node8</title>
<g id="a_node8"><a xlink:href="WorldBody_8hpp.html" target="_top" xlink:title="Declarations of free functions of World for bodies identified by BodyID.">
<polygon fill="white" stroke="black" points="356,-134.5 356,-164.5 484,-164.5 484,-134.5 356,-134.5"/>
<text text-anchor="start" x="364" y="-152.5" font-family="Helvetica,sans-Serif" font-size="10.00">Library/include/playrho</text>
<text text-anchor="middle" x="420" y="-141.5" font-family="Helvetica,sans-Serif" font-size="10.00">/d2/WorldBody.hpp</text>
</a>
</g>
</g>
<!-- Node3&#45;&gt;Node8 -->
<g id="edge10" class="edge">
<title>Node3&#45;&gt;Node8</title>
<path fill="none" stroke="midnightblue" d="M304.02,-262.21C316.11,-253.35 330.09,-242.59 342,-232 366.74,-210.01 392.81,-181.54 407.67,-164.72"/>
<polygon fill="midnightblue" stroke="midnightblue" points="301.66,-259.6 295.6,-268.29 305.76,-265.27 301.66,-259.6"/>
</g>
<!-- Node9 -->
<g id="node9" class="node">
<title>Node9</title>
<g id="a_node9"><a xlink:href="WorldContact_8hpp.html" target="_top" xlink:title="Declarations of free functions of World for contacts identified by ContactID.">
<polygon fill="white" stroke="black" points="448,-67.5 448,-97.5 576,-97.5 576,-67.5 448,-67.5"/>
<text text-anchor="start" x="456" y="-85.5" font-family="Helvetica,sans-Serif" font-size="10.00">Library/include/playrho</text>
<text text-anchor="middle" x="512" y="-74.5" font-family="Helvetica,sans-Serif" font-size="10.00">/d2/WorldContact.hpp</text>
</a>
</g>
</g>
<!-- Node3&#45;&gt;Node9 -->
<g id="edge12" class="edge">
<title>Node3&#45;&gt;Node9</title>
<path fill="none" stroke="midnightblue" d="M336.13,-265.18C385.88,-247.9 454.03,-216.39 493,-165 508.1,-145.09 511.49,-115.14 512.08,-97.63"/>
<polygon fill="midnightblue" stroke="midnightblue" points="334.8,-261.93 326.44,-268.45 337.03,-268.57 334.8,-261.93"/>
</g>
<!-- Node5 -->
<g id="node5" class="node">
<title>Node5</title>
<g id="a_node5"><a xlink:href="WorldModel_8hpp.html" target="_top" xlink:title="Definitions of the WorldModel class and closely related code.">
<polygon fill="white" stroke="black" points="118,-134.5 118,-164.5 262,-164.5 262,-134.5 118,-134.5"/>
<text text-anchor="start" x="126" y="-152.5" font-family="Helvetica,sans-Serif" font-size="10.00">Library/include/playrho</text>
<text text-anchor="middle" x="190" y="-141.5" font-family="Helvetica,sans-Serif" font-size="10.00">/d2/detail/WorldModel.hpp</text>
</a>
</g>
</g>
<!-- Node4&#45;&gt;Node5 -->
<g id="edge5" class="edge">
<title>Node4&#45;&gt;Node5</title>
<path fill="none" stroke="midnightblue" d="M211.21,-192.28C206.51,-183.02 201.25,-172.66 197.15,-164.58"/>
<polygon fill="midnightblue" stroke="midnightblue" points="208.19,-194.06 215.84,-201.4 214.43,-190.89 208.19,-194.06"/>
</g>
<!-- Node4&#45;&gt;Node6 -->
<g id="edge8" class="edge">
<title>Node4&#45;&gt;Node6</title>
<path fill="none" stroke="midnightblue" d="M246.27,-194.14C254.73,-185.61 263.94,-175.36 271,-165 285.86,-143.2 297.66,-114.66 303.96,-97.79"/>
<polygon fill="midnightblue" stroke="midnightblue" points="243.8,-191.66 239.09,-201.15 248.69,-196.66 243.8,-191.66"/>
</g>
<!-- Node5&#45;&gt;Node6 -->
<g id="edge6" class="edge">
<title>Node5&#45;&gt;Node6</title>
<path fill="none" stroke="midnightblue" d="M224.65,-129.57C243.37,-119.35 266.09,-106.94 283.23,-97.58"/>
<polygon fill="midnightblue" stroke="midnightblue" points="222.92,-126.53 215.82,-134.4 226.28,-132.67 222.92,-126.53"/>
</g>
<!-- Node7 -->
<g id="node7" class="node">
<title>Node7</title>
<g id="a_node7"><a xlink:href="BasicAPI_8hpp.html" target="_top" xlink:title="Basic API include file to pull in at once most headers used.">
<polygon fill="white" stroke="black" points="356,-0.5 356,-30.5 484,-30.5 484,-0.5 356,-0.5"/>
<text text-anchor="start" x="364" y="-18.5" font-family="Helvetica,sans-Serif" font-size="10.00">Library/include/playrho</text>
<text text-anchor="middle" x="420" y="-7.5" font-family="Helvetica,sans-Serif" font-size="10.00">/d2/BasicAPI.hpp</text>
</a>
</g>
</g>
<!-- Node6&#45;&gt;Node7 -->
<g id="edge7" class="edge">
<title>Node6&#45;&gt;Node7</title>
<path fill="none" stroke="midnightblue" d="M341.8,-62.3C359.16,-52.12 380.12,-39.85 395.96,-30.58"/>
<polygon fill="midnightblue" stroke="midnightblue" points="339.95,-59.32 333.09,-67.4 343.48,-65.36 339.95,-59.32"/>
</g>
<!-- Node8&#45;&gt;Node7 -->
<g id="edge11" class="edge">
<title>Node8&#45;&gt;Node7</title>
<path fill="none" stroke="midnightblue" d="M420,-124.02C420,-96.51 420,-52.79 420,-30.52"/>
<polygon fill="midnightblue" stroke="midnightblue" points="416.5,-124.37 420,-134.37 423.5,-124.37 416.5,-124.37"/>
</g>
<!-- Node9&#45;&gt;Node7 -->
<g id="edge13" class="edge">
<title>Node9&#45;&gt;Node7</title>
<path fill="none" stroke="midnightblue" d="M483.62,-61.45C469.47,-51.45 452.69,-39.6 439.92,-30.58"/>
<polygon fill="midnightblue" stroke="midnightblue" points="481.85,-64.48 492.04,-67.4 485.89,-58.77 481.85,-64.48"/>
</g>
</g>
</svg>
