<?xml version="1.0" encoding="UTF-8" standalone="no"?>
<!DOCTYPE svg PUBLIC "-//W3C//DTD SVG 1.1//EN"
 "http://www.w3.org/Graphics/SVG/1.1/DTD/svg11.dtd">
<!-- Generated by graphviz version 2.43.0 (0)
 -->
<!-- Title: Library/include/playrho/ContactKey.hpp Pages: 1 -->
<!--zoomable 442 -->
<svg id="main" version="1.1" xmlns="http://www.w3.org/2000/svg" xmlns:xlink="http://www.w3.org/1999/xlink" xml:space="preserve" onload="init(evt)">
<style type="text/css"><![CDATA[
.edge:hover path { stroke: red; }
.edge:hover polygon { stroke: red; fill: red; }
]]></style>
<script type="text/javascript"><![CDATA[
var edges = document.getElementsByTagName('g');
if (edges && edges.length) {
  for (var i=0;i<edges.length;i++) {
    if (edges[i].id.substr(0,4)=='edge') {
      edges[i].setAttribute('class','edge');
    }
  }
}
]]></script>
        <defs>
                <circle id="rim" cx="0" cy="0" r="7"/>
                <circle id="rim2" cx="0" cy="0" r="3.5"/>
                <g id="zoomPlus">
                        <use xlink:href="#rim" fill="#404040">
                                <set attributeName="fill" to="#808080" begin="zoomplus.mouseover" end="zoomplus.mouseout"/>
                        </use>
                        <path d="M-4,0h8M0,-4v8" fill="none" stroke="white" stroke-width="1.5" pointer-events="none"/>
                </g>
                <g id="zoomMin">
                        <use xlink:href="#rim" fill="#404040">
                                <set attributeName="fill" to="#808080" begin="zoomminus.mouseover" end="zoomminus.mouseout"/>
                        </use>
                        <path d="M-4,0h8" fill="none" stroke="white" stroke-width="1.5" pointer-events="none"/>
                </g>
                <g id="dirArrow">
                        <path fill="none" stroke="white" stroke-width="1.5" d="M0,-3.0v7 M-2.5,-0.5L0,-3.0L2.5,-0.5"/>
                </g>
               <g id="resetDef">
                       <use xlink:href="#rim2" fill="#404040">
                               <set attributeName="fill" to="#808080" begin="reset.mouseover" end="reset.mouseout"/>
                       </use>
               </g>
        </defs>

<script type="text/javascript">
var viewWidth = 1031;
var viewHeight = 442;
var sectionId = 'dynsection-0';
</script>
<script xlink:href="svgpan.js"/>
<svg id="graph" class="graph">
<g id="viewport">
<title>Library/include/playrho/ContactKey.hpp</title>
<polygon fill="white" stroke="transparent" points="-4,4 -4,-438 1027,-438 1027,4 -4,4"/>
<!-- Node1 -->
<g id="node1" class="node">
<title>Node1</title>
<g id="a_node1"><a xlink:title="Declaration of the ContactKey class and closely related code.">
<polygon fill="#bfbfbf" stroke="black" points="827.5,-403.5 827.5,-433.5 955.5,-433.5 955.5,-403.5 827.5,-403.5"/>
<text text-anchor="start" x="835.5" y="-421.5" font-family="Helvetica,sans-Serif" font-size="10.00">Library/include/playrho</text>
<text text-anchor="middle" x="891.5" y="-410.5" font-family="Helvetica,sans-Serif" font-size="10.00">/ContactKey.hpp</text>
</a>
</g>
</g>
<!-- Node2 -->
<g id="node2" class="node">
<title>Node2</title>
<g id="a_node2"><a xlink:title=" ">
<polygon fill="white" stroke="#bfbfbf" points="0,-56.5 0,-75.5 49,-75.5 49,-56.5 0,-56.5"/>
<text text-anchor="middle" x="24.5" y="-63.5" font-family="Helvetica,sans-Serif" font-size="10.00">cstdlib</text>
</a>
</g>
</g>
<!-- Node1&#45;&gt;Node2 -->
<g id="edge1" class="edge">
<title>Node1&#45;&gt;Node2</title>
<path fill="none" stroke="midnightblue" d="M827.21,-415.62C627.56,-408.94 31.5,-382.27 31.5,-302 31.5,-302 31.5,-302 31.5,-188 31.5,-151.83 28.34,-109.69 26.27,-85.9"/>
<polygon fill="midnightblue" stroke="midnightblue" points="29.74,-85.44 25.36,-75.8 22.77,-86.07 29.74,-85.44"/>
</g>
<!-- Node3 -->
<g id="node3" class="node">
<title>Node3</title>
<g id="a_node3"><a xlink:title=" ">
<polygon fill="white" stroke="#bfbfbf" points="810.5,-0.5 810.5,-19.5 874.5,-19.5 874.5,-0.5 810.5,-0.5"/>
<text text-anchor="middle" x="842.5" y="-7.5" font-family="Helvetica,sans-Serif" font-size="10.00">algorithm</text>
</a>
</g>
</g>
<!-- Node1&#45;&gt;Node3 -->
<g id="edge2" class="edge">
<title>Node1&#45;&gt;Node3</title>
<path fill="none" stroke="midnightblue" d="M891.5,-403.28C891.5,-381.48 891.5,-338.49 891.5,-302 891.5,-302 891.5,-302 891.5,-126.5 891.5,-89.12 869.48,-49.96 854.96,-28.19"/>
<polygon fill="midnightblue" stroke="midnightblue" points="857.68,-25.97 849.11,-19.74 851.93,-29.95 857.68,-25.97"/>
</g>
<!-- Node4 -->
<g id="node4" class="node">
<title>Node4</title>
<g id="a_node4"><a xlink:title=" ">
<polygon fill="white" stroke="#bfbfbf" points="958,-347.5 958,-366.5 1023,-366.5 1023,-347.5 958,-347.5"/>
<text text-anchor="middle" x="990.5" y="-354.5" font-family="Helvetica,sans-Serif" font-size="10.00">functional</text>
</a>
</g>
</g>
<!-- Node1&#45;&gt;Node4 -->
<g id="edge3" class="edge">
<title>Node1&#45;&gt;Node4</title>
<path fill="none" stroke="midnightblue" d="M914.96,-403.4C930.83,-393.86 951.69,-381.32 967.47,-371.84"/>
<polygon fill="midnightblue" stroke="midnightblue" points="969.33,-374.81 976.09,-366.66 965.72,-368.81 969.33,-374.81"/>
</g>
<!-- Node5 -->
<g id="node5" class="node">
<title>Node5</title>
<g id="a_node5"><a xlink:title=" ">
<polygon fill="white" stroke="#bfbfbf" points="898,-0.5 898,-19.5 943,-19.5 943,-0.5 898,-0.5"/>
<text text-anchor="middle" x="920.5" y="-7.5" font-family="Helvetica,sans-Serif" font-size="10.00">utility</text>
</a>
</g>
</g>
<!-- Node1&#45;&gt;Node5 -->
<g id="edge4" class="edge">
<title>Node1&#45;&gt;Node5</title>
<path fill="none" stroke="midnightblue" d="M899.37,-403.41C910.5,-382.13 929.5,-340.21 929.5,-302 929.5,-302 929.5,-302 929.5,-126.5 929.5,-92.26 925.52,-52.48 922.85,-29.67"/>
<polygon fill="midnightblue" stroke="midnightblue" points="926.32,-29.18 921.64,-19.68 919.37,-30.02 926.32,-29.18"/>
</g>
<!-- Node6 -->
<g id="node6" class="node">
<title>Node6</title>
<g id="a_node6"><a xlink:href="Settings_8hpp.html" target="_top" xlink:title="Types and default settings file.">
<polygon fill="white" stroke="black" points="297,-347.5 297,-366.5 414,-366.5 414,-347.5 297,-347.5"/>
<text text-anchor="middle" x="355.5" y="-354.5" font-family="Helvetica,sans-Serif" font-size="10.00">playrho/Settings.hpp</text>
</a>
</g>
</g>
<!-- Node1&#45;&gt;Node6 -->
<g id="edge5" class="edge">
<title>Node1&#45;&gt;Node6</title>
<path fill="none" stroke="midnightblue" d="M827.38,-410.38C725.86,-399.11 528.96,-377.26 424.49,-365.66"/>
<polygon fill="midnightblue" stroke="midnightblue" points="424.69,-362.16 414.37,-364.53 423.92,-369.12 424.69,-362.16"/>
</g>
<!-- Node7 -->
<g id="node7" class="node">
<title>Node7</title>
<g id="a_node7"><a xlink:title=" ">
<polygon fill="white" stroke="#bfbfbf" points="813.5,-179.5 813.5,-198.5 863.5,-198.5 863.5,-179.5 813.5,-179.5"/>
<text text-anchor="middle" x="838.5" y="-186.5" font-family="Helvetica,sans-Serif" font-size="10.00">cstdint</text>
</a>
</g>
</g>
<!-- Node6&#45;&gt;Node7 -->
<g id="edge6" class="edge">
<title>Node6&#45;&gt;Node7</title>
<path fill="none" stroke="midnightblue" d="M414.17,-354.4C486.57,-351.14 612.81,-341.22 716.5,-311 772.23,-294.76 801.98,-303.09 834.5,-255 843.6,-241.55 843.74,-222.74 842.12,-208.81"/>
<polygon fill="midnightblue" stroke="midnightblue" points="845.57,-208.22 840.58,-198.88 838.66,-209.3 845.57,-208.22"/>
</g>
<!-- Node8 -->
<g id="node8" class="node">
<title>Node8</title>
<g id="a_node8"><a xlink:title=" ">
<polygon fill="white" stroke="#bfbfbf" points="160.5,-118 160.5,-137 204.5,-137 204.5,-118 160.5,-118"/>
<text text-anchor="middle" x="182.5" y="-125" font-family="Helvetica,sans-Serif" font-size="10.00">limits</text>
</a>
</g>
</g>
<!-- Node6&#45;&gt;Node8 -->
<g id="edge7" class="edge">
<title>Node6&#45;&gt;Node8</title>
<path fill="none" stroke="midnightblue" d="M296.74,-349.53C265.33,-343.64 227.49,-332.41 199.5,-311 176.37,-293.31 173.35,-283.04 165.5,-255 154.99,-217.45 166.96,-171.76 175.47,-146.85"/>
<polygon fill="midnightblue" stroke="midnightblue" points="178.83,-147.85 178.94,-137.26 172.25,-145.47 178.83,-147.85"/>
</g>
<!-- Node9 -->
<g id="node9" class="node">
<title>Node9</title>
<g id="a_node9"><a xlink:title=" ">
<polygon fill="white" stroke="#bfbfbf" points="430,-0.5 430,-19.5 499,-19.5 499,-0.5 430,-0.5"/>
<text text-anchor="middle" x="464.5" y="-7.5" font-family="Helvetica,sans-Serif" font-size="10.00">type_traits</text>
</a>
</g>
</g>
<!-- Node6&#45;&gt;Node9 -->
<g id="edge8" class="edge">
<title>Node6&#45;&gt;Node9</title>
<path fill="none" stroke="midnightblue" d="M308.66,-347.48C229.43,-331.73 77.5,-295.11 77.5,-246 77.5,-246 77.5,-246 77.5,-126.5 77.5,-55.75 318.02,-24.77 419.83,-14.82"/>
<polygon fill="midnightblue" stroke="midnightblue" points="420.19,-18.3 429.82,-13.87 419.53,-11.34 420.19,-18.3"/>
</g>
<!-- Node10 -->
<g id="node10" class="node">
<title>Node10</title>
<g id="a_node10"><a xlink:href="Real_8hpp.html" target="_top" xlink:title="Real number definition file.">
<polygon fill="white" stroke="black" points="206,-179.5 206,-198.5 305,-198.5 305,-179.5 206,-179.5"/>
<text text-anchor="middle" x="255.5" y="-186.5" font-family="Helvetica,sans-Serif" font-size="10.00">playrho/Real.hpp</text>
</a>
</g>
</g>
<!-- Node6&#45;&gt;Node10 -->
<g id="edge9" class="edge">
<title>Node6&#45;&gt;Node10</title>
<path fill="none" stroke="midnightblue" d="M318.04,-347.45C274.27,-335.23 203.86,-308.13 172.5,-255 158.6,-231.45 189.19,-213.25 217.07,-202.18"/>
<polygon fill="midnightblue" stroke="midnightblue" points="218.61,-205.34 226.75,-198.56 216.15,-198.79 218.61,-205.34"/>
</g>
<!-- Node14 -->
<g id="node14" class="node">
<title>Node14</title>
<g id="a_node14"><a xlink:href="RealConstants_8hpp.html" target="_top" xlink:title="Definitions file for constant expressions of type Real.">
<polygon fill="white" stroke="black" points="181.5,-235.5 181.5,-254.5 329.5,-254.5 329.5,-235.5 181.5,-235.5"/>
<text text-anchor="middle" x="255.5" y="-242.5" font-family="Helvetica,sans-Serif" font-size="10.00">playrho/RealConstants.hpp</text>
</a>
</g>
</g>
<!-- Node6&#45;&gt;Node14 -->
<g id="edge19" class="edge">
<title>Node6&#45;&gt;Node14</title>
<path fill="none" stroke="midnightblue" d="M347.65,-347.37C330.93,-328.97 291.56,-285.67 270.09,-262.05"/>
<polygon fill="midnightblue" stroke="midnightblue" points="272.63,-259.64 263.31,-254.59 267.45,-264.35 272.63,-259.64"/>
</g>
<!-- Node15 -->
<g id="node15" class="node">
<title>Node15</title>
<g id="a_node15"><a xlink:href="Units_8hpp.html" target="_top" xlink:title="Declarations for physical units possibly backed by strong types.">
<polygon fill="white" stroke="black" points="344,-291.5 344,-310.5 447,-310.5 447,-291.5 344,-291.5"/>
<text text-anchor="middle" x="395.5" y="-298.5" font-family="Helvetica,sans-Serif" font-size="10.00">playrho/Units.hpp</text>
</a>
</g>
</g>
<!-- Node6&#45;&gt;Node15 -->
<g id="edge21" class="edge">
<title>Node6&#45;&gt;Node15</title>
<path fill="none" stroke="midnightblue" d="M362.11,-347.08C367.76,-339.46 376.04,-328.26 382.95,-318.94"/>
<polygon fill="midnightblue" stroke="midnightblue" points="385.88,-320.87 389.02,-310.75 380.25,-316.7 385.88,-320.87"/>
</g>
<!-- Node19 -->
<g id="node19" class="node">
<title>Node19</title>
<g id="a_node19"><a xlink:href="WiderType_8hpp.html" target="_top" xlink:title="Definition of the WiderType alias template.">
<polygon fill="white" stroke="black" points="579.5,-291.5 579.5,-310.5 707.5,-310.5 707.5,-291.5 579.5,-291.5"/>
<text text-anchor="middle" x="643.5" y="-298.5" font-family="Helvetica,sans-Serif" font-size="10.00">playrho/WiderType.hpp</text>
</a>
</g>
</g>
<!-- Node6&#45;&gt;Node19 -->
<g id="edge30" class="edge">
<title>Node6&#45;&gt;Node19</title>
<path fill="none" stroke="midnightblue" d="M401.13,-347.44C451.8,-337.94 533.57,-322.61 587.93,-312.42"/>
<polygon fill="midnightblue" stroke="midnightblue" points="588.9,-315.8 598.08,-310.52 587.61,-308.92 588.9,-315.8"/>
</g>
<!-- Node10&#45;&gt;Node8 -->
<g id="edge10" class="edge">
<title>Node10&#45;&gt;Node8</title>
<path fill="none" stroke="midnightblue" d="M245.04,-179.48C233.55,-170.11 214.87,-154.88 200.91,-143.51"/>
<polygon fill="midnightblue" stroke="midnightblue" points="202.9,-140.61 192.94,-137.01 198.48,-146.04 202.9,-140.61"/>
</g>
<!-- Node11 -->
<g id="node11" class="node">
<title>Node11</title>
<g id="a_node11"><a xlink:href="Templates_8hpp.html" target="_top" xlink:title="Definitions of miscellaneous template related code.">
<polygon fill="white" stroke="black" points="277.5,-118 277.5,-137 405.5,-137 405.5,-118 277.5,-118"/>
<text text-anchor="middle" x="341.5" y="-125" font-family="Helvetica,sans-Serif" font-size="10.00">playrho/Templates.hpp</text>
</a>
</g>
</g>
<!-- Node10&#45;&gt;Node11 -->
<g id="edge11" class="edge">
<title>Node10&#45;&gt;Node11</title>
<path fill="none" stroke="midnightblue" d="M267.82,-179.48C281.62,-169.93 304.2,-154.31 320.73,-142.87"/>
<polygon fill="midnightblue" stroke="midnightblue" points="322.97,-145.58 329.2,-137.01 318.99,-139.82 322.97,-145.58"/>
</g>
<!-- Node11&#45;&gt;Node2 -->
<g id="edge12" class="edge">
<title>Node11&#45;&gt;Node2</title>
<path fill="none" stroke="midnightblue" d="M296.08,-117.98C232.1,-105.97 116.82,-84.33 59.22,-73.52"/>
<polygon fill="midnightblue" stroke="midnightblue" points="59.64,-70.03 49.16,-71.63 58.34,-76.91 59.64,-70.03"/>
</g>
<!-- Node11&#45;&gt;Node9 -->
<g id="edge13" class="edge">
<title>Node11&#45;&gt;Node9</title>
<path fill="none" stroke="midnightblue" d="M350.74,-117.82C371.4,-98.42 421.55,-51.33 447.82,-26.66"/>
<polygon fill="midnightblue" stroke="midnightblue" points="450.25,-29.18 455.15,-19.78 445.46,-24.08 450.25,-29.18"/>
</g>
<!-- Node12 -->
<g id="node12" class="node">
<title>Node12</title>
<g id="a_node12"><a xlink:href="detail_2Templates_8hpp.html" target="_top" xlink:title="Low&#45;level declarations for general class &amp; function templates.">
<polygon fill="white" stroke="black" points="677.5,-56.5 677.5,-75.5 835.5,-75.5 835.5,-56.5 677.5,-56.5"/>
<text text-anchor="middle" x="756.5" y="-63.5" font-family="Helvetica,sans-Serif" font-size="10.00">playrho/detail/Templates.hpp</text>
</a>
</g>
</g>
<!-- Node11&#45;&gt;Node12 -->
<g id="edge14" class="edge">
<title>Node11&#45;&gt;Node12</title>
<path fill="none" stroke="midnightblue" d="M400.96,-117.98C476.62,-107.13 607.06,-88.43 687.16,-76.94"/>
<polygon fill="midnightblue" stroke="midnightblue" points="687.75,-80.39 697.15,-75.51 686.76,-73.46 687.75,-80.39"/>
</g>
<!-- Node12&#45;&gt;Node3 -->
<g id="edge15" class="edge">
<title>Node12&#45;&gt;Node3</title>
<path fill="none" stroke="midnightblue" d="M770.32,-56.32C783.73,-47.9 804.32,-34.97 820.09,-25.07"/>
<polygon fill="midnightblue" stroke="midnightblue" points="822.11,-27.94 828.72,-19.65 818.39,-22.01 822.11,-27.94"/>
</g>
<!-- Node12&#45;&gt;Node5 -->
<g id="edge18" class="edge">
<title>Node12&#45;&gt;Node5</title>
<path fill="none" stroke="midnightblue" d="M782.49,-56.44C811.05,-47.04 856.98,-31.91 887.93,-21.72"/>
<polygon fill="midnightblue" stroke="midnightblue" points="889.4,-24.93 897.8,-18.47 887.21,-18.28 889.4,-24.93"/>
</g>
<!-- Node12&#45;&gt;Node9 -->
<g id="edge17" class="edge">
<title>Node12&#45;&gt;Node9</title>
<path fill="none" stroke="midnightblue" d="M710.23,-56.44C655.09,-46.25 563.59,-29.32 509.16,-19.26"/>
<polygon fill="midnightblue" stroke="midnightblue" points="509.59,-15.78 499.12,-17.4 508.32,-22.66 509.59,-15.78"/>
</g>
<!-- Node13 -->
<g id="node13" class="node">
<title>Node13</title>
<g id="a_node13"><a xlink:title=" ">
<polygon fill="white" stroke="#bfbfbf" points="730,-0.5 730,-19.5 783,-19.5 783,-0.5 730,-0.5"/>
<text text-anchor="middle" x="756.5" y="-7.5" font-family="Helvetica,sans-Serif" font-size="10.00">iterator</text>
</a>
</g>
</g>
<!-- Node12&#45;&gt;Node13 -->
<g id="edge16" class="edge">
<title>Node12&#45;&gt;Node13</title>
<path fill="none" stroke="midnightblue" d="M756.5,-56.08C756.5,-49.01 756.5,-38.86 756.5,-29.99"/>
<polygon fill="midnightblue" stroke="midnightblue" points="760,-29.75 756.5,-19.75 753,-29.75 760,-29.75"/>
</g>
<!-- Node14&#45;&gt;Node10 -->
<g id="edge20" class="edge">
<title>Node14&#45;&gt;Node10</title>
<path fill="none" stroke="midnightblue" d="M255.5,-235.08C255.5,-228.01 255.5,-217.86 255.5,-208.99"/>
<polygon fill="midnightblue" stroke="midnightblue" points="259,-208.75 255.5,-198.75 252,-208.75 259,-208.75"/>
</g>
<!-- Node15&#45;&gt;Node9 -->
<g id="edge23" class="edge">
<title>Node15&#45;&gt;Node9</title>
<path fill="none" stroke="midnightblue" d="M400.78,-291.23C411.23,-273.04 433.5,-229.6 433.5,-190 433.5,-190 433.5,-190 433.5,-126.5 433.5,-91.01 447.32,-51.42 456.51,-29.03"/>
<polygon fill="midnightblue" stroke="midnightblue" points="459.75,-30.34 460.45,-19.77 453.31,-27.6 459.75,-30.34"/>
</g>
<!-- Node15&#45;&gt;Node10 -->
<g id="edge24" class="edge">
<title>Node15&#45;&gt;Node10</title>
<path fill="none" stroke="midnightblue" d="M389.32,-291.12C379.65,-277.71 359.85,-252.05 338.5,-235 322.23,-222 301.66,-210.82 285.07,-202.86"/>
<polygon fill="midnightblue" stroke="midnightblue" points="286.37,-199.6 275.83,-198.55 283.41,-205.95 286.37,-199.6"/>
</g>
<!-- Node15&#45;&gt;Node11 -->
<g id="edge26" class="edge">
<title>Node15&#45;&gt;Node11</title>
<path fill="none" stroke="midnightblue" d="M392.75,-291.26C384.33,-264.54 358.82,-183.52 347.28,-146.86"/>
<polygon fill="midnightblue" stroke="midnightblue" points="350.52,-145.51 344.18,-137.02 343.85,-147.61 350.52,-145.51"/>
</g>
<!-- Node15&#45;&gt;Node14 -->
<g id="edge25" class="edge">
<title>Node15&#45;&gt;Node14</title>
<path fill="none" stroke="midnightblue" d="M373.32,-291.44C350.07,-282.48 313.35,-268.31 287.08,-258.18"/>
<polygon fill="midnightblue" stroke="midnightblue" points="288.17,-254.85 277.58,-254.52 285.65,-261.38 288.17,-254.85"/>
</g>
<!-- Node16 -->
<g id="node16" class="node">
<title>Node16</title>
<g id="a_node16"><a xlink:title=" ">
<polygon fill="white" stroke="#bfbfbf" points="462,-235.5 462,-254.5 509,-254.5 509,-235.5 462,-235.5"/>
<text text-anchor="middle" x="485.5" y="-242.5" font-family="Helvetica,sans-Serif" font-size="10.00">cmath</text>
</a>
</g>
</g>
<!-- Node15&#45;&gt;Node16 -->
<g id="edge22" class="edge">
<title>Node15&#45;&gt;Node16</title>
<path fill="none" stroke="midnightblue" d="M409.96,-291.32C424,-282.9 445.55,-269.97 462.04,-260.07"/>
<polygon fill="midnightblue" stroke="midnightblue" points="464.3,-262.8 471.08,-254.65 460.7,-256.8 464.3,-262.8"/>
</g>
<!-- Node17 -->
<g id="node17" class="node">
<title>Node17</title>
<g id="a_node17"><a xlink:href="to__underlying_8hpp.html" target="_top" xlink:title="Definition of to_underlying function template.">
<polygon fill="white" stroke="black" points="527.5,-235.5 527.5,-254.5 671.5,-254.5 671.5,-235.5 527.5,-235.5"/>
<text text-anchor="middle" x="599.5" y="-242.5" font-family="Helvetica,sans-Serif" font-size="10.00">playrho/to_underlying.hpp</text>
</a>
</g>
</g>
<!-- Node15&#45;&gt;Node17 -->
<g id="edge27" class="edge">
<title>Node15&#45;&gt;Node17</title>
<path fill="none" stroke="midnightblue" d="M427.82,-291.44C462.89,-282.16 519,-267.31 557.46,-257.13"/>
<polygon fill="midnightblue" stroke="midnightblue" points="558.56,-260.46 567.33,-254.52 556.76,-253.69 558.56,-260.46"/>
</g>
<!-- Node18 -->
<g id="node18" class="node">
<title>Node18</title>
<g id="a_node18"><a xlink:href="underlying__type_8hpp.html" target="_top" xlink:title="Definition of underlying_type trait class and related code.">
<polygon fill="white" stroke="black" points="468,-112.5 468,-142.5 607,-142.5 607,-112.5 468,-112.5"/>
<text text-anchor="start" x="476" y="-130.5" font-family="Helvetica,sans-Serif" font-size="10.00">playrho/detail/underlying</text>
<text text-anchor="middle" x="537.5" y="-119.5" font-family="Helvetica,sans-Serif" font-size="10.00">_type.hpp</text>
</a>
</g>
</g>
<!-- Node17&#45;&gt;Node18 -->
<g id="edge28" class="edge">
<title>Node17&#45;&gt;Node18</title>
<path fill="none" stroke="midnightblue" d="M594.84,-235.32C585.4,-217.73 563.75,-177.39 549.92,-151.63"/>
<polygon fill="midnightblue" stroke="midnightblue" points="552.85,-149.7 545.04,-142.55 546.69,-153.01 552.85,-149.7"/>
</g>
<!-- Node18&#45;&gt;Node9 -->
<g id="edge29" class="edge">
<title>Node18&#45;&gt;Node9</title>
<path fill="none" stroke="midnightblue" d="M528.55,-112.34C515.16,-91.15 489.94,-51.24 475.46,-28.34"/>
<polygon fill="midnightblue" stroke="midnightblue" points="478.28,-26.25 469.98,-19.67 472.36,-29.99 478.28,-26.25"/>
</g>
<!-- Node20 -->
<g id="node20" class="node">
<title>Node20</title>
<g id="a_node20"><a xlink:href="Wider_8hpp.html" target="_top" xlink:title="Definition of the Wider class template and specializations.">
<polygon fill="white" stroke="black" points="689.5,-235.5 689.5,-254.5 825.5,-254.5 825.5,-235.5 689.5,-235.5"/>
<text text-anchor="middle" x="757.5" y="-242.5" font-family="Helvetica,sans-Serif" font-size="10.00">playrho/detail/Wider.hpp</text>
</a>
</g>
</g>
<!-- Node19&#45;&gt;Node20 -->
<g id="edge31" class="edge">
<title>Node19&#45;&gt;Node20</title>
<path fill="none" stroke="midnightblue" d="M661.56,-291.44C680.07,-282.68 709.08,-268.94 730.36,-258.86"/>
<polygon fill="midnightblue" stroke="midnightblue" points="731.98,-261.96 739.52,-254.52 728.99,-255.63 731.98,-261.96"/>
</g>
<!-- Node20&#45;&gt;Node7 -->
<g id="edge32" class="edge">
<title>Node20&#45;&gt;Node7</title>
<path fill="none" stroke="midnightblue" d="M770.51,-235.32C783.03,-226.98 802.18,-214.21 816.97,-204.35"/>
<polygon fill="midnightblue" stroke="midnightblue" points="819.14,-207.11 825.52,-198.65 815.26,-201.29 819.14,-207.11"/>
</g>
<!-- Node20&#45;&gt;Node9 -->
<g id="edge33" class="edge">
<title>Node20&#45;&gt;Node9</title>
<path fill="none" stroke="midnightblue" d="M734.26,-235.46C715.98,-227.91 690.64,-215.53 672.5,-199 638.33,-167.87 648.03,-144.84 615.5,-112 577.69,-73.82 523.32,-41.73 491.19,-24.53"/>
<polygon fill="midnightblue" stroke="midnightblue" points="492.45,-21.24 481.97,-19.68 489.19,-27.43 492.45,-21.24"/>
</g>
<!-- Node21 -->
<g id="node21" class="node">
<title>Node21</title>
<g id="a_node21"><a xlink:href="Defines_8hpp.html" target="_top" xlink:title="Miscellaneous C&#45;preprocessor definitions.">
<polygon fill="white" stroke="black" points="681.5,-179.5 681.5,-198.5 795.5,-198.5 795.5,-179.5 681.5,-179.5"/>
<text text-anchor="middle" x="738.5" y="-186.5" font-family="Helvetica,sans-Serif" font-size="10.00">playrho/Defines.hpp</text>
</a>
</g>
</g>
<!-- Node20&#45;&gt;Node21 -->
<g id="edge34" class="edge">
<title>Node20&#45;&gt;Node21</title>
<path fill="none" stroke="midnightblue" d="M754.36,-235.08C751.82,-227.85 748.14,-217.41 744.97,-208.4"/>
<polygon fill="midnightblue" stroke="midnightblue" points="748.2,-207.02 741.58,-198.75 741.6,-209.35 748.2,-207.02"/>
</g>
</g>
</svg>
        <g id="navigator" transform="translate(0 0)" fill="#404254">
                <rect fill="#f2f5e9" fill-opacity="0.5" stroke="#606060" stroke-width=".5" x="0" y="0" width="60" height="60"/>
                <use id="zoomplus" xlink:href="#zoomPlus" x="17" y="9" onmousedown="handleZoom(evt,'in')"/>
                <use id="zoomminus" xlink:href="#zoomMin" x="42" y="9" onmousedown="handleZoom(evt,'out')"/>
                <use id="reset" xlink:href="#resetDef" x="30" y="36" onmousedown="handleReset()"/>
                <g id="arrowUp" xlink:href="#dirArrow" transform="translate(30 24)" onmousedown="handlePan(0,-1)">
                  <use xlink:href="#rim" fill="#404040">
                        <set attributeName="fill" to="#808080" begin="arrowUp.mouseover" end="arrowUp.mouseout"/>
                  </use>
                  <path fill="none" stroke="white" stroke-width="1.5" d="M0,-3.0v7 M-2.5,-0.5L0,-3.0L2.5,-0.5"/>
                </g>
                <g id="arrowRight" xlink:href="#dirArrow" transform="rotate(90) translate(36 -43)" onmousedown="handlePan(1,0)">
                  <use xlink:href="#rim" fill="#404040">
                        <set attributeName="fill" to="#808080" begin="arrowRight.mouseover" end="arrowRight.mouseout"/>
                  </use>
                  <path fill="none" stroke="white" stroke-width="1.5" d="M0,-3.0v7 M-2.5,-0.5L0,-3.0L2.5,-0.5"/>
                </g>
                <g id="arrowDown" xlink:href="#dirArrow" transform="rotate(180) translate(-30 -48)" onmousedown="handlePan(0,1)">
                  <use xlink:href="#rim" fill="#404040">
                        <set attributeName="fill" to="#808080" begin="arrowDown.mouseover" end="arrowDown.mouseout"/>
                  </use>
                  <path fill="none" stroke="white" stroke-width="1.5" d="M0,-3.0v7 M-2.5,-0.5L0,-3.0L2.5,-0.5"/>
                </g>
                <g id="arrowLeft" xlink:href="#dirArrow" transform="rotate(270) translate(-36 17)" onmousedown="handlePan(-1,0)">
                  <use xlink:href="#rim" fill="#404040">
                        <set attributeName="fill" to="#808080" begin="arrowLeft.mouseover" end="arrowLeft.mouseout"/>
                  </use>
                  <path fill="none" stroke="white" stroke-width="1.5" d="M0,-3.0v7 M-2.5,-0.5L0,-3.0L2.5,-0.5"/>
                </g>
        </g>
        <svg viewBox="0 0 15 15" width="100%" height="30px" preserveAspectRatio="xMaxYMin meet">
         <g id="arrow_out" transform="scale(0.3 0.3)">
          <a xlink:href="ContactKey_8hpp__incl_org.svg" target="_base">
           <rect id="button" ry="5" rx="5" y="6" x="6" height="38" width="38"
                fill="#f2f5e9" fill-opacity="0.5" stroke="#606060" stroke-width="1.0"/>
           <path id="arrow"
             d="M 11.500037,31.436501 C 11.940474,20.09759 22.043105,11.32322 32.158766,21.979434 L 37.068811,17.246167 C 37.068811,17.246167 37.088388,32 37.088388,32 L 22.160133,31.978069 C 22.160133,31.978069 26.997745,27.140456 26.997745,27.140456 C 18.528582,18.264221 13.291696,25.230495 11.500037,31.436501 z"
             style="fill:#404040;"/>
          </a>
         </g>
        </svg>
</svg>
