<?xml version="1.0" encoding="UTF-8" standalone="no"?>
<!DOCTYPE svg PUBLIC "-//W3C//DTD SVG 1.1//EN"
 "http://www.w3.org/Graphics/SVG/1.1/DTD/svg11.dtd">
<!-- Generated by graphviz version 2.43.0 (0)
 -->
<!-- Title: Library/include/playrho/ContactKey.hpp Pages: 1 -->
<!--zoomable 442 -->
<svg id="main" version="1.1" xmlns="http://www.w3.org/2000/svg" xmlns:xlink="http://www.w3.org/1999/xlink" xml:space="preserve" onload="init(evt)">
<style type="text/css"><![CDATA[
.edge:hover path { stroke: red; }
.edge:hover polygon { stroke: red; fill: red; }
]]></style>
<script type="text/javascript"><![CDATA[
var edges = document.getElementsByTagName('g');
if (edges && edges.length) {
  for (var i=0;i<edges.length;i++) {
    if (edges[i].id.substr(0,4)=='edge') {
      edges[i].setAttribute('class','edge');
    }
  }
}
]]></script>
        <defs>
                <circle id="rim" cx="0" cy="0" r="7"/>
                <circle id="rim2" cx="0" cy="0" r="3.5"/>
                <g id="zoomPlus">
                        <use xlink:href="#rim" fill="#404040">
                                <set attributeName="fill" to="#808080" begin="zoomplus.mouseover" end="zoomplus.mouseout"/>
                        </use>
                        <path d="M-4,0h8M0,-4v8" fill="none" stroke="white" stroke-width="1.5" pointer-events="none"/>
                </g>
                <g id="zoomMin">
                        <use xlink:href="#rim" fill="#404040">
                                <set attributeName="fill" to="#808080" begin="zoomminus.mouseover" end="zoomminus.mouseout"/>
                        </use>
                        <path d="M-4,0h8" fill="none" stroke="white" stroke-width="1.5" pointer-events="none"/>
                </g>
                <g id="dirArrow">
                        <path fill="none" stroke="white" stroke-width="1.5" d="M0,-3.0v7 M-2.5,-0.5L0,-3.0L2.5,-0.5"/>
                </g>
               <g id="resetDef">
                       <use xlink:href="#rim2" fill="#404040">
                               <set attributeName="fill" to="#808080" begin="reset.mouseover" end="reset.mouseout"/>
                       </use>
               </g>
        </defs>

<script type="text/javascript">
var viewWidth = 843;
var viewHeight = 442;
var sectionId = 'dynsection-0';
</script>
<script xlink:href="svgpan.js"/>
<svg id="graph" class="graph">
<g id="viewport">
<title>Library/include/playrho/ContactKey.hpp</title>
<polygon fill="white" stroke="transparent" points="-4,4 -4,-438 838.5,-438 838.5,4 -4,4"/>
<!-- Node1 -->
<g id="node1" class="node">
<title>Node1</title>
<g id="a_node1"><a xlink:title="Declaration of the ContactKey class and closely related code.">
<polygon fill="#bfbfbf" stroke="black" points="504,-403.5 504,-433.5 632,-433.5 632,-403.5 504,-403.5"/>
<text text-anchor="start" x="512" y="-421.5" font-family="Helvetica,sans-Serif" font-size="10.00">Library/include/playrho</text>
<text text-anchor="middle" x="568" y="-410.5" font-family="Helvetica,sans-Serif" font-size="10.00">/ContactKey.hpp</text>
</a>
</g>
</g>
<!-- Node2 -->
<g id="node2" class="node">
<title>Node2</title>
<g id="a_node2"><a xlink:title=" ">
<polygon fill="white" stroke="#bfbfbf" points="6,-0.5 6,-19.5 70,-19.5 70,-0.5 6,-0.5"/>
<text text-anchor="middle" x="38" y="-7.5" font-family="Helvetica,sans-Serif" font-size="10.00">algorithm</text>
</a>
</g>
</g>
<!-- Node1&#45;&gt;Node2 -->
<g id="edge1" class="edge">
<title>Node1&#45;&gt;Node2</title>
<path fill="none" stroke="midnightblue" d="M503.95,-417.82C355.4,-416.85 0,-403.89 0,-302 0,-302 0,-302 0,-126.5 0,-90.25 17.09,-50.67 28.35,-28.53"/>
<polygon fill="midnightblue" stroke="midnightblue" points="31.46,-30.14 33.03,-19.66 25.27,-26.87 31.46,-30.14"/>
</g>
<!-- Node3 -->
<g id="node3" class="node">
<title>Node3</title>
<g id="a_node3"><a xlink:title=" ">
<polygon fill="white" stroke="#bfbfbf" points="704.5,-0.5 704.5,-19.5 769.5,-19.5 769.5,-0.5 704.5,-0.5"/>
<text text-anchor="middle" x="737" y="-7.5" font-family="Helvetica,sans-Serif" font-size="10.00">functional</text>
</a>
</g>
</g>
<!-- Node1&#45;&gt;Node3 -->
<g id="edge2" class="edge">
<title>Node1&#45;&gt;Node3</title>
<path fill="none" stroke="midnightblue" d="M632.1,-409.17C693.22,-397.22 776,-368.71 776,-302 776,-302 776,-302 776,-126.5 776,-90.16 758.46,-50.61 746.9,-28.5"/>
<polygon fill="midnightblue" stroke="midnightblue" points="749.94,-26.77 742.1,-19.65 743.79,-30.11 749.94,-26.77"/>
</g>
<!-- Node4 -->
<g id="node4" class="node">
<title>Node4</title>
<g id="a_node4"><a xlink:title=" ">
<polygon fill="white" stroke="#bfbfbf" points="789.5,-0.5 789.5,-19.5 834.5,-19.5 834.5,-0.5 789.5,-0.5"/>
<text text-anchor="middle" x="812" y="-7.5" font-family="Helvetica,sans-Serif" font-size="10.00">utility</text>
</a>
</g>
</g>
<!-- Node1&#45;&gt;Node4 -->
<g id="edge3" class="edge">
<title>Node1&#45;&gt;Node4</title>
<path fill="none" stroke="midnightblue" d="M632.31,-414.34C705.2,-406.9 814,-382.33 814,-302 814,-302 814,-302 814,-126.5 814,-92.36 813.12,-52.55 812.52,-29.71"/>
<polygon fill="midnightblue" stroke="midnightblue" points="816.02,-29.59 812.25,-19.69 809.02,-29.78 816.02,-29.59"/>
</g>
<!-- Node5 -->
<g id="node5" class="node">
<title>Node5</title>
<g id="a_node5"><a xlink:href="Settings_8hpp.html" target="_top" xlink:title="Types and default settings file.">
<polygon fill="white" stroke="black" points="301.5,-347.5 301.5,-366.5 418.5,-366.5 418.5,-347.5 301.5,-347.5"/>
<text text-anchor="middle" x="360" y="-354.5" font-family="Helvetica,sans-Serif" font-size="10.00">playrho/Settings.hpp</text>
</a>
</g>
</g>
<!-- Node1&#45;&gt;Node5 -->
<g id="edge4" class="edge">
<title>Node1&#45;&gt;Node5</title>
<path fill="none" stroke="midnightblue" d="M518.97,-403.47C482.62,-393.08 433.69,-379.08 399.75,-369.37"/>
<polygon fill="midnightblue" stroke="midnightblue" points="400.31,-365.89 389.74,-366.51 398.39,-372.62 400.31,-365.89"/>
</g>
<!-- Node5&#45;&gt;Node2 -->
<g id="edge10" class="edge">
<title>Node5&#45;&gt;Node2</title>
<path fill="none" stroke="midnightblue" d="M301.38,-354.62C223.74,-351.6 92.48,-341.93 57,-311 34.31,-291.22 38,-276.1 38,-246 38,-246 38,-246 38,-126.5 38,-92.36 38,-52.55 38,-29.71"/>
<polygon fill="midnightblue" stroke="midnightblue" points="41.5,-29.69 38,-19.69 34.5,-29.69 41.5,-29.69"/>
</g>
<!-- Node6 -->
<g id="node6" class="node">
<title>Node6</title>
<g id="a_node6"><a xlink:title=" ">
<polygon fill="white" stroke="#bfbfbf" points="66.5,-291.5 66.5,-310.5 119.5,-310.5 119.5,-291.5 66.5,-291.5"/>
<text text-anchor="middle" x="93" y="-298.5" font-family="Helvetica,sans-Serif" font-size="10.00">cstddef</text>
</a>
</g>
</g>
<!-- Node5&#45;&gt;Node6 -->
<g id="edge5" class="edge">
<title>Node5&#45;&gt;Node6</title>
<path fill="none" stroke="midnightblue" d="M312.07,-347.42C267.44,-339.27 198.82,-326.29 129.87,-311.1"/>
<polygon fill="midnightblue" stroke="midnightblue" points="130.22,-307.59 119.7,-308.84 128.7,-314.42 130.22,-307.59"/>
</g>
<!-- Node7 -->
<g id="node7" class="node">
<title>Node7</title>
<g id="a_node7"><a xlink:title=" ">
<polygon fill="white" stroke="#bfbfbf" points="138,-291.5 138,-310.5 190,-310.5 190,-291.5 138,-291.5"/>
<text text-anchor="middle" x="164" y="-298.5" font-family="Helvetica,sans-Serif" font-size="10.00">cassert</text>
</a>
</g>
</g>
<!-- Node5&#45;&gt;Node7 -->
<g id="edge6" class="edge">
<title>Node5&#45;&gt;Node7</title>
<path fill="none" stroke="midnightblue" d="M328.94,-347.44C293.92,-337.79 237.04,-322.12 200.07,-311.94"/>
<polygon fill="midnightblue" stroke="midnightblue" points="200.78,-308.5 190.21,-309.22 198.92,-315.25 200.78,-308.5"/>
</g>
<!-- Node8 -->
<g id="node8" class="node">
<title>Node8</title>
<g id="a_node8"><a xlink:title=" ">
<polygon fill="white" stroke="#bfbfbf" points="208,-291.5 208,-310.5 252,-310.5 252,-291.5 208,-291.5"/>
<text text-anchor="middle" x="230" y="-298.5" font-family="Helvetica,sans-Serif" font-size="10.00">cfloat</text>
</a>
</g>
</g>
<!-- Node5&#45;&gt;Node8 -->
<g id="edge7" class="edge">
<title>Node5&#45;&gt;Node8</title>
<path fill="none" stroke="midnightblue" d="M339.4,-347.44C318.01,-338.56 284.32,-324.56 259.98,-314.45"/>
<polygon fill="midnightblue" stroke="midnightblue" points="261.08,-311.12 250.5,-310.52 258.39,-317.58 261.08,-311.12"/>
</g>
<!-- Node9 -->
<g id="node9" class="node">
<title>Node9</title>
<g id="a_node9"><a xlink:title=" ">
<polygon fill="white" stroke="#bfbfbf" points="66.5,-235.5 66.5,-254.5 113.5,-254.5 113.5,-235.5 66.5,-235.5"/>
<text text-anchor="middle" x="90" y="-242.5" font-family="Helvetica,sans-Serif" font-size="10.00">cmath</text>
</a>
</g>
</g>
<!-- Node5&#45;&gt;Node9 -->
<g id="edge8" class="edge">
<title>Node5&#45;&gt;Node9</title>
<path fill="none" stroke="midnightblue" d="M349.4,-347.34C331.98,-333.51 295.76,-306.44 261,-291 205.9,-266.52 186.18,-270.82 123.75,-255.11"/>
<polygon fill="midnightblue" stroke="midnightblue" points="124.34,-251.64 113.78,-252.52 122.58,-258.42 124.34,-251.64"/>
</g>
<!-- Node10 -->
<g id="node10" class="node">
<title>Node10</title>
<g id="a_node10"><a xlink:title=" ">
<polygon fill="white" stroke="#bfbfbf" points="540,-179.5 540,-198.5 590,-198.5 590,-179.5 540,-179.5"/>
<text text-anchor="middle" x="565" y="-186.5" font-family="Helvetica,sans-Serif" font-size="10.00">cstdint</text>
</a>
</g>
</g>
<!-- Node5&#45;&gt;Node10 -->
<g id="edge9" class="edge">
<title>Node5&#45;&gt;Node10</title>
<path fill="none" stroke="midnightblue" d="M418.71,-350.09C465.71,-344.03 532.67,-332.36 588,-311 633.01,-293.62 657.26,-297 681,-255 685.37,-247.26 686.02,-242.33 681,-235 676.12,-227.87 632.05,-212.08 599.67,-201.24"/>
<polygon fill="midnightblue" stroke="midnightblue" points="600.65,-197.88 590.05,-198.05 598.44,-204.52 600.65,-197.88"/>
</g>
<!-- Node11 -->
<g id="node11" class="node">
<title>Node11</title>
<g id="a_node11"><a xlink:href="RealConstants_8hpp.html" target="_top" xlink:title="Definitions file for constant expressions of type Real.">
<polygon fill="white" stroke="black" points="524,-235.5 524,-254.5 672,-254.5 672,-235.5 524,-235.5"/>
<text text-anchor="middle" x="598" y="-242.5" font-family="Helvetica,sans-Serif" font-size="10.00">playrho/RealConstants.hpp</text>
</a>
</g>
</g>
<!-- Node5&#45;&gt;Node11 -->
<g id="edge11" class="edge">
<title>Node5&#45;&gt;Node11</title>
<path fill="none" stroke="midnightblue" d="M418.52,-349.09C471.41,-341.83 544.33,-328.95 567,-311 581.53,-299.49 589.62,-279.52 593.87,-264.74"/>
<polygon fill="midnightblue" stroke="midnightblue" points="597.35,-265.24 596.4,-254.68 590.56,-263.52 597.35,-265.24"/>
</g>
<!-- Node14 -->
<g id="node14" class="node">
<title>Node14</title>
<g id="a_node14"><a xlink:href="Templates_8hpp.html" target="_top" xlink:title="Definitions of miscellaneous template related code.">
<polygon fill="white" stroke="black" points="594,-118 594,-137 722,-137 722,-118 594,-118"/>
<text text-anchor="middle" x="658" y="-125" font-family="Helvetica,sans-Serif" font-size="10.00">playrho/Templates.hpp</text>
</a>
</g>
</g>
<!-- Node5&#45;&gt;Node14 -->
<g id="edge22" class="edge">
<title>Node5&#45;&gt;Node14</title>
<path fill="none" stroke="midnightblue" d="M418.73,-355.14C475.28,-352.3 562,-342.55 630,-311 687.18,-284.47 705.75,-261.02 717,-199 718.59,-190.25 720.72,-187.07 717,-179 709.9,-163.58 695.51,-151.11 682.71,-142.42"/>
<polygon fill="midnightblue" stroke="midnightblue" points="684.54,-139.43 674.22,-137.01 680.78,-145.34 684.54,-139.43"/>
</g>
<!-- Node19 -->
<g id="node19" class="node">
<title>Node19</title>
<g id="a_node19"><a xlink:href="Units_8hpp.html" target="_top" xlink:title="Declarations for physical units possibly backed by strong types.">
<polygon fill="white" stroke="black" points="308.5,-291.5 308.5,-310.5 411.5,-310.5 411.5,-291.5 308.5,-291.5"/>
<text text-anchor="middle" x="360" y="-298.5" font-family="Helvetica,sans-Serif" font-size="10.00">playrho/Units.hpp</text>
</a>
</g>
</g>
<!-- Node5&#45;&gt;Node19 -->
<g id="edge23" class="edge">
<title>Node5&#45;&gt;Node19</title>
<path fill="none" stroke="midnightblue" d="M360,-347.08C360,-340.01 360,-329.86 360,-320.99"/>
<polygon fill="midnightblue" stroke="midnightblue" points="363.5,-320.75 360,-310.75 356.5,-320.75 363.5,-320.75"/>
</g>
<!-- Node22 -->
<g id="node22" class="node">
<title>Node22</title>
<g id="a_node22"><a xlink:href="WiderType_8hpp.html" target="_top" xlink:title="Definition of the WiderType alias template.">
<polygon fill="white" stroke="black" points="430,-291.5 430,-310.5 558,-310.5 558,-291.5 430,-291.5"/>
<text text-anchor="middle" x="494" y="-298.5" font-family="Helvetica,sans-Serif" font-size="10.00">playrho/WiderType.hpp</text>
</a>
</g>
</g>
<!-- Node5&#45;&gt;Node22 -->
<g id="edge31" class="edge">
<title>Node5&#45;&gt;Node22</title>
<path fill="none" stroke="midnightblue" d="M381.23,-347.44C403.38,-338.52 438.32,-324.44 463.44,-314.32"/>
<polygon fill="midnightblue" stroke="midnightblue" points="464.9,-317.5 472.87,-310.52 462.28,-311.01 464.9,-317.5"/>
</g>
<!-- Node12 -->
<g id="node12" class="node">
<title>Node12</title>
<g id="a_node12"><a xlink:href="Defines_8hpp.html" target="_top" xlink:title="Miscellaneous C&#45;preprocessor definitions.">
<polygon fill="white" stroke="black" points="408,-179.5 408,-198.5 522,-198.5 522,-179.5 408,-179.5"/>
<text text-anchor="middle" x="465" y="-186.5" font-family="Helvetica,sans-Serif" font-size="10.00">playrho/Defines.hpp</text>
</a>
</g>
</g>
<!-- Node11&#45;&gt;Node12 -->
<g id="edge12" class="edge">
<title>Node11&#45;&gt;Node12</title>
<path fill="none" stroke="midnightblue" d="M576.93,-235.44C554.94,-226.52 520.27,-212.44 495.34,-202.32"/>
<polygon fill="midnightblue" stroke="midnightblue" points="496.56,-199.04 485.98,-198.52 493.92,-205.52 496.56,-199.04"/>
</g>
<!-- Node13 -->
<g id="node13" class="node">
<title>Node13</title>
<g id="a_node13"><a xlink:href="Real_8hpp.html" target="_top" xlink:title="Real number definition file.">
<polygon fill="white" stroke="black" points="608.5,-179.5 608.5,-198.5 707.5,-198.5 707.5,-179.5 608.5,-179.5"/>
<text text-anchor="middle" x="658" y="-186.5" font-family="Helvetica,sans-Serif" font-size="10.00">playrho/Real.hpp</text>
</a>
</g>
</g>
<!-- Node11&#45;&gt;Node13 -->
<g id="edge13" class="edge">
<title>Node11&#45;&gt;Node13</title>
<path fill="none" stroke="midnightblue" d="M607.64,-235.32C616.51,-227.34 629.87,-215.31 640.61,-205.65"/>
<polygon fill="midnightblue" stroke="midnightblue" points="643.09,-208.13 648.18,-198.83 638.41,-202.92 643.09,-208.13"/>
</g>
<!-- Node13&#45;&gt;Node14 -->
<g id="edge14" class="edge">
<title>Node13&#45;&gt;Node14</title>
<path fill="none" stroke="midnightblue" d="M658,-179.48C658,-171.08 658,-157.98 658,-147.16"/>
<polygon fill="midnightblue" stroke="midnightblue" points="661.5,-147.01 658,-137.01 654.5,-147.01 661.5,-147.01"/>
</g>
<!-- Node15 -->
<g id="node15" class="node">
<title>Node15</title>
<g id="a_node15"><a xlink:href="detail_2Templates_8hpp.html" target="_top" xlink:title="Low&#45;level declarations for general class &amp; function templates.">
<polygon fill="white" stroke="black" points="579,-56.5 579,-75.5 737,-75.5 737,-56.5 579,-56.5"/>
<text text-anchor="middle" x="658" y="-63.5" font-family="Helvetica,sans-Serif" font-size="10.00">playrho/detail/Templates.hpp</text>
</a>
</g>
</g>
<!-- Node14&#45;&gt;Node15 -->
<g id="edge15" class="edge">
<title>Node14&#45;&gt;Node15</title>
<path fill="none" stroke="midnightblue" d="M658,-117.98C658,-109.58 658,-96.48 658,-85.66"/>
<polygon fill="midnightblue" stroke="midnightblue" points="661.5,-85.51 658,-75.51 654.5,-85.51 661.5,-85.51"/>
</g>
<!-- Node15&#45;&gt;Node2 -->
<g id="edge16" class="edge">
<title>Node15&#45;&gt;Node2</title>
<path fill="none" stroke="midnightblue" d="M578.85,-58.11C445.97,-46.53 182.56,-23.59 80.13,-14.67"/>
<polygon fill="midnightblue" stroke="midnightblue" points="80.42,-11.18 70.16,-13.8 79.82,-18.16 80.42,-11.18"/>
</g>
<!-- Node15&#45;&gt;Node3 -->
<g id="edge17" class="edge">
<title>Node15&#45;&gt;Node3</title>
<path fill="none" stroke="midnightblue" d="M670.69,-56.32C682.9,-47.98 701.58,-35.21 716,-25.35"/>
<polygon fill="midnightblue" stroke="midnightblue" points="718.06,-28.19 724.34,-19.65 714.11,-22.41 718.06,-28.19"/>
</g>
<!-- Node15&#45;&gt;Node4 -->
<g id="edge21" class="edge">
<title>Node15&#45;&gt;Node4</title>
<path fill="none" stroke="midnightblue" d="M682.4,-56.44C708.65,-47.24 750.52,-32.56 779.54,-22.38"/>
<polygon fill="midnightblue" stroke="midnightblue" points="780.94,-25.6 789.22,-18.99 778.62,-18.99 780.94,-25.6"/>
</g>
<!-- Node16 -->
<g id="node16" class="node">
<title>Node16</title>
<g id="a_node16"><a xlink:title=" ">
<polygon fill="white" stroke="#bfbfbf" points="565.5,-0.5 565.5,-19.5 618.5,-19.5 618.5,-0.5 565.5,-0.5"/>
<text text-anchor="middle" x="592" y="-7.5" font-family="Helvetica,sans-Serif" font-size="10.00">iterator</text>
</a>
</g>
</g>
<!-- Node15&#45;&gt;Node16 -->
<g id="edge18" class="edge">
<title>Node15&#45;&gt;Node16</title>
<path fill="none" stroke="midnightblue" d="M647.4,-56.32C637.54,-48.26 622.65,-36.08 610.78,-26.37"/>
<polygon fill="midnightblue" stroke="midnightblue" points="612.75,-23.46 602.8,-19.83 608.32,-28.88 612.75,-23.46"/>
</g>
<!-- Node17 -->
<g id="node17" class="node">
<title>Node17</title>
<g id="a_node17"><a xlink:title=" ">
<polygon fill="white" stroke="#bfbfbf" points="637,-0.5 637,-19.5 681,-19.5 681,-0.5 637,-0.5"/>
<text text-anchor="middle" x="659" y="-7.5" font-family="Helvetica,sans-Serif" font-size="10.00">limits</text>
</a>
</g>
</g>
<!-- Node15&#45;&gt;Node17 -->
<g id="edge19" class="edge">
<title>Node15&#45;&gt;Node17</title>
<path fill="none" stroke="midnightblue" d="M658.17,-56.08C658.3,-49.01 658.48,-38.86 658.65,-29.99"/>
<polygon fill="midnightblue" stroke="midnightblue" points="662.15,-29.81 658.84,-19.75 655.15,-29.68 662.15,-29.81"/>
</g>
<!-- Node18 -->
<g id="node18" class="node">
<title>Node18</title>
<g id="a_node18"><a xlink:title=" ">
<polygon fill="white" stroke="#bfbfbf" points="307.5,-0.5 307.5,-19.5 376.5,-19.5 376.5,-0.5 307.5,-0.5"/>
<text text-anchor="middle" x="342" y="-7.5" font-family="Helvetica,sans-Serif" font-size="10.00">type_traits</text>
</a>
</g>
</g>
<!-- Node15&#45;&gt;Node18 -->
<g id="edge20" class="edge">
<title>Node15&#45;&gt;Node18</title>
<path fill="none" stroke="midnightblue" d="M607.93,-56.44C547.02,-46.04 445.12,-28.62 386.73,-18.64"/>
<polygon fill="midnightblue" stroke="midnightblue" points="387.15,-15.17 376.71,-16.93 385.97,-22.07 387.15,-15.17"/>
</g>
<!-- Node19&#45;&gt;Node9 -->
<g id="edge24" class="edge">
<title>Node19&#45;&gt;Node9</title>
<path fill="none" stroke="midnightblue" d="M308.9,-291.49C262.9,-283.57 193.26,-270.9 123.57,-254.98"/>
<polygon fill="midnightblue" stroke="midnightblue" points="124.27,-251.55 113.74,-252.71 122.69,-258.37 124.27,-251.55"/>
</g>
<!-- Node19&#45;&gt;Node11 -->
<g id="edge26" class="edge">
<title>Node19&#45;&gt;Node11</title>
<path fill="none" stroke="midnightblue" d="M397.71,-291.44C439.14,-282.04 505.76,-266.93 550.67,-256.74"/>
<polygon fill="midnightblue" stroke="midnightblue" points="551.49,-260.14 560.46,-254.52 549.94,-253.32 551.49,-260.14"/>
</g>
<!-- Node19&#45;&gt;Node14 -->
<g id="edge27" class="edge">
<title>Node19&#45;&gt;Node14</title>
<path fill="none" stroke="midnightblue" d="M358.6,-291.34C356.87,-278.64 354.88,-254.37 361,-235 370.05,-206.32 373.9,-195.57 399,-179 428.76,-159.35 518.1,-144.93 583.55,-136.64"/>
<polygon fill="midnightblue" stroke="midnightblue" points="584.35,-140.06 593.84,-135.36 583.48,-133.12 584.35,-140.06"/>
</g>
<!-- Node19&#45;&gt;Node18 -->
<g id="edge25" class="edge">
<title>Node19&#45;&gt;Node18</title>
<path fill="none" stroke="midnightblue" d="M351.98,-291.36C336.49,-273.74 304,-231.79 304,-190 304,-190 304,-190 304,-126.5 304,-90.25 321.09,-50.67 332.35,-28.53"/>
<polygon fill="midnightblue" stroke="midnightblue" points="335.46,-30.14 337.03,-19.66 329.27,-26.87 335.46,-30.14"/>
</g>
<!-- Node20 -->
<g id="node20" class="node">
<title>Node20</title>
<g id="a_node20"><a xlink:href="to__underlying_8hpp.html" target="_top" xlink:title="Definition of to_underlying function template.">
<polygon fill="white" stroke="black" points="132,-235.5 132,-254.5 276,-254.5 276,-235.5 132,-235.5"/>
<text text-anchor="middle" x="204" y="-242.5" font-family="Helvetica,sans-Serif" font-size="10.00">playrho/to_underlying.hpp</text>
</a>
</g>
</g>
<!-- Node19&#45;&gt;Node20 -->
<g id="edge28" class="edge">
<title>Node19&#45;&gt;Node20</title>
<path fill="none" stroke="midnightblue" d="M335.28,-291.44C309.15,-282.4 267.74,-268.06 238.42,-257.92"/>
<polygon fill="midnightblue" stroke="midnightblue" points="239.2,-254.48 228.6,-254.52 236.91,-261.1 239.2,-254.48"/>
</g>
<!-- Node21 -->
<g id="node21" class="node">
<title>Node21</title>
<g id="a_node21"><a xlink:href="underlying__type_8hpp.html" target="_top" xlink:title="Definition of underlying_type trait class and related code.">
<polygon fill="white" stroke="black" points="135.5,-112.5 135.5,-142.5 274.5,-142.5 274.5,-112.5 135.5,-112.5"/>
<text text-anchor="start" x="143.5" y="-130.5" font-family="Helvetica,sans-Serif" font-size="10.00">playrho/detail/underlying</text>
<text text-anchor="middle" x="205" y="-119.5" font-family="Helvetica,sans-Serif" font-size="10.00">_type.hpp</text>
</a>
</g>
</g>
<!-- Node20&#45;&gt;Node21 -->
<g id="edge29" class="edge">
<title>Node20&#45;&gt;Node21</title>
<path fill="none" stroke="midnightblue" d="M204.08,-235.32C204.23,-217.97 204.57,-178.46 204.79,-152.66"/>
<polygon fill="midnightblue" stroke="midnightblue" points="208.29,-152.58 204.88,-142.55 201.29,-152.51 208.29,-152.58"/>
</g>
<!-- Node21&#45;&gt;Node18 -->
<g id="edge30" class="edge">
<title>Node21&#45;&gt;Node18</title>
<path fill="none" stroke="midnightblue" d="M221.8,-112.34C247.72,-90.49 297.24,-48.73 323.92,-26.24"/>
<polygon fill="midnightblue" stroke="midnightblue" points="326.33,-28.79 331.72,-19.67 321.82,-23.44 326.33,-28.79"/>
</g>
<!-- Node23 -->
<g id="node23" class="node">
<title>Node23</title>
<g id="a_node23"><a xlink:href="Wider_8hpp.html" target="_top" xlink:title="Definition of the Wider class template and specializations.">
<polygon fill="white" stroke="black" points="370,-235.5 370,-254.5 506,-254.5 506,-235.5 370,-235.5"/>
<text text-anchor="middle" x="438" y="-242.5" font-family="Helvetica,sans-Serif" font-size="10.00">playrho/detail/Wider.hpp</text>
</a>
</g>
</g>
<!-- Node22&#45;&gt;Node23 -->
<g id="edge32" class="edge">
<title>Node22&#45;&gt;Node23</title>
<path fill="none" stroke="midnightblue" d="M485,-291.32C476.81,-283.42 464.49,-271.55 454.53,-261.94"/>
<polygon fill="midnightblue" stroke="midnightblue" points="456.79,-259.26 447.16,-254.83 451.93,-264.29 456.79,-259.26"/>
</g>
<!-- Node23&#45;&gt;Node10 -->
<g id="edge33" class="edge">
<title>Node23&#45;&gt;Node10</title>
<path fill="none" stroke="midnightblue" d="M458.12,-235.44C479.02,-226.56 511.93,-212.56 535.72,-202.45"/>
<polygon fill="midnightblue" stroke="midnightblue" points="537.14,-205.65 544.97,-198.52 534.4,-199.21 537.14,-205.65"/>
</g>
<!-- Node23&#45;&gt;Node12 -->
<g id="edge35" class="edge">
<title>Node23&#45;&gt;Node12</title>
<path fill="none" stroke="midnightblue" d="M442.46,-235.08C446.15,-227.69 451.52,-216.95 456.09,-207.81"/>
<polygon fill="midnightblue" stroke="midnightblue" points="459.28,-209.26 460.62,-198.75 453.02,-206.13 459.28,-209.26"/>
</g>
<!-- Node23&#45;&gt;Node18 -->
<g id="edge34" class="edge">
<title>Node23&#45;&gt;Node18</title>
<path fill="none" stroke="midnightblue" d="M428.36,-235.23C419.57,-226.74 406.79,-213.12 399,-199 367.47,-141.86 351.23,-65.09 345.04,-29.97"/>
<polygon fill="midnightblue" stroke="midnightblue" points="348.43,-29.03 343.31,-19.75 341.52,-30.19 348.43,-29.03"/>
</g>
</g>
</svg>
        <g id="navigator" transform="translate(0 0)" fill="#404254">
                <rect fill="#f2f5e9" fill-opacity="0.5" stroke="#606060" stroke-width=".5" x="0" y="0" width="60" height="60"/>
                <use id="zoomplus" xlink:href="#zoomPlus" x="17" y="9" onmousedown="handleZoom(evt,'in')"/>
                <use id="zoomminus" xlink:href="#zoomMin" x="42" y="9" onmousedown="handleZoom(evt,'out')"/>
                <use id="reset" xlink:href="#resetDef" x="30" y="36" onmousedown="handleReset()"/>
                <g id="arrowUp" xlink:href="#dirArrow" transform="translate(30 24)" onmousedown="handlePan(0,-1)">
                  <use xlink:href="#rim" fill="#404040">
                        <set attributeName="fill" to="#808080" begin="arrowUp.mouseover" end="arrowUp.mouseout"/>
                  </use>
                  <path fill="none" stroke="white" stroke-width="1.5" d="M0,-3.0v7 M-2.5,-0.5L0,-3.0L2.5,-0.5"/>
                </g>
                <g id="arrowRight" xlink:href="#dirArrow" transform="rotate(90) translate(36 -43)" onmousedown="handlePan(1,0)">
                  <use xlink:href="#rim" fill="#404040">
                        <set attributeName="fill" to="#808080" begin="arrowRight.mouseover" end="arrowRight.mouseout"/>
                  </use>
                  <path fill="none" stroke="white" stroke-width="1.5" d="M0,-3.0v7 M-2.5,-0.5L0,-3.0L2.5,-0.5"/>
                </g>
                <g id="arrowDown" xlink:href="#dirArrow" transform="rotate(180) translate(-30 -48)" onmousedown="handlePan(0,1)">
                  <use xlink:href="#rim" fill="#404040">
                        <set attributeName="fill" to="#808080" begin="arrowDown.mouseover" end="arrowDown.mouseout"/>
                  </use>
                  <path fill="none" stroke="white" stroke-width="1.5" d="M0,-3.0v7 M-2.5,-0.5L0,-3.0L2.5,-0.5"/>
                </g>
                <g id="arrowLeft" xlink:href="#dirArrow" transform="rotate(270) translate(-36 17)" onmousedown="handlePan(-1,0)">
                  <use xlink:href="#rim" fill="#404040">
                        <set attributeName="fill" to="#808080" begin="arrowLeft.mouseover" end="arrowLeft.mouseout"/>
                  </use>
                  <path fill="none" stroke="white" stroke-width="1.5" d="M0,-3.0v7 M-2.5,-0.5L0,-3.0L2.5,-0.5"/>
                </g>
        </g>
        <svg viewBox="0 0 15 15" width="100%" height="30px" preserveAspectRatio="xMaxYMin meet">
         <g id="arrow_out" transform="scale(0.3 0.3)">
          <a xlink:href="ContactKey_8hpp__incl_org.svg" target="_base">
           <rect id="button" ry="5" rx="5" y="6" x="6" height="38" width="38"
                fill="#f2f5e9" fill-opacity="0.5" stroke="#606060" stroke-width="1.0"/>
           <path id="arrow"
             d="M 11.500037,31.436501 C 11.940474,20.09759 22.043105,11.32322 32.158766,21.979434 L 37.068811,17.246167 C 37.068811,17.246167 37.088388,32 37.088388,32 L 22.160133,31.978069 C 22.160133,31.978069 26.997745,27.140456 26.997745,27.140456 C 18.528582,18.264221 13.291696,25.230495 11.500037,31.436501 z"
             style="fill:#404040;"/>
          </a>
         </g>
        </svg>
</svg>
