<?xml version="1.0" encoding="UTF-8" standalone="no"?>
<!DOCTYPE svg PUBLIC "-//W3C//DTD SVG 1.1//EN"
 "http://www.w3.org/Graphics/SVG/1.1/DTD/svg11.dtd">
<!-- Generated by graphviz version 2.43.0 (0)
 -->
<!-- Title: Library/include/playrho/ContactID.hpp Pages: 1 -->
<!--zoomable 374 -->
<svg id="main" version="1.1" xmlns="http://www.w3.org/2000/svg" xmlns:xlink="http://www.w3.org/1999/xlink" xml:space="preserve" onload="init(evt)">
<style type="text/css"><![CDATA[
.edge:hover path { stroke: red; }
.edge:hover polygon { stroke: red; fill: red; }
]]></style>
<script type="text/javascript"><![CDATA[
var edges = document.getElementsByTagName('g');
if (edges && edges.length) {
  for (var i=0;i<edges.length;i++) {
    if (edges[i].id.substr(0,4)=='edge') {
      edges[i].setAttribute('class','edge');
    }
  }
}
]]></script>
        <defs>
                <circle id="rim" cx="0" cy="0" r="7"/>
                <circle id="rim2" cx="0" cy="0" r="3.5"/>
                <g id="zoomPlus">
                        <use xlink:href="#rim" fill="#404040">
                                <set attributeName="fill" to="#808080" begin="zoomplus.mouseover" end="zoomplus.mouseout"/>
                        </use>
                        <path d="M-4,0h8M0,-4v8" fill="none" stroke="white" stroke-width="1.5" pointer-events="none"/>
                </g>
                <g id="zoomMin">
                        <use xlink:href="#rim" fill="#404040">
                                <set attributeName="fill" to="#808080" begin="zoomminus.mouseover" end="zoomminus.mouseout"/>
                        </use>
                        <path d="M-4,0h8" fill="none" stroke="white" stroke-width="1.5" pointer-events="none"/>
                </g>
                <g id="dirArrow">
                        <path fill="none" stroke="white" stroke-width="1.5" d="M0,-3.0v7 M-2.5,-0.5L0,-3.0L2.5,-0.5"/>
                </g>
               <g id="resetDef">
                       <use xlink:href="#rim2" fill="#404040">
                               <set attributeName="fill" to="#808080" begin="reset.mouseover" end="reset.mouseout"/>
                       </use>
               </g>
        </defs>

<script type="text/javascript">
var viewWidth = 973;
var viewHeight = 374;
var sectionId = 'dynsection-1';
</script>
<script xlink:href="svgpan.js"/>
<svg id="graph" class="graph">
<g id="viewport">
<title>Library/include/playrho/ContactID.hpp</title>
<polygon fill="white" stroke="transparent" points="-4,4 -4,-370 969.26,-370 969.26,4 -4,4"/>
<!-- Node1 -->
<g id="node1" class="node">
<title>Node1</title>
<g id="a_node1"><a xlink:title="Definition of the ContactID alias and closely related code.">
<polygon fill="#bfbfbf" stroke="black" points="343.26,-335.5 343.26,-365.5 471.26,-365.5 471.26,-335.5 343.26,-335.5"/>
<text text-anchor="start" x="351.26" y="-353.5" font-family="Helvetica,sans-Serif" font-size="10.00">Library/include/playrho</text>
<text text-anchor="middle" x="407.26" y="-342.5" font-family="Helvetica,sans-Serif" font-size="10.00">/ContactID.hpp</text>
</a>
</g>
</g>
<!-- Node2 -->
<g id="node2" class="node">
<title>Node2</title>
<g id="a_node2"><a xlink:href="ContactFunction_8hpp.html" target="_top" xlink:title="Definition of the ContactFunction type alias.">
<polygon fill="white" stroke="black" points="171.26,-268.5 171.26,-298.5 299.26,-298.5 299.26,-268.5 171.26,-268.5"/>
<text text-anchor="start" x="179.26" y="-286.5" font-family="Helvetica,sans-Serif" font-size="10.00">Library/include/playrho</text>
<text text-anchor="middle" x="235.26" y="-275.5" font-family="Helvetica,sans-Serif" font-size="10.00">/ContactFunction.hpp</text>
</a>
</g>
</g>
<!-- Node1&#45;&gt;Node2 -->
<g id="edge1" class="edge">
<title>Node1&#45;&gt;Node2</title>
<path fill="none" stroke="midnightblue" d="M360.47,-331.82C332.82,-321.37 298.3,-308.32 272.51,-298.58"/>
<polygon fill="midnightblue" stroke="midnightblue" points="359.35,-335.13 369.94,-335.4 361.82,-328.59 359.35,-335.13"/>
</g>
<!-- Node3 -->
<g id="node3" class="node">
<title>Node3</title>
<g id="a_node3"><a xlink:href="AabbTreeWorld_8hpp.html" target="_top" xlink:title="Declarations of the AabbTreeWorld class.">
<polygon fill="white" stroke="black" points="253.26,-201.5 253.26,-231.5 381.26,-231.5 381.26,-201.5 253.26,-201.5"/>
<text text-anchor="start" x="261.26" y="-219.5" font-family="Helvetica,sans-Serif" font-size="10.00">Library/include/playrho</text>
<text text-anchor="middle" x="317.26" y="-208.5" font-family="Helvetica,sans-Serif" font-size="10.00">/d2/AabbTreeWorld.hpp</text>
</a>
</g>
</g>
<!-- Node1&#45;&gt;Node3 -->
<g id="edge9" class="edge">
<title>Node1&#45;&gt;Node3</title>
<path fill="none" stroke="midnightblue" d="M333.08,-345.13C225.53,-338.03 36.81,-322.37 16.26,-299 7.16,-288.65 7.36,-278.52 16.26,-268 45.99,-232.86 174.02,-222.16 253.22,-218.91"/>
<polygon fill="midnightblue" stroke="midnightblue" points="333.02,-348.63 343.23,-345.79 333.48,-341.65 333.02,-348.63"/>
</g>
<!-- Node6 -->
<g id="node6" class="node">
<title>Node6</title>
<g id="a_node6"><a xlink:href="World_8hpp.html" target="_top" xlink:title="Definitions of the World class and closely related code.">
<polygon fill="white" stroke="black" points="433.26,-67.5 433.26,-97.5 561.26,-97.5 561.26,-67.5 433.26,-67.5"/>
<text text-anchor="start" x="441.26" y="-85.5" font-family="Helvetica,sans-Serif" font-size="10.00">Library/include/playrho</text>
<text text-anchor="middle" x="497.26" y="-74.5" font-family="Helvetica,sans-Serif" font-size="10.00">/d2/World.hpp</text>
</a>
</g>
</g>
<!-- Node1&#45;&gt;Node6 -->
<g id="edge18" class="edge">
<title>Node1&#45;&gt;Node6</title>
<path fill="none" stroke="midnightblue" d="M332.84,-345.37C222.84,-338.5 27.47,-323.05 6.26,-299 -2.85,-288.67 -1.01,-279.7 6.26,-268 97.19,-121.6 322.01,-90.83 433.07,-84.73"/>
<polygon fill="midnightblue" stroke="midnightblue" points="332.69,-348.87 342.89,-345.99 333.12,-341.88 332.69,-348.87"/>
</g>
<!-- Node8 -->
<g id="node8" class="node">
<title>Node8</title>
<g id="a_node8"><a xlink:href="ContactImpulsesFunction_8hpp.html" target="_top" xlink:title="Definition of the ContactImpulsesFunction type alias.">
<polygon fill="white" stroke="black" points="317.76,-268.5 317.76,-298.5 496.76,-298.5 496.76,-268.5 317.76,-268.5"/>
<text text-anchor="start" x="325.76" y="-286.5" font-family="Helvetica,sans-Serif" font-size="10.00">Library/include/playrho</text>
<text text-anchor="middle" x="407.26" y="-275.5" font-family="Helvetica,sans-Serif" font-size="10.00">/d2/ContactImpulsesFunction.hpp</text>
</a>
</g>
</g>
<!-- Node1&#45;&gt;Node8 -->
<g id="edge10" class="edge">
<title>Node1&#45;&gt;Node8</title>
<path fill="none" stroke="midnightblue" d="M407.26,-325.11C407.26,-316.15 407.26,-306.32 407.26,-298.58"/>
<polygon fill="midnightblue" stroke="midnightblue" points="403.76,-325.4 407.26,-335.4 410.76,-325.4 403.76,-325.4"/>
</g>
<!-- Node9 -->
<g id="node9" class="node">
<title>Node9</title>
<g id="a_node9"><a xlink:href="ContactManifoldFunction_8hpp.html" target="_top" xlink:title="Definition of the ContactManifoldFunction type alias.">
<polygon fill="white" stroke="black" points="514.76,-268.5 514.76,-298.5 691.76,-298.5 691.76,-268.5 514.76,-268.5"/>
<text text-anchor="start" x="522.76" y="-286.5" font-family="Helvetica,sans-Serif" font-size="10.00">Library/include/playrho</text>
<text text-anchor="middle" x="603.26" y="-275.5" font-family="Helvetica,sans-Serif" font-size="10.00">/d2/ContactManifoldFunction.hpp</text>
</a>
</g>
</g>
<!-- Node1&#45;&gt;Node9 -->
<g id="edge14" class="edge">
<title>Node1&#45;&gt;Node9</title>
<path fill="none" stroke="midnightblue" d="M459.34,-332.23C491.05,-321.71 531.04,-308.45 560.81,-298.58"/>
<polygon fill="midnightblue" stroke="midnightblue" points="458.18,-328.93 449.79,-335.4 460.38,-335.57 458.18,-328.93"/>
</g>
<!-- Node10 -->
<g id="node10" class="node">
<title>Node10</title>
<g id="a_node10"><a xlink:href="WorldContact_8hpp.html" target="_top" xlink:title="Declarations of free functions of World for contacts identified by ContactID.">
<polygon fill="white" stroke="black" points="740.26,-201.5 740.26,-231.5 868.26,-231.5 868.26,-201.5 740.26,-201.5"/>
<text text-anchor="start" x="748.26" y="-219.5" font-family="Helvetica,sans-Serif" font-size="10.00">Library/include/playrho</text>
<text text-anchor="middle" x="804.26" y="-208.5" font-family="Helvetica,sans-Serif" font-size="10.00">/d2/WorldContact.hpp</text>
</a>
</g>
</g>
<!-- Node1&#45;&gt;Node10 -->
<g id="edge19" class="edge">
<title>Node1&#45;&gt;Node10</title>
<path fill="none" stroke="midnightblue" d="M481.54,-346.28C600.63,-340.34 823.39,-325.77 847.26,-299 865.47,-278.58 840.16,-249.08 821.35,-231.74"/>
<polygon fill="midnightblue" stroke="midnightblue" points="481.22,-342.79 471.4,-346.77 481.56,-349.78 481.22,-342.79"/>
</g>
<!-- Node11 -->
<g id="node11" class="node">
<title>Node11</title>
<g id="a_node11"><a xlink:href="WorldMisc_8hpp.html" target="_top" xlink:title="Declarations of free functions of World for unidentified information.">
<polygon fill="white" stroke="black" points="837.26,-134.5 837.26,-164.5 965.26,-164.5 965.26,-134.5 837.26,-134.5"/>
<text text-anchor="start" x="845.26" y="-152.5" font-family="Helvetica,sans-Serif" font-size="10.00">Library/include/playrho</text>
<text text-anchor="middle" x="901.26" y="-141.5" font-family="Helvetica,sans-Serif" font-size="10.00">/d2/WorldMisc.hpp</text>
</a>
</g>
</g>
<!-- Node1&#45;&gt;Node11 -->
<g id="edge21" class="edge">
<title>Node1&#45;&gt;Node11</title>
<path fill="none" stroke="midnightblue" d="M481.42,-345.9C603.48,-339.31 836.05,-323.65 864.26,-299 903.87,-264.38 904.34,-194.48 902.52,-164.58"/>
<polygon fill="midnightblue" stroke="midnightblue" points="481.2,-342.41 471.4,-346.44 481.57,-349.4 481.2,-342.41"/>
</g>
<!-- Node12 -->
<g id="node12" class="node">
<title>Node12</title>
<g id="a_node12"><a xlink:href="Island_8hpp.html" target="_top" xlink:title="Definition of the Island class and related code.">
<polygon fill="white" stroke="black" points="25.26,-268.5 25.26,-298.5 153.26,-298.5 153.26,-268.5 25.26,-268.5"/>
<text text-anchor="start" x="33.26" y="-286.5" font-family="Helvetica,sans-Serif" font-size="10.00">Library/include/playrho</text>
<text text-anchor="middle" x="89.26" y="-275.5" font-family="Helvetica,sans-Serif" font-size="10.00">/Island.hpp</text>
</a>
</g>
</g>
<!-- Node1&#45;&gt;Node12 -->
<g id="edge23" class="edge">
<title>Node1&#45;&gt;Node12</title>
<path fill="none" stroke="midnightblue" d="M332.97,-334.32C278.55,-323.19 205.43,-308.25 153.52,-297.63"/>
<polygon fill="midnightblue" stroke="midnightblue" points="332.41,-337.77 342.91,-336.35 333.81,-330.91 332.41,-337.77"/>
</g>
<!-- Node13 -->
<g id="node13" class="node">
<title>Node13</title>
<g id="a_node13"><a xlink:href="KeyedContactID_8hpp.html" target="_top" xlink:title="Declaration of the KeyedContactID alias.">
<polygon fill="white" stroke="black" points="710.26,-268.5 710.26,-298.5 838.26,-298.5 838.26,-268.5 710.26,-268.5"/>
<text text-anchor="start" x="718.26" y="-286.5" font-family="Helvetica,sans-Serif" font-size="10.00">Library/include/playrho</text>
<text text-anchor="middle" x="774.26" y="-275.5" font-family="Helvetica,sans-Serif" font-size="10.00">/KeyedContactID.hpp</text>
</a>
</g>
</g>
<!-- Node1&#45;&gt;Node13 -->
<g id="edge25" class="edge">
<title>Node1&#45;&gt;Node13</title>
<path fill="none" stroke="midnightblue" d="M481.35,-337.32C540.85,-327.41 626.52,-312.84 701.26,-299 704.18,-298.46 707.17,-297.9 710.18,-297.33"/>
<polygon fill="midnightblue" stroke="midnightblue" points="480.58,-333.9 471.29,-338.99 481.73,-340.81 480.58,-333.9"/>
</g>
<!-- Node2&#45;&gt;Node3 -->
<g id="edge2" class="edge">
<title>Node2&#45;&gt;Node3</title>
<path fill="none" stroke="midnightblue" d="M260.91,-262.17C273.45,-252.23 288.23,-240.51 299.5,-231.58"/>
<polygon fill="midnightblue" stroke="midnightblue" points="258.71,-259.44 253.05,-268.4 263.06,-264.93 258.71,-259.44"/>
</g>
<!-- Node4 -->
<g id="node4" class="node">
<title>Node4</title>
<g id="a_node4"><a xlink:href="WorldConcept_8hpp.html" target="_top" xlink:title="Definition of the internal WorldConcept interface class.">
<polygon fill="white" stroke="black" points="451.26,-201.5 451.26,-231.5 605.26,-231.5 605.26,-201.5 451.26,-201.5"/>
<text text-anchor="start" x="459.26" y="-219.5" font-family="Helvetica,sans-Serif" font-size="10.00">Library/include/playrho</text>
<text text-anchor="middle" x="528.26" y="-208.5" font-family="Helvetica,sans-Serif" font-size="10.00">/d2/detail/WorldConcept.hpp</text>
</a>
</g>
</g>
<!-- Node2&#45;&gt;Node4 -->
<g id="edge3" class="edge">
<title>Node2&#45;&gt;Node4</title>
<path fill="none" stroke="midnightblue" d="M308.52,-266.25C356.63,-255.58 418.93,-241.75 464.9,-231.55"/>
<polygon fill="midnightblue" stroke="midnightblue" points="307.48,-262.89 298.47,-268.48 309,-269.73 307.48,-262.89"/>
</g>
<!-- Node2&#45;&gt;Node6 -->
<g id="edge8" class="edge">
<title>Node2&#45;&gt;Node6</title>
<path fill="none" stroke="midnightblue" d="M232.02,-258.34C230.98,-240.84 232.43,-217.47 244.26,-201 288.69,-139.15 374,-108.95 433.2,-94.85"/>
<polygon fill="midnightblue" stroke="midnightblue" points="228.54,-258.71 232.92,-268.36 235.51,-258.08 228.54,-258.71"/>
</g>
<!-- Node5 -->
<g id="node5" class="node">
<title>Node5</title>
<g id="a_node5"><a xlink:href="WorldModel_8hpp.html" target="_top" xlink:title="Definitions of the WorldModel class and closely related code.">
<polygon fill="white" stroke="black" points="475.26,-134.5 475.26,-164.5 619.26,-164.5 619.26,-134.5 475.26,-134.5"/>
<text text-anchor="start" x="483.26" y="-152.5" font-family="Helvetica,sans-Serif" font-size="10.00">Library/include/playrho</text>
<text text-anchor="middle" x="547.26" y="-141.5" font-family="Helvetica,sans-Serif" font-size="10.00">/d2/detail/WorldModel.hpp</text>
</a>
</g>
</g>
<!-- Node4&#45;&gt;Node5 -->
<g id="edge4" class="edge">
<title>Node4&#45;&gt;Node5</title>
<path fill="none" stroke="midnightblue" d="M535.22,-191.7C537.88,-182.59 540.83,-172.49 543.14,-164.58"/>
<polygon fill="midnightblue" stroke="midnightblue" points="531.83,-190.82 532.38,-201.4 538.55,-192.78 531.83,-190.82"/>
</g>
<!-- Node4&#45;&gt;Node6 -->
<g id="edge7" class="edge">
<title>Node4&#45;&gt;Node6</title>
<path fill="none" stroke="midnightblue" d="M493.18,-195.54C482.52,-187.54 472.09,-177.27 466.26,-165 455.34,-142.03 472.1,-114.11 484.92,-97.63"/>
<polygon fill="midnightblue" stroke="midnightblue" points="491.49,-198.63 501.7,-201.47 495.49,-192.88 491.49,-198.63"/>
</g>
<!-- Node5&#45;&gt;Node6 -->
<g id="edge5" class="edge">
<title>Node5&#45;&gt;Node6</title>
<path fill="none" stroke="midnightblue" d="M530.3,-126.45C522.95,-116.9 514.57,-106 508.09,-97.58"/>
<polygon fill="midnightblue" stroke="midnightblue" points="527.54,-128.6 536.41,-134.4 533.09,-124.34 527.54,-128.6"/>
</g>
<!-- Node7 -->
<g id="node7" class="node">
<title>Node7</title>
<g id="a_node7"><a xlink:href="BasicAPI_8hpp.html" target="_top" xlink:title="Basic API include file to pull in at once most headers used.">
<polygon fill="white" stroke="black" points="740.26,-0.5 740.26,-30.5 868.26,-30.5 868.26,-0.5 740.26,-0.5"/>
<text text-anchor="start" x="748.26" y="-18.5" font-family="Helvetica,sans-Serif" font-size="10.00">Library/include/playrho</text>
<text text-anchor="middle" x="804.26" y="-7.5" font-family="Helvetica,sans-Serif" font-size="10.00">/d2/BasicAPI.hpp</text>
</a>
</g>
</g>
<!-- Node6&#45;&gt;Node7 -->
<g id="edge6" class="edge">
<title>Node6&#45;&gt;Node7</title>
<path fill="none" stroke="midnightblue" d="M571.7,-65.74C623.24,-54.83 691.13,-40.45 740.25,-30.05"/>
<polygon fill="midnightblue" stroke="midnightblue" points="570.67,-62.38 561.62,-67.87 572.12,-69.23 570.67,-62.38"/>
</g>
<!-- Node8&#45;&gt;Node3 -->
<g id="edge11" class="edge">
<title>Node8&#45;&gt;Node3</title>
<path fill="none" stroke="midnightblue" d="M379.5,-262.45C365.65,-252.45 349.24,-240.6 336.75,-231.58"/>
<polygon fill="midnightblue" stroke="midnightblue" points="377.57,-265.38 387.73,-268.4 381.67,-259.7 377.57,-265.38"/>
</g>
<!-- Node8&#45;&gt;Node4 -->
<g id="edge12" class="edge">
<title>Node8&#45;&gt;Node4</title>
<path fill="none" stroke="midnightblue" d="M442.49,-263.57C461.52,-253.35 484.62,-240.94 502.05,-231.58"/>
<polygon fill="midnightblue" stroke="midnightblue" points="440.67,-260.58 433.51,-268.4 443.98,-266.75 440.67,-260.58"/>
</g>
<!-- Node8&#45;&gt;Node6 -->
<g id="edge13" class="edge">
<title>Node8&#45;&gt;Node6</title>
<path fill="none" stroke="midnightblue" d="M412.96,-258.3C420.66,-228.06 436.03,-175.25 458.26,-134 465.4,-120.74 475.97,-107.31 484.3,-97.64"/>
<polygon fill="midnightblue" stroke="midnightblue" points="409.47,-257.81 410.47,-268.36 416.27,-259.49 409.47,-257.81"/>
</g>
<!-- Node9&#45;&gt;Node3 -->
<g id="edge15" class="edge">
<title>Node9&#45;&gt;Node3</title>
<path fill="none" stroke="midnightblue" d="M531.77,-266.25C484.89,-255.6 424.2,-241.81 379.35,-231.61"/>
<polygon fill="midnightblue" stroke="midnightblue" points="531.03,-269.67 541.55,-268.48 532.58,-262.85 531.03,-269.67"/>
</g>
<!-- Node9&#45;&gt;Node4 -->
<g id="edge16" class="edge">
<title>Node9&#45;&gt;Node4</title>
<path fill="none" stroke="midnightblue" d="M579.14,-261.6C567.82,-251.78 554.62,-240.34 544.5,-231.58"/>
<polygon fill="midnightblue" stroke="midnightblue" points="577.14,-264.49 586.98,-268.4 581.72,-259.2 577.14,-264.49"/>
</g>
<!-- Node9&#45;&gt;Node6 -->
<g id="edge17" class="edge">
<title>Node9&#45;&gt;Node6</title>
<path fill="none" stroke="midnightblue" d="M616.49,-259.55C632.54,-228.36 654.4,-172.09 628.26,-134 613.02,-111.79 586.53,-99.35 561.34,-92.37"/>
<polygon fill="midnightblue" stroke="midnightblue" points="613.4,-257.92 611.75,-268.38 619.56,-261.22 613.4,-257.92"/>
</g>
<!-- Node10&#45;&gt;Node7 -->
<g id="edge20" class="edge">
<title>Node10&#45;&gt;Node7</title>
<path fill="none" stroke="midnightblue" d="M804.26,-191C804.26,-148.93 804.26,-64.26 804.26,-30.68"/>
<polygon fill="midnightblue" stroke="midnightblue" points="800.76,-191.19 804.26,-201.19 807.76,-191.19 800.76,-191.19"/>
</g>
<!-- Node11&#45;&gt;Node7 -->
<g id="edge22" class="edge">
<title>Node11&#45;&gt;Node7</title>
<path fill="none" stroke="midnightblue" d="M884.86,-126.19C864.78,-98.86 831.36,-53.38 814.56,-30.52"/>
<polygon fill="midnightblue" stroke="midnightblue" points="882.14,-128.39 890.88,-134.37 887.78,-124.24 882.14,-128.39"/>
</g>
<!-- Node12&#45;&gt;Node3 -->
<g id="edge24" class="edge">
<title>Node12&#45;&gt;Node3</title>
<path fill="none" stroke="midnightblue" d="M148.14,-265.71C185.24,-255.14 232.6,-241.63 267.76,-231.61"/>
<polygon fill="midnightblue" stroke="midnightblue" points="147.11,-262.37 138.45,-268.48 149.03,-269.1 147.11,-262.37"/>
</g>
<!-- Node13&#45;&gt;Node3 -->
<g id="edge26" class="edge">
<title>Node13&#45;&gt;Node3</title>
<path fill="none" stroke="midnightblue" d="M700.33,-267.93C626.35,-256.22 469.95,-236.44 381.36,-225.41"/>
<polygon fill="midnightblue" stroke="midnightblue" points="699.78,-271.39 710.21,-269.53 700.9,-264.48 699.78,-271.39"/>
</g>
<!-- Node13&#45;&gt;Node4 -->
<g id="edge27" class="edge">
<title>Node13&#45;&gt;Node4</title>
<path fill="none" stroke="midnightblue" d="M711.5,-265.92C671.35,-255.31 619.84,-241.7 581.66,-231.61"/>
<polygon fill="midnightblue" stroke="midnightblue" points="710.62,-269.31 721.18,-268.48 712.41,-262.54 710.62,-269.31"/>
</g>
<!-- Node13&#45;&gt;Node6 -->
<g id="edge28" class="edge">
<title>Node13&#45;&gt;Node6</title>
<path fill="none" stroke="midnightblue" d="M755.48,-260.47C720.35,-219.26 648.11,-134.57 647.26,-134 621.53,-116.62 589.29,-104.75 561.3,-96.9"/>
<polygon fill="midnightblue" stroke="midnightblue" points="753.03,-262.99 762.18,-268.33 758.36,-258.45 753.03,-262.99"/>
</g>
<!-- Node13&#45;&gt;Node10 -->
<g id="edge29" class="edge">
<title>Node13&#45;&gt;Node10</title>
<path fill="none" stroke="midnightblue" d="M784.97,-259.28C789.25,-250.02 794.03,-239.66 797.76,-231.58"/>
<polygon fill="midnightblue" stroke="midnightblue" points="781.78,-257.85 780.77,-268.4 788.14,-260.78 781.78,-257.85"/>
</g>
</g>
</svg>
        <g id="navigator" transform="translate(0 0)" fill="#404254">
                <rect fill="#f2f5e9" fill-opacity="0.5" stroke="#606060" stroke-width=".5" x="0" y="0" width="60" height="60"/>
                <use id="zoomplus" xlink:href="#zoomPlus" x="17" y="9" onmousedown="handleZoom(evt,'in')"/>
                <use id="zoomminus" xlink:href="#zoomMin" x="42" y="9" onmousedown="handleZoom(evt,'out')"/>
                <use id="reset" xlink:href="#resetDef" x="30" y="36" onmousedown="handleReset()"/>
                <g id="arrowUp" xlink:href="#dirArrow" transform="translate(30 24)" onmousedown="handlePan(0,-1)">
                  <use xlink:href="#rim" fill="#404040">
                        <set attributeName="fill" to="#808080" begin="arrowUp.mouseover" end="arrowUp.mouseout"/>
                  </use>
                  <path fill="none" stroke="white" stroke-width="1.5" d="M0,-3.0v7 M-2.5,-0.5L0,-3.0L2.5,-0.5"/>
                </g>
                <g id="arrowRight" xlink:href="#dirArrow" transform="rotate(90) translate(36 -43)" onmousedown="handlePan(1,0)">
                  <use xlink:href="#rim" fill="#404040">
                        <set attributeName="fill" to="#808080" begin="arrowRight.mouseover" end="arrowRight.mouseout"/>
                  </use>
                  <path fill="none" stroke="white" stroke-width="1.5" d="M0,-3.0v7 M-2.5,-0.5L0,-3.0L2.5,-0.5"/>
                </g>
                <g id="arrowDown" xlink:href="#dirArrow" transform="rotate(180) translate(-30 -48)" onmousedown="handlePan(0,1)">
                  <use xlink:href="#rim" fill="#404040">
                        <set attributeName="fill" to="#808080" begin="arrowDown.mouseover" end="arrowDown.mouseout"/>
                  </use>
                  <path fill="none" stroke="white" stroke-width="1.5" d="M0,-3.0v7 M-2.5,-0.5L0,-3.0L2.5,-0.5"/>
                </g>
                <g id="arrowLeft" xlink:href="#dirArrow" transform="rotate(270) translate(-36 17)" onmousedown="handlePan(-1,0)">
                  <use xlink:href="#rim" fill="#404040">
                        <set attributeName="fill" to="#808080" begin="arrowLeft.mouseover" end="arrowLeft.mouseout"/>
                  </use>
                  <path fill="none" stroke="white" stroke-width="1.5" d="M0,-3.0v7 M-2.5,-0.5L0,-3.0L2.5,-0.5"/>
                </g>
        </g>
        <svg viewBox="0 0 15 15" width="100%" height="30px" preserveAspectRatio="xMaxYMin meet">
         <g id="arrow_out" transform="scale(0.3 0.3)">
          <a xlink:href="ContactID_8hpp__dep__incl_org.svg" target="_base">
           <rect id="button" ry="5" rx="5" y="6" x="6" height="38" width="38"
                fill="#f2f5e9" fill-opacity="0.5" stroke="#606060" stroke-width="1.0"/>
           <path id="arrow"
             d="M 11.500037,31.436501 C 11.940474,20.09759 22.043105,11.32322 32.158766,21.979434 L 37.068811,17.246167 C 37.068811,17.246167 37.088388,32 37.088388,32 L 22.160133,31.978069 C 22.160133,31.978069 26.997745,27.140456 26.997745,27.140456 C 18.528582,18.264221 13.291696,25.230495 11.500037,31.436501 z"
             style="fill:#404040;"/>
          </a>
         </g>
        </svg>
</svg>
