<?xml version="1.0" encoding="UTF-8" standalone="no"?>
<!DOCTYPE svg PUBLIC "-//W3C//DTD SVG 1.1//EN"
 "http://www.w3.org/Graphics/SVG/1.1/DTD/svg11.dtd">
<!-- Generated by graphviz version 2.43.0 (0)
 -->
<!-- Title: Library/include/playrho/ContactFeature.hpp Pages: 1 -->
<svg width="486pt" height="240pt"
 viewBox="0.00 0.00 485.50 240.00" xmlns="http://www.w3.org/2000/svg" xmlns:xlink="http://www.w3.org/1999/xlink">
<g id="graph0" class="graph" transform="scale(1 1) rotate(0) translate(4 236)">
<title>Library/include/playrho/ContactFeature.hpp</title>
<polygon fill="white" stroke="transparent" points="-4,4 -4,-236 481.5,-236 481.5,4 -4,4"/>
<!-- Node1 -->
<g id="node1" class="node">
<title>Node1</title>
<g id="a_node1"><a xlink:title="Definition of the ContactFeature class and closely related code.">
<polygon fill="#bfbfbf" stroke="black" points="110.5,-201.5 110.5,-231.5 238.5,-231.5 238.5,-201.5 110.5,-201.5"/>
<text text-anchor="start" x="118.5" y="-219.5" font-family="Helvetica,sans-Serif" font-size="10.00">Library/include/playrho</text>
<text text-anchor="middle" x="174.5" y="-208.5" font-family="Helvetica,sans-Serif" font-size="10.00">/ContactFeature.hpp</text>
</a>
</g>
</g>
<!-- Node2 -->
<g id="node2" class="node">
<title>Node2</title>
<g id="a_node2"><a xlink:href="ClipList_8hpp.html" target="_top" xlink:title="Structures and functions used for computing clip lists.">
<polygon fill="white" stroke="black" points="37.5,-134.5 37.5,-164.5 165.5,-164.5 165.5,-134.5 37.5,-134.5"/>
<text text-anchor="start" x="45.5" y="-152.5" font-family="Helvetica,sans-Serif" font-size="10.00">Library/include/playrho</text>
<text text-anchor="middle" x="101.5" y="-141.5" font-family="Helvetica,sans-Serif" font-size="10.00">/d2/ClipList.hpp</text>
</a>
</g>
</g>
<!-- Node1&#45;&gt;Node2 -->
<g id="edge1" class="edge">
<title>Node1&#45;&gt;Node2</title>
<path fill="none" stroke="midnightblue" d="M151.03,-194.6C140,-184.78 127.16,-173.34 117.31,-164.58"/>
<polygon fill="midnightblue" stroke="midnightblue" points="148.86,-197.36 158.66,-201.4 153.52,-192.13 148.86,-197.36"/>
</g>
<!-- Node3 -->
<g id="node3" class="node">
<title>Node3</title>
<g id="a_node3"><a xlink:href="Manifold_8hpp.html" target="_top" xlink:title="Definition of the Manifold class and closely related code.">
<polygon fill="white" stroke="black" points="183.5,-134.5 183.5,-164.5 311.5,-164.5 311.5,-134.5 183.5,-134.5"/>
<text text-anchor="start" x="191.5" y="-152.5" font-family="Helvetica,sans-Serif" font-size="10.00">Library/include/playrho</text>
<text text-anchor="middle" x="247.5" y="-141.5" font-family="Helvetica,sans-Serif" font-size="10.00">/d2/Manifold.hpp</text>
</a>
</g>
</g>
<!-- Node1&#45;&gt;Node3 -->
<g id="edge2" class="edge">
<title>Node1&#45;&gt;Node3</title>
<path fill="none" stroke="midnightblue" d="M197.97,-194.6C209,-184.78 221.84,-173.34 231.69,-164.58"/>
<polygon fill="midnightblue" stroke="midnightblue" points="195.48,-192.13 190.34,-201.4 200.14,-197.36 195.48,-192.13"/>
</g>
<!-- Node4 -->
<g id="node4" class="node">
<title>Node4</title>
<g id="a_node4"><a xlink:href="PositionConstraint_8hpp.html" target="_top" xlink:title="Definition of the PositionConstraint class and closely related code.">
<polygon fill="white" stroke="black" points="0,-67.5 0,-97.5 145,-97.5 145,-67.5 0,-67.5"/>
<text text-anchor="start" x="8" y="-85.5" font-family="Helvetica,sans-Serif" font-size="10.00">Library/include/playrho</text>
<text text-anchor="middle" x="72.5" y="-74.5" font-family="Helvetica,sans-Serif" font-size="10.00">/d2/PositionConstraint.hpp</text>
</a>
</g>
</g>
<!-- Node3&#45;&gt;Node4 -->
<g id="edge3" class="edge">
<title>Node3&#45;&gt;Node4</title>
<path fill="none" stroke="midnightblue" d="M199.9,-130.82C171.77,-120.37 136.64,-107.32 110.4,-97.58"/>
<polygon fill="midnightblue" stroke="midnightblue" points="198.93,-134.2 209.53,-134.4 201.37,-127.63 198.93,-134.2"/>
</g>
<!-- Node5 -->
<g id="node5" class="node">
<title>Node5</title>
<g id="a_node5"><a xlink:href="PositionSolverManifold_8hpp.html" target="_top" xlink:title="Definition of the PositionSolverManifold class and closely related code.">
<polygon fill="white" stroke="black" points="163.5,-67.5 163.5,-97.5 331.5,-97.5 331.5,-67.5 163.5,-67.5"/>
<text text-anchor="start" x="171.5" y="-85.5" font-family="Helvetica,sans-Serif" font-size="10.00">Library/include/playrho</text>
<text text-anchor="middle" x="247.5" y="-74.5" font-family="Helvetica,sans-Serif" font-size="10.00">/d2/PositionSolverManifold.hpp</text>
</a>
</g>
</g>
<!-- Node3&#45;&gt;Node5 -->
<g id="edge4" class="edge">
<title>Node3&#45;&gt;Node5</title>
<path fill="none" stroke="midnightblue" d="M247.5,-124.11C247.5,-115.15 247.5,-105.32 247.5,-97.58"/>
<polygon fill="midnightblue" stroke="midnightblue" points="244,-124.4 247.5,-134.4 251,-124.4 244,-124.4"/>
</g>
<!-- Node6 -->
<g id="node6" class="node">
<title>Node6</title>
<g id="a_node6"><a xlink:href="World_8hpp.html" target="_top" xlink:title="Definitions of the World class and closely related code.">
<polygon fill="white" stroke="black" points="349.5,-67.5 349.5,-97.5 477.5,-97.5 477.5,-67.5 349.5,-67.5"/>
<text text-anchor="start" x="357.5" y="-85.5" font-family="Helvetica,sans-Serif" font-size="10.00">Library/include/playrho</text>
<text text-anchor="middle" x="413.5" y="-74.5" font-family="Helvetica,sans-Serif" font-size="10.00">/d2/World.hpp</text>
</a>
</g>
</g>
<!-- Node3&#45;&gt;Node6 -->
<g id="edge5" class="edge">
<title>Node3&#45;&gt;Node6</title>
<path fill="none" stroke="midnightblue" d="M293.01,-130.68C319.63,-120.26 352.77,-107.28 377.55,-97.58"/>
<polygon fill="midnightblue" stroke="midnightblue" points="291.55,-127.49 283.52,-134.4 294.11,-134.01 291.55,-127.49"/>
</g>
<!-- Node7 -->
<g id="node7" class="node">
<title>Node7</title>
<g id="a_node7"><a xlink:href="BasicAPI_8hpp.html" target="_top" xlink:title="Basic API include file to pull in at once most headers used.">
<polygon fill="white" stroke="black" points="349.5,-0.5 349.5,-30.5 477.5,-30.5 477.5,-0.5 349.5,-0.5"/>
<text text-anchor="start" x="357.5" y="-18.5" font-family="Helvetica,sans-Serif" font-size="10.00">Library/include/playrho</text>
<text text-anchor="middle" x="413.5" y="-7.5" font-family="Helvetica,sans-Serif" font-size="10.00">/d2/BasicAPI.hpp</text>
</a>
</g>
</g>
<!-- Node6&#45;&gt;Node7 -->
<g id="edge6" class="edge">
<title>Node6&#45;&gt;Node7</title>
<path fill="none" stroke="midnightblue" d="M413.5,-57.11C413.5,-48.15 413.5,-38.32 413.5,-30.58"/>
<polygon fill="midnightblue" stroke="midnightblue" points="410,-57.4 413.5,-67.4 417,-57.4 410,-57.4"/>
</g>
</g>
</svg>
