<?xml version="1.0" encoding="UTF-8" standalone="no"?>
<!DOCTYPE svg PUBLIC "-//W3C//DTD SVG 1.1//EN"
 "http://www.w3.org/Graphics/SVG/1.1/DTD/svg11.dtd">
<!-- Generated by graphviz version 2.43.0 (0)
 -->
<!-- Title: Library/include/playrho/d2/AABB.hpp Pages: 1 -->
<svg width="1870pt" height="520pt"
 viewBox="0.00 0.00 1870.00 520.00" xmlns="http://www.w3.org/2000/svg" xmlns:xlink="http://www.w3.org/1999/xlink">
<g id="graph0" class="graph" transform="scale(1 1) rotate(0) translate(4 516)">
<title>Library/include/playrho/d2/AABB.hpp</title>
<polygon fill="white" stroke="transparent" points="-4,4 -4,-516 1866,-516 1866,4 -4,4"/>
<!-- Node1 -->
<g id="node1" class="node">
<title>Node1</title>
<g id="a_node1"><a xlink:title="Declaration of the AABB class and free functions that return instances of it.">
<polygon fill="#bfbfbf" stroke="black" points="715,-481.5 715,-511.5 843,-511.5 843,-481.5 715,-481.5"/>
<text text-anchor="start" x="723" y="-499.5" font-family="Helvetica,sans-Serif" font-size="10.00">Library/include/playrho</text>
<text text-anchor="middle" x="779" y="-488.5" font-family="Helvetica,sans-Serif" font-size="10.00">/d2/AABB.hpp</text>
</a>
</g>
</g>
<!-- Node2 -->
<g id="node2" class="node">
<title>Node2</title>
<g id="a_node2"><a xlink:title=" ">
<polygon fill="white" stroke="#bfbfbf" points="822.5,-62 822.5,-81 871.5,-81 871.5,-62 822.5,-62"/>
<text text-anchor="middle" x="847" y="-69" font-family="Helvetica,sans-Serif" font-size="10.00">cstdlib</text>
</a>
</g>
</g>
<!-- Node1&#45;&gt;Node2 -->
<g id="edge1" class="edge">
<title>Node1&#45;&gt;Node2</title>
<path fill="none" stroke="midnightblue" d="M783.83,-481.38C793.08,-453.45 813.04,-389.02 820,-333 831.55,-240 767.16,-210.39 801,-123 806.41,-109.04 817.67,-96.56 827.69,-87.51"/>
<polygon fill="midnightblue" stroke="midnightblue" points="829.98,-90.16 835.34,-81.01 825.45,-84.82 829.98,-90.16"/>
</g>
<!-- Node3 -->
<g id="node3" class="node">
<title>Node3</title>
<g id="a_node3"><a xlink:href="BodyID_8hpp.html" target="_top" xlink:title="Definition of the BodyID alias and closely related code.">
<polygon fill="white" stroke="black" points="375.5,-425.5 375.5,-444.5 488.5,-444.5 488.5,-425.5 375.5,-425.5"/>
<text text-anchor="middle" x="432" y="-432.5" font-family="Helvetica,sans-Serif" font-size="10.00">playrho/BodyID.hpp</text>
</a>
</g>
</g>
<!-- Node1&#45;&gt;Node3 -->
<g id="edge2" class="edge">
<title>Node1&#45;&gt;Node3</title>
<path fill="none" stroke="midnightblue" d="M714.95,-484.52C651.14,-473.58 553.94,-456.91 491.7,-446.24"/>
<polygon fill="midnightblue" stroke="midnightblue" points="492.09,-442.75 481.64,-444.51 490.91,-449.65 492.09,-442.75"/>
</g>
<!-- Node8 -->
<g id="node8" class="node">
<title>Node8</title>
<g id="a_node8"><a xlink:href="Settings_8hpp.html" target="_top" xlink:title="Types and default settings file.">
<polygon fill="white" stroke="black" points="485.5,-369.5 485.5,-388.5 602.5,-388.5 602.5,-369.5 485.5,-369.5"/>
<text text-anchor="middle" x="544" y="-376.5" font-family="Helvetica,sans-Serif" font-size="10.00">playrho/Settings.hpp</text>
</a>
</g>
</g>
<!-- Node1&#45;&gt;Node8 -->
<g id="edge58" class="edge">
<title>Node1&#45;&gt;Node8</title>
<path fill="none" stroke="midnightblue" d="M750.18,-481.34C704.17,-458.72 614.77,-414.78 570.35,-392.95"/>
<polygon fill="midnightblue" stroke="midnightblue" points="571.86,-389.79 561.34,-388.52 568.77,-396.07 571.86,-389.79"/>
</g>
<!-- Node17 -->
<g id="node17" class="node">
<title>Node17</title>
<g id="a_node17"><a xlink:href="Units_8hpp.html" target="_top" xlink:title="Declarations for physical units possibly backed by strong types.">
<polygon fill="white" stroke="black" points="708.5,-313.5 708.5,-332.5 811.5,-332.5 811.5,-313.5 708.5,-313.5"/>
<text text-anchor="middle" x="760" y="-320.5" font-family="Helvetica,sans-Serif" font-size="10.00">playrho/Units.hpp</text>
</a>
</g>
</g>
<!-- Node1&#45;&gt;Node17 -->
<g id="edge62" class="edge">
<title>Node1&#45;&gt;Node17</title>
<path fill="none" stroke="midnightblue" d="M777.45,-481.47C774.04,-450.7 765.91,-377.33 762.07,-342.7"/>
<polygon fill="midnightblue" stroke="midnightblue" points="765.53,-342.11 760.95,-332.56 758.57,-342.88 765.53,-342.11"/>
</g>
<!-- Node24 -->
<g id="node24" class="node">
<title>Node24</title>
<g id="a_node24"><a xlink:href="Interval_8hpp.html" target="_top" xlink:title="Definition of the Interval class template and closely related code.">
<polygon fill="white" stroke="black" points="1348.5,-313.5 1348.5,-332.5 1463.5,-332.5 1463.5,-313.5 1348.5,-313.5"/>
<text text-anchor="middle" x="1406" y="-320.5" font-family="Helvetica,sans-Serif" font-size="10.00">playrho/Interval.hpp</text>
</a>
</g>
</g>
<!-- Node1&#45;&gt;Node24 -->
<g id="edge38" class="edge">
<title>Node1&#45;&gt;Node24</title>
<path fill="none" stroke="midnightblue" d="M843.09,-486.22C898.36,-477.58 980.09,-463.29 1050,-445 1172.33,-412.99 1313.37,-360.14 1374.76,-336.32"/>
<polygon fill="midnightblue" stroke="midnightblue" points="1376.21,-339.51 1384.25,-332.62 1373.67,-332.99 1376.21,-339.51"/>
</g>
<!-- Node32 -->
<g id="node32" class="node">
<title>Node32</title>
<g id="a_node32"><a xlink:href="Intervals_8hpp.html" target="_top" xlink:title="Alias for an Interval of Length .">
<polygon fill="white" stroke="black" points="826,-369.5 826,-388.5 946,-388.5 946,-369.5 826,-369.5"/>
<text text-anchor="middle" x="886" y="-376.5" font-family="Helvetica,sans-Serif" font-size="10.00">playrho/Intervals.hpp</text>
</a>
</g>
</g>
<!-- Node1&#45;&gt;Node32 -->
<g id="edge55" class="edge">
<title>Node1&#45;&gt;Node32</title>
<path fill="none" stroke="midnightblue" d="M792.12,-481.34C812.1,-459.77 850.04,-418.81 871.06,-396.13"/>
<polygon fill="midnightblue" stroke="midnightblue" points="873.74,-398.38 877.97,-388.67 868.6,-393.63 873.74,-398.38"/>
</g>
<!-- Node33 -->
<g id="node33" class="node">
<title>Node33</title>
<g id="a_node33"><a xlink:href="ShapeID_8hpp.html" target="_top" xlink:title="Definition of the ShapeID alias and closely related code.">
<polygon fill="white" stroke="black" points="507,-425.5 507,-444.5 625,-444.5 625,-425.5 507,-425.5"/>
<text text-anchor="middle" x="566" y="-432.5" font-family="Helvetica,sans-Serif" font-size="10.00">playrho/ShapeID.hpp</text>
</a>
</g>
</g>
<!-- Node1&#45;&gt;Node33 -->
<g id="edge59" class="edge">
<title>Node1&#45;&gt;Node33</title>
<path fill="none" stroke="midnightblue" d="M728.79,-481.47C691.4,-471.03 641.02,-456.96 606.26,-447.25"/>
<polygon fill="midnightblue" stroke="midnightblue" points="607.02,-443.83 596.45,-444.51 605.14,-450.57 607.02,-443.83"/>
</g>
<!-- Node34 -->
<g id="node34" class="node">
<title>Node34</title>
<g id="a_node34"><a xlink:href="detail_2AABB_8hpp.html" target="_top" xlink:title="Declaration of the AABB class and free functions that return instances of it.">
<polygon fill="white" stroke="black" points="906.5,-425.5 906.5,-444.5 1041.5,-444.5 1041.5,-425.5 906.5,-425.5"/>
<text text-anchor="middle" x="974" y="-432.5" font-family="Helvetica,sans-Serif" font-size="10.00">playrho/detail/AABB.hpp</text>
</a>
</g>
</g>
<!-- Node1&#45;&gt;Node34 -->
<g id="edge63" class="edge">
<title>Node1&#45;&gt;Node34</title>
<path fill="none" stroke="midnightblue" d="M825.21,-481.4C859.05,-471.07 904.42,-457.23 936.13,-447.56"/>
<polygon fill="midnightblue" stroke="midnightblue" points="937.37,-450.84 945.91,-444.57 935.32,-444.14 937.37,-450.84"/>
</g>
<!-- Node4 -->
<g id="node4" class="node">
<title>Node4</title>
<g id="a_node4"><a xlink:href="IndexingNamedType_8hpp.html" target="_top" xlink:title="Definition of IndexingNamedType class template and related code.">
<polygon fill="white" stroke="black" points="640,-56.5 640,-86.5 804,-86.5 804,-56.5 640,-56.5"/>
<text text-anchor="start" x="648" y="-74.5" font-family="Helvetica,sans-Serif" font-size="10.00">playrho/detail/IndexingNamed</text>
<text text-anchor="middle" x="722" y="-63.5" font-family="Helvetica,sans-Serif" font-size="10.00">Type.hpp</text>
</a>
</g>
</g>
<!-- Node3&#45;&gt;Node4 -->
<g id="edge3" class="edge">
<title>Node3&#45;&gt;Node4</title>
<path fill="none" stroke="midnightblue" d="M375.08,-431.39C257.77,-424.46 0,-400.52 0,-324 0,-324 0,-324 0,-204.5 0,-141.2 434.94,-96.64 629.66,-79.87"/>
<polygon fill="midnightblue" stroke="midnightblue" points="630.21,-83.33 639.88,-78.99 629.62,-76.36 630.21,-83.33"/>
</g>
<!-- Node3&#45;&gt;Node8 -->
<g id="edge7" class="edge">
<title>Node3&#45;&gt;Node8</title>
<path fill="none" stroke="midnightblue" d="M449.99,-425.32C468.04,-416.62 496.05,-403.12 516.8,-393.11"/>
<polygon fill="midnightblue" stroke="midnightblue" points="518.56,-396.15 526.05,-388.65 515.52,-389.84 518.56,-396.15"/>
</g>
<!-- Node5 -->
<g id="node5" class="node">
<title>Node5</title>
<g id="a_node5"><a xlink:title=" ">
<polygon fill="white" stroke="#bfbfbf" points="1336.5,-0.5 1336.5,-19.5 1381.5,-19.5 1381.5,-0.5 1336.5,-0.5"/>
<text text-anchor="middle" x="1359" y="-7.5" font-family="Helvetica,sans-Serif" font-size="10.00">utility</text>
</a>
</g>
</g>
<!-- Node4&#45;&gt;Node5 -->
<g id="edge4" class="edge">
<title>Node4&#45;&gt;Node5</title>
<path fill="none" stroke="midnightblue" d="M804.3,-57.08C807.23,-56.7 810.14,-56.34 813,-56 1023.27,-31.32 1077.36,-41.32 1288,-20 1300.53,-18.73 1314.26,-17.06 1326.28,-15.5"/>
<polygon fill="midnightblue" stroke="midnightblue" points="1326.88,-18.95 1336.33,-14.17 1325.96,-12.01 1326.88,-18.95"/>
</g>
<!-- Node6 -->
<g id="node6" class="node">
<title>Node6</title>
<g id="a_node6"><a xlink:title=" ">
<polygon fill="white" stroke="#bfbfbf" points="1054.5,-0.5 1054.5,-19.5 1119.5,-19.5 1119.5,-0.5 1054.5,-0.5"/>
<text text-anchor="middle" x="1087" y="-7.5" font-family="Helvetica,sans-Serif" font-size="10.00">functional</text>
</a>
</g>
</g>
<!-- Node4&#45;&gt;Node6 -->
<g id="edge5" class="edge">
<title>Node4&#45;&gt;Node6</title>
<path fill="none" stroke="midnightblue" d="M804.37,-57.07C878.75,-44.95 985.27,-27.58 1044.01,-18.01"/>
<polygon fill="midnightblue" stroke="midnightblue" points="1044.75,-21.43 1054.06,-16.37 1043.62,-14.52 1044.75,-21.43"/>
</g>
<!-- Node7 -->
<g id="node7" class="node">
<title>Node7</title>
<g id="a_node7"><a xlink:title=" ">
<polygon fill="white" stroke="#bfbfbf" points="865.5,-0.5 865.5,-19.5 934.5,-19.5 934.5,-0.5 865.5,-0.5"/>
<text text-anchor="middle" x="900" y="-7.5" font-family="Helvetica,sans-Serif" font-size="10.00">type_traits</text>
</a>
</g>
</g>
<!-- Node4&#45;&gt;Node7 -->
<g id="edge6" class="edge">
<title>Node4&#45;&gt;Node7</title>
<path fill="none" stroke="midnightblue" d="M764.18,-56.4C794.81,-46.16 835.77,-32.47 864.67,-22.81"/>
<polygon fill="midnightblue" stroke="midnightblue" points="865.98,-26.06 874.36,-19.57 863.77,-19.42 865.98,-26.06"/>
</g>
<!-- Node8&#45;&gt;Node7 -->
<g id="edge10" class="edge">
<title>Node8&#45;&gt;Node7</title>
<path fill="none" stroke="midnightblue" d="M485.2,-376.44C359.51,-371.5 76,-351.15 76,-268 76,-268 76,-268 76,-137.5 76,-41.93 181.95,-77.82 275,-56 385.51,-30.09 731.12,-16.52 855.14,-12.39"/>
<polygon fill="midnightblue" stroke="midnightblue" points="855.53,-15.88 865.41,-12.05 855.3,-8.88 855.53,-15.88"/>
</g>
<!-- Node9 -->
<g id="node9" class="node">
<title>Node9</title>
<g id="a_node9"><a xlink:title=" ">
<polygon fill="white" stroke="#bfbfbf" points="104,-196 104,-215 154,-215 154,-196 104,-196"/>
<text text-anchor="middle" x="129" y="-203" font-family="Helvetica,sans-Serif" font-size="10.00">cstdint</text>
</a>
</g>
</g>
<!-- Node8&#45;&gt;Node9 -->
<g id="edge8" class="edge">
<title>Node8&#45;&gt;Node9</title>
<path fill="none" stroke="midnightblue" d="M485.32,-375.24C422.9,-370.96 321.92,-360.13 239,-333 188.36,-316.43 161.78,-321.84 133,-277 123.18,-261.71 123.39,-240.49 125.31,-225.34"/>
<polygon fill="midnightblue" stroke="midnightblue" points="128.82,-225.56 126.97,-215.13 121.91,-224.44 128.82,-225.56"/>
</g>
<!-- Node10 -->
<g id="node10" class="node">
<title>Node10</title>
<g id="a_node10"><a xlink:title=" ">
<polygon fill="white" stroke="#bfbfbf" points="676,-129 676,-148 720,-148 720,-129 676,-129"/>
<text text-anchor="middle" x="698" y="-136" font-family="Helvetica,sans-Serif" font-size="10.00">limits</text>
</a>
</g>
</g>
<!-- Node8&#45;&gt;Node10 -->
<g id="edge9" class="edge">
<title>Node8&#45;&gt;Node10</title>
<path fill="none" stroke="midnightblue" d="M541.58,-369.27C536.25,-348.15 525.69,-293.37 548,-257 578.11,-207.9 636.66,-171.23 671.03,-152.8"/>
<polygon fill="midnightblue" stroke="midnightblue" points="672.8,-155.82 680.04,-148.09 669.55,-149.62 672.8,-155.82"/>
</g>
<!-- Node11 -->
<g id="node11" class="node">
<title>Node11</title>
<g id="a_node11"><a xlink:href="Real_8hpp.html" target="_top" xlink:title="Real number definition file.">
<polygon fill="white" stroke="black" points="648.5,-196 648.5,-215 747.5,-215 747.5,-196 648.5,-196"/>
<text text-anchor="middle" x="698" y="-203" font-family="Helvetica,sans-Serif" font-size="10.00">playrho/Real.hpp</text>
</a>
</g>
</g>
<!-- Node8&#45;&gt;Node11 -->
<g id="edge11" class="edge">
<title>Node8&#45;&gt;Node11</title>
<path fill="none" stroke="midnightblue" d="M542.64,-369.21C539.79,-347.49 535.58,-290.61 563,-257 581.6,-234.2 611.58,-221.7 638.58,-214.83"/>
<polygon fill="midnightblue" stroke="midnightblue" points="639.42,-218.23 648.36,-212.55 637.83,-211.41 639.42,-218.23"/>
</g>
<!-- Node16 -->
<g id="node16" class="node">
<title>Node16</title>
<g id="a_node16"><a xlink:href="RealConstants_8hpp.html" target="_top" xlink:title="Definitions file for constant expressions of type Real.">
<polygon fill="white" stroke="black" points="572,-257.5 572,-276.5 720,-276.5 720,-257.5 572,-257.5"/>
<text text-anchor="middle" x="646" y="-264.5" font-family="Helvetica,sans-Serif" font-size="10.00">playrho/RealConstants.hpp</text>
</a>
</g>
</g>
<!-- Node8&#45;&gt;Node16 -->
<g id="edge22" class="edge">
<title>Node8&#45;&gt;Node16</title>
<path fill="none" stroke="midnightblue" d="M552,-369.37C569.06,-350.97 609.21,-307.67 631.12,-284.05"/>
<polygon fill="midnightblue" stroke="midnightblue" points="633.8,-286.3 638.03,-276.59 628.67,-281.54 633.8,-286.3"/>
</g>
<!-- Node8&#45;&gt;Node17 -->
<g id="edge24" class="edge">
<title>Node8&#45;&gt;Node17</title>
<path fill="none" stroke="midnightblue" d="M578.23,-369.44C615.51,-360.12 675.27,-345.18 716.01,-335"/>
<polygon fill="midnightblue" stroke="midnightblue" points="717.08,-338.34 725.93,-332.52 715.38,-331.55 717.08,-338.34"/>
</g>
<!-- Node21 -->
<g id="node21" class="node">
<title>Node21</title>
<g id="a_node21"><a xlink:href="WiderType_8hpp.html" target="_top" xlink:title="Definition of the WiderType alias template.">
<polygon fill="white" stroke="black" points="248,-313.5 248,-332.5 376,-332.5 376,-313.5 248,-313.5"/>
<text text-anchor="middle" x="312" y="-320.5" font-family="Helvetica,sans-Serif" font-size="10.00">playrho/WiderType.hpp</text>
</a>
</g>
</g>
<!-- Node8&#45;&gt;Node21 -->
<g id="edge33" class="edge">
<title>Node8&#45;&gt;Node21</title>
<path fill="none" stroke="midnightblue" d="M507.24,-369.44C466.94,-360.06 402.19,-344.99 358.42,-334.8"/>
<polygon fill="midnightblue" stroke="midnightblue" points="359.12,-331.37 348.59,-332.52 357.54,-338.19 359.12,-331.37"/>
</g>
<!-- Node11&#45;&gt;Node10 -->
<g id="edge12" class="edge">
<title>Node11&#45;&gt;Node10</title>
<path fill="none" stroke="midnightblue" d="M698,-195.73C698,-186.18 698,-170.62 698,-158.28"/>
<polygon fill="midnightblue" stroke="midnightblue" points="701.5,-158.13 698,-148.13 694.5,-158.13 701.5,-158.13"/>
</g>
<!-- Node12 -->
<g id="node12" class="node">
<title>Node12</title>
<g id="a_node12"><a xlink:href="Templates_8hpp.html" target="_top" xlink:title="Definitions of miscellaneous template related code.">
<polygon fill="white" stroke="black" points="810,-129 810,-148 938,-148 938,-129 810,-129"/>
<text text-anchor="middle" x="874" y="-136" font-family="Helvetica,sans-Serif" font-size="10.00">playrho/Templates.hpp</text>
</a>
</g>
</g>
<!-- Node11&#45;&gt;Node12 -->
<g id="edge13" class="edge">
<title>Node11&#45;&gt;Node12</title>
<path fill="none" stroke="midnightblue" d="M721.37,-195.87C752.09,-184.52 806.24,-164.52 841.1,-151.65"/>
<polygon fill="midnightblue" stroke="midnightblue" points="842.64,-154.81 850.81,-148.06 840.22,-148.24 842.64,-154.81"/>
</g>
<!-- Node12&#45;&gt;Node2 -->
<g id="edge14" class="edge">
<title>Node12&#45;&gt;Node2</title>
<path fill="none" stroke="midnightblue" d="M870.36,-128.73C866.31,-118.99 859.66,-102.98 854.49,-90.53"/>
<polygon fill="midnightblue" stroke="midnightblue" points="857.65,-89.02 850.58,-81.13 851.19,-91.7 857.65,-89.02"/>
</g>
<!-- Node12&#45;&gt;Node7 -->
<g id="edge15" class="edge">
<title>Node12&#45;&gt;Node7</title>
<path fill="none" stroke="midnightblue" d="M875.79,-128.81C879.96,-108.49 890.43,-57.55 896.14,-29.78"/>
<polygon fill="midnightblue" stroke="midnightblue" points="899.62,-30.26 898.2,-19.76 892.76,-28.85 899.62,-30.26"/>
</g>
<!-- Node13 -->
<g id="node13" class="node">
<title>Node13</title>
<g id="a_node13"><a xlink:href="detail_2Templates_8hpp.html" target="_top" xlink:title="Low&#45;level declarations for general class &amp; function templates.">
<polygon fill="white" stroke="black" points="1135,-62 1135,-81 1293,-81 1293,-62 1135,-62"/>
<text text-anchor="middle" x="1214" y="-69" font-family="Helvetica,sans-Serif" font-size="10.00">playrho/detail/Templates.hpp</text>
</a>
</g>
</g>
<!-- Node12&#45;&gt;Node13 -->
<g id="edge16" class="edge">
<title>Node12&#45;&gt;Node13</title>
<path fill="none" stroke="midnightblue" d="M918.8,-128.94C980.8,-117.08 1092.67,-95.7 1159.46,-82.93"/>
<polygon fill="midnightblue" stroke="midnightblue" points="1160.21,-86.35 1169.37,-81.03 1158.89,-79.47 1160.21,-86.35"/>
</g>
<!-- Node13&#45;&gt;Node5 -->
<g id="edge21" class="edge">
<title>Node13&#45;&gt;Node5</title>
<path fill="none" stroke="midnightblue" d="M1234.77,-61.98C1259.43,-51.86 1300.75,-34.9 1328.9,-23.35"/>
<polygon fill="midnightblue" stroke="midnightblue" points="1330.34,-26.54 1338.26,-19.51 1327.68,-20.07 1330.34,-26.54"/>
</g>
<!-- Node13&#45;&gt;Node6 -->
<g id="edge18" class="edge">
<title>Node13&#45;&gt;Node6</title>
<path fill="none" stroke="midnightblue" d="M1195.8,-61.98C1174.49,-51.99 1138.97,-35.35 1114.34,-23.81"/>
<polygon fill="midnightblue" stroke="midnightblue" points="1115.7,-20.58 1105.16,-19.51 1112.73,-26.92 1115.7,-20.58"/>
</g>
<!-- Node13&#45;&gt;Node7 -->
<g id="edge20" class="edge">
<title>Node13&#45;&gt;Node7</title>
<path fill="none" stroke="midnightblue" d="M1169.01,-61.98C1109.22,-50.64 1004.2,-30.74 944.6,-19.45"/>
<polygon fill="midnightblue" stroke="midnightblue" points="945.21,-16 934.73,-17.58 943.9,-22.88 945.21,-16"/>
</g>
<!-- Node14 -->
<g id="node14" class="node">
<title>Node14</title>
<g id="a_node14"><a xlink:title=" ">
<polygon fill="white" stroke="#bfbfbf" points="1746,-0.5 1746,-19.5 1810,-19.5 1810,-0.5 1746,-0.5"/>
<text text-anchor="middle" x="1778" y="-7.5" font-family="Helvetica,sans-Serif" font-size="10.00">algorithm</text>
</a>
</g>
</g>
<!-- Node13&#45;&gt;Node14 -->
<g id="edge17" class="edge">
<title>Node13&#45;&gt;Node14</title>
<path fill="none" stroke="midnightblue" d="M1293.02,-62.16C1414.28,-49.37 1642.09,-25.34 1735.94,-15.44"/>
<polygon fill="midnightblue" stroke="midnightblue" points="1736.34,-18.91 1745.92,-14.38 1735.61,-11.95 1736.34,-18.91"/>
</g>
<!-- Node15 -->
<g id="node15" class="node">
<title>Node15</title>
<g id="a_node15"><a xlink:title=" ">
<polygon fill="white" stroke="#bfbfbf" points="1226.5,-0.5 1226.5,-19.5 1279.5,-19.5 1279.5,-0.5 1226.5,-0.5"/>
<text text-anchor="middle" x="1253" y="-7.5" font-family="Helvetica,sans-Serif" font-size="10.00">iterator</text>
</a>
</g>
</g>
<!-- Node13&#45;&gt;Node15 -->
<g id="edge19" class="edge">
<title>Node13&#45;&gt;Node15</title>
<path fill="none" stroke="midnightblue" d="M1219.59,-61.98C1225.38,-53.14 1234.59,-39.09 1241.87,-27.98"/>
<polygon fill="midnightblue" stroke="midnightblue" points="1244.87,-29.79 1247.42,-19.51 1239.01,-25.95 1244.87,-29.79"/>
</g>
<!-- Node16&#45;&gt;Node11 -->
<g id="edge23" class="edge">
<title>Node16&#45;&gt;Node11</title>
<path fill="none" stroke="midnightblue" d="M653.45,-257.48C661.33,-248.46 673.94,-234.02 683.74,-222.81"/>
<polygon fill="midnightblue" stroke="midnightblue" points="686.62,-224.84 690.56,-215.01 681.35,-220.24 686.62,-224.84"/>
</g>
<!-- Node17&#45;&gt;Node7 -->
<g id="edge26" class="edge">
<title>Node17&#45;&gt;Node7</title>
<path fill="none" stroke="midnightblue" d="M708.26,-320.46C598.49,-316.65 350.27,-305.01 325,-277 319.05,-270.4 323.54,-265.77 325,-257 327.59,-241.47 360.01,-134.27 371,-123 438.51,-53.73 740.1,-23.41 855.18,-14.22"/>
<polygon fill="midnightblue" stroke="midnightblue" points="855.7,-17.69 865.4,-13.42 855.16,-10.71 855.7,-17.69"/>
</g>
<!-- Node17&#45;&gt;Node11 -->
<g id="edge27" class="edge">
<title>Node17&#45;&gt;Node11</title>
<path fill="none" stroke="midnightblue" d="M770.34,-313.4C784.23,-300.79 805.85,-276.62 794,-257 782.76,-238.38 762.12,-226.29 742.85,-218.61"/>
<polygon fill="midnightblue" stroke="midnightblue" points="743.85,-215.25 733.26,-215.1 741.44,-221.82 743.85,-215.25"/>
</g>
<!-- Node17&#45;&gt;Node12 -->
<g id="edge29" class="edge">
<title>Node17&#45;&gt;Node12</title>
<path fill="none" stroke="midnightblue" d="M771.97,-313.47C782.97,-305.15 799.17,-291.65 810,-277 838.47,-238.5 858.79,-185.31 868.17,-157.73"/>
<polygon fill="midnightblue" stroke="midnightblue" points="871.51,-158.79 871.32,-148.2 864.86,-156.59 871.51,-158.79"/>
</g>
<!-- Node17&#45;&gt;Node16 -->
<g id="edge28" class="edge">
<title>Node17&#45;&gt;Node16</title>
<path fill="none" stroke="midnightblue" d="M741.94,-313.44C723.43,-304.68 694.42,-290.94 673.14,-280.86"/>
<polygon fill="midnightblue" stroke="midnightblue" points="674.51,-277.63 663.98,-276.52 671.52,-283.96 674.51,-277.63"/>
</g>
<!-- Node18 -->
<g id="node18" class="node">
<title>Node18</title>
<g id="a_node18"><a xlink:title=" ">
<polygon fill="white" stroke="#bfbfbf" points="738.5,-257.5 738.5,-276.5 785.5,-276.5 785.5,-257.5 738.5,-257.5"/>
<text text-anchor="middle" x="762" y="-264.5" font-family="Helvetica,sans-Serif" font-size="10.00">cmath</text>
</a>
</g>
</g>
<!-- Node17&#45;&gt;Node18 -->
<g id="edge25" class="edge">
<title>Node17&#45;&gt;Node18</title>
<path fill="none" stroke="midnightblue" d="M760.33,-313.08C760.59,-306.01 760.97,-295.86 761.3,-286.99"/>
<polygon fill="midnightblue" stroke="midnightblue" points="764.8,-286.87 761.68,-276.75 757.81,-286.61 764.8,-286.87"/>
</g>
<!-- Node19 -->
<g id="node19" class="node">
<title>Node19</title>
<g id="a_node19"><a xlink:href="to__underlying_8hpp.html" target="_top" xlink:title="Definition of to_underlying function template.">
<polygon fill="white" stroke="black" points="334,-257.5 334,-276.5 478,-276.5 478,-257.5 334,-257.5"/>
<text text-anchor="middle" x="406" y="-264.5" font-family="Helvetica,sans-Serif" font-size="10.00">playrho/to_underlying.hpp</text>
</a>
</g>
</g>
<!-- Node17&#45;&gt;Node19 -->
<g id="edge30" class="edge">
<title>Node17&#45;&gt;Node19</title>
<path fill="none" stroke="midnightblue" d="M708.15,-314.09C645.58,-304.55 540.31,-288.49 472.01,-278.07"/>
<polygon fill="midnightblue" stroke="midnightblue" points="472.2,-274.56 461.79,-276.51 471.15,-281.48 472.2,-274.56"/>
</g>
<!-- Node20 -->
<g id="node20" class="node">
<title>Node20</title>
<g id="a_node20"><a xlink:href="underlying__type_8hpp.html" target="_top" xlink:title="Definition of underlying_type trait class and related code.">
<polygon fill="white" stroke="black" points="380.5,-123.5 380.5,-153.5 519.5,-153.5 519.5,-123.5 380.5,-123.5"/>
<text text-anchor="start" x="388.5" y="-141.5" font-family="Helvetica,sans-Serif" font-size="10.00">playrho/detail/underlying</text>
<text text-anchor="middle" x="450" y="-130.5" font-family="Helvetica,sans-Serif" font-size="10.00">_type.hpp</text>
</a>
</g>
</g>
<!-- Node19&#45;&gt;Node20 -->
<g id="edge31" class="edge">
<title>Node19&#45;&gt;Node20</title>
<path fill="none" stroke="midnightblue" d="M409.02,-257.31C415.66,-238.21 431.72,-192.07 441.64,-163.52"/>
<polygon fill="midnightblue" stroke="midnightblue" points="445.02,-164.48 445,-153.89 438.4,-162.18 445.02,-164.48"/>
</g>
<!-- Node20&#45;&gt;Node7 -->
<g id="edge32" class="edge">
<title>Node20&#45;&gt;Node7</title>
<path fill="none" stroke="midnightblue" d="M475.56,-123.44C509.9,-105.16 573.29,-73.5 631,-56 707.89,-32.68 801.04,-20.51 855.11,-14.95"/>
<polygon fill="midnightblue" stroke="midnightblue" points="855.78,-18.4 865.38,-13.92 855.08,-11.43 855.78,-18.4"/>
</g>
<!-- Node22 -->
<g id="node22" class="node">
<title>Node22</title>
<g id="a_node22"><a xlink:href="Wider_8hpp.html" target="_top" xlink:title="Definition of the Wider class template and specializations.">
<polygon fill="white" stroke="black" points="142,-257.5 142,-276.5 278,-276.5 278,-257.5 142,-257.5"/>
<text text-anchor="middle" x="210" y="-264.5" font-family="Helvetica,sans-Serif" font-size="10.00">playrho/detail/Wider.hpp</text>
</a>
</g>
</g>
<!-- Node21&#45;&gt;Node22 -->
<g id="edge34" class="edge">
<title>Node21&#45;&gt;Node22</title>
<path fill="none" stroke="midnightblue" d="M295.61,-313.32C279.33,-304.7 254.13,-291.36 235.28,-281.39"/>
<polygon fill="midnightblue" stroke="midnightblue" points="236.82,-278.24 226.35,-276.65 233.55,-284.43 236.82,-278.24"/>
</g>
<!-- Node22&#45;&gt;Node7 -->
<g id="edge36" class="edge">
<title>Node22&#45;&gt;Node7</title>
<path fill="none" stroke="midnightblue" d="M206.2,-257.17C200.51,-242.58 191.42,-212.78 201,-190 234.03,-111.49 260.48,-91.28 338,-56 429.9,-14.17 738.68,-10.54 855.08,-10.7"/>
<polygon fill="midnightblue" stroke="midnightblue" points="855.4,-14.2 865.41,-10.73 855.42,-7.2 855.4,-14.2"/>
</g>
<!-- Node22&#45;&gt;Node9 -->
<g id="edge35" class="edge">
<title>Node22&#45;&gt;Node9</title>
<path fill="none" stroke="midnightblue" d="M198.39,-257.48C185.52,-248.02 164.53,-232.6 148.99,-221.19"/>
<polygon fill="midnightblue" stroke="midnightblue" points="150.72,-218.11 140.58,-215.01 146.57,-223.75 150.72,-218.11"/>
</g>
<!-- Node23 -->
<g id="node23" class="node">
<title>Node23</title>
<g id="a_node23"><a xlink:href="Defines_8hpp.html" target="_top" xlink:title="Miscellaneous C&#45;preprocessor definitions.">
<polygon fill="white" stroke="black" points="210,-196 210,-215 324,-215 324,-196 210,-196"/>
<text text-anchor="middle" x="267" y="-203" font-family="Helvetica,sans-Serif" font-size="10.00">playrho/Defines.hpp</text>
</a>
</g>
</g>
<!-- Node22&#45;&gt;Node23 -->
<g id="edge37" class="edge">
<title>Node22&#45;&gt;Node23</title>
<path fill="none" stroke="midnightblue" d="M218.17,-257.48C226.89,-248.37 240.9,-233.74 251.69,-222.48"/>
<polygon fill="midnightblue" stroke="midnightblue" points="254.46,-224.65 258.85,-215.01 249.4,-219.81 254.46,-224.65"/>
</g>
<!-- Node24&#45;&gt;Node5 -->
<g id="edge44" class="edge">
<title>Node24&#45;&gt;Node5</title>
<path fill="none" stroke="midnightblue" d="M1463.73,-322.75C1580.01,-321.87 1826.43,-306.57 1766,-190 1692.99,-49.18 1474.95,-19.1 1391.75,-12.71"/>
<polygon fill="midnightblue" stroke="midnightblue" points="1391.83,-9.21 1381.61,-12 1391.34,-16.19 1391.83,-9.21"/>
</g>
<!-- Node24&#45;&gt;Node7 -->
<g id="edge43" class="edge">
<title>Node24&#45;&gt;Node7</title>
<path fill="none" stroke="midnightblue" d="M1391.94,-313.36C1321.87,-270.29 1010.29,-78.79 922.87,-25.06"/>
<polygon fill="midnightblue" stroke="midnightblue" points="924.59,-22 914.23,-19.75 920.92,-27.97 924.59,-22"/>
</g>
<!-- Node24&#45;&gt;Node10 -->
<g id="edge40" class="edge">
<title>Node24&#45;&gt;Node10</title>
<path fill="none" stroke="midnightblue" d="M1348.33,-321.04C1269.64,-318.5 1124.84,-309.37 1006,-277 894.53,-246.64 771.95,-181.41 721.58,-153.09"/>
<polygon fill="midnightblue" stroke="midnightblue" points="723.19,-149.98 712.77,-148.09 719.74,-156.07 723.19,-149.98"/>
</g>
<!-- Node24&#45;&gt;Node14 -->
<g id="edge39" class="edge">
<title>Node24&#45;&gt;Node14</title>
<path fill="none" stroke="midnightblue" d="M1463.73,-319.94C1551.92,-315.94 1715.31,-304.91 1766,-277 1801.54,-257.43 1824,-247.07 1824,-206.5 1824,-206.5 1824,-206.5 1824,-137.5 1824,-96.4 1802.29,-52.07 1788.7,-28.34"/>
<polygon fill="midnightblue" stroke="midnightblue" points="1791.57,-26.32 1783.46,-19.5 1785.55,-29.89 1791.57,-26.32"/>
</g>
<!-- Node25 -->
<g id="node25" class="node">
<title>Node25</title>
<g id="a_node25"><a xlink:title=" ">
<polygon fill="white" stroke="#bfbfbf" points="1364.5,-257.5 1364.5,-276.5 1447.5,-276.5 1447.5,-257.5 1364.5,-257.5"/>
<text text-anchor="middle" x="1406" y="-264.5" font-family="Helvetica,sans-Serif" font-size="10.00">initializer_list</text>
</a>
</g>
</g>
<!-- Node24&#45;&gt;Node25 -->
<g id="edge41" class="edge">
<title>Node24&#45;&gt;Node25</title>
<path fill="none" stroke="midnightblue" d="M1406,-313.08C1406,-306.01 1406,-295.86 1406,-286.99"/>
<polygon fill="midnightblue" stroke="midnightblue" points="1409.5,-286.75 1406,-276.75 1402.5,-286.75 1409.5,-286.75"/>
</g>
<!-- Node26 -->
<g id="node26" class="node">
<title>Node26</title>
<g id="a_node26"><a xlink:title=" ">
<polygon fill="white" stroke="#bfbfbf" points="1288,-129 1288,-148 1348,-148 1348,-129 1288,-129"/>
<text text-anchor="middle" x="1318" y="-136" font-family="Helvetica,sans-Serif" font-size="10.00">iostream</text>
</a>
</g>
</g>
<!-- Node24&#45;&gt;Node26 -->
<g id="edge42" class="edge">
<title>Node24&#45;&gt;Node26</title>
<path fill="none" stroke="midnightblue" d="M1392.27,-313.31C1380.67,-305.26 1364.46,-292.25 1355,-277 1331.51,-239.14 1322.75,-186.43 1319.63,-158.55"/>
<polygon fill="midnightblue" stroke="midnightblue" points="1323.08,-157.84 1318.61,-148.23 1316.11,-158.53 1323.08,-157.84"/>
</g>
<!-- Node27 -->
<g id="node27" class="node">
<title>Node27</title>
<g id="a_node27"><a xlink:href="NonNegative_8hpp.html" target="_top" xlink:title="Definition of the NonNegative value checked types.">
<polygon fill="white" stroke="black" points="1465.5,-257.5 1465.5,-276.5 1606.5,-276.5 1606.5,-257.5 1465.5,-257.5"/>
<text text-anchor="middle" x="1536" y="-264.5" font-family="Helvetica,sans-Serif" font-size="10.00">playrho/NonNegative.hpp</text>
</a>
</g>
</g>
<!-- Node24&#45;&gt;Node27 -->
<g id="edge45" class="edge">
<title>Node24&#45;&gt;Node27</title>
<path fill="none" stroke="midnightblue" d="M1426.6,-313.44C1447.99,-304.56 1481.68,-290.56 1506.02,-280.45"/>
<polygon fill="midnightblue" stroke="midnightblue" points="1507.61,-283.58 1515.5,-276.52 1504.92,-277.12 1507.61,-283.58"/>
</g>
<!-- Node27&#45;&gt;Node7 -->
<g id="edge46" class="edge">
<title>Node27&#45;&gt;Node7</title>
<path fill="none" stroke="midnightblue" d="M1489.93,-257.49C1452.64,-249.92 1399.09,-237.5 1354,-221 1227.82,-174.83 1195.99,-159.71 1083,-87 1064.67,-75.21 1064.2,-66.31 1045,-56 1013.32,-39 974.23,-27.34 944.62,-20.15"/>
<polygon fill="midnightblue" stroke="midnightblue" points="945.11,-16.67 934.57,-17.8 943.51,-23.49 945.11,-16.67"/>
</g>
<!-- Node28 -->
<g id="node28" class="node">
<title>Node28</title>
<g id="a_node28"><a xlink:href="Checked_8hpp.html" target="_top" xlink:title="Declarations of the Checked class template and closely related code.">
<polygon fill="white" stroke="black" points="1363.5,-196 1363.5,-215 1512.5,-215 1512.5,-196 1363.5,-196"/>
<text text-anchor="middle" x="1438" y="-203" font-family="Helvetica,sans-Serif" font-size="10.00">playrho/detail/Checked.hpp</text>
</a>
</g>
</g>
<!-- Node27&#45;&gt;Node28 -->
<g id="edge47" class="edge">
<title>Node27&#45;&gt;Node28</title>
<path fill="none" stroke="midnightblue" d="M1521.96,-257.48C1505.95,-247.75 1479.55,-231.73 1460.63,-220.24"/>
<polygon fill="midnightblue" stroke="midnightblue" points="1462.38,-217.21 1452.01,-215.01 1458.75,-223.19 1462.38,-217.21"/>
</g>
<!-- Node31 -->
<g id="node31" class="node">
<title>Node31</title>
<g id="a_node31"><a xlink:href="NonNegativeChecker_8hpp.html" target="_top" xlink:title="Definition of the NonNegativeChecker class template.">
<polygon fill="white" stroke="black" points="1606.5,-190.5 1606.5,-220.5 1757.5,-220.5 1757.5,-190.5 1606.5,-190.5"/>
<text text-anchor="start" x="1614.5" y="-208.5" font-family="Helvetica,sans-Serif" font-size="10.00">playrho/detail/NonNegative</text>
<text text-anchor="middle" x="1682" y="-197.5" font-family="Helvetica,sans-Serif" font-size="10.00">Checker.hpp</text>
</a>
</g>
</g>
<!-- Node27&#45;&gt;Node31 -->
<g id="edge54" class="edge">
<title>Node27&#45;&gt;Node31</title>
<path fill="none" stroke="midnightblue" d="M1556.92,-257.48C1577.99,-248.89 1611.13,-235.38 1638.01,-224.43"/>
<polygon fill="midnightblue" stroke="midnightblue" points="1639.65,-227.54 1647.59,-220.52 1637.01,-221.06 1639.65,-227.54"/>
</g>
<!-- Node28&#45;&gt;Node5 -->
<g id="edge50" class="edge">
<title>Node28&#45;&gt;Node5</title>
<path fill="none" stroke="midnightblue" d="M1434.5,-195.94C1422.55,-166.66 1383.15,-70.15 1366.51,-29.41"/>
<polygon fill="midnightblue" stroke="midnightblue" points="1369.66,-27.84 1362.64,-19.91 1363.18,-30.49 1369.66,-27.84"/>
</g>
<!-- Node28&#45;&gt;Node7 -->
<g id="edge49" class="edge">
<title>Node28&#45;&gt;Node7</title>
<path fill="none" stroke="midnightblue" d="M1432.3,-195.83C1420.51,-178.71 1391.66,-140.67 1357,-123 1264.43,-75.8 1222.12,-126.47 1126,-87 1104.21,-78.05 1104.39,-65.88 1083,-56 1038.34,-35.36 983.01,-23.44 944.95,-17.12"/>
<polygon fill="midnightblue" stroke="midnightblue" points="945.13,-13.61 934.7,-15.48 944.02,-20.52 945.13,-13.61"/>
</g>
<!-- Node28&#45;&gt;Node12 -->
<g id="edge53" class="edge">
<title>Node28&#45;&gt;Node12</title>
<path fill="none" stroke="midnightblue" d="M1363.98,-195.97C1255.99,-183.52 1056.38,-160.52 948.25,-148.06"/>
<polygon fill="midnightblue" stroke="midnightblue" points="948.42,-144.55 938.08,-146.89 947.62,-151.51 948.42,-144.55"/>
</g>
<!-- Node28&#45;&gt;Node26 -->
<g id="edge48" class="edge">
<title>Node28&#45;&gt;Node26</title>
<path fill="none" stroke="midnightblue" d="M1421.82,-195.73C1401.57,-184.77 1366.7,-165.88 1343.01,-153.05"/>
<polygon fill="midnightblue" stroke="midnightblue" points="1344.39,-149.81 1333.93,-148.13 1341.05,-155.97 1344.39,-149.81"/>
</g>
<!-- Node29 -->
<g id="node29" class="node">
<title>Node29</title>
<g id="a_node29"><a xlink:href="InvalidArgument_8hpp.html" target="_top" xlink:title="Definition of the InvalidArgument class.">
<polygon fill="white" stroke="black" points="1456,-129 1456,-148 1614,-148 1614,-129 1456,-129"/>
<text text-anchor="middle" x="1535" y="-136" font-family="Helvetica,sans-Serif" font-size="10.00">playrho/InvalidArgument.hpp</text>
</a>
</g>
</g>
<!-- Node28&#45;&gt;Node29 -->
<g id="edge51" class="edge">
<title>Node28&#45;&gt;Node29</title>
<path fill="none" stroke="midnightblue" d="M1451.08,-195.73C1467.15,-184.96 1494.63,-166.55 1513.75,-153.74"/>
<polygon fill="midnightblue" stroke="midnightblue" points="1515.77,-156.6 1522.13,-148.13 1511.87,-150.79 1515.77,-156.6"/>
</g>
<!-- Node30 -->
<g id="node30" class="node">
<title>Node30</title>
<g id="a_node30"><a xlink:title=" ">
<polygon fill="white" stroke="#bfbfbf" points="1502.5,-62 1502.5,-81 1567.5,-81 1567.5,-62 1502.5,-62"/>
<text text-anchor="middle" x="1535" y="-69" font-family="Helvetica,sans-Serif" font-size="10.00">stdexcept</text>
</a>
</g>
</g>
<!-- Node29&#45;&gt;Node30 -->
<g id="edge52" class="edge">
<title>Node29&#45;&gt;Node30</title>
<path fill="none" stroke="midnightblue" d="M1535,-128.73C1535,-119.18 1535,-103.62 1535,-91.28"/>
<polygon fill="midnightblue" stroke="midnightblue" points="1538.5,-91.13 1535,-81.13 1531.5,-91.13 1538.5,-91.13"/>
</g>
<!-- Node32&#45;&gt;Node17 -->
<g id="edge57" class="edge">
<title>Node32&#45;&gt;Node17</title>
<path fill="none" stroke="midnightblue" d="M866.03,-369.44C845.39,-360.6 812.94,-346.69 789.37,-336.59"/>
<polygon fill="midnightblue" stroke="midnightblue" points="790.44,-333.24 779.87,-332.52 787.68,-339.67 790.44,-333.24"/>
</g>
<!-- Node32&#45;&gt;Node24 -->
<g id="edge56" class="edge">
<title>Node32&#45;&gt;Node24</title>
<path fill="none" stroke="midnightblue" d="M946.16,-371.75C1043.73,-361.62 1235.85,-341.67 1338.15,-331.05"/>
<polygon fill="midnightblue" stroke="midnightblue" points="1338.78,-334.5 1348.37,-329.99 1338.06,-327.54 1338.78,-334.5"/>
</g>
<!-- Node33&#45;&gt;Node4 -->
<g id="edge60" class="edge">
<title>Node33&#45;&gt;Node4</title>
<path fill="none" stroke="midnightblue" d="M511.48,-425.5C376.58,-404.1 38,-347.99 38,-324 38,-324 38,-324 38,-266 38,-223.78 58.05,-210.43 95,-190 179.5,-143.28 434.22,-176.98 528,-154 585.9,-139.81 648.8,-110.6 686.81,-91.28"/>
<polygon fill="midnightblue" stroke="midnightblue" points="688.63,-94.28 695.92,-86.6 685.43,-88.06 688.63,-94.28"/>
</g>
<!-- Node33&#45;&gt;Node8 -->
<g id="edge61" class="edge">
<title>Node33&#45;&gt;Node8</title>
<path fill="none" stroke="midnightblue" d="M562.37,-425.08C559.39,-417.77 555.07,-407.18 551.38,-398.1"/>
<polygon fill="midnightblue" stroke="midnightblue" points="554.58,-396.69 547.57,-388.75 548.1,-399.33 554.58,-396.69"/>
</g>
<!-- Node34&#45;&gt;Node5 -->
<g id="edge65" class="edge">
<title>Node34&#45;&gt;Node5</title>
<path fill="none" stroke="midnightblue" d="M982.91,-425.21C1006.97,-401.46 1075.14,-333.98 1131,-277 1197.45,-209.21 1210.79,-189.02 1279,-123 1296.19,-106.37 1304.31,-105.88 1319,-87 1333.12,-68.85 1344.74,-44.99 1351.76,-28.88"/>
<polygon fill="midnightblue" stroke="midnightblue" points="1355.03,-30.13 1355.68,-19.56 1348.57,-27.42 1355.03,-30.13"/>
</g>
<!-- Node34&#45;&gt;Node8 -->
<g id="edge77" class="edge">
<title>Node34&#45;&gt;Node8</title>
<path fill="none" stroke="midnightblue" d="M906.34,-425.5C826.16,-415.43 693.31,-398.75 612.69,-388.63"/>
<polygon fill="midnightblue" stroke="midnightblue" points="612.99,-385.14 602.64,-387.36 612.12,-392.08 612.99,-385.14"/>
</g>
<!-- Node34&#45;&gt;Node12 -->
<g id="edge78" class="edge">
<title>Node34&#45;&gt;Node12</title>
<path fill="none" stroke="midnightblue" d="M971.57,-425.12C968.1,-412.56 961.42,-388.92 955,-369 929.41,-289.6 895.11,-196.16 880.76,-157.57"/>
<polygon fill="midnightblue" stroke="midnightblue" points="884.04,-156.34 877.26,-148.2 877.48,-158.79 884.04,-156.34"/>
</g>
<!-- Node34&#45;&gt;Node14 -->
<g id="edge64" class="edge">
<title>Node34&#45;&gt;Node14</title>
<path fill="none" stroke="midnightblue" d="M1041.84,-432.71C1249.42,-427.86 1862,-406.58 1862,-324 1862,-324 1862,-324 1862,-137.5 1862,-90.84 1821.85,-48.23 1797.06,-26.38"/>
<polygon fill="midnightblue" stroke="midnightblue" points="1799.21,-23.61 1789.33,-19.78 1794.67,-28.93 1799.21,-23.61"/>
</g>
<!-- Node34&#45;&gt;Node32 -->
<g id="edge66" class="edge">
<title>Node34&#45;&gt;Node32</title>
<path fill="none" stroke="midnightblue" d="M959.86,-425.32C946.13,-416.9 925.06,-403.97 908.94,-394.07"/>
<polygon fill="midnightblue" stroke="midnightblue" points="910.46,-390.9 900.1,-388.65 906.8,-396.87 910.46,-390.9"/>
</g>
<!-- Node35 -->
<g id="node35" class="node">
<title>Node35</title>
<g id="a_node35"><a xlink:href="Vector_8hpp.html" target="_top" xlink:title="Definition of the Vector class template and closely related code.">
<polygon fill="white" stroke="black" points="1015.5,-257.5 1015.5,-276.5 1122.5,-276.5 1122.5,-257.5 1015.5,-257.5"/>
<text text-anchor="middle" x="1069" y="-264.5" font-family="Helvetica,sans-Serif" font-size="10.00">playrho/Vector.hpp</text>
</a>
</g>
</g>
<!-- Node34&#45;&gt;Node35 -->
<g id="edge67" class="edge">
<title>Node34&#45;&gt;Node35</title>
<path fill="none" stroke="midnightblue" d="M979.11,-425.08C994.19,-398.72 1038.74,-320.88 1058.89,-285.66"/>
<polygon fill="midnightblue" stroke="midnightblue" points="1062.17,-286.99 1064.1,-276.57 1056.09,-283.51 1062.17,-286.99"/>
</g>
<!-- Node35&#45;&gt;Node7 -->
<g id="edge70" class="edge">
<title>Node35&#45;&gt;Node7</title>
<path fill="none" stroke="midnightblue" d="M1042.74,-257.49C1024.37,-250.35 1000.46,-238.47 985,-221 954.04,-186.02 964.48,-166.32 947,-123 933.57,-89.73 917.23,-51.2 907.78,-29.11"/>
<polygon fill="midnightblue" stroke="midnightblue" points="910.89,-27.49 903.74,-19.68 904.46,-30.25 910.89,-27.49"/>
</g>
<!-- Node35&#45;&gt;Node11 -->
<g id="edge75" class="edge">
<title>Node35&#45;&gt;Node11</title>
<path fill="none" stroke="midnightblue" d="M1015.84,-257.48C947.57,-246.53 829.4,-227.57 757.98,-216.12"/>
<polygon fill="midnightblue" stroke="midnightblue" points="758.22,-212.61 747.79,-214.49 757.11,-219.53 758.22,-212.61"/>
</g>
<!-- Node35&#45;&gt;Node12 -->
<g id="edge76" class="edge">
<title>Node35&#45;&gt;Node12</title>
<path fill="none" stroke="midnightblue" d="M1035.62,-257.44C1011.14,-250.18 977.82,-238.18 952,-221 925.34,-203.26 900.92,-174.93 886.75,-156.78"/>
<polygon fill="midnightblue" stroke="midnightblue" points="889.16,-154.17 880.32,-148.33 883.59,-158.41 889.16,-154.17"/>
</g>
<!-- Node35&#45;&gt;Node14 -->
<g id="edge72" class="edge">
<title>Node35&#45;&gt;Node14</title>
<path fill="none" stroke="midnightblue" d="M1122.59,-264.89C1230.11,-262.02 1468.26,-252.24 1543,-221 1595.75,-198.95 1718.99,-72.94 1762.47,-27.41"/>
<polygon fill="midnightblue" stroke="midnightblue" points="1765.27,-29.55 1769.63,-19.89 1760.2,-24.72 1765.27,-29.55"/>
</g>
<!-- Node35&#45;&gt;Node15 -->
<g id="edge71" class="edge">
<title>Node35&#45;&gt;Node15</title>
<path fill="none" stroke="midnightblue" d="M1080.19,-257.47C1091.93,-248.49 1110.87,-233.89 1127,-221 1180.52,-178.22 1190.64,-163.37 1246,-123 1269.91,-105.57 1287.82,-112.97 1302,-87 1308.6,-74.91 1307.54,-68.61 1302,-56 1296.61,-43.73 1286.04,-33.34 1276.1,-25.65"/>
<polygon fill="midnightblue" stroke="midnightblue" points="1277.83,-22.58 1267.66,-19.6 1273.75,-28.27 1277.83,-22.58"/>
</g>
<!-- Node35&#45;&gt;Node26 -->
<g id="edge73" class="edge">
<title>Node35&#45;&gt;Node26</title>
<path fill="none" stroke="midnightblue" d="M1100.69,-257.47C1127.39,-249.69 1166.22,-236.99 1198,-221 1236.13,-201.82 1276.38,-172.31 1299.22,-154.56"/>
<polygon fill="midnightblue" stroke="midnightblue" points="1301.65,-157.09 1307.35,-148.16 1297.33,-151.59 1301.65,-157.09"/>
</g>
<!-- Node35&#45;&gt;Node29 -->
<g id="edge74" class="edge">
<title>Node35&#45;&gt;Node29</title>
<path fill="none" stroke="midnightblue" d="M1122.83,-264.25C1236.38,-260.04 1492.36,-247.67 1521,-221 1537.96,-205.2 1539.1,-176.93 1537.62,-158.19"/>
<polygon fill="midnightblue" stroke="midnightblue" points="1541.1,-157.74 1536.52,-148.19 1534.14,-158.51 1541.1,-157.74"/>
</g>
<!-- Node36 -->
<g id="node36" class="node">
<title>Node36</title>
<g id="a_node36"><a xlink:title=" ">
<polygon fill="white" stroke="#bfbfbf" points="1066,-196 1066,-215 1118,-215 1118,-196 1066,-196"/>
<text text-anchor="middle" x="1092" y="-203" font-family="Helvetica,sans-Serif" font-size="10.00">cassert</text>
</a>
</g>
</g>
<!-- Node35&#45;&gt;Node36 -->
<g id="edge68" class="edge">
<title>Node35&#45;&gt;Node36</title>
<path fill="none" stroke="midnightblue" d="M1072.3,-257.48C1075.61,-248.9 1080.82,-235.43 1085.05,-224.48"/>
<polygon fill="midnightblue" stroke="midnightblue" points="1088.37,-225.6 1088.71,-215.01 1081.84,-223.07 1088.37,-225.6"/>
</g>
<!-- Node37 -->
<g id="node37" class="node">
<title>Node37</title>
<g id="a_node37"><a xlink:title=" ">
<polygon fill="white" stroke="#bfbfbf" points="994.5,-196 994.5,-215 1047.5,-215 1047.5,-196 994.5,-196"/>
<text text-anchor="middle" x="1021" y="-203" font-family="Helvetica,sans-Serif" font-size="10.00">cstddef</text>
</a>
</g>
</g>
<!-- Node35&#45;&gt;Node37 -->
<g id="edge69" class="edge">
<title>Node35&#45;&gt;Node37</title>
<path fill="none" stroke="midnightblue" d="M1062.12,-257.48C1054.85,-248.46 1043.2,-234.02 1034.16,-222.81"/>
<polygon fill="midnightblue" stroke="midnightblue" points="1036.87,-220.59 1027.86,-215.01 1031.42,-224.99 1036.87,-220.59"/>
</g>
</g>
</svg>
