<?xml version="1.0" encoding="UTF-8" standalone="no"?>
<!DOCTYPE svg PUBLIC "-//W3C//DTD SVG 1.1//EN"
 "http://www.w3.org/Graphics/SVG/1.1/DTD/svg11.dtd">
<!-- Generated by graphviz version 2.43.0 (0)
 -->
<!-- Title: Library/include/playrho/d2/RayCastInput.hpp Pages: 1 -->
<svg width="1238pt" height="453pt"
 viewBox="0.00 0.00 1237.50 453.00" xmlns="http://www.w3.org/2000/svg" xmlns:xlink="http://www.w3.org/1999/xlink">
<g id="graph0" class="graph" transform="scale(1 1) rotate(0) translate(4 449)">
<title>Library/include/playrho/d2/RayCastInput.hpp</title>
<polygon fill="white" stroke="transparent" points="-4,4 -4,-449 1233.5,-449 1233.5,4 -4,4"/>
<!-- Node1 -->
<g id="node1" class="node">
<title>Node1</title>
<g id="a_node1"><a xlink:title="Alias for the 2&#45;D RayCastInput struct.">
<polygon fill="#bfbfbf" stroke="black" points="561.5,-414.5 561.5,-444.5 689.5,-444.5 689.5,-414.5 561.5,-414.5"/>
<text text-anchor="start" x="569.5" y="-432.5" font-family="Helvetica,sans-Serif" font-size="10.00">Library/include/playrho</text>
<text text-anchor="middle" x="625.5" y="-421.5" font-family="Helvetica,sans-Serif" font-size="10.00">/d2/RayCastInput.hpp</text>
</a>
</g>
</g>
<!-- Node2 -->
<g id="node2" class="node">
<title>Node2</title>
<g id="a_node2"><a xlink:href="detail_2RayCastInput_8hpp.html" target="_top" xlink:title="Declaration of the RayCastInput class template.">
<polygon fill="white" stroke="black" points="539,-358.5 539,-377.5 712,-377.5 712,-358.5 539,-358.5"/>
<text text-anchor="middle" x="625.5" y="-365.5" font-family="Helvetica,sans-Serif" font-size="10.00">playrho/detail/RayCastInput.hpp</text>
</a>
</g>
</g>
<!-- Node1&#45;&gt;Node2 -->
<g id="edge1" class="edge">
<title>Node1&#45;&gt;Node2</title>
<path fill="none" stroke="midnightblue" d="M625.5,-414.4C625.5,-406.47 625.5,-396.46 625.5,-387.86"/>
<polygon fill="midnightblue" stroke="midnightblue" points="629,-387.66 625.5,-377.66 622,-387.66 629,-387.66"/>
</g>
<!-- Node3 -->
<g id="node3" class="node">
<title>Node3</title>
<g id="a_node3"><a xlink:title=" ">
<polygon fill="white" stroke="#bfbfbf" points="0,-185 0,-204 53,-204 53,-185 0,-185"/>
<text text-anchor="middle" x="26.5" y="-192" font-family="Helvetica,sans-Serif" font-size="10.00">cstddef</text>
</a>
</g>
</g>
<!-- Node2&#45;&gt;Node3 -->
<g id="edge2" class="edge">
<title>Node2&#45;&gt;Node3</title>
<path fill="none" stroke="midnightblue" d="M581.89,-358.44C539.3,-349.9 472.71,-336.05 415.5,-322 325.02,-299.79 302.07,-294.91 213.5,-266 157.57,-247.75 93.7,-222.75 56.93,-207.94"/>
<polygon fill="midnightblue" stroke="midnightblue" points="57.9,-204.56 47.31,-204.05 55.27,-211.05 57.9,-204.56"/>
</g>
<!-- Node4 -->
<g id="node4" class="node">
<title>Node4</title>
<g id="a_node4"><a xlink:href="Vector_8hpp.html" target="_top" xlink:title="Definition of the Vector class template and closely related code.">
<polygon fill="white" stroke="black" points="223,-246.5 223,-265.5 330,-265.5 330,-246.5 223,-246.5"/>
<text text-anchor="middle" x="276.5" y="-253.5" font-family="Helvetica,sans-Serif" font-size="10.00">playrho/Vector.hpp</text>
</a>
</g>
</g>
<!-- Node2&#45;&gt;Node4 -->
<g id="edge3" class="edge">
<title>Node2&#45;&gt;Node4</title>
<path fill="none" stroke="midnightblue" d="M598.4,-358.46C536.43,-338.93 384.25,-290.96 313.63,-268.7"/>
<polygon fill="midnightblue" stroke="midnightblue" points="314.41,-265.28 303.82,-265.61 312.3,-271.95 314.41,-265.28"/>
</g>
<!-- Node15 -->
<g id="node15" class="node">
<title>Node15</title>
<g id="a_node15"><a xlink:href="Real_8hpp.html" target="_top" xlink:title="Real number definition file.">
<polygon fill="white" stroke="black" points="836,-185 836,-204 935,-204 935,-185 836,-185"/>
<text text-anchor="middle" x="885.5" y="-192" font-family="Helvetica,sans-Serif" font-size="10.00">playrho/Real.hpp</text>
</a>
</g>
</g>
<!-- Node2&#45;&gt;Node15 -->
<g id="edge26" class="edge">
<title>Node2&#45;&gt;Node15</title>
<path fill="none" stroke="midnightblue" d="M712.12,-364.01C851.3,-357.19 1115,-335.23 1172.5,-266 1178.18,-259.16 1178.21,-252.81 1172.5,-246 1144.11,-212.18 1021.02,-201 945.56,-197.31"/>
<polygon fill="midnightblue" stroke="midnightblue" points="945.39,-193.8 935.25,-196.84 945.07,-200.79 945.39,-193.8"/>
</g>
<!-- Node20 -->
<g id="node20" class="node">
<title>Node20</title>
<g id="a_node20"><a xlink:href="UnitInterval_8hpp.html" target="_top" xlink:title="Definition of the UnitInterval value checked types and related code.">
<polygon fill="white" stroke="black" points="558,-246.5 558,-265.5 693,-265.5 693,-246.5 558,-246.5"/>
<text text-anchor="middle" x="625.5" y="-253.5" font-family="Helvetica,sans-Serif" font-size="10.00">playrho/UnitInterval.hpp</text>
</a>
</g>
</g>
<!-- Node2&#45;&gt;Node20 -->
<g id="edge27" class="edge">
<title>Node2&#45;&gt;Node20</title>
<path fill="none" stroke="midnightblue" d="M625.5,-358.37C625.5,-340.62 625.5,-299.67 625.5,-275.6"/>
<polygon fill="midnightblue" stroke="midnightblue" points="629,-275.59 625.5,-265.59 622,-275.59 629,-275.59"/>
</g>
<!-- Node23 -->
<g id="node23" class="node">
<title>Node23</title>
<g id="a_node23"><a xlink:href="Units_8hpp.html" target="_top" xlink:title="Declarations for physical units possibly backed by strong types.">
<polygon fill="white" stroke="black" points="760,-302.5 760,-321.5 863,-321.5 863,-302.5 760,-302.5"/>
<text text-anchor="middle" x="811.5" y="-309.5" font-family="Helvetica,sans-Serif" font-size="10.00">playrho/Units.hpp</text>
</a>
</g>
</g>
<!-- Node2&#45;&gt;Node23 -->
<g id="edge36" class="edge">
<title>Node2&#45;&gt;Node23</title>
<path fill="none" stroke="midnightblue" d="M654.97,-358.44C686.67,-349.24 737.23,-334.56 772.27,-324.39"/>
<polygon fill="midnightblue" stroke="midnightblue" points="773.54,-327.67 782.17,-321.52 771.59,-320.94 773.54,-327.67"/>
</g>
<!-- Node4&#45;&gt;Node3 -->
<g id="edge6" class="edge">
<title>Node4&#45;&gt;Node3</title>
<path fill="none" stroke="midnightblue" d="M228.34,-246.44C185.7,-238.44 121.96,-225.42 67.5,-210 64.54,-209.16 61.49,-208.23 58.45,-207.24"/>
<polygon fill="midnightblue" stroke="midnightblue" points="59.48,-203.9 48.89,-204 57.24,-210.53 59.48,-203.9"/>
</g>
<!-- Node5 -->
<g id="node5" class="node">
<title>Node5</title>
<g id="a_node5"><a xlink:title=" ">
<polygon fill="white" stroke="#bfbfbf" points="260.5,-0.5 260.5,-19.5 324.5,-19.5 324.5,-0.5 260.5,-0.5"/>
<text text-anchor="middle" x="292.5" y="-7.5" font-family="Helvetica,sans-Serif" font-size="10.00">algorithm</text>
</a>
</g>
</g>
<!-- Node4&#45;&gt;Node5 -->
<g id="edge4" class="edge">
<title>Node4&#45;&gt;Node5</title>
<path fill="none" stroke="midnightblue" d="M233.27,-246.42C210.26,-239.89 182.99,-228.71 164.5,-210 115.71,-160.63 96.87,-111.54 138.5,-56 151.98,-38.02 209.63,-24.83 250.42,-17.53"/>
<polygon fill="midnightblue" stroke="midnightblue" points="251.14,-20.96 260.39,-15.81 249.94,-14.07 251.14,-20.96"/>
</g>
<!-- Node6 -->
<g id="node6" class="node">
<title>Node6</title>
<g id="a_node6"><a xlink:title=" ">
<polygon fill="white" stroke="#bfbfbf" points="185.5,-185 185.5,-204 237.5,-204 237.5,-185 185.5,-185"/>
<text text-anchor="middle" x="211.5" y="-192" font-family="Helvetica,sans-Serif" font-size="10.00">cassert</text>
</a>
</g>
</g>
<!-- Node4&#45;&gt;Node6 -->
<g id="edge5" class="edge">
<title>Node4&#45;&gt;Node6</title>
<path fill="none" stroke="midnightblue" d="M267.19,-246.48C257.05,-237.2 240.64,-222.17 228.25,-210.83"/>
<polygon fill="midnightblue" stroke="midnightblue" points="230.54,-208.18 220.8,-204.01 225.81,-213.34 230.54,-208.18"/>
</g>
<!-- Node7 -->
<g id="node7" class="node">
<title>Node7</title>
<g id="a_node7"><a xlink:title=" ">
<polygon fill="white" stroke="#bfbfbf" points="100,-0.5 100,-19.5 153,-19.5 153,-0.5 100,-0.5"/>
<text text-anchor="middle" x="126.5" y="-7.5" font-family="Helvetica,sans-Serif" font-size="10.00">iterator</text>
</a>
</g>
</g>
<!-- Node4&#45;&gt;Node7 -->
<g id="edge7" class="edge">
<title>Node4&#45;&gt;Node7</title>
<path fill="none" stroke="midnightblue" d="M222.94,-249.62C193.71,-244.08 158.82,-232.82 135.5,-210 86.47,-162.02 108.01,-68.93 120.2,-29.43"/>
<polygon fill="midnightblue" stroke="midnightblue" points="123.57,-30.39 123.33,-19.79 116.92,-28.23 123.57,-30.39"/>
</g>
<!-- Node8 -->
<g id="node8" class="node">
<title>Node8</title>
<g id="a_node8"><a xlink:title=" ">
<polygon fill="white" stroke="#bfbfbf" points="147.5,-118 147.5,-137 207.5,-137 207.5,-118 147.5,-118"/>
<text text-anchor="middle" x="177.5" y="-125" font-family="Helvetica,sans-Serif" font-size="10.00">iostream</text>
</a>
</g>
</g>
<!-- Node4&#45;&gt;Node8 -->
<g id="edge8" class="edge">
<title>Node4&#45;&gt;Node8</title>
<path fill="none" stroke="midnightblue" d="M231.8,-246.48C211.27,-240.09 188.8,-229.02 176.5,-210 164.35,-191.2 167.59,-164.52 171.85,-146.87"/>
<polygon fill="midnightblue" stroke="midnightblue" points="175.23,-147.77 174.5,-137.2 168.48,-145.92 175.23,-147.77"/>
</g>
<!-- Node9 -->
<g id="node9" class="node">
<title>Node9</title>
<g id="a_node9"><a xlink:title=" ">
<polygon fill="white" stroke="#bfbfbf" points="256,-185 256,-204 297,-204 297,-185 256,-185"/>
<text text-anchor="middle" x="276.5" y="-192" font-family="Helvetica,sans-Serif" font-size="10.00">tuple</text>
</a>
</g>
</g>
<!-- Node4&#45;&gt;Node9 -->
<g id="edge9" class="edge">
<title>Node4&#45;&gt;Node9</title>
<path fill="none" stroke="midnightblue" d="M276.5,-246.48C276.5,-238.08 276.5,-224.98 276.5,-214.16"/>
<polygon fill="midnightblue" stroke="midnightblue" points="280,-214.01 276.5,-204.01 273,-214.01 280,-214.01"/>
</g>
<!-- Node10 -->
<g id="node10" class="node">
<title>Node10</title>
<g id="a_node10"><a xlink:title=" ">
<polygon fill="white" stroke="#bfbfbf" points="624,-0.5 624,-19.5 693,-19.5 693,-0.5 624,-0.5"/>
<text text-anchor="middle" x="658.5" y="-7.5" font-family="Helvetica,sans-Serif" font-size="10.00">type_traits</text>
</a>
</g>
</g>
<!-- Node4&#45;&gt;Node10 -->
<g id="edge10" class="edge">
<title>Node4&#45;&gt;Node10</title>
<path fill="none" stroke="midnightblue" d="M330.47,-255.59C380.91,-253.74 456.49,-244.64 511.5,-210 530.37,-198.12 615.38,-74.53 646.79,-28.32"/>
<polygon fill="midnightblue" stroke="midnightblue" points="649.76,-30.17 652.48,-19.93 643.97,-26.24 649.76,-30.17"/>
</g>
<!-- Node11 -->
<g id="node11" class="node">
<title>Node11</title>
<g id="a_node11"><a xlink:href="InvalidArgument_8hpp.html" target="_top" xlink:title="Definition of the InvalidArgument class.">
<polygon fill="white" stroke="black" points="225.5,-118 225.5,-137 383.5,-137 383.5,-118 225.5,-118"/>
<text text-anchor="middle" x="304.5" y="-125" font-family="Helvetica,sans-Serif" font-size="10.00">playrho/InvalidArgument.hpp</text>
</a>
</g>
</g>
<!-- Node4&#45;&gt;Node11 -->
<g id="edge11" class="edge">
<title>Node4&#45;&gt;Node11</title>
<path fill="none" stroke="midnightblue" d="M284.17,-246.46C291.28,-237.93 301.35,-224.09 305.5,-210 311.6,-189.26 310.07,-164.26 307.83,-147.46"/>
<polygon fill="midnightblue" stroke="midnightblue" points="311.25,-146.64 306.26,-137.29 304.33,-147.71 311.25,-146.64"/>
</g>
<!-- Node4&#45;&gt;Node15 -->
<g id="edge15" class="edge">
<title>Node4&#45;&gt;Node15</title>
<path fill="none" stroke="midnightblue" d="M330.19,-250.12C418.08,-242.08 598.15,-225.41 750.5,-210 775.12,-207.51 802.24,-204.62 825.68,-202.09"/>
<polygon fill="midnightblue" stroke="midnightblue" points="826.26,-205.54 835.83,-200.98 825.51,-198.58 826.26,-205.54"/>
</g>
<!-- Node17 -->
<g id="node17" class="node">
<title>Node17</title>
<g id="a_node17"><a xlink:href="Templates_8hpp.html" target="_top" xlink:title="Definitions of miscellaneous template related code.">
<polygon fill="white" stroke="black" points="621.5,-118 621.5,-137 749.5,-137 749.5,-118 621.5,-118"/>
<text text-anchor="middle" x="685.5" y="-125" font-family="Helvetica,sans-Serif" font-size="10.00">playrho/Templates.hpp</text>
</a>
</g>
</g>
<!-- Node4&#45;&gt;Node17 -->
<g id="edge25" class="edge">
<title>Node4&#45;&gt;Node17</title>
<path fill="none" stroke="midnightblue" d="M330.09,-252.94C385.41,-249.24 473.29,-238.89 543.5,-210 565.62,-200.9 567.04,-191.4 587.5,-179 610.57,-165.02 637.94,-151.13 657.89,-141.46"/>
<polygon fill="midnightblue" stroke="midnightblue" points="659.53,-144.56 667.03,-137.08 656.5,-138.25 659.53,-144.56"/>
</g>
<!-- Node12 -->
<g id="node12" class="node">
<title>Node12</title>
<g id="a_node12"><a xlink:title=" ">
<polygon fill="white" stroke="#bfbfbf" points="210,-56.5 210,-75.5 275,-75.5 275,-56.5 210,-56.5"/>
<text text-anchor="middle" x="242.5" y="-63.5" font-family="Helvetica,sans-Serif" font-size="10.00">stdexcept</text>
</a>
</g>
</g>
<!-- Node11&#45;&gt;Node12 -->
<g id="edge12" class="edge">
<title>Node11&#45;&gt;Node12</title>
<path fill="none" stroke="midnightblue" d="M295.62,-117.98C286.04,-108.78 270.59,-93.96 258.81,-82.66"/>
<polygon fill="midnightblue" stroke="midnightblue" points="261.01,-79.91 251.37,-75.51 256.16,-84.96 261.01,-79.91"/>
</g>
<!-- Node13 -->
<g id="node13" class="node">
<title>Node13</title>
<g id="a_node13"><a xlink:title=" ">
<polygon fill="white" stroke="#bfbfbf" points="147.5,-56.5 147.5,-75.5 191.5,-75.5 191.5,-56.5 147.5,-56.5"/>
<text text-anchor="middle" x="169.5" y="-63.5" font-family="Helvetica,sans-Serif" font-size="10.00">string</text>
</a>
</g>
</g>
<!-- Node11&#45;&gt;Node13 -->
<g id="edge13" class="edge">
<title>Node11&#45;&gt;Node13</title>
<path fill="none" stroke="midnightblue" d="M285.16,-117.98C262.4,-107.95 224.41,-91.2 198.21,-79.65"/>
<polygon fill="midnightblue" stroke="midnightblue" points="199.37,-76.34 188.81,-75.51 196.55,-82.74 199.37,-76.34"/>
</g>
<!-- Node14 -->
<g id="node14" class="node">
<title>Node14</title>
<g id="a_node14"><a xlink:title=" ">
<polygon fill="white" stroke="#bfbfbf" points="388,-0.5 388,-19.5 433,-19.5 433,-0.5 388,-0.5"/>
<text text-anchor="middle" x="410.5" y="-7.5" font-family="Helvetica,sans-Serif" font-size="10.00">utility</text>
</a>
</g>
</g>
<!-- Node11&#45;&gt;Node14 -->
<g id="edge14" class="edge">
<title>Node11&#45;&gt;Node14</title>
<path fill="none" stroke="midnightblue" d="M304.51,-117.69C304.98,-103.26 307.84,-74.36 322.5,-56 336.57,-38.39 359.38,-27 378.25,-20.09"/>
<polygon fill="midnightblue" stroke="midnightblue" points="379.63,-23.31 387.97,-16.78 377.37,-16.69 379.63,-23.31"/>
</g>
<!-- Node16 -->
<g id="node16" class="node">
<title>Node16</title>
<g id="a_node16"><a xlink:title=" ">
<polygon fill="white" stroke="#bfbfbf" points="863.5,-118 863.5,-137 907.5,-137 907.5,-118 863.5,-118"/>
<text text-anchor="middle" x="885.5" y="-125" font-family="Helvetica,sans-Serif" font-size="10.00">limits</text>
</a>
</g>
</g>
<!-- Node15&#45;&gt;Node16 -->
<g id="edge16" class="edge">
<title>Node15&#45;&gt;Node16</title>
<path fill="none" stroke="midnightblue" d="M885.5,-184.73C885.5,-175.18 885.5,-159.62 885.5,-147.28"/>
<polygon fill="midnightblue" stroke="midnightblue" points="889,-147.13 885.5,-137.13 882,-147.13 889,-147.13"/>
</g>
<!-- Node15&#45;&gt;Node17 -->
<g id="edge17" class="edge">
<title>Node15&#45;&gt;Node17</title>
<path fill="none" stroke="midnightblue" d="M858.94,-184.87C823.58,-173.38 760.91,-153.01 721.37,-140.16"/>
<polygon fill="midnightblue" stroke="midnightblue" points="722.44,-136.83 711.85,-137.06 720.28,-143.48 722.44,-136.83"/>
</g>
<!-- Node17&#45;&gt;Node10 -->
<g id="edge19" class="edge">
<title>Node17&#45;&gt;Node10</title>
<path fill="none" stroke="midnightblue" d="M683.47,-117.82C679.11,-99.17 668.77,-54.94 662.86,-29.63"/>
<polygon fill="midnightblue" stroke="midnightblue" points="666.24,-28.72 660.55,-19.78 659.42,-30.32 666.24,-28.72"/>
</g>
<!-- Node18 -->
<g id="node18" class="node">
<title>Node18</title>
<g id="a_node18"><a xlink:title=" ">
<polygon fill="white" stroke="#bfbfbf" points="687,-56.5 687,-75.5 736,-75.5 736,-56.5 687,-56.5"/>
<text text-anchor="middle" x="711.5" y="-63.5" font-family="Helvetica,sans-Serif" font-size="10.00">cstdlib</text>
</a>
</g>
</g>
<!-- Node17&#45;&gt;Node18 -->
<g id="edge18" class="edge">
<title>Node17&#45;&gt;Node18</title>
<path fill="none" stroke="midnightblue" d="M689.23,-117.98C692.97,-109.4 698.86,-95.93 703.64,-84.98"/>
<polygon fill="midnightblue" stroke="midnightblue" points="706.98,-86.07 707.78,-75.51 700.57,-83.27 706.98,-86.07"/>
</g>
<!-- Node19 -->
<g id="node19" class="node">
<title>Node19</title>
<g id="a_node19"><a xlink:href="detail_2Templates_8hpp.html" target="_top" xlink:title="Low&#45;level declarations for general class &amp; function templates.">
<polygon fill="white" stroke="black" points="331.5,-56.5 331.5,-75.5 489.5,-75.5 489.5,-56.5 331.5,-56.5"/>
<text text-anchor="middle" x="410.5" y="-63.5" font-family="Helvetica,sans-Serif" font-size="10.00">playrho/detail/Templates.hpp</text>
</a>
</g>
</g>
<!-- Node17&#45;&gt;Node19 -->
<g id="edge20" class="edge">
<title>Node17&#45;&gt;Node19</title>
<path fill="none" stroke="midnightblue" d="M646.1,-117.98C596.99,-107.35 513.03,-89.18 459.73,-77.65"/>
<polygon fill="midnightblue" stroke="midnightblue" points="460.34,-74.2 449.83,-75.51 458.86,-81.04 460.34,-74.2"/>
</g>
<!-- Node19&#45;&gt;Node5 -->
<g id="edge21" class="edge">
<title>Node19&#45;&gt;Node5</title>
<path fill="none" stroke="midnightblue" d="M391.8,-56.44C372.56,-47.64 342.35,-33.81 320.3,-23.72"/>
<polygon fill="midnightblue" stroke="midnightblue" points="321.66,-20.5 311.11,-19.52 318.75,-26.86 321.66,-20.5"/>
</g>
<!-- Node19&#45;&gt;Node7 -->
<g id="edge22" class="edge">
<title>Node19&#45;&gt;Node7</title>
<path fill="none" stroke="midnightblue" d="M365.5,-56.44C309.6,-45.82 215.3,-27.88 163.43,-18.02"/>
<polygon fill="midnightblue" stroke="midnightblue" points="163.82,-14.53 153.34,-16.1 162.51,-21.41 163.82,-14.53"/>
</g>
<!-- Node19&#45;&gt;Node10 -->
<g id="edge23" class="edge">
<title>Node19&#45;&gt;Node10</title>
<path fill="none" stroke="midnightblue" d="M449.8,-56.44C494.46,-46.72 567.2,-30.88 613.94,-20.7"/>
<polygon fill="midnightblue" stroke="midnightblue" points="614.76,-24.11 623.79,-18.56 613.27,-17.27 614.76,-24.11"/>
</g>
<!-- Node19&#45;&gt;Node14 -->
<g id="edge24" class="edge">
<title>Node19&#45;&gt;Node14</title>
<path fill="none" stroke="midnightblue" d="M410.5,-56.08C410.5,-49.01 410.5,-38.86 410.5,-29.99"/>
<polygon fill="midnightblue" stroke="midnightblue" points="414,-29.75 410.5,-19.75 407,-29.75 414,-29.75"/>
</g>
<!-- Node20&#45;&gt;Node10 -->
<g id="edge28" class="edge">
<title>Node20&#45;&gt;Node10</title>
<path fill="none" stroke="midnightblue" d="M688.28,-246.46C711.23,-240.14 735.28,-229.13 750.5,-210 793.13,-156.41 787.53,-110.07 745.5,-56 733.72,-40.85 715.42,-30.31 698.64,-23.26"/>
<polygon fill="midnightblue" stroke="midnightblue" points="699.58,-19.87 688.99,-19.51 697.04,-26.4 699.58,-19.87"/>
</g>
<!-- Node21 -->
<g id="node21" class="node">
<title>Node21</title>
<g id="a_node21"><a xlink:href="Checked_8hpp.html" target="_top" xlink:title="Declarations of the Checked class template and closely related code.">
<polygon fill="white" stroke="black" points="353,-185 353,-204 502,-204 502,-185 353,-185"/>
<text text-anchor="middle" x="427.5" y="-192" font-family="Helvetica,sans-Serif" font-size="10.00">playrho/detail/Checked.hpp</text>
</a>
</g>
</g>
<!-- Node20&#45;&gt;Node21 -->
<g id="edge29" class="edge">
<title>Node20&#45;&gt;Node21</title>
<path fill="none" stroke="midnightblue" d="M597.13,-246.48C562.58,-236.09 504.08,-218.51 465.62,-206.95"/>
<polygon fill="midnightblue" stroke="midnightblue" points="466.4,-203.54 455.82,-204.01 464.39,-210.24 466.4,-203.54"/>
</g>
<!-- Node22 -->
<g id="node22" class="node">
<title>Node22</title>
<g id="a_node22"><a xlink:href="UnitIntervalChecker_8hpp.html" target="_top" xlink:title="Definition of the UnitIntervalChecker class template.">
<polygon fill="white" stroke="black" points="596,-179.5 596,-209.5 741,-209.5 741,-179.5 596,-179.5"/>
<text text-anchor="start" x="604" y="-197.5" font-family="Helvetica,sans-Serif" font-size="10.00">playrho/detail/UnitInterval</text>
<text text-anchor="middle" x="668.5" y="-186.5" font-family="Helvetica,sans-Serif" font-size="10.00">Checker.hpp</text>
</a>
</g>
</g>
<!-- Node20&#45;&gt;Node22 -->
<g id="edge35" class="edge">
<title>Node20&#45;&gt;Node22</title>
<path fill="none" stroke="midnightblue" d="M631.66,-246.48C637.05,-239.02 645.12,-227.85 652.33,-217.87"/>
<polygon fill="midnightblue" stroke="midnightblue" points="655.35,-219.68 658.37,-209.52 649.67,-215.58 655.35,-219.68"/>
</g>
<!-- Node21&#45;&gt;Node8 -->
<g id="edge30" class="edge">
<title>Node21&#45;&gt;Node8</title>
<path fill="none" stroke="midnightblue" d="M385.06,-184.92C342.16,-175.89 274.16,-160.55 216.5,-143 213.93,-142.22 211.29,-141.36 208.64,-140.46"/>
<polygon fill="midnightblue" stroke="midnightblue" points="209.8,-137.16 199.21,-137.1 207.45,-143.75 209.8,-137.16"/>
</g>
<!-- Node21&#45;&gt;Node10 -->
<g id="edge31" class="edge">
<title>Node21&#45;&gt;Node10</title>
<path fill="none" stroke="midnightblue" d="M442.67,-184.85C458.42,-175.53 483.37,-159.76 502.5,-143 541.34,-108.97 539.42,-88.55 579.5,-56 595.03,-43.39 614.53,-32.24 630.28,-24.19"/>
<polygon fill="midnightblue" stroke="midnightblue" points="632.13,-27.18 639.53,-19.6 629.02,-20.91 632.13,-27.18"/>
</g>
<!-- Node21&#45;&gt;Node11 -->
<g id="edge33" class="edge">
<title>Node21&#45;&gt;Node11</title>
<path fill="none" stroke="midnightblue" d="M411.17,-184.87C390.4,-173.89 354.31,-154.82 329.93,-141.94"/>
<polygon fill="midnightblue" stroke="midnightblue" points="331.38,-138.75 320.9,-137.17 328.11,-144.93 331.38,-138.75"/>
</g>
<!-- Node21&#45;&gt;Node14 -->
<g id="edge32" class="edge">
<title>Node21&#45;&gt;Node14</title>
<path fill="none" stroke="midnightblue" d="M438.25,-184.9C464.42,-162.89 527.24,-102.98 498.5,-56 486.4,-36.22 462.54,-24.78 442.72,-18.39"/>
<polygon fill="midnightblue" stroke="midnightblue" points="443.67,-15.02 433.09,-15.57 441.71,-21.74 443.67,-15.02"/>
</g>
<!-- Node21&#45;&gt;Node17 -->
<g id="edge34" class="edge">
<title>Node21&#45;&gt;Node17</title>
<path fill="none" stroke="midnightblue" d="M461.49,-184.94C507.8,-173.27 590.77,-152.37 641.69,-139.54"/>
<polygon fill="midnightblue" stroke="midnightblue" points="642.59,-142.92 651.43,-137.08 640.88,-136.13 642.59,-142.92"/>
</g>
<!-- Node23&#45;&gt;Node10 -->
<g id="edge38" class="edge">
<title>Node23&#45;&gt;Node10</title>
<path fill="none" stroke="midnightblue" d="M863.05,-309.28C949.79,-305.62 1120.54,-294.89 1172.5,-266 1207.72,-246.42 1229.5,-235.79 1229.5,-195.5 1229.5,-195.5 1229.5,-195.5 1229.5,-126.5 1229.5,-19.41 838.78,-10.46 703.75,-10.56"/>
<polygon fill="midnightblue" stroke="midnightblue" points="703.35,-7.06 693.36,-10.59 703.37,-14.06 703.35,-7.06"/>
</g>
<!-- Node23&#45;&gt;Node15 -->
<g id="edge39" class="edge">
<title>Node23&#45;&gt;Node15</title>
<path fill="none" stroke="midnightblue" d="M801.52,-302.28C788.14,-289.5 767.41,-265.15 779.5,-246 791.62,-226.8 813.25,-214.75 833.83,-207.26"/>
<polygon fill="midnightblue" stroke="midnightblue" points="835.11,-210.53 843.48,-204.04 832.89,-203.89 835.11,-210.53"/>
</g>
<!-- Node23&#45;&gt;Node17 -->
<g id="edge42" class="edge">
<title>Node23&#45;&gt;Node17</title>
<path fill="none" stroke="midnightblue" d="M801.42,-302.38C792.26,-294 779.06,-280.45 771.5,-266 753.07,-230.75 772.08,-212.41 750.5,-179 740.58,-163.64 724.33,-151.02 710.57,-142.23"/>
<polygon fill="midnightblue" stroke="midnightblue" points="712.34,-139.21 701.97,-137.03 708.71,-145.2 712.34,-139.21"/>
</g>
<!-- Node24 -->
<g id="node24" class="node">
<title>Node24</title>
<g id="a_node24"><a xlink:title=" ">
<polygon fill="white" stroke="#bfbfbf" points="788,-246.5 788,-265.5 835,-265.5 835,-246.5 788,-246.5"/>
<text text-anchor="middle" x="811.5" y="-253.5" font-family="Helvetica,sans-Serif" font-size="10.00">cmath</text>
</a>
</g>
</g>
<!-- Node23&#45;&gt;Node24 -->
<g id="edge37" class="edge">
<title>Node23&#45;&gt;Node24</title>
<path fill="none" stroke="midnightblue" d="M811.5,-302.08C811.5,-295.01 811.5,-284.86 811.5,-275.99"/>
<polygon fill="midnightblue" stroke="midnightblue" points="815,-275.75 811.5,-265.75 808,-275.75 815,-275.75"/>
</g>
<!-- Node25 -->
<g id="node25" class="node">
<title>Node25</title>
<g id="a_node25"><a xlink:href="RealConstants_8hpp.html" target="_top" xlink:title="Definitions file for constant expressions of type Real.">
<polygon fill="white" stroke="black" points="853.5,-246.5 853.5,-265.5 1001.5,-265.5 1001.5,-246.5 853.5,-246.5"/>
<text text-anchor="middle" x="927.5" y="-253.5" font-family="Helvetica,sans-Serif" font-size="10.00">playrho/RealConstants.hpp</text>
</a>
</g>
</g>
<!-- Node23&#45;&gt;Node25 -->
<g id="edge40" class="edge">
<title>Node23&#45;&gt;Node25</title>
<path fill="none" stroke="midnightblue" d="M829.88,-302.44C848.72,-293.68 878.23,-279.94 899.88,-269.86"/>
<polygon fill="midnightblue" stroke="midnightblue" points="901.62,-272.91 909.21,-265.52 898.66,-266.56 901.62,-272.91"/>
</g>
<!-- Node26 -->
<g id="node26" class="node">
<title>Node26</title>
<g id="a_node26"><a xlink:href="to__underlying_8hpp.html" target="_top" xlink:title="Definition of to_underlying function template.">
<polygon fill="white" stroke="black" points="1019.5,-246.5 1019.5,-265.5 1163.5,-265.5 1163.5,-246.5 1019.5,-246.5"/>
<text text-anchor="middle" x="1091.5" y="-253.5" font-family="Helvetica,sans-Serif" font-size="10.00">playrho/to_underlying.hpp</text>
</a>
</g>
</g>
<!-- Node23&#45;&gt;Node26 -->
<g id="edge43" class="edge">
<title>Node23&#45;&gt;Node26</title>
<path fill="none" stroke="midnightblue" d="M855.87,-302.44C905.12,-292.94 984.63,-277.61 1037.47,-267.42"/>
<polygon fill="midnightblue" stroke="midnightblue" points="1038.18,-270.85 1047.34,-265.52 1036.86,-263.97 1038.18,-270.85"/>
</g>
<!-- Node25&#45;&gt;Node15 -->
<g id="edge41" class="edge">
<title>Node25&#45;&gt;Node15</title>
<path fill="none" stroke="midnightblue" d="M921.48,-246.48C915.24,-237.64 905.33,-223.59 897.48,-212.48"/>
<polygon fill="midnightblue" stroke="midnightblue" points="900.13,-210.16 891.51,-204.01 894.41,-214.2 900.13,-210.16"/>
</g>
<!-- Node27 -->
<g id="node27" class="node">
<title>Node27</title>
<g id="a_node27"><a xlink:href="underlying__type_8hpp.html" target="_top" xlink:title="Definition of underlying_type trait class and related code.">
<polygon fill="white" stroke="black" points="953,-112.5 953,-142.5 1092,-142.5 1092,-112.5 953,-112.5"/>
<text text-anchor="start" x="961" y="-130.5" font-family="Helvetica,sans-Serif" font-size="10.00">playrho/detail/underlying</text>
<text text-anchor="middle" x="1022.5" y="-119.5" font-family="Helvetica,sans-Serif" font-size="10.00">_type.hpp</text>
</a>
</g>
</g>
<!-- Node26&#45;&gt;Node27 -->
<g id="edge44" class="edge">
<title>Node26&#45;&gt;Node27</title>
<path fill="none" stroke="midnightblue" d="M1086.76,-246.31C1076.25,-227.05 1050.73,-180.25 1035.2,-151.78"/>
<polygon fill="midnightblue" stroke="midnightblue" points="1038.21,-149.99 1030.35,-142.89 1032.06,-153.34 1038.21,-149.99"/>
</g>
<!-- Node27&#45;&gt;Node10 -->
<g id="edge45" class="edge">
<title>Node27&#45;&gt;Node10</title>
<path fill="none" stroke="midnightblue" d="M984.97,-112.48C944.78,-97.66 879.03,-74.01 821.5,-56 781.26,-43.4 734.86,-30.78 701.88,-22.12"/>
<polygon fill="midnightblue" stroke="midnightblue" points="702.66,-18.7 692.1,-19.56 700.89,-25.48 702.66,-18.7"/>
</g>
</g>
</svg>
