<?xml version="1.0" encoding="UTF-8" standalone="no"?>
<!DOCTYPE svg PUBLIC "-//W3C//DTD SVG 1.1//EN"
 "http://www.w3.org/Graphics/SVG/1.1/DTD/svg11.dtd">
<!-- Generated by graphviz version 2.43.0 (0)
 -->
<!-- Title: Library/include/playrho/d2/RayCastInput.hpp Pages: 1 -->
<!--zoomable 453 -->
<svg id="main" version="1.1" xmlns="http://www.w3.org/2000/svg" xmlns:xlink="http://www.w3.org/1999/xlink" xml:space="preserve" onload="init(evt)">
<style type="text/css"><![CDATA[
.edge:hover path { stroke: red; }
.edge:hover polygon { stroke: red; fill: red; }
]]></style>
<script type="text/javascript"><![CDATA[
var edges = document.getElementsByTagName('g');
if (edges && edges.length) {
  for (var i=0;i<edges.length;i++) {
    if (edges[i].id.substr(0,4)=='edge') {
      edges[i].setAttribute('class','edge');
    }
  }
}
]]></script>
        <defs>
                <circle id="rim" cx="0" cy="0" r="7"/>
                <circle id="rim2" cx="0" cy="0" r="3.5"/>
                <g id="zoomPlus">
                        <use xlink:href="#rim" fill="#404040">
                                <set attributeName="fill" to="#808080" begin="zoomplus.mouseover" end="zoomplus.mouseout"/>
                        </use>
                        <path d="M-4,0h8M0,-4v8" fill="none" stroke="white" stroke-width="1.5" pointer-events="none"/>
                </g>
                <g id="zoomMin">
                        <use xlink:href="#rim" fill="#404040">
                                <set attributeName="fill" to="#808080" begin="zoomminus.mouseover" end="zoomminus.mouseout"/>
                        </use>
                        <path d="M-4,0h8" fill="none" stroke="white" stroke-width="1.5" pointer-events="none"/>
                </g>
                <g id="dirArrow">
                        <path fill="none" stroke="white" stroke-width="1.5" d="M0,-3.0v7 M-2.5,-0.5L0,-3.0L2.5,-0.5"/>
                </g>
               <g id="resetDef">
                       <use xlink:href="#rim2" fill="#404040">
                               <set attributeName="fill" to="#808080" begin="reset.mouseover" end="reset.mouseout"/>
                       </use>
               </g>
        </defs>

<script type="text/javascript">
var viewWidth = 1149;
var viewHeight = 453;
var sectionId = 'dynsection-0';
</script>
<script xlink:href="svgpan.js"/>
<svg id="graph" class="graph">
<g id="viewport">
<title>Library/include/playrho/d2/RayCastInput.hpp</title>
<polygon fill="white" stroke="transparent" points="-4,4 -4,-449 1144.94,-449 1144.94,4 -4,4"/>
<!-- Node1 -->
<g id="node1" class="node">
<title>Node1</title>
<g id="a_node1"><a xlink:title="Alias for the 2&#45;D RayCastInput struct.">
<polygon fill="#bfbfbf" stroke="black" points="493.66,-414.5 493.66,-444.5 621.66,-444.5 621.66,-414.5 493.66,-414.5"/>
<text text-anchor="start" x="501.66" y="-432.5" font-family="Helvetica,sans-Serif" font-size="10.00">Library/include/playrho</text>
<text text-anchor="middle" x="557.66" y="-421.5" font-family="Helvetica,sans-Serif" font-size="10.00">/d2/RayCastInput.hpp</text>
</a>
</g>
</g>
<!-- Node2 -->
<g id="node2" class="node">
<title>Node2</title>
<g id="a_node2"><a xlink:href="detail_2RayCastInput_8hpp.html" target="_top" xlink:title="Declaration of the RayCastInput class template.">
<polygon fill="white" stroke="black" points="471.16,-358.5 471.16,-377.5 644.16,-377.5 644.16,-358.5 471.16,-358.5"/>
<text text-anchor="middle" x="557.66" y="-365.5" font-family="Helvetica,sans-Serif" font-size="10.00">playrho/detail/RayCastInput.hpp</text>
</a>
</g>
</g>
<!-- Node1&#45;&gt;Node2 -->
<g id="edge1" class="edge">
<title>Node1&#45;&gt;Node2</title>
<path fill="none" stroke="midnightblue" d="M557.66,-414.4C557.66,-406.47 557.66,-396.46 557.66,-387.86"/>
<polygon fill="midnightblue" stroke="midnightblue" points="561.16,-387.66 557.66,-377.66 554.16,-387.66 561.16,-387.66"/>
</g>
<!-- Node3 -->
<g id="node3" class="node">
<title>Node3</title>
<g id="a_node3"><a xlink:href="Vector_8hpp.html" target="_top" xlink:title="Definition of the Vector class template and closely related code.">
<polygon fill="white" stroke="black" points="164.16,-246.5 164.16,-265.5 271.16,-265.5 271.16,-246.5 164.16,-246.5"/>
<text text-anchor="middle" x="217.66" y="-253.5" font-family="Helvetica,sans-Serif" font-size="10.00">playrho/Vector.hpp</text>
</a>
</g>
</g>
<!-- Node2&#45;&gt;Node3 -->
<g id="edge2" class="edge">
<title>Node2&#45;&gt;Node3</title>
<path fill="none" stroke="midnightblue" d="M531.27,-358.46C470.89,-338.93 322.64,-290.96 253.83,-268.7"/>
<polygon fill="midnightblue" stroke="midnightblue" points="254.87,-265.36 244.28,-265.61 252.71,-272.02 254.87,-265.36"/>
</g>
<!-- Node20 -->
<g id="node20" class="node">
<title>Node20</title>
<g id="a_node20"><a xlink:href="UnitInterval_8hpp.html" target="_top" xlink:title="Definition of the UnitInterval value checked types and related code.">
<polygon fill="white" stroke="black" points="490.16,-246.5 490.16,-265.5 625.16,-265.5 625.16,-246.5 490.16,-246.5"/>
<text text-anchor="middle" x="557.66" y="-253.5" font-family="Helvetica,sans-Serif" font-size="10.00">playrho/UnitInterval.hpp</text>
</a>
</g>
</g>
<!-- Node2&#45;&gt;Node20 -->
<g id="edge24" class="edge">
<title>Node2&#45;&gt;Node20</title>
<path fill="none" stroke="midnightblue" d="M557.66,-358.37C557.66,-340.62 557.66,-299.67 557.66,-275.6"/>
<polygon fill="midnightblue" stroke="midnightblue" points="561.16,-275.59 557.66,-265.59 554.16,-275.59 561.16,-275.59"/>
</g>
<!-- Node23 -->
<g id="node23" class="node">
<title>Node23</title>
<g id="a_node23"><a xlink:href="Units_8hpp.html" target="_top" xlink:title="Declarations for physical units possibly backed by strong types.">
<polygon fill="white" stroke="black" points="786.16,-302.5 786.16,-321.5 889.16,-321.5 889.16,-302.5 786.16,-302.5"/>
<text text-anchor="middle" x="837.66" y="-309.5" font-family="Helvetica,sans-Serif" font-size="10.00">playrho/Units.hpp</text>
</a>
</g>
</g>
<!-- Node2&#45;&gt;Node23 -->
<g id="edge33" class="edge">
<title>Node2&#45;&gt;Node23</title>
<path fill="none" stroke="midnightblue" d="M602.03,-358.44C651.28,-348.94 730.79,-333.61 783.63,-323.42"/>
<polygon fill="midnightblue" stroke="midnightblue" points="784.35,-326.85 793.5,-321.52 783.02,-319.97 784.35,-326.85"/>
</g>
<!-- Node4 -->
<g id="node4" class="node">
<title>Node4</title>
<g id="a_node4"><a xlink:title=" ">
<polygon fill="white" stroke="#bfbfbf" points="10.66,-0.5 10.66,-19.5 74.66,-19.5 74.66,-0.5 10.66,-0.5"/>
<text text-anchor="middle" x="42.66" y="-7.5" font-family="Helvetica,sans-Serif" font-size="10.00">algorithm</text>
</a>
</g>
</g>
<!-- Node3&#45;&gt;Node4 -->
<g id="edge3" class="edge">
<title>Node3&#45;&gt;Node4</title>
<path fill="none" stroke="midnightblue" d="M163.92,-249.37C112.98,-242.89 41.53,-230.41 22.66,-210 -24.29,-159.21 13.94,-66.97 33.21,-28.54"/>
<polygon fill="midnightblue" stroke="midnightblue" points="36.35,-30.08 37.85,-19.6 30.14,-26.86 36.35,-30.08"/>
</g>
<!-- Node5 -->
<g id="node5" class="node">
<title>Node5</title>
<g id="a_node5"><a xlink:title=" ">
<polygon fill="white" stroke="#bfbfbf" points="65.66,-185 65.66,-204 117.66,-204 117.66,-185 65.66,-185"/>
<text text-anchor="middle" x="91.66" y="-192" font-family="Helvetica,sans-Serif" font-size="10.00">cassert</text>
</a>
</g>
</g>
<!-- Node3&#45;&gt;Node5 -->
<g id="edge4" class="edge">
<title>Node3&#45;&gt;Node5</title>
<path fill="none" stroke="midnightblue" d="M199.61,-246.48C178.46,-236.49 143.22,-219.85 118.78,-208.31"/>
<polygon fill="midnightblue" stroke="midnightblue" points="120.22,-205.11 109.68,-204.01 117.23,-211.44 120.22,-205.11"/>
</g>
<!-- Node6 -->
<g id="node6" class="node">
<title>Node6</title>
<g id="a_node6"><a xlink:title=" ">
<polygon fill="white" stroke="#bfbfbf" points="136.16,-185 136.16,-204 189.16,-204 189.16,-185 136.16,-185"/>
<text text-anchor="middle" x="162.66" y="-192" font-family="Helvetica,sans-Serif" font-size="10.00">cstddef</text>
</a>
</g>
</g>
<!-- Node3&#45;&gt;Node6 -->
<g id="edge5" class="edge">
<title>Node3&#45;&gt;Node6</title>
<path fill="none" stroke="midnightblue" d="M209.78,-246.48C201.37,-237.37 187.84,-222.74 177.44,-211.48"/>
<polygon fill="midnightblue" stroke="midnightblue" points="179.89,-208.98 170.53,-204.01 174.74,-213.73 179.89,-208.98"/>
</g>
<!-- Node7 -->
<g id="node7" class="node">
<title>Node7</title>
<g id="a_node7"><a xlink:title=" ">
<polygon fill="white" stroke="#bfbfbf" points="151.16,-0.5 151.16,-19.5 204.16,-19.5 204.16,-0.5 151.16,-0.5"/>
<text text-anchor="middle" x="177.66" y="-7.5" font-family="Helvetica,sans-Serif" font-size="10.00">iterator</text>
</a>
</g>
</g>
<!-- Node3&#45;&gt;Node7 -->
<g id="edge6" class="edge">
<title>Node3&#45;&gt;Node7</title>
<path fill="none" stroke="midnightblue" d="M164.14,-252.78C127.52,-248.65 79.95,-237.78 47.66,-210 23.07,-188.84 25.24,-174.77 18.66,-143 9.79,-100.17 30.49,-83.3 64.66,-56 87.04,-38.12 117.42,-26.56 141.05,-19.63"/>
<polygon fill="midnightblue" stroke="midnightblue" points="142.02,-23 150.71,-16.95 140.14,-16.25 142.02,-23"/>
</g>
<!-- Node8 -->
<g id="node8" class="node">
<title>Node8</title>
<g id="a_node8"><a xlink:title=" ">
<polygon fill="white" stroke="#bfbfbf" points="203.66,-123.5 203.66,-142.5 263.66,-142.5 263.66,-123.5 203.66,-123.5"/>
<text text-anchor="middle" x="233.66" y="-130.5" font-family="Helvetica,sans-Serif" font-size="10.00">iostream</text>
</a>
</g>
</g>
<!-- Node3&#45;&gt;Node8 -->
<g id="edge7" class="edge">
<title>Node3&#45;&gt;Node8</title>
<path fill="none" stroke="midnightblue" d="M218.81,-246.3C221.4,-226.76 227.7,-179.06 231.21,-152.55"/>
<polygon fill="midnightblue" stroke="midnightblue" points="234.68,-153 232.52,-142.62 227.74,-152.08 234.68,-153"/>
</g>
<!-- Node9 -->
<g id="node9" class="node">
<title>Node9</title>
<g id="a_node9"><a xlink:title=" ">
<polygon fill="white" stroke="#bfbfbf" points="246.16,-185 246.16,-204 287.16,-204 287.16,-185 246.16,-185"/>
<text text-anchor="middle" x="266.66" y="-192" font-family="Helvetica,sans-Serif" font-size="10.00">tuple</text>
</a>
</g>
</g>
<!-- Node3&#45;&gt;Node9 -->
<g id="edge8" class="edge">
<title>Node3&#45;&gt;Node9</title>
<path fill="none" stroke="midnightblue" d="M224.68,-246.48C232.1,-237.46 243.99,-223.02 253.23,-211.81"/>
<polygon fill="midnightblue" stroke="midnightblue" points="256,-213.95 259.65,-204.01 250.6,-209.5 256,-213.95"/>
</g>
<!-- Node10 -->
<g id="node10" class="node">
<title>Node10</title>
<g id="a_node10"><a xlink:title=" ">
<polygon fill="white" stroke="#bfbfbf" points="523.16,-0.5 523.16,-19.5 592.16,-19.5 592.16,-0.5 523.16,-0.5"/>
<text text-anchor="middle" x="557.66" y="-7.5" font-family="Helvetica,sans-Serif" font-size="10.00">type_traits</text>
</a>
</g>
</g>
<!-- Node3&#45;&gt;Node10 -->
<g id="edge9" class="edge">
<title>Node3&#45;&gt;Node10</title>
<path fill="none" stroke="midnightblue" d="M271.32,-250.82C334.14,-244.97 433.35,-232.45 462.66,-210 522.82,-163.93 546.74,-70.14 554.5,-29.96"/>
<polygon fill="midnightblue" stroke="midnightblue" points="557.98,-30.39 556.31,-19.93 551.09,-29.15 557.98,-30.39"/>
</g>
<!-- Node11 -->
<g id="node11" class="node">
<title>Node11</title>
<g id="a_node11"><a xlink:href="InvalidArgument_8hpp.html" target="_top" xlink:title="Definition of the InvalidArgument class.">
<polygon fill="white" stroke="black" points="27.66,-123.5 27.66,-142.5 185.66,-142.5 185.66,-123.5 27.66,-123.5"/>
<text text-anchor="middle" x="106.66" y="-130.5" font-family="Helvetica,sans-Serif" font-size="10.00">playrho/InvalidArgument.hpp</text>
</a>
</g>
</g>
<!-- Node3&#45;&gt;Node11 -->
<g id="edge10" class="edge">
<title>Node3&#45;&gt;Node11</title>
<path fill="none" stroke="midnightblue" d="M164.06,-247.09C122.48,-239.73 69.78,-227.28 56.66,-210 48.33,-199.02 51.06,-191.59 56.66,-179 62.23,-166.5 73.18,-156.01 83.41,-148.32"/>
<polygon fill="midnightblue" stroke="midnightblue" points="85.51,-151.12 91.71,-142.53 81.51,-145.38 85.51,-151.12"/>
</g>
<!-- Node13 -->
<g id="node13" class="node">
<title>Node13</title>
<g id="a_node13"><a xlink:href="Real_8hpp.html" target="_top" xlink:title="Real number definition file.">
<polygon fill="white" stroke="black" points="788.16,-185 788.16,-204 887.16,-204 887.16,-185 788.16,-185"/>
<text text-anchor="middle" x="837.66" y="-192" font-family="Helvetica,sans-Serif" font-size="10.00">playrho/Real.hpp</text>
</a>
</g>
</g>
<!-- Node3&#45;&gt;Node13 -->
<g id="edge12" class="edge">
<title>Node3&#45;&gt;Node13</title>
<path fill="none" stroke="midnightblue" d="M271.5,-251.44C366.3,-244.94 569.14,-229.95 739.66,-210 752.13,-208.54 765.45,-206.74 778.13,-204.9"/>
<polygon fill="midnightblue" stroke="midnightblue" points="778.75,-208.35 788.14,-203.43 777.73,-201.42 778.75,-208.35"/>
</g>
<!-- Node15 -->
<g id="node15" class="node">
<title>Node15</title>
<g id="a_node15"><a xlink:href="Templates_8hpp.html" target="_top" xlink:title="Definitions of miscellaneous template related code.">
<polygon fill="white" stroke="black" points="585.66,-123.5 585.66,-142.5 713.66,-142.5 713.66,-123.5 585.66,-123.5"/>
<text text-anchor="middle" x="649.66" y="-130.5" font-family="Helvetica,sans-Serif" font-size="10.00">playrho/Templates.hpp</text>
</a>
</g>
</g>
<!-- Node3&#45;&gt;Node15 -->
<g id="edge23" class="edge">
<title>Node3&#45;&gt;Node15</title>
<path fill="none" stroke="midnightblue" d="M271.28,-251.08C328.09,-245.84 419.87,-234.23 495.66,-210 544.86,-194.27 598,-165.02 627.21,-147.76"/>
<polygon fill="midnightblue" stroke="midnightblue" points="629.04,-150.74 635.82,-142.61 625.44,-144.74 629.04,-150.74"/>
</g>
<!-- Node12 -->
<g id="node12" class="node">
<title>Node12</title>
<g id="a_node12"><a xlink:title=" ">
<polygon fill="white" stroke="#bfbfbf" points="74.16,-62 74.16,-81 139.16,-81 139.16,-62 74.16,-62"/>
<text text-anchor="middle" x="106.66" y="-69" font-family="Helvetica,sans-Serif" font-size="10.00">stdexcept</text>
</a>
</g>
</g>
<!-- Node11&#45;&gt;Node12 -->
<g id="edge11" class="edge">
<title>Node11&#45;&gt;Node12</title>
<path fill="none" stroke="midnightblue" d="M106.66,-123.48C106.66,-115.08 106.66,-101.98 106.66,-91.16"/>
<polygon fill="midnightblue" stroke="midnightblue" points="110.16,-91.01 106.66,-81.01 103.16,-91.01 110.16,-91.01"/>
</g>
<!-- Node14 -->
<g id="node14" class="node">
<title>Node14</title>
<g id="a_node14"><a xlink:title=" ">
<polygon fill="white" stroke="#bfbfbf" points="815.66,-123.5 815.66,-142.5 859.66,-142.5 859.66,-123.5 815.66,-123.5"/>
<text text-anchor="middle" x="837.66" y="-130.5" font-family="Helvetica,sans-Serif" font-size="10.00">limits</text>
</a>
</g>
</g>
<!-- Node13&#45;&gt;Node14 -->
<g id="edge13" class="edge">
<title>Node13&#45;&gt;Node14</title>
<path fill="none" stroke="midnightblue" d="M837.66,-184.98C837.66,-176.58 837.66,-163.48 837.66,-152.66"/>
<polygon fill="midnightblue" stroke="midnightblue" points="841.16,-152.51 837.66,-142.51 834.16,-152.51 841.16,-152.51"/>
</g>
<!-- Node13&#45;&gt;Node15 -->
<g id="edge14" class="edge">
<title>Node13&#45;&gt;Node15</title>
<path fill="none" stroke="midnightblue" d="M810.73,-184.98C778.06,-174.64 722.84,-157.16 686.32,-145.6"/>
<polygon fill="midnightblue" stroke="midnightblue" points="687.14,-142.19 676.55,-142.51 685.03,-148.86 687.14,-142.19"/>
</g>
<!-- Node15&#45;&gt;Node10 -->
<g id="edge16" class="edge">
<title>Node15&#45;&gt;Node10</title>
<path fill="none" stroke="midnightblue" d="M651.52,-123.16C654.18,-108.02 657.38,-76.76 643.66,-56 633.49,-40.6 616.29,-30.14 599.92,-23.22"/>
<polygon fill="midnightblue" stroke="midnightblue" points="601.04,-19.89 590.45,-19.53 598.5,-26.42 601.04,-19.89"/>
</g>
<!-- Node16 -->
<g id="node16" class="node">
<title>Node16</title>
<g id="a_node16"><a xlink:title=" ">
<polygon fill="white" stroke="#bfbfbf" points="586.16,-62 586.16,-81 635.16,-81 635.16,-62 586.16,-62"/>
<text text-anchor="middle" x="610.66" y="-69" font-family="Helvetica,sans-Serif" font-size="10.00">cstdlib</text>
</a>
</g>
</g>
<!-- Node15&#45;&gt;Node16 -->
<g id="edge15" class="edge">
<title>Node15&#45;&gt;Node16</title>
<path fill="none" stroke="midnightblue" d="M644.07,-123.48C638.28,-114.64 629.07,-100.59 621.79,-89.48"/>
<polygon fill="midnightblue" stroke="midnightblue" points="624.65,-87.45 616.24,-81.01 618.79,-91.29 624.65,-87.45"/>
</g>
<!-- Node17 -->
<g id="node17" class="node">
<title>Node17</title>
<g id="a_node17"><a xlink:href="detail_2Templates_8hpp.html" target="_top" xlink:title="Low&#45;level declarations for general class &amp; function templates.">
<polygon fill="white" stroke="black" points="295.66,-62 295.66,-81 453.66,-81 453.66,-62 295.66,-62"/>
<text text-anchor="middle" x="374.66" y="-69" font-family="Helvetica,sans-Serif" font-size="10.00">playrho/detail/Templates.hpp</text>
</a>
</g>
</g>
<!-- Node15&#45;&gt;Node17 -->
<g id="edge17" class="edge">
<title>Node15&#45;&gt;Node17</title>
<path fill="none" stroke="midnightblue" d="M610.26,-123.48C561.15,-112.85 477.2,-94.68 423.9,-83.15"/>
<polygon fill="midnightblue" stroke="midnightblue" points="424.5,-79.7 413.99,-81.01 423.02,-86.54 424.5,-79.7"/>
</g>
<!-- Node17&#45;&gt;Node4 -->
<g id="edge18" class="edge">
<title>Node17&#45;&gt;Node4</title>
<path fill="none" stroke="midnightblue" d="M327.09,-61.98C262.21,-50.35 146.97,-29.69 84.96,-18.58"/>
<polygon fill="midnightblue" stroke="midnightblue" points="85.57,-15.14 75.11,-16.82 84.34,-22.03 85.57,-15.14"/>
</g>
<!-- Node17&#45;&gt;Node7 -->
<g id="edge20" class="edge">
<title>Node17&#45;&gt;Node7</title>
<path fill="none" stroke="midnightblue" d="M346.44,-61.98C311.57,-51.44 252.19,-33.51 213.97,-21.96"/>
<polygon fill="midnightblue" stroke="midnightblue" points="214.84,-18.57 204.26,-19.03 212.82,-25.27 214.84,-18.57"/>
</g>
<!-- Node17&#45;&gt;Node10 -->
<g id="edge21" class="edge">
<title>Node17&#45;&gt;Node10</title>
<path fill="none" stroke="midnightblue" d="M400.88,-61.98C432.68,-51.64 486.43,-34.16 521.98,-22.6"/>
<polygon fill="midnightblue" stroke="midnightblue" points="523.06,-25.93 531.49,-19.51 520.9,-19.27 523.06,-25.93"/>
</g>
<!-- Node18 -->
<g id="node18" class="node">
<title>Node18</title>
<g id="a_node18"><a xlink:title=" ">
<polygon fill="white" stroke="#bfbfbf" points="342.16,-0.5 342.16,-19.5 407.16,-19.5 407.16,-0.5 342.16,-0.5"/>
<text text-anchor="middle" x="374.66" y="-7.5" font-family="Helvetica,sans-Serif" font-size="10.00">functional</text>
</a>
</g>
</g>
<!-- Node17&#45;&gt;Node18 -->
<g id="edge19" class="edge">
<title>Node17&#45;&gt;Node18</title>
<path fill="none" stroke="midnightblue" d="M374.66,-61.98C374.66,-53.58 374.66,-40.48 374.66,-29.66"/>
<polygon fill="midnightblue" stroke="midnightblue" points="378.16,-29.51 374.66,-19.51 371.16,-29.51 378.16,-29.51"/>
</g>
<!-- Node19 -->
<g id="node19" class="node">
<title>Node19</title>
<g id="a_node19"><a xlink:title=" ">
<polygon fill="white" stroke="#bfbfbf" points="262.16,-0.5 262.16,-19.5 307.16,-19.5 307.16,-0.5 262.16,-0.5"/>
<text text-anchor="middle" x="284.66" y="-7.5" font-family="Helvetica,sans-Serif" font-size="10.00">utility</text>
</a>
</g>
</g>
<!-- Node17&#45;&gt;Node19 -->
<g id="edge22" class="edge">
<title>Node17&#45;&gt;Node19</title>
<path fill="none" stroke="midnightblue" d="M361.77,-61.98C347.2,-52.34 323.26,-36.52 305.92,-25.05"/>
<polygon fill="midnightblue" stroke="midnightblue" points="307.8,-22.1 297.53,-19.51 303.94,-27.94 307.8,-22.1"/>
</g>
<!-- Node20&#45;&gt;Node10 -->
<g id="edge25" class="edge">
<title>Node20&#45;&gt;Node10</title>
<path fill="none" stroke="midnightblue" d="M557.66,-246.32C557.66,-211.18 557.66,-79.12 557.66,-29.76"/>
<polygon fill="midnightblue" stroke="midnightblue" points="561.16,-29.58 557.66,-19.58 554.16,-29.58 561.16,-29.58"/>
</g>
<!-- Node21 -->
<g id="node21" class="node">
<title>Node21</title>
<g id="a_node21"><a xlink:href="Checked_8hpp.html" target="_top" xlink:title="Declarations of the Checked class template and closely related code.">
<polygon fill="white" stroke="black" points="305.16,-185 305.16,-204 454.16,-204 454.16,-185 305.16,-185"/>
<text text-anchor="middle" x="379.66" y="-192" font-family="Helvetica,sans-Serif" font-size="10.00">playrho/detail/Checked.hpp</text>
</a>
</g>
</g>
<!-- Node20&#45;&gt;Node21 -->
<g id="edge26" class="edge">
<title>Node20&#45;&gt;Node21</title>
<path fill="none" stroke="midnightblue" d="M532.16,-246.48C501.36,-236.18 449.4,-218.81 414.81,-207.25"/>
<polygon fill="midnightblue" stroke="midnightblue" points="415.71,-203.86 405.12,-204.01 413.49,-210.5 415.71,-203.86"/>
</g>
<!-- Node22 -->
<g id="node22" class="node">
<title>Node22</title>
<g id="a_node22"><a xlink:href="UnitIntervalChecker_8hpp.html" target="_top" xlink:title="Definition of the UnitIntervalChecker class template.">
<polygon fill="white" stroke="black" points="586.16,-179.5 586.16,-209.5 731.16,-209.5 731.16,-179.5 586.16,-179.5"/>
<text text-anchor="start" x="594.16" y="-197.5" font-family="Helvetica,sans-Serif" font-size="10.00">playrho/detail/UnitInterval</text>
<text text-anchor="middle" x="658.66" y="-186.5" font-family="Helvetica,sans-Serif" font-size="10.00">Checker.hpp</text>
</a>
</g>
</g>
<!-- Node20&#45;&gt;Node22 -->
<g id="edge32" class="edge">
<title>Node20&#45;&gt;Node22</title>
<path fill="none" stroke="midnightblue" d="M572.13,-246.48C586.07,-238.27 607.64,-225.56 625.76,-214.88"/>
<polygon fill="midnightblue" stroke="midnightblue" points="628.02,-217.61 634.86,-209.52 624.47,-211.58 628.02,-217.61"/>
</g>
<!-- Node21&#45;&gt;Node8 -->
<g id="edge27" class="edge">
<title>Node21&#45;&gt;Node8</title>
<path fill="none" stroke="midnightblue" d="M358.74,-184.98C333.92,-174.86 292.32,-157.9 263.97,-146.35"/>
<polygon fill="midnightblue" stroke="midnightblue" points="265.12,-143.04 254.54,-142.51 262.48,-149.52 265.12,-143.04"/>
</g>
<!-- Node21&#45;&gt;Node10 -->
<g id="edge28" class="edge">
<title>Node21&#45;&gt;Node10</title>
<path fill="none" stroke="midnightblue" d="M387,-184.81C405.9,-162.6 458.06,-102.26 505.66,-56 516.36,-45.6 529.01,-34.63 539.15,-26.12"/>
<polygon fill="midnightblue" stroke="midnightblue" points="541.53,-28.7 546.99,-19.62 537.06,-23.31 541.53,-28.7"/>
</g>
<!-- Node21&#45;&gt;Node11 -->
<g id="edge30" class="edge">
<title>Node21&#45;&gt;Node11</title>
<path fill="none" stroke="midnightblue" d="M340.55,-184.98C291.79,-174.35 208.45,-156.18 155.54,-144.65"/>
<polygon fill="midnightblue" stroke="midnightblue" points="156.22,-141.22 145.7,-142.51 154.73,-148.06 156.22,-141.22"/>
</g>
<!-- Node21&#45;&gt;Node15 -->
<g id="edge31" class="edge">
<title>Node21&#45;&gt;Node15</title>
<path fill="none" stroke="midnightblue" d="M418.35,-184.98C466.47,-174.37 548.65,-156.26 601,-144.72"/>
<polygon fill="midnightblue" stroke="midnightblue" points="602.04,-148.08 611.05,-142.51 600.53,-141.24 602.04,-148.08"/>
</g>
<!-- Node21&#45;&gt;Node19 -->
<g id="edge29" class="edge">
<title>Node21&#45;&gt;Node19</title>
<path fill="none" stroke="midnightblue" d="M368.02,-184.84C347.09,-168.46 303.71,-130.68 286.66,-87 279.48,-68.6 280.01,-45.73 281.69,-29.92"/>
<polygon fill="midnightblue" stroke="midnightblue" points="285.19,-30.18 283.03,-19.81 278.25,-29.27 285.19,-30.18"/>
</g>
<!-- Node23&#45;&gt;Node10 -->
<g id="edge35" class="edge">
<title>Node23&#45;&gt;Node10</title>
<path fill="none" stroke="midnightblue" d="M889.18,-309.36C961.34,-306 1087.42,-295.9 1120.66,-266 1144.79,-244.3 1139.66,-227.95 1139.66,-195.5 1139.66,-195.5 1139.66,-195.5 1139.66,-132 1139.66,-22.37 738.78,-11.37 602.43,-10.8"/>
<polygon fill="midnightblue" stroke="midnightblue" points="602.33,-7.3 592.33,-10.77 602.32,-14.3 602.33,-7.3"/>
</g>
<!-- Node23&#45;&gt;Node13 -->
<g id="edge36" class="edge">
<title>Node23&#45;&gt;Node13</title>
<path fill="none" stroke="midnightblue" d="M869.85,-302.49C888.2,-295.8 909.68,-284.45 920.66,-266 935.69,-240.75 901.88,-220.17 872.99,-207.9"/>
<polygon fill="midnightblue" stroke="midnightblue" points="874.04,-204.55 863.45,-204.06 871.42,-211.05 874.04,-204.55"/>
</g>
<!-- Node23&#45;&gt;Node15 -->
<g id="edge39" class="edge">
<title>Node23&#45;&gt;Node15</title>
<path fill="none" stroke="midnightblue" d="M786.04,-310.21C752.45,-306.68 710.89,-295.94 688.66,-266 663.05,-231.51 734.97,-219.05 739.66,-210 746,-197.77 746.91,-190.72 739.66,-179 729.99,-163.35 713.04,-152.96 696.44,-146.15"/>
<polygon fill="midnightblue" stroke="midnightblue" points="697.36,-142.76 686.76,-142.54 694.91,-149.32 697.36,-142.76"/>
</g>
<!-- Node24 -->
<g id="node24" class="node">
<title>Node24</title>
<g id="a_node24"><a xlink:title=" ">
<polygon fill="white" stroke="#bfbfbf" points="698.16,-246.5 698.16,-265.5 745.16,-265.5 745.16,-246.5 698.16,-246.5"/>
<text text-anchor="middle" x="721.66" y="-253.5" font-family="Helvetica,sans-Serif" font-size="10.00">cmath</text>
</a>
</g>
</g>
<!-- Node23&#45;&gt;Node24 -->
<g id="edge34" class="edge">
<title>Node23&#45;&gt;Node24</title>
<path fill="none" stroke="midnightblue" d="M819.28,-302.44C800.45,-293.68 770.93,-279.94 749.28,-269.86"/>
<polygon fill="midnightblue" stroke="midnightblue" points="750.5,-266.56 739.96,-265.52 747.54,-272.91 750.5,-266.56"/>
</g>
<!-- Node25 -->
<g id="node25" class="node">
<title>Node25</title>
<g id="a_node25"><a xlink:href="RealConstants_8hpp.html" target="_top" xlink:title="Definitions file for constant expressions of type Real.">
<polygon fill="white" stroke="black" points="763.66,-246.5 763.66,-265.5 911.66,-265.5 911.66,-246.5 763.66,-246.5"/>
<text text-anchor="middle" x="837.66" y="-253.5" font-family="Helvetica,sans-Serif" font-size="10.00">playrho/RealConstants.hpp</text>
</a>
</g>
</g>
<!-- Node23&#45;&gt;Node25 -->
<g id="edge37" class="edge">
<title>Node23&#45;&gt;Node25</title>
<path fill="none" stroke="midnightblue" d="M837.66,-302.08C837.66,-295.01 837.66,-284.86 837.66,-275.99"/>
<polygon fill="midnightblue" stroke="midnightblue" points="841.16,-275.75 837.66,-265.75 834.16,-275.75 841.16,-275.75"/>
</g>
<!-- Node26 -->
<g id="node26" class="node">
<title>Node26</title>
<g id="a_node26"><a xlink:href="to__underlying_8hpp.html" target="_top" xlink:title="Definition of to_underlying function template.">
<polygon fill="white" stroke="black" points="967.66,-246.5 967.66,-265.5 1111.66,-265.5 1111.66,-246.5 967.66,-246.5"/>
<text text-anchor="middle" x="1039.66" y="-253.5" font-family="Helvetica,sans-Serif" font-size="10.00">playrho/to_underlying.hpp</text>
</a>
</g>
</g>
<!-- Node23&#45;&gt;Node26 -->
<g id="edge40" class="edge">
<title>Node23&#45;&gt;Node26</title>
<path fill="none" stroke="midnightblue" d="M869.67,-302.44C904.39,-293.16 959.95,-278.31 998.04,-268.13"/>
<polygon fill="midnightblue" stroke="midnightblue" points="999.05,-271.48 1007.8,-265.52 997.24,-264.72 999.05,-271.48"/>
</g>
<!-- Node25&#45;&gt;Node13 -->
<g id="edge38" class="edge">
<title>Node25&#45;&gt;Node13</title>
<path fill="none" stroke="midnightblue" d="M837.66,-246.48C837.66,-238.08 837.66,-224.98 837.66,-214.16"/>
<polygon fill="midnightblue" stroke="midnightblue" points="841.16,-214.01 837.66,-204.01 834.16,-214.01 841.16,-214.01"/>
</g>
<!-- Node27 -->
<g id="node27" class="node">
<title>Node27</title>
<g id="a_node27"><a xlink:href="underlying__type_8hpp.html" target="_top" xlink:title="Definition of underlying_type trait class and related code.">
<polygon fill="white" stroke="black" points="769.16,-56.5 769.16,-86.5 908.16,-86.5 908.16,-56.5 769.16,-56.5"/>
<text text-anchor="start" x="777.16" y="-74.5" font-family="Helvetica,sans-Serif" font-size="10.00">playrho/detail/underlying</text>
<text text-anchor="middle" x="838.66" y="-63.5" font-family="Helvetica,sans-Serif" font-size="10.00">_type.hpp</text>
</a>
</g>
</g>
<!-- Node26&#45;&gt;Node27 -->
<g id="edge41" class="edge">
<title>Node26&#45;&gt;Node27</title>
<path fill="none" stroke="midnightblue" d="M1030.24,-246.44C1000.21,-219.18 906.16,-133.78 862,-93.69"/>
<polygon fill="midnightblue" stroke="midnightblue" points="864.12,-90.89 854.36,-86.75 859.41,-96.07 864.12,-90.89"/>
</g>
<!-- Node27&#45;&gt;Node10 -->
<g id="edge42" class="edge">
<title>Node27&#45;&gt;Node10</title>
<path fill="none" stroke="midnightblue" d="M772.42,-56.47C719.93,-45.36 648.02,-30.13 602.2,-20.43"/>
<polygon fill="midnightblue" stroke="midnightblue" points="602.78,-16.98 592.27,-18.33 601.33,-23.82 602.78,-16.98"/>
</g>
</g>
</svg>
        <g id="navigator" transform="translate(0 0)" fill="#404254">
                <rect fill="#f2f5e9" fill-opacity="0.5" stroke="#606060" stroke-width=".5" x="0" y="0" width="60" height="60"/>
                <use id="zoomplus" xlink:href="#zoomPlus" x="17" y="9" onmousedown="handleZoom(evt,'in')"/>
                <use id="zoomminus" xlink:href="#zoomMin" x="42" y="9" onmousedown="handleZoom(evt,'out')"/>
                <use id="reset" xlink:href="#resetDef" x="30" y="36" onmousedown="handleReset()"/>
                <g id="arrowUp" xlink:href="#dirArrow" transform="translate(30 24)" onmousedown="handlePan(0,-1)">
                  <use xlink:href="#rim" fill="#404040">
                        <set attributeName="fill" to="#808080" begin="arrowUp.mouseover" end="arrowUp.mouseout"/>
                  </use>
                  <path fill="none" stroke="white" stroke-width="1.5" d="M0,-3.0v7 M-2.5,-0.5L0,-3.0L2.5,-0.5"/>
                </g>
                <g id="arrowRight" xlink:href="#dirArrow" transform="rotate(90) translate(36 -43)" onmousedown="handlePan(1,0)">
                  <use xlink:href="#rim" fill="#404040">
                        <set attributeName="fill" to="#808080" begin="arrowRight.mouseover" end="arrowRight.mouseout"/>
                  </use>
                  <path fill="none" stroke="white" stroke-width="1.5" d="M0,-3.0v7 M-2.5,-0.5L0,-3.0L2.5,-0.5"/>
                </g>
                <g id="arrowDown" xlink:href="#dirArrow" transform="rotate(180) translate(-30 -48)" onmousedown="handlePan(0,1)">
                  <use xlink:href="#rim" fill="#404040">
                        <set attributeName="fill" to="#808080" begin="arrowDown.mouseover" end="arrowDown.mouseout"/>
                  </use>
                  <path fill="none" stroke="white" stroke-width="1.5" d="M0,-3.0v7 M-2.5,-0.5L0,-3.0L2.5,-0.5"/>
                </g>
                <g id="arrowLeft" xlink:href="#dirArrow" transform="rotate(270) translate(-36 17)" onmousedown="handlePan(-1,0)">
                  <use xlink:href="#rim" fill="#404040">
                        <set attributeName="fill" to="#808080" begin="arrowLeft.mouseover" end="arrowLeft.mouseout"/>
                  </use>
                  <path fill="none" stroke="white" stroke-width="1.5" d="M0,-3.0v7 M-2.5,-0.5L0,-3.0L2.5,-0.5"/>
                </g>
        </g>
        <svg viewBox="0 0 15 15" width="100%" height="30px" preserveAspectRatio="xMaxYMin meet">
         <g id="arrow_out" transform="scale(0.3 0.3)">
          <a xlink:href="d2_2RayCastInput_8hpp__incl_org.svg" target="_base">
           <rect id="button" ry="5" rx="5" y="6" x="6" height="38" width="38"
                fill="#f2f5e9" fill-opacity="0.5" stroke="#606060" stroke-width="1.0"/>
           <path id="arrow"
             d="M 11.500037,31.436501 C 11.940474,20.09759 22.043105,11.32322 32.158766,21.979434 L 37.068811,17.246167 C 37.068811,17.246167 37.088388,32 37.088388,32 L 22.160133,31.978069 C 22.160133,31.978069 26.997745,27.140456 26.997745,27.140456 C 18.528582,18.264221 13.291696,25.230495 11.500037,31.436501 z"
             style="fill:#404040;"/>
          </a>
         </g>
        </svg>
</svg>
