<?xml version="1.0" encoding="UTF-8" standalone="no"?>
<!DOCTYPE svg PUBLIC "-//W3C//DTD SVG 1.1//EN"
 "http://www.w3.org/Graphics/SVG/1.1/DTD/svg11.dtd">
<!-- Generated by graphviz version 2.43.0 (0)
 -->
<!-- Title: Library/include/playrho/detail/RayCastInput.hpp Pages: 1 -->
<svg width="145pt" height="173pt"
 viewBox="0.00 0.00 145.00 173.00" xmlns="http://www.w3.org/2000/svg" xmlns:xlink="http://www.w3.org/1999/xlink">
<g id="graph0" class="graph" transform="scale(1 1) rotate(0) translate(4 169)">
<title>Library/include/playrho/detail/RayCastInput.hpp</title>
<polygon fill="white" stroke="transparent" points="-4,4 -4,-169 141,-169 141,4 -4,4"/>
<!-- Node1 -->
<g id="node1" class="node">
<title>Node1</title>
<g id="a_node1"><a xlink:title="Declaration of the RayCastInput class template.">
<polygon fill="#bfbfbf" stroke="black" points="0,-134.5 0,-164.5 137,-164.5 137,-134.5 0,-134.5"/>
<text text-anchor="start" x="8" y="-152.5" font-family="Helvetica,sans-Serif" font-size="10.00">Library/include/playrho</text>
<text text-anchor="middle" x="68.5" y="-141.5" font-family="Helvetica,sans-Serif" font-size="10.00">/detail/RayCastInput.hpp</text>
</a>
</g>
</g>
<!-- Node2 -->
<g id="node2" class="node">
<title>Node2</title>
<g id="a_node2"><a xlink:href="d2_2RayCastInput_8hpp.html" target="_top" xlink:title="Alias for the 2&#45;D RayCastInput struct.">
<polygon fill="white" stroke="black" points="4.5,-67.5 4.5,-97.5 132.5,-97.5 132.5,-67.5 4.5,-67.5"/>
<text text-anchor="start" x="12.5" y="-85.5" font-family="Helvetica,sans-Serif" font-size="10.00">Library/include/playrho</text>
<text text-anchor="middle" x="68.5" y="-74.5" font-family="Helvetica,sans-Serif" font-size="10.00">/d2/RayCastInput.hpp</text>
</a>
</g>
</g>
<!-- Node1&#45;&gt;Node2 -->
<g id="edge1" class="edge">
<title>Node1&#45;&gt;Node2</title>
<path fill="none" stroke="midnightblue" d="M68.5,-124.11C68.5,-115.15 68.5,-105.32 68.5,-97.58"/>
<polygon fill="midnightblue" stroke="midnightblue" points="65,-124.4 68.5,-134.4 72,-124.4 65,-124.4"/>
</g>
<!-- Node3 -->
<g id="node3" class="node">
<title>Node3</title>
<g id="a_node3"><a xlink:href="RayCastOutput_8hpp.html" target="_top" xlink:title="Declaration of the RayCastOutput structure and related free functions.">
<polygon fill="white" stroke="black" points="4,-0.5 4,-30.5 133,-30.5 133,-0.5 4,-0.5"/>
<text text-anchor="start" x="12" y="-18.5" font-family="Helvetica,sans-Serif" font-size="10.00">Library/include/playrho</text>
<text text-anchor="middle" x="68.5" y="-7.5" font-family="Helvetica,sans-Serif" font-size="10.00">/d2/RayCastOutput.hpp</text>
</a>
</g>
</g>
<!-- Node2&#45;&gt;Node3 -->
<g id="edge2" class="edge">
<title>Node2&#45;&gt;Node3</title>
<path fill="none" stroke="midnightblue" d="M68.5,-57.11C68.5,-48.15 68.5,-38.32 68.5,-30.58"/>
<polygon fill="midnightblue" stroke="midnightblue" points="65,-57.4 68.5,-67.4 72,-57.4 65,-57.4"/>
</g>
</g>
</svg>
