<?xml version="1.0" encoding="UTF-8" standalone="no"?>
<!DOCTYPE svg PUBLIC "-//W3C//DTD SVG 1.1//EN"
 "http://www.w3.org/Graphics/SVG/1.1/DTD/svg11.dtd">
<!-- Generated by graphviz version 2.43.0 (0)
 -->
<!-- Title: Library/include/playrho/detail/AABB.hpp Pages: 1 -->
<svg width="1787pt" height="453pt"
 viewBox="0.00 0.00 1787.00 453.00" xmlns="http://www.w3.org/2000/svg" xmlns:xlink="http://www.w3.org/1999/xlink">
<g id="graph0" class="graph" transform="scale(1 1) rotate(0) translate(4 449)">
<title>Library/include/playrho/detail/AABB.hpp</title>
<polygon fill="white" stroke="transparent" points="-4,4 -4,-449 1783,-449 1783,4 -4,4"/>
<!-- Node1 -->
<g id="node1" class="node">
<title>Node1</title>
<g id="a_node1"><a xlink:title="Declaration of the AABB class and free functions that return instances of it.">
<polygon fill="#bfbfbf" stroke="black" points="461,-414.5 461,-444.5 589,-444.5 589,-414.5 461,-414.5"/>
<text text-anchor="start" x="469" y="-432.5" font-family="Helvetica,sans-Serif" font-size="10.00">Library/include/playrho</text>
<text text-anchor="middle" x="525" y="-421.5" font-family="Helvetica,sans-Serif" font-size="10.00">/detail/AABB.hpp</text>
</a>
</g>
</g>
<!-- Node2 -->
<g id="node2" class="node">
<title>Node2</title>
<g id="a_node2"><a xlink:title=" ">
<polygon fill="white" stroke="#bfbfbf" points="44,-0.5 44,-19.5 108,-19.5 108,-0.5 44,-0.5"/>
<text text-anchor="middle" x="76" y="-7.5" font-family="Helvetica,sans-Serif" font-size="10.00">algorithm</text>
</a>
</g>
</g>
<!-- Node1&#45;&gt;Node2 -->
<g id="edge1" class="edge">
<title>Node1&#45;&gt;Node2</title>
<path fill="none" stroke="midnightblue" d="M460.89,-427.74C320.84,-424.35 0,-406.38 0,-313 0,-313 0,-313 0,-132 0,-88.48 35.7,-47.77 58.16,-26.47"/>
<polygon fill="midnightblue" stroke="midnightblue" points="60.73,-28.86 65.75,-19.53 56.01,-23.7 60.73,-28.86"/>
</g>
<!-- Node3 -->
<g id="node3" class="node">
<title>Node3</title>
<g id="a_node3"><a xlink:title=" ">
<polygon fill="white" stroke="#bfbfbf" points="396.5,-0.5 396.5,-19.5 441.5,-19.5 441.5,-0.5 396.5,-0.5"/>
<text text-anchor="middle" x="419" y="-7.5" font-family="Helvetica,sans-Serif" font-size="10.00">utility</text>
</a>
</g>
</g>
<!-- Node1&#45;&gt;Node3 -->
<g id="edge2" class="edge">
<title>Node1&#45;&gt;Node3</title>
<path fill="none" stroke="midnightblue" d="M460.78,-423.79C345.19,-413.55 114,-384.15 114,-313 114,-313 114,-313 114,-132 114,-77.93 160.15,-79.17 209,-56 240.06,-41.27 335.32,-24.41 386.18,-16.14"/>
<polygon fill="midnightblue" stroke="midnightblue" points="387.01,-19.55 396.33,-14.5 385.9,-12.64 387.01,-19.55"/>
</g>
<!-- Node4 -->
<g id="node4" class="node">
<title>Node4</title>
<g id="a_node4"><a xlink:href="Intervals_8hpp.html" target="_top" xlink:title="Alias for an Interval of Length .">
<polygon fill="white" stroke="black" points="727,-358.5 727,-377.5 847,-377.5 847,-358.5 727,-358.5"/>
<text text-anchor="middle" x="787" y="-365.5" font-family="Helvetica,sans-Serif" font-size="10.00">playrho/Intervals.hpp</text>
</a>
</g>
</g>
<!-- Node1&#45;&gt;Node4 -->
<g id="edge3" class="edge">
<title>Node1&#45;&gt;Node4</title>
<path fill="none" stroke="midnightblue" d="M586.76,-414.47C633.54,-403.85 696.85,-389.47 739.66,-379.75"/>
<polygon fill="midnightblue" stroke="midnightblue" points="740.57,-383.13 749.54,-377.51 739.02,-376.31 740.57,-383.13"/>
</g>
<!-- Node13 -->
<g id="node13" class="node">
<title>Node13</title>
<g id="a_node13"><a xlink:href="Templates_8hpp.html" target="_top" xlink:title="Definitions of miscellaneous template related code.">
<polygon fill="white" stroke="black" points="708,-123.5 708,-142.5 836,-142.5 836,-123.5 708,-123.5"/>
<text text-anchor="middle" x="772" y="-130.5" font-family="Helvetica,sans-Serif" font-size="10.00">playrho/Templates.hpp</text>
</a>
</g>
</g>
<!-- Node1&#45;&gt;Node13 -->
<g id="edge63" class="edge">
<title>Node1&#45;&gt;Node13</title>
<path fill="none" stroke="midnightblue" d="M529.25,-414.43C535.39,-392.82 546,-350.09 546,-313 546,-313 546,-313 546,-255 546,-220.07 540.79,-203.17 566,-179 576.47,-168.96 652.93,-154.11 709.66,-144.24"/>
<polygon fill="midnightblue" stroke="midnightblue" points="710.38,-147.67 719.64,-142.52 709.2,-140.77 710.38,-147.67"/>
</g>
<!-- Node25 -->
<g id="node25" class="node">
<title>Node25</title>
<g id="a_node25"><a xlink:href="Vector_8hpp.html" target="_top" xlink:title="Definition of the Vector class template and closely related code.">
<polygon fill="white" stroke="black" points="410.5,-246.5 410.5,-265.5 517.5,-265.5 517.5,-246.5 410.5,-246.5"/>
<text text-anchor="middle" x="464" y="-253.5" font-family="Helvetica,sans-Serif" font-size="10.00">playrho/Vector.hpp</text>
</a>
</g>
</g>
<!-- Node1&#45;&gt;Node25 -->
<g id="edge36" class="edge">
<title>Node1&#45;&gt;Node25</title>
<path fill="none" stroke="midnightblue" d="M520.01,-414.47C509.02,-383.57 482.74,-309.69 470.49,-275.25"/>
<polygon fill="midnightblue" stroke="midnightblue" points="473.69,-273.81 467.04,-265.56 467.1,-276.15 473.69,-273.81"/>
</g>
<!-- Node28 -->
<g id="node28" class="node">
<title>Node28</title>
<g id="a_node28"><a xlink:href="Settings_8hpp.html" target="_top" xlink:title="Types and default settings file.">
<polygon fill="white" stroke="black" points="1369.5,-358.5 1369.5,-377.5 1486.5,-377.5 1486.5,-358.5 1369.5,-358.5"/>
<text text-anchor="middle" x="1428" y="-365.5" font-family="Helvetica,sans-Serif" font-size="10.00">playrho/Settings.hpp</text>
</a>
</g>
</g>
<!-- Node1&#45;&gt;Node28 -->
<g id="edge47" class="edge">
<title>Node1&#45;&gt;Node28</title>
<path fill="none" stroke="midnightblue" d="M589.22,-424.27C753.87,-413.42 1190.03,-384.68 1359.4,-373.52"/>
<polygon fill="midnightblue" stroke="midnightblue" points="1359.69,-377.01 1369.44,-372.86 1359.23,-370.02 1359.69,-377.01"/>
</g>
<!-- Node5 -->
<g id="node5" class="node">
<title>Node5</title>
<g id="a_node5"><a xlink:href="Interval_8hpp.html" target="_top" xlink:title="Definition of the Interval class template and closely related code.">
<polygon fill="white" stroke="black" points="729.5,-302.5 729.5,-321.5 844.5,-321.5 844.5,-302.5 729.5,-302.5"/>
<text text-anchor="middle" x="787" y="-309.5" font-family="Helvetica,sans-Serif" font-size="10.00">playrho/Interval.hpp</text>
</a>
</g>
</g>
<!-- Node4&#45;&gt;Node5 -->
<g id="edge4" class="edge">
<title>Node4&#45;&gt;Node5</title>
<path fill="none" stroke="midnightblue" d="M787,-358.08C787,-351.01 787,-340.86 787,-331.99"/>
<polygon fill="midnightblue" stroke="midnightblue" points="790.5,-331.75 787,-321.75 783.5,-331.75 790.5,-331.75"/>
</g>
<!-- Node18 -->
<g id="node18" class="node">
<title>Node18</title>
<g id="a_node18"><a xlink:href="Units_8hpp.html" target="_top" xlink:title="Declarations for physical units possibly backed by strong types.">
<polygon fill="white" stroke="black" points="1035.5,-302.5 1035.5,-321.5 1138.5,-321.5 1138.5,-302.5 1035.5,-302.5"/>
<text text-anchor="middle" x="1087" y="-309.5" font-family="Helvetica,sans-Serif" font-size="10.00">playrho/Units.hpp</text>
</a>
</g>
</g>
<!-- Node4&#45;&gt;Node18 -->
<g id="edge24" class="edge">
<title>Node4&#45;&gt;Node18</title>
<path fill="none" stroke="midnightblue" d="M834.54,-358.44C887.53,-348.9 973.2,-333.48 1029.82,-323.29"/>
<polygon fill="midnightblue" stroke="midnightblue" points="1030.46,-326.73 1039.69,-321.52 1029.22,-319.84 1030.46,-326.73"/>
</g>
<!-- Node5&#45;&gt;Node2 -->
<g id="edge5" class="edge">
<title>Node5&#45;&gt;Node2</title>
<path fill="none" stroke="midnightblue" d="M729.27,-308.84C589.1,-302.52 235.56,-279.89 144,-210 86.29,-165.95 77.21,-70.27 76.03,-29.74"/>
<polygon fill="midnightblue" stroke="midnightblue" points="79.52,-29.6 75.87,-19.66 72.52,-29.71 79.52,-29.6"/>
</g>
<!-- Node6 -->
<g id="node6" class="node">
<title>Node6</title>
<g id="a_node6"><a xlink:title=" ">
<polygon fill="white" stroke="#bfbfbf" points="1023,-123.5 1023,-142.5 1067,-142.5 1067,-123.5 1023,-123.5"/>
<text text-anchor="middle" x="1045" y="-130.5" font-family="Helvetica,sans-Serif" font-size="10.00">limits</text>
</a>
</g>
</g>
<!-- Node5&#45;&gt;Node6 -->
<g id="edge6" class="edge">
<title>Node5&#45;&gt;Node6</title>
<path fill="none" stroke="midnightblue" d="M802.6,-302.36C827.08,-289.05 876.24,-263.24 920,-246 971.01,-225.9 1003.38,-252.52 1038,-210 1050.91,-194.14 1050.8,-169.77 1048.67,-152.92"/>
<polygon fill="midnightblue" stroke="midnightblue" points="1052.06,-151.97 1047.01,-142.66 1045.15,-153.09 1052.06,-151.97"/>
</g>
<!-- Node7 -->
<g id="node7" class="node">
<title>Node7</title>
<g id="a_node7"><a xlink:title=" ">
<polygon fill="white" stroke="#bfbfbf" points="630,-123.5 630,-142.5 690,-142.5 690,-123.5 630,-123.5"/>
<text text-anchor="middle" x="660" y="-130.5" font-family="Helvetica,sans-Serif" font-size="10.00">iostream</text>
</a>
</g>
</g>
<!-- Node5&#45;&gt;Node7 -->
<g id="edge7" class="edge">
<title>Node5&#45;&gt;Node7</title>
<path fill="none" stroke="midnightblue" d="M789.78,-302.39C797.98,-276.31 820.58,-198.74 806,-179 799.51,-170.2 740.8,-154.07 699.84,-143.7"/>
<polygon fill="midnightblue" stroke="midnightblue" points="700.66,-140.29 690.11,-141.26 698.96,-147.08 700.66,-140.29"/>
</g>
<!-- Node8 -->
<g id="node8" class="node">
<title>Node8</title>
<g id="a_node8"><a xlink:title=" ">
<polygon fill="white" stroke="#bfbfbf" points="866.5,-0.5 866.5,-19.5 935.5,-19.5 935.5,-0.5 866.5,-0.5"/>
<text text-anchor="middle" x="901" y="-7.5" font-family="Helvetica,sans-Serif" font-size="10.00">type_traits</text>
</a>
</g>
</g>
<!-- Node5&#45;&gt;Node8 -->
<g id="edge8" class="edge">
<title>Node5&#45;&gt;Node8</title>
<path fill="none" stroke="midnightblue" d="M792.19,-302.23C797.34,-293.3 805.29,-278.97 811,-266 849.02,-179.62 882.83,-71.65 895.59,-29.27"/>
<polygon fill="midnightblue" stroke="midnightblue" points="898.99,-30.13 898.5,-19.54 892.28,-28.12 898.99,-30.13"/>
</g>
<!-- Node9 -->
<g id="node9" class="node">
<title>Node9</title>
<g id="a_node9"><a xlink:href="NonNegative_8hpp.html" target="_top" xlink:title="Definition of the NonNegative value checked types.">
<polygon fill="white" stroke="black" points="579.5,-246.5 579.5,-265.5 720.5,-265.5 720.5,-246.5 579.5,-246.5"/>
<text text-anchor="middle" x="650" y="-253.5" font-family="Helvetica,sans-Serif" font-size="10.00">playrho/NonNegative.hpp</text>
</a>
</g>
</g>
<!-- Node5&#45;&gt;Node9 -->
<g id="edge9" class="edge">
<title>Node5&#45;&gt;Node9</title>
<path fill="none" stroke="midnightblue" d="M765.29,-302.44C742.65,-293.52 706.93,-279.44 681.25,-269.32"/>
<polygon fill="midnightblue" stroke="midnightblue" points="682.19,-265.93 671.61,-265.52 679.63,-272.44 682.19,-265.93"/>
</g>
<!-- Node10 -->
<g id="node10" class="node">
<title>Node10</title>
<g id="a_node10"><a xlink:href="Checked_8hpp.html" target="_top" xlink:title="Declarations of the Checked class template and closely related code.">
<polygon fill="white" stroke="black" points="293.5,-185 293.5,-204 442.5,-204 442.5,-185 293.5,-185"/>
<text text-anchor="middle" x="368" y="-192" font-family="Helvetica,sans-Serif" font-size="10.00">playrho/detail/Checked.hpp</text>
</a>
</g>
</g>
<!-- Node9&#45;&gt;Node10 -->
<g id="edge10" class="edge">
<title>Node9&#45;&gt;Node10</title>
<path fill="none" stroke="midnightblue" d="M609.6,-246.48C559.13,-235.83 472.79,-217.61 418.15,-206.08"/>
<polygon fill="midnightblue" stroke="midnightblue" points="418.84,-202.65 408.33,-204.01 417.39,-209.5 418.84,-202.65"/>
</g>
<!-- Node17 -->
<g id="node17" class="node">
<title>Node17</title>
<g id="a_node17"><a xlink:href="NonNegativeChecker_8hpp.html" target="_top" xlink:title="Definition of the NonNegativeChecker class template.">
<polygon fill="white" stroke="black" points="574.5,-179.5 574.5,-209.5 725.5,-209.5 725.5,-179.5 574.5,-179.5"/>
<text text-anchor="start" x="582.5" y="-197.5" font-family="Helvetica,sans-Serif" font-size="10.00">playrho/detail/NonNegative</text>
<text text-anchor="middle" x="650" y="-186.5" font-family="Helvetica,sans-Serif" font-size="10.00">Checker.hpp</text>
</a>
</g>
</g>
<!-- Node9&#45;&gt;Node17 -->
<g id="edge23" class="edge">
<title>Node9&#45;&gt;Node17</title>
<path fill="none" stroke="midnightblue" d="M650,-246.48C650,-239.47 650,-229.19 650,-219.7"/>
<polygon fill="midnightblue" stroke="midnightblue" points="653.5,-219.52 650,-209.52 646.5,-219.52 653.5,-219.52"/>
</g>
<!-- Node10&#45;&gt;Node3 -->
<g id="edge13" class="edge">
<title>Node10&#45;&gt;Node3</title>
<path fill="none" stroke="midnightblue" d="M388.66,-184.99C420.93,-170.41 482.17,-137.3 507,-87 513.1,-74.65 514.19,-67.75 507,-56 494.9,-36.22 471.04,-24.78 451.22,-18.39"/>
<polygon fill="midnightblue" stroke="midnightblue" points="452.17,-15.02 441.59,-15.57 450.21,-21.74 452.17,-15.02"/>
</g>
<!-- Node10&#45;&gt;Node7 -->
<g id="edge11" class="edge">
<title>Node10&#45;&gt;Node7</title>
<path fill="none" stroke="midnightblue" d="M410.13,-184.93C459.47,-174.9 543.67,-157.76 616,-143 617.25,-142.75 618.51,-142.49 619.79,-142.23"/>
<polygon fill="midnightblue" stroke="midnightblue" points="620.61,-145.63 629.7,-140.2 619.21,-138.77 620.61,-145.63"/>
</g>
<!-- Node10&#45;&gt;Node8 -->
<g id="edge12" class="edge">
<title>Node10&#45;&gt;Node8</title>
<path fill="none" stroke="midnightblue" d="M392.99,-184.94C479.55,-155.31 766.66,-57 866.46,-22.83"/>
<polygon fill="midnightblue" stroke="midnightblue" points="867.73,-26.09 876.06,-19.54 865.47,-19.47 867.73,-26.09"/>
</g>
<!-- Node11 -->
<g id="node11" class="node">
<title>Node11</title>
<g id="a_node11"><a xlink:href="InvalidArgument_8hpp.html" target="_top" xlink:title="Definition of the InvalidArgument class.">
<polygon fill="white" stroke="black" points="218,-123.5 218,-142.5 376,-142.5 376,-123.5 218,-123.5"/>
<text text-anchor="middle" x="297" y="-130.5" font-family="Helvetica,sans-Serif" font-size="10.00">playrho/InvalidArgument.hpp</text>
</a>
</g>
</g>
<!-- Node10&#45;&gt;Node11 -->
<g id="edge14" class="edge">
<title>Node10&#45;&gt;Node11</title>
<path fill="none" stroke="midnightblue" d="M357.83,-184.98C346.65,-175.61 328.48,-160.38 314.91,-149.01"/>
<polygon fill="midnightblue" stroke="midnightblue" points="317.07,-146.25 307.15,-142.51 312.57,-151.61 317.07,-146.25"/>
</g>
<!-- Node10&#45;&gt;Node13 -->
<g id="edge16" class="edge">
<title>Node10&#45;&gt;Node13</title>
<path fill="none" stroke="midnightblue" d="M425.88,-184.98C499.38,-174.15 626,-155.5 704.02,-144.01"/>
<polygon fill="midnightblue" stroke="midnightblue" points="704.84,-147.43 714.22,-142.51 703.82,-140.5 704.84,-147.43"/>
</g>
<!-- Node12 -->
<g id="node12" class="node">
<title>Node12</title>
<g id="a_node12"><a xlink:title=" ">
<polygon fill="white" stroke="#bfbfbf" points="218.5,-62 218.5,-81 283.5,-81 283.5,-62 218.5,-62"/>
<text text-anchor="middle" x="251" y="-69" font-family="Helvetica,sans-Serif" font-size="10.00">stdexcept</text>
</a>
</g>
</g>
<!-- Node11&#45;&gt;Node12 -->
<g id="edge15" class="edge">
<title>Node11&#45;&gt;Node12</title>
<path fill="none" stroke="midnightblue" d="M290.41,-123.48C283.51,-114.55 272.5,-100.31 263.87,-89.14"/>
<polygon fill="midnightblue" stroke="midnightblue" points="266.46,-86.78 257.58,-81.01 260.93,-91.06 266.46,-86.78"/>
</g>
<!-- Node14 -->
<g id="node14" class="node">
<title>Node14</title>
<g id="a_node14"><a xlink:href="detail_2Templates_8hpp.html" target="_top" xlink:title="Low&#45;level declarations for general class &amp; function templates.">
<polygon fill="white" stroke="black" points="340,-62 340,-81 498,-81 498,-62 340,-62"/>
<text text-anchor="middle" x="419" y="-69" font-family="Helvetica,sans-Serif" font-size="10.00">playrho/detail/Templates.hpp</text>
</a>
</g>
</g>
<!-- Node13&#45;&gt;Node14 -->
<g id="edge17" class="edge">
<title>Node13&#45;&gt;Node14</title>
<path fill="none" stroke="midnightblue" d="M721.42,-123.48C657.6,-112.72 547.92,-94.23 479.66,-82.72"/>
<polygon fill="midnightblue" stroke="midnightblue" points="479.93,-79.22 469.48,-81.01 478.76,-86.12 479.93,-79.22"/>
</g>
<!-- Node14&#45;&gt;Node2 -->
<g id="edge18" class="edge">
<title>Node14&#45;&gt;Node2</title>
<path fill="none" stroke="midnightblue" d="M369.86,-61.98C302.3,-50.26 181.89,-29.37 118.2,-18.32"/>
<polygon fill="midnightblue" stroke="midnightblue" points="118.56,-14.83 108.11,-16.57 117.36,-21.73 118.56,-14.83"/>
</g>
<!-- Node14&#45;&gt;Node3 -->
<g id="edge22" class="edge">
<title>Node14&#45;&gt;Node3</title>
<path fill="none" stroke="midnightblue" d="M419,-61.98C419,-53.58 419,-40.48 419,-29.66"/>
<polygon fill="midnightblue" stroke="midnightblue" points="422.5,-29.51 419,-19.51 415.5,-29.51 422.5,-29.51"/>
</g>
<!-- Node14&#45;&gt;Node8 -->
<g id="edge21" class="edge">
<title>Node14&#45;&gt;Node8</title>
<path fill="none" stroke="midnightblue" d="M488.06,-61.98C588.51,-49.57 772.13,-26.91 856.48,-16.5"/>
<polygon fill="midnightblue" stroke="midnightblue" points="857,-19.96 866.5,-15.26 856.15,-13.01 857,-19.96"/>
</g>
<!-- Node15 -->
<g id="node15" class="node">
<title>Node15</title>
<g id="a_node15"><a xlink:title=" ">
<polygon fill="white" stroke="#bfbfbf" points="155.5,-0.5 155.5,-19.5 220.5,-19.5 220.5,-0.5 155.5,-0.5"/>
<text text-anchor="middle" x="188" y="-7.5" font-family="Helvetica,sans-Serif" font-size="10.00">functional</text>
</a>
</g>
</g>
<!-- Node14&#45;&gt;Node15 -->
<g id="edge19" class="edge">
<title>Node14&#45;&gt;Node15</title>
<path fill="none" stroke="midnightblue" d="M385.9,-61.98C344.96,-51.43 275.2,-33.46 230.38,-21.92"/>
<polygon fill="midnightblue" stroke="midnightblue" points="231.22,-18.52 220.66,-19.41 229.47,-25.3 231.22,-18.52"/>
</g>
<!-- Node16 -->
<g id="node16" class="node">
<title>Node16</title>
<g id="a_node16"><a xlink:title=" ">
<polygon fill="white" stroke="#bfbfbf" points="296.5,-0.5 296.5,-19.5 349.5,-19.5 349.5,-0.5 296.5,-0.5"/>
<text text-anchor="middle" x="323" y="-7.5" font-family="Helvetica,sans-Serif" font-size="10.00">iterator</text>
</a>
</g>
</g>
<!-- Node14&#45;&gt;Node16 -->
<g id="edge20" class="edge">
<title>Node14&#45;&gt;Node16</title>
<path fill="none" stroke="midnightblue" d="M405.25,-61.98C389.63,-52.3 363.94,-36.37 345.42,-24.89"/>
<polygon fill="midnightblue" stroke="midnightblue" points="347.07,-21.8 336.73,-19.51 343.38,-27.75 347.07,-21.8"/>
</g>
<!-- Node18&#45;&gt;Node8 -->
<g id="edge26" class="edge">
<title>Node18&#45;&gt;Node8</title>
<path fill="none" stroke="midnightblue" d="M1089.36,-302.12C1093.5,-288.24 1103.34,-261.4 1121,-246 1156.6,-214.95 1193.84,-248.65 1221,-210 1228.92,-198.73 1225.45,-192.04 1221,-179 1198.69,-113.63 1184.7,-92.41 1126,-56 1070.49,-21.57 993.79,-12.78 945.81,-10.92"/>
<polygon fill="midnightblue" stroke="midnightblue" points="945.83,-7.41 935.73,-10.61 945.62,-14.41 945.83,-7.41"/>
</g>
<!-- Node18&#45;&gt;Node13 -->
<g id="edge32" class="edge">
<title>Node18&#45;&gt;Node13</title>
<path fill="none" stroke="midnightblue" d="M1035.37,-303.48C1001.14,-297 956.05,-285.5 920,-266 918.1,-264.97 828.11,-184.33 789.4,-149.62"/>
<polygon fill="midnightblue" stroke="midnightblue" points="791.34,-146.65 781.56,-142.58 786.67,-151.86 791.34,-146.65"/>
</g>
<!-- Node19 -->
<g id="node19" class="node">
<title>Node19</title>
<g id="a_node19"><a xlink:title=" ">
<polygon fill="white" stroke="#bfbfbf" points="1129.5,-246.5 1129.5,-265.5 1176.5,-265.5 1176.5,-246.5 1129.5,-246.5"/>
<text text-anchor="middle" x="1153" y="-253.5" font-family="Helvetica,sans-Serif" font-size="10.00">cmath</text>
</a>
</g>
</g>
<!-- Node18&#45;&gt;Node19 -->
<g id="edge25" class="edge">
<title>Node18&#45;&gt;Node19</title>
<path fill="none" stroke="midnightblue" d="M1097.6,-302.32C1107.46,-294.26 1122.35,-282.08 1134.22,-272.37"/>
<polygon fill="midnightblue" stroke="midnightblue" points="1136.68,-274.88 1142.2,-265.83 1132.25,-269.46 1136.68,-274.88"/>
</g>
<!-- Node20 -->
<g id="node20" class="node">
<title>Node20</title>
<g id="a_node20"><a xlink:href="RealConstants_8hpp.html" target="_top" xlink:title="Definitions file for constant expressions of type Real.">
<polygon fill="white" stroke="black" points="1233,-246.5 1233,-265.5 1381,-265.5 1381,-246.5 1233,-246.5"/>
<text text-anchor="middle" x="1307" y="-253.5" font-family="Helvetica,sans-Serif" font-size="10.00">playrho/RealConstants.hpp</text>
</a>
</g>
</g>
<!-- Node18&#45;&gt;Node20 -->
<g id="edge27" class="edge">
<title>Node18&#45;&gt;Node20</title>
<path fill="none" stroke="midnightblue" d="M1121.86,-302.44C1159.92,-293.1 1220.96,-278.12 1262.46,-267.93"/>
<polygon fill="midnightblue" stroke="midnightblue" points="1263.43,-271.3 1272.3,-265.52 1261.76,-264.5 1263.43,-271.3"/>
</g>
<!-- Node23 -->
<g id="node23" class="node">
<title>Node23</title>
<g id="a_node23"><a xlink:href="to__underlying_8hpp.html" target="_top" xlink:title="Definition of to_underlying function template.">
<polygon fill="white" stroke="black" points="929,-246.5 929,-265.5 1073,-265.5 1073,-246.5 929,-246.5"/>
<text text-anchor="middle" x="1001" y="-253.5" font-family="Helvetica,sans-Serif" font-size="10.00">playrho/to_underlying.hpp</text>
</a>
</g>
</g>
<!-- Node18&#45;&gt;Node23 -->
<g id="edge33" class="edge">
<title>Node18&#45;&gt;Node23</title>
<path fill="none" stroke="midnightblue" d="M1073.18,-302.32C1059.77,-293.9 1039.18,-280.97 1023.41,-271.07"/>
<polygon fill="midnightblue" stroke="midnightblue" points="1025.11,-268.01 1014.78,-265.65 1021.39,-273.94 1025.11,-268.01"/>
</g>
<!-- Node21 -->
<g id="node21" class="node">
<title>Node21</title>
<g id="a_node21"><a xlink:href="Defines_8hpp.html" target="_top" xlink:title="Miscellaneous C&#45;preprocessor definitions.">
<polygon fill="white" stroke="black" points="1381,-185 1381,-204 1495,-204 1495,-185 1381,-185"/>
<text text-anchor="middle" x="1438" y="-192" font-family="Helvetica,sans-Serif" font-size="10.00">playrho/Defines.hpp</text>
</a>
</g>
</g>
<!-- Node20&#45;&gt;Node21 -->
<g id="edge28" class="edge">
<title>Node20&#45;&gt;Node21</title>
<path fill="none" stroke="midnightblue" d="M1325.77,-246.48C1347.85,-236.45 1384.72,-219.7 1410.14,-208.15"/>
<polygon fill="midnightblue" stroke="midnightblue" points="1411.61,-211.33 1419.27,-204.01 1408.71,-204.96 1411.61,-211.33"/>
</g>
<!-- Node22 -->
<g id="node22" class="node">
<title>Node22</title>
<g id="a_node22"><a xlink:href="Real_8hpp.html" target="_top" xlink:title="Real number definition file.">
<polygon fill="white" stroke="black" points="929.5,-185 929.5,-204 1028.5,-204 1028.5,-185 929.5,-185"/>
<text text-anchor="middle" x="979" y="-192" font-family="Helvetica,sans-Serif" font-size="10.00">playrho/Real.hpp</text>
</a>
</g>
</g>
<!-- Node20&#45;&gt;Node22 -->
<g id="edge29" class="edge">
<title>Node20&#45;&gt;Node22</title>
<path fill="none" stroke="midnightblue" d="M1260.01,-246.48C1200.82,-235.74 1099.21,-217.31 1035.75,-205.79"/>
<polygon fill="midnightblue" stroke="midnightblue" points="1036.37,-202.35 1025.91,-204.01 1035.12,-209.24 1036.37,-202.35"/>
</g>
<!-- Node22&#45;&gt;Node6 -->
<g id="edge30" class="edge">
<title>Node22&#45;&gt;Node6</title>
<path fill="none" stroke="midnightblue" d="M988.46,-184.98C998.75,-175.7 1015.42,-160.67 1027.99,-149.33"/>
<polygon fill="midnightblue" stroke="midnightblue" points="1030.48,-151.8 1035.56,-142.51 1025.79,-146.61 1030.48,-151.8"/>
</g>
<!-- Node22&#45;&gt;Node13 -->
<g id="edge31" class="edge">
<title>Node22&#45;&gt;Node13</title>
<path fill="none" stroke="midnightblue" d="M949.34,-184.98C913.07,-174.55 851.54,-156.86 811.34,-145.31"/>
<polygon fill="midnightblue" stroke="midnightblue" points="812.18,-141.91 801.6,-142.51 810.25,-148.64 812.18,-141.91"/>
</g>
<!-- Node24 -->
<g id="node24" class="node">
<title>Node24</title>
<g id="a_node24"><a xlink:href="underlying__type_8hpp.html" target="_top" xlink:title="Definition of underlying_type trait class and related code.">
<polygon fill="white" stroke="black" points="977.5,-56.5 977.5,-86.5 1116.5,-86.5 1116.5,-56.5 977.5,-56.5"/>
<text text-anchor="start" x="985.5" y="-74.5" font-family="Helvetica,sans-Serif" font-size="10.00">playrho/detail/underlying</text>
<text text-anchor="middle" x="1047" y="-63.5" font-family="Helvetica,sans-Serif" font-size="10.00">_type.hpp</text>
</a>
</g>
</g>
<!-- Node23&#45;&gt;Node24 -->
<g id="edge34" class="edge">
<title>Node23&#45;&gt;Node24</title>
<path fill="none" stroke="midnightblue" d="M1024.72,-246.36C1040.69,-239.21 1060.65,-227.38 1071,-210 1090.81,-176.72 1085.98,-160.42 1076,-123 1073.4,-113.24 1068.41,-103.41 1063.3,-95.05"/>
<polygon fill="midnightblue" stroke="midnightblue" points="1066.2,-93.09 1057.81,-86.63 1060.34,-96.92 1066.2,-93.09"/>
</g>
<!-- Node24&#45;&gt;Node8 -->
<g id="edge35" class="edge">
<title>Node24&#45;&gt;Node8</title>
<path fill="none" stroke="midnightblue" d="M1012.4,-56.4C987.9,-46.42 955.34,-33.15 931.75,-23.53"/>
<polygon fill="midnightblue" stroke="midnightblue" points="932.83,-20.19 922.24,-19.66 930.18,-26.67 932.83,-20.19"/>
</g>
<!-- Node25&#45;&gt;Node2 -->
<g id="edge41" class="edge">
<title>Node25&#45;&gt;Node2</title>
<path fill="none" stroke="midnightblue" d="M410.26,-251.54C339.26,-246.1 218.88,-233.66 182,-210 116.35,-167.87 88.68,-70.76 79.64,-29.78"/>
<polygon fill="midnightblue" stroke="midnightblue" points="83.03,-28.89 77.57,-19.81 76.17,-30.31 83.03,-28.89"/>
</g>
<!-- Node25&#45;&gt;Node7 -->
<g id="edge43" class="edge">
<title>Node25&#45;&gt;Node7</title>
<path fill="none" stroke="midnightblue" d="M464.91,-246.28C467.05,-230.48 473.81,-197.06 494,-179 503.47,-170.53 573.67,-153.44 619.7,-142.93"/>
<polygon fill="midnightblue" stroke="midnightblue" points="620.71,-146.29 629.69,-140.67 619.16,-139.47 620.71,-146.29"/>
</g>
<!-- Node25&#45;&gt;Node8 -->
<g id="edge39" class="edge">
<title>Node25&#45;&gt;Node8</title>
<path fill="none" stroke="midnightblue" d="M410.24,-251.31C345.34,-244.7 248.98,-226.72 284,-179 290.74,-169.82 663.97,-58.82 675,-56 737.33,-40.04 810.55,-26.37 856.37,-18.42"/>
<polygon fill="midnightblue" stroke="midnightblue" points="857.02,-21.86 866.28,-16.71 855.83,-14.96 857.02,-21.86"/>
</g>
<!-- Node25&#45;&gt;Node11 -->
<g id="edge44" class="edge">
<title>Node25&#45;&gt;Node11</title>
<path fill="none" stroke="midnightblue" d="M410.34,-251.15C354.21,-245.88 271.57,-234.16 252,-210 236.35,-190.68 258.58,-165.34 276.99,-149.36"/>
<polygon fill="midnightblue" stroke="midnightblue" points="279.53,-151.79 285.02,-142.73 275.08,-146.39 279.53,-151.79"/>
</g>
<!-- Node25&#45;&gt;Node13 -->
<g id="edge46" class="edge">
<title>Node25&#45;&gt;Node13</title>
<path fill="none" stroke="midnightblue" d="M469.07,-246.25C478.94,-230.09 502.38,-195.69 532,-179 547.08,-170.5 640.65,-154.52 706.39,-144.07"/>
<polygon fill="midnightblue" stroke="midnightblue" points="706.95,-147.53 716.28,-142.51 705.86,-140.62 706.95,-147.53"/>
</g>
<!-- Node25&#45;&gt;Node15 -->
<g id="edge42" class="edge">
<title>Node25&#45;&gt;Node15</title>
<path fill="none" stroke="midnightblue" d="M410.42,-251.83C344.57,-246.9 237.89,-235.2 208,-210 155.1,-165.4 172.43,-69.66 182.72,-29.42"/>
<polygon fill="midnightblue" stroke="midnightblue" points="186.13,-30.19 185.37,-19.63 179.38,-28.37 186.13,-30.19"/>
</g>
<!-- Node25&#45;&gt;Node16 -->
<g id="edge40" class="edge">
<title>Node25&#45;&gt;Node16</title>
<path fill="none" stroke="midnightblue" d="M410.33,-249.47C353.59,-242.69 268.77,-229.64 243,-210 187.24,-167.52 169.57,-113.95 209,-56 226.17,-30.76 259.9,-19.68 286.23,-14.81"/>
<polygon fill="midnightblue" stroke="midnightblue" points="286.96,-18.24 296.27,-13.18 285.84,-11.33 286.96,-18.24"/>
</g>
<!-- Node25&#45;&gt;Node22 -->
<g id="edge45" class="edge">
<title>Node25&#45;&gt;Node22</title>
<path fill="none" stroke="midnightblue" d="M517.66,-248.8C614.55,-237.61 818.01,-214.1 919.21,-202.41"/>
<polygon fill="midnightblue" stroke="midnightblue" points="919.74,-205.87 929.27,-201.25 918.93,-198.92 919.74,-205.87"/>
</g>
<!-- Node26 -->
<g id="node26" class="node">
<title>Node26</title>
<g id="a_node26"><a xlink:title=" ">
<polygon fill="white" stroke="#bfbfbf" points="1160,-185 1160,-204 1212,-204 1212,-185 1160,-185"/>
<text text-anchor="middle" x="1186" y="-192" font-family="Helvetica,sans-Serif" font-size="10.00">cassert</text>
</a>
</g>
</g>
<!-- Node25&#45;&gt;Node26 -->
<g id="edge37" class="edge">
<title>Node25&#45;&gt;Node26</title>
<path fill="none" stroke="midnightblue" d="M517.6,-250.42C534.67,-248.98 553.63,-247.4 571,-246 778.5,-229.28 830.62,-228.15 1038,-210 1076.19,-206.66 1119.87,-202.31 1149.82,-199.26"/>
<polygon fill="midnightblue" stroke="midnightblue" points="1150.22,-202.73 1159.82,-198.23 1149.51,-195.77 1150.22,-202.73"/>
</g>
<!-- Node27 -->
<g id="node27" class="node">
<title>Node27</title>
<g id="a_node27"><a xlink:title=" ">
<polygon fill="white" stroke="#bfbfbf" points="743.5,-185 743.5,-204 796.5,-204 796.5,-185 743.5,-185"/>
<text text-anchor="middle" x="770" y="-192" font-family="Helvetica,sans-Serif" font-size="10.00">cstddef</text>
</a>
</g>
</g>
<!-- Node25&#45;&gt;Node27 -->
<g id="edge38" class="edge">
<title>Node25&#45;&gt;Node27</title>
<path fill="none" stroke="midnightblue" d="M517.5,-249.76C572.75,-243.51 661.06,-231.15 735,-210 737.29,-209.34 739.64,-208.58 741.98,-207.76"/>
<polygon fill="midnightblue" stroke="midnightblue" points="743.32,-210.99 751.39,-204.13 740.8,-204.46 743.32,-210.99"/>
</g>
<!-- Node28&#45;&gt;Node2 -->
<g id="edge48" class="edge">
<title>Node28&#45;&gt;Node2</title>
<path fill="none" stroke="midnightblue" d="M1441.58,-358.32C1453.04,-350.29 1468.98,-337.29 1478,-322 1510.83,-266.36 1546.61,-227.55 1504,-179 1377.45,-34.81 1267.08,-140.09 1076,-123 910.91,-108.24 486.13,-145.38 331,-87 310.28,-79.2 312.05,-65.4 292,-56 261.7,-41.79 172.13,-26.01 118.32,-17.43"/>
<polygon fill="midnightblue" stroke="midnightblue" points="118.81,-13.96 108.38,-15.86 117.72,-20.88 118.81,-13.96"/>
</g>
<!-- Node28&#45;&gt;Node6 -->
<g id="edge54" class="edge">
<title>Node28&#45;&gt;Node6</title>
<path fill="none" stroke="midnightblue" d="M1437.02,-358.34C1445.07,-349.93 1456.3,-336.36 1461,-322 1471.51,-289.9 1480.01,-273.92 1461,-246 1459.57,-243.9 1293.44,-179.7 1291,-179 1215.7,-157.5 1124.4,-143.96 1077.02,-137.83"/>
<polygon fill="midnightblue" stroke="midnightblue" points="1077.41,-134.35 1067.05,-136.57 1076.53,-141.3 1077.41,-134.35"/>
</g>
<!-- Node28&#45;&gt;Node13 -->
<g id="edge56" class="edge">
<title>Node28&#45;&gt;Node13</title>
<path fill="none" stroke="midnightblue" d="M1429.99,-358.34C1434.57,-335.91 1443.15,-275.59 1411,-246 1370.03,-208.29 1343.23,-229.31 1291,-210 1259.09,-198.2 1253.9,-187.69 1221,-179 1092.28,-144.98 936.58,-136.3 846.46,-134.3"/>
<polygon fill="midnightblue" stroke="midnightblue" points="846.4,-130.8 836.33,-134.1 846.26,-137.8 846.4,-130.8"/>
</g>
<!-- Node28&#45;&gt;Node18 -->
<g id="edge57" class="edge">
<title>Node28&#45;&gt;Node18</title>
<path fill="none" stroke="midnightblue" d="M1373.97,-358.44C1312.65,-348.73 1212.82,-332.92 1148.55,-322.75"/>
<polygon fill="midnightblue" stroke="midnightblue" points="1148.97,-319.27 1138.55,-321.16 1147.88,-326.18 1148.97,-319.27"/>
</g>
<!-- Node28&#45;&gt;Node19 -->
<g id="edge52" class="edge">
<title>Node28&#45;&gt;Node19</title>
<path fill="none" stroke="midnightblue" d="M1369.32,-361.45C1308.7,-354.74 1219.1,-341.84 1191,-322 1175.02,-310.72 1164.73,-290.41 1158.95,-275.49"/>
<polygon fill="midnightblue" stroke="midnightblue" points="1162.15,-274.04 1155.51,-265.78 1155.55,-276.37 1162.15,-274.04"/>
</g>
<!-- Node28&#45;&gt;Node20 -->
<g id="edge55" class="edge">
<title>Node28&#45;&gt;Node20</title>
<path fill="none" stroke="midnightblue" d="M1418.51,-358.37C1398.1,-339.81 1349.8,-295.91 1323.98,-272.44"/>
<polygon fill="midnightblue" stroke="midnightblue" points="1326.2,-269.73 1316.45,-265.59 1321.5,-274.91 1326.2,-269.73"/>
</g>
<!-- Node28&#45;&gt;Node26 -->
<g id="edge50" class="edge">
<title>Node28&#45;&gt;Node26</title>
<path fill="none" stroke="midnightblue" d="M1427.99,-358.19C1427.47,-335.91 1422.89,-276.92 1390,-246 1377.76,-234.5 1277.59,-213.41 1222.31,-202.49"/>
<polygon fill="midnightblue" stroke="midnightblue" points="1222.71,-199 1212.22,-200.5 1221.36,-205.86 1222.71,-199"/>
</g>
<!-- Node28&#45;&gt;Node27 -->
<g id="edge49" class="edge">
<title>Node28&#45;&gt;Node27</title>
<path fill="none" stroke="midnightblue" d="M1410.46,-358.5C1375.07,-341.3 1292.63,-301.05 1224,-266 1207,-257.32 1204.22,-251.69 1186,-246 1150.15,-234.81 901.44,-208.81 806.61,-199.18"/>
<polygon fill="midnightblue" stroke="midnightblue" points="806.92,-195.69 796.62,-198.16 806.21,-202.65 806.92,-195.69"/>
</g>
<!-- Node29 -->
<g id="node29" class="node">
<title>Node29</title>
<g id="a_node29"><a xlink:title=" ">
<polygon fill="white" stroke="#bfbfbf" points="1589,-302.5 1589,-321.5 1633,-321.5 1633,-302.5 1589,-302.5"/>
<text text-anchor="middle" x="1611" y="-309.5" font-family="Helvetica,sans-Serif" font-size="10.00">cfloat</text>
</a>
</g>
</g>
<!-- Node28&#45;&gt;Node29 -->
<g id="edge51" class="edge">
<title>Node28&#45;&gt;Node29</title>
<path fill="none" stroke="midnightblue" d="M1457,-358.44C1490.15,-348.66 1544.28,-332.69 1578.74,-322.52"/>
<polygon fill="midnightblue" stroke="midnightblue" points="1580.16,-325.75 1588.76,-319.56 1578.18,-319.04 1580.16,-325.75"/>
</g>
<!-- Node30 -->
<g id="node30" class="node">
<title>Node30</title>
<g id="a_node30"><a xlink:title=" ">
<polygon fill="white" stroke="#bfbfbf" points="1558,-185 1558,-204 1608,-204 1608,-185 1558,-185"/>
<text text-anchor="middle" x="1583" y="-192" font-family="Helvetica,sans-Serif" font-size="10.00">cstdint</text>
</a>
</g>
</g>
<!-- Node28&#45;&gt;Node30 -->
<g id="edge53" class="edge">
<title>Node28&#45;&gt;Node30</title>
<path fill="none" stroke="midnightblue" d="M1469.7,-358.46C1492.26,-351.91 1519.08,-340.7 1537,-322 1566.14,-291.59 1577.05,-241.29 1580.96,-214.18"/>
<polygon fill="midnightblue" stroke="midnightblue" points="1584.45,-214.47 1582.23,-204.11 1577.5,-213.59 1584.45,-214.47"/>
</g>
<!-- Node31 -->
<g id="node31" class="node">
<title>Node31</title>
<g id="a_node31"><a xlink:href="WiderType_8hpp.html" target="_top" xlink:title="Definition of the WiderType alias template.">
<polygon fill="white" stroke="black" points="1651,-302.5 1651,-321.5 1779,-321.5 1779,-302.5 1651,-302.5"/>
<text text-anchor="middle" x="1715" y="-309.5" font-family="Helvetica,sans-Serif" font-size="10.00">playrho/WiderType.hpp</text>
</a>
</g>
</g>
<!-- Node28&#45;&gt;Node31 -->
<g id="edge58" class="edge">
<title>Node28&#45;&gt;Node31</title>
<path fill="none" stroke="midnightblue" d="M1473.48,-358.44C1523.96,-348.94 1605.46,-333.61 1659.62,-323.42"/>
<polygon fill="midnightblue" stroke="midnightblue" points="1660.56,-326.81 1669.74,-321.52 1659.26,-319.93 1660.56,-326.81"/>
</g>
<!-- Node32 -->
<g id="node32" class="node">
<title>Node32</title>
<g id="a_node32"><a xlink:href="Wider_8hpp.html" target="_top" xlink:title="Definition of the Wider class template and specializations.">
<polygon fill="white" stroke="black" points="1589,-246.5 1589,-265.5 1725,-265.5 1725,-246.5 1589,-246.5"/>
<text text-anchor="middle" x="1657" y="-253.5" font-family="Helvetica,sans-Serif" font-size="10.00">playrho/detail/Wider.hpp</text>
</a>
</g>
</g>
<!-- Node31&#45;&gt;Node32 -->
<g id="edge59" class="edge">
<title>Node31&#45;&gt;Node32</title>
<path fill="none" stroke="midnightblue" d="M1705.68,-302.32C1697.11,-294.34 1684.19,-282.31 1673.81,-272.65"/>
<polygon fill="midnightblue" stroke="midnightblue" points="1676.19,-270.09 1666.49,-265.83 1671.42,-275.21 1676.19,-270.09"/>
</g>
<!-- Node32&#45;&gt;Node8 -->
<g id="edge61" class="edge">
<title>Node32&#45;&gt;Node8</title>
<path fill="none" stroke="midnightblue" d="M1654.44,-246.39C1649.5,-231.05 1637.3,-198.76 1617,-179 1528.25,-92.64 1486.12,-89.83 1367,-56 1288.56,-33.72 1046.81,-18.72 945.93,-13.28"/>
<polygon fill="midnightblue" stroke="midnightblue" points="945.94,-9.77 935.77,-12.73 945.57,-16.76 945.94,-9.77"/>
</g>
<!-- Node32&#45;&gt;Node21 -->
<g id="edge62" class="edge">
<title>Node32&#45;&gt;Node21</title>
<path fill="none" stroke="midnightblue" d="M1625.62,-246.48C1587.08,-236 1521.59,-218.21 1479.08,-206.66"/>
<polygon fill="midnightblue" stroke="midnightblue" points="1479.89,-203.25 1469.32,-204.01 1478.05,-210.01 1479.89,-203.25"/>
</g>
<!-- Node32&#45;&gt;Node30 -->
<g id="edge60" class="edge">
<title>Node32&#45;&gt;Node30</title>
<path fill="none" stroke="midnightblue" d="M1646.4,-246.48C1634.75,-237.11 1615.81,-221.88 1601.67,-210.51"/>
<polygon fill="midnightblue" stroke="midnightblue" points="1603.57,-207.55 1593.58,-204.01 1599.18,-213 1603.57,-207.55"/>
</g>
</g>
</svg>
