<?xml version="1.0" encoding="UTF-8" standalone="no"?>
<!DOCTYPE svg PUBLIC "-//W3C//DTD SVG 1.1//EN"
 "http://www.w3.org/Graphics/SVG/1.1/DTD/svg11.dtd">
<!-- Generated by graphviz version 2.43.0 (0)
 -->
<!-- Title: Library/include/playrho/detail/RayCastInput.hpp Pages: 1 -->
<svg width="1115pt" height="397pt"
 viewBox="0.00 0.00 1115.00 397.00" xmlns="http://www.w3.org/2000/svg" xmlns:xlink="http://www.w3.org/1999/xlink">
<g id="graph0" class="graph" transform="scale(1 1) rotate(0) translate(4 393)">
<title>Library/include/playrho/detail/RayCastInput.hpp</title>
<polygon fill="white" stroke="transparent" points="-4,4 -4,-393 1111,-393 1111,4 -4,4"/>
<!-- Node1 -->
<g id="node1" class="node">
<title>Node1</title>
<g id="a_node1"><a xlink:title="Declaration of the RayCastInput class template.">
<polygon fill="#bfbfbf" stroke="black" points="382,-358.5 382,-388.5 519,-388.5 519,-358.5 382,-358.5"/>
<text text-anchor="start" x="390" y="-376.5" font-family="Helvetica,sans-Serif" font-size="10.00">Library/include/playrho</text>
<text text-anchor="middle" x="450.5" y="-365.5" font-family="Helvetica,sans-Serif" font-size="10.00">/detail/RayCastInput.hpp</text>
</a>
</g>
</g>
<!-- Node2 -->
<g id="node2" class="node">
<title>Node2</title>
<g id="a_node2"><a xlink:href="Vector_8hpp.html" target="_top" xlink:title="Definition of the Vector class template and closely related code.">
<polygon fill="white" stroke="black" points="171,-241 171,-260 278,-260 278,-241 171,-241"/>
<text text-anchor="middle" x="224.5" y="-248" font-family="Helvetica,sans-Serif" font-size="10.00">playrho/Vector.hpp</text>
</a>
</g>
</g>
<!-- Node1&#45;&gt;Node2 -->
<g id="edge1" class="edge">
<title>Node1&#45;&gt;Node2</title>
<path fill="none" stroke="midnightblue" d="M424.13,-358.38C380.18,-334.85 292.54,-287.93 249.51,-264.89"/>
<polygon fill="midnightblue" stroke="midnightblue" points="251.02,-261.73 240.55,-260.09 247.71,-267.9 251.02,-261.73"/>
</g>
<!-- Node17 -->
<g id="node17" class="node">
<title>Node17</title>
<g id="a_node17"><a xlink:href="UnitInterval_8hpp.html" target="_top" xlink:title="Definition of the UnitInterval value checked types and related code.">
<polygon fill="white" stroke="black" points="383,-302.5 383,-321.5 518,-321.5 518,-302.5 383,-302.5"/>
<text text-anchor="middle" x="450.5" y="-309.5" font-family="Helvetica,sans-Serif" font-size="10.00">playrho/UnitInterval.hpp</text>
</a>
</g>
</g>
<!-- Node1&#45;&gt;Node17 -->
<g id="edge21" class="edge">
<title>Node1&#45;&gt;Node17</title>
<path fill="none" stroke="midnightblue" d="M450.5,-358.4C450.5,-350.47 450.5,-340.46 450.5,-331.86"/>
<polygon fill="midnightblue" stroke="midnightblue" points="454,-331.66 450.5,-321.66 447,-331.66 454,-331.66"/>
</g>
<!-- Node20 -->
<g id="node20" class="node">
<title>Node20</title>
<g id="a_node20"><a xlink:href="Units_8hpp.html" target="_top" xlink:title="Declarations for physical units possibly backed by strong types.">
<polygon fill="white" stroke="black" points="798,-302.5 798,-321.5 901,-321.5 901,-302.5 798,-302.5"/>
<text text-anchor="middle" x="849.5" y="-309.5" font-family="Helvetica,sans-Serif" font-size="10.00">playrho/Units.hpp</text>
</a>
</g>
</g>
<!-- Node1&#45;&gt;Node20 -->
<g id="edge29" class="edge">
<title>Node1&#45;&gt;Node20</title>
<path fill="none" stroke="midnightblue" d="M519.09,-362.27C594.74,-350.99 715.36,-333 788.04,-322.17"/>
<polygon fill="midnightblue" stroke="midnightblue" points="788.59,-325.62 797.96,-320.69 787.56,-318.7 788.59,-325.62"/>
</g>
<!-- Node3 -->
<g id="node3" class="node">
<title>Node3</title>
<g id="a_node3"><a xlink:title=" ">
<polygon fill="white" stroke="#bfbfbf" points="71.5,-179.5 71.5,-198.5 123.5,-198.5 123.5,-179.5 71.5,-179.5"/>
<text text-anchor="middle" x="97.5" y="-186.5" font-family="Helvetica,sans-Serif" font-size="10.00">cassert</text>
</a>
</g>
</g>
<!-- Node2&#45;&gt;Node3 -->
<g id="edge2" class="edge">
<title>Node2&#45;&gt;Node3</title>
<path fill="none" stroke="midnightblue" d="M206.3,-240.98C184.99,-230.99 149.47,-214.35 124.84,-202.81"/>
<polygon fill="midnightblue" stroke="midnightblue" points="126.2,-199.58 115.66,-198.51 123.23,-205.92 126.2,-199.58"/>
</g>
<!-- Node4 -->
<g id="node4" class="node">
<title>Node4</title>
<g id="a_node4"><a xlink:title=" ">
<polygon fill="white" stroke="#bfbfbf" points="142,-179.5 142,-198.5 195,-198.5 195,-179.5 142,-179.5"/>
<text text-anchor="middle" x="168.5" y="-186.5" font-family="Helvetica,sans-Serif" font-size="10.00">cstddef</text>
</a>
</g>
</g>
<!-- Node2&#45;&gt;Node4 -->
<g id="edge3" class="edge">
<title>Node2&#45;&gt;Node4</title>
<path fill="none" stroke="midnightblue" d="M216.48,-240.98C207.91,-231.87 194.14,-217.24 183.54,-205.98"/>
<polygon fill="midnightblue" stroke="midnightblue" points="185.91,-203.39 176.51,-198.51 180.81,-208.19 185.91,-203.39"/>
</g>
<!-- Node5 -->
<g id="node5" class="node">
<title>Node5</title>
<g id="a_node5"><a xlink:title=" ">
<polygon fill="white" stroke="#bfbfbf" points="789,-0.5 789,-19.5 858,-19.5 858,-0.5 789,-0.5"/>
<text text-anchor="middle" x="823.5" y="-7.5" font-family="Helvetica,sans-Serif" font-size="10.00">type_traits</text>
</a>
</g>
</g>
<!-- Node2&#45;&gt;Node5 -->
<g id="edge4" class="edge">
<title>Node2&#45;&gt;Node5</title>
<path fill="none" stroke="midnightblue" d="M228.82,-240.74C240.78,-217.44 276.79,-153.64 326.5,-123 403.01,-75.84 671.27,-32.97 778.61,-17.3"/>
<polygon fill="midnightblue" stroke="midnightblue" points="779.39,-20.73 788.78,-15.83 778.39,-13.8 779.39,-20.73"/>
</g>
<!-- Node6 -->
<g id="node6" class="node">
<title>Node6</title>
<g id="a_node6"><a xlink:title=" ">
<polygon fill="white" stroke="#bfbfbf" points="0,-0.5 0,-19.5 53,-19.5 53,-0.5 0,-0.5"/>
<text text-anchor="middle" x="26.5" y="-7.5" font-family="Helvetica,sans-Serif" font-size="10.00">iterator</text>
</a>
</g>
</g>
<!-- Node2&#45;&gt;Node6 -->
<g id="edge5" class="edge">
<title>Node2&#45;&gt;Node6</title>
<path fill="none" stroke="midnightblue" d="M170.69,-248.9C131.07,-245.38 79.14,-233.78 49.5,-199 7.94,-150.24 16.32,-66.8 22.7,-29.71"/>
<polygon fill="midnightblue" stroke="midnightblue" points="26.15,-30.25 24.55,-19.78 19.27,-28.97 26.15,-30.25"/>
</g>
<!-- Node7 -->
<g id="node7" class="node">
<title>Node7</title>
<g id="a_node7"><a xlink:title=" ">
<polygon fill="white" stroke="#bfbfbf" points="153.5,-0.5 153.5,-19.5 217.5,-19.5 217.5,-0.5 153.5,-0.5"/>
<text text-anchor="middle" x="185.5" y="-7.5" font-family="Helvetica,sans-Serif" font-size="10.00">algorithm</text>
</a>
</g>
</g>
<!-- Node2&#45;&gt;Node7 -->
<g id="edge6" class="edge">
<title>Node2&#45;&gt;Node7</title>
<path fill="none" stroke="midnightblue" d="M170.7,-248.34C133.76,-244.38 87.12,-232.46 62.5,-199 16.45,-136.41 116.56,-57.38 163.23,-25.41"/>
<polygon fill="midnightblue" stroke="midnightblue" points="165.45,-28.14 171.8,-19.66 161.54,-22.33 165.45,-28.14"/>
</g>
<!-- Node8 -->
<g id="node8" class="node">
<title>Node8</title>
<g id="a_node8"><a xlink:title=" ">
<polygon fill="white" stroke="#bfbfbf" points="277,-0.5 277,-19.5 342,-19.5 342,-0.5 277,-0.5"/>
<text text-anchor="middle" x="309.5" y="-7.5" font-family="Helvetica,sans-Serif" font-size="10.00">functional</text>
</a>
</g>
</g>
<!-- Node2&#45;&gt;Node8 -->
<g id="edge7" class="edge">
<title>Node2&#45;&gt;Node8</title>
<path fill="none" stroke="midnightblue" d="M222.89,-241C217.94,-212.46 205.45,-118.36 242.5,-56 250.76,-42.1 265.18,-31.59 278.53,-24.24"/>
<polygon fill="midnightblue" stroke="midnightblue" points="280.21,-27.31 287.52,-19.65 277.02,-21.08 280.21,-27.31"/>
</g>
<!-- Node9 -->
<g id="node9" class="node">
<title>Node9</title>
<g id="a_node9"><a xlink:title=" ">
<polygon fill="white" stroke="#bfbfbf" points="503.5,-179.5 503.5,-198.5 563.5,-198.5 563.5,-179.5 503.5,-179.5"/>
<text text-anchor="middle" x="533.5" y="-186.5" font-family="Helvetica,sans-Serif" font-size="10.00">iostream</text>
</a>
</g>
</g>
<!-- Node2&#45;&gt;Node9 -->
<g id="edge8" class="edge">
<title>Node2&#45;&gt;Node9</title>
<path fill="none" stroke="midnightblue" d="M259.51,-240.96C268.3,-238.92 277.73,-236.8 286.5,-235 376.26,-216.56 399.5,-216.18 489.5,-199 490.75,-198.76 492.02,-198.52 493.3,-198.27"/>
<polygon fill="midnightblue" stroke="midnightblue" points="494.09,-201.68 503.22,-196.3 492.73,-194.81 494.09,-201.68"/>
</g>
<!-- Node10 -->
<g id="node10" class="node">
<title>Node10</title>
<g id="a_node10"><a xlink:href="InvalidArgument_8hpp.html" target="_top" xlink:title="Definition of the InvalidArgument class.">
<polygon fill="white" stroke="black" points="289.5,-179.5 289.5,-198.5 447.5,-198.5 447.5,-179.5 289.5,-179.5"/>
<text text-anchor="middle" x="368.5" y="-186.5" font-family="Helvetica,sans-Serif" font-size="10.00">playrho/InvalidArgument.hpp</text>
</a>
</g>
</g>
<!-- Node2&#45;&gt;Node10 -->
<g id="edge9" class="edge">
<title>Node2&#45;&gt;Node10</title>
<path fill="none" stroke="midnightblue" d="M245.13,-240.98C269.62,-230.86 310.65,-213.9 338.61,-202.35"/>
<polygon fill="midnightblue" stroke="midnightblue" points="340,-205.56 347.91,-198.51 337.33,-199.09 340,-205.56"/>
</g>
<!-- Node12 -->
<g id="node12" class="node">
<title>Node12</title>
<g id="a_node12"><a xlink:href="Real_8hpp.html" target="_top" xlink:title="Real number definition file.">
<polygon fill="white" stroke="black" points="658,-179.5 658,-198.5 757,-198.5 757,-179.5 658,-179.5"/>
<text text-anchor="middle" x="707.5" y="-186.5" font-family="Helvetica,sans-Serif" font-size="10.00">playrho/Real.hpp</text>
</a>
</g>
</g>
<!-- Node2&#45;&gt;Node12 -->
<g id="edge11" class="edge">
<title>Node2&#45;&gt;Node12</title>
<path fill="none" stroke="midnightblue" d="M257.49,-240.99C266.82,-238.8 277.02,-236.61 286.5,-235 414.38,-213.3 565.98,-200.13 647.86,-194.05"/>
<polygon fill="midnightblue" stroke="midnightblue" points="648.25,-197.53 657.97,-193.31 647.74,-190.55 648.25,-197.53"/>
</g>
<!-- Node14 -->
<g id="node14" class="node">
<title>Node14</title>
<g id="a_node14"><a xlink:href="Templates_8hpp.html" target="_top" xlink:title="Definitions of miscellaneous template related code.">
<polygon fill="white" stroke="black" points="527.5,-123.5 527.5,-142.5 655.5,-142.5 655.5,-123.5 527.5,-123.5"/>
<text text-anchor="middle" x="591.5" y="-130.5" font-family="Helvetica,sans-Serif" font-size="10.00">playrho/Templates.hpp</text>
</a>
</g>
</g>
<!-- Node2&#45;&gt;Node14 -->
<g id="edge20" class="edge">
<title>Node2&#45;&gt;Node14</title>
<path fill="none" stroke="midnightblue" d="M260.53,-240.94C269.04,-238.95 278.08,-236.88 286.5,-235 361.88,-218.21 383.86,-225.23 456.5,-199 474.45,-192.52 477.39,-187.46 494.5,-179 517.42,-167.66 543.75,-155.5 563.19,-146.68"/>
<polygon fill="midnightblue" stroke="midnightblue" points="564.74,-149.82 572.41,-142.52 561.85,-143.44 564.74,-149.82"/>
</g>
<!-- Node11 -->
<g id="node11" class="node">
<title>Node11</title>
<g id="a_node11"><a xlink:title=" ">
<polygon fill="white" stroke="#bfbfbf" points="336,-123.5 336,-142.5 401,-142.5 401,-123.5 336,-123.5"/>
<text text-anchor="middle" x="368.5" y="-130.5" font-family="Helvetica,sans-Serif" font-size="10.00">stdexcept</text>
</a>
</g>
</g>
<!-- Node10&#45;&gt;Node11 -->
<g id="edge10" class="edge">
<title>Node10&#45;&gt;Node11</title>
<path fill="none" stroke="midnightblue" d="M368.5,-179.08C368.5,-172.01 368.5,-161.86 368.5,-152.99"/>
<polygon fill="midnightblue" stroke="midnightblue" points="372,-152.75 368.5,-142.75 365,-152.75 372,-152.75"/>
</g>
<!-- Node13 -->
<g id="node13" class="node">
<title>Node13</title>
<g id="a_node13"><a xlink:title=" ">
<polygon fill="white" stroke="#bfbfbf" points="685.5,-123.5 685.5,-142.5 729.5,-142.5 729.5,-123.5 685.5,-123.5"/>
<text text-anchor="middle" x="707.5" y="-130.5" font-family="Helvetica,sans-Serif" font-size="10.00">limits</text>
</a>
</g>
</g>
<!-- Node12&#45;&gt;Node13 -->
<g id="edge12" class="edge">
<title>Node12&#45;&gt;Node13</title>
<path fill="none" stroke="midnightblue" d="M707.5,-179.08C707.5,-172.01 707.5,-161.86 707.5,-152.99"/>
<polygon fill="midnightblue" stroke="midnightblue" points="711,-152.75 707.5,-142.75 704,-152.75 711,-152.75"/>
</g>
<!-- Node12&#45;&gt;Node14 -->
<g id="edge13" class="edge">
<title>Node12&#45;&gt;Node14</title>
<path fill="none" stroke="midnightblue" d="M689.12,-179.44C670.28,-170.68 640.77,-156.94 619.12,-146.86"/>
<polygon fill="midnightblue" stroke="midnightblue" points="620.34,-143.56 609.79,-142.52 617.38,-149.91 620.34,-143.56"/>
</g>
<!-- Node15 -->
<g id="node15" class="node">
<title>Node15</title>
<g id="a_node15"><a xlink:href="detail_2Templates_8hpp.html" target="_top" xlink:title="Low&#45;level declarations for general class &amp; function templates.">
<polygon fill="white" stroke="black" points="251.5,-62 251.5,-81 409.5,-81 409.5,-62 251.5,-62"/>
<text text-anchor="middle" x="330.5" y="-69" font-family="Helvetica,sans-Serif" font-size="10.00">playrho/detail/Templates.hpp</text>
</a>
</g>
</g>
<!-- Node14&#45;&gt;Node15 -->
<g id="edge14" class="edge">
<title>Node14&#45;&gt;Node15</title>
<path fill="none" stroke="midnightblue" d="M554.11,-123.48C507.69,-112.89 428.48,-94.84 377.86,-83.3"/>
<polygon fill="midnightblue" stroke="midnightblue" points="378.35,-79.82 367.83,-81.01 376.8,-86.64 378.35,-79.82"/>
</g>
<!-- Node15&#45;&gt;Node5 -->
<g id="edge18" class="edge">
<title>Node15&#45;&gt;Node5</title>
<path fill="none" stroke="midnightblue" d="M382.58,-61.98C395.9,-59.91 410.22,-57.78 423.5,-56 552.07,-38.75 704.49,-22.86 778.58,-15.42"/>
<polygon fill="midnightblue" stroke="midnightblue" points="779.33,-18.87 788.93,-14.39 778.63,-11.9 779.33,-18.87"/>
</g>
<!-- Node15&#45;&gt;Node6 -->
<g id="edge17" class="edge">
<title>Node15&#45;&gt;Node6</title>
<path fill="none" stroke="midnightblue" d="M286.94,-61.98C226.82,-50.21 119.47,-29.2 63.2,-18.18"/>
<polygon fill="midnightblue" stroke="midnightblue" points="63.8,-14.73 53.31,-16.25 62.45,-21.6 63.8,-14.73"/>
</g>
<!-- Node15&#45;&gt;Node7 -->
<g id="edge15" class="edge">
<title>Node15&#45;&gt;Node7</title>
<path fill="none" stroke="midnightblue" d="M309.73,-61.98C285.07,-51.86 243.75,-34.9 215.6,-23.35"/>
<polygon fill="midnightblue" stroke="midnightblue" points="216.82,-20.07 206.24,-19.51 214.16,-26.54 216.82,-20.07"/>
</g>
<!-- Node15&#45;&gt;Node8 -->
<g id="edge16" class="edge">
<title>Node15&#45;&gt;Node8</title>
<path fill="none" stroke="midnightblue" d="M327.49,-61.98C324.47,-53.4 319.71,-39.93 315.85,-28.98"/>
<polygon fill="midnightblue" stroke="midnightblue" points="319.13,-27.77 312.5,-19.51 312.53,-30.1 319.13,-27.77"/>
</g>
<!-- Node16 -->
<g id="node16" class="node">
<title>Node16</title>
<g id="a_node16"><a xlink:title=" ">
<polygon fill="white" stroke="#bfbfbf" points="554,-0.5 554,-19.5 599,-19.5 599,-0.5 554,-0.5"/>
<text text-anchor="middle" x="576.5" y="-7.5" font-family="Helvetica,sans-Serif" font-size="10.00">utility</text>
</a>
</g>
</g>
<!-- Node15&#45;&gt;Node16 -->
<g id="edge19" class="edge">
<title>Node15&#45;&gt;Node16</title>
<path fill="none" stroke="midnightblue" d="M365.75,-61.98C413.42,-50.44 497.8,-30.04 544.01,-18.86"/>
<polygon fill="midnightblue" stroke="midnightblue" points="544.91,-22.24 553.81,-16.49 543.27,-15.44 544.91,-22.24"/>
</g>
<!-- Node18 -->
<g id="node18" class="node">
<title>Node18</title>
<g id="a_node18"><a xlink:href="Checked_8hpp.html" target="_top" xlink:title="Declarations of the Checked class template and closely related code.">
<polygon fill="white" stroke="black" points="459,-241 459,-260 608,-260 608,-241 459,-241"/>
<text text-anchor="middle" x="533.5" y="-248" font-family="Helvetica,sans-Serif" font-size="10.00">playrho/detail/Checked.hpp</text>
</a>
</g>
</g>
<!-- Node17&#45;&gt;Node18 -->
<g id="edge22" class="edge">
<title>Node17&#45;&gt;Node18</title>
<path fill="none" stroke="midnightblue" d="M462.39,-302.48C475.7,-292.93 497.5,-277.31 513.46,-265.87"/>
<polygon fill="midnightblue" stroke="midnightblue" points="515.54,-268.68 521.63,-260.01 511.46,-262.99 515.54,-268.68"/>
</g>
<!-- Node19 -->
<g id="node19" class="node">
<title>Node19</title>
<g id="a_node19"><a xlink:href="UnitIntervalChecker_8hpp.html" target="_top" xlink:title="Definition of the UnitIntervalChecker class template.">
<polygon fill="white" stroke="black" points="296,-235.5 296,-265.5 441,-265.5 441,-235.5 296,-235.5"/>
<text text-anchor="start" x="304" y="-253.5" font-family="Helvetica,sans-Serif" font-size="10.00">playrho/detail/UnitInterval</text>
<text text-anchor="middle" x="368.5" y="-242.5" font-family="Helvetica,sans-Serif" font-size="10.00">Checker.hpp</text>
</a>
</g>
</g>
<!-- Node17&#45;&gt;Node19 -->
<g id="edge28" class="edge">
<title>Node17&#45;&gt;Node19</title>
<path fill="none" stroke="midnightblue" d="M438.75,-302.48C427.65,-294.42 410.57,-282.02 396.03,-271.47"/>
<polygon fill="midnightblue" stroke="midnightblue" points="397.98,-268.56 387.83,-265.52 393.86,-274.23 397.98,-268.56"/>
</g>
<!-- Node18&#45;&gt;Node5 -->
<g id="edge24" class="edge">
<title>Node18&#45;&gt;Node5</title>
<path fill="none" stroke="midnightblue" d="M608.17,-243.59C673.25,-236.88 760.95,-223.51 785.5,-199 831.63,-152.95 829.43,-67.4 825.84,-29.69"/>
<polygon fill="midnightblue" stroke="midnightblue" points="829.31,-29.17 824.73,-19.61 822.35,-29.94 829.31,-29.17"/>
</g>
<!-- Node18&#45;&gt;Node9 -->
<g id="edge23" class="edge">
<title>Node18&#45;&gt;Node9</title>
<path fill="none" stroke="midnightblue" d="M533.5,-240.98C533.5,-232.58 533.5,-219.48 533.5,-208.66"/>
<polygon fill="midnightblue" stroke="midnightblue" points="537,-208.51 533.5,-198.51 530,-208.51 537,-208.51"/>
</g>
<!-- Node18&#45;&gt;Node10 -->
<g id="edge26" class="edge">
<title>Node18&#45;&gt;Node10</title>
<path fill="none" stroke="midnightblue" d="M509.86,-240.98C481.56,-230.77 433.97,-213.61 401.91,-202.05"/>
<polygon fill="midnightblue" stroke="midnightblue" points="402.69,-198.61 392.1,-198.51 400.32,-205.19 402.69,-198.61"/>
</g>
<!-- Node18&#45;&gt;Node14 -->
<g id="edge27" class="edge">
<title>Node18&#45;&gt;Node14</title>
<path fill="none" stroke="midnightblue" d="M541.8,-240.89C550.57,-231.36 564.26,-215.19 572.5,-199 580,-184.27 585,-166.11 587.97,-152.73"/>
<polygon fill="midnightblue" stroke="midnightblue" points="591.43,-153.3 590.01,-142.8 584.57,-151.89 591.43,-153.3"/>
</g>
<!-- Node18&#45;&gt;Node16 -->
<g id="edge25" class="edge">
<title>Node18&#45;&gt;Node16</title>
<path fill="none" stroke="midnightblue" d="M608.14,-243.36C668.57,-236.65 746.78,-223.45 766.5,-199 824.81,-126.7 675.79,-52.53 608,-23.61"/>
<polygon fill="midnightblue" stroke="midnightblue" points="609.2,-20.32 598.62,-19.68 606.49,-26.78 609.2,-20.32"/>
</g>
<!-- Node20&#45;&gt;Node5 -->
<g id="edge31" class="edge">
<title>Node20&#45;&gt;Node5</title>
<path fill="none" stroke="midnightblue" d="M901.12,-309.85C937.08,-306.27 983.59,-295.62 1012.5,-266 1036.82,-241.08 1031.5,-224.82 1031.5,-190 1031.5,-190 1031.5,-190 1031.5,-132 1031.5,-96.44 1032.59,-80.16 1006.5,-56 986.6,-37.57 915.69,-24.13 868.21,-16.95"/>
<polygon fill="midnightblue" stroke="midnightblue" points="868.57,-13.47 858.16,-15.48 867.55,-20.4 868.57,-13.47"/>
</g>
<!-- Node20&#45;&gt;Node14 -->
<g id="edge35" class="edge">
<title>Node20&#45;&gt;Node14</title>
<path fill="none" stroke="midnightblue" d="M797.65,-306.07C763.04,-300.69 717.93,-289.44 684.5,-266 641.98,-236.18 612.3,-180.4 599.14,-151.84"/>
<polygon fill="midnightblue" stroke="midnightblue" points="602.31,-150.36 595.05,-142.65 595.92,-153.21 602.31,-150.36"/>
</g>
<!-- Node21 -->
<g id="node21" class="node">
<title>Node21</title>
<g id="a_node21"><a xlink:title=" ">
<polygon fill="white" stroke="#bfbfbf" points="1060,-241 1060,-260 1107,-260 1107,-241 1060,-241"/>
<text text-anchor="middle" x="1083.5" y="-248" font-family="Helvetica,sans-Serif" font-size="10.00">cmath</text>
</a>
</g>
</g>
<!-- Node20&#45;&gt;Node21 -->
<g id="edge30" class="edge">
<title>Node20&#45;&gt;Node21</title>
<path fill="none" stroke="midnightblue" d="M894.73,-302.47C934.76,-294.49 994.56,-281.48 1045.5,-266 1048.07,-265.22 1050.72,-264.35 1053.36,-263.43"/>
<polygon fill="midnightblue" stroke="midnightblue" points="1054.58,-266.72 1062.77,-260 1052.18,-260.14 1054.58,-266.72"/>
</g>
<!-- Node22 -->
<g id="node22" class="node">
<title>Node22</title>
<g id="a_node22"><a xlink:href="RealConstants_8hpp.html" target="_top" xlink:title="Definitions file for constant expressions of type Real.">
<polygon fill="white" stroke="black" points="693.5,-241 693.5,-260 841.5,-260 841.5,-241 693.5,-241"/>
<text text-anchor="middle" x="767.5" y="-248" font-family="Helvetica,sans-Serif" font-size="10.00">playrho/RealConstants.hpp</text>
</a>
</g>
</g>
<!-- Node20&#45;&gt;Node22 -->
<g id="edge32" class="edge">
<title>Node20&#45;&gt;Node22</title>
<path fill="none" stroke="midnightblue" d="M837.75,-302.48C824.72,-293.02 803.46,-277.6 787.74,-266.19"/>
<polygon fill="midnightblue" stroke="midnightblue" points="789.38,-263.05 779.23,-260.01 785.27,-268.71 789.38,-263.05"/>
</g>
<!-- Node24 -->
<g id="node24" class="node">
<title>Node24</title>
<g id="a_node24"><a xlink:href="to__underlying_8hpp.html" target="_top" xlink:title="Definition of to_underlying function template.">
<polygon fill="white" stroke="black" points="859.5,-241 859.5,-260 1003.5,-260 1003.5,-241 859.5,-241"/>
<text text-anchor="middle" x="931.5" y="-248" font-family="Helvetica,sans-Serif" font-size="10.00">playrho/to_underlying.hpp</text>
</a>
</g>
</g>
<!-- Node20&#45;&gt;Node24 -->
<g id="edge36" class="edge">
<title>Node20&#45;&gt;Node24</title>
<path fill="none" stroke="midnightblue" d="M861.25,-302.48C874.28,-293.02 895.54,-277.6 911.26,-266.19"/>
<polygon fill="midnightblue" stroke="midnightblue" points="913.73,-268.71 919.77,-260.01 909.62,-263.05 913.73,-268.71"/>
</g>
<!-- Node22&#45;&gt;Node12 -->
<g id="edge34" class="edge">
<title>Node22&#45;&gt;Node12</title>
<path fill="none" stroke="midnightblue" d="M758.9,-240.98C749.64,-231.78 734.68,-216.96 723.29,-205.66"/>
<polygon fill="midnightblue" stroke="midnightblue" points="725.65,-203.07 716.08,-198.51 720.72,-208.04 725.65,-203.07"/>
</g>
<!-- Node23 -->
<g id="node23" class="node">
<title>Node23</title>
<g id="a_node23"><a xlink:href="Defines_8hpp.html" target="_top" xlink:title="Miscellaneous C&#45;preprocessor definitions.">
<polygon fill="white" stroke="black" points="851.5,-179.5 851.5,-198.5 965.5,-198.5 965.5,-179.5 851.5,-179.5"/>
<text text-anchor="middle" x="908.5" y="-186.5" font-family="Helvetica,sans-Serif" font-size="10.00">playrho/Defines.hpp</text>
</a>
</g>
</g>
<!-- Node22&#45;&gt;Node23 -->
<g id="edge33" class="edge">
<title>Node22&#45;&gt;Node23</title>
<path fill="none" stroke="midnightblue" d="M787.7,-240.98C811.57,-230.9 851.5,-214.05 878.87,-202.5"/>
<polygon fill="midnightblue" stroke="midnightblue" points="880.48,-205.62 888.34,-198.51 877.76,-199.17 880.48,-205.62"/>
</g>
<!-- Node25 -->
<g id="node25" class="node">
<title>Node25</title>
<g id="a_node25"><a xlink:href="underlying__type_8hpp.html" target="_top" xlink:title="Definition of underlying_type trait class and related code.">
<polygon fill="white" stroke="black" points="858,-56.5 858,-86.5 997,-86.5 997,-56.5 858,-56.5"/>
<text text-anchor="start" x="866" y="-74.5" font-family="Helvetica,sans-Serif" font-size="10.00">playrho/detail/underlying</text>
<text text-anchor="middle" x="927.5" y="-63.5" font-family="Helvetica,sans-Serif" font-size="10.00">_type.hpp</text>
</a>
</g>
</g>
<!-- Node24&#45;&gt;Node25 -->
<g id="edge37" class="edge">
<title>Node24&#45;&gt;Node25</title>
<path fill="none" stroke="midnightblue" d="M942.42,-240.82C952.93,-231.69 968.14,-216.29 974.5,-199 977.57,-190.66 976.33,-187.7 974.5,-179 968.1,-148.65 952.48,-116.41 940.99,-95.45"/>
<polygon fill="midnightblue" stroke="midnightblue" points="944.01,-93.67 936.06,-86.67 937.9,-97.1 944.01,-93.67"/>
</g>
<!-- Node25&#45;&gt;Node5 -->
<g id="edge38" class="edge">
<title>Node25&#45;&gt;Node5</title>
<path fill="none" stroke="midnightblue" d="M902.85,-56.4C886.18,-46.86 864.27,-34.32 847.69,-24.84"/>
<polygon fill="midnightblue" stroke="midnightblue" points="849.05,-21.59 838.63,-19.66 845.57,-27.66 849.05,-21.59"/>
</g>
</g>
</svg>
