<?xml version="1.0" encoding="UTF-8" standalone="no"?>
<!DOCTYPE svg PUBLIC "-//W3C//DTD SVG 1.1//EN"
 "http://www.w3.org/Graphics/SVG/1.1/DTD/svg11.dtd">
<!-- Generated by graphviz version 2.43.0 (0)
 -->
<!-- Title: Library/include/playrho/detail/AABB.hpp Pages: 1 -->
<!--zoomable 453 -->
<svg id="main" version="1.1" xmlns="http://www.w3.org/2000/svg" xmlns:xlink="http://www.w3.org/1999/xlink" xml:space="preserve" onload="init(evt)">
<style type="text/css"><![CDATA[
.edge:hover path { stroke: red; }
.edge:hover polygon { stroke: red; fill: red; }
]]></style>
<script type="text/javascript"><![CDATA[
var edges = document.getElementsByTagName('g');
if (edges && edges.length) {
  for (var i=0;i<edges.length;i++) {
    if (edges[i].id.substr(0,4)=='edge') {
      edges[i].setAttribute('class','edge');
    }
  }
}
]]></script>
        <defs>
                <circle id="rim" cx="0" cy="0" r="7"/>
                <circle id="rim2" cx="0" cy="0" r="3.5"/>
                <g id="zoomPlus">
                        <use xlink:href="#rim" fill="#404040">
                                <set attributeName="fill" to="#808080" begin="zoomplus.mouseover" end="zoomplus.mouseout"/>
                        </use>
                        <path d="M-4,0h8M0,-4v8" fill="none" stroke="white" stroke-width="1.5" pointer-events="none"/>
                </g>
                <g id="zoomMin">
                        <use xlink:href="#rim" fill="#404040">
                                <set attributeName="fill" to="#808080" begin="zoomminus.mouseover" end="zoomminus.mouseout"/>
                        </use>
                        <path d="M-4,0h8" fill="none" stroke="white" stroke-width="1.5" pointer-events="none"/>
                </g>
                <g id="dirArrow">
                        <path fill="none" stroke="white" stroke-width="1.5" d="M0,-3.0v7 M-2.5,-0.5L0,-3.0L2.5,-0.5"/>
                </g>
               <g id="resetDef">
                       <use xlink:href="#rim2" fill="#404040">
                               <set attributeName="fill" to="#808080" begin="reset.mouseover" end="reset.mouseout"/>
                       </use>
               </g>
        </defs>

<script type="text/javascript">
var viewWidth = 1585;
var viewHeight = 453;
var sectionId = 'dynsection-0';
</script>
<script xlink:href="svgpan.js"/>
<svg id="graph" class="graph">
<g id="viewport">
<title>Library/include/playrho/detail/AABB.hpp</title>
<polygon fill="white" stroke="transparent" points="-4,4 -4,-449 1580.54,-449 1580.54,4 -4,4"/>
<!-- Node1 -->
<g id="node1" class="node">
<title>Node1</title>
<g id="a_node1"><a xlink:title="Declaration of the AABB class and free functions that return instances of it.">
<polygon fill="#bfbfbf" stroke="black" points="896.04,-414.5 896.04,-444.5 1024.04,-444.5 1024.04,-414.5 896.04,-414.5"/>
<text text-anchor="start" x="904.04" y="-432.5" font-family="Helvetica,sans-Serif" font-size="10.00">Library/include/playrho</text>
<text text-anchor="middle" x="960.04" y="-421.5" font-family="Helvetica,sans-Serif" font-size="10.00">/detail/AABB.hpp</text>
</a>
</g>
</g>
<!-- Node2 -->
<g id="node2" class="node">
<title>Node2</title>
<g id="a_node2"><a xlink:title=" ">
<polygon fill="white" stroke="#bfbfbf" points="1285.04,-0.5 1285.04,-19.5 1349.04,-19.5 1349.04,-0.5 1285.04,-0.5"/>
<text text-anchor="middle" x="1317.04" y="-7.5" font-family="Helvetica,sans-Serif" font-size="10.00">algorithm</text>
</a>
</g>
</g>
<!-- Node1&#45;&gt;Node2 -->
<g id="edge1" class="edge">
<title>Node1&#45;&gt;Node2</title>
<path fill="none" stroke="midnightblue" d="M1024.23,-425.29C1148.1,-417.34 1408.04,-391.31 1408.04,-313 1408.04,-313 1408.04,-313 1408.04,-126.5 1408.04,-82.23 1366.29,-44.94 1339.35,-25.49"/>
<polygon fill="midnightblue" stroke="midnightblue" points="1341.07,-22.42 1330.86,-19.59 1337.08,-28.17 1341.07,-22.42"/>
</g>
<!-- Node3 -->
<g id="node3" class="node">
<title>Node3</title>
<g id="a_node3"><a xlink:title=" ">
<polygon fill="white" stroke="#bfbfbf" points="1288.54,-185 1288.54,-204 1341.54,-204 1341.54,-185 1288.54,-185"/>
<text text-anchor="middle" x="1315.04" y="-192" font-family="Helvetica,sans-Serif" font-size="10.00">cstddef</text>
</a>
</g>
</g>
<!-- Node1&#45;&gt;Node3 -->
<g id="edge2" class="edge">
<title>Node1&#45;&gt;Node3</title>
<path fill="none" stroke="midnightblue" d="M981.45,-414.45C1044.6,-373 1229.68,-251.53 1293.28,-209.78"/>
<polygon fill="midnightblue" stroke="midnightblue" points="1295.31,-212.63 1301.75,-204.22 1291.47,-206.78 1295.31,-212.63"/>
</g>
<!-- Node4 -->
<g id="node4" class="node">
<title>Node4</title>
<g id="a_node4"><a xlink:title=" ">
<polygon fill="white" stroke="#bfbfbf" points="1436.54,-358.5 1436.54,-377.5 1501.54,-377.5 1501.54,-358.5 1436.54,-358.5"/>
<text text-anchor="middle" x="1469.04" y="-365.5" font-family="Helvetica,sans-Serif" font-size="10.00">functional</text>
</a>
</g>
</g>
<!-- Node1&#45;&gt;Node4 -->
<g id="edge3" class="edge">
<title>Node1&#45;&gt;Node4</title>
<path fill="none" stroke="midnightblue" d="M1024.15,-423.13C1113.55,-415.27 1280.61,-399.24 1422.04,-378 1423.5,-377.78 1424.99,-377.55 1426.49,-377.3"/>
<polygon fill="midnightblue" stroke="midnightblue" points="1427.22,-380.73 1436.48,-375.59 1426.03,-373.83 1427.22,-380.73"/>
</g>
<!-- Node5 -->
<g id="node5" class="node">
<title>Node5</title>
<g id="a_node5"><a xlink:title=" ">
<polygon fill="white" stroke="#bfbfbf" points="1519.54,-358.5 1519.54,-377.5 1576.54,-377.5 1576.54,-358.5 1519.54,-358.5"/>
<text text-anchor="middle" x="1548.04" y="-365.5" font-family="Helvetica,sans-Serif" font-size="10.00">ostream</text>
</a>
</g>
</g>
<!-- Node1&#45;&gt;Node5 -->
<g id="edge4" class="edge">
<title>Node1&#45;&gt;Node5</title>
<path fill="none" stroke="midnightblue" d="M1024.06,-425.7C1125.32,-420.59 1328.7,-407.59 1509.49,-378.04"/>
<polygon fill="midnightblue" stroke="midnightblue" points="1510.15,-381.48 1519.44,-376.4 1509.01,-374.58 1510.15,-381.48"/>
</g>
<!-- Node6 -->
<g id="node6" class="node">
<title>Node6</title>
<g id="a_node6"><a xlink:title=" ">
<polygon fill="white" stroke="#bfbfbf" points="588.54,-0.5 588.54,-19.5 657.54,-19.5 657.54,-0.5 588.54,-0.5"/>
<text text-anchor="middle" x="623.04" y="-7.5" font-family="Helvetica,sans-Serif" font-size="10.00">type_traits</text>
</a>
</g>
</g>
<!-- Node1&#45;&gt;Node6 -->
<g id="edge5" class="edge">
<title>Node1&#45;&gt;Node6</title>
<path fill="none" stroke="midnightblue" d="M958.42,-414.44C955.02,-389.79 945.35,-337.99 921.04,-302 898.93,-269.27 887.22,-263.96 852.04,-246 797.12,-217.96 765.45,-249.44 718.04,-210 688,-185.01 645.45,-73.31 629.45,-29.1"/>
<polygon fill="midnightblue" stroke="midnightblue" points="632.73,-27.86 626.06,-19.62 626.14,-30.22 632.73,-27.86"/>
</g>
<!-- Node7 -->
<g id="node7" class="node">
<title>Node7</title>
<g id="a_node7"><a xlink:href="Intervals_8hpp.html" target="_top" xlink:title="Alias for an Interval of Length .">
<polygon fill="white" stroke="black" points="793.04,-358.5 793.04,-377.5 913.04,-377.5 913.04,-358.5 793.04,-358.5"/>
<text text-anchor="middle" x="853.04" y="-365.5" font-family="Helvetica,sans-Serif" font-size="10.00">playrho/Intervals.hpp</text>
</a>
</g>
</g>
<!-- Node1&#45;&gt;Node7 -->
<g id="edge6" class="edge">
<title>Node1&#45;&gt;Node7</title>
<path fill="none" stroke="midnightblue" d="M934.68,-414.4C917.37,-404.77 894.56,-392.09 877.46,-382.58"/>
<polygon fill="midnightblue" stroke="midnightblue" points="879.05,-379.46 868.61,-377.66 875.65,-385.58 879.05,-379.46"/>
</g>
<!-- Node13 -->
<g id="node13" class="node">
<title>Node13</title>
<g id="a_node13"><a xlink:href="NonNegative_8hpp.html" target="_top" xlink:title="Definition of the NonNegative value checked types.">
<polygon fill="white" stroke="black" points="556.54,-246.5 556.54,-265.5 697.54,-265.5 697.54,-246.5 556.54,-246.5"/>
<text text-anchor="middle" x="627.04" y="-253.5" font-family="Helvetica,sans-Serif" font-size="10.00">playrho/NonNegative.hpp</text>
</a>
</g>
</g>
<!-- Node1&#45;&gt;Node13 -->
<g id="edge45" class="edge">
<title>Node1&#45;&gt;Node13</title>
<path fill="none" stroke="midnightblue" d="M895.98,-416.25C861.61,-408.19 819.22,-395.78 784.04,-378 726.98,-349.16 670.06,-298.45 643.12,-272.81"/>
<polygon fill="midnightblue" stroke="midnightblue" points="645.38,-270.13 635.75,-265.7 640.52,-275.17 645.38,-270.13"/>
</g>
<!-- Node23 -->
<g id="node23" class="node">
<title>Node23</title>
<g id="a_node23"><a xlink:href="Units_8hpp.html" target="_top" xlink:title="Declarations for physical units possibly backed by strong types.">
<polygon fill="white" stroke="black" points="246.54,-302.5 246.54,-321.5 349.54,-321.5 349.54,-302.5 246.54,-302.5"/>
<text text-anchor="middle" x="298.04" y="-309.5" font-family="Helvetica,sans-Serif" font-size="10.00">playrho/Units.hpp</text>
</a>
</g>
</g>
<!-- Node1&#45;&gt;Node23 -->
<g id="edge47" class="edge">
<title>Node1&#45;&gt;Node23</title>
<path fill="none" stroke="midnightblue" d="M895.79,-426.81C802.3,-423.23 623.8,-412.14 476.04,-378 421.48,-365.4 360.79,-340.82 326.24,-325.76"/>
<polygon fill="midnightblue" stroke="midnightblue" points="327.36,-322.43 316.8,-321.6 324.54,-328.84 327.36,-322.43"/>
</g>
<!-- Node25 -->
<g id="node25" class="node">
<title>Node25</title>
<g id="a_node25"><a xlink:href="Real_8hpp.html" target="_top" xlink:title="Real number definition file.">
<polygon fill="white" stroke="black" points="288.54,-185 288.54,-204 387.54,-204 387.54,-185 288.54,-185"/>
<text text-anchor="middle" x="338.04" y="-192" font-family="Helvetica,sans-Serif" font-size="10.00">playrho/Real.hpp</text>
</a>
</g>
</g>
<!-- Node1&#45;&gt;Node25 -->
<g id="edge46" class="edge">
<title>Node1&#45;&gt;Node25</title>
<path fill="none" stroke="midnightblue" d="M902.2,-414.46C867.48,-405.4 822.7,-392.61 784.04,-378 675.43,-336.96 652.15,-317.38 548.04,-266 530.57,-257.38 527.13,-253.23 509.04,-246 485.49,-236.58 422.03,-218.53 379.4,-206.76"/>
<polygon fill="midnightblue" stroke="midnightblue" points="380.15,-203.33 369.58,-204.05 378.29,-210.08 380.15,-203.33"/>
</g>
<!-- Node29 -->
<g id="node29" class="node">
<title>Node29</title>
<g id="a_node29"><a xlink:href="Vector_8hpp.html" target="_top" xlink:title="Definition of the Vector class template and closely related code.">
<polygon fill="white" stroke="black" points="1007.54,-246.5 1007.54,-265.5 1114.54,-265.5 1114.54,-246.5 1007.54,-246.5"/>
<text text-anchor="middle" x="1061.04" y="-253.5" font-family="Helvetica,sans-Serif" font-size="10.00">playrho/Vector.hpp</text>
</a>
</g>
</g>
<!-- Node1&#45;&gt;Node29 -->
<g id="edge48" class="edge">
<title>Node1&#45;&gt;Node29</title>
<path fill="none" stroke="midnightblue" d="M968.31,-414.47C986.66,-383.3 1030.77,-308.41 1050.81,-274.37"/>
<polygon fill="midnightblue" stroke="midnightblue" points="1053.94,-275.95 1056,-265.56 1047.91,-272.4 1053.94,-275.95"/>
</g>
<!-- Node8 -->
<g id="node8" class="node">
<title>Node8</title>
<g id="a_node8"><a xlink:href="Interval_8hpp.html" target="_top" xlink:title="Definition of the Interval class template and closely related code.">
<polygon fill="white" stroke="black" points="796.54,-302.5 796.54,-321.5 911.54,-321.5 911.54,-302.5 796.54,-302.5"/>
<text text-anchor="middle" x="854.04" y="-309.5" font-family="Helvetica,sans-Serif" font-size="10.00">playrho/Interval.hpp</text>
</a>
</g>
</g>
<!-- Node7&#45;&gt;Node8 -->
<g id="edge7" class="edge">
<title>Node7&#45;&gt;Node8</title>
<path fill="none" stroke="midnightblue" d="M853.21,-358.08C853.34,-351.01 853.52,-340.86 853.69,-331.99"/>
<polygon fill="midnightblue" stroke="midnightblue" points="857.19,-331.81 853.88,-321.75 850.19,-331.68 857.19,-331.81"/>
</g>
<!-- Node7&#45;&gt;Node23 -->
<g id="edge33" class="edge">
<title>Node7&#45;&gt;Node23</title>
<path fill="none" stroke="midnightblue" d="M792.85,-361.14C686.7,-350.82 467.28,-329.47 359.93,-319.02"/>
<polygon fill="midnightblue" stroke="midnightblue" points="360.19,-315.53 349.9,-318.05 359.51,-322.5 360.19,-315.53"/>
</g>
<!-- Node8&#45;&gt;Node2 -->
<g id="edge8" class="edge">
<title>Node8&#45;&gt;Node2</title>
<path fill="none" stroke="midnightblue" d="M911.73,-310.17C1046.38,-306.66 1370.04,-288.56 1370.04,-195.5 1370.04,-195.5 1370.04,-195.5 1370.04,-126.5 1370.04,-88.47 1346.01,-49.29 1330.31,-27.75"/>
<polygon fill="midnightblue" stroke="midnightblue" points="1333.01,-25.52 1324.19,-19.65 1327.43,-29.74 1333.01,-25.52"/>
</g>
<!-- Node8&#45;&gt;Node6 -->
<g id="edge12" class="edge">
<title>Node8&#45;&gt;Node6</title>
<path fill="none" stroke="midnightblue" d="M853.67,-302.44C852.58,-288.5 848.37,-260.98 832.04,-246 782.47,-200.53 734.05,-256.07 685.04,-210 632.96,-161.05 624.34,-69.18 623.12,-29.76"/>
<polygon fill="midnightblue" stroke="midnightblue" points="626.61,-29.64 622.94,-19.7 619.62,-29.76 626.61,-29.64"/>
</g>
<!-- Node9 -->
<g id="node9" class="node">
<title>Node9</title>
<g id="a_node9"><a xlink:title=" ">
<polygon fill="white" stroke="#bfbfbf" points="361.04,-118 361.04,-137 405.04,-137 405.04,-118 361.04,-118"/>
<text text-anchor="middle" x="383.04" y="-125" font-family="Helvetica,sans-Serif" font-size="10.00">limits</text>
</a>
</g>
</g>
<!-- Node8&#45;&gt;Node9 -->
<g id="edge9" class="edge">
<title>Node8&#45;&gt;Node9</title>
<path fill="none" stroke="midnightblue" d="M850.47,-302.18C844.19,-287.87 829.73,-259.81 808.04,-246 732.22,-197.73 691.76,-245.15 609.04,-210 587.36,-200.79 587.29,-189.18 566.04,-179 539.36,-166.21 460.11,-146.53 415.14,-135.91"/>
<polygon fill="midnightblue" stroke="midnightblue" points="415.83,-132.47 405.3,-133.6 414.23,-139.29 415.83,-132.47"/>
</g>
<!-- Node10 -->
<g id="node10" class="node">
<title>Node10</title>
<g id="a_node10"><a xlink:title=" ">
<polygon fill="white" stroke="#bfbfbf" points="715.54,-246.5 715.54,-265.5 798.54,-265.5 798.54,-246.5 715.54,-246.5"/>
<text text-anchor="middle" x="757.04" y="-253.5" font-family="Helvetica,sans-Serif" font-size="10.00">initializer_list</text>
</a>
</g>
</g>
<!-- Node8&#45;&gt;Node10 -->
<g id="edge10" class="edge">
<title>Node8&#45;&gt;Node10</title>
<path fill="none" stroke="midnightblue" d="M838.46,-302.32C823.04,-293.74 799.23,-280.49 781.33,-270.52"/>
<polygon fill="midnightblue" stroke="midnightblue" points="783.03,-267.46 772.59,-265.65 779.62,-273.58 783.03,-267.46"/>
</g>
<!-- Node11 -->
<g id="node11" class="node">
<title>Node11</title>
<g id="a_node11"><a xlink:title=" ">
<polygon fill="white" stroke="#bfbfbf" points="873.04,-118 873.04,-137 933.04,-137 933.04,-118 873.04,-118"/>
<text text-anchor="middle" x="903.04" y="-125" font-family="Helvetica,sans-Serif" font-size="10.00">iostream</text>
</a>
</g>
</g>
<!-- Node8&#45;&gt;Node11 -->
<g id="edge11" class="edge">
<title>Node8&#45;&gt;Node11</title>
<path fill="none" stroke="midnightblue" d="M859.94,-302.45C865.7,-293.69 874.27,-279.48 879.04,-266 893.47,-225.2 899.45,-174.42 901.74,-147.43"/>
<polygon fill="midnightblue" stroke="midnightblue" points="905.26,-147.36 902.53,-137.12 898.28,-146.82 905.26,-147.36"/>
</g>
<!-- Node12 -->
<g id="node12" class="node">
<title>Node12</title>
<g id="a_node12"><a xlink:title=" ">
<polygon fill="white" stroke="#bfbfbf" points="933.54,-0.5 933.54,-19.5 978.54,-19.5 978.54,-0.5 933.54,-0.5"/>
<text text-anchor="middle" x="956.04" y="-7.5" font-family="Helvetica,sans-Serif" font-size="10.00">utility</text>
</a>
</g>
</g>
<!-- Node8&#45;&gt;Node12 -->
<g id="edge13" class="edge">
<title>Node8&#45;&gt;Node12</title>
<path fill="none" stroke="midnightblue" d="M863.31,-302.32C872.19,-293.68 885.59,-279.77 895.04,-266 948.45,-188.15 968.35,-167.89 990.04,-76 992.08,-67.35 992.87,-64.43 990.04,-56 986.44,-45.25 979.14,-35.02 972.22,-27.04"/>
<polygon fill="midnightblue" stroke="midnightblue" points="974.7,-24.56 965.33,-19.61 969.56,-29.32 974.7,-24.56"/>
</g>
<!-- Node8&#45;&gt;Node13 -->
<g id="edge14" class="edge">
<title>Node8&#45;&gt;Node13</title>
<path fill="none" stroke="midnightblue" d="M818.07,-302.44C778.72,-293.08 715.55,-278.06 672.73,-267.87"/>
<polygon fill="midnightblue" stroke="midnightblue" points="673.38,-264.43 662.84,-265.52 671.76,-271.24 673.38,-264.43"/>
</g>
<!-- Node13&#45;&gt;Node6 -->
<g id="edge15" class="edge">
<title>Node13&#45;&gt;Node6</title>
<path fill="none" stroke="midnightblue" d="M556.46,-248.26C457.4,-238.46 288.11,-220.32 279.04,-210 185.17,-103.21 465.32,-39.4 578.17,-18.57"/>
<polygon fill="midnightblue" stroke="midnightblue" points="579.02,-21.97 588.23,-16.75 577.77,-15.09 579.02,-21.97"/>
</g>
<!-- Node14 -->
<g id="node14" class="node">
<title>Node14</title>
<g id="a_node14"><a xlink:href="Checked_8hpp.html" target="_top" xlink:title="Declarations of the Checked class template and closely related code.">
<polygon fill="white" stroke="black" points="726.54,-185 726.54,-204 875.54,-204 875.54,-185 726.54,-185"/>
<text text-anchor="middle" x="801.04" y="-192" font-family="Helvetica,sans-Serif" font-size="10.00">playrho/detail/Checked.hpp</text>
</a>
</g>
</g>
<!-- Node13&#45;&gt;Node14 -->
<g id="edge16" class="edge">
<title>Node13&#45;&gt;Node14</title>
<path fill="none" stroke="midnightblue" d="M651.97,-246.48C682.08,-236.18 732.87,-218.81 766.68,-207.25"/>
<polygon fill="midnightblue" stroke="midnightblue" points="767.83,-210.56 776.16,-204.01 765.56,-203.93 767.83,-210.56"/>
</g>
<!-- Node22 -->
<g id="node22" class="node">
<title>Node22</title>
<g id="a_node22"><a xlink:href="NonNegativeChecker_8hpp.html" target="_top" xlink:title="Definition of the NonNegativeChecker class template.">
<polygon fill="white" stroke="black" points="405.54,-179.5 405.54,-209.5 556.54,-209.5 556.54,-179.5 405.54,-179.5"/>
<text text-anchor="start" x="413.54" y="-197.5" font-family="Helvetica,sans-Serif" font-size="10.00">playrho/detail/NonNegative</text>
<text text-anchor="middle" x="481.04" y="-186.5" font-family="Helvetica,sans-Serif" font-size="10.00">Checker.hpp</text>
</a>
</g>
</g>
<!-- Node13&#45;&gt;Node22 -->
<g id="edge32" class="edge">
<title>Node13&#45;&gt;Node22</title>
<path fill="none" stroke="midnightblue" d="M606.12,-246.48C585.05,-237.89 551.91,-224.38 525.03,-213.43"/>
<polygon fill="midnightblue" stroke="midnightblue" points="526.03,-210.06 515.45,-209.52 523.39,-216.54 526.03,-210.06"/>
</g>
<!-- Node14&#45;&gt;Node6 -->
<g id="edge18" class="edge">
<title>Node14&#45;&gt;Node6</title>
<path fill="none" stroke="midnightblue" d="M795.96,-184.92C782.04,-161.94 741.27,-97.9 695.04,-56 681.33,-43.58 663.76,-32.52 649.41,-24.47"/>
<polygon fill="midnightblue" stroke="midnightblue" points="650.97,-21.34 640.51,-19.64 647.63,-27.49 650.97,-21.34"/>
</g>
<!-- Node14&#45;&gt;Node11 -->
<g id="edge17" class="edge">
<title>Node14&#45;&gt;Node11</title>
<path fill="none" stroke="midnightblue" d="M814.8,-184.73C831.77,-173.92 860.85,-155.38 880.97,-142.57"/>
<polygon fill="midnightblue" stroke="midnightblue" points="882.95,-145.45 889.5,-137.13 879.19,-139.55 882.95,-145.45"/>
</g>
<!-- Node14&#45;&gt;Node12 -->
<g id="edge19" class="edge">
<title>Node14&#45;&gt;Node12</title>
<path fill="none" stroke="midnightblue" d="M798.94,-184.9C793.71,-161.33 782.72,-94.81 814.04,-56 840.35,-23.41 890.21,-14.04 923.29,-11.56"/>
<polygon fill="midnightblue" stroke="midnightblue" points="923.61,-15.05 933.39,-10.98 923.2,-8.06 923.61,-15.05"/>
</g>
<!-- Node15 -->
<g id="node15" class="node">
<title>Node15</title>
<g id="a_node15"><a xlink:href="InvalidArgument_8hpp.html" target="_top" xlink:title="Definition of the InvalidArgument class.">
<polygon fill="white" stroke="black" points="1045.04,-118 1045.04,-137 1203.04,-137 1203.04,-118 1045.04,-118"/>
<text text-anchor="middle" x="1124.04" y="-125" font-family="Helvetica,sans-Serif" font-size="10.00">playrho/InvalidArgument.hpp</text>
</a>
</g>
</g>
<!-- Node14&#45;&gt;Node15 -->
<g id="edge20" class="edge">
<title>Node14&#45;&gt;Node15</title>
<path fill="none" stroke="midnightblue" d="M843.6,-184.94C902.38,-173.11 1008.34,-151.78 1071.83,-139.01"/>
<polygon fill="midnightblue" stroke="midnightblue" points="1072.53,-142.44 1081.64,-137.03 1071.15,-135.57 1072.53,-142.44"/>
</g>
<!-- Node18 -->
<g id="node18" class="node">
<title>Node18</title>
<g id="a_node18"><a xlink:href="Templates_8hpp.html" target="_top" xlink:title="Definitions of miscellaneous template related code.">
<polygon fill="white" stroke="black" points="467.04,-118 467.04,-137 595.04,-137 595.04,-118 467.04,-118"/>
<text text-anchor="middle" x="531.04" y="-125" font-family="Helvetica,sans-Serif" font-size="10.00">playrho/Templates.hpp</text>
</a>
</g>
</g>
<!-- Node14&#45;&gt;Node18 -->
<g id="edge24" class="edge">
<title>Node14&#45;&gt;Node18</title>
<path fill="none" stroke="midnightblue" d="M765.46,-184.94C716.9,-173.24 629.82,-152.28 576.55,-139.46"/>
<polygon fill="midnightblue" stroke="midnightblue" points="577.24,-136.02 566.69,-137.08 575.6,-142.83 577.24,-136.02"/>
</g>
<!-- Node15&#45;&gt;Node12 -->
<g id="edge23" class="edge">
<title>Node15&#45;&gt;Node12</title>
<path fill="none" stroke="midnightblue" d="M1137.82,-117.99C1158.02,-104.46 1191.48,-77.41 1174.04,-56 1151.1,-27.84 1044.32,-16.77 989.18,-12.88"/>
<polygon fill="midnightblue" stroke="midnightblue" points="989.1,-9.37 978.89,-12.19 988.63,-16.35 989.1,-9.37"/>
</g>
<!-- Node16 -->
<g id="node16" class="node">
<title>Node16</title>
<g id="a_node16"><a xlink:title=" ">
<polygon fill="white" stroke="#bfbfbf" points="1037.54,-56.5 1037.54,-75.5 1102.54,-75.5 1102.54,-56.5 1037.54,-56.5"/>
<text text-anchor="middle" x="1070.04" y="-63.5" font-family="Helvetica,sans-Serif" font-size="10.00">stdexcept</text>
</a>
</g>
</g>
<!-- Node15&#45;&gt;Node16 -->
<g id="edge21" class="edge">
<title>Node15&#45;&gt;Node16</title>
<path fill="none" stroke="midnightblue" d="M1116.3,-117.98C1108.04,-108.87 1094.76,-94.24 1084.55,-82.98"/>
<polygon fill="midnightblue" stroke="midnightblue" points="1087.08,-80.56 1077.76,-75.51 1081.89,-85.27 1087.08,-80.56"/>
</g>
<!-- Node17 -->
<g id="node17" class="node">
<title>Node17</title>
<g id="a_node17"><a xlink:title=" ">
<polygon fill="white" stroke="#bfbfbf" points="1121.04,-56.5 1121.04,-75.5 1165.04,-75.5 1165.04,-56.5 1121.04,-56.5"/>
<text text-anchor="middle" x="1143.04" y="-63.5" font-family="Helvetica,sans-Serif" font-size="10.00">string</text>
</a>
</g>
</g>
<!-- Node15&#45;&gt;Node17 -->
<g id="edge22" class="edge">
<title>Node15&#45;&gt;Node17</title>
<path fill="none" stroke="midnightblue" d="M1126.76,-117.98C1129.47,-109.49 1133.71,-96.2 1137.19,-85.32"/>
<polygon fill="midnightblue" stroke="midnightblue" points="1140.62,-86.1 1140.32,-75.51 1133.95,-83.97 1140.62,-86.1"/>
</g>
<!-- Node18&#45;&gt;Node6 -->
<g id="edge26" class="edge">
<title>Node18&#45;&gt;Node6</title>
<path fill="none" stroke="midnightblue" d="M529.3,-117.84C526.95,-103.62 524.39,-75.03 537.04,-56 547.26,-40.63 564.47,-30.18 580.82,-23.25"/>
<polygon fill="midnightblue" stroke="midnightblue" points="582.24,-26.45 590.29,-19.56 579.71,-19.93 582.24,-26.45"/>
</g>
<!-- Node19 -->
<g id="node19" class="node">
<title>Node19</title>
<g id="a_node19"><a xlink:title=" ">
<polygon fill="white" stroke="#bfbfbf" points="545.54,-56.5 545.54,-75.5 594.54,-75.5 594.54,-56.5 545.54,-56.5"/>
<text text-anchor="middle" x="570.04" y="-63.5" font-family="Helvetica,sans-Serif" font-size="10.00">cstdlib</text>
</a>
</g>
</g>
<!-- Node18&#45;&gt;Node19 -->
<g id="edge25" class="edge">
<title>Node18&#45;&gt;Node19</title>
<path fill="none" stroke="midnightblue" d="M536.63,-117.98C542.42,-109.14 551.63,-95.09 558.91,-83.98"/>
<polygon fill="midnightblue" stroke="midnightblue" points="561.91,-85.79 564.46,-75.51 556.05,-81.95 561.91,-85.79"/>
</g>
<!-- Node20 -->
<g id="node20" class="node">
<title>Node20</title>
<g id="a_node20"><a xlink:href="detail_2Templates_8hpp.html" target="_top" xlink:title="Low&#45;level declarations for general class &amp; function templates.">
<polygon fill="white" stroke="black" points="823.04,-56.5 823.04,-75.5 981.04,-75.5 981.04,-56.5 823.04,-56.5"/>
<text text-anchor="middle" x="902.04" y="-63.5" font-family="Helvetica,sans-Serif" font-size="10.00">playrho/detail/Templates.hpp</text>
</a>
</g>
</g>
<!-- Node18&#45;&gt;Node20 -->
<g id="edge27" class="edge">
<title>Node18&#45;&gt;Node20</title>
<path fill="none" stroke="midnightblue" d="M584.2,-117.98C651.42,-107.19 767.02,-88.65 838.73,-77.15"/>
<polygon fill="midnightblue" stroke="midnightblue" points="839.66,-80.55 848.98,-75.51 838.56,-73.64 839.66,-80.55"/>
</g>
<!-- Node20&#45;&gt;Node2 -->
<g id="edge28" class="edge">
<title>Node20&#45;&gt;Node2</title>
<path fill="none" stroke="midnightblue" d="M967.8,-56.44C1053.84,-45.25 1202.18,-25.95 1274.68,-16.51"/>
<polygon fill="midnightblue" stroke="midnightblue" points="1275.34,-19.96 1284.81,-15.19 1274.44,-13.01 1275.34,-19.96"/>
</g>
<!-- Node20&#45;&gt;Node6 -->
<g id="edge30" class="edge">
<title>Node20&#45;&gt;Node6</title>
<path fill="none" stroke="midnightblue" d="M857.83,-56.44C805.83,-46.38 719.99,-29.76 667.76,-19.66"/>
<polygon fill="midnightblue" stroke="midnightblue" points="668.27,-16.19 657.79,-17.73 666.94,-23.06 668.27,-16.19"/>
</g>
<!-- Node20&#45;&gt;Node12 -->
<g id="edge31" class="edge">
<title>Node20&#45;&gt;Node12</title>
<path fill="none" stroke="midnightblue" d="M910.96,-56.08C918.82,-48.22 930.47,-36.57 939.96,-27.08"/>
<polygon fill="midnightblue" stroke="midnightblue" points="942.69,-29.3 947.29,-19.75 937.74,-24.35 942.69,-29.3"/>
</g>
<!-- Node21 -->
<g id="node21" class="node">
<title>Node21</title>
<g id="a_node21"><a xlink:title=" ">
<polygon fill="white" stroke="#bfbfbf" points="1155.54,-0.5 1155.54,-19.5 1208.54,-19.5 1208.54,-0.5 1155.54,-0.5"/>
<text text-anchor="middle" x="1182.04" y="-7.5" font-family="Helvetica,sans-Serif" font-size="10.00">iterator</text>
</a>
</g>
</g>
<!-- Node20&#45;&gt;Node21 -->
<g id="edge29" class="edge">
<title>Node20&#45;&gt;Node21</title>
<path fill="none" stroke="midnightblue" d="M946.41,-56.44C1001.37,-45.84 1094.01,-27.98 1145.23,-18.1"/>
<polygon fill="midnightblue" stroke="midnightblue" points="1146.04,-21.51 1155.2,-16.18 1144.71,-14.63 1146.04,-21.51"/>
</g>
<!-- Node23&#45;&gt;Node6 -->
<g id="edge35" class="edge">
<title>Node23&#45;&gt;Node6</title>
<path fill="none" stroke="midnightblue" d="M246.38,-308.48C179.68,-304.16 68.66,-293.04 39.04,-266 15.07,-244.12 20.04,-227.95 20.04,-195.5 20.04,-195.5 20.04,-195.5 20.04,-126.5 20.04,-99.02 -78.35,-120.83 167.04,-56 314,-17.17 495.62,-11.24 578.29,-10.72"/>
<polygon fill="midnightblue" stroke="midnightblue" points="578.36,-14.22 588.34,-10.68 578.33,-7.22 578.36,-14.22"/>
</g>
<!-- Node23&#45;&gt;Node18 -->
<g id="edge41" class="edge">
<title>Node23&#45;&gt;Node18</title>
<path fill="none" stroke="midnightblue" d="M279.06,-302.4C265.15,-294.95 247.33,-282.74 239.04,-266 221.81,-231.19 269.72,-185.59 279.04,-179 294.26,-168.25 396.9,-150.03 466.4,-138.66"/>
<polygon fill="midnightblue" stroke="midnightblue" points="467.1,-142.1 476.4,-137.04 465.97,-135.19 467.1,-142.1"/>
</g>
<!-- Node24 -->
<g id="node24" class="node">
<title>Node24</title>
<g id="a_node24"><a xlink:title=" ">
<polygon fill="white" stroke="#bfbfbf" points="248.54,-246.5 248.54,-265.5 295.54,-265.5 295.54,-246.5 248.54,-246.5"/>
<text text-anchor="middle" x="272.04" y="-253.5" font-family="Helvetica,sans-Serif" font-size="10.00">cmath</text>
</a>
</g>
</g>
<!-- Node23&#45;&gt;Node24 -->
<g id="edge34" class="edge">
<title>Node23&#45;&gt;Node24</title>
<path fill="none" stroke="midnightblue" d="M293.75,-302.08C290.19,-294.69 285.02,-283.95 280.62,-274.81"/>
<polygon fill="midnightblue" stroke="midnightblue" points="283.75,-273.24 276.25,-265.75 277.44,-276.28 283.75,-273.24"/>
</g>
<!-- Node23&#45;&gt;Node25 -->
<g id="edge36" class="edge">
<title>Node23&#45;&gt;Node25</title>
<path fill="none" stroke="midnightblue" d="M301.05,-302.32C307.53,-283.59 322.96,-239.05 331.71,-213.79"/>
<polygon fill="midnightblue" stroke="midnightblue" points="335.03,-214.88 335,-204.28 328.42,-212.59 335.03,-214.88"/>
</g>
<!-- Node26 -->
<g id="node26" class="node">
<title>Node26</title>
<g id="a_node26"><a xlink:href="RealConstants_8hpp.html" target="_top" xlink:title="Definitions file for constant expressions of type Real.">
<polygon fill="white" stroke="black" points="352.04,-246.5 352.04,-265.5 500.04,-265.5 500.04,-246.5 352.04,-246.5"/>
<text text-anchor="middle" x="426.04" y="-253.5" font-family="Helvetica,sans-Serif" font-size="10.00">playrho/RealConstants.hpp</text>
</a>
</g>
</g>
<!-- Node23&#45;&gt;Node26 -->
<g id="edge39" class="edge">
<title>Node23&#45;&gt;Node26</title>
<path fill="none" stroke="midnightblue" d="M318.32,-302.44C339.39,-293.56 372.56,-279.56 396.53,-269.45"/>
<polygon fill="midnightblue" stroke="midnightblue" points="398,-272.63 405.85,-265.52 395.28,-266.18 398,-272.63"/>
</g>
<!-- Node27 -->
<g id="node27" class="node">
<title>Node27</title>
<g id="a_node27"><a xlink:href="to__underlying_8hpp.html" target="_top" xlink:title="Definition of to_underlying function template.">
<polygon fill="white" stroke="black" points="48.04,-246.5 48.04,-265.5 192.04,-265.5 192.04,-246.5 48.04,-246.5"/>
<text text-anchor="middle" x="120.04" y="-253.5" font-family="Helvetica,sans-Serif" font-size="10.00">playrho/to_underlying.hpp</text>
</a>
</g>
</g>
<!-- Node23&#45;&gt;Node27 -->
<g id="edge42" class="edge">
<title>Node23&#45;&gt;Node27</title>
<path fill="none" stroke="midnightblue" d="M269.84,-302.44C239.63,-293.28 191.53,-278.69 158.01,-268.52"/>
<polygon fill="midnightblue" stroke="midnightblue" points="158.7,-265.07 148.11,-265.52 156.67,-271.77 158.7,-265.07"/>
</g>
<!-- Node25&#45;&gt;Node9 -->
<g id="edge37" class="edge">
<title>Node25&#45;&gt;Node9</title>
<path fill="none" stroke="midnightblue" d="M344.11,-184.73C351.06,-174.7 362.61,-158.01 371.33,-145.42"/>
<polygon fill="midnightblue" stroke="midnightblue" points="374.25,-147.34 377.07,-137.13 368.5,-143.36 374.25,-147.34"/>
</g>
<!-- Node25&#45;&gt;Node18 -->
<g id="edge38" class="edge">
<title>Node25&#45;&gt;Node18</title>
<path fill="none" stroke="midnightblue" d="M363.67,-184.87C397.65,-173.42 457.76,-153.18 495.94,-140.32"/>
<polygon fill="midnightblue" stroke="midnightblue" points="497.25,-143.57 505.61,-137.06 495.02,-136.94 497.25,-143.57"/>
</g>
<!-- Node26&#45;&gt;Node25 -->
<g id="edge40" class="edge">
<title>Node26&#45;&gt;Node25</title>
<path fill="none" stroke="midnightblue" d="M413.43,-246.48C399.32,-236.93 376.21,-221.31 359.29,-209.87"/>
<polygon fill="midnightblue" stroke="midnightblue" points="360.87,-206.71 350.63,-204.01 356.95,-212.51 360.87,-206.71"/>
</g>
<!-- Node28 -->
<g id="node28" class="node">
<title>Node28</title>
<g id="a_node28"><a xlink:href="underlying__type_8hpp.html" target="_top" xlink:title="Definition of underlying_type trait class and related code.">
<polygon fill="white" stroke="black" points="50.54,-112.5 50.54,-142.5 189.54,-142.5 189.54,-112.5 50.54,-112.5"/>
<text text-anchor="start" x="58.54" y="-130.5" font-family="Helvetica,sans-Serif" font-size="10.00">playrho/detail/underlying</text>
<text text-anchor="middle" x="120.04" y="-119.5" font-family="Helvetica,sans-Serif" font-size="10.00">_type.hpp</text>
</a>
</g>
</g>
<!-- Node27&#45;&gt;Node28 -->
<g id="edge43" class="edge">
<title>Node27&#45;&gt;Node28</title>
<path fill="none" stroke="midnightblue" d="M120.04,-246.31C120.04,-227.3 120.04,-181.47 120.04,-152.9"/>
<polygon fill="midnightblue" stroke="midnightblue" points="123.54,-152.89 120.04,-142.89 116.54,-152.89 123.54,-152.89"/>
</g>
<!-- Node28&#45;&gt;Node6 -->
<g id="edge44" class="edge">
<title>Node28&#45;&gt;Node6</title>
<path fill="none" stroke="midnightblue" d="M132.03,-112.27C146.99,-95.61 174.26,-68.68 204.04,-56 270.62,-27.64 484.52,-16.24 578.29,-12.52"/>
<polygon fill="midnightblue" stroke="midnightblue" points="578.46,-16.02 588.31,-12.14 578.19,-9.02 578.46,-16.02"/>
</g>
<!-- Node29&#45;&gt;Node2 -->
<g id="edge49" class="edge">
<title>Node29&#45;&gt;Node2</title>
<path fill="none" stroke="midnightblue" d="M1072.14,-246.21C1083.35,-237.26 1101.1,-222.9 1116.04,-210 1131.51,-196.63 1132.95,-190.22 1150.04,-179 1182.63,-157.6 1200.36,-168.28 1230.04,-143 1268.39,-110.34 1296.47,-56.65 1309.3,-28.88"/>
<polygon fill="midnightblue" stroke="midnightblue" points="1312.56,-30.16 1313.45,-19.61 1306.17,-27.3 1312.56,-30.16"/>
</g>
<!-- Node29&#45;&gt;Node3 -->
<g id="edge51" class="edge">
<title>Node29&#45;&gt;Node3</title>
<path fill="none" stroke="midnightblue" d="M1114.86,-246.88C1159.63,-239.43 1224.75,-226.96 1280.04,-210 1282.19,-209.34 1284.38,-208.6 1286.58,-207.81"/>
<polygon fill="midnightblue" stroke="midnightblue" points="1287.97,-211.03 1296.03,-204.15 1285.44,-204.5 1287.97,-211.03"/>
</g>
<!-- Node29&#45;&gt;Node6 -->
<g id="edge55" class="edge">
<title>Node29&#45;&gt;Node6</title>
<path fill="none" stroke="midnightblue" d="M1056.43,-246.35C1042.64,-221.38 999.14,-148.6 942.04,-112 892.29,-80.11 870.48,-93.53 814.04,-76 758.31,-58.69 694.22,-36.38 656.25,-22.91"/>
<polygon fill="midnightblue" stroke="midnightblue" points="657.32,-19.58 646.73,-19.52 654.98,-26.17 657.32,-19.58"/>
</g>
<!-- Node29&#45;&gt;Node11 -->
<g id="edge53" class="edge">
<title>Node29&#45;&gt;Node11</title>
<path fill="none" stroke="midnightblue" d="M1049.86,-246.45C1038.13,-237.46 1019.2,-222.85 1003.04,-210 974.33,-187.17 941.43,-160.2 921.45,-143.72"/>
<polygon fill="midnightblue" stroke="midnightblue" points="923.42,-140.82 913.48,-137.15 918.97,-146.21 923.42,-140.82"/>
</g>
<!-- Node29&#45;&gt;Node15 -->
<g id="edge56" class="edge">
<title>Node29&#45;&gt;Node15</title>
<path fill="none" stroke="midnightblue" d="M1061.73,-246.08C1063.17,-231.35 1067.39,-201.37 1079.04,-179 1085.91,-165.82 1096.98,-153.33 1106.43,-144.07"/>
<polygon fill="midnightblue" stroke="midnightblue" points="1108.95,-146.5 1113.85,-137.1 1104.16,-141.39 1108.95,-146.5"/>
</g>
<!-- Node29&#45;&gt;Node18 -->
<g id="edge58" class="edge">
<title>Node29&#45;&gt;Node18</title>
<path fill="none" stroke="midnightblue" d="M1007.53,-252.62C939.25,-248.54 818.01,-237.75 718.04,-210 657.22,-193.12 590.44,-160.24 555.48,-141.82"/>
<polygon fill="midnightblue" stroke="midnightblue" points="556.97,-138.64 546.5,-137.03 553.68,-144.82 556.97,-138.64"/>
</g>
<!-- Node29&#45;&gt;Node21 -->
<g id="edge52" class="edge">
<title>Node29&#45;&gt;Node21</title>
<path fill="none" stroke="midnightblue" d="M1065.34,-246.2C1073.4,-230.57 1092.23,-197.82 1117.04,-179 1153.01,-151.71 1186.39,-180.16 1212.04,-143 1236.54,-107.52 1210.51,-55.1 1193.8,-28.24"/>
<polygon fill="midnightblue" stroke="midnightblue" points="1196.56,-26.06 1188.17,-19.58 1190.69,-29.87 1196.56,-26.06"/>
</g>
<!-- Node29&#45;&gt;Node25 -->
<g id="edge57" class="edge">
<title>Node29&#45;&gt;Node25</title>
<path fill="none" stroke="midnightblue" d="M1007.33,-252.6C870.89,-246.3 513.49,-228.5 396.04,-210 390.13,-209.07 383.94,-207.82 377.89,-206.45"/>
<polygon fill="midnightblue" stroke="midnightblue" points="378.48,-202.99 367.94,-204.05 376.84,-209.79 378.48,-202.99"/>
</g>
<!-- Node30 -->
<g id="node30" class="node">
<title>Node30</title>
<g id="a_node30"><a xlink:title=" ">
<polygon fill="white" stroke="#bfbfbf" points="1159.04,-185 1159.04,-204 1211.04,-204 1211.04,-185 1159.04,-185"/>
<text text-anchor="middle" x="1185.04" y="-192" font-family="Helvetica,sans-Serif" font-size="10.00">cassert</text>
</a>
</g>
</g>
<!-- Node29&#45;&gt;Node30 -->
<g id="edge50" class="edge">
<title>Node29&#45;&gt;Node30</title>
<path fill="none" stroke="midnightblue" d="M1078.81,-246.48C1099.52,-236.53 1133.99,-219.99 1158.03,-208.46"/>
<polygon fill="midnightblue" stroke="midnightblue" points="1159.81,-211.49 1167.31,-204.01 1156.78,-205.18 1159.81,-211.49"/>
</g>
<!-- Node31 -->
<g id="node31" class="node">
<title>Node31</title>
<g id="a_node31"><a xlink:title=" ">
<polygon fill="white" stroke="#bfbfbf" points="1229.54,-185 1229.54,-204 1270.54,-204 1270.54,-185 1229.54,-185"/>
<text text-anchor="middle" x="1250.04" y="-192" font-family="Helvetica,sans-Serif" font-size="10.00">tuple</text>
</a>
</g>
</g>
<!-- Node29&#45;&gt;Node31 -->
<g id="edge54" class="edge">
<title>Node29&#45;&gt;Node31</title>
<path fill="none" stroke="midnightblue" d="M1097.94,-246.5C1130.55,-238.53 1179.14,-225.54 1220.04,-210 1221.46,-209.46 1222.9,-208.88 1224.35,-208.27"/>
<polygon fill="midnightblue" stroke="midnightblue" points="1226.1,-211.32 1233.76,-204 1223.21,-204.95 1226.1,-211.32"/>
</g>
</g>
</svg>
        <g id="navigator" transform="translate(0 0)" fill="#404254">
                <rect fill="#f2f5e9" fill-opacity="0.5" stroke="#606060" stroke-width=".5" x="0" y="0" width="60" height="60"/>
                <use id="zoomplus" xlink:href="#zoomPlus" x="17" y="9" onmousedown="handleZoom(evt,'in')"/>
                <use id="zoomminus" xlink:href="#zoomMin" x="42" y="9" onmousedown="handleZoom(evt,'out')"/>
                <use id="reset" xlink:href="#resetDef" x="30" y="36" onmousedown="handleReset()"/>
                <g id="arrowUp" xlink:href="#dirArrow" transform="translate(30 24)" onmousedown="handlePan(0,-1)">
                  <use xlink:href="#rim" fill="#404040">
                        <set attributeName="fill" to="#808080" begin="arrowUp.mouseover" end="arrowUp.mouseout"/>
                  </use>
                  <path fill="none" stroke="white" stroke-width="1.5" d="M0,-3.0v7 M-2.5,-0.5L0,-3.0L2.5,-0.5"/>
                </g>
                <g id="arrowRight" xlink:href="#dirArrow" transform="rotate(90) translate(36 -43)" onmousedown="handlePan(1,0)">
                  <use xlink:href="#rim" fill="#404040">
                        <set attributeName="fill" to="#808080" begin="arrowRight.mouseover" end="arrowRight.mouseout"/>
                  </use>
                  <path fill="none" stroke="white" stroke-width="1.5" d="M0,-3.0v7 M-2.5,-0.5L0,-3.0L2.5,-0.5"/>
                </g>
                <g id="arrowDown" xlink:href="#dirArrow" transform="rotate(180) translate(-30 -48)" onmousedown="handlePan(0,1)">
                  <use xlink:href="#rim" fill="#404040">
                        <set attributeName="fill" to="#808080" begin="arrowDown.mouseover" end="arrowDown.mouseout"/>
                  </use>
                  <path fill="none" stroke="white" stroke-width="1.5" d="M0,-3.0v7 M-2.5,-0.5L0,-3.0L2.5,-0.5"/>
                </g>
                <g id="arrowLeft" xlink:href="#dirArrow" transform="rotate(270) translate(-36 17)" onmousedown="handlePan(-1,0)">
                  <use xlink:href="#rim" fill="#404040">
                        <set attributeName="fill" to="#808080" begin="arrowLeft.mouseover" end="arrowLeft.mouseout"/>
                  </use>
                  <path fill="none" stroke="white" stroke-width="1.5" d="M0,-3.0v7 M-2.5,-0.5L0,-3.0L2.5,-0.5"/>
                </g>
        </g>
        <svg viewBox="0 0 15 15" width="100%" height="30px" preserveAspectRatio="xMaxYMin meet">
         <g id="arrow_out" transform="scale(0.3 0.3)">
          <a xlink:href="detail_2AABB_8hpp__incl_org.svg" target="_base">
           <rect id="button" ry="5" rx="5" y="6" x="6" height="38" width="38"
                fill="#f2f5e9" fill-opacity="0.5" stroke="#606060" stroke-width="1.0"/>
           <path id="arrow"
             d="M 11.500037,31.436501 C 11.940474,20.09759 22.043105,11.32322 32.158766,21.979434 L 37.068811,17.246167 C 37.068811,17.246167 37.088388,32 37.088388,32 L 22.160133,31.978069 C 22.160133,31.978069 26.997745,27.140456 26.997745,27.140456 C 18.528582,18.264221 13.291696,25.230495 11.500037,31.436501 z"
             style="fill:#404040;"/>
          </a>
         </g>
        </svg>
</svg>
