<?xml version="1.0" encoding="UTF-8" standalone="no"?>
<!DOCTYPE svg PUBLIC "-//W3C//DTD SVG 1.1//EN"
 "http://www.w3.org/Graphics/SVG/1.1/DTD/svg11.dtd">
<!-- Generated by graphviz version 2.43.0 (0)
 -->
<!-- Title: Library/include/playrho/detail/TypeInfo.hpp Pages: 1 -->
<!--zoomable 575 -->
<svg id="main" version="1.1" xmlns="http://www.w3.org/2000/svg" xmlns:xlink="http://www.w3.org/1999/xlink" xml:space="preserve" onload="init(evt)">
<style type="text/css"><![CDATA[
.edge:hover path { stroke: red; }
.edge:hover polygon { stroke: red; fill: red; }
]]></style>
<script type="text/javascript"><![CDATA[
var edges = document.getElementsByTagName('g');
if (edges && edges.length) {
  for (var i=0;i<edges.length;i++) {
    if (edges[i].id.substr(0,4)=='edge') {
      edges[i].setAttribute('class','edge');
    }
  }
}
]]></script>
        <defs>
                <circle id="rim" cx="0" cy="0" r="7"/>
                <circle id="rim2" cx="0" cy="0" r="3.5"/>
                <g id="zoomPlus">
                        <use xlink:href="#rim" fill="#404040">
                                <set attributeName="fill" to="#808080" begin="zoomplus.mouseover" end="zoomplus.mouseout"/>
                        </use>
                        <path d="M-4,0h8M0,-4v8" fill="none" stroke="white" stroke-width="1.5" pointer-events="none"/>
                </g>
                <g id="zoomMin">
                        <use xlink:href="#rim" fill="#404040">
                                <set attributeName="fill" to="#808080" begin="zoomminus.mouseover" end="zoomminus.mouseout"/>
                        </use>
                        <path d="M-4,0h8" fill="none" stroke="white" stroke-width="1.5" pointer-events="none"/>
                </g>
                <g id="dirArrow">
                        <path fill="none" stroke="white" stroke-width="1.5" d="M0,-3.0v7 M-2.5,-0.5L0,-3.0L2.5,-0.5"/>
                </g>
               <g id="resetDef">
                       <use xlink:href="#rim2" fill="#404040">
                               <set attributeName="fill" to="#808080" begin="reset.mouseover" end="reset.mouseout"/>
                       </use>
               </g>
        </defs>

<script type="text/javascript">
var viewWidth = 1870;
var viewHeight = 575;
var sectionId = 'dynsection-1';
</script>
<script xlink:href="svgpan.js"/>
<svg id="graph" class="graph">
<g id="viewport">
<title>Library/include/playrho/detail/TypeInfo.hpp</title>
<polygon fill="white" stroke="transparent" points="-4,4 -4,-571 1866,-571 1866,4 -4,4"/>
<!-- Node1 -->
<g id="node1" class="node">
<title>Node1</title>
<g id="a_node1"><a xlink:title="Definition of TypeInfo class template and related code.">
<polygon fill="#bfbfbf" stroke="black" points="144.5,-536.5 144.5,-566.5 272.5,-566.5 272.5,-536.5 144.5,-536.5"/>
<text text-anchor="start" x="152.5" y="-554.5" font-family="Helvetica,sans-Serif" font-size="10.00">Library/include/playrho</text>
<text text-anchor="middle" x="208.5" y="-543.5" font-family="Helvetica,sans-Serif" font-size="10.00">/detail/TypeInfo.hpp</text>
</a>
</g>
</g>
<!-- Node2 -->
<g id="node2" class="node">
<title>Node2</title>
<g id="a_node2"><a xlink:href="EdgeShapeConf_8hpp.html" target="_top" xlink:title="Definition of the EdgeShapeConf class and closely related code.">
<polygon fill="white" stroke="black" points="0,-134.5 0,-164.5 131,-164.5 131,-134.5 0,-134.5"/>
<text text-anchor="start" x="8" y="-152.5" font-family="Helvetica,sans-Serif" font-size="10.00">Library/include/playrho</text>
<text text-anchor="middle" x="65.5" y="-141.5" font-family="Helvetica,sans-Serif" font-size="10.00">/d2/EdgeShapeConf.hpp</text>
</a>
</g>
</g>
<!-- Node1&#45;&gt;Node2 -->
<g id="edge1" class="edge">
<title>Node1&#45;&gt;Node2</title>
<path fill="none" stroke="midnightblue" d="M175.69,-530.84C142.64,-508.25 96.5,-467.88 96.5,-418.5 96.5,-418.5 96.5,-418.5 96.5,-282.5 96.5,-238.48 79.96,-188.34 71.04,-164.51"/>
<polygon fill="midnightblue" stroke="midnightblue" points="173.93,-533.86 184.2,-536.46 177.79,-528.02 173.93,-533.86"/>
</g>
<!-- Node4 -->
<g id="node4" class="node">
<title>Node4</title>
<g id="a_node4"><a xlink:href="PolygonShapeConf_8hpp.html" target="_top" xlink:title="Definition of the PolygonShapeConf class and closely related code.">
<polygon fill="white" stroke="black" points="89.5,-67.5 89.5,-97.5 235.5,-97.5 235.5,-67.5 89.5,-67.5"/>
<text text-anchor="start" x="97.5" y="-85.5" font-family="Helvetica,sans-Serif" font-size="10.00">Library/include/playrho</text>
<text text-anchor="middle" x="162.5" y="-74.5" font-family="Helvetica,sans-Serif" font-size="10.00">/d2/PolygonShapeConf.hpp</text>
</a>
</g>
</g>
<!-- Node1&#45;&gt;Node4 -->
<g id="edge3" class="edge">
<title>Node1&#45;&gt;Node4</title>
<path fill="none" stroke="midnightblue" d="M194.58,-527.53C189.91,-519.1 185.01,-509.33 181.5,-500 168.4,-465.19 162.5,-455.69 162.5,-418.5 162.5,-418.5 162.5,-418.5 162.5,-215.5 162.5,-172.65 162.5,-121.97 162.5,-97.76"/>
<polygon fill="midnightblue" stroke="midnightblue" points="191.65,-529.45 199.66,-536.39 197.72,-525.97 191.65,-529.45"/>
</g>
<!-- Node5 -->
<g id="node5" class="node">
<title>Node5</title>
<g id="a_node5"><a xlink:href="WheelJointConf_8hpp.html" target="_top" xlink:title="Definition of the WheelJointConf class and closely related code.">
<polygon fill="white" stroke="black" points="190.5,-469.5 190.5,-499.5 320.5,-499.5 320.5,-469.5 190.5,-469.5"/>
<text text-anchor="start" x="198.5" y="-487.5" font-family="Helvetica,sans-Serif" font-size="10.00">Library/include/playrho</text>
<text text-anchor="middle" x="255.5" y="-476.5" font-family="Helvetica,sans-Serif" font-size="10.00">/d2/WheelJointConf.hpp</text>
</a>
</g>
</g>
<!-- Node1&#45;&gt;Node5 -->
<g id="edge5" class="edge">
<title>Node1&#45;&gt;Node5</title>
<path fill="none" stroke="midnightblue" d="M224.66,-528.16C231.51,-518.68 239.29,-507.92 245.32,-499.58"/>
<polygon fill="midnightblue" stroke="midnightblue" points="221.72,-526.24 218.7,-536.4 227.39,-530.34 221.72,-526.24"/>
</g>
<!-- Node6 -->
<g id="node6" class="node">
<title>Node6</title>
<g id="a_node6"><a xlink:href="TypeInfo_8hpp.html" target="_top" xlink:title="Definition of TypeID class and closely related code.">
<polygon fill="white" stroke="black" points="989.5,-469.5 989.5,-499.5 1117.5,-499.5 1117.5,-469.5 989.5,-469.5"/>
<text text-anchor="start" x="997.5" y="-487.5" font-family="Helvetica,sans-Serif" font-size="10.00">Library/include/playrho</text>
<text text-anchor="middle" x="1053.5" y="-476.5" font-family="Helvetica,sans-Serif" font-size="10.00">/TypeInfo.hpp</text>
</a>
</g>
</g>
<!-- Node1&#45;&gt;Node6 -->
<g id="edge7" class="edge">
<title>Node1&#45;&gt;Node6</title>
<path fill="none" stroke="midnightblue" d="M282.68,-544.79C446.25,-532.21 835.58,-502.26 989.39,-490.43"/>
<polygon fill="midnightblue" stroke="midnightblue" points="282.41,-541.3 272.71,-545.56 282.94,-548.28 282.41,-541.3"/>
</g>
<!-- Node3 -->
<g id="node3" class="node">
<title>Node3</title>
<g id="a_node3"><a xlink:href="BasicAPI_8hpp.html" target="_top" xlink:title="Basic API include file to pull in at once most headers used.">
<polygon fill="white" stroke="black" points="973.5,-0.5 973.5,-30.5 1101.5,-30.5 1101.5,-0.5 973.5,-0.5"/>
<text text-anchor="start" x="981.5" y="-18.5" font-family="Helvetica,sans-Serif" font-size="10.00">Library/include/playrho</text>
<text text-anchor="middle" x="1037.5" y="-7.5" font-family="Helvetica,sans-Serif" font-size="10.00">/d2/BasicAPI.hpp</text>
</a>
</g>
</g>
<!-- Node2&#45;&gt;Node3 -->
<g id="edge2" class="edge">
<title>Node2&#45;&gt;Node3</title>
<path fill="none" stroke="midnightblue" d="M62.7,-124.39C62.02,-105.8 64.6,-80.97 80.5,-67 114.04,-37.54 764,-21.98 973.21,-17.72"/>
<polygon fill="midnightblue" stroke="midnightblue" points="59.22,-124.76 63.41,-134.49 66.2,-124.27 59.22,-124.76"/>
</g>
<!-- Node4&#45;&gt;Node3 -->
<g id="edge4" class="edge">
<title>Node4&#45;&gt;Node3</title>
<path fill="none" stroke="midnightblue" d="M245.62,-67.46C246.92,-67.3 248.22,-67.15 249.5,-67 517.45,-36.17 838.98,-22.9 973.47,-18.41"/>
<polygon fill="midnightblue" stroke="midnightblue" points="244.99,-64.01 235.53,-68.78 245.89,-70.95 244.99,-64.01"/>
</g>
<!-- Node5&#45;&gt;Node3 -->
<g id="edge6" class="edge">
<title>Node5&#45;&gt;Node3</title>
<path fill="none" stroke="midnightblue" d="M255.5,-458.99C255.5,-432.49 255.5,-389 255.5,-351.5 255.5,-351.5 255.5,-351.5 255.5,-215.5 255.5,-117.5 326.21,-99.95 418.5,-67 519.35,-30.99 836.33,-20.46 973.36,-17.55"/>
<polygon fill="midnightblue" stroke="midnightblue" points="252,-459.24 255.5,-469.24 259,-459.24 252,-459.24"/>
</g>
<!-- Node7 -->
<g id="node7" class="node">
<title>Node7</title>
<g id="a_node7"><a xlink:href="ChainShapeConf_8hpp.html" target="_top" xlink:title="Definition of the ChainShapeConf class and closely related code.">
<polygon fill="white" stroke="black" points="1727,-335.5 1727,-365.5 1862,-365.5 1862,-335.5 1727,-335.5"/>
<text text-anchor="start" x="1735" y="-353.5" font-family="Helvetica,sans-Serif" font-size="10.00">Library/include/playrho</text>
<text text-anchor="middle" x="1794.5" y="-342.5" font-family="Helvetica,sans-Serif" font-size="10.00">/d2/ChainShapeConf.hpp</text>
</a>
</g>
</g>
<!-- Node6&#45;&gt;Node7 -->
<g id="edge8" class="edge">
<title>Node6&#45;&gt;Node7</title>
<path fill="none" stroke="midnightblue" d="M1127.83,-484.1C1307.93,-484.77 1756.16,-481.5 1801.5,-433 1818.37,-414.95 1809.08,-383.78 1801.39,-365.67"/>
<polygon fill="midnightblue" stroke="midnightblue" points="1127.67,-480.6 1117.65,-484.05 1127.64,-487.6 1127.67,-480.6"/>
</g>
<!-- Node8 -->
<g id="node8" class="node">
<title>Node8</title>
<g id="a_node8"><a xlink:href="JointConcept_8hpp.html" target="_top" xlink:title="Definition of the internal JointConcept interface class.">
<polygon fill="white" stroke="black" points="644.5,-402.5 644.5,-432.5 792.5,-432.5 792.5,-402.5 644.5,-402.5"/>
<text text-anchor="start" x="652.5" y="-420.5" font-family="Helvetica,sans-Serif" font-size="10.00">Library/include/playrho</text>
<text text-anchor="middle" x="718.5" y="-409.5" font-family="Helvetica,sans-Serif" font-size="10.00">/d2/detail/JointConcept.hpp</text>
</a>
</g>
</g>
<!-- Node6&#45;&gt;Node8 -->
<g id="edge10" class="edge">
<title>Node6&#45;&gt;Node8</title>
<path fill="none" stroke="midnightblue" d="M979.43,-469.13C923.31,-458.24 846.62,-443.36 790.91,-432.55"/>
<polygon fill="midnightblue" stroke="midnightblue" points="978.82,-472.58 989.31,-471.04 980.15,-465.7 978.82,-472.58"/>
</g>
<!-- Node10 -->
<g id="node10" class="node">
<title>Node10</title>
<g id="a_node10"><a xlink:href="Joint_8hpp.html" target="_top" xlink:title="Definition of the Joint class and closely related code.">
<polygon fill="white" stroke="black" points="570.5,-268.5 570.5,-298.5 698.5,-298.5 698.5,-268.5 570.5,-268.5"/>
<text text-anchor="start" x="578.5" y="-286.5" font-family="Helvetica,sans-Serif" font-size="10.00">Library/include/playrho</text>
<text text-anchor="middle" x="634.5" y="-275.5" font-family="Helvetica,sans-Serif" font-size="10.00">/d2/Joint.hpp</text>
</a>
</g>
</g>
<!-- Node6&#45;&gt;Node10 -->
<g id="edge39" class="edge">
<title>Node6&#45;&gt;Node10</title>
<path fill="none" stroke="midnightblue" d="M979.18,-479.62C865.37,-472.93 658.6,-457.54 635.5,-433 600.69,-396.01 618.86,-328.01 629.09,-298.63"/>
<polygon fill="midnightblue" stroke="midnightblue" points="979.04,-483.12 989.22,-480.2 979.44,-476.13 979.04,-483.12"/>
</g>
<!-- Node12 -->
<g id="node12" class="node">
<title>Node12</title>
<g id="a_node12"><a xlink:href="WorldConcept_8hpp.html" target="_top" xlink:title="Definition of the internal WorldConcept interface class.">
<polygon fill="white" stroke="black" points="321.5,-201.5 321.5,-231.5 475.5,-231.5 475.5,-201.5 321.5,-201.5"/>
<text text-anchor="start" x="329.5" y="-219.5" font-family="Helvetica,sans-Serif" font-size="10.00">Library/include/playrho</text>
<text text-anchor="middle" x="398.5" y="-208.5" font-family="Helvetica,sans-Serif" font-size="10.00">/d2/detail/WorldConcept.hpp</text>
</a>
</g>
</g>
<!-- Node6&#45;&gt;Node12 -->
<g id="edge30" class="edge">
<title>Node6&#45;&gt;Node12</title>
<path fill="none" stroke="midnightblue" d="M978.92,-481.96C870.48,-478.55 675.66,-467.65 615.5,-433 536.24,-387.35 561.77,-327.73 492.5,-268 474.82,-252.76 451.78,-240.28 432.93,-231.55"/>
<polygon fill="midnightblue" stroke="midnightblue" points="979.04,-485.47 989.14,-482.27 979.25,-478.47 979.04,-485.47"/>
</g>
<!-- Node14 -->
<g id="node14" class="node">
<title>Node14</title>
<g id="a_node14"><a xlink:href="World_8hpp.html" target="_top" xlink:title="Definitions of the World class and closely related code.">
<polygon fill="white" stroke="black" points="427.5,-67.5 427.5,-97.5 555.5,-97.5 555.5,-67.5 427.5,-67.5"/>
<text text-anchor="start" x="435.5" y="-85.5" font-family="Helvetica,sans-Serif" font-size="10.00">Library/include/playrho</text>
<text text-anchor="middle" x="491.5" y="-74.5" font-family="Helvetica,sans-Serif" font-size="10.00">/d2/World.hpp</text>
</a>
</g>
</g>
<!-- Node6&#45;&gt;Node14 -->
<g id="edge57" class="edge">
<title>Node6&#45;&gt;Node14</title>
<path fill="none" stroke="midnightblue" d="M979.1,-474.02C944.66,-466.91 904.59,-454.52 873.5,-433 829.06,-402.24 840.58,-372.34 801.5,-335 780.64,-315.07 764.1,-322.59 747.5,-299 704.02,-237.2 760.27,-187.09 706.5,-134 685.35,-113.12 611,-99.01 555.62,-91.13"/>
<polygon fill="midnightblue" stroke="midnightblue" points="978.64,-477.5 989.12,-475.98 979.98,-470.63 978.64,-477.5"/>
</g>
<!-- Node16 -->
<g id="node16" class="node">
<title>Node16</title>
<g id="a_node16"><a xlink:href="ShapeConcept_8hpp.html" target="_top" xlink:title="Definition of the internal ShapeConcept interface class.">
<polygon fill="white" stroke="black" points="320.5,-402.5 320.5,-432.5 476.5,-432.5 476.5,-402.5 320.5,-402.5"/>
<text text-anchor="start" x="328.5" y="-420.5" font-family="Helvetica,sans-Serif" font-size="10.00">Library/include/playrho</text>
<text text-anchor="middle" x="398.5" y="-409.5" font-family="Helvetica,sans-Serif" font-size="10.00">/d2/detail/ShapeConcept.hpp</text>
</a>
</g>
</g>
<!-- Node6&#45;&gt;Node16 -->
<g id="edge23" class="edge">
<title>Node6&#45;&gt;Node16</title>
<path fill="none" stroke="midnightblue" d="M979.05,-478.41C871.13,-470.68 665.05,-454.56 490.5,-433 486.01,-432.45 481.4,-431.84 476.75,-431.2"/>
<polygon fill="midnightblue" stroke="midnightblue" points="978.96,-481.92 989.18,-479.14 979.46,-474.93 978.96,-481.92"/>
</g>
<!-- Node18 -->
<g id="node18" class="node">
<title>Node18</title>
<g id="a_node18"><a xlink:href="Shape_8hpp.html" target="_top" xlink:title="Definition of the Shape class and closely related code.">
<polygon fill="white" stroke="black" points="355.5,-268.5 355.5,-298.5 483.5,-298.5 483.5,-268.5 355.5,-268.5"/>
<text text-anchor="start" x="363.5" y="-286.5" font-family="Helvetica,sans-Serif" font-size="10.00">Library/include/playrho</text>
<text text-anchor="middle" x="419.5" y="-275.5" font-family="Helvetica,sans-Serif" font-size="10.00">/d2/Shape.hpp</text>
</a>
</g>
</g>
<!-- Node6&#45;&gt;Node18 -->
<g id="edge52" class="edge">
<title>Node6&#45;&gt;Node18</title>
<path fill="none" stroke="midnightblue" d="M978.8,-483.71C852.59,-482.86 603.51,-475.63 528.5,-433 524.9,-430.96 455.86,-335.12 429.56,-298.51"/>
<polygon fill="midnightblue" stroke="midnightblue" points="979.13,-487.21 989.15,-483.77 979.17,-480.21 979.13,-487.21"/>
</g>
<!-- Node19 -->
<g id="node19" class="node">
<title>Node19</title>
<g id="a_node19"><a xlink:href="DiskShapeConf_8hpp.html" target="_top" xlink:title="Definition of the DiskShapeConf class and closely related code.">
<polygon fill="white" stroke="black" points="757,-268.5 757,-298.5 886,-298.5 886,-268.5 757,-268.5"/>
<text text-anchor="start" x="765" y="-286.5" font-family="Helvetica,sans-Serif" font-size="10.00">Library/include/playrho</text>
<text text-anchor="middle" x="821.5" y="-275.5" font-family="Helvetica,sans-Serif" font-size="10.00">/d2/DiskShapeConf.hpp</text>
</a>
</g>
</g>
<!-- Node6&#45;&gt;Node19 -->
<g id="edge31" class="edge">
<title>Node6&#45;&gt;Node19</title>
<path fill="none" stroke="midnightblue" d="M979.3,-470.15C953.19,-462.62 925.01,-450.95 903.5,-433 858.96,-395.82 834.41,-327.93 825.46,-298.6"/>
<polygon fill="midnightblue" stroke="midnightblue" points="978.62,-473.6 989.19,-472.84 980.46,-466.84 978.62,-473.6"/>
</g>
<!-- Node20 -->
<g id="node20" class="node">
<title>Node20</title>
<g id="a_node20"><a xlink:href="DistanceJointConf_8hpp.html" target="_top" xlink:title="Definition of the DistanceJointConf class and closely related code.">
<polygon fill="white" stroke="black" points="791.5,-134.5 791.5,-164.5 933.5,-164.5 933.5,-134.5 791.5,-134.5"/>
<text text-anchor="start" x="799.5" y="-152.5" font-family="Helvetica,sans-Serif" font-size="10.00">Library/include/playrho</text>
<text text-anchor="middle" x="862.5" y="-141.5" font-family="Helvetica,sans-Serif" font-size="10.00">/d2/DistanceJointConf.hpp</text>
</a>
</g>
</g>
<!-- Node6&#45;&gt;Node20 -->
<g id="edge33" class="edge">
<title>Node6&#45;&gt;Node20</title>
<path fill="none" stroke="midnightblue" d="M995.44,-465.45C978.16,-457.74 960.42,-447.17 947.5,-433 921.49,-404.48 917.5,-390.1 917.5,-351.5 917.5,-351.5 917.5,-351.5 917.5,-282.5 917.5,-236.57 888.78,-188.09 872.85,-164.73"/>
<polygon fill="midnightblue" stroke="midnightblue" points="994.37,-468.8 1004.95,-469.45 997.08,-462.35 994.37,-468.8"/>
</g>
<!-- Node21 -->
<g id="node21" class="node">
<title>Node21</title>
<g id="a_node21"><a xlink:href="FrictionJointConf_8hpp.html" target="_top" xlink:title="Definition of the FrictionJointConf class and closely related code.">
<polygon fill="white" stroke="black" points="836,-67.5 836,-97.5 971,-97.5 971,-67.5 836,-67.5"/>
<text text-anchor="start" x="844" y="-85.5" font-family="Helvetica,sans-Serif" font-size="10.00">Library/include/playrho</text>
<text text-anchor="middle" x="903.5" y="-74.5" font-family="Helvetica,sans-Serif" font-size="10.00">/d2/FrictionJointConf.hpp</text>
</a>
</g>
</g>
<!-- Node6&#45;&gt;Node21 -->
<g id="edge35" class="edge">
<title>Node6&#45;&gt;Node21</title>
<path fill="none" stroke="midnightblue" d="M1026.76,-462.68C999.6,-438.97 961.5,-397.52 961.5,-351.5 961.5,-351.5 961.5,-351.5 961.5,-215.5 961.5,-178.31 958.45,-167.6 942.5,-134 936.13,-120.59 925.75,-107.38 917.29,-97.84"/>
<polygon fill="midnightblue" stroke="midnightblue" points="1024.54,-465.39 1034.44,-469.17 1029.06,-460.04 1024.54,-465.39"/>
</g>
<!-- Node22 -->
<g id="node22" class="node">
<title>Node22</title>
<g id="a_node22"><a xlink:href="GearJointConf_8hpp.html" target="_top" xlink:title="Definition of the GearJointConf class and closely related code.">
<polygon fill="white" stroke="black" points="989.5,-335.5 989.5,-365.5 1117.5,-365.5 1117.5,-335.5 989.5,-335.5"/>
<text text-anchor="start" x="997.5" y="-353.5" font-family="Helvetica,sans-Serif" font-size="10.00">Library/include/playrho</text>
<text text-anchor="middle" x="1053.5" y="-342.5" font-family="Helvetica,sans-Serif" font-size="10.00">/d2/GearJointConf.hpp</text>
</a>
</g>
</g>
<!-- Node6&#45;&gt;Node22 -->
<g id="edge37" class="edge">
<title>Node6&#45;&gt;Node22</title>
<path fill="none" stroke="midnightblue" d="M1053.5,-459.02C1053.5,-431.51 1053.5,-387.79 1053.5,-365.52"/>
<polygon fill="midnightblue" stroke="midnightblue" points="1050,-459.37 1053.5,-469.37 1057,-459.37 1050,-459.37"/>
</g>
<!-- Node23 -->
<g id="node23" class="node">
<title>Node23</title>
<g id="a_node23"><a xlink:href="MotorJointConf_8hpp.html" target="_top" xlink:title="Definition of the MotorJointConf class and closely related code.">
<polygon fill="white" stroke="black" points="1027.5,-268.5 1027.5,-298.5 1155.5,-298.5 1155.5,-268.5 1027.5,-268.5"/>
<text text-anchor="start" x="1035.5" y="-286.5" font-family="Helvetica,sans-Serif" font-size="10.00">Library/include/playrho</text>
<text text-anchor="middle" x="1091.5" y="-275.5" font-family="Helvetica,sans-Serif" font-size="10.00">/d2/MotorJointConf.hpp</text>
</a>
</g>
</g>
<!-- Node6&#45;&gt;Node23 -->
<g id="edge40" class="edge">
<title>Node6&#45;&gt;Node23</title>
<path fill="none" stroke="midnightblue" d="M1072.58,-461.37C1090.49,-439.03 1116.04,-402.66 1126.5,-366 1130.28,-352.75 1130.61,-348.15 1126.5,-335 1122.23,-321.36 1112.84,-308.16 1104.86,-298.68"/>
<polygon fill="midnightblue" stroke="midnightblue" points="1069.78,-459.27 1066.14,-469.22 1075.19,-463.71 1069.78,-459.27"/>
</g>
<!-- Node24 -->
<g id="node24" class="node">
<title>Node24</title>
<g id="a_node24"><a xlink:href="MultiShapeConf_8hpp.html" target="_top" xlink:title="Definition of the MultiShapeConf class and closely related code.">
<polygon fill="white" stroke="black" points="1065.5,-201.5 1065.5,-231.5 1197.5,-231.5 1197.5,-201.5 1065.5,-201.5"/>
<text text-anchor="start" x="1073.5" y="-219.5" font-family="Helvetica,sans-Serif" font-size="10.00">Library/include/playrho</text>
<text text-anchor="middle" x="1131.5" y="-208.5" font-family="Helvetica,sans-Serif" font-size="10.00">/d2/MultiShapeConf.hpp</text>
</a>
</g>
</g>
<!-- Node6&#45;&gt;Node24 -->
<g id="edge42" class="edge">
<title>Node6&#45;&gt;Node24</title>
<path fill="none" stroke="midnightblue" d="M1085.03,-463.37C1096.14,-455.05 1107.98,-444.62 1116.5,-433 1153.9,-381.98 1154.51,-361.47 1164.5,-299 1166.68,-285.4 1168.43,-281.2 1164.5,-268 1160.49,-254.55 1151.64,-241.34 1144.11,-231.81"/>
<polygon fill="midnightblue" stroke="midnightblue" points="1082.83,-460.65 1076.74,-469.31 1086.9,-466.34 1082.83,-460.65"/>
</g>
<!-- Node25 -->
<g id="node25" class="node">
<title>Node25</title>
<g id="a_node25"><a xlink:href="PrismaticJointConf_8hpp.html" target="_top" xlink:title="Definition of the PrismaticJointConf class and closely related code.">
<polygon fill="white" stroke="black" points="1104,-134.5 1104,-164.5 1249,-164.5 1249,-134.5 1104,-134.5"/>
<text text-anchor="start" x="1112" y="-152.5" font-family="Helvetica,sans-Serif" font-size="10.00">Library/include/playrho</text>
<text text-anchor="middle" x="1176.5" y="-141.5" font-family="Helvetica,sans-Serif" font-size="10.00">/d2/PrismaticJointConf.hpp</text>
</a>
</g>
</g>
<!-- Node6&#45;&gt;Node25 -->
<g id="edge44" class="edge">
<title>Node6&#45;&gt;Node25</title>
<path fill="none" stroke="midnightblue" d="M1097.57,-464.8C1112.66,-456.74 1128.7,-446.11 1140.5,-433 1162.33,-408.75 1159.57,-396.74 1170.5,-366 1195.65,-295.28 1226.38,-273.38 1206.5,-201 1202.83,-187.63 1194.59,-174.21 1187.67,-164.57"/>
<polygon fill="midnightblue" stroke="midnightblue" points="1095.67,-461.84 1088.34,-469.49 1098.84,-468.08 1095.67,-461.84"/>
</g>
<!-- Node26 -->
<g id="node26" class="node">
<title>Node26</title>
<g id="a_node26"><a xlink:href="PulleyJointConf_8hpp.html" target="_top" xlink:title="Definition of the PulleyJointConf class and closely related code.">
<polygon fill="white" stroke="black" points="1154,-67.5 1154,-97.5 1283,-97.5 1283,-67.5 1154,-67.5"/>
<text text-anchor="start" x="1162" y="-85.5" font-family="Helvetica,sans-Serif" font-size="10.00">Library/include/playrho</text>
<text text-anchor="middle" x="1218.5" y="-74.5" font-family="Helvetica,sans-Serif" font-size="10.00">/d2/PulleyJointConf.hpp</text>
</a>
</g>
</g>
<!-- Node6&#45;&gt;Node26 -->
<g id="edge46" class="edge">
<title>Node6&#45;&gt;Node26</title>
<path fill="none" stroke="midnightblue" d="M1113.95,-465.67C1132.02,-457.97 1150.68,-447.35 1164.5,-433 1251.96,-342.19 1240.14,-289.88 1257.5,-165 1259.4,-151.35 1261.95,-147.04 1257.5,-134 1252.78,-120.16 1242.56,-107.17 1233.76,-97.83"/>
<polygon fill="midnightblue" stroke="midnightblue" points="1112.56,-462.46 1104.58,-469.43 1115.17,-468.95 1112.56,-462.46"/>
</g>
<!-- Node27 -->
<g id="node27" class="node">
<title>Node27</title>
<g id="a_node27"><a xlink:href="RevoluteJointConf_8hpp.html" target="_top" xlink:title="Definition of the RevoluteJointConf class and closely related code.">
<polygon fill="white" stroke="black" points="1288,-335.5 1288,-365.5 1431,-365.5 1431,-335.5 1288,-335.5"/>
<text text-anchor="start" x="1296" y="-353.5" font-family="Helvetica,sans-Serif" font-size="10.00">Library/include/playrho</text>
<text text-anchor="middle" x="1359.5" y="-342.5" font-family="Helvetica,sans-Serif" font-size="10.00">/d2/RevoluteJointConf.hpp</text>
</a>
</g>
</g>
<!-- Node6&#45;&gt;Node27 -->
<g id="edge48" class="edge">
<title>Node6&#45;&gt;Node27</title>
<path fill="none" stroke="midnightblue" d="M1127.94,-476.39C1172.27,-469.78 1228.48,-457.13 1273.5,-433 1305.23,-415.99 1333.76,-384.15 1348.65,-365.71"/>
<polygon fill="midnightblue" stroke="midnightblue" points="1127.21,-472.95 1117.8,-477.82 1128.2,-479.89 1127.21,-472.95"/>
</g>
<!-- Node28 -->
<g id="node28" class="node">
<title>Node28</title>
<g id="a_node28"><a xlink:href="RopeJointConf_8hpp.html" target="_top" xlink:title="Definition of the RopeJointConf class and closely related code.">
<polygon fill="white" stroke="black" points="1342.5,-268.5 1342.5,-298.5 1470.5,-298.5 1470.5,-268.5 1342.5,-268.5"/>
<text text-anchor="start" x="1350.5" y="-286.5" font-family="Helvetica,sans-Serif" font-size="10.00">Library/include/playrho</text>
<text text-anchor="middle" x="1406.5" y="-275.5" font-family="Helvetica,sans-Serif" font-size="10.00">/d2/RopeJointConf.hpp</text>
</a>
</g>
</g>
<!-- Node6&#45;&gt;Node28 -->
<g id="edge50" class="edge">
<title>Node6&#45;&gt;Node28</title>
<path fill="none" stroke="midnightblue" d="M1127.9,-472.6C1230.55,-455.73 1406.73,-419.56 1439.5,-366 1452.96,-343.99 1434.27,-315.52 1420.01,-298.72"/>
<polygon fill="midnightblue" stroke="midnightblue" points="1127.2,-469.16 1117.89,-474.22 1128.32,-476.07 1127.2,-469.16"/>
</g>
<!-- Node29 -->
<g id="node29" class="node">
<title>Node29</title>
<g id="a_node29"><a xlink:href="TargetJointConf_8hpp.html" target="_top" xlink:title="Definition of the TargetJointConf class and closely related code.">
<polygon fill="white" stroke="black" points="1407,-201.5 1407,-231.5 1536,-231.5 1536,-201.5 1407,-201.5"/>
<text text-anchor="start" x="1415" y="-219.5" font-family="Helvetica,sans-Serif" font-size="10.00">Library/include/playrho</text>
<text text-anchor="middle" x="1471.5" y="-208.5" font-family="Helvetica,sans-Serif" font-size="10.00">/d2/TargetJointConf.hpp</text>
</a>
</g>
</g>
<!-- Node6&#45;&gt;Node29 -->
<g id="edge53" class="edge">
<title>Node6&#45;&gt;Node29</title>
<path fill="none" stroke="midnightblue" d="M1127.87,-481.59C1193.32,-477.6 1289.98,-465.99 1367.5,-433 1413.06,-413.61 1427.41,-406.06 1456.5,-366 1482.79,-329.8 1483.01,-312.6 1479.5,-268 1478.52,-255.61 1476.22,-241.67 1474.34,-231.58"/>
<polygon fill="midnightblue" stroke="midnightblue" points="1127.43,-478.11 1117.64,-482.16 1127.82,-485.1 1127.43,-478.11"/>
</g>
<!-- Node30 -->
<g id="node30" class="node">
<title>Node30</title>
<g id="a_node30"><a xlink:href="WeldJointConf_8hpp.html" target="_top" xlink:title="Definition of the WeldJointConf class and closely related code.">
<polygon fill="white" stroke="black" points="1518.5,-402.5 1518.5,-432.5 1646.5,-432.5 1646.5,-402.5 1518.5,-402.5"/>
<text text-anchor="start" x="1526.5" y="-420.5" font-family="Helvetica,sans-Serif" font-size="10.00">Library/include/playrho</text>
<text text-anchor="middle" x="1582.5" y="-409.5" font-family="Helvetica,sans-Serif" font-size="10.00">/d2/WeldJointConf.hpp</text>
</a>
</g>
</g>
<!-- Node6&#45;&gt;Node30 -->
<g id="edge55" class="edge">
<title>Node6&#45;&gt;Node30</title>
<path fill="none" stroke="midnightblue" d="M1127.6,-476.86C1217.14,-468.45 1372.24,-452.67 1504.5,-433 1509,-432.33 1513.63,-431.59 1518.29,-430.82"/>
<polygon fill="midnightblue" stroke="midnightblue" points="1127.18,-473.38 1117.55,-477.8 1127.83,-480.35 1127.18,-473.38"/>
</g>
<!-- Node31 -->
<g id="node31" class="node">
<title>Node31</title>
<g id="a_node31"><a xlink:href="WorldShape_8hpp.html" target="_top" xlink:title="Declarations of free functions of World for shapes identified by ShapeID.">
<polygon fill="white" stroke="black" points="1664.5,-402.5 1664.5,-432.5 1792.5,-432.5 1792.5,-402.5 1664.5,-402.5"/>
<text text-anchor="start" x="1672.5" y="-420.5" font-family="Helvetica,sans-Serif" font-size="10.00">Library/include/playrho</text>
<text text-anchor="middle" x="1728.5" y="-409.5" font-family="Helvetica,sans-Serif" font-size="10.00">/d2/WorldShape.hpp</text>
</a>
</g>
</g>
<!-- Node6&#45;&gt;Node31 -->
<g id="edge58" class="edge">
<title>Node6&#45;&gt;Node31</title>
<path fill="none" stroke="midnightblue" d="M1127.93,-479.95C1241.94,-473.91 1466.47,-459.62 1655.5,-433 1658.44,-432.59 1661.45,-432.13 1664.48,-431.64"/>
<polygon fill="midnightblue" stroke="midnightblue" points="1127.72,-476.46 1117.91,-480.48 1128.08,-483.45 1127.72,-476.46"/>
</g>
<!-- Node7&#45;&gt;Node3 -->
<g id="edge9" class="edge">
<title>Node7&#45;&gt;Node3</title>
<path fill="none" stroke="midnightblue" d="M1784.23,-325.77C1773.9,-299.73 1759.5,-256.43 1759.5,-217.5 1759.5,-217.5 1759.5,-217.5 1759.5,-148.5 1759.5,-98.05 1726.15,-88.47 1680.5,-67 1579.11,-19.31 1243.29,-15.32 1101.53,-15.85"/>
<polygon fill="midnightblue" stroke="midnightblue" points="1781.05,-327.25 1788.08,-335.18 1787.53,-324.6 1781.05,-327.25"/>
</g>
<!-- Node9 -->
<g id="node9" class="node">
<title>Node9</title>
<g id="a_node9"><a xlink:href="JointModel_8hpp.html" target="_top" xlink:title="Definition of the internal JointModel class.">
<polygon fill="white" stroke="black" points="654.5,-335.5 654.5,-365.5 792.5,-365.5 792.5,-335.5 654.5,-335.5"/>
<text text-anchor="start" x="662.5" y="-353.5" font-family="Helvetica,sans-Serif" font-size="10.00">Library/include/playrho</text>
<text text-anchor="middle" x="723.5" y="-342.5" font-family="Helvetica,sans-Serif" font-size="10.00">/d2/detail/JointModel.hpp</text>
</a>
</g>
</g>
<!-- Node8&#45;&gt;Node9 -->
<g id="edge11" class="edge">
<title>Node8&#45;&gt;Node9</title>
<path fill="none" stroke="midnightblue" d="M720.35,-392.4C721.05,-383.37 721.81,-373.41 722.42,-365.58"/>
<polygon fill="midnightblue" stroke="midnightblue" points="716.86,-392.16 719.58,-402.4 723.84,-392.69 716.86,-392.16"/>
</g>
<!-- Node8&#45;&gt;Node10 -->
<g id="edge22" class="edge">
<title>Node8&#45;&gt;Node10</title>
<path fill="none" stroke="midnightblue" d="M678.54,-397.33C666.02,-389.36 653.42,-378.92 645.5,-366 632.74,-345.18 632.12,-315.81 633.11,-298.6"/>
<polygon fill="midnightblue" stroke="midnightblue" points="676.76,-400.34 687.14,-402.44 680.34,-394.32 676.76,-400.34"/>
</g>
<!-- Node9&#45;&gt;Node10 -->
<g id="edge12" class="edge">
<title>Node9&#45;&gt;Node10</title>
<path fill="none" stroke="midnightblue" d="M696.05,-329.45C682.36,-319.45 666.13,-307.6 653.77,-298.58"/>
<polygon fill="midnightblue" stroke="midnightblue" points="694.05,-332.32 704.19,-335.4 698.18,-326.67 694.05,-332.32"/>
</g>
<!-- Node11 -->
<g id="node11" class="node">
<title>Node11</title>
<g id="a_node11"><a xlink:href="AabbTreeWorld_8hpp.html" target="_top" xlink:title="Declarations of the AabbTreeWorld class.">
<polygon fill="white" stroke="black" points="493.5,-201.5 493.5,-231.5 621.5,-231.5 621.5,-201.5 493.5,-201.5"/>
<text text-anchor="start" x="501.5" y="-219.5" font-family="Helvetica,sans-Serif" font-size="10.00">Library/include/playrho</text>
<text text-anchor="middle" x="557.5" y="-208.5" font-family="Helvetica,sans-Serif" font-size="10.00">/d2/AabbTreeWorld.hpp</text>
</a>
</g>
</g>
<!-- Node10&#45;&gt;Node11 -->
<g id="edge13" class="edge">
<title>Node10&#45;&gt;Node11</title>
<path fill="none" stroke="midnightblue" d="M610.08,-261.88C598.38,-252.01 584.66,-240.43 574.18,-231.58"/>
<polygon fill="midnightblue" stroke="midnightblue" points="607.89,-264.62 617.79,-268.4 612.41,-259.27 607.89,-264.62"/>
</g>
<!-- Node10&#45;&gt;Node12 -->
<g id="edge14" class="edge">
<title>Node10&#45;&gt;Node12</title>
<path fill="none" stroke="midnightblue" d="M573.56,-265.71C535.15,-255.14 486.13,-241.63 449.73,-231.61"/>
<polygon fill="midnightblue" stroke="midnightblue" points="573.01,-269.19 583.58,-268.48 574.87,-262.45 573.01,-269.19"/>
</g>
<!-- Node10&#45;&gt;Node14 -->
<g id="edge19" class="edge">
<title>Node10&#45;&gt;Node14</title>
<path fill="none" stroke="midnightblue" d="M639.33,-258.33C641.43,-241.01 641.37,-217.86 630.5,-201 611.55,-171.59 587.89,-186.77 560.5,-165 535.54,-145.16 512.97,-115.19 500.85,-97.66"/>
<polygon fill="midnightblue" stroke="midnightblue" points="635.86,-257.83 637.81,-268.25 642.78,-258.89 635.86,-257.83"/>
</g>
<!-- Node15 -->
<g id="node15" class="node">
<title>Node15</title>
<g id="a_node15"><a xlink:href="WorldJoint_8hpp.html" target="_top" xlink:title="Declarations of free functions of World for joints identified by JointID.">
<polygon fill="white" stroke="black" points="569.5,-134.5 569.5,-164.5 697.5,-164.5 697.5,-134.5 569.5,-134.5"/>
<text text-anchor="start" x="577.5" y="-152.5" font-family="Helvetica,sans-Serif" font-size="10.00">Library/include/playrho</text>
<text text-anchor="middle" x="633.5" y="-141.5" font-family="Helvetica,sans-Serif" font-size="10.00">/d2/WorldJoint.hpp</text>
</a>
</g>
</g>
<!-- Node10&#45;&gt;Node15 -->
<g id="edge20" class="edge">
<title>Node10&#45;&gt;Node15</title>
<path fill="none" stroke="midnightblue" d="M650.8,-259.95C655.91,-251.59 660.9,-241.76 663.5,-232 667.05,-218.69 667.15,-214.29 663.5,-201 659.83,-187.63 651.59,-174.21 644.67,-164.57"/>
<polygon fill="midnightblue" stroke="midnightblue" points="647.84,-258.08 645.31,-268.37 653.7,-261.91 647.84,-258.08"/>
</g>
<!-- Node13 -->
<g id="node13" class="node">
<title>Node13</title>
<g id="a_node13"><a xlink:href="WorldModel_8hpp.html" target="_top" xlink:title="Definitions of the WorldModel class and closely related code.">
<polygon fill="white" stroke="black" points="369.5,-134.5 369.5,-164.5 513.5,-164.5 513.5,-134.5 369.5,-134.5"/>
<text text-anchor="start" x="377.5" y="-152.5" font-family="Helvetica,sans-Serif" font-size="10.00">Library/include/playrho</text>
<text text-anchor="middle" x="441.5" y="-141.5" font-family="Helvetica,sans-Serif" font-size="10.00">/d2/detail/WorldModel.hpp</text>
</a>
</g>
</g>
<!-- Node12&#45;&gt;Node13 -->
<g id="edge15" class="edge">
<title>Node12&#45;&gt;Node13</title>
<path fill="none" stroke="midnightblue" d="M413.47,-192.87C419.7,-183.46 426.73,-172.83 432.19,-164.58"/>
<polygon fill="midnightblue" stroke="midnightblue" points="410.43,-191.12 407.83,-201.4 416.27,-194.99 410.43,-191.12"/>
</g>
<!-- Node12&#45;&gt;Node14 -->
<g id="edge18" class="edge">
<title>Node12&#45;&gt;Node14</title>
<path fill="none" stroke="midnightblue" d="M376.37,-193.73C361.79,-176.69 347.59,-152.81 360.5,-134 375.74,-111.79 402.23,-99.35 427.42,-92.37"/>
<polygon fill="midnightblue" stroke="midnightblue" points="374.11,-196.46 383.43,-201.5 379.29,-191.74 374.11,-196.46"/>
</g>
<!-- Node13&#45;&gt;Node14 -->
<g id="edge16" class="edge">
<title>Node13&#45;&gt;Node14</title>
<path fill="none" stroke="midnightblue" d="M458.46,-126.45C465.81,-116.9 474.19,-106 480.67,-97.58"/>
<polygon fill="midnightblue" stroke="midnightblue" points="455.67,-124.34 452.35,-134.4 461.22,-128.6 455.67,-124.34"/>
</g>
<!-- Node14&#45;&gt;Node3 -->
<g id="edge17" class="edge">
<title>Node14&#45;&gt;Node3</title>
<path fill="none" stroke="midnightblue" d="M565.88,-72.65C673.6,-59.82 871.25,-36.29 973.08,-24.17"/>
<polygon fill="midnightblue" stroke="midnightblue" points="565.25,-69.19 555.74,-73.85 566.08,-76.15 565.25,-69.19"/>
</g>
<!-- Node15&#45;&gt;Node3 -->
<g id="edge21" class="edge">
<title>Node15&#45;&gt;Node3</title>
<path fill="none" stroke="midnightblue" d="M656.51,-127.66C678.69,-108.77 714.02,-81.71 749.5,-67 822.65,-36.67 913.6,-24.55 973.48,-19.71"/>
<polygon fill="midnightblue" stroke="midnightblue" points="653.94,-125.26 648.68,-134.46 658.53,-130.55 653.94,-125.26"/>
</g>
<!-- Node17 -->
<g id="node17" class="node">
<title>Node17</title>
<g id="a_node17"><a xlink:href="ShapeModel_8hpp.html" target="_top" xlink:title="Definition of the ShapeModel class and related code.">
<polygon fill="white" stroke="black" points="284.5,-335.5 284.5,-365.5 430.5,-365.5 430.5,-335.5 284.5,-335.5"/>
<text text-anchor="start" x="292.5" y="-353.5" font-family="Helvetica,sans-Serif" font-size="10.00">Library/include/playrho</text>
<text text-anchor="middle" x="357.5" y="-342.5" font-family="Helvetica,sans-Serif" font-size="10.00">/d2/detail/ShapeModel.hpp</text>
</a>
</g>
</g>
<!-- Node16&#45;&gt;Node17 -->
<g id="edge24" class="edge">
<title>Node16&#45;&gt;Node17</title>
<path fill="none" stroke="midnightblue" d="M384.22,-393.87C378.29,-384.46 371.59,-373.83 366.38,-365.58"/>
<polygon fill="midnightblue" stroke="midnightblue" points="381.31,-395.81 389.6,-402.4 387.23,-392.07 381.31,-395.81"/>
</g>
<!-- Node16&#45;&gt;Node18 -->
<g id="edge29" class="edge">
<title>Node16&#45;&gt;Node18</title>
<path fill="none" stroke="midnightblue" d="M421.41,-394.96C428.64,-386.68 435.72,-376.65 439.5,-366 447.68,-342.93 436.51,-315.04 427.87,-298.59"/>
<polygon fill="midnightblue" stroke="midnightblue" points="418.8,-392.62 414.53,-402.32 423.91,-397.4 418.8,-392.62"/>
</g>
<!-- Node17&#45;&gt;Node18 -->
<g id="edge25" class="edge">
<title>Node17&#45;&gt;Node18</title>
<path fill="none" stroke="midnightblue" d="M377.98,-328.02C387.22,-318.34 397.87,-307.17 406.07,-298.58"/>
<polygon fill="midnightblue" stroke="midnightblue" points="375.32,-325.74 370.95,-335.4 380.39,-330.58 375.32,-325.74"/>
</g>
<!-- Node18&#45;&gt;Node11 -->
<g id="edge26" class="edge">
<title>Node18&#45;&gt;Node11</title>
<path fill="none" stroke="midnightblue" d="M458.5,-264.13C480.43,-253.8 507.37,-241.11 527.61,-231.58"/>
<polygon fill="midnightblue" stroke="midnightblue" points="457,-260.97 449.44,-268.4 459.98,-267.3 457,-260.97"/>
</g>
<!-- Node18&#45;&gt;Node12 -->
<g id="edge27" class="edge">
<title>Node18&#45;&gt;Node12</title>
<path fill="none" stroke="midnightblue" d="M411.81,-258.7C408.87,-249.59 405.61,-239.49 403.05,-231.58"/>
<polygon fill="midnightblue" stroke="midnightblue" points="408.54,-259.96 414.94,-268.4 415.2,-257.8 408.54,-259.96"/>
</g>
<!-- Node18&#45;&gt;Node14 -->
<g id="edge28" class="edge">
<title>Node18&#45;&gt;Node14</title>
<path fill="none" stroke="midnightblue" d="M351.78,-264.37C336.29,-256.92 321.69,-246.5 312.5,-232 305.12,-220.36 308.91,-214.3 312.5,-201 321.48,-167.73 325.03,-156.06 351.5,-134 373.13,-115.97 401.72,-104.13 427.43,-96.49"/>
<polygon fill="midnightblue" stroke="midnightblue" points="350.41,-267.59 360.98,-268.43 353.24,-261.19 350.41,-267.59"/>
</g>
<!-- Node19&#45;&gt;Node3 -->
<g id="edge32" class="edge">
<title>Node19&#45;&gt;Node3</title>
<path fill="none" stroke="midnightblue" d="M811.21,-259C801.6,-235.68 787.94,-198.64 782.5,-165 775.12,-119.34 780.89,-95.27 817.5,-67 862.01,-32.63 925.75,-20.93 973.17,-17.27"/>
<polygon fill="midnightblue" stroke="midnightblue" points="808.06,-260.55 815.17,-268.4 814.51,-257.83 808.06,-260.55"/>
</g>
<!-- Node20&#45;&gt;Node3 -->
<g id="edge34" class="edge">
<title>Node20&#45;&gt;Node3</title>
<path fill="none" stroke="midnightblue" d="M840.81,-126.45C826.37,-109.06 812.42,-84.85 826.5,-67 844.58,-44.08 918.12,-30.4 973.33,-23.18"/>
<polygon fill="midnightblue" stroke="midnightblue" points="838.57,-129.2 847.81,-134.38 843.81,-124.57 838.57,-129.2"/>
</g>
<!-- Node21&#45;&gt;Node3 -->
<g id="edge36" class="edge">
<title>Node21&#45;&gt;Node3</title>
<path fill="none" stroke="midnightblue" d="M941.65,-62.99C962.89,-52.69 988.91,-40.07 1008.48,-30.58"/>
<polygon fill="midnightblue" stroke="midnightblue" points="940.05,-59.88 932.58,-67.4 943.1,-66.18 940.05,-59.88"/>
</g>
<!-- Node22&#45;&gt;Node3 -->
<g id="edge38" class="edge">
<title>Node22&#45;&gt;Node3</title>
<path fill="none" stroke="midnightblue" d="M1035.34,-327.19C1029.23,-318.77 1022.87,-308.84 1018.5,-299 1003.42,-265 999.5,-254.69 999.5,-217.5 999.5,-217.5 999.5,-217.5 999.5,-148.5 999.5,-104.14 1019.56,-54.56 1030.53,-30.76"/>
<polygon fill="midnightblue" stroke="midnightblue" points="1032.69,-329.49 1041.52,-335.36 1038.27,-325.27 1032.69,-329.49"/>
</g>
<!-- Node23&#45;&gt;Node3 -->
<g id="edge41" class="edge">
<title>Node23&#45;&gt;Node3</title>
<path fill="none" stroke="midnightblue" d="M1072.29,-260.14C1066.19,-251.82 1060.11,-241.98 1056.5,-232 1030.44,-159.95 1033.85,-65.88 1036.31,-30.64"/>
<polygon fill="midnightblue" stroke="midnightblue" points="1069.64,-262.43 1078.54,-268.18 1075.17,-258.14 1069.64,-262.43"/>
</g>
<!-- Node24&#45;&gt;Node3 -->
<g id="edge43" class="edge">
<title>Node24&#45;&gt;Node3</title>
<path fill="none" stroke="midnightblue" d="M1113.2,-193.23C1106.76,-184.73 1099.81,-174.73 1094.5,-165 1068.98,-118.21 1049.54,-57.57 1041.52,-30.55"/>
<polygon fill="midnightblue" stroke="midnightblue" points="1110.49,-195.44 1119.4,-201.17 1116.01,-191.13 1110.49,-195.44"/>
</g>
<!-- Node25&#45;&gt;Node3 -->
<g id="edge45" class="edge">
<title>Node25&#45;&gt;Node3</title>
<path fill="none" stroke="midnightblue" d="M1154.12,-127.25C1125.47,-100.04 1076.65,-53.68 1052.27,-30.52"/>
<polygon fill="midnightblue" stroke="midnightblue" points="1151.96,-130.03 1161.62,-134.37 1156.78,-124.95 1151.96,-130.03"/>
</g>
<!-- Node26&#45;&gt;Node3 -->
<g id="edge47" class="edge">
<title>Node26&#45;&gt;Node3</title>
<path fill="none" stroke="midnightblue" d="M1169.64,-63.96C1140.49,-53.48 1103.96,-40.37 1076.7,-30.58"/>
<polygon fill="midnightblue" stroke="midnightblue" points="1168.63,-67.31 1179.23,-67.4 1171,-60.72 1168.63,-67.31"/>
</g>
<!-- Node27&#45;&gt;Node3 -->
<g id="edge49" class="edge">
<title>Node27&#45;&gt;Node3</title>
<path fill="none" stroke="midnightblue" d="M1345.87,-326.57C1341.36,-318.14 1336.68,-308.36 1333.5,-299 1299.81,-199.77 1364.96,-141.73 1291.5,-67 1265.58,-40.63 1168.09,-27.3 1101.71,-21.14"/>
<polygon fill="midnightblue" stroke="midnightblue" points="1342.88,-328.39 1350.81,-335.42 1348.99,-324.98 1342.88,-328.39"/>
</g>
<!-- Node28&#45;&gt;Node3 -->
<g id="edge51" class="edge">
<title>Node28&#45;&gt;Node3</title>
<path fill="none" stroke="midnightblue" d="M1401.14,-258.53C1389.32,-207.84 1359.66,-92.37 1329.5,-67 1295.84,-38.68 1176.86,-25.66 1101.57,-20.14"/>
<polygon fill="midnightblue" stroke="midnightblue" points="1397.73,-259.34 1403.38,-268.3 1404.56,-257.77 1397.73,-259.34"/>
</g>
<!-- Node29&#45;&gt;Node3 -->
<g id="edge54" class="edge">
<title>Node29&#45;&gt;Node3</title>
<path fill="none" stroke="midnightblue" d="M1462.03,-191.59C1447.29,-157.78 1415.48,-96.8 1367.5,-67 1324.24,-40.13 1184.84,-26.35 1101.7,-20.35"/>
<polygon fill="midnightblue" stroke="midnightblue" points="1458.95,-193.29 1466.06,-201.15 1465.4,-190.58 1458.95,-193.29"/>
</g>
<!-- Node30&#45;&gt;Node3 -->
<g id="edge56" class="edge">
<title>Node30&#45;&gt;Node3</title>
<path fill="none" stroke="midnightblue" d="M1580.72,-392C1578.95,-365.51 1576.5,-322.04 1576.5,-284.5 1576.5,-284.5 1576.5,-284.5 1576.5,-148.5 1576.5,-51.74 1244.64,-25.55 1101.71,-18.77"/>
<polygon fill="midnightblue" stroke="midnightblue" points="1577.25,-392.52 1581.43,-402.25 1584.23,-392.03 1577.25,-392.52"/>
</g>
<!-- Node31&#45;&gt;Node3 -->
<g id="edge59" class="edge">
<title>Node31&#45;&gt;Node3</title>
<path fill="none" stroke="midnightblue" d="M1710.73,-394.38C1692.41,-369.29 1666.5,-326.4 1666.5,-284.5 1666.5,-284.5 1666.5,-284.5 1666.5,-148.5 1666.5,-33.92 1261.68,-18.23 1101.57,-16.5"/>
<polygon fill="midnightblue" stroke="midnightblue" points="1708.02,-396.6 1716.84,-402.48 1713.61,-392.39 1708.02,-396.6"/>
</g>
</g>
</svg>
        <g id="navigator" transform="translate(0 0)" fill="#404254">
                <rect fill="#f2f5e9" fill-opacity="0.5" stroke="#606060" stroke-width=".5" x="0" y="0" width="60" height="60"/>
                <use id="zoomplus" xlink:href="#zoomPlus" x="17" y="9" onmousedown="handleZoom(evt,'in')"/>
                <use id="zoomminus" xlink:href="#zoomMin" x="42" y="9" onmousedown="handleZoom(evt,'out')"/>
                <use id="reset" xlink:href="#resetDef" x="30" y="36" onmousedown="handleReset()"/>
                <g id="arrowUp" xlink:href="#dirArrow" transform="translate(30 24)" onmousedown="handlePan(0,-1)">
                  <use xlink:href="#rim" fill="#404040">
                        <set attributeName="fill" to="#808080" begin="arrowUp.mouseover" end="arrowUp.mouseout"/>
                  </use>
                  <path fill="none" stroke="white" stroke-width="1.5" d="M0,-3.0v7 M-2.5,-0.5L0,-3.0L2.5,-0.5"/>
                </g>
                <g id="arrowRight" xlink:href="#dirArrow" transform="rotate(90) translate(36 -43)" onmousedown="handlePan(1,0)">
                  <use xlink:href="#rim" fill="#404040">
                        <set attributeName="fill" to="#808080" begin="arrowRight.mouseover" end="arrowRight.mouseout"/>
                  </use>
                  <path fill="none" stroke="white" stroke-width="1.5" d="M0,-3.0v7 M-2.5,-0.5L0,-3.0L2.5,-0.5"/>
                </g>
                <g id="arrowDown" xlink:href="#dirArrow" transform="rotate(180) translate(-30 -48)" onmousedown="handlePan(0,1)">
                  <use xlink:href="#rim" fill="#404040">
                        <set attributeName="fill" to="#808080" begin="arrowDown.mouseover" end="arrowDown.mouseout"/>
                  </use>
                  <path fill="none" stroke="white" stroke-width="1.5" d="M0,-3.0v7 M-2.5,-0.5L0,-3.0L2.5,-0.5"/>
                </g>
                <g id="arrowLeft" xlink:href="#dirArrow" transform="rotate(270) translate(-36 17)" onmousedown="handlePan(-1,0)">
                  <use xlink:href="#rim" fill="#404040">
                        <set attributeName="fill" to="#808080" begin="arrowLeft.mouseover" end="arrowLeft.mouseout"/>
                  </use>
                  <path fill="none" stroke="white" stroke-width="1.5" d="M0,-3.0v7 M-2.5,-0.5L0,-3.0L2.5,-0.5"/>
                </g>
        </g>
        <svg viewBox="0 0 15 15" width="100%" height="30px" preserveAspectRatio="xMaxYMin meet">
         <g id="arrow_out" transform="scale(0.3 0.3)">
          <a xlink:href="detail_2TypeInfo_8hpp__dep__incl_org.svg" target="_base">
           <rect id="button" ry="5" rx="5" y="6" x="6" height="38" width="38"
                fill="#f2f5e9" fill-opacity="0.5" stroke="#606060" stroke-width="1.0"/>
           <path id="arrow"
             d="M 11.500037,31.436501 C 11.940474,20.09759 22.043105,11.32322 32.158766,21.979434 L 37.068811,17.246167 C 37.068811,17.246167 37.088388,32 37.088388,32 L 22.160133,31.978069 C 22.160133,31.978069 26.997745,27.140456 26.997745,27.140456 C 18.528582,18.264221 13.291696,25.230495 11.500037,31.436501 z"
             style="fill:#404040;"/>
          </a>
         </g>
        </svg>
</svg>
