<?xml version="1.0" encoding="UTF-8" standalone="no"?>
<!DOCTYPE svg PUBLIC "-//W3C//DTD SVG 1.1//EN"
 "http://www.w3.org/Graphics/SVG/1.1/DTD/svg11.dtd">
<!-- Generated by graphviz version 2.43.0 (0)
 -->
<!-- Title: Library/include/playrho/detail/TypeInfo.hpp Pages: 1 -->
<svg width="1757pt" height="575pt"
 viewBox="0.00 0.00 1757.00 575.00" xmlns="http://www.w3.org/2000/svg" xmlns:xlink="http://www.w3.org/1999/xlink">
<g id="graph0" class="graph" transform="scale(1 1) rotate(0) translate(4 571)">
<title>Library/include/playrho/detail/TypeInfo.hpp</title>
<polygon fill="white" stroke="transparent" points="-4,4 -4,-571 1753,-571 1753,4 -4,4"/>
<!-- Node1 -->
<g id="node1" class="node">
<title>Node1</title>
<g id="a_node1"><a xlink:title="Definition of TypeInfo class template and related code.">
<polygon fill="#bfbfbf" stroke="black" points="145.5,-536.5 145.5,-566.5 273.5,-566.5 273.5,-536.5 145.5,-536.5"/>
<text text-anchor="start" x="153.5" y="-554.5" font-family="Helvetica,sans-Serif" font-size="10.00">Library/include/playrho</text>
<text text-anchor="middle" x="209.5" y="-543.5" font-family="Helvetica,sans-Serif" font-size="10.00">/detail/TypeInfo.hpp</text>
</a>
</g>
</g>
<!-- Node2 -->
<g id="node2" class="node">
<title>Node2</title>
<g id="a_node2"><a xlink:href="EdgeShapeConf_8hpp.html" target="_top" xlink:title="Definition of the EdgeShapeConf class and closely related code.">
<polygon fill="white" stroke="black" points="0,-134.5 0,-164.5 131,-164.5 131,-134.5 0,-134.5"/>
<text text-anchor="start" x="8" y="-152.5" font-family="Helvetica,sans-Serif" font-size="10.00">Library/include/playrho</text>
<text text-anchor="middle" x="65.5" y="-141.5" font-family="Helvetica,sans-Serif" font-size="10.00">/d2/EdgeShapeConf.hpp</text>
</a>
</g>
</g>
<!-- Node1&#45;&gt;Node2 -->
<g id="edge1" class="edge">
<title>Node1&#45;&gt;Node2</title>
<path fill="none" stroke="midnightblue" d="M175.83,-530.79C142.2,-508.3 95.5,-468.12 95.5,-418.5 95.5,-418.5 95.5,-418.5 95.5,-282.5 95.5,-238.55 79.49,-188.38 70.86,-164.52"/>
<polygon fill="midnightblue" stroke="midnightblue" points="174.19,-533.9 184.48,-536.39 177.99,-528.02 174.19,-533.9"/>
</g>
<!-- Node4 -->
<g id="node4" class="node">
<title>Node4</title>
<g id="a_node4"><a xlink:href="PolygonShapeConf_8hpp.html" target="_top" xlink:title="Definition of the PolygonShapeConf class and closely related code.">
<polygon fill="white" stroke="black" points="90.5,-67.5 90.5,-97.5 236.5,-97.5 236.5,-67.5 90.5,-67.5"/>
<text text-anchor="start" x="98.5" y="-85.5" font-family="Helvetica,sans-Serif" font-size="10.00">Library/include/playrho</text>
<text text-anchor="middle" x="163.5" y="-74.5" font-family="Helvetica,sans-Serif" font-size="10.00">/d2/PolygonShapeConf.hpp</text>
</a>
</g>
</g>
<!-- Node1&#45;&gt;Node4 -->
<g id="edge3" class="edge">
<title>Node1&#45;&gt;Node4</title>
<path fill="none" stroke="midnightblue" d="M195.58,-527.53C190.91,-519.1 186.01,-509.33 182.5,-500 169.4,-465.19 163.5,-455.69 163.5,-418.5 163.5,-418.5 163.5,-418.5 163.5,-215.5 163.5,-172.65 163.5,-121.97 163.5,-97.76"/>
<polygon fill="midnightblue" stroke="midnightblue" points="192.65,-529.45 200.66,-536.39 198.72,-525.97 192.65,-529.45"/>
</g>
<!-- Node5 -->
<g id="node5" class="node">
<title>Node5</title>
<g id="a_node5"><a xlink:href="WheelJointConf_8hpp.html" target="_top" xlink:title="Definition of the WheelJointConf class and closely related code.">
<polygon fill="white" stroke="black" points="191.5,-469.5 191.5,-499.5 321.5,-499.5 321.5,-469.5 191.5,-469.5"/>
<text text-anchor="start" x="199.5" y="-487.5" font-family="Helvetica,sans-Serif" font-size="10.00">Library/include/playrho</text>
<text text-anchor="middle" x="256.5" y="-476.5" font-family="Helvetica,sans-Serif" font-size="10.00">/d2/WheelJointConf.hpp</text>
</a>
</g>
</g>
<!-- Node1&#45;&gt;Node5 -->
<g id="edge5" class="edge">
<title>Node1&#45;&gt;Node5</title>
<path fill="none" stroke="midnightblue" d="M225.66,-528.16C232.51,-518.68 240.29,-507.92 246.32,-499.58"/>
<polygon fill="midnightblue" stroke="midnightblue" points="222.72,-526.24 219.7,-536.4 228.39,-530.34 222.72,-526.24"/>
</g>
<!-- Node6 -->
<g id="node6" class="node">
<title>Node6</title>
<g id="a_node6"><a xlink:href="TypeInfo_8hpp.html" target="_top" xlink:title="Definition of TypeID class and closely related code.">
<polygon fill="white" stroke="black" points="917.5,-469.5 917.5,-499.5 1045.5,-499.5 1045.5,-469.5 917.5,-469.5"/>
<text text-anchor="start" x="925.5" y="-487.5" font-family="Helvetica,sans-Serif" font-size="10.00">Library/include/playrho</text>
<text text-anchor="middle" x="981.5" y="-476.5" font-family="Helvetica,sans-Serif" font-size="10.00">/TypeInfo.hpp</text>
</a>
</g>
</g>
<!-- Node1&#45;&gt;Node6 -->
<g id="edge7" class="edge">
<title>Node1&#45;&gt;Node6</title>
<path fill="none" stroke="midnightblue" d="M283.77,-544.25C434.78,-531.53 775.35,-502.86 917.39,-490.9"/>
<polygon fill="midnightblue" stroke="midnightblue" points="283.33,-540.77 273.66,-545.1 283.92,-547.75 283.33,-540.77"/>
</g>
<!-- Node3 -->
<g id="node3" class="node">
<title>Node3</title>
<g id="a_node3"><a xlink:href="BasicAPI_8hpp.html" target="_top" xlink:title="Basic API include file to pull in at once most headers used.">
<polygon fill="white" stroke="black" points="955.5,-0.5 955.5,-30.5 1083.5,-30.5 1083.5,-0.5 955.5,-0.5"/>
<text text-anchor="start" x="963.5" y="-18.5" font-family="Helvetica,sans-Serif" font-size="10.00">Library/include/playrho</text>
<text text-anchor="middle" x="1019.5" y="-7.5" font-family="Helvetica,sans-Serif" font-size="10.00">/d2/BasicAPI.hpp</text>
</a>
</g>
</g>
<!-- Node2&#45;&gt;Node3 -->
<g id="edge2" class="edge">
<title>Node2&#45;&gt;Node3</title>
<path fill="none" stroke="midnightblue" d="M63.03,-124.37C62.59,-105.75 65.49,-80.91 81.5,-67 114.47,-38.35 749.25,-22.28 955.42,-17.81"/>
<polygon fill="midnightblue" stroke="midnightblue" points="59.54,-124.69 63.6,-134.47 66.53,-124.29 59.54,-124.69"/>
</g>
<!-- Node4&#45;&gt;Node3 -->
<g id="edge4" class="edge">
<title>Node4&#45;&gt;Node3</title>
<path fill="none" stroke="midnightblue" d="M246.62,-67.46C247.92,-67.3 249.22,-67.15 250.5,-67 510.83,-36.83 822.98,-23.27 955.25,-18.56"/>
<polygon fill="midnightblue" stroke="midnightblue" points="245.99,-64.02 236.53,-68.79 246.9,-70.96 245.99,-64.02"/>
</g>
<!-- Node5&#45;&gt;Node3 -->
<g id="edge6" class="edge">
<title>Node5&#45;&gt;Node3</title>
<path fill="none" stroke="midnightblue" d="M256.5,-458.99C256.5,-432.49 256.5,-389 256.5,-351.5 256.5,-351.5 256.5,-351.5 256.5,-282.5 256.5,-142.42 353.98,-112.41 486.5,-67 571.68,-37.81 833.23,-23.88 955.39,-18.83"/>
<polygon fill="midnightblue" stroke="midnightblue" points="253,-459.24 256.5,-469.24 260,-459.24 253,-459.24"/>
</g>
<!-- Node7 -->
<g id="node7" class="node">
<title>Node7</title>
<g id="a_node7"><a xlink:href="ChainShapeConf_8hpp.html" target="_top" xlink:title="Definition of the ChainShapeConf class and closely related code.">
<polygon fill="white" stroke="black" points="1614,-335.5 1614,-365.5 1749,-365.5 1749,-335.5 1614,-335.5"/>
<text text-anchor="start" x="1622" y="-353.5" font-family="Helvetica,sans-Serif" font-size="10.00">Library/include/playrho</text>
<text text-anchor="middle" x="1681.5" y="-342.5" font-family="Helvetica,sans-Serif" font-size="10.00">/d2/ChainShapeConf.hpp</text>
</a>
</g>
</g>
<!-- Node6&#45;&gt;Node7 -->
<g id="edge8" class="edge">
<title>Node6&#45;&gt;Node7</title>
<path fill="none" stroke="midnightblue" d="M1055.57,-483.24C1224.38,-481.92 1626.47,-474.43 1670.5,-433 1688.7,-415.88 1687.16,-384.08 1684.36,-365.67"/>
<polygon fill="midnightblue" stroke="midnightblue" points="1055.5,-479.74 1045.52,-483.31 1055.55,-486.74 1055.5,-479.74"/>
</g>
<!-- Node8 -->
<g id="node8" class="node">
<title>Node8</title>
<g id="a_node8"><a xlink:href="JointConcept_8hpp.html" target="_top" xlink:title="Definition of the internal JointConcept interface class.">
<polygon fill="white" stroke="black" points="321.5,-402.5 321.5,-432.5 469.5,-432.5 469.5,-402.5 321.5,-402.5"/>
<text text-anchor="start" x="329.5" y="-420.5" font-family="Helvetica,sans-Serif" font-size="10.00">Library/include/playrho</text>
<text text-anchor="middle" x="395.5" y="-409.5" font-family="Helvetica,sans-Serif" font-size="10.00">/d2/detail/JointConcept.hpp</text>
</a>
</g>
</g>
<!-- Node6&#45;&gt;Node8 -->
<g id="edge10" class="edge">
<title>Node6&#45;&gt;Node8</title>
<path fill="none" stroke="midnightblue" d="M907.23,-477.42C809.77,-469.11 633.47,-452.94 483.5,-433 479.05,-432.41 474.48,-431.76 469.87,-431.09"/>
<polygon fill="midnightblue" stroke="midnightblue" points="907.02,-480.92 917.28,-478.27 907.61,-473.94 907.02,-480.92"/>
</g>
<!-- Node10 -->
<g id="node10" class="node">
<title>Node10</title>
<g id="a_node10"><a xlink:href="Joint_8hpp.html" target="_top" xlink:title="Definition of the Joint class and closely related code.">
<polygon fill="white" stroke="black" points="356.5,-268.5 356.5,-298.5 484.5,-298.5 484.5,-268.5 356.5,-268.5"/>
<text text-anchor="start" x="364.5" y="-286.5" font-family="Helvetica,sans-Serif" font-size="10.00">Library/include/playrho</text>
<text text-anchor="middle" x="420.5" y="-275.5" font-family="Helvetica,sans-Serif" font-size="10.00">/d2/Joint.hpp</text>
</a>
</g>
</g>
<!-- Node6&#45;&gt;Node10 -->
<g id="edge37" class="edge">
<title>Node6&#45;&gt;Node10</title>
<path fill="none" stroke="midnightblue" d="M907.3,-484.15C793.09,-483.71 581.14,-476.79 521.5,-433 483.16,-404.85 506.67,-373.32 478.5,-335 468.06,-320.8 452.97,-307.82 440.79,-298.57"/>
<polygon fill="midnightblue" stroke="midnightblue" points="907.36,-487.65 917.37,-484.17 907.38,-480.65 907.36,-487.65"/>
</g>
<!-- Node11 -->
<g id="node11" class="node">
<title>Node11</title>
<g id="a_node11"><a xlink:href="WorldConcept_8hpp.html" target="_top" xlink:title="Definition of the internal WorldConcept interface class.">
<polygon fill="white" stroke="black" points="468.5,-201.5 468.5,-231.5 622.5,-231.5 622.5,-201.5 468.5,-201.5"/>
<text text-anchor="start" x="476.5" y="-219.5" font-family="Helvetica,sans-Serif" font-size="10.00">Library/include/playrho</text>
<text text-anchor="middle" x="545.5" y="-208.5" font-family="Helvetica,sans-Serif" font-size="10.00">/d2/detail/WorldConcept.hpp</text>
</a>
</g>
</g>
<!-- Node6&#45;&gt;Node11 -->
<g id="edge28" class="edge">
<title>Node6&#45;&gt;Node11</title>
<path fill="none" stroke="midnightblue" d="M907.14,-484.04C804.92,-483.17 628.39,-475.35 582.5,-433 524.48,-379.45 536.32,-270.65 542.8,-231.74"/>
<polygon fill="midnightblue" stroke="midnightblue" points="907.38,-487.55 917.4,-484.11 907.43,-480.55 907.38,-487.55"/>
</g>
<!-- Node13 -->
<g id="node13" class="node">
<title>Node13</title>
<g id="a_node13"><a xlink:href="World_8hpp.html" target="_top" xlink:title="Definitions of the World class and closely related code.">
<polygon fill="white" stroke="black" points="578.5,-67.5 578.5,-97.5 706.5,-97.5 706.5,-67.5 578.5,-67.5"/>
<text text-anchor="start" x="586.5" y="-85.5" font-family="Helvetica,sans-Serif" font-size="10.00">Library/include/playrho</text>
<text text-anchor="middle" x="642.5" y="-74.5" font-family="Helvetica,sans-Serif" font-size="10.00">/d2/World.hpp</text>
</a>
</g>
</g>
<!-- Node6&#45;&gt;Node13 -->
<g id="edge55" class="edge">
<title>Node6&#45;&gt;Node13</title>
<path fill="none" stroke="midnightblue" d="M926.41,-465.95C905.57,-457.82 882.35,-446.84 863.5,-433 817.26,-399.05 819.82,-375.81 779.5,-335 762.46,-317.75 752.88,-318.53 738.5,-299 688.72,-231.39 657.1,-133.87 646.48,-97.7"/>
<polygon fill="midnightblue" stroke="midnightblue" points="925.21,-469.24 935.8,-469.49 927.68,-462.69 925.21,-469.24"/>
</g>
<!-- Node15 -->
<g id="node15" class="node">
<title>Node15</title>
<g id="a_node15"><a xlink:href="ShapeConcept_8hpp.html" target="_top" xlink:title="Definition of the internal ShapeConcept interface class.">
<polygon fill="white" stroke="black" points="591.5,-402.5 591.5,-432.5 747.5,-432.5 747.5,-402.5 591.5,-402.5"/>
<text text-anchor="start" x="599.5" y="-420.5" font-family="Helvetica,sans-Serif" font-size="10.00">Library/include/playrho</text>
<text text-anchor="middle" x="669.5" y="-409.5" font-family="Helvetica,sans-Serif" font-size="10.00">/d2/detail/ShapeConcept.hpp</text>
</a>
</g>
</g>
<!-- Node6&#45;&gt;Node15 -->
<g id="edge22" class="edge">
<title>Node6&#45;&gt;Node15</title>
<path fill="none" stroke="midnightblue" d="M907.12,-468C855.41,-457.23 787.04,-442.99 736.92,-432.55"/>
<polygon fill="midnightblue" stroke="midnightblue" points="906.73,-471.5 917.23,-470.11 908.16,-464.64 906.73,-471.5"/>
</g>
<!-- Node17 -->
<g id="node17" class="node">
<title>Node17</title>
<g id="a_node17"><a xlink:href="Shape_8hpp.html" target="_top" xlink:title="Definition of the Shape class and closely related code.">
<polygon fill="white" stroke="black" points="563.5,-268.5 563.5,-298.5 691.5,-298.5 691.5,-268.5 563.5,-268.5"/>
<text text-anchor="start" x="571.5" y="-286.5" font-family="Helvetica,sans-Serif" font-size="10.00">Library/include/playrho</text>
<text text-anchor="middle" x="627.5" y="-275.5" font-family="Helvetica,sans-Serif" font-size="10.00">/d2/Shape.hpp</text>
</a>
</g>
</g>
<!-- Node6&#45;&gt;Node17 -->
<g id="edge50" class="edge">
<title>Node6&#45;&gt;Node17</title>
<path fill="none" stroke="midnightblue" d="M907.34,-477.73C871.23,-471.52 829.29,-458.81 799.5,-433 763.55,-401.85 790.8,-367.95 756.5,-335 738.55,-317.76 714.02,-306.2 691.18,-298.55"/>
<polygon fill="midnightblue" stroke="midnightblue" points="906.93,-481.21 917.35,-479.32 908.03,-474.3 906.93,-481.21"/>
</g>
<!-- Node18 -->
<g id="node18" class="node">
<title>Node18</title>
<g id="a_node18"><a xlink:href="DiskShapeConf_8hpp.html" target="_top" xlink:title="Definition of the DiskShapeConf class and closely related code.">
<polygon fill="white" stroke="black" points="748,-268.5 748,-298.5 877,-298.5 877,-268.5 748,-268.5"/>
<text text-anchor="start" x="756" y="-286.5" font-family="Helvetica,sans-Serif" font-size="10.00">Library/include/playrho</text>
<text text-anchor="middle" x="812.5" y="-275.5" font-family="Helvetica,sans-Serif" font-size="10.00">/d2/DiskShapeConf.hpp</text>
</a>
</g>
</g>
<!-- Node6&#45;&gt;Node18 -->
<g id="edge29" class="edge">
<title>Node6&#45;&gt;Node18</title>
<path fill="none" stroke="midnightblue" d="M936.84,-464.84C921.15,-456.73 904.27,-446.06 891.5,-433 851.69,-392.29 826.69,-327.43 817.04,-298.84"/>
<polygon fill="midnightblue" stroke="midnightblue" points="935.38,-468.03 945.9,-469.32 938.49,-461.75 935.38,-468.03"/>
</g>
<!-- Node19 -->
<g id="node19" class="node">
<title>Node19</title>
<g id="a_node19"><a xlink:href="DistanceJointConf_8hpp.html" target="_top" xlink:title="Definition of the DistanceJointConf class and closely related code.">
<polygon fill="white" stroke="black" points="773.5,-201.5 773.5,-231.5 915.5,-231.5 915.5,-201.5 773.5,-201.5"/>
<text text-anchor="start" x="781.5" y="-219.5" font-family="Helvetica,sans-Serif" font-size="10.00">Library/include/playrho</text>
<text text-anchor="middle" x="844.5" y="-208.5" font-family="Helvetica,sans-Serif" font-size="10.00">/d2/DistanceJointConf.hpp</text>
</a>
</g>
</g>
<!-- Node6&#45;&gt;Node19 -->
<g id="edge31" class="edge">
<title>Node6&#45;&gt;Node19</title>
<path fill="none" stroke="midnightblue" d="M954.55,-462.52C945.44,-454.2 935.95,-444 929.5,-433 891.11,-367.53 919.96,-335.62 885.5,-268 878.63,-254.52 867.72,-241.31 858.88,-231.79"/>
<polygon fill="midnightblue" stroke="midnightblue" points="952.53,-465.4 962.38,-469.31 957.12,-460.11 952.53,-465.4"/>
</g>
<!-- Node20 -->
<g id="node20" class="node">
<title>Node20</title>
<g id="a_node20"><a xlink:href="FrictionJointConf_8hpp.html" target="_top" xlink:title="Definition of the FrictionJointConf class and closely related code.">
<polygon fill="white" stroke="black" points="818,-134.5 818,-164.5 953,-164.5 953,-134.5 818,-134.5"/>
<text text-anchor="start" x="826" y="-152.5" font-family="Helvetica,sans-Serif" font-size="10.00">Library/include/playrho</text>
<text text-anchor="middle" x="885.5" y="-141.5" font-family="Helvetica,sans-Serif" font-size="10.00">/d2/FrictionJointConf.hpp</text>
</a>
</g>
</g>
<!-- Node6&#45;&gt;Node20 -->
<g id="edge33" class="edge">
<title>Node6&#45;&gt;Node20</title>
<path fill="none" stroke="midnightblue" d="M970.35,-459.86C959.13,-433.89 943.5,-390.66 943.5,-351.5 943.5,-351.5 943.5,-351.5 943.5,-282.5 943.5,-245.31 940.45,-234.6 924.5,-201 918.13,-187.59 907.75,-174.38 899.29,-164.84"/>
<polygon fill="midnightblue" stroke="midnightblue" points="967.26,-461.53 974.53,-469.24 973.65,-458.68 967.26,-461.53"/>
</g>
<!-- Node21 -->
<g id="node21" class="node">
<title>Node21</title>
<g id="a_node21"><a xlink:href="GearJointConf_8hpp.html" target="_top" xlink:title="Definition of the GearJointConf class and closely related code.">
<polygon fill="white" stroke="black" points="863.5,-67.5 863.5,-97.5 991.5,-97.5 991.5,-67.5 863.5,-67.5"/>
<text text-anchor="start" x="871.5" y="-85.5" font-family="Helvetica,sans-Serif" font-size="10.00">Library/include/playrho</text>
<text text-anchor="middle" x="927.5" y="-74.5" font-family="Helvetica,sans-Serif" font-size="10.00">/d2/GearJointConf.hpp</text>
</a>
</g>
</g>
<!-- Node6&#45;&gt;Node21 -->
<g id="edge35" class="edge">
<title>Node6&#45;&gt;Node21</title>
<path fill="none" stroke="midnightblue" d="M981.5,-458.99C981.5,-432.49 981.5,-389 981.5,-351.5 981.5,-351.5 981.5,-351.5 981.5,-215.5 981.5,-178.2 976.59,-168.11 961.5,-134 955.68,-120.86 946.45,-107.42 939.07,-97.72"/>
<polygon fill="midnightblue" stroke="midnightblue" points="978,-459.24 981.5,-469.24 985,-459.24 978,-459.24"/>
</g>
<!-- Node22 -->
<g id="node22" class="node">
<title>Node22</title>
<g id="a_node22"><a xlink:href="MotorJointConf_8hpp.html" target="_top" xlink:title="Definition of the MotorJointConf class and closely related code.">
<polygon fill="white" stroke="black" points="1009.5,-335.5 1009.5,-365.5 1137.5,-365.5 1137.5,-335.5 1009.5,-335.5"/>
<text text-anchor="start" x="1017.5" y="-353.5" font-family="Helvetica,sans-Serif" font-size="10.00">Library/include/playrho</text>
<text text-anchor="middle" x="1073.5" y="-342.5" font-family="Helvetica,sans-Serif" font-size="10.00">/d2/MotorJointConf.hpp</text>
</a>
</g>
</g>
<!-- Node6&#45;&gt;Node22 -->
<g id="edge38" class="edge">
<title>Node6&#45;&gt;Node22</title>
<path fill="none" stroke="midnightblue" d="M997.3,-460.83C1016.37,-433.47 1047.86,-388.28 1063.73,-365.52"/>
<polygon fill="midnightblue" stroke="midnightblue" points="994.19,-459.17 991.35,-469.37 999.93,-463.17 994.19,-459.17"/>
</g>
<!-- Node23 -->
<g id="node23" class="node">
<title>Node23</title>
<g id="a_node23"><a xlink:href="MultiShapeConf_8hpp.html" target="_top" xlink:title="Definition of the MultiShapeConf class and closely related code.">
<polygon fill="white" stroke="black" points="1047.5,-268.5 1047.5,-298.5 1179.5,-298.5 1179.5,-268.5 1047.5,-268.5"/>
<text text-anchor="start" x="1055.5" y="-286.5" font-family="Helvetica,sans-Serif" font-size="10.00">Library/include/playrho</text>
<text text-anchor="middle" x="1113.5" y="-275.5" font-family="Helvetica,sans-Serif" font-size="10.00">/d2/MultiShapeConf.hpp</text>
</a>
</g>
</g>
<!-- Node6&#45;&gt;Node23 -->
<g id="edge40" class="edge">
<title>Node6&#45;&gt;Node23</title>
<path fill="none" stroke="midnightblue" d="M1027.64,-465.21C1067.24,-446.74 1121.74,-414.04 1146.5,-366 1158.25,-343.21 1140.37,-315.23 1126.68,-298.69"/>
<polygon fill="midnightblue" stroke="midnightblue" points="1026.09,-462.07 1018.42,-469.38 1028.98,-468.45 1026.09,-462.07"/>
</g>
<!-- Node24 -->
<g id="node24" class="node">
<title>Node24</title>
<g id="a_node24"><a xlink:href="PrismaticJointConf_8hpp.html" target="_top" xlink:title="Definition of the PrismaticJointConf class and closely related code.">
<polygon fill="white" stroke="black" points="1086,-201.5 1086,-231.5 1231,-231.5 1231,-201.5 1086,-201.5"/>
<text text-anchor="start" x="1094" y="-219.5" font-family="Helvetica,sans-Serif" font-size="10.00">Library/include/playrho</text>
<text text-anchor="middle" x="1158.5" y="-208.5" font-family="Helvetica,sans-Serif" font-size="10.00">/d2/PrismaticJointConf.hpp</text>
</a>
</g>
</g>
<!-- Node6&#45;&gt;Node24 -->
<g id="edge42" class="edge">
<title>Node6&#45;&gt;Node24</title>
<path fill="none" stroke="midnightblue" d="M1052.95,-466.26C1075.16,-458.57 1098.72,-447.8 1117.5,-433 1170.44,-391.28 1176.1,-365.25 1188.5,-299 1191.04,-285.46 1192.15,-281.29 1188.5,-268 1184.83,-254.63 1176.59,-241.21 1169.67,-231.57"/>
<polygon fill="midnightblue" stroke="midnightblue" points="1051.6,-463.02 1043.2,-469.48 1053.79,-469.67 1051.6,-463.02"/>
</g>
<!-- Node25 -->
<g id="node25" class="node">
<title>Node25</title>
<g id="a_node25"><a xlink:href="PulleyJointConf_8hpp.html" target="_top" xlink:title="Definition of the PulleyJointConf class and closely related code.">
<polygon fill="white" stroke="black" points="1132,-134.5 1132,-164.5 1261,-164.5 1261,-134.5 1132,-134.5"/>
<text text-anchor="start" x="1140" y="-152.5" font-family="Helvetica,sans-Serif" font-size="10.00">Library/include/playrho</text>
<text text-anchor="middle" x="1196.5" y="-141.5" font-family="Helvetica,sans-Serif" font-size="10.00">/d2/PulleyJointConf.hpp</text>
</a>
</g>
</g>
<!-- Node6&#45;&gt;Node25 -->
<g id="edge44" class="edge">
<title>Node6&#45;&gt;Node25</title>
<path fill="none" stroke="midnightblue" d="M1055.73,-472.75C1086.72,-465.45 1121.68,-453.26 1148.5,-433 1226.75,-373.89 1222.72,-328.62 1239.5,-232 1241.86,-218.43 1244.26,-213.93 1239.5,-201 1234.25,-186.74 1222.98,-173.76 1213.3,-164.53"/>
<polygon fill="midnightblue" stroke="midnightblue" points="1054.82,-469.37 1045.82,-474.95 1056.34,-476.2 1054.82,-469.37"/>
</g>
<!-- Node26 -->
<g id="node26" class="node">
<title>Node26</title>
<g id="a_node26"><a xlink:href="RevoluteJointConf_8hpp.html" target="_top" xlink:title="Definition of the RevoluteJointConf class and closely related code.">
<polygon fill="white" stroke="black" points="1164,-67.5 1164,-97.5 1307,-97.5 1307,-67.5 1164,-67.5"/>
<text text-anchor="start" x="1172" y="-85.5" font-family="Helvetica,sans-Serif" font-size="10.00">Library/include/playrho</text>
<text text-anchor="middle" x="1235.5" y="-74.5" font-family="Helvetica,sans-Serif" font-size="10.00">/d2/RevoluteJointConf.hpp</text>
</a>
</g>
</g>
<!-- Node6&#45;&gt;Node26 -->
<g id="edge46" class="edge">
<title>Node6&#45;&gt;Node26</title>
<path fill="none" stroke="midnightblue" d="M1055.8,-476.61C1095.2,-470.11 1142.88,-457.5 1179.5,-433 1210.38,-412.34 1213.75,-399.65 1229.5,-366 1273.86,-271.23 1300.05,-234.07 1269.5,-134 1265.36,-120.45 1256.24,-107.25 1248.49,-97.75"/>
<polygon fill="midnightblue" stroke="midnightblue" points="1055.06,-473.18 1045.71,-478.17 1056.13,-480.1 1055.06,-473.18"/>
</g>
<!-- Node27 -->
<g id="node27" class="node">
<title>Node27</title>
<g id="a_node27"><a xlink:href="RopeJointConf_8hpp.html" target="_top" xlink:title="Definition of the RopeJointConf class and closely related code.">
<polygon fill="white" stroke="black" points="1311.5,-335.5 1311.5,-365.5 1439.5,-365.5 1439.5,-335.5 1311.5,-335.5"/>
<text text-anchor="start" x="1319.5" y="-353.5" font-family="Helvetica,sans-Serif" font-size="10.00">Library/include/playrho</text>
<text text-anchor="middle" x="1375.5" y="-342.5" font-family="Helvetica,sans-Serif" font-size="10.00">/d2/RopeJointConf.hpp</text>
</a>
</g>
</g>
<!-- Node6&#45;&gt;Node27 -->
<g id="edge48" class="edge">
<title>Node6&#45;&gt;Node27</title>
<path fill="none" stroke="midnightblue" d="M1055.51,-477.16C1135.36,-469.36 1256.57,-454.46 1297.5,-433 1328.03,-416.99 1353.45,-384.47 1366.35,-365.71"/>
<polygon fill="midnightblue" stroke="midnightblue" points="1055.12,-473.68 1045.5,-478.12 1055.79,-480.65 1055.12,-473.68"/>
</g>
<!-- Node28 -->
<g id="node28" class="node">
<title>Node28</title>
<g id="a_node28"><a xlink:href="TargetJointConf_8hpp.html" target="_top" xlink:title="Definition of the TargetJointConf class and closely related code.">
<polygon fill="white" stroke="black" points="1364,-268.5 1364,-298.5 1493,-298.5 1493,-268.5 1364,-268.5"/>
<text text-anchor="start" x="1372" y="-286.5" font-family="Helvetica,sans-Serif" font-size="10.00">Library/include/playrho</text>
<text text-anchor="middle" x="1428.5" y="-275.5" font-family="Helvetica,sans-Serif" font-size="10.00">/d2/TargetJointConf.hpp</text>
</a>
</g>
</g>
<!-- Node6&#45;&gt;Node28 -->
<g id="edge51" class="edge">
<title>Node6&#45;&gt;Node28</title>
<path fill="none" stroke="midnightblue" d="M1055.94,-482.13C1128.45,-478.65 1240.7,-467.51 1331.5,-433 1354.89,-424.11 1356.9,-414.63 1378.5,-402 1408.7,-384.34 1430.28,-395.86 1448.5,-366 1461.4,-344.86 1448.35,-315.86 1438.12,-298.76"/>
<polygon fill="midnightblue" stroke="midnightblue" points="1055.37,-478.65 1045.54,-482.59 1055.68,-485.64 1055.37,-478.65"/>
</g>
<!-- Node29 -->
<g id="node29" class="node">
<title>Node29</title>
<g id="a_node29"><a xlink:href="WeldJointConf_8hpp.html" target="_top" xlink:title="Definition of the WeldJointConf class and closely related code.">
<polygon fill="white" stroke="black" points="1387.5,-402.5 1387.5,-432.5 1515.5,-432.5 1515.5,-402.5 1387.5,-402.5"/>
<text text-anchor="start" x="1395.5" y="-420.5" font-family="Helvetica,sans-Serif" font-size="10.00">Library/include/playrho</text>
<text text-anchor="middle" x="1451.5" y="-409.5" font-family="Helvetica,sans-Serif" font-size="10.00">/d2/WeldJointConf.hpp</text>
</a>
</g>
</g>
<!-- Node6&#45;&gt;Node29 -->
<g id="edge53" class="edge">
<title>Node6&#45;&gt;Node29</title>
<path fill="none" stroke="midnightblue" d="M1056.16,-475.14C1135.16,-465.99 1263.38,-450.32 1373.5,-433 1377.99,-432.29 1382.62,-431.53 1387.28,-430.73"/>
<polygon fill="midnightblue" stroke="midnightblue" points="1055.36,-471.7 1045.82,-476.33 1056.16,-478.66 1055.36,-471.7"/>
</g>
<!-- Node30 -->
<g id="node30" class="node">
<title>Node30</title>
<g id="a_node30"><a xlink:href="WorldShape_8hpp.html" target="_top" xlink:title="Declarations of free functions of World for shapes identified by ShapeID.">
<polygon fill="white" stroke="black" points="1533.5,-402.5 1533.5,-432.5 1661.5,-432.5 1661.5,-402.5 1533.5,-402.5"/>
<text text-anchor="start" x="1541.5" y="-420.5" font-family="Helvetica,sans-Serif" font-size="10.00">Library/include/playrho</text>
<text text-anchor="middle" x="1597.5" y="-409.5" font-family="Helvetica,sans-Serif" font-size="10.00">/d2/WorldShape.hpp</text>
</a>
</g>
</g>
<!-- Node6&#45;&gt;Node30 -->
<g id="edge56" class="edge">
<title>Node6&#45;&gt;Node30</title>
<path fill="none" stroke="midnightblue" d="M1055.87,-479.03C1160.74,-472.16 1357.89,-457.23 1524.5,-433 1527.44,-432.57 1530.44,-432.1 1533.47,-431.61"/>
<polygon fill="midnightblue" stroke="midnightblue" points="1055.45,-475.55 1045.7,-479.69 1055.91,-482.53 1055.45,-475.55"/>
</g>
<!-- Node7&#45;&gt;Node3 -->
<g id="edge9" class="edge">
<title>Node7&#45;&gt;Node3</title>
<path fill="none" stroke="midnightblue" d="M1672.72,-325.71C1663.87,-299.56 1651.5,-256.13 1651.5,-217.5 1651.5,-217.5 1651.5,-217.5 1651.5,-148.5 1651.5,-103.26 1630.03,-89.02 1590.5,-67 1505.08,-19.42 1214.37,-15.13 1083.85,-15.7"/>
<polygon fill="midnightblue" stroke="midnightblue" points="1669.53,-327.2 1676.14,-335.48 1676.14,-324.88 1669.53,-327.2"/>
</g>
<!-- Node9 -->
<g id="node9" class="node">
<title>Node9</title>
<g id="a_node9"><a xlink:href="JointModel_8hpp.html" target="_top" xlink:title="Definition of the internal JointModel class.">
<polygon fill="white" stroke="black" points="331.5,-335.5 331.5,-365.5 469.5,-365.5 469.5,-335.5 331.5,-335.5"/>
<text text-anchor="start" x="339.5" y="-353.5" font-family="Helvetica,sans-Serif" font-size="10.00">Library/include/playrho</text>
<text text-anchor="middle" x="400.5" y="-342.5" font-family="Helvetica,sans-Serif" font-size="10.00">/d2/detail/JointModel.hpp</text>
</a>
</g>
</g>
<!-- Node8&#45;&gt;Node9 -->
<g id="edge11" class="edge">
<title>Node8&#45;&gt;Node9</title>
<path fill="none" stroke="midnightblue" d="M397.35,-392.4C398.05,-383.37 398.81,-373.41 399.42,-365.58"/>
<polygon fill="midnightblue" stroke="midnightblue" points="393.86,-392.16 396.58,-402.4 400.84,-392.69 393.86,-392.16"/>
</g>
<!-- Node8&#45;&gt;Node10 -->
<g id="edge21" class="edge">
<title>Node8&#45;&gt;Node10</title>
<path fill="none" stroke="midnightblue" d="M353.24,-397.08C341.09,-389.25 329.29,-378.96 322.5,-366 316.1,-353.8 315.33,-346.76 322.5,-335 332.96,-317.84 351.33,-306.26 369.35,-298.57"/>
<polygon fill="midnightblue" stroke="midnightblue" points="351.71,-400.23 362.09,-402.34 355.29,-394.22 351.71,-400.23"/>
</g>
<!-- Node9&#45;&gt;Node10 -->
<g id="edge12" class="edge">
<title>Node9&#45;&gt;Node10</title>
<path fill="none" stroke="midnightblue" d="M407.82,-325.7C410.63,-316.59 413.73,-306.49 416.17,-298.58"/>
<polygon fill="midnightblue" stroke="midnightblue" points="404.44,-324.81 404.84,-335.4 411.13,-326.87 404.44,-324.81"/>
</g>
<!-- Node10&#45;&gt;Node11 -->
<g id="edge13" class="edge">
<title>Node10&#45;&gt;Node11</title>
<path fill="none" stroke="midnightblue" d="M456.63,-263.71C476.34,-253.46 500.34,-240.98 518.43,-231.58"/>
<polygon fill="midnightblue" stroke="midnightblue" points="454.88,-260.68 447.62,-268.4 458.11,-266.89 454.88,-260.68"/>
</g>
<!-- Node10&#45;&gt;Node13 -->
<g id="edge18" class="edge">
<title>Node10&#45;&gt;Node13</title>
<path fill="none" stroke="midnightblue" d="M422.35,-257.95C425.67,-220.5 433.9,-151.58 450.5,-134 468.01,-115.45 529.44,-101.47 578.16,-92.98"/>
<polygon fill="midnightblue" stroke="midnightblue" points="418.85,-257.79 421.51,-268.04 425.83,-258.37 418.85,-257.79"/>
</g>
<!-- Node14 -->
<g id="node14" class="node">
<title>Node14</title>
<g id="a_node14"><a xlink:href="WorldJoint_8hpp.html" target="_top" xlink:title="Declarations of free functions of World for joints identified by JointID.">
<polygon fill="white" stroke="black" points="284.5,-201.5 284.5,-231.5 412.5,-231.5 412.5,-201.5 284.5,-201.5"/>
<text text-anchor="start" x="292.5" y="-219.5" font-family="Helvetica,sans-Serif" font-size="10.00">Library/include/playrho</text>
<text text-anchor="middle" x="348.5" y="-208.5" font-family="Helvetica,sans-Serif" font-size="10.00">/d2/WorldJoint.hpp</text>
</a>
</g>
</g>
<!-- Node10&#45;&gt;Node14 -->
<g id="edge19" class="edge">
<title>Node10&#45;&gt;Node14</title>
<path fill="none" stroke="midnightblue" d="M397.35,-261.6C386.48,-251.78 373.8,-240.34 364.09,-231.58"/>
<polygon fill="midnightblue" stroke="midnightblue" points="395.11,-264.29 404.88,-268.4 399.8,-259.1 395.11,-264.29"/>
</g>
<!-- Node12 -->
<g id="node12" class="node">
<title>Node12</title>
<g id="a_node12"><a xlink:href="WorldModel_8hpp.html" target="_top" xlink:title="Definitions of the WorldModel class and closely related code.">
<polygon fill="white" stroke="black" points="459.5,-134.5 459.5,-164.5 603.5,-164.5 603.5,-134.5 459.5,-134.5"/>
<text text-anchor="start" x="467.5" y="-152.5" font-family="Helvetica,sans-Serif" font-size="10.00">Library/include/playrho</text>
<text text-anchor="middle" x="531.5" y="-141.5" font-family="Helvetica,sans-Serif" font-size="10.00">/d2/detail/WorldModel.hpp</text>
</a>
</g>
</g>
<!-- Node11&#45;&gt;Node12 -->
<g id="edge14" class="edge">
<title>Node11&#45;&gt;Node12</title>
<path fill="none" stroke="midnightblue" d="M540.31,-191.4C538.36,-182.37 536.22,-172.41 534.53,-164.58"/>
<polygon fill="midnightblue" stroke="midnightblue" points="536.94,-192.36 542.46,-201.4 543.78,-190.88 536.94,-192.36"/>
</g>
<!-- Node11&#45;&gt;Node13 -->
<g id="edge17" class="edge">
<title>Node11&#45;&gt;Node13</title>
<path fill="none" stroke="midnightblue" d="M579.1,-195.85C590.96,-187.57 603.55,-177.04 612.5,-165 627.87,-144.3 636.09,-114.89 639.86,-97.64"/>
<polygon fill="midnightblue" stroke="midnightblue" points="577.05,-193.02 570.66,-201.48 580.93,-198.85 577.05,-193.02"/>
</g>
<!-- Node12&#45;&gt;Node13 -->
<g id="edge15" class="edge">
<title>Node12&#45;&gt;Node13</title>
<path fill="none" stroke="midnightblue" d="M564.3,-129.3C581.66,-119.12 602.62,-106.85 618.46,-97.58"/>
<polygon fill="midnightblue" stroke="midnightblue" points="562.45,-126.32 555.59,-134.4 565.98,-132.36 562.45,-126.32"/>
</g>
<!-- Node13&#45;&gt;Node3 -->
<g id="edge16" class="edge">
<title>Node13&#45;&gt;Node3</title>
<path fill="none" stroke="midnightblue" d="M716.9,-68.67C786.49,-56.67 889.34,-38.94 955.39,-27.55"/>
<polygon fill="midnightblue" stroke="midnightblue" points="716.14,-65.25 706.88,-70.4 717.33,-72.15 716.14,-65.25"/>
</g>
<!-- Node14&#45;&gt;Node3 -->
<g id="edge20" class="edge">
<title>Node14&#45;&gt;Node3</title>
<path fill="none" stroke="midnightblue" d="M367.51,-193.9C383.8,-176.27 408.52,-151.5 433.5,-134 488.69,-95.34 504.83,-85.93 569.5,-67 702.86,-27.97 866.58,-18.76 955.17,-16.8"/>
<polygon fill="midnightblue" stroke="midnightblue" points="364.78,-191.7 360.65,-201.45 369.96,-196.41 364.78,-191.7"/>
</g>
<!-- Node16 -->
<g id="node16" class="node">
<title>Node16</title>
<g id="a_node16"><a xlink:href="ShapeModel_8hpp.html" target="_top" xlink:title="Definition of the ShapeModel class and related code.">
<polygon fill="white" stroke="black" points="601.5,-335.5 601.5,-365.5 747.5,-365.5 747.5,-335.5 601.5,-335.5"/>
<text text-anchor="start" x="609.5" y="-353.5" font-family="Helvetica,sans-Serif" font-size="10.00">Library/include/playrho</text>
<text text-anchor="middle" x="674.5" y="-342.5" font-family="Helvetica,sans-Serif" font-size="10.00">/d2/detail/ShapeModel.hpp</text>
</a>
</g>
</g>
<!-- Node15&#45;&gt;Node16 -->
<g id="edge23" class="edge">
<title>Node15&#45;&gt;Node16</title>
<path fill="none" stroke="midnightblue" d="M671.35,-392.4C672.05,-383.37 672.81,-373.41 673.42,-365.58"/>
<polygon fill="midnightblue" stroke="midnightblue" points="667.86,-392.16 670.58,-402.4 674.84,-392.69 667.86,-392.16"/>
</g>
<!-- Node15&#45;&gt;Node17 -->
<g id="edge27" class="edge">
<title>Node15&#45;&gt;Node17</title>
<path fill="none" stroke="midnightblue" d="M624.7,-397.37C611.98,-389.6 599.66,-379.26 592.5,-366 580.21,-343.24 599.12,-315.25 613.58,-298.7"/>
<polygon fill="midnightblue" stroke="midnightblue" points="623.08,-400.48 633.51,-402.35 626.52,-394.38 623.08,-400.48"/>
</g>
<!-- Node16&#45;&gt;Node17 -->
<g id="edge24" class="edge">
<title>Node16&#45;&gt;Node17</title>
<path fill="none" stroke="midnightblue" d="M658.34,-327.16C651.49,-317.68 643.71,-306.92 637.68,-298.58"/>
<polygon fill="midnightblue" stroke="midnightblue" points="655.61,-329.34 664.3,-335.4 661.28,-325.24 655.61,-329.34"/>
</g>
<!-- Node17&#45;&gt;Node11 -->
<g id="edge25" class="edge">
<title>Node17&#45;&gt;Node11</title>
<path fill="none" stroke="midnightblue" d="M601.85,-262.17C589.31,-252.23 574.53,-240.51 563.26,-231.58"/>
<polygon fill="midnightblue" stroke="midnightblue" points="599.7,-264.93 609.71,-268.4 604.04,-259.44 599.7,-264.93"/>
</g>
<!-- Node17&#45;&gt;Node13 -->
<g id="edge26" class="edge">
<title>Node17&#45;&gt;Node13</title>
<path fill="none" stroke="midnightblue" d="M629.45,-258.19C630.11,-249.88 630.85,-240.54 631.5,-232 635.27,-182.77 639.54,-124.34 641.46,-97.84"/>
<polygon fill="midnightblue" stroke="midnightblue" points="625.95,-258.11 628.64,-268.35 632.92,-258.66 625.95,-258.11"/>
</g>
<!-- Node18&#45;&gt;Node3 -->
<g id="edge30" class="edge">
<title>Node18&#45;&gt;Node3</title>
<path fill="none" stroke="midnightblue" d="M785.63,-261.5C777.21,-253.3 768.97,-243.18 764.5,-232 742.24,-176.26 776.75,-98.46 811.5,-67 832.5,-47.98 902.3,-33.7 955.29,-25.26"/>
<polygon fill="midnightblue" stroke="midnightblue" points="783.54,-264.33 793.3,-268.45 788.25,-259.14 783.54,-264.33"/>
</g>
<!-- Node19&#45;&gt;Node3 -->
<g id="edge32" class="edge">
<title>Node19&#45;&gt;Node3</title>
<path fill="none" stroke="midnightblue" d="M824.24,-193.38C817.92,-185.1 811.76,-175.2 808.5,-165 794.31,-120.66 809.13,-96.07 845.5,-67 876.7,-42.06 919.77,-29.43 955.25,-23.05"/>
<polygon fill="midnightblue" stroke="midnightblue" points="821.73,-195.85 830.76,-201.39 827.16,-191.42 821.73,-195.85"/>
</g>
<!-- Node20&#45;&gt;Node3 -->
<g id="edge34" class="edge">
<title>Node20&#45;&gt;Node3</title>
<path fill="none" stroke="midnightblue" d="M866.22,-126.47C853.44,-109.09 841.27,-84.88 854.5,-67 877.57,-35.81 919.52,-23.25 955.35,-18.46"/>
<polygon fill="midnightblue" stroke="midnightblue" points="863.5,-128.68 872.43,-134.39 869.01,-124.36 863.5,-128.68"/>
</g>
<!-- Node21&#45;&gt;Node3 -->
<g id="edge36" class="edge">
<title>Node21&#45;&gt;Node3</title>
<path fill="none" stroke="midnightblue" d="M955.88,-61.45C970.03,-51.45 986.81,-39.6 999.58,-30.58"/>
<polygon fill="midnightblue" stroke="midnightblue" points="953.61,-58.77 947.46,-67.4 957.65,-64.48 953.61,-58.77"/>
</g>
<!-- Node22&#45;&gt;Node3 -->
<g id="edge39" class="edge">
<title>Node22&#45;&gt;Node3</title>
<path fill="none" stroke="midnightblue" d="M1055.34,-327.19C1049.23,-318.77 1042.87,-308.84 1038.5,-299 1023.42,-265 1019.5,-254.69 1019.5,-217.5 1019.5,-217.5 1019.5,-217.5 1019.5,-148.5 1019.5,-105.65 1019.5,-54.97 1019.5,-30.76"/>
<polygon fill="midnightblue" stroke="midnightblue" points="1052.69,-329.49 1061.52,-335.36 1058.27,-325.27 1052.69,-329.49"/>
</g>
<!-- Node23&#45;&gt;Node3 -->
<g id="edge41" class="edge">
<title>Node23&#45;&gt;Node3</title>
<path fill="none" stroke="midnightblue" d="M1094.61,-260.53C1088.1,-252.06 1081.26,-242.01 1076.5,-232 1043.97,-163.55 1053.18,-140.18 1033.5,-67 1030.19,-54.7 1026.32,-40.75 1023.48,-30.63"/>
<polygon fill="midnightblue" stroke="midnightblue" points="1091.93,-262.79 1100.91,-268.41 1097.4,-258.42 1091.93,-262.79"/>
</g>
<!-- Node24&#45;&gt;Node3 -->
<g id="edge43" class="edge">
<title>Node24&#45;&gt;Node3</title>
<path fill="none" stroke="midnightblue" d="M1141.59,-193.21C1135.32,-184.58 1128.32,-174.5 1122.5,-165 1096.85,-123.13 1100.82,-106.39 1071.5,-67 1061.43,-53.47 1047.65,-40.27 1036.81,-30.76"/>
<polygon fill="midnightblue" stroke="midnightblue" points="1138.8,-195.31 1147.55,-201.28 1144.43,-191.16 1138.8,-195.31"/>
</g>
<!-- Node25&#45;&gt;Node3 -->
<g id="edge45" class="edge">
<title>Node25&#45;&gt;Node3</title>
<path fill="none" stroke="midnightblue" d="M1176.7,-126.94C1160.06,-109.52 1135.1,-85.03 1110.5,-67 1091.26,-52.9 1067.67,-39.91 1049.33,-30.64"/>
<polygon fill="midnightblue" stroke="midnightblue" points="1174.33,-129.52 1183.74,-134.39 1179.42,-124.71 1174.33,-129.52"/>
</g>
<!-- Node26&#45;&gt;Node3 -->
<g id="edge47" class="edge">
<title>Node26&#45;&gt;Node3</title>
<path fill="none" stroke="midnightblue" d="M1179.27,-64.58C1144.19,-54.02 1099.56,-40.59 1066.39,-30.61"/>
<polygon fill="midnightblue" stroke="midnightblue" points="1178.31,-67.95 1188.9,-67.48 1180.33,-61.24 1178.31,-67.95"/>
</g>
<!-- Node27&#45;&gt;Node3 -->
<g id="edge49" class="edge">
<title>Node27&#45;&gt;Node3</title>
<path fill="none" stroke="midnightblue" d="M1363.76,-325.92C1351.96,-300.01 1335.5,-256.82 1335.5,-217.5 1335.5,-217.5 1335.5,-217.5 1335.5,-148.5 1335.5,-111.2 1342.8,-92.41 1315.5,-67 1282.68,-36.45 1160.34,-24.16 1083.59,-19.38"/>
<polygon fill="midnightblue" stroke="midnightblue" points="1360.74,-327.72 1368.16,-335.28 1367.07,-324.74 1360.74,-327.72"/>
</g>
<!-- Node28&#45;&gt;Node3 -->
<g id="edge52" class="edge">
<title>Node28&#45;&gt;Node3</title>
<path fill="none" stroke="midnightblue" d="M1427.3,-258.35C1423.64,-213.06 1408.91,-115.6 1349.5,-67 1309.91,-34.61 1168.05,-22.88 1083.75,-18.72"/>
<polygon fill="midnightblue" stroke="midnightblue" points="1423.81,-258.69 1427.99,-268.43 1430.79,-258.21 1423.81,-258.69"/>
</g>
<!-- Node29&#45;&gt;Node3 -->
<g id="edge54" class="edge">
<title>Node29&#45;&gt;Node3</title>
<path fill="none" stroke="midnightblue" d="M1471.63,-394.69C1492.31,-369.92 1521.5,-327.38 1521.5,-284.5 1521.5,-284.5 1521.5,-284.5 1521.5,-148.5 1521.5,-58.95 1218.92,-28.88 1083.59,-19.92"/>
<polygon fill="midnightblue" stroke="midnightblue" points="1468.88,-392.52 1465,-402.38 1474.18,-397.09 1468.88,-392.52"/>
</g>
<!-- Node30&#45;&gt;Node3 -->
<g id="edge57" class="edge">
<title>Node30&#45;&gt;Node3</title>
<path fill="none" stroke="midnightblue" d="M1591.35,-392.53C1585.16,-366.21 1576.5,-322.64 1576.5,-284.5 1576.5,-284.5 1576.5,-284.5 1576.5,-148.5 1576.5,-48.19 1230.13,-24 1083.67,-18.25"/>
<polygon fill="midnightblue" stroke="midnightblue" points="1587.98,-393.47 1593.75,-402.36 1594.78,-391.81 1587.98,-393.47"/>
</g>
</g>
</svg>
