<?xml version="1.0" encoding="UTF-8" standalone="no"?>
<!DOCTYPE svg PUBLIC "-//W3C//DTD SVG 1.1//EN"
 "http://www.w3.org/Graphics/SVG/1.1/DTD/svg11.dtd">
<!-- Generated by graphviz version 2.43.0 (0)
 -->
<!-- Title: Library/include/playrho/detail/AABB.hpp Pages: 1 -->
<svg width="1857pt" height="621pt"
 viewBox="0.00 0.00 1857.00 621.00" xmlns="http://www.w3.org/2000/svg" xmlns:xlink="http://www.w3.org/1999/xlink">
<g id="graph0" class="graph" transform="scale(1 1) rotate(0) translate(4 617)">
<title>Library/include/playrho/detail/AABB.hpp</title>
<polygon fill="white" stroke="transparent" points="-4,4 -4,-617 1853,-617 1853,4 -4,4"/>
<!-- Node1 -->
<g id="node1" class="node">
<title>Node1</title>
<g id="a_node1"><a xlink:title="Declaration of the AABB class and free functions that return instances of it.">
<polygon fill="#bfbfbf" stroke="black" points="634,-582.5 634,-612.5 762,-612.5 762,-582.5 634,-582.5"/>
<text text-anchor="start" x="642" y="-600.5" font-family="Helvetica,sans-Serif" font-size="10.00">Library/include/playrho</text>
<text text-anchor="middle" x="698" y="-589.5" font-family="Helvetica,sans-Serif" font-size="10.00">/detail/AABB.hpp</text>
</a>
</g>
</g>
<!-- Node2 -->
<g id="node2" class="node">
<title>Node2</title>
<g id="a_node2"><a xlink:title=" ">
<polygon fill="white" stroke="#bfbfbf" points="82,-0.5 82,-19.5 146,-19.5 146,-0.5 82,-0.5"/>
<text text-anchor="middle" x="114" y="-7.5" font-family="Helvetica,sans-Serif" font-size="10.00">algorithm</text>
</a>
</g>
</g>
<!-- Node1&#45;&gt;Node2 -->
<g id="edge1" class="edge">
<title>Node1&#45;&gt;Node2</title>
<path fill="none" stroke="midnightblue" d="M633.62,-596.31C532.14,-594.69 329.42,-586.16 163,-546 87.18,-527.71 0,-558.99 0,-481 0,-481 0,-481 0,-121 0,-74.11 50.55,-40.89 84.33,-23.93"/>
<polygon fill="midnightblue" stroke="midnightblue" points="85.87,-27.07 93.36,-19.58 82.83,-20.77 85.87,-27.07"/>
</g>
<!-- Node3 -->
<g id="node3" class="node">
<title>Node3</title>
<g id="a_node3"><a xlink:title=" ">
<polygon fill="white" stroke="#bfbfbf" points="367.5,-0.5 367.5,-19.5 412.5,-19.5 412.5,-0.5 367.5,-0.5"/>
<text text-anchor="middle" x="390" y="-7.5" font-family="Helvetica,sans-Serif" font-size="10.00">utility</text>
</a>
</g>
</g>
<!-- Node1&#45;&gt;Node3 -->
<g id="edge2" class="edge">
<title>Node1&#45;&gt;Node3</title>
<path fill="none" stroke="midnightblue" d="M633.78,-591.28C474.86,-577.49 76,-537.29 76,-481 76,-481 76,-481 76,-244 76,-104.97 276.97,-39.27 357.35,-18.55"/>
<polygon fill="midnightblue" stroke="midnightblue" points="358.57,-21.85 367.42,-16.03 356.87,-15.06 358.57,-21.85"/>
</g>
<!-- Node4 -->
<g id="node4" class="node">
<title>Node4</title>
<g id="a_node4"><a xlink:href="Intervals_8hpp.html" target="_top" xlink:title="Alias for an Interval of Length .">
<polygon fill="white" stroke="black" points="682,-526.5 682,-545.5 802,-545.5 802,-526.5 682,-526.5"/>
<text text-anchor="middle" x="742" y="-533.5" font-family="Helvetica,sans-Serif" font-size="10.00">playrho/Intervals.hpp</text>
</a>
</g>
</g>
<!-- Node1&#45;&gt;Node4 -->
<g id="edge3" class="edge">
<title>Node1&#45;&gt;Node4</title>
<path fill="none" stroke="midnightblue" d="M708.43,-582.4C714.76,-573.84 722.87,-562.87 729.53,-553.86"/>
<polygon fill="midnightblue" stroke="midnightblue" points="732.47,-555.78 735.6,-545.66 726.84,-551.62 732.47,-555.78"/>
</g>
<!-- Node13 -->
<g id="node13" class="node">
<title>Node13</title>
<g id="a_node13"><a xlink:href="Templates_8hpp.html" target="_top" xlink:title="Definitions of miscellaneous template related code.">
<polygon fill="white" stroke="black" points="844,-112.5 844,-131.5 972,-131.5 972,-112.5 844,-112.5"/>
<text text-anchor="middle" x="908" y="-119.5" font-family="Helvetica,sans-Serif" font-size="10.00">playrho/Templates.hpp</text>
</a>
</g>
</g>
<!-- Node1&#45;&gt;Node13 -->
<g id="edge82" class="edge">
<title>Node1&#45;&gt;Node13</title>
<path fill="none" stroke="midnightblue" d="M753.5,-582.48C774.08,-574.77 796.02,-563.16 811,-546 830.79,-523.32 830,-511.1 830,-481 830,-481 830,-481 830,-423 830,-312.66 880.03,-186.63 899.95,-140.82"/>
<polygon fill="midnightblue" stroke="midnightblue" points="903.18,-142.18 904.02,-131.62 896.78,-139.35 903.18,-142.18"/>
</g>
<!-- Node38 -->
<g id="node38" class="node">
<title>Node38</title>
<g id="a_node38"><a xlink:href="Vector_8hpp.html" target="_top" xlink:title="Definition of the Vector class template and closely related code.">
<polygon fill="white" stroke="black" points="662.5,-414.5 662.5,-433.5 769.5,-433.5 769.5,-414.5 662.5,-414.5"/>
<text text-anchor="middle" x="716" y="-421.5" font-family="Helvetica,sans-Serif" font-size="10.00">playrho/Vector.hpp</text>
</a>
</g>
</g>
<!-- Node1&#45;&gt;Node38 -->
<g id="edge59" class="edge">
<title>Node1&#45;&gt;Node38</title>
<path fill="none" stroke="midnightblue" d="M688.67,-582.15C682.9,-572.4 676.03,-558.95 673,-546 670.97,-537.34 671.22,-534.71 673,-526 679.29,-495.15 695.37,-462.06 705.98,-442.46"/>
<polygon fill="midnightblue" stroke="midnightblue" points="709.15,-443.97 710.96,-433.53 703.03,-440.56 709.15,-443.97"/>
</g>
<!-- Node40 -->
<g id="node40" class="node">
<title>Node40</title>
<g id="a_node40"><a xlink:href="Settings_8hpp.html" target="_top" xlink:title="Types and default settings file.">
<polygon fill="white" stroke="black" points="1143.5,-526.5 1143.5,-545.5 1260.5,-545.5 1260.5,-526.5 1143.5,-526.5"/>
<text text-anchor="middle" x="1202" y="-533.5" font-family="Helvetica,sans-Serif" font-size="10.00">playrho/Settings.hpp</text>
</a>
</g>
</g>
<!-- Node1&#45;&gt;Node40 -->
<g id="edge70" class="edge">
<title>Node1&#45;&gt;Node40</title>
<path fill="none" stroke="midnightblue" d="M762.09,-588.93C857.34,-577.69 1035.54,-556.65 1133.36,-545.1"/>
<polygon fill="midnightblue" stroke="midnightblue" points="1133.92,-548.56 1143.44,-543.91 1133.09,-541.61 1133.92,-548.56"/>
</g>
<!-- Node5 -->
<g id="node5" class="node">
<title>Node5</title>
<g id="a_node5"><a xlink:href="Interval_8hpp.html" target="_top" xlink:title="Definition of the Interval class template and closely related code.">
<polygon fill="white" stroke="black" points="450.5,-291.5 450.5,-310.5 565.5,-310.5 565.5,-291.5 450.5,-291.5"/>
<text text-anchor="middle" x="508" y="-298.5" font-family="Helvetica,sans-Serif" font-size="10.00">playrho/Interval.hpp</text>
</a>
</g>
</g>
<!-- Node4&#45;&gt;Node5 -->
<g id="edge4" class="edge">
<title>Node4&#45;&gt;Node5</title>
<path fill="none" stroke="midnightblue" d="M733.39,-526.43C698.86,-492.04 569.99,-363.72 524.24,-318.17"/>
<polygon fill="midnightblue" stroke="midnightblue" points="526.49,-315.47 516.93,-310.9 521.55,-320.43 526.49,-315.47"/>
</g>
<!-- Node18 -->
<g id="node18" class="node">
<title>Node18</title>
<g id="a_node18"><a xlink:href="Units_8hpp.html" target="_top" xlink:title="Declarations for physical units possibly backed by strong types.">
<polygon fill="white" stroke="black" points="1150.5,-470.5 1150.5,-489.5 1253.5,-489.5 1253.5,-470.5 1150.5,-470.5"/>
<text text-anchor="middle" x="1202" y="-477.5" font-family="Helvetica,sans-Serif" font-size="10.00">playrho/Units.hpp</text>
</a>
</g>
</g>
<!-- Node4&#45;&gt;Node18 -->
<g id="edge25" class="edge">
<title>Node4&#45;&gt;Node18</title>
<path fill="none" stroke="midnightblue" d="M802.14,-527.94C889.75,-517.66 1051.66,-498.65 1140.2,-488.25"/>
<polygon fill="midnightblue" stroke="midnightblue" points="1140.84,-491.7 1150.36,-487.06 1140.02,-484.75 1140.84,-491.7"/>
</g>
<!-- Node5&#45;&gt;Node2 -->
<g id="edge5" class="edge">
<title>Node5&#45;&gt;Node2</title>
<path fill="none" stroke="midnightblue" d="M450.41,-293.39C349.65,-280.22 152,-246.47 152,-184.5 152,-184.5 152,-184.5 152,-121 152,-86.81 135.4,-49.76 124.14,-28.57"/>
<polygon fill="midnightblue" stroke="midnightblue" points="127.18,-26.83 119.28,-19.77 121.05,-30.22 127.18,-26.83"/>
</g>
<!-- Node6 -->
<g id="node6" class="node">
<title>Node6</title>
<g id="a_node6"><a xlink:title=" ">
<polygon fill="white" stroke="#bfbfbf" points="1536,-0.5 1536,-19.5 1580,-19.5 1580,-0.5 1536,-0.5"/>
<text text-anchor="middle" x="1558" y="-7.5" font-family="Helvetica,sans-Serif" font-size="10.00">limits</text>
</a>
</g>
</g>
<!-- Node5&#45;&gt;Node6 -->
<g id="edge6" class="edge">
<title>Node5&#45;&gt;Node6</title>
<path fill="none" stroke="midnightblue" d="M565.71,-296.05C755.4,-282.75 1351.99,-238.19 1429,-199 1494.36,-165.74 1503.74,-140.3 1539,-76 1546.95,-61.5 1551.9,-43.32 1554.75,-29.87"/>
<polygon fill="midnightblue" stroke="midnightblue" points="1558.22,-30.36 1556.66,-19.88 1551.34,-29.04 1558.22,-30.36"/>
</g>
<!-- Node7 -->
<g id="node7" class="node">
<title>Node7</title>
<g id="a_node7"><a xlink:title=" ">
<polygon fill="white" stroke="#bfbfbf" points="592,-112.5 592,-131.5 652,-131.5 652,-112.5 592,-112.5"/>
<text text-anchor="middle" x="622" y="-119.5" font-family="Helvetica,sans-Serif" font-size="10.00">iostream</text>
</a>
</g>
</g>
<!-- Node5&#45;&gt;Node7 -->
<g id="edge7" class="edge">
<title>Node5&#45;&gt;Node7</title>
<path fill="none" stroke="midnightblue" d="M528.5,-291.44C544.11,-283.95 565.06,-271.66 578,-255 604.72,-220.62 615.62,-169.21 619.74,-141.8"/>
<polygon fill="midnightblue" stroke="midnightblue" points="623.24,-142.02 621.11,-131.64 616.31,-141.08 623.24,-142.02"/>
</g>
<!-- Node8 -->
<g id="node8" class="node">
<title>Node8</title>
<g id="a_node8"><a xlink:title=" ">
<polygon fill="white" stroke="#bfbfbf" points="784.5,-0.5 784.5,-19.5 853.5,-19.5 853.5,-0.5 784.5,-0.5"/>
<text text-anchor="middle" x="819" y="-7.5" font-family="Helvetica,sans-Serif" font-size="10.00">type_traits</text>
</a>
</g>
</g>
<!-- Node5&#45;&gt;Node8 -->
<g id="edge8" class="edge">
<title>Node5&#45;&gt;Node8</title>
<path fill="none" stroke="midnightblue" d="M516.09,-291.35C523.76,-282.74 535.09,-268.84 542,-255 571.54,-195.85 539.26,-161.58 583,-112 590.26,-103.77 726.05,-48.42 788.29,-23.32"/>
<polygon fill="midnightblue" stroke="midnightblue" points="789.65,-26.55 797.62,-19.57 787.04,-20.06 789.65,-26.55"/>
</g>
<!-- Node9 -->
<g id="node9" class="node">
<title>Node9</title>
<g id="a_node9"><a xlink:href="NonNegative_8hpp.html" target="_top" xlink:title="Definition of the NonNegative value checked types.">
<polygon fill="white" stroke="black" points="391.5,-235.5 391.5,-254.5 532.5,-254.5 532.5,-235.5 391.5,-235.5"/>
<text text-anchor="middle" x="462" y="-242.5" font-family="Helvetica,sans-Serif" font-size="10.00">playrho/NonNegative.hpp</text>
</a>
</g>
</g>
<!-- Node5&#45;&gt;Node9 -->
<g id="edge9" class="edge">
<title>Node5&#45;&gt;Node9</title>
<path fill="none" stroke="midnightblue" d="M500.4,-291.08C493.77,-283.3 483.98,-271.8 475.94,-262.37"/>
<polygon fill="midnightblue" stroke="midnightblue" points="478.6,-260.09 469.45,-254.75 473.27,-264.63 478.6,-260.09"/>
</g>
<!-- Node10 -->
<g id="node10" class="node">
<title>Node10</title>
<g id="a_node10"><a xlink:href="Checked_8hpp.html" target="_top" xlink:title="Declarations of the Checked class template and closely related code.">
<polygon fill="white" stroke="black" points="387.5,-174 387.5,-193 536.5,-193 536.5,-174 387.5,-174"/>
<text text-anchor="middle" x="462" y="-181" font-family="Helvetica,sans-Serif" font-size="10.00">playrho/detail/Checked.hpp</text>
</a>
</g>
</g>
<!-- Node9&#45;&gt;Node10 -->
<g id="edge10" class="edge">
<title>Node9&#45;&gt;Node10</title>
<path fill="none" stroke="midnightblue" d="M462,-235.48C462,-227.08 462,-213.98 462,-203.16"/>
<polygon fill="midnightblue" stroke="midnightblue" points="465.5,-203.01 462,-193.01 458.5,-203.01 465.5,-203.01"/>
</g>
<!-- Node17 -->
<g id="node17" class="node">
<title>Node17</title>
<g id="a_node17"><a xlink:href="NonNegativeChecker_8hpp.html" target="_top" xlink:title="Definition of the NonNegativeChecker class template.">
<polygon fill="white" stroke="black" points="218.5,-168.5 218.5,-198.5 369.5,-198.5 369.5,-168.5 218.5,-168.5"/>
<text text-anchor="start" x="226.5" y="-186.5" font-family="Helvetica,sans-Serif" font-size="10.00">playrho/detail/NonNegative</text>
<text text-anchor="middle" x="294" y="-175.5" font-family="Helvetica,sans-Serif" font-size="10.00">Checker.hpp</text>
</a>
</g>
</g>
<!-- Node9&#45;&gt;Node17 -->
<g id="edge24" class="edge">
<title>Node9&#45;&gt;Node17</title>
<path fill="none" stroke="midnightblue" d="M437.93,-235.48C413.37,-226.78 374.55,-213.03 343.41,-202"/>
<polygon fill="midnightblue" stroke="midnightblue" points="344.19,-198.56 333.59,-198.52 341.85,-205.16 344.19,-198.56"/>
</g>
<!-- Node10&#45;&gt;Node3 -->
<g id="edge13" class="edge">
<title>Node10&#45;&gt;Node3</title>
<path fill="none" stroke="midnightblue" d="M457.81,-173.75C449.2,-155.67 429.06,-112.79 414,-76 407.66,-60.52 401.13,-42.68 396.48,-29.61"/>
<polygon fill="midnightblue" stroke="midnightblue" points="399.69,-28.18 393.07,-19.91 393.09,-30.5 399.69,-28.18"/>
</g>
<!-- Node10&#45;&gt;Node7 -->
<g id="edge11" class="edge">
<title>Node10&#45;&gt;Node7</title>
<path fill="none" stroke="midnightblue" d="M484.92,-173.98C512.37,-163.77 558.52,-146.61 589.6,-135.05"/>
<polygon fill="midnightblue" stroke="midnightblue" points="590.97,-138.28 599.12,-131.51 588.53,-131.71 590.97,-138.28"/>
</g>
<!-- Node10&#45;&gt;Node8 -->
<g id="edge12" class="edge">
<title>Node10&#45;&gt;Node8</title>
<path fill="none" stroke="midnightblue" d="M471.23,-173.93C486.7,-159.84 519.2,-131.42 550,-112 556.05,-108.18 659.32,-58.57 666,-56 701.74,-42.22 743.54,-30.19 774.41,-22.05"/>
<polygon fill="midnightblue" stroke="midnightblue" points="775.64,-25.34 784.44,-19.44 773.88,-18.57 775.64,-25.34"/>
</g>
<!-- Node11 -->
<g id="node11" class="node">
<title>Node11</title>
<g id="a_node11"><a xlink:href="InvalidArgument_8hpp.html" target="_top" xlink:title="Definition of the InvalidArgument class.">
<polygon fill="white" stroke="black" points="218,-112.5 218,-131.5 376,-131.5 376,-112.5 218,-112.5"/>
<text text-anchor="middle" x="297" y="-119.5" font-family="Helvetica,sans-Serif" font-size="10.00">playrho/InvalidArgument.hpp</text>
</a>
</g>
</g>
<!-- Node10&#45;&gt;Node11 -->
<g id="edge14" class="edge">
<title>Node10&#45;&gt;Node11</title>
<path fill="none" stroke="midnightblue" d="M438.36,-173.98C410.06,-163.77 362.47,-146.61 330.41,-135.05"/>
<polygon fill="midnightblue" stroke="midnightblue" points="331.19,-131.61 320.6,-131.51 328.82,-138.19 331.19,-131.61"/>
</g>
<!-- Node10&#45;&gt;Node13 -->
<g id="edge16" class="edge">
<title>Node10&#45;&gt;Node13</title>
<path fill="none" stroke="midnightblue" d="M525.9,-173.98C607.46,-163.09 748.25,-144.31 834.27,-132.84"/>
<polygon fill="midnightblue" stroke="midnightblue" points="834.77,-136.3 844.22,-131.51 833.84,-129.36 834.77,-136.3"/>
</g>
<!-- Node12 -->
<g id="node12" class="node">
<title>Node12</title>
<g id="a_node12"><a xlink:title=" ">
<polygon fill="white" stroke="#bfbfbf" points="264.5,-56.5 264.5,-75.5 329.5,-75.5 329.5,-56.5 264.5,-56.5"/>
<text text-anchor="middle" x="297" y="-63.5" font-family="Helvetica,sans-Serif" font-size="10.00">stdexcept</text>
</a>
</g>
</g>
<!-- Node11&#45;&gt;Node12 -->
<g id="edge15" class="edge">
<title>Node11&#45;&gt;Node12</title>
<path fill="none" stroke="midnightblue" d="M297,-112.08C297,-105.01 297,-94.86 297,-85.99"/>
<polygon fill="midnightblue" stroke="midnightblue" points="300.5,-85.75 297,-75.75 293.5,-85.75 300.5,-85.75"/>
</g>
<!-- Node14 -->
<g id="node14" class="node">
<title>Node14</title>
<g id="a_node14"><a xlink:href="detail_2Templates_8hpp.html" target="_top" xlink:title="Low&#45;level declarations for general class &amp; function templates.">
<polygon fill="white" stroke="black" points="456,-56.5 456,-75.5 614,-75.5 614,-56.5 456,-56.5"/>
<text text-anchor="middle" x="535" y="-63.5" font-family="Helvetica,sans-Serif" font-size="10.00">playrho/detail/Templates.hpp</text>
</a>
</g>
</g>
<!-- Node13&#45;&gt;Node14 -->
<g id="edge17" class="edge">
<title>Node13&#45;&gt;Node14</title>
<path fill="none" stroke="midnightblue" d="M848.9,-112.44C782.33,-102.81 674.28,-87.16 603.92,-76.98"/>
<polygon fill="midnightblue" stroke="midnightblue" points="604.22,-73.49 593.83,-75.52 603.22,-80.41 604.22,-73.49"/>
</g>
<!-- Node14&#45;&gt;Node2 -->
<g id="edge18" class="edge">
<title>Node14&#45;&gt;Node2</title>
<path fill="none" stroke="midnightblue" d="M468.29,-56.44C380.78,-45.22 229.76,-25.85 156.42,-16.44"/>
<polygon fill="midnightblue" stroke="midnightblue" points="156.54,-12.93 146.18,-15.13 155.65,-19.87 156.54,-12.93"/>
</g>
<!-- Node14&#45;&gt;Node3 -->
<g id="edge23" class="edge">
<title>Node14&#45;&gt;Node3</title>
<path fill="none" stroke="midnightblue" d="M512.02,-56.44C487.84,-47.44 449.58,-33.19 422.35,-23.05"/>
<polygon fill="midnightblue" stroke="midnightblue" points="423.46,-19.73 412.87,-19.52 421.02,-26.29 423.46,-19.73"/>
</g>
<!-- Node14&#45;&gt;Node6 -->
<g id="edge21" class="edge">
<title>Node14&#45;&gt;Node6</title>
<path fill="none" stroke="midnightblue" d="M614.42,-60.81C823.97,-49.75 1385.33,-20.11 1525.79,-12.7"/>
<polygon fill="midnightblue" stroke="midnightblue" points="1526.1,-16.19 1535.9,-12.17 1525.73,-9.2 1526.1,-16.19"/>
</g>
<!-- Node14&#45;&gt;Node8 -->
<g id="edge22" class="edge">
<title>Node14&#45;&gt;Node8</title>
<path fill="none" stroke="midnightblue" d="M580,-56.44C633.23,-46.32 721.29,-29.58 774.36,-19.49"/>
<polygon fill="midnightblue" stroke="midnightblue" points="775.31,-22.87 784.48,-17.56 774.01,-15.99 775.31,-22.87"/>
</g>
<!-- Node15 -->
<g id="node15" class="node">
<title>Node15</title>
<g id="a_node15"><a xlink:title=" ">
<polygon fill="white" stroke="#bfbfbf" points="466.5,-0.5 466.5,-19.5 531.5,-19.5 531.5,-0.5 466.5,-0.5"/>
<text text-anchor="middle" x="499" y="-7.5" font-family="Helvetica,sans-Serif" font-size="10.00">functional</text>
</a>
</g>
</g>
<!-- Node14&#45;&gt;Node15 -->
<g id="edge19" class="edge">
<title>Node14&#45;&gt;Node15</title>
<path fill="none" stroke="midnightblue" d="M529.06,-56.08C524.02,-48.53 516.66,-37.49 510.49,-28.23"/>
<polygon fill="midnightblue" stroke="midnightblue" points="513.29,-26.13 504.83,-19.75 507.47,-30.01 513.29,-26.13"/>
</g>
<!-- Node16 -->
<g id="node16" class="node">
<title>Node16</title>
<g id="a_node16"><a xlink:title=" ">
<polygon fill="white" stroke="#bfbfbf" points="663.5,-0.5 663.5,-19.5 716.5,-19.5 716.5,-0.5 663.5,-0.5"/>
<text text-anchor="middle" x="690" y="-7.5" font-family="Helvetica,sans-Serif" font-size="10.00">iterator</text>
</a>
</g>
</g>
<!-- Node14&#45;&gt;Node16 -->
<g id="edge20" class="edge">
<title>Node14&#45;&gt;Node16</title>
<path fill="none" stroke="midnightblue" d="M559.56,-56.44C585.52,-47.4 626.67,-33.06 655.8,-22.92"/>
<polygon fill="midnightblue" stroke="midnightblue" points="657.26,-26.11 665.55,-19.52 654.96,-19.5 657.26,-26.11"/>
</g>
<!-- Node18&#45;&gt;Node8 -->
<g id="edge27" class="edge">
<title>Node18&#45;&gt;Node8</title>
<path fill="none" stroke="midnightblue" d="M1211.02,-470.34C1219.07,-461.93 1230.3,-448.36 1235,-434 1237.77,-425.55 1235.07,-422.89 1235,-414 1233.98,-277.16 1248.15,-227.66 1175,-112 1154.07,-78.91 1142.72,-72.03 1107,-56 1026.64,-19.93 922.43,-12.1 863.94,-10.79"/>
<polygon fill="midnightblue" stroke="midnightblue" points="863.97,-7.29 853.91,-10.62 863.85,-14.29 863.97,-7.29"/>
</g>
<!-- Node18&#45;&gt;Node13 -->
<g id="edge55" class="edge">
<title>Node18&#45;&gt;Node13</title>
<path fill="none" stroke="midnightblue" d="M1150.45,-472.62C1123.92,-466.77 1093.03,-455.54 1073,-434 1050.9,-410.24 1054,-395.95 1054,-363.5 1054,-363.5 1054,-363.5 1054,-300 1054,-240.21 1066.67,-213.61 1028,-168 1014.09,-151.59 993.57,-141.16 973.42,-134.53"/>
<polygon fill="midnightblue" stroke="midnightblue" points="974.17,-131.1 963.59,-131.57 972.15,-137.8 974.17,-131.1"/>
</g>
<!-- Node19 -->
<g id="node19" class="node">
<title>Node19</title>
<g id="a_node19"><a xlink:title=" ">
<polygon fill="white" stroke="#bfbfbf" points="1306.5,-235.5 1306.5,-254.5 1353.5,-254.5 1353.5,-235.5 1306.5,-235.5"/>
<text text-anchor="middle" x="1330" y="-242.5" font-family="Helvetica,sans-Serif" font-size="10.00">cmath</text>
</a>
</g>
</g>
<!-- Node18&#45;&gt;Node19 -->
<g id="edge26" class="edge">
<title>Node18&#45;&gt;Node19</title>
<path fill="none" stroke="midnightblue" d="M1220.74,-470.48C1235.52,-462.87 1255.65,-450.4 1268,-434 1273.31,-426.95 1310.06,-310.05 1324.34,-264.22"/>
<polygon fill="midnightblue" stroke="midnightblue" points="1327.68,-265.25 1327.31,-254.66 1321,-263.17 1327.68,-265.25"/>
</g>
<!-- Node20 -->
<g id="node20" class="node">
<title>Node20</title>
<g id="a_node20"><a xlink:href="RealConstants_8hpp.html" target="_top" xlink:title="Definitions file for constant expressions of type Real.">
<polygon fill="white" stroke="black" points="1358,-414.5 1358,-433.5 1506,-433.5 1506,-414.5 1358,-414.5"/>
<text text-anchor="middle" x="1432" y="-421.5" font-family="Helvetica,sans-Serif" font-size="10.00">playrho/RealConstants.hpp</text>
</a>
</g>
</g>
<!-- Node18&#45;&gt;Node20 -->
<g id="edge28" class="edge">
<title>Node18&#45;&gt;Node20</title>
<path fill="none" stroke="midnightblue" d="M1238.44,-470.44C1278.4,-461.06 1342.59,-445.99 1385.98,-435.8"/>
<polygon fill="midnightblue" stroke="midnightblue" points="1386.79,-439.21 1395.73,-433.52 1385.19,-432.39 1386.79,-439.21"/>
</g>
<!-- Node36 -->
<g id="node36" class="node">
<title>Node36</title>
<g id="a_node36"><a xlink:href="to__underlying_8hpp.html" target="_top" xlink:title="Definition of to_underlying function template.">
<polygon fill="white" stroke="black" points="1082,-414.5 1082,-433.5 1226,-433.5 1226,-414.5 1082,-414.5"/>
<text text-anchor="middle" x="1154" y="-421.5" font-family="Helvetica,sans-Serif" font-size="10.00">playrho/to_underlying.hpp</text>
</a>
</g>
</g>
<!-- Node18&#45;&gt;Node36 -->
<g id="edge56" class="edge">
<title>Node18&#45;&gt;Node36</title>
<path fill="none" stroke="midnightblue" d="M1194.07,-470.08C1187.15,-462.3 1176.93,-450.8 1168.55,-441.37"/>
<polygon fill="midnightblue" stroke="midnightblue" points="1171.04,-438.9 1161.78,-433.75 1165.81,-443.55 1171.04,-438.9"/>
</g>
<!-- Node21 -->
<g id="node21" class="node">
<title>Node21</title>
<g id="a_node21"><a xlink:href="Defines_8hpp.html" target="_top" xlink:title="Miscellaneous C&#45;preprocessor definitions.">
<polygon fill="white" stroke="black" points="1735,-112.5 1735,-131.5 1849,-131.5 1849,-112.5 1735,-112.5"/>
<text text-anchor="middle" x="1792" y="-119.5" font-family="Helvetica,sans-Serif" font-size="10.00">playrho/Defines.hpp</text>
</a>
</g>
</g>
<!-- Node20&#45;&gt;Node21 -->
<g id="edge29" class="edge">
<title>Node20&#45;&gt;Node21</title>
<path fill="none" stroke="midnightblue" d="M1473.62,-414.48C1558.83,-394.46 1751,-335.42 1821,-199 1831.02,-179.46 1818.17,-155.62 1806.54,-139.91"/>
<polygon fill="midnightblue" stroke="midnightblue" points="1808.97,-137.35 1800.01,-131.7 1803.49,-141.7 1808.97,-137.35"/>
</g>
<!-- Node22 -->
<g id="node22" class="node">
<title>Node22</title>
<g id="a_node22"><a xlink:href="Real_8hpp.html" target="_top" xlink:title="Real number definition file.">
<polygon fill="white" stroke="black" points="1382.5,-353 1382.5,-372 1481.5,-372 1481.5,-353 1382.5,-353"/>
<text text-anchor="middle" x="1432" y="-360" font-family="Helvetica,sans-Serif" font-size="10.00">playrho/Real.hpp</text>
</a>
</g>
</g>
<!-- Node20&#45;&gt;Node22 -->
<g id="edge30" class="edge">
<title>Node20&#45;&gt;Node22</title>
<path fill="none" stroke="midnightblue" d="M1432,-414.48C1432,-406.08 1432,-392.98 1432,-382.16"/>
<polygon fill="midnightblue" stroke="midnightblue" points="1435.5,-382.01 1432,-372.01 1428.5,-382.01 1435.5,-382.01"/>
</g>
<!-- Node23 -->
<g id="node23" class="node">
<title>Node23</title>
<g id="a_node23"><a xlink:href="Fixed_8hpp.html" target="_top" xlink:title="Definition of the Fixed class and closely related code.">
<polygon fill="white" stroke="black" points="1371.5,-235.5 1371.5,-254.5 1474.5,-254.5 1474.5,-235.5 1371.5,-235.5"/>
<text text-anchor="middle" x="1423" y="-242.5" font-family="Helvetica,sans-Serif" font-size="10.00">playrho/Fixed.hpp</text>
</a>
</g>
</g>
<!-- Node22&#45;&gt;Node23 -->
<g id="edge31" class="edge">
<title>Node22&#45;&gt;Node23</title>
<path fill="none" stroke="midnightblue" d="M1481.51,-361.26C1558.46,-359.16 1693.36,-347.6 1647,-291 1626.8,-266.34 1543.69,-254.91 1484.62,-249.81"/>
<polygon fill="midnightblue" stroke="midnightblue" points="1484.87,-246.32 1474.62,-248.99 1484.3,-253.3 1484.87,-246.32"/>
</g>
<!-- Node34 -->
<g id="node34" class="node">
<title>Node34</title>
<g id="a_node34"><a xlink:href="FixedMath_8hpp.html" target="_top" xlink:title="Conventional math functions for the Fixed class template.">
<polygon fill="white" stroke="black" points="1358,-291.5 1358,-310.5 1486,-310.5 1486,-291.5 1358,-291.5"/>
<text text-anchor="middle" x="1422" y="-298.5" font-family="Helvetica,sans-Serif" font-size="10.00">playrho/FixedMath.hpp</text>
</a>
</g>
</g>
<!-- Node22&#45;&gt;Node34 -->
<g id="edge50" class="edge">
<title>Node22&#45;&gt;Node34</title>
<path fill="none" stroke="midnightblue" d="M1430.57,-352.98C1429.16,-344.58 1426.95,-331.48 1425.14,-320.66"/>
<polygon fill="midnightblue" stroke="midnightblue" points="1428.54,-319.79 1423.43,-310.51 1421.64,-320.95 1428.54,-319.79"/>
</g>
<!-- Node35 -->
<g id="node35" class="node">
<title>Node35</title>
<g id="a_node35"><a xlink:href="FixedLimits_8hpp.html" target="_top" xlink:title="Specialization of std::numeric_limits for Fixed.">
<polygon fill="white" stroke="black" points="1504.5,-291.5 1504.5,-310.5 1637.5,-310.5 1637.5,-291.5 1504.5,-291.5"/>
<text text-anchor="middle" x="1571" y="-298.5" font-family="Helvetica,sans-Serif" font-size="10.00">playrho/FixedLimits.hpp</text>
</a>
</g>
</g>
<!-- Node22&#45;&gt;Node35 -->
<g id="edge53" class="edge">
<title>Node22&#45;&gt;Node35</title>
<path fill="none" stroke="midnightblue" d="M1451.92,-352.98C1475.45,-342.9 1514.81,-326.05 1541.79,-314.5"/>
<polygon fill="midnightblue" stroke="midnightblue" points="1543.31,-317.66 1551.12,-310.51 1540.55,-311.23 1543.31,-317.66"/>
</g>
<!-- Node23&#45;&gt;Node6 -->
<g id="edge33" class="edge">
<title>Node23&#45;&gt;Node6</title>
<path fill="none" stroke="midnightblue" d="M1452.65,-235.47C1494.29,-221.65 1568.14,-189.87 1596,-132 1613.03,-96.62 1587.9,-51.82 1571.08,-27.89"/>
<polygon fill="midnightblue" stroke="midnightblue" points="1573.68,-25.52 1564.93,-19.53 1568.04,-29.66 1573.68,-25.52"/>
</g>
<!-- Node23&#45;&gt;Node7 -->
<g id="edge36" class="edge">
<title>Node23&#45;&gt;Node7</title>
<path fill="none" stroke="midnightblue" d="M1371.3,-236.2C1368.49,-235.79 1365.71,-235.39 1363,-235 1245.78,-218.22 1213.01,-231 1099,-199 1065.85,-189.7 1061.27,-176.89 1028,-168 897.39,-133.11 736.18,-125.23 662.36,-123.48"/>
<polygon fill="midnightblue" stroke="midnightblue" points="662.18,-119.98 652.11,-123.26 662.04,-126.97 662.18,-119.98"/>
</g>
<!-- Node23&#45;&gt;Node8 -->
<g id="edge35" class="edge">
<title>Node23&#45;&gt;Node8</title>
<path fill="none" stroke="midnightblue" d="M1371.37,-235.43C1345.27,-228.97 1314.47,-217.87 1292,-199 1236.39,-152.31 1273.34,-96.39 1213,-56 1156.8,-18.38 954.8,-12 863.89,-11.07"/>
<polygon fill="midnightblue" stroke="midnightblue" points="863.66,-7.56 853.63,-10.98 863.6,-14.56 863.66,-7.56"/>
</g>
<!-- Node23&#45;&gt;Node13 -->
<g id="edge37" class="edge">
<title>Node23&#45;&gt;Node13</title>
<path fill="none" stroke="midnightblue" d="M1383.85,-235.48C1343.48,-226.62 1278.75,-212.24 1223,-199 1167.73,-185.88 1154.2,-181.4 1099,-168 1049.92,-156.08 993.63,-142.88 954.94,-133.87"/>
<polygon fill="midnightblue" stroke="midnightblue" points="955.54,-130.42 945.01,-131.56 953.96,-137.24 955.54,-130.42"/>
</g>
<!-- Node24 -->
<g id="node24" class="node">
<title>Node24</title>
<g id="a_node24"><a xlink:title=" ">
<polygon fill="white" stroke="#bfbfbf" points="1537,-112.5 1537,-131.5 1587,-131.5 1587,-112.5 1537,-112.5"/>
<text text-anchor="middle" x="1562" y="-119.5" font-family="Helvetica,sans-Serif" font-size="10.00">cstdint</text>
</a>
</g>
</g>
<!-- Node23&#45;&gt;Node24 -->
<g id="edge32" class="edge">
<title>Node23&#45;&gt;Node24</title>
<path fill="none" stroke="midnightblue" d="M1435.05,-235.4C1447.19,-226.6 1466.31,-212.37 1482,-199 1505.1,-179.32 1530.24,-154.9 1546.05,-139.14"/>
<polygon fill="midnightblue" stroke="midnightblue" points="1548.83,-141.31 1553.41,-131.76 1543.87,-136.37 1548.83,-141.31"/>
</g>
<!-- Node25 -->
<g id="node25" class="node">
<title>Node25</title>
<g id="a_node25"><a xlink:title=" ">
<polygon fill="white" stroke="#bfbfbf" points="967,-174 967,-193 1019,-193 1019,-174 967,-174"/>
<text text-anchor="middle" x="993" y="-181" font-family="Helvetica,sans-Serif" font-size="10.00">cassert</text>
</a>
</g>
</g>
<!-- Node23&#45;&gt;Node25 -->
<g id="edge34" class="edge">
<title>Node23&#45;&gt;Node25</title>
<path fill="none" stroke="midnightblue" d="M1371.3,-236.16C1368.49,-235.76 1365.71,-235.37 1363,-235 1233.44,-217.3 1200.23,-218.96 1071,-199 1057.36,-196.89 1042.45,-194.21 1029.35,-191.73"/>
<polygon fill="midnightblue" stroke="midnightblue" points="1029.77,-188.25 1019.29,-189.8 1028.45,-195.12 1029.77,-188.25"/>
</g>
<!-- Node26 -->
<g id="node26" class="node">
<title>Node26</title>
<g id="a_node26"><a xlink:href="TypeInfo_8hpp.html" target="_top" xlink:title="Definition of TypeID class and closely related code.">
<polygon fill="white" stroke="black" points="1300.5,-174 1300.5,-193 1419.5,-193 1419.5,-174 1300.5,-174"/>
<text text-anchor="middle" x="1360" y="-181" font-family="Helvetica,sans-Serif" font-size="10.00">playrho/TypeInfo.hpp</text>
</a>
</g>
</g>
<!-- Node23&#45;&gt;Node26 -->
<g id="edge38" class="edge">
<title>Node23&#45;&gt;Node26</title>
<path fill="none" stroke="midnightblue" d="M1413.97,-235.48C1404.24,-226.28 1388.54,-211.46 1376.58,-200.16"/>
<polygon fill="midnightblue" stroke="midnightblue" points="1378.68,-197.33 1369.01,-193.01 1373.88,-202.42 1378.68,-197.33"/>
</g>
<!-- Node33 -->
<g id="node33" class="node">
<title>Node33</title>
<g id="a_node33"><a xlink:href="Wider_8hpp.html" target="_top" xlink:title="Definition of the Wider class template and specializations.">
<polygon fill="white" stroke="black" points="1676,-174 1676,-193 1812,-193 1812,-174 1676,-174"/>
<text text-anchor="middle" x="1744" y="-181" font-family="Helvetica,sans-Serif" font-size="10.00">playrho/detail/Wider.hpp</text>
</a>
</g>
</g>
<!-- Node23&#45;&gt;Node33 -->
<g id="edge46" class="edge">
<title>Node23&#45;&gt;Node33</title>
<path fill="none" stroke="midnightblue" d="M1468.99,-235.48C1526.8,-224.76 1625.95,-206.38 1688.08,-194.87"/>
<polygon fill="midnightblue" stroke="midnightblue" points="1688.9,-198.27 1698.09,-193.01 1687.62,-191.39 1688.9,-198.27"/>
</g>
<!-- Node26&#45;&gt;Node13 -->
<g id="edge40" class="edge">
<title>Node26&#45;&gt;Node13</title>
<path fill="none" stroke="midnightblue" d="M1300.44,-174.66C1218.5,-163.87 1071.05,-144.46 982.08,-132.75"/>
<polygon fill="midnightblue" stroke="midnightblue" points="982.44,-129.27 972.07,-131.43 981.52,-136.21 982.44,-129.27"/>
</g>
<!-- Node27 -->
<g id="node27" class="node">
<title>Node27</title>
<g id="a_node27"><a xlink:title=" ">
<polygon fill="white" stroke="#bfbfbf" points="1431,-112.5 1431,-131.5 1481,-131.5 1481,-112.5 1431,-112.5"/>
<text text-anchor="middle" x="1456" y="-119.5" font-family="Helvetica,sans-Serif" font-size="10.00">cstring</text>
</a>
</g>
</g>
<!-- Node26&#45;&gt;Node27 -->
<g id="edge39" class="edge">
<title>Node26&#45;&gt;Node27</title>
<path fill="none" stroke="midnightblue" d="M1373.75,-173.98C1389.37,-164.3 1415.06,-148.37 1433.58,-136.89"/>
<polygon fill="midnightblue" stroke="midnightblue" points="1435.62,-139.75 1442.27,-131.51 1431.93,-133.8 1435.62,-139.75"/>
</g>
<!-- Node28 -->
<g id="node28" class="node">
<title>Node28</title>
<g id="a_node28"><a xlink:href="detail_2TypeInfo_8hpp.html" target="_top" xlink:title="Definition of TypeInfo class template and related code.">
<polygon fill="white" stroke="black" points="1264.5,-112.5 1264.5,-131.5 1413.5,-131.5 1413.5,-112.5 1264.5,-112.5"/>
<text text-anchor="middle" x="1339" y="-119.5" font-family="Helvetica,sans-Serif" font-size="10.00">playrho/detail/TypeInfo.hpp</text>
</a>
</g>
</g>
<!-- Node26&#45;&gt;Node28 -->
<g id="edge41" class="edge">
<title>Node26&#45;&gt;Node28</title>
<path fill="none" stroke="midnightblue" d="M1356.99,-173.98C1353.97,-165.4 1349.21,-151.93 1345.35,-140.98"/>
<polygon fill="midnightblue" stroke="midnightblue" points="1348.63,-139.77 1342,-131.51 1342.03,-142.1 1348.63,-139.77"/>
</g>
<!-- Node29 -->
<g id="node29" class="node">
<title>Node29</title>
<g id="a_node29"><a xlink:title=" ">
<polygon fill="white" stroke="#bfbfbf" points="1424,-56.5 1424,-75.5 1468,-75.5 1468,-56.5 1424,-56.5"/>
<text text-anchor="middle" x="1446" y="-63.5" font-family="Helvetica,sans-Serif" font-size="10.00">regex</text>
</a>
</g>
</g>
<!-- Node28&#45;&gt;Node29 -->
<g id="edge42" class="edge">
<title>Node28&#45;&gt;Node29</title>
<path fill="none" stroke="midnightblue" d="M1356.19,-112.32C1373.35,-103.66 1399.95,-90.24 1419.75,-80.25"/>
<polygon fill="midnightblue" stroke="midnightblue" points="1421.5,-83.28 1428.85,-75.65 1418.35,-77.04 1421.5,-83.28"/>
</g>
<!-- Node30 -->
<g id="node30" class="node">
<title>Node30</title>
<g id="a_node30"><a xlink:title=" ">
<polygon fill="white" stroke="#bfbfbf" points="1486,-56.5 1486,-75.5 1530,-75.5 1530,-56.5 1486,-56.5"/>
<text text-anchor="middle" x="1508" y="-63.5" font-family="Helvetica,sans-Serif" font-size="10.00">string</text>
</a>
</g>
</g>
<!-- Node28&#45;&gt;Node30 -->
<g id="edge43" class="edge">
<title>Node28&#45;&gt;Node30</title>
<path fill="none" stroke="midnightblue" d="M1365.78,-112.44C1395.76,-102.86 1444.31,-87.35 1476.2,-77.16"/>
<polygon fill="midnightblue" stroke="midnightblue" points="1477.46,-80.43 1485.92,-74.05 1475.33,-73.76 1477.46,-80.43"/>
</g>
<!-- Node31 -->
<g id="node31" class="node">
<title>Node31</title>
<g id="a_node31"><a xlink:title=" ">
<polygon fill="white" stroke="#bfbfbf" points="1265.5,-56.5 1265.5,-75.5 1330.5,-75.5 1330.5,-56.5 1265.5,-56.5"/>
<text text-anchor="middle" x="1298" y="-63.5" font-family="Helvetica,sans-Serif" font-size="10.00">typeindex</text>
</a>
</g>
</g>
<!-- Node28&#45;&gt;Node31 -->
<g id="edge44" class="edge">
<title>Node28&#45;&gt;Node31</title>
<path fill="none" stroke="midnightblue" d="M1332.23,-112.08C1326.44,-104.46 1317.94,-93.26 1310.86,-83.94"/>
<polygon fill="midnightblue" stroke="midnightblue" points="1313.48,-81.6 1304.64,-75.75 1307.9,-85.83 1313.48,-81.6"/>
</g>
<!-- Node32 -->
<g id="node32" class="node">
<title>Node32</title>
<g id="a_node32"><a xlink:title=" ">
<polygon fill="white" stroke="#bfbfbf" points="1348.5,-56.5 1348.5,-75.5 1405.5,-75.5 1405.5,-56.5 1348.5,-56.5"/>
<text text-anchor="middle" x="1377" y="-63.5" font-family="Helvetica,sans-Serif" font-size="10.00">typeinfo</text>
</a>
</g>
</g>
<!-- Node28&#45;&gt;Node32 -->
<g id="edge45" class="edge">
<title>Node28&#45;&gt;Node32</title>
<path fill="none" stroke="midnightblue" d="M1345.27,-112.08C1350.64,-104.46 1358.52,-93.26 1365.08,-83.94"/>
<polygon fill="midnightblue" stroke="midnightblue" points="1367.95,-85.94 1370.84,-75.75 1362.22,-81.91 1367.95,-85.94"/>
</g>
<!-- Node33&#45;&gt;Node8 -->
<g id="edge48" class="edge">
<title>Node33&#45;&gt;Node8</title>
<path fill="none" stroke="midnightblue" d="M1734.23,-173.95C1706.22,-150.03 1622.3,-82.47 1539,-56 1412.34,-15.76 1000.88,-11.31 863.85,-10.97"/>
<polygon fill="midnightblue" stroke="midnightblue" points="863.72,-7.47 853.71,-10.95 863.71,-14.47 863.72,-7.47"/>
</g>
<!-- Node33&#45;&gt;Node21 -->
<g id="edge49" class="edge">
<title>Node33&#45;&gt;Node21</title>
<path fill="none" stroke="midnightblue" d="M1750.88,-173.98C1758.15,-164.96 1769.8,-150.52 1778.84,-139.31"/>
<polygon fill="midnightblue" stroke="midnightblue" points="1781.58,-141.49 1785.14,-131.51 1776.13,-137.09 1781.58,-141.49"/>
</g>
<!-- Node33&#45;&gt;Node24 -->
<g id="edge47" class="edge">
<title>Node33&#45;&gt;Node24</title>
<path fill="none" stroke="midnightblue" d="M1717.92,-173.98C1686.17,-163.59 1632.39,-146.01 1597.04,-134.46"/>
<polygon fill="midnightblue" stroke="midnightblue" points="1597.74,-131 1587.15,-131.22 1595.57,-137.66 1597.74,-131"/>
</g>
<!-- Node34&#45;&gt;Node19 -->
<g id="edge51" class="edge">
<title>Node34&#45;&gt;Node19</title>
<path fill="none" stroke="midnightblue" d="M1407.22,-291.32C1392.73,-282.82 1370.43,-269.73 1353.51,-259.8"/>
<polygon fill="midnightblue" stroke="midnightblue" points="1355.14,-256.7 1344.74,-254.65 1351.6,-262.74 1355.14,-256.7"/>
</g>
<!-- Node34&#45;&gt;Node23 -->
<g id="edge52" class="edge">
<title>Node34&#45;&gt;Node23</title>
<path fill="none" stroke="midnightblue" d="M1422.17,-291.08C1422.3,-284.01 1422.48,-273.86 1422.65,-264.99"/>
<polygon fill="midnightblue" stroke="midnightblue" points="1426.15,-264.81 1422.84,-254.75 1419.15,-264.68 1426.15,-264.81"/>
</g>
<!-- Node35&#45;&gt;Node23 -->
<g id="edge54" class="edge">
<title>Node35&#45;&gt;Node23</title>
<path fill="none" stroke="midnightblue" d="M1547.55,-291.44C1522.87,-282.44 1483.81,-268.19 1456.02,-258.05"/>
<polygon fill="midnightblue" stroke="midnightblue" points="1456.94,-254.66 1446.34,-254.52 1454.54,-261.23 1456.94,-254.66"/>
</g>
<!-- Node37 -->
<g id="node37" class="node">
<title>Node37</title>
<g id="a_node37"><a xlink:href="underlying__type_8hpp.html" target="_top" xlink:title="Definition of underlying_type trait class and related code.">
<polygon fill="white" stroke="black" points="1085.5,-347.5 1085.5,-377.5 1224.5,-377.5 1224.5,-347.5 1085.5,-347.5"/>
<text text-anchor="start" x="1093.5" y="-365.5" font-family="Helvetica,sans-Serif" font-size="10.00">playrho/detail/underlying</text>
<text text-anchor="middle" x="1155" y="-354.5" font-family="Helvetica,sans-Serif" font-size="10.00">_type.hpp</text>
</a>
</g>
</g>
<!-- Node36&#45;&gt;Node37 -->
<g id="edge57" class="edge">
<title>Node36&#45;&gt;Node37</title>
<path fill="none" stroke="midnightblue" d="M1154.14,-414.48C1154.26,-407.47 1154.43,-397.19 1154.59,-387.7"/>
<polygon fill="midnightblue" stroke="midnightblue" points="1158.1,-387.58 1154.76,-377.52 1151.1,-387.46 1158.1,-387.58"/>
</g>
<!-- Node37&#45;&gt;Node8 -->
<g id="edge58" class="edge">
<title>Node37&#45;&gt;Node8</title>
<path fill="none" stroke="midnightblue" d="M1156.21,-347.29C1157.97,-325.5 1161,-282.54 1161,-246 1161,-246 1161,-246 1161,-121 1161,-59.23 956.26,-27.19 863.61,-15.86"/>
<polygon fill="midnightblue" stroke="midnightblue" points="864.02,-12.38 853.67,-14.67 863.19,-19.33 864.02,-12.38"/>
</g>
<!-- Node38&#45;&gt;Node2 -->
<g id="edge64" class="edge">
<title>Node38&#45;&gt;Node2</title>
<path fill="none" stroke="midnightblue" d="M662.33,-422.67C596.27,-420.68 481.58,-412.04 390,-378 249.58,-325.81 114,-334.31 114,-184.5 114,-184.5 114,-184.5 114,-121 114,-88.95 114,-51.64 114,-29.75"/>
<polygon fill="midnightblue" stroke="midnightblue" points="117.5,-29.56 114,-19.56 110.5,-29.56 117.5,-29.56"/>
</g>
<!-- Node38&#45;&gt;Node7 -->
<g id="edge66" class="edge">
<title>Node38&#45;&gt;Node7</title>
<path fill="none" stroke="midnightblue" d="M702.16,-414.26C690.43,-406.18 673.97,-393.16 664,-378 644.54,-348.4 640,-337.42 640,-302 640,-302 640,-302 640,-244 640,-207.5 631.89,-165.47 626.55,-141.79"/>
<polygon fill="midnightblue" stroke="midnightblue" points="629.89,-140.68 624.21,-131.74 623.07,-142.27 629.89,-140.68"/>
</g>
<!-- Node38&#45;&gt;Node8 -->
<g id="edge62" class="edge">
<title>Node38&#45;&gt;Node8</title>
<path fill="none" stroke="midnightblue" d="M720.99,-414.23C737.89,-383.63 792,-278.37 792,-184.5 792,-184.5 792,-184.5 792,-121 792,-87.86 803.7,-50.68 811.7,-29.14"/>
<polygon fill="midnightblue" stroke="midnightblue" points="815.02,-30.25 815.36,-19.66 808.49,-27.73 815.02,-30.25"/>
</g>
<!-- Node38&#45;&gt;Node11 -->
<g id="edge67" class="edge">
<title>Node38&#45;&gt;Node11</title>
<path fill="none" stroke="midnightblue" d="M662.47,-418.22C553.88,-405.27 309.53,-358.87 209,-199 201.67,-187.34 201.81,-179.75 209,-168 218.51,-152.46 235.26,-142.07 251.62,-135.23"/>
<polygon fill="midnightblue" stroke="midnightblue" points="253.05,-138.43 261.15,-131.6 250.56,-131.89 253.05,-138.43"/>
</g>
<!-- Node38&#45;&gt;Node13 -->
<g id="edge69" class="edge">
<title>Node38&#45;&gt;Node13</title>
<path fill="none" stroke="midnightblue" d="M729.08,-414.37C740.63,-406.18 757.27,-392.93 768,-378 826.85,-296.09 794.39,-249.35 854,-168 862.76,-156.04 875.38,-145.29 886.21,-137.31"/>
<polygon fill="midnightblue" stroke="midnightblue" points="888.25,-140.15 894.4,-131.52 884.22,-134.43 888.25,-140.15"/>
</g>
<!-- Node38&#45;&gt;Node15 -->
<g id="edge65" class="edge">
<title>Node38&#45;&gt;Node15</title>
<path fill="none" stroke="midnightblue" d="M714.21,-414.39C712.34,-405.34 709.37,-390.69 707,-378 696.01,-319.03 703.52,-154.32 661,-112 592.65,-43.96 509.29,-149.64 447,-76 432.37,-58.7 455.17,-38.21 475.03,-24.92"/>
<polygon fill="midnightblue" stroke="midnightblue" points="476.96,-27.85 483.53,-19.53 473.21,-21.93 476.96,-27.85"/>
</g>
<!-- Node38&#45;&gt;Node16 -->
<g id="edge63" class="edge">
<title>Node38&#45;&gt;Node16</title>
<path fill="none" stroke="midnightblue" d="M715.46,-414.39C712.25,-363.6 695.79,-102.73 691.19,-29.9"/>
<polygon fill="midnightblue" stroke="midnightblue" points="694.66,-29.32 690.54,-19.56 687.68,-29.76 694.66,-29.32"/>
</g>
<!-- Node38&#45;&gt;Node22 -->
<g id="edge68" class="edge">
<title>Node38&#45;&gt;Node22</title>
<path fill="none" stroke="midnightblue" d="M769.52,-418.55C900.2,-407.69 1234.85,-379.88 1372,-368.49"/>
<polygon fill="midnightblue" stroke="midnightblue" points="1372.64,-371.95 1382.31,-367.63 1372.06,-364.97 1372.64,-371.95"/>
</g>
<!-- Node38&#45;&gt;Node25 -->
<g id="edge60" class="edge">
<title>Node38&#45;&gt;Node25</title>
<path fill="none" stroke="midnightblue" d="M738.27,-414.38C757.24,-406.46 784.73,-393.61 806,-378 880.65,-323.22 951.8,-237.27 980.12,-201.26"/>
<polygon fill="midnightblue" stroke="midnightblue" points="983,-203.27 986.38,-193.23 977.47,-198.97 983,-203.27"/>
</g>
<!-- Node39 -->
<g id="node39" class="node">
<title>Node39</title>
<g id="a_node39"><a xlink:title=" ">
<polygon fill="white" stroke="#bfbfbf" points="896.5,-353 896.5,-372 949.5,-372 949.5,-353 896.5,-353"/>
<text text-anchor="middle" x="923" y="-360" font-family="Helvetica,sans-Serif" font-size="10.00">cstddef</text>
</a>
</g>
</g>
<!-- Node38&#45;&gt;Node39 -->
<g id="edge61" class="edge">
<title>Node38&#45;&gt;Node39</title>
<path fill="none" stroke="midnightblue" d="M750.55,-414.44C784.28,-405.9 836.96,-392.05 882,-378 884.61,-377.19 887.31,-376.31 890.01,-375.41"/>
<polygon fill="midnightblue" stroke="midnightblue" points="891.36,-378.64 899.69,-372.09 889.09,-372.02 891.36,-378.64"/>
</g>
<!-- Node40&#45;&gt;Node2 -->
<g id="edge76" class="edge">
<title>Node40&#45;&gt;Node2</title>
<path fill="none" stroke="midnightblue" d="M1143.48,-530.28C907.44,-509.69 38,-417.97 38,-184.5 38,-184.5 38,-184.5 38,-121 38,-81.28 71.96,-45.5 94.48,-26.15"/>
<polygon fill="midnightblue" stroke="midnightblue" points="96.98,-28.63 102.46,-19.57 92.52,-23.24 96.98,-28.63"/>
</g>
<!-- Node40&#45;&gt;Node13 -->
<g id="edge78" class="edge">
<title>Node40&#45;&gt;Node13</title>
<path fill="none" stroke="midnightblue" d="M1143.41,-533.24C1106.87,-529.15 1061.2,-518.16 1031,-490 977.46,-440.07 925.95,-209.26 911.81,-141.65"/>
<polygon fill="midnightblue" stroke="midnightblue" points="915.18,-140.71 909.73,-131.63 908.33,-142.13 915.18,-140.71"/>
</g>
<!-- Node40&#45;&gt;Node18 -->
<g id="edge79" class="edge">
<title>Node40&#45;&gt;Node18</title>
<path fill="none" stroke="midnightblue" d="M1202,-526.08C1202,-519.01 1202,-508.86 1202,-499.99"/>
<polygon fill="midnightblue" stroke="midnightblue" points="1205.5,-499.75 1202,-489.75 1198.5,-499.75 1205.5,-499.75"/>
</g>
<!-- Node40&#45;&gt;Node19 -->
<g id="edge74" class="edge">
<title>Node40&#45;&gt;Node19</title>
<path fill="none" stroke="midnightblue" d="M1226.98,-526.47C1264.23,-511.97 1330,-478.77 1330,-425 1330,-425 1330,-425 1330,-361.5 1330,-327.36 1330,-287.55 1330,-264.71"/>
<polygon fill="midnightblue" stroke="midnightblue" points="1333.5,-264.69 1330,-254.69 1326.5,-264.69 1333.5,-264.69"/>
</g>
<!-- Node40&#45;&gt;Node20 -->
<g id="edge77" class="edge">
<title>Node40&#45;&gt;Node20</title>
<path fill="none" stroke="midnightblue" d="M1260.62,-528.94C1314.5,-522.24 1389.22,-509.7 1411,-490 1424.04,-478.21 1429.02,-458.28 1430.9,-443.59"/>
<polygon fill="midnightblue" stroke="midnightblue" points="1434.39,-443.88 1431.82,-433.6 1427.42,-443.24 1434.39,-443.88"/>
</g>
<!-- Node40&#45;&gt;Node24 -->
<g id="edge75" class="edge">
<title>Node40&#45;&gt;Node24</title>
<path fill="none" stroke="midnightblue" d="M1260.61,-533.92C1364.31,-531.21 1575.34,-521.85 1641,-490 1677.2,-472.44 1704,-465.23 1704,-425 1704,-425 1704,-425 1704,-361.5 1704,-265.63 1618.24,-174.72 1580.01,-138.97"/>
<polygon fill="midnightblue" stroke="midnightblue" points="1581.95,-136 1572.21,-131.82 1577.22,-141.16 1581.95,-136"/>
</g>
<!-- Node40&#45;&gt;Node25 -->
<g id="edge72" class="edge">
<title>Node40&#45;&gt;Node25</title>
<path fill="none" stroke="midnightblue" d="M1147.45,-526.48C1092.57,-514.45 1016,-486.62 1016,-425 1016,-425 1016,-425 1016,-300 1016,-265.03 1005.74,-225.24 998.92,-202.67"/>
<polygon fill="midnightblue" stroke="midnightblue" points="1002.24,-201.57 995.91,-193.08 995.56,-203.67 1002.24,-201.57"/>
</g>
<!-- Node40&#45;&gt;Node39 -->
<g id="edge71" class="edge">
<title>Node40&#45;&gt;Node39</title>
<path fill="none" stroke="midnightblue" d="M1143.31,-530.7C1081.66,-525.03 990.07,-512.97 964,-490 932.48,-462.24 925.05,-410.04 923.4,-382.17"/>
<polygon fill="midnightblue" stroke="midnightblue" points="926.89,-382.01 922.99,-372.16 919.9,-382.29 926.89,-382.01"/>
</g>
<!-- Node41 -->
<g id="node41" class="node">
<title>Node41</title>
<g id="a_node41"><a xlink:title=" ">
<polygon fill="white" stroke="#bfbfbf" points="1358,-470.5 1358,-489.5 1402,-489.5 1402,-470.5 1358,-470.5"/>
<text text-anchor="middle" x="1380" y="-477.5" font-family="Helvetica,sans-Serif" font-size="10.00">cfloat</text>
</a>
</g>
</g>
<!-- Node40&#45;&gt;Node41 -->
<g id="edge73" class="edge">
<title>Node40&#45;&gt;Node41</title>
<path fill="none" stroke="midnightblue" d="M1230.2,-526.44C1262.28,-516.71 1314.52,-500.86 1348.07,-490.69"/>
<polygon fill="midnightblue" stroke="midnightblue" points="1349.28,-493.98 1357.83,-487.73 1347.25,-487.28 1349.28,-493.98"/>
</g>
<!-- Node42 -->
<g id="node42" class="node">
<title>Node42</title>
<g id="a_node42"><a xlink:href="WiderType_8hpp.html" target="_top" xlink:title="Definition of the WiderType alias template.">
<polygon fill="white" stroke="black" points="1504,-470.5 1504,-489.5 1632,-489.5 1632,-470.5 1504,-470.5"/>
<text text-anchor="middle" x="1568" y="-477.5" font-family="Helvetica,sans-Serif" font-size="10.00">playrho/WiderType.hpp</text>
</a>
</g>
</g>
<!-- Node40&#45;&gt;Node42 -->
<g id="edge80" class="edge">
<title>Node40&#45;&gt;Node42</title>
<path fill="none" stroke="midnightblue" d="M1259.99,-526.44C1325.31,-516.81 1431.34,-501.16 1500.37,-490.98"/>
<polygon fill="midnightblue" stroke="midnightblue" points="1500.9,-494.44 1510.28,-489.52 1499.87,-487.51 1500.9,-494.44"/>
</g>
<!-- Node42&#45;&gt;Node33 -->
<g id="edge81" class="edge">
<title>Node42&#45;&gt;Node33</title>
<path fill="none" stroke="midnightblue" d="M1607.65,-470.45C1652.65,-458.39 1723.96,-431.58 1756,-378 1789.66,-321.71 1765.13,-239.02 1751.49,-202.72"/>
<polygon fill="midnightblue" stroke="midnightblue" points="1754.6,-201.05 1747.68,-193.02 1748.08,-203.61 1754.6,-201.05"/>
</g>
</g>
</svg>
