<?xml version="1.0" encoding="UTF-8" standalone="no"?>
<!DOCTYPE svg PUBLIC "-//W3C//DTD SVG 1.1//EN"
 "http://www.w3.org/Graphics/SVG/1.1/DTD/svg11.dtd">
<!-- Generated by graphviz version 2.43.0 (0)
 -->
<!-- Title: Library/include/playrho/d2 Pages: 1 -->
<svg width="244pt" height="183pt"
 viewBox="0.00 0.00 244.00 183.00" xmlns="http://www.w3.org/2000/svg" xmlns:xlink="http://www.w3.org/1999/xlink">
<g id="graph0" class="graph" transform="scale(1 1) rotate(0) translate(4 179)">
<title>Library/include/playrho/d2</title>
<polygon fill="white" stroke="transparent" points="-4,4 -4,-179 240,-179 240,4 -4,4"/>
<g id="clust1" class="cluster">
<title>clusterdir_3ed5363c54a0ae1e6d55ad5f136e162e</title>
<g id="a_clust1"><a xlink:href="dir_3ed5363c54a0ae1e6d55ad5f136e162e.html" target="_top" xlink:title="playrho">
<polygon fill="#ddddee" stroke="black" points="8,-8 8,-167 228,-167 228,-8 8,-8"/>
<text text-anchor="middle" x="118" y="-155" font-family="Helvetica,sans-Serif" font-size="10.00">playrho</text>
</a>
</g>
</g>
<g id="clust2" class="cluster">
<title>clusterdir_00957d302ca87b53c9f57dcbc695504d</title>
<g id="a_clust2"><a xlink:href="dir_00957d302ca87b53c9f57dcbc695504d.html" target="_top">
<polygon fill="#eeeeff" stroke="black" points="16,-16 16,-140 158,-140 158,-16 16,-16"/>
</a>
</g>
</g>
<!-- dir_90d3ff7cd0d2033d542b5ad323e1df4f -->
<g id="node1" class="node">
<title>dir_90d3ff7cd0d2033d542b5ad323e1df4f</title>
<g id="a_node1"><a xlink:href="dir_90d3ff7cd0d2033d542b5ad323e1df4f.html" target="_top" xlink:title="detail">
<polygon fill="none" stroke="black" points="220,-60 166,-60 166,-24 220,-24 220,-60"/>
<text text-anchor="middle" x="193" y="-39.5" font-family="Helvetica,sans-Serif" font-size="10.00">detail</text>
</a>
</g>
</g>
<!-- dir_00957d302ca87b53c9f57dcbc695504d -->
<g id="node2" class="node">
<title>dir_00957d302ca87b53c9f57dcbc695504d</title>
<text text-anchor="middle" x="123" y="-111.5" font-family="Helvetica,sans-Serif" font-size="10.00">d2</text>
</g>
<!-- dir_00957d302ca87b53c9f57dcbc695504d&#45;&gt;dir_90d3ff7cd0d2033d542b5ad323e1df4f -->
<g id="edge1" class="edge">
<title>dir_00957d302ca87b53c9f57dcbc695504d&#45;&gt;dir_90d3ff7cd0d2033d542b5ad323e1df4f</title>
<path fill="none" stroke="black" d="M140.3,-95.7C148.86,-87.14 159.34,-76.66 168.7,-67.3"/>
<polygon fill="black" stroke="black" points="171.3,-69.65 175.9,-60.1 166.35,-64.7 171.3,-69.65"/>
<g id="a_edge1&#45;headlabel"><a xlink:href="dir_000003_000004.html" target="_top" xlink:title="3">
<text text-anchor="middle" x="170.77" y="-71.7" font-family="Helvetica,sans-Serif" font-size="10.00">3</text>
</a>
</g>
</g>
<!-- dir_d51ee4eac1d55982ce807b72bdb4ac61 -->
<g id="node3" class="node">
<title>dir_d51ee4eac1d55982ce807b72bdb4ac61</title>
<g id="a_node3"><a xlink:href="dir_d51ee4eac1d55982ce807b72bdb4ac61.html" target="_top" xlink:title="detail">
<polygon fill="white" stroke="black" points="148,-60 94,-60 94,-24 148,-24 148,-60"/>
<text text-anchor="middle" x="121" y="-39.5" font-family="Helvetica,sans-Serif" font-size="10.00">detail</text>
</a>
</g>
</g>
<!-- dir_00957d302ca87b53c9f57dcbc695504d&#45;&gt;dir_d51ee4eac1d55982ce807b72bdb4ac61 -->
<g id="edge2" class="edge">
<title>dir_00957d302ca87b53c9f57dcbc695504d&#45;&gt;dir_d51ee4eac1d55982ce807b72bdb4ac61</title>
<path fill="none" stroke="black" d="M122.51,-95.7C122.29,-87.98 122.02,-78.71 121.77,-70.11"/>
<polygon fill="black" stroke="black" points="125.27,-70 121.49,-60.1 118.28,-70.2 125.27,-70"/>
<g id="a_edge2&#45;headlabel"><a xlink:href="dir_000003_000005.html" target="_top" xlink:title="6">
<text text-anchor="middle" x="128.21" y="-71.01" font-family="Helvetica,sans-Serif" font-size="10.00">6</text>
</a>
</g>
</g>
<!-- dir_cde6d232cd8d7aab1c0f773da49c3c52 -->
<g id="node4" class="node">
<title>dir_cde6d232cd8d7aab1c0f773da49c3c52</title>
<g id="a_node4"><a xlink:href="dir_cde6d232cd8d7aab1c0f773da49c3c52.html" target="_top" xlink:title="part">
<polygon fill="white" stroke="black" points="78,-132 24,-132 24,-96 78,-96 78,-132"/>
<text text-anchor="middle" x="51" y="-111.5" font-family="Helvetica,sans-Serif" font-size="10.00">part</text>
</a>
</g>
</g>
</g>
</svg>
