<?xml version="1.0" encoding="UTF-8" standalone="no"?>
<!DOCTYPE svg PUBLIC "-//W3C//DTD SVG 1.1//EN"
 "http://www.w3.org/Graphics/SVG/1.1/DTD/svg11.dtd">
<!-- Generated by graphviz version 2.43.0 (0)
 -->
<!-- Title: Library/include/playrho/d2/DynamicTreeData.hpp Pages: 1 -->
<svg width="1190pt" height="565pt"
 viewBox="0.00 0.00 1189.50 565.00" xmlns="http://www.w3.org/2000/svg" xmlns:xlink="http://www.w3.org/1999/xlink">
<g id="graph0" class="graph" transform="scale(1 1) rotate(0) translate(4 561)">
<title>Library/include/playrho/d2/DynamicTreeData.hpp</title>
<polygon fill="white" stroke="transparent" points="-4,4 -4,-561 1185.5,-561 1185.5,4 -4,4"/>
<!-- Node1 -->
<g id="node1" class="node">
<title>Node1</title>
<g id="a_node1"><a xlink:title="Definitions of DynamicTree related classes.">
<polygon fill="#bfbfbf" stroke="black" points="513.5,-526.5 513.5,-556.5 656.5,-556.5 656.5,-526.5 513.5,-526.5"/>
<text text-anchor="start" x="521.5" y="-544.5" font-family="Helvetica,sans-Serif" font-size="10.00">Library/include/playrho</text>
<text text-anchor="middle" x="585" y="-533.5" font-family="Helvetica,sans-Serif" font-size="10.00">/d2/DynamicTreeData.hpp</text>
</a>
</g>
</g>
<!-- Node2 -->
<g id="node2" class="node">
<title>Node2</title>
<g id="a_node2"><a xlink:href="Contactable_8hpp.html" target="_top" xlink:title="Definition of the Contactable class and closely related code.">
<polygon fill="white" stroke="black" points="579,-470.5 579,-489.5 715,-489.5 715,-470.5 579,-470.5"/>
<text text-anchor="middle" x="647" y="-477.5" font-family="Helvetica,sans-Serif" font-size="10.00">playrho/Contactable.hpp</text>
</a>
</g>
</g>
<!-- Node1&#45;&gt;Node2 -->
<g id="edge1" class="edge">
<title>Node1&#45;&gt;Node2</title>
<path fill="none" stroke="midnightblue" d="M599.69,-526.4C608.98,-517.49 621,-505.95 630.6,-496.74"/>
<polygon fill="midnightblue" stroke="midnightblue" points="633.19,-499.11 637.98,-489.66 628.34,-494.06 633.19,-499.11"/>
</g>
<!-- Node5 -->
<g id="node5" class="node">
<title>Node5</title>
<g id="a_node5"><a xlink:href="Settings_8hpp.html" target="_top" xlink:title="Types and default settings file.">
<polygon fill="white" stroke="black" points="516.5,-353 516.5,-372 633.5,-372 633.5,-353 516.5,-353"/>
<text text-anchor="middle" x="575" y="-360" font-family="Helvetica,sans-Serif" font-size="10.00">playrho/Settings.hpp</text>
</a>
</g>
</g>
<!-- Node1&#45;&gt;Node5 -->
<g id="edge44" class="edge">
<title>Node1&#45;&gt;Node5</title>
<path fill="none" stroke="midnightblue" d="M579.53,-526.16C576.03,-516.19 571.82,-502.49 570,-490 564.49,-452.07 568.8,-407.12 572.12,-382.31"/>
<polygon fill="midnightblue" stroke="midnightblue" points="575.62,-382.54 573.57,-372.15 568.69,-381.55 575.62,-382.54"/>
</g>
<!-- Node3 -->
<g id="node3" class="node">
<title>Node3</title>
<g id="a_node3"><a xlink:title=" ">
<polygon fill="white" stroke="#bfbfbf" points="739.5,-414.5 739.5,-433.5 796.5,-433.5 796.5,-414.5 739.5,-414.5"/>
<text text-anchor="middle" x="768" y="-421.5" font-family="Helvetica,sans-Serif" font-size="10.00">ostream</text>
</a>
</g>
</g>
<!-- Node2&#45;&gt;Node3 -->
<g id="edge2" class="edge">
<title>Node2&#45;&gt;Node3</title>
<path fill="none" stroke="midnightblue" d="M666.17,-470.44C685.91,-461.64 716.89,-447.81 739.49,-437.72"/>
<polygon fill="midnightblue" stroke="midnightblue" points="741.21,-440.79 748.92,-433.52 738.36,-434.4 741.21,-440.79"/>
</g>
<!-- Node4 -->
<g id="node4" class="node">
<title>Node4</title>
<g id="a_node4"><a xlink:title=" ">
<polygon fill="white" stroke="#bfbfbf" points="401.5,-0.5 401.5,-19.5 470.5,-19.5 470.5,-0.5 401.5,-0.5"/>
<text text-anchor="middle" x="436" y="-7.5" font-family="Helvetica,sans-Serif" font-size="10.00">type_traits</text>
</a>
</g>
</g>
<!-- Node2&#45;&gt;Node4 -->
<g id="edge3" class="edge">
<title>Node2&#45;&gt;Node4</title>
<path fill="none" stroke="midnightblue" d="M578.98,-473.94C412.87,-460.67 0,-421.83 0,-363.5 0,-363.5 0,-363.5 0,-126.5 0,-77.76 39.35,-75.55 84,-56 138.19,-32.27 309.15,-18.82 391.21,-13.58"/>
<polygon fill="midnightblue" stroke="midnightblue" points="391.47,-17.07 401.23,-12.95 391.03,-10.08 391.47,-17.07"/>
</g>
<!-- Node2&#45;&gt;Node5 -->
<g id="edge4" class="edge">
<title>Node2&#45;&gt;Node5</title>
<path fill="none" stroke="midnightblue" d="M632.73,-470.43C620.67,-462.45 603.82,-449.5 594,-434 584.05,-418.3 579.26,-397.46 576.99,-382.51"/>
<polygon fill="midnightblue" stroke="midnightblue" points="580.44,-381.89 575.7,-372.42 573.5,-382.78 580.44,-381.89"/>
</g>
<!-- Node23 -->
<g id="node23" class="node">
<title>Node23</title>
<g id="a_node23"><a xlink:href="ShapeID_8hpp.html" target="_top" xlink:title="Definition of the ShapeID alias and closely related code.">
<polygon fill="white" stroke="black" points="603,-414.5 603,-433.5 721,-433.5 721,-414.5 603,-414.5"/>
<text text-anchor="middle" x="662" y="-421.5" font-family="Helvetica,sans-Serif" font-size="10.00">playrho/ShapeID.hpp</text>
</a>
</g>
</g>
<!-- Node2&#45;&gt;Node23 -->
<g id="edge34" class="edge">
<title>Node2&#45;&gt;Node23</title>
<path fill="none" stroke="midnightblue" d="M649.48,-470.08C651.49,-462.85 654.39,-452.41 656.89,-443.4"/>
<polygon fill="midnightblue" stroke="midnightblue" points="660.26,-444.32 659.57,-433.75 653.52,-442.45 660.26,-444.32"/>
</g>
<!-- Node27 -->
<g id="node27" class="node">
<title>Node27</title>
<g id="a_node27"><a xlink:href="BodyID_8hpp.html" target="_top" xlink:title="Definition of the BodyID alias and closely related code.">
<polygon fill="white" stroke="black" points="814.5,-414.5 814.5,-433.5 927.5,-433.5 927.5,-414.5 814.5,-414.5"/>
<text text-anchor="middle" x="871" y="-421.5" font-family="Helvetica,sans-Serif" font-size="10.00">playrho/BodyID.hpp</text>
</a>
</g>
</g>
<!-- Node2&#45;&gt;Node27 -->
<g id="edge41" class="edge">
<title>Node2&#45;&gt;Node27</title>
<path fill="none" stroke="midnightblue" d="M682.49,-470.44C721.32,-461.08 783.66,-446.06 825.92,-435.87"/>
<polygon fill="midnightblue" stroke="midnightblue" points="826.77,-439.26 835.67,-433.52 825.13,-432.46 826.77,-439.26"/>
</g>
<!-- Node5&#45;&gt;Node4 -->
<g id="edge7" class="edge">
<title>Node5&#45;&gt;Node4</title>
<path fill="none" stroke="midnightblue" d="M516.12,-362.08C400.21,-362.19 147.51,-356.97 76,-311 47.85,-292.91 38,-279.46 38,-246 38,-246 38,-246 38,-126.5 38,-53.64 287.14,-23.77 391.19,-14.47"/>
<polygon fill="midnightblue" stroke="midnightblue" points="391.72,-17.94 401.38,-13.59 391.11,-10.97 391.72,-17.94"/>
</g>
<!-- Node6 -->
<g id="node6" class="node">
<title>Node6</title>
<g id="a_node6"><a xlink:title=" ">
<polygon fill="white" stroke="#bfbfbf" points="236,-179.5 236,-198.5 286,-198.5 286,-179.5 236,-179.5"/>
<text text-anchor="middle" x="261" y="-186.5" font-family="Helvetica,sans-Serif" font-size="10.00">cstdint</text>
</a>
</g>
</g>
<!-- Node5&#45;&gt;Node6 -->
<g id="edge5" class="edge">
<title>Node5&#45;&gt;Node6</title>
<path fill="none" stroke="midnightblue" d="M516.23,-353.8C452.45,-342.55 351.28,-315.9 288,-255 275.09,-242.58 268.11,-223.06 264.5,-208.65"/>
<polygon fill="midnightblue" stroke="midnightblue" points="267.91,-207.86 262.36,-198.83 261.07,-209.35 267.91,-207.86"/>
</g>
<!-- Node7 -->
<g id="node7" class="node">
<title>Node7</title>
<g id="a_node7"><a xlink:title=" ">
<polygon fill="white" stroke="#bfbfbf" points="793,-118 793,-137 837,-137 837,-118 793,-118"/>
<text text-anchor="middle" x="815" y="-125" font-family="Helvetica,sans-Serif" font-size="10.00">limits</text>
</a>
</g>
</g>
<!-- Node5&#45;&gt;Node7 -->
<g id="edge6" class="edge">
<title>Node5&#45;&gt;Node7</title>
<path fill="none" stroke="midnightblue" d="M629.38,-352.97C683.76,-341.24 764.68,-314.38 803,-255 824.36,-221.9 821.76,-173.43 818.23,-147.13"/>
<polygon fill="midnightblue" stroke="midnightblue" points="821.66,-146.39 816.68,-137.04 814.74,-147.45 821.66,-146.39"/>
</g>
<!-- Node8 -->
<g id="node8" class="node">
<title>Node8</title>
<g id="a_node8"><a xlink:href="Real_8hpp.html" target="_top" xlink:title="Real number definition file.">
<polygon fill="white" stroke="black" points="599.5,-179.5 599.5,-198.5 698.5,-198.5 698.5,-179.5 599.5,-179.5"/>
<text text-anchor="middle" x="649" y="-186.5" font-family="Helvetica,sans-Serif" font-size="10.00">playrho/Real.hpp</text>
</a>
</g>
</g>
<!-- Node5&#45;&gt;Node8 -->
<g id="edge8" class="edge">
<title>Node5&#45;&gt;Node8</title>
<path fill="none" stroke="midnightblue" d="M600.34,-353C637.16,-339.1 704.08,-307.67 732,-255 744.69,-231.06 714.94,-213.07 687.6,-202.16"/>
<polygon fill="midnightblue" stroke="midnightblue" points="688.7,-198.83 678.1,-198.59 686.24,-205.38 688.7,-198.83"/>
</g>
<!-- Node15 -->
<g id="node15" class="node">
<title>Node15</title>
<g id="a_node15"><a xlink:href="RealConstants_8hpp.html" target="_top" xlink:title="Definitions file for constant expressions of type Real.">
<polygon fill="white" stroke="black" points="575,-235.5 575,-254.5 723,-254.5 723,-235.5 575,-235.5"/>
<text text-anchor="middle" x="649" y="-242.5" font-family="Helvetica,sans-Serif" font-size="10.00">playrho/RealConstants.hpp</text>
</a>
</g>
</g>
<!-- Node5&#45;&gt;Node15 -->
<g id="edge18" class="edge">
<title>Node5&#45;&gt;Node15</title>
<path fill="none" stroke="midnightblue" d="M580.65,-352.95C587.25,-342.93 598.49,-325.81 608,-311 618.33,-294.92 629.93,-276.48 638.15,-263.36"/>
<polygon fill="midnightblue" stroke="midnightblue" points="641.14,-265.19 643.47,-254.86 635.2,-261.48 641.14,-265.19"/>
</g>
<!-- Node16 -->
<g id="node16" class="node">
<title>Node16</title>
<g id="a_node16"><a xlink:href="Units_8hpp.html" target="_top" xlink:title="Declarations for physical units possibly backed by strong types.">
<polygon fill="white" stroke="black" points="495.5,-291.5 495.5,-310.5 598.5,-310.5 598.5,-291.5 495.5,-291.5"/>
<text text-anchor="middle" x="547" y="-298.5" font-family="Helvetica,sans-Serif" font-size="10.00">playrho/Units.hpp</text>
</a>
</g>
</g>
<!-- Node5&#45;&gt;Node16 -->
<g id="edge20" class="edge">
<title>Node5&#45;&gt;Node16</title>
<path fill="none" stroke="midnightblue" d="M570.99,-352.98C566.91,-344.32 560.48,-330.65 555.3,-319.65"/>
<polygon fill="midnightblue" stroke="midnightblue" points="558.43,-318.07 551,-310.51 552.1,-321.05 558.43,-318.07"/>
</g>
<!-- Node20 -->
<g id="node20" class="node">
<title>Node20</title>
<g id="a_node20"><a xlink:href="WiderType_8hpp.html" target="_top" xlink:title="Definition of the WiderType alias template.">
<polygon fill="white" stroke="black" points="85,-291.5 85,-310.5 213,-310.5 213,-291.5 85,-291.5"/>
<text text-anchor="middle" x="149" y="-298.5" font-family="Helvetica,sans-Serif" font-size="10.00">playrho/WiderType.hpp</text>
</a>
</g>
</g>
<!-- Node5&#45;&gt;Node20 -->
<g id="edge29" class="edge">
<title>Node5&#45;&gt;Node20</title>
<path fill="none" stroke="midnightblue" d="M516.21,-353.29C438.87,-342.49 303.05,-323.52 220.04,-311.92"/>
<polygon fill="midnightblue" stroke="midnightblue" points="220.32,-308.43 209.94,-310.51 219.36,-315.36 220.32,-308.43"/>
</g>
<!-- Node8&#45;&gt;Node7 -->
<g id="edge9" class="edge">
<title>Node8&#45;&gt;Node7</title>
<path fill="none" stroke="midnightblue" d="M672.78,-179.48C701.87,-169.05 751.2,-151.37 783.44,-139.81"/>
<polygon fill="midnightblue" stroke="midnightblue" points="784.62,-143.11 792.85,-136.44 782.26,-136.52 784.62,-143.11"/>
</g>
<!-- Node9 -->
<g id="node9" class="node">
<title>Node9</title>
<g id="a_node9"><a xlink:href="Templates_8hpp.html" target="_top" xlink:title="Definitions of miscellaneous template related code.">
<polygon fill="white" stroke="black" points="307,-118 307,-137 435,-137 435,-118 307,-118"/>
<text text-anchor="middle" x="371" y="-125" font-family="Helvetica,sans-Serif" font-size="10.00">playrho/Templates.hpp</text>
</a>
</g>
</g>
<!-- Node8&#45;&gt;Node9 -->
<g id="edge10" class="edge">
<title>Node8&#45;&gt;Node9</title>
<path fill="none" stroke="midnightblue" d="M609.17,-179.48C559.52,-168.85 474.65,-150.68 420.77,-139.15"/>
<polygon fill="midnightblue" stroke="midnightblue" points="421.27,-135.68 410.76,-137.01 419.8,-142.52 421.27,-135.68"/>
</g>
<!-- Node9&#45;&gt;Node4 -->
<g id="edge12" class="edge">
<title>Node9&#45;&gt;Node4</title>
<path fill="none" stroke="midnightblue" d="M371.87,-117.68C373.55,-103.74 378.21,-76.13 390,-56 396.66,-44.63 406.94,-34.19 416.1,-26.23"/>
<polygon fill="midnightblue" stroke="midnightblue" points="418.57,-28.73 424.05,-19.67 414.11,-23.33 418.57,-28.73"/>
</g>
<!-- Node10 -->
<g id="node10" class="node">
<title>Node10</title>
<g id="a_node10"><a xlink:title=" ">
<polygon fill="white" stroke="#bfbfbf" points="399.5,-56.5 399.5,-75.5 448.5,-75.5 448.5,-56.5 399.5,-56.5"/>
<text text-anchor="middle" x="424" y="-63.5" font-family="Helvetica,sans-Serif" font-size="10.00">cstdlib</text>
</a>
</g>
</g>
<!-- Node9&#45;&gt;Node10 -->
<g id="edge11" class="edge">
<title>Node9&#45;&gt;Node10</title>
<path fill="none" stroke="midnightblue" d="M378.59,-117.98C386.7,-108.87 399.73,-94.24 409.76,-82.98"/>
<polygon fill="midnightblue" stroke="midnightblue" points="412.38,-85.3 416.42,-75.51 407.16,-80.65 412.38,-85.3"/>
</g>
<!-- Node11 -->
<g id="node11" class="node">
<title>Node11</title>
<g id="a_node11"><a xlink:href="detail_2Templates_8hpp.html" target="_top" xlink:title="Low&#45;level declarations for general class &amp; function templates.">
<polygon fill="white" stroke="black" points="831,-56.5 831,-75.5 989,-75.5 989,-56.5 831,-56.5"/>
<text text-anchor="middle" x="910" y="-63.5" font-family="Helvetica,sans-Serif" font-size="10.00">playrho/detail/Templates.hpp</text>
</a>
</g>
</g>
<!-- Node9&#45;&gt;Node11 -->
<g id="edge13" class="edge">
<title>Node9&#45;&gt;Node11</title>
<path fill="none" stroke="midnightblue" d="M410.28,-117.95C421.16,-115.79 433.01,-113.62 444,-112 574.54,-92.78 726.9,-79.84 820.93,-72.95"/>
<polygon fill="midnightblue" stroke="midnightblue" points="821.25,-76.43 830.97,-72.22 820.74,-69.45 821.25,-76.43"/>
</g>
<!-- Node11&#45;&gt;Node4 -->
<g id="edge16" class="edge">
<title>Node11&#45;&gt;Node4</title>
<path fill="none" stroke="midnightblue" d="M835.15,-56.47C735.54,-45.12 562.49,-25.41 480.95,-16.12"/>
<polygon fill="midnightblue" stroke="midnightblue" points="480.87,-12.59 470.54,-14.93 480.07,-19.54 480.87,-12.59"/>
</g>
<!-- Node12 -->
<g id="node12" class="node">
<title>Node12</title>
<g id="a_node12"><a xlink:title=" ">
<polygon fill="white" stroke="#bfbfbf" points="811,-0.5 811,-19.5 875,-19.5 875,-0.5 811,-0.5"/>
<text text-anchor="middle" x="843" y="-7.5" font-family="Helvetica,sans-Serif" font-size="10.00">algorithm</text>
</a>
</g>
</g>
<!-- Node11&#45;&gt;Node12 -->
<g id="edge14" class="edge">
<title>Node11&#45;&gt;Node12</title>
<path fill="none" stroke="midnightblue" d="M899.24,-56.32C889.23,-48.26 874.11,-36.08 862.07,-26.37"/>
<polygon fill="midnightblue" stroke="midnightblue" points="863.94,-23.38 853.96,-19.83 859.55,-28.83 863.94,-23.38"/>
</g>
<!-- Node13 -->
<g id="node13" class="node">
<title>Node13</title>
<g id="a_node13"><a xlink:title=" ">
<polygon fill="white" stroke="#bfbfbf" points="893.5,-0.5 893.5,-19.5 946.5,-19.5 946.5,-0.5 893.5,-0.5"/>
<text text-anchor="middle" x="920" y="-7.5" font-family="Helvetica,sans-Serif" font-size="10.00">iterator</text>
</a>
</g>
</g>
<!-- Node11&#45;&gt;Node13 -->
<g id="edge15" class="edge">
<title>Node11&#45;&gt;Node13</title>
<path fill="none" stroke="midnightblue" d="M911.65,-56.08C912.98,-48.93 914.88,-38.64 916.54,-29.69"/>
<polygon fill="midnightblue" stroke="midnightblue" points="920,-30.22 918.38,-19.75 913.12,-28.95 920,-30.22"/>
</g>
<!-- Node14 -->
<g id="node14" class="node">
<title>Node14</title>
<g id="a_node14"><a xlink:title=" ">
<polygon fill="white" stroke="#bfbfbf" points="984.5,-0.5 984.5,-19.5 1029.5,-19.5 1029.5,-0.5 984.5,-0.5"/>
<text text-anchor="middle" x="1007" y="-7.5" font-family="Helvetica,sans-Serif" font-size="10.00">utility</text>
</a>
</g>
</g>
<!-- Node11&#45;&gt;Node14 -->
<g id="edge17" class="edge">
<title>Node11&#45;&gt;Node14</title>
<path fill="none" stroke="midnightblue" d="M925.58,-56.32C941,-47.74 964.81,-34.49 982.71,-24.52"/>
<polygon fill="midnightblue" stroke="midnightblue" points="984.42,-27.58 991.45,-19.65 981.01,-21.46 984.42,-27.58"/>
</g>
<!-- Node15&#45;&gt;Node8 -->
<g id="edge19" class="edge">
<title>Node15&#45;&gt;Node8</title>
<path fill="none" stroke="midnightblue" d="M649,-235.08C649,-228.01 649,-217.86 649,-208.99"/>
<polygon fill="midnightblue" stroke="midnightblue" points="652.5,-208.75 649,-198.75 645.5,-208.75 652.5,-208.75"/>
</g>
<!-- Node16&#45;&gt;Node4 -->
<g id="edge22" class="edge">
<title>Node16&#45;&gt;Node4</title>
<path fill="none" stroke="midnightblue" d="M598.64,-294.53C647.48,-288.17 715.66,-275.79 732,-255 737.49,-248.01 733.79,-243.71 732,-235 706.89,-112.66 550.16,-47.18 475.48,-22.58"/>
<polygon fill="midnightblue" stroke="midnightblue" points="476.53,-19.24 465.94,-19.51 474.39,-25.9 476.53,-19.24"/>
</g>
<!-- Node16&#45;&gt;Node8 -->
<g id="edge23" class="edge">
<title>Node16&#45;&gt;Node8</title>
<path fill="none" stroke="midnightblue" d="M547.44,-291.46C548.54,-278.05 552.41,-251.83 566,-235 577.88,-220.29 595.9,-209.7 612.13,-202.5"/>
<polygon fill="midnightblue" stroke="midnightblue" points="613.51,-205.71 621.41,-198.65 610.83,-199.25 613.51,-205.71"/>
</g>
<!-- Node16&#45;&gt;Node9 -->
<g id="edge25" class="edge">
<title>Node16&#45;&gt;Node9</title>
<path fill="none" stroke="midnightblue" d="M495.25,-298.1C430.28,-294.5 324.36,-284.2 300,-255 269.92,-218.94 321.33,-168.3 351.47,-143.45"/>
<polygon fill="midnightblue" stroke="midnightblue" points="353.71,-146.14 359.33,-137.15 349.34,-140.68 353.71,-146.14"/>
</g>
<!-- Node16&#45;&gt;Node15 -->
<g id="edge24" class="edge">
<title>Node16&#45;&gt;Node15</title>
<path fill="none" stroke="midnightblue" d="M563.39,-291.32C579.67,-282.7 604.87,-269.36 623.72,-259.39"/>
<polygon fill="midnightblue" stroke="midnightblue" points="625.45,-262.43 632.65,-254.65 622.18,-256.24 625.45,-262.43"/>
</g>
<!-- Node17 -->
<g id="node17" class="node">
<title>Node17</title>
<g id="a_node17"><a xlink:title=" ">
<polygon fill="white" stroke="#bfbfbf" points="309.5,-235.5 309.5,-254.5 356.5,-254.5 356.5,-235.5 309.5,-235.5"/>
<text text-anchor="middle" x="333" y="-242.5" font-family="Helvetica,sans-Serif" font-size="10.00">cmath</text>
</a>
</g>
</g>
<!-- Node16&#45;&gt;Node17 -->
<g id="edge21" class="edge">
<title>Node16&#45;&gt;Node17</title>
<path fill="none" stroke="midnightblue" d="M511.56,-291.44C477.03,-283.04 422.79,-269.71 366.55,-255.1"/>
<polygon fill="midnightblue" stroke="midnightblue" points="367.34,-251.69 356.78,-252.55 365.57,-258.46 367.34,-251.69"/>
</g>
<!-- Node18 -->
<g id="node18" class="node">
<title>Node18</title>
<g id="a_node18"><a xlink:href="to__underlying_8hpp.html" target="_top" xlink:title="Definition of to_underlying function template.">
<polygon fill="white" stroke="black" points="375,-235.5 375,-254.5 519,-254.5 519,-235.5 375,-235.5"/>
<text text-anchor="middle" x="447" y="-242.5" font-family="Helvetica,sans-Serif" font-size="10.00">playrho/to_underlying.hpp</text>
</a>
</g>
</g>
<!-- Node16&#45;&gt;Node18 -->
<g id="edge26" class="edge">
<title>Node16&#45;&gt;Node18</title>
<path fill="none" stroke="midnightblue" d="M530.93,-291.32C515.04,-282.74 490.49,-269.49 472.04,-259.52"/>
<polygon fill="midnightblue" stroke="midnightblue" points="473.49,-256.33 463.03,-254.65 470.16,-262.49 473.49,-256.33"/>
</g>
<!-- Node19 -->
<g id="node19" class="node">
<title>Node19</title>
<g id="a_node19"><a xlink:href="underlying__type_8hpp.html" target="_top" xlink:title="Definition of underlying_type trait class and related code.">
<polygon fill="white" stroke="black" points="453.5,-112.5 453.5,-142.5 592.5,-142.5 592.5,-112.5 453.5,-112.5"/>
<text text-anchor="start" x="461.5" y="-130.5" font-family="Helvetica,sans-Serif" font-size="10.00">playrho/detail/underlying</text>
<text text-anchor="middle" x="523" y="-119.5" font-family="Helvetica,sans-Serif" font-size="10.00">_type.hpp</text>
</a>
</g>
</g>
<!-- Node18&#45;&gt;Node19 -->
<g id="edge27" class="edge">
<title>Node18&#45;&gt;Node19</title>
<path fill="none" stroke="midnightblue" d="M452.71,-235.32C464.38,-217.58 491.3,-176.68 508.23,-150.95"/>
<polygon fill="midnightblue" stroke="midnightblue" points="511.19,-152.82 513.76,-142.55 505.34,-148.98 511.19,-152.82"/>
</g>
<!-- Node19&#45;&gt;Node4 -->
<g id="edge28" class="edge">
<title>Node19&#45;&gt;Node4</title>
<path fill="none" stroke="midnightblue" d="M512.33,-112.34C496.23,-90.96 465.78,-50.53 448.6,-27.73"/>
<polygon fill="midnightblue" stroke="midnightblue" points="451.34,-25.55 442.53,-19.67 445.75,-29.76 451.34,-25.55"/>
</g>
<!-- Node21 -->
<g id="node21" class="node">
<title>Node21</title>
<g id="a_node21"><a xlink:href="Wider_8hpp.html" target="_top" xlink:title="Definition of the Wider class template and specializations.">
<polygon fill="white" stroke="black" points="79,-235.5 79,-254.5 215,-254.5 215,-235.5 79,-235.5"/>
<text text-anchor="middle" x="147" y="-242.5" font-family="Helvetica,sans-Serif" font-size="10.00">playrho/detail/Wider.hpp</text>
</a>
</g>
</g>
<!-- Node20&#45;&gt;Node21 -->
<g id="edge30" class="edge">
<title>Node20&#45;&gt;Node21</title>
<path fill="none" stroke="midnightblue" d="M148.67,-291.08C148.41,-284.01 148.03,-273.86 147.7,-264.99"/>
<polygon fill="midnightblue" stroke="midnightblue" points="151.19,-264.61 147.32,-254.75 144.2,-264.87 151.19,-264.61"/>
</g>
<!-- Node21&#45;&gt;Node4 -->
<g id="edge32" class="edge">
<title>Node21&#45;&gt;Node4</title>
<path fill="none" stroke="midnightblue" d="M131.34,-235.46C111.52,-223.48 81.49,-200.72 95,-179 160.67,-73.43 314.36,-32.26 390.95,-17.87"/>
<polygon fill="midnightblue" stroke="midnightblue" points="392.01,-21.24 401.23,-16.02 390.77,-14.35 392.01,-21.24"/>
</g>
<!-- Node21&#45;&gt;Node6 -->
<g id="edge31" class="edge">
<title>Node21&#45;&gt;Node6</title>
<path fill="none" stroke="midnightblue" d="M165.06,-235.44C183.57,-226.68 212.58,-212.94 233.86,-202.86"/>
<polygon fill="midnightblue" stroke="midnightblue" points="235.48,-205.96 243.02,-198.52 232.49,-199.63 235.48,-205.96"/>
</g>
<!-- Node22 -->
<g id="node22" class="node">
<title>Node22</title>
<g id="a_node22"><a xlink:href="Defines_8hpp.html" target="_top" xlink:title="Miscellaneous C&#45;preprocessor definitions.">
<polygon fill="white" stroke="black" points="104,-179.5 104,-198.5 218,-198.5 218,-179.5 104,-179.5"/>
<text text-anchor="middle" x="161" y="-186.5" font-family="Helvetica,sans-Serif" font-size="10.00">playrho/Defines.hpp</text>
</a>
</g>
</g>
<!-- Node21&#45;&gt;Node22 -->
<g id="edge33" class="edge">
<title>Node21&#45;&gt;Node22</title>
<path fill="none" stroke="midnightblue" d="M149.31,-235.08C151.17,-227.93 153.84,-217.64 156.15,-208.69"/>
<polygon fill="midnightblue" stroke="midnightblue" points="159.61,-209.31 158.73,-198.75 152.83,-207.55 159.61,-209.31"/>
</g>
<!-- Node23&#45;&gt;Node5 -->
<g id="edge40" class="edge">
<title>Node23&#45;&gt;Node5</title>
<path fill="none" stroke="midnightblue" d="M649.54,-414.48C635.58,-404.93 612.74,-389.31 596.01,-377.87"/>
<polygon fill="midnightblue" stroke="midnightblue" points="597.67,-374.77 587.44,-372.01 593.72,-380.54 597.67,-374.77"/>
</g>
<!-- Node24 -->
<g id="node24" class="node">
<title>Node24</title>
<g id="a_node24"><a xlink:href="IndexingNamedType_8hpp.html" target="_top" xlink:title="Definition of IndexingNamedType class template and related code.">
<polygon fill="white" stroke="black" points="817,-347.5 817,-377.5 981,-377.5 981,-347.5 817,-347.5"/>
<text text-anchor="start" x="825" y="-365.5" font-family="Helvetica,sans-Serif" font-size="10.00">playrho/detail/IndexingNamed</text>
<text text-anchor="middle" x="899" y="-354.5" font-family="Helvetica,sans-Serif" font-size="10.00">Type.hpp</text>
</a>
</g>
</g>
<!-- Node23&#45;&gt;Node24 -->
<g id="edge35" class="edge">
<title>Node23&#45;&gt;Node24</title>
<path fill="none" stroke="midnightblue" d="M695.96,-414.48C731.65,-405.51 788.71,-391.19 833.26,-380"/>
<polygon fill="midnightblue" stroke="midnightblue" points="834.3,-383.35 843.14,-377.52 832.59,-376.56 834.3,-383.35"/>
</g>
<!-- Node24&#45;&gt;Node4 -->
<g id="edge38" class="edge">
<title>Node24&#45;&gt;Node4</title>
<path fill="none" stroke="midnightblue" d="M891.96,-347.31C882,-325.91 865,-283.83 865,-246 865,-246 865,-246 865,-188 865,-153.18 870.66,-136.58 846,-112 794.45,-60.63 576.22,-28.19 480.88,-16.21"/>
<polygon fill="midnightblue" stroke="midnightblue" points="481.04,-12.71 470.69,-14.95 480.19,-19.65 481.04,-12.71"/>
</g>
<!-- Node24&#45;&gt;Node14 -->
<g id="edge39" class="edge">
<title>Node24&#45;&gt;Node14</title>
<path fill="none" stroke="midnightblue" d="M930.31,-347.49C965.27,-329.47 1017,-294.59 1017,-246 1017,-246 1017,-246 1017,-126.5 1017,-92.24 1012.58,-52.47 1009.61,-29.67"/>
<polygon fill="midnightblue" stroke="midnightblue" points="1013.07,-29.11 1008.27,-19.67 1006.14,-30.05 1013.07,-29.11"/>
</g>
<!-- Node25 -->
<g id="node25" class="node">
<title>Node25</title>
<g id="a_node25"><a xlink:title=" ">
<polygon fill="white" stroke="#bfbfbf" points="1045.5,-291.5 1045.5,-310.5 1098.5,-310.5 1098.5,-291.5 1045.5,-291.5"/>
<text text-anchor="middle" x="1072" y="-298.5" font-family="Helvetica,sans-Serif" font-size="10.00">cstddef</text>
</a>
</g>
</g>
<!-- Node24&#45;&gt;Node25 -->
<g id="edge36" class="edge">
<title>Node24&#45;&gt;Node25</title>
<path fill="none" stroke="midnightblue" d="M940,-347.4C969.63,-337.21 1009.23,-323.59 1037.3,-313.93"/>
<polygon fill="midnightblue" stroke="midnightblue" points="1038.76,-317.13 1047.08,-310.57 1036.48,-310.51 1038.76,-317.13"/>
</g>
<!-- Node26 -->
<g id="node26" class="node">
<title>Node26</title>
<g id="a_node26"><a xlink:title=" ">
<polygon fill="white" stroke="#bfbfbf" points="1116.5,-291.5 1116.5,-310.5 1181.5,-310.5 1181.5,-291.5 1116.5,-291.5"/>
<text text-anchor="middle" x="1149" y="-298.5" font-family="Helvetica,sans-Serif" font-size="10.00">functional</text>
</a>
</g>
</g>
<!-- Node24&#45;&gt;Node26 -->
<g id="edge37" class="edge">
<title>Node24&#45;&gt;Node26</title>
<path fill="none" stroke="midnightblue" d="M957.93,-347.47C1003.58,-336.61 1065.72,-321.82 1106.57,-312.1"/>
<polygon fill="midnightblue" stroke="midnightblue" points="1107.56,-315.46 1116.47,-309.74 1105.94,-308.65 1107.56,-315.46"/>
</g>
<!-- Node27&#45;&gt;Node5 -->
<g id="edge43" class="edge">
<title>Node27&#45;&gt;Node5</title>
<path fill="none" stroke="midnightblue" d="M828.59,-414.48C775.51,-403.8 684.61,-385.53 627.28,-374.01"/>
<polygon fill="midnightblue" stroke="midnightblue" points="627.82,-370.55 617.33,-372.01 626.45,-377.41 627.82,-370.55"/>
</g>
<!-- Node27&#45;&gt;Node24 -->
<g id="edge42" class="edge">
<title>Node27&#45;&gt;Node24</title>
<path fill="none" stroke="midnightblue" d="M875.01,-414.48C878.41,-407.25 883.46,-396.53 888.05,-386.78"/>
<polygon fill="midnightblue" stroke="midnightblue" points="891.31,-388.06 892.4,-377.52 884.98,-385.08 891.31,-388.06"/>
</g>
</g>
</svg>
