<?xml version="1.0" encoding="UTF-8" standalone="no"?>
<!DOCTYPE svg PUBLIC "-//W3C//DTD SVG 1.1//EN"
 "http://www.w3.org/Graphics/SVG/1.1/DTD/svg11.dtd">
<!-- Generated by graphviz version 2.43.0 (0)
 -->
<!-- Title: Library/include/playrho/Filter.hpp Pages: 1 -->
<svg width="958pt" height="508pt"
 viewBox="0.00 0.00 958.00 508.00" xmlns="http://www.w3.org/2000/svg" xmlns:xlink="http://www.w3.org/1999/xlink">
<g id="graph0" class="graph" transform="scale(1 1) rotate(0) translate(4 504)">
<title>Library/include/playrho/Filter.hpp</title>
<polygon fill="white" stroke="transparent" points="-4,4 -4,-504 954,-504 954,4 -4,4"/>
<!-- Node1 -->
<g id="node1" class="node">
<title>Node1</title>
<g id="a_node1"><a xlink:title="Declarations of the Filter class and any free functions associated with it.">
<polygon fill="#bfbfbf" stroke="black" points="227,-469.5 227,-499.5 355,-499.5 355,-469.5 227,-469.5"/>
<text text-anchor="start" x="235" y="-487.5" font-family="Helvetica,sans-Serif" font-size="10.00">Library/include/playrho</text>
<text text-anchor="middle" x="291" y="-476.5" font-family="Helvetica,sans-Serif" font-size="10.00">/Filter.hpp</text>
</a>
</g>
</g>
<!-- Node2 -->
<g id="node2" class="node">
<title>Node2</title>
<g id="a_node2"><a xlink:href="ShapeConcept_8hpp.html" target="_top" xlink:title="Definition of the internal ShapeConcept interface class.">
<polygon fill="white" stroke="black" points="107,-402.5 107,-432.5 263,-432.5 263,-402.5 107,-402.5"/>
<text text-anchor="start" x="115" y="-420.5" font-family="Helvetica,sans-Serif" font-size="10.00">Library/include/playrho</text>
<text text-anchor="middle" x="185" y="-409.5" font-family="Helvetica,sans-Serif" font-size="10.00">/d2/detail/ShapeConcept.hpp</text>
</a>
</g>
</g>
<!-- Node1&#45;&gt;Node2 -->
<g id="edge1" class="edge">
<title>Node1&#45;&gt;Node2</title>
<path fill="none" stroke="midnightblue" d="M259.22,-464.02C242.73,-453.9 222.95,-441.77 207.96,-432.58"/>
<polygon fill="midnightblue" stroke="midnightblue" points="257.65,-467.15 268,-469.4 261.3,-461.18 257.65,-467.15"/>
</g>
<!-- Node4 -->
<g id="node4" class="node">
<title>Node4</title>
<g id="a_node4"><a xlink:href="Shape_8hpp.html" target="_top" xlink:title="Definition of the Shape class and closely related code.">
<polygon fill="white" stroke="black" points="180,-268.5 180,-298.5 308,-298.5 308,-268.5 180,-268.5"/>
<text text-anchor="start" x="188" y="-286.5" font-family="Helvetica,sans-Serif" font-size="10.00">Library/include/playrho</text>
<text text-anchor="middle" x="244" y="-275.5" font-family="Helvetica,sans-Serif" font-size="10.00">/d2/Shape.hpp</text>
</a>
</g>
</g>
<!-- Node1&#45;&gt;Node4 -->
<g id="edge11" class="edge">
<title>Node1&#45;&gt;Node4</title>
<path fill="none" stroke="midnightblue" d="M285.46,-459.6C281.69,-443.35 276.57,-421.37 272,-402 263.2,-364.65 252.67,-320.65 247.38,-298.6"/>
<polygon fill="midnightblue" stroke="midnightblue" points="282.06,-460.41 287.73,-469.36 288.87,-458.83 282.06,-460.41"/>
</g>
<!-- Node9 -->
<g id="node9" class="node">
<title>Node9</title>
<g id="a_node9"><a xlink:href="ShapeConf_8hpp.html" target="_top" xlink:title="Definition of the BaseShapeConf class and closely related code.">
<polygon fill="white" stroke="black" points="432,-134.5 432,-164.5 560,-164.5 560,-134.5 432,-134.5"/>
<text text-anchor="start" x="440" y="-152.5" font-family="Helvetica,sans-Serif" font-size="10.00">Library/include/playrho</text>
<text text-anchor="middle" x="496" y="-141.5" font-family="Helvetica,sans-Serif" font-size="10.00">/d2/ShapeConf.hpp</text>
</a>
</g>
</g>
<!-- Node1&#45;&gt;Node9 -->
<g id="edge12" class="edge">
<title>Node1&#45;&gt;Node9</title>
<path fill="none" stroke="midnightblue" d="M304.32,-460.47C317.91,-434.77 337,-391.53 337,-351.5 337,-351.5 337,-351.5 337,-282.5 337,-221.51 407.12,-183.31 454.22,-164.53"/>
<polygon fill="midnightblue" stroke="midnightblue" points="301.16,-458.96 299.44,-469.41 307.3,-462.31 301.16,-458.96"/>
</g>
<!-- Node3 -->
<g id="node3" class="node">
<title>Node3</title>
<g id="a_node3"><a xlink:href="ShapeModel_8hpp.html" target="_top" xlink:title="Definition of the ShapeModel class and related code.">
<polygon fill="white" stroke="black" points="75,-335.5 75,-365.5 221,-365.5 221,-335.5 75,-335.5"/>
<text text-anchor="start" x="83" y="-353.5" font-family="Helvetica,sans-Serif" font-size="10.00">Library/include/playrho</text>
<text text-anchor="middle" x="148" y="-342.5" font-family="Helvetica,sans-Serif" font-size="10.00">/d2/detail/ShapeModel.hpp</text>
</a>
</g>
</g>
<!-- Node2&#45;&gt;Node3 -->
<g id="edge2" class="edge">
<title>Node2&#45;&gt;Node3</title>
<path fill="none" stroke="midnightblue" d="M171.95,-393.58C166.64,-384.24 160.66,-373.75 156.01,-365.58"/>
<polygon fill="midnightblue" stroke="midnightblue" points="168.98,-395.44 176.97,-402.4 175.07,-391.97 168.98,-395.44"/>
</g>
<!-- Node2&#45;&gt;Node4 -->
<g id="edge10" class="edge">
<title>Node2&#45;&gt;Node4</title>
<path fill="none" stroke="midnightblue" d="M208.84,-395.15C216.75,-386.81 224.85,-376.69 230,-366 240.53,-344.14 243.26,-315.63 243.9,-298.77"/>
<polygon fill="midnightblue" stroke="midnightblue" points="206.31,-392.72 201.71,-402.26 211.26,-397.67 206.31,-392.72"/>
</g>
<!-- Node3&#45;&gt;Node4 -->
<g id="edge3" class="edge">
<title>Node3&#45;&gt;Node4</title>
<path fill="none" stroke="midnightblue" d="M177.19,-329.73C192.05,-319.68 209.76,-307.68 223.21,-298.58"/>
<polygon fill="midnightblue" stroke="midnightblue" points="175.15,-326.89 168.83,-335.4 179.07,-332.69 175.15,-326.89"/>
</g>
<!-- Node5 -->
<g id="node5" class="node">
<title>Node5</title>
<g id="a_node5"><a xlink:href="WorldConcept_8hpp.html" target="_top" xlink:title="Definition of the internal WorldConcept interface class.">
<polygon fill="white" stroke="black" points="62,-201.5 62,-231.5 216,-231.5 216,-201.5 62,-201.5"/>
<text text-anchor="start" x="70" y="-219.5" font-family="Helvetica,sans-Serif" font-size="10.00">Library/include/playrho</text>
<text text-anchor="middle" x="139" y="-208.5" font-family="Helvetica,sans-Serif" font-size="10.00">/d2/detail/WorldConcept.hpp</text>
</a>
</g>
</g>
<!-- Node4&#45;&gt;Node5 -->
<g id="edge4" class="edge">
<title>Node4&#45;&gt;Node5</title>
<path fill="none" stroke="midnightblue" d="M212.52,-263.02C196.18,-252.9 176.59,-240.77 161.74,-231.58"/>
<polygon fill="midnightblue" stroke="midnightblue" points="210.87,-266.11 221.22,-268.4 214.56,-260.16 210.87,-266.11"/>
</g>
<!-- Node7 -->
<g id="node7" class="node">
<title>Node7</title>
<g id="a_node7"><a xlink:href="World_8hpp.html" target="_top" xlink:title="Definitions of the World class and closely related code.">
<polygon fill="white" stroke="black" points="58,-67.5 58,-97.5 186,-97.5 186,-67.5 58,-67.5"/>
<text text-anchor="start" x="66" y="-85.5" font-family="Helvetica,sans-Serif" font-size="10.00">Library/include/playrho</text>
<text text-anchor="middle" x="122" y="-74.5" font-family="Helvetica,sans-Serif" font-size="10.00">/d2/World.hpp</text>
</a>
</g>
</g>
<!-- Node4&#45;&gt;Node7 -->
<g id="edge9" class="edge">
<title>Node4&#45;&gt;Node7</title>
<path fill="none" stroke="midnightblue" d="M241.35,-258.18C238.81,-241.43 233.99,-219.02 225,-201 203.45,-157.79 162.07,-117.86 138.86,-97.54"/>
<polygon fill="midnightblue" stroke="midnightblue" points="237.9,-258.83 242.71,-268.27 244.84,-257.9 237.9,-258.83"/>
</g>
<!-- Node6 -->
<g id="node6" class="node">
<title>Node6</title>
<g id="a_node6"><a xlink:href="WorldModel_8hpp.html" target="_top" xlink:title="Definitions of the WorldModel class and closely related code.">
<polygon fill="white" stroke="black" points="0,-134.5 0,-164.5 144,-164.5 144,-134.5 0,-134.5"/>
<text text-anchor="start" x="8" y="-152.5" font-family="Helvetica,sans-Serif" font-size="10.00">Library/include/playrho</text>
<text text-anchor="middle" x="72" y="-141.5" font-family="Helvetica,sans-Serif" font-size="10.00">/d2/detail/WorldModel.hpp</text>
</a>
</g>
</g>
<!-- Node5&#45;&gt;Node6 -->
<g id="edge5" class="edge">
<title>Node5&#45;&gt;Node6</title>
<path fill="none" stroke="midnightblue" d="M117.16,-194.31C107.11,-184.56 95.46,-173.26 86.51,-164.58"/>
<polygon fill="midnightblue" stroke="midnightblue" points="114.85,-196.94 124.46,-201.4 119.72,-191.92 114.85,-196.94"/>
</g>
<!-- Node5&#45;&gt;Node7 -->
<g id="edge8" class="edge">
<title>Node5&#45;&gt;Node7</title>
<path fill="none" stroke="midnightblue" d="M148.64,-191.6C153.91,-175.2 158.38,-153.04 153,-134 149.2,-120.54 140.69,-107.12 133.54,-97.51"/>
<polygon fill="midnightblue" stroke="midnightblue" points="145.18,-190.86 145.15,-201.46 151.78,-193.2 145.18,-190.86"/>
</g>
<!-- Node6&#45;&gt;Node7 -->
<g id="edge6" class="edge">
<title>Node6&#45;&gt;Node7</title>
<path fill="none" stroke="midnightblue" d="M88.96,-126.45C96.31,-116.9 104.69,-106 111.17,-97.58"/>
<polygon fill="midnightblue" stroke="midnightblue" points="86.17,-124.34 82.85,-134.4 91.72,-128.6 86.17,-124.34"/>
</g>
<!-- Node8 -->
<g id="node8" class="node">
<title>Node8</title>
<g id="a_node8"><a xlink:href="BasicAPI_8hpp.html" target="_top" xlink:title="Basic API include file to pull in at once most headers used.">
<polygon fill="white" stroke="black" points="432,-0.5 432,-30.5 560,-30.5 560,-0.5 432,-0.5"/>
<text text-anchor="start" x="440" y="-18.5" font-family="Helvetica,sans-Serif" font-size="10.00">Library/include/playrho</text>
<text text-anchor="middle" x="496" y="-7.5" font-family="Helvetica,sans-Serif" font-size="10.00">/d2/BasicAPI.hpp</text>
</a>
</g>
</g>
<!-- Node7&#45;&gt;Node8 -->
<g id="edge7" class="edge">
<title>Node7&#45;&gt;Node8</title>
<path fill="none" stroke="midnightblue" d="M196.16,-66.82C283.52,-50.91 373.16,-36.15 431.9,-26.69"/>
<polygon fill="midnightblue" stroke="midnightblue" points="195.28,-63.42 186.07,-68.66 196.54,-70.31 195.28,-63.42"/>
</g>
<!-- Node10 -->
<g id="node10" class="node">
<title>Node10</title>
<g id="a_node10"><a xlink:href="ChainShapeConf_8hpp.html" target="_top" xlink:title="Definition of the ChainShapeConf class and closely related code.">
<polygon fill="white" stroke="black" points="204.5,-67.5 204.5,-97.5 339.5,-97.5 339.5,-67.5 204.5,-67.5"/>
<text text-anchor="start" x="212.5" y="-85.5" font-family="Helvetica,sans-Serif" font-size="10.00">Library/include/playrho</text>
<text text-anchor="middle" x="272" y="-74.5" font-family="Helvetica,sans-Serif" font-size="10.00">/d2/ChainShapeConf.hpp</text>
</a>
</g>
</g>
<!-- Node9&#45;&gt;Node10 -->
<g id="edge13" class="edge">
<title>Node9&#45;&gt;Node10</title>
<path fill="none" stroke="midnightblue" d="M437.69,-131.58C401.31,-121.02 355.03,-107.59 320.63,-97.61"/>
<polygon fill="midnightblue" stroke="midnightblue" points="437.09,-135.05 447.67,-134.48 439.04,-128.33 437.09,-135.05"/>
</g>
<!-- Node11 -->
<g id="node11" class="node">
<title>Node11</title>
<g id="a_node11"><a xlink:href="DiskShapeConf_8hpp.html" target="_top" xlink:title="Definition of the DiskShapeConf class and closely related code.">
<polygon fill="white" stroke="black" points="357.5,-67.5 357.5,-97.5 486.5,-97.5 486.5,-67.5 357.5,-67.5"/>
<text text-anchor="start" x="365.5" y="-85.5" font-family="Helvetica,sans-Serif" font-size="10.00">Library/include/playrho</text>
<text text-anchor="middle" x="422" y="-74.5" font-family="Helvetica,sans-Serif" font-size="10.00">/d2/DiskShapeConf.hpp</text>
</a>
</g>
</g>
<!-- Node9&#45;&gt;Node11 -->
<g id="edge15" class="edge">
<title>Node9&#45;&gt;Node11</title>
<path fill="none" stroke="midnightblue" d="M472.2,-127.6C461.03,-117.78 448.01,-106.34 438.03,-97.58"/>
<polygon fill="midnightblue" stroke="midnightblue" points="470.12,-130.43 479.94,-134.4 474.74,-125.17 470.12,-130.43"/>
</g>
<!-- Node12 -->
<g id="node12" class="node">
<title>Node12</title>
<g id="a_node12"><a xlink:href="EdgeShapeConf_8hpp.html" target="_top" xlink:title="Definition of the EdgeShapeConf class and closely related code.">
<polygon fill="white" stroke="black" points="504.5,-67.5 504.5,-97.5 635.5,-97.5 635.5,-67.5 504.5,-67.5"/>
<text text-anchor="start" x="512.5" y="-85.5" font-family="Helvetica,sans-Serif" font-size="10.00">Library/include/playrho</text>
<text text-anchor="middle" x="570" y="-74.5" font-family="Helvetica,sans-Serif" font-size="10.00">/d2/EdgeShapeConf.hpp</text>
</a>
</g>
</g>
<!-- Node9&#45;&gt;Node12 -->
<g id="edge17" class="edge">
<title>Node9&#45;&gt;Node12</title>
<path fill="none" stroke="midnightblue" d="M519.8,-127.6C530.97,-117.78 543.99,-106.34 553.97,-97.58"/>
<polygon fill="midnightblue" stroke="midnightblue" points="517.26,-125.17 512.06,-134.4 521.88,-130.43 517.26,-125.17"/>
</g>
<!-- Node13 -->
<g id="node13" class="node">
<title>Node13</title>
<g id="a_node13"><a xlink:href="MultiShapeConf_8hpp.html" target="_top" xlink:title="Definition of the MultiShapeConf class and closely related code.">
<polygon fill="white" stroke="black" points="654,-67.5 654,-97.5 786,-97.5 786,-67.5 654,-67.5"/>
<text text-anchor="start" x="662" y="-85.5" font-family="Helvetica,sans-Serif" font-size="10.00">Library/include/playrho</text>
<text text-anchor="middle" x="720" y="-74.5" font-family="Helvetica,sans-Serif" font-size="10.00">/d2/MultiShapeConf.hpp</text>
</a>
</g>
</g>
<!-- Node9&#45;&gt;Node13 -->
<g id="edge19" class="edge">
<title>Node9&#45;&gt;Node13</title>
<path fill="none" stroke="midnightblue" d="M554.31,-131.58C590.69,-121.02 636.97,-107.59 671.37,-97.61"/>
<polygon fill="midnightblue" stroke="midnightblue" points="552.96,-128.33 544.33,-134.48 554.91,-135.05 552.96,-128.33"/>
</g>
<!-- Node14 -->
<g id="node14" class="node">
<title>Node14</title>
<g id="a_node14"><a xlink:href="PolygonShapeConf_8hpp.html" target="_top" xlink:title="Definition of the PolygonShapeConf class and closely related code.">
<polygon fill="white" stroke="black" points="804,-67.5 804,-97.5 950,-97.5 950,-67.5 804,-67.5"/>
<text text-anchor="start" x="812" y="-85.5" font-family="Helvetica,sans-Serif" font-size="10.00">Library/include/playrho</text>
<text text-anchor="middle" x="877" y="-74.5" font-family="Helvetica,sans-Serif" font-size="10.00">/d2/PolygonShapeConf.hpp</text>
</a>
</g>
</g>
<!-- Node9&#45;&gt;Node14 -->
<g id="edge21" class="edge">
<title>Node9&#45;&gt;Node14</title>
<path fill="none" stroke="midnightblue" d="M570.41,-136.1C630.92,-125.97 718.5,-111.22 795,-98 797.85,-97.51 800.75,-97 803.69,-96.49"/>
<polygon fill="midnightblue" stroke="midnightblue" points="569.47,-132.7 560.18,-137.81 570.62,-139.61 569.47,-132.7"/>
</g>
<!-- Node10&#45;&gt;Node8 -->
<g id="edge14" class="edge">
<title>Node10&#45;&gt;Node8</title>
<path fill="none" stroke="midnightblue" d="M330.31,-64.58C366.69,-54.02 412.97,-40.59 447.37,-30.61"/>
<polygon fill="midnightblue" stroke="midnightblue" points="328.96,-61.33 320.33,-67.48 330.91,-68.05 328.96,-61.33"/>
</g>
<!-- Node11&#45;&gt;Node8 -->
<g id="edge16" class="edge">
<title>Node11&#45;&gt;Node8</title>
<path fill="none" stroke="midnightblue" d="M445.8,-60.6C456.97,-50.78 469.99,-39.34 479.97,-30.58"/>
<polygon fill="midnightblue" stroke="midnightblue" points="443.26,-58.17 438.06,-67.4 447.88,-63.43 443.26,-58.17"/>
</g>
<!-- Node12&#45;&gt;Node8 -->
<g id="edge18" class="edge">
<title>Node12&#45;&gt;Node8</title>
<path fill="none" stroke="midnightblue" d="M546.2,-60.6C535.03,-50.78 522.01,-39.34 512.03,-30.58"/>
<polygon fill="midnightblue" stroke="midnightblue" points="544.12,-63.43 553.94,-67.4 548.74,-58.17 544.12,-63.43"/>
</g>
<!-- Node13&#45;&gt;Node8 -->
<g id="edge20" class="edge">
<title>Node13&#45;&gt;Node8</title>
<path fill="none" stroke="midnightblue" d="M661.69,-64.58C625.31,-54.02 579.03,-40.59 544.63,-30.61"/>
<polygon fill="midnightblue" stroke="midnightblue" points="661.09,-68.05 671.67,-67.48 663.04,-61.33 661.09,-68.05"/>
</g>
<!-- Node14&#45;&gt;Node8 -->
<g id="edge22" class="edge">
<title>Node14&#45;&gt;Node8</title>
<path fill="none" stroke="midnightblue" d="M793.7,-66.78C707.19,-51.85 618.5,-36.94 560.18,-27.19"/>
<polygon fill="midnightblue" stroke="midnightblue" points="793.24,-70.25 803.69,-68.51 794.43,-63.36 793.24,-70.25"/>
</g>
</g>
</svg>
