<?xml version="1.0" encoding="UTF-8" standalone="no"?>
<!DOCTYPE svg PUBLIC "-//W3C//DTD SVG 1.1//EN"
 "http://www.w3.org/Graphics/SVG/1.1/DTD/svg11.dtd">
<!-- Generated by graphviz version 2.43.0 (0)
 -->
<!-- Title: Library/include/playrho/Filter.hpp Pages: 1 -->
<svg width="190pt" height="95pt"
 viewBox="0.00 0.00 190.00 95.00" xmlns="http://www.w3.org/2000/svg" xmlns:xlink="http://www.w3.org/1999/xlink">
<g id="graph0" class="graph" transform="scale(1 1) rotate(0) translate(4 91)">
<title>Library/include/playrho/Filter.hpp</title>
<polygon fill="white" stroke="transparent" points="-4,4 -4,-91 186,-91 186,4 -4,4"/>
<!-- Node1 -->
<g id="node1" class="node">
<title>Node1</title>
<g id="a_node1"><a xlink:title="Declarations of the Filter class and any free functions associated with it.">
<polygon fill="#bfbfbf" stroke="black" points="43,-56.5 43,-86.5 171,-86.5 171,-56.5 43,-56.5"/>
<text text-anchor="start" x="51" y="-74.5" font-family="Helvetica,sans-Serif" font-size="10.00">Library/include/playrho</text>
<text text-anchor="middle" x="107" y="-63.5" font-family="Helvetica,sans-Serif" font-size="10.00">/Filter.hpp</text>
</a>
</g>
</g>
<!-- Node2 -->
<g id="node2" class="node">
<title>Node2</title>
<g id="a_node2"><a xlink:href="Defines_8hpp.html" target="_top" xlink:title="Miscellaneous C&#45;preprocessor definitions.">
<polygon fill="white" stroke="black" points="0,-0.5 0,-19.5 114,-19.5 114,-0.5 0,-0.5"/>
<text text-anchor="middle" x="57" y="-7.5" font-family="Helvetica,sans-Serif" font-size="10.00">playrho/Defines.hpp</text>
</a>
</g>
</g>
<!-- Node1&#45;&gt;Node2 -->
<g id="edge1" class="edge">
<title>Node1&#45;&gt;Node2</title>
<path fill="none" stroke="midnightblue" d="M95.15,-56.4C87.89,-47.75 78.55,-36.64 70.93,-27.58"/>
<polygon fill="midnightblue" stroke="midnightblue" points="73.39,-25.06 64.28,-19.66 68.03,-29.57 73.39,-25.06"/>
</g>
<!-- Node3 -->
<g id="node3" class="node">
<title>Node3</title>
<g id="a_node3"><a xlink:title=" ">
<polygon fill="white" stroke="#bfbfbf" points="132,-0.5 132,-19.5 182,-19.5 182,-0.5 132,-0.5"/>
<text text-anchor="middle" x="157" y="-7.5" font-family="Helvetica,sans-Serif" font-size="10.00">cstdint</text>
</a>
</g>
</g>
<!-- Node1&#45;&gt;Node3 -->
<g id="edge2" class="edge">
<title>Node1&#45;&gt;Node3</title>
<path fill="none" stroke="midnightblue" d="M118.85,-56.4C126.11,-47.75 135.45,-36.64 143.07,-27.58"/>
<polygon fill="midnightblue" stroke="midnightblue" points="145.97,-29.57 149.72,-19.66 140.61,-25.06 145.97,-29.57"/>
</g>
</g>
</svg>
