<?xml version="1.0" encoding="UTF-8" standalone="no"?>
<!DOCTYPE svg PUBLIC "-//W3C//DTD SVG 1.1//EN"
 "http://www.w3.org/Graphics/SVG/1.1/DTD/svg11.dtd">
<!-- Generated by graphviz version 2.43.0 (0)
 -->
<!-- Title: Library/include/playrho/detail/FiniteChecker.hpp Pages: 1 -->
<svg width="2196pt" height="621pt"
 viewBox="0.00 0.00 2196.17 621.00" xmlns="http://www.w3.org/2000/svg" xmlns:xlink="http://www.w3.org/1999/xlink">
<g id="graph0" class="graph" transform="scale(1 1) rotate(0) translate(4 617)">
<title>Library/include/playrho/detail/FiniteChecker.hpp</title>
<polygon fill="white" stroke="transparent" points="-4,4 -4,-617 2192.17,-617 2192.17,4 -4,4"/>
<!-- Node1 -->
<g id="node1" class="node">
<title>Node1</title>
<g id="a_node1"><a xlink:title="Definition of the FiniteChecker class template.">
<polygon fill="#bfbfbf" stroke="black" points="998.17,-582.5 998.17,-612.5 1135.17,-612.5 1135.17,-582.5 998.17,-582.5"/>
<text text-anchor="start" x="1006.17" y="-600.5" font-family="Helvetica,sans-Serif" font-size="10.00">Library/include/playrho</text>
<text text-anchor="middle" x="1066.67" y="-589.5" font-family="Helvetica,sans-Serif" font-size="10.00">/detail/FiniteChecker.hpp</text>
</a>
</g>
</g>
<!-- Node2 -->
<g id="node2" class="node">
<title>Node2</title>
<g id="a_node2"><a xlink:href="Math_8hpp.html" target="_top" xlink:title="Conventional and custom math related code.">
<polygon fill="white" stroke="black" points="1015.67,-526.5 1015.67,-545.5 1117.67,-545.5 1117.67,-526.5 1015.67,-526.5"/>
<text text-anchor="middle" x="1066.67" y="-533.5" font-family="Helvetica,sans-Serif" font-size="10.00">playrho/Math.hpp</text>
</a>
</g>
</g>
<!-- Node1&#45;&gt;Node2 -->
<g id="edge1" class="edge">
<title>Node1&#45;&gt;Node2</title>
<path fill="none" stroke="midnightblue" d="M1066.67,-582.4C1066.67,-574.47 1066.67,-564.46 1066.67,-555.86"/>
<polygon fill="midnightblue" stroke="midnightblue" points="1070.17,-555.66 1066.67,-545.66 1063.17,-555.66 1070.17,-555.66"/>
</g>
<!-- Node3 -->
<g id="node3" class="node">
<title>Node3</title>
<g id="a_node3"><a xlink:title=" ">
<polygon fill="white" stroke="#bfbfbf" points="154.67,-185 154.67,-204 206.67,-204 206.67,-185 154.67,-185"/>
<text text-anchor="middle" x="180.67" y="-192" font-family="Helvetica,sans-Serif" font-size="10.00">cassert</text>
</a>
</g>
</g>
<!-- Node2&#45;&gt;Node3 -->
<g id="edge2" class="edge">
<title>Node2&#45;&gt;Node3</title>
<path fill="none" stroke="midnightblue" d="M1015.53,-533.92C858.94,-530.34 392.89,-517.46 330.67,-490 292.71,-473.25 263.67,-466.49 263.67,-425 263.67,-425 263.67,-425 263.67,-311 263.67,-280.2 257.27,-271.27 239.67,-246 229.75,-231.75 214.88,-219.06 202.56,-209.97"/>
<polygon fill="midnightblue" stroke="midnightblue" points="204.32,-206.93 194.14,-204.01 200.28,-212.64 204.32,-206.93"/>
</g>
<!-- Node4 -->
<g id="node4" class="node">
<title>Node4</title>
<g id="a_node4"><a xlink:title=" ">
<polygon fill="white" stroke="#bfbfbf" points="1887.17,-246.5 1887.17,-265.5 1934.17,-265.5 1934.17,-246.5 1887.17,-246.5"/>
<text text-anchor="middle" x="1910.67" y="-253.5" font-family="Helvetica,sans-Serif" font-size="10.00">cmath</text>
</a>
</g>
</g>
<!-- Node2&#45;&gt;Node4 -->
<g id="edge3" class="edge">
<title>Node2&#45;&gt;Node4</title>
<path fill="none" stroke="midnightblue" d="M1117.73,-534.14C1307.7,-530.28 1962.67,-510.76 1962.67,-425 1962.67,-425 1962.67,-425 1962.67,-367 1962.67,-331.12 1939.77,-294.42 1924.37,-273.79"/>
<polygon fill="midnightblue" stroke="midnightblue" points="1927.02,-271.5 1918.12,-265.74 1921.49,-275.79 1927.02,-271.5"/>
</g>
<!-- Node5 -->
<g id="node5" class="node">
<title>Node5</title>
<g id="a_node5"><a xlink:title=" ">
<polygon fill="white" stroke="#bfbfbf" points="1071.67,-185 1071.67,-204 1121.67,-204 1121.67,-185 1071.67,-185"/>
<text text-anchor="middle" x="1096.67" y="-192" font-family="Helvetica,sans-Serif" font-size="10.00">cstdint</text>
</a>
</g>
</g>
<!-- Node2&#45;&gt;Node5 -->
<g id="edge4" class="edge">
<title>Node2&#45;&gt;Node5</title>
<path fill="none" stroke="midnightblue" d="M1043.88,-526.44C1027.09,-519.08 1004.81,-506.96 990.67,-490 970.95,-466.35 966.67,-455.8 966.67,-425 966.67,-425 966.67,-425 966.67,-367 966.67,-310.07 972.35,-289.83 1008.67,-246 1022.93,-228.79 1044.67,-216.23 1062.98,-207.95"/>
<polygon fill="midnightblue" stroke="midnightblue" points="1064.37,-211.16 1072.18,-204 1061.61,-204.73 1064.37,-211.16"/>
</g>
<!-- Node6 -->
<g id="node6" class="node">
<title>Node6</title>
<g id="a_node6"><a xlink:title=" ">
<polygon fill="white" stroke="#bfbfbf" points="1991.17,-62 1991.17,-81 2040.17,-81 2040.17,-62 1991.17,-62"/>
<text text-anchor="middle" x="2015.67" y="-69" font-family="Helvetica,sans-Serif" font-size="10.00">cstdlib</text>
</a>
</g>
</g>
<!-- Node2&#45;&gt;Node6 -->
<g id="edge5" class="edge">
<title>Node2&#45;&gt;Node6</title>
<path fill="none" stroke="midnightblue" d="M1117.9,-534.64C1318.37,-532.56 2038.67,-518.56 2038.67,-425 2038.67,-425 2038.67,-425 2038.67,-193.5 2038.67,-156.58 2028.21,-114.42 2021.39,-90.88"/>
<polygon fill="midnightblue" stroke="midnightblue" points="2024.71,-89.77 2018.49,-81.2 2018.01,-91.78 2024.71,-89.77"/>
</g>
<!-- Node7 -->
<g id="node7" class="node">
<title>Node7</title>
<g id="a_node7"><a xlink:title=" ">
<polygon fill="white" stroke="#bfbfbf" points="1309.67,-123.5 1309.67,-142.5 1353.67,-142.5 1353.67,-123.5 1309.67,-123.5"/>
<text text-anchor="middle" x="1331.67" y="-130.5" font-family="Helvetica,sans-Serif" font-size="10.00">limits</text>
</a>
</g>
</g>
<!-- Node2&#45;&gt;Node7 -->
<g id="edge6" class="edge">
<title>Node2&#45;&gt;Node7</title>
<path fill="none" stroke="midnightblue" d="M1015.41,-530.82C952.1,-522.52 852.67,-497.89 852.67,-425 852.67,-425 852.67,-425 852.67,-367 852.67,-335.68 1034.44,-192.56 1062.67,-179 1141.73,-141.01 1247.22,-134.44 1299.49,-133.71"/>
<polygon fill="midnightblue" stroke="midnightblue" points="1299.54,-137.21 1309.51,-133.63 1299.49,-130.21 1299.54,-137.21"/>
</g>
<!-- Node8 -->
<g id="node8" class="node">
<title>Node8</title>
<g id="a_node8"><a xlink:title=" ">
<polygon fill="white" stroke="#bfbfbf" points="2066.67,-470.5 2066.67,-489.5 2122.67,-489.5 2122.67,-470.5 2066.67,-470.5"/>
<text text-anchor="middle" x="2094.67" y="-477.5" font-family="Helvetica,sans-Serif" font-size="10.00">numeric</text>
</a>
</g>
</g>
<!-- Node2&#45;&gt;Node8 -->
<g id="edge7" class="edge">
<title>Node2&#45;&gt;Node8</title>
<path fill="none" stroke="midnightblue" d="M1117.73,-535.64C1264.02,-536.83 1697.05,-535.9 2052.67,-490 2053.92,-489.84 2055.18,-489.66 2056.46,-489.47"/>
<polygon fill="midnightblue" stroke="midnightblue" points="2057.07,-492.91 2066.31,-487.74 2055.86,-486.02 2057.07,-492.91"/>
</g>
<!-- Node9 -->
<g id="node9" class="node">
<title>Node9</title>
<g id="a_node9"><a xlink:title=" ">
<polygon fill="white" stroke="#bfbfbf" points="1019.17,-0.5 1019.17,-19.5 1088.17,-19.5 1088.17,-0.5 1019.17,-0.5"/>
<text text-anchor="middle" x="1053.67" y="-7.5" font-family="Helvetica,sans-Serif" font-size="10.00">type_traits</text>
</a>
</g>
</g>
<!-- Node2&#45;&gt;Node9 -->
<g id="edge8" class="edge">
<title>Node2&#45;&gt;Node9</title>
<path fill="none" stroke="midnightblue" d="M1015.61,-532.61C850.97,-524.23 344.67,-492.95 344.67,-425 344.67,-425 344.67,-425 344.67,-255 344.67,-182.72 379.05,-162.37 439.67,-123 505.53,-80.22 540.97,-119.06 612.67,-87 633.85,-77.53 633.07,-64.48 654.67,-56 718.34,-31.01 918.83,-17.89 1008.99,-13.13"/>
<polygon fill="midnightblue" stroke="midnightblue" points="1009.36,-16.61 1019.16,-12.6 1008.99,-9.62 1009.36,-16.61"/>
</g>
<!-- Node10 -->
<g id="node10" class="node">
<title>Node10</title>
<g id="a_node10"><a xlink:title=" ">
<polygon fill="white" stroke="#bfbfbf" points="2141.17,-470.5 2141.17,-489.5 2188.17,-489.5 2188.17,-470.5 2141.17,-470.5"/>
<text text-anchor="middle" x="2164.67" y="-477.5" font-family="Helvetica,sans-Serif" font-size="10.00">vector</text>
</a>
</g>
</g>
<!-- Node2&#45;&gt;Node10 -->
<g id="edge9" class="edge">
<title>Node2&#45;&gt;Node10</title>
<path fill="none" stroke="midnightblue" d="M1117.87,-534.36C1299.49,-531.83 1913.1,-521.27 2130.94,-489.65"/>
<polygon fill="midnightblue" stroke="midnightblue" points="2131.65,-493.09 2141.01,-488.13 2130.6,-486.17 2131.65,-493.09"/>
</g>
<!-- Node11 -->
<g id="node11" class="node">
<title>Node11</title>
<g id="a_node11"><a xlink:href="Matrix_8hpp.html" target="_top" xlink:title="Definition of the Matrix alias and closely related code.">
<polygon fill="white" stroke="black" points="1490.17,-470.5 1490.17,-489.5 1599.17,-489.5 1599.17,-470.5 1490.17,-470.5"/>
<text text-anchor="middle" x="1544.67" y="-477.5" font-family="Helvetica,sans-Serif" font-size="10.00">playrho/Matrix.hpp</text>
</a>
</g>
</g>
<!-- Node2&#45;&gt;Node11 -->
<g id="edge10" class="edge">
<title>Node2&#45;&gt;Node11</title>
<path fill="none" stroke="midnightblue" d="M1117.82,-529.22C1205.31,-519.34 1383.52,-499.2 1479.68,-488.34"/>
<polygon fill="midnightblue" stroke="midnightblue" points="1480.31,-491.79 1489.86,-487.19 1479.53,-484.84 1480.31,-491.79"/>
</g>
<!-- Node12 -->
<g id="node12" class="node">
<title>Node12</title>
<g id="a_node12"><a xlink:href="Vector_8hpp.html" target="_top" xlink:title="Definition of the Vector class template and closely related code.">
<polygon fill="white" stroke="black" points="505.17,-246.5 505.17,-265.5 612.17,-265.5 612.17,-246.5 505.17,-246.5"/>
<text text-anchor="middle" x="558.67" y="-253.5" font-family="Helvetica,sans-Serif" font-size="10.00">playrho/Vector.hpp</text>
</a>
</g>
</g>
<!-- Node2&#45;&gt;Node12 -->
<g id="edge80" class="edge">
<title>Node2&#45;&gt;Node12</title>
<path fill="none" stroke="midnightblue" d="M1015.28,-533.92C892.19,-529.95 590.67,-511.41 590.67,-425 590.67,-425 590.67,-425 590.67,-367 590.67,-333.33 576.67,-296.08 567.19,-274.72"/>
<polygon fill="midnightblue" stroke="midnightblue" points="570.35,-273.21 562.98,-265.59 563.99,-276.14 570.35,-273.21"/>
</g>
<!-- Node20 -->
<g id="node20" class="node">
<title>Node20</title>
<g id="a_node20"><a xlink:href="Real_8hpp.html" target="_top" xlink:title="Real number definition file.">
<polygon fill="white" stroke="black" points="1348.17,-185 1348.17,-204 1447.17,-204 1447.17,-185 1348.17,-185"/>
<text text-anchor="middle" x="1397.67" y="-192" font-family="Helvetica,sans-Serif" font-size="10.00">playrho/Real.hpp</text>
</a>
</g>
</g>
<!-- Node2&#45;&gt;Node20 -->
<g id="edge71" class="edge">
<title>Node2&#45;&gt;Node20</title>
<path fill="none" stroke="midnightblue" d="M1057.52,-526.25C1040.27,-508.77 1004.67,-467.53 1004.67,-425 1004.67,-425 1004.67,-425 1004.67,-367 1004.67,-328.58 1029.51,-323.02 1061.67,-302 1068.14,-297.77 1274.09,-233.75 1360.3,-207.06"/>
<polygon fill="midnightblue" stroke="midnightblue" points="1361.44,-210.37 1369.96,-204.07 1359.37,-203.68 1361.44,-210.37"/>
</g>
<!-- Node25 -->
<g id="node25" class="node">
<title>Node25</title>
<g id="a_node25"><a xlink:href="Vector2_8hpp.html" target="_top" xlink:title="Definition of the Vector2 alias template and closely related code.">
<polygon fill="white" stroke="black" points="1262.67,-414.5 1262.67,-433.5 1376.67,-433.5 1376.67,-414.5 1262.67,-414.5"/>
<text text-anchor="middle" x="1319.67" y="-421.5" font-family="Helvetica,sans-Serif" font-size="10.00">playrho/Vector2.hpp</text>
</a>
</g>
</g>
<!-- Node2&#45;&gt;Node25 -->
<g id="edge81" class="edge">
<title>Node2&#45;&gt;Node25</title>
<path fill="none" stroke="midnightblue" d="M1086.52,-526.37C1130.95,-507.05 1238.57,-460.26 1290.58,-437.65"/>
<polygon fill="midnightblue" stroke="midnightblue" points="1292.13,-440.79 1299.91,-433.59 1289.34,-434.37 1292.13,-440.79"/>
</g>
<!-- Node28 -->
<g id="node28" class="node">
<title>Node28</title>
<g id="a_node28"><a xlink:href="Units_8hpp.html" target="_top" xlink:title="Declarations for physical units possibly backed by strong types.">
<polygon fill="white" stroke="black" points="1611.17,-302.5 1611.17,-321.5 1714.17,-321.5 1714.17,-302.5 1611.17,-302.5"/>
<text text-anchor="middle" x="1662.67" y="-309.5" font-family="Helvetica,sans-Serif" font-size="10.00">playrho/Units.hpp</text>
</a>
</g>
</g>
<!-- Node2&#45;&gt;Node28 -->
<g id="edge79" class="edge">
<title>Node2&#45;&gt;Node28</title>
<path fill="none" stroke="midnightblue" d="M1117.68,-533.98C1245.31,-530.99 1570.96,-520.42 1608.67,-490 1657.18,-450.87 1663.18,-369.4 1663.24,-332.23"/>
<polygon fill="midnightblue" stroke="midnightblue" points="1666.73,-331.78 1663.09,-321.83 1659.73,-331.88 1666.73,-331.78"/>
</g>
<!-- Node34 -->
<g id="node34" class="node">
<title>Node34</title>
<g id="a_node34"><a xlink:href="NonNegative_8hpp.html" target="_top" xlink:title="Definition of the NonNegative value checked types.">
<polygon fill="white" stroke="black" points="726.17,-246.5 726.17,-265.5 867.17,-265.5 867.17,-246.5 726.17,-246.5"/>
<text text-anchor="middle" x="796.67" y="-253.5" font-family="Helvetica,sans-Serif" font-size="10.00">playrho/NonNegative.hpp</text>
</a>
</g>
</g>
<!-- Node2&#45;&gt;Node34 -->
<g id="edge62" class="edge">
<title>Node2&#45;&gt;Node34</title>
<path fill="none" stroke="midnightblue" d="M1015.38,-535.61C938.08,-533.55 800.67,-516.95 800.67,-425 800.67,-425 800.67,-425 800.67,-367 800.67,-334.93 798.95,-297.63 797.77,-275.74"/>
<polygon fill="midnightblue" stroke="midnightblue" points="801.25,-275.34 797.19,-265.55 794.26,-275.73 801.25,-275.34"/>
</g>
<!-- Node37 -->
<g id="node37" class="node">
<title>Node37</title>
<g id="a_node37"><a xlink:href="Span_8hpp.html" target="_top" xlink:title="Definition of the Span class template.">
<polygon fill="white" stroke="black" points="130.17,-246.5 130.17,-265.5 231.17,-265.5 231.17,-246.5 130.17,-246.5"/>
<text text-anchor="middle" x="180.67" y="-253.5" font-family="Helvetica,sans-Serif" font-size="10.00">playrho/Span.hpp</text>
</a>
</g>
</g>
<!-- Node2&#45;&gt;Node37 -->
<g id="edge72" class="edge">
<title>Node2&#45;&gt;Node37</title>
<path fill="none" stroke="midnightblue" d="M1015.5,-534.52C858.29,-532.7 389.38,-524.4 330.67,-490 245.92,-440.35 200.94,-321.7 186.2,-275.68"/>
<polygon fill="midnightblue" stroke="midnightblue" points="189.47,-274.38 183.17,-265.86 182.78,-276.45 189.47,-274.38"/>
</g>
<!-- Node39 -->
<g id="node39" class="node">
<title>Node39</title>
<g id="a_node39"><a xlink:href="Vector3_8hpp.html" target="_top" xlink:title="Definition of the Vector3 alias template and closely related code.">
<polygon fill="white" stroke="black" points="1071.67,-414.5 1071.67,-433.5 1185.67,-433.5 1185.67,-414.5 1071.67,-414.5"/>
<text text-anchor="middle" x="1128.67" y="-421.5" font-family="Helvetica,sans-Serif" font-size="10.00">playrho/Vector3.hpp</text>
</a>
</g>
</g>
<!-- Node2&#45;&gt;Node39 -->
<g id="edge82" class="edge">
<title>Node2&#45;&gt;Node39</title>
<path fill="none" stroke="midnightblue" d="M1071.53,-526.37C1081.72,-508.3 1105.46,-466.18 1118.91,-442.31"/>
<polygon fill="midnightblue" stroke="midnightblue" points="1121.97,-444.02 1123.83,-433.59 1115.87,-440.58 1121.97,-444.02"/>
</g>
<!-- Node11&#45;&gt;Node6 -->
<g id="edge11" class="edge">
<title>Node11&#45;&gt;Node6</title>
<path fill="none" stroke="midnightblue" d="M1599.28,-470.78C1601.1,-470.52 1602.9,-470.26 1604.67,-470 1719.25,-453.41 1762.4,-491.89 1862.67,-434 1949.06,-384.12 2000.67,-356.75 2000.67,-257 2000.67,-257 2000.67,-257 2000.67,-193.5 2000.67,-157.12 2007.43,-115.05 2011.87,-91.33"/>
<polygon fill="midnightblue" stroke="midnightblue" points="2015.36,-91.74 2013.83,-81.26 2008.49,-90.41 2015.36,-91.74"/>
</g>
<!-- Node11&#45;&gt;Node9 -->
<g id="edge12" class="edge">
<title>Node11&#45;&gt;Node9</title>
<path fill="none" stroke="midnightblue" d="M1591,-470.47C1699.83,-447.47 1962.67,-373.5 1962.67,-195.5 1962.67,-195.5 1962.67,-195.5 1962.67,-132 1962.67,-80.32 1922.59,-75.34 1874.67,-56 1802.62,-26.92 1259.3,-14.76 1098.42,-11.77"/>
<polygon fill="midnightblue" stroke="midnightblue" points="1098.45,-8.27 1088.38,-11.58 1098.32,-15.27 1098.45,-8.27"/>
</g>
<!-- Node11&#45;&gt;Node12 -->
<g id="edge13" class="edge">
<title>Node11&#45;&gt;Node12</title>
<path fill="none" stroke="midnightblue" d="M1490.15,-478.23C1400.13,-476.01 1215.17,-467.37 1062.67,-434 875.82,-393.12 662.92,-303.23 587.21,-269.83"/>
<polygon fill="midnightblue" stroke="midnightblue" points="588.42,-266.54 577.86,-265.68 585.58,-272.93 588.42,-266.54"/>
</g>
<!-- Node11&#45;&gt;Node20 -->
<g id="edge60" class="edge">
<title>Node11&#45;&gt;Node20</title>
<path fill="none" stroke="midnightblue" d="M1544.67,-470.44C1544.67,-451.94 1544.67,-406.81 1544.67,-369 1544.67,-369 1544.67,-369 1544.67,-311 1544.67,-280.9 1545.96,-268.23 1525.67,-246 1513.41,-232.57 1470.46,-217.25 1437.66,-207.04"/>
<polygon fill="midnightblue" stroke="midnightblue" points="1438.44,-203.62 1427.85,-204.04 1436.39,-210.31 1438.44,-203.62"/>
</g>
<!-- Node11&#45;&gt;Node25 -->
<g id="edge35" class="edge">
<title>Node11&#45;&gt;Node25</title>
<path fill="none" stroke="midnightblue" d="M1509.02,-470.44C1470.01,-461.08 1407.4,-446.06 1364.95,-435.87"/>
<polygon fill="midnightblue" stroke="midnightblue" points="1365.69,-432.45 1355.15,-433.52 1364.06,-439.25 1365.69,-432.45"/>
</g>
<!-- Node11&#45;&gt;Node28 -->
<g id="edge61" class="edge">
<title>Node11&#45;&gt;Node28</title>
<path fill="none" stroke="midnightblue" d="M1551.01,-470.08C1569.91,-443.49 1626.03,-364.54 1650.75,-329.76"/>
<polygon fill="midnightblue" stroke="midnightblue" points="1653.64,-331.75 1656.58,-321.57 1647.93,-327.69 1653.64,-331.75"/>
</g>
<!-- Node12&#45;&gt;Node3 -->
<g id="edge15" class="edge">
<title>Node12&#45;&gt;Node3</title>
<path fill="none" stroke="midnightblue" d="M504.94,-252.31C436.69,-247.91 315.75,-236.79 215.67,-210 213.22,-209.35 210.72,-208.56 208.24,-207.7"/>
<polygon fill="midnightblue" stroke="midnightblue" points="209.47,-204.42 198.88,-204.1 206.96,-210.96 209.47,-204.42"/>
</g>
<!-- Node12&#45;&gt;Node9 -->
<g id="edge20" class="edge">
<title>Node12&#45;&gt;Node9</title>
<path fill="none" stroke="midnightblue" d="M612.37,-253.04C690.93,-249.23 832.36,-238.52 873.67,-210 910.01,-184.91 893.71,-157.18 921.67,-123 954.98,-82.28 1004.46,-44.88 1032.42,-25.3"/>
<polygon fill="midnightblue" stroke="midnightblue" points="1034.45,-28.15 1040.69,-19.59 1030.47,-22.39 1034.45,-28.15"/>
</g>
<!-- Node13 -->
<g id="node13" class="node">
<title>Node13</title>
<g id="a_node13"><a xlink:title=" ">
<polygon fill="white" stroke="#bfbfbf" points="341.67,-0.5 341.67,-19.5 405.67,-19.5 405.67,-0.5 341.67,-0.5"/>
<text text-anchor="middle" x="373.67" y="-7.5" font-family="Helvetica,sans-Serif" font-size="10.00">algorithm</text>
</a>
</g>
</g>
<!-- Node12&#45;&gt;Node13 -->
<g id="edge14" class="edge">
<title>Node12&#45;&gt;Node13</title>
<path fill="none" stroke="midnightblue" d="M505.04,-251.15C473.05,-246.19 433.72,-235 407.67,-210 357.62,-161.96 364.64,-69.25 370.4,-29.66"/>
<polygon fill="midnightblue" stroke="midnightblue" points="373.85,-30.21 371.98,-19.78 366.94,-29.1 373.85,-30.21"/>
</g>
<!-- Node14 -->
<g id="node14" class="node">
<title>Node14</title>
<g id="a_node14"><a xlink:title=" ">
<polygon fill="white" stroke="#bfbfbf" points="225.17,-185 225.17,-204 278.17,-204 278.17,-185 225.17,-185"/>
<text text-anchor="middle" x="251.67" y="-192" font-family="Helvetica,sans-Serif" font-size="10.00">cstddef</text>
</a>
</g>
</g>
<!-- Node12&#45;&gt;Node14 -->
<g id="edge16" class="edge">
<title>Node12&#45;&gt;Node14</title>
<path fill="none" stroke="midnightblue" d="M505.11,-248.7C450.98,-241.69 365.21,-228.81 292.67,-210 289.62,-209.21 286.49,-208.29 283.36,-207.31"/>
<polygon fill="midnightblue" stroke="midnightblue" points="284.18,-203.89 273.58,-204.03 281.95,-210.53 284.18,-203.89"/>
</g>
<!-- Node15 -->
<g id="node15" class="node">
<title>Node15</title>
<g id="a_node15"><a xlink:title=" ">
<polygon fill="white" stroke="#bfbfbf" points="424.17,-0.5 424.17,-19.5 477.17,-19.5 477.17,-0.5 424.17,-0.5"/>
<text text-anchor="middle" x="450.67" y="-7.5" font-family="Helvetica,sans-Serif" font-size="10.00">iterator</text>
</a>
</g>
</g>
<!-- Node12&#45;&gt;Node15 -->
<g id="edge17" class="edge">
<title>Node12&#45;&gt;Node15</title>
<path fill="none" stroke="midnightblue" d="M504.9,-246.82C480.71,-240.54 453.63,-229.47 435.67,-210 388.15,-158.47 373.47,-120.17 401.67,-56 407.06,-43.73 417.63,-33.34 427.57,-25.65"/>
<polygon fill="midnightblue" stroke="midnightblue" points="429.92,-28.27 436.01,-19.6 425.84,-22.58 429.92,-28.27"/>
</g>
<!-- Node16 -->
<g id="node16" class="node">
<title>Node16</title>
<g id="a_node16"><a xlink:title=" ">
<polygon fill="white" stroke="#bfbfbf" points="624.67,-123.5 624.67,-142.5 684.67,-142.5 684.67,-123.5 624.67,-123.5"/>
<text text-anchor="middle" x="654.67" y="-130.5" font-family="Helvetica,sans-Serif" font-size="10.00">iostream</text>
</a>
</g>
</g>
<!-- Node12&#45;&gt;Node16 -->
<g id="edge18" class="edge">
<title>Node12&#45;&gt;Node16</title>
<path fill="none" stroke="midnightblue" d="M527.65,-246.44C509.64,-239.69 488.44,-228.3 477.67,-210 470.68,-198.13 469.21,-189.88 477.67,-179 479.81,-176.24 562.9,-155.95 614.46,-143.58"/>
<polygon fill="midnightblue" stroke="midnightblue" points="615.41,-146.95 624.32,-141.22 613.78,-140.14 615.41,-146.95"/>
</g>
<!-- Node17 -->
<g id="node17" class="node">
<title>Node17</title>
<g id="a_node17"><a xlink:title=" ">
<polygon fill="white" stroke="#bfbfbf" points="487.17,-185 487.17,-204 528.17,-204 528.17,-185 487.17,-185"/>
<text text-anchor="middle" x="507.67" y="-192" font-family="Helvetica,sans-Serif" font-size="10.00">tuple</text>
</a>
</g>
</g>
<!-- Node12&#45;&gt;Node17 -->
<g id="edge19" class="edge">
<title>Node12&#45;&gt;Node17</title>
<path fill="none" stroke="midnightblue" d="M551.36,-246.48C543.64,-237.46 531.26,-223.02 521.65,-211.81"/>
<polygon fill="midnightblue" stroke="midnightblue" points="524.13,-209.32 514.96,-204.01 518.81,-213.88 524.13,-209.32"/>
</g>
<!-- Node18 -->
<g id="node18" class="node">
<title>Node18</title>
<g id="a_node18"><a xlink:href="InvalidArgument_8hpp.html" target="_top" xlink:title="Definition of the InvalidArgument class.">
<polygon fill="white" stroke="black" points="448.67,-123.5 448.67,-142.5 606.67,-142.5 606.67,-123.5 448.67,-123.5"/>
<text text-anchor="middle" x="527.67" y="-130.5" font-family="Helvetica,sans-Serif" font-size="10.00">playrho/InvalidArgument.hpp</text>
</a>
</g>
</g>
<!-- Node12&#45;&gt;Node18 -->
<g id="edge21" class="edge">
<title>Node12&#45;&gt;Node18</title>
<path fill="none" stroke="midnightblue" d="M504.95,-247.33C482.41,-241.17 458.31,-230.06 444.67,-210 436.92,-198.61 437.62,-190.84 444.67,-179 453.77,-163.72 470.06,-153.31 485.81,-146.39"/>
<polygon fill="midnightblue" stroke="midnightblue" points="487.5,-149.48 495.48,-142.51 484.9,-142.98 487.5,-149.48"/>
</g>
<!-- Node12&#45;&gt;Node20 -->
<g id="edge23" class="edge">
<title>Node12&#45;&gt;Node20</title>
<path fill="none" stroke="midnightblue" d="M612.29,-251.87C754.03,-243.56 1136.37,-220.81 1262.67,-210 1287.32,-207.89 1314.45,-205.07 1337.89,-202.48"/>
<polygon fill="midnightblue" stroke="midnightblue" points="1338.48,-205.94 1348.03,-201.35 1337.7,-198.98 1338.48,-205.94"/>
</g>
<!-- Node21 -->
<g id="node21" class="node">
<title>Node21</title>
<g id="a_node21"><a xlink:href="Templates_8hpp.html" target="_top" xlink:title="Definitions of miscellaneous template related code.">
<polygon fill="white" stroke="black" points="930.67,-123.5 930.67,-142.5 1058.67,-142.5 1058.67,-123.5 930.67,-123.5"/>
<text text-anchor="middle" x="994.67" y="-130.5" font-family="Helvetica,sans-Serif" font-size="10.00">playrho/Templates.hpp</text>
</a>
</g>
</g>
<!-- Node12&#45;&gt;Node21 -->
<g id="edge34" class="edge">
<title>Node12&#45;&gt;Node21</title>
<path fill="none" stroke="midnightblue" d="M612.49,-251.21C711.73,-243.86 915.99,-226.9 943.67,-210 965.44,-196.71 979.96,-170.21 987.76,-152.29"/>
<polygon fill="midnightblue" stroke="midnightblue" points="991.06,-153.48 991.58,-142.89 984.57,-150.84 991.06,-153.48"/>
</g>
<!-- Node19 -->
<g id="node19" class="node">
<title>Node19</title>
<g id="a_node19"><a xlink:title=" ">
<polygon fill="white" stroke="#bfbfbf" points="663.17,-62 663.17,-81 728.17,-81 728.17,-62 663.17,-62"/>
<text text-anchor="middle" x="695.67" y="-69" font-family="Helvetica,sans-Serif" font-size="10.00">stdexcept</text>
</a>
</g>
</g>
<!-- Node18&#45;&gt;Node19 -->
<g id="edge22" class="edge">
<title>Node18&#45;&gt;Node19</title>
<path fill="none" stroke="midnightblue" d="M551.74,-123.48C580.68,-113.22 629.43,-95.96 662.07,-84.4"/>
<polygon fill="midnightblue" stroke="midnightblue" points="663.39,-87.65 671.64,-81.01 661.05,-81.05 663.39,-87.65"/>
</g>
<!-- Node20&#45;&gt;Node7 -->
<g id="edge24" class="edge">
<title>Node20&#45;&gt;Node7</title>
<path fill="none" stroke="midnightblue" d="M1388.21,-184.98C1377.92,-175.7 1361.25,-160.67 1348.67,-149.33"/>
<polygon fill="midnightblue" stroke="midnightblue" points="1350.88,-146.61 1341.11,-142.51 1346.19,-151.8 1350.88,-146.61"/>
</g>
<!-- Node20&#45;&gt;Node21 -->
<g id="edge25" class="edge">
<title>Node20&#45;&gt;Node21</title>
<path fill="none" stroke="midnightblue" d="M1347.85,-186.14C1276.05,-175.54 1143.28,-155.94 1062.57,-144.02"/>
<polygon fill="midnightblue" stroke="midnightblue" points="1062.91,-140.54 1052.51,-142.54 1061.89,-147.46 1062.91,-140.54"/>
</g>
<!-- Node21&#45;&gt;Node6 -->
<g id="edge26" class="edge">
<title>Node21&#45;&gt;Node6</title>
<path fill="none" stroke="midnightblue" d="M1058.78,-129.85C1204.1,-124.73 1569.62,-110.47 1874.67,-87 1910.89,-84.21 1952.23,-79.82 1980.74,-76.6"/>
<polygon fill="midnightblue" stroke="midnightblue" points="1981.46,-80.04 1991,-75.43 1980.66,-73.08 1981.46,-80.04"/>
</g>
<!-- Node21&#45;&gt;Node9 -->
<g id="edge27" class="edge">
<title>Node21&#45;&gt;Node9</title>
<path fill="none" stroke="midnightblue" d="M998.91,-123.3C1008.52,-103.59 1032.11,-55.21 1044.97,-28.84"/>
<polygon fill="midnightblue" stroke="midnightblue" points="1048.23,-30.15 1049.46,-19.62 1041.94,-27.08 1048.23,-30.15"/>
</g>
<!-- Node22 -->
<g id="node22" class="node">
<title>Node22</title>
<g id="a_node22"><a xlink:href="detail_2Templates_8hpp.html" target="_top" xlink:title="Low&#45;level declarations for general class &amp; function templates.">
<polygon fill="white" stroke="black" points="410.67,-62 410.67,-81 568.67,-81 568.67,-62 410.67,-62"/>
<text text-anchor="middle" x="489.67" y="-69" font-family="Helvetica,sans-Serif" font-size="10.00">playrho/detail/Templates.hpp</text>
</a>
</g>
</g>
<!-- Node21&#45;&gt;Node22 -->
<g id="edge28" class="edge">
<title>Node21&#45;&gt;Node22</title>
<path fill="none" stroke="midnightblue" d="M930.45,-124.43C839.28,-113.69 672.27,-94.01 572.07,-82.21"/>
<polygon fill="midnightblue" stroke="midnightblue" points="572.33,-78.71 561.99,-81.02 571.51,-85.67 572.33,-78.71"/>
</g>
<!-- Node22&#45;&gt;Node9 -->
<g id="edge32" class="edge">
<title>Node22&#45;&gt;Node9</title>
<path fill="none" stroke="midnightblue" d="M540.76,-61.98C554.36,-59.86 569.05,-57.71 582.67,-56 738.79,-36.39 924.99,-20.93 1008.84,-14.39"/>
<polygon fill="midnightblue" stroke="midnightblue" points="1009.32,-17.86 1019.02,-13.6 1008.78,-10.88 1009.32,-17.86"/>
</g>
<!-- Node22&#45;&gt;Node13 -->
<g id="edge29" class="edge">
<title>Node22&#45;&gt;Node13</title>
<path fill="none" stroke="midnightblue" d="M473.05,-61.98C453.75,-52.08 421.71,-35.64 399.24,-24.12"/>
<polygon fill="midnightblue" stroke="midnightblue" points="400.75,-20.96 390.26,-19.51 397.56,-27.19 400.75,-20.96"/>
</g>
<!-- Node22&#45;&gt;Node15 -->
<g id="edge31" class="edge">
<title>Node22&#45;&gt;Node15</title>
<path fill="none" stroke="midnightblue" d="M484.08,-61.98C478.29,-53.14 469.08,-39.09 461.8,-27.98"/>
<polygon fill="midnightblue" stroke="midnightblue" points="464.66,-25.95 456.25,-19.51 458.8,-29.79 464.66,-25.95"/>
</g>
<!-- Node23 -->
<g id="node23" class="node">
<title>Node23</title>
<g id="a_node23"><a xlink:title=" ">
<polygon fill="white" stroke="#bfbfbf" points="495.17,-0.5 495.17,-19.5 560.17,-19.5 560.17,-0.5 495.17,-0.5"/>
<text text-anchor="middle" x="527.67" y="-7.5" font-family="Helvetica,sans-Serif" font-size="10.00">functional</text>
</a>
</g>
</g>
<!-- Node22&#45;&gt;Node23 -->
<g id="edge30" class="edge">
<title>Node22&#45;&gt;Node23</title>
<path fill="none" stroke="midnightblue" d="M495.11,-61.98C500.76,-53.14 509.73,-39.09 516.83,-27.98"/>
<polygon fill="midnightblue" stroke="midnightblue" points="519.8,-29.82 522.23,-19.51 513.9,-26.05 519.8,-29.82"/>
</g>
<!-- Node24 -->
<g id="node24" class="node">
<title>Node24</title>
<g id="a_node24"><a xlink:title=" ">
<polygon fill="white" stroke="#bfbfbf" points="278.17,-0.5 278.17,-19.5 323.17,-19.5 323.17,-0.5 278.17,-0.5"/>
<text text-anchor="middle" x="300.67" y="-7.5" font-family="Helvetica,sans-Serif" font-size="10.00">utility</text>
</a>
</g>
</g>
<!-- Node22&#45;&gt;Node24 -->
<g id="edge33" class="edge">
<title>Node22&#45;&gt;Node24</title>
<path fill="none" stroke="midnightblue" d="M462.59,-61.98C428.35,-51.2 369.47,-32.66 332.93,-21.16"/>
<polygon fill="midnightblue" stroke="midnightblue" points="333.85,-17.78 323.26,-18.11 331.75,-24.45 333.85,-17.78"/>
</g>
<!-- Node25&#45;&gt;Node12 -->
<g id="edge59" class="edge">
<title>Node25&#45;&gt;Node12</title>
<path fill="none" stroke="midnightblue" d="M1284.61,-414.49C1200.16,-394.11 978.67,-341.23 792.67,-302 732.52,-289.32 663.36,-276.19 615.91,-267.42"/>
<polygon fill="midnightblue" stroke="midnightblue" points="616.3,-263.93 605.83,-265.56 615.03,-270.81 616.3,-263.93"/>
</g>
<!-- Node25&#45;&gt;Node20 -->
<g id="edge36" class="edge">
<title>Node25&#45;&gt;Node20</title>
<path fill="none" stroke="midnightblue" d="M1320.32,-414.48C1322.59,-388.22 1331.6,-306.61 1359.67,-246 1365.46,-233.5 1374.71,-221.11 1382.64,-211.73"/>
<polygon fill="midnightblue" stroke="midnightblue" points="1385.42,-213.87 1389.4,-204.05 1380.17,-209.24 1385.42,-213.87"/>
</g>
<!-- Node26 -->
<g id="node26" class="node">
<title>Node26</title>
<g id="a_node26"><a xlink:href="Settings_8hpp.html" target="_top" xlink:title="Types and default settings file.">
<polygon fill="white" stroke="black" points="1195.17,-358.5 1195.17,-377.5 1312.17,-377.5 1312.17,-358.5 1195.17,-358.5"/>
<text text-anchor="middle" x="1253.67" y="-365.5" font-family="Helvetica,sans-Serif" font-size="10.00">playrho/Settings.hpp</text>
</a>
</g>
</g>
<!-- Node25&#45;&gt;Node26 -->
<g id="edge37" class="edge">
<title>Node25&#45;&gt;Node26</title>
<path fill="none" stroke="midnightblue" d="M1309.06,-414.32C1299.21,-406.26 1284.32,-394.08 1272.45,-384.37"/>
<polygon fill="midnightblue" stroke="midnightblue" points="1274.42,-381.46 1264.47,-377.83 1269.99,-386.88 1274.42,-381.46"/>
</g>
<!-- Node25&#45;&gt;Node28 -->
<g id="edge58" class="edge">
<title>Node25&#45;&gt;Node28</title>
<path fill="none" stroke="midnightblue" d="M1346.3,-414.46C1407.21,-394.93 1556.77,-346.96 1626.18,-324.7"/>
<polygon fill="midnightblue" stroke="midnightblue" points="1627.37,-328 1635.82,-321.61 1625.23,-321.33 1627.37,-328"/>
</g>
<!-- Node26&#45;&gt;Node5 -->
<g id="edge38" class="edge">
<title>Node26&#45;&gt;Node5</title>
<path fill="none" stroke="midnightblue" d="M1195.14,-364.31C1133.12,-357.73 1040.75,-336.04 1015.67,-266 1012.67,-257.63 1011.36,-253.77 1015.67,-246 1021.73,-235.08 1048.72,-219.52 1069.9,-208.56"/>
<polygon fill="midnightblue" stroke="midnightblue" points="1071.5,-211.68 1078.84,-204.03 1068.34,-205.43 1071.5,-211.68"/>
</g>
<!-- Node26&#45;&gt;Node7 -->
<g id="edge39" class="edge">
<title>Node26&#45;&gt;Node7</title>
<path fill="none" stroke="midnightblue" d="M1256.54,-358.43C1267.86,-324.61 1309.59,-199.95 1325.48,-152.5"/>
<polygon fill="midnightblue" stroke="midnightblue" points="1328.84,-153.49 1328.69,-142.9 1322.2,-151.27 1328.84,-153.49"/>
</g>
<!-- Node26&#45;&gt;Node9 -->
<g id="edge40" class="edge">
<title>Node26&#45;&gt;Node9</title>
<path fill="none" stroke="midnightblue" d="M1312.49,-359.61C1407.12,-346.05 1582.67,-313.31 1582.67,-257 1582.67,-257 1582.67,-257 1582.67,-132 1582.67,-33.03 1226.38,-15.01 1098.6,-11.73"/>
<polygon fill="midnightblue" stroke="midnightblue" points="1098.46,-8.23 1088.38,-11.49 1098.29,-15.22 1098.46,-8.23"/>
</g>
<!-- Node26&#45;&gt;Node20 -->
<g id="edge41" class="edge">
<title>Node26&#45;&gt;Node20</title>
<path fill="none" stroke="midnightblue" d="M1258.61,-358.35C1273.57,-332.26 1317.83,-255.53 1326.67,-246 1340.21,-231.4 1358.61,-218.45 1373.28,-209.33"/>
<polygon fill="midnightblue" stroke="midnightblue" points="1375.1,-212.32 1381.86,-204.16 1371.49,-206.32 1375.1,-212.32"/>
</g>
<!-- Node27 -->
<g id="node27" class="node">
<title>Node27</title>
<g id="a_node27"><a xlink:href="RealConstants_8hpp.html" target="_top" xlink:title="Definitions file for constant expressions of type Real.">
<polygon fill="white" stroke="black" points="1368.67,-246.5 1368.67,-265.5 1516.67,-265.5 1516.67,-246.5 1368.67,-246.5"/>
<text text-anchor="middle" x="1442.67" y="-253.5" font-family="Helvetica,sans-Serif" font-size="10.00">playrho/RealConstants.hpp</text>
</a>
</g>
</g>
<!-- Node26&#45;&gt;Node27 -->
<g id="edge42" class="edge">
<title>Node26&#45;&gt;Node27</title>
<path fill="none" stroke="midnightblue" d="M1268.5,-358.37C1301.21,-339.33 1379.76,-293.62 1419.21,-270.65"/>
<polygon fill="midnightblue" stroke="midnightblue" points="1421.03,-273.65 1427.91,-265.59 1417.5,-267.6 1421.03,-273.65"/>
</g>
<!-- Node26&#45;&gt;Node28 -->
<g id="edge44" class="edge">
<title>Node26&#45;&gt;Node28</title>
<path fill="none" stroke="midnightblue" d="M1312.25,-359.41C1380.54,-350.53 1496.81,-335.36 1596.67,-322 1598.14,-321.8 1599.62,-321.6 1601.12,-321.4"/>
<polygon fill="midnightblue" stroke="midnightblue" points="1601.71,-324.86 1611.15,-320.05 1600.77,-317.92 1601.71,-324.86"/>
</g>
<!-- Node31 -->
<g id="node31" class="node">
<title>Node31</title>
<g id="a_node31"><a xlink:href="WiderType_8hpp.html" target="_top" xlink:title="Definition of the WiderType alias template.">
<polygon fill="white" stroke="black" points="1070.67,-302.5 1070.67,-321.5 1198.67,-321.5 1198.67,-302.5 1070.67,-302.5"/>
<text text-anchor="middle" x="1134.67" y="-309.5" font-family="Helvetica,sans-Serif" font-size="10.00">playrho/WiderType.hpp</text>
</a>
</g>
</g>
<!-- Node26&#45;&gt;Node31 -->
<g id="edge53" class="edge">
<title>Node26&#45;&gt;Node31</title>
<path fill="none" stroke="midnightblue" d="M1234.81,-358.44C1215.4,-349.64 1184.94,-335.81 1162.7,-325.72"/>
<polygon fill="midnightblue" stroke="midnightblue" points="1163.99,-322.46 1153.44,-321.52 1161.1,-328.84 1163.99,-322.46"/>
</g>
<!-- Node27&#45;&gt;Node20 -->
<g id="edge43" class="edge">
<title>Node27&#45;&gt;Node20</title>
<path fill="none" stroke="midnightblue" d="M1436.22,-246.48C1429.47,-237.55 1418.7,-223.31 1410.26,-212.14"/>
<polygon fill="midnightblue" stroke="midnightblue" points="1412.93,-209.87 1404.1,-204.01 1407.35,-214.1 1412.93,-209.87"/>
</g>
<!-- Node28&#45;&gt;Node4 -->
<g id="edge45" class="edge">
<title>Node28&#45;&gt;Node4</title>
<path fill="none" stroke="midnightblue" d="M1707.31,-302.47C1748.79,-294.36 1812.49,-281.44 1876.98,-266.05"/>
<polygon fill="midnightblue" stroke="midnightblue" points="1878.02,-269.4 1886.92,-263.66 1876.38,-262.6 1878.02,-269.4"/>
</g>
<!-- Node28&#45;&gt;Node9 -->
<g id="edge46" class="edge">
<title>Node28&#45;&gt;Node9</title>
<path fill="none" stroke="midnightblue" d="M1667.11,-302.27C1676.33,-283.35 1696.67,-236.89 1696.67,-195.5 1696.67,-195.5 1696.67,-195.5 1696.67,-132 1696.67,-76.18 1648.79,-75.99 1596.67,-56 1505.99,-21.22 1211.43,-13.28 1098.39,-11.5"/>
<polygon fill="midnightblue" stroke="midnightblue" points="1098.4,-8 1088.35,-11.35 1098.3,-15 1098.4,-8"/>
</g>
<!-- Node28&#45;&gt;Node20 -->
<g id="edge47" class="edge">
<title>Node28&#45;&gt;Node20</title>
<path fill="none" stroke="midnightblue" d="M1651.06,-302.35C1632.41,-288.79 1594.26,-262.38 1558.67,-246 1521.29,-228.8 1476.46,-215.27 1443.6,-206.56"/>
<polygon fill="midnightblue" stroke="midnightblue" points="1444.37,-203.15 1433.81,-204.02 1442.61,-209.92 1444.37,-203.15"/>
</g>
<!-- Node28&#45;&gt;Node21 -->
<g id="edge49" class="edge">
<title>Node28&#45;&gt;Node21</title>
<path fill="none" stroke="midnightblue" d="M1654.3,-302.2C1641.33,-288.89 1615.21,-263.36 1589.67,-246 1534.93,-208.79 1520.24,-197.41 1456.67,-179 1385.92,-158.51 1180.66,-144.34 1069.05,-137.91"/>
<polygon fill="midnightblue" stroke="midnightblue" points="1069.06,-134.4 1058.87,-137.33 1068.66,-141.39 1069.06,-134.4"/>
</g>
<!-- Node28&#45;&gt;Node27 -->
<g id="edge48" class="edge">
<title>Node28&#45;&gt;Node27</title>
<path fill="none" stroke="midnightblue" d="M1627.81,-302.44C1589.75,-293.1 1528.71,-278.12 1487.21,-267.93"/>
<polygon fill="midnightblue" stroke="midnightblue" points="1487.91,-264.5 1477.37,-265.52 1486.24,-271.3 1487.91,-264.5"/>
</g>
<!-- Node29 -->
<g id="node29" class="node">
<title>Node29</title>
<g id="a_node29"><a xlink:href="to__underlying_8hpp.html" target="_top" xlink:title="Definition of to_underlying function template.">
<polygon fill="white" stroke="black" points="1724.67,-246.5 1724.67,-265.5 1868.67,-265.5 1868.67,-246.5 1724.67,-246.5"/>
<text text-anchor="middle" x="1796.67" y="-253.5" font-family="Helvetica,sans-Serif" font-size="10.00">playrho/to_underlying.hpp</text>
</a>
</g>
</g>
<!-- Node28&#45;&gt;Node29 -->
<g id="edge50" class="edge">
<title>Node28&#45;&gt;Node29</title>
<path fill="none" stroke="midnightblue" d="M1683.9,-302.44C1706.05,-293.52 1740.99,-279.44 1766.11,-269.32"/>
<polygon fill="midnightblue" stroke="midnightblue" points="1767.57,-272.5 1775.54,-265.52 1764.95,-266.01 1767.57,-272.5"/>
</g>
<!-- Node30 -->
<g id="node30" class="node">
<title>Node30</title>
<g id="a_node30"><a xlink:href="underlying__type_8hpp.html" target="_top" xlink:title="Definition of underlying_type trait class and related code.">
<polygon fill="white" stroke="black" points="1726.17,-56.5 1726.17,-86.5 1865.17,-86.5 1865.17,-56.5 1726.17,-56.5"/>
<text text-anchor="start" x="1734.17" y="-74.5" font-family="Helvetica,sans-Serif" font-size="10.00">playrho/detail/underlying</text>
<text text-anchor="middle" x="1795.67" y="-63.5" font-family="Helvetica,sans-Serif" font-size="10.00">_type.hpp</text>
</a>
</g>
</g>
<!-- Node29&#45;&gt;Node30 -->
<g id="edge51" class="edge">
<title>Node29&#45;&gt;Node30</title>
<path fill="none" stroke="midnightblue" d="M1796.62,-246.2C1796.47,-219.39 1796.03,-138.09 1795.8,-96.93"/>
<polygon fill="midnightblue" stroke="midnightblue" points="1799.3,-96.68 1795.75,-86.69 1792.3,-96.71 1799.3,-96.68"/>
</g>
<!-- Node30&#45;&gt;Node9 -->
<g id="edge52" class="edge">
<title>Node30&#45;&gt;Node9</title>
<path fill="none" stroke="midnightblue" d="M1725.71,-57.99C1720.63,-57.26 1715.57,-56.58 1710.67,-56 1481.32,-28.65 1204.8,-16.44 1098.39,-12.51"/>
<polygon fill="midnightblue" stroke="midnightblue" points="1098.45,-9.01 1088.33,-12.15 1098.2,-16.01 1098.45,-9.01"/>
</g>
<!-- Node32 -->
<g id="node32" class="node">
<title>Node32</title>
<g id="a_node32"><a xlink:href="Wider_8hpp.html" target="_top" xlink:title="Definition of the Wider class template and specializations.">
<polygon fill="white" stroke="black" points="1024.67,-246.5 1024.67,-265.5 1160.67,-265.5 1160.67,-246.5 1024.67,-246.5"/>
<text text-anchor="middle" x="1092.67" y="-253.5" font-family="Helvetica,sans-Serif" font-size="10.00">playrho/detail/Wider.hpp</text>
</a>
</g>
</g>
<!-- Node31&#45;&gt;Node32 -->
<g id="edge54" class="edge">
<title>Node31&#45;&gt;Node32</title>
<path fill="none" stroke="midnightblue" d="M1127.73,-302.08C1121.74,-294.38 1112.92,-283.03 1105.62,-273.65"/>
<polygon fill="midnightblue" stroke="midnightblue" points="1108.38,-271.5 1099.48,-265.75 1102.85,-275.79 1108.38,-271.5"/>
</g>
<!-- Node32&#45;&gt;Node5 -->
<g id="edge55" class="edge">
<title>Node32&#45;&gt;Node5</title>
<path fill="none" stroke="midnightblue" d="M1093.24,-246.48C1093.81,-238.08 1094.69,-224.98 1095.41,-214.16"/>
<polygon fill="midnightblue" stroke="midnightblue" points="1098.92,-214.22 1096.1,-204.01 1091.93,-213.75 1098.92,-214.22"/>
</g>
<!-- Node32&#45;&gt;Node9 -->
<g id="edge56" class="edge">
<title>Node32&#45;&gt;Node9</title>
<path fill="none" stroke="midnightblue" d="M1155.46,-246.47C1198.23,-239.23 1249.4,-227.24 1262.67,-210 1271.07,-199.08 1268.62,-191.42 1262.67,-179 1225.03,-100.45 1130.76,-46.97 1082.75,-23.88"/>
<polygon fill="midnightblue" stroke="midnightblue" points="1084.06,-20.63 1073.52,-19.55 1081.08,-26.97 1084.06,-20.63"/>
</g>
<!-- Node33 -->
<g id="node33" class="node">
<title>Node33</title>
<g id="a_node33"><a xlink:href="Defines_8hpp.html" target="_top" xlink:title="Miscellaneous C&#45;preprocessor definitions.">
<polygon fill="white" stroke="black" points="1139.67,-185 1139.67,-204 1253.67,-204 1253.67,-185 1139.67,-185"/>
<text text-anchor="middle" x="1196.67" y="-192" font-family="Helvetica,sans-Serif" font-size="10.00">playrho/Defines.hpp</text>
</a>
</g>
</g>
<!-- Node32&#45;&gt;Node33 -->
<g id="edge57" class="edge">
<title>Node32&#45;&gt;Node33</title>
<path fill="none" stroke="midnightblue" d="M1107.57,-246.48C1124.64,-236.71 1152.83,-220.58 1172.93,-209.08"/>
<polygon fill="midnightblue" stroke="midnightblue" points="1174.85,-212.01 1181.8,-204.01 1171.38,-205.94 1174.85,-212.01"/>
</g>
<!-- Node34&#45;&gt;Node9 -->
<g id="edge63" class="edge">
<title>Node34&#45;&gt;Node9</title>
<path fill="none" stroke="midnightblue" d="M849.64,-246.5C885.24,-239.56 932.61,-227.94 971.67,-210 995.31,-199.14 1055.64,-166.07 1067.67,-143 1086.87,-106.18 1072.11,-55.8 1061.68,-29.19"/>
<polygon fill="midnightblue" stroke="midnightblue" points="1064.78,-27.54 1057.72,-19.64 1058.32,-30.22 1064.78,-27.54"/>
</g>
<!-- Node35 -->
<g id="node35" class="node">
<title>Node35</title>
<g id="a_node35"><a xlink:href="Checked_8hpp.html" target="_top" xlink:title="Declarations of the Checked class template and closely related code.">
<polygon fill="white" stroke="black" points="715.17,-185 715.17,-204 864.17,-204 864.17,-185 715.17,-185"/>
<text text-anchor="middle" x="789.67" y="-192" font-family="Helvetica,sans-Serif" font-size="10.00">playrho/detail/Checked.hpp</text>
</a>
</g>
</g>
<!-- Node34&#45;&gt;Node35 -->
<g id="edge64" class="edge">
<title>Node34&#45;&gt;Node35</title>
<path fill="none" stroke="midnightblue" d="M795.67,-246.48C794.68,-238.08 793.14,-224.98 791.86,-214.16"/>
<polygon fill="midnightblue" stroke="midnightblue" points="795.31,-213.53 790.67,-204.01 788.36,-214.35 795.31,-213.53"/>
</g>
<!-- Node36 -->
<g id="node36" class="node">
<title>Node36</title>
<g id="a_node36"><a xlink:href="NonNegativeChecker_8hpp.html" target="_top" xlink:title="Definition of the NonNegativeChecker class template.">
<polygon fill="white" stroke="black" points="546.17,-179.5 546.17,-209.5 697.17,-209.5 697.17,-179.5 546.17,-179.5"/>
<text text-anchor="start" x="554.17" y="-197.5" font-family="Helvetica,sans-Serif" font-size="10.00">playrho/detail/NonNegative</text>
<text text-anchor="middle" x="621.67" y="-186.5" font-family="Helvetica,sans-Serif" font-size="10.00">Checker.hpp</text>
</a>
</g>
</g>
<!-- Node34&#45;&gt;Node36 -->
<g id="edge70" class="edge">
<title>Node34&#45;&gt;Node36</title>
<path fill="none" stroke="midnightblue" d="M771.6,-246.48C745.9,-237.74 705.22,-223.91 672.71,-212.86"/>
<polygon fill="midnightblue" stroke="midnightblue" points="673.51,-209.43 662.91,-209.52 671.25,-216.06 673.51,-209.43"/>
</g>
<!-- Node35&#45;&gt;Node9 -->
<g id="edge66" class="edge">
<title>Node35&#45;&gt;Node9</title>
<path fill="none" stroke="midnightblue" d="M793.35,-184.84C804.14,-160.51 838.16,-91.04 888.67,-56 924.53,-31.12 973.61,-19.98 1008.9,-15"/>
<polygon fill="midnightblue" stroke="midnightblue" points="1009.46,-18.45 1018.92,-13.69 1008.56,-11.51 1009.46,-18.45"/>
</g>
<!-- Node35&#45;&gt;Node16 -->
<g id="edge65" class="edge">
<title>Node35&#45;&gt;Node16</title>
<path fill="none" stroke="midnightblue" d="M770.33,-184.98C747.57,-174.95 709.58,-158.2 683.38,-146.65"/>
<polygon fill="midnightblue" stroke="midnightblue" points="684.54,-143.34 673.98,-142.51 681.71,-149.74 684.54,-143.34"/>
</g>
<!-- Node35&#45;&gt;Node18 -->
<g id="edge68" class="edge">
<title>Node35&#45;&gt;Node18</title>
<path fill="none" stroke="midnightblue" d="M752.13,-184.98C705.44,-174.37 625.69,-156.26 574.89,-144.72"/>
<polygon fill="midnightblue" stroke="midnightblue" points="575.66,-141.31 565.14,-142.51 574.11,-148.14 575.66,-141.31"/>
</g>
<!-- Node35&#45;&gt;Node21 -->
<g id="edge69" class="edge">
<title>Node35&#45;&gt;Node21</title>
<path fill="none" stroke="midnightblue" d="M819.04,-184.98C854.97,-174.55 915.9,-156.86 955.71,-145.31"/>
<polygon fill="midnightblue" stroke="midnightblue" points="956.72,-148.66 965.35,-142.51 954.77,-141.94 956.72,-148.66"/>
</g>
<!-- Node35&#45;&gt;Node24 -->
<g id="edge67" class="edge">
<title>Node35&#45;&gt;Node24</title>
<path fill="none" stroke="midnightblue" d="M781.34,-184.99C765.75,-169.65 730.38,-137.58 693.67,-123 572.14,-74.74 522.91,-135.97 401.67,-87 367.64,-73.25 334.96,-45.03 316.4,-27.11"/>
<polygon fill="midnightblue" stroke="midnightblue" points="318.7,-24.46 309.13,-19.92 313.77,-29.44 318.7,-24.46"/>
</g>
<!-- Node37&#45;&gt;Node3 -->
<g id="edge74" class="edge">
<title>Node37&#45;&gt;Node3</title>
<path fill="none" stroke="midnightblue" d="M180.67,-246.48C180.67,-238.08 180.67,-224.98 180.67,-214.16"/>
<polygon fill="midnightblue" stroke="midnightblue" points="184.17,-214.01 180.67,-204.01 177.17,-214.01 184.17,-214.01"/>
</g>
<!-- Node37&#45;&gt;Node9 -->
<g id="edge76" class="edge">
<title>Node37&#45;&gt;Node9</title>
<path fill="none" stroke="midnightblue" d="M170.94,-246.26C155.43,-231.27 128.5,-200.24 145.67,-179 269.06,-26.32 398.11,-166.34 577.67,-87 599.22,-77.48 598.65,-64.39 620.67,-56 690.78,-29.28 912.62,-16.94 1008.64,-12.74"/>
<polygon fill="midnightblue" stroke="midnightblue" points="1009.05,-16.23 1018.89,-12.31 1008.75,-9.24 1009.05,-16.23"/>
</g>
<!-- Node37&#45;&gt;Node14 -->
<g id="edge73" class="edge">
<title>Node37&#45;&gt;Node14</title>
<path fill="none" stroke="midnightblue" d="M190.84,-246.48C202.02,-237.11 220.19,-221.88 233.76,-210.51"/>
<polygon fill="midnightblue" stroke="midnightblue" points="236.1,-213.11 241.52,-204.01 231.6,-207.75 236.1,-213.11"/>
</g>
<!-- Node37&#45;&gt;Node21 -->
<g id="edge78" class="edge">
<title>Node37&#45;&gt;Node21</title>
<path fill="none" stroke="midnightblue" d="M231.24,-253.15C380.59,-247.49 813.09,-229.6 873.67,-210 914.09,-196.92 954.58,-167.33 976.96,-149.17"/>
<polygon fill="midnightblue" stroke="midnightblue" points="979.41,-151.69 984.87,-142.61 974.94,-146.3 979.41,-151.69"/>
</g>
<!-- Node37&#45;&gt;Node24 -->
<g id="edge77" class="edge">
<title>Node37&#45;&gt;Node24</title>
<path fill="none" stroke="midnightblue" d="M129.92,-251.99C68.48,-246.13 -23.38,-228.97 5.67,-179 63.33,-79.81 203.87,-34.33 267.91,-18.23"/>
<polygon fill="midnightblue" stroke="midnightblue" points="268.97,-21.57 277.87,-15.81 267.32,-14.77 268.97,-21.57"/>
</g>
<!-- Node38 -->
<g id="node38" class="node">
<title>Node38</title>
<g id="a_node38"><a xlink:title=" ">
<polygon fill="white" stroke="#bfbfbf" points="15.17,-185 15.17,-204 98.17,-204 98.17,-185 15.17,-185"/>
<text text-anchor="middle" x="56.67" y="-192" font-family="Helvetica,sans-Serif" font-size="10.00">initializer_list</text>
</a>
</g>
</g>
<!-- Node37&#45;&gt;Node38 -->
<g id="edge75" class="edge">
<title>Node37&#45;&gt;Node38</title>
<path fill="none" stroke="midnightblue" d="M162.9,-246.48C142.18,-236.53 107.72,-219.99 83.68,-208.46"/>
<polygon fill="midnightblue" stroke="midnightblue" points="84.93,-205.18 74.4,-204.01 81.9,-211.49 84.93,-205.18"/>
</g>
<!-- Node39&#45;&gt;Node12 -->
<g id="edge85" class="edge">
<title>Node39&#45;&gt;Node12</title>
<path fill="none" stroke="midnightblue" d="M1103.76,-414.46C1042.97,-393.78 882.06,-339.9 745.67,-302 699.01,-289.03 645.19,-276.31 607.31,-267.72"/>
<polygon fill="midnightblue" stroke="midnightblue" points="608.08,-264.31 597.55,-265.52 606.54,-271.14 608.08,-264.31"/>
</g>
<!-- Node39&#45;&gt;Node20 -->
<g id="edge83" class="edge">
<title>Node39&#45;&gt;Node20</title>
<path fill="none" stroke="midnightblue" d="M1135.91,-414.33C1146.62,-401.62 1167.52,-377.35 1186.67,-358 1238.68,-305.46 1249.92,-289.55 1309.67,-246 1329.13,-231.82 1352.89,-218.38 1370.82,-208.94"/>
<polygon fill="midnightblue" stroke="midnightblue" points="1372.85,-211.84 1380.12,-204.13 1369.63,-205.62 1372.85,-211.84"/>
</g>
<!-- Node39&#45;&gt;Node26 -->
<g id="edge84" class="edge">
<title>Node39&#45;&gt;Node26</title>
<path fill="none" stroke="midnightblue" d="M1148.48,-414.44C1168.96,-405.6 1201.15,-391.69 1224.53,-381.59"/>
<polygon fill="midnightblue" stroke="midnightblue" points="1226.16,-384.7 1233.96,-377.52 1223.39,-378.27 1226.16,-384.7"/>
</g>
</g>
</svg>
