<?xml version="1.0" encoding="UTF-8" standalone="no"?>
<!DOCTYPE svg PUBLIC "-//W3C//DTD SVG 1.1//EN"
 "http://www.w3.org/Graphics/SVG/1.1/DTD/svg11.dtd">
<!-- Generated by graphviz version 2.43.0 (0)
 -->
<!-- Title: Graphical Class Hierarchy Pages: 1 -->
<svg width="298pt" height="1070pt"
 viewBox="0.00 0.00 298.00 1069.50" xmlns="http://www.w3.org/2000/svg" xmlns:xlink="http://www.w3.org/1999/xlink">
<g id="graph0" class="graph" transform="scale(1 1) rotate(0) translate(4 1065.5)">
<title>Graphical Class Hierarchy</title>
<polygon fill="white" stroke="transparent" points="-4,4 -4,-1065.5 294,-1065.5 294,4 -4,4"/>
<!-- Node83 -->
<g id="node1" class="node">
<title>Node83</title>
<g id="a_node1"><a xlink:title=" ">
<polygon fill="white" stroke="#bfbfbf" points="0,-531.5 0,-550.5 89,-550.5 89,-531.5 0,-531.5"/>
<text text-anchor="middle" x="44.5" y="-538.5" font-family="Helvetica,sans-Serif" font-size="10.00">std::false_type</text>
</a>
</g>
</g>
<!-- Node0 -->
<g id="node2" class="node">
<title>Node0</title>
<g id="a_node2"><a xlink:href="structplayrho_1_1IsMatrix.html" target="_top" xlink:title="Trait class for checking if type is a matrix type.">
<polygon fill="white" stroke="black" points="154,-1031 154,-1061 261,-1061 261,-1031 154,-1031"/>
<text text-anchor="start" x="162" y="-1049" font-family="Helvetica,sans-Serif" font-size="10.00">playrho::IsMatrix&lt;</text>
<text text-anchor="middle" x="207.5" y="-1038" font-family="Helvetica,sans-Serif" font-size="10.00"> typename &gt;</text>
</a>
</g>
</g>
<!-- Node83&#45;&gt;Node0 -->
<g id="edge1" class="edge">
<title>Node83&#45;&gt;Node0</title>
<path fill="none" stroke="midnightblue" d="M46.06,-560.91C48.73,-642.7 62.87,-951.75 125,-1022 132.52,-1030.51 142.9,-1036.07 153.72,-1039.69"/>
<polygon fill="midnightblue" stroke="midnightblue" points="49.54,-560.44 45.74,-550.55 42.55,-560.65 49.54,-560.44"/>
</g>
<!-- Node85 -->
<g id="node3" class="node">
<title>Node85</title>
<g id="a_node3"><a xlink:href="structplayrho_1_1IsSquareMatrix.html" target="_top" xlink:title="Trait class for checking if type is a square matrix type.">
<polygon fill="white" stroke="black" points="141,-982 141,-1012 274,-1012 274,-982 141,-982"/>
<text text-anchor="start" x="149" y="-1000" font-family="Helvetica,sans-Serif" font-size="10.00">playrho::IsSquareMatrix</text>
<text text-anchor="middle" x="207.5" y="-989" font-family="Helvetica,sans-Serif" font-size="10.00">&lt; typename &gt;</text>
</a>
</g>
</g>
<!-- Node83&#45;&gt;Node85 -->
<g id="edge2" class="edge">
<title>Node83&#45;&gt;Node85</title>
<path fill="none" stroke="midnightblue" d="M46.49,-560.75C50.68,-636.81 69.39,-909.59 125,-972 129.43,-976.97 134.82,-980.97 140.7,-984.18"/>
<polygon fill="midnightblue" stroke="midnightblue" points="49.98,-560.45 45.95,-550.65 42.99,-560.82 49.98,-560.45"/>
</g>
<!-- Node86 -->
<g id="node4" class="node">
<title>Node86</title>
<g id="a_node4"><a xlink:href="structplayrho_1_1IsVector.html" target="_top" xlink:title="Trait class for checking if type is a Vector type.">
<polygon fill="white" stroke="black" points="144,-943.5 144,-962.5 271,-962.5 271,-943.5 144,-943.5"/>
<text text-anchor="middle" x="207.5" y="-950.5" font-family="Helvetica,sans-Serif" font-size="10.00">playrho::IsVector&lt; T &gt;</text>
</a>
</g>
</g>
<!-- Node83&#45;&gt;Node86 -->
<g id="edge3" class="edge">
<title>Node83&#45;&gt;Node86</title>
<path fill="none" stroke="midnightblue" d="M46.75,-560.94C51.68,-633.14 72.17,-879.6 125,-934 130.26,-939.42 136.75,-943.42 143.75,-946.36"/>
<polygon fill="midnightblue" stroke="midnightblue" points="50.22,-560.31 46.07,-550.56 43.23,-560.77 50.22,-560.31"/>
</g>
<!-- Node87 -->
<g id="node5" class="node">
<title>Node87</title>
<g id="a_node5"><a xlink:href="structplayrho_1_1d2_1_1HasRotate.html" target="_top" xlink:title="Type trait for not finding a Rotate(T&amp;, Angle) function.">
<polygon fill="white" stroke="black" points="143.5,-894 143.5,-924 271.5,-924 271.5,-894 143.5,-894"/>
<text text-anchor="start" x="151.5" y="-912" font-family="Helvetica,sans-Serif" font-size="10.00">playrho::d2::HasRotate</text>
<text text-anchor="middle" x="207.5" y="-901" font-family="Helvetica,sans-Serif" font-size="10.00">&lt; T, class &gt;</text>
</a>
</g>
</g>
<!-- Node83&#45;&gt;Node87 -->
<g id="edge4" class="edge">
<title>Node83&#45;&gt;Node87</title>
<path fill="none" stroke="midnightblue" d="M47.48,-560.88C54.43,-626.84 79.79,-837.03 125,-885 130.16,-890.47 136.5,-894.72 143.34,-898.01"/>
<polygon fill="midnightblue" stroke="midnightblue" points="50.93,-560.21 46.43,-550.62 43.97,-560.93 50.93,-560.21"/>
</g>
<!-- Node88 -->
<g id="node6" class="node">
<title>Node88</title>
<g id="a_node6"><a xlink:href="structplayrho_1_1d2_1_1HasScale.html" target="_top" xlink:title=" ">
<polygon fill="white" stroke="black" points="146.5,-845 146.5,-875 268.5,-875 268.5,-845 146.5,-845"/>
<text text-anchor="start" x="154.5" y="-863" font-family="Helvetica,sans-Serif" font-size="10.00">playrho::d2::HasScale</text>
<text text-anchor="middle" x="207.5" y="-852" font-family="Helvetica,sans-Serif" font-size="10.00">&lt; T, class &gt;</text>
</a>
</g>
</g>
<!-- Node83&#45;&gt;Node88 -->
<g id="edge5" class="edge">
<title>Node83&#45;&gt;Node88</title>
<path fill="none" stroke="midnightblue" d="M44.69,-560.79C43.65,-613.3 48.33,-757.53 125,-836 130.98,-842.12 138.43,-846.7 146.38,-850.12"/>
<polygon fill="midnightblue" stroke="midnightblue" points="48.19,-560.87 44.98,-550.77 41.19,-560.66 48.19,-560.87"/>
</g>
<!-- Node89 -->
<g id="node7" class="node">
<title>Node89</title>
<g id="a_node7"><a xlink:href="structplayrho_1_1d2_1_1HasSetDensity.html" target="_top" xlink:title=" ">
<polygon fill="white" stroke="black" points="133,-796 133,-826 282,-826 282,-796 133,-796"/>
<text text-anchor="start" x="141" y="-814" font-family="Helvetica,sans-Serif" font-size="10.00">playrho::d2::HasSetDensity</text>
<text text-anchor="middle" x="207.5" y="-803" font-family="Helvetica,sans-Serif" font-size="10.00">&lt; T, class &gt;</text>
</a>
</g>
</g>
<!-- Node83&#45;&gt;Node89 -->
<g id="edge6" class="edge">
<title>Node83&#45;&gt;Node89</title>
<path fill="none" stroke="midnightblue" d="M45.95,-560.85C48.12,-607.27 60.09,-723.77 125,-787 128.49,-790.4 132.43,-793.32 136.65,-795.83"/>
<polygon fill="midnightblue" stroke="midnightblue" points="49.44,-560.5 45.59,-550.63 42.45,-560.75 49.44,-560.5"/>
</g>
<!-- Node90 -->
<g id="node8" class="node">
<title>Node90</title>
<g id="a_node8"><a xlink:href="structplayrho_1_1d2_1_1HasSetFilter.html" target="_top" xlink:title=" ">
<polygon fill="white" stroke="black" points="139,-747 139,-777 276,-777 276,-747 139,-747"/>
<text text-anchor="start" x="147" y="-765" font-family="Helvetica,sans-Serif" font-size="10.00">playrho::d2::HasSetFilter</text>
<text text-anchor="middle" x="207.5" y="-754" font-family="Helvetica,sans-Serif" font-size="10.00">&lt; T, class &gt;</text>
</a>
</g>
</g>
<!-- Node83&#45;&gt;Node90 -->
<g id="edge7" class="edge">
<title>Node83&#45;&gt;Node90</title>
<path fill="none" stroke="midnightblue" d="M47.8,-560.88C53.45,-600.49 71.68,-689.63 125,-738 129.15,-741.77 133.87,-744.94 138.88,-747.62"/>
<polygon fill="midnightblue" stroke="midnightblue" points="51.26,-560.35 46.5,-550.89 44.32,-561.25 51.26,-560.35"/>
</g>
<!-- Node91 -->
<g id="node9" class="node">
<title>Node91</title>
<g id="a_node9"><a xlink:href="structplayrho_1_1d2_1_1HasSetFriction.html" target="_top" xlink:title=" ">
<polygon fill="white" stroke="black" points="133.5,-698 133.5,-728 281.5,-728 281.5,-698 133.5,-698"/>
<text text-anchor="start" x="141.5" y="-716" font-family="Helvetica,sans-Serif" font-size="10.00">playrho::d2::HasSetFriction</text>
<text text-anchor="middle" x="207.5" y="-705" font-family="Helvetica,sans-Serif" font-size="10.00">&lt; T, class &gt;</text>
</a>
</g>
</g>
<!-- Node83&#45;&gt;Node91 -->
<g id="edge8" class="edge">
<title>Node83&#45;&gt;Node91</title>
<path fill="none" stroke="midnightblue" d="M50.63,-560.44C59.99,-592.13 82.87,-654.79 125,-689 129.24,-692.44 133.95,-695.39 138.92,-697.91"/>
<polygon fill="midnightblue" stroke="midnightblue" points="53.94,-559.31 47.87,-550.62 47.2,-561.2 53.94,-559.31"/>
</g>
<!-- Node92 -->
<g id="node10" class="node">
<title>Node92</title>
<g id="a_node10"><a xlink:href="structplayrho_1_1d2_1_1HasSetRestitution.html" target="_top" xlink:title=" ">
<polygon fill="white" stroke="black" points="125,-649 125,-679 290,-679 290,-649 125,-649"/>
<text text-anchor="start" x="133" y="-667" font-family="Helvetica,sans-Serif" font-size="10.00">playrho::d2::HasSetRestitution</text>
<text text-anchor="middle" x="207.5" y="-656" font-family="Helvetica,sans-Serif" font-size="10.00">&lt; T, class &gt;</text>
</a>
</g>
</g>
<!-- Node83&#45;&gt;Node92 -->
<g id="edge9" class="edge">
<title>Node83&#45;&gt;Node92</title>
<path fill="none" stroke="midnightblue" d="M55.48,-559.32C68.56,-581.63 93.57,-618.94 125,-640 130.15,-643.45 135.8,-646.41 141.65,-648.95"/>
<polygon fill="midnightblue" stroke="midnightblue" points="58.45,-557.47 50.47,-550.5 52.36,-560.92 58.45,-557.47"/>
</g>
<!-- Node93 -->
<g id="node11" class="node">
<title>Node93</title>
<g id="a_node11"><a xlink:href="structplayrho_1_1d2_1_1HasSetSensor.html" target="_top" xlink:title=" ">
<polygon fill="white" stroke="black" points="135,-600 135,-630 280,-630 280,-600 135,-600"/>
<text text-anchor="start" x="143" y="-618" font-family="Helvetica,sans-Serif" font-size="10.00">playrho::d2::HasSetSensor</text>
<text text-anchor="middle" x="207.5" y="-607" font-family="Helvetica,sans-Serif" font-size="10.00">&lt; T, class &gt;</text>
</a>
</g>
</g>
<!-- Node83&#45;&gt;Node93 -->
<g id="edge10" class="edge">
<title>Node83&#45;&gt;Node93</title>
<path fill="none" stroke="midnightblue" d="M66.72,-556.61C82.23,-567.45 104.13,-581.58 125,-591 132.26,-594.28 140.08,-597.24 147.91,-599.87"/>
<polygon fill="midnightblue" stroke="midnightblue" points="68.55,-553.62 58.37,-550.67 64.49,-559.32 68.55,-553.62"/>
</g>
<!-- Node94 -->
<g id="node12" class="node">
<title>Node94</title>
<g id="a_node12"><a xlink:href="structplayrho_1_1d2_1_1HasTranslate.html" target="_top" xlink:title=" ">
<polygon fill="white" stroke="black" points="137.5,-551 137.5,-581 277.5,-581 277.5,-551 137.5,-551"/>
<text text-anchor="start" x="145.5" y="-569" font-family="Helvetica,sans-Serif" font-size="10.00">playrho::d2::HasTranslate</text>
<text text-anchor="middle" x="207.5" y="-558" font-family="Helvetica,sans-Serif" font-size="10.00">&lt; T, class &gt;</text>
</a>
</g>
</g>
<!-- Node83&#45;&gt;Node94 -->
<g id="edge11" class="edge">
<title>Node83&#45;&gt;Node94</title>
<path fill="none" stroke="midnightblue" d="M99.13,-549.33C111.4,-551.23 124.61,-553.28 137.43,-555.28"/>
<polygon fill="midnightblue" stroke="midnightblue" points="99.49,-545.84 89.07,-547.77 98.41,-552.76 99.49,-545.84"/>
</g>
<!-- Node95 -->
<g id="node13" class="node">
<title>Node95</title>
<g id="a_node13"><a xlink:href="structplayrho_1_1d2_1_1IsValidJointType.html" target="_top" xlink:title="An &quot;is valid joint type&quot; trait.">
<polygon fill="white" stroke="black" points="142,-502 142,-532 273,-532 273,-502 142,-502"/>
<text text-anchor="start" x="150" y="-520" font-family="Helvetica,sans-Serif" font-size="10.00">playrho::d2::IsValidJoint</text>
<text text-anchor="middle" x="207.5" y="-509" font-family="Helvetica,sans-Serif" font-size="10.00">Type&lt; T, class &gt;</text>
</a>
</g>
</g>
<!-- Node83&#45;&gt;Node95 -->
<g id="edge12" class="edge">
<title>Node83&#45;&gt;Node95</title>
<path fill="none" stroke="midnightblue" d="M99.23,-532.99C112.85,-530.96 127.62,-528.76 141.72,-526.66"/>
<polygon fill="midnightblue" stroke="midnightblue" points="98.44,-529.57 89.07,-534.51 99.48,-536.49 98.44,-529.57"/>
</g>
<!-- Node96 -->
<g id="node14" class="node">
<title>Node96</title>
<g id="a_node14"><a xlink:href="structplayrho_1_1d2_1_1IsValidShapeType.html" target="_top" xlink:title="An &quot;is valid shape type&quot; trait.">
<polygon fill="white" stroke="black" points="137.5,-453 137.5,-483 277.5,-483 277.5,-453 137.5,-453"/>
<text text-anchor="start" x="145.5" y="-471" font-family="Helvetica,sans-Serif" font-size="10.00">playrho::d2::IsValidShape</text>
<text text-anchor="middle" x="207.5" y="-460" font-family="Helvetica,sans-Serif" font-size="10.00">Type&lt; T, class &gt;</text>
</a>
</g>
</g>
<!-- Node83&#45;&gt;Node96 -->
<g id="edge13" class="edge">
<title>Node83&#45;&gt;Node96</title>
<path fill="none" stroke="midnightblue" d="M67.4,-525.77C82.93,-515.47 104.58,-502.13 125,-493 133.24,-489.32 142.18,-485.97 151.02,-483"/>
<polygon fill="midnightblue" stroke="midnightblue" points="65.34,-522.93 59.01,-531.42 69.26,-528.73 65.34,-522.93"/>
</g>
<!-- Node97 -->
<g id="node15" class="node">
<title>Node97</title>
<g id="a_node15"><a xlink:href="structplayrho_1_1detail_1_1IsAddable.html" target="_top" xlink:title="Template for determining if the given types are addable.">
<polygon fill="white" stroke="black" points="137,-404 137,-434 278,-434 278,-404 137,-404"/>
<text text-anchor="start" x="145" y="-422" font-family="Helvetica,sans-Serif" font-size="10.00">playrho::detail::IsAddable</text>
<text text-anchor="middle" x="207.5" y="-411" font-family="Helvetica,sans-Serif" font-size="10.00">&lt; T1, T2, class &gt;</text>
</a>
</g>
</g>
<!-- Node83&#45;&gt;Node97 -->
<g id="edge14" class="edge">
<title>Node83&#45;&gt;Node97</title>
<path fill="none" stroke="midnightblue" d="M55.81,-522.78C69.07,-500.94 94.13,-464.71 125,-444 130.78,-440.12 137.18,-436.83 143.78,-434.03"/>
<polygon fill="midnightblue" stroke="midnightblue" points="52.77,-521.04 50.71,-531.43 58.8,-524.59 52.77,-521.04"/>
</g>
<!-- Node98 -->
<g id="node16" class="node">
<title>Node98</title>
<g id="a_node16"><a xlink:href="structplayrho_1_1detail_1_1IsArithmetic.html" target="_top" xlink:title="Template for determining if the given type is an &quot;arithmetic&quot; type.">
<polygon fill="white" stroke="black" points="131.5,-355 131.5,-385 283.5,-385 283.5,-355 131.5,-355"/>
<text text-anchor="start" x="139.5" y="-373" font-family="Helvetica,sans-Serif" font-size="10.00">playrho::detail::IsArithmetic</text>
<text text-anchor="middle" x="207.5" y="-362" font-family="Helvetica,sans-Serif" font-size="10.00">&lt; T, class &gt;</text>
</a>
</g>
</g>
<!-- Node83&#45;&gt;Node98 -->
<g id="edge15" class="edge">
<title>Node83&#45;&gt;Node98</title>
<path fill="none" stroke="midnightblue" d="M50.88,-521.42C60.5,-490.09 83.61,-428.81 125,-395 129.7,-391.16 134.98,-387.91 140.55,-385.16"/>
<polygon fill="midnightblue" stroke="midnightblue" points="47.48,-520.57 48.04,-531.15 54.2,-522.54 47.48,-520.57"/>
</g>
<!-- Node99 -->
<g id="node17" class="node">
<title>Node99</title>
<g id="a_node17"><a xlink:href="structplayrho_1_1detail_1_1IsDivisable.html" target="_top" xlink:title="Template for determining if the given types are divisable.">
<polygon fill="white" stroke="black" points="134,-306 134,-336 281,-336 281,-306 134,-306"/>
<text text-anchor="start" x="142" y="-324" font-family="Helvetica,sans-Serif" font-size="10.00">playrho::detail::IsDivisable</text>
<text text-anchor="middle" x="207.5" y="-313" font-family="Helvetica,sans-Serif" font-size="10.00">&lt; T1, T2, class &gt;</text>
</a>
</g>
</g>
<!-- Node83&#45;&gt;Node99 -->
<g id="edge16" class="edge">
<title>Node83&#45;&gt;Node99</title>
<path fill="none" stroke="midnightblue" d="M47.95,-521.12C53.84,-481.86 72.45,-394.05 125,-346 129.26,-342.11 134.11,-338.82 139.28,-336.04"/>
<polygon fill="midnightblue" stroke="midnightblue" points="44.45,-520.85 46.55,-531.24 51.39,-521.81 44.45,-520.85"/>
</g>
<!-- Node100 -->
<g id="node18" class="node">
<title>Node100</title>
<g id="a_node18"><a xlink:href="structplayrho_1_1detail_1_1IsEqualityComparable.html" target="_top" xlink:title="Template for determining if the given type is an equality comparable type.">
<polygon fill="white" stroke="black" points="128,-257 128,-287 287,-287 287,-257 128,-257"/>
<text text-anchor="start" x="136" y="-275" font-family="Helvetica,sans-Serif" font-size="10.00">playrho::detail::IsEquality</text>
<text text-anchor="middle" x="207.5" y="-264" font-family="Helvetica,sans-Serif" font-size="10.00">Comparable&lt; T1, T2, class &gt;</text>
</a>
</g>
</g>
<!-- Node83&#45;&gt;Node100 -->
<g id="edge17" class="edge">
<title>Node83&#45;&gt;Node100</title>
<path fill="none" stroke="midnightblue" d="M46.06,-521.36C48.44,-475.41 60.85,-360.05 125,-297 128.91,-293.16 133.38,-289.91 138.19,-287.16"/>
<polygon fill="midnightblue" stroke="midnightblue" points="42.55,-521.33 45.64,-531.47 49.55,-521.62 42.55,-521.33"/>
</g>
<!-- Node101 -->
<g id="node19" class="node">
<title>Node101</title>
<g id="a_node19"><a xlink:href="structplayrho_1_1detail_1_1IsInequalityComparable.html" target="_top" xlink:title="Template for determining if the given type is an inequality comparable type.">
<polygon fill="white" stroke="black" points="128,-208 128,-238 287,-238 287,-208 128,-208"/>
<text text-anchor="start" x="136" y="-226" font-family="Helvetica,sans-Serif" font-size="10.00">playrho::detail::IsInequality</text>
<text text-anchor="middle" x="207.5" y="-215" font-family="Helvetica,sans-Serif" font-size="10.00">Comparable&lt; T1, T2, class &gt;</text>
</a>
</g>
</g>
<!-- Node83&#45;&gt;Node101 -->
<g id="edge18" class="edge">
<title>Node83&#45;&gt;Node101</title>
<path fill="none" stroke="midnightblue" d="M44.78,-521.06C44.01,-468.74 49.35,-326.17 125,-248 128.71,-244.17 132.98,-240.93 137.59,-238.17"/>
<polygon fill="midnightblue" stroke="midnightblue" points="41.28,-521.41 45.03,-531.32 48.28,-521.23 41.28,-521.41"/>
</g>
<!-- Node102 -->
<g id="node20" class="node">
<title>Node102</title>
<g id="a_node20"><a xlink:href="structplayrho_1_1detail_1_1IsIterable.html" target="_top" xlink:title="Low&#45;level implementation of the is&#45;iterable default value trait.">
<polygon fill="white" stroke="black" points="138,-159 138,-189 277,-189 277,-159 138,-159"/>
<text text-anchor="start" x="146" y="-177" font-family="Helvetica,sans-Serif" font-size="10.00">playrho::detail::IsIterable</text>
<text text-anchor="middle" x="207.5" y="-166" font-family="Helvetica,sans-Serif" font-size="10.00">&lt; T, class &gt;</text>
</a>
</g>
</g>
<!-- Node83&#45;&gt;Node102 -->
<g id="edge19" class="edge">
<title>Node83&#45;&gt;Node102</title>
<path fill="none" stroke="midnightblue" d="M47.52,-521.26C54.59,-455.74 80.28,-246.93 125,-199 128.74,-195 133.09,-191.63 137.82,-188.79"/>
<polygon fill="midnightblue" stroke="midnightblue" points="44.01,-521.13 46.44,-531.44 50.97,-521.87 44.01,-521.13"/>
</g>
<!-- Node103 -->
<g id="node21" class="node">
<title>Node103</title>
<g id="a_node21"><a xlink:href="structplayrho_1_1detail_1_1IsMultipliable.html" target="_top" xlink:title="Template for determining if the given types are multipliable.">
<polygon fill="white" stroke="black" points="128,-110 128,-140 287,-140 287,-110 128,-110"/>
<text text-anchor="start" x="136" y="-128" font-family="Helvetica,sans-Serif" font-size="10.00">playrho::detail::IsMultipliable</text>
<text text-anchor="middle" x="207.5" y="-117" font-family="Helvetica,sans-Serif" font-size="10.00">&lt; T1, T2, class &gt;</text>
</a>
</g>
</g>
<!-- Node83&#45;&gt;Node103 -->
<g id="edge20" class="edge">
<title>Node83&#45;&gt;Node103</title>
<path fill="none" stroke="midnightblue" d="M46.93,-520.81C52.41,-448.79 74.4,-205.76 125,-150 128.48,-146.16 132.53,-142.91 136.94,-140.15"/>
<polygon fill="midnightblue" stroke="midnightblue" points="43.41,-520.96 46.16,-531.19 50.39,-521.47 43.41,-520.96"/>
</g>
<!-- Node104 -->
<g id="node22" class="node">
<title>Node104</title>
<g id="a_node22"><a xlink:href="structplayrho_1_1detail_1_1IsReverseIterable.html" target="_top" xlink:title="Low&#45;level implementation of the is&#45;reverse&#45;iterable default value trait.">
<polygon fill="white" stroke="black" points="137,-61 137,-91 278,-91 278,-61 137,-61"/>
<text text-anchor="start" x="145" y="-79" font-family="Helvetica,sans-Serif" font-size="10.00">playrho::detail::IsReverse</text>
<text text-anchor="middle" x="207.5" y="-68" font-family="Helvetica,sans-Serif" font-size="10.00">Iterable&lt; T, class &gt;</text>
</a>
</g>
</g>
<!-- Node83&#45;&gt;Node104 -->
<g id="edge21" class="edge">
<title>Node83&#45;&gt;Node104</title>
<path fill="none" stroke="midnightblue" d="M46.43,-520.84C50.39,-443.2 68.39,-164.78 125,-101 128.44,-97.13 132.46,-93.84 136.84,-91.06"/>
<polygon fill="midnightblue" stroke="midnightblue" points="42.91,-520.99 45.92,-531.15 49.91,-521.33 42.91,-520.99"/>
</g>
<!-- Node105 -->
<g id="node23" class="node">
<title>Node105</title>
<g id="a_node23"><a xlink:href="structplayrho_1_1detail_1_1has__underlying__type__member.html" target="_top" xlink:title=" ">
<polygon fill="white" stroke="black" points="134,-0.5 134,-41.5 281,-41.5 281,-0.5 134,-0.5"/>
<text text-anchor="start" x="142" y="-29.5" font-family="Helvetica,sans-Serif" font-size="10.00">playrho::detail::has</text>
<text text-anchor="start" x="142" y="-18.5" font-family="Helvetica,sans-Serif" font-size="10.00">_underlying_type_member</text>
<text text-anchor="middle" x="207.5" y="-7.5" font-family="Helvetica,sans-Serif" font-size="10.00">&lt; class, class &gt;</text>
</a>
</g>
</g>
<!-- Node83&#45;&gt;Node105 -->
<g id="edge22" class="edge">
<title>Node83&#45;&gt;Node105</title>
<path fill="none" stroke="midnightblue" d="M46.16,-520.89C49.24,-438.26 64.76,-125.85 125,-52 128.25,-48.01 132.08,-44.54 136.27,-41.51"/>
<polygon fill="midnightblue" stroke="midnightblue" points="42.64,-521.24 45.79,-531.35 49.64,-521.48 42.64,-521.24"/>
</g>
</g>
</svg>
