<?xml version="1.0" encoding="UTF-8" standalone="no"?>
<!DOCTYPE svg PUBLIC "-//W3C//DTD SVG 1.1//EN"
 "http://www.w3.org/Graphics/SVG/1.1/DTD/svg11.dtd">
<!-- Generated by graphviz version 2.43.0 (0)
 -->
<!-- Title: Graphical Class Hierarchy Pages: 1 -->
<svg width="294pt" height="1127pt"
 viewBox="0.00 0.00 294.00 1126.50" xmlns="http://www.w3.org/2000/svg" xmlns:xlink="http://www.w3.org/1999/xlink">
<g id="graph0" class="graph" transform="scale(1 1) rotate(0) translate(4 1122.5)">
<title>Graphical Class Hierarchy</title>
<polygon fill="white" stroke="transparent" points="-4,4 -4,-1122.5 290,-1122.5 290,4 -4,4"/>
<!-- Node85 -->
<g id="node1" class="node">
<title>Node85</title>
<g id="a_node1"><a xlink:title=" ">
<polygon fill="white" stroke="#bfbfbf" points="0,-520.5 0,-539.5 89,-539.5 89,-520.5 0,-520.5"/>
<text text-anchor="middle" x="44.5" y="-527.5" font-family="Helvetica,sans-Serif" font-size="10.00">std::false_type</text>
</a>
</g>
</g>
<!-- Node0 -->
<g id="node2" class="node">
<title>Node0</title>
<g id="a_node2"><a xlink:href="structplayrho_1_1d2_1_1detail_1_1HasRotate.html" target="_top" xlink:title="Type trait for not finding a Rotate(T&amp;, Angle) function.">
<polygon fill="white" stroke="black" points="139,-1088 139,-1118 272,-1118 272,-1088 139,-1088"/>
<text text-anchor="start" x="147" y="-1106" font-family="Helvetica,sans-Serif" font-size="10.00">playrho::d2::detail</text>
<text text-anchor="middle" x="205.5" y="-1095" font-family="Helvetica,sans-Serif" font-size="10.00">::HasRotate&lt; T, class &gt;</text>
</a>
</g>
</g>
<!-- Node85&#45;&gt;Node0 -->
<g id="edge1" class="edge">
<title>Node85&#45;&gt;Node0</title>
<path fill="none" stroke="midnightblue" d="M45.62,-549.82C46.55,-638.41 54.65,-997.27 125,-1079 128.95,-1083.59 133.74,-1087.32 139,-1090.35"/>
<polygon fill="midnightblue" stroke="midnightblue" points="49.12,-549.54 45.53,-539.57 42.12,-549.6 49.12,-549.54"/>
</g>
<!-- Node87 -->
<g id="node3" class="node">
<title>Node87</title>
<g id="a_node3"><a xlink:href="structplayrho_1_1d2_1_1detail_1_1HasScale.html" target="_top" xlink:title=" ">
<polygon fill="white" stroke="black" points="142,-1039 142,-1069 269,-1069 269,-1039 142,-1039"/>
<text text-anchor="start" x="150" y="-1057" font-family="Helvetica,sans-Serif" font-size="10.00">playrho::d2::detail</text>
<text text-anchor="middle" x="205.5" y="-1046" font-family="Helvetica,sans-Serif" font-size="10.00">::HasScale&lt; T, class &gt;</text>
</a>
</g>
</g>
<!-- Node85&#45;&gt;Node87 -->
<g id="edge2" class="edge">
<title>Node85&#45;&gt;Node87</title>
<path fill="none" stroke="midnightblue" d="M45.97,-550.1C48.31,-634 61.36,-955.27 125,-1029 129.63,-1034.37 135.4,-1038.6 141.71,-1041.92"/>
<polygon fill="midnightblue" stroke="midnightblue" points="49.46,-549.8 45.7,-539.89 42.46,-549.98 49.46,-549.8"/>
</g>
<!-- Node88 -->
<g id="node4" class="node">
<title>Node88</title>
<g id="a_node4"><a xlink:href="structplayrho_1_1d2_1_1detail_1_1HasSetDensity.html" target="_top" xlink:title=" ">
<polygon fill="white" stroke="black" points="148,-978.5 148,-1019.5 263,-1019.5 263,-978.5 148,-978.5"/>
<text text-anchor="start" x="156" y="-1007.5" font-family="Helvetica,sans-Serif" font-size="10.00">playrho::d2::detail</text>
<text text-anchor="start" x="156" y="-996.5" font-family="Helvetica,sans-Serif" font-size="10.00">::HasSetDensity&lt; T,</text>
<text text-anchor="middle" x="205.5" y="-985.5" font-family="Helvetica,sans-Serif" font-size="10.00"> class &gt;</text>
</a>
</g>
</g>
<!-- Node85&#45;&gt;Node88 -->
<g id="edge3" class="edge">
<title>Node85&#45;&gt;Node88</title>
<path fill="none" stroke="midnightblue" d="M46.56,-550.01C51,-627.08 70.54,-903.62 125,-969 131.04,-976.25 139.03,-981.76 147.62,-985.93"/>
<polygon fill="midnightblue" stroke="midnightblue" points="50.04,-549.57 45.99,-539.78 43.05,-549.95 50.04,-549.57"/>
</g>
<!-- Node89 -->
<g id="node5" class="node">
<title>Node89</title>
<g id="a_node5"><a xlink:href="structplayrho_1_1d2_1_1detail_1_1HasSetFilter.html" target="_top" xlink:title=" ">
<polygon fill="white" stroke="black" points="135,-929 135,-959 276,-959 276,-929 135,-929"/>
<text text-anchor="start" x="143" y="-947" font-family="Helvetica,sans-Serif" font-size="10.00">playrho::d2::detail</text>
<text text-anchor="middle" x="205.5" y="-936" font-family="Helvetica,sans-Serif" font-size="10.00">::HasSetFilter&lt; T, class &gt;</text>
</a>
</g>
</g>
<!-- Node85&#45;&gt;Node89 -->
<g id="edge4" class="edge">
<title>Node85&#45;&gt;Node89</title>
<path fill="none" stroke="midnightblue" d="M46.95,-550.07C52.53,-621.69 74.82,-863.36 125,-919 128.49,-922.87 132.57,-926.14 137,-928.91"/>
<polygon fill="midnightblue" stroke="midnightblue" points="50.42,-549.46 46.18,-539.75 43.44,-549.99 50.42,-549.46"/>
</g>
<!-- Node90 -->
<g id="node6" class="node">
<title>Node90</title>
<g id="a_node6"><a xlink:href="structplayrho_1_1d2_1_1detail_1_1HasSetFriction.html" target="_top" xlink:title=" ">
<polygon fill="white" stroke="black" points="149,-868.5 149,-909.5 262,-909.5 262,-868.5 149,-868.5"/>
<text text-anchor="start" x="157" y="-897.5" font-family="Helvetica,sans-Serif" font-size="10.00">playrho::d2::detail</text>
<text text-anchor="start" x="157" y="-886.5" font-family="Helvetica,sans-Serif" font-size="10.00">::HasSetFriction&lt; T,</text>
<text text-anchor="middle" x="205.5" y="-875.5" font-family="Helvetica,sans-Serif" font-size="10.00"> class &gt;</text>
</a>
</g>
</g>
<!-- Node85&#45;&gt;Node90 -->
<g id="edge5" class="edge">
<title>Node85&#45;&gt;Node90</title>
<path fill="none" stroke="midnightblue" d="M47.84,-549.73C55.75,-613.37 83.35,-811.85 125,-859 131.45,-866.3 139.85,-871.83 148.78,-876.01"/>
<polygon fill="midnightblue" stroke="midnightblue" points="51.31,-549.29 46.63,-539.78 44.36,-550.13 51.31,-549.29"/>
</g>
<!-- Node91 -->
<g id="node7" class="node">
<title>Node91</title>
<g id="a_node7"><a xlink:href="structplayrho_1_1d2_1_1detail_1_1HasSetRestitution.html" target="_top" xlink:title=" ">
<polygon fill="white" stroke="black" points="150.5,-808.5 150.5,-849.5 260.5,-849.5 260.5,-808.5 150.5,-808.5"/>
<text text-anchor="start" x="158.5" y="-837.5" font-family="Helvetica,sans-Serif" font-size="10.00">playrho::d2::detail</text>
<text text-anchor="start" x="158.5" y="-826.5" font-family="Helvetica,sans-Serif" font-size="10.00">::HasSetRestitution</text>
<text text-anchor="middle" x="205.5" y="-815.5" font-family="Helvetica,sans-Serif" font-size="10.00">&lt; T, class &gt;</text>
</a>
</g>
</g>
<!-- Node85&#45;&gt;Node91 -->
<g id="edge6" class="edge">
<title>Node85&#45;&gt;Node91</title>
<path fill="none" stroke="midnightblue" d="M45.64,-549.68C47.03,-598.45 57.34,-726.17 125,-799 131.93,-806.46 140.9,-812.07 150.3,-816.3"/>
<polygon fill="midnightblue" stroke="midnightblue" points="49.13,-549.48 45.45,-539.55 42.13,-549.61 49.13,-549.48"/>
</g>
<!-- Node92 -->
<g id="node8" class="node">
<title>Node92</title>
<g id="a_node8"><a xlink:href="structplayrho_1_1d2_1_1detail_1_1HasSetSensor.html" target="_top" xlink:title=" ">
<polygon fill="white" stroke="black" points="131,-759 131,-789 280,-789 280,-759 131,-759"/>
<text text-anchor="start" x="139" y="-777" font-family="Helvetica,sans-Serif" font-size="10.00">playrho::d2::detail</text>
<text text-anchor="middle" x="205.5" y="-766" font-family="Helvetica,sans-Serif" font-size="10.00">::HasSetSensor&lt; T, class &gt;</text>
</a>
</g>
</g>
<!-- Node85&#45;&gt;Node92 -->
<g id="edge7" class="edge">
<title>Node85&#45;&gt;Node92</title>
<path fill="none" stroke="midnightblue" d="M46.86,-549.74C50.88,-592.54 66.41,-694.47 125,-750 128.66,-753.47 132.81,-756.44 137.24,-758.98"/>
<polygon fill="midnightblue" stroke="midnightblue" points="50.33,-549.22 46.02,-539.54 43.35,-549.79 50.33,-549.22"/>
</g>
<!-- Node93 -->
<g id="node9" class="node">
<title>Node93</title>
<g id="a_node9"><a xlink:href="structplayrho_1_1d2_1_1detail_1_1HasTranslate.html" target="_top" xlink:title=" ">
<polygon fill="white" stroke="black" points="133,-710 133,-740 278,-740 278,-710 133,-710"/>
<text text-anchor="start" x="141" y="-728" font-family="Helvetica,sans-Serif" font-size="10.00">playrho::d2::detail</text>
<text text-anchor="middle" x="205.5" y="-717" font-family="Helvetica,sans-Serif" font-size="10.00">::HasTranslate&lt; T, class &gt;</text>
</a>
</g>
</g>
<!-- Node85&#45;&gt;Node93 -->
<g id="edge8" class="edge">
<title>Node85&#45;&gt;Node93</title>
<path fill="none" stroke="midnightblue" d="M49.29,-549.72C57.1,-585.03 78.32,-659.14 125,-700 129.46,-703.91 134.54,-707.2 139.91,-709.99"/>
<polygon fill="midnightblue" stroke="midnightblue" points="52.67,-548.79 47.21,-539.71 45.82,-550.22 52.67,-548.79"/>
</g>
<!-- Node94 -->
<g id="node10" class="node">
<title>Node94</title>
<g id="a_node10"><a xlink:href="structplayrho_1_1d2_1_1detail_1_1IsValidJointType.html" target="_top" xlink:title="An &quot;is valid joint type&quot; trait.">
<polygon fill="white" stroke="black" points="152,-649.5 152,-690.5 259,-690.5 259,-649.5 152,-649.5"/>
<text text-anchor="start" x="160" y="-678.5" font-family="Helvetica,sans-Serif" font-size="10.00">playrho::d2::detail</text>
<text text-anchor="start" x="160" y="-667.5" font-family="Helvetica,sans-Serif" font-size="10.00">::IsValidJointType&lt;</text>
<text text-anchor="middle" x="205.5" y="-656.5" font-family="Helvetica,sans-Serif" font-size="10.00"> T, class &gt;</text>
</a>
</g>
</g>
<!-- Node85&#45;&gt;Node94 -->
<g id="edge9" class="edge">
<title>Node85&#45;&gt;Node94</title>
<path fill="none" stroke="midnightblue" d="M54.69,-548.91C67.37,-573.17 92.41,-615.08 125,-640 132.97,-646.09 142.31,-651.07 151.74,-655.09"/>
<polygon fill="midnightblue" stroke="midnightblue" points="57.67,-547.04 50.03,-539.7 51.42,-550.2 57.67,-547.04"/>
</g>
<!-- Node95 -->
<g id="node11" class="node">
<title>Node95</title>
<g id="a_node11"><a xlink:href="structplayrho_1_1d2_1_1detail_1_1IsValidShapeType.html" target="_top" xlink:title="An &quot;is valid shape type&quot; trait.">
<polygon fill="white" stroke="black" points="147.5,-589.5 147.5,-630.5 263.5,-630.5 263.5,-589.5 147.5,-589.5"/>
<text text-anchor="start" x="155.5" y="-618.5" font-family="Helvetica,sans-Serif" font-size="10.00">playrho::d2::detail</text>
<text text-anchor="start" x="155.5" y="-607.5" font-family="Helvetica,sans-Serif" font-size="10.00">::IsValidShapeType&lt;</text>
<text text-anchor="middle" x="205.5" y="-596.5" font-family="Helvetica,sans-Serif" font-size="10.00"> T, class &gt;</text>
</a>
</g>
</g>
<!-- Node85&#45;&gt;Node95 -->
<g id="edge10" class="edge">
<title>Node85&#45;&gt;Node95</title>
<path fill="none" stroke="midnightblue" d="M67.22,-545.33C82.82,-555.92 104.62,-569.87 125,-580 132.13,-583.54 139.8,-586.93 147.45,-590.06"/>
<polygon fill="midnightblue" stroke="midnightblue" points="69.02,-542.32 58.8,-539.53 65.05,-548.09 69.02,-542.32"/>
</g>
<!-- Node96 -->
<g id="node12" class="node">
<title>Node96</title>
<g id="a_node12"><a xlink:href="structplayrho_1_1detail_1_1IsAddable.html" target="_top" xlink:title="Template for determining if the given types are addable.">
<polygon fill="white" stroke="black" points="135,-540 135,-570 276,-570 276,-540 135,-540"/>
<text text-anchor="start" x="143" y="-558" font-family="Helvetica,sans-Serif" font-size="10.00">playrho::detail::IsAddable</text>
<text text-anchor="middle" x="205.5" y="-547" font-family="Helvetica,sans-Serif" font-size="10.00">&lt; T1, T2, class &gt;</text>
</a>
</g>
</g>
<!-- Node85&#45;&gt;Node96 -->
<g id="edge11" class="edge">
<title>Node85&#45;&gt;Node96</title>
<path fill="none" stroke="midnightblue" d="M99.54,-538.5C110.88,-540.28 122.99,-542.18 134.81,-544.04"/>
<polygon fill="midnightblue" stroke="midnightblue" points="99.79,-534.99 89.37,-536.9 98.7,-541.91 99.79,-534.99"/>
</g>
<!-- Node97 -->
<g id="node13" class="node">
<title>Node97</title>
<g id="a_node13"><a xlink:href="structplayrho_1_1detail_1_1IsArithmetic.html" target="_top" xlink:title="Template for determining if the given type is an &quot;arithmetic&quot; type.">
<polygon fill="white" stroke="black" points="129.5,-491 129.5,-521 281.5,-521 281.5,-491 129.5,-491"/>
<text text-anchor="start" x="137.5" y="-509" font-family="Helvetica,sans-Serif" font-size="10.00">playrho::detail::IsArithmetic</text>
<text text-anchor="middle" x="205.5" y="-498" font-family="Helvetica,sans-Serif" font-size="10.00">&lt; T, class &gt;</text>
</a>
</g>
</g>
<!-- Node85&#45;&gt;Node97 -->
<g id="edge12" class="edge">
<title>Node85&#45;&gt;Node97</title>
<path fill="none" stroke="midnightblue" d="M99.54,-521.84C109.13,-520.39 119.29,-518.86 129.34,-517.34"/>
<polygon fill="midnightblue" stroke="midnightblue" points="98.73,-518.42 89.37,-523.38 99.78,-525.35 98.73,-518.42"/>
</g>
<!-- Node98 -->
<g id="node14" class="node">
<title>Node98</title>
<g id="a_node14"><a xlink:href="structplayrho_1_1detail_1_1IsDivisable.html" target="_top" xlink:title="Template for determining if the given types are divisable.">
<polygon fill="white" stroke="black" points="132,-442 132,-472 279,-472 279,-442 132,-442"/>
<text text-anchor="start" x="140" y="-460" font-family="Helvetica,sans-Serif" font-size="10.00">playrho::detail::IsDivisable</text>
<text text-anchor="middle" x="205.5" y="-449" font-family="Helvetica,sans-Serif" font-size="10.00">&lt; T1, T2, class &gt;</text>
</a>
</g>
</g>
<!-- Node85&#45;&gt;Node98 -->
<g id="edge13" class="edge">
<title>Node85&#45;&gt;Node98</title>
<path fill="none" stroke="midnightblue" d="M67.42,-514.81C82.96,-504.53 104.61,-491.2 125,-482 133.04,-478.37 141.77,-475.05 150.39,-472.1"/>
<polygon fill="midnightblue" stroke="midnightblue" points="65.37,-511.97 59.02,-520.46 69.27,-517.78 65.37,-511.97"/>
</g>
<!-- Node99 -->
<g id="node15" class="node">
<title>Node99</title>
<g id="a_node15"><a xlink:href="structplayrho_1_1detail_1_1IsEqualityComparable.html" target="_top" xlink:title="Template for determining if the given type is an equality comparable type.">
<polygon fill="white" stroke="black" points="126,-393 126,-423 285,-423 285,-393 126,-393"/>
<text text-anchor="start" x="134" y="-411" font-family="Helvetica,sans-Serif" font-size="10.00">playrho::detail::IsEquality</text>
<text text-anchor="middle" x="205.5" y="-400" font-family="Helvetica,sans-Serif" font-size="10.00">Comparable&lt; T1, T2, class &gt;</text>
</a>
</g>
</g>
<!-- Node85&#45;&gt;Node99 -->
<g id="edge14" class="edge">
<title>Node85&#45;&gt;Node99</title>
<path fill="none" stroke="midnightblue" d="M55.83,-511.82C69.12,-490.01 94.2,-453.82 125,-433 130.63,-429.19 136.88,-425.94 143.32,-423.17"/>
<polygon fill="midnightblue" stroke="midnightblue" points="52.8,-510.06 50.73,-520.45 58.83,-513.62 52.8,-510.06"/>
</g>
<!-- Node100 -->
<g id="node16" class="node">
<title>Node100</title>
<g id="a_node16"><a xlink:href="structplayrho_1_1detail_1_1IsInequalityComparable.html" target="_top" xlink:title="Template for determining if the given type is an inequality comparable type.">
<polygon fill="white" stroke="black" points="126,-344 126,-374 285,-374 285,-344 126,-344"/>
<text text-anchor="start" x="134" y="-362" font-family="Helvetica,sans-Serif" font-size="10.00">playrho::detail::IsInequality</text>
<text text-anchor="middle" x="205.5" y="-351" font-family="Helvetica,sans-Serif" font-size="10.00">Comparable&lt; T1, T2, class &gt;</text>
</a>
</g>
</g>
<!-- Node85&#45;&gt;Node100 -->
<g id="edge15" class="edge">
<title>Node85&#45;&gt;Node100</title>
<path fill="none" stroke="midnightblue" d="M50.91,-510.45C60.57,-479.17 83.73,-417.95 125,-384 129.69,-380.14 134.99,-376.87 140.56,-374.11"/>
<polygon fill="midnightblue" stroke="midnightblue" points="47.52,-509.59 48.05,-520.17 54.23,-511.57 47.52,-509.59"/>
</g>
<!-- Node101 -->
<g id="node17" class="node">
<title>Node101</title>
<g id="a_node17"><a xlink:href="structplayrho_1_1detail_1_1IsIterable.html" target="_top" xlink:title="Low&#45;level implementation of the is&#45;iterable default value trait.">
<polygon fill="white" stroke="black" points="136,-295 136,-325 275,-325 275,-295 136,-295"/>
<text text-anchor="start" x="144" y="-313" font-family="Helvetica,sans-Serif" font-size="10.00">playrho::detail::IsIterable</text>
<text text-anchor="middle" x="205.5" y="-302" font-family="Helvetica,sans-Serif" font-size="10.00">&lt; T, class &gt;</text>
</a>
</g>
</g>
<!-- Node85&#45;&gt;Node101 -->
<g id="edge16" class="edge">
<title>Node85&#45;&gt;Node101</title>
<path fill="none" stroke="midnightblue" d="M47.98,-510.15C53.92,-470.95 72.62,-383.23 125,-335 129.15,-331.18 133.88,-327.94 138.92,-325.2"/>
<polygon fill="midnightblue" stroke="midnightblue" points="44.48,-509.87 46.57,-520.26 51.42,-510.83 44.48,-509.87"/>
</g>
<!-- Node102 -->
<g id="node18" class="node">
<title>Node102</title>
<g id="a_node18"><a xlink:href="structplayrho_1_1detail_1_1IsMatrix.html" target="_top" xlink:title="Trait class for checking if type is a matrix type.">
<polygon fill="white" stroke="black" points="139,-246 139,-276 272,-276 272,-246 139,-246"/>
<text text-anchor="start" x="147" y="-264" font-family="Helvetica,sans-Serif" font-size="10.00">playrho::detail::IsMatrix</text>
<text text-anchor="middle" x="205.5" y="-253" font-family="Helvetica,sans-Serif" font-size="10.00">&lt; typename &gt;</text>
</a>
</g>
</g>
<!-- Node85&#45;&gt;Node102 -->
<g id="edge17" class="edge">
<title>Node85&#45;&gt;Node102</title>
<path fill="none" stroke="midnightblue" d="M46.09,-510.39C48.53,-464.5 61.07,-349.27 125,-286 129.01,-282.03 133.64,-278.69 138.62,-275.88"/>
<polygon fill="midnightblue" stroke="midnightblue" points="42.58,-510.34 45.66,-520.48 49.58,-510.64 42.58,-510.34"/>
</g>
<!-- Node103 -->
<g id="node19" class="node">
<title>Node103</title>
<g id="a_node19"><a xlink:href="structplayrho_1_1detail_1_1IsMultipliable.html" target="_top" xlink:title="Template for determining if the given types are multipliable.">
<polygon fill="white" stroke="black" points="126,-197 126,-227 285,-227 285,-197 126,-197"/>
<text text-anchor="start" x="134" y="-215" font-family="Helvetica,sans-Serif" font-size="10.00">playrho::detail::IsMultipliable</text>
<text text-anchor="middle" x="205.5" y="-204" font-family="Helvetica,sans-Serif" font-size="10.00">&lt; T1, T2, class &gt;</text>
</a>
</g>
</g>
<!-- Node85&#45;&gt;Node103 -->
<g id="edge18" class="edge">
<title>Node85&#45;&gt;Node103</title>
<path fill="none" stroke="midnightblue" d="M44.81,-510.09C44.11,-457.84 49.62,-315.43 125,-237 128.71,-233.14 133.01,-229.87 137.65,-227.11"/>
<polygon fill="midnightblue" stroke="midnightblue" points="41.31,-510.42 45.04,-520.33 48.31,-510.25 41.31,-510.42"/>
</g>
<!-- Node104 -->
<g id="node20" class="node">
<title>Node104</title>
<g id="a_node20"><a xlink:href="structplayrho_1_1detail_1_1IsReverseIterable.html" target="_top" xlink:title="Low&#45;level implementation of the is&#45;reverse&#45;iterable default value trait.">
<polygon fill="white" stroke="black" points="135,-148 135,-178 276,-178 276,-148 135,-148"/>
<text text-anchor="start" x="143" y="-166" font-family="Helvetica,sans-Serif" font-size="10.00">playrho::detail::IsReverse</text>
<text text-anchor="middle" x="205.5" y="-155" font-family="Helvetica,sans-Serif" font-size="10.00">Iterable&lt; T, class &gt;</text>
</a>
</g>
</g>
<!-- Node85&#45;&gt;Node104 -->
<g id="edge19" class="edge">
<title>Node85&#45;&gt;Node104</title>
<path fill="none" stroke="midnightblue" d="M47.53,-510.27C54.64,-444.79 80.45,-236.09 125,-188 128.54,-184.18 132.66,-180.94 137.12,-178.19"/>
<polygon fill="midnightblue" stroke="midnightblue" points="44.02,-510.14 46.45,-520.45 50.98,-510.87 44.02,-510.14"/>
</g>
<!-- Node105 -->
<g id="node21" class="node">
<title>Node105</title>
<g id="a_node21"><a xlink:href="structplayrho_1_1detail_1_1IsSquareMatrix.html" target="_top" xlink:title="Trait class for checking if type is a square matrix type.">
<polygon fill="white" stroke="black" points="138,-99 138,-129 273,-129 273,-99 138,-99"/>
<text text-anchor="start" x="146" y="-117" font-family="Helvetica,sans-Serif" font-size="10.00">playrho::detail::IsSquare</text>
<text text-anchor="middle" x="205.5" y="-106" font-family="Helvetica,sans-Serif" font-size="10.00">Matrix&lt; typename &gt;</text>
</a>
</g>
</g>
<!-- Node85&#45;&gt;Node105 -->
<g id="edge20" class="edge">
<title>Node85&#45;&gt;Node105</title>
<path fill="none" stroke="midnightblue" d="M46.94,-509.83C52.47,-437.84 74.6,-194.94 125,-139 128.68,-134.92 133.02,-131.49 137.74,-128.62"/>
<polygon fill="midnightblue" stroke="midnightblue" points="43.42,-509.96 46.17,-520.2 50.4,-510.48 43.42,-509.96"/>
</g>
<!-- Node106 -->
<g id="node22" class="node">
<title>Node106</title>
<g id="a_node22"><a xlink:href="structplayrho_1_1detail_1_1IsVector.html" target="_top" xlink:title="Trait class for checking if type is a Vector type.">
<polygon fill="white" stroke="black" points="125,-60.5 125,-79.5 286,-79.5 286,-60.5 125,-60.5"/>
<text text-anchor="middle" x="205.5" y="-67.5" font-family="Helvetica,sans-Serif" font-size="10.00">playrho::detail::IsVector&lt; T &gt;</text>
</a>
</g>
</g>
<!-- Node85&#45;&gt;Node106 -->
<g id="edge21" class="edge">
<title>Node85&#45;&gt;Node106</title>
<path fill="none" stroke="midnightblue" d="M46.31,-510.25C49.86,-433 66.65,-152.44 125,-90 128.98,-85.74 133.73,-82.33 138.89,-79.6"/>
<polygon fill="midnightblue" stroke="midnightblue" points="42.8,-510.34 45.86,-520.49 49.79,-510.65 42.8,-510.34"/>
</g>
<!-- Node107 -->
<g id="node23" class="node">
<title>Node107</title>
<g id="a_node23"><a xlink:href="structplayrho_1_1detail_1_1has__underlying__type__member.html" target="_top" xlink:title=" ">
<polygon fill="white" stroke="black" points="132,-0.5 132,-41.5 279,-41.5 279,-0.5 132,-0.5"/>
<text text-anchor="start" x="140" y="-29.5" font-family="Helvetica,sans-Serif" font-size="10.00">playrho::detail::has</text>
<text text-anchor="start" x="140" y="-18.5" font-family="Helvetica,sans-Serif" font-size="10.00">_underlying_type_member</text>
<text text-anchor="middle" x="205.5" y="-7.5" font-family="Helvetica,sans-Serif" font-size="10.00">&lt; class, class &gt;</text>
</a>
</g>
</g>
<!-- Node85&#45;&gt;Node107 -->
<g id="edge22" class="edge">
<title>Node85&#45;&gt;Node107</title>
<path fill="none" stroke="midnightblue" d="M46.23,-509.76C49.58,-428.01 65.87,-123.05 125,-51 127.9,-47.46 131.27,-44.35 134.94,-41.59"/>
<polygon fill="midnightblue" stroke="midnightblue" points="42.72,-510.02 45.83,-520.15 49.71,-510.3 42.72,-510.02"/>
</g>
</g>
</svg>
