<?xml version="1.0" encoding="UTF-8" standalone="no"?>
<!DOCTYPE svg PUBLIC "-//W3C//DTD SVG 1.1//EN"
 "http://www.w3.org/Graphics/SVG/1.1/DTD/svg11.dtd">
<!-- Generated by graphviz version 2.43.0 (0)
 -->
<!-- Title: Graphical Class Hierarchy Pages: 1 -->
<svg width="535pt" height="1889pt"
 viewBox="0.00 0.00 535.00 1888.50" xmlns="http://www.w3.org/2000/svg" xmlns:xlink="http://www.w3.org/1999/xlink">
<g id="graph0" class="graph" transform="scale(1 1) rotate(0) translate(4 1884.5)">
<title>Graphical Class Hierarchy</title>
<polygon fill="white" stroke="transparent" points="-4,4 -4,-1884.5 531,-1884.5 531,4 -4,4"/>
<!-- Node261 -->
<g id="node1" class="node">
<title>Node261</title>
<g id="a_node1"><a xlink:title=" ">
<polygon fill="white" stroke="#bfbfbf" points="0,-1043 0,-1062 84,-1062 84,-1043 0,-1043"/>
<text text-anchor="middle" x="42" y="-1050" font-family="Helvetica,sans-Serif" font-size="10.00">std::true_type</text>
</a>
</g>
</g>
<!-- Node0 -->
<g id="node2" class="node">
<title>Node0</title>
<g id="a_node2"><a xlink:href="structplayrho_1_1IsMatrix_3_01Vector_3_01Vector_3_01T_00_01N_01_4_00_01M_01_4_01_4.html" target="_top" xlink:title="Trait class specialization for checking if type is a matrix type.">
<polygon fill="white" stroke="black" points="267,-1839 267,-1880 380,-1880 380,-1839 267,-1839"/>
<text text-anchor="start" x="275" y="-1868" font-family="Helvetica,sans-Serif" font-size="10.00">playrho::IsMatrix&lt;</text>
<text text-anchor="start" x="275" y="-1857" font-family="Helvetica,sans-Serif" font-size="10.00"> Vector&lt; Vector&lt; T,</text>
<text text-anchor="middle" x="323.5" y="-1846" font-family="Helvetica,sans-Serif" font-size="10.00"> N &gt;, M &gt; &gt;</text>
</a>
</g>
</g>
<!-- Node261&#45;&gt;Node0 -->
<g id="edge1" class="edge">
<title>Node261&#45;&gt;Node0</title>
<path fill="none" stroke="midnightblue" d="M43.53,-1072.29C46.83,-1187.91 66.1,-1772.93 120,-1829.5 157.02,-1868.35 220.82,-1871.81 266.93,-1868.11"/>
<polygon fill="midnightblue" stroke="midnightblue" points="47.03,-1071.97 43.25,-1062.08 40.03,-1072.17 47.03,-1071.97"/>
</g>
<!-- Node263 -->
<g id="node3" class="node">
<title>Node263</title>
<g id="a_node3"><a xlink:href="structplayrho_1_1IsSquareMatrix_3_01Vector_3_01Vector_3_01T_00_01M_01_4_00_01M_01_4_01_4.html" target="_top" xlink:title="Trait class specialization for checking if type is a square matrix type.">
<polygon fill="white" stroke="black" points="257,-1779 257,-1820 390,-1820 390,-1779 257,-1779"/>
<text text-anchor="start" x="265" y="-1808" font-family="Helvetica,sans-Serif" font-size="10.00">playrho::IsSquareMatrix</text>
<text text-anchor="start" x="265" y="-1797" font-family="Helvetica,sans-Serif" font-size="10.00">&lt; Vector&lt; Vector&lt; T, M</text>
<text text-anchor="middle" x="323.5" y="-1786" font-family="Helvetica,sans-Serif" font-size="10.00"> &gt;, M &gt; &gt;</text>
</a>
</g>
</g>
<!-- Node261&#45;&gt;Node263 -->
<g id="edge2" class="edge">
<title>Node261&#45;&gt;Node263</title>
<path fill="none" stroke="midnightblue" d="M43.7,-1072.12C47.79,-1181.96 70.21,-1717.67 120,-1769.5 154.47,-1805.38 211.8,-1810.99 256.68,-1808.7"/>
<polygon fill="midnightblue" stroke="midnightblue" points="47.19,-1071.96 43.33,-1062.09 40.2,-1072.22 47.19,-1071.96"/>
</g>
<!-- Node264 -->
<g id="node4" class="node">
<title>Node264</title>
<g id="a_node4"><a xlink:href="structplayrho_1_1IsVector_3_01Vector_3_01T_00_01N_01_4_01_4.html" target="_top" xlink:title="Trait class specialization for checking if type is a Vector type..">
<polygon fill="white" stroke="black" points="270,-1729.5 270,-1759.5 377,-1759.5 377,-1729.5 270,-1729.5"/>
<text text-anchor="start" x="278" y="-1747.5" font-family="Helvetica,sans-Serif" font-size="10.00">playrho::IsVector&lt;</text>
<text text-anchor="middle" x="323.5" y="-1736.5" font-family="Helvetica,sans-Serif" font-size="10.00"> Vector&lt; T, N &gt; &gt;</text>
</a>
</g>
</g>
<!-- Node261&#45;&gt;Node264 -->
<g id="edge3" class="edge">
<title>Node261&#45;&gt;Node264</title>
<path fill="none" stroke="midnightblue" d="M43.86,-1072.39C48.59,-1178.22 73.11,-1672.24 120,-1719.5 158.42,-1758.23 223.9,-1759.41 269.97,-1754.2"/>
<polygon fill="midnightblue" stroke="midnightblue" points="47.34,-1072 43.41,-1062.17 40.35,-1072.31 47.34,-1072"/>
</g>
<!-- Node265 -->
<g id="node5" class="node">
<title>Node265</title>
<g id="a_node5"><a xlink:href="structplayrho_1_1d2_1_1HasRotate_3_01T_00_01std_1_1void__t_3_01decltype_07Rotate_07std_1_1declvab23bcb7328e909634f00b726196a7bdd.html" target="_top" xlink:title=" ">
<polygon fill="white" stroke="black" points="251.5,-1647 251.5,-1710 395.5,-1710 395.5,-1647 251.5,-1647"/>
<text text-anchor="start" x="259.5" y="-1698" font-family="Helvetica,sans-Serif" font-size="10.00">playrho::d2::HasRotate</text>
<text text-anchor="start" x="259.5" y="-1687" font-family="Helvetica,sans-Serif" font-size="10.00">&lt; T, std::void_t&lt; decltype</text>
<text text-anchor="start" x="259.5" y="-1676" font-family="Helvetica,sans-Serif" font-size="10.00">(Rotate(std::declval&lt; T &amp;</text>
<text text-anchor="start" x="259.5" y="-1665" font-family="Helvetica,sans-Serif" font-size="10.00"> &gt;(), std::declval&lt; Angle</text>
<text text-anchor="middle" x="323.5" y="-1654" font-family="Helvetica,sans-Serif" font-size="10.00"> &gt;()))&gt; &gt;</text>
</a>
</g>
</g>
<!-- Node261&#45;&gt;Node265 -->
<g id="edge4" class="edge">
<title>Node261&#45;&gt;Node265</title>
<path fill="none" stroke="midnightblue" d="M42.65,-1072.6C41.47,-1165.61 41.41,-1553.3 120,-1637.5 152.92,-1672.77 207.14,-1682.3 251.2,-1683.39"/>
<polygon fill="midnightblue" stroke="midnightblue" points="46.16,-1072.38 42.8,-1062.33 39.16,-1072.28 46.16,-1072.38"/>
</g>
<!-- Node266 -->
<g id="node6" class="node">
<title>Node266</title>
<g id="a_node6"><a xlink:href="structplayrho_1_1d2_1_1HasScale_3_01T_00_01std_1_1void__t_3_01decltype_07Scale_07std_1_1declval_7e81e5db28bca47f918fcc4e03d4377d.html" target="_top" xlink:title=" ">
<polygon fill="white" stroke="black" points="234.5,-1575.5 234.5,-1627.5 412.5,-1627.5 412.5,-1575.5 234.5,-1575.5"/>
<text text-anchor="start" x="242.5" y="-1615.5" font-family="Helvetica,sans-Serif" font-size="10.00">playrho::d2::HasScale</text>
<text text-anchor="start" x="242.5" y="-1604.5" font-family="Helvetica,sans-Serif" font-size="10.00">&lt; T, std::void_t&lt; decltype</text>
<text text-anchor="start" x="242.5" y="-1593.5" font-family="Helvetica,sans-Serif" font-size="10.00">(Scale(std::declval&lt; T &amp;</text>
<text text-anchor="middle" x="323.5" y="-1582.5" font-family="Helvetica,sans-Serif" font-size="10.00"> &gt;(), std::declval&lt; Vec2 &gt;()))&gt; &gt;</text>
</a>
</g>
</g>
<!-- Node261&#45;&gt;Node266 -->
<g id="edge5" class="edge">
<title>Node261&#45;&gt;Node266</title>
<path fill="none" stroke="midnightblue" d="M43.02,-1072.56C43.53,-1158.4 50.03,-1493.62 120,-1565.5 149.2,-1595.5 194.13,-1605.57 234.26,-1607.68"/>
<polygon fill="midnightblue" stroke="midnightblue" points="46.52,-1072.34 42.98,-1062.36 39.52,-1072.37 46.52,-1072.34"/>
</g>
<!-- Node267 -->
<g id="node7" class="node">
<title>Node267</title>
<g id="a_node7"><a xlink:href="structplayrho_1_1d2_1_1HasSetDensity_3_01T_00_01std_1_1void__t_3_01decltype_07SetDensity_07std_113b499e5db81c273ad104817486f0060.html" target="_top" xlink:title=" ">
<polygon fill="white" stroke="black" points="227.5,-1493 227.5,-1556 419.5,-1556 419.5,-1493 227.5,-1493"/>
<text text-anchor="start" x="235.5" y="-1544" font-family="Helvetica,sans-Serif" font-size="10.00">playrho::d2::HasSetDensity</text>
<text text-anchor="start" x="235.5" y="-1533" font-family="Helvetica,sans-Serif" font-size="10.00">&lt; T, std::void_t&lt; decltype</text>
<text text-anchor="start" x="235.5" y="-1522" font-family="Helvetica,sans-Serif" font-size="10.00">(SetDensity(std::declval&lt;</text>
<text text-anchor="start" x="235.5" y="-1511" font-family="Helvetica,sans-Serif" font-size="10.00"> T &amp; &gt;(), std::declval&lt; NonNegative</text>
<text text-anchor="middle" x="323.5" y="-1500" font-family="Helvetica,sans-Serif" font-size="10.00">&lt; AreaDensity &gt;&gt;()))&gt; &gt;</text>
</a>
</g>
</g>
<!-- Node261&#45;&gt;Node267 -->
<g id="edge6" class="edge">
<title>Node261&#45;&gt;Node267</title>
<path fill="none" stroke="midnightblue" d="M43.68,-1072.42C46.74,-1149.08 61.63,-1423.78 120,-1483.5 147.7,-1511.85 189.22,-1523.36 227.46,-1527.29"/>
<polygon fill="midnightblue" stroke="midnightblue" points="47.17,-1072.09 43.3,-1062.23 40.18,-1072.36 47.17,-1072.09"/>
</g>
<!-- Node268 -->
<g id="node8" class="node">
<title>Node268</title>
<g id="a_node8"><a xlink:href="structplayrho_1_1d2_1_1HasSetFilter_3_01T_00_01std_1_1void__t_3_01decltype_07SetFilter_07std_1_1bef5a4d4fced4cacab5e5bef9596f96f.html" target="_top" xlink:title=" ">
<polygon fill="white" stroke="black" points="251.5,-1411 251.5,-1474 395.5,-1474 395.5,-1411 251.5,-1411"/>
<text text-anchor="start" x="259.5" y="-1462" font-family="Helvetica,sans-Serif" font-size="10.00">playrho::d2::HasSetFilter</text>
<text text-anchor="start" x="259.5" y="-1451" font-family="Helvetica,sans-Serif" font-size="10.00">&lt; T, std::void_t&lt; decltype</text>
<text text-anchor="start" x="259.5" y="-1440" font-family="Helvetica,sans-Serif" font-size="10.00">(SetFilter(std::declval&lt; T</text>
<text text-anchor="start" x="259.5" y="-1429" font-family="Helvetica,sans-Serif" font-size="10.00"> &amp; &gt;(), std::declval&lt; Filter</text>
<text text-anchor="middle" x="323.5" y="-1418" font-family="Helvetica,sans-Serif" font-size="10.00"> &gt;()))&gt; &gt;</text>
</a>
</g>
</g>
<!-- Node261&#45;&gt;Node268 -->
<g id="edge7" class="edge">
<title>Node261&#45;&gt;Node268</title>
<path fill="none" stroke="midnightblue" d="M44.59,-1072.39C50.34,-1139.3 72.31,-1354.63 120,-1401.5 154.15,-1435.06 207.75,-1444.77 251.23,-1446.38"/>
<polygon fill="midnightblue" stroke="midnightblue" points="48.07,-1072.01 43.75,-1062.33 41.09,-1072.59 48.07,-1072.01"/>
</g>
<!-- Node269 -->
<g id="node9" class="node">
<title>Node269</title>
<g id="a_node9"><a xlink:href="structplayrho_1_1d2_1_1HasSetFriction_3_01T_00_01std_1_1void__t_3_01decltype_07SetFriction_07std555382cbd73215420e1b825021ec6f80.html" target="_top" xlink:title=" ">
<polygon fill="white" stroke="black" points="244.5,-1329 244.5,-1392 402.5,-1392 402.5,-1329 244.5,-1329"/>
<text text-anchor="start" x="252.5" y="-1380" font-family="Helvetica,sans-Serif" font-size="10.00">playrho::d2::HasSetFriction</text>
<text text-anchor="start" x="252.5" y="-1369" font-family="Helvetica,sans-Serif" font-size="10.00">&lt; T, std::void_t&lt; decltype</text>
<text text-anchor="start" x="252.5" y="-1358" font-family="Helvetica,sans-Serif" font-size="10.00">(SetFriction(std::declval</text>
<text text-anchor="start" x="252.5" y="-1347" font-family="Helvetica,sans-Serif" font-size="10.00">&lt; T &amp; &gt;(), std::declval&lt; Real</text>
<text text-anchor="middle" x="323.5" y="-1336" font-family="Helvetica,sans-Serif" font-size="10.00"> &gt;()))&gt; &gt;</text>
</a>
</g>
</g>
<!-- Node261&#45;&gt;Node269 -->
<g id="edge8" class="edge">
<title>Node261&#45;&gt;Node269</title>
<path fill="none" stroke="midnightblue" d="M42.29,-1072.06C41.65,-1121.54 47.28,-1252.45 120,-1319.5 153.09,-1350.02 202.41,-1360.47 244.08,-1363.19"/>
<polygon fill="midnightblue" stroke="midnightblue" points="45.79,-1072.13 42.53,-1062.05 38.8,-1071.97 45.79,-1072.13"/>
</g>
<!-- Node270 -->
<g id="node10" class="node">
<title>Node270</title>
<g id="a_node10"><a xlink:href="structplayrho_1_1d2_1_1HasSetRestitution_3_01T_00_01std_1_1void__t_3_01decltype_07SetRestitutionfc572f2ef66e39626c374c5c953fa9bf.html" target="_top" xlink:title=" ">
<polygon fill="white" stroke="black" points="221.5,-1257.5 221.5,-1309.5 425.5,-1309.5 425.5,-1257.5 221.5,-1257.5"/>
<text text-anchor="start" x="229.5" y="-1297.5" font-family="Helvetica,sans-Serif" font-size="10.00">playrho::d2::HasSetRestitution</text>
<text text-anchor="start" x="229.5" y="-1286.5" font-family="Helvetica,sans-Serif" font-size="10.00">&lt; T, std::void_t&lt; decltype</text>
<text text-anchor="start" x="229.5" y="-1275.5" font-family="Helvetica,sans-Serif" font-size="10.00">(SetRestitution(std::declval</text>
<text text-anchor="middle" x="323.5" y="-1264.5" font-family="Helvetica,sans-Serif" font-size="10.00">&lt; T &amp; &gt;(), std::declval&lt; Real &gt;()))&gt; &gt;</text>
</a>
</g>
</g>
<!-- Node261&#45;&gt;Node270 -->
<g id="edge9" class="edge">
<title>Node261&#45;&gt;Node270</title>
<path fill="none" stroke="midnightblue" d="M44.6,-1072.11C48.96,-1111.93 64.74,-1202.32 120,-1247.5 148.2,-1270.55 186.07,-1280.95 221.44,-1285.12"/>
<polygon fill="midnightblue" stroke="midnightblue" points="48.08,-1071.71 43.63,-1062.09 41.11,-1072.38 48.08,-1071.71"/>
</g>
<!-- Node271 -->
<g id="node11" class="node">
<title>Node271</title>
<g id="a_node11"><a xlink:href="structplayrho_1_1d2_1_1HasSetSensor_3_01T_00_01std_1_1void__t_3_01decltype_07SetSensor_07std_1_18d7540763742e64a8ba8180f09c6ab45.html" target="_top" xlink:title=" ">
<polygon fill="white" stroke="black" points="250.5,-1175 250.5,-1238 396.5,-1238 396.5,-1175 250.5,-1175"/>
<text text-anchor="start" x="258.5" y="-1226" font-family="Helvetica,sans-Serif" font-size="10.00">playrho::d2::HasSetSensor</text>
<text text-anchor="start" x="258.5" y="-1215" font-family="Helvetica,sans-Serif" font-size="10.00">&lt; T, std::void_t&lt; decltype</text>
<text text-anchor="start" x="258.5" y="-1204" font-family="Helvetica,sans-Serif" font-size="10.00">(SetSensor(std::declval&lt; T</text>
<text text-anchor="start" x="258.5" y="-1193" font-family="Helvetica,sans-Serif" font-size="10.00"> &amp; &gt;(), std::declval&lt; bool</text>
<text text-anchor="middle" x="323.5" y="-1182" font-family="Helvetica,sans-Serif" font-size="10.00"> &gt;()))&gt; &gt;</text>
</a>
</g>
</g>
<!-- Node261&#45;&gt;Node271 -->
<g id="edge10" class="edge">
<title>Node261&#45;&gt;Node271</title>
<path fill="none" stroke="midnightblue" d="M50.54,-1071.65C61.68,-1097.31 85.06,-1142.3 120,-1165.5 158.4,-1191 209.27,-1201.23 250.42,-1205.1"/>
<polygon fill="midnightblue" stroke="midnightblue" points="53.7,-1070.14 46.63,-1062.25 47.24,-1072.83 53.7,-1070.14"/>
</g>
<!-- Node272 -->
<g id="node12" class="node">
<title>Node272</title>
<g id="a_node12"><a xlink:href="structplayrho_1_1d2_1_1HasTranslate_3_01T_00_01std_1_1void__t_3_01decltype_07Translate_07std_1_11b76c996664100fc410be7473944f659.html" target="_top" xlink:title=" ">
<polygon fill="white" stroke="black" points="244.5,-1093 244.5,-1156 402.5,-1156 402.5,-1093 244.5,-1093"/>
<text text-anchor="start" x="252.5" y="-1144" font-family="Helvetica,sans-Serif" font-size="10.00">playrho::d2::HasTranslate</text>
<text text-anchor="start" x="252.5" y="-1133" font-family="Helvetica,sans-Serif" font-size="10.00">&lt; T, std::void_t&lt; decltype</text>
<text text-anchor="start" x="252.5" y="-1122" font-family="Helvetica,sans-Serif" font-size="10.00">(Translate(std::declval&lt; T</text>
<text text-anchor="start" x="252.5" y="-1111" font-family="Helvetica,sans-Serif" font-size="10.00"> &amp; &gt;(), std::declval&lt; Length2</text>
<text text-anchor="middle" x="323.5" y="-1100" font-family="Helvetica,sans-Serif" font-size="10.00"> &gt;()))&gt; &gt;</text>
</a>
</g>
</g>
<!-- Node261&#45;&gt;Node272 -->
<g id="edge11" class="edge">
<title>Node261&#45;&gt;Node272</title>
<path fill="none" stroke="midnightblue" d="M73.06,-1066.09C87.11,-1072.05 104.19,-1078.76 120,-1083.5 160.37,-1095.6 206.34,-1105.23 244.27,-1112.11"/>
<polygon fill="midnightblue" stroke="midnightblue" points="74.44,-1062.87 63.87,-1062.11 71.66,-1069.3 74.44,-1062.87"/>
</g>
<!-- Node273 -->
<g id="node13" class="node">
<title>Node273</title>
<g id="a_node13"><a xlink:href="structplayrho_1_1d2_1_1IsValidJointType_3_01T_00_01std_1_1void__t_3_01decltype_07GetBodyA_07std_0f41030e104d7c16aa2eb9b451dd539e.html" target="_top" xlink:title="An &quot;is valid joint type&quot; trait.">
<polygon fill="white" stroke="black" points="120,-889.5 120,-1073.5 527,-1073.5 527,-889.5 120,-889.5"/>
<text text-anchor="start" x="128" y="-1061.5" font-family="Helvetica,sans-Serif" font-size="10.00">playrho::d2::IsValidJoint</text>
<text text-anchor="start" x="128" y="-1050.5" font-family="Helvetica,sans-Serif" font-size="10.00">Type&lt; T, std::void_t&lt; decltype</text>
<text text-anchor="start" x="128" y="-1039.5" font-family="Helvetica,sans-Serif" font-size="10.00">(GetBodyA(std::declval&lt; T &gt;</text>
<text text-anchor="start" x="128" y="-1028.5" font-family="Helvetica,sans-Serif" font-size="10.00">())), decltype(GetBodyB(std::</text>
<text text-anchor="start" x="128" y="-1017.5" font-family="Helvetica,sans-Serif" font-size="10.00">declval&lt; T &gt;())), decltype(GetCollideConnected</text>
<text text-anchor="start" x="128" y="-1006.5" font-family="Helvetica,sans-Serif" font-size="10.00">(std::declval&lt; T &gt;())), decltype(ShiftOrigin</text>
<text text-anchor="start" x="128" y="-995.5" font-family="Helvetica,sans-Serif" font-size="10.00">(std::declval&lt; T &amp; &gt;(), std::declval&lt; Length2</text>
<text text-anchor="start" x="128" y="-984.5" font-family="Helvetica,sans-Serif" font-size="10.00"> &gt;())), decltype(InitVelocity(std::declval&lt; T</text>
<text text-anchor="start" x="128" y="-973.5" font-family="Helvetica,sans-Serif" font-size="10.00"> &amp; &gt;(), std::declval&lt; const Span&lt; BodyConstraint</text>
<text text-anchor="start" x="128" y="-962.5" font-family="Helvetica,sans-Serif" font-size="10.00"> &gt; &amp; &gt;(), std::declval&lt; StepConf &gt;(), std::declval</text>
<text text-anchor="start" x="128" y="-951.5" font-family="Helvetica,sans-Serif" font-size="10.00">&lt; ConstraintSolverConf &gt;())), decltype(SolveVelocity</text>
<text text-anchor="start" x="128" y="-940.5" font-family="Helvetica,sans-Serif" font-size="10.00">(std::declval&lt; T &amp; &gt;(), std::declval&lt; const Span&lt; BodyConstraint</text>
<text text-anchor="start" x="128" y="-929.5" font-family="Helvetica,sans-Serif" font-size="10.00"> &gt; &amp; &gt;(), std::declval&lt; StepConf &gt;())), decltype(SolvePosition</text>
<text text-anchor="start" x="128" y="-918.5" font-family="Helvetica,sans-Serif" font-size="10.00">(std::declval&lt; T &gt;(), std::declval&lt; const Span&lt; BodyConstraint</text>
<text text-anchor="start" x="128" y="-907.5" font-family="Helvetica,sans-Serif" font-size="10.00"> &gt; &amp; &gt;(), std::declval&lt; ConstraintSolverConf &gt;())), decltype(std</text>
<text text-anchor="middle" x="323.5" y="-896.5" font-family="Helvetica,sans-Serif" font-size="10.00">::declval&lt; T &gt;()==std::declval&lt; T &gt;()), decltype(Joint{std::declval&lt; T &gt;()})&gt; &gt;</text>
</a>
</g>
</g>
<!-- Node261&#45;&gt;Node273 -->
<g id="edge12" class="edge">
<title>Node261&#45;&gt;Node273</title>
<path fill="none" stroke="midnightblue" d="M90.24,-1040.5C99.32,-1038.19 109.35,-1035.65 119.99,-1032.94"/>
<polygon fill="midnightblue" stroke="midnightblue" points="89.24,-1037.14 80.4,-1043 90.96,-1043.93 89.24,-1037.14"/>
</g>
<!-- Node274 -->
<g id="node14" class="node">
<title>Node274</title>
<g id="a_node14"><a xlink:href="structplayrho_1_1d2_1_1IsValidShapeType_3_01T_00_01std_1_1void__t_3_01decltype_07GetChildCount_0c38db799aefb36c521b9740e4d2a3199.html" target="_top" xlink:title="An &quot;is valid shape type&quot; trait.">
<polygon fill="white" stroke="black" points="134.5,-708.5 134.5,-870.5 512.5,-870.5 512.5,-708.5 134.5,-708.5"/>
<text text-anchor="start" x="142.5" y="-858.5" font-family="Helvetica,sans-Serif" font-size="10.00">playrho::d2::IsValidShape</text>
<text text-anchor="start" x="142.5" y="-847.5" font-family="Helvetica,sans-Serif" font-size="10.00">Type&lt; T, std::void_t&lt; decltype</text>
<text text-anchor="start" x="142.5" y="-836.5" font-family="Helvetica,sans-Serif" font-size="10.00">(GetChildCount(std::declval</text>
<text text-anchor="start" x="142.5" y="-825.5" font-family="Helvetica,sans-Serif" font-size="10.00">&lt; T &gt;())), decltype(GetChild</text>
<text text-anchor="start" x="142.5" y="-814.5" font-family="Helvetica,sans-Serif" font-size="10.00">(std::declval&lt; T &gt;(), std::declval</text>
<text text-anchor="start" x="142.5" y="-803.5" font-family="Helvetica,sans-Serif" font-size="10.00">&lt; ChildCounter &gt;())), decltype(GetMassData</text>
<text text-anchor="start" x="142.5" y="-792.5" font-family="Helvetica,sans-Serif" font-size="10.00">(std::declval&lt; T &gt;())), decltype(GetVertexRadius</text>
<text text-anchor="start" x="142.5" y="-781.5" font-family="Helvetica,sans-Serif" font-size="10.00">(std::declval&lt; T &gt;(), std::declval&lt; ChildCounter</text>
<text text-anchor="start" x="142.5" y="-770.5" font-family="Helvetica,sans-Serif" font-size="10.00"> &gt;())), decltype(GetDensity(std::declval&lt; T &gt;())</text>
<text text-anchor="start" x="142.5" y="-759.5" font-family="Helvetica,sans-Serif" font-size="10.00">), decltype(GetFriction(std::declval&lt; T &gt;())), decltype</text>
<text text-anchor="start" x="142.5" y="-748.5" font-family="Helvetica,sans-Serif" font-size="10.00">(GetRestitution(std::declval&lt; T &gt;())), decltype(std::</text>
<text text-anchor="start" x="142.5" y="-737.5" font-family="Helvetica,sans-Serif" font-size="10.00">declval&lt; T &gt;()==std::declval&lt; T &gt;()), decltype(std::declval</text>
<text text-anchor="start" x="142.5" y="-726.5" font-family="Helvetica,sans-Serif" font-size="10.00">&lt; DecayedTypeIfNotSame&lt; T, Shape &gt;&gt;()), decltype(std::is_constructible</text>
<text text-anchor="middle" x="323.5" y="-715.5" font-family="Helvetica,sans-Serif" font-size="10.00">_v&lt; DecayedTypeIfNotSame&lt; T, Shape &gt;, T &gt;)&gt; &gt;</text>
</a>
</g>
</g>
<!-- Node261&#45;&gt;Node274 -->
<g id="edge13" class="edge">
<title>Node261&#45;&gt;Node274</title>
<path fill="none" stroke="midnightblue" d="M46.91,-1033.09C54.85,-998.23 75.98,-924.58 120,-880.5 124.49,-876 129.25,-871.7 134.21,-867.6"/>
<polygon fill="midnightblue" stroke="midnightblue" points="43.47,-1032.44 44.78,-1042.95 50.31,-1033.91 43.47,-1032.44"/>
</g>
<!-- Node275 -->
<g id="node15" class="node">
<title>Node275</title>
<g id="a_node15"><a xlink:href="structplayrho_1_1detail_1_1IsAddable_3_01T1_00_01T2_00_01std_1_1void__t_3_01decltype_07T1_02_03_09T2_02_03_08_4_01_4.html" target="_top" xlink:title="Template specializing for addable types.">
<polygon fill="white" stroke="black" points="239.5,-648 239.5,-689 407.5,-689 407.5,-648 239.5,-648"/>
<text text-anchor="start" x="247.5" y="-677" font-family="Helvetica,sans-Serif" font-size="10.00">playrho::detail::IsAddable</text>
<text text-anchor="start" x="247.5" y="-666" font-family="Helvetica,sans-Serif" font-size="10.00">&lt; T1, T2, std::void_t&lt; decltype</text>
<text text-anchor="middle" x="323.5" y="-655" font-family="Helvetica,sans-Serif" font-size="10.00">(T1{}+T2{})&gt; &gt;</text>
</a>
</g>
</g>
<!-- Node261&#45;&gt;Node275 -->
<g id="edge14" class="edge">
<title>Node261&#45;&gt;Node275</title>
<path fill="none" stroke="midnightblue" d="M44.43,-1032.74C49.75,-965.31 70.62,-745.87 120,-699.5 151.44,-669.98 198.52,-661.47 239.38,-660.69"/>
<polygon fill="midnightblue" stroke="midnightblue" points="40.93,-1032.62 43.67,-1042.85 47.91,-1033.15 40.93,-1032.62"/>
</g>
<!-- Node276 -->
<g id="node16" class="node">
<title>Node276</title>
<g id="a_node16"><a xlink:href="structplayrho_1_1detail_1_1IsArithmetic_3_01T_00_01std_1_1void__t_3_01decltype_07T_02_03_09T_02_1d1a3b924c473a70e90f3ccf5def5509.html" target="_top" xlink:title="Template specialization for valid/acceptable &quot;arithmetic&quot; types.">
<polygon fill="white" stroke="black" points="233.5,-566 233.5,-629 413.5,-629 413.5,-566 233.5,-566"/>
<text text-anchor="start" x="241.5" y="-617" font-family="Helvetica,sans-Serif" font-size="10.00">playrho::detail::IsArithmetic</text>
<text text-anchor="start" x="241.5" y="-606" font-family="Helvetica,sans-Serif" font-size="10.00">&lt; T, std::void_t&lt; decltype</text>
<text text-anchor="start" x="241.5" y="-595" font-family="Helvetica,sans-Serif" font-size="10.00">(T{}+T{}), decltype(T{} &#45; T</text>
<text text-anchor="start" x="241.5" y="-584" font-family="Helvetica,sans-Serif" font-size="10.00">{}), decltype(T{} *T{}), decltype</text>
<text text-anchor="middle" x="323.5" y="-573" font-family="Helvetica,sans-Serif" font-size="10.00">(T{}/T{})&gt; &gt;</text>
</a>
</g>
</g>
<!-- Node261&#45;&gt;Node276 -->
<g id="edge15" class="edge">
<title>Node261&#45;&gt;Node276</title>
<path fill="none" stroke="midnightblue" d="M43.85,-1032.42C47.45,-957.48 63.9,-695.5 120,-638.5 149.25,-608.78 193.69,-597.6 233.5,-594.25"/>
<polygon fill="midnightblue" stroke="midnightblue" points="40.34,-1032.63 43.38,-1042.78 47.33,-1032.95 40.34,-1032.63"/>
</g>
<!-- Node277 -->
<g id="node17" class="node">
<title>Node277</title>
<g id="a_node17"><a xlink:href="structplayrho_1_1detail_1_1IsDivisable_3_01T1_00_01T2_00_01std_1_1void__t_3_01decltype_07T1_02_03_2T2_02_03_08_4_01_4.html" target="_top" xlink:title="Template specializing for divisable types.">
<polygon fill="white" stroke="black" points="239.5,-506 239.5,-547 407.5,-547 407.5,-506 239.5,-506"/>
<text text-anchor="start" x="247.5" y="-535" font-family="Helvetica,sans-Serif" font-size="10.00">playrho::detail::IsDivisable</text>
<text text-anchor="start" x="247.5" y="-524" font-family="Helvetica,sans-Serif" font-size="10.00">&lt; T1, T2, std::void_t&lt; decltype</text>
<text text-anchor="middle" x="323.5" y="-513" font-family="Helvetica,sans-Serif" font-size="10.00">(T1{}/T2{})&gt; &gt;</text>
</a>
</g>
</g>
<!-- Node261&#45;&gt;Node277 -->
<g id="edge16" class="edge">
<title>Node261&#45;&gt;Node277</title>
<path fill="none" stroke="midnightblue" d="M43.08,-1032.79C43.83,-949.16 51.2,-624.82 120,-556.5 150.77,-525.95 198.2,-517.7 239.42,-517.44"/>
<polygon fill="midnightblue" stroke="midnightblue" points="39.58,-1032.92 43.01,-1042.94 46.58,-1032.96 39.58,-1032.92"/>
</g>
<!-- Node278 -->
<g id="node18" class="node">
<title>Node278</title>
<g id="a_node18"><a xlink:href="structplayrho_1_1detail_1_1IsEqualityComparable_3_01T1_00_01T2_00_01std_1_1void__t_3_01decltype_397e13302495d65cbf0119afdf1f7e4d.html" target="_top" xlink:title="Template specialization for equality comparable types.">
<polygon fill="white" stroke="black" points="252.5,-434.5 252.5,-486.5 394.5,-486.5 394.5,-434.5 252.5,-434.5"/>
<text text-anchor="start" x="260.5" y="-474.5" font-family="Helvetica,sans-Serif" font-size="10.00">playrho::detail::IsEquality</text>
<text text-anchor="start" x="260.5" y="-463.5" font-family="Helvetica,sans-Serif" font-size="10.00">Comparable&lt; T1, T2, std</text>
<text text-anchor="start" x="260.5" y="-452.5" font-family="Helvetica,sans-Serif" font-size="10.00">::void_t&lt; decltype(T1{}=</text>
<text text-anchor="middle" x="323.5" y="-441.5" font-family="Helvetica,sans-Serif" font-size="10.00">=T2{})&gt; &gt;</text>
</a>
</g>
</g>
<!-- Node261&#45;&gt;Node278 -->
<g id="edge17" class="edge">
<title>Node261&#45;&gt;Node278</title>
<path fill="none" stroke="midnightblue" d="M42.76,-1032.51C42.12,-942.42 44.26,-575.2 120,-496.5 153.55,-461.64 208.32,-453.6 252.44,-453.75"/>
<polygon fill="midnightblue" stroke="midnightblue" points="39.26,-1032.74 42.86,-1042.71 46.26,-1032.68 39.26,-1032.74"/>
</g>
<!-- Node279 -->
<g id="node19" class="node">
<title>Node279</title>
<g id="a_node19"><a xlink:href="structplayrho_1_1detail_1_1IsInequalityComparable_3_01T1_00_01T2_00_01std_1_1void__t_3_01decltypff02ba6c3b90e96f5ba3c1dc4ad6096a.html" target="_top" xlink:title="Template specialization for inequality comparable types.">
<polygon fill="white" stroke="black" points="228.5,-374 228.5,-415 418.5,-415 418.5,-374 228.5,-374"/>
<text text-anchor="start" x="236.5" y="-403" font-family="Helvetica,sans-Serif" font-size="10.00">playrho::detail::IsInequality</text>
<text text-anchor="start" x="236.5" y="-392" font-family="Helvetica,sans-Serif" font-size="10.00">Comparable&lt; T1, T2, std::</text>
<text text-anchor="middle" x="323.5" y="-381" font-family="Helvetica,sans-Serif" font-size="10.00">void_t&lt; decltype(T1{} !=T2{})&gt; &gt;</text>
</a>
</g>
</g>
<!-- Node261&#45;&gt;Node279 -->
<g id="edge18" class="edge">
<title>Node261&#45;&gt;Node279</title>
<path fill="none" stroke="midnightblue" d="M44.02,-1032.88C49.46,-931.54 76.51,-470.3 120,-425.5 147.68,-396.98 189.78,-387.45 228.44,-385.77"/>
<polygon fill="midnightblue" stroke="midnightblue" points="40.52,-1032.78 43.49,-1042.95 47.51,-1033.15 40.52,-1032.78"/>
</g>
<!-- Node280 -->
<g id="node20" class="node">
<title>Node280</title>
<g id="a_node20"><a xlink:href="structplayrho_1_1detail_1_1IsIterable_3_01T_00_01std_1_1void__t_3_01decltype_07begin_07std_1_1deb94b1a3aa8659edf5ae9c473de3326c0.html" target="_top" xlink:title="Low&#45;level implementation of the is&#45;iterable true value trait.">
<polygon fill="white" stroke="black" points="230.5,-258.5 230.5,-354.5 416.5,-354.5 416.5,-258.5 230.5,-258.5"/>
<text text-anchor="start" x="238.5" y="-342.5" font-family="Helvetica,sans-Serif" font-size="10.00">playrho::detail::IsIterable</text>
<text text-anchor="start" x="238.5" y="-331.5" font-family="Helvetica,sans-Serif" font-size="10.00">&lt; T, std::void_t&lt; decltype</text>
<text text-anchor="start" x="238.5" y="-320.5" font-family="Helvetica,sans-Serif" font-size="10.00">(begin(std::declval&lt; T &gt;()</text>
<text text-anchor="start" x="238.5" y="-309.5" font-family="Helvetica,sans-Serif" font-size="10.00">)), decltype(end(std::declval</text>
<text text-anchor="start" x="238.5" y="-298.5" font-family="Helvetica,sans-Serif" font-size="10.00">&lt; T &gt;())), decltype(++std::declval</text>
<text text-anchor="start" x="238.5" y="-287.5" font-family="Helvetica,sans-Serif" font-size="10.00">&lt; decltype(begin(std::declval&lt; T</text>
<text text-anchor="start" x="238.5" y="-276.5" font-family="Helvetica,sans-Serif" font-size="10.00"> &amp; &gt;()))&amp; &gt;()), decltype(*begin(std</text>
<text text-anchor="middle" x="323.5" y="-265.5" font-family="Helvetica,sans-Serif" font-size="10.00">::declval&lt; T &gt;()))&gt; &gt;</text>
</a>
</g>
</g>
<!-- Node261&#45;&gt;Node280 -->
<g id="edge19" class="edge">
<title>Node261&#45;&gt;Node280</title>
<path fill="none" stroke="midnightblue" d="M43.91,-1032.78C49.04,-925.71 75.6,-417.03 120,-364.5 147.09,-332.45 190.58,-317.48 230.32,-310.71"/>
<polygon fill="midnightblue" stroke="midnightblue" points="40.41,-1032.69 43.44,-1042.84 47.41,-1033.02 40.41,-1032.69"/>
</g>
<!-- Node281 -->
<g id="node21" class="node">
<title>Node281</title>
<g id="a_node21"><a xlink:href="structplayrho_1_1detail_1_1IsMultipliable_3_01T1_00_01T2_00_01std_1_1void__t_3_01decltype_07T1_02_03_01_5T2_02_03_08_4_01_4.html" target="_top" xlink:title="Template specializing for multipliable types.">
<polygon fill="white" stroke="black" points="239.5,-198 239.5,-239 407.5,-239 407.5,-198 239.5,-198"/>
<text text-anchor="start" x="247.5" y="-227" font-family="Helvetica,sans-Serif" font-size="10.00">playrho::detail::IsMultipliable</text>
<text text-anchor="start" x="247.5" y="-216" font-family="Helvetica,sans-Serif" font-size="10.00">&lt; T1, T2, std::void_t&lt; decltype</text>
<text text-anchor="middle" x="323.5" y="-205" font-family="Helvetica,sans-Serif" font-size="10.00">(T1{} *T2{})&gt; &gt;</text>
</a>
</g>
</g>
<!-- Node261&#45;&gt;Node281 -->
<g id="edge20" class="edge">
<title>Node261&#45;&gt;Node281</title>
<path fill="none" stroke="midnightblue" d="M43.47,-1032.79C46.45,-915.1 64.43,-308.29 120,-249.5 149.99,-217.77 197.78,-209.34 239.4,-209.17"/>
<polygon fill="midnightblue" stroke="midnightblue" points="39.97,-1032.8 43.22,-1042.88 46.96,-1032.97 39.97,-1032.8"/>
</g>
<!-- Node282 -->
<g id="node22" class="node">
<title>Node282</title>
<g id="a_node22"><a xlink:href="structplayrho_1_1detail_1_1IsReverseIterable_3_01T_00_01std_1_1void__t_3_01decltype_07rbegin_07see1e2b2bf8c70ff6417e9800f5336264.html" target="_top" xlink:title="Low&#45;level implementation of the is&#45;reverse&#45;iterable true value trait.">
<polygon fill="white" stroke="black" points="228,-72 228,-179 419,-179 419,-72 228,-72"/>
<text text-anchor="start" x="236" y="-167" font-family="Helvetica,sans-Serif" font-size="10.00">playrho::detail::IsReverse</text>
<text text-anchor="start" x="236" y="-156" font-family="Helvetica,sans-Serif" font-size="10.00">Iterable&lt; T, std::void</text>
<text text-anchor="start" x="236" y="-145" font-family="Helvetica,sans-Serif" font-size="10.00">_t&lt; decltype(rbegin(std</text>
<text text-anchor="start" x="236" y="-134" font-family="Helvetica,sans-Serif" font-size="10.00">::declval&lt; T &gt;())), decltype</text>
<text text-anchor="start" x="236" y="-123" font-family="Helvetica,sans-Serif" font-size="10.00">(rend(std::declval&lt; T &gt;())),</text>
<text text-anchor="start" x="236" y="-112" font-family="Helvetica,sans-Serif" font-size="10.00"> decltype(++std::declval&lt; decltype</text>
<text text-anchor="start" x="236" y="-101" font-family="Helvetica,sans-Serif" font-size="10.00">(rbegin(std::declval&lt; T &amp; &gt;()))&amp;</text>
<text text-anchor="start" x="236" y="-90" font-family="Helvetica,sans-Serif" font-size="10.00"> &gt;()), decltype(*rbegin(std::declval</text>
<text text-anchor="middle" x="323.5" y="-79" font-family="Helvetica,sans-Serif" font-size="10.00">&lt; T &gt;()))&gt; &gt;</text>
</a>
</g>
</g>
<!-- Node261&#45;&gt;Node282 -->
<g id="edge21" class="edge">
<title>Node261&#45;&gt;Node282</title>
<path fill="none" stroke="midnightblue" d="M43.47,-1032.58C46.51,-909.56 65.2,-256.4 120,-188.5 146.13,-156.12 188.65,-140.06 227.99,-132.21"/>
<polygon fill="midnightblue" stroke="midnightblue" points="39.96,-1032.71 43.22,-1042.79 46.96,-1032.88 39.96,-1032.71"/>
</g>
<!-- Node283 -->
<g id="node23" class="node">
<title>Node283</title>
<g id="a_node23"><a xlink:href="structplayrho_1_1detail_1_1has__underlying__type__member_3_01T_00_01std_1_1void__t_3_01typename_ad40ad34e92198c9932f3ccb254047e0.html" target="_top" xlink:title=" ">
<polygon fill="white" stroke="black" points="247.5,-0.5 247.5,-52.5 399.5,-52.5 399.5,-0.5 247.5,-0.5"/>
<text text-anchor="start" x="255.5" y="-40.5" font-family="Helvetica,sans-Serif" font-size="10.00">playrho::detail::has</text>
<text text-anchor="start" x="255.5" y="-29.5" font-family="Helvetica,sans-Serif" font-size="10.00">_underlying_type_member</text>
<text text-anchor="start" x="255.5" y="-18.5" font-family="Helvetica,sans-Serif" font-size="10.00">&lt; T, std::void_t&lt; typename</text>
<text text-anchor="middle" x="323.5" y="-7.5" font-family="Helvetica,sans-Serif" font-size="10.00"> T::underlying_type &gt; &gt;</text>
</a>
</g>
</g>
<!-- Node261&#45;&gt;Node283 -->
<g id="edge22" class="edge">
<title>Node261&#45;&gt;Node283</title>
<path fill="none" stroke="midnightblue" d="M43.11,-1032.55C44.06,-898.93 52.44,-137.06 120,-62.5 151.41,-27.84 203.7,-19.22 247.28,-19.08"/>
<polygon fill="midnightblue" stroke="midnightblue" points="39.61,-1032.87 43.05,-1042.9 46.61,-1032.92 39.61,-1032.87"/>
</g>
</g>
</svg>
