<?xml version="1.0" encoding="UTF-8" standalone="no"?>
<!DOCTYPE svg PUBLIC "-//W3C//DTD SVG 1.1//EN"
 "http://www.w3.org/Graphics/SVG/1.1/DTD/svg11.dtd">
<!-- Generated by graphviz version 2.43.0 (0)
 -->
<!-- Title: Graphical Class Hierarchy Pages: 1 -->
<svg width="501pt" height="28pt"
 viewBox="0.00 0.00 501.00 28.00" xmlns="http://www.w3.org/2000/svg" xmlns:xlink="http://www.w3.org/1999/xlink">
<g id="graph0" class="graph" transform="scale(1 1) rotate(0) translate(4 24)">
<title>Graphical Class Hierarchy</title>
<polygon fill="white" stroke="transparent" points="-4,4 -4,-24 497,-24 497,4 -4,4"/>
<!-- Node121 -->
<g id="node1" class="node">
<title>Node121</title>
<g id="a_node1"><a xlink:title=" ">
<polygon fill="white" stroke="#bfbfbf" points="0,-0.5 0,-19.5 123,-19.5 123,-0.5 0,-0.5"/>
<text text-anchor="middle" x="61.5" y="-7.5" font-family="Helvetica,sans-Serif" font-size="10.00">std::invalid_argument</text>
</a>
</g>
</g>
<!-- Node0 -->
<g id="node2" class="node">
<title>Node0</title>
<g id="a_node2"><a xlink:href="classplayrho_1_1InvalidArgument.html" target="_top" xlink:title="Invalid argument logic error.">
<polygon fill="white" stroke="black" points="159,-0.5 159,-19.5 299,-19.5 299,-0.5 159,-0.5"/>
<text text-anchor="middle" x="229" y="-7.5" font-family="Helvetica,sans-Serif" font-size="10.00">playrho::InvalidArgument</text>
</a>
</g>
</g>
<!-- Node121&#45;&gt;Node0 -->
<g id="edge1" class="edge">
<title>Node121&#45;&gt;Node0</title>
<path fill="none" stroke="midnightblue" d="M133.4,-10C141.86,-10 150.49,-10 158.93,-10"/>
<polygon fill="midnightblue" stroke="midnightblue" points="133.19,-6.5 123.19,-10 133.19,-13.5 133.19,-6.5"/>
</g>
<!-- Node1 -->
<g id="node3" class="node">
<title>Node1</title>
<g id="a_node3"><a xlink:href="structplayrho_1_1WasDestroyed.html" target="_top" xlink:title="Was destroyed invalid argument logic error.">
<polygon fill="white" stroke="black" points="335,-0.5 335,-19.5 493,-19.5 493,-0.5 335,-0.5"/>
<text text-anchor="middle" x="414" y="-7.5" font-family="Helvetica,sans-Serif" font-size="10.00">playrho::WasDestroyed&lt; T &gt;</text>
</a>
</g>
</g>
<!-- Node0&#45;&gt;Node1 -->
<g id="edge2" class="edge">
<title>Node0&#45;&gt;Node1</title>
<path fill="none" stroke="midnightblue" d="M309.39,-10C317.82,-10 326.4,-10 334.83,-10"/>
<polygon fill="midnightblue" stroke="midnightblue" points="309.18,-6.5 299.18,-10 309.18,-13.5 309.18,-6.5"/>
</g>
</g>
</svg>
