<?xml version="1.0" encoding="UTF-8" standalone="no"?>
<!DOCTYPE svg PUBLIC "-//W3C//DTD SVG 1.1//EN"
 "http://www.w3.org/Graphics/SVG/1.1/DTD/svg11.dtd">
<!-- Generated by graphviz version 2.43.0 (0)
 -->
<!-- Title: Graphical Class Hierarchy Pages: 1 -->
<svg width="280pt" height="50pt"
 viewBox="0.00 0.00 280.00 50.00" xmlns="http://www.w3.org/2000/svg" xmlns:xlink="http://www.w3.org/1999/xlink">
<g id="graph0" class="graph" transform="scale(1 1) rotate(0) translate(4 46)">
<title>Graphical Class Hierarchy</title>
<polygon fill="white" stroke="transparent" points="-4,4 -4,-46 276,-46 276,4 -4,4"/>
<!-- Node114 -->
<g id="node1" class="node">
<title>Node114</title>
<g id="a_node1"><a xlink:title=" ">
<polygon fill="white" stroke="#bfbfbf" points="0,-11.5 0,-30.5 101,-30.5 101,-11.5 0,-11.5"/>
<text text-anchor="middle" x="50.5" y="-18.5" font-family="Helvetica,sans-Serif" font-size="10.00">integral_constant</text>
</a>
</g>
</g>
<!-- Node0 -->
<g id="node2" class="node">
<title>Node0</title>
<g id="a_node2"><a xlink:href="classstd_1_1tuple__size_3_01playrho_1_1ArrayList_3_01T_00_01N_00_01SIZE__TYPE_01_4_01_4.html" target="_top" xlink:title="Tuple size specialization for ArrayList classes.">
<polygon fill="white" stroke="black" points="137,-0.5 137,-41.5 272,-41.5 272,-0.5 137,-0.5"/>
<text text-anchor="start" x="145" y="-29.5" font-family="Helvetica,sans-Serif" font-size="10.00">std::tuple_size&lt; playrho</text>
<text text-anchor="start" x="145" y="-18.5" font-family="Helvetica,sans-Serif" font-size="10.00">::ArrayList&lt; T, N, SIZE</text>
<text text-anchor="middle" x="204.5" y="-7.5" font-family="Helvetica,sans-Serif" font-size="10.00">_TYPE &gt; &gt;</text>
</a>
</g>
</g>
<!-- Node114&#45;&gt;Node0 -->
<g id="edge1" class="edge">
<title>Node114&#45;&gt;Node0</title>
<path fill="none" stroke="midnightblue" d="M111.3,-21C119.66,-21 128.29,-21 136.76,-21"/>
<polygon fill="midnightblue" stroke="midnightblue" points="111.27,-17.5 101.27,-21 111.27,-24.5 111.27,-17.5"/>
</g>
</g>
</svg>
