<?xml version="1.0" encoding="UTF-8" standalone="no"?>
<!DOCTYPE svg PUBLIC "-//W3C//DTD SVG 1.1//EN"
 "http://www.w3.org/Graphics/SVG/1.1/DTD/svg11.dtd">
<!-- Generated by graphviz version 2.43.0 (0)
 -->
<!-- Title: Library/include/playrho/Interval.hpp Pages: 1 -->
<svg width="474pt" height="374pt"
 viewBox="0.00 0.00 474.00 374.00" xmlns="http://www.w3.org/2000/svg" xmlns:xlink="http://www.w3.org/1999/xlink">
<g id="graph0" class="graph" transform="scale(1 1) rotate(0) translate(4 370)">
<title>Library/include/playrho/Interval.hpp</title>
<polygon fill="white" stroke="transparent" points="-4,4 -4,-370 470,-370 470,4 -4,4"/>
<!-- Node1 -->
<g id="node1" class="node">
<title>Node1</title>
<g id="a_node1"><a xlink:title="Definition of the Interval class template and closely related code.">
<polygon fill="#bfbfbf" stroke="black" points="103,-335.5 103,-365.5 231,-365.5 231,-335.5 103,-335.5"/>
<text text-anchor="start" x="111" y="-353.5" font-family="Helvetica,sans-Serif" font-size="10.00">Library/include/playrho</text>
<text text-anchor="middle" x="167" y="-342.5" font-family="Helvetica,sans-Serif" font-size="10.00">/Interval.hpp</text>
</a>
</g>
</g>
<!-- Node2 -->
<g id="node2" class="node">
<title>Node2</title>
<g id="a_node2"><a xlink:href="WorldConf_8hpp.html" target="_top" xlink:title="Declarations of the WorldConf class.">
<polygon fill="white" stroke="black" points="57,-134.5 57,-164.5 185,-164.5 185,-134.5 57,-134.5"/>
<text text-anchor="start" x="65" y="-152.5" font-family="Helvetica,sans-Serif" font-size="10.00">Library/include/playrho</text>
<text text-anchor="middle" x="121" y="-141.5" font-family="Helvetica,sans-Serif" font-size="10.00">/d2/WorldConf.hpp</text>
</a>
</g>
</g>
<!-- Node1&#45;&gt;Node2 -->
<g id="edge1" class="edge">
<title>Node1&#45;&gt;Node2</title>
<path fill="none" stroke="midnightblue" d="M152.34,-326.35C147.69,-318.02 142.99,-308.36 140,-299 124.82,-251.46 121.72,-191.7 121.12,-164.79"/>
<polygon fill="midnightblue" stroke="midnightblue" points="149.4,-328.25 157.48,-335.1 155.44,-324.71 149.4,-328.25"/>
</g>
<!-- Node6 -->
<g id="node6" class="node">
<title>Node6</title>
<g id="a_node6"><a xlink:href="Intervals_8hpp.html" target="_top" xlink:title="Alias for an Interval of Length .">
<polygon fill="white" stroke="black" points="149,-268.5 149,-298.5 277,-298.5 277,-268.5 149,-268.5"/>
<text text-anchor="start" x="157" y="-286.5" font-family="Helvetica,sans-Serif" font-size="10.00">Library/include/playrho</text>
<text text-anchor="middle" x="213" y="-275.5" font-family="Helvetica,sans-Serif" font-size="10.00">/Intervals.hpp</text>
</a>
</g>
</g>
<!-- Node1&#45;&gt;Node6 -->
<g id="edge5" class="edge">
<title>Node1&#45;&gt;Node6</title>
<path fill="none" stroke="midnightblue" d="M182.81,-327.16C189.52,-317.68 197.13,-306.92 203.04,-298.58"/>
<polygon fill="midnightblue" stroke="midnightblue" points="179.9,-325.21 176.98,-335.4 185.62,-329.26 179.9,-325.21"/>
</g>
<!-- Node3 -->
<g id="node3" class="node">
<title>Node3</title>
<g id="a_node3"><a xlink:href="World_8hpp.html" target="_top" xlink:title="Definitions of the World class and closely related code.">
<polygon fill="white" stroke="black" points="0,-67.5 0,-97.5 128,-97.5 128,-67.5 0,-67.5"/>
<text text-anchor="start" x="8" y="-85.5" font-family="Helvetica,sans-Serif" font-size="10.00">Library/include/playrho</text>
<text text-anchor="middle" x="64" y="-74.5" font-family="Helvetica,sans-Serif" font-size="10.00">/d2/World.hpp</text>
</a>
</g>
</g>
<!-- Node2&#45;&gt;Node3 -->
<g id="edge2" class="edge">
<title>Node2&#45;&gt;Node3</title>
<path fill="none" stroke="midnightblue" d="M101.91,-126.74C93.48,-117.12 83.81,-106.09 76.34,-97.58"/>
<polygon fill="midnightblue" stroke="midnightblue" points="99.41,-129.18 108.63,-134.4 104.67,-124.57 99.41,-129.18"/>
</g>
<!-- Node5 -->
<g id="node5" class="node">
<title>Node5</title>
<g id="a_node5"><a xlink:href="WorldImpl_8hpp.html" target="_top" xlink:title="Declarations of the WorldImpl class.">
<polygon fill="white" stroke="black" points="289,-0.5 289,-30.5 417,-30.5 417,-0.5 289,-0.5"/>
<text text-anchor="start" x="297" y="-18.5" font-family="Helvetica,sans-Serif" font-size="10.00">Library/include/playrho</text>
<text text-anchor="middle" x="353" y="-7.5" font-family="Helvetica,sans-Serif" font-size="10.00">/d2/WorldImpl.hpp</text>
</a>
</g>
</g>
<!-- Node2&#45;&gt;Node5 -->
<g id="edge4" class="edge">
<title>Node2&#45;&gt;Node5</title>
<path fill="none" stroke="midnightblue" d="M130.83,-125.26C139.77,-106.86 154.67,-81.85 175,-67 208.2,-42.74 252.7,-30.12 288.9,-23.56"/>
<polygon fill="midnightblue" stroke="midnightblue" points="127.61,-123.9 126.59,-134.45 133.96,-126.83 127.61,-123.9"/>
</g>
<!-- Node4 -->
<g id="node4" class="node">
<title>Node4</title>
<g id="a_node4"><a xlink:href="BasicAPI_8hpp.html" target="_top" xlink:title="Basic API include file to pull in at once most headers used.">
<polygon fill="white" stroke="black" points="94,-0.5 94,-30.5 222,-30.5 222,-0.5 94,-0.5"/>
<text text-anchor="start" x="102" y="-18.5" font-family="Helvetica,sans-Serif" font-size="10.00">Library/include/playrho</text>
<text text-anchor="middle" x="158" y="-7.5" font-family="Helvetica,sans-Serif" font-size="10.00">/d2/BasicAPI.hpp</text>
</a>
</g>
</g>
<!-- Node3&#45;&gt;Node4 -->
<g id="edge3" class="edge">
<title>Node3&#45;&gt;Node4</title>
<path fill="none" stroke="midnightblue" d="M92.99,-61.45C107.45,-51.45 124.59,-39.6 137.64,-30.58"/>
<polygon fill="midnightblue" stroke="midnightblue" points="90.63,-58.83 84.4,-67.4 94.61,-64.59 90.63,-58.83"/>
</g>
<!-- Node7 -->
<g id="node7" class="node">
<title>Node7</title>
<g id="a_node7"><a xlink:href="d2_2AABB_8hpp.html" target="_top" xlink:title="Declaration of the AABB class and free functions that return instances of it.">
<polygon fill="white" stroke="black" points="222,-134.5 222,-164.5 350,-164.5 350,-134.5 222,-134.5"/>
<text text-anchor="start" x="230" y="-152.5" font-family="Helvetica,sans-Serif" font-size="10.00">Library/include/playrho</text>
<text text-anchor="middle" x="286" y="-141.5" font-family="Helvetica,sans-Serif" font-size="10.00">/d2/AABB.hpp</text>
</a>
</g>
</g>
<!-- Node6&#45;&gt;Node7 -->
<g id="edge6" class="edge">
<title>Node6&#45;&gt;Node7</title>
<path fill="none" stroke="midnightblue" d="M210.91,-258C210.56,-240.99 212.37,-218.36 222,-201 230.51,-185.65 245.79,-173.32 259.29,-164.69"/>
<polygon fill="midnightblue" stroke="midnightblue" points="207.43,-258.43 211.39,-268.25 214.42,-258.1 207.43,-258.43"/>
</g>
<!-- Node10 -->
<g id="node10" class="node">
<title>Node10</title>
<g id="a_node10"><a xlink:href="detail_2AABB_8hpp.html" target="_top" xlink:title="Declaration of the AABB class and free functions that return instances of it.">
<polygon fill="white" stroke="black" points="231,-201.5 231,-231.5 359,-231.5 359,-201.5 231,-201.5"/>
<text text-anchor="start" x="239" y="-219.5" font-family="Helvetica,sans-Serif" font-size="10.00">Library/include/playrho</text>
<text text-anchor="middle" x="295" y="-208.5" font-family="Helvetica,sans-Serif" font-size="10.00">/detail/AABB.hpp</text>
</a>
</g>
</g>
<!-- Node6&#45;&gt;Node10 -->
<g id="edge11" class="edge">
<title>Node6&#45;&gt;Node10</title>
<path fill="none" stroke="midnightblue" d="M238.65,-262.17C251.19,-252.23 265.97,-240.51 277.24,-231.58"/>
<polygon fill="midnightblue" stroke="midnightblue" points="236.46,-259.44 230.79,-268.4 240.8,-264.93 236.46,-259.44"/>
</g>
<!-- Node8 -->
<g id="node8" class="node">
<title>Node8</title>
<g id="a_node8"><a xlink:href="ChainShapeConf_8hpp.html" target="_top" xlink:title="Definition of the ChainShapeConf class and closely related code.">
<polygon fill="white" stroke="black" points="184.5,-67.5 184.5,-97.5 319.5,-97.5 319.5,-67.5 184.5,-67.5"/>
<text text-anchor="start" x="192.5" y="-85.5" font-family="Helvetica,sans-Serif" font-size="10.00">Library/include/playrho</text>
<text text-anchor="middle" x="252" y="-74.5" font-family="Helvetica,sans-Serif" font-size="10.00">/d2/ChainShapeConf.hpp</text>
</a>
</g>
</g>
<!-- Node7&#45;&gt;Node8 -->
<g id="edge7" class="edge">
<title>Node7&#45;&gt;Node8</title>
<path fill="none" stroke="midnightblue" d="M273.86,-125.28C269.01,-116.02 263.59,-105.66 259.36,-97.58"/>
<polygon fill="midnightblue" stroke="midnightblue" points="270.89,-127.16 278.62,-134.4 277.09,-123.91 270.89,-127.16"/>
</g>
<!-- Node9 -->
<g id="node9" class="node">
<title>Node9</title>
<g id="a_node9"><a xlink:href="DynamicTree_8hpp.html" target="_top" xlink:title="Declaration of the DynamicTree class.">
<polygon fill="white" stroke="black" points="338,-67.5 338,-97.5 466,-97.5 466,-67.5 338,-67.5"/>
<text text-anchor="start" x="346" y="-85.5" font-family="Helvetica,sans-Serif" font-size="10.00">Library/include/playrho</text>
<text text-anchor="middle" x="402" y="-74.5" font-family="Helvetica,sans-Serif" font-size="10.00">/d2/DynamicTree.hpp</text>
</a>
</g>
</g>
<!-- Node7&#45;&gt;Node9 -->
<g id="edge9" class="edge">
<title>Node7&#45;&gt;Node9</title>
<path fill="none" stroke="midnightblue" d="M320.27,-129.3C338.42,-119.12 360.32,-106.85 376.88,-97.58"/>
<polygon fill="midnightblue" stroke="midnightblue" points="318.18,-126.45 311.17,-134.4 321.6,-132.56 318.18,-126.45"/>
</g>
<!-- Node8&#45;&gt;Node4 -->
<g id="edge8" class="edge">
<title>Node8&#45;&gt;Node4</title>
<path fill="none" stroke="midnightblue" d="M223.01,-61.45C208.55,-51.45 191.41,-39.6 178.36,-30.58"/>
<polygon fill="midnightblue" stroke="midnightblue" points="221.39,-64.59 231.6,-67.4 225.37,-58.83 221.39,-64.59"/>
</g>
<!-- Node9&#45;&gt;Node5 -->
<g id="edge10" class="edge">
<title>Node9&#45;&gt;Node5</title>
<path fill="none" stroke="midnightblue" d="M385.16,-59.16C378.01,-49.68 369.9,-38.92 363.61,-30.58"/>
<polygon fill="midnightblue" stroke="midnightblue" points="382.55,-61.52 391.37,-67.4 388.14,-57.3 382.55,-61.52"/>
</g>
<!-- Node10&#45;&gt;Node7 -->
<g id="edge12" class="edge">
<title>Node10&#45;&gt;Node7</title>
<path fill="none" stroke="midnightblue" d="M291.66,-191.4C290.41,-182.37 289.03,-172.41 287.95,-164.58"/>
<polygon fill="midnightblue" stroke="midnightblue" points="288.21,-191.97 293.05,-201.4 295.14,-191.01 288.21,-191.97"/>
</g>
</g>
</svg>
