<?xml version="1.0" encoding="UTF-8" standalone="no"?>
<!DOCTYPE svg PUBLIC "-//W3C//DTD SVG 1.1//EN"
 "http://www.w3.org/Graphics/SVG/1.1/DTD/svg11.dtd">
<!-- Generated by graphviz version 2.43.0 (0)
 -->
<!-- Title: Library/include/playrho/Interval.hpp Pages: 1 -->
<svg width="455pt" height="374pt"
 viewBox="0.00 0.00 454.50 374.00" xmlns="http://www.w3.org/2000/svg" xmlns:xlink="http://www.w3.org/1999/xlink">
<g id="graph0" class="graph" transform="scale(1 1) rotate(0) translate(4 370)">
<title>Library/include/playrho/Interval.hpp</title>
<polygon fill="white" stroke="transparent" points="-4,4 -4,-370 450.5,-370 450.5,4 -4,4"/>
<!-- Node1 -->
<g id="node1" class="node">
<title>Node1</title>
<g id="a_node1"><a xlink:title="Definition of the Interval class template and closely related code.">
<polygon fill="#bfbfbf" stroke="black" points="46,-335.5 46,-365.5 174,-365.5 174,-335.5 46,-335.5"/>
<text text-anchor="start" x="54" y="-353.5" font-family="Helvetica,sans-Serif" font-size="10.00">Library/include/playrho</text>
<text text-anchor="middle" x="110" y="-342.5" font-family="Helvetica,sans-Serif" font-size="10.00">/Interval.hpp</text>
</a>
</g>
</g>
<!-- Node2 -->
<g id="node2" class="node">
<title>Node2</title>
<g id="a_node2"><a xlink:href="WorldConf_8hpp.html" target="_top" xlink:title="Declarations of the WorldConf class.">
<polygon fill="white" stroke="black" points="0,-134.5 0,-164.5 128,-164.5 128,-134.5 0,-134.5"/>
<text text-anchor="start" x="8" y="-152.5" font-family="Helvetica,sans-Serif" font-size="10.00">Library/include/playrho</text>
<text text-anchor="middle" x="64" y="-141.5" font-family="Helvetica,sans-Serif" font-size="10.00">/d2/WorldConf.hpp</text>
</a>
</g>
</g>
<!-- Node1&#45;&gt;Node2 -->
<g id="edge1" class="edge">
<title>Node1&#45;&gt;Node2</title>
<path fill="none" stroke="midnightblue" d="M95.34,-326.35C90.69,-318.02 85.99,-308.36 83,-299 67.82,-251.46 64.72,-191.7 64.12,-164.79"/>
<polygon fill="midnightblue" stroke="midnightblue" points="92.4,-328.25 100.48,-335.1 98.44,-324.71 92.4,-328.25"/>
</g>
<!-- Node6 -->
<g id="node6" class="node">
<title>Node6</title>
<g id="a_node6"><a xlink:href="Intervals_8hpp.html" target="_top" xlink:title="Alias for an Interval of Length .">
<polygon fill="white" stroke="black" points="92,-268.5 92,-298.5 220,-298.5 220,-268.5 92,-268.5"/>
<text text-anchor="start" x="100" y="-286.5" font-family="Helvetica,sans-Serif" font-size="10.00">Library/include/playrho</text>
<text text-anchor="middle" x="156" y="-275.5" font-family="Helvetica,sans-Serif" font-size="10.00">/Intervals.hpp</text>
</a>
</g>
</g>
<!-- Node1&#45;&gt;Node6 -->
<g id="edge5" class="edge">
<title>Node1&#45;&gt;Node6</title>
<path fill="none" stroke="midnightblue" d="M125.81,-327.16C132.52,-317.68 140.13,-306.92 146.04,-298.58"/>
<polygon fill="midnightblue" stroke="midnightblue" points="122.9,-325.21 119.98,-335.4 128.62,-329.26 122.9,-325.21"/>
</g>
<!-- Node3 -->
<g id="node3" class="node">
<title>Node3</title>
<g id="a_node3"><a xlink:href="AabbTreeWorld_8hpp.html" target="_top" xlink:title="Declarations of the AabbTreeWorld class.">
<polygon fill="white" stroke="black" points="46,-0.5 46,-30.5 174,-30.5 174,-0.5 46,-0.5"/>
<text text-anchor="start" x="54" y="-18.5" font-family="Helvetica,sans-Serif" font-size="10.00">Library/include/playrho</text>
<text text-anchor="middle" x="110" y="-7.5" font-family="Helvetica,sans-Serif" font-size="10.00">/d2/AabbTreeWorld.hpp</text>
</a>
</g>
</g>
<!-- Node2&#45;&gt;Node3 -->
<g id="edge2" class="edge">
<title>Node2&#45;&gt;Node3</title>
<path fill="none" stroke="midnightblue" d="M33.75,-128.02C24.32,-119.9 15.07,-109.68 10,-98 4.52,-85.36 2.78,-78.73 10,-67 20.6,-49.77 39.09,-38.21 57.31,-30.55"/>
<polygon fill="midnightblue" stroke="midnightblue" points="31.64,-130.81 41.63,-134.35 36.02,-125.36 31.64,-130.81"/>
</g>
<!-- Node4 -->
<g id="node4" class="node">
<title>Node4</title>
<g id="a_node4"><a xlink:href="World_8hpp.html" target="_top" xlink:title="Definitions of the World class and closely related code.">
<polygon fill="white" stroke="black" points="19,-67.5 19,-97.5 147,-97.5 147,-67.5 19,-67.5"/>
<text text-anchor="start" x="27" y="-85.5" font-family="Helvetica,sans-Serif" font-size="10.00">Library/include/playrho</text>
<text text-anchor="middle" x="83" y="-74.5" font-family="Helvetica,sans-Serif" font-size="10.00">/d2/World.hpp</text>
</a>
</g>
</g>
<!-- Node2&#45;&gt;Node4 -->
<g id="edge3" class="edge">
<title>Node2&#45;&gt;Node4</title>
<path fill="none" stroke="midnightblue" d="M70.96,-124.7C73.62,-115.59 76.57,-105.49 78.89,-97.58"/>
<polygon fill="midnightblue" stroke="midnightblue" points="67.57,-123.82 68.12,-134.4 74.29,-125.78 67.57,-123.82"/>
</g>
<!-- Node5 -->
<g id="node5" class="node">
<title>Node5</title>
<g id="a_node5"><a xlink:href="BasicAPI_8hpp.html" target="_top" xlink:title="Basic API include file to pull in at once most headers used.">
<polygon fill="white" stroke="black" points="253,-0.5 253,-30.5 381,-30.5 381,-0.5 253,-0.5"/>
<text text-anchor="start" x="261" y="-18.5" font-family="Helvetica,sans-Serif" font-size="10.00">Library/include/playrho</text>
<text text-anchor="middle" x="317" y="-7.5" font-family="Helvetica,sans-Serif" font-size="10.00">/d2/BasicAPI.hpp</text>
</a>
</g>
</g>
<!-- Node4&#45;&gt;Node5 -->
<g id="edge4" class="edge">
<title>Node4&#45;&gt;Node5</title>
<path fill="none" stroke="midnightblue" d="M143.43,-64.71C181.51,-54.14 230.11,-40.63 266.2,-30.61"/>
<polygon fill="midnightblue" stroke="midnightblue" points="142.18,-61.43 133.49,-67.48 144.06,-68.17 142.18,-61.43"/>
</g>
<!-- Node7 -->
<g id="node7" class="node">
<title>Node7</title>
<g id="a_node7"><a xlink:href="d2_2AABB_8hpp.html" target="_top" xlink:title="Declaration of the AABB class and free functions that return instances of it.">
<polygon fill="white" stroke="black" points="170,-134.5 170,-164.5 298,-164.5 298,-134.5 170,-134.5"/>
<text text-anchor="start" x="178" y="-152.5" font-family="Helvetica,sans-Serif" font-size="10.00">Library/include/playrho</text>
<text text-anchor="middle" x="234" y="-141.5" font-family="Helvetica,sans-Serif" font-size="10.00">/d2/AABB.hpp</text>
</a>
</g>
</g>
<!-- Node6&#45;&gt;Node7 -->
<g id="edge6" class="edge">
<title>Node6&#45;&gt;Node7</title>
<path fill="none" stroke="midnightblue" d="M155.69,-258.21C156.49,-241.12 159.71,-218.31 170,-201 179.04,-185.79 194.51,-173.4 207.98,-164.69"/>
<polygon fill="midnightblue" stroke="midnightblue" points="152.18,-258.41 155.46,-268.49 159.18,-258.57 152.18,-258.41"/>
</g>
<!-- Node10 -->
<g id="node10" class="node">
<title>Node10</title>
<g id="a_node10"><a xlink:href="detail_2AABB_8hpp.html" target="_top" xlink:title="Declaration of the AABB class and free functions that return instances of it.">
<polygon fill="white" stroke="black" points="179,-201.5 179,-231.5 307,-231.5 307,-201.5 179,-201.5"/>
<text text-anchor="start" x="187" y="-219.5" font-family="Helvetica,sans-Serif" font-size="10.00">Library/include/playrho</text>
<text text-anchor="middle" x="243" y="-208.5" font-family="Helvetica,sans-Serif" font-size="10.00">/detail/AABB.hpp</text>
</a>
</g>
</g>
<!-- Node6&#45;&gt;Node10 -->
<g id="edge11" class="edge">
<title>Node6&#45;&gt;Node10</title>
<path fill="none" stroke="midnightblue" d="M183.21,-262.17C196.52,-252.23 212.2,-240.51 224.16,-231.58"/>
<polygon fill="midnightblue" stroke="midnightblue" points="180.79,-259.61 174.88,-268.4 184.98,-265.21 180.79,-259.61"/>
</g>
<!-- Node8 -->
<g id="node8" class="node">
<title>Node8</title>
<g id="a_node8"><a xlink:href="ChainShapeConf_8hpp.html" target="_top" xlink:title="Definition of the ChainShapeConf class and closely related code.">
<polygon fill="white" stroke="black" points="311.5,-67.5 311.5,-97.5 446.5,-97.5 446.5,-67.5 311.5,-67.5"/>
<text text-anchor="start" x="319.5" y="-85.5" font-family="Helvetica,sans-Serif" font-size="10.00">Library/include/playrho</text>
<text text-anchor="middle" x="379" y="-74.5" font-family="Helvetica,sans-Serif" font-size="10.00">/d2/ChainShapeConf.hpp</text>
</a>
</g>
</g>
<!-- Node7&#45;&gt;Node8 -->
<g id="edge7" class="edge">
<title>Node7&#45;&gt;Node8</title>
<path fill="none" stroke="midnightblue" d="M274.67,-130.27C297.76,-119.92 326.24,-107.15 347.6,-97.58"/>
<polygon fill="midnightblue" stroke="midnightblue" points="273.16,-127.11 265.46,-134.4 276.02,-133.5 273.16,-127.11"/>
</g>
<!-- Node9 -->
<g id="node9" class="node">
<title>Node9</title>
<g id="a_node9"><a xlink:href="DynamicTree_8hpp.html" target="_top" xlink:title="Declaration of the DynamicTree class.">
<polygon fill="white" stroke="black" points="165,-67.5 165,-97.5 293,-97.5 293,-67.5 165,-67.5"/>
<text text-anchor="start" x="173" y="-85.5" font-family="Helvetica,sans-Serif" font-size="10.00">Library/include/playrho</text>
<text text-anchor="middle" x="229" y="-74.5" font-family="Helvetica,sans-Serif" font-size="10.00">/d2/DynamicTree.hpp</text>
</a>
</g>
</g>
<!-- Node7&#45;&gt;Node9 -->
<g id="edge9" class="edge">
<title>Node7&#45;&gt;Node9</title>
<path fill="none" stroke="midnightblue" d="M232.15,-124.4C231.45,-115.37 230.69,-105.41 230.08,-97.58"/>
<polygon fill="midnightblue" stroke="midnightblue" points="228.66,-124.69 232.92,-134.4 235.64,-124.16 228.66,-124.69"/>
</g>
<!-- Node8&#45;&gt;Node5 -->
<g id="edge8" class="edge">
<title>Node8&#45;&gt;Node5</title>
<path fill="none" stroke="midnightblue" d="M358.52,-60.02C349.28,-50.34 338.63,-39.17 330.43,-30.58"/>
<polygon fill="midnightblue" stroke="midnightblue" points="356.11,-62.58 365.55,-67.4 361.18,-57.74 356.11,-62.58"/>
</g>
<!-- Node9&#45;&gt;Node3 -->
<g id="edge10" class="edge">
<title>Node9&#45;&gt;Node3</title>
<path fill="none" stroke="midnightblue" d="M194.35,-62.57C175.63,-52.35 152.91,-39.94 135.77,-30.58"/>
<polygon fill="midnightblue" stroke="midnightblue" points="192.72,-65.67 203.18,-67.4 196.08,-59.53 192.72,-65.67"/>
</g>
<!-- Node10&#45;&gt;Node7 -->
<g id="edge12" class="edge">
<title>Node10&#45;&gt;Node7</title>
<path fill="none" stroke="midnightblue" d="M239.66,-191.4C238.41,-182.37 237.03,-172.41 235.95,-164.58"/>
<polygon fill="midnightblue" stroke="midnightblue" points="236.21,-191.97 241.05,-201.4 243.14,-191.01 236.21,-191.97"/>
</g>
</g>
</svg>
