<?xml version="1.0" encoding="UTF-8" standalone="no"?>
<!DOCTYPE svg PUBLIC "-//W3C//DTD SVG 1.1//EN"
 "http://www.w3.org/Graphics/SVG/1.1/DTD/svg11.dtd">
<!-- Generated by graphviz version 2.43.0 (0)
 -->
<!-- Title: Library/include/playrho/Intervals.hpp Pages: 1 -->
<!--zoomable 554 -->
<svg id="main" version="1.1" xmlns="http://www.w3.org/2000/svg" xmlns:xlink="http://www.w3.org/1999/xlink" xml:space="preserve" onload="init(evt)">
<style type="text/css"><![CDATA[
.edge:hover path { stroke: red; }
.edge:hover polygon { stroke: red; fill: red; }
]]></style>
<script type="text/javascript"><![CDATA[
var edges = document.getElementsByTagName('g');
if (edges && edges.length) {
  for (var i=0;i<edges.length;i++) {
    if (edges[i].id.substr(0,4)=='edge') {
      edges[i].setAttribute('class','edge');
    }
  }
}
]]></script>
        <defs>
                <circle id="rim" cx="0" cy="0" r="7"/>
                <circle id="rim2" cx="0" cy="0" r="3.5"/>
                <g id="zoomPlus">
                        <use xlink:href="#rim" fill="#404040">
                                <set attributeName="fill" to="#808080" begin="zoomplus.mouseover" end="zoomplus.mouseout"/>
                        </use>
                        <path d="M-4,0h8M0,-4v8" fill="none" stroke="white" stroke-width="1.5" pointer-events="none"/>
                </g>
                <g id="zoomMin">
                        <use xlink:href="#rim" fill="#404040">
                                <set attributeName="fill" to="#808080" begin="zoomminus.mouseover" end="zoomminus.mouseout"/>
                        </use>
                        <path d="M-4,0h8" fill="none" stroke="white" stroke-width="1.5" pointer-events="none"/>
                </g>
                <g id="dirArrow">
                        <path fill="none" stroke="white" stroke-width="1.5" d="M0,-3.0v7 M-2.5,-0.5L0,-3.0L2.5,-0.5"/>
                </g>
               <g id="resetDef">
                       <use xlink:href="#rim2" fill="#404040">
                               <set attributeName="fill" to="#808080" begin="reset.mouseover" end="reset.mouseout"/>
                       </use>
               </g>
        </defs>

<script type="text/javascript">
var viewWidth = 1153;
var viewHeight = 554;
var sectionId = 'dynsection-0';
</script>
<script xlink:href="svgpan.js"/>
<svg id="graph" class="graph">
<g id="viewport">
<title>Library/include/playrho/Intervals.hpp</title>
<polygon fill="white" stroke="transparent" points="-4,4 -4,-550 1149,-550 1149,4 -4,4"/>
<!-- Node1 -->
<g id="node1" class="node">
<title>Node1</title>
<g id="a_node1"><a xlink:title="Alias for an Interval of Length .">
<polygon fill="#bfbfbf" stroke="black" points="415,-515.5 415,-545.5 543,-545.5 543,-515.5 415,-515.5"/>
<text text-anchor="start" x="423" y="-533.5" font-family="Helvetica,sans-Serif" font-size="10.00">Library/include/playrho</text>
<text text-anchor="middle" x="479" y="-522.5" font-family="Helvetica,sans-Serif" font-size="10.00">/Intervals.hpp</text>
</a>
</g>
</g>
<!-- Node2 -->
<g id="node2" class="node">
<title>Node2</title>
<g id="a_node2"><a xlink:href="Interval_8hpp.html" target="_top" xlink:title="Definition of the Interval class template and closely related code.">
<polygon fill="white" stroke="black" points="303.5,-291.5 303.5,-310.5 418.5,-310.5 418.5,-291.5 303.5,-291.5"/>
<text text-anchor="middle" x="361" y="-298.5" font-family="Helvetica,sans-Serif" font-size="10.00">playrho/Interval.hpp</text>
</a>
</g>
</g>
<!-- Node1&#45;&gt;Node2 -->
<g id="edge1" class="edge">
<title>Node1&#45;&gt;Node2</title>
<path fill="none" stroke="midnightblue" d="M471.62,-515.27C451.02,-475.56 392.95,-363.61 370.26,-319.85"/>
<polygon fill="midnightblue" stroke="midnightblue" points="373.34,-318.19 365.63,-310.93 367.13,-321.42 373.34,-318.19"/>
</g>
<!-- Node17 -->
<g id="node17" class="node">
<title>Node17</title>
<g id="a_node17"><a xlink:href="Units_8hpp.html" target="_top" xlink:title="Declarations for physical units possibly backed by strong types.">
<polygon fill="white" stroke="black" points="541.5,-459.5 541.5,-478.5 644.5,-478.5 644.5,-459.5 541.5,-459.5"/>
<text text-anchor="middle" x="593" y="-466.5" font-family="Helvetica,sans-Serif" font-size="10.00">playrho/Units.hpp</text>
</a>
</g>
</g>
<!-- Node1&#45;&gt;Node17 -->
<g id="edge22" class="edge">
<title>Node1&#45;&gt;Node17</title>
<path fill="none" stroke="midnightblue" d="M506.02,-515.4C524.63,-505.68 549.21,-492.86 567.49,-483.31"/>
<polygon fill="midnightblue" stroke="midnightblue" points="569.17,-486.39 576.41,-478.66 565.93,-480.18 569.17,-486.39"/>
</g>
<!-- Node3 -->
<g id="node3" class="node">
<title>Node3</title>
<g id="a_node3"><a xlink:title=" ">
<polygon fill="white" stroke="#bfbfbf" points="16,-0.5 16,-19.5 80,-19.5 80,-0.5 16,-0.5"/>
<text text-anchor="middle" x="48" y="-7.5" font-family="Helvetica,sans-Serif" font-size="10.00">algorithm</text>
</a>
</g>
</g>
<!-- Node2&#45;&gt;Node3 -->
<g id="edge2" class="edge">
<title>Node2&#45;&gt;Node3</title>
<path fill="none" stroke="midnightblue" d="M303.41,-298.79C246.66,-295.71 158.58,-285.82 89,-255 42.86,-234.56 0,-234.96 0,-184.5 0,-184.5 0,-184.5 0,-121 0,-85.58 21.16,-48.71 35.38,-27.92"/>
<polygon fill="midnightblue" stroke="midnightblue" points="38.38,-29.74 41.33,-19.56 32.68,-25.68 38.38,-29.74"/>
</g>
<!-- Node4 -->
<g id="node4" class="node">
<title>Node4</title>
<g id="a_node4"><a xlink:title=" ">
<polygon fill="white" stroke="#bfbfbf" points="148,-0.5 148,-19.5 192,-19.5 192,-0.5 148,-0.5"/>
<text text-anchor="middle" x="170" y="-7.5" font-family="Helvetica,sans-Serif" font-size="10.00">limits</text>
</a>
</g>
</g>
<!-- Node2&#45;&gt;Node4 -->
<g id="edge3" class="edge">
<title>Node2&#45;&gt;Node4</title>
<path fill="none" stroke="midnightblue" d="M303.25,-291.49C210.35,-276.15 38,-240.18 38,-184.5 38,-184.5 38,-184.5 38,-121 38,-68.89 99.47,-36.67 138.51,-21.47"/>
<polygon fill="midnightblue" stroke="midnightblue" points="139.76,-24.74 147.91,-17.97 137.31,-18.18 139.76,-24.74"/>
</g>
<!-- Node5 -->
<g id="node5" class="node">
<title>Node5</title>
<g id="a_node5"><a xlink:title=" ">
<polygon fill="white" stroke="#bfbfbf" points="324,-112.5 324,-131.5 384,-131.5 384,-112.5 324,-112.5"/>
<text text-anchor="middle" x="354" y="-119.5" font-family="Helvetica,sans-Serif" font-size="10.00">iostream</text>
</a>
</g>
</g>
<!-- Node2&#45;&gt;Node5 -->
<g id="edge4" class="edge">
<title>Node2&#45;&gt;Node5</title>
<path fill="none" stroke="midnightblue" d="M368.45,-291.39C375.4,-282.81 385.35,-268.93 390,-255 402.25,-218.28 407.76,-204.18 394,-168 389.66,-156.6 380.97,-146.24 372.79,-138.34"/>
<polygon fill="midnightblue" stroke="midnightblue" points="375.04,-135.66 365.27,-131.57 370.36,-140.86 375.04,-135.66"/>
</g>
<!-- Node6 -->
<g id="node6" class="node">
<title>Node6</title>
<g id="a_node6"><a xlink:title=" ">
<polygon fill="white" stroke="#bfbfbf" points="630.5,-0.5 630.5,-19.5 699.5,-19.5 699.5,-0.5 630.5,-0.5"/>
<text text-anchor="middle" x="665" y="-7.5" font-family="Helvetica,sans-Serif" font-size="10.00">type_traits</text>
</a>
</g>
</g>
<!-- Node2&#45;&gt;Node6 -->
<g id="edge5" class="edge">
<title>Node2&#45;&gt;Node6</title>
<path fill="none" stroke="midnightblue" d="M372.05,-291.34C382.2,-282.93 397.12,-269.36 407,-255 446.27,-197.93 425.2,-165.66 469,-112 508.16,-64.03 576.09,-36.35 620.8,-22.48"/>
<polygon fill="midnightblue" stroke="midnightblue" points="621.94,-25.79 630.52,-19.57 619.93,-19.09 621.94,-25.79"/>
</g>
<!-- Node7 -->
<g id="node7" class="node">
<title>Node7</title>
<g id="a_node7"><a xlink:href="NonNegative_8hpp.html" target="_top" xlink:title="Definition of the NonNegative value checked types.">
<polygon fill="white" stroke="black" points="239.5,-235.5 239.5,-254.5 380.5,-254.5 380.5,-235.5 239.5,-235.5"/>
<text text-anchor="middle" x="310" y="-242.5" font-family="Helvetica,sans-Serif" font-size="10.00">playrho/NonNegative.hpp</text>
</a>
</g>
</g>
<!-- Node2&#45;&gt;Node7 -->
<g id="edge6" class="edge">
<title>Node2&#45;&gt;Node7</title>
<path fill="none" stroke="midnightblue" d="M352.58,-291.08C345.15,-283.22 334.15,-271.57 325.19,-262.08"/>
<polygon fill="midnightblue" stroke="midnightblue" points="327.68,-259.62 318.26,-254.75 322.59,-264.42 327.68,-259.62"/>
</g>
<!-- Node8 -->
<g id="node8" class="node">
<title>Node8</title>
<g id="a_node8"><a xlink:href="Checked_8hpp.html" target="_top" xlink:title="Declarations of the Checked class template and closely related code.">
<polygon fill="white" stroke="black" points="235.5,-174 235.5,-193 384.5,-193 384.5,-174 235.5,-174"/>
<text text-anchor="middle" x="310" y="-181" font-family="Helvetica,sans-Serif" font-size="10.00">playrho/detail/Checked.hpp</text>
</a>
</g>
</g>
<!-- Node7&#45;&gt;Node8 -->
<g id="edge7" class="edge">
<title>Node7&#45;&gt;Node8</title>
<path fill="none" stroke="midnightblue" d="M310,-235.48C310,-227.08 310,-213.98 310,-203.16"/>
<polygon fill="midnightblue" stroke="midnightblue" points="313.5,-203.01 310,-193.01 306.5,-203.01 313.5,-203.01"/>
</g>
<!-- Node16 -->
<g id="node16" class="node">
<title>Node16</title>
<g id="a_node16"><a xlink:href="NonNegativeChecker_8hpp.html" target="_top" xlink:title="Definition of the NonNegativeChecker class template.">
<polygon fill="white" stroke="black" points="66.5,-168.5 66.5,-198.5 217.5,-198.5 217.5,-168.5 66.5,-168.5"/>
<text text-anchor="start" x="74.5" y="-186.5" font-family="Helvetica,sans-Serif" font-size="10.00">playrho/detail/NonNegative</text>
<text text-anchor="middle" x="142" y="-175.5" font-family="Helvetica,sans-Serif" font-size="10.00">Checker.hpp</text>
</a>
</g>
</g>
<!-- Node7&#45;&gt;Node16 -->
<g id="edge21" class="edge">
<title>Node7&#45;&gt;Node16</title>
<path fill="none" stroke="midnightblue" d="M285.93,-235.48C261.37,-226.78 222.55,-213.03 191.41,-202"/>
<polygon fill="midnightblue" stroke="midnightblue" points="192.19,-198.56 181.59,-198.52 189.85,-205.16 192.19,-198.56"/>
</g>
<!-- Node8&#45;&gt;Node5 -->
<g id="edge8" class="edge">
<title>Node8&#45;&gt;Node5</title>
<path fill="none" stroke="midnightblue" d="M316.3,-173.98C322.9,-165.05 333.44,-150.81 341.69,-139.64"/>
<polygon fill="midnightblue" stroke="midnightblue" points="344.58,-141.63 347.71,-131.51 338.95,-137.47 344.58,-141.63"/>
</g>
<!-- Node8&#45;&gt;Node6 -->
<g id="edge9" class="edge">
<title>Node8&#45;&gt;Node6</title>
<path fill="none" stroke="midnightblue" d="M308,-173.77C305.24,-159.47 301.98,-130.75 315,-112 337.01,-80.31 358.95,-92.14 394,-76 413.15,-67.19 416.96,-62.53 437,-56 499.05,-35.77 573.72,-23.14 620.29,-16.58"/>
<polygon fill="midnightblue" stroke="midnightblue" points="620.92,-20.03 630.35,-15.2 619.97,-13.09 620.92,-20.03"/>
</g>
<!-- Node9 -->
<g id="node9" class="node">
<title>Node9</title>
<g id="a_node9"><a xlink:title=" ">
<polygon fill="white" stroke="#bfbfbf" points="210.5,-0.5 210.5,-19.5 255.5,-19.5 255.5,-0.5 210.5,-0.5"/>
<text text-anchor="middle" x="233" y="-7.5" font-family="Helvetica,sans-Serif" font-size="10.00">utility</text>
</a>
</g>
</g>
<!-- Node8&#45;&gt;Node9 -->
<g id="edge10" class="edge">
<title>Node8&#45;&gt;Node9</title>
<path fill="none" stroke="midnightblue" d="M261.13,-173.96C202.12,-163.18 109.43,-144.52 99,-132 77.36,-106.03 76.17,-83.38 96,-56 99.19,-51.59 161.24,-32.42 200.73,-20.56"/>
<polygon fill="midnightblue" stroke="midnightblue" points="201.89,-23.87 210.47,-17.65 199.89,-17.16 201.89,-23.87"/>
</g>
<!-- Node10 -->
<g id="node10" class="node">
<title>Node10</title>
<g id="a_node10"><a xlink:href="InvalidArgument_8hpp.html" target="_top" xlink:title="Definition of the InvalidArgument class.">
<polygon fill="white" stroke="black" points="108,-112.5 108,-131.5 266,-131.5 266,-112.5 108,-112.5"/>
<text text-anchor="middle" x="187" y="-119.5" font-family="Helvetica,sans-Serif" font-size="10.00">playrho/InvalidArgument.hpp</text>
</a>
</g>
</g>
<!-- Node8&#45;&gt;Node10 -->
<g id="edge11" class="edge">
<title>Node8&#45;&gt;Node10</title>
<path fill="none" stroke="midnightblue" d="M292.38,-173.98C271.83,-164.03 237.64,-147.49 213.79,-135.96"/>
<polygon fill="midnightblue" stroke="midnightblue" points="215.12,-132.71 204.59,-131.51 212.07,-139.01 215.12,-132.71"/>
</g>
<!-- Node12 -->
<g id="node12" class="node">
<title>Node12</title>
<g id="a_node12"><a xlink:href="Templates_8hpp.html" target="_top" xlink:title="Definitions of miscellaneous template related code.">
<polygon fill="white" stroke="black" points="478,-112.5 478,-131.5 606,-131.5 606,-112.5 478,-112.5"/>
<text text-anchor="middle" x="542" y="-119.5" font-family="Helvetica,sans-Serif" font-size="10.00">playrho/Templates.hpp</text>
</a>
</g>
</g>
<!-- Node8&#45;&gt;Node12 -->
<g id="edge13" class="edge">
<title>Node8&#45;&gt;Node12</title>
<path fill="none" stroke="midnightblue" d="M343.24,-173.98C384.24,-163.46 454.03,-145.56 499.05,-134.01"/>
<polygon fill="midnightblue" stroke="midnightblue" points="500,-137.38 508.82,-131.51 498.27,-130.6 500,-137.38"/>
</g>
<!-- Node11 -->
<g id="node11" class="node">
<title>Node11</title>
<g id="a_node11"><a xlink:title=" ">
<polygon fill="white" stroke="#bfbfbf" points="105.5,-56.5 105.5,-75.5 170.5,-75.5 170.5,-56.5 105.5,-56.5"/>
<text text-anchor="middle" x="138" y="-63.5" font-family="Helvetica,sans-Serif" font-size="10.00">stdexcept</text>
</a>
</g>
</g>
<!-- Node10&#45;&gt;Node11 -->
<g id="edge12" class="edge">
<title>Node10&#45;&gt;Node11</title>
<path fill="none" stroke="midnightblue" d="M178.91,-112.08C171.84,-104.3 161.41,-92.8 152.85,-83.37"/>
<polygon fill="midnightblue" stroke="midnightblue" points="155.25,-80.8 145.94,-75.75 150.07,-85.51 155.25,-80.8"/>
</g>
<!-- Node13 -->
<g id="node13" class="node">
<title>Node13</title>
<g id="a_node13"><a xlink:href="detail_2Templates_8hpp.html" target="_top" xlink:title="Low&#45;level declarations for general class &amp; function templates.">
<polygon fill="white" stroke="black" points="227,-56.5 227,-75.5 385,-75.5 385,-56.5 227,-56.5"/>
<text text-anchor="middle" x="306" y="-63.5" font-family="Helvetica,sans-Serif" font-size="10.00">playrho/detail/Templates.hpp</text>
</a>
</g>
</g>
<!-- Node12&#45;&gt;Node13 -->
<g id="edge14" class="edge">
<title>Node12&#45;&gt;Node13</title>
<path fill="none" stroke="midnightblue" d="M504.61,-112.44C463.61,-103.06 397.75,-87.99 353.22,-77.8"/>
<polygon fill="midnightblue" stroke="midnightblue" points="353.75,-74.34 343.22,-75.52 352.19,-81.16 353.75,-74.34"/>
</g>
<!-- Node13&#45;&gt;Node3 -->
<g id="edge15" class="edge">
<title>Node13&#45;&gt;Node3</title>
<path fill="none" stroke="midnightblue" d="M265.12,-56.44C217.23,-46.42 138.31,-29.9 89.96,-19.78"/>
<polygon fill="midnightblue" stroke="midnightblue" points="90.64,-16.35 80.13,-17.73 89.2,-23.2 90.64,-16.35"/>
</g>
<!-- Node13&#45;&gt;Node4 -->
<g id="edge18" class="edge">
<title>Node13&#45;&gt;Node4</title>
<path fill="none" stroke="midnightblue" d="M284.45,-56.44C261.97,-47.52 226.51,-33.44 201.02,-23.32"/>
<polygon fill="midnightblue" stroke="midnightblue" points="202.03,-19.95 191.45,-19.52 199.45,-26.46 202.03,-19.95"/>
</g>
<!-- Node13&#45;&gt;Node6 -->
<g id="edge19" class="edge">
<title>Node13&#45;&gt;Node6</title>
<path fill="none" stroke="midnightblue" d="M362.88,-56.44C434.2,-45.72 554.98,-27.55 620.13,-17.75"/>
<polygon fill="midnightblue" stroke="midnightblue" points="620.72,-21.2 630.09,-16.25 619.68,-14.28 620.72,-21.2"/>
</g>
<!-- Node13&#45;&gt;Node9 -->
<g id="edge20" class="edge">
<title>Node13&#45;&gt;Node9</title>
<path fill="none" stroke="midnightblue" d="M294.27,-56.32C283.16,-48.11 266.26,-35.6 253.02,-25.81"/>
<polygon fill="midnightblue" stroke="midnightblue" points="255.06,-22.97 244.94,-19.83 250.9,-28.59 255.06,-22.97"/>
</g>
<!-- Node14 -->
<g id="node14" class="node">
<title>Node14</title>
<g id="a_node14"><a xlink:title=" ">
<polygon fill="white" stroke="#bfbfbf" points="273.5,-0.5 273.5,-19.5 338.5,-19.5 338.5,-0.5 273.5,-0.5"/>
<text text-anchor="middle" x="306" y="-7.5" font-family="Helvetica,sans-Serif" font-size="10.00">functional</text>
</a>
</g>
</g>
<!-- Node13&#45;&gt;Node14 -->
<g id="edge16" class="edge">
<title>Node13&#45;&gt;Node14</title>
<path fill="none" stroke="midnightblue" d="M306,-56.08C306,-49.01 306,-38.86 306,-29.99"/>
<polygon fill="midnightblue" stroke="midnightblue" points="309.5,-29.75 306,-19.75 302.5,-29.75 309.5,-29.75"/>
</g>
<!-- Node15 -->
<g id="node15" class="node">
<title>Node15</title>
<g id="a_node15"><a xlink:title=" ">
<polygon fill="white" stroke="#bfbfbf" points="356.5,-0.5 356.5,-19.5 409.5,-19.5 409.5,-0.5 356.5,-0.5"/>
<text text-anchor="middle" x="383" y="-7.5" font-family="Helvetica,sans-Serif" font-size="10.00">iterator</text>
</a>
</g>
</g>
<!-- Node13&#45;&gt;Node15 -->
<g id="edge17" class="edge">
<title>Node13&#45;&gt;Node15</title>
<path fill="none" stroke="midnightblue" d="M318.37,-56.32C330.16,-48.06 348.13,-35.45 362.14,-25.63"/>
<polygon fill="midnightblue" stroke="midnightblue" points="364.48,-28.26 370.66,-19.65 360.46,-22.53 364.48,-28.26"/>
</g>
<!-- Node17&#45;&gt;Node6 -->
<g id="edge24" class="edge">
<title>Node17&#45;&gt;Node6</title>
<path fill="none" stroke="midnightblue" d="M644.93,-468.57C782.34,-468.68 1145,-459.38 1145,-358 1145,-358 1145,-358 1145,-121 1145,-32.2 828.95,-15.08 709.76,-11.79"/>
<polygon fill="midnightblue" stroke="midnightblue" points="709.61,-8.28 699.52,-11.52 709.43,-15.28 709.61,-8.28"/>
</g>
<!-- Node17&#45;&gt;Node12 -->
<g id="edge52" class="edge">
<title>Node17&#45;&gt;Node12</title>
<path fill="none" stroke="midnightblue" d="M583.11,-459.4C564.48,-442.18 526,-401.38 526,-358 526,-358 526,-358 526,-244 526,-207.58 533.21,-165.52 537.95,-141.81"/>
<polygon fill="midnightblue" stroke="midnightblue" points="541.43,-142.26 540.04,-131.75 534.58,-140.83 541.43,-142.26"/>
</g>
<!-- Node18 -->
<g id="node18" class="node">
<title>Node18</title>
<g id="a_node18"><a xlink:title=" ">
<polygon fill="white" stroke="#bfbfbf" points="615.5,-235.5 615.5,-254.5 662.5,-254.5 662.5,-235.5 615.5,-235.5"/>
<text text-anchor="middle" x="639" y="-242.5" font-family="Helvetica,sans-Serif" font-size="10.00">cmath</text>
</a>
</g>
</g>
<!-- Node17&#45;&gt;Node18 -->
<g id="edge23" class="edge">
<title>Node17&#45;&gt;Node18</title>
<path fill="none" stroke="midnightblue" d="M592.63,-459.25C591.8,-432.98 591.26,-352.82 612,-291 615.29,-281.19 620.98,-271.23 626.28,-263.18"/>
<polygon fill="midnightblue" stroke="midnightblue" points="629.32,-264.94 632.17,-254.73 623.58,-260.93 629.32,-264.94"/>
</g>
<!-- Node19 -->
<g id="node19" class="node">
<title>Node19</title>
<g id="a_node19"><a xlink:href="RealConstants_8hpp.html" target="_top" xlink:title="Definitions file for constant expressions of type Real.">
<polygon fill="white" stroke="black" points="703,-403.5 703,-422.5 851,-422.5 851,-403.5 703,-403.5"/>
<text text-anchor="middle" x="777" y="-410.5" font-family="Helvetica,sans-Serif" font-size="10.00">playrho/RealConstants.hpp</text>
</a>
</g>
</g>
<!-- Node17&#45;&gt;Node19 -->
<g id="edge25" class="edge">
<title>Node17&#45;&gt;Node19</title>
<path fill="none" stroke="midnightblue" d="M622.16,-459.44C653.51,-450.24 703.53,-435.56 738.2,-425.39"/>
<polygon fill="midnightblue" stroke="midnightblue" points="739.37,-428.69 747.98,-422.52 737.4,-421.97 739.37,-428.69"/>
</g>
<!-- Node20 -->
<g id="node20" class="node">
<title>Node20</title>
<g id="a_node20"><a xlink:href="Defines_8hpp.html" target="_top" xlink:title="Miscellaneous C&#45;preprocessor definitions.">
<polygon fill="white" stroke="black" points="1003,-112.5 1003,-131.5 1117,-131.5 1117,-112.5 1003,-112.5"/>
<text text-anchor="middle" x="1060" y="-119.5" font-family="Helvetica,sans-Serif" font-size="10.00">playrho/Defines.hpp</text>
</a>
</g>
</g>
<!-- Node19&#45;&gt;Node20 -->
<g id="edge26" class="edge">
<title>Node19&#45;&gt;Node20</title>
<path fill="none" stroke="midnightblue" d="M834.38,-403.46C923.24,-388.59 1084,-354.44 1084,-302 1084,-302 1084,-302 1084,-244 1084,-207.02 1073.08,-164.88 1065.97,-141.37"/>
<polygon fill="midnightblue" stroke="midnightblue" points="1069.27,-140.18 1062.94,-131.69 1062.59,-142.28 1069.27,-140.18"/>
</g>
<!-- Node21 -->
<g id="node21" class="node">
<title>Node21</title>
<g id="a_node21"><a xlink:href="Real_8hpp.html" target="_top" xlink:title="Real number definition file.">
<polygon fill="white" stroke="black" points="727.5,-347.5 727.5,-366.5 826.5,-366.5 826.5,-347.5 727.5,-347.5"/>
<text text-anchor="middle" x="777" y="-354.5" font-family="Helvetica,sans-Serif" font-size="10.00">playrho/Real.hpp</text>
</a>
</g>
</g>
<!-- Node19&#45;&gt;Node21 -->
<g id="edge27" class="edge">
<title>Node19&#45;&gt;Node21</title>
<path fill="none" stroke="midnightblue" d="M777,-403.08C777,-396.01 777,-385.86 777,-376.99"/>
<polygon fill="midnightblue" stroke="midnightblue" points="780.5,-376.75 777,-366.75 773.5,-376.75 780.5,-376.75"/>
</g>
<!-- Node22 -->
<g id="node22" class="node">
<title>Node22</title>
<g id="a_node22"><a xlink:href="Fixed_8hpp.html" target="_top" xlink:title="Definition of the Fixed class and closely related code.">
<polygon fill="white" stroke="black" points="725.5,-235.5 725.5,-254.5 828.5,-254.5 828.5,-235.5 725.5,-235.5"/>
<text text-anchor="middle" x="777" y="-242.5" font-family="Helvetica,sans-Serif" font-size="10.00">playrho/Fixed.hpp</text>
</a>
</g>
</g>
<!-- Node21&#45;&gt;Node22 -->
<g id="edge28" class="edge">
<title>Node21&#45;&gt;Node22</title>
<path fill="none" stroke="midnightblue" d="M777,-347.37C777,-329.62 777,-288.67 777,-264.6"/>
<polygon fill="midnightblue" stroke="midnightblue" points="780.5,-264.59 777,-254.59 773.5,-264.59 780.5,-264.59"/>
</g>
<!-- Node33 -->
<g id="node33" class="node">
<title>Node33</title>
<g id="a_node33"><a xlink:href="FixedMath_8hpp.html" target="_top" xlink:title="Conventional math functions for the Fixed class template.">
<polygon fill="white" stroke="black" points="621,-291.5 621,-310.5 749,-310.5 749,-291.5 621,-291.5"/>
<text text-anchor="middle" x="685" y="-298.5" font-family="Helvetica,sans-Serif" font-size="10.00">playrho/FixedMath.hpp</text>
</a>
</g>
</g>
<!-- Node21&#45;&gt;Node33 -->
<g id="edge47" class="edge">
<title>Node21&#45;&gt;Node33</title>
<path fill="none" stroke="midnightblue" d="M762.22,-347.32C747.73,-338.82 725.43,-325.73 708.51,-315.8"/>
<polygon fill="midnightblue" stroke="midnightblue" points="710.14,-312.7 699.74,-310.65 706.6,-318.74 710.14,-312.7"/>
</g>
<!-- Node34 -->
<g id="node34" class="node">
<title>Node34</title>
<g id="a_node34"><a xlink:href="FixedLimits_8hpp.html" target="_top" xlink:title="Specialization of std::numeric_limits for Fixed.">
<polygon fill="white" stroke="black" points="805.5,-291.5 805.5,-310.5 938.5,-310.5 938.5,-291.5 805.5,-291.5"/>
<text text-anchor="middle" x="872" y="-298.5" font-family="Helvetica,sans-Serif" font-size="10.00">playrho/FixedLimits.hpp</text>
</a>
</g>
</g>
<!-- Node21&#45;&gt;Node34 -->
<g id="edge50" class="edge">
<title>Node21&#45;&gt;Node34</title>
<path fill="none" stroke="midnightblue" d="M792.26,-347.32C807.22,-338.82 830.25,-325.73 847.73,-315.8"/>
<polygon fill="midnightblue" stroke="midnightblue" points="849.81,-318.64 856.77,-310.65 846.35,-312.55 849.81,-318.64"/>
</g>
<!-- Node22&#45;&gt;Node4 -->
<g id="edge30" class="edge">
<title>Node22&#45;&gt;Node4</title>
<path fill="none" stroke="midnightblue" d="M725.84,-235.46C686.19,-228.04 630.22,-215.84 583,-199 553.61,-188.52 548.28,-181.19 520,-168 464.09,-141.93 451.76,-130.77 393,-112 317.36,-87.85 284.9,-118.77 218,-76 200.14,-64.58 186.64,-43.99 178.57,-29.04"/>
<polygon fill="midnightblue" stroke="midnightblue" points="181.52,-27.11 173.87,-19.77 175.27,-30.27 181.52,-27.11"/>
</g>
<!-- Node22&#45;&gt;Node5 -->
<g id="edge33" class="edge">
<title>Node22&#45;&gt;Node5</title>
<path fill="none" stroke="midnightblue" d="M725.45,-236.41C679.04,-228.96 609.22,-216.21 550,-199 488.71,-181.19 419.7,-152.25 382.11,-135.69"/>
<polygon fill="midnightblue" stroke="midnightblue" points="383.38,-132.43 372.82,-131.57 380.54,-138.82 383.38,-132.43"/>
</g>
<!-- Node22&#45;&gt;Node6 -->
<g id="edge32" class="edge">
<title>Node22&#45;&gt;Node6</title>
<path fill="none" stroke="midnightblue" d="M793.59,-235.39C806.84,-227.65 824.82,-215.03 835,-199 869.07,-145.33 878.01,-99.86 832,-56 799.22,-24.75 747.1,-14.7 709.81,-11.72"/>
<polygon fill="midnightblue" stroke="midnightblue" points="709.92,-8.22 699.71,-11.06 709.46,-15.21 709.92,-8.22"/>
</g>
<!-- Node22&#45;&gt;Node12 -->
<g id="edge34" class="edge">
<title>Node22&#45;&gt;Node12</title>
<path fill="none" stroke="midnightblue" d="M730.97,-235.48C700.44,-228.56 660.22,-216.96 628,-199 599.43,-183.08 572.14,-156.33 556.24,-139.18"/>
<polygon fill="midnightblue" stroke="midnightblue" points="558.7,-136.69 549.39,-131.63 553.51,-141.39 558.7,-136.69"/>
</g>
<!-- Node23 -->
<g id="node23" class="node">
<title>Node23</title>
<g id="a_node23"><a xlink:title=" ">
<polygon fill="white" stroke="#bfbfbf" points="897,-112.5 897,-131.5 947,-131.5 947,-112.5 897,-112.5"/>
<text text-anchor="middle" x="922" y="-119.5" font-family="Helvetica,sans-Serif" font-size="10.00">cstdint</text>
</a>
</g>
</g>
<!-- Node22&#45;&gt;Node23 -->
<g id="edge29" class="edge">
<title>Node22&#45;&gt;Node23</title>
<path fill="none" stroke="midnightblue" d="M802.12,-235.46C821.58,-227.99 848.42,-215.7 868,-199 887.38,-182.47 903.33,-157.55 912.76,-140.8"/>
<polygon fill="midnightblue" stroke="midnightblue" points="916.07,-142.03 917.75,-131.57 909.91,-138.7 916.07,-142.03"/>
</g>
<!-- Node24 -->
<g id="node24" class="node">
<title>Node24</title>
<g id="a_node24"><a xlink:title=" ">
<polygon fill="white" stroke="#bfbfbf" points="774,-174 774,-193 826,-193 826,-174 774,-174"/>
<text text-anchor="middle" x="800" y="-181" font-family="Helvetica,sans-Serif" font-size="10.00">cassert</text>
</a>
</g>
</g>
<!-- Node22&#45;&gt;Node24 -->
<g id="edge31" class="edge">
<title>Node22&#45;&gt;Node24</title>
<path fill="none" stroke="midnightblue" d="M780.3,-235.48C783.61,-226.9 788.82,-213.43 793.05,-202.48"/>
<polygon fill="midnightblue" stroke="midnightblue" points="796.37,-203.6 796.71,-193.01 789.84,-201.07 796.37,-203.6"/>
</g>
<!-- Node25 -->
<g id="node25" class="node">
<title>Node25</title>
<g id="a_node25"><a xlink:href="TypeInfo_8hpp.html" target="_top" xlink:title="Definition of TypeID class and closely related code.">
<polygon fill="white" stroke="black" points="636.5,-174 636.5,-193 755.5,-193 755.5,-174 636.5,-174"/>
<text text-anchor="middle" x="696" y="-181" font-family="Helvetica,sans-Serif" font-size="10.00">playrho/TypeInfo.hpp</text>
</a>
</g>
</g>
<!-- Node22&#45;&gt;Node25 -->
<g id="edge35" class="edge">
<title>Node22&#45;&gt;Node25</title>
<path fill="none" stroke="midnightblue" d="M765.39,-235.48C752.52,-226.02 731.53,-210.6 715.99,-199.19"/>
<polygon fill="midnightblue" stroke="midnightblue" points="717.72,-196.11 707.58,-193.01 713.57,-201.75 717.72,-196.11"/>
</g>
<!-- Node32 -->
<g id="node32" class="node">
<title>Node32</title>
<g id="a_node32"><a xlink:href="Wider_8hpp.html" target="_top" xlink:title="Definition of the Wider class template and specializations.">
<polygon fill="white" stroke="black" points="920,-174 920,-193 1056,-193 1056,-174 920,-174"/>
<text text-anchor="middle" x="988" y="-181" font-family="Helvetica,sans-Serif" font-size="10.00">playrho/detail/Wider.hpp</text>
</a>
</g>
</g>
<!-- Node22&#45;&gt;Node32 -->
<g id="edge43" class="edge">
<title>Node22&#45;&gt;Node32</title>
<path fill="none" stroke="midnightblue" d="M807.23,-235.48C844.29,-225.03 907.19,-207.29 948.16,-195.73"/>
<polygon fill="midnightblue" stroke="midnightblue" points="949.15,-199.09 957.82,-193.01 947.25,-192.35 949.15,-199.09"/>
</g>
<!-- Node25&#45;&gt;Node12 -->
<g id="edge37" class="edge">
<title>Node25&#45;&gt;Node12</title>
<path fill="none" stroke="midnightblue" d="M673.94,-173.98C647.63,-163.81 603.49,-146.76 573.58,-135.2"/>
<polygon fill="midnightblue" stroke="midnightblue" points="574.61,-131.85 564.02,-131.51 572.09,-138.38 574.61,-131.85"/>
</g>
<!-- Node26 -->
<g id="node26" class="node">
<title>Node26</title>
<g id="a_node26"><a xlink:title=" ">
<polygon fill="white" stroke="#bfbfbf" points="791,-112.5 791,-131.5 841,-131.5 841,-112.5 791,-112.5"/>
<text text-anchor="middle" x="816" y="-119.5" font-family="Helvetica,sans-Serif" font-size="10.00">cstring</text>
</a>
</g>
</g>
<!-- Node25&#45;&gt;Node26 -->
<g id="edge36" class="edge">
<title>Node25&#45;&gt;Node26</title>
<path fill="none" stroke="midnightblue" d="M713.19,-173.98C733.24,-164.03 766.6,-147.49 789.86,-135.96"/>
<polygon fill="midnightblue" stroke="midnightblue" points="791.43,-139.09 798.84,-131.51 788.32,-132.82 791.43,-139.09"/>
</g>
<!-- Node27 -->
<g id="node27" class="node">
<title>Node27</title>
<g id="a_node27"><a xlink:href="detail_2TypeInfo_8hpp.html" target="_top" xlink:title="Definition of TypeInfo class template and related code.">
<polygon fill="white" stroke="black" points="624.5,-112.5 624.5,-131.5 773.5,-131.5 773.5,-112.5 624.5,-112.5"/>
<text text-anchor="middle" x="699" y="-119.5" font-family="Helvetica,sans-Serif" font-size="10.00">playrho/detail/TypeInfo.hpp</text>
</a>
</g>
</g>
<!-- Node25&#45;&gt;Node27 -->
<g id="edge38" class="edge">
<title>Node25&#45;&gt;Node27</title>
<path fill="none" stroke="midnightblue" d="M696.43,-173.98C696.85,-165.58 697.51,-152.48 698.06,-141.66"/>
<polygon fill="midnightblue" stroke="midnightblue" points="701.56,-141.67 698.57,-131.51 694.57,-141.32 701.56,-141.67"/>
</g>
<!-- Node28 -->
<g id="node28" class="node">
<title>Node28</title>
<g id="a_node28"><a xlink:title=" ">
<polygon fill="white" stroke="#bfbfbf" points="633,-56.5 633,-75.5 677,-75.5 677,-56.5 633,-56.5"/>
<text text-anchor="middle" x="655" y="-63.5" font-family="Helvetica,sans-Serif" font-size="10.00">regex</text>
</a>
</g>
</g>
<!-- Node27&#45;&gt;Node28 -->
<g id="edge39" class="edge">
<title>Node27&#45;&gt;Node28</title>
<path fill="none" stroke="midnightblue" d="M691.73,-112.08C685.46,-104.38 676.21,-93.03 668.57,-83.65"/>
<polygon fill="midnightblue" stroke="midnightblue" points="671.16,-81.29 662.13,-75.75 665.73,-85.71 671.16,-81.29"/>
</g>
<!-- Node29 -->
<g id="node29" class="node">
<title>Node29</title>
<g id="a_node29"><a xlink:title=" ">
<polygon fill="white" stroke="#bfbfbf" points="695,-56.5 695,-75.5 739,-75.5 739,-56.5 695,-56.5"/>
<text text-anchor="middle" x="717" y="-63.5" font-family="Helvetica,sans-Serif" font-size="10.00">string</text>
</a>
</g>
</g>
<!-- Node27&#45;&gt;Node29 -->
<g id="edge40" class="edge">
<title>Node27&#45;&gt;Node29</title>
<path fill="none" stroke="midnightblue" d="M701.97,-112.08C704.38,-104.85 707.86,-94.41 710.87,-85.4"/>
<polygon fill="midnightblue" stroke="midnightblue" points="714.24,-86.34 714.08,-75.75 707.6,-84.13 714.24,-86.34"/>
</g>
<!-- Node30 -->
<g id="node30" class="node">
<title>Node30</title>
<g id="a_node30"><a xlink:title=" ">
<polygon fill="white" stroke="#bfbfbf" points="757.5,-56.5 757.5,-75.5 822.5,-75.5 822.5,-56.5 757.5,-56.5"/>
<text text-anchor="middle" x="790" y="-63.5" font-family="Helvetica,sans-Serif" font-size="10.00">typeindex</text>
</a>
</g>
</g>
<!-- Node27&#45;&gt;Node30 -->
<g id="edge41" class="edge">
<title>Node27&#45;&gt;Node30</title>
<path fill="none" stroke="midnightblue" d="M713.62,-112.32C727.95,-103.82 750.01,-90.73 766.75,-80.8"/>
<polygon fill="midnightblue" stroke="midnightblue" points="768.6,-83.77 775.42,-75.65 765.03,-77.75 768.6,-83.77"/>
</g>
<!-- Node31 -->
<g id="node31" class="node">
<title>Node31</title>
<g id="a_node31"><a xlink:title=" ">
<polygon fill="white" stroke="#bfbfbf" points="557.5,-56.5 557.5,-75.5 614.5,-75.5 614.5,-56.5 557.5,-56.5"/>
<text text-anchor="middle" x="586" y="-63.5" font-family="Helvetica,sans-Serif" font-size="10.00">typeinfo</text>
</a>
</g>
</g>
<!-- Node27&#45;&gt;Node31 -->
<g id="edge42" class="edge">
<title>Node27&#45;&gt;Node31</title>
<path fill="none" stroke="midnightblue" d="M681.09,-112.44C662.75,-103.68 633.99,-89.94 612.91,-79.86"/>
<polygon fill="midnightblue" stroke="midnightblue" points="614.35,-76.67 603.82,-75.52 611.33,-82.99 614.35,-76.67"/>
</g>
<!-- Node32&#45;&gt;Node6 -->
<g id="edge45" class="edge">
<title>Node32&#45;&gt;Node6</title>
<path fill="none" stroke="midnightblue" d="M985.62,-173.96C981.4,-159.92 971.55,-131.58 956,-112 930.57,-79.98 920.19,-73.01 883,-56 826.59,-30.2 755.23,-19.06 709.83,-14.34"/>
<polygon fill="midnightblue" stroke="midnightblue" points="710.01,-10.85 699.71,-13.35 709.33,-17.81 710.01,-10.85"/>
</g>
<!-- Node32&#45;&gt;Node20 -->
<g id="edge46" class="edge">
<title>Node32&#45;&gt;Node20</title>
<path fill="none" stroke="midnightblue" d="M998.32,-173.98C1009.65,-164.61 1028.07,-149.38 1041.84,-138.01"/>
<polygon fill="midnightblue" stroke="midnightblue" points="1044.22,-140.58 1049.7,-131.51 1039.77,-135.18 1044.22,-140.58"/>
</g>
<!-- Node32&#45;&gt;Node23 -->
<g id="edge44" class="edge">
<title>Node32&#45;&gt;Node23</title>
<path fill="none" stroke="midnightblue" d="M978.54,-173.98C968.25,-164.7 951.58,-149.67 939.01,-138.33"/>
<polygon fill="midnightblue" stroke="midnightblue" points="941.21,-135.61 931.44,-131.51 936.52,-140.8 941.21,-135.61"/>
</g>
<!-- Node33&#45;&gt;Node18 -->
<g id="edge48" class="edge">
<title>Node33&#45;&gt;Node18</title>
<path fill="none" stroke="midnightblue" d="M677.4,-291.08C670.77,-283.3 660.98,-271.8 652.94,-262.37"/>
<polygon fill="midnightblue" stroke="midnightblue" points="655.6,-260.09 646.45,-254.75 650.27,-264.63 655.6,-260.09"/>
</g>
<!-- Node33&#45;&gt;Node22 -->
<g id="edge49" class="edge">
<title>Node33&#45;&gt;Node22</title>
<path fill="none" stroke="midnightblue" d="M699.78,-291.32C714.27,-282.82 736.57,-269.73 753.49,-259.8"/>
<polygon fill="midnightblue" stroke="midnightblue" points="755.4,-262.74 762.26,-254.65 751.86,-256.7 755.4,-262.74"/>
</g>
<!-- Node34&#45;&gt;Node22 -->
<g id="edge51" class="edge">
<title>Node34&#45;&gt;Node22</title>
<path fill="none" stroke="midnightblue" d="M856.74,-291.32C841.78,-282.82 818.75,-269.73 801.27,-259.8"/>
<polygon fill="midnightblue" stroke="midnightblue" points="802.65,-256.55 792.23,-254.65 799.19,-262.64 802.65,-256.55"/>
</g>
</g>
</svg>
        <g id="navigator" transform="translate(0 0)" fill="#404254">
                <rect fill="#f2f5e9" fill-opacity="0.5" stroke="#606060" stroke-width=".5" x="0" y="0" width="60" height="60"/>
                <use id="zoomplus" xlink:href="#zoomPlus" x="17" y="9" onmousedown="handleZoom(evt,'in')"/>
                <use id="zoomminus" xlink:href="#zoomMin" x="42" y="9" onmousedown="handleZoom(evt,'out')"/>
                <use id="reset" xlink:href="#resetDef" x="30" y="36" onmousedown="handleReset()"/>
                <g id="arrowUp" xlink:href="#dirArrow" transform="translate(30 24)" onmousedown="handlePan(0,-1)">
                  <use xlink:href="#rim" fill="#404040">
                        <set attributeName="fill" to="#808080" begin="arrowUp.mouseover" end="arrowUp.mouseout"/>
                  </use>
                  <path fill="none" stroke="white" stroke-width="1.5" d="M0,-3.0v7 M-2.5,-0.5L0,-3.0L2.5,-0.5"/>
                </g>
                <g id="arrowRight" xlink:href="#dirArrow" transform="rotate(90) translate(36 -43)" onmousedown="handlePan(1,0)">
                  <use xlink:href="#rim" fill="#404040">
                        <set attributeName="fill" to="#808080" begin="arrowRight.mouseover" end="arrowRight.mouseout"/>
                  </use>
                  <path fill="none" stroke="white" stroke-width="1.5" d="M0,-3.0v7 M-2.5,-0.5L0,-3.0L2.5,-0.5"/>
                </g>
                <g id="arrowDown" xlink:href="#dirArrow" transform="rotate(180) translate(-30 -48)" onmousedown="handlePan(0,1)">
                  <use xlink:href="#rim" fill="#404040">
                        <set attributeName="fill" to="#808080" begin="arrowDown.mouseover" end="arrowDown.mouseout"/>
                  </use>
                  <path fill="none" stroke="white" stroke-width="1.5" d="M0,-3.0v7 M-2.5,-0.5L0,-3.0L2.5,-0.5"/>
                </g>
                <g id="arrowLeft" xlink:href="#dirArrow" transform="rotate(270) translate(-36 17)" onmousedown="handlePan(-1,0)">
                  <use xlink:href="#rim" fill="#404040">
                        <set attributeName="fill" to="#808080" begin="arrowLeft.mouseover" end="arrowLeft.mouseout"/>
                  </use>
                  <path fill="none" stroke="white" stroke-width="1.5" d="M0,-3.0v7 M-2.5,-0.5L0,-3.0L2.5,-0.5"/>
                </g>
        </g>
        <svg viewBox="0 0 15 15" width="100%" height="30px" preserveAspectRatio="xMaxYMin meet">
         <g id="arrow_out" transform="scale(0.3 0.3)">
          <a xlink:href="Intervals_8hpp__incl_org.svg" target="_base">
           <rect id="button" ry="5" rx="5" y="6" x="6" height="38" width="38"
                fill="#f2f5e9" fill-opacity="0.5" stroke="#606060" stroke-width="1.0"/>
           <path id="arrow"
             d="M 11.500037,31.436501 C 11.940474,20.09759 22.043105,11.32322 32.158766,21.979434 L 37.068811,17.246167 C 37.068811,17.246167 37.088388,32 37.088388,32 L 22.160133,31.978069 C 22.160133,31.978069 26.997745,27.140456 26.997745,27.140456 C 18.528582,18.264221 13.291696,25.230495 11.500037,31.436501 z"
             style="fill:#404040;"/>
          </a>
         </g>
        </svg>
</svg>
