<?xml version="1.0" encoding="UTF-8" standalone="no"?>
<!DOCTYPE svg PUBLIC "-//W3C//DTD SVG 1.1//EN"
 "http://www.w3.org/Graphics/SVG/1.1/DTD/svg11.dtd">
<!-- Generated by graphviz version 2.43.0 (0)
 -->
<!-- Title: Library/include/playrho/Intervals.hpp Pages: 1 -->
<svg width="1214pt" height="554pt"
 viewBox="0.00 0.00 1214.00 554.00" xmlns="http://www.w3.org/2000/svg" xmlns:xlink="http://www.w3.org/1999/xlink">
<g id="graph0" class="graph" transform="scale(1 1) rotate(0) translate(4 550)">
<title>Library/include/playrho/Intervals.hpp</title>
<polygon fill="white" stroke="transparent" points="-4,4 -4,-550 1210,-550 1210,4 -4,4"/>
<!-- Node1 -->
<g id="node1" class="node">
<title>Node1</title>
<g id="a_node1"><a xlink:title="Alias for an Interval of Length .">
<polygon fill="#bfbfbf" stroke="black" points="513,-515.5 513,-545.5 641,-545.5 641,-515.5 513,-515.5"/>
<text text-anchor="start" x="521" y="-533.5" font-family="Helvetica,sans-Serif" font-size="10.00">Library/include/playrho</text>
<text text-anchor="middle" x="577" y="-522.5" font-family="Helvetica,sans-Serif" font-size="10.00">/Intervals.hpp</text>
</a>
</g>
</g>
<!-- Node2 -->
<g id="node2" class="node">
<title>Node2</title>
<g id="a_node2"><a xlink:href="Interval_8hpp.html" target="_top" xlink:title="Definition of the Interval class template and closely related code.">
<polygon fill="white" stroke="black" points="352.5,-347.5 352.5,-366.5 467.5,-366.5 467.5,-347.5 352.5,-347.5"/>
<text text-anchor="middle" x="410" y="-354.5" font-family="Helvetica,sans-Serif" font-size="10.00">playrho/Interval.hpp</text>
</a>
</g>
</g>
<!-- Node1&#45;&gt;Node2 -->
<g id="edge1" class="edge">
<title>Node1&#45;&gt;Node2</title>
<path fill="none" stroke="midnightblue" d="M563.33,-515.47C532.6,-483.9 458.17,-407.47 425.65,-374.07"/>
<polygon fill="midnightblue" stroke="midnightblue" points="427.82,-371.28 418.34,-366.56 422.8,-376.17 427.82,-371.28"/>
</g>
<!-- Node18 -->
<g id="node18" class="node">
<title>Node18</title>
<g id="a_node18"><a xlink:href="Units_8hpp.html" target="_top" xlink:title="Declarations for physical units possibly backed by strong types.">
<polygon fill="white" stroke="black" points="644.5,-459.5 644.5,-478.5 747.5,-478.5 747.5,-459.5 644.5,-459.5"/>
<text text-anchor="middle" x="696" y="-466.5" font-family="Helvetica,sans-Serif" font-size="10.00">playrho/Units.hpp</text>
</a>
</g>
</g>
<!-- Node1&#45;&gt;Node18 -->
<g id="edge23" class="edge">
<title>Node1&#45;&gt;Node18</title>
<path fill="none" stroke="midnightblue" d="M605.2,-515.4C624.72,-505.64 650.53,-492.74 669.63,-483.18"/>
<polygon fill="midnightblue" stroke="midnightblue" points="671.31,-486.26 678.68,-478.66 668.17,-480 671.31,-486.26"/>
</g>
<!-- Node3 -->
<g id="node3" class="node">
<title>Node3</title>
<g id="a_node3"><a xlink:title=" ">
<polygon fill="white" stroke="#bfbfbf" points="0,-0.5 0,-19.5 64,-19.5 64,-0.5 0,-0.5"/>
<text text-anchor="middle" x="32" y="-7.5" font-family="Helvetica,sans-Serif" font-size="10.00">algorithm</text>
</a>
</g>
</g>
<!-- Node2&#45;&gt;Node3 -->
<g id="edge2" class="edge">
<title>Node2&#45;&gt;Node3</title>
<path fill="none" stroke="midnightblue" d="M352.23,-355.29C292.39,-352.68 197.25,-343.21 122,-311 74.64,-290.73 30,-292.01 30,-240.5 30,-240.5 30,-240.5 30,-121 30,-88.94 30.86,-51.64 31.45,-29.75"/>
<polygon fill="midnightblue" stroke="midnightblue" points="34.96,-29.65 31.74,-19.56 27.96,-29.45 34.96,-29.65"/>
</g>
<!-- Node4 -->
<g id="node4" class="node">
<title>Node4</title>
<g id="a_node4"><a xlink:title=" ">
<polygon fill="white" stroke="#bfbfbf" points="84,-0.5 84,-19.5 128,-19.5 128,-0.5 84,-0.5"/>
<text text-anchor="middle" x="106" y="-7.5" font-family="Helvetica,sans-Serif" font-size="10.00">limits</text>
</a>
</g>
</g>
<!-- Node2&#45;&gt;Node4 -->
<g id="edge3" class="edge">
<title>Node2&#45;&gt;Node4</title>
<path fill="none" stroke="midnightblue" d="M352.37,-348.63C254.9,-334.55 68,-299.8 68,-240.5 68,-240.5 68,-240.5 68,-121 68,-86.81 84.6,-49.76 95.86,-28.57"/>
<polygon fill="midnightblue" stroke="midnightblue" points="98.95,-30.22 100.72,-19.77 92.82,-26.83 98.95,-30.22"/>
</g>
<!-- Node5 -->
<g id="node5" class="node">
<title>Node5</title>
<g id="a_node5"><a xlink:title=" ">
<polygon fill="white" stroke="#bfbfbf" points="424,-112.5 424,-131.5 484,-131.5 484,-112.5 424,-112.5"/>
<text text-anchor="middle" x="454" y="-119.5" font-family="Helvetica,sans-Serif" font-size="10.00">iostream</text>
</a>
</g>
</g>
<!-- Node2&#45;&gt;Node5 -->
<g id="edge4" class="edge">
<title>Node2&#45;&gt;Node5</title>
<path fill="none" stroke="midnightblue" d="M417.7,-347.43C424.88,-338.88 435.18,-325.03 440,-311 460.36,-251.77 458.11,-176.04 455.67,-141.57"/>
<polygon fill="midnightblue" stroke="midnightblue" points="459.15,-141.24 454.87,-131.55 452.17,-141.8 459.15,-141.24"/>
</g>
<!-- Node6 -->
<g id="node6" class="node">
<title>Node6</title>
<g id="a_node6"><a xlink:title=" ">
<polygon fill="white" stroke="#bfbfbf" points="734.5,-0.5 734.5,-19.5 803.5,-19.5 803.5,-0.5 734.5,-0.5"/>
<text text-anchor="middle" x="769" y="-7.5" font-family="Helvetica,sans-Serif" font-size="10.00">type_traits</text>
</a>
</g>
</g>
<!-- Node2&#45;&gt;Node6 -->
<g id="edge5" class="edge">
<title>Node2&#45;&gt;Node6</title>
<path fill="none" stroke="midnightblue" d="M467.52,-353.7C540.78,-347.34 658,-324.09 658,-240.5 658,-240.5 658,-240.5 658,-177 658,-153.59 631.46,-99.16 628,-76 626.69,-67.21 622.76,-63.18 628,-56 649.82,-26.14 691.67,-15.63 724.13,-12.15"/>
<polygon fill="midnightblue" stroke="midnightblue" points="724.65,-15.62 734.31,-11.25 724.04,-8.65 724.65,-15.62"/>
</g>
<!-- Node7 -->
<g id="node7" class="node">
<title>Node7</title>
<g id="a_node7"><a xlink:href="NonNegative_8hpp.html" target="_top" xlink:title="Definition of the NonNegative value checked types.">
<polygon fill="white" stroke="black" points="289.5,-291.5 289.5,-310.5 430.5,-310.5 430.5,-291.5 289.5,-291.5"/>
<text text-anchor="middle" x="360" y="-298.5" font-family="Helvetica,sans-Serif" font-size="10.00">playrho/NonNegative.hpp</text>
</a>
</g>
</g>
<!-- Node2&#45;&gt;Node7 -->
<g id="edge6" class="edge">
<title>Node2&#45;&gt;Node7</title>
<path fill="none" stroke="midnightblue" d="M401.74,-347.08C394.54,-339.3 383.89,-327.8 375.15,-318.37"/>
<polygon fill="midnightblue" stroke="midnightblue" points="377.47,-315.71 368.1,-310.75 372.33,-320.47 377.47,-315.71"/>
</g>
<!-- Node8 -->
<g id="node8" class="node">
<title>Node8</title>
<g id="a_node8"><a xlink:href="NonNegativeChecker_8hpp.html" target="_top" xlink:title="Definition of the NonNegativeChecker class template.">
<polygon fill="white" stroke="black" points="281.5,-224.5 281.5,-254.5 432.5,-254.5 432.5,-224.5 281.5,-224.5"/>
<text text-anchor="start" x="289.5" y="-242.5" font-family="Helvetica,sans-Serif" font-size="10.00">playrho/detail/NonNegative</text>
<text text-anchor="middle" x="357" y="-231.5" font-family="Helvetica,sans-Serif" font-size="10.00">Checker.hpp</text>
</a>
</g>
</g>
<!-- Node7&#45;&gt;Node8 -->
<g id="edge7" class="edge">
<title>Node7&#45;&gt;Node8</title>
<path fill="none" stroke="midnightblue" d="M359.57,-291.48C359.22,-284.47 358.7,-274.19 358.22,-264.7"/>
<polygon fill="midnightblue" stroke="midnightblue" points="361.71,-264.33 357.71,-254.52 354.72,-264.69 361.71,-264.33"/>
</g>
<!-- Node9 -->
<g id="node9" class="node">
<title>Node9</title>
<g id="a_node9"><a xlink:href="Checked_8hpp.html" target="_top" xlink:title="Declarations of the Checked class template and closely related code.">
<polygon fill="white" stroke="black" points="283.5,-168.5 283.5,-187.5 432.5,-187.5 432.5,-168.5 283.5,-168.5"/>
<text text-anchor="middle" x="358" y="-175.5" font-family="Helvetica,sans-Serif" font-size="10.00">playrho/detail/Checked.hpp</text>
</a>
</g>
</g>
<!-- Node8&#45;&gt;Node9 -->
<g id="edge8" class="edge">
<title>Node8&#45;&gt;Node9</title>
<path fill="none" stroke="midnightblue" d="M357.24,-224.4C357.37,-216.47 357.54,-206.46 357.68,-197.86"/>
<polygon fill="midnightblue" stroke="midnightblue" points="361.19,-197.72 357.85,-187.66 354.19,-197.6 361.19,-197.72"/>
</g>
<!-- Node9&#45;&gt;Node5 -->
<g id="edge9" class="edge">
<title>Node9&#45;&gt;Node5</title>
<path fill="none" stroke="midnightblue" d="M373.42,-168.32C388.54,-159.82 411.82,-146.73 429.47,-136.8"/>
<polygon fill="midnightblue" stroke="midnightblue" points="431.61,-139.61 438.61,-131.65 428.18,-133.51 431.61,-139.61"/>
</g>
<!-- Node9&#45;&gt;Node6 -->
<g id="edge11" class="edge">
<title>Node9&#45;&gt;Node6</title>
<path fill="none" stroke="midnightblue" d="M359.4,-168.43C362.14,-154.48 369.53,-126.93 387,-112 393.56,-106.39 626.17,-47.11 725.14,-22.07"/>
<polygon fill="midnightblue" stroke="midnightblue" points="726.29,-25.39 735.13,-19.54 724.58,-18.6 726.29,-25.39"/>
</g>
<!-- Node10 -->
<g id="node10" class="node">
<title>Node10</title>
<g id="a_node10"><a xlink:title=" ">
<polygon fill="white" stroke="#bfbfbf" points="637,-56.5 637,-75.5 681,-75.5 681,-56.5 637,-56.5"/>
<text text-anchor="middle" x="659" y="-63.5" font-family="Helvetica,sans-Serif" font-size="10.00">string</text>
</a>
</g>
</g>
<!-- Node9&#45;&gt;Node10 -->
<g id="edge10" class="edge">
<title>Node9&#45;&gt;Node10</title>
<path fill="none" stroke="midnightblue" d="M363.01,-168.17C371.64,-153.85 390.73,-125.79 415,-112 450.79,-91.67 569.12,-76.62 626.81,-70.29"/>
<polygon fill="midnightblue" stroke="midnightblue" points="627.28,-73.76 636.84,-69.21 626.53,-66.8 627.28,-73.76"/>
</g>
<!-- Node11 -->
<g id="node11" class="node">
<title>Node11</title>
<g id="a_node11"><a xlink:title=" ">
<polygon fill="white" stroke="#bfbfbf" points="307.5,-0.5 307.5,-19.5 352.5,-19.5 352.5,-0.5 307.5,-0.5"/>
<text text-anchor="middle" x="330" y="-7.5" font-family="Helvetica,sans-Serif" font-size="10.00">utility</text>
</a>
</g>
</g>
<!-- Node9&#45;&gt;Node11 -->
<g id="edge12" class="edge">
<title>Node9&#45;&gt;Node11</title>
<path fill="none" stroke="midnightblue" d="M354.83,-168.5C351.62,-159.54 346.74,-144.97 344,-132 336.44,-96.26 332.71,-53.66 331.08,-29.73"/>
<polygon fill="midnightblue" stroke="midnightblue" points="334.56,-29.36 330.44,-19.6 327.58,-29.8 334.56,-29.36"/>
</g>
<!-- Node12 -->
<g id="node12" class="node">
<title>Node12</title>
<g id="a_node12"><a xlink:href="InvalidArgument_8hpp.html" target="_top" xlink:title="Definition of the InvalidArgument class.">
<polygon fill="white" stroke="black" points="134,-112.5 134,-131.5 292,-131.5 292,-112.5 134,-112.5"/>
<text text-anchor="middle" x="213" y="-119.5" font-family="Helvetica,sans-Serif" font-size="10.00">playrho/InvalidArgument.hpp</text>
</a>
</g>
</g>
<!-- Node9&#45;&gt;Node12 -->
<g id="edge13" class="edge">
<title>Node9&#45;&gt;Node12</title>
<path fill="none" stroke="midnightblue" d="M335.02,-168.44C310.84,-159.44 272.58,-145.19 245.35,-135.05"/>
<polygon fill="midnightblue" stroke="midnightblue" points="246.46,-131.73 235.87,-131.52 244.02,-138.29 246.46,-131.73"/>
</g>
<!-- Node14 -->
<g id="node14" class="node">
<title>Node14</title>
<g id="a_node14"><a xlink:href="Templates_8hpp.html" target="_top" xlink:title="Definitions of miscellaneous template related code.">
<polygon fill="white" stroke="black" points="502,-112.5 502,-131.5 630,-131.5 630,-112.5 502,-112.5"/>
<text text-anchor="middle" x="566" y="-119.5" font-family="Helvetica,sans-Serif" font-size="10.00">playrho/Templates.hpp</text>
</a>
</g>
</g>
<!-- Node9&#45;&gt;Node14 -->
<g id="edge15" class="edge">
<title>Node9&#45;&gt;Node14</title>
<path fill="none" stroke="midnightblue" d="M390.96,-168.44C426.79,-159.14 484.16,-144.25 523.39,-134.06"/>
<polygon fill="midnightblue" stroke="midnightblue" points="524.4,-137.42 533.2,-131.52 522.64,-130.64 524.4,-137.42"/>
</g>
<!-- Node13 -->
<g id="node13" class="node">
<title>Node13</title>
<g id="a_node13"><a xlink:title=" ">
<polygon fill="white" stroke="#bfbfbf" points="180.5,-56.5 180.5,-75.5 245.5,-75.5 245.5,-56.5 180.5,-56.5"/>
<text text-anchor="middle" x="213" y="-63.5" font-family="Helvetica,sans-Serif" font-size="10.00">stdexcept</text>
</a>
</g>
</g>
<!-- Node12&#45;&gt;Node13 -->
<g id="edge14" class="edge">
<title>Node12&#45;&gt;Node13</title>
<path fill="none" stroke="midnightblue" d="M213,-112.08C213,-105.01 213,-94.86 213,-85.99"/>
<polygon fill="midnightblue" stroke="midnightblue" points="216.5,-85.75 213,-75.75 209.5,-85.75 216.5,-85.75"/>
</g>
<!-- Node15 -->
<g id="node15" class="node">
<title>Node15</title>
<g id="a_node15"><a xlink:href="detail_2Templates_8hpp.html" target="_top" xlink:title="Low&#45;level declarations for general class &amp; function templates.">
<polygon fill="white" stroke="black" points="348,-56.5 348,-75.5 506,-75.5 506,-56.5 348,-56.5"/>
<text text-anchor="middle" x="427" y="-63.5" font-family="Helvetica,sans-Serif" font-size="10.00">playrho/detail/Templates.hpp</text>
</a>
</g>
</g>
<!-- Node14&#45;&gt;Node15 -->
<g id="edge16" class="edge">
<title>Node14&#45;&gt;Node15</title>
<path fill="none" stroke="midnightblue" d="M543.98,-112.44C520.9,-103.48 484.44,-89.31 458.36,-79.18"/>
<polygon fill="midnightblue" stroke="midnightblue" points="459.51,-75.88 448.92,-75.52 456.98,-82.4 459.51,-75.88"/>
</g>
<!-- Node15&#45;&gt;Node3 -->
<g id="edge17" class="edge">
<title>Node15&#45;&gt;Node3</title>
<path fill="none" stroke="midnightblue" d="M347.75,-56.68C276.23,-48.75 168.26,-35.7 75,-20 74.78,-19.96 74.57,-19.93 74.35,-19.89"/>
<polygon fill="midnightblue" stroke="midnightblue" points="74.82,-16.42 64.35,-18.06 73.55,-23.3 74.82,-16.42"/>
</g>
<!-- Node15&#45;&gt;Node4 -->
<g id="edge20" class="edge">
<title>Node15&#45;&gt;Node4</title>
<path fill="none" stroke="midnightblue" d="M376.14,-56.44C309.37,-45.21 194.13,-25.82 138.24,-16.42"/>
<polygon fill="midnightblue" stroke="midnightblue" points="138.65,-12.94 128.21,-14.74 137.49,-19.85 138.65,-12.94"/>
</g>
<!-- Node15&#45;&gt;Node6 -->
<g id="edge21" class="edge">
<title>Node15&#45;&gt;Node6</title>
<path fill="none" stroke="midnightblue" d="M481.19,-56.44C548.45,-45.82 661.91,-27.91 724.39,-18.04"/>
<polygon fill="midnightblue" stroke="midnightblue" points="725,-21.49 734.33,-16.47 723.91,-14.58 725,-21.49"/>
</g>
<!-- Node15&#45;&gt;Node11 -->
<g id="edge22" class="edge">
<title>Node15&#45;&gt;Node11</title>
<path fill="none" stroke="midnightblue" d="M411.42,-56.32C396,-47.74 372.19,-34.49 354.29,-24.52"/>
<polygon fill="midnightblue" stroke="midnightblue" points="355.99,-21.46 345.55,-19.65 352.58,-27.58 355.99,-21.46"/>
</g>
<!-- Node16 -->
<g id="node16" class="node">
<title>Node16</title>
<g id="a_node16"><a xlink:title=" ">
<polygon fill="white" stroke="#bfbfbf" points="451.5,-0.5 451.5,-19.5 516.5,-19.5 516.5,-0.5 451.5,-0.5"/>
<text text-anchor="middle" x="484" y="-7.5" font-family="Helvetica,sans-Serif" font-size="10.00">functional</text>
</a>
</g>
</g>
<!-- Node15&#45;&gt;Node16 -->
<g id="edge18" class="edge">
<title>Node15&#45;&gt;Node16</title>
<path fill="none" stroke="midnightblue" d="M436.16,-56.32C444.5,-48.42 457.03,-36.55 467.18,-26.94"/>
<polygon fill="midnightblue" stroke="midnightblue" points="469.82,-29.25 474.68,-19.83 465.01,-24.17 469.82,-29.25"/>
</g>
<!-- Node17 -->
<g id="node17" class="node">
<title>Node17</title>
<g id="a_node17"><a xlink:title=" ">
<polygon fill="white" stroke="#bfbfbf" points="380.5,-0.5 380.5,-19.5 433.5,-19.5 433.5,-0.5 380.5,-0.5"/>
<text text-anchor="middle" x="407" y="-7.5" font-family="Helvetica,sans-Serif" font-size="10.00">iterator</text>
</a>
</g>
</g>
<!-- Node15&#45;&gt;Node17 -->
<g id="edge19" class="edge">
<title>Node15&#45;&gt;Node17</title>
<path fill="none" stroke="midnightblue" d="M423.7,-56.08C421.02,-48.85 417.15,-38.41 413.81,-29.4"/>
<polygon fill="midnightblue" stroke="midnightblue" points="417,-27.91 410.24,-19.75 410.43,-30.34 417,-27.91"/>
</g>
<!-- Node18&#45;&gt;Node6 -->
<g id="edge25" class="edge">
<title>Node18&#45;&gt;Node6</title>
<path fill="none" stroke="midnightblue" d="M747.71,-467.71C877.36,-465.6 1206,-451.07 1206,-358 1206,-358 1206,-358 1206,-121 1206,-40.76 925.41,-18.48 813.9,-12.8"/>
<polygon fill="midnightblue" stroke="midnightblue" points="813.81,-9.29 803.66,-12.3 813.47,-16.28 813.81,-9.29"/>
</g>
<!-- Node18&#45;&gt;Node14 -->
<g id="edge53" class="edge">
<title>Node18&#45;&gt;Node14</title>
<path fill="none" stroke="midnightblue" d="M661.13,-459.4C616.25,-446 544,-415.49 544,-358 544,-358 544,-358 544,-238.5 544,-203.59 553.82,-163.78 560.34,-141.19"/>
<polygon fill="midnightblue" stroke="midnightblue" points="563.7,-142.17 563.21,-131.59 556.99,-140.16 563.7,-142.17"/>
</g>
<!-- Node19 -->
<g id="node19" class="node">
<title>Node19</title>
<g id="a_node19"><a xlink:title=" ">
<polygon fill="white" stroke="#bfbfbf" points="719.5,-230 719.5,-249 766.5,-249 766.5,-230 719.5,-230"/>
<text text-anchor="middle" x="743" y="-237" font-family="Helvetica,sans-Serif" font-size="10.00">cmath</text>
</a>
</g>
</g>
<!-- Node18&#45;&gt;Node19 -->
<g id="edge24" class="edge">
<title>Node18&#45;&gt;Node19</title>
<path fill="none" stroke="midnightblue" d="M695.73,-459.28C695.17,-433.1 695.32,-353.17 715,-291 718.72,-279.24 725.33,-267.13 731.19,-257.71"/>
<polygon fill="midnightblue" stroke="midnightblue" points="734.14,-259.59 736.67,-249.31 728.28,-255.77 734.14,-259.59"/>
</g>
<!-- Node20 -->
<g id="node20" class="node">
<title>Node20</title>
<g id="a_node20"><a xlink:href="RealConstants_8hpp.html" target="_top" xlink:title="Definitions file for constant expressions of type Real.">
<polygon fill="white" stroke="black" points="806,-403.5 806,-422.5 954,-422.5 954,-403.5 806,-403.5"/>
<text text-anchor="middle" x="880" y="-410.5" font-family="Helvetica,sans-Serif" font-size="10.00">playrho/RealConstants.hpp</text>
</a>
</g>
</g>
<!-- Node18&#45;&gt;Node20 -->
<g id="edge26" class="edge">
<title>Node18&#45;&gt;Node20</title>
<path fill="none" stroke="midnightblue" d="M725.16,-459.44C756.51,-450.24 806.53,-435.56 841.2,-425.39"/>
<polygon fill="midnightblue" stroke="midnightblue" points="842.37,-428.69 850.98,-422.52 840.4,-421.97 842.37,-428.69"/>
</g>
<!-- Node21 -->
<g id="node21" class="node">
<title>Node21</title>
<g id="a_node21"><a xlink:href="Defines_8hpp.html" target="_top" xlink:title="Miscellaneous C&#45;preprocessor definitions.">
<polygon fill="white" stroke="black" points="1064,-112.5 1064,-131.5 1178,-131.5 1178,-112.5 1064,-112.5"/>
<text text-anchor="middle" x="1121" y="-119.5" font-family="Helvetica,sans-Serif" font-size="10.00">playrho/Defines.hpp</text>
</a>
</g>
</g>
<!-- Node20&#45;&gt;Node21 -->
<g id="edge27" class="edge">
<title>Node20&#45;&gt;Node21</title>
<path fill="none" stroke="midnightblue" d="M930.17,-403.49C1012.68,-388.05 1168,-352.31 1168,-302 1168,-302 1168,-302 1168,-238.5 1168,-206.05 1161.93,-197.76 1149,-168 1144.74,-158.19 1138.57,-148.01 1133.11,-139.82"/>
<polygon fill="midnightblue" stroke="midnightblue" points="1135.95,-137.77 1127.38,-131.54 1130.2,-141.76 1135.95,-137.77"/>
</g>
<!-- Node22 -->
<g id="node22" class="node">
<title>Node22</title>
<g id="a_node22"><a xlink:href="Real_8hpp.html" target="_top" xlink:title="Real number definition file.">
<polygon fill="white" stroke="black" points="830.5,-347.5 830.5,-366.5 929.5,-366.5 929.5,-347.5 830.5,-347.5"/>
<text text-anchor="middle" x="880" y="-354.5" font-family="Helvetica,sans-Serif" font-size="10.00">playrho/Real.hpp</text>
</a>
</g>
</g>
<!-- Node20&#45;&gt;Node22 -->
<g id="edge28" class="edge">
<title>Node20&#45;&gt;Node22</title>
<path fill="none" stroke="midnightblue" d="M880,-403.08C880,-396.01 880,-385.86 880,-376.99"/>
<polygon fill="midnightblue" stroke="midnightblue" points="883.5,-376.75 880,-366.75 876.5,-376.75 883.5,-376.75"/>
</g>
<!-- Node23 -->
<g id="node23" class="node">
<title>Node23</title>
<g id="a_node23"><a xlink:href="Fixed_8hpp.html" target="_top" xlink:title="Definition of the Fixed class and closely related code.">
<polygon fill="white" stroke="black" points="816.5,-230 816.5,-249 919.5,-249 919.5,-230 816.5,-230"/>
<text text-anchor="middle" x="868" y="-237" font-family="Helvetica,sans-Serif" font-size="10.00">playrho/Fixed.hpp</text>
</a>
</g>
</g>
<!-- Node22&#45;&gt;Node23 -->
<g id="edge29" class="edge">
<title>Node22&#45;&gt;Node23</title>
<path fill="none" stroke="midnightblue" d="M879.1,-347.32C877.17,-328.76 872.61,-284.84 869.97,-259.47"/>
<polygon fill="midnightblue" stroke="midnightblue" points="873.43,-258.87 868.91,-249.28 866.46,-259.59 873.43,-258.87"/>
</g>
<!-- Node33 -->
<g id="node33" class="node">
<title>Node33</title>
<g id="a_node33"><a xlink:href="FixedMath_8hpp.html" target="_top" xlink:title="Conventional math functions for the Fixed class template.">
<polygon fill="white" stroke="black" points="724,-291.5 724,-310.5 852,-310.5 852,-291.5 724,-291.5"/>
<text text-anchor="middle" x="788" y="-298.5" font-family="Helvetica,sans-Serif" font-size="10.00">playrho/FixedMath.hpp</text>
</a>
</g>
</g>
<!-- Node22&#45;&gt;Node33 -->
<g id="edge48" class="edge">
<title>Node22&#45;&gt;Node33</title>
<path fill="none" stroke="midnightblue" d="M865.22,-347.32C850.73,-338.82 828.43,-325.73 811.51,-315.8"/>
<polygon fill="midnightblue" stroke="midnightblue" points="813.14,-312.7 802.74,-310.65 809.6,-318.74 813.14,-312.7"/>
</g>
<!-- Node34 -->
<g id="node34" class="node">
<title>Node34</title>
<g id="a_node34"><a xlink:href="FixedLimits_8hpp.html" target="_top" xlink:title="Specialization of std::numeric_limits for Fixed.">
<polygon fill="white" stroke="black" points="908.5,-291.5 908.5,-310.5 1041.5,-310.5 1041.5,-291.5 908.5,-291.5"/>
<text text-anchor="middle" x="975" y="-298.5" font-family="Helvetica,sans-Serif" font-size="10.00">playrho/FixedLimits.hpp</text>
</a>
</g>
</g>
<!-- Node22&#45;&gt;Node34 -->
<g id="edge51" class="edge">
<title>Node22&#45;&gt;Node34</title>
<path fill="none" stroke="midnightblue" d="M895.26,-347.32C910.22,-338.82 933.25,-325.73 950.73,-315.8"/>
<polygon fill="midnightblue" stroke="midnightblue" points="952.81,-318.64 959.77,-310.65 949.35,-312.55 952.81,-318.64"/>
</g>
<!-- Node23&#45;&gt;Node4 -->
<g id="edge31" class="edge">
<title>Node23&#45;&gt;Node4</title>
<path fill="none" stroke="midnightblue" d="M818.93,-229.98C805.08,-227.79 789.98,-225.6 776,-224 554.21,-198.6 493.12,-235.52 275,-188 205.47,-172.85 170,-187.13 125,-132 101.1,-102.73 101.23,-55.79 103.54,-29.82"/>
<polygon fill="midnightblue" stroke="midnightblue" points="107.03,-30.11 104.64,-19.79 100.07,-29.35 107.03,-30.11"/>
</g>
<!-- Node23&#45;&gt;Node5 -->
<g id="edge34" class="edge">
<title>Node23&#45;&gt;Node5</title>
<path fill="none" stroke="midnightblue" d="M826.72,-229.97C783.05,-220.69 712.26,-204.9 652,-188 593.52,-171.6 526.58,-148.75 487.44,-134.97"/>
<polygon fill="midnightblue" stroke="midnightblue" points="488.47,-131.62 477.87,-131.59 486.13,-138.22 488.47,-131.62"/>
</g>
<!-- Node23&#45;&gt;Node6 -->
<g id="edge33" class="edge">
<title>Node23&#45;&gt;Node6</title>
<path fill="none" stroke="midnightblue" d="M872.9,-229.74C882.52,-211.98 903.59,-170.17 911,-132 917.44,-98.84 930.95,-83.25 911,-56 888.94,-25.87 846.6,-15.42 813.87,-12.02"/>
<polygon fill="midnightblue" stroke="midnightblue" points="813.88,-8.51 803.62,-11.15 813.29,-15.49 813.88,-8.51"/>
</g>
<!-- Node23&#45;&gt;Node14 -->
<g id="edge35" class="edge">
<title>Node23&#45;&gt;Node14</title>
<path fill="none" stroke="midnightblue" d="M834.75,-229.97C800.87,-220.91 747.07,-205.51 702,-188 662.24,-172.55 617.98,-150.43 591.07,-136.39"/>
<polygon fill="midnightblue" stroke="midnightblue" points="592.46,-133.17 581.98,-131.61 589.2,-139.36 592.46,-133.17"/>
</g>
<!-- Node24 -->
<g id="node24" class="node">
<title>Node24</title>
<g id="a_node24"><a xlink:title=" ">
<polygon fill="white" stroke="#bfbfbf" points="958,-112.5 958,-131.5 1008,-131.5 1008,-112.5 958,-112.5"/>
<text text-anchor="middle" x="983" y="-119.5" font-family="Helvetica,sans-Serif" font-size="10.00">cstdint</text>
</a>
</g>
</g>
<!-- Node23&#45;&gt;Node24 -->
<g id="edge30" class="edge">
<title>Node23&#45;&gt;Node24</title>
<path fill="none" stroke="midnightblue" d="M874.08,-229.72C883.92,-215.82 904.32,-188.27 925,-168 936.46,-156.77 950.68,-145.7 962.17,-137.35"/>
<polygon fill="midnightblue" stroke="midnightblue" points="964.21,-140.19 970.33,-131.54 960.15,-134.49 964.21,-140.19"/>
</g>
<!-- Node25 -->
<g id="node25" class="node">
<title>Node25</title>
<g id="a_node25"><a xlink:title=" ">
<polygon fill="white" stroke="#bfbfbf" points="1088,-168.5 1088,-187.5 1140,-187.5 1140,-168.5 1088,-168.5"/>
<text text-anchor="middle" x="1114" y="-175.5" font-family="Helvetica,sans-Serif" font-size="10.00">cassert</text>
</a>
</g>
</g>
<!-- Node23&#45;&gt;Node25 -->
<g id="edge32" class="edge">
<title>Node23&#45;&gt;Node25</title>
<path fill="none" stroke="midnightblue" d="M904.64,-229.93C944.78,-220.49 1011.34,-204.72 1077.83,-188.26"/>
<polygon fill="midnightblue" stroke="midnightblue" points="1078.78,-191.63 1087.64,-185.83 1077.09,-184.84 1078.78,-191.63"/>
</g>
<!-- Node26 -->
<g id="node26" class="node">
<title>Node26</title>
<g id="a_node26"><a xlink:href="TypeInfo_8hpp.html" target="_top" xlink:title="Definition of TypeID class and closely related code.">
<polygon fill="white" stroke="black" points="710.5,-168.5 710.5,-187.5 829.5,-187.5 829.5,-168.5 710.5,-168.5"/>
<text text-anchor="middle" x="770" y="-175.5" font-family="Helvetica,sans-Serif" font-size="10.00">playrho/TypeInfo.hpp</text>
</a>
</g>
</g>
<!-- Node23&#45;&gt;Node26 -->
<g id="edge36" class="edge">
<title>Node23&#45;&gt;Node26</title>
<path fill="none" stroke="midnightblue" d="M853.96,-229.98C837.95,-220.25 811.55,-204.23 792.63,-192.74"/>
<polygon fill="midnightblue" stroke="midnightblue" points="794.38,-189.71 784.01,-187.51 790.75,-195.69 794.38,-189.71"/>
</g>
<!-- Node32 -->
<g id="node32" class="node">
<title>Node32</title>
<g id="a_node32"><a xlink:href="Wider_8hpp.html" target="_top" xlink:title="Definition of the Wider class template and specializations.">
<polygon fill="white" stroke="black" points="934,-168.5 934,-187.5 1070,-187.5 1070,-168.5 934,-168.5"/>
<text text-anchor="middle" x="1002" y="-175.5" font-family="Helvetica,sans-Serif" font-size="10.00">playrho/detail/Wider.hpp</text>
</a>
</g>
</g>
<!-- Node23&#45;&gt;Node32 -->
<g id="edge44" class="edge">
<title>Node23&#45;&gt;Node32</title>
<path fill="none" stroke="midnightblue" d="M887.2,-229.98C909.79,-219.95 947.5,-203.2 973.5,-191.65"/>
<polygon fill="midnightblue" stroke="midnightblue" points="975.12,-194.77 982.84,-187.51 972.28,-188.37 975.12,-194.77"/>
</g>
<!-- Node26&#45;&gt;Node14 -->
<g id="edge38" class="edge">
<title>Node26&#45;&gt;Node14</title>
<path fill="none" stroke="midnightblue" d="M737.68,-168.44C702.61,-159.16 646.5,-144.31 608.04,-134.13"/>
<polygon fill="midnightblue" stroke="midnightblue" points="608.74,-130.69 598.17,-131.52 606.94,-137.46 608.74,-130.69"/>
</g>
<!-- Node27 -->
<g id="node27" class="node">
<title>Node27</title>
<g id="a_node27"><a xlink:title=" ">
<polygon fill="white" stroke="#bfbfbf" points="852,-112.5 852,-131.5 902,-131.5 902,-112.5 852,-112.5"/>
<text text-anchor="middle" x="877" y="-119.5" font-family="Helvetica,sans-Serif" font-size="10.00">cstring</text>
</a>
</g>
</g>
<!-- Node26&#45;&gt;Node27 -->
<g id="edge37" class="edge">
<title>Node26&#45;&gt;Node27</title>
<path fill="none" stroke="midnightblue" d="M787.19,-168.32C804.35,-159.66 830.95,-146.24 850.75,-136.25"/>
<polygon fill="midnightblue" stroke="midnightblue" points="852.5,-139.28 859.85,-131.65 849.35,-133.04 852.5,-139.28"/>
</g>
<!-- Node28 -->
<g id="node28" class="node">
<title>Node28</title>
<g id="a_node28"><a xlink:href="detail_2TypeInfo_8hpp.html" target="_top" xlink:title="Definition of TypeInfo class template and related code.">
<polygon fill="white" stroke="black" points="685.5,-112.5 685.5,-131.5 834.5,-131.5 834.5,-112.5 685.5,-112.5"/>
<text text-anchor="middle" x="760" y="-119.5" font-family="Helvetica,sans-Serif" font-size="10.00">playrho/detail/TypeInfo.hpp</text>
</a>
</g>
</g>
<!-- Node26&#45;&gt;Node28 -->
<g id="edge39" class="edge">
<title>Node26&#45;&gt;Node28</title>
<path fill="none" stroke="midnightblue" d="M768.35,-168.08C767.02,-160.93 765.12,-150.64 763.46,-141.69"/>
<polygon fill="midnightblue" stroke="midnightblue" points="766.88,-140.95 761.62,-131.75 760,-142.22 766.88,-140.95"/>
</g>
<!-- Node28&#45;&gt;Node10 -->
<g id="edge41" class="edge">
<title>Node28&#45;&gt;Node10</title>
<path fill="none" stroke="midnightblue" d="M743.77,-112.32C727.65,-103.7 702.7,-90.36 684.04,-80.39"/>
<polygon fill="midnightblue" stroke="midnightblue" points="685.66,-77.28 675.19,-75.65 682.36,-83.46 685.66,-77.28"/>
</g>
<!-- Node29 -->
<g id="node29" class="node">
<title>Node29</title>
<g id="a_node29"><a xlink:title=" ">
<polygon fill="white" stroke="#bfbfbf" points="699,-56.5 699,-75.5 743,-75.5 743,-56.5 699,-56.5"/>
<text text-anchor="middle" x="721" y="-63.5" font-family="Helvetica,sans-Serif" font-size="10.00">regex</text>
</a>
</g>
</g>
<!-- Node28&#45;&gt;Node29 -->
<g id="edge40" class="edge">
<title>Node28&#45;&gt;Node29</title>
<path fill="none" stroke="midnightblue" d="M753.56,-112.08C748.05,-104.46 739.97,-93.26 733.24,-83.94"/>
<polygon fill="midnightblue" stroke="midnightblue" points="736.01,-81.81 727.32,-75.75 730.34,-85.91 736.01,-81.81"/>
</g>
<!-- Node30 -->
<g id="node30" class="node">
<title>Node30</title>
<g id="a_node30"><a xlink:title=" ">
<polygon fill="white" stroke="#bfbfbf" points="761.5,-56.5 761.5,-75.5 826.5,-75.5 826.5,-56.5 761.5,-56.5"/>
<text text-anchor="middle" x="794" y="-63.5" font-family="Helvetica,sans-Serif" font-size="10.00">typeindex</text>
</a>
</g>
</g>
<!-- Node28&#45;&gt;Node30 -->
<g id="edge42" class="edge">
<title>Node28&#45;&gt;Node30</title>
<path fill="none" stroke="midnightblue" d="M765.61,-112.08C770.37,-104.53 777.32,-93.49 783.15,-84.23"/>
<polygon fill="midnightblue" stroke="midnightblue" points="786.12,-86.08 788.49,-75.75 780.2,-82.35 786.12,-86.08"/>
</g>
<!-- Node31 -->
<g id="node31" class="node">
<title>Node31</title>
<g id="a_node31"><a xlink:title=" ">
<polygon fill="white" stroke="#bfbfbf" points="844.5,-56.5 844.5,-75.5 901.5,-75.5 901.5,-56.5 844.5,-56.5"/>
<text text-anchor="middle" x="873" y="-63.5" font-family="Helvetica,sans-Serif" font-size="10.00">typeinfo</text>
</a>
</g>
</g>
<!-- Node28&#45;&gt;Node31 -->
<g id="edge43" class="edge">
<title>Node28&#45;&gt;Node31</title>
<path fill="none" stroke="midnightblue" d="M777.91,-112.44C796.25,-103.68 825.01,-89.94 846.09,-79.86"/>
<polygon fill="midnightblue" stroke="midnightblue" points="847.67,-82.99 855.18,-75.52 844.65,-76.67 847.67,-82.99"/>
</g>
<!-- Node32&#45;&gt;Node6 -->
<g id="edge46" class="edge">
<title>Node32&#45;&gt;Node6</title>
<path fill="none" stroke="midnightblue" d="M1007.62,-168.16C1015.06,-155.24 1026.22,-130.7 1017,-112 998.91,-75.33 980.77,-73.9 944,-56 902.28,-35.69 850.36,-23.83 813.94,-17.43"/>
<polygon fill="midnightblue" stroke="midnightblue" points="814.08,-13.91 803.64,-15.69 812.92,-20.81 814.08,-13.91"/>
</g>
<!-- Node32&#45;&gt;Node21 -->
<g id="edge47" class="edge">
<title>Node32&#45;&gt;Node21</title>
<path fill="none" stroke="midnightblue" d="M1020.86,-168.44C1040.27,-159.64 1070.73,-145.81 1092.96,-135.72"/>
<polygon fill="midnightblue" stroke="midnightblue" points="1094.57,-138.84 1102.23,-131.52 1091.68,-132.46 1094.57,-138.84"/>
</g>
<!-- Node32&#45;&gt;Node24 -->
<g id="edge45" class="edge">
<title>Node32&#45;&gt;Node24</title>
<path fill="none" stroke="midnightblue" d="M998.86,-168.08C996.32,-160.85 992.64,-150.41 989.47,-141.4"/>
<polygon fill="midnightblue" stroke="midnightblue" points="992.7,-140.02 986.08,-131.75 986.1,-142.35 992.7,-140.02"/>
</g>
<!-- Node33&#45;&gt;Node19 -->
<g id="edge49" class="edge">
<title>Node33&#45;&gt;Node19</title>
<path fill="none" stroke="midnightblue" d="M781.55,-291.48C774.8,-282.55 764.03,-268.31 755.59,-257.14"/>
<polygon fill="midnightblue" stroke="midnightblue" points="758.26,-254.87 749.44,-249.01 752.68,-259.1 758.26,-254.87"/>
</g>
<!-- Node33&#45;&gt;Node23 -->
<g id="edge50" class="edge">
<title>Node33&#45;&gt;Node23</title>
<path fill="none" stroke="midnightblue" d="M799.46,-291.48C812.17,-282.02 832.91,-266.6 848.25,-255.19"/>
<polygon fill="midnightblue" stroke="midnightblue" points="850.62,-257.79 856.56,-249.01 846.45,-252.17 850.62,-257.79"/>
</g>
<!-- Node34&#45;&gt;Node23 -->
<g id="edge52" class="edge">
<title>Node34&#45;&gt;Node23</title>
<path fill="none" stroke="midnightblue" d="M959.67,-291.48C942.03,-281.67 912.84,-265.43 892.14,-253.92"/>
<polygon fill="midnightblue" stroke="midnightblue" points="893.74,-250.81 883.3,-249.01 890.34,-256.93 893.74,-250.81"/>
</g>
</g>
</svg>
