<?xml version="1.0" encoding="UTF-8" standalone="no"?>
<!DOCTYPE svg PUBLIC "-//W3C//DTD SVG 1.1//EN"
 "http://www.w3.org/Graphics/SVG/1.1/DTD/svg11.dtd">
<!-- Generated by graphviz version 2.43.0 (0)
 -->
<!-- Title: Library/include/playrho/Island.hpp Pages: 1 -->
<!--zoomable 509 -->
<svg id="main" version="1.1" xmlns="http://www.w3.org/2000/svg" xmlns:xlink="http://www.w3.org/1999/xlink" xml:space="preserve" onload="init(evt)">
<style type="text/css"><![CDATA[
.edge:hover path { stroke: red; }
.edge:hover polygon { stroke: red; fill: red; }
]]></style>
<script type="text/javascript"><![CDATA[
var edges = document.getElementsByTagName('g');
if (edges && edges.length) {
  for (var i=0;i<edges.length;i++) {
    if (edges[i].id.substr(0,4)=='edge') {
      edges[i].setAttribute('class','edge');
    }
  }
}
]]></script>
        <defs>
                <circle id="rim" cx="0" cy="0" r="7"/>
                <circle id="rim2" cx="0" cy="0" r="3.5"/>
                <g id="zoomPlus">
                        <use xlink:href="#rim" fill="#404040">
                                <set attributeName="fill" to="#808080" begin="zoomplus.mouseover" end="zoomplus.mouseout"/>
                        </use>
                        <path d="M-4,0h8M0,-4v8" fill="none" stroke="white" stroke-width="1.5" pointer-events="none"/>
                </g>
                <g id="zoomMin">
                        <use xlink:href="#rim" fill="#404040">
                                <set attributeName="fill" to="#808080" begin="zoomminus.mouseover" end="zoomminus.mouseout"/>
                        </use>
                        <path d="M-4,0h8" fill="none" stroke="white" stroke-width="1.5" pointer-events="none"/>
                </g>
                <g id="dirArrow">
                        <path fill="none" stroke="white" stroke-width="1.5" d="M0,-3.0v7 M-2.5,-0.5L0,-3.0L2.5,-0.5"/>
                </g>
               <g id="resetDef">
                       <use xlink:href="#rim2" fill="#404040">
                               <set attributeName="fill" to="#808080" begin="reset.mouseover" end="reset.mouseout"/>
                       </use>
               </g>
        </defs>

<script type="text/javascript">
var viewWidth = 1007;
var viewHeight = 509;
var sectionId = 'dynsection-0';
</script>
<script xlink:href="svgpan.js"/>
<svg id="graph" class="graph">
<g id="viewport">
<title>Library/include/playrho/Island.hpp</title>
<polygon fill="white" stroke="transparent" points="-4,4 -4,-505 1002.5,-505 1002.5,4 -4,4"/>
<!-- Node1 -->
<g id="node1" class="node">
<title>Node1</title>
<g id="a_node1"><a xlink:title="Definition of the Island class and related code.">
<polygon fill="#bfbfbf" stroke="black" points="325,-470.5 325,-500.5 453,-500.5 453,-470.5 325,-470.5"/>
<text text-anchor="start" x="333" y="-488.5" font-family="Helvetica,sans-Serif" font-size="10.00">Library/include/playrho</text>
<text text-anchor="middle" x="389" y="-477.5" font-family="Helvetica,sans-Serif" font-size="10.00">/Island.hpp</text>
</a>
</g>
</g>
<!-- Node2 -->
<g id="node2" class="node">
<title>Node2</title>
<g id="a_node2"><a xlink:title=" ">
<polygon fill="white" stroke="#bfbfbf" points="340.5,-56.5 340.5,-75.5 389.5,-75.5 389.5,-56.5 340.5,-56.5"/>
<text text-anchor="middle" x="365" y="-63.5" font-family="Helvetica,sans-Serif" font-size="10.00">cstdlib</text>
</a>
</g>
</g>
<!-- Node1&#45;&gt;Node2 -->
<g id="edge1" class="edge">
<title>Node1&#45;&gt;Node2</title>
<path fill="none" stroke="midnightblue" d="M324.81,-483.63C261.03,-480.58 161.77,-469.78 84,-434 39.72,-413.63 0,-412.24 0,-363.5 0,-363.5 0,-363.5 0,-188 0,-118.81 239.32,-82.33 330.39,-70.96"/>
<polygon fill="midnightblue" stroke="midnightblue" points="330.98,-74.41 340.48,-69.73 330.13,-67.46 330.98,-74.41"/>
</g>
<!-- Node3 -->
<g id="node3" class="node">
<title>Node3</title>
<g id="a_node3"><a xlink:title=" ">
<polygon fill="white" stroke="#bfbfbf" points="729.5,-414.5 729.5,-433.5 776.5,-433.5 776.5,-414.5 729.5,-414.5"/>
<text text-anchor="middle" x="753" y="-421.5" font-family="Helvetica,sans-Serif" font-size="10.00">vector</text>
</a>
</g>
</g>
<!-- Node1&#45;&gt;Node3 -->
<g id="edge2" class="edge">
<title>Node1&#45;&gt;Node3</title>
<path fill="none" stroke="midnightblue" d="M453.07,-477.13C518.02,-469.13 621.52,-454.91 719.27,-434.17"/>
<polygon fill="midnightblue" stroke="midnightblue" points="720.27,-437.54 729.32,-432.01 718.8,-430.69 720.27,-437.54"/>
</g>
<!-- Node4 -->
<g id="node4" class="node">
<title>Node4</title>
<g id="a_node4"><a xlink:href="BodyID_8hpp.html" target="_top" xlink:title="Definition of the BodyID alias and closely related code.">
<polygon fill="white" stroke="black" points="598.5,-414.5 598.5,-433.5 711.5,-433.5 711.5,-414.5 598.5,-414.5"/>
<text text-anchor="middle" x="655" y="-421.5" font-family="Helvetica,sans-Serif" font-size="10.00">playrho/BodyID.hpp</text>
</a>
</g>
</g>
<!-- Node1&#45;&gt;Node4 -->
<g id="edge3" class="edge">
<title>Node1&#45;&gt;Node4</title>
<path fill="none" stroke="midnightblue" d="M451.7,-470.47C499.2,-459.85 563.47,-445.47 606.94,-435.75"/>
<polygon fill="midnightblue" stroke="midnightblue" points="607.98,-439.1 616.97,-433.51 606.45,-432.27 607.98,-439.1"/>
</g>
<!-- Node9 -->
<g id="node9" class="node">
<title>Node9</title>
<g id="a_node9"><a xlink:href="Settings_8hpp.html" target="_top" xlink:title="Types and default settings file.">
<polygon fill="white" stroke="black" points="330.5,-353 330.5,-372 447.5,-372 447.5,-353 330.5,-353"/>
<text text-anchor="middle" x="389" y="-360" font-family="Helvetica,sans-Serif" font-size="10.00">playrho/Settings.hpp</text>
</a>
</g>
</g>
<!-- Node1&#45;&gt;Node9 -->
<g id="edge45" class="edge">
<title>Node1&#45;&gt;Node9</title>
<path fill="none" stroke="midnightblue" d="M356.85,-470.34C342.17,-462.03 326.25,-450 318,-434 305.64,-410.04 334.35,-389.23 358.88,-376.55"/>
<polygon fill="midnightblue" stroke="midnightblue" points="360.54,-379.63 367.99,-372.09 357.47,-373.34 360.54,-379.63"/>
</g>
<!-- Node13 -->
<g id="node13" class="node">
<title>Node13</title>
<g id="a_node13"><a xlink:href="Templates_8hpp.html" target="_top" xlink:title="Definitions of miscellaneous template related code.">
<polygon fill="white" stroke="black" points="598,-118 598,-137 726,-137 726,-118 598,-118"/>
<text text-anchor="middle" x="662" y="-125" font-family="Helvetica,sans-Serif" font-size="10.00">playrho/Templates.hpp</text>
</a>
</g>
</g>
<!-- Node1&#45;&gt;Node13 -->
<g id="edge46" class="edge">
<title>Node1&#45;&gt;Node13</title>
<path fill="none" stroke="midnightblue" d="M324.62,-475.75C223.29,-460.16 38,-423.44 38,-363.5 38,-363.5 38,-363.5 38,-244 38,-192.84 84.76,-196.03 133,-179 324.7,-111.31 387.62,-170.85 589,-143 597.01,-141.89 605.46,-140.46 613.66,-138.93"/>
<polygon fill="midnightblue" stroke="midnightblue" points="614.35,-142.36 623.5,-137.03 613.02,-135.49 614.35,-142.36"/>
</g>
<!-- Node25 -->
<g id="node25" class="node">
<title>Node25</title>
<g id="a_node25"><a xlink:href="ContactID_8hpp.html" target="_top" xlink:title="Definition of the ContactID alias and closely related code.">
<polygon fill="white" stroke="black" points="326.5,-414.5 326.5,-433.5 451.5,-433.5 451.5,-414.5 326.5,-414.5"/>
<text text-anchor="middle" x="389" y="-421.5" font-family="Helvetica,sans-Serif" font-size="10.00">playrho/ContactID.hpp</text>
</a>
</g>
</g>
<!-- Node1&#45;&gt;Node25 -->
<g id="edge39" class="edge">
<title>Node1&#45;&gt;Node25</title>
<path fill="none" stroke="midnightblue" d="M389,-470.4C389,-462.47 389,-452.46 389,-443.86"/>
<polygon fill="midnightblue" stroke="midnightblue" points="392.5,-443.66 389,-433.66 385.5,-443.66 392.5,-443.66"/>
</g>
<!-- Node26 -->
<g id="node26" class="node">
<title>Node26</title>
<g id="a_node26"><a xlink:href="JointID_8hpp.html" target="_top" xlink:title="Definition of the JointID alias and closely related code.">
<polygon fill="white" stroke="black" points="470,-414.5 470,-433.5 580,-433.5 580,-414.5 470,-414.5"/>
<text text-anchor="middle" x="525" y="-421.5" font-family="Helvetica,sans-Serif" font-size="10.00">playrho/JointID.hpp</text>
</a>
</g>
</g>
<!-- Node1&#45;&gt;Node26 -->
<g id="edge42" class="edge">
<title>Node1&#45;&gt;Node26</title>
<path fill="none" stroke="midnightblue" d="M421.23,-470.4C443.84,-460.51 473.84,-447.38 495.76,-437.79"/>
<polygon fill="midnightblue" stroke="midnightblue" points="497.45,-440.87 505.21,-433.66 494.65,-434.46 497.45,-440.87"/>
</g>
<!-- Node5 -->
<g id="node5" class="node">
<title>Node5</title>
<g id="a_node5"><a xlink:href="IndexingNamedType_8hpp.html" target="_top" xlink:title="Definition of IndexingNamedType class template and related code.">
<polygon fill="white" stroke="black" points="761,-347.5 761,-377.5 925,-377.5 925,-347.5 761,-347.5"/>
<text text-anchor="start" x="769" y="-365.5" font-family="Helvetica,sans-Serif" font-size="10.00">playrho/detail/IndexingNamed</text>
<text text-anchor="middle" x="843" y="-354.5" font-family="Helvetica,sans-Serif" font-size="10.00">Type.hpp</text>
</a>
</g>
</g>
<!-- Node4&#45;&gt;Node5 -->
<g id="edge4" class="edge">
<title>Node4&#45;&gt;Node5</title>
<path fill="none" stroke="midnightblue" d="M681.94,-414.48C709.78,-405.66 754,-391.67 789.07,-380.57"/>
<polygon fill="midnightblue" stroke="midnightblue" points="790.21,-383.88 798.69,-377.52 788.1,-377.2 790.21,-383.88"/>
</g>
<!-- Node4&#45;&gt;Node9 -->
<g id="edge8" class="edge">
<title>Node4&#45;&gt;Node9</title>
<path fill="none" stroke="midnightblue" d="M616.89,-414.48C569.48,-403.87 488.52,-385.76 436.94,-374.22"/>
<polygon fill="midnightblue" stroke="midnightblue" points="437.56,-370.78 427.04,-372.01 436.04,-377.61 437.56,-370.78"/>
</g>
<!-- Node6 -->
<g id="node6" class="node">
<title>Node6</title>
<g id="a_node6"><a xlink:title=" ">
<polygon fill="white" stroke="#bfbfbf" points="870.5,-0.5 870.5,-19.5 915.5,-19.5 915.5,-0.5 870.5,-0.5"/>
<text text-anchor="middle" x="893" y="-7.5" font-family="Helvetica,sans-Serif" font-size="10.00">utility</text>
</a>
</g>
</g>
<!-- Node5&#45;&gt;Node6 -->
<g id="edge5" class="edge">
<title>Node5&#45;&gt;Node6</title>
<path fill="none" stroke="midnightblue" d="M865.28,-347.44C878.1,-338.38 893.67,-325.58 904,-311 921.81,-285.87 928,-276.8 928,-246 928,-246 928,-246 928,-126.5 928,-90.69 912.4,-51.21 902.03,-28.92"/>
<polygon fill="midnightblue" stroke="midnightblue" points="905.08,-27.19 897.58,-19.71 898.77,-30.24 905.08,-27.19"/>
</g>
<!-- Node7 -->
<g id="node7" class="node">
<title>Node7</title>
<g id="a_node7"><a xlink:title=" ">
<polygon fill="white" stroke="#bfbfbf" points="933.5,-0.5 933.5,-19.5 998.5,-19.5 998.5,-0.5 933.5,-0.5"/>
<text text-anchor="middle" x="966" y="-7.5" font-family="Helvetica,sans-Serif" font-size="10.00">functional</text>
</a>
</g>
</g>
<!-- Node5&#45;&gt;Node7 -->
<g id="edge6" class="edge">
<title>Node5&#45;&gt;Node7</title>
<path fill="none" stroke="midnightblue" d="M876.61,-347.38C913.03,-329.58 966,-295.21 966,-246 966,-246 966,-246 966,-126.5 966,-92.36 966,-52.55 966,-29.71"/>
<polygon fill="midnightblue" stroke="midnightblue" points="969.5,-29.69 966,-19.69 962.5,-29.69 969.5,-29.69"/>
</g>
<!-- Node8 -->
<g id="node8" class="node">
<title>Node8</title>
<g id="a_node8"><a xlink:title=" ">
<polygon fill="white" stroke="#bfbfbf" points="475.5,-0.5 475.5,-19.5 544.5,-19.5 544.5,-0.5 475.5,-0.5"/>
<text text-anchor="middle" x="510" y="-7.5" font-family="Helvetica,sans-Serif" font-size="10.00">type_traits</text>
</a>
</g>
</g>
<!-- Node5&#45;&gt;Node8 -->
<g id="edge7" class="edge">
<title>Node5&#45;&gt;Node8</title>
<path fill="none" stroke="midnightblue" d="M847.54,-347.22C854.4,-323.12 865.1,-273.26 850,-235 822.53,-165.39 795.89,-155.51 735,-112 675.28,-69.33 594.65,-38.51 547.9,-22.81"/>
<polygon fill="midnightblue" stroke="midnightblue" points="548.76,-19.42 538.17,-19.6 546.57,-26.06 548.76,-19.42"/>
</g>
<!-- Node9&#45;&gt;Node8 -->
<g id="edge11" class="edge">
<title>Node9&#45;&gt;Node8</title>
<path fill="none" stroke="midnightblue" d="M334.84,-352.97C245.25,-337.31 76,-300.52 76,-246 76,-246 76,-246 76,-126.5 76,-46.62 354.01,-20.62 465.01,-13.42"/>
<polygon fill="midnightblue" stroke="midnightblue" points="465.46,-16.9 475.22,-12.78 465.02,-9.91 465.46,-16.9"/>
</g>
<!-- Node10 -->
<g id="node10" class="node">
<title>Node10</title>
<g id="a_node10"><a xlink:title=" ">
<polygon fill="white" stroke="#bfbfbf" points="142,-179.5 142,-198.5 192,-198.5 192,-179.5 142,-179.5"/>
<text text-anchor="middle" x="167" y="-186.5" font-family="Helvetica,sans-Serif" font-size="10.00">cstdint</text>
</a>
</g>
</g>
<!-- Node9&#45;&gt;Node10 -->
<g id="edge9" class="edge">
<title>Node9&#45;&gt;Node10</title>
<path fill="none" stroke="midnightblue" d="M335.52,-352.94C301.13,-345.67 256.58,-332.82 222,-311 193.53,-293.04 184.11,-286.01 171,-255 164.87,-240.5 164.22,-222.55 164.91,-209.19"/>
<polygon fill="midnightblue" stroke="midnightblue" points="168.43,-209.08 165.75,-198.83 161.45,-208.51 168.43,-209.08"/>
</g>
<!-- Node11 -->
<g id="node11" class="node">
<title>Node11</title>
<g id="a_node11"><a xlink:title=" ">
<polygon fill="white" stroke="#bfbfbf" points="340,-118 340,-137 384,-137 384,-118 340,-118"/>
<text text-anchor="middle" x="362" y="-125" font-family="Helvetica,sans-Serif" font-size="10.00">limits</text>
</a>
</g>
</g>
<!-- Node9&#45;&gt;Node11 -->
<g id="edge10" class="edge">
<title>Node9&#45;&gt;Node11</title>
<path fill="none" stroke="midnightblue" d="M330.25,-359.19C287.34,-354.73 229.93,-342.68 190,-311 146.25,-276.28 145.83,-253.36 133,-199 130.96,-190.35 127.43,-185.93 133,-179 157.32,-148.74 272.49,-135.54 329.66,-130.77"/>
<polygon fill="midnightblue" stroke="midnightblue" points="330.26,-134.24 339.95,-129.96 329.7,-127.26 330.26,-134.24"/>
</g>
<!-- Node12 -->
<g id="node12" class="node">
<title>Node12</title>
<g id="a_node12"><a xlink:href="Real_8hpp.html" target="_top" xlink:title="Real number definition file.">
<polygon fill="white" stroke="black" points="638.5,-179.5 638.5,-198.5 737.5,-198.5 737.5,-179.5 638.5,-179.5"/>
<text text-anchor="middle" x="688" y="-186.5" font-family="Helvetica,sans-Serif" font-size="10.00">playrho/Real.hpp</text>
</a>
</g>
</g>
<!-- Node9&#45;&gt;Node12 -->
<g id="edge12" class="edge">
<title>Node9&#45;&gt;Node12</title>
<path fill="none" stroke="midnightblue" d="M447.9,-356.29C557.52,-345.24 786.02,-315.37 833,-255 859.68,-220.71 798.65,-204.01 747.73,-196.23"/>
<polygon fill="midnightblue" stroke="midnightblue" points="748.11,-192.75 737.71,-194.8 747.11,-199.68 748.11,-192.75"/>
</g>
<!-- Node17 -->
<g id="node17" class="node">
<title>Node17</title>
<g id="a_node17"><a xlink:href="RealConstants_8hpp.html" target="_top" xlink:title="Definitions file for constant expressions of type Real.">
<polygon fill="white" stroke="black" points="676,-235.5 676,-254.5 824,-254.5 824,-235.5 676,-235.5"/>
<text text-anchor="middle" x="750" y="-242.5" font-family="Helvetica,sans-Serif" font-size="10.00">playrho/RealConstants.hpp</text>
</a>
</g>
</g>
<!-- Node9&#45;&gt;Node17 -->
<g id="edge23" class="edge">
<title>Node9&#45;&gt;Node17</title>
<path fill="none" stroke="midnightblue" d="M422.78,-352.97C459.49,-343.5 519.78,-327.38 571,-311 623.39,-294.25 683.28,-271.82 718.8,-258.17"/>
<polygon fill="midnightblue" stroke="midnightblue" points="720.07,-261.43 728.14,-254.56 717.55,-254.89 720.07,-261.43"/>
</g>
<!-- Node18 -->
<g id="node18" class="node">
<title>Node18</title>
<g id="a_node18"><a xlink:href="Units_8hpp.html" target="_top" xlink:title="Declarations for physical units possibly backed by strong types.">
<polygon fill="white" stroke="black" points="458.5,-291.5 458.5,-310.5 561.5,-310.5 561.5,-291.5 458.5,-291.5"/>
<text text-anchor="middle" x="510" y="-298.5" font-family="Helvetica,sans-Serif" font-size="10.00">playrho/Units.hpp</text>
</a>
</g>
</g>
<!-- Node9&#45;&gt;Node18 -->
<g id="edge25" class="edge">
<title>Node9&#45;&gt;Node18</title>
<path fill="none" stroke="midnightblue" d="M406.34,-352.98C426.55,-343.03 460.19,-326.49 483.64,-314.96"/>
<polygon fill="midnightblue" stroke="midnightblue" points="485.27,-318.06 492.7,-310.51 482.18,-311.78 485.27,-318.06"/>
</g>
<!-- Node22 -->
<g id="node22" class="node">
<title>Node22</title>
<g id="a_node22"><a xlink:href="WiderType_8hpp.html" target="_top" xlink:title="Definition of the WiderType alias template.">
<polygon fill="white" stroke="black" points="231,-291.5 231,-310.5 359,-310.5 359,-291.5 231,-291.5"/>
<text text-anchor="middle" x="295" y="-298.5" font-family="Helvetica,sans-Serif" font-size="10.00">playrho/WiderType.hpp</text>
</a>
</g>
</g>
<!-- Node9&#45;&gt;Node22 -->
<g id="edge34" class="edge">
<title>Node9&#45;&gt;Node22</title>
<path fill="none" stroke="midnightblue" d="M375.53,-352.98C360.32,-343.34 335.31,-327.52 317.2,-316.05"/>
<polygon fill="midnightblue" stroke="midnightblue" points="318.76,-312.9 308.44,-310.51 315.02,-318.81 318.76,-312.9"/>
</g>
<!-- Node12&#45;&gt;Node11 -->
<g id="edge13" class="edge">
<title>Node12&#45;&gt;Node11</title>
<path fill="none" stroke="midnightblue" d="M638.36,-179.73C586.73,-171.02 503.58,-156.7 432,-143 419.56,-140.62 405.9,-137.83 393.99,-135.34"/>
<polygon fill="midnightblue" stroke="midnightblue" points="394.54,-131.88 384.03,-133.24 393.1,-138.73 394.54,-131.88"/>
</g>
<!-- Node12&#45;&gt;Node13 -->
<g id="edge14" class="edge">
<title>Node12&#45;&gt;Node13</title>
<path fill="none" stroke="midnightblue" d="M684.27,-179.48C680.53,-170.9 674.64,-157.43 669.86,-146.48"/>
<polygon fill="midnightblue" stroke="midnightblue" points="672.93,-144.77 665.72,-137.01 666.52,-147.57 672.93,-144.77"/>
</g>
<!-- Node13&#45;&gt;Node2 -->
<g id="edge15" class="edge">
<title>Node13&#45;&gt;Node2</title>
<path fill="none" stroke="midnightblue" d="M619.45,-117.98C560.23,-106.11 454.1,-84.85 399.52,-73.91"/>
<polygon fill="midnightblue" stroke="midnightblue" points="400.12,-70.47 389.63,-71.93 398.75,-77.33 400.12,-70.47"/>
</g>
<!-- Node13&#45;&gt;Node8 -->
<g id="edge16" class="edge">
<title>Node13&#45;&gt;Node8</title>
<path fill="none" stroke="midnightblue" d="M650.58,-117.82C624.83,-98.25 562.01,-50.52 529.78,-26.03"/>
<polygon fill="midnightblue" stroke="midnightblue" points="531.64,-23.05 521.56,-19.78 527.4,-28.62 531.64,-23.05"/>
</g>
<!-- Node14 -->
<g id="node14" class="node">
<title>Node14</title>
<g id="a_node14"><a xlink:href="detail_2Templates_8hpp.html" target="_top" xlink:title="Low&#45;level declarations for general class &amp; function templates.">
<polygon fill="white" stroke="black" points="742,-56.5 742,-75.5 900,-75.5 900,-56.5 742,-56.5"/>
<text text-anchor="middle" x="821" y="-63.5" font-family="Helvetica,sans-Serif" font-size="10.00">playrho/detail/Templates.hpp</text>
</a>
</g>
</g>
<!-- Node13&#45;&gt;Node14 -->
<g id="edge17" class="edge">
<title>Node13&#45;&gt;Node14</title>
<path fill="none" stroke="midnightblue" d="M684.78,-117.98C712.05,-107.77 757.91,-90.61 788.8,-79.05"/>
<polygon fill="midnightblue" stroke="midnightblue" points="790.12,-82.29 798.26,-75.51 787.67,-75.74 790.12,-82.29"/>
</g>
<!-- Node14&#45;&gt;Node6 -->
<g id="edge22" class="edge">
<title>Node14&#45;&gt;Node6</title>
<path fill="none" stroke="midnightblue" d="M832.57,-56.32C843.42,-48.18 859.88,-35.84 872.88,-26.09"/>
<polygon fill="midnightblue" stroke="midnightblue" points="875.32,-28.63 881.22,-19.83 871.12,-23.03 875.32,-28.63"/>
</g>
<!-- Node14&#45;&gt;Node7 -->
<g id="edge19" class="edge">
<title>Node14&#45;&gt;Node7</title>
<path fill="none" stroke="midnightblue" d="M843.98,-56.44C868.16,-47.44 906.42,-33.19 933.65,-23.05"/>
<polygon fill="midnightblue" stroke="midnightblue" points="934.98,-26.29 943.13,-19.52 932.54,-19.73 934.98,-26.29"/>
</g>
<!-- Node14&#45;&gt;Node8 -->
<g id="edge21" class="edge">
<title>Node14&#45;&gt;Node8</title>
<path fill="none" stroke="midnightblue" d="M771.72,-56.44C711.94,-46.06 612.03,-28.72 554.49,-18.73"/>
<polygon fill="midnightblue" stroke="midnightblue" points="555.06,-15.27 544.6,-17.01 553.86,-22.17 555.06,-15.27"/>
</g>
<!-- Node15 -->
<g id="node15" class="node">
<title>Node15</title>
<g id="a_node15"><a xlink:title=" ">
<polygon fill="white" stroke="#bfbfbf" points="788,-0.5 788,-19.5 852,-19.5 852,-0.5 788,-0.5"/>
<text text-anchor="middle" x="820" y="-7.5" font-family="Helvetica,sans-Serif" font-size="10.00">algorithm</text>
</a>
</g>
</g>
<!-- Node14&#45;&gt;Node15 -->
<g id="edge18" class="edge">
<title>Node14&#45;&gt;Node15</title>
<path fill="none" stroke="midnightblue" d="M820.83,-56.08C820.7,-49.01 820.52,-38.86 820.35,-29.99"/>
<polygon fill="midnightblue" stroke="midnightblue" points="823.85,-29.68 820.16,-19.75 816.85,-29.81 823.85,-29.68"/>
</g>
<!-- Node16 -->
<g id="node16" class="node">
<title>Node16</title>
<g id="a_node16"><a xlink:title=" ">
<polygon fill="white" stroke="#bfbfbf" points="716.5,-0.5 716.5,-19.5 769.5,-19.5 769.5,-0.5 716.5,-0.5"/>
<text text-anchor="middle" x="743" y="-7.5" font-family="Helvetica,sans-Serif" font-size="10.00">iterator</text>
</a>
</g>
</g>
<!-- Node14&#45;&gt;Node16 -->
<g id="edge20" class="edge">
<title>Node14&#45;&gt;Node16</title>
<path fill="none" stroke="midnightblue" d="M808.47,-56.32C796.41,-47.98 777.97,-35.21 763.73,-25.35"/>
<polygon fill="midnightblue" stroke="midnightblue" points="765.72,-22.47 755.5,-19.65 761.73,-28.22 765.72,-22.47"/>
</g>
<!-- Node17&#45;&gt;Node12 -->
<g id="edge24" class="edge">
<title>Node17&#45;&gt;Node12</title>
<path fill="none" stroke="midnightblue" d="M740.04,-235.32C730.87,-227.34 717.06,-215.31 705.97,-205.65"/>
<polygon fill="midnightblue" stroke="midnightblue" points="707.98,-202.76 698.14,-198.83 703.38,-208.04 707.98,-202.76"/>
</g>
<!-- Node18&#45;&gt;Node8 -->
<g id="edge27" class="edge">
<title>Node18&#45;&gt;Node8</title>
<path fill="none" stroke="midnightblue" d="M458.32,-298.78C425.58,-294.99 385.5,-284.13 364,-255 333.09,-213.13 452.13,-74.72 495.09,-27.19"/>
<polygon fill="midnightblue" stroke="midnightblue" points="497.81,-29.4 501.95,-19.65 492.63,-24.69 497.81,-29.4"/>
</g>
<!-- Node18&#45;&gt;Node12 -->
<g id="edge28" class="edge">
<title>Node18&#45;&gt;Node12</title>
<path fill="none" stroke="midnightblue" d="M541.7,-291.41C565.57,-284.03 598.45,-271.91 624,-255 644.12,-241.68 662.97,-221.19 674.92,-206.78"/>
<polygon fill="midnightblue" stroke="midnightblue" points="677.87,-208.7 681.43,-198.72 672.43,-204.3 677.87,-208.7"/>
</g>
<!-- Node18&#45;&gt;Node13 -->
<g id="edge30" class="edge">
<title>Node18&#45;&gt;Node13</title>
<path fill="none" stroke="midnightblue" d="M533.33,-291.41C550.95,-283.97 574.78,-271.76 591,-255 617.4,-227.72 611.15,-211.96 630,-179 636.41,-167.78 644.16,-155.53 650.42,-145.91"/>
<polygon fill="midnightblue" stroke="midnightblue" points="653.52,-147.57 656.09,-137.29 647.67,-143.72 653.52,-147.57"/>
</g>
<!-- Node18&#45;&gt;Node17 -->
<g id="edge29" class="edge">
<title>Node18&#45;&gt;Node17</title>
<path fill="none" stroke="midnightblue" d="M548.03,-291.44C589.81,-282.04 656.98,-266.93 702.27,-256.74"/>
<polygon fill="midnightblue" stroke="midnightblue" points="703.16,-260.13 712.15,-254.52 701.62,-253.3 703.16,-260.13"/>
</g>
<!-- Node19 -->
<g id="node19" class="node">
<title>Node19</title>
<g id="a_node19"><a xlink:title=" ">
<polygon fill="white" stroke="#bfbfbf" points="372.5,-235.5 372.5,-254.5 419.5,-254.5 419.5,-235.5 372.5,-235.5"/>
<text text-anchor="middle" x="396" y="-242.5" font-family="Helvetica,sans-Serif" font-size="10.00">cmath</text>
</a>
</g>
</g>
<!-- Node18&#45;&gt;Node19 -->
<g id="edge26" class="edge">
<title>Node18&#45;&gt;Node19</title>
<path fill="none" stroke="midnightblue" d="M491.94,-291.44C473.43,-282.68 444.42,-268.94 423.14,-258.86"/>
<polygon fill="midnightblue" stroke="midnightblue" points="424.51,-255.63 413.98,-254.52 421.52,-261.96 424.51,-255.63"/>
</g>
<!-- Node20 -->
<g id="node20" class="node">
<title>Node20</title>
<g id="a_node20"><a xlink:href="to__underlying_8hpp.html" target="_top" xlink:title="Definition of to_underlying function template.">
<polygon fill="white" stroke="black" points="438,-235.5 438,-254.5 582,-254.5 582,-235.5 438,-235.5"/>
<text text-anchor="middle" x="510" y="-242.5" font-family="Helvetica,sans-Serif" font-size="10.00">playrho/to_underlying.hpp</text>
</a>
</g>
</g>
<!-- Node18&#45;&gt;Node20 -->
<g id="edge31" class="edge">
<title>Node18&#45;&gt;Node20</title>
<path fill="none" stroke="midnightblue" d="M510,-291.08C510,-284.01 510,-273.86 510,-264.99"/>
<polygon fill="midnightblue" stroke="midnightblue" points="513.5,-264.75 510,-254.75 506.5,-264.75 513.5,-264.75"/>
</g>
<!-- Node21 -->
<g id="node21" class="node">
<title>Node21</title>
<g id="a_node21"><a xlink:href="underlying__type_8hpp.html" target="_top" xlink:title="Definition of underlying_type trait class and related code.">
<polygon fill="white" stroke="black" points="440.5,-112.5 440.5,-142.5 579.5,-142.5 579.5,-112.5 440.5,-112.5"/>
<text text-anchor="start" x="448.5" y="-130.5" font-family="Helvetica,sans-Serif" font-size="10.00">playrho/detail/underlying</text>
<text text-anchor="middle" x="510" y="-119.5" font-family="Helvetica,sans-Serif" font-size="10.00">_type.hpp</text>
</a>
</g>
</g>
<!-- Node20&#45;&gt;Node21 -->
<g id="edge32" class="edge">
<title>Node20&#45;&gt;Node21</title>
<path fill="none" stroke="midnightblue" d="M510,-235.32C510,-217.97 510,-178.46 510,-152.66"/>
<polygon fill="midnightblue" stroke="midnightblue" points="513.5,-152.55 510,-142.55 506.5,-152.55 513.5,-152.55"/>
</g>
<!-- Node21&#45;&gt;Node8 -->
<g id="edge33" class="edge">
<title>Node21&#45;&gt;Node8</title>
<path fill="none" stroke="midnightblue" d="M510,-112.34C510,-91.62 510,-53.02 510,-29.9"/>
<polygon fill="midnightblue" stroke="midnightblue" points="513.5,-29.67 510,-19.67 506.5,-29.67 513.5,-29.67"/>
</g>
<!-- Node23 -->
<g id="node23" class="node">
<title>Node23</title>
<g id="a_node23"><a xlink:href="Wider_8hpp.html" target="_top" xlink:title="Definition of the Wider class template and specializations.">
<polygon fill="white" stroke="black" points="180,-235.5 180,-254.5 316,-254.5 316,-235.5 180,-235.5"/>
<text text-anchor="middle" x="248" y="-242.5" font-family="Helvetica,sans-Serif" font-size="10.00">playrho/detail/Wider.hpp</text>
</a>
</g>
</g>
<!-- Node22&#45;&gt;Node23 -->
<g id="edge35" class="edge">
<title>Node22&#45;&gt;Node23</title>
<path fill="none" stroke="midnightblue" d="M287.24,-291.08C280.46,-283.3 270.46,-271.8 262.24,-262.37"/>
<polygon fill="midnightblue" stroke="midnightblue" points="264.82,-260 255.62,-254.75 259.54,-264.59 264.82,-260"/>
</g>
<!-- Node23&#45;&gt;Node8 -->
<g id="edge37" class="edge">
<title>Node23&#45;&gt;Node8</title>
<path fill="none" stroke="midnightblue" d="M281.8,-235.39C300.39,-228.74 321.89,-217.45 333,-199 337.58,-191.38 333.25,-187.89 333,-179 331.48,-124.35 298.03,-98.83 332,-56 348.42,-35.29 418.26,-22.53 465.42,-16.11"/>
<polygon fill="midnightblue" stroke="midnightblue" points="465.95,-19.57 475.41,-14.8 465.03,-12.63 465.95,-19.57"/>
</g>
<!-- Node23&#45;&gt;Node10 -->
<g id="edge36" class="edge">
<title>Node23&#45;&gt;Node10</title>
<path fill="none" stroke="midnightblue" d="M234.99,-235.32C222.47,-226.98 203.32,-214.21 188.53,-204.35"/>
<polygon fill="midnightblue" stroke="midnightblue" points="190.24,-201.29 179.98,-198.65 186.36,-207.11 190.24,-201.29"/>
</g>
<!-- Node24 -->
<g id="node24" class="node">
<title>Node24</title>
<g id="a_node24"><a xlink:href="Defines_8hpp.html" target="_top" xlink:title="Miscellaneous C&#45;preprocessor definitions.">
<polygon fill="white" stroke="black" points="210,-179.5 210,-198.5 324,-198.5 324,-179.5 210,-179.5"/>
<text text-anchor="middle" x="267" y="-186.5" font-family="Helvetica,sans-Serif" font-size="10.00">playrho/Defines.hpp</text>
</a>
</g>
</g>
<!-- Node23&#45;&gt;Node24 -->
<g id="edge38" class="edge">
<title>Node23&#45;&gt;Node24</title>
<path fill="none" stroke="midnightblue" d="M251.14,-235.08C253.68,-227.85 257.36,-217.41 260.53,-208.4"/>
<polygon fill="midnightblue" stroke="midnightblue" points="263.9,-209.35 263.92,-198.75 257.3,-207.02 263.9,-209.35"/>
</g>
<!-- Node25&#45;&gt;Node5 -->
<g id="edge40" class="edge">
<title>Node25&#45;&gt;Node5</title>
<path fill="none" stroke="midnightblue" d="M451.65,-414.79C529.06,-404.64 661.43,-387.3 750.53,-375.62"/>
<polygon fill="midnightblue" stroke="midnightblue" points="751.18,-379.06 760.64,-374.29 750.27,-372.12 751.18,-379.06"/>
</g>
<!-- Node25&#45;&gt;Node9 -->
<g id="edge41" class="edge">
<title>Node25&#45;&gt;Node9</title>
<path fill="none" stroke="midnightblue" d="M389,-414.48C389,-406.08 389,-392.98 389,-382.16"/>
<polygon fill="midnightblue" stroke="midnightblue" points="392.5,-382.01 389,-372.01 385.5,-382.01 392.5,-382.01"/>
</g>
<!-- Node26&#45;&gt;Node5 -->
<g id="edge43" class="edge">
<title>Node26&#45;&gt;Node5</title>
<path fill="none" stroke="midnightblue" d="M570.56,-414.48C619.37,-405.34 697.92,-390.64 758.17,-379.37"/>
<polygon fill="midnightblue" stroke="midnightblue" points="758.87,-382.8 768.05,-377.52 757.58,-375.92 758.87,-382.8"/>
</g>
<!-- Node26&#45;&gt;Node9 -->
<g id="edge44" class="edge">
<title>Node26&#45;&gt;Node9</title>
<path fill="none" stroke="midnightblue" d="M505.51,-414.48C482.59,-404.45 444.31,-387.7 417.92,-376.15"/>
<polygon fill="midnightblue" stroke="midnightblue" points="419.01,-372.81 408.45,-372.01 416.21,-379.22 419.01,-372.81"/>
</g>
</g>
</svg>
        <g id="navigator" transform="translate(0 0)" fill="#404254">
                <rect fill="#f2f5e9" fill-opacity="0.5" stroke="#606060" stroke-width=".5" x="0" y="0" width="60" height="60"/>
                <use id="zoomplus" xlink:href="#zoomPlus" x="17" y="9" onmousedown="handleZoom(evt,'in')"/>
                <use id="zoomminus" xlink:href="#zoomMin" x="42" y="9" onmousedown="handleZoom(evt,'out')"/>
                <use id="reset" xlink:href="#resetDef" x="30" y="36" onmousedown="handleReset()"/>
                <g id="arrowUp" xlink:href="#dirArrow" transform="translate(30 24)" onmousedown="handlePan(0,-1)">
                  <use xlink:href="#rim" fill="#404040">
                        <set attributeName="fill" to="#808080" begin="arrowUp.mouseover" end="arrowUp.mouseout"/>
                  </use>
                  <path fill="none" stroke="white" stroke-width="1.5" d="M0,-3.0v7 M-2.5,-0.5L0,-3.0L2.5,-0.5"/>
                </g>
                <g id="arrowRight" xlink:href="#dirArrow" transform="rotate(90) translate(36 -43)" onmousedown="handlePan(1,0)">
                  <use xlink:href="#rim" fill="#404040">
                        <set attributeName="fill" to="#808080" begin="arrowRight.mouseover" end="arrowRight.mouseout"/>
                  </use>
                  <path fill="none" stroke="white" stroke-width="1.5" d="M0,-3.0v7 M-2.5,-0.5L0,-3.0L2.5,-0.5"/>
                </g>
                <g id="arrowDown" xlink:href="#dirArrow" transform="rotate(180) translate(-30 -48)" onmousedown="handlePan(0,1)">
                  <use xlink:href="#rim" fill="#404040">
                        <set attributeName="fill" to="#808080" begin="arrowDown.mouseover" end="arrowDown.mouseout"/>
                  </use>
                  <path fill="none" stroke="white" stroke-width="1.5" d="M0,-3.0v7 M-2.5,-0.5L0,-3.0L2.5,-0.5"/>
                </g>
                <g id="arrowLeft" xlink:href="#dirArrow" transform="rotate(270) translate(-36 17)" onmousedown="handlePan(-1,0)">
                  <use xlink:href="#rim" fill="#404040">
                        <set attributeName="fill" to="#808080" begin="arrowLeft.mouseover" end="arrowLeft.mouseout"/>
                  </use>
                  <path fill="none" stroke="white" stroke-width="1.5" d="M0,-3.0v7 M-2.5,-0.5L0,-3.0L2.5,-0.5"/>
                </g>
        </g>
        <svg viewBox="0 0 15 15" width="100%" height="30px" preserveAspectRatio="xMaxYMin meet">
         <g id="arrow_out" transform="scale(0.3 0.3)">
          <a xlink:href="Island_8hpp__incl_org.svg" target="_base">
           <rect id="button" ry="5" rx="5" y="6" x="6" height="38" width="38"
                fill="#f2f5e9" fill-opacity="0.5" stroke="#606060" stroke-width="1.0"/>
           <path id="arrow"
             d="M 11.500037,31.436501 C 11.940474,20.09759 22.043105,11.32322 32.158766,21.979434 L 37.068811,17.246167 C 37.068811,17.246167 37.088388,32 37.088388,32 L 22.160133,31.978069 C 22.160133,31.978069 26.997745,27.140456 26.997745,27.140456 C 18.528582,18.264221 13.291696,25.230495 11.500037,31.436501 z"
             style="fill:#404040;"/>
          </a>
         </g>
        </svg>
</svg>
