<?xml version="1.0" encoding="UTF-8" standalone="no"?>
<!DOCTYPE svg PUBLIC "-//W3C//DTD SVG 1.1//EN"
 "http://www.w3.org/Graphics/SVG/1.1/DTD/svg11.dtd">
<!-- Generated by graphviz version 2.43.0 (0)
 -->
<!-- Title: Library/include/playrho/IslandStats.hpp Pages: 1 -->
<!--zoomable 599 -->
<svg id="main" version="1.1" xmlns="http://www.w3.org/2000/svg" xmlns:xlink="http://www.w3.org/1999/xlink" xml:space="preserve" onload="init(evt)">
<style type="text/css"><![CDATA[
.edge:hover path { stroke: red; }
.edge:hover polygon { stroke: red; fill: red; }
]]></style>
<script type="text/javascript"><![CDATA[
var edges = document.getElementsByTagName('g');
if (edges && edges.length) {
  for (var i=0;i<edges.length;i++) {
    if (edges[i].id.substr(0,4)=='edge') {
      edges[i].setAttribute('class','edge');
    }
  }
}
]]></script>
        <defs>
                <circle id="rim" cx="0" cy="0" r="7"/>
                <circle id="rim2" cx="0" cy="0" r="3.5"/>
                <g id="zoomPlus">
                        <use xlink:href="#rim" fill="#404040">
                                <set attributeName="fill" to="#808080" begin="zoomplus.mouseover" end="zoomplus.mouseout"/>
                        </use>
                        <path d="M-4,0h8M0,-4v8" fill="none" stroke="white" stroke-width="1.5" pointer-events="none"/>
                </g>
                <g id="zoomMin">
                        <use xlink:href="#rim" fill="#404040">
                                <set attributeName="fill" to="#808080" begin="zoomminus.mouseover" end="zoomminus.mouseout"/>
                        </use>
                        <path d="M-4,0h8" fill="none" stroke="white" stroke-width="1.5" pointer-events="none"/>
                </g>
                <g id="dirArrow">
                        <path fill="none" stroke="white" stroke-width="1.5" d="M0,-3.0v7 M-2.5,-0.5L0,-3.0L2.5,-0.5"/>
                </g>
               <g id="resetDef">
                       <use xlink:href="#rim2" fill="#404040">
                               <set attributeName="fill" to="#808080" begin="reset.mouseover" end="reset.mouseout"/>
                       </use>
               </g>
        </defs>

<script type="text/javascript">
var viewWidth = 1055;
var viewHeight = 599;
var sectionId = 'dynsection-0';
</script>
<script xlink:href="svgpan.js"/>
<svg id="graph" class="graph">
<g id="viewport">
<title>Library/include/playrho/IslandStats.hpp</title>
<polygon fill="white" stroke="transparent" points="-4,4 -4,-595 1050.89,-595 1050.89,4 -4,4"/>
<!-- Node1 -->
<g id="node1" class="node">
<title>Node1</title>
<g id="a_node1"><a xlink:title="Definition of the IslandStats class.">
<polygon fill="#bfbfbf" stroke="black" points="595,-560.5 595,-590.5 723,-590.5 723,-560.5 595,-560.5"/>
<text text-anchor="start" x="603" y="-578.5" font-family="Helvetica,sans-Serif" font-size="10.00">Library/include/playrho</text>
<text text-anchor="middle" x="659" y="-567.5" font-family="Helvetica,sans-Serif" font-size="10.00">/IslandStats.hpp</text>
</a>
</g>
</g>
<!-- Node2 -->
<g id="node2" class="node">
<title>Node2</title>
<g id="a_node2"><a xlink:href="Units_8hpp.html" target="_top" xlink:title="Declarations for physical units possibly backed by strong types.">
<polygon fill="white" stroke="black" points="516.5,-448.5 516.5,-467.5 619.5,-467.5 619.5,-448.5 516.5,-448.5"/>
<text text-anchor="middle" x="568" y="-455.5" font-family="Helvetica,sans-Serif" font-size="10.00">playrho/Units.hpp</text>
</a>
</g>
</g>
<!-- Node1&#45;&gt;Node2 -->
<g id="edge1" class="edge">
<title>Node1&#45;&gt;Node2</title>
<path fill="none" stroke="midnightblue" d="M647.84,-560.34C631,-538.96 599.14,-498.53 581.18,-475.73"/>
<polygon fill="midnightblue" stroke="midnightblue" points="583.77,-473.36 574.83,-467.67 578.27,-477.69 583.77,-473.36"/>
</g>
<!-- Node29 -->
<g id="node29" class="node">
<title>Node29</title>
<g id="a_node29"><a xlink:href="Settings_8hpp.html" target="_top" xlink:title="Types and default settings file.">
<polygon fill="white" stroke="black" points="691.5,-504.5 691.5,-523.5 808.5,-523.5 808.5,-504.5 691.5,-504.5"/>
<text text-anchor="middle" x="750" y="-511.5" font-family="Helvetica,sans-Serif" font-size="10.00">playrho/Settings.hpp</text>
</a>
</g>
</g>
<!-- Node1&#45;&gt;Node29 -->
<g id="edge39" class="edge">
<title>Node1&#45;&gt;Node29</title>
<path fill="none" stroke="midnightblue" d="M680.57,-560.4C694.88,-551.04 713.61,-538.79 728.01,-529.38"/>
<polygon fill="midnightblue" stroke="midnightblue" points="730.3,-532.06 736.76,-523.66 726.47,-526.2 730.3,-532.06"/>
</g>
<!-- Node3 -->
<g id="node3" class="node">
<title>Node3</title>
<g id="a_node3"><a xlink:title=" ">
<polygon fill="white" stroke="#bfbfbf" points="646.5,-224.5 646.5,-243.5 693.5,-243.5 693.5,-224.5 646.5,-224.5"/>
<text text-anchor="middle" x="670" y="-231.5" font-family="Helvetica,sans-Serif" font-size="10.00">cmath</text>
</a>
</g>
</g>
<!-- Node2&#45;&gt;Node3 -->
<g id="edge2" class="edge">
<title>Node2&#45;&gt;Node3</title>
<path fill="none" stroke="midnightblue" d="M565.39,-448.22C562.05,-435.37 557.54,-410.91 565,-392 575.27,-365.97 637.14,-324.31 651,-300 659.19,-285.64 664.11,-267.44 666.89,-253.95"/>
<polygon fill="midnightblue" stroke="midnightblue" points="670.37,-254.39 668.74,-243.92 663.48,-253.12 670.37,-254.39"/>
</g>
<!-- Node4 -->
<g id="node4" class="node">
<title>Node4</title>
<g id="a_node4"><a xlink:title=" ">
<polygon fill="white" stroke="#bfbfbf" points="484.5,-0.5 484.5,-19.5 553.5,-19.5 553.5,-0.5 484.5,-0.5"/>
<text text-anchor="middle" x="519" y="-7.5" font-family="Helvetica,sans-Serif" font-size="10.00">type_traits</text>
</a>
</g>
</g>
<!-- Node2&#45;&gt;Node4 -->
<g id="edge3" class="edge">
<title>Node2&#45;&gt;Node4</title>
<path fill="none" stroke="midnightblue" d="M523.08,-448.48C445.83,-432.54 296,-395.39 296,-347 296,-347 296,-347 296,-233 296,-192.47 311.38,-84.7 340,-56 358.67,-37.28 427.65,-24 474.32,-16.92"/>
<polygon fill="midnightblue" stroke="midnightblue" points="475.11,-20.34 484.49,-15.42 474.09,-13.41 475.11,-20.34"/>
</g>
<!-- Node5 -->
<g id="node5" class="node">
<title>Node5</title>
<g id="a_node5"><a xlink:href="RealConstants_8hpp.html" target="_top" xlink:title="Definitions file for constant expressions of type Real.">
<polygon fill="white" stroke="black" points="574,-392.5 574,-411.5 722,-411.5 722,-392.5 574,-392.5"/>
<text text-anchor="middle" x="648" y="-399.5" font-family="Helvetica,sans-Serif" font-size="10.00">playrho/RealConstants.hpp</text>
</a>
</g>
</g>
<!-- Node2&#45;&gt;Node5 -->
<g id="edge4" class="edge">
<title>Node2&#45;&gt;Node5</title>
<path fill="none" stroke="midnightblue" d="M580.85,-448.32C593.22,-439.98 612.13,-427.21 626.74,-417.35"/>
<polygon fill="midnightblue" stroke="midnightblue" points="628.85,-420.15 635.18,-411.65 624.93,-414.35 628.85,-420.15"/>
</g>
<!-- Node13 -->
<g id="node13" class="node">
<title>Node13</title>
<g id="a_node13"><a xlink:href="Templates_8hpp.html" target="_top" xlink:title="Definitions of miscellaneous template related code.">
<polygon fill="white" stroke="black" points="165,-112.5 165,-131.5 293,-131.5 293,-112.5 165,-112.5"/>
<text text-anchor="middle" x="229" y="-119.5" font-family="Helvetica,sans-Serif" font-size="10.00">playrho/Templates.hpp</text>
</a>
</g>
</g>
<!-- Node2&#45;&gt;Node13 -->
<g id="edge38" class="edge">
<title>Node2&#45;&gt;Node13</title>
<path fill="none" stroke="midnightblue" d="M516.3,-455.02C443.81,-451.24 316.94,-440.64 282,-412 258.18,-392.48 258,-377.8 258,-347 258,-347 258,-347 258,-233 258,-199.72 245.43,-162.58 236.84,-141.09"/>
<polygon fill="midnightblue" stroke="midnightblue" points="239.98,-139.53 232.91,-131.64 233.52,-142.21 239.98,-139.53"/>
</g>
<!-- Node6 -->
<g id="node6" class="node">
<title>Node6</title>
<g id="a_node6"><a xlink:href="Defines_8hpp.html" target="_top" xlink:title="Miscellaneous C&#45;preprocessor definitions.">
<polygon fill="white" stroke="black" points="692,-112.5 692,-131.5 806,-131.5 806,-112.5 692,-112.5"/>
<text text-anchor="middle" x="749" y="-119.5" font-family="Helvetica,sans-Serif" font-size="10.00">playrho/Defines.hpp</text>
</a>
</g>
</g>
<!-- Node5&#45;&gt;Node6 -->
<g id="edge5" class="edge">
<title>Node5&#45;&gt;Node6</title>
<path fill="none" stroke="midnightblue" d="M651.4,-392.11C662.54,-362.94 698.79,-267.55 727,-188 732.54,-172.39 738.55,-154.55 742.89,-141.52"/>
<polygon fill="midnightblue" stroke="midnightblue" points="746.27,-142.45 746.09,-131.86 739.62,-140.25 746.27,-142.45"/>
</g>
<!-- Node7 -->
<g id="node7" class="node">
<title>Node7</title>
<g id="a_node7"><a xlink:href="Real_8hpp.html" target="_top" xlink:title="Real number definition file.">
<polygon fill="white" stroke="black" points="482.5,-336.5 482.5,-355.5 581.5,-355.5 581.5,-336.5 482.5,-336.5"/>
<text text-anchor="middle" x="532" y="-343.5" font-family="Helvetica,sans-Serif" font-size="10.00">playrho/Real.hpp</text>
</a>
</g>
</g>
<!-- Node5&#45;&gt;Node7 -->
<g id="edge6" class="edge">
<title>Node5&#45;&gt;Node7</title>
<path fill="none" stroke="midnightblue" d="M629.62,-392.44C610.78,-383.68 581.27,-369.94 559.62,-359.86"/>
<polygon fill="midnightblue" stroke="midnightblue" points="560.84,-356.56 550.29,-355.52 557.88,-362.91 560.84,-356.56"/>
</g>
<!-- Node8 -->
<g id="node8" class="node">
<title>Node8</title>
<g id="a_node8"><a xlink:href="Fixed_8hpp.html" target="_top" xlink:title="Definition of the Fixed class and closely related code.">
<polygon fill="white" stroke="black" points="525.5,-224.5 525.5,-243.5 628.5,-243.5 628.5,-224.5 525.5,-224.5"/>
<text text-anchor="middle" x="577" y="-231.5" font-family="Helvetica,sans-Serif" font-size="10.00">playrho/Fixed.hpp</text>
</a>
</g>
</g>
<!-- Node7&#45;&gt;Node8 -->
<g id="edge7" class="edge">
<title>Node7&#45;&gt;Node8</title>
<path fill="none" stroke="midnightblue" d="M523.45,-336.3C512.02,-323.56 494.34,-299.24 505,-280 513.09,-265.41 528.1,-254.92 542.34,-247.76"/>
<polygon fill="midnightblue" stroke="midnightblue" points="543.89,-250.9 551.5,-243.53 540.95,-244.55 543.89,-250.9"/>
</g>
<!-- Node27 -->
<g id="node27" class="node">
<title>Node27</title>
<g id="a_node27"><a xlink:href="FixedMath_8hpp.html" target="_top" xlink:title="Conventional math functions for the Fixed class template.">
<polygon fill="white" stroke="black" points="514,-280.5 514,-299.5 642,-299.5 642,-280.5 514,-280.5"/>
<text text-anchor="middle" x="578" y="-287.5" font-family="Helvetica,sans-Serif" font-size="10.00">playrho/FixedMath.hpp</text>
</a>
</g>
</g>
<!-- Node7&#45;&gt;Node27 -->
<g id="edge33" class="edge">
<title>Node7&#45;&gt;Node27</title>
<path fill="none" stroke="midnightblue" d="M539.6,-336.08C546.23,-328.3 556.02,-316.8 564.06,-307.37"/>
<polygon fill="midnightblue" stroke="midnightblue" points="566.73,-309.63 570.55,-299.75 561.4,-305.09 566.73,-309.63"/>
</g>
<!-- Node28 -->
<g id="node28" class="node">
<title>Node28</title>
<g id="a_node28"><a xlink:href="FixedLimits_8hpp.html" target="_top" xlink:title="Specialization of std::numeric_limits for Fixed.">
<polygon fill="white" stroke="black" points="324.5,-280.5 324.5,-299.5 457.5,-299.5 457.5,-280.5 324.5,-280.5"/>
<text text-anchor="middle" x="391" y="-287.5" font-family="Helvetica,sans-Serif" font-size="10.00">playrho/FixedLimits.hpp</text>
</a>
</g>
</g>
<!-- Node7&#45;&gt;Node28 -->
<g id="edge36" class="edge">
<title>Node7&#45;&gt;Node28</title>
<path fill="none" stroke="midnightblue" d="M509.66,-336.44C486.25,-327.48 449.26,-313.31 422.81,-303.18"/>
<polygon fill="midnightblue" stroke="midnightblue" points="423.83,-299.82 413.24,-299.52 421.32,-306.36 423.83,-299.82"/>
</g>
<!-- Node8&#45;&gt;Node4 -->
<g id="edge11" class="edge">
<title>Node8&#45;&gt;Node4</title>
<path fill="none" stroke="midnightblue" d="M583.6,-224.48C603.63,-197.52 660.13,-112.52 623,-56 609.75,-35.82 585.3,-24.65 563.44,-18.49"/>
<polygon fill="midnightblue" stroke="midnightblue" points="564.19,-15.06 553.63,-15.99 562.46,-21.85 564.19,-15.06"/>
</g>
<!-- Node9 -->
<g id="node9" class="node">
<title>Node9</title>
<g id="a_node9"><a xlink:title=" ">
<polygon fill="white" stroke="#bfbfbf" points="913,-112.5 913,-131.5 963,-131.5 963,-112.5 913,-112.5"/>
<text text-anchor="middle" x="938" y="-119.5" font-family="Helvetica,sans-Serif" font-size="10.00">cstdint</text>
</a>
</g>
</g>
<!-- Node8&#45;&gt;Node9 -->
<g id="edge8" class="edge">
<title>Node8&#45;&gt;Node9</title>
<path fill="none" stroke="midnightblue" d="M628.57,-225.32C631.76,-224.87 634.92,-224.42 638,-224 700.37,-215.41 871.13,-228.89 919,-188 932.25,-176.68 936.53,-156.68 937.78,-141.84"/>
<polygon fill="midnightblue" stroke="midnightblue" points="941.28,-141.89 938.24,-131.74 934.29,-141.56 941.28,-141.89"/>
</g>
<!-- Node10 -->
<g id="node10" class="node">
<title>Node10</title>
<g id="a_node10"><a xlink:title=" ">
<polygon fill="white" stroke="#bfbfbf" points="300,-0.5 300,-19.5 344,-19.5 344,-0.5 300,-0.5"/>
<text text-anchor="middle" x="322" y="-7.5" font-family="Helvetica,sans-Serif" font-size="10.00">limits</text>
</a>
</g>
</g>
<!-- Node8&#45;&gt;Node10 -->
<g id="edge9" class="edge">
<title>Node8&#45;&gt;Node10</title>
<path fill="none" stroke="midnightblue" d="M534.96,-224.46C506.91,-217.51 470,-205.88 441,-188 383.94,-152.82 370.57,-135.65 340,-76 332.49,-61.35 327.8,-43.18 325.1,-29.78"/>
<polygon fill="midnightblue" stroke="midnightblue" points="328.52,-29.03 323.28,-19.83 321.63,-30.29 328.52,-29.03"/>
</g>
<!-- Node11 -->
<g id="node11" class="node">
<title>Node11</title>
<g id="a_node11"><a xlink:title=" ">
<polygon fill="white" stroke="#bfbfbf" points="966,-168.5 966,-187.5 1018,-187.5 1018,-168.5 966,-168.5"/>
<text text-anchor="middle" x="992" y="-175.5" font-family="Helvetica,sans-Serif" font-size="10.00">cassert</text>
</a>
</g>
</g>
<!-- Node8&#45;&gt;Node11 -->
<g id="edge10" class="edge">
<title>Node8&#45;&gt;Node11</title>
<path fill="none" stroke="midnightblue" d="M628.57,-225.27C631.76,-224.83 634.92,-224.4 638,-224 777.28,-205.75 813.5,-211.45 952,-188 953.26,-187.79 954.55,-187.56 955.84,-187.32"/>
<polygon fill="midnightblue" stroke="midnightblue" points="956.72,-190.71 965.83,-185.31 955.34,-183.85 956.72,-190.71"/>
</g>
<!-- Node12 -->
<g id="node12" class="node">
<title>Node12</title>
<g id="a_node12"><a xlink:title=" ">
<polygon fill="white" stroke="#bfbfbf" points="658,-168.5 658,-187.5 718,-187.5 718,-168.5 658,-168.5"/>
<text text-anchor="middle" x="688" y="-175.5" font-family="Helvetica,sans-Serif" font-size="10.00">iostream</text>
</a>
</g>
</g>
<!-- Node8&#45;&gt;Node12 -->
<g id="edge12" class="edge">
<title>Node8&#45;&gt;Node12</title>
<path fill="none" stroke="midnightblue" d="M594.83,-224.32C612.72,-215.62 640.48,-202.12 661.05,-192.11"/>
<polygon fill="midnightblue" stroke="midnightblue" points="662.75,-195.18 670.21,-187.65 659.69,-188.88 662.75,-195.18"/>
</g>
<!-- Node8&#45;&gt;Node13 -->
<g id="edge13" class="edge">
<title>Node8&#45;&gt;Node13</title>
<path fill="none" stroke="midnightblue" d="M525.08,-226.28C480.04,-219.53 413.54,-207.32 358,-188 319.14,-174.49 277.12,-151.6 251.94,-136.9"/>
<polygon fill="midnightblue" stroke="midnightblue" points="253.54,-133.79 243.15,-131.71 249.98,-139.81 253.54,-133.79"/>
</g>
<!-- Node19 -->
<g id="node19" class="node">
<title>Node19</title>
<g id="a_node19"><a xlink:href="TypeInfo_8hpp.html" target="_top" xlink:title="Definition of TypeID class and closely related code.">
<polygon fill="white" stroke="black" points="450.5,-168.5 450.5,-187.5 569.5,-187.5 569.5,-168.5 450.5,-168.5"/>
<text text-anchor="middle" x="510" y="-175.5" font-family="Helvetica,sans-Serif" font-size="10.00">playrho/TypeInfo.hpp</text>
</a>
</g>
</g>
<!-- Node8&#45;&gt;Node19 -->
<g id="edge21" class="edge">
<title>Node8&#45;&gt;Node19</title>
<path fill="none" stroke="midnightblue" d="M566.24,-224.32C556.23,-216.26 541.11,-204.08 529.07,-194.37"/>
<polygon fill="midnightblue" stroke="midnightblue" points="530.94,-191.38 520.96,-187.83 526.55,-196.83 530.94,-191.38"/>
</g>
<!-- Node26 -->
<g id="node26" class="node">
<title>Node26</title>
<g id="a_node26"><a xlink:href="Wider_8hpp.html" target="_top" xlink:title="Definition of the Wider class template and specializations.">
<polygon fill="white" stroke="black" points="774,-168.5 774,-187.5 910,-187.5 910,-168.5 774,-168.5"/>
<text text-anchor="middle" x="842" y="-175.5" font-family="Helvetica,sans-Serif" font-size="10.00">playrho/detail/Wider.hpp</text>
</a>
</g>
</g>
<!-- Node8&#45;&gt;Node26 -->
<g id="edge29" class="edge">
<title>Node8&#45;&gt;Node26</title>
<path fill="none" stroke="midnightblue" d="M618.99,-224.44C665.41,-214.98 740.23,-199.74 790.24,-189.55"/>
<polygon fill="midnightblue" stroke="midnightblue" points="791.11,-192.94 800.21,-187.52 789.71,-186.08 791.11,-192.94"/>
</g>
<!-- Node14 -->
<g id="node14" class="node">
<title>Node14</title>
<g id="a_node14"><a xlink:href="detail_2Templates_8hpp.html" target="_top" xlink:title="Low&#45;level declarations for general class &amp; function templates.">
<polygon fill="white" stroke="black" points="97,-56.5 97,-75.5 255,-75.5 255,-56.5 97,-56.5"/>
<text text-anchor="middle" x="176" y="-63.5" font-family="Helvetica,sans-Serif" font-size="10.00">playrho/detail/Templates.hpp</text>
</a>
</g>
</g>
<!-- Node13&#45;&gt;Node14 -->
<g id="edge14" class="edge">
<title>Node13&#45;&gt;Node14</title>
<path fill="none" stroke="midnightblue" d="M220.25,-112.08C212.53,-104.22 201.1,-92.57 191.78,-83.08"/>
<polygon fill="midnightblue" stroke="midnightblue" points="194.09,-80.44 184.59,-75.75 189.1,-85.34 194.09,-80.44"/>
</g>
<!-- Node14&#45;&gt;Node4 -->
<g id="edge19" class="edge">
<title>Node14&#45;&gt;Node4</title>
<path fill="none" stroke="midnightblue" d="M230.35,-56.44C297.81,-45.82 411.59,-27.91 474.26,-18.04"/>
<polygon fill="midnightblue" stroke="midnightblue" points="474.9,-21.49 484.23,-16.47 473.81,-14.57 474.9,-21.49"/>
</g>
<!-- Node14&#45;&gt;Node10 -->
<g id="edge18" class="edge">
<title>Node14&#45;&gt;Node10</title>
<path fill="none" stroke="midnightblue" d="M199.13,-56.44C223.77,-47.33 262.92,-32.85 290.39,-22.69"/>
<polygon fill="midnightblue" stroke="midnightblue" points="291.76,-25.91 299.93,-19.16 289.34,-19.35 291.76,-25.91"/>
</g>
<!-- Node15 -->
<g id="node15" class="node">
<title>Node15</title>
<g id="a_node15"><a xlink:title=" ">
<polygon fill="white" stroke="#bfbfbf" points="0,-0.5 0,-19.5 64,-19.5 64,-0.5 0,-0.5"/>
<text text-anchor="middle" x="32" y="-7.5" font-family="Helvetica,sans-Serif" font-size="10.00">algorithm</text>
</a>
</g>
</g>
<!-- Node14&#45;&gt;Node15 -->
<g id="edge15" class="edge">
<title>Node14&#45;&gt;Node15</title>
<path fill="none" stroke="midnightblue" d="M153.18,-56.44C129.17,-47.44 91.17,-33.19 64.13,-23.05"/>
<polygon fill="midnightblue" stroke="midnightblue" points="65.3,-19.75 54.71,-19.52 62.84,-26.3 65.3,-19.75"/>
</g>
<!-- Node16 -->
<g id="node16" class="node">
<title>Node16</title>
<g id="a_node16"><a xlink:title=" ">
<polygon fill="white" stroke="#bfbfbf" points="216.5,-0.5 216.5,-19.5 281.5,-19.5 281.5,-0.5 216.5,-0.5"/>
<text text-anchor="middle" x="249" y="-7.5" font-family="Helvetica,sans-Serif" font-size="10.00">functional</text>
</a>
</g>
</g>
<!-- Node14&#45;&gt;Node16 -->
<g id="edge16" class="edge">
<title>Node14&#45;&gt;Node16</title>
<path fill="none" stroke="midnightblue" d="M187.73,-56.32C198.84,-48.11 215.74,-35.6 228.98,-25.81"/>
<polygon fill="midnightblue" stroke="midnightblue" points="231.1,-28.59 237.06,-19.83 226.94,-22.97 231.1,-28.59"/>
</g>
<!-- Node17 -->
<g id="node17" class="node">
<title>Node17</title>
<g id="a_node17"><a xlink:title=" ">
<polygon fill="white" stroke="#bfbfbf" points="82.5,-0.5 82.5,-19.5 135.5,-19.5 135.5,-0.5 82.5,-0.5"/>
<text text-anchor="middle" x="109" y="-7.5" font-family="Helvetica,sans-Serif" font-size="10.00">iterator</text>
</a>
</g>
</g>
<!-- Node14&#45;&gt;Node17 -->
<g id="edge17" class="edge">
<title>Node14&#45;&gt;Node17</title>
<path fill="none" stroke="midnightblue" d="M165.24,-56.32C155.23,-48.26 140.11,-36.08 128.07,-26.37"/>
<polygon fill="midnightblue" stroke="midnightblue" points="129.94,-23.38 119.96,-19.83 125.55,-28.83 129.94,-23.38"/>
</g>
<!-- Node18 -->
<g id="node18" class="node">
<title>Node18</title>
<g id="a_node18"><a xlink:title=" ">
<polygon fill="white" stroke="#bfbfbf" points="153.5,-0.5 153.5,-19.5 198.5,-19.5 198.5,-0.5 153.5,-0.5"/>
<text text-anchor="middle" x="176" y="-7.5" font-family="Helvetica,sans-Serif" font-size="10.00">utility</text>
</a>
</g>
</g>
<!-- Node14&#45;&gt;Node18 -->
<g id="edge20" class="edge">
<title>Node14&#45;&gt;Node18</title>
<path fill="none" stroke="midnightblue" d="M176,-56.08C176,-49.01 176,-38.86 176,-29.99"/>
<polygon fill="midnightblue" stroke="midnightblue" points="179.5,-29.75 176,-19.75 172.5,-29.75 179.5,-29.75"/>
</g>
<!-- Node19&#45;&gt;Node13 -->
<g id="edge23" class="edge">
<title>Node19&#45;&gt;Node13</title>
<path fill="none" stroke="midnightblue" d="M465.47,-168.44C416.04,-158.94 336.25,-143.61 283.22,-133.42"/>
<polygon fill="midnightblue" stroke="midnightblue" points="283.8,-129.97 273.32,-131.52 282.48,-136.84 283.8,-129.97"/>
</g>
<!-- Node20 -->
<g id="node20" class="node">
<title>Node20</title>
<g id="a_node20"><a xlink:title=" ">
<polygon fill="white" stroke="#bfbfbf" points="560,-112.5 560,-131.5 610,-131.5 610,-112.5 560,-112.5"/>
<text text-anchor="middle" x="585" y="-119.5" font-family="Helvetica,sans-Serif" font-size="10.00">cstring</text>
</a>
</g>
</g>
<!-- Node19&#45;&gt;Node20 -->
<g id="edge22" class="edge">
<title>Node19&#45;&gt;Node20</title>
<path fill="none" stroke="midnightblue" d="M522.05,-168.32C533.46,-160.11 550.83,-147.6 564.43,-137.81"/>
<polygon fill="midnightblue" stroke="midnightblue" points="566.66,-140.52 572.73,-131.83 562.57,-134.84 566.66,-140.52"/>
</g>
<!-- Node21 -->
<g id="node21" class="node">
<title>Node21</title>
<g id="a_node21"><a xlink:href="detail_2TypeInfo_8hpp.html" target="_top" xlink:title="Definition of TypeInfo class template and related code.">
<polygon fill="white" stroke="black" points="393.5,-112.5 393.5,-131.5 542.5,-131.5 542.5,-112.5 393.5,-112.5"/>
<text text-anchor="middle" x="468" y="-119.5" font-family="Helvetica,sans-Serif" font-size="10.00">playrho/detail/TypeInfo.hpp</text>
</a>
</g>
</g>
<!-- Node19&#45;&gt;Node21 -->
<g id="edge24" class="edge">
<title>Node19&#45;&gt;Node21</title>
<path fill="none" stroke="midnightblue" d="M503.06,-168.08C497.07,-160.38 488.25,-149.03 480.95,-139.65"/>
<polygon fill="midnightblue" stroke="midnightblue" points="483.71,-137.5 474.81,-131.75 478.18,-141.79 483.71,-137.5"/>
</g>
<!-- Node22 -->
<g id="node22" class="node">
<title>Node22</title>
<g id="a_node22"><a xlink:title=" ">
<polygon fill="white" stroke="#bfbfbf" points="570,-56.5 570,-75.5 614,-75.5 614,-56.5 570,-56.5"/>
<text text-anchor="middle" x="592" y="-63.5" font-family="Helvetica,sans-Serif" font-size="10.00">regex</text>
</a>
</g>
</g>
<!-- Node21&#45;&gt;Node22 -->
<g id="edge25" class="edge">
<title>Node21&#45;&gt;Node22</title>
<path fill="none" stroke="midnightblue" d="M487.65,-112.44C507.96,-103.6 539.9,-89.69 563.1,-79.59"/>
<polygon fill="midnightblue" stroke="midnightblue" points="564.67,-82.72 572.44,-75.52 561.88,-76.3 564.67,-82.72"/>
</g>
<!-- Node23 -->
<g id="node23" class="node">
<title>Node23</title>
<g id="a_node23"><a xlink:title=" ">
<polygon fill="white" stroke="#bfbfbf" points="349,-56.5 349,-75.5 393,-75.5 393,-56.5 349,-56.5"/>
<text text-anchor="middle" x="371" y="-63.5" font-family="Helvetica,sans-Serif" font-size="10.00">string</text>
</a>
</g>
</g>
<!-- Node21&#45;&gt;Node23 -->
<g id="edge26" class="edge">
<title>Node21&#45;&gt;Node23</title>
<path fill="none" stroke="midnightblue" d="M452.42,-112.32C437,-103.74 413.19,-90.49 395.29,-80.52"/>
<polygon fill="midnightblue" stroke="midnightblue" points="396.99,-77.46 386.55,-75.65 393.58,-83.58 396.99,-77.46"/>
</g>
<!-- Node24 -->
<g id="node24" class="node">
<title>Node24</title>
<g id="a_node24"><a xlink:title=" ">
<polygon fill="white" stroke="#bfbfbf" points="411.5,-56.5 411.5,-75.5 476.5,-75.5 476.5,-56.5 411.5,-56.5"/>
<text text-anchor="middle" x="444" y="-63.5" font-family="Helvetica,sans-Serif" font-size="10.00">typeindex</text>
</a>
</g>
</g>
<!-- Node21&#45;&gt;Node24 -->
<g id="edge27" class="edge">
<title>Node21&#45;&gt;Node24</title>
<path fill="none" stroke="midnightblue" d="M464.04,-112.08C460.79,-104.77 456.08,-94.18 452.05,-85.1"/>
<polygon fill="midnightblue" stroke="midnightblue" points="455.15,-83.47 447.89,-75.75 448.75,-86.31 455.15,-83.47"/>
</g>
<!-- Node25 -->
<g id="node25" class="node">
<title>Node25</title>
<g id="a_node25"><a xlink:title=" ">
<polygon fill="white" stroke="#bfbfbf" points="494.5,-56.5 494.5,-75.5 551.5,-75.5 551.5,-56.5 494.5,-56.5"/>
<text text-anchor="middle" x="523" y="-63.5" font-family="Helvetica,sans-Serif" font-size="10.00">typeinfo</text>
</a>
</g>
</g>
<!-- Node21&#45;&gt;Node25 -->
<g id="edge28" class="edge">
<title>Node21&#45;&gt;Node25</title>
<path fill="none" stroke="midnightblue" d="M477.08,-112.08C485.17,-104.14 497.2,-92.34 506.91,-82.8"/>
<polygon fill="midnightblue" stroke="midnightblue" points="509.4,-85.25 514.09,-75.75 504.5,-80.26 509.4,-85.25"/>
</g>
<!-- Node26&#45;&gt;Node4 -->
<g id="edge31" class="edge">
<title>Node26&#45;&gt;Node4</title>
<path fill="none" stroke="midnightblue" d="M840.67,-168.13C838.13,-154.27 831.33,-127.45 815,-112 744.39,-45.18 627.77,-22.42 564.03,-14.78"/>
<polygon fill="midnightblue" stroke="midnightblue" points="564.22,-11.28 553.9,-13.64 563.44,-18.23 564.22,-11.28"/>
</g>
<!-- Node26&#45;&gt;Node6 -->
<g id="edge32" class="edge">
<title>Node26&#45;&gt;Node6</title>
<path fill="none" stroke="midnightblue" d="M827.06,-168.32C812.41,-159.82 789.87,-146.73 772.76,-136.8"/>
<polygon fill="midnightblue" stroke="midnightblue" points="774.31,-133.65 763.9,-131.65 770.8,-139.7 774.31,-133.65"/>
</g>
<!-- Node26&#45;&gt;Node9 -->
<g id="edge30" class="edge">
<title>Node26&#45;&gt;Node9</title>
<path fill="none" stroke="midnightblue" d="M857.42,-168.32C872.54,-159.82 895.82,-146.73 913.47,-136.8"/>
<polygon fill="midnightblue" stroke="midnightblue" points="915.61,-139.61 922.61,-131.65 912.18,-133.51 915.61,-139.61"/>
</g>
<!-- Node27&#45;&gt;Node3 -->
<g id="edge34" class="edge">
<title>Node27&#45;&gt;Node3</title>
<path fill="none" stroke="midnightblue" d="M592.78,-280.32C607.27,-271.82 629.57,-258.73 646.49,-248.8"/>
<polygon fill="midnightblue" stroke="midnightblue" points="648.4,-251.74 655.26,-243.65 644.86,-245.7 648.4,-251.74"/>
</g>
<!-- Node27&#45;&gt;Node8 -->
<g id="edge35" class="edge">
<title>Node27&#45;&gt;Node8</title>
<path fill="none" stroke="midnightblue" d="M577.83,-280.08C577.7,-273.01 577.52,-262.86 577.35,-253.99"/>
<polygon fill="midnightblue" stroke="midnightblue" points="580.85,-253.68 577.16,-243.75 573.85,-253.81 580.85,-253.68"/>
</g>
<!-- Node28&#45;&gt;Node8 -->
<g id="edge37" class="edge">
<title>Node28&#45;&gt;Node8</title>
<path fill="none" stroke="midnightblue" d="M420.47,-280.44C452.17,-271.24 502.73,-256.56 537.77,-246.39"/>
<polygon fill="midnightblue" stroke="midnightblue" points="539.04,-249.67 547.67,-243.52 537.09,-242.94 539.04,-249.67"/>
</g>
<!-- Node29&#45;&gt;Node2 -->
<g id="edge48" class="edge">
<title>Node29&#45;&gt;Node2</title>
<path fill="none" stroke="midnightblue" d="M721.16,-504.44C690.14,-495.24 640.67,-480.56 606.38,-470.39"/>
<polygon fill="midnightblue" stroke="midnightblue" points="607.29,-467.01 596.7,-467.52 605.29,-473.72 607.29,-467.01"/>
</g>
<!-- Node29&#45;&gt;Node3 -->
<g id="edge43" class="edge">
<title>Node29&#45;&gt;Node3</title>
<path fill="none" stroke="midnightblue" d="M749.29,-504.36C747.49,-484.33 742.12,-433.27 731,-392 716.98,-339.95 691.51,-281.44 678.36,-252.77"/>
<polygon fill="midnightblue" stroke="midnightblue" points="681.5,-251.23 674.12,-243.63 675.15,-254.17 681.5,-251.23"/>
</g>
<!-- Node29&#45;&gt;Node5 -->
<g id="edge46" class="edge">
<title>Node29&#45;&gt;Node5</title>
<path fill="none" stroke="midnightblue" d="M742,-504.37C724.94,-485.97 684.79,-442.67 662.88,-419.05"/>
<polygon fill="midnightblue" stroke="midnightblue" points="665.33,-416.54 655.97,-411.59 660.2,-421.3 665.33,-416.54"/>
</g>
<!-- Node29&#45;&gt;Node9 -->
<g id="edge44" class="edge">
<title>Node29&#45;&gt;Node9</title>
<path fill="none" stroke="midnightblue" d="M808.51,-510.68C880.02,-506.65 995.42,-495.91 1027,-468 1049.55,-448.07 1046,-433.1 1046,-403 1046,-403 1046,-403 1046,-233 1046,-202.9 1046.24,-191.15 1027,-168 1013.02,-151.18 991.17,-140.01 972.62,-133"/>
<polygon fill="midnightblue" stroke="midnightblue" points="973.6,-129.63 963,-129.62 971.28,-136.24 973.6,-129.63"/>
</g>
<!-- Node29&#45;&gt;Node11 -->
<g id="edge41" class="edge">
<title>Node29&#45;&gt;Node11</title>
<path fill="none" stroke="midnightblue" d="M774.98,-504.39C811.25,-490.61 878.17,-460.15 915,-412 933.29,-388.09 934,-377.1 934,-347 934,-347 934,-347 934,-289 934,-252.16 959.77,-215.57 976.95,-195.25"/>
<polygon fill="midnightblue" stroke="midnightblue" points="979.71,-197.41 983.69,-187.59 974.46,-192.79 979.71,-197.41"/>
</g>
<!-- Node29&#45;&gt;Node13 -->
<g id="edge47" class="edge">
<title>Node29&#45;&gt;Node13</title>
<path fill="none" stroke="midnightblue" d="M691.26,-513.07C553.26,-511.66 220,-498.38 220,-403 220,-403 220,-403 220,-233 220,-200.84 223.87,-163.57 226.53,-141.71"/>
<polygon fill="midnightblue" stroke="midnightblue" points="230.04,-141.9 227.82,-131.54 223.09,-141.02 230.04,-141.9"/>
</g>
<!-- Node29&#45;&gt;Node15 -->
<g id="edge45" class="edge">
<title>Node29&#45;&gt;Node15</title>
<path fill="none" stroke="midnightblue" d="M691.31,-509.92C523.05,-500.31 51,-467.61 51,-403 51,-403 51,-403 51,-121 51,-88.49 42.84,-51.35 37.22,-29.61"/>
<polygon fill="midnightblue" stroke="midnightblue" points="40.54,-28.5 34.56,-19.75 33.78,-30.32 40.54,-28.5"/>
</g>
<!-- Node30 -->
<g id="node30" class="node">
<title>Node30</title>
<g id="a_node30"><a xlink:title=" ">
<polygon fill="white" stroke="#bfbfbf" points="902.5,-448.5 902.5,-467.5 955.5,-467.5 955.5,-448.5 902.5,-448.5"/>
<text text-anchor="middle" x="929" y="-455.5" font-family="Helvetica,sans-Serif" font-size="10.00">cstddef</text>
</a>
</g>
</g>
<!-- Node29&#45;&gt;Node30 -->
<g id="edge40" class="edge">
<title>Node29&#45;&gt;Node30</title>
<path fill="none" stroke="midnightblue" d="M778.36,-504.44C809.18,-495.15 858.54,-480.26 892.29,-470.07"/>
<polygon fill="midnightblue" stroke="midnightblue" points="893.67,-473.31 902.23,-467.08 891.65,-466.61 893.67,-473.31"/>
</g>
<!-- Node31 -->
<g id="node31" class="node">
<title>Node31</title>
<g id="a_node31"><a xlink:title=" ">
<polygon fill="white" stroke="#bfbfbf" points="974,-448.5 974,-467.5 1018,-467.5 1018,-448.5 974,-448.5"/>
<text text-anchor="middle" x="996" y="-455.5" font-family="Helvetica,sans-Serif" font-size="10.00">cfloat</text>
</a>
</g>
</g>
<!-- Node29&#45;&gt;Node31 -->
<g id="edge42" class="edge">
<title>Node29&#45;&gt;Node31</title>
<path fill="none" stroke="midnightblue" d="M795.95,-504.44C837.5,-496.45 900.56,-483.76 963.94,-468.12"/>
<polygon fill="midnightblue" stroke="midnightblue" points="964.85,-471.51 973.7,-465.69 963.15,-464.71 964.85,-471.51"/>
</g>
<!-- Node32 -->
<g id="node32" class="node">
<title>Node32</title>
<g id="a_node32"><a xlink:href="WiderType_8hpp.html" target="_top" xlink:title="Definition of the WiderType alias template.">
<polygon fill="white" stroke="black" points="778,-392.5 778,-411.5 906,-411.5 906,-392.5 778,-392.5"/>
<text text-anchor="middle" x="842" y="-399.5" font-family="Helvetica,sans-Serif" font-size="10.00">playrho/WiderType.hpp</text>
</a>
</g>
</g>
<!-- Node29&#45;&gt;Node32 -->
<g id="edge49" class="edge">
<title>Node29&#45;&gt;Node32</title>
<path fill="none" stroke="midnightblue" d="M757.22,-504.37C772.54,-486.05 808.5,-443.05 828.32,-419.36"/>
<polygon fill="midnightblue" stroke="midnightblue" points="831.08,-421.51 834.81,-411.59 825.71,-417.02 831.08,-421.51"/>
</g>
<!-- Node32&#45;&gt;Node26 -->
<g id="edge50" class="edge">
<title>Node32&#45;&gt;Node26</title>
<path fill="none" stroke="midnightblue" d="M842,-392.3C842,-359.63 842,-243.87 842,-197.96"/>
<polygon fill="midnightblue" stroke="midnightblue" points="845.5,-197.88 842,-187.88 838.5,-197.88 845.5,-197.88"/>
</g>
</g>
</svg>
        <g id="navigator" transform="translate(0 0)" fill="#404254">
                <rect fill="#f2f5e9" fill-opacity="0.5" stroke="#606060" stroke-width=".5" x="0" y="0" width="60" height="60"/>
                <use id="zoomplus" xlink:href="#zoomPlus" x="17" y="9" onmousedown="handleZoom(evt,'in')"/>
                <use id="zoomminus" xlink:href="#zoomMin" x="42" y="9" onmousedown="handleZoom(evt,'out')"/>
                <use id="reset" xlink:href="#resetDef" x="30" y="36" onmousedown="handleReset()"/>
                <g id="arrowUp" xlink:href="#dirArrow" transform="translate(30 24)" onmousedown="handlePan(0,-1)">
                  <use xlink:href="#rim" fill="#404040">
                        <set attributeName="fill" to="#808080" begin="arrowUp.mouseover" end="arrowUp.mouseout"/>
                  </use>
                  <path fill="none" stroke="white" stroke-width="1.5" d="M0,-3.0v7 M-2.5,-0.5L0,-3.0L2.5,-0.5"/>
                </g>
                <g id="arrowRight" xlink:href="#dirArrow" transform="rotate(90) translate(36 -43)" onmousedown="handlePan(1,0)">
                  <use xlink:href="#rim" fill="#404040">
                        <set attributeName="fill" to="#808080" begin="arrowRight.mouseover" end="arrowRight.mouseout"/>
                  </use>
                  <path fill="none" stroke="white" stroke-width="1.5" d="M0,-3.0v7 M-2.5,-0.5L0,-3.0L2.5,-0.5"/>
                </g>
                <g id="arrowDown" xlink:href="#dirArrow" transform="rotate(180) translate(-30 -48)" onmousedown="handlePan(0,1)">
                  <use xlink:href="#rim" fill="#404040">
                        <set attributeName="fill" to="#808080" begin="arrowDown.mouseover" end="arrowDown.mouseout"/>
                  </use>
                  <path fill="none" stroke="white" stroke-width="1.5" d="M0,-3.0v7 M-2.5,-0.5L0,-3.0L2.5,-0.5"/>
                </g>
                <g id="arrowLeft" xlink:href="#dirArrow" transform="rotate(270) translate(-36 17)" onmousedown="handlePan(-1,0)">
                  <use xlink:href="#rim" fill="#404040">
                        <set attributeName="fill" to="#808080" begin="arrowLeft.mouseover" end="arrowLeft.mouseout"/>
                  </use>
                  <path fill="none" stroke="white" stroke-width="1.5" d="M0,-3.0v7 M-2.5,-0.5L0,-3.0L2.5,-0.5"/>
                </g>
        </g>
        <svg viewBox="0 0 15 15" width="100%" height="30px" preserveAspectRatio="xMaxYMin meet">
         <g id="arrow_out" transform="scale(0.3 0.3)">
          <a xlink:href="IslandStats_8hpp__incl_org.svg" target="_base">
           <rect id="button" ry="5" rx="5" y="6" x="6" height="38" width="38"
                fill="#f2f5e9" fill-opacity="0.5" stroke="#606060" stroke-width="1.0"/>
           <path id="arrow"
             d="M 11.500037,31.436501 C 11.940474,20.09759 22.043105,11.32322 32.158766,21.979434 L 37.068811,17.246167 C 37.068811,17.246167 37.088388,32 37.088388,32 L 22.160133,31.978069 C 22.160133,31.978069 26.997745,27.140456 26.997745,27.140456 C 18.528582,18.264221 13.291696,25.230495 11.500037,31.436501 z"
             style="fill:#404040;"/>
          </a>
         </g>
        </svg>
</svg>
