<?xml version="1.0" encoding="UTF-8" standalone="no"?>
<!DOCTYPE svg PUBLIC "-//W3C//DTD SVG 1.1//EN"
 "http://www.w3.org/Graphics/SVG/1.1/DTD/svg11.dtd">
<!-- Generated by graphviz version 2.43.0 (0)
 -->
<!-- Title: Library/include/playrho/JointFunction.hpp Pages: 1 -->
<svg width="362pt" height="307pt"
 viewBox="0.00 0.00 362.00 307.00" xmlns="http://www.w3.org/2000/svg" xmlns:xlink="http://www.w3.org/1999/xlink">
<g id="graph0" class="graph" transform="scale(1 1) rotate(0) translate(4 303)">
<title>Library/include/playrho/JointFunction.hpp</title>
<polygon fill="white" stroke="transparent" points="-4,4 -4,-303 358,-303 358,4 -4,4"/>
<!-- Node1 -->
<g id="node1" class="node">
<title>Node1</title>
<g id="a_node1"><a xlink:title="Definition of the JointFunction type alias.">
<polygon fill="#bfbfbf" stroke="black" points="159,-268.5 159,-298.5 287,-298.5 287,-268.5 159,-268.5"/>
<text text-anchor="start" x="167" y="-286.5" font-family="Helvetica,sans-Serif" font-size="10.00">Library/include/playrho</text>
<text text-anchor="middle" x="223" y="-275.5" font-family="Helvetica,sans-Serif" font-size="10.00">/JointFunction.hpp</text>
</a>
</g>
</g>
<!-- Node2 -->
<g id="node2" class="node">
<title>Node2</title>
<g id="a_node2"><a xlink:href="AabbTreeWorld_8hpp.html" target="_top" xlink:title="Declarations of the AabbTreeWorld class.">
<polygon fill="white" stroke="black" points="0,-201.5 0,-231.5 128,-231.5 128,-201.5 0,-201.5"/>
<text text-anchor="start" x="8" y="-219.5" font-family="Helvetica,sans-Serif" font-size="10.00">Library/include/playrho</text>
<text text-anchor="middle" x="64" y="-208.5" font-family="Helvetica,sans-Serif" font-size="10.00">/d2/AabbTreeWorld.hpp</text>
</a>
</g>
</g>
<!-- Node1&#45;&gt;Node2 -->
<g id="edge1" class="edge">
<title>Node1&#45;&gt;Node2</title>
<path fill="none" stroke="midnightblue" d="M179.08,-264.54C153.63,-254.14 122.07,-241.24 98.43,-231.58"/>
<polygon fill="midnightblue" stroke="midnightblue" points="177.92,-267.85 188.5,-268.4 180.57,-261.37 177.92,-267.85"/>
</g>
<!-- Node3 -->
<g id="node3" class="node">
<title>Node3</title>
<g id="a_node3"><a xlink:href="WorldConcept_8hpp.html" target="_top" xlink:title="Definition of the internal WorldConcept interface class.">
<polygon fill="white" stroke="black" points="146,-201.5 146,-231.5 300,-231.5 300,-201.5 146,-201.5"/>
<text text-anchor="start" x="154" y="-219.5" font-family="Helvetica,sans-Serif" font-size="10.00">Library/include/playrho</text>
<text text-anchor="middle" x="223" y="-208.5" font-family="Helvetica,sans-Serif" font-size="10.00">/d2/detail/WorldConcept.hpp</text>
</a>
</g>
</g>
<!-- Node1&#45;&gt;Node3 -->
<g id="edge2" class="edge">
<title>Node1&#45;&gt;Node3</title>
<path fill="none" stroke="midnightblue" d="M223,-258.11C223,-249.15 223,-239.32 223,-231.58"/>
<polygon fill="midnightblue" stroke="midnightblue" points="219.5,-258.4 223,-268.4 226.5,-258.4 219.5,-258.4"/>
</g>
<!-- Node5 -->
<g id="node5" class="node">
<title>Node5</title>
<g id="a_node5"><a xlink:href="World_8hpp.html" target="_top" xlink:title="Definitions of the World class and closely related code.">
<polygon fill="white" stroke="black" points="226,-67.5 226,-97.5 354,-97.5 354,-67.5 226,-67.5"/>
<text text-anchor="start" x="234" y="-85.5" font-family="Helvetica,sans-Serif" font-size="10.00">Library/include/playrho</text>
<text text-anchor="middle" x="290" y="-74.5" font-family="Helvetica,sans-Serif" font-size="10.00">/d2/World.hpp</text>
</a>
</g>
</g>
<!-- Node1&#45;&gt;Node5 -->
<g id="edge7" class="edge">
<title>Node1&#45;&gt;Node5</title>
<path fill="none" stroke="midnightblue" d="M274.35,-263.66C288.03,-256.02 301.17,-245.68 309,-232 334.05,-188.24 310.22,-125.52 297.21,-97.71"/>
<polygon fill="midnightblue" stroke="midnightblue" points="272.62,-260.61 265.33,-268.3 275.82,-266.84 272.62,-260.61"/>
</g>
<!-- Node4 -->
<g id="node4" class="node">
<title>Node4</title>
<g id="a_node4"><a xlink:href="WorldModel_8hpp.html" target="_top" xlink:title="Definitions of the WorldModel class and closely related code.">
<polygon fill="white" stroke="black" points="118,-134.5 118,-164.5 262,-164.5 262,-134.5 118,-134.5"/>
<text text-anchor="start" x="126" y="-152.5" font-family="Helvetica,sans-Serif" font-size="10.00">Library/include/playrho</text>
<text text-anchor="middle" x="190" y="-141.5" font-family="Helvetica,sans-Serif" font-size="10.00">/d2/detail/WorldModel.hpp</text>
</a>
</g>
</g>
<!-- Node3&#45;&gt;Node4 -->
<g id="edge3" class="edge">
<title>Node3&#45;&gt;Node4</title>
<path fill="none" stroke="midnightblue" d="M211.21,-192.28C206.51,-183.02 201.25,-172.66 197.15,-164.58"/>
<polygon fill="midnightblue" stroke="midnightblue" points="208.19,-194.06 215.84,-201.4 214.43,-190.89 208.19,-194.06"/>
</g>
<!-- Node3&#45;&gt;Node5 -->
<g id="edge6" class="edge">
<title>Node3&#45;&gt;Node5</title>
<path fill="none" stroke="midnightblue" d="M247.83,-194.48C256.32,-186.1 265.14,-175.87 271,-165 282.72,-143.26 287.25,-114.45 288.98,-97.55"/>
<polygon fill="midnightblue" stroke="midnightblue" points="245.43,-191.93 240.54,-201.32 250.23,-197.03 245.43,-191.93"/>
</g>
<!-- Node4&#45;&gt;Node5 -->
<g id="edge4" class="edge">
<title>Node4&#45;&gt;Node5</title>
<path fill="none" stroke="midnightblue" d="M220.41,-128.73C235.88,-118.68 254.33,-106.68 268.34,-97.58"/>
<polygon fill="midnightblue" stroke="midnightblue" points="218.18,-126.01 211.7,-134.4 221.99,-131.88 218.18,-126.01"/>
</g>
<!-- Node6 -->
<g id="node6" class="node">
<title>Node6</title>
<g id="a_node6"><a xlink:href="BasicAPI_8hpp.html" target="_top" xlink:title="Basic API include file to pull in at once most headers used.">
<polygon fill="white" stroke="black" points="226,-0.5 226,-30.5 354,-30.5 354,-0.5 226,-0.5"/>
<text text-anchor="start" x="234" y="-18.5" font-family="Helvetica,sans-Serif" font-size="10.00">Library/include/playrho</text>
<text text-anchor="middle" x="290" y="-7.5" font-family="Helvetica,sans-Serif" font-size="10.00">/d2/BasicAPI.hpp</text>
</a>
</g>
</g>
<!-- Node5&#45;&gt;Node6 -->
<g id="edge5" class="edge">
<title>Node5&#45;&gt;Node6</title>
<path fill="none" stroke="midnightblue" d="M290,-57.11C290,-48.15 290,-38.32 290,-30.58"/>
<polygon fill="midnightblue" stroke="midnightblue" points="286.5,-57.4 290,-67.4 293.5,-57.4 286.5,-57.4"/>
</g>
</g>
</svg>
