<?xml version="1.0" encoding="UTF-8" standalone="no"?>
<!DOCTYPE svg PUBLIC "-//W3C//DTD SVG 1.1//EN"
 "http://www.w3.org/Graphics/SVG/1.1/DTD/svg11.dtd">
<!-- Generated by graphviz version 2.43.0 (0)
 -->
<!-- Title: Library/include/playrho/d2/Joint.hpp Pages: 1 -->
<svg width="374pt" height="307pt"
 viewBox="0.00 0.00 374.00 307.00" xmlns="http://www.w3.org/2000/svg" xmlns:xlink="http://www.w3.org/1999/xlink">
<g id="graph0" class="graph" transform="scale(1 1) rotate(0) translate(4 303)">
<title>Library/include/playrho/d2/Joint.hpp</title>
<polygon fill="white" stroke="transparent" points="-4,4 -4,-303 370,-303 370,4 -4,4"/>
<!-- Node1 -->
<g id="node1" class="node">
<title>Node1</title>
<g id="a_node1"><a xlink:title="Definition of the Joint class and closely related code.">
<polygon fill="#bfbfbf" stroke="black" points="146,-268.5 146,-298.5 274,-298.5 274,-268.5 146,-268.5"/>
<text text-anchor="start" x="154" y="-286.5" font-family="Helvetica,sans-Serif" font-size="10.00">Library/include/playrho</text>
<text text-anchor="middle" x="210" y="-275.5" font-family="Helvetica,sans-Serif" font-size="10.00">/d2/Joint.hpp</text>
</a>
</g>
</g>
<!-- Node2 -->
<g id="node2" class="node">
<title>Node2</title>
<g id="a_node2"><a xlink:href="WorldConcept_8hpp.html" target="_top" xlink:title="Definition of the internal WorldConcept interface class.">
<polygon fill="white" stroke="black" points="28,-201.5 28,-231.5 182,-231.5 182,-201.5 28,-201.5"/>
<text text-anchor="start" x="36" y="-219.5" font-family="Helvetica,sans-Serif" font-size="10.00">Library/include/playrho</text>
<text text-anchor="middle" x="105" y="-208.5" font-family="Helvetica,sans-Serif" font-size="10.00">/d2/detail/WorldConcept.hpp</text>
</a>
</g>
</g>
<!-- Node1&#45;&gt;Node2 -->
<g id="edge1" class="edge">
<title>Node1&#45;&gt;Node2</title>
<path fill="none" stroke="midnightblue" d="M178.52,-263.02C162.18,-252.9 142.59,-240.77 127.74,-231.58"/>
<polygon fill="midnightblue" stroke="midnightblue" points="176.87,-266.11 187.22,-268.4 180.56,-260.16 176.87,-266.11"/>
</g>
<!-- Node4 -->
<g id="node4" class="node">
<title>Node4</title>
<g id="a_node4"><a xlink:href="World_8hpp.html" target="_top" xlink:title="Definitions of the World class and closely related code.">
<polygon fill="white" stroke="black" points="127,-67.5 127,-97.5 255,-97.5 255,-67.5 127,-67.5"/>
<text text-anchor="start" x="135" y="-85.5" font-family="Helvetica,sans-Serif" font-size="10.00">Library/include/playrho</text>
<text text-anchor="middle" x="191" y="-74.5" font-family="Helvetica,sans-Serif" font-size="10.00">/d2/World.hpp</text>
</a>
</g>
</g>
<!-- Node1&#45;&gt;Node4 -->
<g id="edge6" class="edge">
<title>Node1&#45;&gt;Node4</title>
<path fill="none" stroke="midnightblue" d="M207.66,-258C203.64,-215.93 195.56,-131.26 192.35,-97.68"/>
<polygon fill="midnightblue" stroke="midnightblue" points="204.2,-258.57 208.63,-268.19 211.17,-257.9 204.2,-258.57"/>
</g>
<!-- Node6 -->
<g id="node6" class="node">
<title>Node6</title>
<g id="a_node6"><a xlink:href="WorldJoint_8hpp.html" target="_top" xlink:title="Declarations of free functions of World for joints identified by JointID.">
<polygon fill="white" stroke="black" points="238,-134.5 238,-164.5 366,-164.5 366,-134.5 238,-134.5"/>
<text text-anchor="start" x="246" y="-152.5" font-family="Helvetica,sans-Serif" font-size="10.00">Library/include/playrho</text>
<text text-anchor="middle" x="302" y="-141.5" font-family="Helvetica,sans-Serif" font-size="10.00">/d2/WorldJoint.hpp</text>
</a>
</g>
</g>
<!-- Node1&#45;&gt;Node6 -->
<g id="edge7" class="edge">
<title>Node1&#45;&gt;Node6</title>
<path fill="none" stroke="midnightblue" d="M225.8,-259.83C244.87,-232.47 276.36,-187.28 292.23,-164.52"/>
<polygon fill="midnightblue" stroke="midnightblue" points="222.69,-258.17 219.85,-268.37 228.43,-262.17 222.69,-258.17"/>
</g>
<!-- Node3 -->
<g id="node3" class="node">
<title>Node3</title>
<g id="a_node3"><a xlink:href="WorldModel_8hpp.html" target="_top" xlink:title="Definitions of the WorldModel class and closely related code.">
<polygon fill="white" stroke="black" points="0,-134.5 0,-164.5 144,-164.5 144,-134.5 0,-134.5"/>
<text text-anchor="start" x="8" y="-152.5" font-family="Helvetica,sans-Serif" font-size="10.00">Library/include/playrho</text>
<text text-anchor="middle" x="72" y="-141.5" font-family="Helvetica,sans-Serif" font-size="10.00">/d2/detail/WorldModel.hpp</text>
</a>
</g>
</g>
<!-- Node2&#45;&gt;Node3 -->
<g id="edge2" class="edge">
<title>Node2&#45;&gt;Node3</title>
<path fill="none" stroke="midnightblue" d="M93.21,-192.28C88.51,-183.02 83.25,-172.66 79.15,-164.58"/>
<polygon fill="midnightblue" stroke="midnightblue" points="90.19,-194.06 97.84,-201.4 96.43,-190.89 90.19,-194.06"/>
</g>
<!-- Node2&#45;&gt;Node4 -->
<g id="edge5" class="edge">
<title>Node2&#45;&gt;Node4</title>
<path fill="none" stroke="midnightblue" d="M128.27,-194.14C136.73,-185.61 145.94,-175.36 153,-165 167.86,-143.2 179.66,-114.66 185.96,-97.79"/>
<polygon fill="midnightblue" stroke="midnightblue" points="125.8,-191.66 121.09,-201.15 130.69,-196.66 125.8,-191.66"/>
</g>
<!-- Node3&#45;&gt;Node4 -->
<g id="edge3" class="edge">
<title>Node3&#45;&gt;Node4</title>
<path fill="none" stroke="midnightblue" d="M106.65,-129.57C125.37,-119.35 148.09,-106.94 165.23,-97.58"/>
<polygon fill="midnightblue" stroke="midnightblue" points="104.92,-126.53 97.82,-134.4 108.28,-132.67 104.92,-126.53"/>
</g>
<!-- Node5 -->
<g id="node5" class="node">
<title>Node5</title>
<g id="a_node5"><a xlink:href="BasicAPI_8hpp.html" target="_top" xlink:title="Basic API include file to pull in at once most headers used.">
<polygon fill="white" stroke="black" points="173,-0.5 173,-30.5 301,-30.5 301,-0.5 173,-0.5"/>
<text text-anchor="start" x="181" y="-18.5" font-family="Helvetica,sans-Serif" font-size="10.00">Library/include/playrho</text>
<text text-anchor="middle" x="237" y="-7.5" font-family="Helvetica,sans-Serif" font-size="10.00">/d2/BasicAPI.hpp</text>
</a>
</g>
</g>
<!-- Node4&#45;&gt;Node5 -->
<g id="edge4" class="edge">
<title>Node4&#45;&gt;Node5</title>
<path fill="none" stroke="midnightblue" d="M206.81,-59.16C213.52,-49.68 221.13,-38.92 227.04,-30.58"/>
<polygon fill="midnightblue" stroke="midnightblue" points="203.9,-57.21 200.98,-67.4 209.62,-61.26 203.9,-57.21"/>
</g>
<!-- Node6&#45;&gt;Node5 -->
<g id="edge8" class="edge">
<title>Node6&#45;&gt;Node5</title>
<path fill="none" stroke="midnightblue" d="M291.41,-124.9C283.97,-108.54 273.66,-86.31 264,-67 257.78,-54.55 250.28,-40.61 244.77,-30.54"/>
<polygon fill="midnightblue" stroke="midnightblue" points="288.33,-126.59 295.64,-134.25 294.71,-123.7 288.33,-126.59"/>
</g>
</g>
</svg>
