<?xml version="1.0" encoding="UTF-8" standalone="no"?>
<!DOCTYPE svg PUBLIC "-//W3C//DTD SVG 1.1//EN"
 "http://www.w3.org/Graphics/SVG/1.1/DTD/svg11.dtd">
<!-- Generated by graphviz version 2.43.0 (0)
 -->
<!-- Title: Library/include/playrho/JointID.hpp Pages: 1 -->
<!--zoomable 374 -->
<svg id="main" version="1.1" xmlns="http://www.w3.org/2000/svg" xmlns:xlink="http://www.w3.org/1999/xlink" xml:space="preserve" onload="init(evt)">
<style type="text/css"><![CDATA[
.edge:hover path { stroke: red; }
.edge:hover polygon { stroke: red; fill: red; }
]]></style>
<script type="text/javascript"><![CDATA[
var edges = document.getElementsByTagName('g');
if (edges && edges.length) {
  for (var i=0;i<edges.length;i++) {
    if (edges[i].id.substr(0,4)=='edge') {
      edges[i].setAttribute('class','edge');
    }
  }
}
]]></script>
        <defs>
                <circle id="rim" cx="0" cy="0" r="7"/>
                <circle id="rim2" cx="0" cy="0" r="3.5"/>
                <g id="zoomPlus">
                        <use xlink:href="#rim" fill="#404040">
                                <set attributeName="fill" to="#808080" begin="zoomplus.mouseover" end="zoomplus.mouseout"/>
                        </use>
                        <path d="M-4,0h8M0,-4v8" fill="none" stroke="white" stroke-width="1.5" pointer-events="none"/>
                </g>
                <g id="zoomMin">
                        <use xlink:href="#rim" fill="#404040">
                                <set attributeName="fill" to="#808080" begin="zoomminus.mouseover" end="zoomminus.mouseout"/>
                        </use>
                        <path d="M-4,0h8" fill="none" stroke="white" stroke-width="1.5" pointer-events="none"/>
                </g>
                <g id="dirArrow">
                        <path fill="none" stroke="white" stroke-width="1.5" d="M0,-3.0v7 M-2.5,-0.5L0,-3.0L2.5,-0.5"/>
                </g>
               <g id="resetDef">
                       <use xlink:href="#rim2" fill="#404040">
                               <set attributeName="fill" to="#808080" begin="reset.mouseover" end="reset.mouseout"/>
                       </use>
               </g>
        </defs>

<script type="text/javascript">
var viewWidth = 757;
var viewHeight = 374;
var sectionId = 'dynsection-1';
</script>
<script xlink:href="svgpan.js"/>
<svg id="graph" class="graph">
<g id="viewport">
<title>Library/include/playrho/JointID.hpp</title>
<polygon fill="white" stroke="transparent" points="-4,4 -4,-370 753.11,-370 753.11,4 -4,4"/>
<!-- Node1 -->
<g id="node1" class="node">
<title>Node1</title>
<g id="a_node1"><a xlink:title="Definition of the JointID alias and closely related code.">
<polygon fill="#bfbfbf" stroke="black" points="245.11,-335.5 245.11,-365.5 373.11,-365.5 373.11,-335.5 245.11,-335.5"/>
<text text-anchor="start" x="253.11" y="-353.5" font-family="Helvetica,sans-Serif" font-size="10.00">Library/include/playrho</text>
<text text-anchor="middle" x="309.11" y="-342.5" font-family="Helvetica,sans-Serif" font-size="10.00">/JointID.hpp</text>
</a>
</g>
</g>
<!-- Node2 -->
<g id="node2" class="node">
<title>Node2</title>
<g id="a_node2"><a xlink:href="AabbTreeWorld_8hpp.html" target="_top" xlink:title="Declarations of the AabbTreeWorld class.">
<polygon fill="white" stroke="black" points="15.11,-201.5 15.11,-231.5 143.11,-231.5 143.11,-201.5 15.11,-201.5"/>
<text text-anchor="start" x="23.11" y="-219.5" font-family="Helvetica,sans-Serif" font-size="10.00">Library/include/playrho</text>
<text text-anchor="middle" x="79.11" y="-208.5" font-family="Helvetica,sans-Serif" font-size="10.00">/d2/AabbTreeWorld.hpp</text>
</a>
</g>
</g>
<!-- Node1&#45;&gt;Node2 -->
<g id="edge1" class="edge">
<title>Node1&#45;&gt;Node2</title>
<path fill="none" stroke="midnightblue" d="M234.95,-347.74C154.87,-344.1 34.87,-332.95 6.11,-299 -14.33,-274.87 22.69,-247.65 51.08,-231.57"/>
<polygon fill="midnightblue" stroke="midnightblue" points="234.85,-351.24 244.99,-348.17 235.15,-344.25 234.85,-351.24"/>
</g>
<!-- Node3 -->
<g id="node3" class="node">
<title>Node3</title>
<g id="a_node3"><a xlink:href="WorldConcept_8hpp.html" target="_top" xlink:title="Definition of the internal WorldConcept interface class.">
<polygon fill="white" stroke="black" points="254.11,-201.5 254.11,-231.5 408.11,-231.5 408.11,-201.5 254.11,-201.5"/>
<text text-anchor="start" x="262.11" y="-219.5" font-family="Helvetica,sans-Serif" font-size="10.00">Library/include/playrho</text>
<text text-anchor="middle" x="331.11" y="-208.5" font-family="Helvetica,sans-Serif" font-size="10.00">/d2/detail/WorldConcept.hpp</text>
</a>
</g>
</g>
<!-- Node1&#45;&gt;Node3 -->
<g id="edge2" class="edge">
<title>Node1&#45;&gt;Node3</title>
<path fill="none" stroke="midnightblue" d="M324.45,-326.54C329.15,-318.23 333.72,-308.53 336.11,-299 341.9,-275.9 337.94,-248.02 334.53,-231.58"/>
<polygon fill="midnightblue" stroke="midnightblue" points="321.35,-324.89 319.18,-335.26 327.35,-328.51 321.35,-324.89"/>
</g>
<!-- Node5 -->
<g id="node5" class="node">
<title>Node5</title>
<g id="a_node5"><a xlink:href="World_8hpp.html" target="_top" xlink:title="Definitions of the World class and closely related code.">
<polygon fill="white" stroke="black" points="183.11,-67.5 183.11,-97.5 311.11,-97.5 311.11,-67.5 183.11,-67.5"/>
<text text-anchor="start" x="191.11" y="-85.5" font-family="Helvetica,sans-Serif" font-size="10.00">Library/include/playrho</text>
<text text-anchor="middle" x="247.11" y="-74.5" font-family="Helvetica,sans-Serif" font-size="10.00">/d2/World.hpp</text>
</a>
</g>
</g>
<!-- Node1&#45;&gt;Node5 -->
<g id="edge9" class="edge">
<title>Node1&#45;&gt;Node5</title>
<path fill="none" stroke="midnightblue" d="M235.47,-333.56C217.69,-326.08 200.76,-315.1 190.11,-299 146.21,-232.68 209.52,-133.97 236.21,-97.61"/>
<polygon fill="midnightblue" stroke="midnightblue" points="234.23,-336.83 244.82,-337.17 236.75,-330.3 234.23,-336.83"/>
</g>
<!-- Node7 -->
<g id="node7" class="node">
<title>Node7</title>
<g id="a_node7"><a xlink:href="GearJointConf_8hpp.html" target="_top" xlink:title="Definition of the GearJointConf class and closely related code.">
<polygon fill="white" stroke="black" points="437.11,-134.5 437.11,-164.5 565.11,-164.5 565.11,-134.5 437.11,-134.5"/>
<text text-anchor="start" x="445.11" y="-152.5" font-family="Helvetica,sans-Serif" font-size="10.00">Library/include/playrho</text>
<text text-anchor="middle" x="501.11" y="-141.5" font-family="Helvetica,sans-Serif" font-size="10.00">/d2/GearJointConf.hpp</text>
</a>
</g>
</g>
<!-- Node1&#45;&gt;Node7 -->
<g id="edge7" class="edge">
<title>Node1&#45;&gt;Node7</title>
<path fill="none" stroke="midnightblue" d="M329.97,-327.88C369.49,-286.92 454.28,-199.04 487.43,-164.68"/>
<polygon fill="midnightblue" stroke="midnightblue" points="327.34,-325.56 322.92,-335.19 332.38,-330.42 327.34,-325.56"/>
</g>
<!-- Node8 -->
<g id="node8" class="node">
<title>Node8</title>
<g id="a_node8"><a xlink:href="WorldJoint_8hpp.html" target="_top" xlink:title="Declarations of free functions of World for joints identified by JointID.">
<polygon fill="white" stroke="black" points="529.11,-67.5 529.11,-97.5 657.11,-97.5 657.11,-67.5 529.11,-67.5"/>
<text text-anchor="start" x="537.11" y="-85.5" font-family="Helvetica,sans-Serif" font-size="10.00">Library/include/playrho</text>
<text text-anchor="middle" x="593.11" y="-74.5" font-family="Helvetica,sans-Serif" font-size="10.00">/d2/WorldJoint.hpp</text>
</a>
</g>
</g>
<!-- Node1&#45;&gt;Node8 -->
<g id="edge10" class="edge">
<title>Node1&#45;&gt;Node8</title>
<path fill="none" stroke="midnightblue" d="M352.95,-331.42C412.74,-304.4 518.72,-247.67 574.11,-165 587.94,-144.36 591.77,-114.93 592.79,-97.66"/>
<polygon fill="midnightblue" stroke="midnightblue" points="351.49,-328.24 343.77,-335.5 354.33,-334.63 351.49,-328.24"/>
</g>
<!-- Node9 -->
<g id="node9" class="node">
<title>Node9</title>
<g id="a_node9"><a xlink:href="WorldMisc_8hpp.html" target="_top" xlink:title="Declarations of free functions of World for unidentified information.">
<polygon fill="white" stroke="black" points="621.11,-201.5 621.11,-231.5 749.11,-231.5 749.11,-201.5 621.11,-201.5"/>
<text text-anchor="start" x="629.11" y="-219.5" font-family="Helvetica,sans-Serif" font-size="10.00">Library/include/playrho</text>
<text text-anchor="middle" x="685.11" y="-208.5" font-family="Helvetica,sans-Serif" font-size="10.00">/d2/WorldMisc.hpp</text>
</a>
</g>
</g>
<!-- Node1&#45;&gt;Node9 -->
<g id="edge12" class="edge">
<title>Node1&#45;&gt;Node9</title>
<path fill="none" stroke="midnightblue" d="M383.53,-349.7C446.47,-346.97 537.29,-336.03 607.11,-299 637.56,-282.85 663.01,-250.39 675.94,-231.67"/>
<polygon fill="midnightblue" stroke="midnightblue" points="383.15,-346.21 373.29,-350.08 383.42,-353.2 383.15,-346.21"/>
</g>
<!-- Node10 -->
<g id="node10" class="node">
<title>Node10</title>
<g id="a_node10"><a xlink:href="Island_8hpp.html" target="_top" xlink:title="Definition of the Island class and related code.">
<polygon fill="white" stroke="black" points="15.11,-268.5 15.11,-298.5 143.11,-298.5 143.11,-268.5 15.11,-268.5"/>
<text text-anchor="start" x="23.11" y="-286.5" font-family="Helvetica,sans-Serif" font-size="10.00">Library/include/playrho</text>
<text text-anchor="middle" x="79.11" y="-275.5" font-family="Helvetica,sans-Serif" font-size="10.00">/Island.hpp</text>
</a>
</g>
</g>
<!-- Node1&#45;&gt;Node10 -->
<g id="edge14" class="edge">
<title>Node1&#45;&gt;Node10</title>
<path fill="none" stroke="midnightblue" d="M249.72,-332.71C212.29,-322.14 164.51,-308.63 129.04,-298.61"/>
<polygon fill="midnightblue" stroke="midnightblue" points="248.91,-336.12 259.49,-335.48 250.81,-329.39 248.91,-336.12"/>
</g>
<!-- Node11 -->
<g id="node11" class="node">
<title>Node11</title>
<g id="a_node11"><a xlink:href="JointFunction_8hpp.html" target="_top" xlink:title="Definition of the JointFunction type alias.">
<polygon fill="white" stroke="black" points="199.11,-268.5 199.11,-298.5 327.11,-298.5 327.11,-268.5 199.11,-268.5"/>
<text text-anchor="start" x="207.11" y="-286.5" font-family="Helvetica,sans-Serif" font-size="10.00">Library/include/playrho</text>
<text text-anchor="middle" x="263.11" y="-275.5" font-family="Helvetica,sans-Serif" font-size="10.00">/JointFunction.hpp</text>
</a>
</g>
</g>
<!-- Node1&#45;&gt;Node11 -->
<g id="edge16" class="edge">
<title>Node1&#45;&gt;Node11</title>
<path fill="none" stroke="midnightblue" d="M293.3,-327.16C286.59,-317.68 278.97,-306.92 273.07,-298.58"/>
<polygon fill="midnightblue" stroke="midnightblue" points="290.49,-329.26 299.13,-335.4 296.21,-325.21 290.49,-329.26"/>
</g>
<!-- Node4 -->
<g id="node4" class="node">
<title>Node4</title>
<g id="a_node4"><a xlink:href="WorldModel_8hpp.html" target="_top" xlink:title="Definitions of the WorldModel class and closely related code.">
<polygon fill="white" stroke="black" points="275.11,-134.5 275.11,-164.5 419.11,-164.5 419.11,-134.5 275.11,-134.5"/>
<text text-anchor="start" x="283.11" y="-152.5" font-family="Helvetica,sans-Serif" font-size="10.00">Library/include/playrho</text>
<text text-anchor="middle" x="347.11" y="-141.5" font-family="Helvetica,sans-Serif" font-size="10.00">/d2/detail/WorldModel.hpp</text>
</a>
</g>
</g>
<!-- Node3&#45;&gt;Node4 -->
<g id="edge3" class="edge">
<title>Node3&#45;&gt;Node4</title>
<path fill="none" stroke="midnightblue" d="M337.04,-191.4C339.26,-182.37 341.72,-172.41 343.64,-164.58"/>
<polygon fill="midnightblue" stroke="midnightblue" points="333.57,-190.85 334.58,-201.4 340.37,-192.52 333.57,-190.85"/>
</g>
<!-- Node3&#45;&gt;Node5 -->
<g id="edge6" class="edge">
<title>Node3&#45;&gt;Node5</title>
<path fill="none" stroke="midnightblue" d="M296.84,-195.6C285.52,-187.46 273.85,-177.08 266.11,-165 252.71,-144.08 248.73,-114.74 247.57,-97.57"/>
<polygon fill="midnightblue" stroke="midnightblue" points="295.12,-198.67 305.36,-201.39 299.05,-192.87 295.12,-198.67"/>
</g>
<!-- Node4&#45;&gt;Node5 -->
<g id="edge4" class="edge">
<title>Node4&#45;&gt;Node5</title>
<path fill="none" stroke="midnightblue" d="M316.7,-128.73C301.23,-118.68 282.78,-106.68 268.77,-97.58"/>
<polygon fill="midnightblue" stroke="midnightblue" points="315.12,-131.88 325.41,-134.4 318.93,-126.01 315.12,-131.88"/>
</g>
<!-- Node6 -->
<g id="node6" class="node">
<title>Node6</title>
<g id="a_node6"><a xlink:href="BasicAPI_8hpp.html" target="_top" xlink:title="Basic API include file to pull in at once most headers used.">
<polygon fill="white" stroke="black" points="483.11,-0.5 483.11,-30.5 611.11,-30.5 611.11,-0.5 483.11,-0.5"/>
<text text-anchor="start" x="491.11" y="-18.5" font-family="Helvetica,sans-Serif" font-size="10.00">Library/include/playrho</text>
<text text-anchor="middle" x="547.11" y="-7.5" font-family="Helvetica,sans-Serif" font-size="10.00">/d2/BasicAPI.hpp</text>
</a>
</g>
</g>
<!-- Node5&#45;&gt;Node6 -->
<g id="edge5" class="edge">
<title>Node5&#45;&gt;Node6</title>
<path fill="none" stroke="midnightblue" d="M321.49,-65.38C371.05,-54.65 435.53,-40.68 482.86,-30.42"/>
<polygon fill="midnightblue" stroke="midnightblue" points="320.5,-62.02 311.47,-67.56 321.98,-68.86 320.5,-62.02"/>
</g>
<!-- Node7&#45;&gt;Node6 -->
<g id="edge8" class="edge">
<title>Node7&#45;&gt;Node6</title>
<path fill="none" stroke="midnightblue" d="M505.01,-124.41C508.09,-107.92 513.06,-85.74 520.11,-67 524.94,-54.16 532.41,-40.49 538.27,-30.61"/>
<polygon fill="midnightblue" stroke="midnightblue" points="501.55,-123.87 503.25,-134.33 508.44,-125.09 501.55,-123.87"/>
</g>
<!-- Node8&#45;&gt;Node6 -->
<g id="edge11" class="edge">
<title>Node8&#45;&gt;Node6</title>
<path fill="none" stroke="midnightblue" d="M577.3,-59.16C570.59,-49.68 562.97,-38.92 557.07,-30.58"/>
<polygon fill="midnightblue" stroke="midnightblue" points="574.49,-61.26 583.13,-67.4 580.21,-57.21 574.49,-61.26"/>
</g>
<!-- Node9&#45;&gt;Node6 -->
<g id="edge13" class="edge">
<title>Node9&#45;&gt;Node6</title>
<path fill="none" stroke="midnightblue" d="M688.89,-190.89C692.38,-158.97 693.49,-103.14 666.11,-67 652.69,-49.29 631.86,-37.73 611.34,-30.2"/>
<polygon fill="midnightblue" stroke="midnightblue" points="685.38,-190.75 687.6,-201.1 692.33,-191.62 685.38,-190.75"/>
</g>
<!-- Node10&#45;&gt;Node2 -->
<g id="edge15" class="edge">
<title>Node10&#45;&gt;Node2</title>
<path fill="none" stroke="midnightblue" d="M79.11,-258.11C79.11,-249.15 79.11,-239.32 79.11,-231.58"/>
<polygon fill="midnightblue" stroke="midnightblue" points="75.61,-258.4 79.11,-268.4 82.61,-258.4 75.61,-258.4"/>
</g>
<!-- Node11&#45;&gt;Node2 -->
<g id="edge17" class="edge">
<title>Node11&#45;&gt;Node2</title>
<path fill="none" stroke="midnightblue" d="M213.44,-264.96C183.8,-254.48 146.67,-241.37 118.96,-231.58"/>
<polygon fill="midnightblue" stroke="midnightblue" points="212.59,-268.37 223.18,-268.4 214.92,-261.76 212.59,-268.37"/>
</g>
<!-- Node11&#45;&gt;Node3 -->
<g id="edge18" class="edge">
<title>Node11&#45;&gt;Node3</title>
<path fill="none" stroke="midnightblue" d="M285.28,-261.31C295.48,-251.56 307.3,-240.26 316.38,-231.58"/>
<polygon fill="midnightblue" stroke="midnightblue" points="282.67,-258.96 277.86,-268.4 287.51,-264.02 282.67,-258.96"/>
</g>
<!-- Node11&#45;&gt;Node5 -->
<g id="edge19" class="edge">
<title>Node11&#45;&gt;Node5</title>
<path fill="none" stroke="midnightblue" d="M252.79,-258.83C249.67,-250.52 246.67,-241 245.11,-232 236.68,-183.22 242.02,-124.08 245.22,-97.56"/>
<polygon fill="midnightblue" stroke="midnightblue" points="249.6,-260.28 256.56,-268.27 256.1,-257.69 249.6,-260.28"/>
</g>
</g>
</svg>
        <g id="navigator" transform="translate(0 0)" fill="#404254">
                <rect fill="#f2f5e9" fill-opacity="0.5" stroke="#606060" stroke-width=".5" x="0" y="0" width="60" height="60"/>
                <use id="zoomplus" xlink:href="#zoomPlus" x="17" y="9" onmousedown="handleZoom(evt,'in')"/>
                <use id="zoomminus" xlink:href="#zoomMin" x="42" y="9" onmousedown="handleZoom(evt,'out')"/>
                <use id="reset" xlink:href="#resetDef" x="30" y="36" onmousedown="handleReset()"/>
                <g id="arrowUp" xlink:href="#dirArrow" transform="translate(30 24)" onmousedown="handlePan(0,-1)">
                  <use xlink:href="#rim" fill="#404040">
                        <set attributeName="fill" to="#808080" begin="arrowUp.mouseover" end="arrowUp.mouseout"/>
                  </use>
                  <path fill="none" stroke="white" stroke-width="1.5" d="M0,-3.0v7 M-2.5,-0.5L0,-3.0L2.5,-0.5"/>
                </g>
                <g id="arrowRight" xlink:href="#dirArrow" transform="rotate(90) translate(36 -43)" onmousedown="handlePan(1,0)">
                  <use xlink:href="#rim" fill="#404040">
                        <set attributeName="fill" to="#808080" begin="arrowRight.mouseover" end="arrowRight.mouseout"/>
                  </use>
                  <path fill="none" stroke="white" stroke-width="1.5" d="M0,-3.0v7 M-2.5,-0.5L0,-3.0L2.5,-0.5"/>
                </g>
                <g id="arrowDown" xlink:href="#dirArrow" transform="rotate(180) translate(-30 -48)" onmousedown="handlePan(0,1)">
                  <use xlink:href="#rim" fill="#404040">
                        <set attributeName="fill" to="#808080" begin="arrowDown.mouseover" end="arrowDown.mouseout"/>
                  </use>
                  <path fill="none" stroke="white" stroke-width="1.5" d="M0,-3.0v7 M-2.5,-0.5L0,-3.0L2.5,-0.5"/>
                </g>
                <g id="arrowLeft" xlink:href="#dirArrow" transform="rotate(270) translate(-36 17)" onmousedown="handlePan(-1,0)">
                  <use xlink:href="#rim" fill="#404040">
                        <set attributeName="fill" to="#808080" begin="arrowLeft.mouseover" end="arrowLeft.mouseout"/>
                  </use>
                  <path fill="none" stroke="white" stroke-width="1.5" d="M0,-3.0v7 M-2.5,-0.5L0,-3.0L2.5,-0.5"/>
                </g>
        </g>
        <svg viewBox="0 0 15 15" width="100%" height="30px" preserveAspectRatio="xMaxYMin meet">
         <g id="arrow_out" transform="scale(0.3 0.3)">
          <a xlink:href="JointID_8hpp__dep__incl_org.svg" target="_base">
           <rect id="button" ry="5" rx="5" y="6" x="6" height="38" width="38"
                fill="#f2f5e9" fill-opacity="0.5" stroke="#606060" stroke-width="1.0"/>
           <path id="arrow"
             d="M 11.500037,31.436501 C 11.940474,20.09759 22.043105,11.32322 32.158766,21.979434 L 37.068811,17.246167 C 37.068811,17.246167 37.088388,32 37.088388,32 L 22.160133,31.978069 C 22.160133,31.978069 26.997745,27.140456 26.997745,27.140456 C 18.528582,18.264221 13.291696,25.230495 11.500037,31.436501 z"
             style="fill:#404040;"/>
          </a>
         </g>
        </svg>
</svg>
