<?xml version="1.0" encoding="UTF-8" standalone="no"?>
<!DOCTYPE svg PUBLIC "-//W3C//DTD SVG 1.1//EN"
 "http://www.w3.org/Graphics/SVG/1.1/DTD/svg11.dtd">
<!-- Generated by graphviz version 2.43.0 (0)
 -->
<!-- Title: Library/include/playrho/d2/detail/JointConcept.hpp Pages: 1 -->
<svg width="1787pt" height="509pt"
 viewBox="0.00 0.00 1786.50 509.00" xmlns="http://www.w3.org/2000/svg" xmlns:xlink="http://www.w3.org/1999/xlink">
<g id="graph0" class="graph" transform="scale(1 1) rotate(0) translate(4 505)">
<title>Library/include/playrho/d2/detail/JointConcept.hpp</title>
<polygon fill="white" stroke="transparent" points="-4,4 -4,-505 1782.5,-505 1782.5,4 -4,4"/>
<!-- Node1 -->
<g id="node1" class="node">
<title>Node1</title>
<g id="a_node1"><a xlink:title="Definition of the internal JointConcept interface class.">
<polygon fill="#bfbfbf" stroke="black" points="341,-470.5 341,-500.5 489,-500.5 489,-470.5 341,-470.5"/>
<text text-anchor="start" x="349" y="-488.5" font-family="Helvetica,sans-Serif" font-size="10.00">Library/include/playrho</text>
<text text-anchor="middle" x="415" y="-477.5" font-family="Helvetica,sans-Serif" font-size="10.00">/d2/detail/JointConcept.hpp</text>
</a>
</g>
</g>
<!-- Node2 -->
<g id="node2" class="node">
<title>Node2</title>
<g id="a_node2"><a xlink:title=" ">
<polygon fill="white" stroke="#bfbfbf" points="143,-414.5 143,-433.5 201,-433.5 201,-414.5 143,-414.5"/>
<text text-anchor="middle" x="172" y="-421.5" font-family="Helvetica,sans-Serif" font-size="10.00">memory</text>
</a>
</g>
</g>
<!-- Node1&#45;&gt;Node2 -->
<g id="edge1" class="edge">
<title>Node1&#45;&gt;Node2</title>
<path fill="none" stroke="midnightblue" d="M357.72,-470.47C312.54,-459.41 250.74,-444.28 211.09,-434.57"/>
<polygon fill="midnightblue" stroke="midnightblue" points="211.81,-431.14 201.26,-432.17 210.14,-437.94 211.81,-431.14"/>
</g>
<!-- Node3 -->
<g id="node3" class="node">
<title>Node3</title>
<g id="a_node3"><a xlink:href="BodyID_8hpp.html" target="_top" xlink:title="Definition of the BodyID alias and closely related code.">
<polygon fill="white" stroke="black" points="358.5,-414.5 358.5,-433.5 471.5,-433.5 471.5,-414.5 358.5,-414.5"/>
<text text-anchor="middle" x="415" y="-421.5" font-family="Helvetica,sans-Serif" font-size="10.00">playrho/BodyID.hpp</text>
</a>
</g>
</g>
<!-- Node1&#45;&gt;Node3 -->
<g id="edge2" class="edge">
<title>Node1&#45;&gt;Node3</title>
<path fill="none" stroke="midnightblue" d="M415,-470.4C415,-462.47 415,-452.46 415,-443.86"/>
<polygon fill="midnightblue" stroke="midnightblue" points="418.5,-443.66 415,-433.66 411.5,-443.66 418.5,-443.66"/>
</g>
<!-- Node26 -->
<g id="node26" class="node">
<title>Node26</title>
<g id="a_node26"><a xlink:href="Span_8hpp.html" target="_top" xlink:title="Definition of the Span class template.">
<polygon fill="white" stroke="black" points="182.5,-185 182.5,-204 283.5,-204 283.5,-185 182.5,-185"/>
<text text-anchor="middle" x="233" y="-192" font-family="Helvetica,sans-Serif" font-size="10.00">playrho/Span.hpp</text>
</a>
</g>
</g>
<!-- Node1&#45;&gt;Node26 -->
<g id="edge38" class="edge">
<title>Node1&#45;&gt;Node26</title>
<path fill="none" stroke="midnightblue" d="M344.42,-470.44C291.8,-455.37 229,-425.54 229,-369 229,-369 229,-369 229,-311 229,-276.84 230.77,-237.04 231.95,-214.2"/>
<polygon fill="midnightblue" stroke="midnightblue" points="235.45,-214.36 232.49,-204.19 228.46,-213.99 235.45,-214.36"/>
</g>
<!-- Node29 -->
<g id="node29" class="node">
<title>Node29</title>
<g id="a_node29"><a xlink:href="TypeInfo_8hpp.html" target="_top" xlink:title="Definition of TypeID class and closely related code.">
<polygon fill="white" stroke="black" points="1467.5,-246.5 1467.5,-265.5 1586.5,-265.5 1586.5,-246.5 1467.5,-246.5"/>
<text text-anchor="middle" x="1527" y="-253.5" font-family="Helvetica,sans-Serif" font-size="10.00">playrho/TypeInfo.hpp</text>
</a>
</g>
</g>
<!-- Node1&#45;&gt;Node29 -->
<g id="edge45" class="edge">
<title>Node1&#45;&gt;Node29</title>
<path fill="none" stroke="midnightblue" d="M489.15,-473.03C549.97,-463.38 638.25,-448.82 715,-434 1007.81,-377.48 1357.12,-296.84 1480.82,-267.88"/>
<polygon fill="midnightblue" stroke="midnightblue" points="1481.77,-271.25 1490.71,-265.56 1480.17,-264.44 1481.77,-271.25"/>
</g>
<!-- Node36 -->
<g id="node36" class="node">
<title>Node36</title>
<g id="a_node36"><a xlink:href="Vector2_8hpp.html" target="_top" xlink:title="Definition of the Vector2 alias template and closely related code.">
<polygon fill="white" stroke="black" points="592,-414.5 592,-433.5 706,-433.5 706,-414.5 592,-414.5"/>
<text text-anchor="middle" x="649" y="-421.5" font-family="Helvetica,sans-Serif" font-size="10.00">playrho/Vector2.hpp</text>
</a>
</g>
</g>
<!-- Node1&#45;&gt;Node36 -->
<g id="edge53" class="edge">
<title>Node1&#45;&gt;Node36</title>
<path fill="none" stroke="midnightblue" d="M470.16,-470.47C511.59,-459.94 567.53,-445.72 605.75,-436"/>
<polygon fill="midnightblue" stroke="midnightblue" points="606.72,-439.36 615.55,-433.51 604.99,-432.58 606.72,-439.36"/>
</g>
<!-- Node4 -->
<g id="node4" class="node">
<title>Node4</title>
<g id="a_node4"><a xlink:href="IndexingNamedType_8hpp.html" target="_top" xlink:title="Definition of IndexingNamedType class template and related code.">
<polygon fill="white" stroke="black" points="0,-179.5 0,-209.5 164,-209.5 164,-179.5 0,-179.5"/>
<text text-anchor="start" x="8" y="-197.5" font-family="Helvetica,sans-Serif" font-size="10.00">playrho/detail/IndexingNamed</text>
<text text-anchor="middle" x="82" y="-186.5" font-family="Helvetica,sans-Serif" font-size="10.00">Type.hpp</text>
</a>
</g>
</g>
<!-- Node3&#45;&gt;Node4 -->
<g id="edge3" class="edge">
<title>Node3&#45;&gt;Node4</title>
<path fill="none" stroke="midnightblue" d="M402.35,-414.36C354.05,-381.36 180.42,-262.74 110.99,-215.31"/>
<polygon fill="midnightblue" stroke="midnightblue" points="112.9,-212.37 102.67,-209.62 108.96,-218.15 112.9,-212.37"/>
</g>
<!-- Node9 -->
<g id="node9" class="node">
<title>Node9</title>
<g id="a_node9"><a xlink:href="Settings_8hpp.html" target="_top" xlink:title="Types and default settings file.">
<polygon fill="white" stroke="black" points="476.5,-358.5 476.5,-377.5 593.5,-377.5 593.5,-358.5 476.5,-358.5"/>
<text text-anchor="middle" x="535" y="-365.5" font-family="Helvetica,sans-Serif" font-size="10.00">playrho/Settings.hpp</text>
</a>
</g>
</g>
<!-- Node3&#45;&gt;Node9 -->
<g id="edge8" class="edge">
<title>Node3&#45;&gt;Node9</title>
<path fill="none" stroke="midnightblue" d="M434.01,-414.44C453.59,-405.64 484.31,-391.81 506.73,-381.72"/>
<polygon fill="midnightblue" stroke="midnightblue" points="508.39,-384.81 516.07,-377.52 505.52,-378.43 508.39,-384.81"/>
</g>
<!-- Node5 -->
<g id="node5" class="node">
<title>Node5</title>
<g id="a_node5"><a xlink:title=" ">
<polygon fill="white" stroke="#bfbfbf" points="362.5,-123.5 362.5,-142.5 415.5,-142.5 415.5,-123.5 362.5,-123.5"/>
<text text-anchor="middle" x="389" y="-130.5" font-family="Helvetica,sans-Serif" font-size="10.00">cstddef</text>
</a>
</g>
</g>
<!-- Node4&#45;&gt;Node5 -->
<g id="edge4" class="edge">
<title>Node4&#45;&gt;Node5</title>
<path fill="none" stroke="midnightblue" d="M154.37,-179.47C216.46,-167.44 303.42,-150.59 352.15,-141.14"/>
<polygon fill="midnightblue" stroke="midnightblue" points="353.09,-144.53 362.24,-139.19 351.76,-137.65 353.09,-144.53"/>
</g>
<!-- Node6 -->
<g id="node6" class="node">
<title>Node6</title>
<g id="a_node6"><a xlink:title=" ">
<polygon fill="white" stroke="#bfbfbf" points="62.5,-123.5 62.5,-142.5 127.5,-142.5 127.5,-123.5 62.5,-123.5"/>
<text text-anchor="middle" x="95" y="-130.5" font-family="Helvetica,sans-Serif" font-size="10.00">functional</text>
</a>
</g>
</g>
<!-- Node4&#45;&gt;Node6 -->
<g id="edge5" class="edge">
<title>Node4&#45;&gt;Node6</title>
<path fill="none" stroke="midnightblue" d="M85.08,-179.4C86.83,-171.38 89.05,-161.23 90.94,-152.57"/>
<polygon fill="midnightblue" stroke="midnightblue" points="94.39,-153.17 93.11,-142.66 87.55,-151.68 94.39,-153.17"/>
</g>
<!-- Node7 -->
<g id="node7" class="node">
<title>Node7</title>
<g id="a_node7"><a xlink:title=" ">
<polygon fill="white" stroke="#bfbfbf" points="721.5,-0.5 721.5,-19.5 790.5,-19.5 790.5,-0.5 721.5,-0.5"/>
<text text-anchor="middle" x="756" y="-7.5" font-family="Helvetica,sans-Serif" font-size="10.00">type_traits</text>
</a>
</g>
</g>
<!-- Node4&#45;&gt;Node7 -->
<g id="edge6" class="edge">
<title>Node4&#45;&gt;Node7</title>
<path fill="none" stroke="midnightblue" d="M106.25,-179.49C132.26,-164.69 174.96,-141.04 213,-123 283.4,-89.61 299.6,-75.64 375,-56 493.87,-25.03 639.21,-15.33 711.19,-12.32"/>
<polygon fill="midnightblue" stroke="midnightblue" points="711.41,-15.82 721.26,-11.93 711.13,-8.82 711.41,-15.82"/>
</g>
<!-- Node8 -->
<g id="node8" class="node">
<title>Node8</title>
<g id="a_node8"><a xlink:title=" ">
<polygon fill="white" stroke="#bfbfbf" points="434.5,-0.5 434.5,-19.5 479.5,-19.5 479.5,-0.5 434.5,-0.5"/>
<text text-anchor="middle" x="457" y="-7.5" font-family="Helvetica,sans-Serif" font-size="10.00">utility</text>
</a>
</g>
</g>
<!-- Node4&#45;&gt;Node8 -->
<g id="edge7" class="edge">
<title>Node4&#45;&gt;Node8</title>
<path fill="none" stroke="midnightblue" d="M68.38,-179.33C55.72,-164.39 40.57,-140.63 53,-123 96.63,-61.13 336.16,-25.85 424.37,-14.8"/>
<polygon fill="midnightblue" stroke="midnightblue" points="424.86,-18.27 434.36,-13.58 424,-11.32 424.86,-18.27"/>
</g>
<!-- Node9&#45;&gt;Node7 -->
<g id="edge11" class="edge">
<title>Node9&#45;&gt;Node7</title>
<path fill="none" stroke="midnightblue" d="M534.55,-358.48C533.22,-324.99 532.4,-200.48 588,-123 622.99,-74.24 686.31,-40.61 724.43,-23.68"/>
<polygon fill="midnightblue" stroke="midnightblue" points="726.21,-26.72 734,-19.54 723.44,-20.29 726.21,-26.72"/>
</g>
<!-- Node10 -->
<g id="node10" class="node">
<title>Node10</title>
<g id="a_node10"><a xlink:title=" ">
<polygon fill="white" stroke="#bfbfbf" points="472,-185 472,-204 522,-204 522,-185 472,-185"/>
<text text-anchor="middle" x="497" y="-192" font-family="Helvetica,sans-Serif" font-size="10.00">cstdint</text>
</a>
</g>
</g>
<!-- Node9&#45;&gt;Node10 -->
<g id="edge9" class="edge">
<title>Node9&#45;&gt;Node10</title>
<path fill="none" stroke="midnightblue" d="M519.22,-358.47C506.8,-350.77 490.39,-338.18 483,-322 466.68,-286.3 479.75,-239.24 489.28,-213.77"/>
<polygon fill="midnightblue" stroke="midnightblue" points="492.61,-214.86 493.05,-204.28 486.11,-212.28 492.61,-214.86"/>
</g>
<!-- Node11 -->
<g id="node11" class="node">
<title>Node11</title>
<g id="a_node11"><a xlink:title=" ">
<polygon fill="white" stroke="#bfbfbf" points="597,-123.5 597,-142.5 641,-142.5 641,-123.5 597,-123.5"/>
<text text-anchor="middle" x="619" y="-130.5" font-family="Helvetica,sans-Serif" font-size="10.00">limits</text>
</a>
</g>
</g>
<!-- Node9&#45;&gt;Node11 -->
<g id="edge10" class="edge">
<title>Node9&#45;&gt;Node11</title>
<path fill="none" stroke="midnightblue" d="M536.33,-358.46C538.39,-345.91 542.79,-321.83 549,-302 566.65,-245.63 595.86,-181.99 610.32,-151.77"/>
<polygon fill="midnightblue" stroke="midnightblue" points="613.58,-153.06 614.78,-142.54 607.28,-150.02 613.58,-153.06"/>
</g>
<!-- Node12 -->
<g id="node12" class="node">
<title>Node12</title>
<g id="a_node12"><a xlink:href="Real_8hpp.html" target="_top" xlink:title="Real number definition file.">
<polygon fill="white" stroke="black" points="663.5,-185 663.5,-204 762.5,-204 762.5,-185 663.5,-185"/>
<text text-anchor="middle" x="713" y="-192" font-family="Helvetica,sans-Serif" font-size="10.00">playrho/Real.hpp</text>
</a>
</g>
</g>
<!-- Node9&#45;&gt;Node12 -->
<g id="edge12" class="edge">
<title>Node9&#45;&gt;Node12</title>
<path fill="none" stroke="midnightblue" d="M537.2,-358.45C543.19,-336.79 561.72,-279.12 597,-246 616.82,-227.38 644.61,-214.96 668.01,-207.1"/>
<polygon fill="midnightblue" stroke="midnightblue" points="669.27,-210.37 677.74,-204 667.15,-203.7 669.27,-210.37"/>
</g>
<!-- Node18 -->
<g id="node18" class="node">
<title>Node18</title>
<g id="a_node18"><a xlink:href="RealConstants_8hpp.html" target="_top" xlink:title="Definitions file for constant expressions of type Real.">
<polygon fill="white" stroke="black" points="639,-246.5 639,-265.5 787,-265.5 787,-246.5 639,-246.5"/>
<text text-anchor="middle" x="713" y="-253.5" font-family="Helvetica,sans-Serif" font-size="10.00">playrho/RealConstants.hpp</text>
</a>
</g>
</g>
<!-- Node9&#45;&gt;Node18 -->
<g id="edge22" class="edge">
<title>Node9&#45;&gt;Node18</title>
<path fill="none" stroke="midnightblue" d="M548.97,-358.37C579.64,-339.41 653.13,-294 690.44,-270.94"/>
<polygon fill="midnightblue" stroke="midnightblue" points="692.43,-273.83 699.1,-265.59 688.75,-267.87 692.43,-273.83"/>
</g>
<!-- Node19 -->
<g id="node19" class="node">
<title>Node19</title>
<g id="a_node19"><a xlink:href="Units_8hpp.html" target="_top" xlink:title="Declarations for physical units possibly backed by strong types.">
<polygon fill="white" stroke="black" points="789.5,-302.5 789.5,-321.5 892.5,-321.5 892.5,-302.5 789.5,-302.5"/>
<text text-anchor="middle" x="841" y="-309.5" font-family="Helvetica,sans-Serif" font-size="10.00">playrho/Units.hpp</text>
</a>
</g>
</g>
<!-- Node9&#45;&gt;Node19 -->
<g id="edge24" class="edge">
<title>Node9&#45;&gt;Node19</title>
<path fill="none" stroke="midnightblue" d="M583.49,-358.44C637.54,-348.9 724.93,-333.48 782.67,-323.29"/>
<polygon fill="midnightblue" stroke="midnightblue" points="783.5,-326.7 792.74,-321.52 782.28,-319.81 783.5,-326.7"/>
</g>
<!-- Node23 -->
<g id="node23" class="node">
<title>Node23</title>
<g id="a_node23"><a xlink:href="WiderType_8hpp.html" target="_top" xlink:title="Definition of the WiderType alias template.">
<polygon fill="white" stroke="black" points="301,-302.5 301,-321.5 429,-321.5 429,-302.5 301,-302.5"/>
<text text-anchor="middle" x="365" y="-309.5" font-family="Helvetica,sans-Serif" font-size="10.00">playrho/WiderType.hpp</text>
</a>
</g>
</g>
<!-- Node9&#45;&gt;Node23 -->
<g id="edge33" class="edge">
<title>Node9&#45;&gt;Node23</title>
<path fill="none" stroke="midnightblue" d="M508.06,-358.44C479.34,-349.32 433.67,-334.81 401.68,-324.65"/>
<polygon fill="midnightblue" stroke="midnightblue" points="402.4,-321.21 391.81,-321.52 400.28,-327.88 402.4,-321.21"/>
</g>
<!-- Node12&#45;&gt;Node11 -->
<g id="edge13" class="edge">
<title>Node12&#45;&gt;Node11</title>
<path fill="none" stroke="midnightblue" d="M699.53,-184.98C684.32,-175.34 659.31,-159.52 641.2,-148.05"/>
<polygon fill="midnightblue" stroke="midnightblue" points="642.76,-144.9 632.44,-142.51 639.02,-150.81 642.76,-144.9"/>
</g>
<!-- Node13 -->
<g id="node13" class="node">
<title>Node13</title>
<g id="a_node13"><a xlink:href="Templates_8hpp.html" target="_top" xlink:title="Definitions of miscellaneous template related code.">
<polygon fill="white" stroke="black" points="801,-123.5 801,-142.5 929,-142.5 929,-123.5 801,-123.5"/>
<text text-anchor="middle" x="865" y="-130.5" font-family="Helvetica,sans-Serif" font-size="10.00">playrho/Templates.hpp</text>
</a>
</g>
</g>
<!-- Node12&#45;&gt;Node13 -->
<g id="edge14" class="edge">
<title>Node12&#45;&gt;Node13</title>
<path fill="none" stroke="midnightblue" d="M734.78,-184.98C760.74,-174.81 804.31,-157.76 833.83,-146.2"/>
<polygon fill="midnightblue" stroke="midnightblue" points="835.23,-149.41 843.26,-142.51 832.67,-142.9 835.23,-149.41"/>
</g>
<!-- Node13&#45;&gt;Node7 -->
<g id="edge16" class="edge">
<title>Node13&#45;&gt;Node7</title>
<path fill="none" stroke="midnightblue" d="M857.16,-123.3C839.01,-103.15 793.89,-53.06 770.53,-27.12"/>
<polygon fill="midnightblue" stroke="midnightblue" points="773.06,-24.71 763.77,-19.62 767.86,-29.4 773.06,-24.71"/>
</g>
<!-- Node14 -->
<g id="node14" class="node">
<title>Node14</title>
<g id="a_node14"><a xlink:title=" ">
<polygon fill="white" stroke="#bfbfbf" points="731.5,-62 731.5,-81 780.5,-81 780.5,-62 731.5,-62"/>
<text text-anchor="middle" x="756" y="-69" font-family="Helvetica,sans-Serif" font-size="10.00">cstdlib</text>
</a>
</g>
</g>
<!-- Node13&#45;&gt;Node14 -->
<g id="edge15" class="edge">
<title>Node13&#45;&gt;Node14</title>
<path fill="none" stroke="midnightblue" d="M849.38,-123.48C831.41,-113.67 801.68,-97.43 780.59,-85.92"/>
<polygon fill="midnightblue" stroke="midnightblue" points="782.04,-82.73 771.59,-81.01 778.69,-88.87 782.04,-82.73"/>
</g>
<!-- Node15 -->
<g id="node15" class="node">
<title>Node15</title>
<g id="a_node15"><a xlink:href="detail_2Templates_8hpp.html" target="_top" xlink:title="Low&#45;level declarations for general class &amp; function templates.">
<polygon fill="white" stroke="black" points="875,-62 875,-81 1033,-81 1033,-62 875,-62"/>
<text text-anchor="middle" x="954" y="-69" font-family="Helvetica,sans-Serif" font-size="10.00">playrho/detail/Templates.hpp</text>
</a>
</g>
</g>
<!-- Node13&#45;&gt;Node15 -->
<g id="edge17" class="edge">
<title>Node13&#45;&gt;Node15</title>
<path fill="none" stroke="midnightblue" d="M877.75,-123.48C892.03,-113.93 915.4,-98.31 932.51,-86.87"/>
<polygon fill="midnightblue" stroke="midnightblue" points="934.9,-89.48 941.27,-81.01 931.01,-83.66 934.9,-89.48"/>
</g>
<!-- Node15&#45;&gt;Node7 -->
<g id="edge20" class="edge">
<title>Node15&#45;&gt;Node7</title>
<path fill="none" stroke="midnightblue" d="M925.63,-61.98C891.08,-51.59 832.58,-34.01 794.12,-22.45"/>
<polygon fill="midnightblue" stroke="midnightblue" points="794.9,-19.04 784.32,-19.51 792.89,-25.74 794.9,-19.04"/>
</g>
<!-- Node15&#45;&gt;Node8 -->
<g id="edge21" class="edge">
<title>Node15&#45;&gt;Node8</title>
<path fill="none" stroke="midnightblue" d="M901.92,-61.97C888.6,-59.9 874.28,-57.77 861,-56 723.55,-37.64 559.1,-20.95 490.06,-14.19"/>
<polygon fill="midnightblue" stroke="midnightblue" points="490.12,-10.68 479.82,-13.19 489.44,-17.64 490.12,-10.68"/>
</g>
<!-- Node16 -->
<g id="node16" class="node">
<title>Node16</title>
<g id="a_node16"><a xlink:title=" ">
<polygon fill="white" stroke="#bfbfbf" points="1025,-0.5 1025,-19.5 1089,-19.5 1089,-0.5 1025,-0.5"/>
<text text-anchor="middle" x="1057" y="-7.5" font-family="Helvetica,sans-Serif" font-size="10.00">algorithm</text>
</a>
</g>
</g>
<!-- Node15&#45;&gt;Node16 -->
<g id="edge18" class="edge">
<title>Node15&#45;&gt;Node16</title>
<path fill="none" stroke="midnightblue" d="M968.76,-61.98C985.66,-52.21 1013.58,-36.08 1033.49,-24.58"/>
<polygon fill="midnightblue" stroke="midnightblue" points="1035.36,-27.54 1042.27,-19.51 1031.86,-21.48 1035.36,-27.54"/>
</g>
<!-- Node17 -->
<g id="node17" class="node">
<title>Node17</title>
<g id="a_node17"><a xlink:title=" ">
<polygon fill="white" stroke="#bfbfbf" points="1313.5,-0.5 1313.5,-19.5 1366.5,-19.5 1366.5,-0.5 1313.5,-0.5"/>
<text text-anchor="middle" x="1340" y="-7.5" font-family="Helvetica,sans-Serif" font-size="10.00">iterator</text>
</a>
</g>
</g>
<!-- Node15&#45;&gt;Node17 -->
<g id="edge19" class="edge">
<title>Node15&#45;&gt;Node17</title>
<path fill="none" stroke="midnightblue" d="M1005.75,-61.97C1017.96,-59.98 1030.94,-57.9 1043,-56 1136.65,-41.28 1247.06,-24.77 1303.2,-16.44"/>
<polygon fill="midnightblue" stroke="midnightblue" points="1303.98,-19.86 1313.36,-14.93 1302.96,-12.94 1303.98,-19.86"/>
</g>
<!-- Node18&#45;&gt;Node12 -->
<g id="edge23" class="edge">
<title>Node18&#45;&gt;Node12</title>
<path fill="none" stroke="midnightblue" d="M713,-246.48C713,-238.08 713,-224.98 713,-214.16"/>
<polygon fill="midnightblue" stroke="midnightblue" points="716.5,-214.01 713,-204.01 709.5,-214.01 716.5,-214.01"/>
</g>
<!-- Node19&#45;&gt;Node7 -->
<g id="edge26" class="edge">
<title>Node19&#45;&gt;Node7</title>
<path fill="none" stroke="midnightblue" d="M859.36,-302.34C881.23,-290.74 913.25,-268.97 900,-246 877.17,-206.41 744.83,-182.59 722,-143 715.97,-132.54 704.25,-111.85 723,-56 726.57,-45.37 733.66,-35.15 740.36,-27.14"/>
<polygon fill="midnightblue" stroke="midnightblue" points="742.97,-29.46 747.03,-19.68 737.76,-24.8 742.97,-29.46"/>
</g>
<!-- Node19&#45;&gt;Node12 -->
<g id="edge27" class="edge">
<title>Node19&#45;&gt;Node12</title>
<path fill="none" stroke="midnightblue" d="M836.45,-302.14C829.25,-288.76 814.18,-263.14 796,-246 779.74,-230.67 758.09,-217.69 740.97,-208.72"/>
<polygon fill="midnightblue" stroke="midnightblue" points="742.49,-205.57 731.99,-204.17 739.33,-211.81 742.49,-205.57"/>
</g>
<!-- Node19&#45;&gt;Node13 -->
<g id="edge29" class="edge">
<title>Node19&#45;&gt;Node13</title>
<path fill="none" stroke="midnightblue" d="M879.85,-302.36C899.38,-295.85 921.33,-284.7 933,-266 958.34,-225.39 911.15,-174.25 883.31,-149.22"/>
<polygon fill="midnightblue" stroke="midnightblue" points="885.56,-146.54 875.72,-142.6 880.96,-151.81 885.56,-146.54"/>
</g>
<!-- Node19&#45;&gt;Node18 -->
<g id="edge28" class="edge">
<title>Node19&#45;&gt;Node18</title>
<path fill="none" stroke="midnightblue" d="M820.72,-302.44C799.65,-293.56 766.48,-279.56 742.51,-269.45"/>
<polygon fill="midnightblue" stroke="midnightblue" points="743.76,-266.18 733.19,-265.52 741.04,-272.63 743.76,-266.18"/>
</g>
<!-- Node20 -->
<g id="node20" class="node">
<title>Node20</title>
<g id="a_node20"><a xlink:title=" ">
<polygon fill="white" stroke="#bfbfbf" points="843.5,-246.5 843.5,-265.5 890.5,-265.5 890.5,-246.5 843.5,-246.5"/>
<text text-anchor="middle" x="867" y="-253.5" font-family="Helvetica,sans-Serif" font-size="10.00">cmath</text>
</a>
</g>
</g>
<!-- Node19&#45;&gt;Node20 -->
<g id="edge25" class="edge">
<title>Node19&#45;&gt;Node20</title>
<path fill="none" stroke="midnightblue" d="M845.29,-302.08C848.85,-294.69 854.02,-283.95 858.42,-274.81"/>
<polygon fill="midnightblue" stroke="midnightblue" points="861.6,-276.28 862.79,-265.75 855.29,-273.24 861.6,-276.28"/>
</g>
<!-- Node21 -->
<g id="node21" class="node">
<title>Node21</title>
<g id="a_node21"><a xlink:href="to__underlying_8hpp.html" target="_top" xlink:title="Definition of to_underlying function template.">
<polygon fill="white" stroke="black" points="985,-246.5 985,-265.5 1129,-265.5 1129,-246.5 985,-246.5"/>
<text text-anchor="middle" x="1057" y="-253.5" font-family="Helvetica,sans-Serif" font-size="10.00">playrho/to_underlying.hpp</text>
</a>
</g>
</g>
<!-- Node19&#45;&gt;Node21 -->
<g id="edge30" class="edge">
<title>Node19&#45;&gt;Node21</title>
<path fill="none" stroke="midnightblue" d="M875.23,-302.44C912.51,-293.12 972.27,-278.18 1013.01,-268"/>
<polygon fill="midnightblue" stroke="midnightblue" points="1014.08,-271.34 1022.93,-265.52 1012.38,-264.55 1014.08,-271.34"/>
</g>
<!-- Node22 -->
<g id="node22" class="node">
<title>Node22</title>
<g id="a_node22"><a xlink:href="underlying__type_8hpp.html" target="_top" xlink:title="Definition of underlying_type trait class and related code.">
<polygon fill="white" stroke="black" points="1051.5,-56.5 1051.5,-86.5 1190.5,-86.5 1190.5,-56.5 1051.5,-56.5"/>
<text text-anchor="start" x="1059.5" y="-74.5" font-family="Helvetica,sans-Serif" font-size="10.00">playrho/detail/underlying</text>
<text text-anchor="middle" x="1121" y="-63.5" font-family="Helvetica,sans-Serif" font-size="10.00">_type.hpp</text>
</a>
</g>
</g>
<!-- Node21&#45;&gt;Node22 -->
<g id="edge31" class="edge">
<title>Node21&#45;&gt;Node22</title>
<path fill="none" stroke="midnightblue" d="M1056.03,-246.36C1054.71,-232.03 1053.22,-202.61 1060,-179 1069.06,-147.46 1089.3,-115.33 1103.98,-94.73"/>
<polygon fill="midnightblue" stroke="midnightblue" points="1106.82,-96.78 1109.89,-86.64 1101.16,-92.65 1106.82,-96.78"/>
</g>
<!-- Node22&#45;&gt;Node7 -->
<g id="edge32" class="edge">
<title>Node22&#45;&gt;Node7</title>
<path fill="none" stroke="midnightblue" d="M1051.23,-57.59C1048.11,-57.05 1045.02,-56.52 1042,-56 956.87,-41.49 857.19,-26.19 800.83,-17.69"/>
<polygon fill="midnightblue" stroke="midnightblue" points="801.24,-14.21 790.83,-16.19 800.19,-21.14 801.24,-14.21"/>
</g>
<!-- Node24 -->
<g id="node24" class="node">
<title>Node24</title>
<g id="a_node24"><a xlink:href="Wider_8hpp.html" target="_top" xlink:title="Definition of the Wider class template and specializations.">
<polygon fill="white" stroke="black" points="295,-246.5 295,-265.5 431,-265.5 431,-246.5 295,-246.5"/>
<text text-anchor="middle" x="363" y="-253.5" font-family="Helvetica,sans-Serif" font-size="10.00">playrho/detail/Wider.hpp</text>
</a>
</g>
</g>
<!-- Node23&#45;&gt;Node24 -->
<g id="edge34" class="edge">
<title>Node23&#45;&gt;Node24</title>
<path fill="none" stroke="midnightblue" d="M364.67,-302.08C364.41,-295.01 364.03,-284.86 363.7,-275.99"/>
<polygon fill="midnightblue" stroke="midnightblue" points="367.19,-275.61 363.32,-265.75 360.2,-275.87 367.19,-275.61"/>
</g>
<!-- Node24&#45;&gt;Node7 -->
<g id="edge36" class="edge">
<title>Node24&#45;&gt;Node7</title>
<path fill="none" stroke="midnightblue" d="M377.29,-246.49C390.53,-238.19 410.35,-224.7 425,-210 484.56,-150.24 465.15,-101.81 536,-56 589.41,-21.46 664.11,-12.67 711.26,-10.83"/>
<polygon fill="midnightblue" stroke="midnightblue" points="711.57,-14.33 721.46,-10.53 711.36,-7.33 711.57,-14.33"/>
</g>
<!-- Node24&#45;&gt;Node10 -->
<g id="edge35" class="edge">
<title>Node24&#45;&gt;Node10</title>
<path fill="none" stroke="midnightblue" d="M382.2,-246.48C404.79,-236.45 442.5,-219.7 468.5,-208.15"/>
<polygon fill="midnightblue" stroke="midnightblue" points="470.12,-211.27 477.84,-204.01 467.28,-204.87 470.12,-211.27"/>
</g>
<!-- Node25 -->
<g id="node25" class="node">
<title>Node25</title>
<g id="a_node25"><a xlink:href="Defines_8hpp.html" target="_top" xlink:title="Miscellaneous C&#45;preprocessor definitions.">
<polygon fill="white" stroke="black" points="302,-185 302,-204 416,-204 416,-185 302,-185"/>
<text text-anchor="middle" x="359" y="-192" font-family="Helvetica,sans-Serif" font-size="10.00">playrho/Defines.hpp</text>
</a>
</g>
</g>
<!-- Node24&#45;&gt;Node25 -->
<g id="edge37" class="edge">
<title>Node24&#45;&gt;Node25</title>
<path fill="none" stroke="midnightblue" d="M362.43,-246.48C361.86,-238.08 360.98,-224.98 360.25,-214.16"/>
<polygon fill="midnightblue" stroke="midnightblue" points="363.74,-213.75 359.57,-204.01 356.75,-214.22 363.74,-213.75"/>
</g>
<!-- Node26&#45;&gt;Node5 -->
<g id="edge39" class="edge">
<title>Node26&#45;&gt;Node5</title>
<path fill="none" stroke="midnightblue" d="M255.35,-184.98C281.99,-174.81 326.71,-157.76 357.01,-146.2"/>
<polygon fill="midnightblue" stroke="midnightblue" points="358.59,-149.34 366.69,-142.51 356.1,-142.8 358.59,-149.34"/>
</g>
<!-- Node26&#45;&gt;Node7 -->
<g id="edge42" class="edge">
<title>Node26&#45;&gt;Node7</title>
<path fill="none" stroke="midnightblue" d="M247.58,-184.93C263.98,-175.16 291.3,-158.54 314,-143 367.17,-106.59 370.4,-80.52 430,-56 524.59,-17.08 646.32,-10.59 710.97,-10.2"/>
<polygon fill="midnightblue" stroke="midnightblue" points="711.22,-13.7 721.22,-10.19 711.21,-6.7 711.22,-13.7"/>
</g>
<!-- Node26&#45;&gt;Node8 -->
<g id="edge43" class="edge">
<title>Node26&#45;&gt;Node8</title>
<path fill="none" stroke="midnightblue" d="M226.45,-184.77C216.95,-170.94 201.66,-143.48 213,-123 255.63,-46 368.13,-21.66 424.23,-14.18"/>
<polygon fill="midnightblue" stroke="midnightblue" points="424.84,-17.63 434.34,-12.94 423.98,-10.69 424.84,-17.63"/>
</g>
<!-- Node26&#45;&gt;Node13 -->
<g id="edge44" class="edge">
<title>Node26&#45;&gt;Node13</title>
<path fill="none" stroke="midnightblue" d="M263.95,-184.99C273.23,-182.72 283.47,-180.48 293,-179 509.48,-145.27 568.96,-164.04 790.92,-143.05"/>
<polygon fill="midnightblue" stroke="midnightblue" points="791.31,-146.53 800.93,-142.09 790.64,-139.56 791.31,-146.53"/>
</g>
<!-- Node27 -->
<g id="node27" class="node">
<title>Node27</title>
<g id="a_node27"><a xlink:title=" ">
<polygon fill="white" stroke="#bfbfbf" points="731,-123.5 731,-142.5 783,-142.5 783,-123.5 731,-123.5"/>
<text text-anchor="middle" x="757" y="-130.5" font-family="Helvetica,sans-Serif" font-size="10.00">cassert</text>
</a>
</g>
</g>
<!-- Node26&#45;&gt;Node27 -->
<g id="edge40" class="edge">
<title>Node26&#45;&gt;Node27</title>
<path fill="none" stroke="midnightblue" d="M264.59,-184.99C273.7,-182.77 283.7,-180.57 293,-179 334.82,-171.96 619.16,-146.28 720.89,-137.21"/>
<polygon fill="midnightblue" stroke="midnightblue" points="721.34,-140.68 730.99,-136.31 720.72,-133.71 721.34,-140.68"/>
</g>
<!-- Node28 -->
<g id="node28" class="node">
<title>Node28</title>
<g id="a_node28"><a xlink:title=" ">
<polygon fill="white" stroke="#bfbfbf" points="222.5,-123.5 222.5,-142.5 305.5,-142.5 305.5,-123.5 222.5,-123.5"/>
<text text-anchor="middle" x="264" y="-130.5" font-family="Helvetica,sans-Serif" font-size="10.00">initializer_list</text>
</a>
</g>
</g>
<!-- Node26&#45;&gt;Node28 -->
<g id="edge41" class="edge">
<title>Node26&#45;&gt;Node28</title>
<path fill="none" stroke="midnightblue" d="M237.44,-184.98C241.95,-176.32 249.07,-162.65 254.81,-151.65"/>
<polygon fill="midnightblue" stroke="midnightblue" points="258.05,-152.99 259.57,-142.51 251.84,-149.76 258.05,-152.99"/>
</g>
<!-- Node29&#45;&gt;Node7 -->
<g id="edge47" class="edge">
<title>Node29&#45;&gt;Node7</title>
<path fill="none" stroke="midnightblue" d="M1521.29,-246.26C1505.63,-222.94 1459.6,-158.61 1406,-123 1332.47,-74.14 1305.15,-75.31 1219,-56 1068.23,-22.21 884.22,-13.79 800.86,-11.7"/>
<polygon fill="midnightblue" stroke="midnightblue" points="800.81,-8.19 790.73,-11.46 800.64,-15.19 800.81,-8.19"/>
</g>
<!-- Node30 -->
<g id="node30" class="node">
<title>Node30</title>
<g id="a_node30"><a xlink:title=" ">
<polygon fill="white" stroke="#bfbfbf" points="1529,-185 1529,-204 1579,-204 1579,-185 1529,-185"/>
<text text-anchor="middle" x="1554" y="-192" font-family="Helvetica,sans-Serif" font-size="10.00">cstring</text>
</a>
</g>
</g>
<!-- Node29&#45;&gt;Node30 -->
<g id="edge46" class="edge">
<title>Node29&#45;&gt;Node30</title>
<path fill="none" stroke="midnightblue" d="M1530.87,-246.48C1534.8,-237.82 1541,-224.15 1545.99,-213.15"/>
<polygon fill="midnightblue" stroke="midnightblue" points="1549.19,-214.56 1550.14,-204.01 1542.82,-211.67 1549.19,-214.56"/>
</g>
<!-- Node31 -->
<g id="node31" class="node">
<title>Node31</title>
<g id="a_node31"><a xlink:href="detail_2TypeInfo_8hpp.html" target="_top" xlink:title="Definition of TypeInfo class template and related code.">
<polygon fill="white" stroke="black" points="1596.5,-185 1596.5,-204 1745.5,-204 1745.5,-185 1596.5,-185"/>
<text text-anchor="middle" x="1671" y="-192" font-family="Helvetica,sans-Serif" font-size="10.00">playrho/detail/TypeInfo.hpp</text>
</a>
</g>
</g>
<!-- Node29&#45;&gt;Node31 -->
<g id="edge48" class="edge">
<title>Node29&#45;&gt;Node31</title>
<path fill="none" stroke="midnightblue" d="M1547.63,-246.48C1572.12,-236.36 1613.15,-219.4 1641.11,-207.85"/>
<polygon fill="midnightblue" stroke="midnightblue" points="1642.5,-211.06 1650.41,-204.01 1639.83,-204.59 1642.5,-211.06"/>
</g>
<!-- Node32 -->
<g id="node32" class="node">
<title>Node32</title>
<g id="a_node32"><a xlink:title=" ">
<polygon fill="white" stroke="#bfbfbf" points="1576,-123.5 1576,-142.5 1620,-142.5 1620,-123.5 1576,-123.5"/>
<text text-anchor="middle" x="1598" y="-130.5" font-family="Helvetica,sans-Serif" font-size="10.00">regex</text>
</a>
</g>
</g>
<!-- Node31&#45;&gt;Node32 -->
<g id="edge49" class="edge">
<title>Node31&#45;&gt;Node32</title>
<path fill="none" stroke="midnightblue" d="M1660.54,-184.98C1649.05,-175.61 1630.37,-160.38 1616.41,-149.01"/>
<polygon fill="midnightblue" stroke="midnightblue" points="1618.4,-146.11 1608.44,-142.51 1613.98,-151.54 1618.4,-146.11"/>
</g>
<!-- Node33 -->
<g id="node33" class="node">
<title>Node33</title>
<g id="a_node33"><a xlink:title=" ">
<polygon fill="white" stroke="#bfbfbf" points="1353,-123.5 1353,-142.5 1397,-142.5 1397,-123.5 1353,-123.5"/>
<text text-anchor="middle" x="1375" y="-130.5" font-family="Helvetica,sans-Serif" font-size="10.00">string</text>
</a>
</g>
</g>
<!-- Node31&#45;&gt;Node33 -->
<g id="edge50" class="edge">
<title>Node31&#45;&gt;Node33</title>
<path fill="none" stroke="midnightblue" d="M1628.59,-184.98C1568.79,-172.96 1461.01,-151.29 1407.28,-140.49"/>
<polygon fill="midnightblue" stroke="midnightblue" points="1407.78,-137.02 1397.28,-138.48 1406.4,-143.88 1407.78,-137.02"/>
</g>
<!-- Node34 -->
<g id="node34" class="node">
<title>Node34</title>
<g id="a_node34"><a xlink:title=" ">
<polygon fill="white" stroke="#bfbfbf" points="1638.5,-123.5 1638.5,-142.5 1703.5,-142.5 1703.5,-123.5 1638.5,-123.5"/>
<text text-anchor="middle" x="1671" y="-130.5" font-family="Helvetica,sans-Serif" font-size="10.00">typeindex</text>
</a>
</g>
</g>
<!-- Node31&#45;&gt;Node34 -->
<g id="edge51" class="edge">
<title>Node31&#45;&gt;Node34</title>
<path fill="none" stroke="midnightblue" d="M1671,-184.98C1671,-176.58 1671,-163.48 1671,-152.66"/>
<polygon fill="midnightblue" stroke="midnightblue" points="1674.5,-152.51 1671,-142.51 1667.5,-152.51 1674.5,-152.51"/>
</g>
<!-- Node35 -->
<g id="node35" class="node">
<title>Node35</title>
<g id="a_node35"><a xlink:title=" ">
<polygon fill="white" stroke="#bfbfbf" points="1721.5,-123.5 1721.5,-142.5 1778.5,-142.5 1778.5,-123.5 1721.5,-123.5"/>
<text text-anchor="middle" x="1750" y="-130.5" font-family="Helvetica,sans-Serif" font-size="10.00">typeinfo</text>
</a>
</g>
</g>
<!-- Node31&#45;&gt;Node35 -->
<g id="edge52" class="edge">
<title>Node31&#45;&gt;Node35</title>
<path fill="none" stroke="midnightblue" d="M1682.32,-184.98C1694.87,-175.52 1715.35,-160.1 1730.5,-148.69"/>
<polygon fill="midnightblue" stroke="midnightblue" points="1732.82,-151.32 1738.7,-142.51 1728.61,-145.73 1732.82,-151.32"/>
</g>
<!-- Node36&#45;&gt;Node9 -->
<g id="edge55" class="edge">
<title>Node36&#45;&gt;Node9</title>
<path fill="none" stroke="midnightblue" d="M630.94,-414.44C612.43,-405.68 583.42,-391.94 562.14,-381.86"/>
<polygon fill="midnightblue" stroke="midnightblue" points="563.51,-378.63 552.98,-377.52 560.52,-384.96 563.51,-378.63"/>
</g>
<!-- Node36&#45;&gt;Node12 -->
<g id="edge54" class="edge">
<title>Node36&#45;&gt;Node12</title>
<path fill="none" stroke="midnightblue" d="M644.66,-414.17C631.99,-387.02 597.89,-303.12 630,-246 639.97,-228.26 658.98,-216.02 676.29,-208.04"/>
<polygon fill="midnightblue" stroke="midnightblue" points="677.85,-211.19 685.67,-204.04 675.1,-204.75 677.85,-211.19"/>
</g>
<!-- Node36&#45;&gt;Node19 -->
<g id="edge56" class="edge">
<title>Node36&#45;&gt;Node19</title>
<path fill="none" stroke="midnightblue" d="M664.07,-414.37C697.29,-395.33 777.09,-349.62 817.17,-326.65"/>
<polygon fill="midnightblue" stroke="midnightblue" points="819.07,-329.6 826,-321.59 815.59,-323.53 819.07,-329.6"/>
</g>
<!-- Node37 -->
<g id="node37" class="node">
<title>Node37</title>
<g id="a_node37"><a xlink:href="Vector_8hpp.html" target="_top" xlink:title="Definition of the Vector class template and closely related code.">
<polygon fill="white" stroke="black" points="1147.5,-246.5 1147.5,-265.5 1254.5,-265.5 1254.5,-246.5 1147.5,-246.5"/>
<text text-anchor="middle" x="1201" y="-253.5" font-family="Helvetica,sans-Serif" font-size="10.00">playrho/Vector.hpp</text>
</a>
</g>
</g>
<!-- Node36&#45;&gt;Node37 -->
<g id="edge57" class="edge">
<title>Node36&#45;&gt;Node37</title>
<path fill="none" stroke="midnightblue" d="M677.52,-414.42C769.49,-386.76 1058.41,-299.88 1162.85,-268.47"/>
<polygon fill="midnightblue" stroke="midnightblue" points="1164.09,-271.76 1172.65,-265.52 1162.07,-265.05 1164.09,-271.76"/>
</g>
<!-- Node37&#45;&gt;Node5 -->
<g id="edge60" class="edge">
<title>Node37&#45;&gt;Node5</title>
<path fill="none" stroke="midnightblue" d="M1149.16,-246.49C1095.7,-237.65 1009.95,-223.27 936,-210 862.99,-196.9 845.33,-190.22 772,-179 645.42,-159.62 494.19,-144.08 425.8,-137.46"/>
<polygon fill="midnightblue" stroke="midnightblue" points="425.84,-133.95 415.55,-136.47 425.17,-140.92 425.84,-133.95"/>
</g>
<!-- Node37&#45;&gt;Node7 -->
<g id="edge64" class="edge">
<title>Node37&#45;&gt;Node7</title>
<path fill="none" stroke="midnightblue" d="M1149.47,-246.44C1128.27,-240.1 1105.73,-229.1 1093,-210 1085.36,-198.54 1087.25,-191.52 1093,-179 1123.23,-113.15 1248.58,-109.76 1200,-56 1173.54,-26.73 908.03,-15.55 800.68,-12.2"/>
<polygon fill="midnightblue" stroke="midnightblue" points="800.6,-8.7 790.5,-11.89 800.39,-15.69 800.6,-8.7"/>
</g>
<!-- Node37&#45;&gt;Node12 -->
<g id="edge69" class="edge">
<title>Node37&#45;&gt;Node12</title>
<path fill="none" stroke="midnightblue" d="M1147.4,-247.25C1144.22,-246.82 1141.07,-246.4 1138,-246 1008,-228.99 855.29,-211.44 772.95,-202.17"/>
<polygon fill="midnightblue" stroke="midnightblue" points="773.1,-198.67 762.77,-201.03 772.32,-205.62 773.1,-198.67"/>
</g>
<!-- Node37&#45;&gt;Node13 -->
<g id="edge70" class="edge">
<title>Node37&#45;&gt;Node13</title>
<path fill="none" stroke="midnightblue" d="M1172.47,-246.47C1143.86,-237.78 1098.63,-223.68 1060,-210 1001.05,-189.13 933.22,-161.97 895.1,-146.41"/>
<polygon fill="midnightblue" stroke="midnightblue" points="896.2,-143.08 885.62,-142.53 893.55,-149.56 896.2,-143.08"/>
</g>
<!-- Node37&#45;&gt;Node16 -->
<g id="edge58" class="edge">
<title>Node37&#45;&gt;Node16</title>
<path fill="none" stroke="midnightblue" d="M1254.64,-250.71C1308.89,-245.13 1387.33,-233.21 1406,-210 1430.23,-179.87 1427.85,-154.9 1406,-123 1370.7,-71.47 1184.31,-33.11 1099.31,-18.02"/>
<polygon fill="midnightblue" stroke="midnightblue" points="1099.68,-14.53 1089.22,-16.26 1098.47,-21.43 1099.68,-14.53"/>
</g>
<!-- Node37&#45;&gt;Node17 -->
<g id="edge61" class="edge">
<title>Node37&#45;&gt;Node17</title>
<path fill="none" stroke="midnightblue" d="M1254.7,-252.57C1317.57,-248.46 1416.06,-237.68 1439,-210 1482.67,-157.3 1476.05,-113.55 1439,-56 1425.26,-34.66 1398.66,-23.33 1376.49,-17.37"/>
<polygon fill="midnightblue" stroke="midnightblue" points="1377.21,-13.95 1366.67,-15 1375.57,-20.75 1377.21,-13.95"/>
</g>
<!-- Node37&#45;&gt;Node27 -->
<g id="edge59" class="edge">
<title>Node37&#45;&gt;Node27</title>
<path fill="none" stroke="midnightblue" d="M1147.5,-247.32C1090.69,-238.65 1005.04,-223.92 975,-210 954.91,-200.69 955.86,-188.8 936,-179 879.61,-151.18 857.99,-158.42 793.24,-143.21"/>
<polygon fill="midnightblue" stroke="midnightblue" points="793.91,-139.77 783.37,-140.8 792.25,-146.57 793.91,-139.77"/>
</g>
<!-- Node38 -->
<g id="node38" class="node">
<title>Node38</title>
<g id="a_node38"><a xlink:title=" ">
<polygon fill="white" stroke="#bfbfbf" points="1102,-185 1102,-204 1162,-204 1162,-185 1102,-185"/>
<text text-anchor="middle" x="1132" y="-192" font-family="Helvetica,sans-Serif" font-size="10.00">iostream</text>
</a>
</g>
</g>
<!-- Node37&#45;&gt;Node38 -->
<g id="edge62" class="edge">
<title>Node37&#45;&gt;Node38</title>
<path fill="none" stroke="midnightblue" d="M1191.11,-246.48C1180.35,-237.2 1162.93,-222.17 1149.78,-210.83"/>
<polygon fill="midnightblue" stroke="midnightblue" points="1151.73,-207.89 1141.87,-204.01 1147.16,-213.19 1151.73,-207.89"/>
</g>
<!-- Node39 -->
<g id="node39" class="node">
<title>Node39</title>
<g id="a_node39"><a xlink:title=" ">
<polygon fill="white" stroke="#bfbfbf" points="1180.5,-185 1180.5,-204 1221.5,-204 1221.5,-185 1180.5,-185"/>
<text text-anchor="middle" x="1201" y="-192" font-family="Helvetica,sans-Serif" font-size="10.00">tuple</text>
</a>
</g>
</g>
<!-- Node37&#45;&gt;Node39 -->
<g id="edge63" class="edge">
<title>Node37&#45;&gt;Node39</title>
<path fill="none" stroke="midnightblue" d="M1201,-246.48C1201,-238.08 1201,-224.98 1201,-214.16"/>
<polygon fill="midnightblue" stroke="midnightblue" points="1204.5,-214.01 1201,-204.01 1197.5,-214.01 1204.5,-214.01"/>
</g>
<!-- Node40 -->
<g id="node40" class="node">
<title>Node40</title>
<g id="a_node40"><a xlink:href="InvalidArgument_8hpp.html" target="_top" xlink:title="Definition of the InvalidArgument class.">
<polygon fill="white" stroke="black" points="1239,-185 1239,-204 1397,-204 1397,-185 1239,-185"/>
<text text-anchor="middle" x="1318" y="-192" font-family="Helvetica,sans-Serif" font-size="10.00">playrho/InvalidArgument.hpp</text>
</a>
</g>
</g>
<!-- Node37&#45;&gt;Node40 -->
<g id="edge65" class="edge">
<title>Node37&#45;&gt;Node40</title>
<path fill="none" stroke="midnightblue" d="M1217.76,-246.48C1237.22,-236.58 1269.55,-220.14 1292.21,-208.62"/>
<polygon fill="midnightblue" stroke="midnightblue" points="1293.94,-211.66 1301.27,-204.01 1290.77,-205.42 1293.94,-211.66"/>
</g>
<!-- Node40&#45;&gt;Node8 -->
<g id="edge68" class="edge">
<title>Node40&#45;&gt;Node8</title>
<path fill="none" stroke="midnightblue" d="M1271.15,-184.97C1188.34,-169.33 1011.14,-133.39 866,-87 831.25,-75.89 825.25,-65.41 790,-56 682.33,-27.26 549.92,-16.36 489.65,-12.67"/>
<polygon fill="midnightblue" stroke="midnightblue" points="489.78,-9.17 479.6,-12.08 489.38,-16.16 489.78,-9.17"/>
</g>
<!-- Node40&#45;&gt;Node33 -->
<g id="edge67" class="edge">
<title>Node40&#45;&gt;Node33</title>
<path fill="none" stroke="midnightblue" d="M1326.17,-184.98C1334.89,-175.87 1348.9,-161.24 1359.69,-149.98"/>
<polygon fill="midnightblue" stroke="midnightblue" points="1362.46,-152.15 1366.85,-142.51 1357.4,-147.31 1362.46,-152.15"/>
</g>
<!-- Node41 -->
<g id="node41" class="node">
<title>Node41</title>
<g id="a_node41"><a xlink:title=" ">
<polygon fill="white" stroke="#bfbfbf" points="1269.5,-123.5 1269.5,-142.5 1334.5,-142.5 1334.5,-123.5 1269.5,-123.5"/>
<text text-anchor="middle" x="1302" y="-130.5" font-family="Helvetica,sans-Serif" font-size="10.00">stdexcept</text>
</a>
</g>
</g>
<!-- Node40&#45;&gt;Node41 -->
<g id="edge66" class="edge">
<title>Node40&#45;&gt;Node41</title>
<path fill="none" stroke="midnightblue" d="M1315.71,-184.98C1313.43,-176.49 1309.85,-163.2 1306.93,-152.32"/>
<polygon fill="midnightblue" stroke="midnightblue" points="1310.26,-151.26 1304.29,-142.51 1303.51,-153.07 1310.26,-151.26"/>
</g>
</g>
</svg>
