<?xml version="1.0" encoding="UTF-8" standalone="no"?>
<!DOCTYPE svg PUBLIC "-//W3C//DTD SVG 1.1//EN"
 "http://www.w3.org/Graphics/SVG/1.1/DTD/svg11.dtd">
<!-- Generated by graphviz version 2.43.0 (0)
 -->
<!-- Title: Library/include/playrho/KeyedContactID.hpp Pages: 1 -->
<!--zoomable 509 -->
<svg id="main" version="1.1" xmlns="http://www.w3.org/2000/svg" xmlns:xlink="http://www.w3.org/1999/xlink" xml:space="preserve" onload="init(evt)">
<style type="text/css"><![CDATA[
.edge:hover path { stroke: red; }
.edge:hover polygon { stroke: red; fill: red; }
]]></style>
<script type="text/javascript"><![CDATA[
var edges = document.getElementsByTagName('g');
if (edges && edges.length) {
  for (var i=0;i<edges.length;i++) {
    if (edges[i].id.substr(0,4)=='edge') {
      edges[i].setAttribute('class','edge');
    }
  }
}
]]></script>
        <defs>
                <circle id="rim" cx="0" cy="0" r="7"/>
                <circle id="rim2" cx="0" cy="0" r="3.5"/>
                <g id="zoomPlus">
                        <use xlink:href="#rim" fill="#404040">
                                <set attributeName="fill" to="#808080" begin="zoomplus.mouseover" end="zoomplus.mouseout"/>
                        </use>
                        <path d="M-4,0h8M0,-4v8" fill="none" stroke="white" stroke-width="1.5" pointer-events="none"/>
                </g>
                <g id="zoomMin">
                        <use xlink:href="#rim" fill="#404040">
                                <set attributeName="fill" to="#808080" begin="zoomminus.mouseover" end="zoomminus.mouseout"/>
                        </use>
                        <path d="M-4,0h8" fill="none" stroke="white" stroke-width="1.5" pointer-events="none"/>
                </g>
                <g id="dirArrow">
                        <path fill="none" stroke="white" stroke-width="1.5" d="M0,-3.0v7 M-2.5,-0.5L0,-3.0L2.5,-0.5"/>
                </g>
               <g id="resetDef">
                       <use xlink:href="#rim2" fill="#404040">
                               <set attributeName="fill" to="#808080" begin="reset.mouseover" end="reset.mouseout"/>
                       </use>
               </g>
        </defs>

<script type="text/javascript">
var viewWidth = 1140;
var viewHeight = 509;
var sectionId = 'dynsection-0';
</script>
<script xlink:href="svgpan.js"/>
<svg id="graph" class="graph">
<g id="viewport">
<title>Library/include/playrho/KeyedContactID.hpp</title>
<polygon fill="white" stroke="transparent" points="-4,4 -4,-505 1135.5,-505 1135.5,4 -4,4"/>
<!-- Node1 -->
<g id="node1" class="node">
<title>Node1</title>
<g id="a_node1"><a xlink:title="Declaration of the KeyedContactID alias.">
<polygon fill="#bfbfbf" stroke="black" points="50,-470.5 50,-500.5 178,-500.5 178,-470.5 50,-470.5"/>
<text text-anchor="start" x="58" y="-488.5" font-family="Helvetica,sans-Serif" font-size="10.00">Library/include/playrho</text>
<text text-anchor="middle" x="114" y="-477.5" font-family="Helvetica,sans-Serif" font-size="10.00">/KeyedContactID.hpp</text>
</a>
</g>
</g>
<!-- Node2 -->
<g id="node2" class="node">
<title>Node2</title>
<g id="a_node2"><a xlink:title=" ">
<polygon fill="white" stroke="#bfbfbf" points="35.5,-0.5 35.5,-19.5 80.5,-19.5 80.5,-0.5 35.5,-0.5"/>
<text text-anchor="middle" x="58" y="-7.5" font-family="Helvetica,sans-Serif" font-size="10.00">utility</text>
</a>
</g>
</g>
<!-- Node1&#45;&gt;Node2 -->
<g id="edge1" class="edge">
<title>Node1&#45;&gt;Node2</title>
<path fill="none" stroke="midnightblue" d="M85.82,-470.34C52.06,-451.14 0,-413.43 0,-363.5 0,-363.5 0,-363.5 0,-126.5 0,-87.65 26.53,-48.52 43.71,-27.26"/>
<polygon fill="midnightblue" stroke="midnightblue" points="46.44,-29.45 50.18,-19.53 41.07,-24.95 46.44,-29.45"/>
</g>
<!-- Node3 -->
<g id="node3" class="node">
<title>Node3</title>
<g id="a_node3"><a xlink:href="ContactKey_8hpp.html" target="_top" xlink:title="Declaration of the ContactKey class and closely related code.">
<polygon fill="white" stroke="black" points="48.5,-414.5 48.5,-433.5 179.5,-433.5 179.5,-414.5 48.5,-414.5"/>
<text text-anchor="middle" x="114" y="-421.5" font-family="Helvetica,sans-Serif" font-size="10.00">playrho/ContactKey.hpp</text>
</a>
</g>
</g>
<!-- Node1&#45;&gt;Node3 -->
<g id="edge2" class="edge">
<title>Node1&#45;&gt;Node3</title>
<path fill="none" stroke="midnightblue" d="M114,-470.4C114,-462.47 114,-452.46 114,-443.86"/>
<polygon fill="midnightblue" stroke="midnightblue" points="117.5,-443.66 114,-433.66 110.5,-443.66 117.5,-443.66"/>
</g>
<!-- Node23 -->
<g id="node23" class="node">
<title>Node23</title>
<g id="a_node23"><a xlink:href="ContactID_8hpp.html" target="_top" xlink:title="Definition of the ContactID alias and closely related code.">
<polygon fill="white" stroke="black" points="329.5,-414.5 329.5,-433.5 454.5,-433.5 454.5,-414.5 329.5,-414.5"/>
<text text-anchor="middle" x="392" y="-421.5" font-family="Helvetica,sans-Serif" font-size="10.00">playrho/ContactID.hpp</text>
</a>
</g>
</g>
<!-- Node1&#45;&gt;Node23 -->
<g id="edge37" class="edge">
<title>Node1&#45;&gt;Node23</title>
<path fill="none" stroke="midnightblue" d="M178.13,-470.77C228.07,-460.09 296.39,-445.46 342.25,-435.65"/>
<polygon fill="midnightblue" stroke="midnightblue" points="343.21,-439.02 352.25,-433.51 341.74,-432.18 343.21,-439.02"/>
</g>
<!-- Node3&#45;&gt;Node2 -->
<g id="edge6" class="edge">
<title>Node3&#45;&gt;Node2</title>
<path fill="none" stroke="midnightblue" d="M103.75,-414.47C83.01,-396.18 38,-350.87 38,-302 38,-302 38,-302 38,-126.5 38,-91.86 46.84,-52.21 52.77,-29.54"/>
<polygon fill="midnightblue" stroke="midnightblue" points="56.22,-30.17 55.47,-19.61 49.47,-28.34 56.22,-30.17"/>
</g>
<!-- Node4 -->
<g id="node4" class="node">
<title>Node4</title>
<g id="a_node4"><a xlink:title=" ">
<polygon fill="white" stroke="#bfbfbf" points="112.5,-56.5 112.5,-75.5 161.5,-75.5 161.5,-56.5 112.5,-56.5"/>
<text text-anchor="middle" x="137" y="-63.5" font-family="Helvetica,sans-Serif" font-size="10.00">cstdlib</text>
</a>
</g>
</g>
<!-- Node3&#45;&gt;Node4 -->
<g id="edge3" class="edge">
<title>Node3&#45;&gt;Node4</title>
<path fill="none" stroke="midnightblue" d="M114.57,-414.2C117.56,-367.84 131.54,-151.57 135.78,-85.93"/>
<polygon fill="midnightblue" stroke="midnightblue" points="139.28,-86.02 136.43,-75.81 132.29,-85.56 139.28,-86.02"/>
</g>
<!-- Node5 -->
<g id="node5" class="node">
<title>Node5</title>
<g id="a_node5"><a xlink:title=" ">
<polygon fill="white" stroke="#bfbfbf" points="137,-0.5 137,-19.5 201,-19.5 201,-0.5 137,-0.5"/>
<text text-anchor="middle" x="169" y="-7.5" font-family="Helvetica,sans-Serif" font-size="10.00">algorithm</text>
</a>
</g>
</g>
<!-- Node3&#45;&gt;Node5 -->
<g id="edge4" class="edge">
<title>Node3&#45;&gt;Node5</title>
<path fill="none" stroke="midnightblue" d="M111.51,-414.2C103.05,-383.54 76,-278.53 76,-190 76,-190 76,-190 76,-126.5 76,-92.79 83.02,-82.39 104,-56 114.24,-43.12 129.15,-32.43 142.1,-24.71"/>
<polygon fill="midnightblue" stroke="midnightblue" points="144.12,-27.59 151.1,-19.62 140.67,-21.5 144.12,-27.59"/>
</g>
<!-- Node6 -->
<g id="node6" class="node">
<title>Node6</title>
<g id="a_node6"><a xlink:title=" ">
<polygon fill="white" stroke="#bfbfbf" points="918.5,-291.5 918.5,-310.5 983.5,-310.5 983.5,-291.5 918.5,-291.5"/>
<text text-anchor="middle" x="951" y="-298.5" font-family="Helvetica,sans-Serif" font-size="10.00">functional</text>
</a>
</g>
</g>
<!-- Node3&#45;&gt;Node6 -->
<g id="edge5" class="edge">
<title>Node3&#45;&gt;Node6</title>
<path fill="none" stroke="midnightblue" d="M179.72,-415.53C314.5,-399.82 631.98,-360.83 908.26,-311.03"/>
<polygon fill="midnightblue" stroke="midnightblue" points="909.26,-314.41 918.48,-309.18 908.02,-307.52 909.26,-314.41"/>
</g>
<!-- Node7 -->
<g id="node7" class="node">
<title>Node7</title>
<g id="a_node7"><a xlink:href="Settings_8hpp.html" target="_top" xlink:title="Types and default settings file.">
<polygon fill="white" stroke="black" points="333.5,-353 333.5,-372 450.5,-372 450.5,-353 333.5,-353"/>
<text text-anchor="middle" x="392" y="-360" font-family="Helvetica,sans-Serif" font-size="10.00">playrho/Settings.hpp</text>
</a>
</g>
</g>
<!-- Node3&#45;&gt;Node7 -->
<g id="edge7" class="edge">
<title>Node3&#45;&gt;Node7</title>
<path fill="none" stroke="midnightblue" d="M153.83,-414.48C203.48,-403.85 288.35,-385.68 342.23,-374.15"/>
<polygon fill="midnightblue" stroke="midnightblue" points="343.2,-377.52 352.24,-372.01 341.73,-370.68 343.2,-377.52"/>
</g>
<!-- Node8 -->
<g id="node8" class="node">
<title>Node8</title>
<g id="a_node8"><a xlink:title=" ">
<polygon fill="white" stroke="#bfbfbf" points="764,-179.5 764,-198.5 814,-198.5 814,-179.5 764,-179.5"/>
<text text-anchor="middle" x="789" y="-186.5" font-family="Helvetica,sans-Serif" font-size="10.00">cstdint</text>
</a>
</g>
</g>
<!-- Node7&#45;&gt;Node8 -->
<g id="edge8" class="edge">
<title>Node7&#45;&gt;Node8</title>
<path fill="none" stroke="midnightblue" d="M438.22,-352.96C449.58,-350.93 461.72,-348.83 473,-347 582.5,-329.22 628.35,-373.52 720,-311 756.35,-286.21 775.88,-235.54 784.14,-208.3"/>
<polygon fill="midnightblue" stroke="midnightblue" points="787.56,-209.08 786.93,-198.5 780.83,-207.16 787.56,-209.08"/>
</g>
<!-- Node9 -->
<g id="node9" class="node">
<title>Node9</title>
<g id="a_node9"><a xlink:title=" ">
<polygon fill="white" stroke="#bfbfbf" points="148,-118 148,-137 192,-137 192,-118 148,-118"/>
<text text-anchor="middle" x="170" y="-125" font-family="Helvetica,sans-Serif" font-size="10.00">limits</text>
</a>
</g>
</g>
<!-- Node7&#45;&gt;Node9 -->
<g id="edge9" class="edge">
<title>Node7&#45;&gt;Node9</title>
<path fill="none" stroke="midnightblue" d="M333.57,-352.95C301.79,-345.93 263.32,-333.35 235,-311 183.32,-270.21 172.67,-185.09 170.52,-147.29"/>
<polygon fill="midnightblue" stroke="midnightblue" points="174.01,-147.02 170.09,-137.18 167.02,-147.32 174.01,-147.02"/>
</g>
<!-- Node10 -->
<g id="node10" class="node">
<title>Node10</title>
<g id="a_node10"><a xlink:title=" ">
<polygon fill="white" stroke="#bfbfbf" points="697.5,-0.5 697.5,-19.5 766.5,-19.5 766.5,-0.5 697.5,-0.5"/>
<text text-anchor="middle" x="732" y="-7.5" font-family="Helvetica,sans-Serif" font-size="10.00">type_traits</text>
</a>
</g>
</g>
<!-- Node7&#45;&gt;Node10 -->
<g id="edge10" class="edge">
<title>Node7&#45;&gt;Node10</title>
<path fill="none" stroke="midnightblue" d="M438.15,-352.94C519.34,-336.88 682.42,-299.76 717,-255 769.51,-187.03 748.37,-74.03 737.21,-29.68"/>
<polygon fill="midnightblue" stroke="midnightblue" points="740.52,-28.51 734.58,-19.73 733.75,-30.3 740.52,-28.51"/>
</g>
<!-- Node11 -->
<g id="node11" class="node">
<title>Node11</title>
<g id="a_node11"><a xlink:href="Real_8hpp.html" target="_top" xlink:title="Real number definition file.">
<polygon fill="white" stroke="black" points="230.5,-179.5 230.5,-198.5 329.5,-198.5 329.5,-179.5 230.5,-179.5"/>
<text text-anchor="middle" x="280" y="-186.5" font-family="Helvetica,sans-Serif" font-size="10.00">playrho/Real.hpp</text>
</a>
</g>
</g>
<!-- Node7&#45;&gt;Node11 -->
<g id="edge11" class="edge">
<title>Node7&#45;&gt;Node11</title>
<path fill="none" stroke="midnightblue" d="M357.89,-352.9C314.39,-339.89 240.98,-310.61 209,-255 196.42,-233.13 223.37,-214.45 247.6,-202.8"/>
<polygon fill="midnightblue" stroke="midnightblue" points="249.34,-205.86 257,-198.55 246.45,-199.48 249.34,-205.86"/>
</g>
<!-- Node15 -->
<g id="node15" class="node">
<title>Node15</title>
<g id="a_node15"><a xlink:href="RealConstants_8hpp.html" target="_top" xlink:title="Definitions file for constant expressions of type Real.">
<polygon fill="white" stroke="black" points="218,-235.5 218,-254.5 366,-254.5 366,-235.5 218,-235.5"/>
<text text-anchor="middle" x="292" y="-242.5" font-family="Helvetica,sans-Serif" font-size="10.00">playrho/RealConstants.hpp</text>
</a>
</g>
</g>
<!-- Node7&#45;&gt;Node15 -->
<g id="edge21" class="edge">
<title>Node7&#45;&gt;Node15</title>
<path fill="none" stroke="midnightblue" d="M384.48,-352.82C367.91,-333.67 327.97,-287.54 306.4,-262.63"/>
<polygon fill="midnightblue" stroke="midnightblue" points="308.8,-260.05 299.6,-254.78 303.5,-264.63 308.8,-260.05"/>
</g>
<!-- Node16 -->
<g id="node16" class="node">
<title>Node16</title>
<g id="a_node16"><a xlink:href="Units_8hpp.html" target="_top" xlink:title="Declarations for physical units possibly backed by strong types.">
<polygon fill="white" stroke="black" points="380.5,-291.5 380.5,-310.5 483.5,-310.5 483.5,-291.5 380.5,-291.5"/>
<text text-anchor="middle" x="432" y="-298.5" font-family="Helvetica,sans-Serif" font-size="10.00">playrho/Units.hpp</text>
</a>
</g>
</g>
<!-- Node7&#45;&gt;Node16 -->
<g id="edge23" class="edge">
<title>Node7&#45;&gt;Node16</title>
<path fill="none" stroke="midnightblue" d="M397.73,-352.98C403.67,-344.14 413.12,-330.09 420.59,-318.98"/>
<polygon fill="midnightblue" stroke="midnightblue" points="423.61,-320.76 426.28,-310.51 417.8,-316.86 423.61,-320.76"/>
</g>
<!-- Node20 -->
<g id="node20" class="node">
<title>Node20</title>
<g id="a_node20"><a xlink:href="WiderType_8hpp.html" target="_top" xlink:title="Definition of the WiderType alias template.">
<polygon fill="white" stroke="black" points="772,-291.5 772,-310.5 900,-310.5 900,-291.5 772,-291.5"/>
<text text-anchor="middle" x="836" y="-298.5" font-family="Helvetica,sans-Serif" font-size="10.00">playrho/WiderType.hpp</text>
</a>
</g>
</g>
<!-- Node7&#45;&gt;Node20 -->
<g id="edge32" class="edge">
<title>Node7&#45;&gt;Node20</title>
<path fill="none" stroke="midnightblue" d="M450.5,-353.66C530.69,-342.91 674.73,-323.61 762.22,-311.89"/>
<polygon fill="midnightblue" stroke="midnightblue" points="762.89,-315.33 772.34,-310.53 761.96,-308.39 762.89,-315.33"/>
</g>
<!-- Node11&#45;&gt;Node9 -->
<g id="edge12" class="edge">
<title>Node11&#45;&gt;Node9</title>
<path fill="none" stroke="midnightblue" d="M264.24,-179.48C246.02,-169.62 215.83,-153.29 194.53,-141.77"/>
<polygon fill="midnightblue" stroke="midnightblue" points="196.19,-138.69 185.73,-137.01 192.86,-144.85 196.19,-138.69"/>
</g>
<!-- Node12 -->
<g id="node12" class="node">
<title>Node12</title>
<g id="a_node12"><a xlink:href="Templates_8hpp.html" target="_top" xlink:title="Definitions of miscellaneous template related code.">
<polygon fill="white" stroke="black" points="216,-118 216,-137 344,-137 344,-118 216,-118"/>
<text text-anchor="middle" x="280" y="-125" font-family="Helvetica,sans-Serif" font-size="10.00">playrho/Templates.hpp</text>
</a>
</g>
</g>
<!-- Node11&#45;&gt;Node12 -->
<g id="edge13" class="edge">
<title>Node11&#45;&gt;Node12</title>
<path fill="none" stroke="midnightblue" d="M280,-179.48C280,-171.08 280,-157.98 280,-147.16"/>
<polygon fill="midnightblue" stroke="midnightblue" points="283.5,-147.01 280,-137.01 276.5,-147.01 283.5,-147.01"/>
</g>
<!-- Node12&#45;&gt;Node4 -->
<g id="edge14" class="edge">
<title>Node12&#45;&gt;Node4</title>
<path fill="none" stroke="midnightblue" d="M259.51,-117.98C235.19,-107.86 194.45,-90.9 166.68,-79.35"/>
<polygon fill="midnightblue" stroke="midnightblue" points="168.03,-76.12 157.45,-75.51 165.34,-82.58 168.03,-76.12"/>
</g>
<!-- Node12&#45;&gt;Node10 -->
<g id="edge15" class="edge">
<title>Node12&#45;&gt;Node10</title>
<path fill="none" stroke="midnightblue" d="M307.04,-117.93C351.59,-103.96 443.29,-75.87 522,-56 578.61,-41.71 644.54,-28.06 687.2,-19.62"/>
<polygon fill="midnightblue" stroke="midnightblue" points="688.13,-23.01 697.26,-17.64 686.78,-16.14 688.13,-23.01"/>
</g>
<!-- Node13 -->
<g id="node13" class="node">
<title>Node13</title>
<g id="a_node13"><a xlink:href="detail_2Templates_8hpp.html" target="_top" xlink:title="Low&#45;level declarations for general class &amp; function templates.">
<polygon fill="white" stroke="black" points="186,-56.5 186,-75.5 344,-75.5 344,-56.5 186,-56.5"/>
<text text-anchor="middle" x="265" y="-63.5" font-family="Helvetica,sans-Serif" font-size="10.00">playrho/detail/Templates.hpp</text>
</a>
</g>
</g>
<!-- Node12&#45;&gt;Node13 -->
<g id="edge16" class="edge">
<title>Node12&#45;&gt;Node13</title>
<path fill="none" stroke="midnightblue" d="M277.85,-117.98C275.71,-109.49 272.36,-96.2 269.62,-85.32"/>
<polygon fill="midnightblue" stroke="midnightblue" points="272.98,-84.35 267.15,-75.51 266.2,-86.06 272.98,-84.35"/>
</g>
<!-- Node13&#45;&gt;Node2 -->
<g id="edge20" class="edge">
<title>Node13&#45;&gt;Node2</title>
<path fill="none" stroke="midnightblue" d="M232.2,-56.44C193.38,-46.32 129.13,-29.55 90.45,-19.47"/>
<polygon fill="midnightblue" stroke="midnightblue" points="91.29,-16.07 80.73,-16.93 89.53,-22.84 91.29,-16.07"/>
</g>
<!-- Node13&#45;&gt;Node5 -->
<g id="edge17" class="edge">
<title>Node13&#45;&gt;Node5</title>
<path fill="none" stroke="midnightblue" d="M249.58,-56.32C234.46,-47.82 211.18,-34.73 193.53,-24.8"/>
<polygon fill="midnightblue" stroke="midnightblue" points="194.82,-21.51 184.39,-19.65 191.39,-27.61 194.82,-21.51"/>
</g>
<!-- Node13&#45;&gt;Node10 -->
<g id="edge19" class="edge">
<title>Node13&#45;&gt;Node10</title>
<path fill="none" stroke="midnightblue" d="M338.74,-56.47C436.64,-45.15 606.53,-25.51 687.11,-16.19"/>
<polygon fill="midnightblue" stroke="midnightblue" points="687.88,-19.63 697.41,-15 687.07,-12.67 687.88,-19.63"/>
</g>
<!-- Node14 -->
<g id="node14" class="node">
<title>Node14</title>
<g id="a_node14"><a xlink:title=" ">
<polygon fill="white" stroke="#bfbfbf" points="238.5,-0.5 238.5,-19.5 291.5,-19.5 291.5,-0.5 238.5,-0.5"/>
<text text-anchor="middle" x="265" y="-7.5" font-family="Helvetica,sans-Serif" font-size="10.00">iterator</text>
</a>
</g>
</g>
<!-- Node13&#45;&gt;Node14 -->
<g id="edge18" class="edge">
<title>Node13&#45;&gt;Node14</title>
<path fill="none" stroke="midnightblue" d="M265,-56.08C265,-49.01 265,-38.86 265,-29.99"/>
<polygon fill="midnightblue" stroke="midnightblue" points="268.5,-29.75 265,-19.75 261.5,-29.75 268.5,-29.75"/>
</g>
<!-- Node15&#45;&gt;Node11 -->
<g id="edge22" class="edge">
<title>Node15&#45;&gt;Node11</title>
<path fill="none" stroke="midnightblue" d="M290.02,-235.08C288.43,-227.93 286.14,-217.64 284.15,-208.69"/>
<polygon fill="midnightblue" stroke="midnightblue" points="287.53,-207.75 281.94,-198.75 280.7,-209.27 287.53,-207.75"/>
</g>
<!-- Node16&#45;&gt;Node10 -->
<g id="edge25" class="edge">
<title>Node16&#45;&gt;Node10</title>
<path fill="none" stroke="midnightblue" d="M460.65,-291.36C479.22,-284.37 502.54,-272.73 517,-255 536.02,-231.68 536,-220.1 536,-190 536,-190 536,-190 536,-126.5 536,-56.64 629.57,-28.18 687.41,-17.26"/>
<polygon fill="midnightblue" stroke="midnightblue" points="688.18,-20.68 697.41,-15.48 686.95,-13.78 688.18,-20.68"/>
</g>
<!-- Node16&#45;&gt;Node11 -->
<g id="edge26" class="edge">
<title>Node16&#45;&gt;Node11</title>
<path fill="none" stroke="midnightblue" d="M426.24,-291.42C416.84,-277.94 397.04,-251.64 375,-235 356.64,-221.14 333.34,-210.02 314.4,-202.3"/>
<polygon fill="midnightblue" stroke="midnightblue" points="315.53,-198.99 304.95,-198.58 312.97,-205.5 315.53,-198.99"/>
</g>
<!-- Node16&#45;&gt;Node12 -->
<g id="edge28" class="edge">
<title>Node16&#45;&gt;Node12</title>
<path fill="none" stroke="midnightblue" d="M428.79,-291.46C423.68,-278.5 412.84,-253.41 399,-235 370.38,-196.94 326.6,-162.01 300.88,-143.15"/>
<polygon fill="midnightblue" stroke="midnightblue" points="302.75,-140.18 292.59,-137.16 298.65,-145.85 302.75,-140.18"/>
</g>
<!-- Node16&#45;&gt;Node15 -->
<g id="edge27" class="edge">
<title>Node16&#45;&gt;Node15</title>
<path fill="none" stroke="midnightblue" d="M409.82,-291.44C386.57,-282.48 349.85,-268.31 323.58,-258.18"/>
<polygon fill="midnightblue" stroke="midnightblue" points="324.67,-254.85 314.08,-254.52 322.15,-261.38 324.67,-254.85"/>
</g>
<!-- Node17 -->
<g id="node17" class="node">
<title>Node17</title>
<g id="a_node17"><a xlink:title=" ">
<polygon fill="white" stroke="#bfbfbf" points="460.5,-235.5 460.5,-254.5 507.5,-254.5 507.5,-235.5 460.5,-235.5"/>
<text text-anchor="middle" x="484" y="-242.5" font-family="Helvetica,sans-Serif" font-size="10.00">cmath</text>
</a>
</g>
</g>
<!-- Node16&#45;&gt;Node17 -->
<g id="edge24" class="edge">
<title>Node16&#45;&gt;Node17</title>
<path fill="none" stroke="midnightblue" d="M440.59,-291.08C448.16,-283.22 459.38,-271.57 468.51,-262.08"/>
<polygon fill="midnightblue" stroke="midnightblue" points="471.16,-264.38 475.57,-254.75 466.12,-259.53 471.16,-264.38"/>
</g>
<!-- Node18 -->
<g id="node18" class="node">
<title>Node18</title>
<g id="a_node18"><a xlink:href="to__underlying_8hpp.html" target="_top" xlink:title="Definition of to_underlying function template.">
<polygon fill="white" stroke="black" points="564,-235.5 564,-254.5 708,-254.5 708,-235.5 564,-235.5"/>
<text text-anchor="middle" x="636" y="-242.5" font-family="Helvetica,sans-Serif" font-size="10.00">playrho/to_underlying.hpp</text>
</a>
</g>
</g>
<!-- Node16&#45;&gt;Node18 -->
<g id="edge29" class="edge">
<title>Node16&#45;&gt;Node18</title>
<path fill="none" stroke="midnightblue" d="M464.32,-291.44C499.39,-282.16 555.5,-267.31 593.96,-257.13"/>
<polygon fill="midnightblue" stroke="midnightblue" points="595.06,-260.46 603.83,-254.52 593.26,-253.69 595.06,-260.46"/>
</g>
<!-- Node19 -->
<g id="node19" class="node">
<title>Node19</title>
<g id="a_node19"><a xlink:href="underlying__type_8hpp.html" target="_top" xlink:title="Definition of underlying_type trait class and related code.">
<polygon fill="white" stroke="black" points="564.5,-112.5 564.5,-142.5 703.5,-142.5 703.5,-112.5 564.5,-112.5"/>
<text text-anchor="start" x="572.5" y="-130.5" font-family="Helvetica,sans-Serif" font-size="10.00">playrho/detail/underlying</text>
<text text-anchor="middle" x="634" y="-119.5" font-family="Helvetica,sans-Serif" font-size="10.00">_type.hpp</text>
</a>
</g>
</g>
<!-- Node18&#45;&gt;Node19 -->
<g id="edge30" class="edge">
<title>Node18&#45;&gt;Node19</title>
<path fill="none" stroke="midnightblue" d="M635.85,-235.32C635.55,-217.97 634.87,-178.46 634.42,-152.66"/>
<polygon fill="midnightblue" stroke="midnightblue" points="637.92,-152.48 634.24,-142.55 630.92,-152.6 637.92,-152.48"/>
</g>
<!-- Node19&#45;&gt;Node10 -->
<g id="edge31" class="edge">
<title>Node19&#45;&gt;Node10</title>
<path fill="none" stroke="midnightblue" d="M646.02,-112.34C664.24,-90.86 698.76,-50.17 718.06,-27.43"/>
<polygon fill="midnightblue" stroke="midnightblue" points="720.84,-29.56 724.64,-19.67 715.51,-25.03 720.84,-29.56"/>
</g>
<!-- Node21 -->
<g id="node21" class="node">
<title>Node21</title>
<g id="a_node21"><a xlink:href="Wider_8hpp.html" target="_top" xlink:title="Definition of the Wider class template and specializations.">
<polygon fill="white" stroke="black" points="812,-235.5 812,-254.5 948,-254.5 948,-235.5 812,-235.5"/>
<text text-anchor="middle" x="880" y="-242.5" font-family="Helvetica,sans-Serif" font-size="10.00">playrho/detail/Wider.hpp</text>
</a>
</g>
</g>
<!-- Node20&#45;&gt;Node21 -->
<g id="edge33" class="edge">
<title>Node20&#45;&gt;Node21</title>
<path fill="none" stroke="midnightblue" d="M843.27,-291.08C849.54,-283.38 858.79,-272.03 866.43,-262.65"/>
<polygon fill="midnightblue" stroke="midnightblue" points="869.27,-264.71 872.87,-254.75 863.84,-260.29 869.27,-264.71"/>
</g>
<!-- Node21&#45;&gt;Node8 -->
<g id="edge34" class="edge">
<title>Node21&#45;&gt;Node8</title>
<path fill="none" stroke="midnightblue" d="M865.38,-235.32C851.05,-226.82 828.99,-213.73 812.25,-203.8"/>
<polygon fill="midnightblue" stroke="midnightblue" points="813.97,-200.75 803.58,-198.65 810.4,-206.77 813.97,-200.75"/>
</g>
<!-- Node21&#45;&gt;Node10 -->
<g id="edge35" class="edge">
<title>Node21&#45;&gt;Node10</title>
<path fill="none" stroke="midnightblue" d="M905.07,-235.42C931.58,-224.8 967.92,-204.9 955,-179 914.66,-98.11 814.76,-45.92 763.48,-23.54"/>
<polygon fill="midnightblue" stroke="midnightblue" points="764.77,-20.29 754.2,-19.59 762.03,-26.73 764.77,-20.29"/>
</g>
<!-- Node22 -->
<g id="node22" class="node">
<title>Node22</title>
<g id="a_node22"><a xlink:href="Defines_8hpp.html" target="_top" xlink:title="Miscellaneous C&#45;preprocessor definitions.">
<polygon fill="white" stroke="black" points="832,-179.5 832,-198.5 946,-198.5 946,-179.5 832,-179.5"/>
<text text-anchor="middle" x="889" y="-186.5" font-family="Helvetica,sans-Serif" font-size="10.00">playrho/Defines.hpp</text>
</a>
</g>
</g>
<!-- Node21&#45;&gt;Node22 -->
<g id="edge36" class="edge">
<title>Node21&#45;&gt;Node22</title>
<path fill="none" stroke="midnightblue" d="M881.49,-235.08C882.68,-227.93 884.39,-217.64 885.88,-208.69"/>
<polygon fill="midnightblue" stroke="midnightblue" points="889.35,-209.19 887.54,-198.75 882.45,-208.04 889.35,-209.19"/>
</g>
<!-- Node23&#45;&gt;Node7 -->
<g id="edge43" class="edge">
<title>Node23&#45;&gt;Node7</title>
<path fill="none" stroke="midnightblue" d="M392,-414.48C392,-406.08 392,-392.98 392,-382.16"/>
<polygon fill="midnightblue" stroke="midnightblue" points="395.5,-382.01 392,-372.01 388.5,-382.01 395.5,-382.01"/>
</g>
<!-- Node24 -->
<g id="node24" class="node">
<title>Node24</title>
<g id="a_node24"><a xlink:href="IndexingNamedType_8hpp.html" target="_top" xlink:title="Definition of IndexingNamedType class template and related code.">
<polygon fill="white" stroke="black" points="930,-347.5 930,-377.5 1094,-377.5 1094,-347.5 930,-347.5"/>
<text text-anchor="start" x="938" y="-365.5" font-family="Helvetica,sans-Serif" font-size="10.00">playrho/detail/IndexingNamed</text>
<text text-anchor="middle" x="1012" y="-354.5" font-family="Helvetica,sans-Serif" font-size="10.00">Type.hpp</text>
</a>
</g>
</g>
<!-- Node23&#45;&gt;Node24 -->
<g id="edge38" class="edge">
<title>Node23&#45;&gt;Node24</title>
<path fill="none" stroke="midnightblue" d="M454.57,-416.99C564.29,-406.47 791.83,-384.63 919.67,-372.36"/>
<polygon fill="midnightblue" stroke="midnightblue" points="920.22,-375.82 929.84,-371.39 919.55,-368.86 920.22,-375.82"/>
</g>
<!-- Node24&#45;&gt;Node2 -->
<g id="edge42" class="edge">
<title>Node24&#45;&gt;Node2</title>
<path fill="none" stroke="midnightblue" d="M1011.99,-347.47C1011.16,-313.35 1004.11,-225.38 955,-179 756.48,8.52 622.9,-97.58 353,-56 257.71,-41.32 145.07,-24.2 90.66,-15.95"/>
<polygon fill="midnightblue" stroke="midnightblue" points="90.99,-12.46 80.58,-14.42 89.94,-19.38 90.99,-12.46"/>
</g>
<!-- Node24&#45;&gt;Node6 -->
<g id="edge40" class="edge">
<title>Node24&#45;&gt;Node6</title>
<path fill="none" stroke="midnightblue" d="M997.54,-347.4C988.41,-338.49 976.58,-326.95 967.14,-317.74"/>
<polygon fill="midnightblue" stroke="midnightblue" points="969.48,-315.13 959.88,-310.66 964.59,-320.15 969.48,-315.13"/>
</g>
<!-- Node24&#45;&gt;Node10 -->
<g id="edge41" class="edge">
<title>Node24&#45;&gt;Node10</title>
<path fill="none" stroke="midnightblue" d="M1019.87,-347.41C1031,-326.13 1050,-284.21 1050,-246 1050,-246 1050,-246 1050,-126.5 1050,-69.01 864.07,-31.91 776.55,-17.63"/>
<polygon fill="midnightblue" stroke="midnightblue" points="777.06,-14.17 766.64,-16.04 775.96,-21.08 777.06,-14.17"/>
</g>
<!-- Node25 -->
<g id="node25" class="node">
<title>Node25</title>
<g id="a_node25"><a xlink:title=" ">
<polygon fill="white" stroke="#bfbfbf" points="1078.5,-291.5 1078.5,-310.5 1131.5,-310.5 1131.5,-291.5 1078.5,-291.5"/>
<text text-anchor="middle" x="1105" y="-298.5" font-family="Helvetica,sans-Serif" font-size="10.00">cstddef</text>
</a>
</g>
</g>
<!-- Node24&#45;&gt;Node25 -->
<g id="edge39" class="edge">
<title>Node24&#45;&gt;Node25</title>
<path fill="none" stroke="midnightblue" d="M1034.04,-347.4C1048.81,-337.95 1068.18,-325.56 1082.95,-316.11"/>
<polygon fill="midnightblue" stroke="midnightblue" points="1084.93,-319 1091.47,-310.66 1081.16,-313.1 1084.93,-319"/>
</g>
</g>
</svg>
        <g id="navigator" transform="translate(0 0)" fill="#404254">
                <rect fill="#f2f5e9" fill-opacity="0.5" stroke="#606060" stroke-width=".5" x="0" y="0" width="60" height="60"/>
                <use id="zoomplus" xlink:href="#zoomPlus" x="17" y="9" onmousedown="handleZoom(evt,'in')"/>
                <use id="zoomminus" xlink:href="#zoomMin" x="42" y="9" onmousedown="handleZoom(evt,'out')"/>
                <use id="reset" xlink:href="#resetDef" x="30" y="36" onmousedown="handleReset()"/>
                <g id="arrowUp" xlink:href="#dirArrow" transform="translate(30 24)" onmousedown="handlePan(0,-1)">
                  <use xlink:href="#rim" fill="#404040">
                        <set attributeName="fill" to="#808080" begin="arrowUp.mouseover" end="arrowUp.mouseout"/>
                  </use>
                  <path fill="none" stroke="white" stroke-width="1.5" d="M0,-3.0v7 M-2.5,-0.5L0,-3.0L2.5,-0.5"/>
                </g>
                <g id="arrowRight" xlink:href="#dirArrow" transform="rotate(90) translate(36 -43)" onmousedown="handlePan(1,0)">
                  <use xlink:href="#rim" fill="#404040">
                        <set attributeName="fill" to="#808080" begin="arrowRight.mouseover" end="arrowRight.mouseout"/>
                  </use>
                  <path fill="none" stroke="white" stroke-width="1.5" d="M0,-3.0v7 M-2.5,-0.5L0,-3.0L2.5,-0.5"/>
                </g>
                <g id="arrowDown" xlink:href="#dirArrow" transform="rotate(180) translate(-30 -48)" onmousedown="handlePan(0,1)">
                  <use xlink:href="#rim" fill="#404040">
                        <set attributeName="fill" to="#808080" begin="arrowDown.mouseover" end="arrowDown.mouseout"/>
                  </use>
                  <path fill="none" stroke="white" stroke-width="1.5" d="M0,-3.0v7 M-2.5,-0.5L0,-3.0L2.5,-0.5"/>
                </g>
                <g id="arrowLeft" xlink:href="#dirArrow" transform="rotate(270) translate(-36 17)" onmousedown="handlePan(-1,0)">
                  <use xlink:href="#rim" fill="#404040">
                        <set attributeName="fill" to="#808080" begin="arrowLeft.mouseover" end="arrowLeft.mouseout"/>
                  </use>
                  <path fill="none" stroke="white" stroke-width="1.5" d="M0,-3.0v7 M-2.5,-0.5L0,-3.0L2.5,-0.5"/>
                </g>
        </g>
        <svg viewBox="0 0 15 15" width="100%" height="30px" preserveAspectRatio="xMaxYMin meet">
         <g id="arrow_out" transform="scale(0.3 0.3)">
          <a xlink:href="KeyedContactID_8hpp__incl_org.svg" target="_base">
           <rect id="button" ry="5" rx="5" y="6" x="6" height="38" width="38"
                fill="#f2f5e9" fill-opacity="0.5" stroke="#606060" stroke-width="1.0"/>
           <path id="arrow"
             d="M 11.500037,31.436501 C 11.940474,20.09759 22.043105,11.32322 32.158766,21.979434 L 37.068811,17.246167 C 37.068811,17.246167 37.088388,32 37.088388,32 L 22.160133,31.978069 C 22.160133,31.978069 26.997745,27.140456 26.997745,27.140456 C 18.528582,18.264221 13.291696,25.230495 11.500037,31.436501 z"
             style="fill:#404040;"/>
          </a>
         </g>
        </svg>
</svg>
