<?xml version="1.0" encoding="UTF-8" standalone="no"?>
<!DOCTYPE svg PUBLIC "-//W3C//DTD SVG 1.1//EN"
 "http://www.w3.org/Graphics/SVG/1.1/DTD/svg11.dtd">
<!-- Generated by graphviz version 2.43.0 (0)
 -->
<!-- Title: Library/include/playrho/LengthError.hpp Pages: 1 -->
<svg width="850pt" height="508pt"
 viewBox="0.00 0.00 850.00 508.00" xmlns="http://www.w3.org/2000/svg" xmlns:xlink="http://www.w3.org/1999/xlink">
<g id="graph0" class="graph" transform="scale(1 1) rotate(0) translate(4 504)">
<title>Library/include/playrho/LengthError.hpp</title>
<polygon fill="white" stroke="transparent" points="-4,4 -4,-504 846,-504 846,4 -4,4"/>
<!-- Node1 -->
<g id="node1" class="node">
<title>Node1</title>
<g id="a_node1"><a xlink:title="Definition of the LengthError class.">
<polygon fill="#bfbfbf" stroke="black" points="568,-469.5 568,-499.5 696,-499.5 696,-469.5 568,-469.5"/>
<text text-anchor="start" x="576" y="-487.5" font-family="Helvetica,sans-Serif" font-size="10.00">Library/include/playrho</text>
<text text-anchor="middle" x="632" y="-476.5" font-family="Helvetica,sans-Serif" font-size="10.00">/LengthError.hpp</text>
</a>
</g>
</g>
<!-- Node2 -->
<g id="node2" class="node">
<title>Node2</title>
<g id="a_node2"><a xlink:href="ArrayList_8hpp.html" target="_top" xlink:title="Definition of the ArrayList class and closely related functions.">
<polygon fill="white" stroke="black" points="568,-402.5 568,-432.5 696,-432.5 696,-402.5 568,-402.5"/>
<text text-anchor="start" x="576" y="-420.5" font-family="Helvetica,sans-Serif" font-size="10.00">Library/include/playrho</text>
<text text-anchor="middle" x="632" y="-409.5" font-family="Helvetica,sans-Serif" font-size="10.00">/ArrayList.hpp</text>
</a>
</g>
</g>
<!-- Node1&#45;&gt;Node2 -->
<g id="edge1" class="edge">
<title>Node1&#45;&gt;Node2</title>
<path fill="none" stroke="midnightblue" d="M632,-459.11C632,-450.15 632,-440.32 632,-432.58"/>
<polygon fill="midnightblue" stroke="midnightblue" points="628.5,-459.4 632,-469.4 635.5,-459.4 628.5,-459.4"/>
</g>
<!-- Node3 -->
<g id="node3" class="node">
<title>Node3</title>
<g id="a_node3"><a xlink:href="BodyConf_8hpp.html" target="_top" xlink:title="Declarations of BodyConf class &amp; free functions associated with it.">
<polygon fill="white" stroke="black" points="422,-335.5 422,-365.5 550,-365.5 550,-335.5 422,-335.5"/>
<text text-anchor="start" x="430" y="-353.5" font-family="Helvetica,sans-Serif" font-size="10.00">Library/include/playrho</text>
<text text-anchor="middle" x="486" y="-342.5" font-family="Helvetica,sans-Serif" font-size="10.00">/d2/BodyConf.hpp</text>
</a>
</g>
</g>
<!-- Node2&#45;&gt;Node3 -->
<g id="edge2" class="edge">
<title>Node2&#45;&gt;Node3</title>
<path fill="none" stroke="midnightblue" d="M591.05,-398.27C567.8,-387.92 539.13,-375.15 517.62,-365.58"/>
<polygon fill="midnightblue" stroke="midnightblue" points="589.76,-401.53 600.32,-402.4 592.61,-395.13 589.76,-401.53"/>
</g>
<!-- Node12 -->
<g id="node12" class="node">
<title>Node12</title>
<g id="a_node12"><a xlink:href="ClipList_8hpp.html" target="_top" xlink:title="Structures and functions used for computing clip lists.">
<polygon fill="white" stroke="black" points="568,-335.5 568,-365.5 696,-365.5 696,-335.5 568,-335.5"/>
<text text-anchor="start" x="576" y="-353.5" font-family="Helvetica,sans-Serif" font-size="10.00">Library/include/playrho</text>
<text text-anchor="middle" x="632" y="-342.5" font-family="Helvetica,sans-Serif" font-size="10.00">/d2/ClipList.hpp</text>
</a>
</g>
</g>
<!-- Node2&#45;&gt;Node12 -->
<g id="edge15" class="edge">
<title>Node2&#45;&gt;Node12</title>
<path fill="none" stroke="midnightblue" d="M632,-392.11C632,-383.15 632,-373.32 632,-365.58"/>
<polygon fill="midnightblue" stroke="midnightblue" points="628.5,-392.4 632,-402.4 635.5,-392.4 628.5,-392.4"/>
</g>
<!-- Node13 -->
<g id="node13" class="node">
<title>Node13</title>
<g id="a_node13"><a xlink:href="Simplex_8hpp.html" target="_top" xlink:title="Definition of the Simplex class and closely related code.">
<polygon fill="white" stroke="black" points="714,-335.5 714,-365.5 842,-365.5 842,-335.5 714,-335.5"/>
<text text-anchor="start" x="722" y="-353.5" font-family="Helvetica,sans-Serif" font-size="10.00">Library/include/playrho</text>
<text text-anchor="middle" x="778" y="-342.5" font-family="Helvetica,sans-Serif" font-size="10.00">/d2/Simplex.hpp</text>
</a>
</g>
</g>
<!-- Node2&#45;&gt;Node13 -->
<g id="edge16" class="edge">
<title>Node2&#45;&gt;Node13</title>
<path fill="none" stroke="midnightblue" d="M672.95,-398.27C696.2,-387.92 724.87,-375.15 746.38,-365.58"/>
<polygon fill="midnightblue" stroke="midnightblue" points="671.39,-395.13 663.68,-402.4 674.24,-401.53 671.39,-395.13"/>
</g>
<!-- Node4 -->
<g id="node4" class="node">
<title>Node4</title>
<g id="a_node4"><a xlink:href="Body_8hpp.html" target="_top" xlink:title="Declarations of the Body class, and functions associated with it.">
<polygon fill="white" stroke="black" points="334,-268.5 334,-298.5 462,-298.5 462,-268.5 334,-268.5"/>
<text text-anchor="start" x="342" y="-286.5" font-family="Helvetica,sans-Serif" font-size="10.00">Library/include/playrho</text>
<text text-anchor="middle" x="398" y="-275.5" font-family="Helvetica,sans-Serif" font-size="10.00">/d2/Body.hpp</text>
</a>
</g>
</g>
<!-- Node3&#45;&gt;Node4 -->
<g id="edge3" class="edge">
<title>Node3&#45;&gt;Node4</title>
<path fill="none" stroke="midnightblue" d="M458.86,-329.45C445.32,-319.45 429.27,-307.6 417.06,-298.58"/>
<polygon fill="midnightblue" stroke="midnightblue" points="456.78,-332.27 466.91,-335.4 460.94,-326.64 456.78,-332.27"/>
</g>
<!-- Node10 -->
<g id="node10" class="node">
<title>Node10</title>
<g id="a_node10"><a xlink:href="World_8hpp.html" target="_top" xlink:title="Definitions of the World class and closely related code.">
<polygon fill="white" stroke="black" points="437,-67.5 437,-97.5 565,-97.5 565,-67.5 437,-67.5"/>
<text text-anchor="start" x="445" y="-85.5" font-family="Helvetica,sans-Serif" font-size="10.00">Library/include/playrho</text>
<text text-anchor="middle" x="501" y="-74.5" font-family="Helvetica,sans-Serif" font-size="10.00">/d2/World.hpp</text>
</a>
</g>
</g>
<!-- Node3&#45;&gt;Node10 -->
<g id="edge14" class="edge">
<title>Node3&#45;&gt;Node10</title>
<path fill="none" stroke="midnightblue" d="M494.99,-325.74C508.86,-285.97 532.63,-203.44 520,-134 517.69,-121.28 512.35,-107.6 507.91,-97.69"/>
<polygon fill="midnightblue" stroke="midnightblue" points="491.63,-324.75 491.54,-335.34 498.21,-327.11 491.63,-324.75"/>
</g>
<!-- Node5 -->
<g id="node5" class="node">
<title>Node5</title>
<g id="a_node5"><a xlink:href="AabbTreeWorld_8hpp.html" target="_top" xlink:title="Declarations of the AabbTreeWorld class.">
<polygon fill="white" stroke="black" points="0,-134.5 0,-164.5 128,-164.5 128,-134.5 0,-134.5"/>
<text text-anchor="start" x="8" y="-152.5" font-family="Helvetica,sans-Serif" font-size="10.00">Library/include/playrho</text>
<text text-anchor="middle" x="64" y="-141.5" font-family="Helvetica,sans-Serif" font-size="10.00">/d2/AabbTreeWorld.hpp</text>
</a>
</g>
</g>
<!-- Node4&#45;&gt;Node5 -->
<g id="edge4" class="edge">
<title>Node4&#45;&gt;Node5</title>
<path fill="none" stroke="midnightblue" d="M323.95,-279.32C271.08,-274.38 199.74,-262.12 144,-232 113.3,-215.41 87,-183.11 73.56,-164.54"/>
<polygon fill="midnightblue" stroke="midnightblue" points="323.67,-282.81 333.94,-280.19 324.28,-275.84 323.67,-282.81"/>
</g>
<!-- Node6 -->
<g id="node6" class="node">
<title>Node6</title>
<g id="a_node6"><a xlink:href="BodyConstraint_8hpp.html" target="_top" xlink:title="Definition of the BodyConstraint class and closely related code.">
<polygon fill="white" stroke="black" points="153.5,-201.5 153.5,-231.5 284.5,-231.5 284.5,-201.5 153.5,-201.5"/>
<text text-anchor="start" x="161.5" y="-219.5" font-family="Helvetica,sans-Serif" font-size="10.00">Library/include/playrho</text>
<text text-anchor="middle" x="219" y="-208.5" font-family="Helvetica,sans-Serif" font-size="10.00">/d2/BodyConstraint.hpp</text>
</a>
</g>
</g>
<!-- Node4&#45;&gt;Node6 -->
<g id="edge5" class="edge">
<title>Node4&#45;&gt;Node6</title>
<path fill="none" stroke="midnightblue" d="M349.68,-264.96C320.85,-254.48 284.72,-241.37 257.76,-231.58"/>
<polygon fill="midnightblue" stroke="midnightblue" points="348.57,-268.27 359.16,-268.4 350.95,-261.69 348.57,-268.27"/>
</g>
<!-- Node8 -->
<g id="node8" class="node">
<title>Node8</title>
<g id="a_node8"><a xlink:href="WorldConcept_8hpp.html" target="_top" xlink:title="Definition of the internal WorldConcept interface class.">
<polygon fill="white" stroke="black" points="321,-201.5 321,-231.5 475,-231.5 475,-201.5 321,-201.5"/>
<text text-anchor="start" x="329" y="-219.5" font-family="Helvetica,sans-Serif" font-size="10.00">Library/include/playrho</text>
<text text-anchor="middle" x="398" y="-208.5" font-family="Helvetica,sans-Serif" font-size="10.00">/d2/detail/WorldConcept.hpp</text>
</a>
</g>
</g>
<!-- Node4&#45;&gt;Node8 -->
<g id="edge8" class="edge">
<title>Node4&#45;&gt;Node8</title>
<path fill="none" stroke="midnightblue" d="M398,-258.11C398,-249.15 398,-239.32 398,-231.58"/>
<polygon fill="midnightblue" stroke="midnightblue" points="394.5,-258.4 398,-268.4 401.5,-258.4 394.5,-258.4"/>
</g>
<!-- Node4&#45;&gt;Node10 -->
<g id="edge13" class="edge">
<title>Node4&#45;&gt;Node10</title>
<path fill="none" stroke="midnightblue" d="M447.28,-263.69C461.31,-255.97 475.17,-245.57 484,-232 511.6,-189.59 507.02,-125.63 503.27,-97.55"/>
<polygon fill="midnightblue" stroke="midnightblue" points="445.4,-260.73 438.09,-268.39 448.59,-266.96 445.4,-260.73"/>
</g>
<!-- Node6&#45;&gt;Node5 -->
<g id="edge6" class="edge">
<title>Node6&#45;&gt;Node5</title>
<path fill="none" stroke="midnightblue" d="M175.85,-197.41C151.11,-187.03 120.5,-174.2 97.57,-164.58"/>
<polygon fill="midnightblue" stroke="midnightblue" points="174.79,-200.76 185.37,-201.4 177.5,-194.3 174.79,-200.76"/>
</g>
<!-- Node7 -->
<g id="node7" class="node">
<title>Node7</title>
<g id="a_node7"><a xlink:href="VelocityConstraint_8hpp.html" target="_top" xlink:title="Definition of the VelocityConstraint class and closely related code.">
<polygon fill="white" stroke="black" points="146.5,-134.5 146.5,-164.5 291.5,-164.5 291.5,-134.5 146.5,-134.5"/>
<text text-anchor="start" x="154.5" y="-152.5" font-family="Helvetica,sans-Serif" font-size="10.00">Library/include/playrho</text>
<text text-anchor="middle" x="219" y="-141.5" font-family="Helvetica,sans-Serif" font-size="10.00">/d2/VelocityConstraint.hpp</text>
</a>
</g>
</g>
<!-- Node6&#45;&gt;Node7 -->
<g id="edge7" class="edge">
<title>Node6&#45;&gt;Node7</title>
<path fill="none" stroke="midnightblue" d="M219,-191.11C219,-182.15 219,-172.32 219,-164.58"/>
<polygon fill="midnightblue" stroke="midnightblue" points="215.5,-191.4 219,-201.4 222.5,-191.4 215.5,-191.4"/>
</g>
<!-- Node9 -->
<g id="node9" class="node">
<title>Node9</title>
<g id="a_node9"><a xlink:href="WorldModel_8hpp.html" target="_top" xlink:title="Definitions of the WorldModel class and closely related code.">
<polygon fill="white" stroke="black" points="310,-134.5 310,-164.5 454,-164.5 454,-134.5 310,-134.5"/>
<text text-anchor="start" x="318" y="-152.5" font-family="Helvetica,sans-Serif" font-size="10.00">Library/include/playrho</text>
<text text-anchor="middle" x="382" y="-141.5" font-family="Helvetica,sans-Serif" font-size="10.00">/d2/detail/WorldModel.hpp</text>
</a>
</g>
</g>
<!-- Node8&#45;&gt;Node9 -->
<g id="edge9" class="edge">
<title>Node8&#45;&gt;Node9</title>
<path fill="none" stroke="midnightblue" d="M392.07,-191.4C389.84,-182.37 387.39,-172.41 385.46,-164.58"/>
<polygon fill="midnightblue" stroke="midnightblue" points="388.74,-192.52 394.53,-201.4 395.54,-190.85 388.74,-192.52"/>
</g>
<!-- Node8&#45;&gt;Node10 -->
<g id="edge12" class="edge">
<title>Node8&#45;&gt;Node10</title>
<path fill="none" stroke="midnightblue" d="M429.53,-195.67C441.12,-187.25 453.68,-176.69 463,-165 479.65,-144.13 491.01,-114.78 496.72,-97.59"/>
<polygon fill="midnightblue" stroke="midnightblue" points="427.52,-192.8 421.32,-201.4 431.52,-198.54 427.52,-192.8"/>
</g>
<!-- Node9&#45;&gt;Node10 -->
<g id="edge10" class="edge">
<title>Node9&#45;&gt;Node10</title>
<path fill="none" stroke="midnightblue" d="M416.65,-129.57C435.37,-119.35 458.09,-106.94 475.23,-97.58"/>
<polygon fill="midnightblue" stroke="midnightblue" points="414.92,-126.53 407.82,-134.4 418.28,-132.67 414.92,-126.53"/>
</g>
<!-- Node11 -->
<g id="node11" class="node">
<title>Node11</title>
<g id="a_node11"><a xlink:href="BasicAPI_8hpp.html" target="_top" xlink:title="Basic API include file to pull in at once most headers used.">
<polygon fill="white" stroke="black" points="437,-0.5 437,-30.5 565,-30.5 565,-0.5 437,-0.5"/>
<text text-anchor="start" x="445" y="-18.5" font-family="Helvetica,sans-Serif" font-size="10.00">Library/include/playrho</text>
<text text-anchor="middle" x="501" y="-7.5" font-family="Helvetica,sans-Serif" font-size="10.00">/d2/BasicAPI.hpp</text>
</a>
</g>
</g>
<!-- Node10&#45;&gt;Node11 -->
<g id="edge11" class="edge">
<title>Node10&#45;&gt;Node11</title>
<path fill="none" stroke="midnightblue" d="M501,-57.11C501,-48.15 501,-38.32 501,-30.58"/>
<polygon fill="midnightblue" stroke="midnightblue" points="497.5,-57.4 501,-67.4 504.5,-57.4 497.5,-57.4"/>
</g>
<!-- Node14 -->
<g id="node14" class="node">
<title>Node14</title>
<g id="a_node14"><a xlink:href="DistanceConf_8hpp.html" target="_top" xlink:title="Definition of the DistanceConf class and closely related code.">
<polygon fill="white" stroke="black" points="714,-268.5 714,-298.5 842,-298.5 842,-268.5 714,-268.5"/>
<text text-anchor="start" x="722" y="-286.5" font-family="Helvetica,sans-Serif" font-size="10.00">Library/include/playrho</text>
<text text-anchor="middle" x="778" y="-275.5" font-family="Helvetica,sans-Serif" font-size="10.00">/d2/DistanceConf.hpp</text>
</a>
</g>
</g>
<!-- Node13&#45;&gt;Node14 -->
<g id="edge17" class="edge">
<title>Node13&#45;&gt;Node14</title>
<path fill="none" stroke="midnightblue" d="M778,-325.11C778,-316.15 778,-306.32 778,-298.58"/>
<polygon fill="midnightblue" stroke="midnightblue" points="774.5,-325.4 778,-335.4 781.5,-325.4 774.5,-325.4"/>
</g>
</g>
</svg>
