<?xml version="1.0" encoding="UTF-8" standalone="no"?>
<!DOCTYPE svg PUBLIC "-//W3C//DTD SVG 1.1//EN"
 "http://www.w3.org/Graphics/SVG/1.1/DTD/svg11.dtd">
<!-- Generated by graphviz version 2.43.0 (0)
 -->
<!-- Title: Library/include/playrho/LimitState.hpp Pages: 1 -->
<svg width="635pt" height="374pt"
 viewBox="0.00 0.00 635.47 374.00" xmlns="http://www.w3.org/2000/svg" xmlns:xlink="http://www.w3.org/1999/xlink">
<g id="graph0" class="graph" transform="scale(1 1) rotate(0) translate(4 370)">
<title>Library/include/playrho/LimitState.hpp</title>
<polygon fill="white" stroke="transparent" points="-4,4 -4,-370 631.47,-370 631.47,4 -4,4"/>
<!-- Node1 -->
<g id="node1" class="node">
<title>Node1</title>
<g id="a_node1"><a xlink:title="Definition of the LimitState enumeration and closely related code.">
<polygon fill="#bfbfbf" stroke="black" points="251.47,-335.5 251.47,-365.5 379.47,-365.5 379.47,-335.5 251.47,-335.5"/>
<text text-anchor="start" x="259.47" y="-353.5" font-family="Helvetica,sans-Serif" font-size="10.00">Library/include/playrho</text>
<text text-anchor="middle" x="315.47" y="-342.5" font-family="Helvetica,sans-Serif" font-size="10.00">/LimitState.hpp</text>
</a>
</g>
</g>
<!-- Node2 -->
<g id="node2" class="node">
<title>Node2</title>
<g id="a_node2"><a xlink:href="WorldConcept_8hpp.html" target="_top" xlink:title="Definition of the internal WorldConcept interface class.">
<polygon fill="white" stroke="black" points="41.47,-201.5 41.47,-231.5 195.47,-231.5 195.47,-201.5 41.47,-201.5"/>
<text text-anchor="start" x="49.47" y="-219.5" font-family="Helvetica,sans-Serif" font-size="10.00">Library/include/playrho</text>
<text text-anchor="middle" x="118.47" y="-208.5" font-family="Helvetica,sans-Serif" font-size="10.00">/d2/detail/WorldConcept.hpp</text>
</a>
</g>
</g>
<!-- Node1&#45;&gt;Node2 -->
<g id="edge1" class="edge">
<title>Node1&#45;&gt;Node2</title>
<path fill="none" stroke="midnightblue" d="M241.24,-341.24C209.96,-334.38 175.16,-321.86 150.47,-299 131.06,-281.03 123.25,-249.84 120.24,-231.7"/>
<polygon fill="midnightblue" stroke="midnightblue" points="240.75,-344.71 251.25,-343.27 242.15,-337.85 240.75,-344.71"/>
</g>
<!-- Node4 -->
<g id="node4" class="node">
<title>Node4</title>
<g id="a_node4"><a xlink:href="World_8hpp.html" target="_top" xlink:title="Definitions of the World class and closely related code.">
<polygon fill="white" stroke="black" points="113.47,-67.5 113.47,-97.5 241.47,-97.5 241.47,-67.5 113.47,-67.5"/>
<text text-anchor="start" x="121.47" y="-85.5" font-family="Helvetica,sans-Serif" font-size="10.00">Library/include/playrho</text>
<text text-anchor="middle" x="177.47" y="-74.5" font-family="Helvetica,sans-Serif" font-size="10.00">/d2/World.hpp</text>
</a>
</g>
</g>
<!-- Node1&#45;&gt;Node4 -->
<g id="edge17" class="edge">
<title>Node1&#45;&gt;Node4</title>
<path fill="none" stroke="midnightblue" d="M241.46,-335.94C205.95,-327.87 163.41,-315.85 127.47,-299 54.27,-264.69 20.36,-244.26 4.47,-165 1.76,-151.49 -3.8,-145.02 4.47,-134 17.79,-116.23 69.56,-102.63 113.03,-94.05"/>
<polygon fill="midnightblue" stroke="midnightblue" points="240.76,-339.37 251.28,-338.11 242.27,-332.54 240.76,-339.37"/>
</g>
<!-- Node6 -->
<g id="node6" class="node">
<title>Node6</title>
<g id="a_node6"><a xlink:href="Joint_8hpp.html" target="_top" xlink:title="Definition of the Joint class and closely related code.">
<polygon fill="white" stroke="black" points="159.47,-268.5 159.47,-298.5 287.47,-298.5 287.47,-268.5 159.47,-268.5"/>
<text text-anchor="start" x="167.47" y="-286.5" font-family="Helvetica,sans-Serif" font-size="10.00">Library/include/playrho</text>
<text text-anchor="middle" x="223.47" y="-275.5" font-family="Helvetica,sans-Serif" font-size="10.00">/d2/Joint.hpp</text>
</a>
</g>
</g>
<!-- Node1&#45;&gt;Node6 -->
<g id="edge6" class="edge">
<title>Node1&#45;&gt;Node6</title>
<path fill="none" stroke="midnightblue" d="M287.09,-329.45C272.94,-319.45 256.16,-307.6 243.39,-298.58"/>
<polygon fill="midnightblue" stroke="midnightblue" points="285.32,-332.48 295.5,-335.4 289.36,-326.77 285.32,-332.48"/>
</g>
<!-- Node7 -->
<g id="node7" class="node">
<title>Node7</title>
<g id="a_node7"><a xlink:href="WorldJoint_8hpp.html" target="_top" xlink:title="Declarations of free functions of World for joints identified by JointID.">
<polygon fill="white" stroke="black" points="251.47,-201.5 251.47,-231.5 379.47,-231.5 379.47,-201.5 251.47,-201.5"/>
<text text-anchor="start" x="259.47" y="-219.5" font-family="Helvetica,sans-Serif" font-size="10.00">Library/include/playrho</text>
<text text-anchor="middle" x="315.47" y="-208.5" font-family="Helvetica,sans-Serif" font-size="10.00">/d2/WorldJoint.hpp</text>
</a>
</g>
</g>
<!-- Node1&#45;&gt;Node7 -->
<g id="edge18" class="edge">
<title>Node1&#45;&gt;Node7</title>
<path fill="none" stroke="midnightblue" d="M315.47,-325.02C315.47,-297.51 315.47,-253.79 315.47,-231.52"/>
<polygon fill="midnightblue" stroke="midnightblue" points="311.97,-325.37 315.47,-335.37 318.97,-325.37 311.97,-325.37"/>
</g>
<!-- Node8 -->
<g id="node8" class="node">
<title>Node8</title>
<g id="a_node8"><a xlink:href="PrismaticJointConf_8hpp.html" target="_top" xlink:title="Definition of the PrismaticJointConf class and closely related code.">
<polygon fill="white" stroke="black" points="297.97,-134.5 297.97,-164.5 442.97,-164.5 442.97,-134.5 297.97,-134.5"/>
<text text-anchor="start" x="305.97" y="-152.5" font-family="Helvetica,sans-Serif" font-size="10.00">Library/include/playrho</text>
<text text-anchor="middle" x="370.47" y="-141.5" font-family="Helvetica,sans-Serif" font-size="10.00">/d2/PrismaticJointConf.hpp</text>
</a>
</g>
</g>
<!-- Node1&#45;&gt;Node8 -->
<g id="edge11" class="edge">
<title>Node1&#45;&gt;Node8</title>
<path fill="none" stroke="midnightblue" d="M334.55,-327.37C352.46,-305.03 378.01,-268.66 388.47,-232 395.11,-208.73 385.42,-181.14 377.89,-164.76"/>
<polygon fill="midnightblue" stroke="midnightblue" points="331.74,-325.27 328.11,-335.22 337.15,-329.71 331.74,-325.27"/>
</g>
<!-- Node9 -->
<g id="node9" class="node">
<title>Node9</title>
<g id="a_node9"><a xlink:href="RevoluteJointConf_8hpp.html" target="_top" xlink:title="Definition of the RevoluteJointConf class and closely related code.">
<polygon fill="white" stroke="black" points="391.97,-67.5 391.97,-97.5 534.97,-97.5 534.97,-67.5 391.97,-67.5"/>
<text text-anchor="start" x="399.97" y="-85.5" font-family="Helvetica,sans-Serif" font-size="10.00">Library/include/playrho</text>
<text text-anchor="middle" x="463.47" y="-74.5" font-family="Helvetica,sans-Serif" font-size="10.00">/d2/RevoluteJointConf.hpp</text>
</a>
</g>
</g>
<!-- Node1&#45;&gt;Node9 -->
<g id="edge13" class="edge">
<title>Node1&#45;&gt;Node9</title>
<path fill="none" stroke="midnightblue" d="M345.44,-329.34C356.68,-320.85 369,-310.31 378.47,-299 422,-247 429.97,-229.32 451.47,-165 459.08,-142.21 461.87,-114.23 462.89,-97.69"/>
<polygon fill="midnightblue" stroke="midnightblue" points="343.14,-326.69 337.13,-335.42 347.27,-332.34 343.14,-326.69"/>
</g>
<!-- Node10 -->
<g id="node10" class="node">
<title>Node10</title>
<g id="a_node10"><a xlink:href="RopeJointConf_8hpp.html" target="_top" xlink:title="Definition of the RopeJointConf class and closely related code.">
<polygon fill="white" stroke="black" points="499.47,-268.5 499.47,-298.5 627.47,-298.5 627.47,-268.5 499.47,-268.5"/>
<text text-anchor="start" x="507.47" y="-286.5" font-family="Helvetica,sans-Serif" font-size="10.00">Library/include/playrho</text>
<text text-anchor="middle" x="563.47" y="-275.5" font-family="Helvetica,sans-Serif" font-size="10.00">/d2/RopeJointConf.hpp</text>
</a>
</g>
</g>
<!-- Node1&#45;&gt;Node10 -->
<g id="edge15" class="edge">
<title>Node1&#45;&gt;Node10</title>
<path fill="none" stroke="midnightblue" d="M378.74,-332.92C419.21,-322.31 471.14,-308.7 509.63,-298.61"/>
<polygon fill="midnightblue" stroke="midnightblue" points="377.76,-329.55 368.97,-335.48 379.53,-336.33 377.76,-329.55"/>
</g>
<!-- Node3 -->
<g id="node3" class="node">
<title>Node3</title>
<g id="a_node3"><a xlink:href="WorldModel_8hpp.html" target="_top" xlink:title="Definitions of the WorldModel class and closely related code.">
<polygon fill="white" stroke="black" points="13.47,-134.5 13.47,-164.5 157.47,-164.5 157.47,-134.5 13.47,-134.5"/>
<text text-anchor="start" x="21.47" y="-152.5" font-family="Helvetica,sans-Serif" font-size="10.00">Library/include/playrho</text>
<text text-anchor="middle" x="85.47" y="-141.5" font-family="Helvetica,sans-Serif" font-size="10.00">/d2/detail/WorldModel.hpp</text>
</a>
</g>
</g>
<!-- Node2&#45;&gt;Node3 -->
<g id="edge2" class="edge">
<title>Node2&#45;&gt;Node3</title>
<path fill="none" stroke="midnightblue" d="M106.68,-192.28C101.98,-183.02 96.72,-172.66 92.61,-164.58"/>
<polygon fill="midnightblue" stroke="midnightblue" points="103.66,-194.06 111.31,-201.4 109.9,-190.89 103.66,-194.06"/>
</g>
<!-- Node2&#45;&gt;Node4 -->
<g id="edge5" class="edge">
<title>Node2&#45;&gt;Node4</title>
<path fill="none" stroke="midnightblue" d="M144.51,-194.13C152.85,-185.9 161.26,-175.86 166.47,-165 176.96,-143.11 178.37,-114.36 178.13,-97.5"/>
<polygon fill="midnightblue" stroke="midnightblue" points="141.9,-191.77 136.96,-201.15 146.67,-196.9 141.9,-191.77"/>
</g>
<!-- Node3&#45;&gt;Node4 -->
<g id="edge3" class="edge">
<title>Node3&#45;&gt;Node4</title>
<path fill="none" stroke="midnightblue" d="M113.84,-128.45C128,-118.45 144.77,-106.6 157.54,-97.58"/>
<polygon fill="midnightblue" stroke="midnightblue" points="111.58,-125.77 105.43,-134.4 115.62,-131.48 111.58,-125.77"/>
</g>
<!-- Node5 -->
<g id="node5" class="node">
<title>Node5</title>
<g id="a_node5"><a xlink:href="BasicAPI_8hpp.html" target="_top" xlink:title="Basic API include file to pull in at once most headers used.">
<polygon fill="white" stroke="black" points="299.47,-0.5 299.47,-30.5 427.47,-30.5 427.47,-0.5 299.47,-0.5"/>
<text text-anchor="start" x="307.47" y="-18.5" font-family="Helvetica,sans-Serif" font-size="10.00">Library/include/playrho</text>
<text text-anchor="middle" x="363.47" y="-7.5" font-family="Helvetica,sans-Serif" font-size="10.00">/d2/BasicAPI.hpp</text>
</a>
</g>
</g>
<!-- Node4&#45;&gt;Node5 -->
<g id="edge4" class="edge">
<title>Node4&#45;&gt;Node5</title>
<path fill="none" stroke="midnightblue" d="M227.28,-64.09C257.31,-53.6 295.05,-40.41 323.19,-30.58"/>
<polygon fill="midnightblue" stroke="midnightblue" points="226.11,-60.79 217.83,-67.4 228.42,-67.4 226.11,-60.79"/>
</g>
<!-- Node6&#45;&gt;Node2 -->
<g id="edge7" class="edge">
<title>Node6&#45;&gt;Node2</title>
<path fill="none" stroke="midnightblue" d="M191.99,-263.02C175.65,-252.9 156.06,-240.77 141.21,-231.58"/>
<polygon fill="midnightblue" stroke="midnightblue" points="190.34,-266.11 200.68,-268.4 194.02,-260.16 190.34,-266.11"/>
</g>
<!-- Node6&#45;&gt;Node4 -->
<g id="edge8" class="edge">
<title>Node6&#45;&gt;Node4</title>
<path fill="none" stroke="midnightblue" d="M217.87,-258.27C208.16,-216.29 188.52,-131.33 180.75,-97.68"/>
<polygon fill="midnightblue" stroke="midnightblue" points="214.5,-259.23 220.16,-268.19 221.32,-257.66 214.5,-259.23"/>
</g>
<!-- Node6&#45;&gt;Node7 -->
<g id="edge9" class="edge">
<title>Node6&#45;&gt;Node7</title>
<path fill="none" stroke="midnightblue" d="M251.84,-262.45C266,-252.45 282.77,-240.6 295.54,-231.58"/>
<polygon fill="midnightblue" stroke="midnightblue" points="249.58,-259.77 243.43,-268.4 253.62,-265.48 249.58,-259.77"/>
</g>
<!-- Node7&#45;&gt;Node5 -->
<g id="edge10" class="edge">
<title>Node7&#45;&gt;Node5</title>
<path fill="none" stroke="midnightblue" d="M300.13,-192.54C295.42,-184.23 290.85,-174.53 288.47,-165 285.12,-151.64 284.61,-147.23 288.47,-134 300.61,-92.42 332.44,-51.54 350.49,-30.71"/>
<polygon fill="midnightblue" stroke="midnightblue" points="297.23,-194.51 305.4,-201.26 303.22,-190.89 297.23,-194.51"/>
</g>
<!-- Node8&#45;&gt;Node5 -->
<g id="edge12" class="edge">
<title>Node8&#45;&gt;Node5</title>
<path fill="none" stroke="midnightblue" d="M369.17,-124.02C367.71,-96.51 365.39,-52.79 364.21,-30.52"/>
<polygon fill="midnightblue" stroke="midnightblue" points="365.69,-124.57 369.72,-134.37 372.68,-124.2 365.69,-124.57"/>
</g>
<!-- Node9&#45;&gt;Node5 -->
<g id="edge14" class="edge">
<title>Node9&#45;&gt;Node5</title>
<path fill="none" stroke="midnightblue" d="M433.06,-61.73C417.58,-51.68 399.14,-39.68 385.12,-30.58"/>
<polygon fill="midnightblue" stroke="midnightblue" points="431.48,-64.88 441.77,-67.4 435.29,-59.01 431.48,-64.88"/>
</g>
<!-- Node10&#45;&gt;Node5 -->
<g id="edge16" class="edge">
<title>Node10&#45;&gt;Node5</title>
<path fill="none" stroke="midnightblue" d="M569.17,-258.42C577.96,-214.79 589.38,-122.08 543.47,-67 528.45,-48.99 473.04,-35.22 427.62,-26.64"/>
<polygon fill="midnightblue" stroke="midnightblue" points="565.7,-257.89 567.02,-268.4 572.54,-259.36 565.7,-257.89"/>
</g>
</g>
</svg>
