<?xml version="1.0" encoding="UTF-8" standalone="no"?>
<!DOCTYPE svg PUBLIC "-//W3C//DTD SVG 1.1//EN"
 "http://www.w3.org/Graphics/SVG/1.1/DTD/svg11.dtd">
<!-- Generated by graphviz version 2.43.0 (0)
 -->
<!-- Title: Library/include/playrho/d2/MassData.hpp Pages: 1 -->
<!--zoomable 240 -->
<svg id="main" version="1.1" xmlns="http://www.w3.org/2000/svg" xmlns:xlink="http://www.w3.org/1999/xlink" xml:space="preserve" onload="init(evt)">
<style type="text/css"><![CDATA[
.edge:hover path { stroke: red; }
.edge:hover polygon { stroke: red; fill: red; }
]]></style>
<script type="text/javascript"><![CDATA[
var edges = document.getElementsByTagName('g');
if (edges && edges.length) {
  for (var i=0;i<edges.length;i++) {
    if (edges[i].id.substr(0,4)=='edge') {
      edges[i].setAttribute('class','edge');
    }
  }
}
]]></script>
        <defs>
                <circle id="rim" cx="0" cy="0" r="7"/>
                <circle id="rim2" cx="0" cy="0" r="3.5"/>
                <g id="zoomPlus">
                        <use xlink:href="#rim" fill="#404040">
                                <set attributeName="fill" to="#808080" begin="zoomplus.mouseover" end="zoomplus.mouseout"/>
                        </use>
                        <path d="M-4,0h8M0,-4v8" fill="none" stroke="white" stroke-width="1.5" pointer-events="none"/>
                </g>
                <g id="zoomMin">
                        <use xlink:href="#rim" fill="#404040">
                                <set attributeName="fill" to="#808080" begin="zoomminus.mouseover" end="zoomminus.mouseout"/>
                        </use>
                        <path d="M-4,0h8" fill="none" stroke="white" stroke-width="1.5" pointer-events="none"/>
                </g>
                <g id="dirArrow">
                        <path fill="none" stroke="white" stroke-width="1.5" d="M0,-3.0v7 M-2.5,-0.5L0,-3.0L2.5,-0.5"/>
                </g>
               <g id="resetDef">
                       <use xlink:href="#rim2" fill="#404040">
                               <set attributeName="fill" to="#808080" begin="reset.mouseover" end="reset.mouseout"/>
                       </use>
               </g>
        </defs>

<script type="text/javascript">
var viewWidth = 1174;
var viewHeight = 240;
var sectionId = 'dynsection-1';
</script>
<script xlink:href="svgpan.js"/>
<svg id="graph" class="graph">
<g id="viewport">
<title>Library/include/playrho/d2/MassData.hpp</title>
<polygon fill="white" stroke="transparent" points="-4,4 -4,-236 1170,-236 1170,4 -4,4"/>
<!-- Node1 -->
<g id="node1" class="node">
<title>Node1</title>
<g id="a_node1"><a xlink:title="Declaration of the MassData structure and associated free functions.">
<polygon fill="#bfbfbf" stroke="black" points="556,-201.5 556,-231.5 684,-231.5 684,-201.5 556,-201.5"/>
<text text-anchor="start" x="564" y="-219.5" font-family="Helvetica,sans-Serif" font-size="10.00">Library/include/playrho</text>
<text text-anchor="middle" x="620" y="-208.5" font-family="Helvetica,sans-Serif" font-size="10.00">/d2/MassData.hpp</text>
</a>
</g>
</g>
<!-- Node2 -->
<g id="node2" class="node">
<title>Node2</title>
<g id="a_node2"><a xlink:href="AabbTreeWorld_8hpp.html" target="_top" xlink:title="Declarations of the AabbTreeWorld class.">
<polygon fill="white" stroke="black" points="0,-0.5 0,-30.5 128,-30.5 128,-0.5 0,-0.5"/>
<text text-anchor="start" x="8" y="-18.5" font-family="Helvetica,sans-Serif" font-size="10.00">Library/include/playrho</text>
<text text-anchor="middle" x="64" y="-7.5" font-family="Helvetica,sans-Serif" font-size="10.00">/d2/AabbTreeWorld.hpp</text>
</a>
</g>
</g>
<!-- Node1&#45;&gt;Node2 -->
<g id="edge1" class="edge">
<title>Node1&#45;&gt;Node2</title>
<path fill="none" stroke="midnightblue" d="M545.53,-212.19C466.65,-207.21 339.1,-194.93 233,-165 162.73,-145.18 129.47,-154.32 83,-98 67,-78.61 63.95,-48.21 63.65,-30.53"/>
<polygon fill="midnightblue" stroke="midnightblue" points="545.66,-215.71 555.85,-212.82 546.08,-208.72 545.66,-215.71"/>
</g>
<!-- Node3 -->
<g id="node3" class="node">
<title>Node3</title>
<g id="a_node3"><a xlink:href="Body_8hpp.html" target="_top" xlink:title="Declarations of the Body class, and functions associated with it.">
<polygon fill="white" stroke="black" points="242,-134.5 242,-164.5 370,-164.5 370,-134.5 242,-134.5"/>
<text text-anchor="start" x="250" y="-152.5" font-family="Helvetica,sans-Serif" font-size="10.00">Library/include/playrho</text>
<text text-anchor="middle" x="306" y="-141.5" font-family="Helvetica,sans-Serif" font-size="10.00">/d2/Body.hpp</text>
</a>
</g>
</g>
<!-- Node1&#45;&gt;Node3 -->
<g id="edge2" class="edge">
<title>Node1&#45;&gt;Node3</title>
<path fill="none" stroke="midnightblue" d="M545.62,-200.1C492.26,-189.06 421.1,-174.33 370.21,-163.79"/>
<polygon fill="midnightblue" stroke="midnightblue" points="545.2,-203.59 555.7,-202.19 546.62,-196.73 545.2,-203.59"/>
</g>
<!-- Node6 -->
<g id="node6" class="node">
<title>Node6</title>
<g id="a_node6"><a xlink:href="World_8hpp.html" target="_top" xlink:title="Definitions of the World class and closely related code.">
<polygon fill="white" stroke="black" points="388,-67.5 388,-97.5 516,-97.5 516,-67.5 388,-67.5"/>
<text text-anchor="start" x="396" y="-85.5" font-family="Helvetica,sans-Serif" font-size="10.00">Library/include/playrho</text>
<text text-anchor="middle" x="452" y="-74.5" font-family="Helvetica,sans-Serif" font-size="10.00">/d2/World.hpp</text>
</a>
</g>
</g>
<!-- Node1&#45;&gt;Node6 -->
<g id="edge22" class="edge">
<title>Node1&#45;&gt;Node6</title>
<path fill="none" stroke="midnightblue" d="M545.7,-211.57C512.6,-205.71 476.34,-192.77 455,-165 440.07,-145.58 443.95,-115.19 448.03,-97.52"/>
<polygon fill="midnightblue" stroke="midnightblue" points="545.43,-215.07 555.85,-213.17 546.52,-208.15 545.43,-215.07"/>
</g>
<!-- Node8 -->
<g id="node8" class="node">
<title>Node8</title>
<g id="a_node8"><a xlink:href="WorldBody_8hpp.html" target="_top" xlink:title="Declarations of free functions of World for bodies identified by BodyID.">
<polygon fill="white" stroke="black" points="242,-67.5 242,-97.5 370,-97.5 370,-67.5 242,-67.5"/>
<text text-anchor="start" x="250" y="-85.5" font-family="Helvetica,sans-Serif" font-size="10.00">Library/include/playrho</text>
<text text-anchor="middle" x="306" y="-74.5" font-family="Helvetica,sans-Serif" font-size="10.00">/d2/WorldBody.hpp</text>
</a>
</g>
</g>
<!-- Node1&#45;&gt;Node8 -->
<g id="edge23" class="edge">
<title>Node1&#45;&gt;Node8</title>
<path fill="none" stroke="midnightblue" d="M545.59,-199.48C512.53,-191.14 473.59,-179.6 440,-165 396.8,-146.22 350.79,-115.61 325.5,-97.73"/>
<polygon fill="midnightblue" stroke="midnightblue" points="545.1,-202.96 555.65,-201.96 546.78,-196.17 545.1,-202.96"/>
</g>
<!-- Node9 -->
<g id="node9" class="node">
<title>Node9</title>
<g id="a_node9"><a xlink:href="ChainShapeConf_8hpp.html" target="_top" xlink:title="Definition of the ChainShapeConf class and closely related code.">
<polygon fill="white" stroke="black" points="534.5,-67.5 534.5,-97.5 669.5,-97.5 669.5,-67.5 534.5,-67.5"/>
<text text-anchor="start" x="542.5" y="-85.5" font-family="Helvetica,sans-Serif" font-size="10.00">Library/include/playrho</text>
<text text-anchor="middle" x="602" y="-74.5" font-family="Helvetica,sans-Serif" font-size="10.00">/d2/ChainShapeConf.hpp</text>
</a>
</g>
</g>
<!-- Node1&#45;&gt;Node9 -->
<g id="edge10" class="edge">
<title>Node1&#45;&gt;Node9</title>
<path fill="none" stroke="midnightblue" d="M616.71,-191.39C612.96,-163.9 606.96,-119.89 603.91,-97.52"/>
<polygon fill="midnightblue" stroke="midnightblue" points="613.25,-191.94 618.07,-201.37 620.19,-190.99 613.25,-191.94"/>
</g>
<!-- Node10 -->
<g id="node10" class="node">
<title>Node10</title>
<g id="a_node10"><a xlink:href="DiskShapeConf_8hpp.html" target="_top" xlink:title="Definition of the DiskShapeConf class and closely related code.">
<polygon fill="white" stroke="black" points="687.5,-67.5 687.5,-97.5 816.5,-97.5 816.5,-67.5 687.5,-67.5"/>
<text text-anchor="start" x="695.5" y="-85.5" font-family="Helvetica,sans-Serif" font-size="10.00">Library/include/playrho</text>
<text text-anchor="middle" x="752" y="-74.5" font-family="Helvetica,sans-Serif" font-size="10.00">/d2/DiskShapeConf.hpp</text>
</a>
</g>
</g>
<!-- Node1&#45;&gt;Node10 -->
<g id="edge12" class="edge">
<title>Node1&#45;&gt;Node10</title>
<path fill="none" stroke="midnightblue" d="M634.51,-192.89C646.16,-175.68 663.57,-151.97 682,-134 696.27,-120.09 714.61,-107 728.93,-97.64"/>
<polygon fill="midnightblue" stroke="midnightblue" points="631.58,-190.96 628.96,-201.23 637.41,-194.84 631.58,-190.96"/>
</g>
<!-- Node11 -->
<g id="node11" class="node">
<title>Node11</title>
<g id="a_node11"><a xlink:href="EdgeShapeConf_8hpp.html" target="_top" xlink:title="Definition of the EdgeShapeConf class and closely related code.">
<polygon fill="white" stroke="black" points="834.5,-67.5 834.5,-97.5 965.5,-97.5 965.5,-67.5 834.5,-67.5"/>
<text text-anchor="start" x="842.5" y="-85.5" font-family="Helvetica,sans-Serif" font-size="10.00">Library/include/playrho</text>
<text text-anchor="middle" x="900" y="-74.5" font-family="Helvetica,sans-Serif" font-size="10.00">/d2/EdgeShapeConf.hpp</text>
</a>
</g>
</g>
<!-- Node1&#45;&gt;Node11 -->
<g id="edge14" class="edge">
<title>Node1&#45;&gt;Node11</title>
<path fill="none" stroke="midnightblue" d="M646.05,-194.96C657.26,-185.94 670.43,-175.13 682,-165 697.14,-151.75 697.44,-143.83 715,-134 735.77,-122.37 791.06,-107.98 835.83,-97.54"/>
<polygon fill="midnightblue" stroke="midnightblue" points="643.54,-192.48 637.91,-201.46 647.91,-197.95 643.54,-192.48"/>
</g>
<!-- Node12 -->
<g id="node12" class="node">
<title>Node12</title>
<g id="a_node12"><a xlink:href="MultiShapeConf_8hpp.html" target="_top" xlink:title="Definition of the MultiShapeConf class and closely related code.">
<polygon fill="white" stroke="black" points="724,-134.5 724,-164.5 856,-164.5 856,-134.5 724,-134.5"/>
<text text-anchor="start" x="732" y="-152.5" font-family="Helvetica,sans-Serif" font-size="10.00">Library/include/playrho</text>
<text text-anchor="middle" x="790" y="-141.5" font-family="Helvetica,sans-Serif" font-size="10.00">/d2/MultiShapeConf.hpp</text>
</a>
</g>
</g>
<!-- Node1&#45;&gt;Node12 -->
<g id="edge16" class="edge">
<title>Node1&#45;&gt;Node12</title>
<path fill="none" stroke="midnightblue" d="M666.24,-197.82C693.57,-187.37 727.69,-174.32 753.18,-164.58"/>
<polygon fill="midnightblue" stroke="midnightblue" points="664.98,-194.56 656.89,-201.4 667.48,-201.09 664.98,-194.56"/>
</g>
<!-- Node13 -->
<g id="node13" class="node">
<title>Node13</title>
<g id="a_node13"><a xlink:href="PolygonShapeConf_8hpp.html" target="_top" xlink:title="Definition of the PolygonShapeConf class and closely related code.">
<polygon fill="white" stroke="black" points="874,-134.5 874,-164.5 1020,-164.5 1020,-134.5 874,-134.5"/>
<text text-anchor="start" x="882" y="-152.5" font-family="Helvetica,sans-Serif" font-size="10.00">Library/include/playrho</text>
<text text-anchor="middle" x="947" y="-141.5" font-family="Helvetica,sans-Serif" font-size="10.00">/d2/PolygonShapeConf.hpp</text>
</a>
</g>
</g>
<!-- Node1&#45;&gt;Node13 -->
<g id="edge18" class="edge">
<title>Node1&#45;&gt;Node13</title>
<path fill="none" stroke="midnightblue" d="M694.18,-200.75C748.82,-189.89 822.65,-175.22 876.41,-164.53"/>
<polygon fill="midnightblue" stroke="midnightblue" points="693.34,-197.35 684.21,-202.74 694.71,-204.22 693.34,-197.35"/>
</g>
<!-- Node14 -->
<g id="node14" class="node">
<title>Node14</title>
<g id="a_node14"><a xlink:href="Shape_8hpp.html" target="_top" xlink:title="Definition of the Shape class and closely related code.">
<polygon fill="white" stroke="black" points="464,-134.5 464,-164.5 592,-164.5 592,-134.5 464,-134.5"/>
<text text-anchor="start" x="472" y="-152.5" font-family="Helvetica,sans-Serif" font-size="10.00">Library/include/playrho</text>
<text text-anchor="middle" x="528" y="-141.5" font-family="Helvetica,sans-Serif" font-size="10.00">/d2/Shape.hpp</text>
</a>
</g>
</g>
<!-- Node1&#45;&gt;Node14 -->
<g id="edge20" class="edge">
<title>Node1&#45;&gt;Node14</title>
<path fill="none" stroke="midnightblue" d="M591.62,-195.45C577.47,-185.45 560.69,-173.6 547.92,-164.58"/>
<polygon fill="midnightblue" stroke="midnightblue" points="589.85,-198.48 600.04,-201.4 593.89,-192.77 589.85,-198.48"/>
</g>
<!-- Node15 -->
<g id="node15" class="node">
<title>Node15</title>
<g id="a_node15"><a xlink:href="WorldShape_8hpp.html" target="_top" xlink:title="Declarations of free functions of World for shapes identified by ShapeID.">
<polygon fill="white" stroke="black" points="1038,-134.5 1038,-164.5 1166,-164.5 1166,-134.5 1038,-134.5"/>
<text text-anchor="start" x="1046" y="-152.5" font-family="Helvetica,sans-Serif" font-size="10.00">Library/include/playrho</text>
<text text-anchor="middle" x="1102" y="-141.5" font-family="Helvetica,sans-Serif" font-size="10.00">/d2/WorldShape.hpp</text>
</a>
</g>
</g>
<!-- Node1&#45;&gt;Node15 -->
<g id="edge24" class="edge">
<title>Node1&#45;&gt;Node15</title>
<path fill="none" stroke="midnightblue" d="M694.31,-207.98C776.44,-199.28 912.54,-183.73 1029,-165 1031.93,-164.53 1034.93,-164.02 1037.95,-163.5"/>
<polygon fill="midnightblue" stroke="midnightblue" points="693.89,-204.5 684.32,-209.03 694.63,-211.46 693.89,-204.5"/>
</g>
<!-- Node4 -->
<g id="node4" class="node">
<title>Node4</title>
<g id="a_node4"><a xlink:href="BodyConstraint_8hpp.html" target="_top" xlink:title="Definition of the BodyConstraint class and closely related code.">
<polygon fill="white" stroke="black" points="92.5,-67.5 92.5,-97.5 223.5,-97.5 223.5,-67.5 92.5,-67.5"/>
<text text-anchor="start" x="100.5" y="-85.5" font-family="Helvetica,sans-Serif" font-size="10.00">Library/include/playrho</text>
<text text-anchor="middle" x="158" y="-74.5" font-family="Helvetica,sans-Serif" font-size="10.00">/d2/BodyConstraint.hpp</text>
</a>
</g>
</g>
<!-- Node3&#45;&gt;Node4 -->
<g id="edge3" class="edge">
<title>Node3&#45;&gt;Node4</title>
<path fill="none" stroke="midnightblue" d="M264.49,-130.27C240.92,-119.92 211.86,-107.15 190.05,-97.58"/>
<polygon fill="midnightblue" stroke="midnightblue" points="263.32,-133.58 273.89,-134.4 266.14,-127.17 263.32,-133.58"/>
</g>
<!-- Node3&#45;&gt;Node6 -->
<g id="edge6" class="edge">
<title>Node3&#45;&gt;Node6</title>
<path fill="none" stroke="midnightblue" d="M346.95,-130.27C370.2,-119.92 398.87,-107.15 420.38,-97.58"/>
<polygon fill="midnightblue" stroke="midnightblue" points="345.39,-127.13 337.68,-134.4 348.24,-133.53 345.39,-127.13"/>
</g>
<!-- Node3&#45;&gt;Node8 -->
<g id="edge8" class="edge">
<title>Node3&#45;&gt;Node8</title>
<path fill="none" stroke="midnightblue" d="M306,-124.11C306,-115.15 306,-105.32 306,-97.58"/>
<polygon fill="midnightblue" stroke="midnightblue" points="302.5,-124.4 306,-134.4 309.5,-124.4 302.5,-124.4"/>
</g>
<!-- Node4&#45;&gt;Node2 -->
<g id="edge4" class="edge">
<title>Node4&#45;&gt;Node2</title>
<path fill="none" stroke="midnightblue" d="M129.01,-61.45C114.55,-51.45 97.41,-39.6 84.36,-30.58"/>
<polygon fill="midnightblue" stroke="midnightblue" points="127.39,-64.59 137.6,-67.4 131.37,-58.83 127.39,-64.59"/>
</g>
<!-- Node5 -->
<g id="node5" class="node">
<title>Node5</title>
<g id="a_node5"><a xlink:href="VelocityConstraint_8hpp.html" target="_top" xlink:title="Definition of the VelocityConstraint class and closely related code.">
<polygon fill="white" stroke="black" points="146.5,-0.5 146.5,-30.5 291.5,-30.5 291.5,-0.5 146.5,-0.5"/>
<text text-anchor="start" x="154.5" y="-18.5" font-family="Helvetica,sans-Serif" font-size="10.00">Library/include/playrho</text>
<text text-anchor="middle" x="219" y="-7.5" font-family="Helvetica,sans-Serif" font-size="10.00">/d2/VelocityConstraint.hpp</text>
</a>
</g>
</g>
<!-- Node4&#45;&gt;Node5 -->
<g id="edge5" class="edge">
<title>Node4&#45;&gt;Node5</title>
<path fill="none" stroke="midnightblue" d="M178.15,-60.02C187.24,-50.34 197.72,-39.17 205.79,-30.58"/>
<polygon fill="midnightblue" stroke="midnightblue" points="175.53,-57.71 171.24,-67.4 180.63,-62.5 175.53,-57.71"/>
</g>
<!-- Node7 -->
<g id="node7" class="node">
<title>Node7</title>
<g id="a_node7"><a xlink:href="BasicAPI_8hpp.html" target="_top" xlink:title="Basic API include file to pull in at once most headers used.">
<polygon fill="white" stroke="black" points="762,-0.5 762,-30.5 890,-30.5 890,-0.5 762,-0.5"/>
<text text-anchor="start" x="770" y="-18.5" font-family="Helvetica,sans-Serif" font-size="10.00">Library/include/playrho</text>
<text text-anchor="middle" x="826" y="-7.5" font-family="Helvetica,sans-Serif" font-size="10.00">/d2/BasicAPI.hpp</text>
</a>
</g>
</g>
<!-- Node6&#45;&gt;Node7 -->
<g id="edge7" class="edge">
<title>Node6&#45;&gt;Node7</title>
<path fill="none" stroke="midnightblue" d="M525.7,-67.06C525.8,-67.04 525.9,-67.02 526,-67 607.19,-52.21 701.03,-36.67 761.83,-26.79"/>
<polygon fill="midnightblue" stroke="midnightblue" points="525.35,-63.56 516.16,-68.82 526.63,-70.44 525.35,-63.56"/>
</g>
<!-- Node8&#45;&gt;Node7 -->
<g id="edge9" class="edge">
<title>Node8&#45;&gt;Node7</title>
<path fill="none" stroke="midnightblue" d="M380.23,-66.89C522.09,-45.16 676.75,-29.79 761.75,-22.06"/>
<polygon fill="midnightblue" stroke="midnightblue" points="379.39,-63.48 370.04,-68.47 380.46,-70.4 379.39,-63.48"/>
</g>
<!-- Node9&#45;&gt;Node7 -->
<g id="edge11" class="edge">
<title>Node9&#45;&gt;Node7</title>
<path fill="none" stroke="midnightblue" d="M660.31,-64.58C696.69,-54.02 742.97,-40.59 777.37,-30.61"/>
<polygon fill="midnightblue" stroke="midnightblue" points="658.96,-61.33 650.33,-67.48 660.91,-68.05 658.96,-61.33"/>
</g>
<!-- Node10&#45;&gt;Node7 -->
<g id="edge13" class="edge">
<title>Node10&#45;&gt;Node7</title>
<path fill="none" stroke="midnightblue" d="M775.8,-60.6C786.97,-50.78 799.99,-39.34 809.97,-30.58"/>
<polygon fill="midnightblue" stroke="midnightblue" points="773.26,-58.17 768.06,-67.4 777.88,-63.43 773.26,-58.17"/>
</g>
<!-- Node11&#45;&gt;Node7 -->
<g id="edge15" class="edge">
<title>Node11&#45;&gt;Node7</title>
<path fill="none" stroke="midnightblue" d="M876.2,-60.6C865.03,-50.78 852.01,-39.34 842.03,-30.58"/>
<polygon fill="midnightblue" stroke="midnightblue" points="874.12,-63.43 883.94,-67.4 878.74,-58.17 874.12,-63.43"/>
</g>
<!-- Node12&#45;&gt;Node7 -->
<g id="edge17" class="edge">
<title>Node12&#45;&gt;Node7</title>
<path fill="none" stroke="midnightblue" d="M866.04,-132.3C913.91,-121.33 967.97,-107.21 975,-98 1002.74,-61.68 942.26,-39.46 890.23,-27.59"/>
<polygon fill="midnightblue" stroke="midnightblue" points="865.23,-128.89 856.25,-134.52 866.77,-135.72 865.23,-128.89"/>
</g>
<!-- Node13&#45;&gt;Node7 -->
<g id="edge19" class="edge">
<title>Node13&#45;&gt;Node7</title>
<path fill="none" stroke="midnightblue" d="M972.37,-126.98C989.31,-109.98 1006.1,-86.03 992,-67 968.68,-35.54 926.24,-23.01 890.11,-18.29"/>
<polygon fill="midnightblue" stroke="midnightblue" points="969.54,-124.84 964.69,-134.26 974.36,-129.92 969.54,-124.84"/>
</g>
<!-- Node14&#45;&gt;Node6 -->
<g id="edge21" class="edge">
<title>Node14&#45;&gt;Node6</title>
<path fill="none" stroke="midnightblue" d="M503.89,-127.88C492.34,-118.01 478.81,-106.43 468.46,-97.58"/>
<polygon fill="midnightblue" stroke="midnightblue" points="501.63,-130.56 511.51,-134.4 506.18,-125.24 501.63,-130.56"/>
</g>
<!-- Node15&#45;&gt;Node7 -->
<g id="edge25" class="edge">
<title>Node15&#45;&gt;Node7</title>
<path fill="none" stroke="midnightblue" d="M1082.47,-126.85C1064.73,-108.43 1036.98,-82.55 1008,-67 971.3,-47.31 926.23,-34.73 890.11,-27.05"/>
<polygon fill="midnightblue" stroke="midnightblue" points="1080.03,-129.36 1089.44,-134.24 1085.13,-124.56 1080.03,-129.36"/>
</g>
</g>
</svg>
        <g id="navigator" transform="translate(0 0)" fill="#404254">
                <rect fill="#f2f5e9" fill-opacity="0.5" stroke="#606060" stroke-width=".5" x="0" y="0" width="60" height="60"/>
                <use id="zoomplus" xlink:href="#zoomPlus" x="17" y="9" onmousedown="handleZoom(evt,'in')"/>
                <use id="zoomminus" xlink:href="#zoomMin" x="42" y="9" onmousedown="handleZoom(evt,'out')"/>
                <use id="reset" xlink:href="#resetDef" x="30" y="36" onmousedown="handleReset()"/>
                <g id="arrowUp" xlink:href="#dirArrow" transform="translate(30 24)" onmousedown="handlePan(0,-1)">
                  <use xlink:href="#rim" fill="#404040">
                        <set attributeName="fill" to="#808080" begin="arrowUp.mouseover" end="arrowUp.mouseout"/>
                  </use>
                  <path fill="none" stroke="white" stroke-width="1.5" d="M0,-3.0v7 M-2.5,-0.5L0,-3.0L2.5,-0.5"/>
                </g>
                <g id="arrowRight" xlink:href="#dirArrow" transform="rotate(90) translate(36 -43)" onmousedown="handlePan(1,0)">
                  <use xlink:href="#rim" fill="#404040">
                        <set attributeName="fill" to="#808080" begin="arrowRight.mouseover" end="arrowRight.mouseout"/>
                  </use>
                  <path fill="none" stroke="white" stroke-width="1.5" d="M0,-3.0v7 M-2.5,-0.5L0,-3.0L2.5,-0.5"/>
                </g>
                <g id="arrowDown" xlink:href="#dirArrow" transform="rotate(180) translate(-30 -48)" onmousedown="handlePan(0,1)">
                  <use xlink:href="#rim" fill="#404040">
                        <set attributeName="fill" to="#808080" begin="arrowDown.mouseover" end="arrowDown.mouseout"/>
                  </use>
                  <path fill="none" stroke="white" stroke-width="1.5" d="M0,-3.0v7 M-2.5,-0.5L0,-3.0L2.5,-0.5"/>
                </g>
                <g id="arrowLeft" xlink:href="#dirArrow" transform="rotate(270) translate(-36 17)" onmousedown="handlePan(-1,0)">
                  <use xlink:href="#rim" fill="#404040">
                        <set attributeName="fill" to="#808080" begin="arrowLeft.mouseover" end="arrowLeft.mouseout"/>
                  </use>
                  <path fill="none" stroke="white" stroke-width="1.5" d="M0,-3.0v7 M-2.5,-0.5L0,-3.0L2.5,-0.5"/>
                </g>
        </g>
        <svg viewBox="0 0 15 15" width="100%" height="30px" preserveAspectRatio="xMaxYMin meet">
         <g id="arrow_out" transform="scale(0.3 0.3)">
          <a xlink:href="MassData_8hpp__dep__incl_org.svg" target="_base">
           <rect id="button" ry="5" rx="5" y="6" x="6" height="38" width="38"
                fill="#f2f5e9" fill-opacity="0.5" stroke="#606060" stroke-width="1.0"/>
           <path id="arrow"
             d="M 11.500037,31.436501 C 11.940474,20.09759 22.043105,11.32322 32.158766,21.979434 L 37.068811,17.246167 C 37.068811,17.246167 37.088388,32 37.088388,32 L 22.160133,31.978069 C 22.160133,31.978069 26.997745,27.140456 26.997745,27.140456 C 18.528582,18.264221 13.291696,25.230495 11.500037,31.436501 z"
             style="fill:#404040;"/>
          </a>
         </g>
        </svg>
</svg>
