<?xml version="1.0" encoding="UTF-8" standalone="no"?>
<!DOCTYPE svg PUBLIC "-//W3C//DTD SVG 1.1//EN"
 "http://www.w3.org/Graphics/SVG/1.1/DTD/svg11.dtd">
<!-- Generated by graphviz version 2.43.0 (0)
 -->
<!-- Title: Library/include/playrho/d2/MassData.hpp Pages: 1 -->
<svg width="1233pt" height="240pt"
 viewBox="0.00 0.00 1232.50 240.00" xmlns="http://www.w3.org/2000/svg" xmlns:xlink="http://www.w3.org/1999/xlink">
<g id="graph0" class="graph" transform="scale(1 1) rotate(0) translate(4 236)">
<title>Library/include/playrho/d2/MassData.hpp</title>
<polygon fill="white" stroke="transparent" points="-4,4 -4,-236 1228.5,-236 1228.5,4 -4,4"/>
<!-- Node1 -->
<g id="node1" class="node">
<title>Node1</title>
<g id="a_node1"><a xlink:title="Declaration of the MassData structure and associated free functions.">
<polygon fill="#bfbfbf" stroke="black" points="510.5,-201.5 510.5,-231.5 638.5,-231.5 638.5,-201.5 510.5,-201.5"/>
<text text-anchor="start" x="518.5" y="-219.5" font-family="Helvetica,sans-Serif" font-size="10.00">Library/include/playrho</text>
<text text-anchor="middle" x="574.5" y="-208.5" font-family="Helvetica,sans-Serif" font-size="10.00">/d2/MassData.hpp</text>
</a>
</g>
</g>
<!-- Node2 -->
<g id="node2" class="node">
<title>Node2</title>
<g id="a_node2"><a xlink:href="Body_8hpp.html" target="_top" xlink:title="Declarations of the Body class, and functions associated with it.">
<polygon fill="white" stroke="black" points="748.5,-134.5 748.5,-164.5 876.5,-164.5 876.5,-134.5 748.5,-134.5"/>
<text text-anchor="start" x="756.5" y="-152.5" font-family="Helvetica,sans-Serif" font-size="10.00">Library/include/playrho</text>
<text text-anchor="middle" x="812.5" y="-141.5" font-family="Helvetica,sans-Serif" font-size="10.00">/d2/Body.hpp</text>
</a>
</g>
</g>
<!-- Node1&#45;&gt;Node2 -->
<g id="edge1" class="edge">
<title>Node1&#45;&gt;Node2</title>
<path fill="none" stroke="midnightblue" d="M635.96,-198.71C674.69,-188.14 724.13,-174.63 760.83,-164.61"/>
<polygon fill="midnightblue" stroke="midnightblue" points="634.57,-195.46 625.85,-201.48 636.42,-202.22 634.57,-195.46"/>
</g>
<!-- Node6 -->
<g id="node6" class="node">
<title>Node6</title>
<g id="a_node6"><a xlink:href="WorldImpl_8hpp.html" target="_top" xlink:title="Declarations of the WorldImpl class.">
<polygon fill="white" stroke="black" points="1096.5,-0.5 1096.5,-30.5 1224.5,-30.5 1224.5,-0.5 1096.5,-0.5"/>
<text text-anchor="start" x="1104.5" y="-18.5" font-family="Helvetica,sans-Serif" font-size="10.00">Library/include/playrho</text>
<text text-anchor="middle" x="1160.5" y="-7.5" font-family="Helvetica,sans-Serif" font-size="10.00">/d2/WorldImpl.hpp</text>
</a>
</g>
</g>
<!-- Node1&#45;&gt;Node6 -->
<g id="edge24" class="edge">
<title>Node1&#45;&gt;Node6</title>
<path fill="none" stroke="midnightblue" d="M648.71,-209.32C719.21,-202.36 827.76,-188.78 919.5,-165 1000.92,-143.9 1028.71,-147.79 1096.5,-98 1121.73,-79.47 1142.23,-48.48 1152.77,-30.53"/>
<polygon fill="midnightblue" stroke="midnightblue" points="648.21,-205.85 638.59,-210.3 648.88,-212.82 648.21,-205.85"/>
</g>
<!-- Node7 -->
<g id="node7" class="node">
<title>Node7</title>
<g id="a_node7"><a xlink:href="World_8hpp.html" target="_top" xlink:title="Definitions of the World class and closely related code.">
<polygon fill="white" stroke="black" points="510.5,-67.5 510.5,-97.5 638.5,-97.5 638.5,-67.5 510.5,-67.5"/>
<text text-anchor="start" x="518.5" y="-85.5" font-family="Helvetica,sans-Serif" font-size="10.00">Library/include/playrho</text>
<text text-anchor="middle" x="574.5" y="-74.5" font-family="Helvetica,sans-Serif" font-size="10.00">/d2/World.hpp</text>
</a>
</g>
</g>
<!-- Node1&#45;&gt;Node7 -->
<g id="edge22" class="edge">
<title>Node1&#45;&gt;Node7</title>
<path fill="none" stroke="midnightblue" d="M574.5,-191.02C574.5,-163.51 574.5,-119.79 574.5,-97.52"/>
<polygon fill="midnightblue" stroke="midnightblue" points="571,-191.37 574.5,-201.37 578,-191.37 571,-191.37"/>
</g>
<!-- Node9 -->
<g id="node9" class="node">
<title>Node9</title>
<g id="a_node9"><a xlink:href="WorldBody_8hpp.html" target="_top" xlink:title="Declarations of free functions of World for bodies identified by BodyID.">
<polygon fill="white" stroke="black" points="656.5,-67.5 656.5,-97.5 784.5,-97.5 784.5,-67.5 656.5,-67.5"/>
<text text-anchor="start" x="664.5" y="-85.5" font-family="Helvetica,sans-Serif" font-size="10.00">Library/include/playrho</text>
<text text-anchor="middle" x="720.5" y="-74.5" font-family="Helvetica,sans-Serif" font-size="10.00">/d2/WorldBody.hpp</text>
</a>
</g>
</g>
<!-- Node1&#45;&gt;Node9 -->
<g id="edge23" class="edge">
<title>Node1&#45;&gt;Node9</title>
<path fill="none" stroke="midnightblue" d="M648.59,-214.12C730.75,-210.84 855.69,-200.05 885.5,-165 894.43,-154.51 893.69,-145.08 885.5,-134 878.8,-124.94 822.95,-109.08 778.06,-97.54"/>
<polygon fill="midnightblue" stroke="midnightblue" points="648.4,-210.62 638.54,-214.49 648.66,-217.62 648.4,-210.62"/>
</g>
<!-- Node10 -->
<g id="node10" class="node">
<title>Node10</title>
<g id="a_node10"><a xlink:href="ChainShapeConf_8hpp.html" target="_top" xlink:title="Definition of the ChainShapeConf class and closely related code.">
<polygon fill="white" stroke="black" points="803,-67.5 803,-97.5 938,-97.5 938,-67.5 803,-67.5"/>
<text text-anchor="start" x="811" y="-85.5" font-family="Helvetica,sans-Serif" font-size="10.00">Library/include/playrho</text>
<text text-anchor="middle" x="870.5" y="-74.5" font-family="Helvetica,sans-Serif" font-size="10.00">/d2/ChainShapeConf.hpp</text>
</a>
</g>
</g>
<!-- Node1&#45;&gt;Node10 -->
<g id="edge10" class="edge">
<title>Node1&#45;&gt;Node10</title>
<path fill="none" stroke="midnightblue" d="M648.76,-214.85C735.27,-212.33 870.48,-202.33 902.5,-165 919.52,-145.16 899.23,-115.19 884.07,-97.66"/>
<polygon fill="midnightblue" stroke="midnightblue" points="648.62,-211.35 638.72,-215.11 648.81,-218.35 648.62,-211.35"/>
</g>
<!-- Node11 -->
<g id="node11" class="node">
<title>Node11</title>
<g id="a_node11"><a xlink:href="DiskShapeConf_8hpp.html" target="_top" xlink:title="Definition of the DiskShapeConf class and closely related code.">
<polygon fill="white" stroke="black" points="0,-67.5 0,-97.5 129,-97.5 129,-67.5 0,-67.5"/>
<text text-anchor="start" x="8" y="-85.5" font-family="Helvetica,sans-Serif" font-size="10.00">Library/include/playrho</text>
<text text-anchor="middle" x="64.5" y="-74.5" font-family="Helvetica,sans-Serif" font-size="10.00">/d2/DiskShapeConf.hpp</text>
</a>
</g>
</g>
<!-- Node1&#45;&gt;Node11 -->
<g id="edge12" class="edge">
<title>Node1&#45;&gt;Node11</title>
<path fill="none" stroke="midnightblue" d="M499.9,-212.49C370.48,-206.59 115.15,-191.69 84.5,-165 65.27,-148.26 62.99,-116.32 63.46,-97.79"/>
<polygon fill="midnightblue" stroke="midnightblue" points="499.99,-216 510.13,-212.95 500.3,-209 499.99,-216"/>
</g>
<!-- Node12 -->
<g id="node12" class="node">
<title>Node12</title>
<g id="a_node12"><a xlink:href="EdgeShapeConf_8hpp.html" target="_top" xlink:title="Definition of the EdgeShapeConf class and closely related code.">
<polygon fill="white" stroke="black" points="151,-67.5 151,-97.5 282,-97.5 282,-67.5 151,-67.5"/>
<text text-anchor="start" x="159" y="-85.5" font-family="Helvetica,sans-Serif" font-size="10.00">Library/include/playrho</text>
<text text-anchor="middle" x="216.5" y="-74.5" font-family="Helvetica,sans-Serif" font-size="10.00">/d2/EdgeShapeConf.hpp</text>
</a>
</g>
</g>
<!-- Node1&#45;&gt;Node12 -->
<g id="edge14" class="edge">
<title>Node1&#45;&gt;Node12</title>
<path fill="none" stroke="midnightblue" d="M499.92,-213.02C372.04,-207.98 122.02,-194.46 95.5,-165 68.98,-135.54 120.11,-111.64 163.85,-97.51"/>
<polygon fill="midnightblue" stroke="midnightblue" points="499.91,-216.52 510.04,-213.41 500.18,-209.52 499.91,-216.52"/>
</g>
<!-- Node13 -->
<g id="node13" class="node">
<title>Node13</title>
<g id="a_node13"><a xlink:href="MultiShapeConf_8hpp.html" target="_top" xlink:title="Definition of the MultiShapeConf class and closely related code.">
<polygon fill="white" stroke="black" points="104.5,-134.5 104.5,-164.5 236.5,-164.5 236.5,-134.5 104.5,-134.5"/>
<text text-anchor="start" x="112.5" y="-152.5" font-family="Helvetica,sans-Serif" font-size="10.00">Library/include/playrho</text>
<text text-anchor="middle" x="170.5" y="-141.5" font-family="Helvetica,sans-Serif" font-size="10.00">/d2/MultiShapeConf.hpp</text>
</a>
</g>
</g>
<!-- Node1&#45;&gt;Node13 -->
<g id="edge16" class="edge">
<title>Node1&#45;&gt;Node13</title>
<path fill="none" stroke="midnightblue" d="M500.38,-204.96C433.61,-195.26 332.83,-180.14 245.5,-165 242.63,-164.5 239.69,-163.98 236.73,-163.45"/>
<polygon fill="midnightblue" stroke="midnightblue" points="499.99,-208.44 510.39,-206.41 500.99,-201.51 499.99,-208.44"/>
</g>
<!-- Node14 -->
<g id="node14" class="node">
<title>Node14</title>
<g id="a_node14"><a xlink:href="PolygonShapeConf_8hpp.html" target="_top" xlink:title="Definition of the PolygonShapeConf class and closely related code.">
<polygon fill="white" stroke="black" points="254.5,-134.5 254.5,-164.5 400.5,-164.5 400.5,-134.5 254.5,-134.5"/>
<text text-anchor="start" x="262.5" y="-152.5" font-family="Helvetica,sans-Serif" font-size="10.00">Library/include/playrho</text>
<text text-anchor="middle" x="327.5" y="-141.5" font-family="Helvetica,sans-Serif" font-size="10.00">/d2/PolygonShapeConf.hpp</text>
</a>
</g>
</g>
<!-- Node1&#45;&gt;Node14 -->
<g id="edge18" class="edge">
<title>Node1&#45;&gt;Node14</title>
<path fill="none" stroke="midnightblue" d="M511.49,-198.92C471.18,-188.31 419.46,-174.7 381.12,-164.61"/>
<polygon fill="midnightblue" stroke="midnightblue" points="510.65,-202.32 521.21,-201.48 512.43,-195.55 510.65,-202.32"/>
</g>
<!-- Node15 -->
<g id="node15" class="node">
<title>Node15</title>
<g id="a_node15"><a xlink:href="Shape_8hpp.html" target="_top" xlink:title="Definition of the Shape class and closely related code.">
<polygon fill="white" stroke="black" points="602.5,-134.5 602.5,-164.5 730.5,-164.5 730.5,-134.5 602.5,-134.5"/>
<text text-anchor="start" x="610.5" y="-152.5" font-family="Helvetica,sans-Serif" font-size="10.00">Library/include/playrho</text>
<text text-anchor="middle" x="666.5" y="-141.5" font-family="Helvetica,sans-Serif" font-size="10.00">/d2/Shape.hpp</text>
</a>
</g>
</g>
<!-- Node1&#45;&gt;Node15 -->
<g id="edge20" class="edge">
<title>Node1&#45;&gt;Node15</title>
<path fill="none" stroke="midnightblue" d="M602.88,-195.45C617.03,-185.45 633.81,-173.6 646.58,-164.58"/>
<polygon fill="midnightblue" stroke="midnightblue" points="600.61,-192.77 594.46,-201.4 604.65,-198.48 600.61,-192.77"/>
</g>
<!-- Node16 -->
<g id="node16" class="node">
<title>Node16</title>
<g id="a_node16"><a xlink:href="WorldShape_8hpp.html" target="_top" xlink:title="Declarations of free functions of World for shapes identified by ShapeID.">
<polygon fill="white" stroke="black" points="418.5,-134.5 418.5,-164.5 546.5,-164.5 546.5,-134.5 418.5,-134.5"/>
<text text-anchor="start" x="426.5" y="-152.5" font-family="Helvetica,sans-Serif" font-size="10.00">Library/include/playrho</text>
<text text-anchor="middle" x="482.5" y="-141.5" font-family="Helvetica,sans-Serif" font-size="10.00">/d2/WorldShape.hpp</text>
</a>
</g>
</g>
<!-- Node1&#45;&gt;Node16 -->
<g id="edge25" class="edge">
<title>Node1&#45;&gt;Node16</title>
<path fill="none" stroke="midnightblue" d="M546.12,-195.45C531.97,-185.45 515.19,-173.6 502.42,-164.58"/>
<polygon fill="midnightblue" stroke="midnightblue" points="544.35,-198.48 554.54,-201.4 548.39,-192.77 544.35,-198.48"/>
</g>
<!-- Node3 -->
<g id="node3" class="node">
<title>Node3</title>
<g id="a_node3"><a xlink:href="BodyConstraint_8hpp.html" target="_top" xlink:title="Definition of the BodyConstraint class and closely related code.">
<polygon fill="white" stroke="black" points="956,-67.5 956,-97.5 1087,-97.5 1087,-67.5 956,-67.5"/>
<text text-anchor="start" x="964" y="-85.5" font-family="Helvetica,sans-Serif" font-size="10.00">Library/include/playrho</text>
<text text-anchor="middle" x="1021.5" y="-74.5" font-family="Helvetica,sans-Serif" font-size="10.00">/d2/BodyConstraint.hpp</text>
</a>
</g>
</g>
<!-- Node2&#45;&gt;Node3 -->
<g id="edge2" class="edge">
<title>Node2&#45;&gt;Node3</title>
<path fill="none" stroke="midnightblue" d="M867.34,-131.44C901.22,-120.91 944.17,-107.55 976.13,-97.61"/>
<polygon fill="midnightblue" stroke="midnightblue" points="866.1,-128.16 857.59,-134.48 868.18,-134.85 866.1,-128.16"/>
</g>
<!-- Node2&#45;&gt;Node7 -->
<g id="edge6" class="edge">
<title>Node2&#45;&gt;Node7</title>
<path fill="none" stroke="midnightblue" d="M751.04,-131.71C712.31,-121.14 662.87,-107.63 626.17,-97.61"/>
<polygon fill="midnightblue" stroke="midnightblue" points="750.58,-135.22 761.15,-134.48 752.43,-128.46 750.58,-135.22"/>
</g>
<!-- Node2&#45;&gt;Node9 -->
<g id="edge8" class="edge">
<title>Node2&#45;&gt;Node9</title>
<path fill="none" stroke="midnightblue" d="M784.12,-128.45C769.97,-118.45 753.19,-106.6 740.42,-97.58"/>
<polygon fill="midnightblue" stroke="midnightblue" points="782.35,-131.48 792.54,-134.4 786.39,-125.77 782.35,-131.48"/>
</g>
<!-- Node4 -->
<g id="node4" class="node">
<title>Node4</title>
<g id="a_node4"><a xlink:href="PositionConstraint_8hpp.html" target="_top" xlink:title="Definition of the PositionConstraint class and closely related code.">
<polygon fill="white" stroke="black" points="770,-0.5 770,-30.5 915,-30.5 915,-0.5 770,-0.5"/>
<text text-anchor="start" x="778" y="-18.5" font-family="Helvetica,sans-Serif" font-size="10.00">Library/include/playrho</text>
<text text-anchor="middle" x="842.5" y="-7.5" font-family="Helvetica,sans-Serif" font-size="10.00">/d2/PositionConstraint.hpp</text>
</a>
</g>
</g>
<!-- Node3&#45;&gt;Node4 -->
<g id="edge3" class="edge">
<title>Node3&#45;&gt;Node4</title>
<path fill="none" stroke="midnightblue" d="M973.18,-63.96C944.35,-53.48 908.22,-40.37 881.26,-30.58"/>
<polygon fill="midnightblue" stroke="midnightblue" points="972.07,-67.27 982.66,-67.4 974.45,-60.69 972.07,-67.27"/>
</g>
<!-- Node5 -->
<g id="node5" class="node">
<title>Node5</title>
<g id="a_node5"><a xlink:href="VelocityConstraint_8hpp.html" target="_top" xlink:title="Definition of the VelocityConstraint class and closely related code.">
<polygon fill="white" stroke="black" points="933,-0.5 933,-30.5 1078,-30.5 1078,-0.5 933,-0.5"/>
<text text-anchor="start" x="941" y="-18.5" font-family="Helvetica,sans-Serif" font-size="10.00">Library/include/playrho</text>
<text text-anchor="middle" x="1005.5" y="-7.5" font-family="Helvetica,sans-Serif" font-size="10.00">/d2/VelocityConstraint.hpp</text>
</a>
</g>
</g>
<!-- Node3&#45;&gt;Node5 -->
<g id="edge4" class="edge">
<title>Node3&#45;&gt;Node5</title>
<path fill="none" stroke="midnightblue" d="M1015.57,-57.4C1013.34,-48.37 1010.89,-38.41 1008.96,-30.58"/>
<polygon fill="midnightblue" stroke="midnightblue" points="1012.24,-58.52 1018.03,-67.4 1019.04,-56.85 1012.24,-58.52"/>
</g>
<!-- Node3&#45;&gt;Node6 -->
<g id="edge5" class="edge">
<title>Node3&#45;&gt;Node6</title>
<path fill="none" stroke="midnightblue" d="M1060.78,-63.13C1082.87,-52.8 1110.01,-40.11 1130.4,-30.58"/>
<polygon fill="midnightblue" stroke="midnightblue" points="1059.24,-59.99 1051.66,-67.4 1062.2,-66.33 1059.24,-59.99"/>
</g>
<!-- Node8 -->
<g id="node8" class="node">
<title>Node8</title>
<g id="a_node8"><a xlink:href="BasicAPI_8hpp.html" target="_top" xlink:title="Basic API include file to pull in at once most headers used.">
<polygon fill="white" stroke="black" points="312.5,-0.5 312.5,-30.5 440.5,-30.5 440.5,-0.5 312.5,-0.5"/>
<text text-anchor="start" x="320.5" y="-18.5" font-family="Helvetica,sans-Serif" font-size="10.00">Library/include/playrho</text>
<text text-anchor="middle" x="376.5" y="-7.5" font-family="Helvetica,sans-Serif" font-size="10.00">/d2/BasicAPI.hpp</text>
</a>
</g>
</g>
<!-- Node7&#45;&gt;Node8 -->
<g id="edge7" class="edge">
<title>Node7&#45;&gt;Node8</title>
<path fill="none" stroke="midnightblue" d="M521.89,-64.23C489.86,-53.71 449.46,-40.45 419.38,-30.58"/>
<polygon fill="midnightblue" stroke="midnightblue" points="520.94,-67.6 531.54,-67.4 523.13,-60.95 520.94,-67.6"/>
</g>
<!-- Node9&#45;&gt;Node8 -->
<g id="edge9" class="edge">
<title>Node9&#45;&gt;Node8</title>
<path fill="none" stroke="midnightblue" d="M646.14,-66.75C569.84,-52.1 493.18,-37.89 440.6,-28.22"/>
<polygon fill="midnightblue" stroke="midnightblue" points="645.93,-70.27 656.41,-68.73 647.26,-63.4 645.93,-70.27"/>
</g>
<!-- Node10&#45;&gt;Node8 -->
<g id="edge11" class="edge">
<title>Node10&#45;&gt;Node8</title>
<path fill="none" stroke="midnightblue" d="M792.71,-66.95C661.61,-46.94 520.56,-31.27 440.62,-22.94"/>
<polygon fill="midnightblue" stroke="midnightblue" points="792.52,-70.46 802.94,-68.52 793.59,-63.54 792.52,-70.46"/>
</g>
<!-- Node11&#45;&gt;Node8 -->
<g id="edge13" class="edge">
<title>Node11&#45;&gt;Node8</title>
<path fill="none" stroke="midnightblue" d="M139.14,-65.95C192,-54.94 262.16,-40.32 312.47,-29.84"/>
<polygon fill="midnightblue" stroke="midnightblue" points="138.22,-62.57 129.15,-68.03 139.65,-69.42 138.22,-62.57"/>
</g>
<!-- Node12&#45;&gt;Node8 -->
<g id="edge15" class="edge">
<title>Node12&#45;&gt;Node8</title>
<path fill="none" stroke="midnightblue" d="M260.7,-63.54C286.3,-53.14 318.07,-40.24 341.85,-30.58"/>
<polygon fill="midnightblue" stroke="midnightblue" points="259.16,-60.39 251.22,-67.4 261.8,-66.87 259.16,-60.39"/>
</g>
<!-- Node13&#45;&gt;Node8 -->
<g id="edge17" class="edge">
<title>Node13&#45;&gt;Node8</title>
<path fill="none" stroke="midnightblue" d="M223.42,-130.97C245.11,-122.6 269.89,-111.46 290.5,-98 320.3,-78.54 349.1,-48.16 364.64,-30.51"/>
<polygon fill="midnightblue" stroke="midnightblue" points="222.16,-127.7 214.02,-134.5 224.62,-134.26 222.16,-127.7"/>
</g>
<!-- Node14&#45;&gt;Node8 -->
<g id="edge19" class="edge">
<title>Node14&#45;&gt;Node8</title>
<path fill="none" stroke="midnightblue" d="M336.31,-124.75C346.51,-97.29 362.96,-52.99 371.29,-30.52"/>
<polygon fill="midnightblue" stroke="midnightblue" points="332.94,-123.78 332.74,-134.37 339.51,-126.22 332.94,-123.78"/>
</g>
<!-- Node15&#45;&gt;Node7 -->
<g id="edge21" class="edge">
<title>Node15&#45;&gt;Node7</title>
<path fill="none" stroke="midnightblue" d="M638.12,-128.45C623.97,-118.45 607.19,-106.6 594.42,-97.58"/>
<polygon fill="midnightblue" stroke="midnightblue" points="636.35,-131.48 646.54,-134.4 640.39,-125.77 636.35,-131.48"/>
</g>
<!-- Node16&#45;&gt;Node8 -->
<g id="edge26" class="edge">
<title>Node16&#45;&gt;Node8</title>
<path fill="none" stroke="midnightblue" d="M464.87,-126.54C442.95,-99.25 406.2,-53.48 387.76,-30.52"/>
<polygon fill="midnightblue" stroke="midnightblue" points="462.17,-128.77 471.16,-134.37 467.62,-124.39 462.17,-128.77"/>
</g>
</g>
</svg>
