<?xml version="1.0" encoding="UTF-8" standalone="no"?>
<!DOCTYPE svg PUBLIC "-//W3C//DTD SVG 1.1//EN"
 "http://www.w3.org/Graphics/SVG/1.1/DTD/svg11.dtd">
<!-- Generated by graphviz version 2.43.0 (0)
 -->
<!-- Title: Library/include/playrho/Math.hpp Pages: 1 -->
<svg width="2228pt" height="565pt"
 viewBox="0.00 0.00 2228.00 565.00" xmlns="http://www.w3.org/2000/svg" xmlns:xlink="http://www.w3.org/1999/xlink">
<g id="graph0" class="graph" transform="scale(1 1) rotate(0) translate(4 561)">
<title>Library/include/playrho/Math.hpp</title>
<polygon fill="white" stroke="transparent" points="-4,4 -4,-561 2224,-561 2224,4 -4,4"/>
<!-- Node1 -->
<g id="node1" class="node">
<title>Node1</title>
<g id="a_node1"><a xlink:title="Conventional and custom math related code.">
<polygon fill="#bfbfbf" stroke="black" points="1317.5,-526.5 1317.5,-556.5 1445.5,-556.5 1445.5,-526.5 1317.5,-526.5"/>
<text text-anchor="start" x="1325.5" y="-544.5" font-family="Helvetica,sans-Serif" font-size="10.00">Library/include/playrho</text>
<text text-anchor="middle" x="1381.5" y="-533.5" font-family="Helvetica,sans-Serif" font-size="10.00">/Math.hpp</text>
</a>
</g>
</g>
<!-- Node2 -->
<g id="node2" class="node">
<title>Node2</title>
<g id="a_node2"><a xlink:title=" ">
<polygon fill="white" stroke="#bfbfbf" points="177.5,-185 177.5,-204 229.5,-204 229.5,-185 177.5,-185"/>
<text text-anchor="middle" x="203.5" y="-192" font-family="Helvetica,sans-Serif" font-size="10.00">cassert</text>
</a>
</g>
</g>
<!-- Node1&#45;&gt;Node2 -->
<g id="edge1" class="edge">
<title>Node1&#45;&gt;Node2</title>
<path fill="none" stroke="midnightblue" d="M1317.43,-539.81C1097.6,-536.6 387.5,-518.98 387.5,-425 387.5,-425 387.5,-425 387.5,-311 387.5,-292.57 280.3,-234.98 229.55,-208.75"/>
<polygon fill="midnightblue" stroke="midnightblue" points="230.97,-205.55 220.48,-204.09 227.77,-211.78 230.97,-205.55"/>
</g>
<!-- Node3 -->
<g id="node3" class="node">
<title>Node3</title>
<g id="a_node3"><a xlink:title=" ">
<polygon fill="white" stroke="#bfbfbf" points="1371,-246.5 1371,-265.5 1418,-265.5 1418,-246.5 1371,-246.5"/>
<text text-anchor="middle" x="1394.5" y="-253.5" font-family="Helvetica,sans-Serif" font-size="10.00">cmath</text>
</a>
</g>
</g>
<!-- Node1&#45;&gt;Node3 -->
<g id="edge2" class="edge">
<title>Node1&#45;&gt;Node3</title>
<path fill="none" stroke="midnightblue" d="M1383.52,-526.31C1386.45,-504.55 1391.5,-461.63 1391.5,-425 1391.5,-425 1391.5,-425 1391.5,-367 1391.5,-334.94 1392.79,-297.63 1393.68,-275.74"/>
<polygon fill="midnightblue" stroke="midnightblue" points="1397.18,-275.69 1394.11,-265.56 1390.19,-275.4 1397.18,-275.69"/>
</g>
<!-- Node4 -->
<g id="node4" class="node">
<title>Node4</title>
<g id="a_node4"><a xlink:title=" ">
<polygon fill="white" stroke="#bfbfbf" points="1855.5,-185 1855.5,-204 1905.5,-204 1905.5,-185 1855.5,-185"/>
<text text-anchor="middle" x="1880.5" y="-192" font-family="Helvetica,sans-Serif" font-size="10.00">cstdint</text>
</a>
</g>
</g>
<!-- Node1&#45;&gt;Node4 -->
<g id="edge3" class="edge">
<title>Node1&#45;&gt;Node4</title>
<path fill="none" stroke="midnightblue" d="M1445.84,-540.24C1537.09,-538.37 1708.56,-529.33 1848.5,-490 1913.77,-471.66 1986.5,-492.8 1986.5,-425 1986.5,-425 1986.5,-425 1986.5,-367 1986.5,-301.09 1929.15,-239.36 1898.82,-211.31"/>
<polygon fill="midnightblue" stroke="midnightblue" points="1900.83,-208.41 1891.05,-204.32 1896.14,-213.61 1900.83,-208.41"/>
</g>
<!-- Node5 -->
<g id="node5" class="node">
<title>Node5</title>
<g id="a_node5"><a xlink:title=" ">
<polygon fill="white" stroke="#bfbfbf" points="1114,-62 1114,-81 1163,-81 1163,-62 1114,-62"/>
<text text-anchor="middle" x="1138.5" y="-69" font-family="Helvetica,sans-Serif" font-size="10.00">cstdlib</text>
</a>
</g>
</g>
<!-- Node1&#45;&gt;Node5 -->
<g id="edge4" class="edge">
<title>Node1&#45;&gt;Node5</title>
<path fill="none" stroke="midnightblue" d="M1445.92,-537.46C1570.99,-529.79 1834.5,-504.23 1834.5,-425 1834.5,-425 1834.5,-425 1834.5,-367 1834.5,-336.9 1836.38,-323.68 1815.5,-302 1780.4,-265.56 1755.45,-282.15 1707.5,-266 1504.45,-197.63 1261.06,-114.45 1172.68,-84.2"/>
<polygon fill="midnightblue" stroke="midnightblue" points="1173.76,-80.87 1163.16,-80.95 1171.49,-87.5 1173.76,-80.87"/>
</g>
<!-- Node6 -->
<g id="node6" class="node">
<title>Node6</title>
<g id="a_node6"><a xlink:title=" ">
<polygon fill="white" stroke="#bfbfbf" points="1934.5,-123.5 1934.5,-142.5 1978.5,-142.5 1978.5,-123.5 1934.5,-123.5"/>
<text text-anchor="middle" x="1956.5" y="-130.5" font-family="Helvetica,sans-Serif" font-size="10.00">limits</text>
</a>
</g>
</g>
<!-- Node1&#45;&gt;Node6 -->
<g id="edge5" class="edge">
<title>Node1&#45;&gt;Node6</title>
<path fill="none" stroke="midnightblue" d="M1445.92,-538.05C1568.68,-532.78 1831.55,-518.48 1917.5,-490 1970.32,-472.5 2024.5,-480.64 2024.5,-425 2024.5,-425 2024.5,-425 2024.5,-367 2024.5,-283.8 1984.05,-190.34 1965.55,-151.94"/>
<polygon fill="midnightblue" stroke="midnightblue" points="1968.52,-150.05 1960.96,-142.62 1962.24,-153.14 1968.52,-150.05"/>
</g>
<!-- Node7 -->
<g id="node7" class="node">
<title>Node7</title>
<g id="a_node7"><a xlink:title=" ">
<polygon fill="white" stroke="#bfbfbf" points="2098.5,-470.5 2098.5,-489.5 2154.5,-489.5 2154.5,-470.5 2098.5,-470.5"/>
<text text-anchor="middle" x="2126.5" y="-477.5" font-family="Helvetica,sans-Serif" font-size="10.00">numeric</text>
</a>
</g>
</g>
<!-- Node1&#45;&gt;Node7 -->
<g id="edge6" class="edge">
<title>Node1&#45;&gt;Node7</title>
<path fill="none" stroke="midnightblue" d="M1445.79,-538.88C1569.86,-535.08 1850.7,-523.28 2084.5,-490 2085.75,-489.82 2087.01,-489.63 2088.28,-489.42"/>
<polygon fill="midnightblue" stroke="midnightblue" points="2088.91,-492.87 2098.13,-487.64 2087.67,-485.98 2088.91,-492.87"/>
</g>
<!-- Node8 -->
<g id="node8" class="node">
<title>Node8</title>
<g id="a_node8"><a xlink:title=" ">
<polygon fill="white" stroke="#bfbfbf" points="1032,-0.5 1032,-19.5 1101,-19.5 1101,-0.5 1032,-0.5"/>
<text text-anchor="middle" x="1066.5" y="-7.5" font-family="Helvetica,sans-Serif" font-size="10.00">type_traits</text>
</a>
</g>
</g>
<!-- Node1&#45;&gt;Node8 -->
<g id="edge7" class="edge">
<title>Node1&#45;&gt;Node8</title>
<path fill="none" stroke="midnightblue" d="M1445.7,-538.92C1577.64,-535.05 1874.89,-522.85 1970.5,-490 2020.63,-472.78 2070.5,-478.01 2070.5,-425 2070.5,-425 2070.5,-425 2070.5,-132 2070.5,-49.24 1980.95,-75.44 1900.5,-56 1748.75,-19.32 1262.22,-12.51 1111.47,-11.27"/>
<polygon fill="midnightblue" stroke="midnightblue" points="1111.23,-7.77 1101.2,-11.19 1111.17,-14.77 1111.23,-7.77"/>
</g>
<!-- Node9 -->
<g id="node9" class="node">
<title>Node9</title>
<g id="a_node9"><a xlink:title=" ">
<polygon fill="white" stroke="#bfbfbf" points="2173,-470.5 2173,-489.5 2220,-489.5 2220,-470.5 2173,-470.5"/>
<text text-anchor="middle" x="2196.5" y="-477.5" font-family="Helvetica,sans-Serif" font-size="10.00">vector</text>
</a>
</g>
</g>
<!-- Node1&#45;&gt;Node9 -->
<g id="edge8" class="edge">
<title>Node1&#45;&gt;Node9</title>
<path fill="none" stroke="midnightblue" d="M1445.61,-540.72C1578.15,-540.22 1891.87,-534.19 2162.81,-489.73"/>
<polygon fill="midnightblue" stroke="midnightblue" points="2163.54,-493.16 2172.83,-488.07 2162.4,-486.25 2163.54,-493.16"/>
</g>
<!-- Node10 -->
<g id="node10" class="node">
<title>Node10</title>
<g id="a_node10"><a xlink:href="Matrix_8hpp.html" target="_top" xlink:title="Definition of the Matrix alias and closely related code.">
<polygon fill="white" stroke="black" points="936,-470.5 936,-489.5 1045,-489.5 1045,-470.5 936,-470.5"/>
<text text-anchor="middle" x="990.5" y="-477.5" font-family="Helvetica,sans-Serif" font-size="10.00">playrho/Matrix.hpp</text>
</a>
</g>
</g>
<!-- Node1&#45;&gt;Node10 -->
<g id="edge9" class="edge">
<title>Node1&#45;&gt;Node10</title>
<path fill="none" stroke="midnightblue" d="M1317.37,-530.74C1244.95,-519.72 1127.76,-501.89 1055.13,-490.84"/>
<polygon fill="midnightblue" stroke="midnightblue" points="1055.6,-487.37 1045.19,-489.32 1054.55,-494.29 1055.6,-487.37"/>
</g>
<!-- Node11 -->
<g id="node11" class="node">
<title>Node11</title>
<g id="a_node11"><a xlink:href="Vector_8hpp.html" target="_top" xlink:title="Definition of the Vector class template and closely related code.">
<polygon fill="white" stroke="black" points="755,-246.5 755,-265.5 862,-265.5 862,-246.5 755,-246.5"/>
<text text-anchor="middle" x="808.5" y="-253.5" font-family="Helvetica,sans-Serif" font-size="10.00">playrho/Vector.hpp</text>
</a>
</g>
</g>
<!-- Node1&#45;&gt;Node11 -->
<g id="edge78" class="edge">
<title>Node1&#45;&gt;Node11</title>
<path fill="none" stroke="midnightblue" d="M1317.4,-538.69C1228.62,-534.99 1063.75,-523.78 927.5,-490 851,-471.03 762.5,-503.82 762.5,-425 762.5,-425 762.5,-425 762.5,-367 762.5,-331.82 782.78,-294.86 796.41,-274"/>
<polygon fill="midnightblue" stroke="midnightblue" points="799.38,-275.85 802.1,-265.61 793.59,-271.92 799.38,-275.85"/>
</g>
<!-- Node19 -->
<g id="node19" class="node">
<title>Node19</title>
<g id="a_node19"><a xlink:href="Real_8hpp.html" target="_top" xlink:title="Real number definition file.">
<polygon fill="white" stroke="black" points="1133,-185 1133,-204 1232,-204 1232,-185 1133,-185"/>
<text text-anchor="middle" x="1182.5" y="-192" font-family="Helvetica,sans-Serif" font-size="10.00">playrho/Real.hpp</text>
</a>
</g>
</g>
<!-- Node1&#45;&gt;Node19 -->
<g id="edge69" class="edge">
<title>Node1&#45;&gt;Node19</title>
<path fill="none" stroke="midnightblue" d="M1445.77,-529.55C1501.91,-515.86 1574.5,-486.31 1574.5,-425 1574.5,-425 1574.5,-425 1574.5,-367 1574.5,-312.56 1629.57,-286.77 1593.5,-246 1570.63,-220.15 1350.76,-204.66 1242.34,-198.54"/>
<polygon fill="midnightblue" stroke="midnightblue" points="1242.38,-195.04 1232.21,-197.98 1242,-202.03 1242.38,-195.04"/>
</g>
<!-- Node23 -->
<g id="node23" class="node">
<title>Node23</title>
<g id="a_node23"><a xlink:href="Vector2_8hpp.html" target="_top" xlink:title="Definition of the Vector2 alias template and closely related code.">
<polygon fill="white" stroke="black" points="1201.5,-414.5 1201.5,-433.5 1315.5,-433.5 1315.5,-414.5 1201.5,-414.5"/>
<text text-anchor="middle" x="1258.5" y="-421.5" font-family="Helvetica,sans-Serif" font-size="10.00">playrho/Vector2.hpp</text>
</a>
</g>
</g>
<!-- Node1&#45;&gt;Node23 -->
<g id="edge79" class="edge">
<title>Node1&#45;&gt;Node23</title>
<path fill="none" stroke="midnightblue" d="M1366.42,-526.34C1343.25,-504.58 1299.07,-463.09 1275.05,-440.54"/>
<polygon fill="midnightblue" stroke="midnightblue" points="1277.42,-437.96 1267.73,-433.67 1272.63,-443.07 1277.42,-437.96"/>
</g>
<!-- Node26 -->
<g id="node26" class="node">
<title>Node26</title>
<g id="a_node26"><a xlink:href="Units_8hpp.html" target="_top" xlink:title="Declarations for physical units possibly backed by strong types.">
<polygon fill="white" stroke="black" points="1207,-302.5 1207,-321.5 1310,-321.5 1310,-302.5 1207,-302.5"/>
<text text-anchor="middle" x="1258.5" y="-309.5" font-family="Helvetica,sans-Serif" font-size="10.00">playrho/Units.hpp</text>
</a>
</g>
</g>
<!-- Node1&#45;&gt;Node26 -->
<g id="edge77" class="edge">
<title>Node1&#45;&gt;Node26</title>
<path fill="none" stroke="midnightblue" d="M1376.03,-526.49C1366.58,-502.8 1346.14,-453.51 1324.5,-414 1307.65,-383.23 1284.6,-349.49 1270.67,-329.84"/>
<polygon fill="midnightblue" stroke="midnightblue" points="1273.47,-327.73 1264.8,-321.63 1267.77,-331.8 1273.47,-327.73"/>
</g>
<!-- Node32 -->
<g id="node32" class="node">
<title>Node32</title>
<g id="a_node32"><a xlink:href="NonNegative_8hpp.html" target="_top" xlink:title="Definition of the NonNegative value checked types.">
<polygon fill="white" stroke="black" points="554,-246.5 554,-265.5 695,-265.5 695,-246.5 554,-246.5"/>
<text text-anchor="middle" x="624.5" y="-253.5" font-family="Helvetica,sans-Serif" font-size="10.00">playrho/NonNegative.hpp</text>
</a>
</g>
</g>
<!-- Node1&#45;&gt;Node32 -->
<g id="edge60" class="edge">
<title>Node1&#45;&gt;Node32</title>
<path fill="none" stroke="midnightblue" d="M1317.26,-538.76C1183.26,-534.54 878.17,-521.68 779.5,-490 725.8,-472.76 670.5,-481.4 670.5,-425 670.5,-425 670.5,-425 670.5,-367 670.5,-331.82 650.22,-294.86 636.59,-274"/>
<polygon fill="midnightblue" stroke="midnightblue" points="639.41,-271.92 630.9,-265.61 633.62,-275.85 639.41,-271.92"/>
</g>
<!-- Node35 -->
<g id="node35" class="node">
<title>Node35</title>
<g id="a_node35"><a xlink:href="Span_8hpp.html" target="_top" xlink:title="Definition of the Span class template.">
<polygon fill="white" stroke="black" points="153,-246.5 153,-265.5 254,-265.5 254,-246.5 153,-246.5"/>
<text text-anchor="middle" x="203.5" y="-253.5" font-family="Helvetica,sans-Serif" font-size="10.00">playrho/Span.hpp</text>
</a>
</g>
</g>
<!-- Node1&#45;&gt;Node35 -->
<g id="edge70" class="edge">
<title>Node1&#45;&gt;Node35</title>
<path fill="none" stroke="midnightblue" d="M1317.37,-538.78C1170.34,-534.35 812.66,-520.69 696.5,-490 631.34,-472.79 559.5,-492.39 559.5,-425 559.5,-425 559.5,-425 559.5,-367 559.5,-305.94 365.94,-275.12 264.27,-263.14"/>
<polygon fill="midnightblue" stroke="midnightblue" points="264.46,-259.64 254.13,-261.97 263.66,-266.6 264.46,-259.64"/>
</g>
<!-- Node37 -->
<g id="node37" class="node">
<title>Node37</title>
<g id="a_node37"><a xlink:href="Vector3_8hpp.html" target="_top" xlink:title="Definition of the Vector3 alias template and closely related code.">
<polygon fill="white" stroke="black" points="1069.5,-414.5 1069.5,-433.5 1183.5,-433.5 1183.5,-414.5 1069.5,-414.5"/>
<text text-anchor="middle" x="1126.5" y="-421.5" font-family="Helvetica,sans-Serif" font-size="10.00">playrho/Vector3.hpp</text>
</a>
</g>
</g>
<!-- Node1&#45;&gt;Node37 -->
<g id="edge80" class="edge">
<title>Node1&#45;&gt;Node37</title>
<path fill="none" stroke="midnightblue" d="M1350.49,-526.45C1300.44,-503.79 1202.64,-459.49 1154.56,-437.71"/>
<polygon fill="midnightblue" stroke="midnightblue" points="1155.91,-434.48 1145.36,-433.54 1153.02,-440.86 1155.91,-434.48"/>
</g>
<!-- Node10&#45;&gt;Node5 -->
<g id="edge10" class="edge">
<title>Node10&#45;&gt;Node5</title>
<path fill="none" stroke="midnightblue" d="M985.22,-470.23C974.77,-452.04 952.5,-408.6 952.5,-369 952.5,-369 952.5,-369 952.5,-311 952.5,-250.88 1003.02,-255.34 1042.5,-210 1068.17,-180.51 1077.26,-175.15 1099.5,-143 1111.28,-125.97 1122.48,-105.05 1129.83,-90.45"/>
<polygon fill="midnightblue" stroke="midnightblue" points="1133.17,-91.59 1134.45,-81.07 1126.89,-88.49 1133.17,-91.59"/>
</g>
<!-- Node10&#45;&gt;Node8 -->
<g id="edge11" class="edge">
<title>Node10&#45;&gt;Node8</title>
<path fill="none" stroke="midnightblue" d="M981.73,-470.2C973.81,-461.69 962.49,-448.05 956.5,-434 933.27,-379.54 925.31,-359.72 938.5,-302 957.53,-218.72 1003.46,-216.79 1046.5,-143 1060.06,-119.76 1064.29,-113.4 1069.5,-87 1073.29,-67.8 1071.69,-45.36 1069.66,-29.86"/>
<polygon fill="midnightblue" stroke="midnightblue" points="1073.06,-28.91 1068.12,-19.53 1066.14,-29.94 1073.06,-28.91"/>
</g>
<!-- Node10&#45;&gt;Node11 -->
<g id="edge12" class="edge">
<title>Node10&#45;&gt;Node11</title>
<path fill="none" stroke="midnightblue" d="M935.79,-471.36C910.44,-465.19 881.74,-454.06 862.5,-434 819.75,-389.42 810.75,-311.96 808.92,-276.16"/>
<polygon fill="midnightblue" stroke="midnightblue" points="812.41,-275.59 808.54,-265.72 805.41,-275.84 812.41,-275.59"/>
</g>
<!-- Node10&#45;&gt;Node19 -->
<g id="edge58" class="edge">
<title>Node10&#45;&gt;Node19</title>
<path fill="none" stroke="midnightblue" d="M990.5,-470.44C990.5,-451.94 990.5,-406.81 990.5,-369 990.5,-369 990.5,-369 990.5,-311 990.5,-274.38 1094.36,-229.15 1149.3,-207.78"/>
<polygon fill="midnightblue" stroke="midnightblue" points="1150.87,-210.93 1158.96,-204.08 1148.37,-204.39 1150.87,-210.93"/>
</g>
<!-- Node10&#45;&gt;Node23 -->
<g id="edge33" class="edge">
<title>Node10&#45;&gt;Node23</title>
<path fill="none" stroke="midnightblue" d="M1032.97,-470.44C1079.91,-460.98 1155.58,-445.74 1206.15,-435.55"/>
<polygon fill="midnightblue" stroke="midnightblue" points="1207.12,-438.92 1216.23,-433.52 1205.74,-432.06 1207.12,-438.92"/>
</g>
<!-- Node10&#45;&gt;Node26 -->
<g id="edge59" class="edge">
<title>Node10&#45;&gt;Node26</title>
<path fill="none" stroke="midnightblue" d="M998.46,-470.18C1010.82,-456.85 1035.76,-431.29 1060.5,-414 1115.72,-375.4 1187.72,-342.47 1227.93,-325.43"/>
<polygon fill="midnightblue" stroke="midnightblue" points="1229.33,-328.64 1237.2,-321.55 1226.62,-322.18 1229.33,-328.64"/>
</g>
<!-- Node11&#45;&gt;Node2 -->
<g id="edge14" class="edge">
<title>Node11&#45;&gt;Node2</title>
<path fill="none" stroke="midnightblue" d="M754.82,-250.31C738.36,-248.9 720.19,-247.36 703.5,-246 496.9,-229.15 440.09,-258.27 238.5,-210 235.98,-209.4 233.41,-208.64 230.86,-207.78"/>
<polygon fill="midnightblue" stroke="midnightblue" points="231.89,-204.43 221.3,-204.14 229.4,-210.97 231.89,-204.43"/>
</g>
<!-- Node11&#45;&gt;Node8 -->
<g id="edge19" class="edge">
<title>Node11&#45;&gt;Node8</title>
<path fill="none" stroke="midnightblue" d="M853.67,-246.44C883.61,-239.51 923.03,-227.91 954.5,-210 993.06,-188.06 1005.02,-180.65 1028.5,-143 1051.14,-106.7 1060.71,-56.47 1064.41,-29.64"/>
<polygon fill="midnightblue" stroke="midnightblue" points="1067.89,-30.05 1065.66,-19.69 1060.94,-29.18 1067.89,-30.05"/>
</g>
<!-- Node12 -->
<g id="node12" class="node">
<title>Node12</title>
<g id="a_node12"><a xlink:title=" ">
<polygon fill="white" stroke="#bfbfbf" points="339.5,-0.5 339.5,-19.5 403.5,-19.5 403.5,-0.5 339.5,-0.5"/>
<text text-anchor="middle" x="371.5" y="-7.5" font-family="Helvetica,sans-Serif" font-size="10.00">algorithm</text>
</a>
</g>
</g>
<!-- Node11&#45;&gt;Node12 -->
<g id="edge13" class="edge">
<title>Node11&#45;&gt;Node12</title>
<path fill="none" stroke="midnightblue" d="M754.69,-247.78C707.96,-240.72 638.82,-228.32 580.5,-210 515.66,-189.63 337.66,-143.9 300.5,-87 292.97,-75.46 293.86,-68.07 300.5,-56 308.39,-41.66 322.99,-31.25 336.9,-24.08"/>
<polygon fill="midnightblue" stroke="midnightblue" points="338.79,-27.06 346.34,-19.62 335.8,-20.73 338.79,-27.06"/>
</g>
<!-- Node13 -->
<g id="node13" class="node">
<title>Node13</title>
<g id="a_node13"><a xlink:title=" ">
<polygon fill="white" stroke="#bfbfbf" points="417,-185 417,-204 470,-204 470,-185 417,-185"/>
<text text-anchor="middle" x="443.5" y="-192" font-family="Helvetica,sans-Serif" font-size="10.00">cstddef</text>
</a>
</g>
</g>
<!-- Node11&#45;&gt;Node13 -->
<g id="edge15" class="edge">
<title>Node11&#45;&gt;Node13</title>
<path fill="none" stroke="midnightblue" d="M754.84,-250.89C690.07,-245.16 578.16,-232.82 484.5,-210 481.27,-209.21 477.94,-208.27 474.64,-207.24"/>
<polygon fill="midnightblue" stroke="midnightblue" points="475.55,-203.86 464.96,-204.01 473.33,-210.5 475.55,-203.86"/>
</g>
<!-- Node14 -->
<g id="node14" class="node">
<title>Node14</title>
<g id="a_node14"><a xlink:title=" ">
<polygon fill="white" stroke="#bfbfbf" points="445,-0.5 445,-19.5 498,-19.5 498,-0.5 445,-0.5"/>
<text text-anchor="middle" x="471.5" y="-7.5" font-family="Helvetica,sans-Serif" font-size="10.00">iterator</text>
</a>
</g>
</g>
<!-- Node11&#45;&gt;Node14 -->
<g id="edge16" class="edge">
<title>Node11&#45;&gt;Node14</title>
<path fill="none" stroke="midnightblue" d="M754.7,-251.75C715.1,-247.16 661.43,-236.19 621.5,-210 549.44,-162.73 498.7,-68.54 479.73,-29.06"/>
<polygon fill="midnightblue" stroke="midnightblue" points="482.83,-27.43 475.42,-19.86 476.5,-30.4 482.83,-27.43"/>
</g>
<!-- Node15 -->
<g id="node15" class="node">
<title>Node15</title>
<g id="a_node15"><a xlink:title=" ">
<polygon fill="white" stroke="#bfbfbf" points="813.5,-123.5 813.5,-142.5 873.5,-142.5 873.5,-123.5 813.5,-123.5"/>
<text text-anchor="middle" x="843.5" y="-130.5" font-family="Helvetica,sans-Serif" font-size="10.00">iostream</text>
</a>
</g>
</g>
<!-- Node11&#45;&gt;Node15 -->
<g id="edge17" class="edge">
<title>Node11&#45;&gt;Node15</title>
<path fill="none" stroke="midnightblue" d="M811.02,-246.3C816.67,-226.76 830.46,-179.06 838.14,-152.55"/>
<polygon fill="midnightblue" stroke="midnightblue" points="841.59,-153.2 841.01,-142.62 834.86,-151.26 841.59,-153.2"/>
</g>
<!-- Node16 -->
<g id="node16" class="node">
<title>Node16</title>
<g id="a_node16"><a xlink:title=" ">
<polygon fill="white" stroke="#bfbfbf" points="883,-185 883,-204 924,-204 924,-185 883,-185"/>
<text text-anchor="middle" x="903.5" y="-192" font-family="Helvetica,sans-Serif" font-size="10.00">tuple</text>
</a>
</g>
</g>
<!-- Node11&#45;&gt;Node16 -->
<g id="edge18" class="edge">
<title>Node11&#45;&gt;Node16</title>
<path fill="none" stroke="midnightblue" d="M822.11,-246.48C837.56,-236.8 862.99,-220.87 881.32,-209.39"/>
<polygon fill="midnightblue" stroke="midnightblue" points="883.3,-212.28 889.91,-204.01 879.58,-206.35 883.3,-212.28"/>
</g>
<!-- Node17 -->
<g id="node17" class="node">
<title>Node17</title>
<g id="a_node17"><a xlink:href="InvalidArgument_8hpp.html" target="_top" xlink:title="Definition of the InvalidArgument class.">
<polygon fill="white" stroke="black" points="599.5,-123.5 599.5,-142.5 757.5,-142.5 757.5,-123.5 599.5,-123.5"/>
<text text-anchor="middle" x="678.5" y="-130.5" font-family="Helvetica,sans-Serif" font-size="10.00">playrho/InvalidArgument.hpp</text>
</a>
</g>
</g>
<!-- Node11&#45;&gt;Node17 -->
<g id="edge20" class="edge">
<title>Node11&#45;&gt;Node17</title>
<path fill="none" stroke="midnightblue" d="M754.78,-248.68C708.13,-241.96 645.73,-229.55 630.5,-210 614.88,-189.94 638.57,-164.64 657.87,-148.89"/>
<polygon fill="midnightblue" stroke="midnightblue" points="660.26,-151.47 666.01,-142.57 655.97,-145.94 660.26,-151.47"/>
</g>
<!-- Node11&#45;&gt;Node19 -->
<g id="edge22" class="edge">
<title>Node11&#45;&gt;Node19</title>
<path fill="none" stroke="midnightblue" d="M862.09,-246.48C931.1,-235.5 1050.71,-216.47 1122.64,-205.02"/>
<polygon fill="midnightblue" stroke="midnightblue" points="1123.57,-208.42 1132.89,-203.39 1122.47,-201.51 1123.57,-208.42"/>
</g>
<!-- Node20 -->
<g id="node20" class="node">
<title>Node20</title>
<g id="a_node20"><a xlink:href="Templates_8hpp.html" target="_top" xlink:title="Definitions of miscellaneous template related code.">
<polygon fill="white" stroke="black" points="891.5,-123.5 891.5,-142.5 1019.5,-142.5 1019.5,-123.5 891.5,-123.5"/>
<text text-anchor="middle" x="955.5" y="-130.5" font-family="Helvetica,sans-Serif" font-size="10.00">playrho/Templates.hpp</text>
</a>
</g>
</g>
<!-- Node11&#45;&gt;Node20 -->
<g id="edge32" class="edge">
<title>Node11&#45;&gt;Node20</title>
<path fill="none" stroke="midnightblue" d="M862.08,-247.17C886.87,-240.96 914.88,-229.85 933.5,-210 948.01,-194.54 953.02,-170.08 954.71,-153.11"/>
<polygon fill="midnightblue" stroke="midnightblue" points="958.23,-152.97 955.43,-142.75 951.25,-152.49 958.23,-152.97"/>
</g>
<!-- Node18 -->
<g id="node18" class="node">
<title>Node18</title>
<g id="a_node18"><a xlink:title=" ">
<polygon fill="white" stroke="#bfbfbf" points="646,-62 646,-81 711,-81 711,-62 646,-62"/>
<text text-anchor="middle" x="678.5" y="-69" font-family="Helvetica,sans-Serif" font-size="10.00">stdexcept</text>
</a>
</g>
</g>
<!-- Node17&#45;&gt;Node18 -->
<g id="edge21" class="edge">
<title>Node17&#45;&gt;Node18</title>
<path fill="none" stroke="midnightblue" d="M678.5,-123.48C678.5,-115.08 678.5,-101.98 678.5,-91.16"/>
<polygon fill="midnightblue" stroke="midnightblue" points="682,-91.01 678.5,-81.01 675,-91.01 682,-91.01"/>
</g>
<!-- Node19&#45;&gt;Node6 -->
<g id="edge23" class="edge">
<title>Node19&#45;&gt;Node6</title>
<path fill="none" stroke="midnightblue" d="M1232.09,-189.69C1378,-178.47 1803.12,-145.79 1924.06,-136.49"/>
<polygon fill="midnightblue" stroke="midnightblue" points="1924.46,-139.97 1934.16,-135.72 1923.92,-132.99 1924.46,-139.97"/>
</g>
<!-- Node19&#45;&gt;Node20 -->
<g id="edge24" class="edge">
<title>Node19&#45;&gt;Node20</title>
<path fill="none" stroke="midnightblue" d="M1149.98,-184.98C1109.94,-174.48 1041.86,-156.64 997.8,-145.09"/>
<polygon fill="midnightblue" stroke="midnightblue" points="998.52,-141.66 987.96,-142.51 996.75,-148.43 998.52,-141.66"/>
</g>
<!-- Node20&#45;&gt;Node5 -->
<g id="edge25" class="edge">
<title>Node20&#45;&gt;Node5</title>
<path fill="none" stroke="midnightblue" d="M981.72,-123.48C1013.83,-113.03 1068.33,-95.32 1103.86,-83.76"/>
<polygon fill="midnightblue" stroke="midnightblue" points="1105.37,-86.95 1113.79,-80.53 1103.2,-80.3 1105.37,-86.95"/>
</g>
<!-- Node20&#45;&gt;Node8 -->
<g id="edge26" class="edge">
<title>Node20&#45;&gt;Node8</title>
<path fill="none" stroke="midnightblue" d="M963.48,-123.3C981.96,-103.15 1027.92,-53.06 1051.71,-27.12"/>
<polygon fill="midnightblue" stroke="midnightblue" points="1054.41,-29.36 1058.59,-19.62 1049.25,-24.63 1054.41,-29.36"/>
</g>
<!-- Node21 -->
<g id="node21" class="node">
<title>Node21</title>
<g id="a_node21"><a xlink:href="detail_2Templates_8hpp.html" target="_top" xlink:title="Low&#45;level declarations for general class &amp; function templates.">
<polygon fill="white" stroke="black" points="309.5,-62 309.5,-81 467.5,-81 467.5,-62 309.5,-62"/>
<text text-anchor="middle" x="388.5" y="-69" font-family="Helvetica,sans-Serif" font-size="10.00">playrho/detail/Templates.hpp</text>
</a>
</g>
</g>
<!-- Node20&#45;&gt;Node21 -->
<g id="edge27" class="edge">
<title>Node20&#45;&gt;Node21</title>
<path fill="none" stroke="midnightblue" d="M891.41,-124.02C888.4,-123.67 885.42,-123.33 882.5,-123 741.08,-107.06 576.63,-90.68 477.66,-81.05"/>
<polygon fill="midnightblue" stroke="midnightblue" points="477.99,-77.57 467.7,-80.08 477.31,-84.53 477.99,-77.57"/>
</g>
<!-- Node21&#45;&gt;Node8 -->
<g id="edge30" class="edge">
<title>Node21&#45;&gt;Node8</title>
<path fill="none" stroke="midnightblue" d="M462.25,-61.97C480.92,-59.91 500.94,-57.79 519.5,-56 705.81,-38.03 928.25,-21.14 1021.69,-14.26"/>
<polygon fill="midnightblue" stroke="midnightblue" points="1022.19,-17.73 1031.91,-13.51 1021.68,-10.75 1022.19,-17.73"/>
</g>
<!-- Node21&#45;&gt;Node12 -->
<g id="edge28" class="edge">
<title>Node21&#45;&gt;Node12</title>
<path fill="none" stroke="midnightblue" d="M386.06,-61.98C383.64,-53.49 379.84,-40.2 376.73,-29.32"/>
<polygon fill="midnightblue" stroke="midnightblue" points="380.04,-28.16 373.93,-19.51 373.31,-30.09 380.04,-28.16"/>
</g>
<!-- Node21&#45;&gt;Node14 -->
<g id="edge29" class="edge">
<title>Node21&#45;&gt;Node14</title>
<path fill="none" stroke="midnightblue" d="M400.39,-61.98C413.7,-52.43 435.5,-36.81 451.46,-25.37"/>
<polygon fill="midnightblue" stroke="midnightblue" points="453.54,-28.18 459.63,-19.51 449.46,-22.49 453.54,-28.18"/>
</g>
<!-- Node22 -->
<g id="node22" class="node">
<title>Node22</title>
<g id="a_node22"><a xlink:title=" ">
<polygon fill="white" stroke="#bfbfbf" points="259,-0.5 259,-19.5 304,-19.5 304,-0.5 259,-0.5"/>
<text text-anchor="middle" x="281.5" y="-7.5" font-family="Helvetica,sans-Serif" font-size="10.00">utility</text>
</a>
</g>
</g>
<!-- Node21&#45;&gt;Node22 -->
<g id="edge31" class="edge">
<title>Node21&#45;&gt;Node22</title>
<path fill="none" stroke="midnightblue" d="M373.17,-61.98C355.53,-52.17 326.34,-35.93 305.64,-24.42"/>
<polygon fill="midnightblue" stroke="midnightblue" points="307.24,-21.31 296.8,-19.51 303.84,-27.43 307.24,-21.31"/>
</g>
<!-- Node23&#45;&gt;Node11 -->
<g id="edge57" class="edge">
<title>Node23&#45;&gt;Node11</title>
<path fill="none" stroke="midnightblue" d="M1220.33,-414.43C1185.97,-406.33 1134.3,-393.17 1090.5,-378 994.23,-344.65 884.41,-293.6 835.02,-269.91"/>
<polygon fill="midnightblue" stroke="midnightblue" points="836.5,-266.73 825.97,-265.55 833.46,-273.04 836.5,-266.73"/>
</g>
<!-- Node23&#45;&gt;Node19 -->
<g id="edge34" class="edge">
<title>Node23&#45;&gt;Node19</title>
<path fill="none" stroke="midnightblue" d="M1250.3,-414.38C1229.73,-392.07 1176.23,-329.74 1157.5,-266 1152.09,-247.58 1161.27,-226.91 1169.99,-212.75"/>
<polygon fill="midnightblue" stroke="midnightblue" points="1173.13,-214.34 1175.77,-204.08 1167.31,-210.46 1173.13,-214.34"/>
</g>
<!-- Node24 -->
<g id="node24" class="node">
<title>Node24</title>
<g id="a_node24"><a xlink:href="Settings_8hpp.html" target="_top" xlink:title="Types and default settings file.">
<polygon fill="white" stroke="black" points="1603,-358.5 1603,-377.5 1720,-377.5 1720,-358.5 1603,-358.5"/>
<text text-anchor="middle" x="1661.5" y="-365.5" font-family="Helvetica,sans-Serif" font-size="10.00">playrho/Settings.hpp</text>
</a>
</g>
</g>
<!-- Node23&#45;&gt;Node24 -->
<g id="edge35" class="edge">
<title>Node23&#45;&gt;Node24</title>
<path fill="none" stroke="midnightblue" d="M1315.81,-415.32C1388.71,-405.55 1514.46,-388.7 1592.53,-378.24"/>
<polygon fill="midnightblue" stroke="midnightblue" points="1593.3,-381.67 1602.75,-376.87 1592.37,-374.73 1593.3,-381.67"/>
</g>
<!-- Node23&#45;&gt;Node26 -->
<g id="edge56" class="edge">
<title>Node23&#45;&gt;Node26</title>
<path fill="none" stroke="midnightblue" d="M1258.5,-414.37C1258.5,-396.62 1258.5,-355.67 1258.5,-331.6"/>
<polygon fill="midnightblue" stroke="midnightblue" points="1262,-331.59 1258.5,-321.59 1255,-331.59 1262,-331.59"/>
</g>
<!-- Node24&#45;&gt;Node4 -->
<g id="edge36" class="edge">
<title>Node24&#45;&gt;Node4</title>
<path fill="none" stroke="midnightblue" d="M1719.86,-358.47C1750.24,-352.01 1786.91,-340.88 1815.5,-322 1842.38,-304.25 1846.76,-294.64 1861.5,-266 1870.01,-249.47 1875,-228.75 1877.72,-214.06"/>
<polygon fill="midnightblue" stroke="midnightblue" points="1881.17,-214.61 1879.37,-204.17 1874.27,-213.46 1881.17,-214.61"/>
</g>
<!-- Node24&#45;&gt;Node6 -->
<g id="edge37" class="edge">
<title>Node24&#45;&gt;Node6</title>
<path fill="none" stroke="midnightblue" d="M1720.23,-363.03C1757.74,-358.06 1805.85,-346.9 1841.5,-322 1903.16,-278.92 1937.94,-191.14 1950.76,-152.71"/>
<polygon fill="midnightblue" stroke="midnightblue" points="1954.19,-153.46 1953.92,-142.87 1947.53,-151.32 1954.19,-153.46"/>
</g>
<!-- Node24&#45;&gt;Node8 -->
<g id="edge38" class="edge">
<title>Node24&#45;&gt;Node8</title>
<path fill="none" stroke="midnightblue" d="M1720.29,-365.7C1824.9,-359.94 2032.5,-331.39 2032.5,-195.5 2032.5,-195.5 2032.5,-195.5 2032.5,-132 2032.5,-37.91 1301.69,-15.96 1111.37,-11.83"/>
<polygon fill="midnightblue" stroke="midnightblue" points="1111.24,-8.33 1101.17,-11.62 1111.09,-15.33 1111.24,-8.33"/>
</g>
<!-- Node24&#45;&gt;Node19 -->
<g id="edge39" class="edge">
<title>Node24&#45;&gt;Node19</title>
<path fill="none" stroke="midnightblue" d="M1661.96,-358.28C1662.61,-335.7 1660.92,-275.06 1626.5,-246 1597.69,-221.68 1356.65,-205.18 1242.28,-198.64"/>
<polygon fill="midnightblue" stroke="midnightblue" points="1242.46,-195.15 1232.28,-198.08 1242.06,-202.13 1242.46,-195.15"/>
</g>
<!-- Node25 -->
<g id="node25" class="node">
<title>Node25</title>
<g id="a_node25"><a xlink:href="RealConstants_8hpp.html" target="_top" xlink:title="Definitions file for constant expressions of type Real.">
<polygon fill="white" stroke="black" points="1436.5,-246.5 1436.5,-265.5 1584.5,-265.5 1584.5,-246.5 1436.5,-246.5"/>
<text text-anchor="middle" x="1510.5" y="-253.5" font-family="Helvetica,sans-Serif" font-size="10.00">playrho/RealConstants.hpp</text>
</a>
</g>
</g>
<!-- Node24&#45;&gt;Node25 -->
<g id="edge40" class="edge">
<title>Node24&#45;&gt;Node25</title>
<path fill="none" stroke="midnightblue" d="M1649.65,-358.37C1623.85,-339.57 1562.35,-294.77 1530.45,-271.53"/>
<polygon fill="midnightblue" stroke="midnightblue" points="1532.44,-268.65 1522.29,-265.59 1528.32,-274.31 1532.44,-268.65"/>
</g>
<!-- Node24&#45;&gt;Node26 -->
<g id="edge42" class="edge">
<title>Node24&#45;&gt;Node26</title>
<path fill="none" stroke="midnightblue" d="M1602.9,-359.15C1527.48,-349.04 1397.03,-331.56 1320.15,-321.26"/>
<polygon fill="midnightblue" stroke="midnightblue" points="1320.51,-317.78 1310.13,-319.92 1319.58,-324.72 1320.51,-317.78"/>
</g>
<!-- Node29 -->
<g id="node29" class="node">
<title>Node29</title>
<g id="a_node29"><a xlink:href="WiderType_8hpp.html" target="_top" xlink:title="Definition of the WiderType alias template.">
<polygon fill="white" stroke="black" points="1678.5,-302.5 1678.5,-321.5 1806.5,-321.5 1806.5,-302.5 1678.5,-302.5"/>
<text text-anchor="middle" x="1742.5" y="-309.5" font-family="Helvetica,sans-Serif" font-size="10.00">playrho/WiderType.hpp</text>
</a>
</g>
</g>
<!-- Node24&#45;&gt;Node29 -->
<g id="edge51" class="edge">
<title>Node24&#45;&gt;Node29</title>
<path fill="none" stroke="midnightblue" d="M1674.51,-358.32C1687.03,-349.98 1706.18,-337.21 1720.97,-327.35"/>
<polygon fill="midnightblue" stroke="midnightblue" points="1723.14,-330.11 1729.52,-321.65 1719.26,-324.29 1723.14,-330.11"/>
</g>
<!-- Node25&#45;&gt;Node19 -->
<g id="edge41" class="edge">
<title>Node25&#45;&gt;Node19</title>
<path fill="none" stroke="midnightblue" d="M1463.51,-246.48C1404.32,-235.74 1302.71,-217.31 1239.25,-205.79"/>
<polygon fill="midnightblue" stroke="midnightblue" points="1239.87,-202.35 1229.41,-204.01 1238.62,-209.24 1239.87,-202.35"/>
</g>
<!-- Node26&#45;&gt;Node3 -->
<g id="edge43" class="edge">
<title>Node26&#45;&gt;Node3</title>
<path fill="none" stroke="midnightblue" d="M1280.05,-302.44C1302.53,-293.52 1337.99,-279.44 1363.48,-269.32"/>
<polygon fill="midnightblue" stroke="midnightblue" points="1365.05,-272.46 1373.05,-265.52 1362.47,-265.95 1365.05,-272.46"/>
</g>
<!-- Node26&#45;&gt;Node8 -->
<g id="edge44" class="edge">
<title>Node26&#45;&gt;Node8</title>
<path fill="none" stroke="midnightblue" d="M1239.52,-302.4C1225.61,-294.95 1207.79,-282.74 1199.5,-266 1195.56,-258.03 1195.79,-254.08 1199.5,-246 1209.77,-223.66 1231.23,-232.34 1241.5,-210 1247.26,-197.48 1244.98,-192.33 1241.5,-179 1225.65,-118.36 1219.19,-97.82 1172.5,-56 1155.1,-40.41 1131.49,-29.67 1110.97,-22.61"/>
<polygon fill="midnightblue" stroke="midnightblue" points="1111.78,-19.19 1101.19,-19.43 1109.62,-25.85 1111.78,-19.19"/>
</g>
<!-- Node26&#45;&gt;Node19 -->
<g id="edge45" class="edge">
<title>Node26&#45;&gt;Node19</title>
<path fill="none" stroke="midnightblue" d="M1219.65,-302.36C1200.12,-295.85 1178.17,-284.7 1166.5,-266 1156.47,-249.93 1163.83,-228.3 1171.56,-213.26"/>
<polygon fill="midnightblue" stroke="midnightblue" points="1174.66,-214.88 1176.51,-204.44 1168.56,-211.45 1174.66,-214.88"/>
</g>
<!-- Node26&#45;&gt;Node20 -->
<g id="edge47" class="edge">
<title>Node26&#45;&gt;Node20</title>
<path fill="none" stroke="midnightblue" d="M1236.74,-302.49C1215.96,-294.08 1183.96,-280.42 1157.5,-266 1087.98,-228.11 1011.02,-174.23 975.49,-148.61"/>
<polygon fill="midnightblue" stroke="midnightblue" points="977.53,-145.77 967.38,-142.74 973.42,-151.44 977.53,-145.77"/>
</g>
<!-- Node26&#45;&gt;Node25 -->
<g id="edge46" class="edge">
<title>Node26&#45;&gt;Node25</title>
<path fill="none" stroke="midnightblue" d="M1298.43,-302.44C1342.39,-293.02 1413.13,-277.87 1460.68,-267.68"/>
<polygon fill="midnightblue" stroke="midnightblue" points="1461.71,-271.03 1470.76,-265.52 1460.25,-264.19 1461.71,-271.03"/>
</g>
<!-- Node27 -->
<g id="node27" class="node">
<title>Node27</title>
<g id="a_node27"><a xlink:href="to__underlying_8hpp.html" target="_top" xlink:title="Definition of to_underlying function template.">
<polygon fill="white" stroke="black" points="1208.5,-246.5 1208.5,-265.5 1352.5,-265.5 1352.5,-246.5 1208.5,-246.5"/>
<text text-anchor="middle" x="1280.5" y="-253.5" font-family="Helvetica,sans-Serif" font-size="10.00">playrho/to_underlying.hpp</text>
</a>
</g>
</g>
<!-- Node26&#45;&gt;Node27 -->
<g id="edge48" class="edge">
<title>Node26&#45;&gt;Node27</title>
<path fill="none" stroke="midnightblue" d="M1262.13,-302.08C1265.11,-294.77 1269.43,-284.18 1273.12,-275.1"/>
<polygon fill="midnightblue" stroke="midnightblue" points="1276.4,-276.33 1276.93,-265.75 1269.92,-273.69 1276.4,-276.33"/>
</g>
<!-- Node28 -->
<g id="node28" class="node">
<title>Node28</title>
<g id="a_node28"><a xlink:href="underlying__type_8hpp.html" target="_top" xlink:title="Definition of underlying_type trait class and related code.">
<polygon fill="white" stroke="black" points="1289,-56.5 1289,-86.5 1428,-86.5 1428,-56.5 1289,-56.5"/>
<text text-anchor="start" x="1297" y="-74.5" font-family="Helvetica,sans-Serif" font-size="10.00">playrho/detail/underlying</text>
<text text-anchor="middle" x="1358.5" y="-63.5" font-family="Helvetica,sans-Serif" font-size="10.00">_type.hpp</text>
</a>
</g>
</g>
<!-- Node27&#45;&gt;Node28 -->
<g id="edge49" class="edge">
<title>Node27&#45;&gt;Node28</title>
<path fill="none" stroke="midnightblue" d="M1284.26,-246.2C1295.79,-219.22 1330.91,-137.05 1348.39,-96.15"/>
<polygon fill="midnightblue" stroke="midnightblue" points="1351.72,-97.27 1352.43,-86.69 1345.28,-94.51 1351.72,-97.27"/>
</g>
<!-- Node28&#45;&gt;Node8 -->
<g id="edge50" class="edge">
<title>Node28&#45;&gt;Node8</title>
<path fill="none" stroke="midnightblue" d="M1289.67,-56.47C1234.53,-45.24 1158.79,-29.81 1111.26,-20.12"/>
<polygon fill="midnightblue" stroke="midnightblue" points="1111.77,-16.65 1101.27,-18.08 1110.37,-23.51 1111.77,-16.65"/>
</g>
<!-- Node30 -->
<g id="node30" class="node">
<title>Node30</title>
<g id="a_node30"><a xlink:href="Wider_8hpp.html" target="_top" xlink:title="Definition of the Wider class template and specializations.">
<polygon fill="white" stroke="black" points="1716.5,-246.5 1716.5,-265.5 1852.5,-265.5 1852.5,-246.5 1716.5,-246.5"/>
<text text-anchor="middle" x="1784.5" y="-253.5" font-family="Helvetica,sans-Serif" font-size="10.00">playrho/detail/Wider.hpp</text>
</a>
</g>
</g>
<!-- Node29&#45;&gt;Node30 -->
<g id="edge52" class="edge">
<title>Node29&#45;&gt;Node30</title>
<path fill="none" stroke="midnightblue" d="M1749.44,-302.08C1755.43,-294.38 1764.25,-283.03 1771.55,-273.65"/>
<polygon fill="midnightblue" stroke="midnightblue" points="1774.32,-275.79 1777.69,-265.75 1768.79,-271.5 1774.32,-275.79"/>
</g>
<!-- Node30&#45;&gt;Node4 -->
<g id="edge53" class="edge">
<title>Node30&#45;&gt;Node4</title>
<path fill="none" stroke="midnightblue" d="M1798.25,-246.48C1813.87,-236.8 1839.56,-220.87 1858.08,-209.39"/>
<polygon fill="midnightblue" stroke="midnightblue" points="1860.12,-212.25 1866.77,-204.01 1856.43,-206.3 1860.12,-212.25"/>
</g>
<!-- Node30&#45;&gt;Node8 -->
<g id="edge54" class="edge">
<title>Node30&#45;&gt;Node8</title>
<path fill="none" stroke="midnightblue" d="M1784.79,-246.29C1784.84,-230.81 1782.7,-198.28 1765.5,-179 1661.85,-62.83 1588.74,-92.97 1437.5,-56 1321.95,-27.75 1181.62,-16.89 1111.27,-12.99"/>
<polygon fill="midnightblue" stroke="midnightblue" points="1111.18,-9.48 1101,-12.45 1110.8,-16.47 1111.18,-9.48"/>
</g>
<!-- Node31 -->
<g id="node31" class="node">
<title>Node31</title>
<g id="a_node31"><a xlink:href="Defines_8hpp.html" target="_top" xlink:title="Miscellaneous C&#45;preprocessor definitions.">
<polygon fill="white" stroke="black" points="1642.5,-185 1642.5,-204 1756.5,-204 1756.5,-185 1642.5,-185"/>
<text text-anchor="middle" x="1699.5" y="-192" font-family="Helvetica,sans-Serif" font-size="10.00">playrho/Defines.hpp</text>
</a>
</g>
</g>
<!-- Node30&#45;&gt;Node31 -->
<g id="edge55" class="edge">
<title>Node30&#45;&gt;Node31</title>
<path fill="none" stroke="midnightblue" d="M1772.32,-246.48C1758.69,-236.93 1736.37,-221.31 1720.03,-209.87"/>
<polygon fill="midnightblue" stroke="midnightblue" points="1721.86,-206.88 1711.66,-204.01 1717.84,-212.61 1721.86,-206.88"/>
</g>
<!-- Node32&#45;&gt;Node8 -->
<g id="edge61" class="edge">
<title>Node32&#45;&gt;Node8</title>
<path fill="none" stroke="midnightblue" d="M618.9,-246.27C605.99,-225 576.27,-168.88 590.5,-123 601.2,-88.5 605.46,-74.47 636.5,-56 700.76,-17.77 925.46,-11.79 1021.94,-11.02"/>
<polygon fill="midnightblue" stroke="midnightblue" points="1021.98,-14.52 1031.96,-10.95 1021.93,-7.52 1021.98,-14.52"/>
</g>
<!-- Node33 -->
<g id="node33" class="node">
<title>Node33</title>
<g id="a_node33"><a xlink:href="Checked_8hpp.html" target="_top" xlink:title="Declarations of the Checked class template and closely related code.">
<polygon fill="white" stroke="black" points="640,-185 640,-204 789,-204 789,-185 640,-185"/>
<text text-anchor="middle" x="714.5" y="-192" font-family="Helvetica,sans-Serif" font-size="10.00">playrho/detail/Checked.hpp</text>
</a>
</g>
</g>
<!-- Node32&#45;&gt;Node33 -->
<g id="edge62" class="edge">
<title>Node32&#45;&gt;Node33</title>
<path fill="none" stroke="midnightblue" d="M637.39,-246.48C651.96,-236.84 675.9,-221.02 693.25,-209.55"/>
<polygon fill="midnightblue" stroke="midnightblue" points="695.22,-212.44 701.63,-204.01 691.36,-206.6 695.22,-212.44"/>
</g>
<!-- Node34 -->
<g id="node34" class="node">
<title>Node34</title>
<g id="a_node34"><a xlink:href="NonNegativeChecker_8hpp.html" target="_top" xlink:title="Definition of the NonNegativeChecker class template.">
<polygon fill="white" stroke="black" points="248,-179.5 248,-209.5 399,-209.5 399,-179.5 248,-179.5"/>
<text text-anchor="start" x="256" y="-197.5" font-family="Helvetica,sans-Serif" font-size="10.00">playrho/detail/NonNegative</text>
<text text-anchor="middle" x="323.5" y="-186.5" font-family="Helvetica,sans-Serif" font-size="10.00">Checker.hpp</text>
</a>
</g>
</g>
<!-- Node32&#45;&gt;Node34 -->
<g id="edge68" class="edge">
<title>Node32&#45;&gt;Node34</title>
<path fill="none" stroke="midnightblue" d="M581.37,-246.48C535.37,-237.38 461.43,-222.77 404.5,-211.51"/>
<polygon fill="midnightblue" stroke="midnightblue" points="404.93,-208.03 394.44,-209.52 403.57,-214.9 404.93,-208.03"/>
</g>
<!-- Node33&#45;&gt;Node8 -->
<g id="edge64" class="edge">
<title>Node33&#45;&gt;Node8</title>
<path fill="none" stroke="midnightblue" d="M723.88,-184.79C739.61,-170.5 772.73,-141.8 804.5,-123 880.94,-77.78 979.02,-40.9 1030.79,-22.91"/>
<polygon fill="midnightblue" stroke="midnightblue" points="1032.2,-26.12 1040.51,-19.56 1029.92,-19.51 1032.2,-26.12"/>
</g>
<!-- Node33&#45;&gt;Node15 -->
<g id="edge63" class="edge">
<title>Node33&#45;&gt;Node15</title>
<path fill="none" stroke="midnightblue" d="M732.98,-184.98C754.63,-174.99 790.71,-158.35 815.73,-146.81"/>
<polygon fill="midnightblue" stroke="midnightblue" points="817.44,-149.88 825.05,-142.51 814.51,-143.52 817.44,-149.88"/>
</g>
<!-- Node33&#45;&gt;Node17 -->
<g id="edge66" class="edge">
<title>Node33&#45;&gt;Node17</title>
<path fill="none" stroke="midnightblue" d="M709.34,-184.98C704.05,-176.23 695.66,-162.37 688.97,-151.31"/>
<polygon fill="midnightblue" stroke="midnightblue" points="691.82,-149.25 683.65,-142.51 685.83,-152.88 691.82,-149.25"/>
</g>
<!-- Node33&#45;&gt;Node20 -->
<g id="edge67" class="edge">
<title>Node33&#45;&gt;Node20</title>
<path fill="none" stroke="midnightblue" d="M749.03,-184.98C791.71,-174.44 864.42,-156.49 911.18,-144.94"/>
<polygon fill="midnightblue" stroke="midnightblue" points="912.17,-148.3 921.03,-142.51 910.49,-141.51 912.17,-148.3"/>
</g>
<!-- Node33&#45;&gt;Node22 -->
<g id="edge65" class="edge">
<title>Node33&#45;&gt;Node22</title>
<path fill="none" stroke="midnightblue" d="M649.48,-184.95C545.65,-170 349.14,-135.97 300.5,-87 285.63,-72.02 281.8,-47.28 281.1,-30.11"/>
<polygon fill="midnightblue" stroke="midnightblue" points="284.6,-29.62 281.01,-19.65 277.6,-29.67 284.6,-29.62"/>
</g>
<!-- Node35&#45;&gt;Node2 -->
<g id="edge72" class="edge">
<title>Node35&#45;&gt;Node2</title>
<path fill="none" stroke="midnightblue" d="M203.5,-246.48C203.5,-238.08 203.5,-224.98 203.5,-214.16"/>
<polygon fill="midnightblue" stroke="midnightblue" points="207,-214.01 203.5,-204.01 200,-214.01 207,-214.01"/>
</g>
<!-- Node35&#45;&gt;Node8 -->
<g id="edge74" class="edge">
<title>Node35&#45;&gt;Node8</title>
<path fill="none" stroke="midnightblue" d="M193.92,-246.38C178.63,-231.57 152.04,-200.8 168.5,-179 176.02,-169.04 588.24,-58.32 600.5,-56 753.49,-27.08 938.44,-16.24 1021.86,-12.62"/>
<polygon fill="midnightblue" stroke="midnightblue" points="1022.15,-16.11 1032,-12.2 1021.86,-9.12 1022.15,-16.11"/>
</g>
<!-- Node35&#45;&gt;Node13 -->
<g id="edge71" class="edge">
<title>Node35&#45;&gt;Node13</title>
<path fill="none" stroke="midnightblue" d="M253.15,-246.44C294.83,-238.68 355.7,-226.02 407.5,-210 409.78,-209.29 412.12,-208.51 414.46,-207.67"/>
<polygon fill="midnightblue" stroke="midnightblue" points="415.81,-210.9 423.91,-204.08 413.32,-204.36 415.81,-210.9"/>
</g>
<!-- Node35&#45;&gt;Node20 -->
<g id="edge76" class="edge">
<title>Node35&#45;&gt;Node20</title>
<path fill="none" stroke="midnightblue" d="M254.46,-253.57C378.91,-249.67 695.61,-237.32 797.5,-210 824.29,-202.82 892.99,-167.36 930.37,-147.51"/>
<polygon fill="midnightblue" stroke="midnightblue" points="932.41,-150.39 939.58,-142.6 929.11,-144.21 932.41,-150.39"/>
</g>
<!-- Node35&#45;&gt;Node22 -->
<g id="edge75" class="edge">
<title>Node35&#45;&gt;Node22</title>
<path fill="none" stroke="midnightblue" d="M180.05,-246.41C164.34,-239.28 144.88,-227.46 135.5,-210 128.98,-197.86 131.08,-192.05 135.5,-179 158.69,-110.46 226.08,-52.3 260.59,-26.01"/>
<polygon fill="midnightblue" stroke="midnightblue" points="263.08,-28.52 269,-19.74 258.89,-22.91 263.08,-28.52"/>
</g>
<!-- Node36 -->
<g id="node36" class="node">
<title>Node36</title>
<g id="a_node36"><a xlink:title=" ">
<polygon fill="white" stroke="#bfbfbf" points="0,-185 0,-204 83,-204 83,-185 0,-185"/>
<text text-anchor="middle" x="41.5" y="-192" font-family="Helvetica,sans-Serif" font-size="10.00">initializer_list</text>
</a>
</g>
</g>
<!-- Node35&#45;&gt;Node36 -->
<g id="edge73" class="edge">
<title>Node35&#45;&gt;Node36</title>
<path fill="none" stroke="midnightblue" d="M180.29,-246.48C152.5,-236.27 105.78,-219.11 74.31,-207.55"/>
<polygon fill="midnightblue" stroke="midnightblue" points="75.26,-204.17 64.67,-204.01 72.85,-210.74 75.26,-204.17"/>
</g>
<!-- Node37&#45;&gt;Node11 -->
<g id="edge84" class="edge">
<title>Node37&#45;&gt;Node11</title>
<path fill="none" stroke="midnightblue" d="M1069.48,-422.66C1021.15,-419.92 951.73,-410.02 900.5,-378 859.62,-352.45 830.24,-301.76 816.76,-274.81"/>
<polygon fill="midnightblue" stroke="midnightblue" points="819.88,-273.23 812.38,-265.75 813.58,-276.27 819.88,-273.23"/>
</g>
<!-- Node37&#45;&gt;Node19 -->
<g id="edge81" class="edge">
<title>Node37&#45;&gt;Node19</title>
<path fill="none" stroke="midnightblue" d="M1116.34,-414.19C1107.59,-405.87 1095.6,-392.54 1090.5,-378 1071.08,-322.64 1060.62,-296.49 1090.5,-246 1101.46,-227.49 1121.87,-215.31 1140.69,-207.56"/>
<polygon fill="midnightblue" stroke="midnightblue" points="1141.94,-210.83 1150.04,-204 1139.45,-204.29 1141.94,-210.83"/>
</g>
<!-- Node37&#45;&gt;Node24 -->
<g id="edge82" class="edge">
<title>Node37&#45;&gt;Node24</title>
<path fill="none" stroke="midnightblue" d="M1183.72,-415.06C1186.69,-414.69 1189.63,-414.33 1192.5,-414 1334.5,-397.51 1501.19,-382.56 1592.69,-374.74"/>
<polygon fill="midnightblue" stroke="midnightblue" points="1593.26,-378.2 1602.93,-373.86 1592.67,-371.23 1593.26,-378.2"/>
</g>
<!-- Node37&#45;&gt;Node26 -->
<g id="edge83" class="edge">
<title>Node37&#45;&gt;Node26</title>
<path fill="none" stroke="midnightblue" d="M1136.86,-414.37C1159.22,-395.73 1212.26,-351.53 1240.34,-328.13"/>
<polygon fill="midnightblue" stroke="midnightblue" points="1242.75,-330.68 1248.19,-321.59 1238.27,-325.3 1242.75,-330.68"/>
</g>
</g>
</svg>
