<?xml version="1.0" encoding="UTF-8" standalone="no"?>
<!DOCTYPE svg PUBLIC "-//W3C//DTD SVG 1.1//EN"
 "http://www.w3.org/Graphics/SVG/1.1/DTD/svg11.dtd">
<!-- Generated by graphviz version 2.43.0 (0)
 -->
<!-- Title: Library/include/playrho/Math.hpp Pages: 1 -->
<svg width="2238pt" height="565pt"
 viewBox="0.00 0.00 2238.33 565.00" xmlns="http://www.w3.org/2000/svg" xmlns:xlink="http://www.w3.org/1999/xlink">
<g id="graph0" class="graph" transform="scale(1 1) rotate(0) translate(4 561)">
<title>Library/include/playrho/Math.hpp</title>
<polygon fill="white" stroke="transparent" points="-4,4 -4,-561 2234.33,-561 2234.33,4 -4,4"/>
<!-- Node1 -->
<g id="node1" class="node">
<title>Node1</title>
<g id="a_node1"><a xlink:title="Conventional and custom math related code.">
<polygon fill="#bfbfbf" stroke="black" points="1285.83,-526.5 1285.83,-556.5 1413.83,-556.5 1413.83,-526.5 1285.83,-526.5"/>
<text text-anchor="start" x="1293.83" y="-544.5" font-family="Helvetica,sans-Serif" font-size="10.00">Library/include/playrho</text>
<text text-anchor="middle" x="1349.83" y="-533.5" font-family="Helvetica,sans-Serif" font-size="10.00">/Math.hpp</text>
</a>
</g>
</g>
<!-- Node2 -->
<g id="node2" class="node">
<title>Node2</title>
<g id="a_node2"><a xlink:title=" ">
<polygon fill="white" stroke="#bfbfbf" points="162.83,-185 162.83,-204 214.83,-204 214.83,-185 162.83,-185"/>
<text text-anchor="middle" x="188.83" y="-192" font-family="Helvetica,sans-Serif" font-size="10.00">cassert</text>
</a>
</g>
</g>
<!-- Node1&#45;&gt;Node2 -->
<g id="edge1" class="edge">
<title>Node1&#45;&gt;Node2</title>
<path fill="none" stroke="midnightblue" d="M1285.54,-539.28C1075.04,-534.45 419.83,-512.4 419.83,-425 419.83,-425 419.83,-425 419.83,-311 419.83,-299.8 279.11,-235.72 217.33,-208.13"/>
<polygon fill="midnightblue" stroke="midnightblue" points="218.69,-204.9 208.13,-204.03 215.84,-211.3 218.69,-204.9"/>
</g>
<!-- Node3 -->
<g id="node3" class="node">
<title>Node3</title>
<g id="a_node3"><a xlink:title=" ">
<polygon fill="white" stroke="#bfbfbf" points="1381.33,-246.5 1381.33,-265.5 1428.33,-265.5 1428.33,-246.5 1381.33,-246.5"/>
<text text-anchor="middle" x="1404.83" y="-253.5" font-family="Helvetica,sans-Serif" font-size="10.00">cmath</text>
</a>
</g>
</g>
<!-- Node1&#45;&gt;Node3 -->
<g id="edge2" class="edge">
<title>Node1&#45;&gt;Node3</title>
<path fill="none" stroke="midnightblue" d="M1354.29,-526.44C1360.71,-504.86 1371.83,-462.15 1371.83,-425 1371.83,-425 1371.83,-425 1371.83,-367 1371.83,-333.25 1386.27,-296.03 1396.04,-274.69"/>
<polygon fill="midnightblue" stroke="midnightblue" points="1399.24,-276.11 1400.38,-265.58 1392.92,-273.1 1399.24,-276.11"/>
</g>
<!-- Node4 -->
<g id="node4" class="node">
<title>Node4</title>
<g id="a_node4"><a xlink:title=" ">
<polygon fill="white" stroke="#bfbfbf" points="1715.83,-185 1715.83,-204 1765.83,-204 1765.83,-185 1715.83,-185"/>
<text text-anchor="middle" x="1740.83" y="-192" font-family="Helvetica,sans-Serif" font-size="10.00">cstdint</text>
</a>
</g>
</g>
<!-- Node1&#45;&gt;Node4 -->
<g id="edge3" class="edge">
<title>Node1&#45;&gt;Node4</title>
<path fill="none" stroke="midnightblue" d="M1413.86,-535.04C1570.22,-520.84 1958.83,-480.02 1958.83,-425 1958.83,-425 1958.83,-425 1958.83,-367 1958.83,-328.58 1933.84,-323.26 1901.83,-302 1859.69,-274.01 1834.9,-295.56 1793.83,-266 1774.49,-252.07 1759.07,-229.01 1749.96,-213.08"/>
<polygon fill="midnightblue" stroke="midnightblue" points="1752.99,-211.32 1745.12,-204.22 1746.84,-214.67 1752.99,-211.32"/>
</g>
<!-- Node5 -->
<g id="node5" class="node">
<title>Node5</title>
<g id="a_node5"><a xlink:title=" ">
<polygon fill="white" stroke="#bfbfbf" points="1046.33,-62 1046.33,-81 1095.33,-81 1095.33,-62 1046.33,-62"/>
<text text-anchor="middle" x="1070.83" y="-69" font-family="Helvetica,sans-Serif" font-size="10.00">cstdlib</text>
</a>
</g>
</g>
<!-- Node1&#45;&gt;Node5 -->
<g id="edge4" class="edge">
<title>Node1&#45;&gt;Node5</title>
<path fill="none" stroke="midnightblue" d="M1285.56,-537.83C1209.02,-533.27 1087.52,-521.21 1055.83,-490 1019.75,-454.46 1043.95,-427.82 1034.83,-378 1030.28,-353.13 1027.07,-347.18 1024.83,-322 1024.05,-313.15 1023.96,-310.85 1024.83,-302 1032.72,-222.5 1055.62,-129.76 1065.83,-91"/>
<polygon fill="midnightblue" stroke="midnightblue" points="1069.26,-91.73 1068.45,-81.16 1062.49,-89.92 1069.26,-91.73"/>
</g>
<!-- Node6 -->
<g id="node6" class="node">
<title>Node6</title>
<g id="a_node6"><a xlink:title=" ">
<polygon fill="white" stroke="#bfbfbf" points="1932.83,-123.5 1932.83,-142.5 1976.83,-142.5 1976.83,-123.5 1932.83,-123.5"/>
<text text-anchor="middle" x="1954.83" y="-130.5" font-family="Helvetica,sans-Serif" font-size="10.00">limits</text>
</a>
</g>
</g>
<!-- Node1&#45;&gt;Node6 -->
<g id="edge5" class="edge">
<title>Node1&#45;&gt;Node6</title>
<path fill="none" stroke="midnightblue" d="M1414.1,-536.51C1585.9,-524.99 2042.83,-488.39 2042.83,-425 2042.83,-425 2042.83,-425 2042.83,-255 2042.83,-209.49 2001.62,-169.6 1975.6,-148.95"/>
<polygon fill="midnightblue" stroke="midnightblue" points="1977.51,-146.01 1967.44,-142.71 1973.26,-151.57 1977.51,-146.01"/>
</g>
<!-- Node7 -->
<g id="node7" class="node">
<title>Node7</title>
<g id="a_node7"><a xlink:title=" ">
<polygon fill="white" stroke="#bfbfbf" points="2108.83,-470.5 2108.83,-489.5 2164.83,-489.5 2164.83,-470.5 2108.83,-470.5"/>
<text text-anchor="middle" x="2136.83" y="-477.5" font-family="Helvetica,sans-Serif" font-size="10.00">numeric</text>
</a>
</g>
</g>
<!-- Node1&#45;&gt;Node7 -->
<g id="edge6" class="edge">
<title>Node1&#45;&gt;Node7</title>
<path fill="none" stroke="midnightblue" d="M1413.93,-539.25C1543.27,-536.04 1844.49,-525.12 2094.83,-490 2096.08,-489.83 2097.34,-489.63 2098.62,-489.43"/>
<polygon fill="midnightblue" stroke="midnightblue" points="2099.25,-492.87 2108.47,-487.66 2098,-485.98 2099.25,-492.87"/>
</g>
<!-- Node8 -->
<g id="node8" class="node">
<title>Node8</title>
<g id="a_node8"><a xlink:title=" ">
<polygon fill="white" stroke="#bfbfbf" points="884.33,-0.5 884.33,-19.5 953.33,-19.5 953.33,-0.5 884.33,-0.5"/>
<text text-anchor="middle" x="918.83" y="-7.5" font-family="Helvetica,sans-Serif" font-size="10.00">type_traits</text>
</a>
</g>
</g>
<!-- Node1&#45;&gt;Node8 -->
<g id="edge7" class="edge">
<title>Node1&#45;&gt;Node8</title>
<path fill="none" stroke="midnightblue" d="M1414.15,-537.49C1544.09,-530.98 1833.66,-514.22 1929.83,-490 2000.69,-472.16 2080.83,-498.06 2080.83,-425 2080.83,-425 2080.83,-425 2080.83,-132 2080.83,-40.64 1979.14,-75.27 1889.83,-56 1709.65,-17.12 1129.92,-11.83 963.74,-11.11"/>
<polygon fill="midnightblue" stroke="midnightblue" points="963.42,-7.61 953.4,-11.07 963.39,-14.61 963.42,-7.61"/>
</g>
<!-- Node9 -->
<g id="node9" class="node">
<title>Node9</title>
<g id="a_node9"><a xlink:title=" ">
<polygon fill="white" stroke="#bfbfbf" points="2183.33,-470.5 2183.33,-489.5 2230.33,-489.5 2230.33,-470.5 2183.33,-470.5"/>
<text text-anchor="middle" x="2206.83" y="-477.5" font-family="Helvetica,sans-Serif" font-size="10.00">vector</text>
</a>
</g>
</g>
<!-- Node1&#45;&gt;Node9 -->
<g id="edge8" class="edge">
<title>Node1&#45;&gt;Node9</title>
<path fill="none" stroke="midnightblue" d="M1413.91,-541.02C1551.55,-541.18 1885.55,-536.43 2172.97,-489.76"/>
<polygon fill="midnightblue" stroke="midnightblue" points="2173.87,-493.15 2183.17,-488.08 2172.73,-486.25 2173.87,-493.15"/>
</g>
<!-- Node10 -->
<g id="node10" class="node">
<title>Node10</title>
<g id="a_node10"><a xlink:href="Matrix_8hpp.html" target="_top" xlink:title="Definition of the Matrix alias and closely related code.">
<polygon fill="white" stroke="black" points="1064.33,-470.5 1064.33,-489.5 1173.33,-489.5 1173.33,-470.5 1064.33,-470.5"/>
<text text-anchor="middle" x="1118.83" y="-477.5" font-family="Helvetica,sans-Serif" font-size="10.00">playrho/Matrix.hpp</text>
</a>
</g>
</g>
<!-- Node1&#45;&gt;Node10 -->
<g id="edge9" class="edge">
<title>Node1&#45;&gt;Node10</title>
<path fill="none" stroke="midnightblue" d="M1295.38,-526.47C1254.66,-515.99 1199.73,-501.84 1162.01,-492.12"/>
<polygon fill="midnightblue" stroke="midnightblue" points="1162.42,-488.61 1151.86,-489.51 1160.67,-495.39 1162.42,-488.61"/>
</g>
<!-- Node11 -->
<g id="node11" class="node">
<title>Node11</title>
<g id="a_node11"><a xlink:href="Vector_8hpp.html" target="_top" xlink:title="Definition of the Vector class template and closely related code.">
<polygon fill="white" stroke="black" points="757.33,-246.5 757.33,-265.5 864.33,-265.5 864.33,-246.5 757.33,-246.5"/>
<text text-anchor="middle" x="810.83" y="-253.5" font-family="Helvetica,sans-Serif" font-size="10.00">playrho/Vector.hpp</text>
</a>
</g>
</g>
<!-- Node1&#45;&gt;Node11 -->
<g id="edge78" class="edge">
<title>Node1&#45;&gt;Node11</title>
<path fill="none" stroke="midnightblue" d="M1285.67,-539.14C1172.79,-535.85 943.91,-524.97 872.83,-490 837.01,-472.37 810.83,-464.92 810.83,-425 810.83,-425 810.83,-425 810.83,-367 810.83,-334.95 810.83,-297.64 810.83,-275.75"/>
<polygon fill="midnightblue" stroke="midnightblue" points="814.33,-275.56 810.83,-265.56 807.33,-275.56 814.33,-275.56"/>
</g>
<!-- Node18 -->
<g id="node18" class="node">
<title>Node18</title>
<g id="a_node18"><a xlink:href="Real_8hpp.html" target="_top" xlink:title="Real number definition file.">
<polygon fill="white" stroke="black" points="1355.33,-185 1355.33,-204 1454.33,-204 1454.33,-185 1355.33,-185"/>
<text text-anchor="middle" x="1404.83" y="-192" font-family="Helvetica,sans-Serif" font-size="10.00">playrho/Real.hpp</text>
</a>
</g>
</g>
<!-- Node1&#45;&gt;Node18 -->
<g id="edge69" class="edge">
<title>Node1&#45;&gt;Node18</title>
<path fill="none" stroke="midnightblue" d="M1396.12,-526.43C1437.63,-511.07 1496,-482.03 1522.83,-434 1568.87,-351.59 1466.24,-248.79 1422.94,-210.65"/>
<polygon fill="midnightblue" stroke="midnightblue" points="1425.22,-208 1415.36,-204.11 1420.64,-213.29 1425.22,-208"/>
</g>
<!-- Node23 -->
<g id="node23" class="node">
<title>Node23</title>
<g id="a_node23"><a xlink:href="Vector2_8hpp.html" target="_top" xlink:title="Definition of the Vector2 alias template and closely related code.">
<polygon fill="white" stroke="black" points="1229.83,-414.5 1229.83,-433.5 1343.83,-433.5 1343.83,-414.5 1229.83,-414.5"/>
<text text-anchor="middle" x="1286.83" y="-421.5" font-family="Helvetica,sans-Serif" font-size="10.00">playrho/Vector2.hpp</text>
</a>
</g>
</g>
<!-- Node1&#45;&gt;Node23 -->
<g id="edge79" class="edge">
<title>Node1&#45;&gt;Node23</title>
<path fill="none" stroke="midnightblue" d="M1342.11,-526.34C1330.6,-505.24 1308.98,-465.6 1296.46,-442.65"/>
<polygon fill="midnightblue" stroke="midnightblue" points="1299.42,-440.77 1291.56,-433.67 1293.28,-444.12 1299.42,-440.77"/>
</g>
<!-- Node26 -->
<g id="node26" class="node">
<title>Node26</title>
<g id="a_node26"><a xlink:href="Units_8hpp.html" target="_top" xlink:title="Declarations for physical units possibly backed by strong types.">
<polygon fill="white" stroke="black" points="1175.33,-302.5 1175.33,-321.5 1278.33,-321.5 1278.33,-302.5 1175.33,-302.5"/>
<text text-anchor="middle" x="1226.83" y="-309.5" font-family="Helvetica,sans-Serif" font-size="10.00">playrho/Units.hpp</text>
</a>
</g>
</g>
<!-- Node1&#45;&gt;Node26 -->
<g id="edge77" class="edge">
<title>Node1&#45;&gt;Node26</title>
<path fill="none" stroke="midnightblue" d="M1320.83,-526.44C1289.52,-509.44 1241.38,-477.61 1220.83,-434 1205.13,-400.67 1213.73,-356.3 1220.72,-331.6"/>
<polygon fill="midnightblue" stroke="midnightblue" points="1224.16,-332.34 1223.73,-321.75 1217.46,-330.29 1224.16,-332.34"/>
</g>
<!-- Node32 -->
<g id="node32" class="node">
<title>Node32</title>
<g id="a_node32"><a xlink:href="NonNegative_8hpp.html" target="_top" xlink:title="Definition of the NonNegative value checked types.">
<polygon fill="white" stroke="black" points="548.33,-246.5 548.33,-265.5 689.33,-265.5 689.33,-246.5 548.33,-246.5"/>
<text text-anchor="middle" x="618.83" y="-253.5" font-family="Helvetica,sans-Serif" font-size="10.00">playrho/NonNegative.hpp</text>
</a>
</g>
</g>
<!-- Node1&#45;&gt;Node32 -->
<g id="edge60" class="edge">
<title>Node1&#45;&gt;Node32</title>
<path fill="none" stroke="midnightblue" d="M1285.67,-541.49C1186.14,-541.42 989.4,-534.89 829.83,-490 766.12,-472.08 695.83,-491.19 695.83,-425 695.83,-425 695.83,-425 695.83,-367 695.83,-326.93 661.12,-291.08 638.31,-271.84"/>
<polygon fill="midnightblue" stroke="midnightblue" points="640.5,-269.11 630.53,-265.53 636.09,-274.55 640.5,-269.11"/>
</g>
<!-- Node35 -->
<g id="node35" class="node">
<title>Node35</title>
<g id="a_node35"><a xlink:href="Span_8hpp.html" target="_top" xlink:title="Definition of the Span class template.">
<polygon fill="white" stroke="black" points="84.33,-246.5 84.33,-265.5 185.33,-265.5 185.33,-246.5 84.33,-246.5"/>
<text text-anchor="middle" x="134.83" y="-253.5" font-family="Helvetica,sans-Serif" font-size="10.00">playrho/Span.hpp</text>
</a>
</g>
</g>
<!-- Node1&#45;&gt;Node35 -->
<g id="edge70" class="edge">
<title>Node1&#45;&gt;Node35</title>
<path fill="none" stroke="midnightblue" d="M1285.7,-540.91C1042.1,-541.64 187.83,-536.25 187.83,-425 187.83,-425 187.83,-425 187.83,-367 187.83,-330.99 164.5,-294.34 148.8,-273.75"/>
<polygon fill="midnightblue" stroke="midnightblue" points="151.38,-271.38 142.43,-265.72 145.9,-275.73 151.38,-271.38"/>
</g>
<!-- Node37 -->
<g id="node37" class="node">
<title>Node37</title>
<g id="a_node37"><a xlink:href="Vector3_8hpp.html" target="_top" xlink:title="Definition of the Vector3 alias template and closely related code.">
<polygon fill="white" stroke="black" points="1399.83,-414.5 1399.83,-433.5 1513.83,-433.5 1513.83,-414.5 1399.83,-414.5"/>
<text text-anchor="middle" x="1456.83" y="-421.5" font-family="Helvetica,sans-Serif" font-size="10.00">playrho/Vector3.hpp</text>
</a>
</g>
</g>
<!-- Node1&#45;&gt;Node37 -->
<g id="edge80" class="edge">
<title>Node1&#45;&gt;Node37</title>
<path fill="none" stroke="midnightblue" d="M1362.95,-526.34C1382.93,-504.77 1420.88,-463.81 1441.89,-441.13"/>
<polygon fill="midnightblue" stroke="midnightblue" points="1444.57,-443.38 1448.8,-433.67 1439.44,-438.63 1444.57,-443.38"/>
</g>
<!-- Node10&#45;&gt;Node5 -->
<g id="edge10" class="edge">
<title>Node10&#45;&gt;Node5</title>
<path fill="none" stroke="midnightblue" d="M1106.33,-470.31C1083.83,-453.54 1038.83,-414.34 1038.83,-369 1038.83,-369 1038.83,-369 1038.83,-311 1038.83,-233.58 1074.52,-219.72 1084.83,-143 1087.25,-125.06 1082.43,-104.82 1077.8,-90.65"/>
<polygon fill="midnightblue" stroke="midnightblue" points="1081.07,-89.38 1074.43,-81.12 1074.47,-91.72 1081.07,-89.38"/>
</g>
<!-- Node10&#45;&gt;Node8 -->
<g id="edge11" class="edge">
<title>Node10&#45;&gt;Node8</title>
<path fill="none" stroke="midnightblue" d="M1100.47,-470.49C1085.32,-462.73 1064.08,-450.04 1049.83,-434 954.01,-326.11 938.7,-283.51 905.83,-143 896.56,-103.35 906.3,-55.49 913.21,-29.69"/>
<polygon fill="midnightblue" stroke="midnightblue" points="916.66,-30.35 916.02,-19.78 909.93,-28.44 916.66,-30.35"/>
</g>
<!-- Node10&#45;&gt;Node11 -->
<g id="edge12" class="edge">
<title>Node10&#45;&gt;Node11</title>
<path fill="none" stroke="midnightblue" d="M1064.24,-473.63C1028.96,-468.07 983.35,-456.8 948.83,-434 885.21,-391.98 838.22,-310.78 819.61,-274.85"/>
<polygon fill="midnightblue" stroke="midnightblue" points="822.58,-272.96 814.94,-265.61 816.33,-276.12 822.58,-272.96"/>
</g>
<!-- Node10&#45;&gt;Node18 -->
<g id="edge58" class="edge">
<title>Node10&#45;&gt;Node18</title>
<path fill="none" stroke="midnightblue" d="M1118.62,-470.37C1118.39,-442.35 1121.42,-352.8 1166.83,-302 1195.82,-269.57 1218.31,-284.16 1257.83,-266 1275.18,-258.03 1278.73,-254.46 1295.83,-246 1322.87,-232.63 1354.14,-218.26 1376.24,-208.27"/>
<polygon fill="midnightblue" stroke="midnightblue" points="1377.72,-211.44 1385.4,-204.15 1374.84,-205.06 1377.72,-211.44"/>
</g>
<!-- Node10&#45;&gt;Node23 -->
<g id="edge33" class="edge">
<title>Node10&#45;&gt;Node23</title>
<path fill="none" stroke="midnightblue" d="M1145.45,-470.44C1173.84,-461.32 1218.97,-446.81 1250.59,-436.65"/>
<polygon fill="midnightblue" stroke="midnightblue" points="1251.89,-439.91 1260.34,-433.52 1249.75,-433.24 1251.89,-439.91"/>
</g>
<!-- Node10&#45;&gt;Node26 -->
<g id="edge59" class="edge">
<title>Node10&#45;&gt;Node26</title>
<path fill="none" stroke="midnightblue" d="M1122.98,-470.44C1132.96,-450.16 1159.6,-397.87 1187.83,-358 1195,-347.88 1204.02,-337.36 1211.58,-329.03"/>
<polygon fill="midnightblue" stroke="midnightblue" points="1214.29,-331.26 1218.53,-321.54 1209.16,-326.49 1214.29,-331.26"/>
</g>
<!-- Node11&#45;&gt;Node2 -->
<g id="edge13" class="edge">
<title>Node11&#45;&gt;Node2</title>
<path fill="none" stroke="midnightblue" d="M757.09,-250.68C738.34,-249.18 717.16,-247.5 697.83,-246 487.2,-229.61 429.34,-259.05 223.83,-210 221.32,-209.4 218.74,-208.64 216.19,-207.78"/>
<polygon fill="midnightblue" stroke="midnightblue" points="217.23,-204.43 206.64,-204.15 214.74,-210.98 217.23,-204.43"/>
</g>
<!-- Node11&#45;&gt;Node8 -->
<g id="edge15" class="edge">
<title>Node11&#45;&gt;Node8</title>
<path fill="none" stroke="midnightblue" d="M811.97,-246.43C816.09,-217.62 832.22,-122.36 872.83,-56 879.71,-44.76 890.01,-34.33 899.12,-26.35"/>
<polygon fill="midnightblue" stroke="midnightblue" points="901.59,-28.85 907.02,-19.75 897.1,-23.47 901.59,-28.85"/>
</g>
<!-- Node12 -->
<g id="node12" class="node">
<title>Node12</title>
<g id="a_node12"><a xlink:title=" ">
<polygon fill="white" stroke="#bfbfbf" points="233.33,-185 233.33,-204 286.33,-204 286.33,-185 233.33,-185"/>
<text text-anchor="middle" x="259.83" y="-192" font-family="Helvetica,sans-Serif" font-size="10.00">cstddef</text>
</a>
</g>
</g>
<!-- Node11&#45;&gt;Node12 -->
<g id="edge14" class="edge">
<title>Node11&#45;&gt;Node12</title>
<path fill="none" stroke="midnightblue" d="M756.99,-250.52C627.02,-239.68 305.97,-212.72 294.83,-210 292.32,-209.38 289.75,-208.62 287.2,-207.75"/>
<polygon fill="midnightblue" stroke="midnightblue" points="288.24,-204.4 277.65,-204.11 285.74,-210.94 288.24,-204.4"/>
</g>
<!-- Node13 -->
<g id="node13" class="node">
<title>Node13</title>
<g id="a_node13"><a xlink:title=" ">
<polygon fill="white" stroke="#bfbfbf" points="238.33,-0.5 238.33,-19.5 291.33,-19.5 291.33,-0.5 238.33,-0.5"/>
<text text-anchor="middle" x="264.83" y="-7.5" font-family="Helvetica,sans-Serif" font-size="10.00">iterator</text>
</a>
</g>
</g>
<!-- Node11&#45;&gt;Node13 -->
<g id="edge16" class="edge">
<title>Node11&#45;&gt;Node13</title>
<path fill="none" stroke="midnightblue" d="M757.26,-250.15C701.2,-244.17 611.06,-231.99 535.83,-210 502.39,-200.23 495.86,-192.72 463.83,-179 367.91,-137.92 305.37,-174.05 247.83,-87 236.23,-69.44 245.03,-45.13 253.7,-28.77"/>
<polygon fill="midnightblue" stroke="midnightblue" points="256.94,-30.16 258.91,-19.75 250.88,-26.66 256.94,-30.16"/>
</g>
<!-- Node14 -->
<g id="node14" class="node">
<title>Node14</title>
<g id="a_node14"><a xlink:title=" ">
<polygon fill="white" stroke="#bfbfbf" points="404.83,-0.5 404.83,-19.5 468.83,-19.5 468.83,-0.5 404.83,-0.5"/>
<text text-anchor="middle" x="436.83" y="-7.5" font-family="Helvetica,sans-Serif" font-size="10.00">algorithm</text>
</a>
</g>
</g>
<!-- Node11&#45;&gt;Node14 -->
<g id="edge17" class="edge">
<title>Node11&#45;&gt;Node14</title>
<path fill="none" stroke="midnightblue" d="M757.24,-248.26C697.56,-240.15 605.33,-225.67 573.83,-210 563.9,-205.06 506.46,-151.9 499.83,-143 472.51,-106.31 452.44,-55.88 442.95,-29.22"/>
<polygon fill="midnightblue" stroke="midnightblue" points="446.22,-27.96 439.64,-19.66 439.6,-30.25 446.22,-27.96"/>
</g>
<!-- Node15 -->
<g id="node15" class="node">
<title>Node15</title>
<g id="a_node15"><a xlink:title=" ">
<polygon fill="white" stroke="#bfbfbf" points="508.83,-123.5 508.83,-142.5 568.83,-142.5 568.83,-123.5 508.83,-123.5"/>
<text text-anchor="middle" x="538.83" y="-130.5" font-family="Helvetica,sans-Serif" font-size="10.00">iostream</text>
</a>
</g>
</g>
<!-- Node11&#45;&gt;Node15 -->
<g id="edge18" class="edge">
<title>Node11&#45;&gt;Node15</title>
<path fill="none" stroke="midnightblue" d="M757.12,-250.6C716.28,-245.41 659.83,-234.19 615.83,-210 588.93,-195.2 564.98,-168.3 551.19,-150.8"/>
<polygon fill="midnightblue" stroke="midnightblue" points="553.79,-148.44 544.94,-142.62 548.23,-152.69 553.79,-148.44"/>
</g>
<!-- Node16 -->
<g id="node16" class="node">
<title>Node16</title>
<g id="a_node16"><a xlink:href="InvalidArgument_8hpp.html" target="_top" xlink:title="Definition of the InvalidArgument class.">
<polygon fill="white" stroke="black" points="662.83,-123.5 662.83,-142.5 820.83,-142.5 820.83,-123.5 662.83,-123.5"/>
<text text-anchor="middle" x="741.83" y="-130.5" font-family="Helvetica,sans-Serif" font-size="10.00">playrho/InvalidArgument.hpp</text>
</a>
</g>
</g>
<!-- Node11&#45;&gt;Node16 -->
<g id="edge19" class="edge">
<title>Node11&#45;&gt;Node16</title>
<path fill="none" stroke="midnightblue" d="M808.74,-246.07C805.04,-231.34 796.41,-201.35 782.83,-179 776.41,-168.43 767.3,-158.12 759.29,-150.05"/>
<polygon fill="midnightblue" stroke="midnightblue" points="761.41,-147.23 751.8,-142.78 756.54,-152.26 761.41,-147.23"/>
</g>
<!-- Node11&#45;&gt;Node18 -->
<g id="edge21" class="edge">
<title>Node11&#45;&gt;Node18</title>
<path fill="none" stroke="midnightblue" d="M864.6,-249.61C975.48,-238.51 1228.88,-213.12 1344.87,-201.51"/>
<polygon fill="midnightblue" stroke="midnightblue" points="1345.39,-204.97 1354.99,-200.49 1344.69,-198.01 1345.39,-204.97"/>
</g>
<!-- Node19 -->
<g id="node19" class="node">
<title>Node19</title>
<g id="a_node19"><a xlink:href="Templates_8hpp.html" target="_top" xlink:title="Definitions of miscellaneous template related code.">
<polygon fill="white" stroke="black" points="914.83,-123.5 914.83,-142.5 1042.83,-142.5 1042.83,-123.5 914.83,-123.5"/>
<text text-anchor="middle" x="978.83" y="-130.5" font-family="Helvetica,sans-Serif" font-size="10.00">playrho/Templates.hpp</text>
</a>
</g>
</g>
<!-- Node11&#45;&gt;Node19 -->
<g id="edge32" class="edge">
<title>Node11&#45;&gt;Node19</title>
<path fill="none" stroke="midnightblue" d="M822.65,-246.49C851.02,-226.06 923.24,-174.04 958.65,-148.54"/>
<polygon fill="midnightblue" stroke="midnightblue" points="960.74,-151.35 966.81,-142.66 956.65,-145.67 960.74,-151.35"/>
</g>
<!-- Node17 -->
<g id="node17" class="node">
<title>Node17</title>
<g id="a_node17"><a xlink:title=" ">
<polygon fill="white" stroke="#bfbfbf" points="709.33,-62 709.33,-81 774.33,-81 774.33,-62 709.33,-62"/>
<text text-anchor="middle" x="741.83" y="-69" font-family="Helvetica,sans-Serif" font-size="10.00">stdexcept</text>
</a>
</g>
</g>
<!-- Node16&#45;&gt;Node17 -->
<g id="edge20" class="edge">
<title>Node16&#45;&gt;Node17</title>
<path fill="none" stroke="midnightblue" d="M741.83,-123.48C741.83,-115.08 741.83,-101.98 741.83,-91.16"/>
<polygon fill="midnightblue" stroke="midnightblue" points="745.33,-91.01 741.83,-81.01 738.33,-91.01 745.33,-91.01"/>
</g>
<!-- Node18&#45;&gt;Node6 -->
<g id="edge22" class="edge">
<title>Node18&#45;&gt;Node6</title>
<path fill="none" stroke="midnightblue" d="M1454.61,-188.11C1565.51,-176.12 1830.37,-147.47 1922.55,-137.49"/>
<polygon fill="midnightblue" stroke="midnightblue" points="1923.1,-140.95 1932.66,-136.4 1922.34,-133.99 1923.1,-140.95"/>
</g>
<!-- Node18&#45;&gt;Node19 -->
<g id="edge23" class="edge">
<title>Node18&#45;&gt;Node19</title>
<path fill="none" stroke="midnightblue" d="M1355.13,-186.56C1279.76,-176.03 1136.22,-155.98 1049.85,-143.92"/>
<polygon fill="midnightblue" stroke="midnightblue" points="1050.26,-140.44 1039.87,-142.53 1049.29,-147.37 1050.26,-140.44"/>
</g>
<!-- Node19&#45;&gt;Node5 -->
<g id="edge24" class="edge">
<title>Node19&#45;&gt;Node5</title>
<path fill="none" stroke="midnightblue" d="M992.02,-123.48C1006.91,-113.84 1031.38,-98.02 1049.11,-86.55"/>
<polygon fill="midnightblue" stroke="midnightblue" points="1051.18,-89.38 1057.68,-81.01 1047.38,-83.5 1051.18,-89.38"/>
</g>
<!-- Node19&#45;&gt;Node8 -->
<g id="edge25" class="edge">
<title>Node19&#45;&gt;Node8</title>
<path fill="none" stroke="midnightblue" d="M974.52,-123.3C964.75,-103.59 940.76,-55.21 927.68,-28.84"/>
<polygon fill="midnightblue" stroke="midnightblue" points="930.69,-27.03 923.11,-19.62 924.42,-30.14 930.69,-27.03"/>
</g>
<!-- Node20 -->
<g id="node20" class="node">
<title>Node20</title>
<g id="a_node20"><a xlink:href="detail_2Templates_8hpp.html" target="_top" xlink:title="Low&#45;level declarations for general class &amp; function templates.">
<polygon fill="white" stroke="black" points="256.83,-62 256.83,-81 414.83,-81 414.83,-62 256.83,-62"/>
<text text-anchor="middle" x="335.83" y="-69" font-family="Helvetica,sans-Serif" font-size="10.00">playrho/detail/Templates.hpp</text>
</a>
</g>
</g>
<!-- Node19&#45;&gt;Node20 -->
<g id="edge26" class="edge">
<title>Node19&#45;&gt;Node20</title>
<path fill="none" stroke="midnightblue" d="M914.83,-126.08C799.51,-115.41 556.62,-92.93 425.06,-80.76"/>
<polygon fill="midnightblue" stroke="midnightblue" points="425.29,-77.26 415.01,-79.83 424.64,-84.23 425.29,-77.26"/>
</g>
<!-- Node20&#45;&gt;Node8 -->
<g id="edge30" class="edge">
<title>Node20&#45;&gt;Node8</title>
<path fill="none" stroke="midnightblue" d="M411.67,-61.96C429.74,-59.97 448.97,-57.88 466.83,-56 615.82,-40.34 792.6,-23.14 873.87,-15.31"/>
<polygon fill="midnightblue" stroke="midnightblue" points="874.61,-18.76 884.23,-14.31 873.94,-11.79 874.61,-18.76"/>
</g>
<!-- Node20&#45;&gt;Node13 -->
<g id="edge29" class="edge">
<title>Node20&#45;&gt;Node13</title>
<path fill="none" stroke="midnightblue" d="M325.66,-61.98C314.48,-52.61 296.32,-37.38 282.74,-26.01"/>
<polygon fill="midnightblue" stroke="midnightblue" points="284.9,-23.25 274.99,-19.51 280.4,-28.61 284.9,-23.25"/>
</g>
<!-- Node20&#45;&gt;Node14 -->
<g id="edge27" class="edge">
<title>Node20&#45;&gt;Node14</title>
<path fill="none" stroke="midnightblue" d="M350.31,-61.98C366.81,-52.25 394.01,-36.23 413.52,-24.74"/>
<polygon fill="midnightblue" stroke="midnightblue" points="415.55,-27.6 422.39,-19.51 412,-21.57 415.55,-27.6"/>
</g>
<!-- Node21 -->
<g id="node21" class="node">
<title>Node21</title>
<g id="a_node21"><a xlink:title=" ">
<polygon fill="white" stroke="#bfbfbf" points="309.33,-0.5 309.33,-19.5 374.33,-19.5 374.33,-0.5 309.33,-0.5"/>
<text text-anchor="middle" x="341.83" y="-7.5" font-family="Helvetica,sans-Serif" font-size="10.00">functional</text>
</a>
</g>
</g>
<!-- Node20&#45;&gt;Node21 -->
<g id="edge28" class="edge">
<title>Node20&#45;&gt;Node21</title>
<path fill="none" stroke="midnightblue" d="M336.69,-61.98C337.54,-53.58 338.86,-40.48 339.95,-29.66"/>
<polygon fill="midnightblue" stroke="midnightblue" points="343.46,-29.81 340.98,-19.51 336.49,-29.11 343.46,-29.81"/>
</g>
<!-- Node22 -->
<g id="node22" class="node">
<title>Node22</title>
<g id="a_node22"><a xlink:title=" ">
<polygon fill="white" stroke="#bfbfbf" points="175.33,-0.5 175.33,-19.5 220.33,-19.5 220.33,-0.5 175.33,-0.5"/>
<text text-anchor="middle" x="197.83" y="-7.5" font-family="Helvetica,sans-Serif" font-size="10.00">utility</text>
</a>
</g>
</g>
<!-- Node20&#45;&gt;Node22 -->
<g id="edge31" class="edge">
<title>Node20&#45;&gt;Node22</title>
<path fill="none" stroke="midnightblue" d="M316.06,-61.98C292.7,-51.9 253.62,-35.05 226.83,-23.5"/>
<polygon fill="midnightblue" stroke="midnightblue" points="228.14,-20.25 217.57,-19.51 225.37,-26.68 228.14,-20.25"/>
</g>
<!-- Node23&#45;&gt;Node11 -->
<g id="edge57" class="edge">
<title>Node23&#45;&gt;Node11</title>
<path fill="none" stroke="midnightblue" d="M1252.2,-414.49C1190.36,-398.88 1057.24,-363.46 948.83,-322 908.52,-306.58 863.6,-284.45 836.28,-270.4"/>
<polygon fill="midnightblue" stroke="midnightblue" points="837.55,-267.11 827.06,-265.62 834.32,-273.33 837.55,-267.11"/>
</g>
<!-- Node23&#45;&gt;Node18 -->
<g id="edge34" class="edge">
<title>Node23&#45;&gt;Node18</title>
<path fill="none" stroke="midnightblue" d="M1290.62,-414.35C1302.07,-388.38 1337.73,-308.96 1372.83,-246 1379.13,-234.71 1386.87,-222.46 1393.16,-212.85"/>
<polygon fill="midnightblue" stroke="midnightblue" points="1396.25,-214.52 1398.86,-204.26 1390.42,-210.65 1396.25,-214.52"/>
</g>
<!-- Node24 -->
<g id="node24" class="node">
<title>Node24</title>
<g id="a_node24"><a xlink:href="Settings_8hpp.html" target="_top" xlink:title="Types and default settings file.">
<polygon fill="white" stroke="black" points="1640.33,-358.5 1640.33,-377.5 1757.33,-377.5 1757.33,-358.5 1640.33,-358.5"/>
<text text-anchor="middle" x="1698.83" y="-365.5" font-family="Helvetica,sans-Serif" font-size="10.00">playrho/Settings.hpp</text>
</a>
</g>
</g>
<!-- Node23&#45;&gt;Node24 -->
<g id="edge35" class="edge">
<title>Node23&#45;&gt;Node24</title>
<path fill="none" stroke="midnightblue" d="M1344.12,-415.49C1418.97,-405.68 1549.91,-388.52 1630.04,-378.02"/>
<polygon fill="midnightblue" stroke="midnightblue" points="1630.58,-381.48 1640.04,-376.71 1629.67,-374.54 1630.58,-381.48"/>
</g>
<!-- Node23&#45;&gt;Node26 -->
<g id="edge56" class="edge">
<title>Node23&#45;&gt;Node26</title>
<path fill="none" stroke="midnightblue" d="M1282.13,-414.37C1272.31,-396.38 1249.5,-354.55 1236.45,-330.63"/>
<polygon fill="midnightblue" stroke="midnightblue" points="1239.38,-328.69 1231.52,-321.59 1233.24,-332.05 1239.38,-328.69"/>
</g>
<!-- Node24&#45;&gt;Node4 -->
<g id="edge36" class="edge">
<title>Node24&#45;&gt;Node4</title>
<path fill="none" stroke="midnightblue" d="M1701.73,-358.44C1704.73,-349.43 1709.43,-334.81 1712.83,-322 1722.95,-283.92 1732.33,-238.72 1737.25,-213.98"/>
<polygon fill="midnightblue" stroke="midnightblue" points="1740.69,-214.64 1739.18,-204.15 1733.82,-213.29 1740.69,-214.64"/>
</g>
<!-- Node24&#45;&gt;Node6 -->
<g id="edge37" class="edge">
<title>Node24&#45;&gt;Node6</title>
<path fill="none" stroke="midnightblue" d="M1757.76,-364.13C1800.47,-359.73 1858.15,-348.82 1901.83,-322 1929.28,-305.15 1936.18,-296.03 1947.83,-266 1962.59,-227.98 1960.24,-179.14 1957.41,-152.82"/>
<polygon fill="midnightblue" stroke="midnightblue" points="1960.87,-152.23 1956.18,-142.72 1953.92,-153.07 1960.87,-152.23"/>
</g>
<!-- Node24&#45;&gt;Node8 -->
<g id="edge38" class="edge">
<title>Node24&#45;&gt;Node8</title>
<path fill="none" stroke="midnightblue" d="M1757.67,-363.77C1805.76,-359.23 1874.44,-348.3 1928.83,-322 1968.85,-302.65 2004.83,-301.45 2004.83,-257 2004.83,-257 2004.83,-257 2004.83,-132 2004.83,-25.42 1168.03,-12.72 963.52,-11.2"/>
<polygon fill="midnightblue" stroke="midnightblue" points="963.46,-7.7 953.43,-11.14 963.41,-14.7 963.46,-7.7"/>
</g>
<!-- Node24&#45;&gt;Node18 -->
<g id="edge39" class="edge">
<title>Node24&#45;&gt;Node18</title>
<path fill="none" stroke="midnightblue" d="M1700.49,-358.22C1704.14,-336.03 1710.26,-277.22 1679.83,-246 1650.69,-216.1 1536.52,-203.58 1464.77,-198.58"/>
<polygon fill="midnightblue" stroke="midnightblue" points="1464.72,-195.07 1454.51,-197.9 1464.25,-202.06 1464.72,-195.07"/>
</g>
<!-- Node25 -->
<g id="node25" class="node">
<title>Node25</title>
<g id="a_node25"><a xlink:href="RealConstants_8hpp.html" target="_top" xlink:title="Definitions file for constant expressions of type Real.">
<polygon fill="white" stroke="black" points="1522.83,-246.5 1522.83,-265.5 1670.83,-265.5 1670.83,-246.5 1522.83,-246.5"/>
<text text-anchor="middle" x="1596.83" y="-253.5" font-family="Helvetica,sans-Serif" font-size="10.00">playrho/RealConstants.hpp</text>
</a>
</g>
</g>
<!-- Node24&#45;&gt;Node25 -->
<g id="edge40" class="edge">
<title>Node24&#45;&gt;Node25</title>
<path fill="none" stroke="midnightblue" d="M1690.83,-358.37C1673.77,-339.97 1633.62,-296.67 1611.72,-273.05"/>
<polygon fill="midnightblue" stroke="midnightblue" points="1614.17,-270.54 1604.8,-265.59 1609.03,-275.3 1614.17,-270.54"/>
</g>
<!-- Node24&#45;&gt;Node26 -->
<g id="edge42" class="edge">
<title>Node24&#45;&gt;Node26</title>
<path fill="none" stroke="midnightblue" d="M1640.01,-360.27C1550.21,-350 1379.76,-330.5 1288.37,-320.04"/>
<polygon fill="midnightblue" stroke="midnightblue" points="1288.76,-316.56 1278.43,-318.9 1287.97,-323.52 1288.76,-316.56"/>
</g>
<!-- Node29 -->
<g id="node29" class="node">
<title>Node29</title>
<g id="a_node29"><a xlink:href="WiderType_8hpp.html" target="_top" xlink:title="Definition of the WiderType alias template.">
<polygon fill="white" stroke="black" points="1764.83,-302.5 1764.83,-321.5 1892.83,-321.5 1892.83,-302.5 1764.83,-302.5"/>
<text text-anchor="middle" x="1828.83" y="-309.5" font-family="Helvetica,sans-Serif" font-size="10.00">playrho/WiderType.hpp</text>
</a>
</g>
</g>
<!-- Node24&#45;&gt;Node29 -->
<g id="edge51" class="edge">
<title>Node24&#45;&gt;Node29</title>
<path fill="none" stroke="midnightblue" d="M1719.43,-358.44C1740.83,-349.56 1774.52,-335.56 1798.86,-325.45"/>
<polygon fill="midnightblue" stroke="midnightblue" points="1800.44,-328.58 1808.33,-321.52 1797.75,-322.12 1800.44,-328.58"/>
</g>
<!-- Node25&#45;&gt;Node18 -->
<g id="edge41" class="edge">
<title>Node25&#45;&gt;Node18</title>
<path fill="none" stroke="midnightblue" d="M1569.33,-246.48C1535.96,-236.14 1479.57,-218.66 1442.27,-207.1"/>
<polygon fill="midnightblue" stroke="midnightblue" points="1442.88,-203.63 1432.29,-204.01 1440.81,-210.31 1442.88,-203.63"/>
</g>
<!-- Node26&#45;&gt;Node3 -->
<g id="edge43" class="edge">
<title>Node26&#45;&gt;Node3</title>
<path fill="none" stroke="midnightblue" d="M1255.04,-302.44C1286.67,-292.85 1337.91,-277.3 1371.5,-267.11"/>
<polygon fill="midnightblue" stroke="midnightblue" points="1372.76,-270.39 1381.31,-264.14 1370.72,-263.69 1372.76,-270.39"/>
</g>
<!-- Node26&#45;&gt;Node8 -->
<g id="edge44" class="edge">
<title>Node26&#45;&gt;Node8</title>
<path fill="none" stroke="midnightblue" d="M1175.08,-307.35C1146.72,-302.39 1113.79,-291.15 1095.83,-266 1090.67,-258.77 1094.7,-254.82 1095.83,-246 1102.99,-190.49 1130.16,-178.49 1122.83,-123 1118.8,-92.43 1126.91,-77.53 1104.83,-56 1084.96,-36.62 1011.77,-23.36 963.35,-16.5"/>
<polygon fill="midnightblue" stroke="midnightblue" points="963.8,-13.03 953.42,-15.13 962.84,-19.96 963.8,-13.03"/>
</g>
<!-- Node26&#45;&gt;Node18 -->
<g id="edge45" class="edge">
<title>Node26&#45;&gt;Node18</title>
<path fill="none" stroke="midnightblue" d="M1240.21,-302.32C1270.62,-282.59 1345.19,-234.2 1382.63,-209.91"/>
<polygon fill="midnightblue" stroke="midnightblue" points="1384.82,-212.66 1391.3,-204.28 1381.01,-206.79 1384.82,-212.66"/>
</g>
<!-- Node26&#45;&gt;Node19 -->
<g id="edge47" class="edge">
<title>Node26&#45;&gt;Node19</title>
<path fill="none" stroke="midnightblue" d="M1175.32,-306.56C1140.71,-301.38 1095.61,-290.2 1062.83,-266 1022.53,-236.24 996.7,-180.85 985.41,-152.2"/>
<polygon fill="midnightblue" stroke="midnightblue" points="988.6,-150.76 981.79,-142.64 982.06,-153.23 988.6,-150.76"/>
</g>
<!-- Node26&#45;&gt;Node25 -->
<g id="edge46" class="edge">
<title>Node26&#45;&gt;Node25</title>
<path fill="none" stroke="midnightblue" d="M1278.67,-303.43C1343.92,-293.91 1456.18,-277.53 1528.42,-266.99"/>
<polygon fill="midnightblue" stroke="midnightblue" points="1528.95,-270.45 1538.33,-265.54 1527.93,-263.52 1528.95,-270.45"/>
</g>
<!-- Node27 -->
<g id="node27" class="node">
<title>Node27</title>
<g id="a_node27"><a xlink:href="to__underlying_8hpp.html" target="_top" xlink:title="Definition of to_underlying function template.">
<polygon fill="white" stroke="black" points="1104.83,-246.5 1104.83,-265.5 1248.83,-265.5 1248.83,-246.5 1104.83,-246.5"/>
<text text-anchor="middle" x="1176.83" y="-253.5" font-family="Helvetica,sans-Serif" font-size="10.00">playrho/to_underlying.hpp</text>
</a>
</g>
</g>
<!-- Node26&#45;&gt;Node27 -->
<g id="edge48" class="edge">
<title>Node26&#45;&gt;Node27</title>
<path fill="none" stroke="midnightblue" d="M1218.58,-302.08C1211.37,-294.3 1200.72,-282.8 1191.99,-273.37"/>
<polygon fill="midnightblue" stroke="midnightblue" points="1194.3,-270.71 1184.94,-265.75 1189.16,-275.47 1194.3,-270.71"/>
</g>
<!-- Node28 -->
<g id="node28" class="node">
<title>Node28</title>
<g id="a_node28"><a xlink:href="underlying__type_8hpp.html" target="_top" xlink:title="Definition of underlying_type trait class and related code.">
<polygon fill="white" stroke="black" points="1175.33,-56.5 1175.33,-86.5 1314.33,-86.5 1314.33,-56.5 1175.33,-56.5"/>
<text text-anchor="start" x="1183.33" y="-74.5" font-family="Helvetica,sans-Serif" font-size="10.00">playrho/detail/underlying</text>
<text text-anchor="middle" x="1244.83" y="-63.5" font-family="Helvetica,sans-Serif" font-size="10.00">_type.hpp</text>
</a>
</g>
</g>
<!-- Node27&#45;&gt;Node28 -->
<g id="edge49" class="edge">
<title>Node27&#45;&gt;Node28</title>
<path fill="none" stroke="midnightblue" d="M1180.11,-246.2C1190.17,-219.22 1220.78,-137.05 1236.02,-96.15"/>
<polygon fill="midnightblue" stroke="midnightblue" points="1239.33,-97.29 1239.55,-86.69 1232.77,-94.84 1239.33,-97.29"/>
</g>
<!-- Node28&#45;&gt;Node8 -->
<g id="edge50" class="edge">
<title>Node28&#45;&gt;Node8</title>
<path fill="none" stroke="midnightblue" d="M1175.3,-57.81C1111.35,-46.14 1018.42,-29.18 963.75,-19.2"/>
<polygon fill="midnightblue" stroke="midnightblue" points="964.14,-15.71 953.67,-17.36 962.88,-22.6 964.14,-15.71"/>
</g>
<!-- Node30 -->
<g id="node30" class="node">
<title>Node30</title>
<g id="a_node30"><a xlink:href="Wider_8hpp.html" target="_top" xlink:title="Definition of the Wider class template and specializations.">
<polygon fill="white" stroke="black" points="1802.83,-246.5 1802.83,-265.5 1938.83,-265.5 1938.83,-246.5 1802.83,-246.5"/>
<text text-anchor="middle" x="1870.83" y="-253.5" font-family="Helvetica,sans-Serif" font-size="10.00">playrho/detail/Wider.hpp</text>
</a>
</g>
</g>
<!-- Node29&#45;&gt;Node30 -->
<g id="edge52" class="edge">
<title>Node29&#45;&gt;Node30</title>
<path fill="none" stroke="midnightblue" d="M1835.77,-302.08C1841.76,-294.38 1850.59,-283.03 1857.88,-273.65"/>
<polygon fill="midnightblue" stroke="midnightblue" points="1860.65,-275.79 1864.03,-265.75 1855.13,-271.5 1860.65,-275.79"/>
</g>
<!-- Node30&#45;&gt;Node4 -->
<g id="edge53" class="edge">
<title>Node30&#45;&gt;Node4</title>
<path fill="none" stroke="midnightblue" d="M1852.21,-246.48C1830.39,-236.49 1794.03,-219.85 1768.82,-208.31"/>
<polygon fill="midnightblue" stroke="midnightblue" points="1769.98,-204.99 1759.43,-204.01 1767.06,-211.35 1769.98,-204.99"/>
</g>
<!-- Node30&#45;&gt;Node8 -->
<g id="edge54" class="edge">
<title>Node30&#45;&gt;Node8</title>
<path fill="none" stroke="midnightblue" d="M1859.65,-246.45C1847.93,-237.46 1828.99,-222.85 1812.83,-210 1795.78,-196.43 1794.21,-188.97 1774.83,-179 1491.64,-33.26 1096.05,-13.59 963.85,-11.22"/>
<polygon fill="midnightblue" stroke="midnightblue" points="963.75,-7.72 953.7,-11.06 963.64,-14.71 963.75,-7.72"/>
</g>
<!-- Node31 -->
<g id="node31" class="node">
<title>Node31</title>
<g id="a_node31"><a xlink:href="Defines_8hpp.html" target="_top" xlink:title="Miscellaneous C&#45;preprocessor definitions.">
<polygon fill="white" stroke="black" points="1821.83,-185 1821.83,-204 1935.83,-204 1935.83,-185 1821.83,-185"/>
<text text-anchor="middle" x="1878.83" y="-192" font-family="Helvetica,sans-Serif" font-size="10.00">playrho/Defines.hpp</text>
</a>
</g>
</g>
<!-- Node30&#45;&gt;Node31 -->
<g id="edge55" class="edge">
<title>Node30&#45;&gt;Node31</title>
<path fill="none" stroke="midnightblue" d="M1871.98,-246.48C1873.11,-238.08 1874.87,-224.98 1876.32,-214.16"/>
<polygon fill="midnightblue" stroke="midnightblue" points="1879.83,-214.39 1877.69,-204.01 1872.89,-213.45 1879.83,-214.39"/>
</g>
<!-- Node32&#45;&gt;Node8 -->
<g id="edge61" class="edge">
<title>Node32&#45;&gt;Node8</title>
<path fill="none" stroke="midnightblue" d="M599.97,-246.49C558.46,-226.58 465.54,-174.67 499.83,-123 541.56,-60.14 774.74,-27.06 874.04,-15.66"/>
<polygon fill="midnightblue" stroke="midnightblue" points="874.52,-19.13 884.07,-14.53 873.74,-12.17 874.52,-19.13"/>
</g>
<!-- Node33 -->
<g id="node33" class="node">
<title>Node33</title>
<g id="a_node33"><a xlink:href="Checked_8hpp.html" target="_top" xlink:title="Declarations of the Checked class template and closely related code.">
<polygon fill="white" stroke="black" points="625.33,-185 625.33,-204 774.33,-204 774.33,-185 625.33,-185"/>
<text text-anchor="middle" x="699.83" y="-192" font-family="Helvetica,sans-Serif" font-size="10.00">playrho/detail/Checked.hpp</text>
</a>
</g>
</g>
<!-- Node32&#45;&gt;Node33 -->
<g id="edge62" class="edge">
<title>Node32&#45;&gt;Node33</title>
<path fill="none" stroke="midnightblue" d="M630.44,-246.48C643.31,-237.02 664.31,-221.6 679.84,-210.19"/>
<polygon fill="midnightblue" stroke="midnightblue" points="682.26,-212.75 688.25,-204.01 678.12,-207.11 682.26,-212.75"/>
</g>
<!-- Node34 -->
<g id="node34" class="node">
<title>Node34</title>
<g id="a_node34"><a xlink:href="NonNegativeChecker_8hpp.html" target="_top" xlink:title="Definition of the NonNegativeChecker class template.">
<polygon fill="white" stroke="black" points="304.33,-179.5 304.33,-209.5 455.33,-209.5 455.33,-179.5 304.33,-179.5"/>
<text text-anchor="start" x="312.33" y="-197.5" font-family="Helvetica,sans-Serif" font-size="10.00">playrho/detail/NonNegative</text>
<text text-anchor="middle" x="379.83" y="-186.5" font-family="Helvetica,sans-Serif" font-size="10.00">Checker.hpp</text>
</a>
</g>
</g>
<!-- Node32&#45;&gt;Node34 -->
<g id="edge68" class="edge">
<title>Node32&#45;&gt;Node34</title>
<path fill="none" stroke="midnightblue" d="M584.59,-246.48C548.59,-237.51 491.05,-223.19 446.12,-212"/>
<polygon fill="midnightblue" stroke="midnightblue" points="446.71,-208.54 436.16,-209.52 445.02,-215.34 446.71,-208.54"/>
</g>
<!-- Node33&#45;&gt;Node8 -->
<g id="edge64" class="edge">
<title>Node33&#45;&gt;Node8</title>
<path fill="none" stroke="midnightblue" d="M688.17,-184.99C676.94,-176 660.69,-160.7 653.83,-143 638.04,-102.21 663.39,-80.19 699.83,-56 752.6,-20.98 827.07,-12.32 874.14,-10.65"/>
<polygon fill="midnightblue" stroke="midnightblue" points="874.42,-14.14 884.33,-10.38 874.24,-7.14 874.42,-14.14"/>
</g>
<!-- Node33&#45;&gt;Node15 -->
<g id="edge63" class="edge">
<title>Node33&#45;&gt;Node15</title>
<path fill="none" stroke="midnightblue" d="M676.77,-184.98C649.15,-174.77 602.71,-157.61 571.44,-146.05"/>
<polygon fill="midnightblue" stroke="midnightblue" points="572.45,-142.69 561.86,-142.51 570.03,-149.26 572.45,-142.69"/>
</g>
<!-- Node33&#45;&gt;Node16 -->
<g id="edge66" class="edge">
<title>Node33&#45;&gt;Node16</title>
<path fill="none" stroke="midnightblue" d="M705.85,-184.98C712.09,-176.14 722.01,-162.09 729.85,-150.98"/>
<polygon fill="midnightblue" stroke="midnightblue" points="732.92,-152.7 735.83,-142.51 727.2,-148.66 732.92,-152.7"/>
</g>
<!-- Node33&#45;&gt;Node19 -->
<g id="edge67" class="edge">
<title>Node33&#45;&gt;Node19</title>
<path fill="none" stroke="midnightblue" d="M739.81,-184.98C789.63,-174.35 874.81,-156.18 928.88,-144.65"/>
<polygon fill="midnightblue" stroke="midnightblue" points="929.88,-148.02 938.93,-142.51 928.42,-141.17 929.88,-148.02"/>
</g>
<!-- Node33&#45;&gt;Node22 -->
<g id="edge65" class="edge">
<title>Node33&#45;&gt;Node22</title>
<path fill="none" stroke="midnightblue" d="M688.82,-184.98C668.3,-169.63 622.24,-137.53 577.83,-123 437.62,-77.1 373.71,-163.96 247.83,-87 226.21,-73.78 212.05,-47.26 204.49,-29.32"/>
<polygon fill="midnightblue" stroke="midnightblue" points="207.71,-27.94 200.8,-19.91 201.19,-30.5 207.71,-27.94"/>
</g>
<!-- Node35&#45;&gt;Node2 -->
<g id="edge72" class="edge">
<title>Node35&#45;&gt;Node2</title>
<path fill="none" stroke="midnightblue" d="M142.57,-246.48C150.83,-237.37 164.11,-222.74 174.33,-211.48"/>
<polygon fill="midnightblue" stroke="midnightblue" points="176.98,-213.77 181.11,-204.01 171.8,-209.06 176.98,-213.77"/>
</g>
<!-- Node35&#45;&gt;Node8 -->
<g id="edge74" class="edge">
<title>Node35&#45;&gt;Node8</title>
<path fill="none" stroke="midnightblue" d="M134.44,-246.2C134.23,-230.56 136.11,-197.8 153.83,-179 169.49,-162.39 523.52,-60.8 545.83,-56 662.74,-30.83 803.51,-18.63 874,-13.73"/>
<polygon fill="midnightblue" stroke="midnightblue" points="874.55,-17.21 884.29,-13.04 874.07,-10.22 874.55,-17.21"/>
</g>
<!-- Node35&#45;&gt;Node12 -->
<g id="edge71" class="edge">
<title>Node35&#45;&gt;Node12</title>
<path fill="none" stroke="midnightblue" d="M152.74,-246.48C173.72,-236.49 208.68,-219.85 232.93,-208.31"/>
<polygon fill="midnightblue" stroke="midnightblue" points="234.43,-211.47 241.96,-204.01 231.42,-205.15 234.43,-211.47"/>
</g>
<!-- Node35&#45;&gt;Node20 -->
<g id="edge76" class="edge">
<title>Node35&#45;&gt;Node20</title>
<path fill="none" stroke="midnightblue" d="M84.15,-249.65C58.58,-244.09 29.7,-232.82 13.83,-210 5.97,-198.69 5.77,-190.17 13.83,-179 66.45,-106.13 170.81,-82.3 246.49,-74.93"/>
<polygon fill="midnightblue" stroke="midnightblue" points="246.86,-78.41 256.5,-74.03 246.23,-71.44 246.86,-78.41"/>
</g>
<!-- Node35&#45;&gt;Node22 -->
<g id="edge75" class="edge">
<title>Node35&#45;&gt;Node22</title>
<path fill="none" stroke="midnightblue" d="M84.12,-251.35C55.83,-246.41 22.77,-235.19 4.83,-210 -3.16,-198.78 0.55,-192.1 4.83,-179 30.6,-100.19 121.38,-47 168.68,-23.96"/>
<polygon fill="midnightblue" stroke="midnightblue" points="170.27,-27.08 177.81,-19.63 167.27,-20.76 170.27,-27.08"/>
</g>
<!-- Node36 -->
<g id="node36" class="node">
<title>Node36</title>
<g id="a_node36"><a xlink:title=" ">
<polygon fill="white" stroke="#bfbfbf" points="23.33,-185 23.33,-204 106.33,-204 106.33,-185 23.33,-185"/>
<text text-anchor="middle" x="64.83" y="-192" font-family="Helvetica,sans-Serif" font-size="10.00">initializer_list</text>
</a>
</g>
</g>
<!-- Node35&#45;&gt;Node36 -->
<g id="edge73" class="edge">
<title>Node35&#45;&gt;Node36</title>
<path fill="none" stroke="midnightblue" d="M124.81,-246.48C113.79,-237.11 95.87,-221.88 82.49,-210.51"/>
<polygon fill="midnightblue" stroke="midnightblue" points="84.73,-207.82 74.85,-204.01 80.2,-213.15 84.73,-207.82"/>
</g>
<!-- Node37&#45;&gt;Node11 -->
<g id="edge83" class="edge">
<title>Node37&#45;&gt;Node11</title>
<path fill="none" stroke="midnightblue" d="M1423.46,-414.42C1315.39,-386.65 974.98,-299.18 854.01,-268.1"/>
<polygon fill="midnightblue" stroke="midnightblue" points="854.56,-264.62 844.01,-265.52 852.82,-271.4 854.56,-264.62"/>
</g>
<!-- Node37&#45;&gt;Node18 -->
<g id="edge81" class="edge">
<title>Node37&#45;&gt;Node18</title>
<path fill="none" stroke="midnightblue" d="M1457.31,-414.21C1458.45,-387.83 1459.76,-307.42 1437.83,-246 1433.46,-233.74 1425.55,-221.48 1418.58,-212.11"/>
<polygon fill="midnightblue" stroke="midnightblue" points="1421.24,-209.83 1412.32,-204.11 1415.72,-214.14 1421.24,-209.83"/>
</g>
<!-- Node37&#45;&gt;Node24 -->
<g id="edge82" class="edge">
<title>Node37&#45;&gt;Node24</title>
<path fill="none" stroke="midnightblue" d="M1495.18,-414.44C1537.31,-405.04 1605.04,-389.93 1650.71,-379.74"/>
<polygon fill="midnightblue" stroke="midnightblue" points="1651.67,-383.11 1660.67,-377.52 1650.15,-376.28 1651.67,-383.11"/>
</g>
</g>
</svg>
