<?xml version="1.0" encoding="UTF-8" standalone="no"?>
<!DOCTYPE svg PUBLIC "-//W3C//DTD SVG 1.1//EN"
 "http://www.w3.org/Graphics/SVG/1.1/DTD/svg11.dtd">
<!-- Generated by graphviz version 2.43.0 (0)
 -->
<!-- Title: Library/include/playrho/Math.hpp Pages: 1 -->
<svg width="2169pt" height="565pt"
 viewBox="0.00 0.00 2169.49 565.00" xmlns="http://www.w3.org/2000/svg" xmlns:xlink="http://www.w3.org/1999/xlink">
<g id="graph0" class="graph" transform="scale(1 1) rotate(0) translate(4 561)">
<title>Library/include/playrho/Math.hpp</title>
<polygon fill="white" stroke="transparent" points="-4,4 -4,-561 2165.49,-561 2165.49,4 -4,4"/>
<!-- Node1 -->
<g id="node1" class="node">
<title>Node1</title>
<g id="a_node1"><a xlink:title="Conventional and custom math related code.">
<polygon fill="#bfbfbf" stroke="black" points="528,-526.5 528,-556.5 656,-556.5 656,-526.5 528,-526.5"/>
<text text-anchor="start" x="536" y="-544.5" font-family="Helvetica,sans-Serif" font-size="10.00">Library/include/playrho</text>
<text text-anchor="middle" x="592" y="-533.5" font-family="Helvetica,sans-Serif" font-size="10.00">/Math.hpp</text>
</a>
</g>
</g>
<!-- Node2 -->
<g id="node2" class="node">
<title>Node2</title>
<g id="a_node2"><a xlink:title=" ">
<polygon fill="white" stroke="#bfbfbf" points="1955,-185 1955,-204 2007,-204 2007,-185 1955,-185"/>
<text text-anchor="middle" x="1981" y="-192" font-family="Helvetica,sans-Serif" font-size="10.00">cassert</text>
</a>
</g>
</g>
<!-- Node1&#45;&gt;Node2 -->
<g id="edge1" class="edge">
<title>Node1&#45;&gt;Node2</title>
<path fill="none" stroke="midnightblue" d="M656.19,-540.36C887.25,-539 1663,-526.87 1663,-425 1663,-425 1663,-425 1663,-311 1663,-177.45 1821.38,-258.02 1946,-210 1947.65,-209.37 1949.33,-208.71 1951.03,-208.03"/>
<polygon fill="midnightblue" stroke="midnightblue" points="1952.76,-211.11 1960.71,-204.11 1950.13,-204.62 1952.76,-211.11"/>
</g>
<!-- Node3 -->
<g id="node3" class="node">
<title>Node3</title>
<g id="a_node3"><a xlink:title=" ">
<polygon fill="white" stroke="#bfbfbf" points="448.5,-246.5 448.5,-265.5 495.5,-265.5 495.5,-246.5 448.5,-246.5"/>
<text text-anchor="middle" x="472" y="-253.5" font-family="Helvetica,sans-Serif" font-size="10.00">cmath</text>
</a>
</g>
</g>
<!-- Node1&#45;&gt;Node3 -->
<g id="edge2" class="edge">
<title>Node1&#45;&gt;Node3</title>
<path fill="none" stroke="midnightblue" d="M527.84,-529.76C484.97,-521.12 434.11,-507.54 421,-490 370.63,-422.61 432.34,-315.43 459.95,-274.06"/>
<polygon fill="midnightblue" stroke="midnightblue" points="462.95,-275.87 465.71,-265.64 457.17,-271.92 462.95,-275.87"/>
</g>
<!-- Node4 -->
<g id="node4" class="node">
<title>Node4</title>
<g id="a_node4"><a xlink:title=" ">
<polygon fill="white" stroke="#bfbfbf" points="312,-185 312,-204 362,-204 362,-185 312,-185"/>
<text text-anchor="middle" x="337" y="-192" font-family="Helvetica,sans-Serif" font-size="10.00">cstdint</text>
</a>
</g>
</g>
<!-- Node1&#45;&gt;Node4 -->
<g id="edge3" class="edge">
<title>Node1&#45;&gt;Node4</title>
<path fill="none" stroke="midnightblue" d="M527.95,-539.49C389.76,-535.59 76,-516.63 76,-425 76,-425 76,-425 76,-367 76,-263.03 203.14,-327.46 287,-266 305.67,-252.32 319.99,-229.54 328.43,-213.58"/>
<polygon fill="midnightblue" stroke="midnightblue" points="331.75,-214.76 333.11,-204.25 325.49,-211.62 331.75,-214.76"/>
</g>
<!-- Node5 -->
<g id="node5" class="node">
<title>Node5</title>
<g id="a_node5"><a xlink:title=" ">
<polygon fill="white" stroke="#bfbfbf" points="1070.5,-56.5 1070.5,-75.5 1119.5,-75.5 1119.5,-56.5 1070.5,-56.5"/>
<text text-anchor="middle" x="1095" y="-63.5" font-family="Helvetica,sans-Serif" font-size="10.00">cstdlib</text>
</a>
</g>
</g>
<!-- Node1&#45;&gt;Node5 -->
<g id="edge4" class="edge">
<title>Node1&#45;&gt;Node5</title>
<path fill="none" stroke="midnightblue" d="M527.93,-530.77C480.8,-522.25 422.23,-508.37 406,-490 334.01,-408.55 351.52,-327.9 423,-246 509.4,-147.01 934.65,-86.95 1060.1,-71.18"/>
<polygon fill="midnightblue" stroke="midnightblue" points="1060.8,-74.62 1070.29,-69.92 1059.94,-67.68 1060.8,-74.62"/>
</g>
<!-- Node6 -->
<g id="node6" class="node">
<title>Node6</title>
<g id="a_node6"><a xlink:title=" ">
<polygon fill="white" stroke="#bfbfbf" points="80,-118 80,-137 124,-137 124,-118 80,-118"/>
<text text-anchor="middle" x="102" y="-125" font-family="Helvetica,sans-Serif" font-size="10.00">limits</text>
</a>
</g>
</g>
<!-- Node1&#45;&gt;Node6 -->
<g id="edge5" class="edge">
<title>Node1&#45;&gt;Node6</title>
<path fill="none" stroke="midnightblue" d="M527.91,-540.49C382.08,-538.74 38,-524.11 38,-425 38,-425 38,-425 38,-311 38,-247.38 73.07,-177.95 91.29,-146.17"/>
<polygon fill="midnightblue" stroke="midnightblue" points="94.49,-147.62 96.54,-137.23 88.46,-144.08 94.49,-147.62"/>
</g>
<!-- Node7 -->
<g id="node7" class="node">
<title>Node7</title>
<g id="a_node7"><a xlink:title=" ">
<polygon fill="white" stroke="#bfbfbf" points="430,-470.5 430,-489.5 486,-489.5 486,-470.5 430,-470.5"/>
<text text-anchor="middle" x="458" y="-477.5" font-family="Helvetica,sans-Serif" font-size="10.00">numeric</text>
</a>
</g>
</g>
<!-- Node1&#45;&gt;Node7 -->
<g id="edge6" class="edge">
<title>Node1&#45;&gt;Node7</title>
<path fill="none" stroke="midnightblue" d="M560.24,-526.4C537.96,-516.51 508.41,-503.38 486.81,-493.79"/>
<polygon fill="midnightblue" stroke="midnightblue" points="488.06,-490.52 477.5,-489.66 485.22,-496.91 488.06,-490.52"/>
</g>
<!-- Node8 -->
<g id="node8" class="node">
<title>Node8</title>
<g id="a_node8"><a xlink:title=" ">
<polygon fill="white" stroke="#bfbfbf" points="1145.5,-0.5 1145.5,-19.5 1214.5,-19.5 1214.5,-0.5 1145.5,-0.5"/>
<text text-anchor="middle" x="1180" y="-7.5" font-family="Helvetica,sans-Serif" font-size="10.00">type_traits</text>
</a>
</g>
</g>
<!-- Node1&#45;&gt;Node8 -->
<g id="edge7" class="edge">
<title>Node1&#45;&gt;Node8</title>
<path fill="none" stroke="midnightblue" d="M527.81,-539.8C405.61,-537.57 144.55,-528.34 64,-490 27.39,-472.58 0,-465.54 0,-425 0,-425 0,-425 0,-126.5 0,-10.18 920.03,-9.23 1135.32,-10.6"/>
<polygon fill="midnightblue" stroke="midnightblue" points="1135.3,-14.1 1145.32,-10.66 1135.35,-7.1 1135.3,-14.1"/>
</g>
<!-- Node9 -->
<g id="node9" class="node">
<title>Node9</title>
<g id="a_node9"><a xlink:title=" ">
<polygon fill="white" stroke="#bfbfbf" points="542.5,-470.5 542.5,-489.5 589.5,-489.5 589.5,-470.5 542.5,-470.5"/>
<text text-anchor="middle" x="566" y="-477.5" font-family="Helvetica,sans-Serif" font-size="10.00">vector</text>
</a>
</g>
</g>
<!-- Node1&#45;&gt;Node9 -->
<g id="edge8" class="edge">
<title>Node1&#45;&gt;Node9</title>
<path fill="none" stroke="midnightblue" d="M585.84,-526.4C582.26,-518.2 577.7,-507.78 573.86,-498.99"/>
<polygon fill="midnightblue" stroke="midnightblue" points="576.99,-497.42 569.78,-489.66 570.58,-500.22 576.99,-497.42"/>
</g>
<!-- Node10 -->
<g id="node10" class="node">
<title>Node10</title>
<g id="a_node10"><a xlink:href="Matrix_8hpp.html" target="_top" xlink:title="Definition of the Matrix alias and closely related code.">
<polygon fill="white" stroke="black" points="854.5,-470.5 854.5,-489.5 963.5,-489.5 963.5,-470.5 854.5,-470.5"/>
<text text-anchor="middle" x="909" y="-477.5" font-family="Helvetica,sans-Serif" font-size="10.00">playrho/Matrix.hpp</text>
</a>
</g>
</g>
<!-- Node1&#45;&gt;Node10 -->
<g id="edge9" class="edge">
<title>Node1&#45;&gt;Node10</title>
<path fill="none" stroke="midnightblue" d="M656.15,-528.46C714.06,-517.59 798.38,-501.76 853.46,-491.42"/>
<polygon fill="midnightblue" stroke="midnightblue" points="854.21,-494.85 863.39,-489.56 852.92,-487.97 854.21,-494.85"/>
</g>
<!-- Node11 -->
<g id="node11" class="node">
<title>Node11</title>
<g id="a_node11"><a xlink:href="Vector_8hpp.html" target="_top" xlink:title="Definition of the Vector class template and closely related code.">
<polygon fill="white" stroke="black" points="1228.5,-246.5 1228.5,-265.5 1335.5,-265.5 1335.5,-246.5 1228.5,-246.5"/>
<text text-anchor="middle" x="1282" y="-253.5" font-family="Helvetica,sans-Serif" font-size="10.00">playrho/Vector.hpp</text>
</a>
</g>
</g>
<!-- Node1&#45;&gt;Node11 -->
<g id="edge80" class="edge">
<title>Node1&#45;&gt;Node11</title>
<path fill="none" stroke="midnightblue" d="M656.09,-535.91C821.16,-523.24 1248,-484.7 1248,-425 1248,-425 1248,-425 1248,-367 1248,-333.16 1262.87,-295.97 1272.94,-274.66"/>
<polygon fill="midnightblue" stroke="midnightblue" points="1276.14,-276.08 1277.41,-265.56 1269.86,-272.99 1276.14,-276.08"/>
</g>
<!-- Node21 -->
<g id="node21" class="node">
<title>Node21</title>
<g id="a_node21"><a xlink:href="Real_8hpp.html" target="_top" xlink:title="Real number definition file.">
<polygon fill="white" stroke="black" points="665.5,-185 665.5,-204 764.5,-204 764.5,-185 665.5,-185"/>
<text text-anchor="middle" x="715" y="-192" font-family="Helvetica,sans-Serif" font-size="10.00">playrho/Real.hpp</text>
</a>
</g>
</g>
<!-- Node1&#45;&gt;Node21 -->
<g id="edge71" class="edge">
<title>Node1&#45;&gt;Node21</title>
<path fill="none" stroke="midnightblue" d="M573.85,-526.34C518.52,-481.54 360.42,-340.27 439,-246 465.94,-213.68 582.21,-201.98 654.97,-197.79"/>
<polygon fill="midnightblue" stroke="midnightblue" points="655.58,-201.27 665.38,-197.23 655.2,-194.28 655.58,-201.27"/>
</g>
<!-- Node24 -->
<g id="node24" class="node">
<title>Node24</title>
<g id="a_node24"><a xlink:href="Vector2_8hpp.html" target="_top" xlink:title="Definition of the Vector2 alias template and closely related code.">
<polygon fill="white" stroke="black" points="729,-414.5 729,-433.5 843,-433.5 843,-414.5 729,-414.5"/>
<text text-anchor="middle" x="786" y="-421.5" font-family="Helvetica,sans-Serif" font-size="10.00">playrho/Vector2.hpp</text>
</a>
</g>
</g>
<!-- Node1&#45;&gt;Node24 -->
<g id="edge81" class="edge">
<title>Node1&#45;&gt;Node24</title>
<path fill="none" stroke="midnightblue" d="M636.81,-526.4C660.98,-517.76 690.73,-505.4 715,-490 736.7,-476.23 757.96,-455.54 771.47,-441.22"/>
<polygon fill="midnightblue" stroke="midnightblue" points="774.27,-443.35 778.47,-433.62 769.12,-438.6 774.27,-443.35"/>
</g>
<!-- Node27 -->
<g id="node27" class="node">
<title>Node27</title>
<g id="a_node27"><a xlink:href="Units_8hpp.html" target="_top" xlink:title="Declarations for physical units possibly backed by strong types.">
<polygon fill="white" stroke="black" points="672.5,-302.5 672.5,-321.5 775.5,-321.5 775.5,-302.5 672.5,-302.5"/>
<text text-anchor="middle" x="724" y="-309.5" font-family="Helvetica,sans-Serif" font-size="10.00">playrho/Units.hpp</text>
</a>
</g>
</g>
<!-- Node1&#45;&gt;Node27 -->
<g id="edge79" class="edge">
<title>Node1&#45;&gt;Node27</title>
<path fill="none" stroke="midnightblue" d="M607.03,-526.32C626.67,-507.06 661.03,-470.81 682,-434 701.28,-400.16 713.84,-355.97 719.85,-331.45"/>
<polygon fill="midnightblue" stroke="midnightblue" points="723.27,-332.21 722.15,-321.67 716.45,-330.6 723.27,-332.21"/>
</g>
<!-- Node33 -->
<g id="node33" class="node">
<title>Node33</title>
<g id="a_node33"><a xlink:href="NonNegative_8hpp.html" target="_top" xlink:title="Definition of the NonNegative value checked types.">
<polygon fill="white" stroke="black" points="1409.5,-246.5 1409.5,-265.5 1550.5,-265.5 1550.5,-246.5 1409.5,-246.5"/>
<text text-anchor="middle" x="1480" y="-253.5" font-family="Helvetica,sans-Serif" font-size="10.00">playrho/NonNegative.hpp</text>
</a>
</g>
</g>
<!-- Node1&#45;&gt;Node33 -->
<g id="edge62" class="edge">
<title>Node1&#45;&gt;Node33</title>
<path fill="none" stroke="midnightblue" d="M656.18,-537.33C837.59,-527.51 1341,-494.03 1341,-425 1341,-425 1341,-425 1341,-367 1341,-315.58 1400.23,-284.42 1441.36,-268.98"/>
<polygon fill="midnightblue" stroke="midnightblue" points="1442.63,-272.24 1450.86,-265.57 1440.27,-265.65 1442.63,-272.24"/>
</g>
<!-- Node36 -->
<g id="node36" class="node">
<title>Node36</title>
<g id="a_node36"><a xlink:href="Span_8hpp.html" target="_top" xlink:title="Definition of the Span class template.">
<polygon fill="white" stroke="black" points="1930.5,-246.5 1930.5,-265.5 2031.5,-265.5 2031.5,-246.5 1930.5,-246.5"/>
<text text-anchor="middle" x="1981" y="-253.5" font-family="Helvetica,sans-Serif" font-size="10.00">playrho/Span.hpp</text>
</a>
</g>
</g>
<!-- Node1&#45;&gt;Node36 -->
<g id="edge72" class="edge">
<title>Node1&#45;&gt;Node36</title>
<path fill="none" stroke="midnightblue" d="M656.04,-539.28C857.73,-535.17 1478.24,-520.33 1677,-490 1789.64,-472.81 1925,-538.95 1925,-425 1925,-425 1925,-425 1925,-367 1925,-330.44 1949.88,-293.75 1966.47,-273.34"/>
<polygon fill="midnightblue" stroke="midnightblue" points="1969.2,-275.54 1972.98,-265.64 1963.85,-271.02 1969.2,-275.54"/>
</g>
<!-- Node38 -->
<g id="node38" class="node">
<title>Node38</title>
<g id="a_node38"><a xlink:href="Vector3_8hpp.html" target="_top" xlink:title="Definition of the Vector3 alias template and closely related code.">
<polygon fill="white" stroke="black" points="559,-414.5 559,-433.5 673,-433.5 673,-414.5 559,-414.5"/>
<text text-anchor="middle" x="616" y="-421.5" font-family="Helvetica,sans-Serif" font-size="10.00">playrho/Vector3.hpp</text>
</a>
</g>
</g>
<!-- Node1&#45;&gt;Node38 -->
<g id="edge82" class="edge">
<title>Node1&#45;&gt;Node38</title>
<path fill="none" stroke="midnightblue" d="M594.94,-526.34C599.27,-505.53 607.34,-466.66 612.14,-443.58"/>
<polygon fill="midnightblue" stroke="midnightblue" points="615.59,-444.17 614.2,-433.67 608.74,-442.75 615.59,-444.17"/>
</g>
<!-- Node10&#45;&gt;Node5 -->
<g id="edge10" class="edge">
<title>Node10&#45;&gt;Node5</title>
<path fill="none" stroke="midnightblue" d="M916.09,-470.25C938.42,-442.28 1007.99,-351.81 1045,-266 1072.24,-202.84 1086.84,-121.74 1092.36,-85.7"/>
<polygon fill="midnightblue" stroke="midnightblue" points="1095.85,-86.06 1093.84,-75.66 1088.92,-85.04 1095.85,-86.06"/>
</g>
<!-- Node10&#45;&gt;Node8 -->
<g id="edge11" class="edge">
<title>Node10&#45;&gt;Node8</title>
<path fill="none" stroke="midnightblue" d="M963.51,-477.88C1036.25,-473.16 1156,-452.67 1156,-369 1156,-369 1156,-369 1156,-255 1156,-191.32 1158.32,-175.33 1165,-112 1168.05,-83.13 1173.33,-49.86 1176.75,-29.64"/>
<polygon fill="midnightblue" stroke="midnightblue" points="1180.23,-30.06 1178.47,-19.62 1173.33,-28.88 1180.23,-30.06"/>
</g>
<!-- Node10&#45;&gt;Node11 -->
<g id="edge12" class="edge">
<title>Node10&#45;&gt;Node11</title>
<path fill="none" stroke="midnightblue" d="M963.78,-475.39C1030.51,-470.02 1138.26,-457.88 1170,-434 1222.1,-394.8 1195.35,-354.51 1234,-302 1242.17,-290.9 1253.3,-280.27 1262.79,-272.13"/>
<polygon fill="midnightblue" stroke="midnightblue" points="1265.12,-274.74 1270.59,-265.67 1260.65,-269.35 1265.12,-274.74"/>
</g>
<!-- Node10&#45;&gt;Node21 -->
<g id="edge60" class="edge">
<title>Node10&#45;&gt;Node21</title>
<path fill="none" stroke="midnightblue" d="M905.8,-470.12C893.7,-437.43 848.04,-321.67 782,-246 769.43,-231.6 752.14,-218.69 738.27,-209.53"/>
<polygon fill="midnightblue" stroke="midnightblue" points="740.05,-206.51 729.73,-204.07 736.27,-212.41 740.05,-206.51"/>
</g>
<!-- Node10&#45;&gt;Node24 -->
<g id="edge35" class="edge">
<title>Node10&#45;&gt;Node24</title>
<path fill="none" stroke="midnightblue" d="M889.51,-470.44C869.36,-461.6 837.68,-447.69 814.67,-437.59"/>
<polygon fill="midnightblue" stroke="midnightblue" points="815.96,-434.33 805.4,-433.52 813.15,-440.74 815.96,-434.33"/>
</g>
<!-- Node10&#45;&gt;Node27 -->
<g id="edge61" class="edge">
<title>Node10&#45;&gt;Node27</title>
<path fill="none" stroke="midnightblue" d="M902.09,-470.13C891.81,-457.18 871.59,-432.6 852,-414 816.56,-380.35 770.7,-346.15 744.6,-327.45"/>
<polygon fill="midnightblue" stroke="midnightblue" points="746.42,-324.45 736.24,-321.51 742.36,-330.15 746.42,-324.45"/>
</g>
<!-- Node11&#45;&gt;Node2 -->
<g id="edge14" class="edge">
<title>Node11&#45;&gt;Node2</title>
<path fill="none" stroke="midnightblue" d="M1335.6,-250.84C1356.06,-249.28 1379.61,-247.52 1401,-246 1643.14,-228.85 1709.61,-265.19 1946,-210 1948.67,-209.38 1951.4,-208.57 1954.1,-207.66"/>
<polygon fill="midnightblue" stroke="midnightblue" points="1955.48,-210.88 1963.57,-204.03 1952.98,-204.34 1955.48,-210.88"/>
</g>
<!-- Node11&#45;&gt;Node8 -->
<g id="edge19" class="edge">
<title>Node11&#45;&gt;Node8</title>
<path fill="none" stroke="midnightblue" d="M1287.32,-246.46C1300.9,-223.51 1334.14,-159.06 1311,-112 1290.04,-69.38 1241.49,-39.67 1209.74,-23.98"/>
<polygon fill="midnightblue" stroke="midnightblue" points="1211.01,-20.71 1200.48,-19.57 1208,-27.03 1211.01,-20.71"/>
</g>
<!-- Node12 -->
<g id="node12" class="node">
<title>Node12</title>
<g id="a_node12"><a xlink:title=" ">
<polygon fill="white" stroke="#bfbfbf" points="1539,-0.5 1539,-19.5 1603,-19.5 1603,-0.5 1539,-0.5"/>
<text text-anchor="middle" x="1571" y="-7.5" font-family="Helvetica,sans-Serif" font-size="10.00">algorithm</text>
</a>
</g>
</g>
<!-- Node11&#45;&gt;Node12 -->
<g id="edge13" class="edge">
<title>Node11&#45;&gt;Node12</title>
<path fill="none" stroke="midnightblue" d="M1335.65,-250.67C1417.76,-243.58 1570.49,-228.41 1622,-210 1646.62,-201.2 1649.21,-191.81 1672,-179 1702.84,-161.66 1721.09,-170.78 1743,-143 1767.35,-112.13 1783.35,-86.87 1759,-56 1741.2,-33.43 1663.03,-20.92 1613.26,-15.11"/>
<polygon fill="midnightblue" stroke="midnightblue" points="1613.43,-11.6 1603.11,-13.97 1612.65,-18.56 1613.43,-11.6"/>
</g>
<!-- Node13 -->
<g id="node13" class="node">
<title>Node13</title>
<g id="a_node13"><a xlink:title=" ">
<polygon fill="white" stroke="#bfbfbf" points="1714.5,-185 1714.5,-204 1767.5,-204 1767.5,-185 1714.5,-185"/>
<text text-anchor="middle" x="1741" y="-192" font-family="Helvetica,sans-Serif" font-size="10.00">cstddef</text>
</a>
</g>
</g>
<!-- Node11&#45;&gt;Node13 -->
<g id="edge15" class="edge">
<title>Node11&#45;&gt;Node13</title>
<path fill="none" stroke="midnightblue" d="M1335.63,-250.79C1432.28,-242.94 1631.94,-225.48 1700,-210 1703.24,-209.26 1706.58,-208.35 1709.88,-207.35"/>
<polygon fill="midnightblue" stroke="midnightblue" points="1711.18,-210.6 1719.57,-204.13 1708.98,-203.96 1711.18,-210.6"/>
</g>
<!-- Node14 -->
<g id="node14" class="node">
<title>Node14</title>
<g id="a_node14"><a xlink:title=" ">
<polygon fill="white" stroke="#bfbfbf" points="1687.5,-0.5 1687.5,-19.5 1740.5,-19.5 1740.5,-0.5 1687.5,-0.5"/>
<text text-anchor="middle" x="1714" y="-7.5" font-family="Helvetica,sans-Serif" font-size="10.00">iterator</text>
</a>
</g>
</g>
<!-- Node11&#45;&gt;Node14 -->
<g id="edge16" class="edge">
<title>Node11&#45;&gt;Node14</title>
<path fill="none" stroke="midnightblue" d="M1335.64,-250.07C1432.93,-240.93 1631.24,-221.23 1661,-210 1683.72,-201.43 1685.53,-192.07 1706,-179 1732.53,-162.06 1749.22,-168.98 1767,-143 1789.01,-110.84 1795.96,-90.59 1778,-56 1770.85,-42.23 1757.33,-31.78 1744.55,-24.44"/>
<polygon fill="midnightblue" stroke="midnightblue" points="1745.96,-21.23 1735.48,-19.64 1742.68,-27.41 1745.96,-21.23"/>
</g>
<!-- Node15 -->
<g id="node15" class="node">
<title>Node15</title>
<g id="a_node15"><a xlink:title=" ">
<polygon fill="white" stroke="#bfbfbf" points="1396,-118 1396,-137 1456,-137 1456,-118 1396,-118"/>
<text text-anchor="middle" x="1426" y="-125" font-family="Helvetica,sans-Serif" font-size="10.00">iostream</text>
</a>
</g>
</g>
<!-- Node11&#45;&gt;Node15 -->
<g id="edge17" class="edge">
<title>Node11&#45;&gt;Node15</title>
<path fill="none" stroke="midnightblue" d="M1295.27,-246.25C1308.13,-237.57 1328,-223.62 1344,-210 1368.96,-188.76 1395.44,-161.46 1411.34,-144.47"/>
<polygon fill="midnightblue" stroke="midnightblue" points="1414.01,-146.74 1418.25,-137.03 1408.88,-141.98 1414.01,-146.74"/>
</g>
<!-- Node16 -->
<g id="node16" class="node">
<title>Node16</title>
<g id="a_node16"><a xlink:title=" ">
<polygon fill="white" stroke="#bfbfbf" points="1184.5,-185 1184.5,-204 1225.5,-204 1225.5,-185 1184.5,-185"/>
<text text-anchor="middle" x="1205" y="-192" font-family="Helvetica,sans-Serif" font-size="10.00">tuple</text>
</a>
</g>
</g>
<!-- Node11&#45;&gt;Node16 -->
<g id="edge18" class="edge">
<title>Node11&#45;&gt;Node16</title>
<path fill="none" stroke="midnightblue" d="M1270.97,-246.48C1258.73,-237.02 1238.77,-221.6 1224.01,-210.19"/>
<polygon fill="midnightblue" stroke="midnightblue" points="1226.06,-207.35 1216.01,-204.01 1221.78,-212.89 1226.06,-207.35"/>
</g>
<!-- Node17 -->
<g id="node17" class="node">
<title>Node17</title>
<g id="a_node17"><a xlink:href="InvalidArgument_8hpp.html" target="_top" xlink:title="Definition of the InvalidArgument class.">
<polygon fill="white" stroke="black" points="1576,-118 1576,-137 1734,-137 1734,-118 1576,-118"/>
<text text-anchor="middle" x="1655" y="-125" font-family="Helvetica,sans-Serif" font-size="10.00">playrho/InvalidArgument.hpp</text>
</a>
</g>
</g>
<!-- Node11&#45;&gt;Node17 -->
<g id="edge20" class="edge">
<title>Node11&#45;&gt;Node17</title>
<path fill="none" stroke="midnightblue" d="M1335.63,-249.43C1418.47,-240.49 1570.31,-222.66 1592,-210 1617.53,-195.1 1636.36,-165.46 1646.49,-146.33"/>
<polygon fill="midnightblue" stroke="midnightblue" points="1649.73,-147.69 1651.1,-137.18 1643.48,-144.54 1649.73,-147.69"/>
</g>
<!-- Node11&#45;&gt;Node21 -->
<g id="edge24" class="edge">
<title>Node11&#45;&gt;Node21</title>
<path fill="none" stroke="midnightblue" d="M1228.4,-249.38C1122.26,-238.24 886,-213.44 774.91,-201.79"/>
<polygon fill="midnightblue" stroke="midnightblue" points="775.19,-198.3 764.88,-200.73 774.46,-205.26 775.19,-198.3"/>
</g>
<!-- Node22 -->
<g id="node22" class="node">
<title>Node22</title>
<g id="a_node22"><a xlink:href="Templates_8hpp.html" target="_top" xlink:title="Definitions of miscellaneous template related code.">
<polygon fill="white" stroke="black" points="1174,-118 1174,-137 1302,-137 1302,-118 1174,-118"/>
<text text-anchor="middle" x="1238" y="-125" font-family="Helvetica,sans-Serif" font-size="10.00">playrho/Templates.hpp</text>
</a>
</g>
</g>
<!-- Node11&#45;&gt;Node22 -->
<g id="edge34" class="edge">
<title>Node11&#45;&gt;Node22</title>
<path fill="none" stroke="midnightblue" d="M1278.98,-246.31C1271.88,-225.9 1254.03,-174.6 1244.4,-146.91"/>
<polygon fill="midnightblue" stroke="midnightblue" points="1247.64,-145.55 1241.05,-137.26 1241.02,-147.85 1247.64,-145.55"/>
</g>
<!-- Node18 -->
<g id="node18" class="node">
<title>Node18</title>
<g id="a_node18"><a xlink:title=" ">
<polygon fill="white" stroke="#bfbfbf" points="1622.5,-56.5 1622.5,-75.5 1687.5,-75.5 1687.5,-56.5 1622.5,-56.5"/>
<text text-anchor="middle" x="1655" y="-63.5" font-family="Helvetica,sans-Serif" font-size="10.00">stdexcept</text>
</a>
</g>
</g>
<!-- Node17&#45;&gt;Node18 -->
<g id="edge21" class="edge">
<title>Node17&#45;&gt;Node18</title>
<path fill="none" stroke="midnightblue" d="M1655,-117.98C1655,-109.58 1655,-96.48 1655,-85.66"/>
<polygon fill="midnightblue" stroke="midnightblue" points="1658.5,-85.51 1655,-75.51 1651.5,-85.51 1658.5,-85.51"/>
</g>
<!-- Node19 -->
<g id="node19" class="node">
<title>Node19</title>
<g id="a_node19"><a xlink:title=" ">
<polygon fill="white" stroke="#bfbfbf" points="1706,-56.5 1706,-75.5 1750,-75.5 1750,-56.5 1706,-56.5"/>
<text text-anchor="middle" x="1728" y="-63.5" font-family="Helvetica,sans-Serif" font-size="10.00">string</text>
</a>
</g>
</g>
<!-- Node17&#45;&gt;Node19 -->
<g id="edge22" class="edge">
<title>Node17&#45;&gt;Node19</title>
<path fill="none" stroke="midnightblue" d="M1665.46,-117.98C1676.95,-108.61 1695.63,-93.38 1709.59,-82.01"/>
<polygon fill="midnightblue" stroke="midnightblue" points="1712.02,-84.54 1717.56,-75.51 1707.6,-79.11 1712.02,-84.54"/>
</g>
<!-- Node20 -->
<g id="node20" class="node">
<title>Node20</title>
<g id="a_node20"><a xlink:title=" ">
<polygon fill="white" stroke="#bfbfbf" points="1850.5,-0.5 1850.5,-19.5 1895.5,-19.5 1895.5,-0.5 1850.5,-0.5"/>
<text text-anchor="middle" x="1873" y="-7.5" font-family="Helvetica,sans-Serif" font-size="10.00">utility</text>
</a>
</g>
</g>
<!-- Node17&#45;&gt;Node20 -->
<g id="edge23" class="edge">
<title>Node17&#45;&gt;Node20</title>
<path fill="none" stroke="midnightblue" d="M1673.6,-117.92C1694.55,-108.16 1729.53,-91.54 1759,-76 1791.06,-59.1 1827.3,-38.1 1850.14,-24.63"/>
<polygon fill="midnightblue" stroke="midnightblue" points="1851.95,-27.62 1858.77,-19.52 1848.38,-21.6 1851.95,-27.62"/>
</g>
<!-- Node21&#45;&gt;Node6 -->
<g id="edge25" class="edge">
<title>Node21&#45;&gt;Node6</title>
<path fill="none" stroke="midnightblue" d="M665.35,-188.24C544.08,-175.38 235.3,-142.63 134.42,-131.94"/>
<polygon fill="midnightblue" stroke="midnightblue" points="134.56,-128.43 124.24,-130.86 133.82,-135.39 134.56,-128.43"/>
</g>
<!-- Node21&#45;&gt;Node22 -->
<g id="edge26" class="edge">
<title>Node21&#45;&gt;Node22</title>
<path fill="none" stroke="midnightblue" d="M764.67,-187.33C856.93,-175.86 1055.18,-151.22 1163.54,-137.75"/>
<polygon fill="midnightblue" stroke="midnightblue" points="1164.25,-141.19 1173.74,-136.49 1163.38,-134.25 1164.25,-141.19"/>
</g>
<!-- Node22&#45;&gt;Node5 -->
<g id="edge27" class="edge">
<title>Node22&#45;&gt;Node5</title>
<path fill="none" stroke="midnightblue" d="M1217.51,-117.98C1193.19,-107.86 1152.45,-90.9 1124.68,-79.35"/>
<polygon fill="midnightblue" stroke="midnightblue" points="1126.03,-76.12 1115.45,-75.51 1123.34,-82.58 1126.03,-76.12"/>
</g>
<!-- Node22&#45;&gt;Node8 -->
<g id="edge28" class="edge">
<title>Node22&#45;&gt;Node8</title>
<path fill="none" stroke="midnightblue" d="M1233.64,-117.82C1224.19,-99.01 1201.67,-54.15 1189.02,-28.96"/>
<polygon fill="midnightblue" stroke="midnightblue" points="1192.03,-27.15 1184.41,-19.78 1185.77,-30.29 1192.03,-27.15"/>
</g>
<!-- Node23 -->
<g id="node23" class="node">
<title>Node23</title>
<g id="a_node23"><a xlink:href="detail_2Templates_8hpp.html" target="_top" xlink:title="Low&#45;level declarations for general class &amp; function templates.">
<polygon fill="white" stroke="black" points="1446,-56.5 1446,-75.5 1604,-75.5 1604,-56.5 1446,-56.5"/>
<text text-anchor="middle" x="1525" y="-63.5" font-family="Helvetica,sans-Serif" font-size="10.00">playrho/detail/Templates.hpp</text>
</a>
</g>
</g>
<!-- Node22&#45;&gt;Node23 -->
<g id="edge29" class="edge">
<title>Node22&#45;&gt;Node23</title>
<path fill="none" stroke="midnightblue" d="M1279.12,-117.98C1330.48,-107.33 1418.36,-89.11 1473.96,-77.58"/>
<polygon fill="midnightblue" stroke="midnightblue" points="1474.87,-80.97 1483.96,-75.51 1473.45,-74.11 1474.87,-80.97"/>
</g>
<!-- Node23&#45;&gt;Node8 -->
<g id="edge32" class="edge">
<title>Node23&#45;&gt;Node8</title>
<path fill="none" stroke="midnightblue" d="M1470.33,-56.44C1402.48,-45.82 1288.03,-27.91 1225,-18.04"/>
<polygon fill="midnightblue" stroke="midnightblue" points="1225.39,-14.56 1214.97,-16.47 1224.31,-21.48 1225.39,-14.56"/>
</g>
<!-- Node23&#45;&gt;Node12 -->
<g id="edge30" class="edge">
<title>Node23&#45;&gt;Node12</title>
<path fill="none" stroke="midnightblue" d="M1532.6,-56.08C1539.23,-48.3 1549.02,-36.8 1557.06,-27.37"/>
<polygon fill="midnightblue" stroke="midnightblue" points="1559.73,-29.63 1563.55,-19.75 1554.4,-25.09 1559.73,-29.63"/>
</g>
<!-- Node23&#45;&gt;Node14 -->
<g id="edge31" class="edge">
<title>Node23&#45;&gt;Node14</title>
<path fill="none" stroke="midnightblue" d="M1554.95,-56.44C1588.11,-46.97 1641.57,-31.69 1677.24,-21.5"/>
<polygon fill="midnightblue" stroke="midnightblue" points="1678.59,-24.76 1687.25,-18.64 1676.67,-18.03 1678.59,-24.76"/>
</g>
<!-- Node23&#45;&gt;Node20 -->
<g id="edge33" class="edge">
<title>Node23&#45;&gt;Node20</title>
<path fill="none" stroke="midnightblue" d="M1580.14,-56.44C1653.36,-45.08 1780.38,-25.37 1840.14,-16.1"/>
<polygon fill="midnightblue" stroke="midnightblue" points="1840.8,-19.54 1850.14,-14.55 1839.73,-12.62 1840.8,-19.54"/>
</g>
<!-- Node24&#45;&gt;Node11 -->
<g id="edge59" class="edge">
<title>Node24&#45;&gt;Node11</title>
<path fill="none" stroke="midnightblue" d="M811.62,-414.42C894.02,-386.85 1152.3,-300.41 1246.86,-268.76"/>
<polygon fill="midnightblue" stroke="midnightblue" points="1248.16,-272.02 1256.53,-265.52 1245.94,-265.38 1248.16,-272.02"/>
</g>
<!-- Node24&#45;&gt;Node21 -->
<g id="edge36" class="edge">
<title>Node24&#45;&gt;Node21</title>
<path fill="none" stroke="midnightblue" d="M786.9,-414.38C788.76,-394.39 792.2,-343.43 784,-302 778.81,-275.77 776.25,-268.63 762,-246 753.92,-233.17 742.35,-220.69 732.7,-211.34"/>
<polygon fill="midnightblue" stroke="midnightblue" points="734.87,-208.57 725.18,-204.28 730.08,-213.68 734.87,-208.57"/>
</g>
<!-- Node25 -->
<g id="node25" class="node">
<title>Node25</title>
<g id="a_node25"><a xlink:href="Settings_8hpp.html" target="_top" xlink:title="Types and default settings file.">
<polygon fill="white" stroke="black" points="468.5,-358.5 468.5,-377.5 585.5,-377.5 585.5,-358.5 468.5,-358.5"/>
<text text-anchor="middle" x="527" y="-365.5" font-family="Helvetica,sans-Serif" font-size="10.00">playrho/Settings.hpp</text>
</a>
</g>
</g>
<!-- Node24&#45;&gt;Node25 -->
<g id="edge37" class="edge">
<title>Node24&#45;&gt;Node25</title>
<path fill="none" stroke="midnightblue" d="M744.96,-414.44C699.68,-405 626.77,-389.8 577.89,-379.61"/>
<polygon fill="midnightblue" stroke="midnightblue" points="578.35,-376.13 567.85,-377.52 576.92,-382.98 578.35,-376.13"/>
</g>
<!-- Node24&#45;&gt;Node27 -->
<g id="edge58" class="edge">
<title>Node24&#45;&gt;Node27</title>
<path fill="none" stroke="midnightblue" d="M781.13,-414.37C770.95,-396.3 747.21,-354.18 733.76,-330.31"/>
<polygon fill="midnightblue" stroke="midnightblue" points="736.8,-328.58 728.84,-321.59 730.7,-332.02 736.8,-328.58"/>
</g>
<!-- Node25&#45;&gt;Node4 -->
<g id="edge38" class="edge">
<title>Node25&#45;&gt;Node4</title>
<path fill="none" stroke="midnightblue" d="M517.58,-358.5C487.5,-331.35 393.5,-246.5 354.37,-211.17"/>
<polygon fill="midnightblue" stroke="midnightblue" points="356.25,-208.16 346.48,-204.06 351.56,-213.35 356.25,-208.16"/>
</g>
<!-- Node25&#45;&gt;Node6 -->
<g id="edge39" class="edge">
<title>Node25&#45;&gt;Node6</title>
<path fill="none" stroke="midnightblue" d="M468.27,-364.98C381.36,-361.08 223.52,-350.25 175,-322 113.17,-286 103.37,-188.81 102.06,-147.49"/>
<polygon fill="midnightblue" stroke="midnightblue" points="105.55,-147.36 101.88,-137.42 98.56,-147.48 105.55,-147.36"/>
</g>
<!-- Node25&#45;&gt;Node8 -->
<g id="edge40" class="edge">
<title>Node25&#45;&gt;Node8</title>
<path fill="none" stroke="midnightblue" d="M468.26,-366.36C375.22,-364.32 199.24,-355.93 148,-322 65.12,-267.11 4.78,-186.14 71,-112 143.08,-31.3 937.18,-14.51 1135.38,-11.56"/>
<polygon fill="midnightblue" stroke="midnightblue" points="1135.49,-15.06 1145.44,-11.42 1135.39,-8.06 1135.49,-15.06"/>
</g>
<!-- Node25&#45;&gt;Node21 -->
<g id="edge41" class="edge">
<title>Node25&#45;&gt;Node21</title>
<path fill="none" stroke="midnightblue" d="M525.72,-358.4C522.99,-336.63 519.03,-278.73 548,-246 574.79,-215.73 619.03,-203.3 655.25,-198.33"/>
<polygon fill="midnightblue" stroke="midnightblue" points="655.73,-201.8 665.23,-197.12 654.88,-194.85 655.73,-201.8"/>
</g>
<!-- Node26 -->
<g id="node26" class="node">
<title>Node26</title>
<g id="a_node26"><a xlink:href="RealConstants_8hpp.html" target="_top" xlink:title="Definitions file for constant expressions of type Real.">
<polygon fill="white" stroke="black" points="590,-246.5 590,-265.5 738,-265.5 738,-246.5 590,-246.5"/>
<text text-anchor="middle" x="664" y="-253.5" font-family="Helvetica,sans-Serif" font-size="10.00">playrho/RealConstants.hpp</text>
</a>
</g>
</g>
<!-- Node25&#45;&gt;Node26 -->
<g id="edge42" class="edge">
<title>Node25&#45;&gt;Node26</title>
<path fill="none" stroke="midnightblue" d="M537.75,-358.37C560.96,-339.73 616.01,-295.53 645.15,-272.13"/>
<polygon fill="midnightblue" stroke="midnightblue" points="647.69,-274.58 653.3,-265.59 643.31,-269.12 647.69,-274.58"/>
</g>
<!-- Node25&#45;&gt;Node27 -->
<g id="edge44" class="edge">
<title>Node25&#45;&gt;Node27</title>
<path fill="none" stroke="midnightblue" d="M558.22,-358.44C591.93,-349.2 645.8,-334.44 682.93,-324.26"/>
<polygon fill="midnightblue" stroke="midnightblue" points="684.21,-327.54 692.93,-321.52 682.36,-320.78 684.21,-327.54"/>
</g>
<!-- Node30 -->
<g id="node30" class="node">
<title>Node30</title>
<g id="a_node30"><a xlink:href="WiderType_8hpp.html" target="_top" xlink:title="Definition of the WiderType alias template.">
<polygon fill="white" stroke="black" points="184,-302.5 184,-321.5 312,-321.5 312,-302.5 184,-302.5"/>
<text text-anchor="middle" x="248" y="-309.5" font-family="Helvetica,sans-Serif" font-size="10.00">playrho/WiderType.hpp</text>
</a>
</g>
</g>
<!-- Node25&#45;&gt;Node30 -->
<g id="edge53" class="edge">
<title>Node25&#45;&gt;Node30</title>
<path fill="none" stroke="midnightblue" d="M482.79,-358.44C433.71,-348.94 354.49,-333.61 301.84,-323.42"/>
<polygon fill="midnightblue" stroke="midnightblue" points="302.48,-319.98 292,-321.52 301.15,-326.85 302.48,-319.98"/>
</g>
<!-- Node26&#45;&gt;Node21 -->
<g id="edge43" class="edge">
<title>Node26&#45;&gt;Node21</title>
<path fill="none" stroke="midnightblue" d="M671.31,-246.48C679.03,-237.46 691.41,-223.02 701.02,-211.81"/>
<polygon fill="midnightblue" stroke="midnightblue" points="703.86,-213.88 707.71,-204.01 698.54,-209.32 703.86,-213.88"/>
</g>
<!-- Node27&#45;&gt;Node3 -->
<g id="edge45" class="edge">
<title>Node27&#45;&gt;Node3</title>
<path fill="none" stroke="midnightblue" d="M684.07,-302.44C634.78,-291.88 551.84,-274.11 505.64,-264.21"/>
<polygon fill="midnightblue" stroke="midnightblue" points="506.33,-260.78 495.82,-262.1 504.86,-267.62 506.33,-260.78"/>
</g>
<!-- Node27&#45;&gt;Node8 -->
<g id="edge46" class="edge">
<title>Node27&#45;&gt;Node8</title>
<path fill="none" stroke="midnightblue" d="M775.57,-309.87C851.27,-307.13 987.35,-297.8 1023,-266 1047.22,-244.4 1042,-227.95 1042,-195.5 1042,-195.5 1042,-195.5 1042,-126.5 1042,-94.05 1039.21,-80.05 1061,-56 1080.1,-34.93 1110.09,-23.67 1135.18,-17.68"/>
<polygon fill="midnightblue" stroke="midnightblue" points="1136.21,-21.04 1145.24,-15.5 1134.72,-14.2 1136.21,-21.04"/>
</g>
<!-- Node27&#45;&gt;Node21 -->
<g id="edge47" class="edge">
<title>Node27&#45;&gt;Node21</title>
<path fill="none" stroke="midnightblue" d="M730.76,-302.27C739.5,-289.89 752.94,-266.46 747,-246 743.41,-233.61 735.76,-221.35 728.84,-212.01"/>
<polygon fill="midnightblue" stroke="midnightblue" points="731.52,-209.75 722.59,-204.04 726.01,-214.07 731.52,-209.75"/>
</g>
<!-- Node27&#45;&gt;Node22 -->
<g id="edge49" class="edge">
<title>Node27&#45;&gt;Node22</title>
<path fill="none" stroke="midnightblue" d="M775.62,-307.21C855.84,-300.79 1006.39,-286.44 1056,-266 1074.45,-258.4 1176.72,-177.49 1219.34,-143.45"/>
<polygon fill="midnightblue" stroke="midnightblue" points="1221.63,-146.1 1227.26,-137.12 1217.26,-140.64 1221.63,-146.1"/>
</g>
<!-- Node27&#45;&gt;Node26 -->
<g id="edge48" class="edge">
<title>Node27&#45;&gt;Node26</title>
<path fill="none" stroke="midnightblue" d="M714.36,-302.32C705.49,-294.34 692.13,-282.31 681.39,-272.65"/>
<polygon fill="midnightblue" stroke="midnightblue" points="683.59,-269.92 673.82,-265.83 678.91,-275.13 683.59,-269.92"/>
</g>
<!-- Node28 -->
<g id="node28" class="node">
<title>Node28</title>
<g id="a_node28"><a xlink:href="to__underlying_8hpp.html" target="_top" xlink:title="Definition of to_underlying function template.">
<polygon fill="white" stroke="black" points="870,-246.5 870,-265.5 1014,-265.5 1014,-246.5 870,-246.5"/>
<text text-anchor="middle" x="942" y="-253.5" font-family="Helvetica,sans-Serif" font-size="10.00">playrho/to_underlying.hpp</text>
</a>
</g>
</g>
<!-- Node27&#45;&gt;Node28 -->
<g id="edge50" class="edge">
<title>Node27&#45;&gt;Node28</title>
<path fill="none" stroke="midnightblue" d="M758.54,-302.44C796.25,-293.1 856.74,-278.12 897.86,-267.93"/>
<polygon fill="midnightblue" stroke="midnightblue" points="898.75,-271.32 907.62,-265.52 897.07,-264.52 898.75,-271.32"/>
</g>
<!-- Node29 -->
<g id="node29" class="node">
<title>Node29</title>
<g id="a_node29"><a xlink:href="underlying__type_8hpp.html" target="_top" xlink:title="Definition of underlying_type trait class and related code.">
<polygon fill="white" stroke="black" points="873.5,-112.5 873.5,-142.5 1012.5,-142.5 1012.5,-112.5 873.5,-112.5"/>
<text text-anchor="start" x="881.5" y="-130.5" font-family="Helvetica,sans-Serif" font-size="10.00">playrho/detail/underlying</text>
<text text-anchor="middle" x="943" y="-119.5" font-family="Helvetica,sans-Serif" font-size="10.00">_type.hpp</text>
</a>
</g>
</g>
<!-- Node28&#45;&gt;Node29 -->
<g id="edge51" class="edge">
<title>Node28&#45;&gt;Node29</title>
<path fill="none" stroke="midnightblue" d="M942.07,-246.31C942.22,-227.3 942.58,-181.47 942.81,-152.9"/>
<polygon fill="midnightblue" stroke="midnightblue" points="946.31,-152.92 942.89,-142.89 939.31,-152.86 946.31,-152.92"/>
</g>
<!-- Node29&#45;&gt;Node8 -->
<g id="edge52" class="edge">
<title>Node29&#45;&gt;Node8</title>
<path fill="none" stroke="midnightblue" d="M956.43,-112.33C972.19,-96.48 999.75,-71.07 1028,-56 1061.81,-37.96 1103.82,-26.23 1135.1,-19.28"/>
<polygon fill="midnightblue" stroke="midnightblue" points="1136.22,-22.62 1145.26,-17.11 1134.75,-15.78 1136.22,-22.62"/>
</g>
<!-- Node31 -->
<g id="node31" class="node">
<title>Node31</title>
<g id="a_node31"><a xlink:href="Wider_8hpp.html" target="_top" xlink:title="Definition of the Wider class template and specializations.">
<polygon fill="white" stroke="black" points="142,-246.5 142,-265.5 278,-265.5 278,-246.5 142,-246.5"/>
<text text-anchor="middle" x="210" y="-253.5" font-family="Helvetica,sans-Serif" font-size="10.00">playrho/detail/Wider.hpp</text>
</a>
</g>
</g>
<!-- Node30&#45;&gt;Node31 -->
<g id="edge54" class="edge">
<title>Node30&#45;&gt;Node31</title>
<path fill="none" stroke="midnightblue" d="M241.73,-302.08C236.36,-294.46 228.48,-283.26 221.92,-273.94"/>
<polygon fill="midnightblue" stroke="midnightblue" points="224.78,-271.91 216.16,-265.75 219.05,-275.94 224.78,-271.91"/>
</g>
<!-- Node31&#45;&gt;Node4 -->
<g id="edge55" class="edge">
<title>Node31&#45;&gt;Node4</title>
<path fill="none" stroke="midnightblue" d="M228.2,-246.48C249.51,-236.49 285.03,-219.85 309.66,-208.31"/>
<polygon fill="midnightblue" stroke="midnightblue" points="311.27,-211.42 318.84,-204.01 308.3,-205.08 311.27,-211.42"/>
</g>
<!-- Node31&#45;&gt;Node8 -->
<g id="edge56" class="edge">
<title>Node31&#45;&gt;Node8</title>
<path fill="none" stroke="midnightblue" d="M199.48,-246.31C183.03,-231.65 154.72,-201.45 171,-179 227.27,-101.4 282.47,-132.96 376,-112 660.79,-48.19 1011.99,-21.47 1134.95,-13.63"/>
<polygon fill="midnightblue" stroke="midnightblue" points="1135.35,-17.12 1145.11,-13 1134.91,-10.13 1135.35,-17.12"/>
</g>
<!-- Node32 -->
<g id="node32" class="node">
<title>Node32</title>
<g id="a_node32"><a xlink:href="Defines_8hpp.html" target="_top" xlink:title="Miscellaneous C&#45;preprocessor definitions.">
<polygon fill="white" stroke="black" points="180,-185 180,-204 294,-204 294,-185 180,-185"/>
<text text-anchor="middle" x="237" y="-192" font-family="Helvetica,sans-Serif" font-size="10.00">playrho/Defines.hpp</text>
</a>
</g>
</g>
<!-- Node31&#45;&gt;Node32 -->
<g id="edge57" class="edge">
<title>Node31&#45;&gt;Node32</title>
<path fill="none" stroke="midnightblue" d="M213.87,-246.48C217.8,-237.82 224,-224.15 228.99,-213.15"/>
<polygon fill="midnightblue" stroke="midnightblue" points="232.19,-214.56 233.14,-204.01 225.82,-211.67 232.19,-214.56"/>
</g>
<!-- Node33&#45;&gt;Node8 -->
<g id="edge63" class="edge">
<title>Node33&#45;&gt;Node8</title>
<path fill="none" stroke="midnightblue" d="M1468.19,-246.19C1456.74,-237.45 1439.09,-223.47 1425,-210 1358.57,-146.49 1361.85,-109.33 1287,-56 1266.6,-41.46 1240.78,-30.43 1219.62,-22.93"/>
<polygon fill="midnightblue" stroke="midnightblue" points="1220.54,-19.55 1209.95,-19.63 1218.28,-26.18 1220.54,-19.55"/>
</g>
<!-- Node34 -->
<g id="node34" class="node">
<title>Node34</title>
<g id="a_node34"><a xlink:href="Checked_8hpp.html" target="_top" xlink:title="Declarations of the Checked class template and closely related code.">
<polygon fill="white" stroke="black" points="1433.5,-185 1433.5,-204 1582.5,-204 1582.5,-185 1433.5,-185"/>
<text text-anchor="middle" x="1508" y="-192" font-family="Helvetica,sans-Serif" font-size="10.00">playrho/detail/Checked.hpp</text>
</a>
</g>
</g>
<!-- Node33&#45;&gt;Node34 -->
<g id="edge64" class="edge">
<title>Node33&#45;&gt;Node34</title>
<path fill="none" stroke="midnightblue" d="M1484.01,-246.48C1488.09,-237.82 1494.52,-224.15 1499.7,-213.15"/>
<polygon fill="midnightblue" stroke="midnightblue" points="1502.9,-214.55 1504,-204.01 1496.57,-211.57 1502.9,-214.55"/>
</g>
<!-- Node35 -->
<g id="node35" class="node">
<title>Node35</title>
<g id="a_node35"><a xlink:href="NonNegativeChecker_8hpp.html" target="_top" xlink:title="Definition of the NonNegativeChecker class template.">
<polygon fill="white" stroke="black" points="1785.5,-179.5 1785.5,-209.5 1936.5,-209.5 1936.5,-179.5 1785.5,-179.5"/>
<text text-anchor="start" x="1793.5" y="-197.5" font-family="Helvetica,sans-Serif" font-size="10.00">playrho/detail/NonNegative</text>
<text text-anchor="middle" x="1861" y="-186.5" font-family="Helvetica,sans-Serif" font-size="10.00">Checker.hpp</text>
</a>
</g>
</g>
<!-- Node33&#45;&gt;Node35 -->
<g id="edge70" class="edge">
<title>Node33&#45;&gt;Node35</title>
<path fill="none" stroke="midnightblue" d="M1538.66,-246.48C1596.45,-238 1687.5,-224.41 1775.57,-210.22"/>
<polygon fill="midnightblue" stroke="midnightblue" points="1776.14,-213.67 1785.46,-208.62 1775.03,-206.76 1776.14,-213.67"/>
</g>
<!-- Node34&#45;&gt;Node8 -->
<g id="edge66" class="edge">
<title>Node34&#45;&gt;Node8</title>
<path fill="none" stroke="midnightblue" d="M1505.38,-184.82C1500.11,-168.64 1486.84,-133.6 1465,-112 1445.64,-92.85 1381.46,-65.66 1356,-56 1312.65,-39.56 1261.06,-27.17 1224.98,-19.59"/>
<polygon fill="midnightblue" stroke="midnightblue" points="1225.27,-16.07 1214.77,-17.49 1223.86,-22.93 1225.27,-16.07"/>
</g>
<!-- Node34&#45;&gt;Node15 -->
<g id="edge65" class="edge">
<title>Node34&#45;&gt;Node15</title>
<path fill="none" stroke="midnightblue" d="M1496.94,-184.73C1483.66,-174.21 1461.17,-156.38 1445.07,-143.62"/>
<polygon fill="midnightblue" stroke="midnightblue" points="1446.89,-140.6 1436.88,-137.13 1442.55,-146.08 1446.89,-140.6"/>
</g>
<!-- Node34&#45;&gt;Node17 -->
<g id="edge68" class="edge">
<title>Node34&#45;&gt;Node17</title>
<path fill="none" stroke="midnightblue" d="M1527.52,-184.87C1552.78,-173.7 1597,-154.15 1626.14,-141.26"/>
<polygon fill="midnightblue" stroke="midnightblue" points="1627.67,-144.41 1635.4,-137.17 1624.84,-138.01 1627.67,-144.41"/>
</g>
<!-- Node34&#45;&gt;Node20 -->
<g id="edge67" class="edge">
<title>Node34&#45;&gt;Node20</title>
<path fill="none" stroke="midnightblue" d="M1582.51,-188.53C1630.74,-182.73 1693.53,-170.18 1743,-143 1795.68,-114.06 1840.72,-57.03 1861.21,-28.34"/>
<polygon fill="midnightblue" stroke="midnightblue" points="1864.33,-29.99 1867.19,-19.78 1858.59,-25.98 1864.33,-29.99"/>
</g>
<!-- Node34&#45;&gt;Node22 -->
<g id="edge69" class="edge">
<title>Node34&#45;&gt;Node22</title>
<path fill="none" stroke="midnightblue" d="M1472.42,-184.94C1423.86,-173.24 1336.78,-152.28 1283.51,-139.46"/>
<polygon fill="midnightblue" stroke="midnightblue" points="1284.2,-136.02 1273.65,-137.08 1282.56,-142.83 1284.2,-136.02"/>
</g>
<!-- Node36&#45;&gt;Node2 -->
<g id="edge74" class="edge">
<title>Node36&#45;&gt;Node2</title>
<path fill="none" stroke="midnightblue" d="M1981,-246.48C1981,-238.08 1981,-224.98 1981,-214.16"/>
<polygon fill="midnightblue" stroke="midnightblue" points="1984.5,-214.01 1981,-204.01 1977.5,-214.01 1984.5,-214.01"/>
</g>
<!-- Node36&#45;&gt;Node8 -->
<g id="edge76" class="edge">
<title>Node36&#45;&gt;Node8</title>
<path fill="none" stroke="midnightblue" d="M1990.51,-246.49C2006.37,-231.32 2034.72,-199.28 2016,-179 1982.05,-142.22 1615.23,-156.38 1567,-143 1525.15,-131.39 1433.01,-70.29 1392,-56 1335.75,-36.4 1268,-23.83 1224.48,-17.1"/>
<polygon fill="midnightblue" stroke="midnightblue" points="1224.91,-13.62 1214.5,-15.59 1223.87,-20.54 1224.91,-13.62"/>
</g>
<!-- Node36&#45;&gt;Node13 -->
<g id="edge73" class="edge">
<title>Node36&#45;&gt;Node13</title>
<path fill="none" stroke="midnightblue" d="M1931.35,-246.44C1889.67,-238.68 1828.8,-226.02 1777,-210 1774.72,-209.29 1772.38,-208.51 1770.04,-207.67"/>
<polygon fill="midnightblue" stroke="midnightblue" points="1771.18,-204.36 1760.59,-204.08 1768.69,-210.9 1771.18,-204.36"/>
</g>
<!-- Node36&#45;&gt;Node20 -->
<g id="edge77" class="edge">
<title>Node36&#45;&gt;Node20</title>
<path fill="none" stroke="midnightblue" d="M2031.61,-252.07C2092.9,-246.3 2184.6,-229.23 2156,-179 2101.35,-83.01 1967.86,-36.19 1905.76,-19.02"/>
<polygon fill="midnightblue" stroke="midnightblue" points="1906.3,-15.54 1895.73,-16.33 1904.49,-22.3 1906.3,-15.54"/>
</g>
<!-- Node36&#45;&gt;Node22 -->
<g id="edge78" class="edge">
<title>Node36&#45;&gt;Node22</title>
<path fill="none" stroke="midnightblue" d="M1930.32,-253.03C1811.92,-248.1 1519.99,-233.84 1425,-210 1363.46,-194.56 1296.47,-160.81 1261.8,-141.95"/>
<polygon fill="midnightblue" stroke="midnightblue" points="1263.35,-138.81 1252.91,-137.05 1259.98,-144.94 1263.35,-138.81"/>
</g>
<!-- Node37 -->
<g id="node37" class="node">
<title>Node37</title>
<g id="a_node37"><a xlink:title=" ">
<polygon fill="white" stroke="#bfbfbf" points="2063.5,-185 2063.5,-204 2146.5,-204 2146.5,-185 2063.5,-185"/>
<text text-anchor="middle" x="2105" y="-192" font-family="Helvetica,sans-Serif" font-size="10.00">initializer_list</text>
</a>
</g>
</g>
<!-- Node36&#45;&gt;Node37 -->
<g id="edge75" class="edge">
<title>Node36&#45;&gt;Node37</title>
<path fill="none" stroke="midnightblue" d="M1998.77,-246.48C2019.48,-236.53 2053.95,-219.99 2077.99,-208.46"/>
<polygon fill="midnightblue" stroke="midnightblue" points="2079.77,-211.49 2087.27,-204.01 2076.74,-205.18 2079.77,-211.49"/>
</g>
<!-- Node38&#45;&gt;Node11 -->
<g id="edge86" class="edge">
<title>Node38&#45;&gt;Node11</title>
<path fill="none" stroke="midnightblue" d="M649,-414.49C726.55,-394.52 926.51,-343.24 1094,-302 1142.31,-290.1 1197.72,-276.89 1235.8,-267.88"/>
<polygon fill="midnightblue" stroke="midnightblue" points="1236.65,-271.28 1245.57,-265.57 1235.04,-264.47 1236.65,-271.28"/>
</g>
<!-- Node38&#45;&gt;Node21 -->
<g id="edge83" class="edge">
<title>Node38&#45;&gt;Node21</title>
<path fill="none" stroke="midnightblue" d="M613.54,-414.32C604.09,-380.7 571.2,-260.17 581,-246 597.82,-221.69 627.92,-209.07 655.34,-202.52"/>
<polygon fill="midnightblue" stroke="midnightblue" points="656.25,-205.9 665.29,-200.37 654.77,-199.06 656.25,-205.9"/>
</g>
<!-- Node38&#45;&gt;Node25 -->
<g id="edge84" class="edge">
<title>Node38&#45;&gt;Node25</title>
<path fill="none" stroke="midnightblue" d="M601.7,-414.32C587.82,-405.9 566.51,-392.97 550.2,-383.07"/>
<polygon fill="midnightblue" stroke="midnightblue" points="551.63,-379.85 541.26,-377.65 548,-385.83 551.63,-379.85"/>
</g>
<!-- Node38&#45;&gt;Node27 -->
<g id="edge85" class="edge">
<title>Node38&#45;&gt;Node27</title>
<path fill="none" stroke="midnightblue" d="M623.58,-414.4C634.78,-401.79 656.53,-377.62 676,-358 685.96,-347.97 697.5,-337.12 706.78,-328.59"/>
<polygon fill="midnightblue" stroke="midnightblue" points="709.22,-331.09 714.24,-321.77 704.5,-325.93 709.22,-331.09"/>
</g>
</g>
</svg>
