<?xml version="1.0" encoding="UTF-8" standalone="no"?>
<!DOCTYPE svg PUBLIC "-//W3C//DTD SVG 1.1//EN"
 "http://www.w3.org/Graphics/SVG/1.1/DTD/svg11.dtd">
<!-- Generated by graphviz version 2.43.0 (0)
 -->
<!-- Title: Library/include/playrho/Matrix.hpp Pages: 1 -->
<svg width="1434pt" height="498pt"
 viewBox="0.00 0.00 1433.50 498.00" xmlns="http://www.w3.org/2000/svg" xmlns:xlink="http://www.w3.org/1999/xlink">
<g id="graph0" class="graph" transform="scale(1 1) rotate(0) translate(4 494)">
<title>Library/include/playrho/Matrix.hpp</title>
<polygon fill="white" stroke="transparent" points="-4,4 -4,-494 1429.5,-494 1429.5,4 -4,4"/>
<!-- Node1 -->
<g id="node1" class="node">
<title>Node1</title>
<g id="a_node1"><a xlink:title="Definition of the Matrix alias and closely related code.">
<polygon fill="#bfbfbf" stroke="black" points="475.5,-459.5 475.5,-489.5 603.5,-489.5 603.5,-459.5 475.5,-459.5"/>
<text text-anchor="start" x="483.5" y="-477.5" font-family="Helvetica,sans-Serif" font-size="10.00">Library/include/playrho</text>
<text text-anchor="middle" x="539.5" y="-466.5" font-family="Helvetica,sans-Serif" font-size="10.00">/Matrix.hpp</text>
</a>
</g>
</g>
<!-- Node2 -->
<g id="node2" class="node">
<title>Node2</title>
<g id="a_node2"><a xlink:title=" ">
<polygon fill="white" stroke="#bfbfbf" points="14,-62 14,-81 63,-81 63,-62 14,-62"/>
<text text-anchor="middle" x="38.5" y="-69" font-family="Helvetica,sans-Serif" font-size="10.00">cstdlib</text>
</a>
</g>
</g>
<!-- Node1&#45;&gt;Node2 -->
<g id="edge1" class="edge">
<title>Node1&#45;&gt;Node2</title>
<path fill="none" stroke="midnightblue" d="M475.28,-472.05C340.1,-467.26 38.5,-446.65 38.5,-358 38.5,-358 38.5,-358 38.5,-188 38.5,-153.86 38.5,-114.05 38.5,-91.21"/>
<polygon fill="midnightblue" stroke="midnightblue" points="42,-91.19 38.5,-81.19 35,-91.19 42,-91.19"/>
</g>
<!-- Node3 -->
<g id="node3" class="node">
<title>Node3</title>
<g id="a_node3"><a xlink:title=" ">
<polygon fill="white" stroke="#bfbfbf" points="1030,-0.5 1030,-19.5 1099,-19.5 1099,-0.5 1030,-0.5"/>
<text text-anchor="middle" x="1064.5" y="-7.5" font-family="Helvetica,sans-Serif" font-size="10.00">type_traits</text>
</a>
</g>
</g>
<!-- Node1&#45;&gt;Node3 -->
<g id="edge2" class="edge">
<title>Node1&#45;&gt;Node3</title>
<path fill="none" stroke="midnightblue" d="M603.58,-471.88C807.09,-465.91 1425.5,-440.94 1425.5,-358 1425.5,-358 1425.5,-358 1425.5,-132 1425.5,-85.78 1395.36,-77.62 1354.5,-56 1312.84,-33.96 1179.94,-20.27 1109.43,-14.38"/>
<polygon fill="midnightblue" stroke="midnightblue" points="1109.34,-10.86 1099.09,-13.53 1108.77,-17.84 1109.34,-10.86"/>
</g>
<!-- Node4 -->
<g id="node4" class="node">
<title>Node4</title>
<g id="a_node4"><a xlink:href="Vector_8hpp.html" target="_top" xlink:title="Definition of the Vector class template and closely related code.">
<polygon fill="white" stroke="black" points="362,-235.5 362,-254.5 469,-254.5 469,-235.5 362,-235.5"/>
<text text-anchor="middle" x="415.5" y="-242.5" font-family="Helvetica,sans-Serif" font-size="10.00">playrho/Vector.hpp</text>
</a>
</g>
</g>
<!-- Node1&#45;&gt;Node4 -->
<g id="edge3" class="edge">
<title>Node1&#45;&gt;Node4</title>
<path fill="none" stroke="midnightblue" d="M519.7,-459.46C507.87,-450.23 493.28,-437.24 483.5,-423 448,-371.32 427.68,-298.56 419.61,-264.7"/>
<polygon fill="midnightblue" stroke="midnightblue" points="422.98,-263.75 417.33,-254.79 416.16,-265.32 422.98,-263.75"/>
</g>
<!-- Node13 -->
<g id="node13" class="node">
<title>Node13</title>
<g id="a_node13"><a xlink:href="Real_8hpp.html" target="_top" xlink:title="Real number definition file.">
<polygon fill="white" stroke="black" points="636,-179.5 636,-198.5 735,-198.5 735,-179.5 636,-179.5"/>
<text text-anchor="middle" x="685.5" y="-186.5" font-family="Helvetica,sans-Serif" font-size="10.00">playrho/Real.hpp</text>
</a>
</g>
</g>
<!-- Node1&#45;&gt;Node13 -->
<g id="edge49" class="edge">
<title>Node1&#45;&gt;Node13</title>
<path fill="none" stroke="midnightblue" d="M530.59,-459.16C518.26,-437.91 497.5,-396.41 497.5,-358 497.5,-358 497.5,-358 497.5,-300 497.5,-239.66 570.54,-211.8 625.57,-199.38"/>
<polygon fill="midnightblue" stroke="midnightblue" points="626.56,-202.75 635.61,-197.24 625.1,-195.9 626.56,-202.75"/>
</g>
<!-- Node18 -->
<g id="node18" class="node">
<title>Node18</title>
<g id="a_node18"><a xlink:href="Vector2_8hpp.html" target="_top" xlink:title="Definition of the Vector2 alias template and closely related code.">
<polygon fill="white" stroke="black" points="525.5,-403.5 525.5,-422.5 639.5,-422.5 639.5,-403.5 525.5,-403.5"/>
<text text-anchor="middle" x="582.5" y="-410.5" font-family="Helvetica,sans-Serif" font-size="10.00">playrho/Vector2.hpp</text>
</a>
</g>
</g>
<!-- Node1&#45;&gt;Node18 -->
<g id="edge24" class="edge">
<title>Node1&#45;&gt;Node18</title>
<path fill="none" stroke="midnightblue" d="M549.69,-459.4C555.87,-450.84 563.8,-439.87 570.32,-430.86"/>
<polygon fill="midnightblue" stroke="midnightblue" points="573.22,-432.81 576.24,-422.66 567.55,-428.71 573.22,-432.81"/>
</g>
<!-- Node22 -->
<g id="node22" class="node">
<title>Node22</title>
<g id="a_node22"><a xlink:href="Units_8hpp.html" target="_top" xlink:title="Declarations for physical units possibly backed by strong types.">
<polygon fill="white" stroke="black" points="1091,-291.5 1091,-310.5 1194,-310.5 1194,-291.5 1091,-291.5"/>
<text text-anchor="middle" x="1142.5" y="-298.5" font-family="Helvetica,sans-Serif" font-size="10.00">playrho/Units.hpp</text>
</a>
</g>
</g>
<!-- Node1&#45;&gt;Node22 -->
<g id="edge50" class="edge">
<title>Node1&#45;&gt;Node22</title>
<path fill="none" stroke="midnightblue" d="M588.85,-459.47C705.47,-426.3 996.29,-343.58 1102.69,-313.32"/>
<polygon fill="midnightblue" stroke="midnightblue" points="1103.74,-316.66 1112.4,-310.56 1101.83,-309.93 1103.74,-316.66"/>
</g>
<!-- Node4&#45;&gt;Node3 -->
<g id="edge10" class="edge">
<title>Node4&#45;&gt;Node3</title>
<path fill="none" stroke="midnightblue" d="M469.03,-236.15C496,-229.89 527.73,-218.75 550.5,-199 579.03,-174.26 559.62,-147.33 588.5,-123 667.32,-56.6 710.25,-79.92 810.5,-56 883.04,-38.69 968.69,-24.86 1019.69,-17.31"/>
<polygon fill="midnightblue" stroke="midnightblue" points="1020.34,-20.75 1029.72,-15.83 1019.32,-13.82 1020.34,-20.75"/>
</g>
<!-- Node5 -->
<g id="node5" class="node">
<title>Node5</title>
<g id="a_node5"><a xlink:title=" ">
<polygon fill="white" stroke="#bfbfbf" points="234.5,-0.5 234.5,-19.5 298.5,-19.5 298.5,-0.5 234.5,-0.5"/>
<text text-anchor="middle" x="266.5" y="-7.5" font-family="Helvetica,sans-Serif" font-size="10.00">algorithm</text>
</a>
</g>
</g>
<!-- Node4&#45;&gt;Node5 -->
<g id="edge4" class="edge">
<title>Node4&#45;&gt;Node5</title>
<path fill="none" stroke="midnightblue" d="M361.84,-244.57C279.86,-244.16 129.36,-237.95 95.5,-199 37.39,-132.15 175.59,-54.53 237.93,-24.14"/>
<polygon fill="midnightblue" stroke="midnightblue" points="239.74,-27.16 247.25,-19.68 236.72,-20.85 239.74,-27.16"/>
</g>
<!-- Node6 -->
<g id="node6" class="node">
<title>Node6</title>
<g id="a_node6"><a xlink:title=" ">
<polygon fill="white" stroke="#bfbfbf" points="489.5,-179.5 489.5,-198.5 541.5,-198.5 541.5,-179.5 489.5,-179.5"/>
<text text-anchor="middle" x="515.5" y="-186.5" font-family="Helvetica,sans-Serif" font-size="10.00">cassert</text>
</a>
</g>
</g>
<!-- Node4&#45;&gt;Node6 -->
<g id="edge5" class="edge">
<title>Node4&#45;&gt;Node6</title>
<path fill="none" stroke="midnightblue" d="M431.57,-235.32C447.46,-226.74 472.01,-213.49 490.46,-203.52"/>
<polygon fill="midnightblue" stroke="midnightblue" points="492.34,-206.49 499.47,-198.65 489.01,-200.33 492.34,-206.49"/>
</g>
<!-- Node7 -->
<g id="node7" class="node">
<title>Node7</title>
<g id="a_node7"><a xlink:title=" ">
<polygon fill="white" stroke="#bfbfbf" points="280,-179.5 280,-198.5 333,-198.5 333,-179.5 280,-179.5"/>
<text text-anchor="middle" x="306.5" y="-186.5" font-family="Helvetica,sans-Serif" font-size="10.00">cstddef</text>
</a>
</g>
</g>
<!-- Node4&#45;&gt;Node7 -->
<g id="edge6" class="edge">
<title>Node4&#45;&gt;Node7</title>
<path fill="none" stroke="midnightblue" d="M397.99,-235.32C380.43,-226.62 353.17,-213.12 332.97,-203.11"/>
<polygon fill="midnightblue" stroke="midnightblue" points="334.48,-199.96 323.97,-198.65 331.38,-206.23 334.48,-199.96"/>
</g>
<!-- Node8 -->
<g id="node8" class="node">
<title>Node8</title>
<g id="a_node8"><a xlink:title=" ">
<polygon fill="white" stroke="#bfbfbf" points="0,-0.5 0,-19.5 53,-19.5 53,-0.5 0,-0.5"/>
<text text-anchor="middle" x="26.5" y="-7.5" font-family="Helvetica,sans-Serif" font-size="10.00">iterator</text>
</a>
</g>
</g>
<!-- Node4&#45;&gt;Node8 -->
<g id="edge7" class="edge">
<title>Node4&#45;&gt;Node8</title>
<path fill="none" stroke="midnightblue" d="M361.98,-242.01C279.84,-238.1 127.36,-227.19 81.5,-199 30.04,-167.36 22.42,-144.69 4.5,-87 0.41,-73.84 1.39,-69.42 4.5,-56 6.73,-46.36 11.32,-36.41 15.74,-28.31"/>
<polygon fill="midnightblue" stroke="midnightblue" points="18.85,-29.92 20.86,-19.52 12.8,-26.4 18.85,-29.92"/>
</g>
<!-- Node9 -->
<g id="node9" class="node">
<title>Node9</title>
<g id="a_node9"><a xlink:title=" ">
<polygon fill="white" stroke="#bfbfbf" points="351.5,-179.5 351.5,-198.5 411.5,-198.5 411.5,-179.5 351.5,-179.5"/>
<text text-anchor="middle" x="381.5" y="-186.5" font-family="Helvetica,sans-Serif" font-size="10.00">iostream</text>
</a>
</g>
</g>
<!-- Node4&#45;&gt;Node9 -->
<g id="edge8" class="edge">
<title>Node4&#45;&gt;Node9</title>
<path fill="none" stroke="midnightblue" d="M409.89,-235.08C405.13,-227.53 398.18,-216.49 392.35,-207.23"/>
<polygon fill="midnightblue" stroke="midnightblue" points="395.3,-205.35 387.01,-198.75 389.38,-209.08 395.3,-205.35"/>
</g>
<!-- Node10 -->
<g id="node10" class="node">
<title>Node10</title>
<g id="a_node10"><a xlink:title=" ">
<polygon fill="white" stroke="#bfbfbf" points="430,-179.5 430,-198.5 471,-198.5 471,-179.5 430,-179.5"/>
<text text-anchor="middle" x="450.5" y="-186.5" font-family="Helvetica,sans-Serif" font-size="10.00">tuple</text>
</a>
</g>
</g>
<!-- Node4&#45;&gt;Node10 -->
<g id="edge9" class="edge">
<title>Node4&#45;&gt;Node10</title>
<path fill="none" stroke="midnightblue" d="M421.28,-235.08C426.17,-227.53 433.33,-216.49 439.33,-207.23"/>
<polygon fill="midnightblue" stroke="midnightblue" points="442.33,-209.05 444.83,-198.75 436.45,-205.24 442.33,-209.05"/>
</g>
<!-- Node11 -->
<g id="node11" class="node">
<title>Node11</title>
<g id="a_node11"><a xlink:href="InvalidArgument_8hpp.html" target="_top" xlink:title="Definition of the InvalidArgument class.">
<polygon fill="white" stroke="black" points="104.5,-179.5 104.5,-198.5 262.5,-198.5 262.5,-179.5 104.5,-179.5"/>
<text text-anchor="middle" x="183.5" y="-186.5" font-family="Helvetica,sans-Serif" font-size="10.00">playrho/InvalidArgument.hpp</text>
</a>
</g>
</g>
<!-- Node4&#45;&gt;Node11 -->
<g id="edge11" class="edge">
<title>Node4&#45;&gt;Node11</title>
<path fill="none" stroke="midnightblue" d="M378.74,-235.44C338.44,-226.06 273.69,-210.99 229.92,-200.8"/>
<polygon fill="midnightblue" stroke="midnightblue" points="230.62,-197.37 220.09,-198.52 229.04,-204.19 230.62,-197.37"/>
</g>
<!-- Node4&#45;&gt;Node13 -->
<g id="edge13" class="edge">
<title>Node4&#45;&gt;Node13</title>
<path fill="none" stroke="midnightblue" d="M458.28,-235.44C505.68,-225.96 582.13,-210.67 633.08,-200.48"/>
<polygon fill="midnightblue" stroke="midnightblue" points="633.8,-203.91 642.92,-198.52 632.43,-197.05 633.8,-203.91"/>
</g>
<!-- Node15 -->
<g id="node15" class="node">
<title>Node15</title>
<g id="a_node15"><a xlink:href="Templates_8hpp.html" target="_top" xlink:title="Definitions of miscellaneous template related code.">
<polygon fill="white" stroke="black" points="597.5,-123.5 597.5,-142.5 725.5,-142.5 725.5,-123.5 597.5,-123.5"/>
<text text-anchor="middle" x="661.5" y="-130.5" font-family="Helvetica,sans-Serif" font-size="10.00">playrho/Templates.hpp</text>
</a>
</g>
</g>
<!-- Node4&#45;&gt;Node15 -->
<g id="edge23" class="edge">
<title>Node4&#45;&gt;Node15</title>
<path fill="none" stroke="midnightblue" d="M469.12,-235.77C503.23,-229.08 547.58,-217.62 583.5,-199 608.06,-186.27 631.82,-164.72 646.53,-149.95"/>
<polygon fill="midnightblue" stroke="midnightblue" points="649.27,-152.15 653.72,-142.54 644.25,-147.28 649.27,-152.15"/>
</g>
<!-- Node12 -->
<g id="node12" class="node">
<title>Node12</title>
<g id="a_node12"><a xlink:title=" ">
<polygon fill="white" stroke="#bfbfbf" points="151,-123.5 151,-142.5 216,-142.5 216,-123.5 151,-123.5"/>
<text text-anchor="middle" x="183.5" y="-130.5" font-family="Helvetica,sans-Serif" font-size="10.00">stdexcept</text>
</a>
</g>
</g>
<!-- Node11&#45;&gt;Node12 -->
<g id="edge12" class="edge">
<title>Node11&#45;&gt;Node12</title>
<path fill="none" stroke="midnightblue" d="M183.5,-179.08C183.5,-172.01 183.5,-161.86 183.5,-152.99"/>
<polygon fill="midnightblue" stroke="midnightblue" points="187,-152.75 183.5,-142.75 180,-152.75 187,-152.75"/>
</g>
<!-- Node14 -->
<g id="node14" class="node">
<title>Node14</title>
<g id="a_node14"><a xlink:title=" ">
<polygon fill="white" stroke="#bfbfbf" points="743.5,-123.5 743.5,-142.5 787.5,-142.5 787.5,-123.5 743.5,-123.5"/>
<text text-anchor="middle" x="765.5" y="-130.5" font-family="Helvetica,sans-Serif" font-size="10.00">limits</text>
</a>
</g>
</g>
<!-- Node13&#45;&gt;Node14 -->
<g id="edge14" class="edge">
<title>Node13&#45;&gt;Node14</title>
<path fill="none" stroke="midnightblue" d="M698.35,-179.32C710.72,-170.98 729.63,-158.21 744.24,-148.35"/>
<polygon fill="midnightblue" stroke="midnightblue" points="746.35,-151.15 752.68,-142.65 742.43,-145.35 746.35,-151.15"/>
</g>
<!-- Node13&#45;&gt;Node15 -->
<g id="edge15" class="edge">
<title>Node13&#45;&gt;Node15</title>
<path fill="none" stroke="midnightblue" d="M681.54,-179.08C678.29,-171.77 673.58,-161.18 669.55,-152.1"/>
<polygon fill="midnightblue" stroke="midnightblue" points="672.65,-150.47 665.39,-142.75 666.25,-153.31 672.65,-150.47"/>
</g>
<!-- Node15&#45;&gt;Node2 -->
<g id="edge16" class="edge">
<title>Node15&#45;&gt;Node2</title>
<path fill="none" stroke="midnightblue" d="M597.47,-125.88C466.99,-113.42 174.2,-85.46 73.39,-75.83"/>
<polygon fill="midnightblue" stroke="midnightblue" points="73.44,-72.32 63.15,-74.85 72.77,-79.29 73.44,-72.32"/>
</g>
<!-- Node15&#45;&gt;Node3 -->
<g id="edge17" class="edge">
<title>Node15&#45;&gt;Node3</title>
<path fill="none" stroke="midnightblue" d="M689.84,-123.49C760.71,-102.21 945.72,-46.66 1026.19,-22.5"/>
<polygon fill="midnightblue" stroke="midnightblue" points="1027.35,-25.81 1035.92,-19.58 1025.34,-19.1 1027.35,-25.81"/>
</g>
<!-- Node16 -->
<g id="node16" class="node">
<title>Node16</title>
<g id="a_node16"><a xlink:href="detail_2Templates_8hpp.html" target="_top" xlink:title="Low&#45;level declarations for general class &amp; function templates.">
<polygon fill="white" stroke="black" points="342.5,-62 342.5,-81 500.5,-81 500.5,-62 342.5,-62"/>
<text text-anchor="middle" x="421.5" y="-69" font-family="Helvetica,sans-Serif" font-size="10.00">playrho/detail/Templates.hpp</text>
</a>
</g>
</g>
<!-- Node15&#45;&gt;Node16 -->
<g id="edge18" class="edge">
<title>Node15&#45;&gt;Node16</title>
<path fill="none" stroke="midnightblue" d="M627.11,-123.48C584.61,-112.94 512.2,-94.99 465.63,-83.44"/>
<polygon fill="midnightblue" stroke="midnightblue" points="466.37,-80.02 455.82,-81.01 464.69,-86.81 466.37,-80.02"/>
</g>
<!-- Node16&#45;&gt;Node3 -->
<g id="edge21" class="edge">
<title>Node16&#45;&gt;Node3</title>
<path fill="none" stroke="midnightblue" d="M497.65,-62C516.55,-59.96 536.75,-57.84 555.5,-56 726.87,-39.15 931,-21.98 1019.68,-14.66"/>
<polygon fill="midnightblue" stroke="midnightblue" points="1020.24,-18.13 1029.92,-13.82 1019.66,-11.15 1020.24,-18.13"/>
</g>
<!-- Node16&#45;&gt;Node5 -->
<g id="edge19" class="edge">
<title>Node16&#45;&gt;Node5</title>
<path fill="none" stroke="midnightblue" d="M399.29,-61.98C372.82,-51.81 328.39,-34.76 298.28,-23.2"/>
<polygon fill="midnightblue" stroke="midnightblue" points="299.26,-19.83 288.67,-19.51 296.75,-26.36 299.26,-19.83"/>
</g>
<!-- Node16&#45;&gt;Node8 -->
<g id="edge20" class="edge">
<title>Node16&#45;&gt;Node8</title>
<path fill="none" stroke="midnightblue" d="M364.91,-61.98C282.73,-49.6 132.64,-26.99 63.35,-16.55"/>
<polygon fill="midnightblue" stroke="midnightblue" points="63.75,-13.07 53.34,-15.04 62.71,-19.99 63.75,-13.07"/>
</g>
<!-- Node17 -->
<g id="node17" class="node">
<title>Node17</title>
<g id="a_node17"><a xlink:title=" ">
<polygon fill="white" stroke="#bfbfbf" points="399,-0.5 399,-19.5 444,-19.5 444,-0.5 399,-0.5"/>
<text text-anchor="middle" x="421.5" y="-7.5" font-family="Helvetica,sans-Serif" font-size="10.00">utility</text>
</a>
</g>
</g>
<!-- Node16&#45;&gt;Node17 -->
<g id="edge22" class="edge">
<title>Node16&#45;&gt;Node17</title>
<path fill="none" stroke="midnightblue" d="M421.5,-61.98C421.5,-53.58 421.5,-40.48 421.5,-29.66"/>
<polygon fill="midnightblue" stroke="midnightblue" points="425,-29.51 421.5,-19.51 418,-29.51 425,-29.51"/>
</g>
<!-- Node18&#45;&gt;Node4 -->
<g id="edge48" class="edge">
<title>Node18&#45;&gt;Node4</title>
<path fill="none" stroke="midnightblue" d="M573.52,-403.08C546.55,-376.27 465.99,-296.19 431.48,-261.89"/>
<polygon fill="midnightblue" stroke="midnightblue" points="433.68,-259.14 424.12,-254.57 428.74,-264.1 433.68,-259.14"/>
</g>
<!-- Node18&#45;&gt;Node13 -->
<g id="edge25" class="edge">
<title>Node18&#45;&gt;Node13</title>
<path fill="none" stroke="midnightblue" d="M582.44,-403.44C582.65,-376.35 586.38,-291 623.5,-235 632.25,-221.8 646.28,-211.14 658.78,-203.52"/>
<polygon fill="midnightblue" stroke="midnightblue" points="660.58,-206.52 667.51,-198.51 657.1,-200.45 660.58,-206.52"/>
</g>
<!-- Node19 -->
<g id="node19" class="node">
<title>Node19</title>
<g id="a_node19"><a xlink:href="Settings_8hpp.html" target="_top" xlink:title="Types and default settings file.">
<polygon fill="white" stroke="black" points="664,-347.5 664,-366.5 781,-366.5 781,-347.5 664,-347.5"/>
<text text-anchor="middle" x="722.5" y="-354.5" font-family="Helvetica,sans-Serif" font-size="10.00">playrho/Settings.hpp</text>
</a>
</g>
</g>
<!-- Node18&#45;&gt;Node19 -->
<g id="edge26" class="edge">
<title>Node18&#45;&gt;Node19</title>
<path fill="none" stroke="midnightblue" d="M604.68,-403.44C627.93,-394.48 664.65,-380.31 690.92,-370.18"/>
<polygon fill="midnightblue" stroke="midnightblue" points="692.35,-373.38 700.42,-366.52 689.83,-366.85 692.35,-373.38"/>
</g>
<!-- Node18&#45;&gt;Node22 -->
<g id="edge47" class="edge">
<title>Node18&#45;&gt;Node22</title>
<path fill="none" stroke="midnightblue" d="M625.98,-403.46C727.28,-383.56 978.77,-334.16 1089.14,-312.48"/>
<polygon fill="midnightblue" stroke="midnightblue" points="1089.91,-315.9 1099.05,-310.53 1088.56,-309.03 1089.91,-315.9"/>
</g>
<!-- Node19&#45;&gt;Node3 -->
<g id="edge29" class="edge">
<title>Node19&#45;&gt;Node3</title>
<path fill="none" stroke="midnightblue" d="M781.15,-349.73C849.08,-341.86 956.42,-327.39 993.5,-311 1054.8,-283.9 1083.5,-257.02 1083.5,-190 1083.5,-190 1083.5,-190 1083.5,-132 1083.5,-95.29 1074.86,-53.06 1069.23,-29.45"/>
<polygon fill="midnightblue" stroke="midnightblue" points="1072.63,-28.6 1066.83,-19.73 1065.83,-30.28 1072.63,-28.6"/>
</g>
<!-- Node19&#45;&gt;Node13 -->
<g id="edge30" class="edge">
<title>Node19&#45;&gt;Node13</title>
<path fill="none" stroke="midnightblue" d="M687.49,-347.45C668.57,-340.84 646.82,-329.59 635.5,-311 617.94,-282.15 621.76,-265.86 635.5,-235 641.07,-222.5 652.02,-212.01 662.25,-204.32"/>
<polygon fill="midnightblue" stroke="midnightblue" points="664.35,-207.12 670.55,-198.53 660.34,-201.38 664.35,-207.12"/>
</g>
<!-- Node19&#45;&gt;Node14 -->
<g id="edge28" class="edge">
<title>Node19&#45;&gt;Node14</title>
<path fill="none" stroke="midnightblue" d="M714.29,-347.18C706.96,-338.66 696.74,-325.02 692.5,-311 688.12,-296.54 682.73,-255.34 693.5,-235 706.48,-210.48 728.06,-221.35 744.5,-199 754.59,-185.28 759.97,-166.5 762.75,-152.65"/>
<polygon fill="midnightblue" stroke="midnightblue" points="766.2,-153.25 764.46,-142.8 759.3,-152.05 766.2,-153.25"/>
</g>
<!-- Node20 -->
<g id="node20" class="node">
<title>Node20</title>
<g id="a_node20"><a xlink:title=" ">
<polygon fill="white" stroke="#bfbfbf" points="830.5,-179.5 830.5,-198.5 880.5,-198.5 880.5,-179.5 830.5,-179.5"/>
<text text-anchor="middle" x="855.5" y="-186.5" font-family="Helvetica,sans-Serif" font-size="10.00">cstdint</text>
</a>
</g>
</g>
<!-- Node19&#45;&gt;Node20 -->
<g id="edge27" class="edge">
<title>Node19&#45;&gt;Node20</title>
<path fill="none" stroke="midnightblue" d="M717.6,-347.35C706.19,-325.93 680.73,-269.7 706.5,-235 720.11,-216.68 780.62,-202.94 820.22,-195.72"/>
<polygon fill="midnightblue" stroke="midnightblue" points="821.05,-199.13 830.29,-193.94 819.83,-192.23 821.05,-199.13"/>
</g>
<!-- Node21 -->
<g id="node21" class="node">
<title>Node21</title>
<g id="a_node21"><a xlink:href="RealConstants_8hpp.html" target="_top" xlink:title="Definitions file for constant expressions of type Real.">
<polygon fill="white" stroke="black" points="715.5,-235.5 715.5,-254.5 863.5,-254.5 863.5,-235.5 715.5,-235.5"/>
<text text-anchor="middle" x="789.5" y="-242.5" font-family="Helvetica,sans-Serif" font-size="10.00">playrho/RealConstants.hpp</text>
</a>
</g>
</g>
<!-- Node19&#45;&gt;Node21 -->
<g id="edge31" class="edge">
<title>Node19&#45;&gt;Node21</title>
<path fill="none" stroke="midnightblue" d="M727.76,-347.37C738.77,-329.3 764.42,-287.18 778.96,-263.31"/>
<polygon fill="midnightblue" stroke="midnightblue" points="782.05,-264.95 784.27,-254.59 776.08,-261.31 782.05,-264.95"/>
</g>
<!-- Node19&#45;&gt;Node22 -->
<g id="edge33" class="edge">
<title>Node19&#45;&gt;Node22</title>
<path fill="none" stroke="midnightblue" d="M781.09,-348.72C851.31,-339.95 972.54,-324.7 1076.5,-311 1077.97,-310.81 1079.46,-310.61 1080.96,-310.41"/>
<polygon fill="midnightblue" stroke="midnightblue" points="1081.53,-313.86 1090.98,-309.07 1080.61,-306.93 1081.53,-313.86"/>
</g>
<!-- Node26 -->
<g id="node26" class="node">
<title>Node26</title>
<g id="a_node26"><a xlink:href="WiderType_8hpp.html" target="_top" xlink:title="Definition of the WiderType alias template.">
<polygon fill="white" stroke="black" points="856.5,-291.5 856.5,-310.5 984.5,-310.5 984.5,-291.5 856.5,-291.5"/>
<text text-anchor="middle" x="920.5" y="-298.5" font-family="Helvetica,sans-Serif" font-size="10.00">playrho/WiderType.hpp</text>
</a>
</g>
</g>
<!-- Node19&#45;&gt;Node26 -->
<g id="edge42" class="edge">
<title>Node19&#45;&gt;Node26</title>
<path fill="none" stroke="midnightblue" d="M753.87,-347.44C787.76,-338.2 841.9,-323.44 879.22,-313.26"/>
<polygon fill="midnightblue" stroke="midnightblue" points="880.55,-316.52 889.27,-310.52 878.7,-309.77 880.55,-316.52"/>
</g>
<!-- Node21&#45;&gt;Node13 -->
<g id="edge32" class="edge">
<title>Node21&#45;&gt;Node13</title>
<path fill="none" stroke="midnightblue" d="M772.79,-235.32C756.19,-226.7 730.5,-213.36 711.28,-203.39"/>
<polygon fill="midnightblue" stroke="midnightblue" points="712.66,-200.16 702.17,-198.65 709.43,-206.37 712.66,-200.16"/>
</g>
<!-- Node22&#45;&gt;Node3 -->
<g id="edge35" class="edge">
<title>Node22&#45;&gt;Node3</title>
<path fill="none" stroke="midnightblue" d="M1194.17,-295.88C1252.79,-290.17 1343.53,-277.87 1368.5,-255 1390.7,-234.67 1387.5,-220.1 1387.5,-190 1387.5,-190 1387.5,-190 1387.5,-132 1387.5,-84.86 1355.12,-78.14 1313.5,-56 1248.37,-21.36 1161.54,-12.8 1109.51,-11.01"/>
<polygon fill="midnightblue" stroke="midnightblue" points="1109.36,-7.51 1099.27,-10.74 1109.17,-14.51 1109.36,-7.51"/>
</g>
<!-- Node22&#45;&gt;Node13 -->
<g id="edge36" class="edge">
<title>Node22&#45;&gt;Node13</title>
<path fill="none" stroke="midnightblue" d="M1090.67,-294.36C1042.89,-288.14 970.5,-276.09 910.5,-255 892.49,-248.67 890.36,-241.73 872.5,-235 831.23,-219.45 782.76,-207.97 745.52,-200.49"/>
<polygon fill="midnightblue" stroke="midnightblue" points="745.81,-196.98 735.32,-198.49 744.46,-203.85 745.81,-196.98"/>
</g>
<!-- Node22&#45;&gt;Node15 -->
<g id="edge38" class="edge">
<title>Node22&#45;&gt;Node15</title>
<path fill="none" stroke="midnightblue" d="M1137.3,-291.36C1122.96,-268.44 1080.35,-205.99 1026.5,-179 1026.5,-179 842.75,-156.35 736,-143.18"/>
<polygon fill="midnightblue" stroke="midnightblue" points="736.27,-139.69 725.91,-141.94 735.41,-146.64 736.27,-139.69"/>
</g>
<!-- Node22&#45;&gt;Node21 -->
<g id="edge37" class="edge">
<title>Node22&#45;&gt;Node21</title>
<path fill="none" stroke="midnightblue" d="M1090.79,-292.09C1028.41,-282.55 923.43,-266.49 855.32,-256.07"/>
<polygon fill="midnightblue" stroke="midnightblue" points="855.55,-252.56 845.13,-254.51 854.49,-259.48 855.55,-252.56"/>
</g>
<!-- Node23 -->
<g id="node23" class="node">
<title>Node23</title>
<g id="a_node23"><a xlink:title=" ">
<polygon fill="white" stroke="#bfbfbf" points="1150,-235.5 1150,-254.5 1197,-254.5 1197,-235.5 1150,-235.5"/>
<text text-anchor="middle" x="1173.5" y="-242.5" font-family="Helvetica,sans-Serif" font-size="10.00">cmath</text>
</a>
</g>
</g>
<!-- Node22&#45;&gt;Node23 -->
<g id="edge34" class="edge">
<title>Node22&#45;&gt;Node23</title>
<path fill="none" stroke="midnightblue" d="M1147.62,-291.08C1151.91,-283.61 1158.16,-272.72 1163.44,-263.52"/>
<polygon fill="midnightblue" stroke="midnightblue" points="1166.53,-265.17 1168.48,-254.75 1160.46,-261.68 1166.53,-265.17"/>
</g>
<!-- Node24 -->
<g id="node24" class="node">
<title>Node24</title>
<g id="a_node24"><a xlink:href="to__underlying_8hpp.html" target="_top" xlink:title="Definition of to_underlying function template.">
<polygon fill="white" stroke="black" points="1215.5,-235.5 1215.5,-254.5 1359.5,-254.5 1359.5,-235.5 1215.5,-235.5"/>
<text text-anchor="middle" x="1287.5" y="-242.5" font-family="Helvetica,sans-Serif" font-size="10.00">playrho/to_underlying.hpp</text>
</a>
</g>
</g>
<!-- Node22&#45;&gt;Node24 -->
<g id="edge39" class="edge">
<title>Node22&#45;&gt;Node24</title>
<path fill="none" stroke="midnightblue" d="M1165.48,-291.44C1189.66,-282.44 1227.92,-268.19 1255.15,-258.05"/>
<polygon fill="midnightblue" stroke="midnightblue" points="1256.48,-261.29 1264.63,-254.52 1254.04,-254.73 1256.48,-261.29"/>
</g>
<!-- Node25 -->
<g id="node25" class="node">
<title>Node25</title>
<g id="a_node25"><a xlink:href="underlying__type_8hpp.html" target="_top" xlink:title="Definition of underlying_type trait class and related code.">
<polygon fill="white" stroke="black" points="1165,-56.5 1165,-86.5 1304,-86.5 1304,-56.5 1165,-56.5"/>
<text text-anchor="start" x="1173" y="-74.5" font-family="Helvetica,sans-Serif" font-size="10.00">playrho/detail/underlying</text>
<text text-anchor="middle" x="1234.5" y="-63.5" font-family="Helvetica,sans-Serif" font-size="10.00">_type.hpp</text>
</a>
</g>
</g>
<!-- Node24&#45;&gt;Node25 -->
<g id="edge40" class="edge">
<title>Node24&#45;&gt;Node25</title>
<path fill="none" stroke="midnightblue" d="M1284.8,-235.26C1276.95,-209.87 1253.95,-135.44 1241.96,-96.65"/>
<polygon fill="midnightblue" stroke="midnightblue" points="1245.19,-95.24 1238.9,-86.72 1238.5,-97.31 1245.19,-95.24"/>
</g>
<!-- Node25&#45;&gt;Node3 -->
<g id="edge41" class="edge">
<title>Node25&#45;&gt;Node3</title>
<path fill="none" stroke="midnightblue" d="M1194.21,-56.4C1165.18,-46.24 1126.42,-32.67 1098.85,-23.02"/>
<polygon fill="midnightblue" stroke="midnightblue" points="1099.83,-19.66 1089.24,-19.66 1097.52,-26.26 1099.83,-19.66"/>
</g>
<!-- Node27 -->
<g id="node27" class="node">
<title>Node27</title>
<g id="a_node27"><a xlink:href="Wider_8hpp.html" target="_top" xlink:title="Definition of the Wider class template and specializations.">
<polygon fill="white" stroke="black" points="919.5,-235.5 919.5,-254.5 1055.5,-254.5 1055.5,-235.5 919.5,-235.5"/>
<text text-anchor="middle" x="987.5" y="-242.5" font-family="Helvetica,sans-Serif" font-size="10.00">playrho/detail/Wider.hpp</text>
</a>
</g>
</g>
<!-- Node26&#45;&gt;Node27 -->
<g id="edge43" class="edge">
<title>Node26&#45;&gt;Node27</title>
<path fill="none" stroke="midnightblue" d="M931.26,-291.32C941.27,-283.26 956.39,-271.08 968.43,-261.37"/>
<polygon fill="midnightblue" stroke="midnightblue" points="970.95,-263.83 976.54,-254.83 966.56,-258.38 970.95,-263.83"/>
</g>
<!-- Node27&#45;&gt;Node3 -->
<g id="edge45" class="edge">
<title>Node27&#45;&gt;Node3</title>
<path fill="none" stroke="midnightblue" d="M997.45,-235.39C1006.46,-227.02 1019.39,-213.47 1026.5,-199 1054.6,-141.81 1061.93,-65.07 1063.83,-29.96"/>
<polygon fill="midnightblue" stroke="midnightblue" points="1067.34,-29.89 1064.29,-19.74 1060.34,-29.57 1067.34,-29.89"/>
</g>
<!-- Node27&#45;&gt;Node20 -->
<g id="edge44" class="edge">
<title>Node27&#45;&gt;Node20</title>
<path fill="none" stroke="midnightblue" d="M966.58,-235.44C944.76,-226.52 910.35,-212.44 885.61,-202.32"/>
<polygon fill="midnightblue" stroke="midnightblue" points="886.9,-199.06 876.32,-198.52 884.25,-205.54 886.9,-199.06"/>
</g>
<!-- Node28 -->
<g id="node28" class="node">
<title>Node28</title>
<g id="a_node28"><a xlink:href="Defines_8hpp.html" target="_top" xlink:title="Miscellaneous C&#45;preprocessor definitions.">
<polygon fill="white" stroke="black" points="903.5,-179.5 903.5,-198.5 1017.5,-198.5 1017.5,-179.5 903.5,-179.5"/>
<text text-anchor="middle" x="960.5" y="-186.5" font-family="Helvetica,sans-Serif" font-size="10.00">playrho/Defines.hpp</text>
</a>
</g>
</g>
<!-- Node27&#45;&gt;Node28 -->
<g id="edge46" class="edge">
<title>Node27&#45;&gt;Node28</title>
<path fill="none" stroke="midnightblue" d="M983.04,-235.08C979.35,-227.69 973.98,-216.95 969.41,-207.81"/>
<polygon fill="midnightblue" stroke="midnightblue" points="972.48,-206.13 964.88,-198.75 966.22,-209.26 972.48,-206.13"/>
</g>
</g>
</svg>
