<?xml version="1.0" encoding="UTF-8" standalone="no"?>
<!DOCTYPE svg PUBLIC "-//W3C//DTD SVG 1.1//EN"
 "http://www.w3.org/Graphics/SVG/1.1/DTD/svg11.dtd">
<!-- Generated by graphviz version 2.43.0 (0)
 -->
<!-- Title: Library/include/playrho/MovementConf.hpp Pages: 1 -->
<svg width="983pt" height="554pt"
 viewBox="0.00 0.00 983.04 554.00" xmlns="http://www.w3.org/2000/svg" xmlns:xlink="http://www.w3.org/1999/xlink">
<g id="graph0" class="graph" transform="scale(1 1) rotate(0) translate(4 550)">
<title>Library/include/playrho/MovementConf.hpp</title>
<polygon fill="white" stroke="transparent" points="-4,4 -4,-550 979.04,-550 979.04,4 -4,4"/>
<!-- Node1 -->
<g id="node1" class="node">
<title>Node1</title>
<g id="a_node1"><a xlink:title="Definition of the MovementConf class and closely related code.">
<polygon fill="#bfbfbf" stroke="black" points="137.04,-515.5 137.04,-545.5 265.04,-545.5 265.04,-515.5 137.04,-515.5"/>
<text text-anchor="start" x="145.04" y="-533.5" font-family="Helvetica,sans-Serif" font-size="10.00">Library/include/playrho</text>
<text text-anchor="middle" x="201.04" y="-522.5" font-family="Helvetica,sans-Serif" font-size="10.00">/MovementConf.hpp</text>
</a>
</g>
</g>
<!-- Node2 -->
<g id="node2" class="node">
<title>Node2</title>
<g id="a_node2"><a xlink:href="Units_8hpp.html" target="_top" xlink:title="Declarations for physical units possibly backed by strong types.">
<polygon fill="white" stroke="black" points="149.54,-459.5 149.54,-478.5 252.54,-478.5 252.54,-459.5 149.54,-459.5"/>
<text text-anchor="middle" x="201.04" y="-466.5" font-family="Helvetica,sans-Serif" font-size="10.00">playrho/Units.hpp</text>
</a>
</g>
</g>
<!-- Node1&#45;&gt;Node2 -->
<g id="edge1" class="edge">
<title>Node1&#45;&gt;Node2</title>
<path fill="none" stroke="midnightblue" d="M201.04,-515.4C201.04,-507.47 201.04,-497.46 201.04,-488.86"/>
<polygon fill="midnightblue" stroke="midnightblue" points="204.54,-488.66 201.04,-478.66 197.54,-488.66 204.54,-488.66"/>
</g>
<!-- Node3 -->
<g id="node3" class="node">
<title>Node3</title>
<g id="a_node3"><a xlink:title=" ">
<polygon fill="white" stroke="#bfbfbf" points="223.54,-224.5 223.54,-243.5 270.54,-243.5 270.54,-224.5 223.54,-224.5"/>
<text text-anchor="middle" x="247.04" y="-231.5" font-family="Helvetica,sans-Serif" font-size="10.00">cmath</text>
</a>
</g>
</g>
<!-- Node2&#45;&gt;Node3 -->
<g id="edge2" class="edge">
<title>Node2&#45;&gt;Node3</title>
<path fill="none" stroke="midnightblue" d="M200.61,-459.48C199.49,-432.43 198.02,-346.32 220.04,-280 223.3,-270.18 228.98,-260.22 234.3,-252.17"/>
<polygon fill="midnightblue" stroke="midnightblue" points="237.34,-253.93 240.2,-243.73 231.6,-249.92 237.34,-253.93"/>
</g>
<!-- Node4 -->
<g id="node4" class="node">
<title>Node4</title>
<g id="a_node4"><a xlink:title=" ">
<polygon fill="white" stroke="#bfbfbf" points="78.54,-0.5 78.54,-19.5 147.54,-19.5 147.54,-0.5 78.54,-0.5"/>
<text text-anchor="middle" x="113.04" y="-7.5" font-family="Helvetica,sans-Serif" font-size="10.00">type_traits</text>
</a>
</g>
</g>
<!-- Node2&#45;&gt;Node4 -->
<g id="edge3" class="edge">
<title>Node2&#45;&gt;Node4</title>
<path fill="none" stroke="midnightblue" d="M149.36,-461.07C102.56,-453.77 38.25,-440.85 20.04,-423 -3.13,-400.28 1.04,-384.95 1.04,-352.5 1.04,-352.5 1.04,-352.5 1.04,-121 1.04,-74.61 50.55,-41.28 83.73,-24.15"/>
<polygon fill="midnightblue" stroke="midnightblue" points="85.61,-27.13 93.02,-19.56 82.5,-20.86 85.61,-27.13"/>
</g>
<!-- Node5 -->
<g id="node5" class="node">
<title>Node5</title>
<g id="a_node5"><a xlink:href="RealConstants_8hpp.html" target="_top" xlink:title="Definitions file for constant expressions of type Real.">
<polygon fill="white" stroke="black" points="311.04,-403.5 311.04,-422.5 459.04,-422.5 459.04,-403.5 311.04,-403.5"/>
<text text-anchor="middle" x="385.04" y="-410.5" font-family="Helvetica,sans-Serif" font-size="10.00">playrho/RealConstants.hpp</text>
</a>
</g>
</g>
<!-- Node2&#45;&gt;Node5 -->
<g id="edge4" class="edge">
<title>Node2&#45;&gt;Node5</title>
<path fill="none" stroke="midnightblue" d="M230.2,-459.44C261.56,-450.24 311.57,-435.56 346.24,-425.39"/>
<polygon fill="midnightblue" stroke="midnightblue" points="347.41,-428.69 356.02,-422.52 345.44,-421.97 347.41,-428.69"/>
</g>
<!-- Node13 -->
<g id="node13" class="node">
<title>Node13</title>
<g id="a_node13"><a xlink:href="Templates_8hpp.html" target="_top" xlink:title="Definitions of miscellaneous template related code.">
<polygon fill="white" stroke="black" points="569.04,-112.5 569.04,-131.5 697.04,-131.5 697.04,-112.5 569.04,-112.5"/>
<text text-anchor="middle" x="633.04" y="-119.5" font-family="Helvetica,sans-Serif" font-size="10.00">playrho/Templates.hpp</text>
</a>
</g>
</g>
<!-- Node2&#45;&gt;Node13 -->
<g id="edge38" class="edge">
<title>Node2&#45;&gt;Node13</title>
<path fill="none" stroke="midnightblue" d="M252.67,-464.95C366.5,-456.8 629.04,-429.66 629.04,-352.5 629.04,-352.5 629.04,-352.5 629.04,-233 629.04,-200.93 630.76,-163.63 631.95,-141.74"/>
<polygon fill="midnightblue" stroke="midnightblue" points="635.45,-141.73 632.52,-131.55 628.46,-141.34 635.45,-141.73"/>
</g>
<!-- Node29 -->
<g id="node29" class="node">
<title>Node29</title>
<g id="a_node29"><a xlink:href="to__underlying_8hpp.html" target="_top" xlink:title="Definition of to_underlying function template.">
<polygon fill="white" stroke="black" points="29.04,-403.5 29.04,-422.5 173.04,-422.5 173.04,-403.5 29.04,-403.5"/>
<text text-anchor="middle" x="101.04" y="-410.5" font-family="Helvetica,sans-Serif" font-size="10.00">playrho/to_underlying.hpp</text>
</a>
</g>
</g>
<!-- Node2&#45;&gt;Node29 -->
<g id="edge39" class="edge">
<title>Node2&#45;&gt;Node29</title>
<path fill="none" stroke="midnightblue" d="M184.98,-459.32C169.08,-450.74 144.54,-437.49 126.08,-427.52"/>
<polygon fill="midnightblue" stroke="midnightblue" points="127.53,-424.33 117.07,-422.65 124.21,-430.49 127.53,-424.33"/>
</g>
<!-- Node6 -->
<g id="node6" class="node">
<title>Node6</title>
<g id="a_node6"><a xlink:href="Defines_8hpp.html" target="_top" xlink:title="Miscellaneous C&#45;preprocessor definitions.">
<polygon fill="white" stroke="black" points="437.04,-112.5 437.04,-131.5 551.04,-131.5 551.04,-112.5 437.04,-112.5"/>
<text text-anchor="middle" x="494.04" y="-119.5" font-family="Helvetica,sans-Serif" font-size="10.00">playrho/Defines.hpp</text>
</a>
</g>
</g>
<!-- Node5&#45;&gt;Node6 -->
<g id="edge5" class="edge">
<title>Node5&#45;&gt;Node6</title>
<path fill="none" stroke="midnightblue" d="M432.01,-403.43C488.27,-390.13 575.04,-358.66 575.04,-291 575.04,-291 575.04,-291 575.04,-233 575.04,-201.72 566.6,-193.19 548.04,-168 539.25,-156.06 526.64,-145.32 515.81,-137.32"/>
<polygon fill="midnightblue" stroke="midnightblue" points="517.81,-134.45 507.62,-131.53 513.77,-140.16 517.81,-134.45"/>
</g>
<!-- Node7 -->
<g id="node7" class="node">
<title>Node7</title>
<g id="a_node7"><a xlink:href="Real_8hpp.html" target="_top" xlink:title="Real number definition file.">
<polygon fill="white" stroke="black" points="335.54,-342 335.54,-361 434.54,-361 434.54,-342 335.54,-342"/>
<text text-anchor="middle" x="385.04" y="-349" font-family="Helvetica,sans-Serif" font-size="10.00">playrho/Real.hpp</text>
</a>
</g>
</g>
<!-- Node5&#45;&gt;Node7 -->
<g id="edge6" class="edge">
<title>Node5&#45;&gt;Node7</title>
<path fill="none" stroke="midnightblue" d="M385.04,-403.48C385.04,-395.08 385.04,-381.98 385.04,-371.16"/>
<polygon fill="midnightblue" stroke="midnightblue" points="388.54,-371.01 385.04,-361.01 381.54,-371.01 388.54,-371.01"/>
</g>
<!-- Node8 -->
<g id="node8" class="node">
<title>Node8</title>
<g id="a_node8"><a xlink:href="Fixed_8hpp.html" target="_top" xlink:title="Definition of the Fixed class and closely related code.">
<polygon fill="white" stroke="black" points="333.54,-224.5 333.54,-243.5 436.54,-243.5 436.54,-224.5 333.54,-224.5"/>
<text text-anchor="middle" x="385.04" y="-231.5" font-family="Helvetica,sans-Serif" font-size="10.00">playrho/Fixed.hpp</text>
</a>
</g>
</g>
<!-- Node7&#45;&gt;Node8 -->
<g id="edge7" class="edge">
<title>Node7&#45;&gt;Node8</title>
<path fill="none" stroke="midnightblue" d="M385.04,-341.82C385.04,-323.26 385.04,-279.34 385.04,-253.97"/>
<polygon fill="midnightblue" stroke="midnightblue" points="388.54,-253.78 385.04,-243.78 381.54,-253.78 388.54,-253.78"/>
</g>
<!-- Node27 -->
<g id="node27" class="node">
<title>Node27</title>
<g id="a_node27"><a xlink:href="FixedMath_8hpp.html" target="_top" xlink:title="Conventional math functions for the Fixed class template.">
<polygon fill="white" stroke="black" points="229.04,-280.5 229.04,-299.5 357.04,-299.5 357.04,-280.5 229.04,-280.5"/>
<text text-anchor="middle" x="293.04" y="-287.5" font-family="Helvetica,sans-Serif" font-size="10.00">playrho/FixedMath.hpp</text>
</a>
</g>
</g>
<!-- Node7&#45;&gt;Node27 -->
<g id="edge33" class="edge">
<title>Node7&#45;&gt;Node27</title>
<path fill="none" stroke="midnightblue" d="M371.86,-341.98C356.97,-332.34 332.5,-316.52 314.77,-305.05"/>
<polygon fill="midnightblue" stroke="midnightblue" points="316.5,-302 306.2,-299.51 312.7,-307.88 316.5,-302"/>
</g>
<!-- Node28 -->
<g id="node28" class="node">
<title>Node28</title>
<g id="a_node28"><a xlink:href="FixedLimits_8hpp.html" target="_top" xlink:title="Specialization of std::numeric_limits for Fixed.">
<polygon fill="white" stroke="black" points="413.54,-280.5 413.54,-299.5 546.54,-299.5 546.54,-280.5 413.54,-280.5"/>
<text text-anchor="middle" x="480.04" y="-287.5" font-family="Helvetica,sans-Serif" font-size="10.00">playrho/FixedLimits.hpp</text>
</a>
</g>
</g>
<!-- Node7&#45;&gt;Node28 -->
<g id="edge36" class="edge">
<title>Node7&#45;&gt;Node28</title>
<path fill="none" stroke="midnightblue" d="M398.65,-341.98C414.1,-332.3 439.53,-316.37 457.86,-304.89"/>
<polygon fill="midnightblue" stroke="midnightblue" points="459.84,-307.78 466.46,-299.51 456.12,-301.85 459.84,-307.78"/>
</g>
<!-- Node8&#45;&gt;Node4 -->
<g id="edge11" class="edge">
<title>Node8&#45;&gt;Node4</title>
<path fill="none" stroke="midnightblue" d="M333.32,-228.72C274.59,-222.86 183.61,-210.41 158.04,-188 111.79,-147.45 109.79,-66.71 111.54,-29.98"/>
<polygon fill="midnightblue" stroke="midnightblue" points="115.05,-29.91 112.19,-19.71 108.07,-29.47 115.05,-29.91"/>
</g>
<!-- Node9 -->
<g id="node9" class="node">
<title>Node9</title>
<g id="a_node9"><a xlink:title=" ">
<polygon fill="white" stroke="#bfbfbf" points="148.04,-112.5 148.04,-131.5 198.04,-131.5 198.04,-112.5 148.04,-112.5"/>
<text text-anchor="middle" x="173.04" y="-119.5" font-family="Helvetica,sans-Serif" font-size="10.00">cstdint</text>
</a>
</g>
</g>
<!-- Node8&#45;&gt;Node9 -->
<g id="edge8" class="edge">
<title>Node8&#45;&gt;Node9</title>
<path fill="none" stroke="midnightblue" d="M333.45,-229.52C276.52,-224.47 190.24,-212.86 170.04,-188 159.6,-175.14 162.1,-155.69 166.15,-141.42"/>
<polygon fill="midnightblue" stroke="midnightblue" points="169.54,-142.3 169.35,-131.7 162.9,-140.1 169.54,-142.3"/>
</g>
<!-- Node10 -->
<g id="node10" class="node">
<title>Node10</title>
<g id="a_node10"><a xlink:title=" ">
<polygon fill="white" stroke="#bfbfbf" points="387.04,-0.5 387.04,-19.5 431.04,-19.5 431.04,-0.5 387.04,-0.5"/>
<text text-anchor="middle" x="409.04" y="-7.5" font-family="Helvetica,sans-Serif" font-size="10.00">limits</text>
</a>
</g>
</g>
<!-- Node8&#45;&gt;Node10 -->
<g id="edge9" class="edge">
<title>Node8&#45;&gt;Node10</title>
<path fill="none" stroke="midnightblue" d="M387.06,-224.42C389.11,-215.4 392.23,-200.78 394.04,-188 402.19,-130.62 406.46,-62.1 408.15,-29.72"/>
<polygon fill="midnightblue" stroke="midnightblue" points="411.66,-29.67 408.66,-19.51 404.67,-29.33 411.66,-29.67"/>
</g>
<!-- Node11 -->
<g id="node11" class="node">
<title>Node11</title>
<g id="a_node11"><a xlink:title=" ">
<polygon fill="white" stroke="#bfbfbf" points="333.04,-168.5 333.04,-187.5 385.04,-187.5 385.04,-168.5 333.04,-168.5"/>
<text text-anchor="middle" x="359.04" y="-175.5" font-family="Helvetica,sans-Serif" font-size="10.00">cassert</text>
</a>
</g>
</g>
<!-- Node8&#45;&gt;Node11 -->
<g id="edge10" class="edge">
<title>Node8&#45;&gt;Node11</title>
<path fill="none" stroke="midnightblue" d="M380.75,-224.08C377.19,-216.69 372.02,-205.95 367.62,-196.81"/>
<polygon fill="midnightblue" stroke="midnightblue" points="370.75,-195.24 363.26,-187.75 364.44,-198.28 370.75,-195.24"/>
</g>
<!-- Node12 -->
<g id="node12" class="node">
<title>Node12</title>
<g id="a_node12"><a xlink:title=" ">
<polygon fill="white" stroke="#bfbfbf" points="479.04,-168.5 479.04,-187.5 539.04,-187.5 539.04,-168.5 479.04,-168.5"/>
<text text-anchor="middle" x="509.04" y="-175.5" font-family="Helvetica,sans-Serif" font-size="10.00">iostream</text>
</a>
</g>
</g>
<!-- Node8&#45;&gt;Node12 -->
<g id="edge12" class="edge">
<title>Node8&#45;&gt;Node12</title>
<path fill="none" stroke="midnightblue" d="M404.69,-224.44C425.01,-215.6 456.95,-201.69 480.14,-191.59"/>
<polygon fill="midnightblue" stroke="midnightblue" points="481.72,-194.72 489.49,-187.52 478.92,-188.3 481.72,-194.72"/>
</g>
<!-- Node8&#45;&gt;Node13 -->
<g id="edge13" class="edge">
<title>Node8&#45;&gt;Node13</title>
<path fill="none" stroke="midnightblue" d="M394.17,-224.08C408.91,-210.13 439.43,-183.21 470.04,-168 502.54,-151.85 541.67,-140.81 573.43,-133.7"/>
<polygon fill="midnightblue" stroke="midnightblue" points="574.44,-137.06 583.47,-131.53 572.96,-130.22 574.44,-137.06"/>
</g>
<!-- Node19 -->
<g id="node19" class="node">
<title>Node19</title>
<g id="a_node19"><a xlink:href="TypeInfo_8hpp.html" target="_top" xlink:title="Definition of TypeID class and closely related code.">
<polygon fill="white" stroke="black" points="669.54,-168.5 669.54,-187.5 788.54,-187.5 788.54,-168.5 669.54,-168.5"/>
<text text-anchor="middle" x="729.04" y="-175.5" font-family="Helvetica,sans-Serif" font-size="10.00">playrho/TypeInfo.hpp</text>
</a>
</g>
</g>
<!-- Node8&#45;&gt;Node19 -->
<g id="edge21" class="edge">
<title>Node8&#45;&gt;Node19</title>
<path fill="none" stroke="midnightblue" d="M436.54,-224.92C497.3,-215.38 598.37,-199.51 664.35,-189.15"/>
<polygon fill="midnightblue" stroke="midnightblue" points="665.29,-192.55 674.63,-187.54 664.21,-185.63 665.29,-192.55"/>
</g>
<!-- Node26 -->
<g id="node26" class="node">
<title>Node26</title>
<g id="a_node26"><a xlink:href="Wider_8hpp.html" target="_top" xlink:title="Definition of the Wider class template and specializations.">
<polygon fill="white" stroke="black" points="179.04,-168.5 179.04,-187.5 315.04,-187.5 315.04,-168.5 179.04,-168.5"/>
<text text-anchor="middle" x="247.04" y="-175.5" font-family="Helvetica,sans-Serif" font-size="10.00">playrho/detail/Wider.hpp</text>
</a>
</g>
</g>
<!-- Node8&#45;&gt;Node26 -->
<g id="edge29" class="edge">
<title>Node8&#45;&gt;Node26</title>
<path fill="none" stroke="midnightblue" d="M363.18,-224.44C340.26,-215.48 304.07,-201.31 278.18,-191.18"/>
<polygon fill="midnightblue" stroke="midnightblue" points="279.39,-187.9 268.81,-187.52 276.84,-194.42 279.39,-187.9"/>
</g>
<!-- Node14 -->
<g id="node14" class="node">
<title>Node14</title>
<g id="a_node14"><a xlink:href="detail_2Templates_8hpp.html" target="_top" xlink:title="Low&#45;level declarations for general class &amp; function templates.">
<polygon fill="white" stroke="black" points="485.04,-56.5 485.04,-75.5 643.04,-75.5 643.04,-56.5 485.04,-56.5"/>
<text text-anchor="middle" x="564.04" y="-63.5" font-family="Helvetica,sans-Serif" font-size="10.00">playrho/detail/Templates.hpp</text>
</a>
</g>
</g>
<!-- Node13&#45;&gt;Node14 -->
<g id="edge14" class="edge">
<title>Node13&#45;&gt;Node14</title>
<path fill="none" stroke="midnightblue" d="M621.96,-112.32C611.56,-104.18 595.78,-91.84 583.32,-82.09"/>
<polygon fill="midnightblue" stroke="midnightblue" points="585.36,-79.24 575.33,-75.83 581.05,-84.75 585.36,-79.24"/>
</g>
<!-- Node14&#45;&gt;Node4 -->
<g id="edge19" class="edge">
<title>Node14&#45;&gt;Node4</title>
<path fill="none" stroke="midnightblue" d="M492.58,-56.44C398.57,-45.19 236.13,-25.74 157.82,-16.36"/>
<polygon fill="midnightblue" stroke="midnightblue" points="158.14,-12.87 147.79,-15.16 157.31,-19.82 158.14,-12.87"/>
</g>
<!-- Node14&#45;&gt;Node10 -->
<g id="edge18" class="edge">
<title>Node14&#45;&gt;Node10</title>
<path fill="none" stroke="midnightblue" d="M539.48,-56.44C512.91,-47.19 470.43,-32.39 441.21,-22.21"/>
<polygon fill="midnightblue" stroke="midnightblue" points="442.07,-18.8 431.47,-18.82 439.77,-25.41 442.07,-18.8"/>
</g>
<!-- Node15 -->
<g id="node15" class="node">
<title>Node15</title>
<g id="a_node15"><a xlink:title=" ">
<polygon fill="white" stroke="#bfbfbf" points="449.04,-0.5 449.04,-19.5 513.04,-19.5 513.04,-0.5 449.04,-0.5"/>
<text text-anchor="middle" x="481.04" y="-7.5" font-family="Helvetica,sans-Serif" font-size="10.00">algorithm</text>
</a>
</g>
</g>
<!-- Node14&#45;&gt;Node15 -->
<g id="edge15" class="edge">
<title>Node14&#45;&gt;Node15</title>
<path fill="none" stroke="midnightblue" d="M550.71,-56.32C537.88,-47.98 518.26,-35.21 503.1,-25.35"/>
<polygon fill="midnightblue" stroke="midnightblue" points="504.64,-22.17 494.34,-19.65 500.82,-28.04 504.64,-22.17"/>
</g>
<!-- Node16 -->
<g id="node16" class="node">
<title>Node16</title>
<g id="a_node16"><a xlink:title=" ">
<polygon fill="white" stroke="#bfbfbf" points="531.54,-0.5 531.54,-19.5 596.54,-19.5 596.54,-0.5 531.54,-0.5"/>
<text text-anchor="middle" x="564.04" y="-7.5" font-family="Helvetica,sans-Serif" font-size="10.00">functional</text>
</a>
</g>
</g>
<!-- Node14&#45;&gt;Node16 -->
<g id="edge16" class="edge">
<title>Node14&#45;&gt;Node16</title>
<path fill="none" stroke="midnightblue" d="M564.04,-56.08C564.04,-49.01 564.04,-38.86 564.04,-29.99"/>
<polygon fill="midnightblue" stroke="midnightblue" points="567.54,-29.75 564.04,-19.75 560.54,-29.75 567.54,-29.75"/>
</g>
<!-- Node17 -->
<g id="node17" class="node">
<title>Node17</title>
<g id="a_node17"><a xlink:title=" ">
<polygon fill="white" stroke="#bfbfbf" points="614.54,-0.5 614.54,-19.5 667.54,-19.5 667.54,-0.5 614.54,-0.5"/>
<text text-anchor="middle" x="641.04" y="-7.5" font-family="Helvetica,sans-Serif" font-size="10.00">iterator</text>
</a>
</g>
</g>
<!-- Node14&#45;&gt;Node17 -->
<g id="edge17" class="edge">
<title>Node14&#45;&gt;Node17</title>
<path fill="none" stroke="midnightblue" d="M576.41,-56.32C588.2,-48.06 606.17,-35.45 620.18,-25.63"/>
<polygon fill="midnightblue" stroke="midnightblue" points="622.52,-28.26 628.7,-19.65 618.5,-22.53 622.52,-28.26"/>
</g>
<!-- Node18 -->
<g id="node18" class="node">
<title>Node18</title>
<g id="a_node18"><a xlink:title=" ">
<polygon fill="white" stroke="#bfbfbf" points="685.54,-0.5 685.54,-19.5 730.54,-19.5 730.54,-0.5 685.54,-0.5"/>
<text text-anchor="middle" x="708.04" y="-7.5" font-family="Helvetica,sans-Serif" font-size="10.00">utility</text>
</a>
</g>
</g>
<!-- Node14&#45;&gt;Node18 -->
<g id="edge20" class="edge">
<title>Node14&#45;&gt;Node18</title>
<path fill="none" stroke="midnightblue" d="M586.86,-56.44C610.87,-47.44 648.87,-33.19 675.91,-23.05"/>
<polygon fill="midnightblue" stroke="midnightblue" points="677.2,-26.3 685.33,-19.52 674.74,-19.75 677.2,-26.3"/>
</g>
<!-- Node19&#45;&gt;Node13 -->
<g id="edge23" class="edge">
<title>Node19&#45;&gt;Node13</title>
<path fill="none" stroke="midnightblue" d="M713.62,-168.32C698.5,-159.82 675.23,-146.73 657.57,-136.8"/>
<polygon fill="midnightblue" stroke="midnightblue" points="658.86,-133.51 648.43,-131.65 655.43,-139.61 658.86,-133.51"/>
</g>
<!-- Node20 -->
<g id="node20" class="node">
<title>Node20</title>
<g id="a_node20"><a xlink:title=" ">
<polygon fill="white" stroke="#bfbfbf" points="715.04,-112.5 715.04,-131.5 765.04,-131.5 765.04,-112.5 715.04,-112.5"/>
<text text-anchor="middle" x="740.04" y="-119.5" font-family="Helvetica,sans-Serif" font-size="10.00">cstring</text>
</a>
</g>
</g>
<!-- Node19&#45;&gt;Node20 -->
<g id="edge22" class="edge">
<title>Node19&#45;&gt;Node20</title>
<path fill="none" stroke="midnightblue" d="M730.86,-168.08C732.32,-160.93 734.41,-150.64 736.24,-141.69"/>
<polygon fill="midnightblue" stroke="midnightblue" points="739.69,-142.25 738.26,-131.75 732.83,-140.85 739.69,-142.25"/>
</g>
<!-- Node21 -->
<g id="node21" class="node">
<title>Node21</title>
<g id="a_node21"><a xlink:href="detail_2TypeInfo_8hpp.html" target="_top" xlink:title="Definition of TypeInfo class template and related code.">
<polygon fill="white" stroke="black" points="782.54,-112.5 782.54,-131.5 931.54,-131.5 931.54,-112.5 782.54,-112.5"/>
<text text-anchor="middle" x="857.04" y="-119.5" font-family="Helvetica,sans-Serif" font-size="10.00">playrho/detail/TypeInfo.hpp</text>
</a>
</g>
</g>
<!-- Node19&#45;&gt;Node21 -->
<g id="edge24" class="edge">
<title>Node19&#45;&gt;Node21</title>
<path fill="none" stroke="midnightblue" d="M749.32,-168.44C770.39,-159.56 803.56,-145.56 827.53,-135.45"/>
<polygon fill="midnightblue" stroke="midnightblue" points="829,-138.63 836.86,-131.52 826.28,-132.18 829,-138.63"/>
</g>
<!-- Node22 -->
<g id="node22" class="node">
<title>Node22</title>
<g id="a_node22"><a xlink:title=" ">
<polygon fill="white" stroke="#bfbfbf" points="869.04,-56.5 869.04,-75.5 913.04,-75.5 913.04,-56.5 869.04,-56.5"/>
<text text-anchor="middle" x="891.04" y="-63.5" font-family="Helvetica,sans-Serif" font-size="10.00">regex</text>
</a>
</g>
</g>
<!-- Node21&#45;&gt;Node22 -->
<g id="edge25" class="edge">
<title>Node21&#45;&gt;Node22</title>
<path fill="none" stroke="midnightblue" d="M862.66,-112.08C867.41,-104.53 874.36,-93.49 880.19,-84.23"/>
<polygon fill="midnightblue" stroke="midnightblue" points="883.17,-86.08 885.53,-75.75 877.24,-82.35 883.17,-86.08"/>
</g>
<!-- Node23 -->
<g id="node23" class="node">
<title>Node23</title>
<g id="a_node23"><a xlink:title=" ">
<polygon fill="white" stroke="#bfbfbf" points="931.04,-56.5 931.04,-75.5 975.04,-75.5 975.04,-56.5 931.04,-56.5"/>
<text text-anchor="middle" x="953.04" y="-63.5" font-family="Helvetica,sans-Serif" font-size="10.00">string</text>
</a>
</g>
</g>
<!-- Node21&#45;&gt;Node23 -->
<g id="edge26" class="edge">
<title>Node21&#45;&gt;Node23</title>
<path fill="none" stroke="midnightblue" d="M872.47,-112.32C887.58,-103.82 910.86,-90.73 928.51,-80.8"/>
<polygon fill="midnightblue" stroke="midnightblue" points="930.66,-83.61 937.66,-75.65 927.23,-77.51 930.66,-83.61"/>
</g>
<!-- Node24 -->
<g id="node24" class="node">
<title>Node24</title>
<g id="a_node24"><a xlink:title=" ">
<polygon fill="white" stroke="#bfbfbf" points="710.54,-56.5 710.54,-75.5 775.54,-75.5 775.54,-56.5 710.54,-56.5"/>
<text text-anchor="middle" x="743.04" y="-63.5" font-family="Helvetica,sans-Serif" font-size="10.00">typeindex</text>
</a>
</g>
</g>
<!-- Node21&#45;&gt;Node24 -->
<g id="edge27" class="edge">
<title>Node21&#45;&gt;Node24</title>
<path fill="none" stroke="midnightblue" d="M838.98,-112.44C820.47,-103.68 791.46,-89.94 770.19,-79.86"/>
<polygon fill="midnightblue" stroke="midnightblue" points="771.56,-76.63 761.02,-75.52 768.56,-82.96 771.56,-76.63"/>
</g>
<!-- Node25 -->
<g id="node25" class="node">
<title>Node25</title>
<g id="a_node25"><a xlink:title=" ">
<polygon fill="white" stroke="#bfbfbf" points="793.54,-56.5 793.54,-75.5 850.54,-75.5 850.54,-56.5 793.54,-56.5"/>
<text text-anchor="middle" x="822.04" y="-63.5" font-family="Helvetica,sans-Serif" font-size="10.00">typeinfo</text>
</a>
</g>
</g>
<!-- Node21&#45;&gt;Node25 -->
<g id="edge28" class="edge">
<title>Node21&#45;&gt;Node25</title>
<path fill="none" stroke="midnightblue" d="M851.26,-112.08C846.37,-104.53 839.22,-93.49 833.21,-84.23"/>
<polygon fill="midnightblue" stroke="midnightblue" points="836.09,-82.24 827.71,-75.75 830.22,-86.05 836.09,-82.24"/>
</g>
<!-- Node26&#45;&gt;Node4 -->
<g id="edge31" class="edge">
<title>Node26&#45;&gt;Node4</title>
<path fill="none" stroke="midnightblue" d="M242.38,-168.23C235.39,-155.4 221.49,-130.98 207.04,-112 182.43,-79.67 149.17,-45.84 129.52,-26.69"/>
<polygon fill="midnightblue" stroke="midnightblue" points="131.86,-24.08 122.23,-19.66 126.99,-29.12 131.86,-24.08"/>
</g>
<!-- Node26&#45;&gt;Node6 -->
<g id="edge32" class="edge">
<title>Node26&#45;&gt;Node6</title>
<path fill="none" stroke="midnightblue" d="M286.18,-168.44C329.27,-159.02 398.6,-143.87 445.21,-133.68"/>
<polygon fill="midnightblue" stroke="midnightblue" points="446.07,-137.07 455.09,-131.52 444.57,-130.23 446.07,-137.07"/>
</g>
<!-- Node26&#45;&gt;Node9 -->
<g id="edge30" class="edge">
<title>Node26&#45;&gt;Node9</title>
<path fill="none" stroke="midnightblue" d="M235.15,-168.32C223.89,-160.11 206.76,-147.6 193.33,-137.81"/>
<polygon fill="midnightblue" stroke="midnightblue" points="195.29,-134.9 185.15,-131.83 191.16,-140.56 195.29,-134.9"/>
</g>
<!-- Node27&#45;&gt;Node3 -->
<g id="edge34" class="edge">
<title>Node27&#45;&gt;Node3</title>
<path fill="none" stroke="midnightblue" d="M285.45,-280.08C278.81,-272.3 269.02,-260.8 260.98,-251.37"/>
<polygon fill="midnightblue" stroke="midnightblue" points="263.65,-249.09 254.5,-243.75 258.32,-253.63 263.65,-249.09"/>
</g>
<!-- Node27&#45;&gt;Node8 -->
<g id="edge35" class="edge">
<title>Node27&#45;&gt;Node8</title>
<path fill="none" stroke="midnightblue" d="M307.82,-280.32C322.31,-271.82 344.62,-258.73 361.54,-248.8"/>
<polygon fill="midnightblue" stroke="midnightblue" points="363.45,-251.74 370.3,-243.65 359.9,-245.7 363.45,-251.74"/>
</g>
<!-- Node28&#45;&gt;Node8 -->
<g id="edge37" class="edge">
<title>Node28&#45;&gt;Node8</title>
<path fill="none" stroke="midnightblue" d="M464.78,-280.32C449.82,-271.82 426.79,-258.73 409.32,-248.8"/>
<polygon fill="midnightblue" stroke="midnightblue" points="410.69,-245.55 400.27,-243.65 407.23,-251.64 410.69,-245.55"/>
</g>
<!-- Node30 -->
<g id="node30" class="node">
<title>Node30</title>
<g id="a_node30"><a xlink:href="underlying__type_8hpp.html" target="_top" xlink:title="Definition of underlying_type trait class and related code.">
<polygon fill="white" stroke="black" points="30.54,-336.5 30.54,-366.5 169.54,-366.5 169.54,-336.5 30.54,-336.5"/>
<text text-anchor="start" x="38.54" y="-354.5" font-family="Helvetica,sans-Serif" font-size="10.00">playrho/detail/underlying</text>
<text text-anchor="middle" x="100.04" y="-343.5" font-family="Helvetica,sans-Serif" font-size="10.00">_type.hpp</text>
</a>
</g>
</g>
<!-- Node29&#45;&gt;Node30 -->
<g id="edge40" class="edge">
<title>Node29&#45;&gt;Node30</title>
<path fill="none" stroke="midnightblue" d="M100.9,-403.48C100.78,-396.47 100.61,-386.19 100.45,-376.7"/>
<polygon fill="midnightblue" stroke="midnightblue" points="103.95,-376.46 100.28,-366.52 96.95,-376.58 103.95,-376.46"/>
</g>
<!-- Node30&#45;&gt;Node4 -->
<g id="edge41" class="edge">
<title>Node30&#45;&gt;Node4</title>
<path fill="none" stroke="midnightblue" d="M94.98,-336.49C87.68,-314.96 75.04,-272.34 75.04,-235 75.04,-235 75.04,-235 75.04,-121 75.04,-86.81 91.64,-49.76 102.9,-28.57"/>
<polygon fill="midnightblue" stroke="midnightblue" points="105.99,-30.22 107.76,-19.77 99.86,-26.83 105.99,-30.22"/>
</g>
</g>
</svg>
