<?xml version="1.0" encoding="UTF-8" standalone="no"?>
<!DOCTYPE svg PUBLIC "-//W3C//DTD SVG 1.1//EN"
 "http://www.w3.org/Graphics/SVG/1.1/DTD/svg11.dtd">
<!-- Generated by graphviz version 2.43.0 (0)
 -->
<!-- Title: Library/include/playrho/MovementConf.hpp Pages: 1 -->
<svg width="501pt" height="386pt"
 viewBox="0.00 0.00 500.50 386.00" xmlns="http://www.w3.org/2000/svg" xmlns:xlink="http://www.w3.org/1999/xlink">
<g id="graph0" class="graph" transform="scale(1 1) rotate(0) translate(4 382)">
<title>Library/include/playrho/MovementConf.hpp</title>
<polygon fill="white" stroke="transparent" points="-4,4 -4,-382 496.5,-382 496.5,4 -4,4"/>
<!-- Node1 -->
<g id="node1" class="node">
<title>Node1</title>
<g id="a_node1"><a xlink:title="Definition of the MovementConf class and closely related code.">
<polygon fill="#bfbfbf" stroke="black" points="161.5,-347.5 161.5,-377.5 289.5,-377.5 289.5,-347.5 161.5,-347.5"/>
<text text-anchor="start" x="169.5" y="-365.5" font-family="Helvetica,sans-Serif" font-size="10.00">Library/include/playrho</text>
<text text-anchor="middle" x="225.5" y="-354.5" font-family="Helvetica,sans-Serif" font-size="10.00">/MovementConf.hpp</text>
</a>
</g>
</g>
<!-- Node2 -->
<g id="node2" class="node">
<title>Node2</title>
<g id="a_node2"><a xlink:href="Units_8hpp.html" target="_top" xlink:title="Declarations for physical units possibly backed by strong types.">
<polygon fill="white" stroke="black" points="174,-291.5 174,-310.5 277,-310.5 277,-291.5 174,-291.5"/>
<text text-anchor="middle" x="225.5" y="-298.5" font-family="Helvetica,sans-Serif" font-size="10.00">playrho/Units.hpp</text>
</a>
</g>
</g>
<!-- Node1&#45;&gt;Node2 -->
<g id="edge1" class="edge">
<title>Node1&#45;&gt;Node2</title>
<path fill="none" stroke="midnightblue" d="M225.5,-347.4C225.5,-339.47 225.5,-329.46 225.5,-320.86"/>
<polygon fill="midnightblue" stroke="midnightblue" points="229,-320.66 225.5,-310.66 222,-320.66 229,-320.66"/>
</g>
<!-- Node3 -->
<g id="node3" class="node">
<title>Node3</title>
<g id="a_node3"><a xlink:title=" ">
<polygon fill="white" stroke="#bfbfbf" points="0,-235.5 0,-254.5 47,-254.5 47,-235.5 0,-235.5"/>
<text text-anchor="middle" x="23.5" y="-242.5" font-family="Helvetica,sans-Serif" font-size="10.00">cmath</text>
</a>
</g>
</g>
<!-- Node2&#45;&gt;Node3 -->
<g id="edge2" class="edge">
<title>Node2&#45;&gt;Node3</title>
<path fill="none" stroke="midnightblue" d="M193.49,-291.44C156.28,-281.49 95.12,-265.15 57.19,-255.01"/>
<polygon fill="midnightblue" stroke="midnightblue" points="57.72,-251.52 47.15,-252.32 55.91,-258.29 57.72,-251.52"/>
</g>
<!-- Node4 -->
<g id="node4" class="node">
<title>Node4</title>
<g id="a_node4"><a xlink:title=" ">
<polygon fill="white" stroke="#bfbfbf" points="160,-0.5 160,-19.5 229,-19.5 229,-0.5 160,-0.5"/>
<text text-anchor="middle" x="194.5" y="-7.5" font-family="Helvetica,sans-Serif" font-size="10.00">type_traits</text>
</a>
</g>
</g>
<!-- Node2&#45;&gt;Node4 -->
<g id="edge3" class="edge">
<title>Node2&#45;&gt;Node4</title>
<path fill="none" stroke="midnightblue" d="M173.82,-293.96C146.74,-288.21 115.02,-276.96 94.5,-255 72.34,-231.29 75.5,-216.95 75.5,-184.5 75.5,-184.5 75.5,-184.5 75.5,-121 75.5,-73.3 127.7,-40.53 162.96,-23.84"/>
<polygon fill="midnightblue" stroke="midnightblue" points="164.73,-26.88 172.4,-19.56 161.84,-20.5 164.73,-26.88"/>
</g>
<!-- Node5 -->
<g id="node5" class="node">
<title>Node5</title>
<g id="a_node5"><a xlink:href="Real_8hpp.html" target="_top" xlink:title="Real number definition file.">
<polygon fill="white" stroke="black" points="284,-174 284,-193 383,-193 383,-174 284,-174"/>
<text text-anchor="middle" x="333.5" y="-181" font-family="Helvetica,sans-Serif" font-size="10.00">playrho/Real.hpp</text>
</a>
</g>
</g>
<!-- Node2&#45;&gt;Node5 -->
<g id="edge4" class="edge">
<title>Node2&#45;&gt;Node5</title>
<path fill="none" stroke="midnightblue" d="M233.62,-291.32C251.6,-272.09 295.03,-225.64 318.25,-200.81"/>
<polygon fill="midnightblue" stroke="midnightblue" points="321.01,-202.98 325.29,-193.28 315.9,-198.2 321.01,-202.98"/>
</g>
<!-- Node7 -->
<g id="node7" class="node">
<title>Node7</title>
<g id="a_node7"><a xlink:href="Templates_8hpp.html" target="_top" xlink:title="Definitions of miscellaneous template related code.">
<polygon fill="white" stroke="black" points="289.5,-112.5 289.5,-131.5 417.5,-131.5 417.5,-112.5 289.5,-112.5"/>
<text text-anchor="middle" x="353.5" y="-119.5" font-family="Helvetica,sans-Serif" font-size="10.00">playrho/Templates.hpp</text>
</a>
</g>
</g>
<!-- Node2&#45;&gt;Node7 -->
<g id="edge16" class="edge">
<title>Node2&#45;&gt;Node7</title>
<path fill="none" stroke="midnightblue" d="M277.18,-297.56C339.19,-293.41 437.71,-282.57 460.5,-255 496.06,-211.98 420.62,-160.45 378.82,-136.49"/>
<polygon fill="midnightblue" stroke="midnightblue" points="380.42,-133.37 369.98,-131.54 377,-139.48 380.42,-133.37"/>
</g>
<!-- Node13 -->
<g id="node13" class="node">
<title>Node13</title>
<g id="a_node13"><a xlink:href="RealConstants_8hpp.html" target="_top" xlink:title="Definitions file for constant expressions of type Real.">
<polygon fill="white" stroke="black" points="303.5,-235.5 303.5,-254.5 451.5,-254.5 451.5,-235.5 303.5,-235.5"/>
<text text-anchor="middle" x="377.5" y="-242.5" font-family="Helvetica,sans-Serif" font-size="10.00">playrho/RealConstants.hpp</text>
</a>
</g>
</g>
<!-- Node2&#45;&gt;Node13 -->
<g id="edge14" class="edge">
<title>Node2&#45;&gt;Node13</title>
<path fill="none" stroke="midnightblue" d="M249.58,-291.44C275.04,-282.4 315.39,-268.06 343.96,-257.92"/>
<polygon fill="midnightblue" stroke="midnightblue" points="345.28,-261.16 353.53,-254.52 342.93,-254.57 345.28,-261.16"/>
</g>
<!-- Node14 -->
<g id="node14" class="node">
<title>Node14</title>
<g id="a_node14"><a xlink:href="to__underlying_8hpp.html" target="_top" xlink:title="Definition of to_underlying function template.">
<polygon fill="white" stroke="black" points="103.5,-235.5 103.5,-254.5 247.5,-254.5 247.5,-235.5 103.5,-235.5"/>
<text text-anchor="middle" x="175.5" y="-242.5" font-family="Helvetica,sans-Serif" font-size="10.00">playrho/to_underlying.hpp</text>
</a>
</g>
</g>
<!-- Node2&#45;&gt;Node14 -->
<g id="edge17" class="edge">
<title>Node2&#45;&gt;Node14</title>
<path fill="none" stroke="midnightblue" d="M217.24,-291.08C210.04,-283.3 199.39,-271.8 190.65,-262.37"/>
<polygon fill="midnightblue" stroke="midnightblue" points="192.97,-259.71 183.6,-254.75 187.83,-264.47 192.97,-259.71"/>
</g>
<!-- Node6 -->
<g id="node6" class="node">
<title>Node6</title>
<g id="a_node6"><a xlink:title=" ">
<polygon fill="white" stroke="#bfbfbf" points="227.5,-112.5 227.5,-131.5 271.5,-131.5 271.5,-112.5 227.5,-112.5"/>
<text text-anchor="middle" x="249.5" y="-119.5" font-family="Helvetica,sans-Serif" font-size="10.00">limits</text>
</a>
</g>
</g>
<!-- Node5&#45;&gt;Node6 -->
<g id="edge5" class="edge">
<title>Node5&#45;&gt;Node6</title>
<path fill="none" stroke="midnightblue" d="M321.46,-173.98C307.99,-164.43 285.93,-148.81 269.78,-137.37"/>
<polygon fill="midnightblue" stroke="midnightblue" points="271.7,-134.43 261.51,-131.51 267.65,-140.15 271.7,-134.43"/>
</g>
<!-- Node5&#45;&gt;Node7 -->
<g id="edge6" class="edge">
<title>Node5&#45;&gt;Node7</title>
<path fill="none" stroke="midnightblue" d="M336.37,-173.98C339.22,-165.49 343.68,-152.2 347.34,-141.32"/>
<polygon fill="midnightblue" stroke="midnightblue" points="350.77,-142.1 350.64,-131.51 344.14,-139.87 350.77,-142.1"/>
</g>
<!-- Node7&#45;&gt;Node4 -->
<g id="edge8" class="edge">
<title>Node7&#45;&gt;Node4</title>
<path fill="none" stroke="midnightblue" d="M311.06,-112.48C286.32,-105.83 255.72,-94.51 233.5,-76 218.53,-63.53 207.83,-43.74 201.47,-29.27"/>
<polygon fill="midnightblue" stroke="midnightblue" points="204.64,-27.78 197.6,-19.85 198.16,-30.43 204.64,-27.78"/>
</g>
<!-- Node8 -->
<g id="node8" class="node">
<title>Node8</title>
<g id="a_node8"><a xlink:title=" ">
<polygon fill="white" stroke="#bfbfbf" points="242,-56.5 242,-75.5 291,-75.5 291,-56.5 242,-56.5"/>
<text text-anchor="middle" x="266.5" y="-63.5" font-family="Helvetica,sans-Serif" font-size="10.00">cstdlib</text>
</a>
</g>
</g>
<!-- Node7&#45;&gt;Node8 -->
<g id="edge7" class="edge">
<title>Node7&#45;&gt;Node8</title>
<path fill="none" stroke="midnightblue" d="M339.52,-112.32C325.95,-103.9 305.12,-90.97 289.18,-81.07"/>
<polygon fill="midnightblue" stroke="midnightblue" points="290.79,-77.95 280.44,-75.65 287.09,-83.9 290.79,-77.95"/>
</g>
<!-- Node9 -->
<g id="node9" class="node">
<title>Node9</title>
<g id="a_node9"><a xlink:href="detail_2Templates_8hpp.html" target="_top" xlink:title="Low&#45;level declarations for general class &amp; function templates.">
<polygon fill="white" stroke="black" points="308.5,-56.5 308.5,-75.5 466.5,-75.5 466.5,-56.5 308.5,-56.5"/>
<text text-anchor="middle" x="387.5" y="-63.5" font-family="Helvetica,sans-Serif" font-size="10.00">playrho/detail/Templates.hpp</text>
</a>
</g>
</g>
<!-- Node7&#45;&gt;Node9 -->
<g id="edge9" class="edge">
<title>Node7&#45;&gt;Node9</title>
<path fill="none" stroke="midnightblue" d="M359.11,-112.08C363.87,-104.53 370.82,-93.49 376.65,-84.23"/>
<polygon fill="midnightblue" stroke="midnightblue" points="379.62,-86.08 381.99,-75.75 373.7,-82.35 379.62,-86.08"/>
</g>
<!-- Node9&#45;&gt;Node4 -->
<g id="edge12" class="edge">
<title>Node9&#45;&gt;Node4</title>
<path fill="none" stroke="midnightblue" d="M356.92,-56.44C323.89,-47.2 271.11,-32.44 234.73,-22.26"/>
<polygon fill="midnightblue" stroke="midnightblue" points="235.51,-18.84 224.94,-19.52 233.63,-25.58 235.51,-18.84"/>
</g>
<!-- Node10 -->
<g id="node10" class="node">
<title>Node10</title>
<g id="a_node10"><a xlink:title=" ">
<polygon fill="white" stroke="#bfbfbf" points="428.5,-0.5 428.5,-19.5 492.5,-19.5 492.5,-0.5 428.5,-0.5"/>
<text text-anchor="middle" x="460.5" y="-7.5" font-family="Helvetica,sans-Serif" font-size="10.00">algorithm</text>
</a>
</g>
</g>
<!-- Node9&#45;&gt;Node10 -->
<g id="edge10" class="edge">
<title>Node9&#45;&gt;Node10</title>
<path fill="none" stroke="midnightblue" d="M399.23,-56.32C410.34,-48.11 427.24,-35.6 440.48,-25.81"/>
<polygon fill="midnightblue" stroke="midnightblue" points="442.6,-28.59 448.56,-19.83 438.44,-22.97 442.6,-28.59"/>
</g>
<!-- Node11 -->
<g id="node11" class="node">
<title>Node11</title>
<g id="a_node11"><a xlink:title=" ">
<polygon fill="white" stroke="#bfbfbf" points="294,-0.5 294,-19.5 347,-19.5 347,-0.5 294,-0.5"/>
<text text-anchor="middle" x="320.5" y="-7.5" font-family="Helvetica,sans-Serif" font-size="10.00">iterator</text>
</a>
</g>
</g>
<!-- Node9&#45;&gt;Node11 -->
<g id="edge11" class="edge">
<title>Node9&#45;&gt;Node11</title>
<path fill="none" stroke="midnightblue" d="M376.74,-56.32C366.73,-48.26 351.61,-36.08 339.57,-26.37"/>
<polygon fill="midnightblue" stroke="midnightblue" points="341.44,-23.38 331.46,-19.83 337.05,-28.83 341.44,-23.38"/>
</g>
<!-- Node12 -->
<g id="node12" class="node">
<title>Node12</title>
<g id="a_node12"><a xlink:title=" ">
<polygon fill="white" stroke="#bfbfbf" points="365,-0.5 365,-19.5 410,-19.5 410,-0.5 365,-0.5"/>
<text text-anchor="middle" x="387.5" y="-7.5" font-family="Helvetica,sans-Serif" font-size="10.00">utility</text>
</a>
</g>
</g>
<!-- Node9&#45;&gt;Node12 -->
<g id="edge13" class="edge">
<title>Node9&#45;&gt;Node12</title>
<path fill="none" stroke="midnightblue" d="M387.5,-56.08C387.5,-49.01 387.5,-38.86 387.5,-29.99"/>
<polygon fill="midnightblue" stroke="midnightblue" points="391,-29.75 387.5,-19.75 384,-29.75 391,-29.75"/>
</g>
<!-- Node13&#45;&gt;Node5 -->
<g id="edge15" class="edge">
<title>Node13&#45;&gt;Node5</title>
<path fill="none" stroke="midnightblue" d="M371.2,-235.48C364.6,-226.55 354.06,-212.31 345.81,-201.14"/>
<polygon fill="midnightblue" stroke="midnightblue" points="348.55,-198.97 339.79,-193.01 342.92,-203.13 348.55,-198.97"/>
</g>
<!-- Node15 -->
<g id="node15" class="node">
<title>Node15</title>
<g id="a_node15"><a xlink:href="underlying__type_8hpp.html" target="_top" xlink:title="Definition of underlying_type trait class and related code.">
<polygon fill="white" stroke="black" points="106,-168.5 106,-198.5 245,-198.5 245,-168.5 106,-168.5"/>
<text text-anchor="start" x="114" y="-186.5" font-family="Helvetica,sans-Serif" font-size="10.00">playrho/detail/underlying</text>
<text text-anchor="middle" x="175.5" y="-175.5" font-family="Helvetica,sans-Serif" font-size="10.00">_type.hpp</text>
</a>
</g>
</g>
<!-- Node14&#45;&gt;Node15 -->
<g id="edge18" class="edge">
<title>Node14&#45;&gt;Node15</title>
<path fill="none" stroke="midnightblue" d="M175.5,-235.48C175.5,-228.47 175.5,-218.19 175.5,-208.7"/>
<polygon fill="midnightblue" stroke="midnightblue" points="179,-208.52 175.5,-198.52 172,-208.52 179,-208.52"/>
</g>
<!-- Node15&#45;&gt;Node4 -->
<g id="edge19" class="edge">
<title>Node15&#45;&gt;Node4</title>
<path fill="none" stroke="midnightblue" d="M177.05,-168.47C180.46,-137.7 188.59,-64.33 192.43,-29.7"/>
<polygon fill="midnightblue" stroke="midnightblue" points="195.93,-29.88 193.55,-19.56 188.97,-29.11 195.93,-29.88"/>
</g>
</g>
</svg>
