<?xml version="1.0" encoding="UTF-8" standalone="no"?>
<!DOCTYPE svg PUBLIC "-//W3C//DTD SVG 1.1//EN"
 "http://www.w3.org/Graphics/SVG/1.1/DTD/svg11.dtd">
<!-- Generated by graphviz version 2.43.0 (0)
 -->
<!-- Title: Library/include/playrho/Negative.hpp Pages: 1 -->
<!--zoomable 263 -->
<svg id="main" version="1.1" xmlns="http://www.w3.org/2000/svg" xmlns:xlink="http://www.w3.org/1999/xlink" xml:space="preserve" onload="init(evt)">
<style type="text/css"><![CDATA[
.edge:hover path { stroke: red; }
.edge:hover polygon { stroke: red; fill: red; }
]]></style>
<script type="text/javascript"><![CDATA[
var edges = document.getElementsByTagName('g');
if (edges && edges.length) {
  for (var i=0;i<edges.length;i++) {
    if (edges[i].id.substr(0,4)=='edge') {
      edges[i].setAttribute('class','edge');
    }
  }
}
]]></script>
        <defs>
                <circle id="rim" cx="0" cy="0" r="7"/>
                <circle id="rim2" cx="0" cy="0" r="3.5"/>
                <g id="zoomPlus">
                        <use xlink:href="#rim" fill="#404040">
                                <set attributeName="fill" to="#808080" begin="zoomplus.mouseover" end="zoomplus.mouseout"/>
                        </use>
                        <path d="M-4,0h8M0,-4v8" fill="none" stroke="white" stroke-width="1.5" pointer-events="none"/>
                </g>
                <g id="zoomMin">
                        <use xlink:href="#rim" fill="#404040">
                                <set attributeName="fill" to="#808080" begin="zoomminus.mouseover" end="zoomminus.mouseout"/>
                        </use>
                        <path d="M-4,0h8" fill="none" stroke="white" stroke-width="1.5" pointer-events="none"/>
                </g>
                <g id="dirArrow">
                        <path fill="none" stroke="white" stroke-width="1.5" d="M0,-3.0v7 M-2.5,-0.5L0,-3.0L2.5,-0.5"/>
                </g>
               <g id="resetDef">
                       <use xlink:href="#rim2" fill="#404040">
                               <set attributeName="fill" to="#808080" begin="reset.mouseover" end="reset.mouseout"/>
                       </use>
               </g>
        </defs>

<script type="text/javascript">
var viewWidth = 694;
var viewHeight = 263;
var sectionId = 'dynsection-0';
</script>
<script xlink:href="svgpan.js"/>
<svg id="graph" class="graph">
<g id="viewport">
<title>Library/include/playrho/Negative.hpp</title>
<polygon fill="white" stroke="transparent" points="-4,4 -4,-259 689.66,-259 689.66,4 -4,4"/>
<!-- Node1 -->
<g id="node1" class="node">
<title>Node1</title>
<g id="a_node1"><a xlink:title="Definition of the Negative value checked types.">
<polygon fill="#bfbfbf" stroke="black" points="402.16,-224.5 402.16,-254.5 530.16,-254.5 530.16,-224.5 402.16,-224.5"/>
<text text-anchor="start" x="410.16" y="-242.5" font-family="Helvetica,sans-Serif" font-size="10.00">Library/include/playrho</text>
<text text-anchor="middle" x="466.16" y="-231.5" font-family="Helvetica,sans-Serif" font-size="10.00">/Negative.hpp</text>
</a>
</g>
</g>
<!-- Node2 -->
<g id="node2" class="node">
<title>Node2</title>
<g id="a_node2"><a xlink:title=" ">
<polygon fill="white" stroke="#bfbfbf" points="374.66,-0.5 374.66,-19.5 443.66,-19.5 443.66,-0.5 374.66,-0.5"/>
<text text-anchor="middle" x="409.16" y="-7.5" font-family="Helvetica,sans-Serif" font-size="10.00">type_traits</text>
</a>
</g>
</g>
<!-- Node1&#45;&gt;Node2 -->
<g id="edge1" class="edge">
<title>Node1&#45;&gt;Node2</title>
<path fill="none" stroke="midnightblue" d="M465.64,-224.31C464.09,-192.99 458.17,-115.99 436.16,-56 432.6,-46.29 426.88,-36.34 421.63,-28.27"/>
<polygon fill="midnightblue" stroke="midnightblue" points="424.36,-26.07 415.82,-19.79 418.58,-30.02 424.36,-26.07"/>
</g>
<!-- Node3 -->
<g id="node3" class="node">
<title>Node3</title>
<g id="a_node3"><a xlink:href="Checked_8hpp.html" target="_top" xlink:title="Declarations of the Checked class template and closely related code.">
<polygon fill="white" stroke="black" points="181.66,-168.5 181.66,-187.5 330.66,-187.5 330.66,-168.5 181.66,-168.5"/>
<text text-anchor="middle" x="256.16" y="-175.5" font-family="Helvetica,sans-Serif" font-size="10.00">playrho/detail/Checked.hpp</text>
</a>
</g>
</g>
<!-- Node1&#45;&gt;Node3 -->
<g id="edge2" class="edge">
<title>Node1&#45;&gt;Node3</title>
<path fill="none" stroke="midnightblue" d="M416.66,-224.47C379.8,-214.03 330.13,-199.96 295.86,-190.25"/>
<polygon fill="midnightblue" stroke="midnightblue" points="296.76,-186.87 286.18,-187.51 294.85,-193.6 296.76,-186.87"/>
</g>
<!-- Node13 -->
<g id="node13" class="node">
<title>Node13</title>
<g id="a_node13"><a xlink:href="NegativeChecker_8hpp.html" target="_top" xlink:title="Definition of the NegativeChecker class template.">
<polygon fill="white" stroke="black" points="494.66,-168.5 494.66,-187.5 685.66,-187.5 685.66,-168.5 494.66,-168.5"/>
<text text-anchor="middle" x="590.16" y="-175.5" font-family="Helvetica,sans-Serif" font-size="10.00">playrho/detail/NegativeChecker.hpp</text>
</a>
</g>
</g>
<!-- Node1&#45;&gt;Node13 -->
<g id="edge16" class="edge">
<title>Node1&#45;&gt;Node13</title>
<path fill="none" stroke="midnightblue" d="M495.55,-224.4C515.98,-214.59 543.02,-201.62 562.96,-192.05"/>
<polygon fill="midnightblue" stroke="midnightblue" points="564.62,-195.14 572.12,-187.66 561.59,-188.83 564.62,-195.14"/>
</g>
<!-- Node3&#45;&gt;Node2 -->
<g id="edge4" class="edge">
<title>Node3&#45;&gt;Node2</title>
<path fill="none" stroke="midnightblue" d="M308.32,-168.49C347.67,-160.88 396.89,-148.4 409.16,-132 431.63,-101.98 422.76,-54.99 415.34,-29.3"/>
<polygon fill="midnightblue" stroke="midnightblue" points="418.66,-28.2 412.34,-19.7 411.98,-30.29 418.66,-28.2"/>
</g>
<!-- Node4 -->
<g id="node4" class="node">
<title>Node4</title>
<g id="a_node4"><a xlink:title=" ">
<polygon fill="white" stroke="#bfbfbf" points="18.16,-112.5 18.16,-131.5 78.16,-131.5 78.16,-112.5 18.16,-112.5"/>
<text text-anchor="middle" x="48.16" y="-119.5" font-family="Helvetica,sans-Serif" font-size="10.00">iostream</text>
</a>
</g>
</g>
<!-- Node3&#45;&gt;Node4 -->
<g id="edge3" class="edge">
<title>Node3&#45;&gt;Node4</title>
<path fill="none" stroke="midnightblue" d="M223.2,-168.44C186.53,-158.92 127.29,-143.54 88.03,-133.35"/>
<polygon fill="midnightblue" stroke="midnightblue" points="88.82,-129.94 78.26,-130.82 87.06,-136.72 88.82,-129.94"/>
</g>
<!-- Node5 -->
<g id="node5" class="node">
<title>Node5</title>
<g id="a_node5"><a xlink:title=" ">
<polygon fill="white" stroke="#bfbfbf" points="43.66,-0.5 43.66,-19.5 88.66,-19.5 88.66,-0.5 43.66,-0.5"/>
<text text-anchor="middle" x="66.16" y="-7.5" font-family="Helvetica,sans-Serif" font-size="10.00">utility</text>
</a>
</g>
</g>
<!-- Node3&#45;&gt;Node5 -->
<g id="edge5" class="edge">
<title>Node3&#45;&gt;Node5</title>
<path fill="none" stroke="midnightblue" d="M181.58,-173.65C117.06,-169 30.84,-157.98 9.16,-132 -18.09,-99.34 22.84,-51.47 48.33,-26.87"/>
<polygon fill="midnightblue" stroke="midnightblue" points="51.04,-29.14 55.96,-19.76 46.26,-24.02 51.04,-29.14"/>
</g>
<!-- Node6 -->
<g id="node6" class="node">
<title>Node6</title>
<g id="a_node6"><a xlink:href="InvalidArgument_8hpp.html" target="_top" xlink:title="Definition of the InvalidArgument class.">
<polygon fill="white" stroke="black" points="96.16,-112.5 96.16,-131.5 254.16,-131.5 254.16,-112.5 96.16,-112.5"/>
<text text-anchor="middle" x="175.16" y="-119.5" font-family="Helvetica,sans-Serif" font-size="10.00">playrho/InvalidArgument.hpp</text>
</a>
</g>
</g>
<!-- Node3&#45;&gt;Node6 -->
<g id="edge6" class="edge">
<title>Node3&#45;&gt;Node6</title>
<path fill="none" stroke="midnightblue" d="M243.15,-168.32C230.63,-159.98 211.48,-147.21 196.69,-137.35"/>
<polygon fill="midnightblue" stroke="midnightblue" points="198.41,-134.29 188.14,-131.65 194.52,-140.11 198.41,-134.29"/>
</g>
<!-- Node8 -->
<g id="node8" class="node">
<title>Node8</title>
<g id="a_node8"><a xlink:href="Templates_8hpp.html" target="_top" xlink:title="Definitions of miscellaneous template related code.">
<polygon fill="white" stroke="black" points="272.16,-112.5 272.16,-131.5 400.16,-131.5 400.16,-112.5 272.16,-112.5"/>
<text text-anchor="middle" x="336.16" y="-119.5" font-family="Helvetica,sans-Serif" font-size="10.00">playrho/Templates.hpp</text>
</a>
</g>
</g>
<!-- Node3&#45;&gt;Node8 -->
<g id="edge8" class="edge">
<title>Node3&#45;&gt;Node8</title>
<path fill="none" stroke="midnightblue" d="M269.01,-168.32C281.38,-159.98 300.29,-147.21 314.9,-137.35"/>
<polygon fill="midnightblue" stroke="midnightblue" points="317.01,-140.15 323.34,-131.65 313.09,-134.35 317.01,-140.15"/>
</g>
<!-- Node7 -->
<g id="node7" class="node">
<title>Node7</title>
<g id="a_node7"><a xlink:title=" ">
<polygon fill="white" stroke="#bfbfbf" points="53.66,-56.5 53.66,-75.5 118.66,-75.5 118.66,-56.5 53.66,-56.5"/>
<text text-anchor="middle" x="86.16" y="-63.5" font-family="Helvetica,sans-Serif" font-size="10.00">stdexcept</text>
</a>
</g>
</g>
<!-- Node6&#45;&gt;Node7 -->
<g id="edge7" class="edge">
<title>Node6&#45;&gt;Node7</title>
<path fill="none" stroke="midnightblue" d="M160.86,-112.32C146.98,-103.9 125.67,-90.97 109.36,-81.07"/>
<polygon fill="midnightblue" stroke="midnightblue" points="110.79,-77.85 100.43,-75.65 107.16,-83.83 110.79,-77.85"/>
</g>
<!-- Node8&#45;&gt;Node2 -->
<g id="edge10" class="edge">
<title>Node8&#45;&gt;Node2</title>
<path fill="none" stroke="midnightblue" d="M343.49,-112.29C350.83,-103.41 362.28,-89.11 371.16,-76 381.67,-60.47 392.33,-41.94 399.68,-28.64"/>
<polygon fill="midnightblue" stroke="midnightblue" points="402.88,-30.09 404.59,-19.63 396.73,-26.74 402.88,-30.09"/>
</g>
<!-- Node9 -->
<g id="node9" class="node">
<title>Node9</title>
<g id="a_node9"><a xlink:title=" ">
<polygon fill="white" stroke="#bfbfbf" points="312.66,-56.5 312.66,-75.5 361.66,-75.5 361.66,-56.5 312.66,-56.5"/>
<text text-anchor="middle" x="337.16" y="-63.5" font-family="Helvetica,sans-Serif" font-size="10.00">cstdlib</text>
</a>
</g>
</g>
<!-- Node8&#45;&gt;Node9 -->
<g id="edge9" class="edge">
<title>Node8&#45;&gt;Node9</title>
<path fill="none" stroke="midnightblue" d="M336.33,-112.08C336.46,-105.01 336.65,-94.86 336.81,-85.99"/>
<polygon fill="midnightblue" stroke="midnightblue" points="340.31,-85.81 337,-75.75 333.31,-85.68 340.31,-85.81"/>
</g>
<!-- Node10 -->
<g id="node10" class="node">
<title>Node10</title>
<g id="a_node10"><a xlink:href="detail_2Templates_8hpp.html" target="_top" xlink:title="Low&#45;level declarations for general class &amp; function templates.">
<polygon fill="white" stroke="black" points="137.16,-56.5 137.16,-75.5 295.16,-75.5 295.16,-56.5 137.16,-56.5"/>
<text text-anchor="middle" x="216.16" y="-63.5" font-family="Helvetica,sans-Serif" font-size="10.00">playrho/detail/Templates.hpp</text>
</a>
</g>
</g>
<!-- Node8&#45;&gt;Node10 -->
<g id="edge11" class="edge">
<title>Node8&#45;&gt;Node10</title>
<path fill="none" stroke="midnightblue" d="M317.15,-112.44C297.57,-103.64 266.85,-89.81 244.43,-79.72"/>
<polygon fill="midnightblue" stroke="midnightblue" points="245.64,-76.43 235.09,-75.52 242.77,-82.81 245.64,-76.43"/>
</g>
<!-- Node10&#45;&gt;Node2 -->
<g id="edge14" class="edge">
<title>Node10&#45;&gt;Node2</title>
<path fill="none" stroke="midnightblue" d="M246.74,-56.44C279.78,-47.2 332.55,-32.44 368.93,-22.26"/>
<polygon fill="midnightblue" stroke="midnightblue" points="370.04,-25.58 378.72,-19.52 368.15,-18.84 370.04,-25.58"/>
</g>
<!-- Node10&#45;&gt;Node5 -->
<g id="edge15" class="edge">
<title>Node10&#45;&gt;Node5</title>
<path fill="none" stroke="midnightblue" d="M192.39,-56.44C166.97,-47.29 126.51,-32.73 98.27,-22.56"/>
<polygon fill="midnightblue" stroke="midnightblue" points="99.43,-19.26 88.84,-19.16 97.06,-25.84 99.43,-19.26"/>
</g>
<!-- Node11 -->
<g id="node11" class="node">
<title>Node11</title>
<g id="a_node11"><a xlink:title=" ">
<polygon fill="white" stroke="#bfbfbf" points="145.16,-0.5 145.16,-19.5 209.16,-19.5 209.16,-0.5 145.16,-0.5"/>
<text text-anchor="middle" x="177.16" y="-7.5" font-family="Helvetica,sans-Serif" font-size="10.00">algorithm</text>
</a>
</g>
</g>
<!-- Node10&#45;&gt;Node11 -->
<g id="edge12" class="edge">
<title>Node10&#45;&gt;Node11</title>
<path fill="none" stroke="midnightblue" d="M209.72,-56.08C204.21,-48.46 196.13,-37.26 189.4,-27.94"/>
<polygon fill="midnightblue" stroke="midnightblue" points="192.17,-25.81 183.48,-19.75 186.5,-29.91 192.17,-25.81"/>
</g>
<!-- Node12 -->
<g id="node12" class="node">
<title>Node12</title>
<g id="a_node12"><a xlink:title=" ">
<polygon fill="white" stroke="#bfbfbf" points="227.66,-0.5 227.66,-19.5 280.66,-19.5 280.66,-0.5 227.66,-0.5"/>
<text text-anchor="middle" x="254.16" y="-7.5" font-family="Helvetica,sans-Serif" font-size="10.00">iterator</text>
</a>
</g>
</g>
<!-- Node10&#45;&gt;Node12 -->
<g id="edge13" class="edge">
<title>Node10&#45;&gt;Node12</title>
<path fill="none" stroke="midnightblue" d="M222.44,-56.08C227.8,-48.46 235.68,-37.26 242.24,-27.94"/>
<polygon fill="midnightblue" stroke="midnightblue" points="245.11,-29.94 248,-19.75 239.39,-25.91 245.11,-29.94"/>
</g>
</g>
</svg>
        <g id="navigator" transform="translate(0 0)" fill="#404254">
                <rect fill="#f2f5e9" fill-opacity="0.5" stroke="#606060" stroke-width=".5" x="0" y="0" width="60" height="60"/>
                <use id="zoomplus" xlink:href="#zoomPlus" x="17" y="9" onmousedown="handleZoom(evt,'in')"/>
                <use id="zoomminus" xlink:href="#zoomMin" x="42" y="9" onmousedown="handleZoom(evt,'out')"/>
                <use id="reset" xlink:href="#resetDef" x="30" y="36" onmousedown="handleReset()"/>
                <g id="arrowUp" xlink:href="#dirArrow" transform="translate(30 24)" onmousedown="handlePan(0,-1)">
                  <use xlink:href="#rim" fill="#404040">
                        <set attributeName="fill" to="#808080" begin="arrowUp.mouseover" end="arrowUp.mouseout"/>
                  </use>
                  <path fill="none" stroke="white" stroke-width="1.5" d="M0,-3.0v7 M-2.5,-0.5L0,-3.0L2.5,-0.5"/>
                </g>
                <g id="arrowRight" xlink:href="#dirArrow" transform="rotate(90) translate(36 -43)" onmousedown="handlePan(1,0)">
                  <use xlink:href="#rim" fill="#404040">
                        <set attributeName="fill" to="#808080" begin="arrowRight.mouseover" end="arrowRight.mouseout"/>
                  </use>
                  <path fill="none" stroke="white" stroke-width="1.5" d="M0,-3.0v7 M-2.5,-0.5L0,-3.0L2.5,-0.5"/>
                </g>
                <g id="arrowDown" xlink:href="#dirArrow" transform="rotate(180) translate(-30 -48)" onmousedown="handlePan(0,1)">
                  <use xlink:href="#rim" fill="#404040">
                        <set attributeName="fill" to="#808080" begin="arrowDown.mouseover" end="arrowDown.mouseout"/>
                  </use>
                  <path fill="none" stroke="white" stroke-width="1.5" d="M0,-3.0v7 M-2.5,-0.5L0,-3.0L2.5,-0.5"/>
                </g>
                <g id="arrowLeft" xlink:href="#dirArrow" transform="rotate(270) translate(-36 17)" onmousedown="handlePan(-1,0)">
                  <use xlink:href="#rim" fill="#404040">
                        <set attributeName="fill" to="#808080" begin="arrowLeft.mouseover" end="arrowLeft.mouseout"/>
                  </use>
                  <path fill="none" stroke="white" stroke-width="1.5" d="M0,-3.0v7 M-2.5,-0.5L0,-3.0L2.5,-0.5"/>
                </g>
        </g>
        <svg viewBox="0 0 15 15" width="100%" height="30px" preserveAspectRatio="xMaxYMin meet">
         <g id="arrow_out" transform="scale(0.3 0.3)">
          <a xlink:href="Negative_8hpp__incl_org.svg" target="_base">
           <rect id="button" ry="5" rx="5" y="6" x="6" height="38" width="38"
                fill="#f2f5e9" fill-opacity="0.5" stroke="#606060" stroke-width="1.0"/>
           <path id="arrow"
             d="M 11.500037,31.436501 C 11.940474,20.09759 22.043105,11.32322 32.158766,21.979434 L 37.068811,17.246167 C 37.068811,17.246167 37.088388,32 37.088388,32 L 22.160133,31.978069 C 22.160133,31.978069 26.997745,27.140456 26.997745,27.140456 C 18.528582,18.264221 13.291696,25.230495 11.500037,31.436501 z"
             style="fill:#404040;"/>
          </a>
         </g>
        </svg>
</svg>
