<?xml version="1.0" encoding="UTF-8" standalone="no"?>
<!DOCTYPE svg PUBLIC "-//W3C//DTD SVG 1.1//EN"
 "http://www.w3.org/Graphics/SVG/1.1/DTD/svg11.dtd">
<!-- Generated by graphviz version 2.43.0 (0)
 -->
<!-- Title: Library/include/playrho/d2/PointStates.hpp Pages: 1 -->
<!--zoomable 442 -->
<svg id="main" version="1.1" xmlns="http://www.w3.org/2000/svg" xmlns:xlink="http://www.w3.org/1999/xlink" xml:space="preserve" onload="init(evt)">
<style type="text/css"><![CDATA[
.edge:hover path { stroke: red; }
.edge:hover polygon { stroke: red; fill: red; }
]]></style>
<script type="text/javascript"><![CDATA[
var edges = document.getElementsByTagName('g');
if (edges && edges.length) {
  for (var i=0;i<edges.length;i++) {
    if (edges[i].id.substr(0,4)=='edge') {
      edges[i].setAttribute('class','edge');
    }
  }
}
]]></script>
        <defs>
                <circle id="rim" cx="0" cy="0" r="7"/>
                <circle id="rim2" cx="0" cy="0" r="3.5"/>
                <g id="zoomPlus">
                        <use xlink:href="#rim" fill="#404040">
                                <set attributeName="fill" to="#808080" begin="zoomplus.mouseover" end="zoomplus.mouseout"/>
                        </use>
                        <path d="M-4,0h8M0,-4v8" fill="none" stroke="white" stroke-width="1.5" pointer-events="none"/>
                </g>
                <g id="zoomMin">
                        <use xlink:href="#rim" fill="#404040">
                                <set attributeName="fill" to="#808080" begin="zoomminus.mouseover" end="zoomminus.mouseout"/>
                        </use>
                        <path d="M-4,0h8" fill="none" stroke="white" stroke-width="1.5" pointer-events="none"/>
                </g>
                <g id="dirArrow">
                        <path fill="none" stroke="white" stroke-width="1.5" d="M0,-3.0v7 M-2.5,-0.5L0,-3.0L2.5,-0.5"/>
                </g>
               <g id="resetDef">
                       <use xlink:href="#rim2" fill="#404040">
                               <set attributeName="fill" to="#808080" begin="reset.mouseover" end="reset.mouseout"/>
                       </use>
               </g>
        </defs>

<script type="text/javascript">
var viewWidth = 784;
var viewHeight = 442;
var sectionId = 'dynsection-0';
</script>
<script xlink:href="svgpan.js"/>
<svg id="graph" class="graph">
<g id="viewport">
<title>Library/include/playrho/d2/PointStates.hpp</title>
<polygon fill="white" stroke="transparent" points="-4,4 -4,-438 780.06,-438 780.06,4 -4,4"/>
<!-- Node1 -->
<g id="node1" class="node">
<title>Node1</title>
<g id="a_node1"><a xlink:title="Structures and functions used for computing before and after like point oriented collision response s...">
<polygon fill="#bfbfbf" stroke="black" points="292.06,-403.5 292.06,-433.5 420.06,-433.5 420.06,-403.5 292.06,-403.5"/>
<text text-anchor="start" x="300.06" y="-421.5" font-family="Helvetica,sans-Serif" font-size="10.00">Library/include/playrho</text>
<text text-anchor="middle" x="356.06" y="-410.5" font-family="Helvetica,sans-Serif" font-size="10.00">/d2/PointStates.hpp</text>
</a>
</g>
</g>
<!-- Node2 -->
<g id="node2" class="node">
<title>Node2</title>
<g id="a_node2"><a xlink:href="Settings_8hpp.html" target="_top" xlink:title="Types and default settings file.">
<polygon fill="white" stroke="black" points="227.56,-347.5 227.56,-366.5 344.56,-366.5 344.56,-347.5 227.56,-347.5"/>
<text text-anchor="middle" x="286.06" y="-354.5" font-family="Helvetica,sans-Serif" font-size="10.00">playrho/Settings.hpp</text>
</a>
</g>
</g>
<!-- Node1&#45;&gt;Node2 -->
<g id="edge1" class="edge">
<title>Node1&#45;&gt;Node2</title>
<path fill="none" stroke="midnightblue" d="M339.47,-403.4C328.77,-394.31 314.87,-382.49 303.93,-373.19"/>
<polygon fill="midnightblue" stroke="midnightblue" points="306.13,-370.47 296.24,-366.66 301.59,-375.8 306.13,-370.47"/>
</g>
<!-- Node22 -->
<g id="node22" class="node">
<title>Node22</title>
<g id="a_node22"><a xlink:href="PointState_8hpp.html" target="_top" xlink:title="Definition of the PointState enumeration.">
<polygon fill="white" stroke="black" points="363.06,-347.5 363.06,-366.5 491.06,-366.5 491.06,-347.5 363.06,-347.5"/>
<text text-anchor="middle" x="427.06" y="-354.5" font-family="Helvetica,sans-Serif" font-size="10.00">playrho/PointState.hpp</text>
</a>
</g>
</g>
<!-- Node1&#45;&gt;Node22 -->
<g id="edge32" class="edge">
<title>Node1&#45;&gt;Node22</title>
<path fill="none" stroke="midnightblue" d="M372.88,-403.4C383.73,-394.31 397.83,-382.49 408.93,-373.19"/>
<polygon fill="midnightblue" stroke="midnightblue" points="411.31,-375.76 416.72,-366.66 406.81,-370.4 411.31,-375.76"/>
</g>
<!-- Node3 -->
<g id="node3" class="node">
<title>Node3</title>
<g id="a_node3"><a xlink:title=" ">
<polygon fill="white" stroke="#bfbfbf" points="528.06,-179.5 528.06,-198.5 578.06,-198.5 578.06,-179.5 528.06,-179.5"/>
<text text-anchor="middle" x="553.06" y="-186.5" font-family="Helvetica,sans-Serif" font-size="10.00">cstdint</text>
</a>
</g>
</g>
<!-- Node2&#45;&gt;Node3 -->
<g id="edge2" class="edge">
<title>Node2&#45;&gt;Node3</title>
<path fill="none" stroke="midnightblue" d="M323.54,-347.41C372.7,-334.53 459.36,-306.1 516.06,-255 530.34,-242.13 540.47,-222.4 546.49,-208.06"/>
<polygon fill="midnightblue" stroke="midnightblue" points="549.75,-209.32 550.13,-198.74 543.23,-206.77 549.75,-209.32"/>
</g>
<!-- Node4 -->
<g id="node4" class="node">
<title>Node4</title>
<g id="a_node4"><a xlink:title=" ">
<polygon fill="white" stroke="#bfbfbf" points="4.06,-118 4.06,-137 48.06,-137 48.06,-118 4.06,-118"/>
<text text-anchor="middle" x="26.06" y="-125" font-family="Helvetica,sans-Serif" font-size="10.00">limits</text>
</a>
</g>
</g>
<!-- Node2&#45;&gt;Node4 -->
<g id="edge3" class="edge">
<title>Node2&#45;&gt;Node4</title>
<path fill="none" stroke="midnightblue" d="M227.09,-356.33C176.2,-354.07 102.5,-344.49 48.06,-311 21.33,-294.56 15.15,-284.71 5.06,-255 -7.66,-217.56 7.38,-171.17 17.78,-146.28"/>
<polygon fill="midnightblue" stroke="midnightblue" points="21.03,-147.58 21.86,-137.02 14.63,-144.76 21.03,-147.58"/>
</g>
<!-- Node5 -->
<g id="node5" class="node">
<title>Node5</title>
<g id="a_node5"><a xlink:title=" ">
<polygon fill="white" stroke="#bfbfbf" points="443.56,-0.5 443.56,-19.5 512.56,-19.5 512.56,-0.5 443.56,-0.5"/>
<text text-anchor="middle" x="478.06" y="-7.5" font-family="Helvetica,sans-Serif" font-size="10.00">type_traits</text>
</a>
</g>
</g>
<!-- Node2&#45;&gt;Node5 -->
<g id="edge4" class="edge">
<title>Node2&#45;&gt;Node5</title>
<path fill="none" stroke="midnightblue" d="M344.65,-348.13C347.83,-347.74 350.98,-347.36 354.06,-347 510.69,-328.65 563.62,-376.54 707.06,-311 745.38,-293.49 776.06,-288.13 776.06,-246 776.06,-246 776.06,-246 776.06,-126.5 776.06,-72.84 605.92,-34.33 522.76,-18.71"/>
<polygon fill="midnightblue" stroke="midnightblue" points="523.29,-15.25 512.82,-16.87 522.02,-22.13 523.29,-15.25"/>
</g>
<!-- Node6 -->
<g id="node6" class="node">
<title>Node6</title>
<g id="a_node6"><a xlink:href="Real_8hpp.html" target="_top" xlink:title="Real number definition file.">
<polygon fill="white" stroke="black" points="46.56,-179.5 46.56,-198.5 145.56,-198.5 145.56,-179.5 46.56,-179.5"/>
<text text-anchor="middle" x="96.06" y="-186.5" font-family="Helvetica,sans-Serif" font-size="10.00">playrho/Real.hpp</text>
</a>
</g>
</g>
<!-- Node2&#45;&gt;Node6 -->
<g id="edge5" class="edge">
<title>Node2&#45;&gt;Node6</title>
<path fill="none" stroke="midnightblue" d="M227.5,-352.98C162.76,-346.14 61.28,-324.26 13.06,-255 -2.87,-232.13 29.52,-213.47 58.38,-202.1"/>
<polygon fill="midnightblue" stroke="midnightblue" points="59.81,-205.3 67.96,-198.53 57.37,-198.74 59.81,-205.3"/>
</g>
<!-- Node14 -->
<g id="node14" class="node">
<title>Node14</title>
<g id="a_node14"><a xlink:href="RealConstants_8hpp.html" target="_top" xlink:title="Definitions file for constant expressions of type Real.">
<polygon fill="white" stroke="black" points="22.06,-235.5 22.06,-254.5 170.06,-254.5 170.06,-235.5 22.06,-235.5"/>
<text text-anchor="middle" x="96.06" y="-242.5" font-family="Helvetica,sans-Serif" font-size="10.00">playrho/RealConstants.hpp</text>
</a>
</g>
</g>
<!-- Node2&#45;&gt;Node14 -->
<g id="edge16" class="edge">
<title>Node2&#45;&gt;Node14</title>
<path fill="none" stroke="midnightblue" d="M271.15,-347.37C238.26,-328.33 159.3,-282.62 119.63,-259.65"/>
<polygon fill="midnightblue" stroke="midnightblue" points="121.3,-256.57 110.9,-254.59 117.8,-262.63 121.3,-256.57"/>
</g>
<!-- Node15 -->
<g id="node15" class="node">
<title>Node15</title>
<g id="a_node15"><a xlink:href="Units_8hpp.html" target="_top" xlink:title="Declarations for physical units possibly backed by strong types.">
<polygon fill="white" stroke="black" points="234.56,-291.5 234.56,-310.5 337.56,-310.5 337.56,-291.5 234.56,-291.5"/>
<text text-anchor="middle" x="286.06" y="-298.5" font-family="Helvetica,sans-Serif" font-size="10.00">playrho/Units.hpp</text>
</a>
</g>
</g>
<!-- Node2&#45;&gt;Node15 -->
<g id="edge18" class="edge">
<title>Node2&#45;&gt;Node15</title>
<path fill="none" stroke="midnightblue" d="M286.06,-347.08C286.06,-340.01 286.06,-329.86 286.06,-320.99"/>
<polygon fill="midnightblue" stroke="midnightblue" points="289.56,-320.75 286.06,-310.75 282.56,-320.75 289.56,-320.75"/>
</g>
<!-- Node19 -->
<g id="node19" class="node">
<title>Node19</title>
<g id="a_node19"><a xlink:href="WiderType_8hpp.html" target="_top" xlink:title="Definition of the WiderType alias template.">
<polygon fill="white" stroke="black" points="570.06,-291.5 570.06,-310.5 698.06,-310.5 698.06,-291.5 570.06,-291.5"/>
<text text-anchor="middle" x="634.06" y="-298.5" font-family="Helvetica,sans-Serif" font-size="10.00">playrho/WiderType.hpp</text>
</a>
</g>
</g>
<!-- Node2&#45;&gt;Node19 -->
<g id="edge27" class="edge">
<title>Node2&#45;&gt;Node19</title>
<path fill="none" stroke="midnightblue" d="M341.2,-347.44C403.05,-337.85 503.29,-322.29 568.94,-312.1"/>
<polygon fill="midnightblue" stroke="midnightblue" points="569.83,-315.51 579.17,-310.52 568.75,-308.59 569.83,-315.51"/>
</g>
<!-- Node6&#45;&gt;Node4 -->
<g id="edge6" class="edge">
<title>Node6&#45;&gt;Node4</title>
<path fill="none" stroke="midnightblue" d="M86.03,-179.48C75.01,-170.11 57.1,-154.88 43.71,-143.51"/>
<polygon fill="midnightblue" stroke="midnightblue" points="45.95,-140.82 36.07,-137.01 41.42,-146.15 45.95,-140.82"/>
</g>
<!-- Node7 -->
<g id="node7" class="node">
<title>Node7</title>
<g id="a_node7"><a xlink:href="Templates_8hpp.html" target="_top" xlink:title="Definitions of miscellaneous template related code.">
<polygon fill="white" stroke="black" points="174.06,-118 174.06,-137 302.06,-137 302.06,-118 174.06,-118"/>
<text text-anchor="middle" x="238.06" y="-125" font-family="Helvetica,sans-Serif" font-size="10.00">playrho/Templates.hpp</text>
</a>
</g>
</g>
<!-- Node6&#45;&gt;Node7 -->
<g id="edge7" class="edge">
<title>Node6&#45;&gt;Node7</title>
<path fill="none" stroke="midnightblue" d="M116.4,-179.48C140.44,-169.4 180.65,-152.55 208.22,-141"/>
<polygon fill="midnightblue" stroke="midnightblue" points="209.88,-144.1 217.75,-137.01 207.17,-137.65 209.88,-144.1"/>
</g>
<!-- Node7&#45;&gt;Node5 -->
<g id="edge9" class="edge">
<title>Node7&#45;&gt;Node5</title>
<path fill="none" stroke="midnightblue" d="M252.78,-117.93C281.06,-101.54 342.09,-66.42 364.06,-56 390.35,-43.53 421.08,-31.54 444.01,-23.07"/>
<polygon fill="midnightblue" stroke="midnightblue" points="445.44,-26.28 453.64,-19.56 443.04,-19.7 445.44,-26.28"/>
</g>
<!-- Node8 -->
<g id="node8" class="node">
<title>Node8</title>
<g id="a_node8"><a xlink:title=" ">
<polygon fill="white" stroke="#bfbfbf" points="373.56,-56.5 373.56,-75.5 422.56,-75.5 422.56,-56.5 373.56,-56.5"/>
<text text-anchor="middle" x="398.06" y="-63.5" font-family="Helvetica,sans-Serif" font-size="10.00">cstdlib</text>
</a>
</g>
</g>
<!-- Node7&#45;&gt;Node8 -->
<g id="edge8" class="edge">
<title>Node7&#45;&gt;Node8</title>
<path fill="none" stroke="midnightblue" d="M260.98,-117.98C288.43,-107.77 334.57,-90.61 365.65,-79.05"/>
<polygon fill="midnightblue" stroke="midnightblue" points="367.02,-82.28 375.17,-75.51 364.58,-75.71 367.02,-82.28"/>
</g>
<!-- Node9 -->
<g id="node9" class="node">
<title>Node9</title>
<g id="a_node9"><a xlink:href="detail_2Templates_8hpp.html" target="_top" xlink:title="Low&#45;level declarations for general class &amp; function templates.">
<polygon fill="white" stroke="black" points="159.06,-56.5 159.06,-75.5 317.06,-75.5 317.06,-56.5 159.06,-56.5"/>
<text text-anchor="middle" x="238.06" y="-63.5" font-family="Helvetica,sans-Serif" font-size="10.00">playrho/detail/Templates.hpp</text>
</a>
</g>
</g>
<!-- Node7&#45;&gt;Node9 -->
<g id="edge10" class="edge">
<title>Node7&#45;&gt;Node9</title>
<path fill="none" stroke="midnightblue" d="M238.06,-117.98C238.06,-109.58 238.06,-96.48 238.06,-85.66"/>
<polygon fill="midnightblue" stroke="midnightblue" points="241.56,-85.51 238.06,-75.51 234.56,-85.51 241.56,-85.51"/>
</g>
<!-- Node9&#45;&gt;Node5 -->
<g id="edge14" class="edge">
<title>Node9&#45;&gt;Node5</title>
<path fill="none" stroke="midnightblue" d="M276.08,-56.44C318.85,-46.82 388.21,-31.21 433.48,-21.03"/>
<polygon fill="midnightblue" stroke="midnightblue" points="434.33,-24.42 443.32,-18.82 432.8,-17.6 434.33,-24.42"/>
</g>
<!-- Node10 -->
<g id="node10" class="node">
<title>Node10</title>
<g id="a_node10"><a xlink:title=" ">
<polygon fill="white" stroke="#bfbfbf" points="85.06,-0.5 85.06,-19.5 149.06,-19.5 149.06,-0.5 85.06,-0.5"/>
<text text-anchor="middle" x="117.06" y="-7.5" font-family="Helvetica,sans-Serif" font-size="10.00">algorithm</text>
</a>
</g>
</g>
<!-- Node9&#45;&gt;Node10 -->
<g id="edge11" class="edge">
<title>Node9&#45;&gt;Node10</title>
<path fill="none" stroke="midnightblue" d="M218.88,-56.44C199.15,-47.64 168.17,-33.81 145.56,-23.72"/>
<polygon fill="midnightblue" stroke="midnightblue" points="146.7,-20.4 136.14,-19.52 143.84,-26.79 146.7,-20.4"/>
</g>
<!-- Node11 -->
<g id="node11" class="node">
<title>Node11</title>
<g id="a_node11"><a xlink:title=" ">
<polygon fill="white" stroke="#bfbfbf" points="167.56,-0.5 167.56,-19.5 232.56,-19.5 232.56,-0.5 167.56,-0.5"/>
<text text-anchor="middle" x="200.06" y="-7.5" font-family="Helvetica,sans-Serif" font-size="10.00">functional</text>
</a>
</g>
</g>
<!-- Node9&#45;&gt;Node11 -->
<g id="edge12" class="edge">
<title>Node9&#45;&gt;Node11</title>
<path fill="none" stroke="midnightblue" d="M231.78,-56.08C226.41,-48.46 218.54,-37.26 211.98,-27.94"/>
<polygon fill="midnightblue" stroke="midnightblue" points="214.83,-25.91 206.21,-19.75 209.11,-29.94 214.83,-25.91"/>
</g>
<!-- Node12 -->
<g id="node12" class="node">
<title>Node12</title>
<g id="a_node12"><a xlink:title=" ">
<polygon fill="white" stroke="#bfbfbf" points="250.56,-0.5 250.56,-19.5 303.56,-19.5 303.56,-0.5 250.56,-0.5"/>
<text text-anchor="middle" x="277.06" y="-7.5" font-family="Helvetica,sans-Serif" font-size="10.00">iterator</text>
</a>
</g>
</g>
<!-- Node9&#45;&gt;Node12 -->
<g id="edge13" class="edge">
<title>Node9&#45;&gt;Node12</title>
<path fill="none" stroke="midnightblue" d="M244.5,-56.08C250,-48.46 258.09,-37.26 264.82,-27.94"/>
<polygon fill="midnightblue" stroke="midnightblue" points="267.72,-29.91 270.74,-19.75 262.04,-25.81 267.72,-29.91"/>
</g>
<!-- Node13 -->
<g id="node13" class="node">
<title>Node13</title>
<g id="a_node13"><a xlink:title=" ">
<polygon fill="white" stroke="#bfbfbf" points="321.56,-0.5 321.56,-19.5 366.56,-19.5 366.56,-0.5 321.56,-0.5"/>
<text text-anchor="middle" x="344.06" y="-7.5" font-family="Helvetica,sans-Serif" font-size="10.00">utility</text>
</a>
</g>
</g>
<!-- Node9&#45;&gt;Node13 -->
<g id="edge15" class="edge">
<title>Node9&#45;&gt;Node13</title>
<path fill="none" stroke="midnightblue" d="M255.09,-56.32C272.09,-47.66 298.43,-34.24 318.05,-24.25"/>
<polygon fill="midnightblue" stroke="midnightblue" points="319.75,-27.31 327.07,-19.65 316.57,-21.08 319.75,-27.31"/>
</g>
<!-- Node14&#45;&gt;Node6 -->
<g id="edge17" class="edge">
<title>Node14&#45;&gt;Node6</title>
<path fill="none" stroke="midnightblue" d="M96.06,-235.08C96.06,-228.01 96.06,-217.86 96.06,-208.99"/>
<polygon fill="midnightblue" stroke="midnightblue" points="99.56,-208.75 96.06,-198.75 92.56,-208.75 99.56,-208.75"/>
</g>
<!-- Node15&#45;&gt;Node5 -->
<g id="edge20" class="edge">
<title>Node15&#45;&gt;Node5</title>
<path fill="none" stroke="midnightblue" d="M337.84,-295.31C389.72,-289.42 464.33,-277.26 482.06,-255 535.7,-187.64 501.64,-73.44 485.33,-29.24"/>
<polygon fill="midnightblue" stroke="midnightblue" points="488.56,-27.88 481.72,-19.79 482.02,-30.38 488.56,-27.88"/>
</g>
<!-- Node15&#45;&gt;Node6 -->
<g id="edge21" class="edge">
<title>Node15&#45;&gt;Node6</title>
<path fill="none" stroke="midnightblue" d="M272.33,-291.37C252.1,-278.7 212.98,-254.49 179.06,-235 159.93,-224.01 137.97,-212.14 121.45,-203.35"/>
<polygon fill="midnightblue" stroke="midnightblue" points="122.88,-200.15 112.41,-198.56 119.61,-206.34 122.88,-200.15"/>
</g>
<!-- Node15&#45;&gt;Node7 -->
<g id="edge23" class="edge">
<title>Node15&#45;&gt;Node7</title>
<path fill="none" stroke="midnightblue" d="M278.28,-291.41C271,-282.85 260.45,-268.98 255.06,-255 241.01,-218.61 238.24,-172.45 237.88,-147.16"/>
<polygon fill="midnightblue" stroke="midnightblue" points="241.38,-147.12 237.86,-137.12 234.38,-147.13 241.38,-147.12"/>
</g>
<!-- Node15&#45;&gt;Node14 -->
<g id="edge22" class="edge">
<title>Node15&#45;&gt;Node14</title>
<path fill="none" stroke="midnightblue" d="M255.95,-291.44C223.43,-282.2 171.48,-267.44 135.66,-257.26"/>
<polygon fill="midnightblue" stroke="midnightblue" points="136.6,-253.88 126.02,-254.52 134.68,-260.62 136.6,-253.88"/>
</g>
<!-- Node16 -->
<g id="node16" class="node">
<title>Node16</title>
<g id="a_node16"><a xlink:title=" ">
<polygon fill="white" stroke="#bfbfbf" points="426.56,-235.5 426.56,-254.5 473.56,-254.5 473.56,-235.5 426.56,-235.5"/>
<text text-anchor="middle" x="450.06" y="-242.5" font-family="Helvetica,sans-Serif" font-size="10.00">cmath</text>
</a>
</g>
</g>
<!-- Node15&#45;&gt;Node16 -->
<g id="edge19" class="edge">
<title>Node15&#45;&gt;Node16</title>
<path fill="none" stroke="midnightblue" d="M312.04,-291.44C340.28,-282.15 385.5,-267.26 416.42,-257.07"/>
<polygon fill="midnightblue" stroke="midnightblue" points="417.92,-260.27 426.32,-253.82 415.73,-253.62 417.92,-260.27"/>
</g>
<!-- Node17 -->
<g id="node17" class="node">
<title>Node17</title>
<g id="a_node17"><a xlink:href="to__underlying_8hpp.html" target="_top" xlink:title="Definition of to_underlying function template.">
<polygon fill="white" stroke="black" points="264.06,-235.5 264.06,-254.5 408.06,-254.5 408.06,-235.5 264.06,-235.5"/>
<text text-anchor="middle" x="336.06" y="-242.5" font-family="Helvetica,sans-Serif" font-size="10.00">playrho/to_underlying.hpp</text>
</a>
</g>
</g>
<!-- Node15&#45;&gt;Node17 -->
<g id="edge24" class="edge">
<title>Node15&#45;&gt;Node17</title>
<path fill="none" stroke="midnightblue" d="M294.31,-291.08C301.52,-283.3 312.17,-271.8 320.9,-262.37"/>
<polygon fill="midnightblue" stroke="midnightblue" points="323.73,-264.47 327.95,-254.75 318.59,-259.71 323.73,-264.47"/>
</g>
<!-- Node18 -->
<g id="node18" class="node">
<title>Node18</title>
<g id="a_node18"><a xlink:href="underlying__type_8hpp.html" target="_top" xlink:title="Definition of underlying_type trait class and related code.">
<polygon fill="white" stroke="black" points="320.56,-112.5 320.56,-142.5 459.56,-142.5 459.56,-112.5 320.56,-112.5"/>
<text text-anchor="start" x="328.56" y="-130.5" font-family="Helvetica,sans-Serif" font-size="10.00">playrho/detail/underlying</text>
<text text-anchor="middle" x="390.06" y="-119.5" font-family="Helvetica,sans-Serif" font-size="10.00">_type.hpp</text>
</a>
</g>
</g>
<!-- Node17&#45;&gt;Node18 -->
<g id="edge25" class="edge">
<title>Node17&#45;&gt;Node18</title>
<path fill="none" stroke="midnightblue" d="M340.11,-235.32C348.34,-217.73 367.2,-177.39 379.24,-151.63"/>
<polygon fill="midnightblue" stroke="midnightblue" points="382.42,-153.09 383.49,-142.55 376.08,-150.12 382.42,-153.09"/>
</g>
<!-- Node18&#45;&gt;Node5 -->
<g id="edge26" class="edge">
<title>Node18&#45;&gt;Node5</title>
<path fill="none" stroke="midnightblue" d="M402.11,-112.09C410.4,-102.08 421.57,-88.37 431.06,-76 443.33,-59.99 456.76,-41.29 466.11,-28.07"/>
<polygon fill="midnightblue" stroke="midnightblue" points="469.23,-29.72 472.12,-19.52 463.5,-25.69 469.23,-29.72"/>
</g>
<!-- Node20 -->
<g id="node20" class="node">
<title>Node20</title>
<g id="a_node20"><a xlink:href="Wider_8hpp.html" target="_top" xlink:title="Definition of the Wider class template and specializations.">
<polygon fill="white" stroke="black" points="568.06,-235.5 568.06,-254.5 704.06,-254.5 704.06,-235.5 568.06,-235.5"/>
<text text-anchor="middle" x="636.06" y="-242.5" font-family="Helvetica,sans-Serif" font-size="10.00">playrho/detail/Wider.hpp</text>
</a>
</g>
</g>
<!-- Node19&#45;&gt;Node20 -->
<g id="edge28" class="edge">
<title>Node19&#45;&gt;Node20</title>
<path fill="none" stroke="midnightblue" d="M634.39,-291.08C634.65,-284.01 635.02,-273.86 635.35,-264.99"/>
<polygon fill="midnightblue" stroke="midnightblue" points="638.86,-264.87 635.73,-254.75 631.86,-264.61 638.86,-264.87"/>
</g>
<!-- Node20&#45;&gt;Node3 -->
<g id="edge29" class="edge">
<title>Node20&#45;&gt;Node3</title>
<path fill="none" stroke="midnightblue" d="M622.72,-235.32C609.89,-226.98 590.27,-214.21 575.12,-204.35"/>
<polygon fill="midnightblue" stroke="midnightblue" points="576.65,-201.17 566.36,-198.65 572.83,-207.04 576.65,-201.17"/>
</g>
<!-- Node20&#45;&gt;Node5 -->
<g id="edge30" class="edge">
<title>Node20&#45;&gt;Node5</title>
<path fill="none" stroke="midnightblue" d="M630.76,-235.18C614.32,-207.92 562.33,-122.89 514.06,-56 507.1,-46.37 498.85,-35.99 492.01,-27.63"/>
<polygon fill="midnightblue" stroke="midnightblue" points="494.57,-25.23 485.49,-19.76 489.18,-29.7 494.57,-25.23"/>
</g>
<!-- Node21 -->
<g id="node21" class="node">
<title>Node21</title>
<g id="a_node21"><a xlink:href="Defines_8hpp.html" target="_top" xlink:title="Miscellaneous C&#45;preprocessor definitions.">
<polygon fill="white" stroke="black" points="634.06,-179.5 634.06,-198.5 748.06,-198.5 748.06,-179.5 634.06,-179.5"/>
<text text-anchor="middle" x="691.06" y="-186.5" font-family="Helvetica,sans-Serif" font-size="10.00">playrho/Defines.hpp</text>
</a>
</g>
</g>
<!-- Node20&#45;&gt;Node21 -->
<g id="edge31" class="edge">
<title>Node20&#45;&gt;Node21</title>
<path fill="none" stroke="midnightblue" d="M645.14,-235.08C653.23,-227.14 665.25,-215.34 674.97,-205.8"/>
<polygon fill="midnightblue" stroke="midnightblue" points="677.46,-208.25 682.14,-198.75 672.55,-203.26 677.46,-208.25"/>
</g>
</g>
</svg>
        <g id="navigator" transform="translate(0 0)" fill="#404254">
                <rect fill="#f2f5e9" fill-opacity="0.5" stroke="#606060" stroke-width=".5" x="0" y="0" width="60" height="60"/>
                <use id="zoomplus" xlink:href="#zoomPlus" x="17" y="9" onmousedown="handleZoom(evt,'in')"/>
                <use id="zoomminus" xlink:href="#zoomMin" x="42" y="9" onmousedown="handleZoom(evt,'out')"/>
                <use id="reset" xlink:href="#resetDef" x="30" y="36" onmousedown="handleReset()"/>
                <g id="arrowUp" xlink:href="#dirArrow" transform="translate(30 24)" onmousedown="handlePan(0,-1)">
                  <use xlink:href="#rim" fill="#404040">
                        <set attributeName="fill" to="#808080" begin="arrowUp.mouseover" end="arrowUp.mouseout"/>
                  </use>
                  <path fill="none" stroke="white" stroke-width="1.5" d="M0,-3.0v7 M-2.5,-0.5L0,-3.0L2.5,-0.5"/>
                </g>
                <g id="arrowRight" xlink:href="#dirArrow" transform="rotate(90) translate(36 -43)" onmousedown="handlePan(1,0)">
                  <use xlink:href="#rim" fill="#404040">
                        <set attributeName="fill" to="#808080" begin="arrowRight.mouseover" end="arrowRight.mouseout"/>
                  </use>
                  <path fill="none" stroke="white" stroke-width="1.5" d="M0,-3.0v7 M-2.5,-0.5L0,-3.0L2.5,-0.5"/>
                </g>
                <g id="arrowDown" xlink:href="#dirArrow" transform="rotate(180) translate(-30 -48)" onmousedown="handlePan(0,1)">
                  <use xlink:href="#rim" fill="#404040">
                        <set attributeName="fill" to="#808080" begin="arrowDown.mouseover" end="arrowDown.mouseout"/>
                  </use>
                  <path fill="none" stroke="white" stroke-width="1.5" d="M0,-3.0v7 M-2.5,-0.5L0,-3.0L2.5,-0.5"/>
                </g>
                <g id="arrowLeft" xlink:href="#dirArrow" transform="rotate(270) translate(-36 17)" onmousedown="handlePan(-1,0)">
                  <use xlink:href="#rim" fill="#404040">
                        <set attributeName="fill" to="#808080" begin="arrowLeft.mouseover" end="arrowLeft.mouseout"/>
                  </use>
                  <path fill="none" stroke="white" stroke-width="1.5" d="M0,-3.0v7 M-2.5,-0.5L0,-3.0L2.5,-0.5"/>
                </g>
        </g>
        <svg viewBox="0 0 15 15" width="100%" height="30px" preserveAspectRatio="xMaxYMin meet">
         <g id="arrow_out" transform="scale(0.3 0.3)">
          <a xlink:href="PointStates_8hpp__incl_org.svg" target="_base">
           <rect id="button" ry="5" rx="5" y="6" x="6" height="38" width="38"
                fill="#f2f5e9" fill-opacity="0.5" stroke="#606060" stroke-width="1.0"/>
           <path id="arrow"
             d="M 11.500037,31.436501 C 11.940474,20.09759 22.043105,11.32322 32.158766,21.979434 L 37.068811,17.246167 C 37.068811,17.246167 37.088388,32 37.088388,32 L 22.160133,31.978069 C 22.160133,31.978069 26.997745,27.140456 26.997745,27.140456 C 18.528582,18.264221 13.291696,25.230495 11.500037,31.436501 z"
             style="fill:#404040;"/>
          </a>
         </g>
        </svg>
</svg>
