<?xml version="1.0" encoding="UTF-8" standalone="no"?>
<!DOCTYPE svg PUBLIC "-//W3C//DTD SVG 1.1//EN"
 "http://www.w3.org/Graphics/SVG/1.1/DTD/svg11.dtd">
<!-- Generated by graphviz version 2.43.0 (0)
 -->
<!-- Title: Library/include/playrho/d2/Position.hpp Pages: 1 -->
<!--zoomable 498 -->
<svg id="main" version="1.1" xmlns="http://www.w3.org/2000/svg" xmlns:xlink="http://www.w3.org/1999/xlink" xml:space="preserve" onload="init(evt)">
<style type="text/css"><![CDATA[
.edge:hover path { stroke: red; }
.edge:hover polygon { stroke: red; fill: red; }
]]></style>
<script type="text/javascript"><![CDATA[
var edges = document.getElementsByTagName('g');
if (edges && edges.length) {
  for (var i=0;i<edges.length;i++) {
    if (edges[i].id.substr(0,4)=='edge') {
      edges[i].setAttribute('class','edge');
    }
  }
}
]]></script>
        <defs>
                <circle id="rim" cx="0" cy="0" r="7"/>
                <circle id="rim2" cx="0" cy="0" r="3.5"/>
                <g id="zoomPlus">
                        <use xlink:href="#rim" fill="#404040">
                                <set attributeName="fill" to="#808080" begin="zoomplus.mouseover" end="zoomplus.mouseout"/>
                        </use>
                        <path d="M-4,0h8M0,-4v8" fill="none" stroke="white" stroke-width="1.5" pointer-events="none"/>
                </g>
                <g id="zoomMin">
                        <use xlink:href="#rim" fill="#404040">
                                <set attributeName="fill" to="#808080" begin="zoomminus.mouseover" end="zoomminus.mouseout"/>
                        </use>
                        <path d="M-4,0h8" fill="none" stroke="white" stroke-width="1.5" pointer-events="none"/>
                </g>
                <g id="dirArrow">
                        <path fill="none" stroke="white" stroke-width="1.5" d="M0,-3.0v7 M-2.5,-0.5L0,-3.0L2.5,-0.5"/>
                </g>
               <g id="resetDef">
                       <use xlink:href="#rim2" fill="#404040">
                               <set attributeName="fill" to="#808080" begin="reset.mouseover" end="reset.mouseout"/>
                       </use>
               </g>
        </defs>

<script type="text/javascript">
var viewWidth = 1494;
var viewHeight = 498;
var sectionId = 'dynsection-0';
</script>
<script xlink:href="svgpan.js"/>
<svg id="graph" class="graph">
<g id="viewport">
<title>Library/include/playrho/d2/Position.hpp</title>
<polygon fill="white" stroke="transparent" points="-4,4 -4,-494 1490,-494 1490,4 -4,4"/>
<!-- Node1 -->
<g id="node1" class="node">
<title>Node1</title>
<g id="a_node1"><a xlink:title="Definition of the Position class and closely related code.">
<polygon fill="#bfbfbf" stroke="black" points="944,-459.5 944,-489.5 1072,-489.5 1072,-459.5 944,-459.5"/>
<text text-anchor="start" x="952" y="-477.5" font-family="Helvetica,sans-Serif" font-size="10.00">Library/include/playrho</text>
<text text-anchor="middle" x="1008" y="-466.5" font-family="Helvetica,sans-Serif" font-size="10.00">/d2/Position.hpp</text>
</a>
</g>
</g>
<!-- Node2 -->
<g id="node2" class="node">
<title>Node2</title>
<g id="a_node2"><a xlink:title=" ">
<polygon fill="white" stroke="#bfbfbf" points="697.5,-0.5 697.5,-19.5 766.5,-19.5 766.5,-0.5 697.5,-0.5"/>
<text text-anchor="middle" x="732" y="-7.5" font-family="Helvetica,sans-Serif" font-size="10.00">type_traits</text>
</a>
</g>
</g>
<!-- Node1&#45;&gt;Node2 -->
<g id="edge1" class="edge">
<title>Node1&#45;&gt;Node2</title>
<path fill="none" stroke="midnightblue" d="M1072.47,-471.32C1202.94,-465.16 1486,-442.09 1486,-358 1486,-358 1486,-358 1486,-132 1486,-21.38 1357.44,-77.82 1249,-56 1076.74,-21.34 866.89,-13.37 776.7,-11.54"/>
<polygon fill="midnightblue" stroke="midnightblue" points="776.62,-8.04 766.56,-11.35 776.49,-15.04 776.62,-8.04"/>
</g>
<!-- Node3 -->
<g id="node3" class="node">
<title>Node3</title>
<g id="a_node3"><a xlink:href="Real_8hpp.html" target="_top" xlink:title="Real number definition file.">
<polygon fill="white" stroke="black" points="984.5,-179.5 984.5,-198.5 1083.5,-198.5 1083.5,-179.5 984.5,-179.5"/>
<text text-anchor="middle" x="1034" y="-186.5" font-family="Helvetica,sans-Serif" font-size="10.00">playrho/Real.hpp</text>
</a>
</g>
</g>
<!-- Node1&#45;&gt;Node3 -->
<g id="edge2" class="edge">
<title>Node1&#45;&gt;Node3</title>
<path fill="none" stroke="midnightblue" d="M1070.12,-459.4C1117.86,-444.94 1180.63,-417.23 1211,-367 1255.18,-293.93 1127.27,-228.76 1065.41,-202.4"/>
<polygon fill="midnightblue" stroke="midnightblue" points="1066.66,-199.13 1056.09,-198.51 1063.97,-205.59 1066.66,-199.13"/>
</g>
<!-- Node5 -->
<g id="node5" class="node">
<title>Node5</title>
<g id="a_node5"><a xlink:href="Templates_8hpp.html" target="_top" xlink:title="Definitions of miscellaneous template related code.">
<polygon fill="white" stroke="black" points="467,-123.5 467,-142.5 595,-142.5 595,-123.5 467,-123.5"/>
<text text-anchor="middle" x="531" y="-130.5" font-family="Helvetica,sans-Serif" font-size="10.00">playrho/Templates.hpp</text>
</a>
</g>
</g>
<!-- Node1&#45;&gt;Node5 -->
<g id="edge12" class="edge">
<title>Node1&#45;&gt;Node5</title>
<path fill="none" stroke="midnightblue" d="M943.8,-472.91C721.77,-470.05 0,-453.39 0,-358 0,-358 0,-358 0,-244 0,-166.83 86.28,-198.27 161,-179 188.9,-171.8 357.12,-152.83 456.87,-141.96"/>
<polygon fill="midnightblue" stroke="midnightblue" points="457.34,-145.43 466.9,-140.87 456.58,-138.47 457.34,-145.43"/>
</g>
<!-- Node11 -->
<g id="node11" class="node">
<title>Node11</title>
<g id="a_node11"><a xlink:href="Units_8hpp.html" target="_top" xlink:title="Declarations for physical units possibly backed by strong types.">
<polygon fill="white" stroke="black" points="830.5,-291.5 830.5,-310.5 933.5,-310.5 933.5,-291.5 830.5,-291.5"/>
<text text-anchor="middle" x="882" y="-298.5" font-family="Helvetica,sans-Serif" font-size="10.00">playrho/Units.hpp</text>
</a>
</g>
</g>
<!-- Node1&#45;&gt;Node11 -->
<g id="edge13" class="edge">
<title>Node1&#45;&gt;Node11</title>
<path fill="none" stroke="midnightblue" d="M984.44,-459.36C970.76,-450.27 953.92,-437.48 942,-423 915.64,-391 897.07,-345.47 888.1,-320.38"/>
<polygon fill="midnightblue" stroke="midnightblue" points="891.33,-319 884.76,-310.69 884.71,-321.28 891.33,-319"/>
</g>
<!-- Node16 -->
<g id="node16" class="node">
<title>Node16</title>
<g id="a_node16"><a xlink:href="Vector2_8hpp.html" target="_top" xlink:title="Definition of the Vector2 alias template and closely related code.">
<polygon fill="white" stroke="black" points="951,-403.5 951,-422.5 1065,-422.5 1065,-403.5 951,-403.5"/>
<text text-anchor="middle" x="1008" y="-410.5" font-family="Helvetica,sans-Serif" font-size="10.00">playrho/Vector2.hpp</text>
</a>
</g>
</g>
<!-- Node1&#45;&gt;Node16 -->
<g id="edge23" class="edge">
<title>Node1&#45;&gt;Node16</title>
<path fill="none" stroke="midnightblue" d="M1008,-459.4C1008,-451.47 1008,-441.46 1008,-432.86"/>
<polygon fill="midnightblue" stroke="midnightblue" points="1011.5,-432.66 1008,-422.66 1004.5,-432.66 1011.5,-432.66"/>
</g>
<!-- Node4 -->
<g id="node4" class="node">
<title>Node4</title>
<g id="a_node4"><a xlink:title=" ">
<polygon fill="white" stroke="#bfbfbf" points="1074,-123.5 1074,-142.5 1118,-142.5 1118,-123.5 1074,-123.5"/>
<text text-anchor="middle" x="1096" y="-130.5" font-family="Helvetica,sans-Serif" font-size="10.00">limits</text>
</a>
</g>
</g>
<!-- Node3&#45;&gt;Node4 -->
<g id="edge3" class="edge">
<title>Node3&#45;&gt;Node4</title>
<path fill="none" stroke="midnightblue" d="M1043.96,-179.32C1053.13,-171.34 1066.94,-159.31 1078.03,-149.65"/>
<polygon fill="midnightblue" stroke="midnightblue" points="1080.62,-152.04 1085.86,-142.83 1076.02,-146.76 1080.62,-152.04"/>
</g>
<!-- Node3&#45;&gt;Node5 -->
<g id="edge4" class="edge">
<title>Node3&#45;&gt;Node5</title>
<path fill="none" stroke="midnightblue" d="M984.39,-182.67C895.64,-173.15 709.27,-153.14 605.23,-141.97"/>
<polygon fill="midnightblue" stroke="midnightblue" points="605.43,-138.47 595.12,-140.88 604.69,-145.43 605.43,-138.47"/>
</g>
<!-- Node5&#45;&gt;Node2 -->
<g id="edge6" class="edge">
<title>Node5&#45;&gt;Node2</title>
<path fill="none" stroke="midnightblue" d="M545.13,-123.49C579.36,-102.89 666.96,-50.15 708.92,-24.89"/>
<polygon fill="midnightblue" stroke="midnightblue" points="710.85,-27.82 717.61,-19.66 707.24,-21.82 710.85,-27.82"/>
</g>
<!-- Node6 -->
<g id="node6" class="node">
<title>Node6</title>
<g id="a_node6"><a xlink:title=" ">
<polygon fill="white" stroke="#bfbfbf" points="506.5,-62 506.5,-81 555.5,-81 555.5,-62 506.5,-62"/>
<text text-anchor="middle" x="531" y="-69" font-family="Helvetica,sans-Serif" font-size="10.00">cstdlib</text>
</a>
</g>
</g>
<!-- Node5&#45;&gt;Node6 -->
<g id="edge5" class="edge">
<title>Node5&#45;&gt;Node6</title>
<path fill="none" stroke="midnightblue" d="M531,-123.48C531,-115.08 531,-101.98 531,-91.16"/>
<polygon fill="midnightblue" stroke="midnightblue" points="534.5,-91.01 531,-81.01 527.5,-91.01 534.5,-91.01"/>
</g>
<!-- Node7 -->
<g id="node7" class="node">
<title>Node7</title>
<g id="a_node7"><a xlink:href="detail_2Templates_8hpp.html" target="_top" xlink:title="Low&#45;level declarations for general class &amp; function templates.">
<polygon fill="white" stroke="black" points="104,-62 104,-81 262,-81 262,-62 104,-62"/>
<text text-anchor="middle" x="183" y="-69" font-family="Helvetica,sans-Serif" font-size="10.00">playrho/detail/Templates.hpp</text>
</a>
</g>
</g>
<!-- Node5&#45;&gt;Node7 -->
<g id="edge7" class="edge">
<title>Node5&#45;&gt;Node7</title>
<path fill="none" stroke="midnightblue" d="M481.14,-123.48C418.22,-112.72 310.1,-94.23 242.8,-82.72"/>
<polygon fill="midnightblue" stroke="midnightblue" points="243.21,-79.24 232.77,-81.01 242.03,-86.14 243.21,-79.24"/>
</g>
<!-- Node7&#45;&gt;Node2 -->
<g id="edge10" class="edge">
<title>Node7&#45;&gt;Node2</title>
<path fill="none" stroke="midnightblue" d="M234.58,-61.93C248.04,-59.84 262.55,-57.71 276,-56 426.26,-36.89 605.26,-21.31 687.12,-14.58"/>
<polygon fill="midnightblue" stroke="midnightblue" points="687.63,-18.05 697.32,-13.75 687.06,-11.08 687.63,-18.05"/>
</g>
<!-- Node8 -->
<g id="node8" class="node">
<title>Node8</title>
<g id="a_node8"><a xlink:title=" ">
<polygon fill="white" stroke="#bfbfbf" points="7,-0.5 7,-19.5 71,-19.5 71,-0.5 7,-0.5"/>
<text text-anchor="middle" x="39" y="-7.5" font-family="Helvetica,sans-Serif" font-size="10.00">algorithm</text>
</a>
</g>
</g>
<!-- Node7&#45;&gt;Node8 -->
<g id="edge8" class="edge">
<title>Node7&#45;&gt;Node8</title>
<path fill="none" stroke="midnightblue" d="M162.37,-61.98C137.88,-51.86 96.85,-34.9 68.89,-23.35"/>
<polygon fill="midnightblue" stroke="midnightblue" points="70.17,-20.09 59.59,-19.51 67.5,-26.56 70.17,-20.09"/>
</g>
<!-- Node9 -->
<g id="node9" class="node">
<title>Node9</title>
<g id="a_node9"><a xlink:title=" ">
<polygon fill="white" stroke="#bfbfbf" points="89.5,-0.5 89.5,-19.5 142.5,-19.5 142.5,-0.5 89.5,-0.5"/>
<text text-anchor="middle" x="116" y="-7.5" font-family="Helvetica,sans-Serif" font-size="10.00">iterator</text>
</a>
</g>
</g>
<!-- Node7&#45;&gt;Node9 -->
<g id="edge9" class="edge">
<title>Node7&#45;&gt;Node9</title>
<path fill="none" stroke="midnightblue" d="M173.4,-61.98C162.95,-52.7 146.03,-37.67 133.26,-26.33"/>
<polygon fill="midnightblue" stroke="midnightblue" points="135.38,-23.53 125.58,-19.51 130.73,-28.77 135.38,-23.53"/>
</g>
<!-- Node10 -->
<g id="node10" class="node">
<title>Node10</title>
<g id="a_node10"><a xlink:title=" ">
<polygon fill="white" stroke="#bfbfbf" points="160.5,-0.5 160.5,-19.5 205.5,-19.5 205.5,-0.5 160.5,-0.5"/>
<text text-anchor="middle" x="183" y="-7.5" font-family="Helvetica,sans-Serif" font-size="10.00">utility</text>
</a>
</g>
</g>
<!-- Node7&#45;&gt;Node10 -->
<g id="edge11" class="edge">
<title>Node7&#45;&gt;Node10</title>
<path fill="none" stroke="midnightblue" d="M183,-61.98C183,-53.58 183,-40.48 183,-29.66"/>
<polygon fill="midnightblue" stroke="midnightblue" points="186.5,-29.51 183,-19.51 179.5,-29.51 186.5,-29.51"/>
</g>
<!-- Node11&#45;&gt;Node2 -->
<g id="edge15" class="edge">
<title>Node11&#45;&gt;Node2</title>
<path fill="none" stroke="midnightblue" d="M830.11,-294.19C782.42,-287.65 716.81,-275.22 701,-255 692.42,-244.03 629.28,-309.46 704,-56 706.99,-45.87 712.93,-35.77 718.57,-27.72"/>
<polygon fill="midnightblue" stroke="midnightblue" points="721.45,-29.71 724.64,-19.6 715.85,-25.52 721.45,-29.71"/>
</g>
<!-- Node11&#45;&gt;Node3 -->
<g id="edge16" class="edge">
<title>Node11&#45;&gt;Node3</title>
<path fill="none" stroke="midnightblue" d="M882.11,-291.17C882.76,-277.36 886.03,-250.61 901,-235 920.21,-214.96 948.65,-203.85 974.31,-197.68"/>
<polygon fill="midnightblue" stroke="midnightblue" points="975.33,-201.04 984.35,-195.48 973.83,-194.2 975.33,-201.04"/>
</g>
<!-- Node11&#45;&gt;Node5 -->
<g id="edge19" class="edge">
<title>Node11&#45;&gt;Node5</title>
<path fill="none" stroke="midnightblue" d="M830.4,-299.51C756.8,-297.6 627.3,-289.31 598,-255 574.62,-227.63 645.25,-209.42 626,-179 615.95,-163.13 598.63,-152.74 581.5,-146"/>
<polygon fill="midnightblue" stroke="midnightblue" points="582.65,-142.69 572.05,-142.62 580.29,-149.28 582.65,-142.69"/>
</g>
<!-- Node12 -->
<g id="node12" class="node">
<title>Node12</title>
<g id="a_node12"><a xlink:title=" ">
<polygon fill="white" stroke="#bfbfbf" points="606.5,-235.5 606.5,-254.5 653.5,-254.5 653.5,-235.5 606.5,-235.5"/>
<text text-anchor="middle" x="630" y="-242.5" font-family="Helvetica,sans-Serif" font-size="10.00">cmath</text>
</a>
</g>
</g>
<!-- Node11&#45;&gt;Node12 -->
<g id="edge14" class="edge">
<title>Node11&#45;&gt;Node12</title>
<path fill="none" stroke="midnightblue" d="M839.7,-291.43C796.48,-282.61 727.47,-268.29 668,-255 666.55,-254.68 665.08,-254.34 663.58,-254"/>
<polygon fill="midnightblue" stroke="midnightblue" points="664.23,-250.56 653.7,-251.71 662.65,-257.38 664.23,-250.56"/>
</g>
<!-- Node13 -->
<g id="node13" class="node">
<title>Node13</title>
<g id="a_node13"><a xlink:href="RealConstants_8hpp.html" target="_top" xlink:title="Definitions file for constant expressions of type Real.">
<polygon fill="white" stroke="black" points="910,-235.5 910,-254.5 1058,-254.5 1058,-235.5 910,-235.5"/>
<text text-anchor="middle" x="984" y="-242.5" font-family="Helvetica,sans-Serif" font-size="10.00">playrho/RealConstants.hpp</text>
</a>
</g>
</g>
<!-- Node11&#45;&gt;Node13 -->
<g id="edge17" class="edge">
<title>Node11&#45;&gt;Node13</title>
<path fill="none" stroke="midnightblue" d="M898.39,-291.32C914.67,-282.7 939.87,-269.36 958.72,-259.39"/>
<polygon fill="midnightblue" stroke="midnightblue" points="960.45,-262.43 967.65,-254.65 957.18,-256.24 960.45,-262.43"/>
</g>
<!-- Node14 -->
<g id="node14" class="node">
<title>Node14</title>
<g id="a_node14"><a xlink:href="to__underlying_8hpp.html" target="_top" xlink:title="Definition of to_underlying function template.">
<polygon fill="white" stroke="black" points="710,-235.5 710,-254.5 854,-254.5 854,-235.5 710,-235.5"/>
<text text-anchor="middle" x="782" y="-242.5" font-family="Helvetica,sans-Serif" font-size="10.00">playrho/to_underlying.hpp</text>
</a>
</g>
</g>
<!-- Node11&#45;&gt;Node14 -->
<g id="edge20" class="edge">
<title>Node11&#45;&gt;Node14</title>
<path fill="none" stroke="midnightblue" d="M865.93,-291.32C850.04,-282.74 825.49,-269.49 807.04,-259.52"/>
<polygon fill="midnightblue" stroke="midnightblue" points="808.49,-256.33 798.03,-254.65 805.16,-262.49 808.49,-256.33"/>
</g>
<!-- Node13&#45;&gt;Node3 -->
<g id="edge18" class="edge">
<title>Node13&#45;&gt;Node3</title>
<path fill="none" stroke="midnightblue" d="M992.26,-235.08C999.46,-227.3 1010.11,-215.8 1018.85,-206.37"/>
<polygon fill="midnightblue" stroke="midnightblue" points="1021.67,-208.47 1025.9,-198.75 1016.53,-203.71 1021.67,-208.47"/>
</g>
<!-- Node15 -->
<g id="node15" class="node">
<title>Node15</title>
<g id="a_node15"><a xlink:href="underlying__type_8hpp.html" target="_top" xlink:title="Definition of underlying_type trait class and related code.">
<polygon fill="white" stroke="black" points="712.5,-56.5 712.5,-86.5 851.5,-86.5 851.5,-56.5 712.5,-56.5"/>
<text text-anchor="start" x="720.5" y="-74.5" font-family="Helvetica,sans-Serif" font-size="10.00">playrho/detail/underlying</text>
<text text-anchor="middle" x="782" y="-63.5" font-family="Helvetica,sans-Serif" font-size="10.00">_type.hpp</text>
</a>
</g>
</g>
<!-- Node14&#45;&gt;Node15 -->
<g id="edge21" class="edge">
<title>Node14&#45;&gt;Node15</title>
<path fill="none" stroke="midnightblue" d="M782,-235.26C782,-209.97 782,-136.08 782,-97.15"/>
<polygon fill="midnightblue" stroke="midnightblue" points="785.5,-96.72 782,-86.72 778.5,-96.72 785.5,-96.72"/>
</g>
<!-- Node15&#45;&gt;Node2 -->
<g id="edge22" class="edge">
<title>Node15&#45;&gt;Node2</title>
<path fill="none" stroke="midnightblue" d="M770.15,-56.4C762.89,-47.75 753.55,-36.64 745.93,-27.58"/>
<polygon fill="midnightblue" stroke="midnightblue" points="748.39,-25.06 739.28,-19.66 743.03,-29.57 748.39,-25.06"/>
</g>
<!-- Node16&#45;&gt;Node3 -->
<g id="edge24" class="edge">
<title>Node16&#45;&gt;Node3</title>
<path fill="none" stroke="midnightblue" d="M1012.47,-403.46C1024.3,-380.35 1056.22,-314.3 1067,-255 1068.59,-246.25 1069.77,-243.45 1067,-235 1063.51,-224.34 1056.43,-214.12 1049.71,-206.12"/>
<polygon fill="midnightblue" stroke="midnightblue" points="1052.3,-203.76 1043.02,-198.66 1047.1,-208.44 1052.3,-203.76"/>
</g>
<!-- Node16&#45;&gt;Node11 -->
<g id="edge37" class="edge">
<title>Node16&#45;&gt;Node11</title>
<path fill="none" stroke="midnightblue" d="M998.11,-403.37C976.86,-384.81 926.57,-340.91 899.68,-317.44"/>
<polygon fill="midnightblue" stroke="midnightblue" points="901.68,-314.53 891.84,-310.59 897.07,-319.8 901.68,-314.53"/>
</g>
<!-- Node17 -->
<g id="node17" class="node">
<title>Node17</title>
<g id="a_node17"><a xlink:href="Settings_8hpp.html" target="_top" xlink:title="Types and default settings file.">
<polygon fill="white" stroke="black" points="1084.5,-347.5 1084.5,-366.5 1201.5,-366.5 1201.5,-347.5 1084.5,-347.5"/>
<text text-anchor="middle" x="1143" y="-354.5" font-family="Helvetica,sans-Serif" font-size="10.00">playrho/Settings.hpp</text>
</a>
</g>
</g>
<!-- Node16&#45;&gt;Node17 -->
<g id="edge25" class="edge">
<title>Node16&#45;&gt;Node17</title>
<path fill="none" stroke="midnightblue" d="M1029.39,-403.44C1051.71,-394.52 1086.9,-380.44 1112.21,-370.32"/>
<polygon fill="midnightblue" stroke="midnightblue" points="1113.72,-373.48 1121.71,-366.52 1111.12,-366.98 1113.72,-373.48"/>
</g>
<!-- Node22 -->
<g id="node22" class="node">
<title>Node22</title>
<g id="a_node22"><a xlink:href="Vector_8hpp.html" target="_top" xlink:title="Definition of the Vector class template and closely related code.">
<polygon fill="white" stroke="black" points="225.5,-235.5 225.5,-254.5 332.5,-254.5 332.5,-235.5 225.5,-235.5"/>
<text text-anchor="middle" x="279" y="-242.5" font-family="Helvetica,sans-Serif" font-size="10.00">playrho/Vector.hpp</text>
</a>
</g>
</g>
<!-- Node16&#45;&gt;Node22 -->
<g id="edge38" class="edge">
<title>Node16&#45;&gt;Node22</title>
<path fill="none" stroke="midnightblue" d="M970.59,-403.48C848.56,-375.69 462.1,-287.69 326.55,-256.83"/>
<polygon fill="midnightblue" stroke="midnightblue" points="327,-253.34 316.47,-254.53 325.45,-260.17 327,-253.34"/>
</g>
<!-- Node17&#45;&gt;Node2 -->
<g id="edge28" class="edge">
<title>Node17&#45;&gt;Node2</title>
<path fill="none" stroke="midnightblue" d="M1147.11,-347.28C1151.06,-338.38 1156.74,-324.07 1159,-311 1160.51,-302.24 1159.78,-299.85 1159,-291 1155.85,-255.41 1131.11,-127.47 1127,-123 1079.24,-71.13 869.4,-32.54 776.51,-17.69"/>
<polygon fill="midnightblue" stroke="midnightblue" points="777,-14.22 766.57,-16.12 775.9,-21.13 777,-14.22"/>
</g>
<!-- Node17&#45;&gt;Node3 -->
<g id="edge29" class="edge">
<title>Node17&#45;&gt;Node3</title>
<path fill="none" stroke="midnightblue" d="M1141.79,-347.2C1138.48,-325.92 1127.64,-270.84 1100,-235 1089.91,-221.92 1074.93,-211.27 1061.78,-203.62"/>
<polygon fill="midnightblue" stroke="midnightblue" points="1063.09,-200.34 1052.64,-198.59 1059.71,-206.48 1063.09,-200.34"/>
</g>
<!-- Node17&#45;&gt;Node4 -->
<g id="edge27" class="edge">
<title>Node17&#45;&gt;Node4</title>
<path fill="none" stroke="midnightblue" d="M1144.29,-347.11C1145.88,-334.53 1148.03,-310.87 1145,-291 1137.1,-239.19 1115.34,-180.96 1103.65,-152.16"/>
<polygon fill="midnightblue" stroke="midnightblue" points="1106.77,-150.54 1099.72,-142.63 1100.3,-153.21 1106.77,-150.54"/>
</g>
<!-- Node17&#45;&gt;Node11 -->
<g id="edge31" class="edge">
<title>Node17&#45;&gt;Node11</title>
<path fill="none" stroke="midnightblue" d="M1101.64,-347.44C1055.92,-337.98 982.24,-322.74 932.98,-312.55"/>
<polygon fill="midnightblue" stroke="midnightblue" points="933.66,-309.12 923.16,-310.52 932.25,-315.97 933.66,-309.12"/>
</g>
<!-- Node17&#45;&gt;Node13 -->
<g id="edge30" class="edge">
<title>Node17&#45;&gt;Node13</title>
<path fill="none" stroke="midnightblue" d="M1130.52,-347.37C1103.36,-328.57 1038.59,-283.77 1005.01,-260.53"/>
<polygon fill="midnightblue" stroke="midnightblue" points="1006.63,-257.4 996.42,-254.59 1002.65,-263.16 1006.63,-257.4"/>
</g>
<!-- Node18 -->
<g id="node18" class="node">
<title>Node18</title>
<g id="a_node18"><a xlink:title=" ">
<polygon fill="white" stroke="#bfbfbf" points="1408,-179.5 1408,-198.5 1458,-198.5 1458,-179.5 1408,-179.5"/>
<text text-anchor="middle" x="1433" y="-186.5" font-family="Helvetica,sans-Serif" font-size="10.00">cstdint</text>
</a>
</g>
</g>
<!-- Node17&#45;&gt;Node18 -->
<g id="edge26" class="edge">
<title>Node17&#45;&gt;Node18</title>
<path fill="none" stroke="midnightblue" d="M1201.58,-353.33C1269.67,-349 1376.39,-338.01 1405,-311 1433.13,-284.44 1435.58,-235.66 1434.53,-208.86"/>
<polygon fill="midnightblue" stroke="midnightblue" points="1438.01,-208.32 1433.91,-198.55 1431.02,-208.75 1438.01,-208.32"/>
</g>
<!-- Node19 -->
<g id="node19" class="node">
<title>Node19</title>
<g id="a_node19"><a xlink:href="WiderType_8hpp.html" target="_top" xlink:title="Definition of the WiderType alias template.">
<polygon fill="white" stroke="black" points="1268,-291.5 1268,-310.5 1396,-310.5 1396,-291.5 1268,-291.5"/>
<text text-anchor="middle" x="1332" y="-298.5" font-family="Helvetica,sans-Serif" font-size="10.00">playrho/WiderType.hpp</text>
</a>
</g>
</g>
<!-- Node17&#45;&gt;Node19 -->
<g id="edge32" class="edge">
<title>Node17&#45;&gt;Node19</title>
<path fill="none" stroke="midnightblue" d="M1172.95,-347.44C1205.16,-338.24 1256.53,-323.56 1292.14,-313.39"/>
<polygon fill="midnightblue" stroke="midnightblue" points="1293.54,-316.63 1302.19,-310.52 1291.62,-309.9 1293.54,-316.63"/>
</g>
<!-- Node20 -->
<g id="node20" class="node">
<title>Node20</title>
<g id="a_node20"><a xlink:href="Wider_8hpp.html" target="_top" xlink:title="Definition of the Wider class template and specializations.">
<polygon fill="white" stroke="black" points="1266,-235.5 1266,-254.5 1402,-254.5 1402,-235.5 1266,-235.5"/>
<text text-anchor="middle" x="1334" y="-242.5" font-family="Helvetica,sans-Serif" font-size="10.00">playrho/detail/Wider.hpp</text>
</a>
</g>
</g>
<!-- Node19&#45;&gt;Node20 -->
<g id="edge33" class="edge">
<title>Node19&#45;&gt;Node20</title>
<path fill="none" stroke="midnightblue" d="M1332.33,-291.08C1332.59,-284.01 1332.97,-273.86 1333.3,-264.99"/>
<polygon fill="midnightblue" stroke="midnightblue" points="1336.8,-264.87 1333.68,-254.75 1329.81,-264.61 1336.8,-264.87"/>
</g>
<!-- Node20&#45;&gt;Node2 -->
<g id="edge35" class="edge">
<title>Node20&#45;&gt;Node2</title>
<path fill="none" stroke="midnightblue" d="M1314.56,-235.49C1299.51,-227.95 1279.23,-215.57 1267,-199 1227.59,-145.6 1275.4,-97.99 1224,-56 1189.78,-28.05 891.86,-15.94 776.95,-12.28"/>
<polygon fill="midnightblue" stroke="midnightblue" points="776.84,-8.77 766.73,-11.96 776.62,-15.77 776.84,-8.77"/>
</g>
<!-- Node20&#45;&gt;Node18 -->
<g id="edge34" class="edge">
<title>Node20&#45;&gt;Node18</title>
<path fill="none" stroke="midnightblue" d="M1349.91,-235.32C1365.64,-226.74 1389.94,-213.49 1408.21,-203.52"/>
<polygon fill="midnightblue" stroke="midnightblue" points="1410.03,-206.52 1417.13,-198.65 1406.68,-200.37 1410.03,-206.52"/>
</g>
<!-- Node21 -->
<g id="node21" class="node">
<title>Node21</title>
<g id="a_node21"><a xlink:href="Defines_8hpp.html" target="_top" xlink:title="Miscellaneous C&#45;preprocessor definitions.">
<polygon fill="white" stroke="black" points="1276,-179.5 1276,-198.5 1390,-198.5 1390,-179.5 1276,-179.5"/>
<text text-anchor="middle" x="1333" y="-186.5" font-family="Helvetica,sans-Serif" font-size="10.00">playrho/Defines.hpp</text>
</a>
</g>
</g>
<!-- Node20&#45;&gt;Node21 -->
<g id="edge36" class="edge">
<title>Node20&#45;&gt;Node21</title>
<path fill="none" stroke="midnightblue" d="M1333.83,-235.08C1333.7,-228.01 1333.52,-217.86 1333.35,-208.99"/>
<polygon fill="midnightblue" stroke="midnightblue" points="1336.85,-208.68 1333.16,-198.75 1329.85,-208.81 1336.85,-208.68"/>
</g>
<!-- Node22&#45;&gt;Node2 -->
<g id="edge45" class="edge">
<title>Node22&#45;&gt;Node2</title>
<path fill="none" stroke="midnightblue" d="M228.29,-235.41C187.55,-226.15 140.29,-208.61 161,-179 222.8,-90.66 563.23,-34.71 687,-17.05"/>
<polygon fill="midnightblue" stroke="midnightblue" points="687.84,-20.46 697.26,-15.6 686.86,-13.53 687.84,-20.46"/>
</g>
<!-- Node22&#45;&gt;Node3 -->
<g id="edge48" class="edge">
<title>Node22&#45;&gt;Node3</title>
<path fill="none" stroke="midnightblue" d="M332.69,-240.16C469.42,-230.38 830.03,-204.59 973.69,-194.31"/>
<polygon fill="midnightblue" stroke="midnightblue" points="974.34,-197.78 984.06,-193.57 973.84,-190.79 974.34,-197.78"/>
</g>
<!-- Node22&#45;&gt;Node5 -->
<g id="edge49" class="edge">
<title>Node22&#45;&gt;Node5</title>
<path fill="none" stroke="midnightblue" d="M238.7,-235.46C198.88,-225.25 147.1,-206.07 171,-179 175.7,-173.67 352.72,-153.49 456.74,-142.05"/>
<polygon fill="midnightblue" stroke="midnightblue" points="457.32,-145.5 466.88,-140.93 456.56,-138.54 457.32,-145.5"/>
</g>
<!-- Node22&#45;&gt;Node8 -->
<g id="edge39" class="edge">
<title>Node22&#45;&gt;Node8</title>
<path fill="none" stroke="midnightblue" d="M225.15,-237.96C174.53,-231.18 103.67,-218.51 84,-199 37.36,-152.74 35.73,-67.3 37.55,-29.65"/>
<polygon fill="midnightblue" stroke="midnightblue" points="41.05,-29.8 38.18,-19.6 34.07,-29.36 41.05,-29.8"/>
</g>
<!-- Node22&#45;&gt;Node9 -->
<g id="edge42" class="edge">
<title>Node22&#45;&gt;Node9</title>
<path fill="none" stroke="midnightblue" d="M225.18,-237.56C178.41,-230.76 115.75,-218.3 100,-199 59.79,-149.73 81.23,-118.08 95,-56 97.12,-46.43 101.51,-36.48 105.72,-28.37"/>
<polygon fill="midnightblue" stroke="midnightblue" points="108.82,-30 110.62,-19.56 102.7,-26.6 108.82,-30"/>
</g>
<!-- Node23 -->
<g id="node23" class="node">
<title>Node23</title>
<g id="a_node23"><a xlink:title=" ">
<polygon fill="white" stroke="#bfbfbf" points="493,-179.5 493,-198.5 545,-198.5 545,-179.5 493,-179.5"/>
<text text-anchor="middle" x="519" y="-186.5" font-family="Helvetica,sans-Serif" font-size="10.00">cassert</text>
</a>
</g>
</g>
<!-- Node22&#45;&gt;Node23 -->
<g id="edge40" class="edge">
<title>Node22&#45;&gt;Node23</title>
<path fill="none" stroke="midnightblue" d="M319.94,-235.46C359.28,-227.16 420.66,-213.94 482.69,-199.25"/>
<polygon fill="midnightblue" stroke="midnightblue" points="483.73,-202.6 492.65,-196.88 482.11,-195.79 483.73,-202.6"/>
</g>
<!-- Node24 -->
<g id="node24" class="node">
<title>Node24</title>
<g id="a_node24"><a xlink:title=" ">
<polygon fill="white" stroke="#bfbfbf" points="563.5,-179.5 563.5,-198.5 616.5,-198.5 616.5,-179.5 563.5,-179.5"/>
<text text-anchor="middle" x="590" y="-186.5" font-family="Helvetica,sans-Serif" font-size="10.00">cstddef</text>
</a>
</g>
</g>
<!-- Node22&#45;&gt;Node24 -->
<g id="edge41" class="edge">
<title>Node22&#45;&gt;Node24</title>
<path fill="none" stroke="midnightblue" d="M332.73,-236.55C386.22,-228.83 470.85,-215.81 553.51,-198.95"/>
<polygon fill="midnightblue" stroke="midnightblue" points="554.23,-202.38 563.32,-196.93 552.82,-195.52 554.23,-202.38"/>
</g>
<!-- Node25 -->
<g id="node25" class="node">
<title>Node25</title>
<g id="a_node25"><a xlink:title=" ">
<polygon fill="white" stroke="#bfbfbf" points="180,-179.5 180,-198.5 240,-198.5 240,-179.5 180,-179.5"/>
<text text-anchor="middle" x="210" y="-186.5" font-family="Helvetica,sans-Serif" font-size="10.00">iostream</text>
</a>
</g>
</g>
<!-- Node22&#45;&gt;Node25 -->
<g id="edge43" class="edge">
<title>Node22&#45;&gt;Node25</title>
<path fill="none" stroke="midnightblue" d="M267.91,-235.32C257.51,-227.18 241.74,-214.84 229.28,-205.09"/>
<polygon fill="midnightblue" stroke="midnightblue" points="231.32,-202.24 221.29,-198.83 227.01,-207.75 231.32,-202.24"/>
</g>
<!-- Node26 -->
<g id="node26" class="node">
<title>Node26</title>
<g id="a_node26"><a xlink:title=" ">
<polygon fill="white" stroke="#bfbfbf" points="258.5,-179.5 258.5,-198.5 299.5,-198.5 299.5,-179.5 258.5,-179.5"/>
<text text-anchor="middle" x="279" y="-186.5" font-family="Helvetica,sans-Serif" font-size="10.00">tuple</text>
</a>
</g>
</g>
<!-- Node22&#45;&gt;Node26 -->
<g id="edge44" class="edge">
<title>Node22&#45;&gt;Node26</title>
<path fill="none" stroke="midnightblue" d="M279,-235.08C279,-228.01 279,-217.86 279,-208.99"/>
<polygon fill="midnightblue" stroke="midnightblue" points="282.5,-208.75 279,-198.75 275.5,-208.75 282.5,-208.75"/>
</g>
<!-- Node27 -->
<g id="node27" class="node">
<title>Node27</title>
<g id="a_node27"><a xlink:href="InvalidArgument_8hpp.html" target="_top" xlink:title="Definition of the InvalidArgument class.">
<polygon fill="white" stroke="black" points="317,-179.5 317,-198.5 475,-198.5 475,-179.5 317,-179.5"/>
<text text-anchor="middle" x="396" y="-186.5" font-family="Helvetica,sans-Serif" font-size="10.00">playrho/InvalidArgument.hpp</text>
</a>
</g>
</g>
<!-- Node22&#45;&gt;Node27 -->
<g id="edge46" class="edge">
<title>Node22&#45;&gt;Node27</title>
<path fill="none" stroke="midnightblue" d="M297.54,-235.44C316.62,-226.64 346.57,-212.81 368.44,-202.72"/>
<polygon fill="midnightblue" stroke="midnightblue" points="369.93,-205.88 377.55,-198.52 367,-199.53 369.93,-205.88"/>
</g>
<!-- Node28 -->
<g id="node28" class="node">
<title>Node28</title>
<g id="a_node28"><a xlink:title=" ">
<polygon fill="white" stroke="#bfbfbf" points="363.5,-123.5 363.5,-142.5 428.5,-142.5 428.5,-123.5 363.5,-123.5"/>
<text text-anchor="middle" x="396" y="-130.5" font-family="Helvetica,sans-Serif" font-size="10.00">stdexcept</text>
</a>
</g>
</g>
<!-- Node27&#45;&gt;Node28 -->
<g id="edge47" class="edge">
<title>Node27&#45;&gt;Node28</title>
<path fill="none" stroke="midnightblue" d="M396,-179.08C396,-172.01 396,-161.86 396,-152.99"/>
<polygon fill="midnightblue" stroke="midnightblue" points="399.5,-152.75 396,-142.75 392.5,-152.75 399.5,-152.75"/>
</g>
</g>
</svg>
        <g id="navigator" transform="translate(0 0)" fill="#404254">
                <rect fill="#f2f5e9" fill-opacity="0.5" stroke="#606060" stroke-width=".5" x="0" y="0" width="60" height="60"/>
                <use id="zoomplus" xlink:href="#zoomPlus" x="17" y="9" onmousedown="handleZoom(evt,'in')"/>
                <use id="zoomminus" xlink:href="#zoomMin" x="42" y="9" onmousedown="handleZoom(evt,'out')"/>
                <use id="reset" xlink:href="#resetDef" x="30" y="36" onmousedown="handleReset()"/>
                <g id="arrowUp" xlink:href="#dirArrow" transform="translate(30 24)" onmousedown="handlePan(0,-1)">
                  <use xlink:href="#rim" fill="#404040">
                        <set attributeName="fill" to="#808080" begin="arrowUp.mouseover" end="arrowUp.mouseout"/>
                  </use>
                  <path fill="none" stroke="white" stroke-width="1.5" d="M0,-3.0v7 M-2.5,-0.5L0,-3.0L2.5,-0.5"/>
                </g>
                <g id="arrowRight" xlink:href="#dirArrow" transform="rotate(90) translate(36 -43)" onmousedown="handlePan(1,0)">
                  <use xlink:href="#rim" fill="#404040">
                        <set attributeName="fill" to="#808080" begin="arrowRight.mouseover" end="arrowRight.mouseout"/>
                  </use>
                  <path fill="none" stroke="white" stroke-width="1.5" d="M0,-3.0v7 M-2.5,-0.5L0,-3.0L2.5,-0.5"/>
                </g>
                <g id="arrowDown" xlink:href="#dirArrow" transform="rotate(180) translate(-30 -48)" onmousedown="handlePan(0,1)">
                  <use xlink:href="#rim" fill="#404040">
                        <set attributeName="fill" to="#808080" begin="arrowDown.mouseover" end="arrowDown.mouseout"/>
                  </use>
                  <path fill="none" stroke="white" stroke-width="1.5" d="M0,-3.0v7 M-2.5,-0.5L0,-3.0L2.5,-0.5"/>
                </g>
                <g id="arrowLeft" xlink:href="#dirArrow" transform="rotate(270) translate(-36 17)" onmousedown="handlePan(-1,0)">
                  <use xlink:href="#rim" fill="#404040">
                        <set attributeName="fill" to="#808080" begin="arrowLeft.mouseover" end="arrowLeft.mouseout"/>
                  </use>
                  <path fill="none" stroke="white" stroke-width="1.5" d="M0,-3.0v7 M-2.5,-0.5L0,-3.0L2.5,-0.5"/>
                </g>
        </g>
        <svg viewBox="0 0 15 15" width="100%" height="30px" preserveAspectRatio="xMaxYMin meet">
         <g id="arrow_out" transform="scale(0.3 0.3)">
          <a xlink:href="Position_8hpp__incl_org.svg" target="_base">
           <rect id="button" ry="5" rx="5" y="6" x="6" height="38" width="38"
                fill="#f2f5e9" fill-opacity="0.5" stroke="#606060" stroke-width="1.0"/>
           <path id="arrow"
             d="M 11.500037,31.436501 C 11.940474,20.09759 22.043105,11.32322 32.158766,21.979434 L 37.068811,17.246167 C 37.068811,17.246167 37.088388,32 37.088388,32 L 22.160133,31.978069 C 22.160133,31.978069 26.997745,27.140456 26.997745,27.140456 C 18.528582,18.264221 13.291696,25.230495 11.500037,31.436501 z"
             style="fill:#404040;"/>
          </a>
         </g>
        </svg>
</svg>
