<?xml version="1.0" encoding="UTF-8" standalone="no"?>
<!DOCTYPE svg PUBLIC "-//W3C//DTD SVG 1.1//EN"
 "http://www.w3.org/Graphics/SVG/1.1/DTD/svg11.dtd">
<!-- Generated by graphviz version 2.43.0 (0)
 -->
<!-- Title: Library/include/playrho/d2/PositionSolverManifold.hpp Pages: 1 -->
<!--zoomable 554 -->
<svg id="main" version="1.1" xmlns="http://www.w3.org/2000/svg" xmlns:xlink="http://www.w3.org/1999/xlink" xml:space="preserve" onload="init(evt)">
<style type="text/css"><![CDATA[
.edge:hover path { stroke: red; }
.edge:hover polygon { stroke: red; fill: red; }
]]></style>
<script type="text/javascript"><![CDATA[
var edges = document.getElementsByTagName('g');
if (edges && edges.length) {
  for (var i=0;i<edges.length;i++) {
    if (edges[i].id.substr(0,4)=='edge') {
      edges[i].setAttribute('class','edge');
    }
  }
}
]]></script>
        <defs>
                <circle id="rim" cx="0" cy="0" r="7"/>
                <circle id="rim2" cx="0" cy="0" r="3.5"/>
                <g id="zoomPlus">
                        <use xlink:href="#rim" fill="#404040">
                                <set attributeName="fill" to="#808080" begin="zoomplus.mouseover" end="zoomplus.mouseout"/>
                        </use>
                        <path d="M-4,0h8M0,-4v8" fill="none" stroke="white" stroke-width="1.5" pointer-events="none"/>
                </g>
                <g id="zoomMin">
                        <use xlink:href="#rim" fill="#404040">
                                <set attributeName="fill" to="#808080" begin="zoomminus.mouseover" end="zoomminus.mouseout"/>
                        </use>
                        <path d="M-4,0h8" fill="none" stroke="white" stroke-width="1.5" pointer-events="none"/>
                </g>
                <g id="dirArrow">
                        <path fill="none" stroke="white" stroke-width="1.5" d="M0,-3.0v7 M-2.5,-0.5L0,-3.0L2.5,-0.5"/>
                </g>
               <g id="resetDef">
                       <use xlink:href="#rim2" fill="#404040">
                               <set attributeName="fill" to="#808080" begin="reset.mouseover" end="reset.mouseout"/>
                       </use>
               </g>
        </defs>

<script type="text/javascript">
var viewWidth = 1772;
var viewHeight = 554;
var sectionId = 'dynsection-0';
</script>
<script xlink:href="svgpan.js"/>
<svg id="graph" class="graph">
<g id="viewport">
<title>Library/include/playrho/d2/PositionSolverManifold.hpp</title>
<polygon fill="white" stroke="transparent" points="-4,4 -4,-550 1768,-550 1768,4 -4,4"/>
<!-- Node1 -->
<g id="node1" class="node">
<title>Node1</title>
<g id="a_node1"><a xlink:title="Definition of the PositionSolverManifold class and closely related code.">
<polygon fill="#bfbfbf" stroke="black" points="725,-515.5 725,-545.5 893,-545.5 893,-515.5 725,-515.5"/>
<text text-anchor="start" x="733" y="-533.5" font-family="Helvetica,sans-Serif" font-size="10.00">Library/include/playrho</text>
<text text-anchor="middle" x="809" y="-522.5" font-family="Helvetica,sans-Serif" font-size="10.00">/d2/PositionSolverManifold.hpp</text>
</a>
</g>
</g>
<!-- Node2 -->
<g id="node2" class="node">
<title>Node2</title>
<g id="a_node2"><a xlink:href="Units_8hpp.html" target="_top" xlink:title="Declarations for physical units possibly backed by strong types.">
<polygon fill="white" stroke="black" points="682.5,-291.5 682.5,-310.5 785.5,-310.5 785.5,-291.5 682.5,-291.5"/>
<text text-anchor="middle" x="734" y="-298.5" font-family="Helvetica,sans-Serif" font-size="10.00">playrho/Units.hpp</text>
</a>
</g>
</g>
<!-- Node1&#45;&gt;Node2 -->
<g id="edge1" class="edge">
<title>Node1&#45;&gt;Node2</title>
<path fill="none" stroke="midnightblue" d="M844.43,-515.47C869.12,-503.28 896,-483.7 886,-459 859.61,-393.79 791.7,-340.68 756.27,-316.35"/>
<polygon fill="midnightblue" stroke="midnightblue" points="757.85,-313.2 747.6,-310.53 753.95,-319.01 757.85,-313.2"/>
</g>
<!-- Node16 -->
<g id="node16" class="node">
<title>Node16</title>
<g id="a_node16"><a xlink:href="Vector2_8hpp.html" target="_top" xlink:title="Definition of the Vector2 alias template and closely related code.">
<polygon fill="white" stroke="black" points="668,-403.5 668,-422.5 782,-422.5 782,-403.5 668,-403.5"/>
<text text-anchor="middle" x="725" y="-410.5" font-family="Helvetica,sans-Serif" font-size="10.00">playrho/Vector2.hpp</text>
</a>
</g>
</g>
<!-- Node1&#45;&gt;Node16 -->
<g id="edge20" class="edge">
<title>Node1&#45;&gt;Node16</title>
<path fill="none" stroke="midnightblue" d="M775.51,-515.37C760.03,-507.08 742.91,-495.04 733,-479 724.5,-465.25 722.98,-446.72 723.3,-432.96"/>
<polygon fill="midnightblue" stroke="midnightblue" points="726.81,-432.93 723.89,-422.74 719.82,-432.52 726.81,-432.93"/>
</g>
<!-- Node30 -->
<g id="node30" class="node">
<title>Node30</title>
<g id="a_node30"><a xlink:href="Manifold_8hpp.html" target="_top" xlink:title="Definition of the Manifold class and closely related code.">
<polygon fill="white" stroke="black" points="741.5,-459.5 741.5,-478.5 876.5,-478.5 876.5,-459.5 741.5,-459.5"/>
<text text-anchor="middle" x="809" y="-466.5" font-family="Helvetica,sans-Serif" font-size="10.00">playrho/d2/Manifold.hpp</text>
</a>
</g>
</g>
<!-- Node1&#45;&gt;Node30 -->
<g id="edge49" class="edge">
<title>Node1&#45;&gt;Node30</title>
<path fill="none" stroke="midnightblue" d="M809,-515.4C809,-507.47 809,-497.46 809,-488.86"/>
<polygon fill="midnightblue" stroke="midnightblue" points="812.5,-488.66 809,-478.66 805.5,-488.66 812.5,-488.66"/>
</g>
<!-- Node3 -->
<g id="node3" class="node">
<title>Node3</title>
<g id="a_node3"><a xlink:title=" ">
<polygon fill="white" stroke="#bfbfbf" points="890.5,-235.5 890.5,-254.5 937.5,-254.5 937.5,-235.5 890.5,-235.5"/>
<text text-anchor="middle" x="914" y="-242.5" font-family="Helvetica,sans-Serif" font-size="10.00">cmath</text>
</a>
</g>
</g>
<!-- Node2&#45;&gt;Node3 -->
<g id="edge2" class="edge">
<title>Node2&#45;&gt;Node3</title>
<path fill="none" stroke="midnightblue" d="M762.52,-291.44C794.59,-281.82 846.62,-266.21 880.57,-256.03"/>
<polygon fill="midnightblue" stroke="midnightblue" points="881.92,-259.28 890.49,-253.05 879.9,-252.57 881.92,-259.28"/>
</g>
<!-- Node4 -->
<g id="node4" class="node">
<title>Node4</title>
<g id="a_node4"><a xlink:title=" ">
<polygon fill="white" stroke="#bfbfbf" points="523.5,-0.5 523.5,-19.5 592.5,-19.5 592.5,-0.5 523.5,-0.5"/>
<text text-anchor="middle" x="558" y="-7.5" font-family="Helvetica,sans-Serif" font-size="10.00">type_traits</text>
</a>
</g>
</g>
<!-- Node2&#45;&gt;Node4 -->
<g id="edge3" class="edge">
<title>Node2&#45;&gt;Node4</title>
<path fill="none" stroke="midnightblue" d="M682.44,-294.74C584.67,-283.33 382,-252.18 382,-190 382,-190 382,-190 382,-126.5 382,-63.8 461.05,-33.26 513.19,-19.94"/>
<polygon fill="midnightblue" stroke="midnightblue" points="514.34,-23.27 523.23,-17.5 512.68,-16.46 514.34,-23.27"/>
</g>
<!-- Node5 -->
<g id="node5" class="node">
<title>Node5</title>
<g id="a_node5"><a xlink:href="Real_8hpp.html" target="_top" xlink:title="Real number definition file.">
<polygon fill="white" stroke="black" points="684.5,-179.5 684.5,-198.5 783.5,-198.5 783.5,-179.5 684.5,-179.5"/>
<text text-anchor="middle" x="734" y="-186.5" font-family="Helvetica,sans-Serif" font-size="10.00">playrho/Real.hpp</text>
</a>
</g>
</g>
<!-- Node2&#45;&gt;Node5 -->
<g id="edge4" class="edge">
<title>Node2&#45;&gt;Node5</title>
<path fill="none" stroke="midnightblue" d="M757.29,-291.35C782.89,-280.39 818.69,-259.89 805,-235 797.11,-220.66 782.51,-210.25 768.6,-203.08"/>
<polygon fill="midnightblue" stroke="midnightblue" points="769.7,-199.73 759.16,-198.62 766.71,-206.06 769.7,-199.73"/>
</g>
<!-- Node7 -->
<g id="node7" class="node">
<title>Node7</title>
<g id="a_node7"><a xlink:href="Templates_8hpp.html" target="_top" xlink:title="Definitions of miscellaneous template related code.">
<polygon fill="white" stroke="black" points="978,-118 978,-137 1106,-137 1106,-118 978,-118"/>
<text text-anchor="middle" x="1042" y="-125" font-family="Helvetica,sans-Serif" font-size="10.00">playrho/Templates.hpp</text>
</a>
</g>
</g>
<!-- Node2&#45;&gt;Node7 -->
<g id="edge16" class="edge">
<title>Node2&#45;&gt;Node7</title>
<path fill="none" stroke="midnightblue" d="M750.9,-291.38C768.31,-282.45 796.19,-268.01 820,-255 892.98,-215.13 978.13,-165.82 1018.48,-142.27"/>
<polygon fill="midnightblue" stroke="midnightblue" points="1020.42,-145.19 1027.29,-137.12 1016.89,-139.14 1020.42,-145.19"/>
</g>
<!-- Node13 -->
<g id="node13" class="node">
<title>Node13</title>
<g id="a_node13"><a xlink:href="RealConstants_8hpp.html" target="_top" xlink:title="Definitions file for constant expressions of type Real.">
<polygon fill="white" stroke="black" points="648,-235.5 648,-254.5 796,-254.5 796,-235.5 648,-235.5"/>
<text text-anchor="middle" x="722" y="-242.5" font-family="Helvetica,sans-Serif" font-size="10.00">playrho/RealConstants.hpp</text>
</a>
</g>
</g>
<!-- Node2&#45;&gt;Node13 -->
<g id="edge14" class="edge">
<title>Node2&#45;&gt;Node13</title>
<path fill="none" stroke="midnightblue" d="M732.02,-291.08C730.43,-283.93 728.14,-273.64 726.15,-264.69"/>
<polygon fill="midnightblue" stroke="midnightblue" points="729.53,-263.75 723.94,-254.75 722.7,-265.27 729.53,-263.75"/>
</g>
<!-- Node14 -->
<g id="node14" class="node">
<title>Node14</title>
<g id="a_node14"><a xlink:href="to__underlying_8hpp.html" target="_top" xlink:title="Definition of to_underlying function template.">
<polygon fill="white" stroke="black" points="486,-235.5 486,-254.5 630,-254.5 630,-235.5 486,-235.5"/>
<text text-anchor="middle" x="558" y="-242.5" font-family="Helvetica,sans-Serif" font-size="10.00">playrho/to_underlying.hpp</text>
</a>
</g>
</g>
<!-- Node2&#45;&gt;Node14 -->
<g id="edge17" class="edge">
<title>Node2&#45;&gt;Node14</title>
<path fill="none" stroke="midnightblue" d="M706.11,-291.44C676.25,-282.28 628.69,-267.69 595.54,-257.52"/>
<polygon fill="midnightblue" stroke="midnightblue" points="596.34,-254.1 585.76,-254.52 594.29,-260.8 596.34,-254.1"/>
</g>
<!-- Node6 -->
<g id="node6" class="node">
<title>Node6</title>
<g id="a_node6"><a xlink:title=" ">
<polygon fill="white" stroke="#bfbfbf" points="679,-118 679,-137 723,-137 723,-118 679,-118"/>
<text text-anchor="middle" x="701" y="-125" font-family="Helvetica,sans-Serif" font-size="10.00">limits</text>
</a>
</g>
</g>
<!-- Node5&#45;&gt;Node6 -->
<g id="edge5" class="edge">
<title>Node5&#45;&gt;Node6</title>
<path fill="none" stroke="midnightblue" d="M729.27,-179.48C724.42,-170.73 716.73,-156.87 710.6,-145.81"/>
<polygon fill="midnightblue" stroke="midnightblue" points="713.63,-144.06 705.72,-137.01 707.51,-147.45 713.63,-144.06"/>
</g>
<!-- Node5&#45;&gt;Node7 -->
<g id="edge6" class="edge">
<title>Node5&#45;&gt;Node7</title>
<path fill="none" stroke="midnightblue" d="M778.13,-179.48C833.48,-168.78 928.34,-150.46 987.97,-138.94"/>
<polygon fill="midnightblue" stroke="midnightblue" points="988.8,-142.34 997.95,-137.01 987.47,-135.47 988.8,-142.34"/>
</g>
<!-- Node7&#45;&gt;Node4 -->
<g id="edge8" class="edge">
<title>Node7&#45;&gt;Node4</title>
<path fill="none" stroke="midnightblue" d="M1026.75,-117.99C999.04,-102.94 938.18,-71.72 883,-56 785.44,-28.21 666.34,-17.31 602.88,-13.25"/>
<polygon fill="midnightblue" stroke="midnightblue" points="603.01,-9.75 592.81,-12.63 602.58,-16.73 603.01,-9.75"/>
</g>
<!-- Node8 -->
<g id="node8" class="node">
<title>Node8</title>
<g id="a_node8"><a xlink:title=" ">
<polygon fill="white" stroke="#bfbfbf" points="1044.5,-56.5 1044.5,-75.5 1093.5,-75.5 1093.5,-56.5 1044.5,-56.5"/>
<text text-anchor="middle" x="1069" y="-63.5" font-family="Helvetica,sans-Serif" font-size="10.00">cstdlib</text>
</a>
</g>
</g>
<!-- Node7&#45;&gt;Node8 -->
<g id="edge7" class="edge">
<title>Node7&#45;&gt;Node8</title>
<path fill="none" stroke="midnightblue" d="M1045.87,-117.98C1049.8,-109.32 1056,-95.65 1060.99,-84.65"/>
<polygon fill="midnightblue" stroke="midnightblue" points="1064.19,-86.06 1065.14,-75.51 1057.82,-83.17 1064.19,-86.06"/>
</g>
<!-- Node9 -->
<g id="node9" class="node">
<title>Node9</title>
<g id="a_node9"><a xlink:href="detail_2Templates_8hpp.html" target="_top" xlink:title="Low&#45;level declarations for general class &amp; function templates.">
<polygon fill="white" stroke="black" points="1178,-56.5 1178,-75.5 1336,-75.5 1336,-56.5 1178,-56.5"/>
<text text-anchor="middle" x="1257" y="-63.5" font-family="Helvetica,sans-Serif" font-size="10.00">playrho/detail/Templates.hpp</text>
</a>
</g>
</g>
<!-- Node7&#45;&gt;Node9 -->
<g id="edge9" class="edge">
<title>Node7&#45;&gt;Node9</title>
<path fill="none" stroke="midnightblue" d="M1072.8,-117.98C1110.56,-107.53 1174.66,-89.79 1216.41,-78.23"/>
<polygon fill="midnightblue" stroke="midnightblue" points="1217.55,-81.55 1226.25,-75.51 1215.68,-74.8 1217.55,-81.55"/>
</g>
<!-- Node9&#45;&gt;Node4 -->
<g id="edge12" class="edge">
<title>Node9&#45;&gt;Node4</title>
<path fill="none" stroke="midnightblue" d="M1177.86,-57.22C1173.17,-56.8 1168.53,-56.39 1164,-56 954.1,-38.05 702.95,-20.72 602.6,-13.97"/>
<polygon fill="midnightblue" stroke="midnightblue" points="602.74,-10.47 592.53,-13.29 602.27,-17.45 602.74,-10.47"/>
</g>
<!-- Node10 -->
<g id="node10" class="node">
<title>Node10</title>
<g id="a_node10"><a xlink:title=" ">
<polygon fill="white" stroke="#bfbfbf" points="1242,-0.5 1242,-19.5 1306,-19.5 1306,-0.5 1242,-0.5"/>
<text text-anchor="middle" x="1274" y="-7.5" font-family="Helvetica,sans-Serif" font-size="10.00">algorithm</text>
</a>
</g>
</g>
<!-- Node9&#45;&gt;Node10 -->
<g id="edge10" class="edge">
<title>Node9&#45;&gt;Node10</title>
<path fill="none" stroke="midnightblue" d="M1259.81,-56.08C1262.08,-48.85 1265.37,-38.41 1268.21,-29.4"/>
<polygon fill="midnightblue" stroke="midnightblue" points="1271.58,-30.34 1271.25,-19.75 1264.9,-28.24 1271.58,-30.34"/>
</g>
<!-- Node11 -->
<g id="node11" class="node">
<title>Node11</title>
<g id="a_node11"><a xlink:title=" ">
<polygon fill="white" stroke="#bfbfbf" points="1341.5,-0.5 1341.5,-19.5 1394.5,-19.5 1394.5,-0.5 1341.5,-0.5"/>
<text text-anchor="middle" x="1368" y="-7.5" font-family="Helvetica,sans-Serif" font-size="10.00">iterator</text>
</a>
</g>
</g>
<!-- Node9&#45;&gt;Node11 -->
<g id="edge11" class="edge">
<title>Node9&#45;&gt;Node11</title>
<path fill="none" stroke="midnightblue" d="M1274.83,-56.32C1292.72,-47.62 1320.48,-34.12 1341.05,-24.11"/>
<polygon fill="midnightblue" stroke="midnightblue" points="1342.75,-27.18 1350.21,-19.65 1339.69,-20.88 1342.75,-27.18"/>
</g>
<!-- Node12 -->
<g id="node12" class="node">
<title>Node12</title>
<g id="a_node12"><a xlink:title=" ">
<polygon fill="white" stroke="#bfbfbf" points="1503.5,-0.5 1503.5,-19.5 1548.5,-19.5 1548.5,-0.5 1503.5,-0.5"/>
<text text-anchor="middle" x="1526" y="-7.5" font-family="Helvetica,sans-Serif" font-size="10.00">utility</text>
</a>
</g>
</g>
<!-- Node9&#45;&gt;Node12 -->
<g id="edge13" class="edge">
<title>Node9&#45;&gt;Node12</title>
<path fill="none" stroke="midnightblue" d="M1299.62,-56.44C1353.45,-45.64 1444.88,-27.28 1493.44,-17.54"/>
<polygon fill="midnightblue" stroke="midnightblue" points="1494.29,-20.94 1503.41,-15.54 1492.91,-14.07 1494.29,-20.94"/>
</g>
<!-- Node13&#45;&gt;Node5 -->
<g id="edge15" class="edge">
<title>Node13&#45;&gt;Node5</title>
<path fill="none" stroke="midnightblue" d="M723.98,-235.08C725.57,-227.93 727.86,-217.64 729.85,-208.69"/>
<polygon fill="midnightblue" stroke="midnightblue" points="733.3,-209.27 732.06,-198.75 726.47,-207.75 733.3,-209.27"/>
</g>
<!-- Node15 -->
<g id="node15" class="node">
<title>Node15</title>
<g id="a_node15"><a xlink:href="underlying__type_8hpp.html" target="_top" xlink:title="Definition of underlying_type trait class and related code.">
<polygon fill="white" stroke="black" points="488.5,-112.5 488.5,-142.5 627.5,-142.5 627.5,-112.5 488.5,-112.5"/>
<text text-anchor="start" x="496.5" y="-130.5" font-family="Helvetica,sans-Serif" font-size="10.00">playrho/detail/underlying</text>
<text text-anchor="middle" x="558" y="-119.5" font-family="Helvetica,sans-Serif" font-size="10.00">_type.hpp</text>
</a>
</g>
</g>
<!-- Node14&#45;&gt;Node15 -->
<g id="edge18" class="edge">
<title>Node14&#45;&gt;Node15</title>
<path fill="none" stroke="midnightblue" d="M558,-235.32C558,-217.97 558,-178.46 558,-152.66"/>
<polygon fill="midnightblue" stroke="midnightblue" points="561.5,-152.55 558,-142.55 554.5,-152.55 561.5,-152.55"/>
</g>
<!-- Node15&#45;&gt;Node4 -->
<g id="edge19" class="edge">
<title>Node15&#45;&gt;Node4</title>
<path fill="none" stroke="midnightblue" d="M558,-112.34C558,-91.62 558,-53.02 558,-29.9"/>
<polygon fill="midnightblue" stroke="midnightblue" points="561.5,-29.67 558,-19.67 554.5,-29.67 561.5,-29.67"/>
</g>
<!-- Node16&#45;&gt;Node2 -->
<g id="edge34" class="edge">
<title>Node16&#45;&gt;Node2</title>
<path fill="none" stroke="midnightblue" d="M725.71,-403.37C727.16,-385.62 730.51,-344.67 732.48,-320.6"/>
<polygon fill="midnightblue" stroke="midnightblue" points="735.97,-320.84 733.3,-310.59 728.99,-320.27 735.97,-320.84"/>
</g>
<!-- Node16&#45;&gt;Node5 -->
<g id="edge21" class="edge">
<title>Node16&#45;&gt;Node5</title>
<path fill="none" stroke="midnightblue" d="M690.48,-403.45C607.26,-381.27 407.42,-317.82 477,-235 501.7,-205.6 606.41,-195.4 674.32,-191.87"/>
<polygon fill="midnightblue" stroke="midnightblue" points="674.65,-195.36 684.47,-191.38 674.31,-188.37 674.65,-195.36"/>
</g>
<!-- Node17 -->
<g id="node17" class="node">
<title>Node17</title>
<g id="a_node17"><a xlink:href="Settings_8hpp.html" target="_top" xlink:title="Types and default settings file.">
<polygon fill="white" stroke="black" points="368.5,-347.5 368.5,-366.5 485.5,-366.5 485.5,-347.5 368.5,-347.5"/>
<text text-anchor="middle" x="427" y="-354.5" font-family="Helvetica,sans-Serif" font-size="10.00">playrho/Settings.hpp</text>
</a>
</g>
</g>
<!-- Node16&#45;&gt;Node17 -->
<g id="edge22" class="edge">
<title>Node16&#45;&gt;Node17</title>
<path fill="none" stroke="midnightblue" d="M677.78,-403.44C625.25,-393.92 540.39,-378.55 484.15,-368.36"/>
<polygon fill="midnightblue" stroke="midnightblue" points="484.46,-364.86 474,-366.52 483.21,-371.74 484.46,-364.86"/>
</g>
<!-- Node22 -->
<g id="node22" class="node">
<title>Node22</title>
<g id="a_node22"><a xlink:href="Vector_8hpp.html" target="_top" xlink:title="Definition of the Vector class template and closely related code.">
<polygon fill="white" stroke="black" points="1218.5,-291.5 1218.5,-310.5 1325.5,-310.5 1325.5,-291.5 1218.5,-291.5"/>
<text text-anchor="middle" x="1272" y="-298.5" font-family="Helvetica,sans-Serif" font-size="10.00">playrho/Vector.hpp</text>
</a>
</g>
</g>
<!-- Node16&#45;&gt;Node22 -->
<g id="edge35" class="edge">
<title>Node16&#45;&gt;Node22</title>
<path fill="none" stroke="midnightblue" d="M782.25,-410.41C859.25,-407.15 999.95,-397.21 1116,-367 1163.91,-354.53 1216.44,-330.26 1246.68,-315.16"/>
<polygon fill="midnightblue" stroke="midnightblue" points="1248.34,-318.24 1255.68,-310.61 1245.18,-312 1248.34,-318.24"/>
</g>
<!-- Node17&#45;&gt;Node2 -->
<g id="edge28" class="edge">
<title>Node17&#45;&gt;Node2</title>
<path fill="none" stroke="midnightblue" d="M475.65,-347.44C529.87,-337.9 617.55,-322.48 675.48,-312.29"/>
<polygon fill="midnightblue" stroke="midnightblue" points="676.34,-315.7 685.58,-310.52 675.13,-308.8 676.34,-315.7"/>
</g>
<!-- Node17&#45;&gt;Node4 -->
<g id="edge25" class="edge">
<title>Node17&#45;&gt;Node4</title>
<path fill="none" stroke="midnightblue" d="M368.22,-348.11C275.61,-335.64 105.88,-312.61 103,-311 49.74,-281.17 38,-251.05 38,-190 38,-190 38,-190 38,-126.5 38,-29.47 387.42,-13.9 513.4,-11.45"/>
<polygon fill="midnightblue" stroke="midnightblue" points="513.54,-14.95 523.48,-11.27 513.42,-7.95 513.54,-14.95"/>
</g>
<!-- Node17&#45;&gt;Node5 -->
<g id="edge26" class="edge">
<title>Node17&#45;&gt;Node5</title>
<path fill="none" stroke="midnightblue" d="M425.12,-347.19C420.94,-324.93 413.47,-265.97 444,-235 475.21,-203.33 598.67,-193.93 674.08,-191.15"/>
<polygon fill="midnightblue" stroke="midnightblue" points="674.51,-194.64 684.39,-190.8 674.27,-187.64 674.51,-194.64"/>
</g>
<!-- Node17&#45;&gt;Node6 -->
<g id="edge24" class="edge">
<title>Node17&#45;&gt;Node6</title>
<path fill="none" stroke="midnightblue" d="M423.74,-347.47C416.1,-325.84 399.64,-268.26 427,-235 458.93,-196.18 603.92,-154.05 669.1,-136.69"/>
<polygon fill="midnightblue" stroke="midnightblue" points="670.07,-140.05 678.84,-134.12 668.28,-133.28 670.07,-140.05"/>
</g>
<!-- Node17&#45;&gt;Node13 -->
<g id="edge27" class="edge">
<title>Node17&#45;&gt;Node13</title>
<path fill="none" stroke="midnightblue" d="M450.15,-347.37C502.39,-327.89 629.53,-280.48 689.58,-258.09"/>
<polygon fill="midnightblue" stroke="midnightblue" points="690.81,-261.36 698.96,-254.59 688.37,-254.81 690.81,-261.36"/>
</g>
<!-- Node18 -->
<g id="node18" class="node">
<title>Node18</title>
<g id="a_node18"><a xlink:title=" ">
<polygon fill="white" stroke="#bfbfbf" points="243,-179.5 243,-198.5 293,-198.5 293,-179.5 243,-179.5"/>
<text text-anchor="middle" x="268" y="-186.5" font-family="Helvetica,sans-Serif" font-size="10.00">cstdint</text>
</a>
</g>
</g>
<!-- Node17&#45;&gt;Node18 -->
<g id="edge23" class="edge">
<title>Node17&#45;&gt;Node18</title>
<path fill="none" stroke="midnightblue" d="M395.94,-347.45C375.21,-340.45 348.47,-328.76 330,-311 299.48,-281.65 281.29,-234.03 273.14,-208.14"/>
<polygon fill="midnightblue" stroke="midnightblue" points="276.47,-207.08 270.25,-198.5 269.76,-209.08 276.47,-207.08"/>
</g>
<!-- Node19 -->
<g id="node19" class="node">
<title>Node19</title>
<g id="a_node19"><a xlink:href="WiderType_8hpp.html" target="_top" xlink:title="Definition of the WiderType alias template.">
<polygon fill="white" stroke="black" points="112,-291.5 112,-310.5 240,-310.5 240,-291.5 112,-291.5"/>
<text text-anchor="middle" x="176" y="-298.5" font-family="Helvetica,sans-Serif" font-size="10.00">playrho/WiderType.hpp</text>
</a>
</g>
</g>
<!-- Node17&#45;&gt;Node19 -->
<g id="edge29" class="edge">
<title>Node17&#45;&gt;Node19</title>
<path fill="none" stroke="midnightblue" d="M387.23,-347.44C343.44,-338.02 272.99,-322.87 225.62,-312.68"/>
<polygon fill="midnightblue" stroke="midnightblue" points="226.1,-309.2 215.59,-310.52 224.63,-316.04 226.1,-309.2"/>
</g>
<!-- Node20 -->
<g id="node20" class="node">
<title>Node20</title>
<g id="a_node20"><a xlink:href="Wider_8hpp.html" target="_top" xlink:title="Definition of the Wider class template and specializations.">
<polygon fill="white" stroke="black" points="66,-235.5 66,-254.5 202,-254.5 202,-235.5 66,-235.5"/>
<text text-anchor="middle" x="134" y="-242.5" font-family="Helvetica,sans-Serif" font-size="10.00">playrho/detail/Wider.hpp</text>
</a>
</g>
</g>
<!-- Node19&#45;&gt;Node20 -->
<g id="edge30" class="edge">
<title>Node19&#45;&gt;Node20</title>
<path fill="none" stroke="midnightblue" d="M169.06,-291.08C163.07,-283.38 154.25,-272.03 146.95,-262.65"/>
<polygon fill="midnightblue" stroke="midnightblue" points="149.71,-260.5 140.81,-254.75 144.18,-264.79 149.71,-260.5"/>
</g>
<!-- Node20&#45;&gt;Node4 -->
<g id="edge32" class="edge">
<title>Node20&#45;&gt;Node4</title>
<path fill="none" stroke="midnightblue" d="M123.99,-235.26C110.58,-222.46 89.8,-198.08 102,-179 192.23,-37.86 416.81,-14.6 513.05,-11.26"/>
<polygon fill="midnightblue" stroke="midnightblue" points="513.43,-14.75 523.32,-10.97 513.23,-7.75 513.43,-14.75"/>
</g>
<!-- Node20&#45;&gt;Node18 -->
<g id="edge31" class="edge">
<title>Node20&#45;&gt;Node18</title>
<path fill="none" stroke="midnightblue" d="M155.23,-235.44C177.38,-226.52 212.32,-212.44 237.44,-202.32"/>
<polygon fill="midnightblue" stroke="midnightblue" points="238.9,-205.5 246.87,-198.52 236.28,-199.01 238.9,-205.5"/>
</g>
<!-- Node21 -->
<g id="node21" class="node">
<title>Node21</title>
<g id="a_node21"><a xlink:href="Defines_8hpp.html" target="_top" xlink:title="Miscellaneous C&#45;preprocessor definitions.">
<polygon fill="white" stroke="black" points="111,-179.5 111,-198.5 225,-198.5 225,-179.5 111,-179.5"/>
<text text-anchor="middle" x="168" y="-186.5" font-family="Helvetica,sans-Serif" font-size="10.00">playrho/Defines.hpp</text>
</a>
</g>
</g>
<!-- Node20&#45;&gt;Node21 -->
<g id="edge33" class="edge">
<title>Node20&#45;&gt;Node21</title>
<path fill="none" stroke="midnightblue" d="M139.61,-235.08C144.37,-227.53 151.32,-216.49 157.15,-207.23"/>
<polygon fill="midnightblue" stroke="midnightblue" points="160.12,-209.08 162.49,-198.75 154.2,-205.35 160.12,-209.08"/>
</g>
<!-- Node22&#45;&gt;Node4 -->
<g id="edge42" class="edge">
<title>Node22&#45;&gt;Node4</title>
<path fill="none" stroke="midnightblue" d="M1269.78,-291.48C1259.28,-253.29 1210.54,-97.92 1103,-56 1012.18,-20.6 716.42,-13.04 602.91,-11.43"/>
<polygon fill="midnightblue" stroke="midnightblue" points="602.87,-7.93 592.83,-11.3 602.78,-14.93 602.87,-7.93"/>
</g>
<!-- Node22&#45;&gt;Node5 -->
<g id="edge47" class="edge">
<title>Node22&#45;&gt;Node5</title>
<path fill="none" stroke="midnightblue" d="M1257.6,-291.33C1233.01,-276.97 1180.95,-248.52 1133,-235 1015.82,-201.95 872.81,-193.05 793.76,-190.73"/>
<polygon fill="midnightblue" stroke="midnightblue" points="793.59,-187.23 783.5,-190.46 793.41,-194.23 793.59,-187.23"/>
</g>
<!-- Node22&#45;&gt;Node7 -->
<g id="edge48" class="edge">
<title>Node22&#45;&gt;Node7</title>
<path fill="none" stroke="midnightblue" d="M1260.59,-291.5C1223.81,-264.07 1107.99,-177.71 1061.55,-143.08"/>
<polygon fill="midnightblue" stroke="midnightblue" points="1063.58,-140.23 1053.47,-137.06 1059.4,-145.84 1063.58,-140.23"/>
</g>
<!-- Node22&#45;&gt;Node10 -->
<g id="edge36" class="edge">
<title>Node22&#45;&gt;Node10</title>
<path fill="none" stroke="midnightblue" d="M1294.23,-291.49C1310.53,-284.16 1332,-272.05 1345,-255 1363.25,-231.06 1364,-220.1 1364,-190 1364,-190 1364,-190 1364,-126.5 1364,-94.05 1364.24,-82.13 1345,-56 1334.78,-42.12 1318.88,-31.47 1304.71,-24.02"/>
<polygon fill="midnightblue" stroke="midnightblue" points="1306.24,-20.87 1295.72,-19.59 1303.14,-27.15 1306.24,-20.87"/>
</g>
<!-- Node22&#45;&gt;Node11 -->
<g id="edge39" class="edge">
<title>Node22&#45;&gt;Node11</title>
<path fill="none" stroke="midnightblue" d="M1300.26,-291.37C1320.19,-284.17 1346.53,-272.28 1365,-255 1389.28,-232.29 1402,-223.24 1402,-190 1402,-190 1402,-190 1402,-126.5 1402,-90.77 1386.84,-51.26 1376.77,-28.95"/>
<polygon fill="midnightblue" stroke="midnightblue" points="1379.86,-27.3 1372.44,-19.73 1373.52,-30.27 1379.86,-27.3"/>
</g>
<!-- Node23 -->
<g id="node23" class="node">
<title>Node23</title>
<g id="a_node23"><a xlink:title=" ">
<polygon fill="white" stroke="#bfbfbf" points="1684,-235.5 1684,-254.5 1736,-254.5 1736,-235.5 1684,-235.5"/>
<text text-anchor="middle" x="1710" y="-242.5" font-family="Helvetica,sans-Serif" font-size="10.00">cassert</text>
</a>
</g>
</g>
<!-- Node22&#45;&gt;Node23 -->
<g id="edge37" class="edge">
<title>Node22&#45;&gt;Node23</title>
<path fill="none" stroke="midnightblue" d="M1325.8,-296.41C1401.44,-290.83 1543.6,-278.39 1673.58,-255.03"/>
<polygon fill="midnightblue" stroke="midnightblue" points="1674.51,-258.42 1683.71,-253.18 1673.25,-251.53 1674.51,-258.42"/>
</g>
<!-- Node24 -->
<g id="node24" class="node">
<title>Node24</title>
<g id="a_node24"><a xlink:title=" ">
<polygon fill="white" stroke="#bfbfbf" points="1070.5,-235.5 1070.5,-254.5 1123.5,-254.5 1123.5,-235.5 1070.5,-235.5"/>
<text text-anchor="middle" x="1097" y="-242.5" font-family="Helvetica,sans-Serif" font-size="10.00">cstddef</text>
</a>
</g>
</g>
<!-- Node22&#45;&gt;Node24 -->
<g id="edge38" class="edge">
<title>Node22&#45;&gt;Node24</title>
<path fill="none" stroke="midnightblue" d="M1244.27,-291.44C1214.31,-282.2 1166.45,-267.43 1133.46,-257.25"/>
<polygon fill="midnightblue" stroke="midnightblue" points="1134.33,-253.85 1123.74,-254.25 1132.26,-260.54 1134.33,-253.85"/>
</g>
<!-- Node25 -->
<g id="node25" class="node">
<title>Node25</title>
<g id="a_node25"><a xlink:title=" ">
<polygon fill="white" stroke="#bfbfbf" points="1430,-235.5 1430,-254.5 1490,-254.5 1490,-235.5 1430,-235.5"/>
<text text-anchor="middle" x="1460" y="-242.5" font-family="Helvetica,sans-Serif" font-size="10.00">iostream</text>
</a>
</g>
</g>
<!-- Node22&#45;&gt;Node25 -->
<g id="edge40" class="edge">
<title>Node22&#45;&gt;Node25</title>
<path fill="none" stroke="midnightblue" d="M1301.79,-291.44C1333.83,-282.24 1384.93,-267.56 1420.35,-257.39"/>
<polygon fill="midnightblue" stroke="midnightblue" points="1421.71,-260.64 1430.35,-254.52 1419.77,-253.91 1421.71,-260.64"/>
</g>
<!-- Node26 -->
<g id="node26" class="node">
<title>Node26</title>
<g id="a_node26"><a xlink:title=" ">
<polygon fill="white" stroke="#bfbfbf" points="1294.5,-235.5 1294.5,-254.5 1335.5,-254.5 1335.5,-235.5 1294.5,-235.5"/>
<text text-anchor="middle" x="1315" y="-242.5" font-family="Helvetica,sans-Serif" font-size="10.00">tuple</text>
</a>
</g>
</g>
<!-- Node22&#45;&gt;Node26 -->
<g id="edge41" class="edge">
<title>Node22&#45;&gt;Node26</title>
<path fill="none" stroke="midnightblue" d="M1279.1,-291.08C1285.24,-283.38 1294.27,-272.03 1301.74,-262.65"/>
<polygon fill="midnightblue" stroke="midnightblue" points="1304.54,-264.75 1308.03,-254.75 1299.06,-260.39 1304.54,-264.75"/>
</g>
<!-- Node27 -->
<g id="node27" class="node">
<title>Node27</title>
<g id="a_node27"><a xlink:href="InvalidArgument_8hpp.html" target="_top" xlink:title="Definition of the InvalidArgument class.">
<polygon fill="white" stroke="black" points="1508,-235.5 1508,-254.5 1666,-254.5 1666,-235.5 1508,-235.5"/>
<text text-anchor="middle" x="1587" y="-242.5" font-family="Helvetica,sans-Serif" font-size="10.00">playrho/InvalidArgument.hpp</text>
</a>
</g>
</g>
<!-- Node22&#45;&gt;Node27 -->
<g id="edge43" class="edge">
<title>Node22&#45;&gt;Node27</title>
<path fill="none" stroke="midnightblue" d="M1321.91,-291.44C1377.67,-281.89 1467.89,-266.42 1527.33,-256.23"/>
<polygon fill="midnightblue" stroke="midnightblue" points="1528.06,-259.66 1537.32,-254.52 1526.87,-252.76 1528.06,-259.66"/>
</g>
<!-- Node27&#45;&gt;Node12 -->
<g id="edge46" class="edge">
<title>Node27&#45;&gt;Node12</title>
<path fill="none" stroke="midnightblue" d="M1575.84,-235.33C1566.15,-227.11 1552.67,-213.85 1546,-199 1520.25,-141.71 1521.82,-65.02 1524.26,-29.94"/>
<polygon fill="midnightblue" stroke="midnightblue" points="1527.76,-29.98 1525.08,-19.73 1520.79,-29.42 1527.76,-29.98"/>
</g>
<!-- Node28 -->
<g id="node28" class="node">
<title>Node28</title>
<g id="a_node28"><a xlink:title=" ">
<polygon fill="white" stroke="#bfbfbf" points="1554.5,-179.5 1554.5,-198.5 1619.5,-198.5 1619.5,-179.5 1554.5,-179.5"/>
<text text-anchor="middle" x="1587" y="-186.5" font-family="Helvetica,sans-Serif" font-size="10.00">stdexcept</text>
</a>
</g>
</g>
<!-- Node27&#45;&gt;Node28 -->
<g id="edge44" class="edge">
<title>Node27&#45;&gt;Node28</title>
<path fill="none" stroke="midnightblue" d="M1587,-235.08C1587,-228.01 1587,-217.86 1587,-208.99"/>
<polygon fill="midnightblue" stroke="midnightblue" points="1590.5,-208.75 1587,-198.75 1583.5,-208.75 1590.5,-208.75"/>
</g>
<!-- Node29 -->
<g id="node29" class="node">
<title>Node29</title>
<g id="a_node29"><a xlink:title=" ">
<polygon fill="white" stroke="#bfbfbf" points="1638,-179.5 1638,-198.5 1682,-198.5 1682,-179.5 1638,-179.5"/>
<text text-anchor="middle" x="1660" y="-186.5" font-family="Helvetica,sans-Serif" font-size="10.00">string</text>
</a>
</g>
</g>
<!-- Node27&#45;&gt;Node29 -->
<g id="edge45" class="edge">
<title>Node27&#45;&gt;Node29</title>
<path fill="none" stroke="midnightblue" d="M1598.73,-235.32C1609.84,-227.11 1626.74,-214.6 1639.98,-204.81"/>
<polygon fill="midnightblue" stroke="midnightblue" points="1642.1,-207.59 1648.06,-198.83 1637.94,-201.97 1642.1,-207.59"/>
</g>
<!-- Node30&#45;&gt;Node4 -->
<g id="edge53" class="edge">
<title>Node30&#45;&gt;Node4</title>
<path fill="none" stroke="midnightblue" d="M741.42,-465.88C546.98,-458.89 0,-432.59 0,-358 0,-358 0,-358 0,-126.5 0,-79.44 35.86,-74.81 79,-56 156.26,-22.32 409.4,-13.77 513.1,-11.67"/>
<polygon fill="midnightblue" stroke="midnightblue" points="513.31,-15.16 523.24,-11.47 513.17,-8.17 513.31,-15.16"/>
</g>
<!-- Node30&#45;&gt;Node16 -->
<g id="edge59" class="edge">
<title>Node30&#45;&gt;Node16</title>
<path fill="none" stroke="midnightblue" d="M795.5,-459.32C782.4,-450.9 762.29,-437.97 746.89,-428.07"/>
<polygon fill="midnightblue" stroke="midnightblue" points="748.77,-425.12 738.46,-422.65 744.98,-431.01 748.77,-425.12"/>
</g>
<!-- Node30&#45;&gt;Node18 -->
<g id="edge52" class="edge">
<title>Node30&#45;&gt;Node18</title>
<path fill="none" stroke="midnightblue" d="M741.03,-465.9C619.98,-461.53 372.07,-449.57 290,-423 197.83,-393.16 150.76,-395.28 103,-311 67.54,-248.43 161.59,-287.82 211,-255 229.87,-242.47 246.3,-222.12 256.61,-207.52"/>
<polygon fill="midnightblue" stroke="midnightblue" points="259.74,-209.15 262.47,-198.91 253.95,-205.21 259.74,-209.15"/>
</g>
<!-- Node30&#45;&gt;Node22 -->
<g id="edge58" class="edge">
<title>Node30&#45;&gt;Node22</title>
<path fill="none" stroke="midnightblue" d="M849.84,-459.49C916.12,-444.95 1050.52,-412.44 1158,-367 1191.79,-352.72 1228.16,-330.69 1250.51,-316.31"/>
<polygon fill="midnightblue" stroke="midnightblue" points="1252.72,-319.05 1259.18,-310.66 1248.89,-313.19 1252.72,-319.05"/>
</g>
<!-- Node30&#45;&gt;Node23 -->
<g id="edge50" class="edge">
<title>Node30&#45;&gt;Node23</title>
<path fill="none" stroke="midnightblue" d="M857.14,-459.44C904.18,-450.9 977.72,-437.05 1041,-423 1240.94,-378.6 1290.35,-364.67 1488,-311 1553.98,-293.08 1630.38,-270.25 1674.16,-256.96"/>
<polygon fill="midnightblue" stroke="midnightblue" points="1675.23,-260.3 1683.78,-254.04 1673.2,-253.6 1675.23,-260.3"/>
</g>
<!-- Node30&#45;&gt;Node24 -->
<g id="edge51" class="edge">
<title>Node30&#45;&gt;Node24</title>
<path fill="none" stroke="midnightblue" d="M820.29,-459.3C864.02,-425.59 1022.57,-303.37 1077.84,-260.77"/>
<polygon fill="midnightblue" stroke="midnightblue" points="1080,-263.52 1085.79,-254.64 1075.73,-257.98 1080,-263.52"/>
</g>
<!-- Node31 -->
<g id="node31" class="node">
<title>Node31</title>
<g id="a_node31"><a xlink:href="ContactFeature_8hpp.html" target="_top" xlink:title="Definition of the ContactFeature class and closely related code.">
<polygon fill="white" stroke="black" points="299,-403.5 299,-422.5 451,-422.5 451,-403.5 299,-403.5"/>
<text text-anchor="middle" x="375" y="-410.5" font-family="Helvetica,sans-Serif" font-size="10.00">playrho/ContactFeature.hpp</text>
</a>
</g>
</g>
<!-- Node30&#45;&gt;Node31 -->
<g id="edge54" class="edge">
<title>Node30&#45;&gt;Node31</title>
<path fill="none" stroke="midnightblue" d="M741.19,-459.56C663.26,-449.87 535.59,-433.98 453.44,-423.76"/>
<polygon fill="midnightblue" stroke="midnightblue" points="453.77,-420.27 443.41,-422.51 452.9,-427.22 453.77,-420.27"/>
</g>
<!-- Node33 -->
<g id="node33" class="node">
<title>Node33</title>
<g id="a_node33"><a xlink:href="UnitVec_8hpp.html" target="_top" xlink:title="Declarations of the UnitVec class and free functions associated with it.">
<polygon fill="white" stroke="black" points="977,-347.5 977,-366.5 1107,-366.5 1107,-347.5 977,-347.5"/>
<text text-anchor="middle" x="1042" y="-354.5" font-family="Helvetica,sans-Serif" font-size="10.00">playrho/d2/UnitVec.hpp</text>
</a>
</g>
</g>
<!-- Node30&#45;&gt;Node33 -->
<g id="edge60" class="edge">
<title>Node30&#45;&gt;Node33</title>
<path fill="none" stroke="midnightblue" d="M827.28,-459.37C868.03,-440.13 966.49,-393.65 1014.61,-370.93"/>
<polygon fill="midnightblue" stroke="midnightblue" points="1016.25,-374.03 1023.8,-366.59 1013.26,-367.7 1016.25,-374.03"/>
</g>
<!-- Node31&#45;&gt;Node17 -->
<g id="edge57" class="edge">
<title>Node31&#45;&gt;Node17</title>
<path fill="none" stroke="midnightblue" d="M383.59,-403.08C391.16,-395.22 402.38,-383.57 411.51,-374.08"/>
<polygon fill="midnightblue" stroke="midnightblue" points="414.16,-376.38 418.57,-366.75 409.12,-371.53 414.16,-376.38"/>
</g>
<!-- Node31&#45;&gt;Node18 -->
<g id="edge55" class="edge">
<title>Node31&#45;&gt;Node18</title>
<path fill="none" stroke="midnightblue" d="M339.07,-403.46C319.5,-396.86 296.75,-385.61 284,-367 250.62,-318.3 258.2,-243.5 264.16,-208.84"/>
<polygon fill="midnightblue" stroke="midnightblue" points="267.66,-209.19 266.06,-198.72 260.78,-207.9 267.66,-209.19"/>
</g>
<!-- Node32 -->
<g id="node32" class="node">
<title>Node32</title>
<g id="a_node32"><a xlink:title=" ">
<polygon fill="white" stroke="#bfbfbf" points="293.5,-347.5 293.5,-366.5 350.5,-366.5 350.5,-347.5 293.5,-347.5"/>
<text text-anchor="middle" x="322" y="-354.5" font-family="Helvetica,sans-Serif" font-size="10.00">ostream</text>
</a>
</g>
</g>
<!-- Node31&#45;&gt;Node32 -->
<g id="edge56" class="edge">
<title>Node31&#45;&gt;Node32</title>
<path fill="none" stroke="midnightblue" d="M366.25,-403.08C358.53,-395.22 347.1,-383.57 337.78,-374.08"/>
<polygon fill="midnightblue" stroke="midnightblue" points="340.09,-371.44 330.59,-366.75 335.1,-376.34 340.09,-371.44"/>
</g>
<!-- Node33&#45;&gt;Node2 -->
<g id="edge71" class="edge">
<title>Node33&#45;&gt;Node2</title>
<path fill="none" stroke="midnightblue" d="M993.2,-347.44C938.79,-337.9 850.83,-322.48 792.71,-312.29"/>
<polygon fill="midnightblue" stroke="midnightblue" points="793.03,-308.8 782.58,-310.52 791.82,-315.69 793.03,-308.8"/>
</g>
<!-- Node33&#45;&gt;Node3 -->
<g id="edge62" class="edge">
<title>Node33&#45;&gt;Node3</title>
<path fill="none" stroke="midnightblue" d="M1015.53,-347.42C996.18,-340.12 970.23,-328.08 952,-311 937.87,-297.77 927.38,-278.1 921.04,-263.87"/>
<polygon fill="midnightblue" stroke="midnightblue" points="924.26,-262.5 917.16,-254.63 917.8,-265.21 924.26,-262.5"/>
</g>
<!-- Node33&#45;&gt;Node4 -->
<g id="edge66" class="edge">
<title>Node33&#45;&gt;Node4</title>
<path fill="none" stroke="midnightblue" d="M1038.66,-347.33C1030.04,-325.89 1005.16,-269.61 969,-235 852.42,-123.42 669.39,-50.16 593.16,-22.91"/>
<polygon fill="midnightblue" stroke="midnightblue" points="594.14,-19.55 583.55,-19.52 591.81,-26.15 594.14,-19.55"/>
</g>
<!-- Node33&#45;&gt;Node5 -->
<g id="edge68" class="edge">
<title>Node33&#45;&gt;Node5</title>
<path fill="none" stroke="midnightblue" d="M1029.8,-347.36C1018.53,-338.97 1001.8,-325.41 990,-311 965.41,-280.97 978.31,-257.93 947,-235 923.01,-217.43 848.03,-204.46 793.82,-197.07"/>
<polygon fill="midnightblue" stroke="midnightblue" points="793.99,-193.56 783.61,-195.71 793.06,-200.5 793.99,-193.56"/>
</g>
<!-- Node33&#45;&gt;Node7 -->
<g id="edge70" class="edge">
<title>Node33&#45;&gt;Node7</title>
<path fill="none" stroke="midnightblue" d="M1042,-347.36C1042,-314.14 1042,-194.16 1042,-147.37"/>
<polygon fill="midnightblue" stroke="midnightblue" points="1045.5,-147.15 1042,-137.15 1038.5,-147.15 1045.5,-147.15"/>
</g>
<!-- Node33&#45;&gt;Node8 -->
<g id="edge63" class="edge">
<title>Node33&#45;&gt;Node8</title>
<path fill="none" stroke="midnightblue" d="M1074.85,-347.46C1118.45,-333.91 1190,-302.99 1190,-246 1190,-246 1190,-246 1190,-188 1190,-136.05 1133.54,-98.61 1097.75,-80.1"/>
<polygon fill="midnightblue" stroke="midnightblue" points="1099.22,-76.92 1088.71,-75.6 1096.1,-83.19 1099.22,-76.92"/>
</g>
<!-- Node33&#45;&gt;Node12 -->
<g id="edge65" class="edge">
<title>Node33&#45;&gt;Node12</title>
<path fill="none" stroke="midnightblue" d="M1107.03,-352.89C1284.5,-343.53 1764,-312.13 1764,-246 1764,-246 1764,-246 1764,-126.5 1764,-36.44 1624.37,-16.58 1559.01,-12.22"/>
<polygon fill="midnightblue" stroke="midnightblue" points="1559.01,-8.71 1548.82,-11.63 1558.6,-15.7 1559.01,-8.71"/>
</g>
<!-- Node33&#45;&gt;Node13 -->
<g id="edge69" class="edge">
<title>Node33&#45;&gt;Node13</title>
<path fill="none" stroke="midnightblue" d="M1017.16,-347.46C960.56,-328.01 821.94,-280.36 756.84,-257.98"/>
<polygon fill="midnightblue" stroke="midnightblue" points="757.64,-254.55 747.05,-254.61 755.37,-261.17 757.64,-254.55"/>
</g>
<!-- Node33&#45;&gt;Node22 -->
<g id="edge72" class="edge">
<title>Node33&#45;&gt;Node22</title>
<path fill="none" stroke="midnightblue" d="M1078.44,-347.44C1118.4,-338.06 1182.59,-322.99 1225.98,-312.8"/>
<polygon fill="midnightblue" stroke="midnightblue" points="1226.79,-316.21 1235.73,-310.52 1225.19,-309.39 1226.79,-316.21"/>
</g>
<!-- Node33&#45;&gt;Node23 -->
<g id="edge61" class="edge">
<title>Node33&#45;&gt;Node23</title>
<path fill="none" stroke="midnightblue" d="M1107.18,-350.37C1183.45,-343.31 1313.4,-329.8 1424,-311 1533.49,-292.39 1562.25,-282.26 1673.69,-255.28"/>
<polygon fill="midnightblue" stroke="midnightblue" points="1674.75,-258.62 1683.65,-252.87 1673.11,-251.82 1674.75,-258.62"/>
</g>
<!-- Node33&#45;&gt;Node25 -->
<g id="edge64" class="edge">
<title>Node33&#45;&gt;Node25</title>
<path fill="none" stroke="midnightblue" d="M1107.14,-352.11C1167.47,-347.09 1259.06,-335.83 1335,-311 1373.38,-298.45 1414.24,-275.06 1438.42,-260.02"/>
<polygon fill="midnightblue" stroke="midnightblue" points="1440.54,-262.82 1447.13,-254.52 1436.8,-256.91 1440.54,-262.82"/>
</g>
<!-- Node33&#45;&gt;Node27 -->
<g id="edge67" class="edge">
<title>Node33&#45;&gt;Node27</title>
<path fill="none" stroke="midnightblue" d="M1107.03,-350.2C1173.97,-343.51 1281.04,-330.82 1372,-311 1437.29,-296.77 1511.51,-272.47 1553.45,-257.95"/>
<polygon fill="midnightblue" stroke="midnightblue" points="1554.85,-261.17 1563.14,-254.57 1552.55,-254.56 1554.85,-261.17"/>
</g>
</g>
</svg>
        <g id="navigator" transform="translate(0 0)" fill="#404254">
                <rect fill="#f2f5e9" fill-opacity="0.5" stroke="#606060" stroke-width=".5" x="0" y="0" width="60" height="60"/>
                <use id="zoomplus" xlink:href="#zoomPlus" x="17" y="9" onmousedown="handleZoom(evt,'in')"/>
                <use id="zoomminus" xlink:href="#zoomMin" x="42" y="9" onmousedown="handleZoom(evt,'out')"/>
                <use id="reset" xlink:href="#resetDef" x="30" y="36" onmousedown="handleReset()"/>
                <g id="arrowUp" xlink:href="#dirArrow" transform="translate(30 24)" onmousedown="handlePan(0,-1)">
                  <use xlink:href="#rim" fill="#404040">
                        <set attributeName="fill" to="#808080" begin="arrowUp.mouseover" end="arrowUp.mouseout"/>
                  </use>
                  <path fill="none" stroke="white" stroke-width="1.5" d="M0,-3.0v7 M-2.5,-0.5L0,-3.0L2.5,-0.5"/>
                </g>
                <g id="arrowRight" xlink:href="#dirArrow" transform="rotate(90) translate(36 -43)" onmousedown="handlePan(1,0)">
                  <use xlink:href="#rim" fill="#404040">
                        <set attributeName="fill" to="#808080" begin="arrowRight.mouseover" end="arrowRight.mouseout"/>
                  </use>
                  <path fill="none" stroke="white" stroke-width="1.5" d="M0,-3.0v7 M-2.5,-0.5L0,-3.0L2.5,-0.5"/>
                </g>
                <g id="arrowDown" xlink:href="#dirArrow" transform="rotate(180) translate(-30 -48)" onmousedown="handlePan(0,1)">
                  <use xlink:href="#rim" fill="#404040">
                        <set attributeName="fill" to="#808080" begin="arrowDown.mouseover" end="arrowDown.mouseout"/>
                  </use>
                  <path fill="none" stroke="white" stroke-width="1.5" d="M0,-3.0v7 M-2.5,-0.5L0,-3.0L2.5,-0.5"/>
                </g>
                <g id="arrowLeft" xlink:href="#dirArrow" transform="rotate(270) translate(-36 17)" onmousedown="handlePan(-1,0)">
                  <use xlink:href="#rim" fill="#404040">
                        <set attributeName="fill" to="#808080" begin="arrowLeft.mouseover" end="arrowLeft.mouseout"/>
                  </use>
                  <path fill="none" stroke="white" stroke-width="1.5" d="M0,-3.0v7 M-2.5,-0.5L0,-3.0L2.5,-0.5"/>
                </g>
        </g>
        <svg viewBox="0 0 15 15" width="100%" height="30px" preserveAspectRatio="xMaxYMin meet">
         <g id="arrow_out" transform="scale(0.3 0.3)">
          <a xlink:href="PositionSolverManifold_8hpp__incl_org.svg" target="_base">
           <rect id="button" ry="5" rx="5" y="6" x="6" height="38" width="38"
                fill="#f2f5e9" fill-opacity="0.5" stroke="#606060" stroke-width="1.0"/>
           <path id="arrow"
             d="M 11.500037,31.436501 C 11.940474,20.09759 22.043105,11.32322 32.158766,21.979434 L 37.068811,17.246167 C 37.068811,17.246167 37.088388,32 37.088388,32 L 22.160133,31.978069 C 22.160133,31.978069 26.997745,27.140456 26.997745,27.140456 C 18.528582,18.264221 13.291696,25.230495 11.500037,31.436501 z"
             style="fill:#404040;"/>
          </a>
         </g>
        </svg>
</svg>
