<?xml version="1.0" encoding="UTF-8" standalone="no"?>
<!DOCTYPE svg PUBLIC "-//W3C//DTD SVG 1.1//EN"
 "http://www.w3.org/Graphics/SVG/1.1/DTD/svg11.dtd">
<!-- Generated by graphviz version 2.43.0 (0)
 -->
<!-- Title: Library/include/playrho/Positive.hpp Pages: 1 -->
<svg width="714pt" height="263pt"
 viewBox="0.00 0.00 713.50 263.00" xmlns="http://www.w3.org/2000/svg" xmlns:xlink="http://www.w3.org/1999/xlink">
<g id="graph0" class="graph" transform="scale(1 1) rotate(0) translate(4 259)">
<title>Library/include/playrho/Positive.hpp</title>
<polygon fill="white" stroke="transparent" points="-4,4 -4,-259 709.5,-259 709.5,4 -4,4"/>
<!-- Node1 -->
<g id="node1" class="node">
<title>Node1</title>
<g id="a_node1"><a xlink:title="Definition of the Positive value checked types and related code.">
<polygon fill="#bfbfbf" stroke="black" points="100,-224.5 100,-254.5 228,-254.5 228,-224.5 100,-224.5"/>
<text text-anchor="start" x="108" y="-242.5" font-family="Helvetica,sans-Serif" font-size="10.00">Library/include/playrho</text>
<text text-anchor="middle" x="164" y="-231.5" font-family="Helvetica,sans-Serif" font-size="10.00">/Positive.hpp</text>
</a>
</g>
</g>
<!-- Node2 -->
<g id="node2" class="node">
<title>Node2</title>
<g id="a_node2"><a xlink:title=" ">
<polygon fill="white" stroke="#bfbfbf" points="0,-168.5 0,-187.5 44,-187.5 44,-168.5 0,-168.5"/>
<text text-anchor="middle" x="22" y="-175.5" font-family="Helvetica,sans-Serif" font-size="10.00">limits</text>
</a>
</g>
</g>
<!-- Node1&#45;&gt;Node2 -->
<g id="edge1" class="edge">
<title>Node1&#45;&gt;Node2</title>
<path fill="none" stroke="midnightblue" d="M130.35,-224.4C106.52,-214.42 74.85,-201.15 51.91,-191.53"/>
<polygon fill="midnightblue" stroke="midnightblue" points="53.24,-188.29 42.66,-187.66 50.53,-194.75 53.24,-188.29"/>
</g>
<!-- Node3 -->
<g id="node3" class="node">
<title>Node3</title>
<g id="a_node3"><a xlink:title=" ">
<polygon fill="white" stroke="#bfbfbf" points="333.5,-0.5 333.5,-19.5 402.5,-19.5 402.5,-0.5 333.5,-0.5"/>
<text text-anchor="middle" x="368" y="-7.5" font-family="Helvetica,sans-Serif" font-size="10.00">type_traits</text>
</a>
</g>
</g>
<!-- Node1&#45;&gt;Node3 -->
<g id="edge2" class="edge">
<title>Node1&#45;&gt;Node3</title>
<path fill="none" stroke="midnightblue" d="M144.86,-224.18C115.51,-200.43 65.36,-151.58 91,-112 141.22,-34.47 258.28,-16.06 322.99,-11.94"/>
<polygon fill="midnightblue" stroke="midnightblue" points="323.5,-15.42 333.29,-11.38 323.11,-8.43 323.5,-15.42"/>
</g>
<!-- Node4 -->
<g id="node4" class="node">
<title>Node4</title>
<g id="a_node4"><a xlink:href="Checked_8hpp.html" target="_top" xlink:title="Declarations of the Checked class template and closely related code.">
<polygon fill="white" stroke="black" points="182.5,-168.5 182.5,-187.5 331.5,-187.5 331.5,-168.5 182.5,-168.5"/>
<text text-anchor="middle" x="257" y="-175.5" font-family="Helvetica,sans-Serif" font-size="10.00">playrho/detail/Checked.hpp</text>
</a>
</g>
</g>
<!-- Node1&#45;&gt;Node4 -->
<g id="edge3" class="edge">
<title>Node1&#45;&gt;Node4</title>
<path fill="none" stroke="midnightblue" d="M186.04,-224.4C200.81,-214.95 220.18,-202.56 234.95,-193.11"/>
<polygon fill="midnightblue" stroke="midnightblue" points="236.93,-196 243.47,-187.66 233.16,-190.1 236.93,-196"/>
</g>
<!-- Node15 -->
<g id="node15" class="node">
<title>Node15</title>
<g id="a_node15"><a xlink:href="PositiveChecker_8hpp.html" target="_top" xlink:title="Definition of the PositiveChecker class template.">
<polygon fill="white" stroke="black" points="349.5,-168.5 349.5,-187.5 534.5,-187.5 534.5,-168.5 349.5,-168.5"/>
<text text-anchor="middle" x="442" y="-175.5" font-family="Helvetica,sans-Serif" font-size="10.00">playrho/detail/PositiveChecker.hpp</text>
</a>
</g>
</g>
<!-- Node1&#45;&gt;Node15 -->
<g id="edge18" class="edge">
<title>Node1&#45;&gt;Node15</title>
<path fill="none" stroke="midnightblue" d="M228.13,-224.77C278.07,-214.09 346.39,-199.46 392.25,-189.65"/>
<polygon fill="midnightblue" stroke="midnightblue" points="393.21,-193.02 402.25,-187.51 391.74,-186.18 393.21,-193.02"/>
</g>
<!-- Node4&#45;&gt;Node3 -->
<g id="edge5" class="edge">
<title>Node4&#45;&gt;Node3</title>
<path fill="none" stroke="midnightblue" d="M288.95,-168.47C308.1,-161.7 331.32,-150.26 345,-132 367.68,-101.73 370,-55.51 369.27,-29.84"/>
<polygon fill="midnightblue" stroke="midnightblue" points="372.75,-29.45 368.78,-19.63 365.76,-29.78 372.75,-29.45"/>
</g>
<!-- Node5 -->
<g id="node5" class="node">
<title>Node5</title>
<g id="a_node5"><a xlink:title=" ">
<polygon fill="white" stroke="#bfbfbf" points="100,-112.5 100,-131.5 160,-131.5 160,-112.5 100,-112.5"/>
<text text-anchor="middle" x="130" y="-119.5" font-family="Helvetica,sans-Serif" font-size="10.00">iostream</text>
</a>
</g>
</g>
<!-- Node4&#45;&gt;Node5 -->
<g id="edge4" class="edge">
<title>Node4&#45;&gt;Node5</title>
<path fill="none" stroke="midnightblue" d="M236.88,-168.44C215.98,-159.56 183.07,-145.56 159.28,-135.45"/>
<polygon fill="midnightblue" stroke="midnightblue" points="160.6,-132.21 150.03,-131.52 157.86,-138.65 160.6,-132.21"/>
</g>
<!-- Node6 -->
<g id="node6" class="node">
<title>Node6</title>
<g id="a_node6"><a xlink:title=" ">
<polygon fill="white" stroke="#bfbfbf" points="660.5,-0.5 660.5,-19.5 705.5,-19.5 705.5,-0.5 660.5,-0.5"/>
<text text-anchor="middle" x="683" y="-7.5" font-family="Helvetica,sans-Serif" font-size="10.00">utility</text>
</a>
</g>
</g>
<!-- Node4&#45;&gt;Node6 -->
<g id="edge6" class="edge">
<title>Node4&#45;&gt;Node6</title>
<path fill="none" stroke="midnightblue" d="M318.53,-168.49C386.22,-158.84 490.52,-143.01 529,-132 591.45,-114.14 620.63,-124.36 664,-76 675.4,-63.29 679.98,-44.09 681.81,-29.85"/>
<polygon fill="midnightblue" stroke="midnightblue" points="685.31,-30 682.76,-19.71 678.34,-29.34 685.31,-30"/>
</g>
<!-- Node7 -->
<g id="node7" class="node">
<title>Node7</title>
<g id="a_node7"><a xlink:href="InvalidArgument_8hpp.html" target="_top" xlink:title="Definition of the InvalidArgument class.">
<polygon fill="white" stroke="black" points="178,-112.5 178,-131.5 336,-131.5 336,-112.5 178,-112.5"/>
<text text-anchor="middle" x="257" y="-119.5" font-family="Helvetica,sans-Serif" font-size="10.00">playrho/InvalidArgument.hpp</text>
</a>
</g>
</g>
<!-- Node4&#45;&gt;Node7 -->
<g id="edge7" class="edge">
<title>Node4&#45;&gt;Node7</title>
<path fill="none" stroke="midnightblue" d="M257,-168.08C257,-161.01 257,-150.86 257,-141.99"/>
<polygon fill="midnightblue" stroke="midnightblue" points="260.5,-141.75 257,-131.75 253.5,-141.75 260.5,-141.75"/>
</g>
<!-- Node9 -->
<g id="node9" class="node">
<title>Node9</title>
<g id="a_node9"><a xlink:href="Templates_8hpp.html" target="_top" xlink:title="Definitions of miscellaneous template related code.">
<polygon fill="white" stroke="black" points="392,-112.5 392,-131.5 520,-131.5 520,-112.5 392,-112.5"/>
<text text-anchor="middle" x="456" y="-119.5" font-family="Helvetica,sans-Serif" font-size="10.00">playrho/Templates.hpp</text>
</a>
</g>
</g>
<!-- Node4&#45;&gt;Node9 -->
<g id="edge9" class="edge">
<title>Node4&#45;&gt;Node9</title>
<path fill="none" stroke="midnightblue" d="M288.53,-168.44C322.59,-159.2 377.01,-144.44 414.52,-134.26"/>
<polygon fill="midnightblue" stroke="midnightblue" points="415.88,-137.51 424.62,-131.52 414.05,-130.76 415.88,-137.51"/>
</g>
<!-- Node8 -->
<g id="node8" class="node">
<title>Node8</title>
<g id="a_node8"><a xlink:title=" ">
<polygon fill="white" stroke="#bfbfbf" points="224.5,-56.5 224.5,-75.5 289.5,-75.5 289.5,-56.5 224.5,-56.5"/>
<text text-anchor="middle" x="257" y="-63.5" font-family="Helvetica,sans-Serif" font-size="10.00">stdexcept</text>
</a>
</g>
</g>
<!-- Node7&#45;&gt;Node8 -->
<g id="edge8" class="edge">
<title>Node7&#45;&gt;Node8</title>
<path fill="none" stroke="midnightblue" d="M257,-112.08C257,-105.01 257,-94.86 257,-85.99"/>
<polygon fill="midnightblue" stroke="midnightblue" points="260.5,-85.75 257,-75.75 253.5,-85.75 260.5,-85.75"/>
</g>
<!-- Node9&#45;&gt;Node3 -->
<g id="edge11" class="edge">
<title>Node9&#45;&gt;Node3</title>
<path fill="none" stroke="midnightblue" d="M449.09,-112.37C434.51,-94.14 400.34,-51.43 381.34,-27.68"/>
<polygon fill="midnightblue" stroke="midnightblue" points="383.85,-25.21 374.87,-19.59 378.39,-29.59 383.85,-25.21"/>
</g>
<!-- Node10 -->
<g id="node10" class="node">
<title>Node10</title>
<g id="a_node10"><a xlink:title=" ">
<polygon fill="white" stroke="#bfbfbf" points="430.5,-56.5 430.5,-75.5 479.5,-75.5 479.5,-56.5 430.5,-56.5"/>
<text text-anchor="middle" x="455" y="-63.5" font-family="Helvetica,sans-Serif" font-size="10.00">cstdlib</text>
</a>
</g>
</g>
<!-- Node9&#45;&gt;Node10 -->
<g id="edge10" class="edge">
<title>Node9&#45;&gt;Node10</title>
<path fill="none" stroke="midnightblue" d="M455.83,-112.08C455.7,-105.01 455.52,-94.86 455.35,-85.99"/>
<polygon fill="midnightblue" stroke="midnightblue" points="458.85,-85.68 455.16,-75.75 451.85,-85.81 458.85,-85.68"/>
</g>
<!-- Node11 -->
<g id="node11" class="node">
<title>Node11</title>
<g id="a_node11"><a xlink:href="detail_2Templates_8hpp.html" target="_top" xlink:title="Low&#45;level declarations for general class &amp; function templates.">
<polygon fill="white" stroke="black" points="497,-56.5 497,-75.5 655,-75.5 655,-56.5 497,-56.5"/>
<text text-anchor="middle" x="576" y="-63.5" font-family="Helvetica,sans-Serif" font-size="10.00">playrho/detail/Templates.hpp</text>
</a>
</g>
</g>
<!-- Node9&#45;&gt;Node11 -->
<g id="edge12" class="edge">
<title>Node9&#45;&gt;Node11</title>
<path fill="none" stroke="midnightblue" d="M475.01,-112.44C494.59,-103.64 525.31,-89.81 547.73,-79.72"/>
<polygon fill="midnightblue" stroke="midnightblue" points="549.39,-82.81 557.07,-75.52 546.52,-76.43 549.39,-82.81"/>
</g>
<!-- Node11&#45;&gt;Node3 -->
<g id="edge16" class="edge">
<title>Node11&#45;&gt;Node3</title>
<path fill="none" stroke="midnightblue" d="M543.04,-56.44C507.21,-47.14 449.84,-32.25 410.61,-22.06"/>
<polygon fill="midnightblue" stroke="midnightblue" points="411.36,-18.64 400.8,-19.52 409.6,-25.42 411.36,-18.64"/>
</g>
<!-- Node11&#45;&gt;Node6 -->
<g id="edge17" class="edge">
<title>Node11&#45;&gt;Node6</title>
<path fill="none" stroke="midnightblue" d="M593.19,-56.32C610.35,-47.66 636.95,-34.24 656.75,-24.25"/>
<polygon fill="midnightblue" stroke="midnightblue" points="658.5,-27.28 665.85,-19.65 655.35,-21.04 658.5,-27.28"/>
</g>
<!-- Node12 -->
<g id="node12" class="node">
<title>Node12</title>
<g id="a_node12"><a xlink:title=" ">
<polygon fill="white" stroke="#bfbfbf" points="495,-0.5 495,-19.5 559,-19.5 559,-0.5 495,-0.5"/>
<text text-anchor="middle" x="527" y="-7.5" font-family="Helvetica,sans-Serif" font-size="10.00">algorithm</text>
</a>
</g>
</g>
<!-- Node11&#45;&gt;Node12 -->
<g id="edge13" class="edge">
<title>Node11&#45;&gt;Node12</title>
<path fill="none" stroke="midnightblue" d="M567.91,-56.08C560.84,-48.3 550.41,-36.8 541.85,-27.37"/>
<polygon fill="midnightblue" stroke="midnightblue" points="544.25,-24.8 534.94,-19.75 539.07,-29.51 544.25,-24.8"/>
</g>
<!-- Node13 -->
<g id="node13" class="node">
<title>Node13</title>
<g id="a_node13"><a xlink:title=" ">
<polygon fill="white" stroke="#bfbfbf" points="577.5,-0.5 577.5,-19.5 642.5,-19.5 642.5,-0.5 577.5,-0.5"/>
<text text-anchor="middle" x="610" y="-7.5" font-family="Helvetica,sans-Serif" font-size="10.00">functional</text>
</a>
</g>
</g>
<!-- Node11&#45;&gt;Node13 -->
<g id="edge14" class="edge">
<title>Node11&#45;&gt;Node13</title>
<path fill="none" stroke="midnightblue" d="M581.61,-56.08C586.37,-48.53 593.32,-37.49 599.15,-28.23"/>
<polygon fill="midnightblue" stroke="midnightblue" points="602.12,-30.08 604.49,-19.75 596.2,-26.35 602.12,-30.08"/>
</g>
<!-- Node14 -->
<g id="node14" class="node">
<title>Node14</title>
<g id="a_node14"><a xlink:title=" ">
<polygon fill="white" stroke="#bfbfbf" points="423.5,-0.5 423.5,-19.5 476.5,-19.5 476.5,-0.5 423.5,-0.5"/>
<text text-anchor="middle" x="450" y="-7.5" font-family="Helvetica,sans-Serif" font-size="10.00">iterator</text>
</a>
</g>
</g>
<!-- Node11&#45;&gt;Node14 -->
<g id="edge15" class="edge">
<title>Node11&#45;&gt;Node14</title>
<path fill="none" stroke="midnightblue" d="M556.03,-56.44C535.39,-47.6 502.94,-33.69 479.37,-23.59"/>
<polygon fill="midnightblue" stroke="midnightblue" points="480.44,-20.24 469.87,-19.52 477.68,-26.67 480.44,-20.24"/>
</g>
</g>
</svg>
