<?xml version="1.0" encoding="UTF-8" standalone="no"?>
<!DOCTYPE svg PUBLIC "-//W3C//DTD SVG 1.1//EN"
 "http://www.w3.org/Graphics/SVG/1.1/DTD/svg11.dtd">
<!-- Generated by graphviz version 2.43.0 (0)
 -->
<!-- Title: Library/include/playrho/d2/Position.hpp Pages: 1 -->
<!--zoomable 498 -->
<svg id="main" version="1.1" xmlns="http://www.w3.org/2000/svg" xmlns:xlink="http://www.w3.org/1999/xlink" xml:space="preserve" onload="init(evt)">
<style type="text/css"><![CDATA[
.edge:hover path { stroke: red; }
.edge:hover polygon { stroke: red; fill: red; }
]]></style>
<script type="text/javascript"><![CDATA[
var edges = document.getElementsByTagName('g');
if (edges && edges.length) {
  for (var i=0;i<edges.length;i++) {
    if (edges[i].id.substr(0,4)=='edge') {
      edges[i].setAttribute('class','edge');
    }
  }
}
]]></script>
        <defs>
                <circle id="rim" cx="0" cy="0" r="7"/>
                <circle id="rim2" cx="0" cy="0" r="3.5"/>
                <g id="zoomPlus">
                        <use xlink:href="#rim" fill="#404040">
                                <set attributeName="fill" to="#808080" begin="zoomplus.mouseover" end="zoomplus.mouseout"/>
                        </use>
                        <path d="M-4,0h8M0,-4v8" fill="none" stroke="white" stroke-width="1.5" pointer-events="none"/>
                </g>
                <g id="zoomMin">
                        <use xlink:href="#rim" fill="#404040">
                                <set attributeName="fill" to="#808080" begin="zoomminus.mouseover" end="zoomminus.mouseout"/>
                        </use>
                        <path d="M-4,0h8" fill="none" stroke="white" stroke-width="1.5" pointer-events="none"/>
                </g>
                <g id="dirArrow">
                        <path fill="none" stroke="white" stroke-width="1.5" d="M0,-3.0v7 M-2.5,-0.5L0,-3.0L2.5,-0.5"/>
                </g>
               <g id="resetDef">
                       <use xlink:href="#rim2" fill="#404040">
                               <set attributeName="fill" to="#808080" begin="reset.mouseover" end="reset.mouseout"/>
                       </use>
               </g>
        </defs>

<script type="text/javascript">
var viewWidth = 1468;
var viewHeight = 498;
var sectionId = 'dynsection-0';
</script>
<script xlink:href="svgpan.js"/>
<svg id="graph" class="graph">
<g id="viewport">
<title>Library/include/playrho/d2/Position.hpp</title>
<polygon fill="white" stroke="transparent" points="-4,4 -4,-494 1464.11,-494 1464.11,4 -4,4"/>
<!-- Node1 -->
<g id="node1" class="node">
<title>Node1</title>
<g id="a_node1"><a xlink:title="Definition of the Position class and closely related code.">
<polygon fill="#bfbfbf" stroke="black" points="776,-459.5 776,-489.5 904,-489.5 904,-459.5 776,-459.5"/>
<text text-anchor="start" x="784" y="-477.5" font-family="Helvetica,sans-Serif" font-size="10.00">Library/include/playrho</text>
<text text-anchor="middle" x="840" y="-466.5" font-family="Helvetica,sans-Serif" font-size="10.00">/d2/Position.hpp</text>
</a>
</g>
</g>
<!-- Node2 -->
<g id="node2" class="node">
<title>Node2</title>
<g id="a_node2"><a xlink:href="Settings_8hpp.html" target="_top" xlink:title="Types and default settings file.">
<polygon fill="white" stroke="black" points="667.5,-347.5 667.5,-366.5 784.5,-366.5 784.5,-347.5 667.5,-347.5"/>
<text text-anchor="middle" x="726" y="-354.5" font-family="Helvetica,sans-Serif" font-size="10.00">playrho/Settings.hpp</text>
</a>
</g>
</g>
<!-- Node1&#45;&gt;Node2 -->
<g id="edge1" class="edge">
<title>Node1&#45;&gt;Node2</title>
<path fill="none" stroke="midnightblue" d="M818.55,-459.42C805,-449.98 787.55,-436.79 774,-423 759.46,-408.21 745.7,-388.82 736.67,-375.07"/>
<polygon fill="midnightblue" stroke="midnightblue" points="739.57,-373.12 731.23,-366.59 733.68,-376.9 739.57,-373.12"/>
</g>
<!-- Node13 -->
<g id="node13" class="node">
<title>Node13</title>
<g id="a_node13"><a xlink:href="Templates_8hpp.html" target="_top" xlink:title="Definitions of miscellaneous template related code.">
<polygon fill="white" stroke="black" points="735,-123.5 735,-142.5 863,-142.5 863,-123.5 735,-123.5"/>
<text text-anchor="middle" x="799" y="-130.5" font-family="Helvetica,sans-Serif" font-size="10.00">playrho/Templates.hpp</text>
</a>
</g>
</g>
<!-- Node1&#45;&gt;Node13 -->
<g id="edge34" class="edge">
<title>Node1&#45;&gt;Node13</title>
<path fill="none" stroke="midnightblue" d="M904.2,-468.22C1062.55,-454.34 1459,-413.99 1459,-358 1459,-358 1459,-358 1459,-244 1459,-213.9 1463.44,-197.88 1440,-179 1396.76,-144.15 1032.96,-136.29 873.45,-134.52"/>
<polygon fill="midnightblue" stroke="midnightblue" points="873.28,-131.01 863.24,-134.41 873.2,-138.01 873.28,-131.01"/>
</g>
<!-- Node24 -->
<g id="node24" class="node">
<title>Node24</title>
<g id="a_node24"><a xlink:href="Vector2_8hpp.html" target="_top" xlink:title="Definition of the Vector2 alias template and closely related code.">
<polygon fill="white" stroke="black" points="783,-403.5 783,-422.5 897,-422.5 897,-403.5 783,-403.5"/>
<text text-anchor="middle" x="840" y="-410.5" font-family="Helvetica,sans-Serif" font-size="10.00">playrho/Vector2.hpp</text>
</a>
</g>
</g>
<!-- Node1&#45;&gt;Node24 -->
<g id="edge35" class="edge">
<title>Node1&#45;&gt;Node24</title>
<path fill="none" stroke="midnightblue" d="M840,-459.4C840,-451.47 840,-441.46 840,-432.86"/>
<polygon fill="midnightblue" stroke="midnightblue" points="843.5,-432.66 840,-422.66 836.5,-432.66 843.5,-432.66"/>
</g>
<!-- Node3 -->
<g id="node3" class="node">
<title>Node3</title>
<g id="a_node3"><a xlink:title=" ">
<polygon fill="white" stroke="#bfbfbf" points="913,-0.5 913,-19.5 977,-19.5 977,-0.5 913,-0.5"/>
<text text-anchor="middle" x="945" y="-7.5" font-family="Helvetica,sans-Serif" font-size="10.00">algorithm</text>
</a>
</g>
</g>
<!-- Node2&#45;&gt;Node3 -->
<g id="edge2" class="edge">
<title>Node2&#45;&gt;Node3</title>
<path fill="none" stroke="midnightblue" d="M732.35,-347.39C739.01,-338.35 749.78,-323.7 759,-311 801.48,-252.52 810.61,-236.81 854,-179 885.17,-137.48 903.2,-133.65 926,-87 934.94,-68.71 939.92,-45.83 942.51,-29.98"/>
<polygon fill="midnightblue" stroke="midnightblue" points="946.01,-30.24 944.01,-19.84 939.09,-29.23 946.01,-30.24"/>
</g>
<!-- Node4 -->
<g id="node4" class="node">
<title>Node4</title>
<g id="a_node4"><a xlink:title=" ">
<polygon fill="white" stroke="#bfbfbf" points="863.5,-179.5 863.5,-198.5 916.5,-198.5 916.5,-179.5 863.5,-179.5"/>
<text text-anchor="middle" x="890" y="-186.5" font-family="Helvetica,sans-Serif" font-size="10.00">cstddef</text>
</a>
</g>
</g>
<!-- Node2&#45;&gt;Node4 -->
<g id="edge3" class="edge">
<title>Node2&#45;&gt;Node4</title>
<path fill="none" stroke="midnightblue" d="M751.34,-347.37C770.6,-339.91 796.94,-327.69 816,-311 849.38,-281.77 872.43,-233.75 883.16,-207.87"/>
<polygon fill="midnightblue" stroke="midnightblue" points="886.42,-209.12 886.88,-198.53 879.92,-206.52 886.42,-209.12"/>
</g>
<!-- Node5 -->
<g id="node5" class="node">
<title>Node5</title>
<g id="a_node5"><a xlink:title=" ">
<polygon fill="white" stroke="#bfbfbf" points="935,-179.5 935,-198.5 987,-198.5 987,-179.5 935,-179.5"/>
<text text-anchor="middle" x="961" y="-186.5" font-family="Helvetica,sans-Serif" font-size="10.00">cassert</text>
</a>
</g>
</g>
<!-- Node2&#45;&gt;Node5 -->
<g id="edge4" class="edge">
<title>Node2&#45;&gt;Node5</title>
<path fill="none" stroke="midnightblue" d="M757.66,-347.35C781.51,-339.95 814.38,-327.81 840,-311 885.55,-281.11 927.93,-231.96 948.31,-206.47"/>
<polygon fill="midnightblue" stroke="midnightblue" points="951.14,-208.54 954.57,-198.52 945.64,-204.21 951.14,-208.54"/>
</g>
<!-- Node6 -->
<g id="node6" class="node">
<title>Node6</title>
<g id="a_node6"><a xlink:title=" ">
<polygon fill="white" stroke="#bfbfbf" points="0,-291.5 0,-310.5 44,-310.5 44,-291.5 0,-291.5"/>
<text text-anchor="middle" x="22" y="-298.5" font-family="Helvetica,sans-Serif" font-size="10.00">cfloat</text>
</a>
</g>
</g>
<!-- Node2&#45;&gt;Node6 -->
<g id="edge5" class="edge">
<title>Node2&#45;&gt;Node6</title>
<path fill="none" stroke="midnightblue" d="M667.43,-356.31C551.62,-356.01 285.27,-350.78 54.15,-310.82"/>
<polygon fill="midnightblue" stroke="midnightblue" points="54.67,-307.35 44.22,-309.07 53.46,-314.25 54.67,-307.35"/>
</g>
<!-- Node7 -->
<g id="node7" class="node">
<title>Node7</title>
<g id="a_node7"><a xlink:title=" ">
<polygon fill="white" stroke="#bfbfbf" points="246.5,-235.5 246.5,-254.5 293.5,-254.5 293.5,-235.5 246.5,-235.5"/>
<text text-anchor="middle" x="270" y="-242.5" font-family="Helvetica,sans-Serif" font-size="10.00">cmath</text>
</a>
</g>
</g>
<!-- Node2&#45;&gt;Node7 -->
<g id="edge6" class="edge">
<title>Node2&#45;&gt;Node7</title>
<path fill="none" stroke="midnightblue" d="M667.4,-352.14C604.7,-346.93 502.8,-335.33 418,-311 372.92,-298.06 323.63,-274.32 294.84,-259.39"/>
<polygon fill="midnightblue" stroke="midnightblue" points="296.37,-256.24 285.89,-254.69 293.12,-262.44 296.37,-256.24"/>
</g>
<!-- Node8 -->
<g id="node8" class="node">
<title>Node8</title>
<g id="a_node8"><a xlink:title=" ">
<polygon fill="white" stroke="#bfbfbf" points="112,-179.5 112,-198.5 162,-198.5 162,-179.5 112,-179.5"/>
<text text-anchor="middle" x="137" y="-186.5" font-family="Helvetica,sans-Serif" font-size="10.00">cstdint</text>
</a>
</g>
</g>
<!-- Node2&#45;&gt;Node8 -->
<g id="edge7" class="edge">
<title>Node2&#45;&gt;Node8</title>
<path fill="none" stroke="midnightblue" d="M667.24,-354.27C594.02,-350.86 465.68,-340.79 360,-311 302.19,-294.7 289.66,-283.89 237,-255 208.35,-239.28 177.02,-218.24 157.2,-204.41"/>
<polygon fill="midnightblue" stroke="midnightblue" points="159.15,-201.5 148.95,-198.61 155.12,-207.23 159.15,-201.5"/>
</g>
<!-- Node9 -->
<g id="node9" class="node">
<title>Node9</title>
<g id="a_node9"><a xlink:title=" ">
<polygon fill="white" stroke="#bfbfbf" points="619,-123.5 619,-142.5 663,-142.5 663,-123.5 619,-123.5"/>
<text text-anchor="middle" x="641" y="-130.5" font-family="Helvetica,sans-Serif" font-size="10.00">limits</text>
</a>
</g>
</g>
<!-- Node2&#45;&gt;Node9 -->
<g id="edge8" class="edge">
<title>Node2&#45;&gt;Node9</title>
<path fill="none" stroke="midnightblue" d="M727.22,-347.32C729.76,-325.85 733.32,-269.48 707,-235 683.35,-204 648.17,-231.74 627,-199 617.82,-184.8 623.73,-165.58 630.46,-151.72"/>
<polygon fill="midnightblue" stroke="midnightblue" points="633.64,-153.19 635.31,-142.73 627.48,-149.87 633.64,-153.19"/>
</g>
<!-- Node10 -->
<g id="node10" class="node">
<title>Node10</title>
<g id="a_node10"><a xlink:href="RealConstants_8hpp.html" target="_top" xlink:title="Definitions file for constant expressions of type Real.">
<polygon fill="white" stroke="black" points="550,-235.5 550,-254.5 698,-254.5 698,-235.5 550,-235.5"/>
<text text-anchor="middle" x="624" y="-242.5" font-family="Helvetica,sans-Serif" font-size="10.00">playrho/RealConstants.hpp</text>
</a>
</g>
</g>
<!-- Node2&#45;&gt;Node10 -->
<g id="edge9" class="edge">
<title>Node2&#45;&gt;Node10</title>
<path fill="none" stroke="midnightblue" d="M718,-347.37C700.94,-328.97 660.79,-285.67 638.88,-262.05"/>
<polygon fill="midnightblue" stroke="midnightblue" points="641.33,-259.54 631.97,-254.59 636.2,-264.3 641.33,-259.54"/>
</g>
<!-- Node2&#45;&gt;Node13 -->
<g id="edge20" class="edge">
<title>Node2&#45;&gt;Node13</title>
<path fill="none" stroke="midnightblue" d="M728.86,-347.3C739.63,-314.56 777.83,-198.38 792.86,-152.67"/>
<polygon fill="midnightblue" stroke="midnightblue" points="796.28,-153.48 796.08,-142.88 789.63,-151.29 796.28,-153.48"/>
</g>
<!-- Node19 -->
<g id="node19" class="node">
<title>Node19</title>
<g id="a_node19"><a xlink:href="Units_8hpp.html" target="_top" xlink:title="Declarations for physical units possibly backed by strong types.">
<polygon fill="white" stroke="black" points="427.5,-291.5 427.5,-310.5 530.5,-310.5 530.5,-291.5 427.5,-291.5"/>
<text text-anchor="middle" x="479" y="-298.5" font-family="Helvetica,sans-Serif" font-size="10.00">playrho/Units.hpp</text>
</a>
</g>
</g>
<!-- Node2&#45;&gt;Node19 -->
<g id="edge21" class="edge">
<title>Node2&#45;&gt;Node19</title>
<path fill="none" stroke="midnightblue" d="M686.86,-347.44C643.77,-338.02 574.44,-322.87 527.83,-312.68"/>
<polygon fill="midnightblue" stroke="midnightblue" points="528.47,-309.23 517.95,-310.52 526.98,-316.07 528.47,-309.23"/>
</g>
<!-- Node22 -->
<g id="node22" class="node">
<title>Node22</title>
<g id="a_node22"><a xlink:href="WiderType_8hpp.html" target="_top" xlink:title="Definition of the WiderType alias template.">
<polygon fill="white" stroke="black" points="62,-291.5 62,-310.5 190,-310.5 190,-291.5 62,-291.5"/>
<text text-anchor="middle" x="126" y="-298.5" font-family="Helvetica,sans-Serif" font-size="10.00">playrho/WiderType.hpp</text>
</a>
</g>
</g>
<!-- Node2&#45;&gt;Node22 -->
<g id="edge29" class="edge">
<title>Node2&#45;&gt;Node22</title>
<path fill="none" stroke="midnightblue" d="M667.24,-351.49C570.55,-343.95 371.88,-327.92 204,-311 202.88,-310.89 201.75,-310.77 200.62,-310.66"/>
<polygon fill="midnightblue" stroke="midnightblue" points="200.57,-307.13 190.26,-309.56 199.83,-314.09 200.57,-307.13"/>
</g>
<!-- Node11 -->
<g id="node11" class="node">
<title>Node11</title>
<g id="a_node11"><a xlink:href="Defines_8hpp.html" target="_top" xlink:title="Miscellaneous C&#45;preprocessor definitions.">
<polygon fill="white" stroke="black" points="180,-179.5 180,-198.5 294,-198.5 294,-179.5 180,-179.5"/>
<text text-anchor="middle" x="237" y="-186.5" font-family="Helvetica,sans-Serif" font-size="10.00">playrho/Defines.hpp</text>
</a>
</g>
</g>
<!-- Node10&#45;&gt;Node11 -->
<g id="edge10" class="edge">
<title>Node10&#45;&gt;Node11</title>
<path fill="none" stroke="midnightblue" d="M562.68,-235.44C492.25,-225.62 377.06,-209.54 304.24,-199.38"/>
<polygon fill="midnightblue" stroke="midnightblue" points="304.64,-195.9 294.25,-197.99 303.67,-202.84 304.64,-195.9"/>
</g>
<!-- Node12 -->
<g id="node12" class="node">
<title>Node12</title>
<g id="a_node12"><a xlink:href="Real_8hpp.html" target="_top" xlink:title="Real number definition file.">
<polygon fill="white" stroke="black" points="669.5,-179.5 669.5,-198.5 768.5,-198.5 768.5,-179.5 669.5,-179.5"/>
<text text-anchor="middle" x="719" y="-186.5" font-family="Helvetica,sans-Serif" font-size="10.00">playrho/Real.hpp</text>
</a>
</g>
</g>
<!-- Node10&#45;&gt;Node12 -->
<g id="edge11" class="edge">
<title>Node10&#45;&gt;Node12</title>
<path fill="none" stroke="midnightblue" d="M639.26,-235.32C654.22,-226.82 677.25,-213.73 694.73,-203.8"/>
<polygon fill="midnightblue" stroke="midnightblue" points="696.81,-206.64 703.77,-198.65 693.35,-200.55 696.81,-206.64"/>
</g>
<!-- Node12&#45;&gt;Node9 -->
<g id="edge12" class="edge">
<title>Node12&#45;&gt;Node9</title>
<path fill="none" stroke="midnightblue" d="M706.47,-179.32C694.41,-170.98 675.97,-158.21 661.73,-148.35"/>
<polygon fill="midnightblue" stroke="midnightblue" points="663.72,-145.47 653.5,-142.65 659.73,-151.22 663.72,-145.47"/>
</g>
<!-- Node12&#45;&gt;Node13 -->
<g id="edge13" class="edge">
<title>Node12&#45;&gt;Node13</title>
<path fill="none" stroke="midnightblue" d="M731.85,-179.32C744.22,-170.98 763.13,-158.21 777.74,-148.35"/>
<polygon fill="midnightblue" stroke="midnightblue" points="779.85,-151.15 786.18,-142.65 775.93,-145.35 779.85,-151.15"/>
</g>
<!-- Node14 -->
<g id="node14" class="node">
<title>Node14</title>
<g id="a_node14"><a xlink:href="detail_2Templates_8hpp.html" target="_top" xlink:title="Low&#45;level declarations for general class &amp; function templates.">
<polygon fill="white" stroke="black" points="759,-62 759,-81 917,-81 917,-62 759,-62"/>
<text text-anchor="middle" x="838" y="-69" font-family="Helvetica,sans-Serif" font-size="10.00">playrho/detail/Templates.hpp</text>
</a>
</g>
</g>
<!-- Node13&#45;&gt;Node14 -->
<g id="edge14" class="edge">
<title>Node13&#45;&gt;Node14</title>
<path fill="none" stroke="midnightblue" d="M804.59,-123.48C810.38,-114.64 819.59,-100.59 826.87,-89.48"/>
<polygon fill="midnightblue" stroke="midnightblue" points="829.87,-91.29 832.42,-81.01 824.01,-87.45 829.87,-91.29"/>
</g>
<!-- Node14&#45;&gt;Node3 -->
<g id="edge15" class="edge">
<title>Node14&#45;&gt;Node3</title>
<path fill="none" stroke="midnightblue" d="M853.33,-61.98C870.97,-52.17 900.16,-35.93 920.86,-24.42"/>
<polygon fill="midnightblue" stroke="midnightblue" points="922.66,-27.43 929.7,-19.51 919.26,-21.31 922.66,-27.43"/>
</g>
<!-- Node15 -->
<g id="node15" class="node">
<title>Node15</title>
<g id="a_node15"><a xlink:title=" ">
<polygon fill="white" stroke="#bfbfbf" points="1035.5,-0.5 1035.5,-19.5 1100.5,-19.5 1100.5,-0.5 1035.5,-0.5"/>
<text text-anchor="middle" x="1068" y="-7.5" font-family="Helvetica,sans-Serif" font-size="10.00">functional</text>
</a>
</g>
</g>
<!-- Node14&#45;&gt;Node15 -->
<g id="edge16" class="edge">
<title>Node14&#45;&gt;Node15</title>
<path fill="none" stroke="midnightblue" d="M870.95,-61.98C911.63,-51.45 980.89,-33.54 1025.52,-21.99"/>
<polygon fill="midnightblue" stroke="midnightblue" points="1026.67,-25.31 1035.48,-19.41 1024.92,-18.53 1026.67,-25.31"/>
</g>
<!-- Node16 -->
<g id="node16" class="node">
<title>Node16</title>
<g id="a_node16"><a xlink:title=" ">
<polygon fill="white" stroke="#bfbfbf" points="1138.5,-0.5 1138.5,-19.5 1191.5,-19.5 1191.5,-0.5 1138.5,-0.5"/>
<text text-anchor="middle" x="1165" y="-7.5" font-family="Helvetica,sans-Serif" font-size="10.00">iterator</text>
</a>
</g>
</g>
<!-- Node14&#45;&gt;Node16 -->
<g id="edge17" class="edge">
<title>Node14&#45;&gt;Node16</title>
<path fill="none" stroke="midnightblue" d="M884.85,-61.98C950.49,-50.03 1068.47,-28.57 1128.2,-17.7"/>
<polygon fill="midnightblue" stroke="midnightblue" points="1129.09,-21.09 1138.31,-15.86 1127.84,-14.2 1129.09,-21.09"/>
</g>
<!-- Node17 -->
<g id="node17" class="node">
<title>Node17</title>
<g id="a_node17"><a xlink:title=" ">
<polygon fill="white" stroke="#bfbfbf" points="387.5,-0.5 387.5,-19.5 456.5,-19.5 456.5,-0.5 387.5,-0.5"/>
<text text-anchor="middle" x="422" y="-7.5" font-family="Helvetica,sans-Serif" font-size="10.00">type_traits</text>
</a>
</g>
</g>
<!-- Node14&#45;&gt;Node17 -->
<g id="edge18" class="edge">
<title>Node14&#45;&gt;Node17</title>
<path fill="none" stroke="midnightblue" d="M784.42,-61.99C771.52,-59.99 757.77,-57.89 745,-56 645.99,-41.39 529.7,-25.5 467.21,-17.06"/>
<polygon fill="midnightblue" stroke="midnightblue" points="467.3,-13.54 456.92,-15.68 466.36,-20.48 467.3,-13.54"/>
</g>
<!-- Node18 -->
<g id="node18" class="node">
<title>Node18</title>
<g id="a_node18"><a xlink:title=" ">
<polygon fill="white" stroke="#bfbfbf" points="815.5,-0.5 815.5,-19.5 860.5,-19.5 860.5,-0.5 815.5,-0.5"/>
<text text-anchor="middle" x="838" y="-7.5" font-family="Helvetica,sans-Serif" font-size="10.00">utility</text>
</a>
</g>
</g>
<!-- Node14&#45;&gt;Node18 -->
<g id="edge19" class="edge">
<title>Node14&#45;&gt;Node18</title>
<path fill="none" stroke="midnightblue" d="M838,-61.98C838,-53.58 838,-40.48 838,-29.66"/>
<polygon fill="midnightblue" stroke="midnightblue" points="841.5,-29.51 838,-19.51 834.5,-29.51 841.5,-29.51"/>
</g>
<!-- Node19&#45;&gt;Node7 -->
<g id="edge22" class="edge">
<title>Node19&#45;&gt;Node7</title>
<path fill="none" stroke="midnightblue" d="M445.88,-291.44C406.89,-281.37 342.51,-264.74 303.4,-254.63"/>
<polygon fill="midnightblue" stroke="midnightblue" points="304.11,-251.2 293.56,-252.09 302.36,-257.98 304.11,-251.2"/>
</g>
<!-- Node19&#45;&gt;Node10 -->
<g id="edge24" class="edge">
<title>Node19&#45;&gt;Node10</title>
<path fill="none" stroke="midnightblue" d="M501.98,-291.44C526.16,-282.44 564.42,-268.19 591.65,-258.05"/>
<polygon fill="midnightblue" stroke="midnightblue" points="592.98,-261.29 601.13,-254.52 590.54,-254.73 592.98,-261.29"/>
</g>
<!-- Node19&#45;&gt;Node13 -->
<g id="edge25" class="edge">
<title>Node19&#45;&gt;Node13</title>
<path fill="none" stroke="midnightblue" d="M485.43,-291.45C495.88,-278.02 517.72,-251.78 541,-235 606.21,-188.01 696.21,-159.33 750.86,-145.08"/>
<polygon fill="midnightblue" stroke="midnightblue" points="751.81,-148.45 760.64,-142.59 750.08,-141.67 751.81,-148.45"/>
</g>
<!-- Node19&#45;&gt;Node17 -->
<g id="edge23" class="edge">
<title>Node19&#45;&gt;Node17</title>
<path fill="none" stroke="midnightblue" d="M427.18,-294.93C398.22,-289.49 363.54,-278.25 341,-255 320.05,-233.39 322,-220.1 322,-190 322,-190 322,-190 322,-132 322,-96.96 321.48,-83.66 343,-56 354.24,-41.56 371.5,-30.97 387.03,-23.7"/>
<polygon fill="midnightblue" stroke="midnightblue" points="388.64,-26.82 396.4,-19.6 385.83,-20.4 388.64,-26.82"/>
</g>
<!-- Node20 -->
<g id="node20" class="node">
<title>Node20</title>
<g id="a_node20"><a xlink:href="to__underlying_8hpp.html" target="_top" xlink:title="Definition of to_underlying function template.">
<polygon fill="white" stroke="black" points="350,-235.5 350,-254.5 494,-254.5 494,-235.5 350,-235.5"/>
<text text-anchor="middle" x="422" y="-242.5" font-family="Helvetica,sans-Serif" font-size="10.00">playrho/to_underlying.hpp</text>
</a>
</g>
</g>
<!-- Node19&#45;&gt;Node20 -->
<g id="edge26" class="edge">
<title>Node19&#45;&gt;Node20</title>
<path fill="none" stroke="midnightblue" d="M469.84,-291.32C461.5,-283.42 448.97,-271.55 438.82,-261.94"/>
<polygon fill="midnightblue" stroke="midnightblue" points="440.99,-259.17 431.32,-254.83 436.18,-264.25 440.99,-259.17"/>
</g>
<!-- Node21 -->
<g id="node21" class="node">
<title>Node21</title>
<g id="a_node21"><a xlink:href="underlying__type_8hpp.html" target="_top" xlink:title="Definition of underlying_type trait class and related code.">
<polygon fill="white" stroke="black" points="352.5,-56.5 352.5,-86.5 491.5,-86.5 491.5,-56.5 352.5,-56.5"/>
<text text-anchor="start" x="360.5" y="-74.5" font-family="Helvetica,sans-Serif" font-size="10.00">playrho/detail/underlying</text>
<text text-anchor="middle" x="422" y="-63.5" font-family="Helvetica,sans-Serif" font-size="10.00">_type.hpp</text>
</a>
</g>
</g>
<!-- Node20&#45;&gt;Node21 -->
<g id="edge27" class="edge">
<title>Node20&#45;&gt;Node21</title>
<path fill="none" stroke="midnightblue" d="M422,-235.26C422,-209.97 422,-136.08 422,-97.15"/>
<polygon fill="midnightblue" stroke="midnightblue" points="425.5,-96.72 422,-86.72 418.5,-96.72 425.5,-96.72"/>
</g>
<!-- Node21&#45;&gt;Node17 -->
<g id="edge28" class="edge">
<title>Node21&#45;&gt;Node17</title>
<path fill="none" stroke="midnightblue" d="M422,-56.4C422,-48.47 422,-38.46 422,-29.86"/>
<polygon fill="midnightblue" stroke="midnightblue" points="425.5,-29.66 422,-19.66 418.5,-29.66 425.5,-29.66"/>
</g>
<!-- Node23 -->
<g id="node23" class="node">
<title>Node23</title>
<g id="a_node23"><a xlink:href="Wider_8hpp.html" target="_top" xlink:title="Definition of the Wider class template and specializations.">
<polygon fill="white" stroke="black" points="54,-235.5 54,-254.5 190,-254.5 190,-235.5 54,-235.5"/>
<text text-anchor="middle" x="122" y="-242.5" font-family="Helvetica,sans-Serif" font-size="10.00">playrho/detail/Wider.hpp</text>
</a>
</g>
</g>
<!-- Node22&#45;&gt;Node23 -->
<g id="edge30" class="edge">
<title>Node22&#45;&gt;Node23</title>
<path fill="none" stroke="midnightblue" d="M125.34,-291.08C124.82,-284.01 124.06,-273.86 123.41,-264.99"/>
<polygon fill="midnightblue" stroke="midnightblue" points="126.88,-264.47 122.65,-254.75 119.9,-264.98 126.88,-264.47"/>
</g>
<!-- Node23&#45;&gt;Node8 -->
<g id="edge31" class="edge">
<title>Node23&#45;&gt;Node8</title>
<path fill="none" stroke="midnightblue" d="M124.48,-235.08C126.49,-227.85 129.39,-217.41 131.89,-208.4"/>
<polygon fill="midnightblue" stroke="midnightblue" points="135.26,-209.32 134.57,-198.75 128.52,-207.45 135.26,-209.32"/>
</g>
<!-- Node23&#45;&gt;Node11 -->
<g id="edge33" class="edge">
<title>Node23&#45;&gt;Node11</title>
<path fill="none" stroke="midnightblue" d="M140.22,-235.44C158.9,-226.68 188.16,-212.94 209.62,-202.86"/>
<polygon fill="midnightblue" stroke="midnightblue" points="211.3,-205.93 218.86,-198.52 208.32,-199.6 211.3,-205.93"/>
</g>
<!-- Node23&#45;&gt;Node17 -->
<g id="edge32" class="edge">
<title>Node23&#45;&gt;Node17</title>
<path fill="none" stroke="midnightblue" d="M115.21,-235.08C106.2,-222.07 92.57,-197.42 103,-179 160.66,-77.17 304.23,-34.47 377.49,-18.85"/>
<polygon fill="midnightblue" stroke="midnightblue" points="378.25,-22.26 387.34,-16.82 376.84,-15.41 378.25,-22.26"/>
</g>
<!-- Node24&#45;&gt;Node2 -->
<g id="edge37" class="edge">
<title>Node24&#45;&gt;Node2</title>
<path fill="none" stroke="midnightblue" d="M821.94,-403.44C803.43,-394.68 774.42,-380.94 753.14,-370.86"/>
<polygon fill="midnightblue" stroke="midnightblue" points="754.51,-367.63 743.98,-366.52 751.52,-373.96 754.51,-367.63"/>
</g>
<!-- Node24&#45;&gt;Node9 -->
<g id="edge36" class="edge">
<title>Node24&#45;&gt;Node9</title>
<path fill="none" stroke="midnightblue" d="M836.33,-403.17C824.35,-375.27 783.93,-287.81 727,-235 702.22,-212.01 681.28,-225.26 660,-199 649.25,-185.74 644.58,-166.61 642.56,-152.54"/>
<polygon fill="midnightblue" stroke="midnightblue" points="646.03,-152.09 641.43,-142.54 639.07,-152.87 646.03,-152.09"/>
</g>
<!-- Node25 -->
<g id="node25" class="node">
<title>Node25</title>
<g id="a_node25"><a xlink:href="Vector_8hpp.html" target="_top" xlink:title="Definition of the Vector class template and closely related code.">
<polygon fill="white" stroke="black" points="999.5,-235.5 999.5,-254.5 1106.5,-254.5 1106.5,-235.5 999.5,-235.5"/>
<text text-anchor="middle" x="1053" y="-242.5" font-family="Helvetica,sans-Serif" font-size="10.00">playrho/Vector.hpp</text>
</a>
</g>
</g>
<!-- Node24&#45;&gt;Node25 -->
<g id="edge38" class="edge">
<title>Node24&#45;&gt;Node25</title>
<path fill="none" stroke="midnightblue" d="M851.15,-403.31C885.59,-376.47 990.52,-294.69 1033.91,-260.88"/>
<polygon fill="midnightblue" stroke="midnightblue" points="1036.22,-263.51 1041.96,-254.61 1031.92,-257.99 1036.22,-263.51"/>
</g>
<!-- Node25&#45;&gt;Node3 -->
<g id="edge43" class="edge">
<title>Node25&#45;&gt;Node3</title>
<path fill="none" stroke="midnightblue" d="M1057.67,-235.44C1063.89,-222.87 1073.42,-198.76 1067,-179 1046.12,-114.72 990.39,-54.48 962.05,-26.84"/>
<polygon fill="midnightblue" stroke="midnightblue" points="964.16,-24.02 954.52,-19.64 959.33,-29.08 964.16,-24.02"/>
</g>
<!-- Node25&#45;&gt;Node4 -->
<g id="edge40" class="edge">
<title>Node25&#45;&gt;Node4</title>
<path fill="none" stroke="midnightblue" d="M1027.17,-235.44C999.75,-226.36 956.22,-211.94 925.57,-201.78"/>
<polygon fill="midnightblue" stroke="midnightblue" points="926.3,-198.34 915.71,-198.52 924.1,-204.98 926.3,-198.34"/>
</g>
<!-- Node25&#45;&gt;Node5 -->
<g id="edge39" class="edge">
<title>Node25&#45;&gt;Node5</title>
<path fill="none" stroke="midnightblue" d="M1038.22,-235.32C1023.73,-226.82 1001.43,-213.73 984.51,-203.8"/>
<polygon fill="midnightblue" stroke="midnightblue" points="986.14,-200.7 975.74,-198.65 982.6,-206.74 986.14,-200.7"/>
</g>
<!-- Node25&#45;&gt;Node12 -->
<g id="edge48" class="edge">
<title>Node25&#45;&gt;Node12</title>
<path fill="none" stroke="midnightblue" d="M1000.08,-235.44C939.88,-225.71 841.79,-209.85 778.85,-199.68"/>
<polygon fill="midnightblue" stroke="midnightblue" points="779.11,-196.17 768.68,-198.03 777.99,-203.08 779.11,-196.17"/>
</g>
<!-- Node25&#45;&gt;Node13 -->
<g id="edge49" class="edge">
<title>Node25&#45;&gt;Node13</title>
<path fill="none" stroke="midnightblue" d="M1047.92,-235.29C1039.2,-221.13 1019.98,-193.3 996,-179 973.85,-165.79 912.15,-152.91 863.64,-144.34"/>
<polygon fill="midnightblue" stroke="midnightblue" points="863.96,-140.84 853.51,-142.57 862.76,-147.74 863.96,-140.84"/>
</g>
<!-- Node25&#45;&gt;Node15 -->
<g id="edge44" class="edge">
<title>Node25&#45;&gt;Node15</title>
<path fill="none" stroke="midnightblue" d="M1068.78,-235.47C1081.2,-227.77 1097.61,-215.18 1105,-199 1131.42,-141.2 1126.44,-115.83 1105,-56 1101.06,-45 1093.14,-34.77 1085.64,-26.85"/>
<polygon fill="midnightblue" stroke="midnightblue" points="1088.02,-24.28 1078.44,-19.76 1083.11,-29.27 1088.02,-24.28"/>
</g>
<!-- Node25&#45;&gt;Node16 -->
<g id="edge42" class="edge">
<title>Node25&#45;&gt;Node16</title>
<path fill="none" stroke="midnightblue" d="M1075.23,-235.39C1091.19,-228.07 1111.93,-216.02 1124,-199 1161.32,-146.39 1165.67,-66.18 1165.55,-29.94"/>
<polygon fill="midnightblue" stroke="midnightblue" points="1169.05,-29.76 1165.39,-19.81 1162.05,-29.87 1169.05,-29.76"/>
</g>
<!-- Node25&#45;&gt;Node17 -->
<g id="edge41" class="edge">
<title>Node25&#45;&gt;Node17</title>
<path fill="none" stroke="midnightblue" d="M1051.05,-235.15C1047.56,-221.32 1038.96,-194.54 1022,-179 969.52,-130.94 939.97,-144.07 872,-123 725.43,-77.56 547.67,-37.7 466.41,-20.3"/>
<polygon fill="midnightblue" stroke="midnightblue" points="467.03,-16.85 456.52,-18.19 465.57,-23.7 467.03,-16.85"/>
</g>
<!-- Node26 -->
<g id="node26" class="node">
<title>Node26</title>
<g id="a_node26"><a xlink:title=" ">
<polygon fill="white" stroke="#bfbfbf" points="1195,-179.5 1195,-198.5 1255,-198.5 1255,-179.5 1195,-179.5"/>
<text text-anchor="middle" x="1225" y="-186.5" font-family="Helvetica,sans-Serif" font-size="10.00">iostream</text>
</a>
</g>
</g>
<!-- Node25&#45;&gt;Node26 -->
<g id="edge45" class="edge">
<title>Node25&#45;&gt;Node26</title>
<path fill="none" stroke="midnightblue" d="M1080.25,-235.44C1109.44,-226.28 1155.92,-211.69 1188.31,-201.52"/>
<polygon fill="midnightblue" stroke="midnightblue" points="1189.38,-204.85 1197.87,-198.52 1187.28,-198.17 1189.38,-204.85"/>
</g>
<!-- Node27 -->
<g id="node27" class="node">
<title>Node27</title>
<g id="a_node27"><a xlink:href="InvalidArgument_8hpp.html" target="_top" xlink:title="Definition of the InvalidArgument class.">
<polygon fill="white" stroke="black" points="1273,-179.5 1273,-198.5 1431,-198.5 1431,-179.5 1273,-179.5"/>
<text text-anchor="middle" x="1352" y="-186.5" font-family="Helvetica,sans-Serif" font-size="10.00">playrho/InvalidArgument.hpp</text>
</a>
</g>
</g>
<!-- Node25&#45;&gt;Node27 -->
<g id="edge46" class="edge">
<title>Node25&#45;&gt;Node27</title>
<path fill="none" stroke="midnightblue" d="M1100.38,-235.44C1153.08,-225.92 1238.23,-210.55 1294.66,-200.36"/>
<polygon fill="midnightblue" stroke="midnightblue" points="1295.63,-203.74 1304.84,-198.52 1294.38,-196.85 1295.63,-203.74"/>
</g>
<!-- Node28 -->
<g id="node28" class="node">
<title>Node28</title>
<g id="a_node28"><a xlink:title=" ">
<polygon fill="white" stroke="#bfbfbf" points="1319.5,-123.5 1319.5,-142.5 1384.5,-142.5 1384.5,-123.5 1319.5,-123.5"/>
<text text-anchor="middle" x="1352" y="-130.5" font-family="Helvetica,sans-Serif" font-size="10.00">stdexcept</text>
</a>
</g>
</g>
<!-- Node27&#45;&gt;Node28 -->
<g id="edge47" class="edge">
<title>Node27&#45;&gt;Node28</title>
<path fill="none" stroke="midnightblue" d="M1352,-179.08C1352,-172.01 1352,-161.86 1352,-152.99"/>
<polygon fill="midnightblue" stroke="midnightblue" points="1355.5,-152.75 1352,-142.75 1348.5,-152.75 1355.5,-152.75"/>
</g>
</g>
</svg>
        <g id="navigator" transform="translate(0 0)" fill="#404254">
                <rect fill="#f2f5e9" fill-opacity="0.5" stroke="#606060" stroke-width=".5" x="0" y="0" width="60" height="60"/>
                <use id="zoomplus" xlink:href="#zoomPlus" x="17" y="9" onmousedown="handleZoom(evt,'in')"/>
                <use id="zoomminus" xlink:href="#zoomMin" x="42" y="9" onmousedown="handleZoom(evt,'out')"/>
                <use id="reset" xlink:href="#resetDef" x="30" y="36" onmousedown="handleReset()"/>
                <g id="arrowUp" xlink:href="#dirArrow" transform="translate(30 24)" onmousedown="handlePan(0,-1)">
                  <use xlink:href="#rim" fill="#404040">
                        <set attributeName="fill" to="#808080" begin="arrowUp.mouseover" end="arrowUp.mouseout"/>
                  </use>
                  <path fill="none" stroke="white" stroke-width="1.5" d="M0,-3.0v7 M-2.5,-0.5L0,-3.0L2.5,-0.5"/>
                </g>
                <g id="arrowRight" xlink:href="#dirArrow" transform="rotate(90) translate(36 -43)" onmousedown="handlePan(1,0)">
                  <use xlink:href="#rim" fill="#404040">
                        <set attributeName="fill" to="#808080" begin="arrowRight.mouseover" end="arrowRight.mouseout"/>
                  </use>
                  <path fill="none" stroke="white" stroke-width="1.5" d="M0,-3.0v7 M-2.5,-0.5L0,-3.0L2.5,-0.5"/>
                </g>
                <g id="arrowDown" xlink:href="#dirArrow" transform="rotate(180) translate(-30 -48)" onmousedown="handlePan(0,1)">
                  <use xlink:href="#rim" fill="#404040">
                        <set attributeName="fill" to="#808080" begin="arrowDown.mouseover" end="arrowDown.mouseout"/>
                  </use>
                  <path fill="none" stroke="white" stroke-width="1.5" d="M0,-3.0v7 M-2.5,-0.5L0,-3.0L2.5,-0.5"/>
                </g>
                <g id="arrowLeft" xlink:href="#dirArrow" transform="rotate(270) translate(-36 17)" onmousedown="handlePan(-1,0)">
                  <use xlink:href="#rim" fill="#404040">
                        <set attributeName="fill" to="#808080" begin="arrowLeft.mouseover" end="arrowLeft.mouseout"/>
                  </use>
                  <path fill="none" stroke="white" stroke-width="1.5" d="M0,-3.0v7 M-2.5,-0.5L0,-3.0L2.5,-0.5"/>
                </g>
        </g>
        <svg viewBox="0 0 15 15" width="100%" height="30px" preserveAspectRatio="xMaxYMin meet">
         <g id="arrow_out" transform="scale(0.3 0.3)">
          <a xlink:href="Position_8hpp__incl_org.svg" target="_base">
           <rect id="button" ry="5" rx="5" y="6" x="6" height="38" width="38"
                fill="#f2f5e9" fill-opacity="0.5" stroke="#606060" stroke-width="1.0"/>
           <path id="arrow"
             d="M 11.500037,31.436501 C 11.940474,20.09759 22.043105,11.32322 32.158766,21.979434 L 37.068811,17.246167 C 37.068811,17.246167 37.088388,32 37.088388,32 L 22.160133,31.978069 C 22.160133,31.978069 26.997745,27.140456 26.997745,27.140456 C 18.528582,18.264221 13.291696,25.230495 11.500037,31.436501 z"
             style="fill:#404040;"/>
          </a>
         </g>
        </svg>
</svg>
