<?xml version="1.0" encoding="UTF-8" standalone="no"?>
<!DOCTYPE svg PUBLIC "-//W3C//DTD SVG 1.1//EN"
 "http://www.w3.org/Graphics/SVG/1.1/DTD/svg11.dtd">
<!-- Generated by graphviz version 2.43.0 (0)
 -->
<!-- Title: Library/include/playrho/d2/Position.hpp Pages: 1 -->
<!--zoomable 498 -->
<svg id="main" version="1.1" xmlns="http://www.w3.org/2000/svg" xmlns:xlink="http://www.w3.org/1999/xlink" xml:space="preserve" onload="init(evt)">
<style type="text/css"><![CDATA[
.edge:hover path { stroke: red; }
.edge:hover polygon { stroke: red; fill: red; }
]]></style>
<script type="text/javascript"><![CDATA[
var edges = document.getElementsByTagName('g');
if (edges && edges.length) {
  for (var i=0;i<edges.length;i++) {
    if (edges[i].id.substr(0,4)=='edge') {
      edges[i].setAttribute('class','edge');
    }
  }
}
]]></script>
        <defs>
                <circle id="rim" cx="0" cy="0" r="7"/>
                <circle id="rim2" cx="0" cy="0" r="3.5"/>
                <g id="zoomPlus">
                        <use xlink:href="#rim" fill="#404040">
                                <set attributeName="fill" to="#808080" begin="zoomplus.mouseover" end="zoomplus.mouseout"/>
                        </use>
                        <path d="M-4,0h8M0,-4v8" fill="none" stroke="white" stroke-width="1.5" pointer-events="none"/>
                </g>
                <g id="zoomMin">
                        <use xlink:href="#rim" fill="#404040">
                                <set attributeName="fill" to="#808080" begin="zoomminus.mouseover" end="zoomminus.mouseout"/>
                        </use>
                        <path d="M-4,0h8" fill="none" stroke="white" stroke-width="1.5" pointer-events="none"/>
                </g>
                <g id="dirArrow">
                        <path fill="none" stroke="white" stroke-width="1.5" d="M0,-3.0v7 M-2.5,-0.5L0,-3.0L2.5,-0.5"/>
                </g>
               <g id="resetDef">
                       <use xlink:href="#rim2" fill="#404040">
                               <set attributeName="fill" to="#808080" begin="reset.mouseover" end="reset.mouseout"/>
                       </use>
               </g>
        </defs>

<script type="text/javascript">
var viewWidth = 1262;
var viewHeight = 498;
var sectionId = 'dynsection-0';
</script>
<script xlink:href="svgpan.js"/>
<svg id="graph" class="graph">
<g id="viewport">
<title>Library/include/playrho/d2/Position.hpp</title>
<polygon fill="white" stroke="transparent" points="-4,4 -4,-494 1257.71,-494 1257.71,4 -4,4"/>
<!-- Node1 -->
<g id="node1" class="node">
<title>Node1</title>
<g id="a_node1"><a xlink:title="Definition of the Position class and closely related code.">
<polygon fill="#bfbfbf" stroke="black" points="503,-459.5 503,-489.5 631,-489.5 631,-459.5 503,-459.5"/>
<text text-anchor="start" x="511" y="-477.5" font-family="Helvetica,sans-Serif" font-size="10.00">Library/include/playrho</text>
<text text-anchor="middle" x="567" y="-466.5" font-family="Helvetica,sans-Serif" font-size="10.00">/d2/Position.hpp</text>
</a>
</g>
</g>
<!-- Node2 -->
<g id="node2" class="node">
<title>Node2</title>
<g id="a_node2"><a xlink:href="Settings_8hpp.html" target="_top" xlink:title="Types and default settings file.">
<polygon fill="white" stroke="black" points="612.5,-347.5 612.5,-366.5 729.5,-366.5 729.5,-347.5 612.5,-347.5"/>
<text text-anchor="middle" x="671" y="-354.5" font-family="Helvetica,sans-Serif" font-size="10.00">playrho/Settings.hpp</text>
</a>
</g>
</g>
<!-- Node1&#45;&gt;Node2 -->
<g id="edge1" class="edge">
<title>Node1&#45;&gt;Node2</title>
<path fill="none" stroke="midnightblue" d="M589.58,-459.48C603.24,-450.26 620.39,-437.28 633,-423 645.55,-408.79 656.07,-389.82 662.84,-376.04"/>
<polygon fill="midnightblue" stroke="midnightblue" points="666.16,-377.22 667.26,-366.68 659.83,-374.23 666.16,-377.22"/>
</g>
<!-- Node12 -->
<g id="node12" class="node">
<title>Node12</title>
<g id="a_node12"><a xlink:href="Templates_8hpp.html" target="_top" xlink:title="Definitions of miscellaneous template related code.">
<polygon fill="white" stroke="black" points="593,-123.5 593,-142.5 721,-142.5 721,-123.5 593,-123.5"/>
<text text-anchor="middle" x="657" y="-130.5" font-family="Helvetica,sans-Serif" font-size="10.00">playrho/Templates.hpp</text>
</a>
</g>
</g>
<!-- Node1&#45;&gt;Node12 -->
<g id="edge33" class="edge">
<title>Node1&#45;&gt;Node12</title>
<path fill="none" stroke="midnightblue" d="M538.09,-459.45C524.15,-450.99 508.8,-438.78 501,-423 497.06,-415.03 498.69,-411.58 501,-403 529.42,-297.34 610.62,-190.38 643.21,-150.4"/>
<polygon fill="midnightblue" stroke="midnightblue" points="646.06,-152.45 649.73,-142.51 640.66,-147.99 646.06,-152.45"/>
</g>
<!-- Node24 -->
<g id="node24" class="node">
<title>Node24</title>
<g id="a_node24"><a xlink:href="Vector2_8hpp.html" target="_top" xlink:title="Definition of the Vector2 alias template and closely related code.">
<polygon fill="white" stroke="black" points="510,-403.5 510,-422.5 624,-422.5 624,-403.5 510,-403.5"/>
<text text-anchor="middle" x="567" y="-410.5" font-family="Helvetica,sans-Serif" font-size="10.00">playrho/Vector2.hpp</text>
</a>
</g>
</g>
<!-- Node1&#45;&gt;Node24 -->
<g id="edge34" class="edge">
<title>Node1&#45;&gt;Node24</title>
<path fill="none" stroke="midnightblue" d="M567,-459.4C567,-451.47 567,-441.46 567,-432.86"/>
<polygon fill="midnightblue" stroke="midnightblue" points="570.5,-432.66 567,-422.66 563.5,-432.66 570.5,-432.66"/>
</g>
<!-- Node3 -->
<g id="node3" class="node">
<title>Node3</title>
<g id="a_node3"><a xlink:title=" ">
<polygon fill="white" stroke="#bfbfbf" points="466.5,-179.5 466.5,-198.5 519.5,-198.5 519.5,-179.5 466.5,-179.5"/>
<text text-anchor="middle" x="493" y="-186.5" font-family="Helvetica,sans-Serif" font-size="10.00">cstddef</text>
</a>
</g>
</g>
<!-- Node2&#45;&gt;Node3 -->
<g id="edge2" class="edge">
<title>Node2&#45;&gt;Node3</title>
<path fill="none" stroke="midnightblue" d="M644.89,-347.46C625.02,-340.04 597.82,-327.84 578,-311 542.77,-281.06 515.04,-233.36 501.7,-207.71"/>
<polygon fill="midnightblue" stroke="midnightblue" points="504.8,-206.09 497.16,-198.75 498.56,-209.25 504.8,-206.09"/>
</g>
<!-- Node4 -->
<g id="node4" class="node">
<title>Node4</title>
<g id="a_node4"><a xlink:title=" ">
<polygon fill="white" stroke="#bfbfbf" points="538,-179.5 538,-198.5 590,-198.5 590,-179.5 538,-179.5"/>
<text text-anchor="middle" x="564" y="-186.5" font-family="Helvetica,sans-Serif" font-size="10.00">cassert</text>
</a>
</g>
</g>
<!-- Node2&#45;&gt;Node4 -->
<g id="edge3" class="edge">
<title>Node2&#45;&gt;Node4</title>
<path fill="none" stroke="midnightblue" d="M646.26,-347.5C629.11,-340.35 607.08,-328.48 594,-311 571.06,-280.35 565.5,-234.28 564.25,-208.74"/>
<polygon fill="midnightblue" stroke="midnightblue" points="567.75,-208.46 563.94,-198.57 560.75,-208.68 567.75,-208.46"/>
</g>
<!-- Node5 -->
<g id="node5" class="node">
<title>Node5</title>
<g id="a_node5"><a xlink:title=" ">
<polygon fill="white" stroke="#bfbfbf" points="920,-291.5 920,-310.5 964,-310.5 964,-291.5 920,-291.5"/>
<text text-anchor="middle" x="942" y="-298.5" font-family="Helvetica,sans-Serif" font-size="10.00">cfloat</text>
</a>
</g>
</g>
<!-- Node2&#45;&gt;Node5 -->
<g id="edge4" class="edge">
<title>Node2&#45;&gt;Node5</title>
<path fill="none" stroke="midnightblue" d="M719.77,-347.48C767.41,-338.96 841.91,-325.14 906,-311 907.27,-310.72 908.57,-310.43 909.88,-310.13"/>
<polygon fill="midnightblue" stroke="midnightblue" points="911.05,-313.44 919.96,-307.72 909.42,-306.64 911.05,-313.44"/>
</g>
<!-- Node6 -->
<g id="node6" class="node">
<title>Node6</title>
<g id="a_node6"><a xlink:title=" ">
<polygon fill="white" stroke="#bfbfbf" points="1040.5,-235.5 1040.5,-254.5 1087.5,-254.5 1087.5,-235.5 1040.5,-235.5"/>
<text text-anchor="middle" x="1064" y="-242.5" font-family="Helvetica,sans-Serif" font-size="10.00">cmath</text>
</a>
</g>
</g>
<!-- Node2&#45;&gt;Node6 -->
<g id="edge5" class="edge">
<title>Node2&#45;&gt;Node6</title>
<path fill="none" stroke="midnightblue" d="M727.88,-347.49C768.99,-340.34 825.44,-328.46 873,-311 890.92,-304.42 893.31,-298.17 911,-291 932.64,-282.23 992.16,-265.48 1030.27,-255.08"/>
<polygon fill="midnightblue" stroke="midnightblue" points="1031.67,-258.33 1040.4,-252.32 1029.83,-251.57 1031.67,-258.33"/>
</g>
<!-- Node7 -->
<g id="node7" class="node">
<title>Node7</title>
<g id="a_node7"><a xlink:title=" ">
<polygon fill="white" stroke="#bfbfbf" points="1197,-179.5 1197,-198.5 1247,-198.5 1247,-179.5 1197,-179.5"/>
<text text-anchor="middle" x="1222" y="-186.5" font-family="Helvetica,sans-Serif" font-size="10.00">cstdint</text>
</a>
</g>
</g>
<!-- Node2&#45;&gt;Node7 -->
<g id="edge6" class="edge">
<title>Node2&#45;&gt;Node7</title>
<path fill="none" stroke="midnightblue" d="M729.74,-355.18C846.25,-352.85 1102.27,-344.02 1183,-311 1219.24,-296.18 1234.29,-290.41 1251,-255 1258.7,-238.68 1248.18,-219.83 1237.72,-206.65"/>
<polygon fill="midnightblue" stroke="midnightblue" points="1240.22,-204.19 1231.05,-198.89 1234.91,-208.75 1240.22,-204.19"/>
</g>
<!-- Node8 -->
<g id="node8" class="node">
<title>Node8</title>
<g id="a_node8"><a xlink:title=" ">
<polygon fill="white" stroke="#bfbfbf" points="0,-0.5 0,-19.5 64,-19.5 64,-0.5 0,-0.5"/>
<text text-anchor="middle" x="32" y="-7.5" font-family="Helvetica,sans-Serif" font-size="10.00">algorithm</text>
</a>
</g>
</g>
<!-- Node2&#45;&gt;Node8 -->
<g id="edge7" class="edge">
<title>Node2&#45;&gt;Node8</title>
<path fill="none" stroke="midnightblue" d="M612.33,-347.86C475.28,-327.8 139.3,-272.24 55,-199 5.98,-156.41 18.91,-67.63 27.37,-29.29"/>
<polygon fill="midnightblue" stroke="midnightblue" points="30.79,-30.04 29.69,-19.5 23.98,-28.43 30.79,-30.04"/>
</g>
<!-- Node9 -->
<g id="node9" class="node">
<title>Node9</title>
<g id="a_node9"><a xlink:href="RealConstants_8hpp.html" target="_top" xlink:title="Definitions file for constant expressions of type Real.">
<polygon fill="white" stroke="black" points="636,-235.5 636,-254.5 784,-254.5 784,-235.5 636,-235.5"/>
<text text-anchor="middle" x="710" y="-242.5" font-family="Helvetica,sans-Serif" font-size="10.00">playrho/RealConstants.hpp</text>
</a>
</g>
</g>
<!-- Node2&#45;&gt;Node9 -->
<g id="edge8" class="edge">
<title>Node2&#45;&gt;Node9</title>
<path fill="none" stroke="midnightblue" d="M674.06,-347.37C680.38,-329.54 695,-288.3 703.52,-264.27"/>
<polygon fill="midnightblue" stroke="midnightblue" points="706.91,-265.19 706.95,-254.59 700.31,-262.85 706.91,-265.19"/>
</g>
<!-- Node2&#45;&gt;Node12 -->
<g id="edge19" class="edge">
<title>Node2&#45;&gt;Node12</title>
<path fill="none" stroke="midnightblue" d="M662.6,-347.24C643.32,-326.06 599.6,-271.17 627,-235 664.5,-185.5 788.52,-231.27 755,-179 744.73,-162.98 727.15,-152.58 709.7,-145.87"/>
<polygon fill="midnightblue" stroke="midnightblue" points="710.66,-142.5 700.07,-142.51 708.36,-149.11 710.66,-142.5"/>
</g>
<!-- Node19 -->
<g id="node19" class="node">
<title>Node19</title>
<g id="a_node19"><a xlink:href="Units_8hpp.html" target="_top" xlink:title="Declarations for physical units possibly backed by strong types.">
<polygon fill="white" stroke="black" points="760.5,-291.5 760.5,-310.5 863.5,-310.5 863.5,-291.5 760.5,-291.5"/>
<text text-anchor="middle" x="812" y="-298.5" font-family="Helvetica,sans-Serif" font-size="10.00">playrho/Units.hpp</text>
</a>
</g>
</g>
<!-- Node2&#45;&gt;Node19 -->
<g id="edge20" class="edge">
<title>Node2&#45;&gt;Node19</title>
<path fill="none" stroke="midnightblue" d="M693.34,-347.44C716.75,-338.48 753.74,-324.31 780.19,-314.18"/>
<polygon fill="midnightblue" stroke="midnightblue" points="781.68,-317.36 789.76,-310.52 779.17,-310.82 781.68,-317.36"/>
</g>
<!-- Node22 -->
<g id="node22" class="node">
<title>Node22</title>
<g id="a_node22"><a xlink:href="WiderType_8hpp.html" target="_top" xlink:title="Definition of the WiderType alias template.">
<polygon fill="white" stroke="black" points="1046,-291.5 1046,-310.5 1174,-310.5 1174,-291.5 1046,-291.5"/>
<text text-anchor="middle" x="1110" y="-298.5" font-family="Helvetica,sans-Serif" font-size="10.00">playrho/WiderType.hpp</text>
</a>
</g>
</g>
<!-- Node2&#45;&gt;Node22 -->
<g id="edge28" class="edge">
<title>Node2&#45;&gt;Node22</title>
<path fill="none" stroke="midnightblue" d="M729.75,-348.77C808.86,-339.04 949.63,-321.73 1035.92,-311.11"/>
<polygon fill="midnightblue" stroke="midnightblue" points="1036.4,-314.58 1045.9,-309.88 1035.55,-307.63 1036.4,-314.58"/>
</g>
<!-- Node10 -->
<g id="node10" class="node">
<title>Node10</title>
<g id="a_node10"><a xlink:href="Defines_8hpp.html" target="_top" xlink:title="Miscellaneous C&#45;preprocessor definitions.">
<polygon fill="white" stroke="black" points="878,-179.5 878,-198.5 992,-198.5 992,-179.5 878,-179.5"/>
<text text-anchor="middle" x="935" y="-186.5" font-family="Helvetica,sans-Serif" font-size="10.00">playrho/Defines.hpp</text>
</a>
</g>
</g>
<!-- Node9&#45;&gt;Node10 -->
<g id="edge9" class="edge">
<title>Node9&#45;&gt;Node10</title>
<path fill="none" stroke="midnightblue" d="M745.65,-235.44C784.66,-226.08 847.27,-211.06 889.72,-200.87"/>
<polygon fill="midnightblue" stroke="midnightblue" points="890.61,-204.25 899.51,-198.52 888.97,-197.45 890.61,-204.25"/>
</g>
<!-- Node11 -->
<g id="node11" class="node">
<title>Node11</title>
<g id="a_node11"><a xlink:href="Real_8hpp.html" target="_top" xlink:title="Real number definition file.">
<polygon fill="white" stroke="black" points="646.5,-179.5 646.5,-198.5 745.5,-198.5 745.5,-179.5 646.5,-179.5"/>
<text text-anchor="middle" x="696" y="-186.5" font-family="Helvetica,sans-Serif" font-size="10.00">playrho/Real.hpp</text>
</a>
</g>
</g>
<!-- Node9&#45;&gt;Node11 -->
<g id="edge10" class="edge">
<title>Node9&#45;&gt;Node11</title>
<path fill="none" stroke="midnightblue" d="M707.69,-235.08C705.83,-227.93 703.16,-217.64 700.85,-208.69"/>
<polygon fill="midnightblue" stroke="midnightblue" points="704.17,-207.55 698.27,-198.75 697.39,-209.31 704.17,-207.55"/>
</g>
<!-- Node11&#45;&gt;Node12 -->
<g id="edge11" class="edge">
<title>Node11&#45;&gt;Node12</title>
<path fill="none" stroke="midnightblue" d="M689.56,-179.08C684.05,-171.46 675.97,-160.26 669.24,-150.94"/>
<polygon fill="midnightblue" stroke="midnightblue" points="672.01,-148.81 663.32,-142.75 666.34,-152.91 672.01,-148.81"/>
</g>
<!-- Node13 -->
<g id="node13" class="node">
<title>Node13</title>
<g id="a_node13"><a xlink:href="detail_2Templates_8hpp.html" target="_top" xlink:title="Low&#45;level declarations for general class &amp; function templates.">
<polygon fill="white" stroke="black" points="390,-62 390,-81 548,-81 548,-62 390,-62"/>
<text text-anchor="middle" x="469" y="-69" font-family="Helvetica,sans-Serif" font-size="10.00">playrho/detail/Templates.hpp</text>
</a>
</g>
</g>
<!-- Node12&#45;&gt;Node13 -->
<g id="edge12" class="edge">
<title>Node12&#45;&gt;Node13</title>
<path fill="none" stroke="midnightblue" d="M630.06,-123.48C597.4,-113.14 542.18,-95.66 505.66,-84.1"/>
<polygon fill="midnightblue" stroke="midnightblue" points="506.48,-80.69 495.89,-81.01 504.36,-87.36 506.48,-80.69"/>
</g>
<!-- Node13&#45;&gt;Node8 -->
<g id="edge13" class="edge">
<title>Node13&#45;&gt;Node8</title>
<path fill="none" stroke="midnightblue" d="M406.39,-61.98C316.11,-49.68 151.76,-27.31 74.41,-16.77"/>
<polygon fill="midnightblue" stroke="midnightblue" points="74.47,-13.25 64.09,-15.37 73.52,-20.19 74.47,-13.25"/>
</g>
<!-- Node14 -->
<g id="node14" class="node">
<title>Node14</title>
<g id="a_node14"><a xlink:title=" ">
<polygon fill="white" stroke="#bfbfbf" points="157.5,-0.5 157.5,-19.5 222.5,-19.5 222.5,-0.5 157.5,-0.5"/>
<text text-anchor="middle" x="190" y="-7.5" font-family="Helvetica,sans-Serif" font-size="10.00">functional</text>
</a>
</g>
</g>
<!-- Node13&#45;&gt;Node14 -->
<g id="edge14" class="edge">
<title>Node13&#45;&gt;Node14</title>
<path fill="none" stroke="midnightblue" d="M429.03,-61.98C376.79,-50.84 285.72,-31.41 232.34,-20.03"/>
<polygon fill="midnightblue" stroke="midnightblue" points="233.02,-16.6 222.51,-17.93 231.56,-23.44 233.02,-16.6"/>
</g>
<!-- Node15 -->
<g id="node15" class="node">
<title>Node15</title>
<g id="a_node15"><a xlink:title=" ">
<polygon fill="white" stroke="#bfbfbf" points="345.5,-0.5 345.5,-19.5 398.5,-19.5 398.5,-0.5 345.5,-0.5"/>
<text text-anchor="middle" x="372" y="-7.5" font-family="Helvetica,sans-Serif" font-size="10.00">iterator</text>
</a>
</g>
</g>
<!-- Node13&#45;&gt;Node15 -->
<g id="edge15" class="edge">
<title>Node13&#45;&gt;Node15</title>
<path fill="none" stroke="midnightblue" d="M455.1,-61.98C439.33,-52.3 413.36,-36.37 394.65,-24.89"/>
<polygon fill="midnightblue" stroke="midnightblue" points="396.23,-21.75 385.87,-19.51 392.57,-27.72 396.23,-21.75"/>
</g>
<!-- Node16 -->
<g id="node16" class="node">
<title>Node16</title>
<g id="a_node16"><a xlink:title=" ">
<polygon fill="white" stroke="#bfbfbf" points="437,-0.5 437,-19.5 481,-19.5 481,-0.5 437,-0.5"/>
<text text-anchor="middle" x="459" y="-7.5" font-family="Helvetica,sans-Serif" font-size="10.00">limits</text>
</a>
</g>
</g>
<!-- Node13&#45;&gt;Node16 -->
<g id="edge16" class="edge">
<title>Node13&#45;&gt;Node16</title>
<path fill="none" stroke="midnightblue" d="M467.57,-61.98C466.16,-53.58 463.95,-40.48 462.14,-29.66"/>
<polygon fill="midnightblue" stroke="midnightblue" points="465.54,-28.79 460.43,-19.51 458.64,-29.95 465.54,-28.79"/>
</g>
<!-- Node17 -->
<g id="node17" class="node">
<title>Node17</title>
<g id="a_node17"><a xlink:title=" ">
<polygon fill="white" stroke="#bfbfbf" points="815.5,-0.5 815.5,-19.5 884.5,-19.5 884.5,-0.5 815.5,-0.5"/>
<text text-anchor="middle" x="850" y="-7.5" font-family="Helvetica,sans-Serif" font-size="10.00">type_traits</text>
</a>
</g>
</g>
<!-- Node13&#45;&gt;Node17 -->
<g id="edge17" class="edge">
<title>Node13&#45;&gt;Node17</title>
<path fill="none" stroke="midnightblue" d="M523.59,-61.98C599.33,-50.15 734.88,-28.98 805.09,-18.01"/>
<polygon fill="midnightblue" stroke="midnightblue" points="806.03,-21.41 815.37,-16.41 804.95,-14.49 806.03,-21.41"/>
</g>
<!-- Node18 -->
<g id="node18" class="node">
<title>Node18</title>
<g id="a_node18"><a xlink:title=" ">
<polygon fill="white" stroke="#bfbfbf" points="499.5,-0.5 499.5,-19.5 544.5,-19.5 544.5,-0.5 499.5,-0.5"/>
<text text-anchor="middle" x="522" y="-7.5" font-family="Helvetica,sans-Serif" font-size="10.00">utility</text>
</a>
</g>
</g>
<!-- Node13&#45;&gt;Node18 -->
<g id="edge18" class="edge">
<title>Node13&#45;&gt;Node18</title>
<path fill="none" stroke="midnightblue" d="M476.59,-61.98C484.7,-52.87 497.73,-38.24 507.76,-26.98"/>
<polygon fill="midnightblue" stroke="midnightblue" points="510.38,-29.3 514.42,-19.51 505.16,-24.65 510.38,-29.3"/>
</g>
<!-- Node19&#45;&gt;Node6 -->
<g id="edge21" class="edge">
<title>Node19&#45;&gt;Node6</title>
<path fill="none" stroke="midnightblue" d="M854.3,-291.43C897.52,-282.61 966.53,-268.29 1026,-255 1027.45,-254.68 1028.92,-254.34 1030.42,-254"/>
<polygon fill="midnightblue" stroke="midnightblue" points="1031.35,-257.38 1040.3,-251.71 1029.77,-250.56 1031.35,-257.38"/>
</g>
<!-- Node19&#45;&gt;Node9 -->
<g id="edge23" class="edge">
<title>Node19&#45;&gt;Node9</title>
<path fill="none" stroke="midnightblue" d="M795.61,-291.32C779.33,-282.7 754.13,-269.36 735.28,-259.39"/>
<polygon fill="midnightblue" stroke="midnightblue" points="736.82,-256.24 726.35,-254.65 733.55,-262.43 736.82,-256.24"/>
</g>
<!-- Node19&#45;&gt;Node12 -->
<g id="edge24" class="edge">
<title>Node19&#45;&gt;Node12</title>
<path fill="none" stroke="midnightblue" d="M812.96,-291.44C814.9,-269.77 816.88,-212.07 788,-179 773.32,-162.19 752.08,-151.66 730.95,-145.06"/>
<polygon fill="midnightblue" stroke="midnightblue" points="731.85,-141.67 721.27,-142.29 729.93,-148.4 731.85,-141.67"/>
</g>
<!-- Node19&#45;&gt;Node17 -->
<g id="edge22" class="edge">
<title>Node19&#45;&gt;Node17</title>
<path fill="none" stroke="midnightblue" d="M857.33,-291.46C907.89,-281.51 983.83,-265.15 993,-255 1055.27,-186.05 995.08,-121.31 929,-56 915.24,-42.4 896.55,-31.51 880.8,-23.85"/>
<polygon fill="midnightblue" stroke="midnightblue" points="881.99,-20.54 871.45,-19.5 879.04,-26.89 881.99,-20.54"/>
</g>
<!-- Node20 -->
<g id="node20" class="node">
<title>Node20</title>
<g id="a_node20"><a xlink:href="to__underlying_8hpp.html" target="_top" xlink:title="Definition of to_underlying function template.">
<polygon fill="white" stroke="black" points="840,-235.5 840,-254.5 984,-254.5 984,-235.5 840,-235.5"/>
<text text-anchor="middle" x="912" y="-242.5" font-family="Helvetica,sans-Serif" font-size="10.00">playrho/to_underlying.hpp</text>
</a>
</g>
</g>
<!-- Node19&#45;&gt;Node20 -->
<g id="edge25" class="edge">
<title>Node19&#45;&gt;Node20</title>
<path fill="none" stroke="midnightblue" d="M828.07,-291.32C843.96,-282.74 868.51,-269.49 886.96,-259.52"/>
<polygon fill="midnightblue" stroke="midnightblue" points="888.84,-262.49 895.97,-254.65 885.51,-256.33 888.84,-262.49"/>
</g>
<!-- Node21 -->
<g id="node21" class="node">
<title>Node21</title>
<g id="a_node21"><a xlink:href="underlying__type_8hpp.html" target="_top" xlink:title="Definition of underlying_type trait class and related code.">
<polygon fill="white" stroke="black" points="780.5,-56.5 780.5,-86.5 919.5,-86.5 919.5,-56.5 780.5,-56.5"/>
<text text-anchor="start" x="788.5" y="-74.5" font-family="Helvetica,sans-Serif" font-size="10.00">playrho/detail/underlying</text>
<text text-anchor="middle" x="850" y="-63.5" font-family="Helvetica,sans-Serif" font-size="10.00">_type.hpp</text>
</a>
</g>
</g>
<!-- Node20&#45;&gt;Node21 -->
<g id="edge26" class="edge">
<title>Node20&#45;&gt;Node21</title>
<path fill="none" stroke="midnightblue" d="M900.45,-235.38C890.4,-227.19 876.33,-213.94 869,-199 852.92,-166.2 849.66,-123.32 849.38,-96.86"/>
<polygon fill="midnightblue" stroke="midnightblue" points="852.88,-96.61 849.42,-86.6 845.88,-96.59 852.88,-96.61"/>
</g>
<!-- Node21&#45;&gt;Node17 -->
<g id="edge27" class="edge">
<title>Node21&#45;&gt;Node17</title>
<path fill="none" stroke="midnightblue" d="M850,-56.4C850,-48.47 850,-38.46 850,-29.86"/>
<polygon fill="midnightblue" stroke="midnightblue" points="853.5,-29.66 850,-19.66 846.5,-29.66 853.5,-29.66"/>
</g>
<!-- Node23 -->
<g id="node23" class="node">
<title>Node23</title>
<g id="a_node23"><a xlink:href="Wider_8hpp.html" target="_top" xlink:title="Definition of the Wider class template and specializations.">
<polygon fill="white" stroke="black" points="1106,-235.5 1106,-254.5 1242,-254.5 1242,-235.5 1106,-235.5"/>
<text text-anchor="middle" x="1174" y="-242.5" font-family="Helvetica,sans-Serif" font-size="10.00">playrho/detail/Wider.hpp</text>
</a>
</g>
</g>
<!-- Node22&#45;&gt;Node23 -->
<g id="edge29" class="edge">
<title>Node22&#45;&gt;Node23</title>
<path fill="none" stroke="midnightblue" d="M1120.28,-291.32C1129.84,-283.26 1144.28,-271.08 1155.78,-261.37"/>
<polygon fill="midnightblue" stroke="midnightblue" points="1158.14,-263.96 1163.53,-254.83 1153.63,-258.61 1158.14,-263.96"/>
</g>
<!-- Node23&#45;&gt;Node7 -->
<g id="edge30" class="edge">
<title>Node23&#45;&gt;Node7</title>
<path fill="none" stroke="midnightblue" d="M1181.93,-235.08C1188.85,-227.3 1199.07,-215.8 1207.45,-206.37"/>
<polygon fill="midnightblue" stroke="midnightblue" points="1210.19,-208.55 1214.22,-198.75 1204.96,-203.9 1210.19,-208.55"/>
</g>
<!-- Node23&#45;&gt;Node10 -->
<g id="edge32" class="edge">
<title>Node23&#45;&gt;Node10</title>
<path fill="none" stroke="midnightblue" d="M1136.13,-235.44C1094.52,-226.04 1027.63,-210.93 982.53,-200.74"/>
<polygon fill="midnightblue" stroke="midnightblue" points="983.22,-197.31 972.69,-198.52 981.68,-204.13 983.22,-197.31"/>
</g>
<!-- Node23&#45;&gt;Node17 -->
<g id="edge31" class="edge">
<title>Node23&#45;&gt;Node17</title>
<path fill="none" stroke="midnightblue" d="M1170.18,-235.22C1156.56,-205.01 1107.27,-104.56 1034,-56 991.98,-28.15 934.3,-17.52 894.79,-13.47"/>
<polygon fill="midnightblue" stroke="midnightblue" points="894.93,-9.97 884.66,-12.53 894.29,-16.94 894.93,-9.97"/>
</g>
<!-- Node24&#45;&gt;Node2 -->
<g id="edge35" class="edge">
<title>Node24&#45;&gt;Node2</title>
<path fill="none" stroke="midnightblue" d="M583.71,-403.32C600.31,-394.7 626,-381.36 645.22,-371.39"/>
<polygon fill="midnightblue" stroke="midnightblue" points="647.07,-374.37 654.33,-366.65 643.84,-368.16 647.07,-374.37"/>
</g>
<!-- Node25 -->
<g id="node25" class="node">
<title>Node25</title>
<g id="a_node25"><a xlink:href="Vector_8hpp.html" target="_top" xlink:title="Definition of the Vector class template and closely related code.">
<polygon fill="white" stroke="black" points="346.5,-235.5 346.5,-254.5 453.5,-254.5 453.5,-235.5 346.5,-235.5"/>
<text text-anchor="middle" x="400" y="-242.5" font-family="Helvetica,sans-Serif" font-size="10.00">playrho/Vector.hpp</text>
</a>
</g>
</g>
<!-- Node24&#45;&gt;Node25 -->
<g id="edge36" class="edge">
<title>Node24&#45;&gt;Node25</title>
<path fill="none" stroke="midnightblue" d="M558.02,-403.08C531.05,-376.27 450.49,-296.19 415.98,-261.89"/>
<polygon fill="midnightblue" stroke="midnightblue" points="418.18,-259.14 408.62,-254.57 413.24,-264.1 418.18,-259.14"/>
</g>
<!-- Node25&#45;&gt;Node3 -->
<g id="edge38" class="edge">
<title>Node25&#45;&gt;Node3</title>
<path fill="none" stroke="midnightblue" d="M414.94,-235.32C429.59,-226.82 452.13,-213.73 469.24,-203.8"/>
<polygon fill="midnightblue" stroke="midnightblue" points="471.2,-206.7 478.1,-198.65 467.69,-200.65 471.2,-206.7"/>
</g>
<!-- Node25&#45;&gt;Node4 -->
<g id="edge37" class="edge">
<title>Node25&#45;&gt;Node4</title>
<path fill="none" stroke="midnightblue" d="M425.99,-235.44C453.7,-226.32 497.75,-211.81 528.62,-201.65"/>
<polygon fill="midnightblue" stroke="midnightblue" points="529.73,-204.97 538.14,-198.52 527.54,-198.32 529.73,-204.97"/>
</g>
<!-- Node25&#45;&gt;Node8 -->
<g id="edge41" class="edge">
<title>Node25&#45;&gt;Node8</title>
<path fill="none" stroke="midnightblue" d="M346.17,-243.72C264.22,-242.14 113.58,-234.36 75,-199 26.68,-154.72 27.11,-68.24 29.99,-29.98"/>
<polygon fill="midnightblue" stroke="midnightblue" points="33.5,-30.03 30.92,-19.76 26.53,-29.4 33.5,-30.03"/>
</g>
<!-- Node25&#45;&gt;Node11 -->
<g id="edge46" class="edge">
<title>Node25&#45;&gt;Node11</title>
<path fill="none" stroke="midnightblue" d="M446.9,-235.44C499.08,-225.92 583.37,-210.55 639.23,-200.36"/>
<polygon fill="midnightblue" stroke="midnightblue" points="640.11,-203.75 649.32,-198.52 638.85,-196.87 640.11,-203.75"/>
</g>
<!-- Node25&#45;&gt;Node12 -->
<g id="edge47" class="edge">
<title>Node25&#45;&gt;Node12</title>
<path fill="none" stroke="midnightblue" d="M405.07,-235.28C413.78,-221.11 433,-193.26 457,-179 495,-156.42 543.2,-145.16 582.76,-139.55"/>
<polygon fill="midnightblue" stroke="midnightblue" points="583.43,-142.99 592.88,-138.21 582.51,-136.05 583.43,-142.99"/>
</g>
<!-- Node25&#45;&gt;Node14 -->
<g id="edge42" class="edge">
<title>Node25&#45;&gt;Node14</title>
<path fill="none" stroke="midnightblue" d="M346.2,-244.31C266.16,-243.5 121.63,-236.69 89,-199 40.55,-143.04 129.24,-59.92 170.52,-26.12"/>
<polygon fill="midnightblue" stroke="midnightblue" points="172.94,-28.67 178.55,-19.68 168.56,-23.21 172.94,-28.67"/>
</g>
<!-- Node25&#45;&gt;Node15 -->
<g id="edge40" class="edge">
<title>Node25&#45;&gt;Node15</title>
<path fill="none" stroke="midnightblue" d="M396.6,-235.19C393.3,-226.22 388.45,-211.86 386,-199 374.4,-138.03 372.3,-64.22 372,-30.06"/>
<polygon fill="midnightblue" stroke="midnightblue" points="375.49,-29.7 371.95,-19.71 368.49,-29.73 375.49,-29.7"/>
</g>
<!-- Node25&#45;&gt;Node17 -->
<g id="edge39" class="edge">
<title>Node25&#45;&gt;Node17</title>
<path fill="none" stroke="midnightblue" d="M401.85,-235.2C405.17,-221.44 413.42,-194.75 430,-179 539.62,-74.93 721.82,-32.38 805.5,-17.68"/>
<polygon fill="midnightblue" stroke="midnightblue" points="806.17,-21.11 815.44,-15.98 804.99,-14.21 806.17,-21.11"/>
</g>
<!-- Node26 -->
<g id="node26" class="node">
<title>Node26</title>
<g id="a_node26"><a xlink:title=" ">
<polygon fill="white" stroke="#bfbfbf" points="98,-179.5 98,-198.5 158,-198.5 158,-179.5 98,-179.5"/>
<text text-anchor="middle" x="128" y="-186.5" font-family="Helvetica,sans-Serif" font-size="10.00">iostream</text>
</a>
</g>
</g>
<!-- Node25&#45;&gt;Node26 -->
<g id="edge43" class="edge">
<title>Node25&#45;&gt;Node26</title>
<path fill="none" stroke="midnightblue" d="M353.04,-235.44C308.03,-227.13 237.93,-213.88 168.06,-199.17"/>
<polygon fill="midnightblue" stroke="midnightblue" points="168.72,-195.73 158.21,-197.08 167.27,-202.58 168.72,-195.73"/>
</g>
<!-- Node27 -->
<g id="node27" class="node">
<title>Node27</title>
<g id="a_node27"><a xlink:href="InvalidArgument_8hpp.html" target="_top" xlink:title="Definition of the InvalidArgument class.">
<polygon fill="white" stroke="black" points="176,-179.5 176,-198.5 334,-198.5 334,-179.5 176,-179.5"/>
<text text-anchor="middle" x="255" y="-186.5" font-family="Helvetica,sans-Serif" font-size="10.00">playrho/InvalidArgument.hpp</text>
</a>
</g>
</g>
<!-- Node25&#45;&gt;Node27 -->
<g id="edge44" class="edge">
<title>Node25&#45;&gt;Node27</title>
<path fill="none" stroke="midnightblue" d="M377.02,-235.44C352.84,-226.44 314.58,-212.19 287.35,-202.05"/>
<polygon fill="midnightblue" stroke="midnightblue" points="288.46,-198.73 277.87,-198.52 286.02,-205.29 288.46,-198.73"/>
</g>
<!-- Node28 -->
<g id="node28" class="node">
<title>Node28</title>
<g id="a_node28"><a xlink:title=" ">
<polygon fill="white" stroke="#bfbfbf" points="222.5,-123.5 222.5,-142.5 287.5,-142.5 287.5,-123.5 222.5,-123.5"/>
<text text-anchor="middle" x="255" y="-130.5" font-family="Helvetica,sans-Serif" font-size="10.00">stdexcept</text>
</a>
</g>
</g>
<!-- Node27&#45;&gt;Node28 -->
<g id="edge45" class="edge">
<title>Node27&#45;&gt;Node28</title>
<path fill="none" stroke="midnightblue" d="M255,-179.08C255,-172.01 255,-161.86 255,-152.99"/>
<polygon fill="midnightblue" stroke="midnightblue" points="258.5,-152.75 255,-142.75 251.5,-152.75 258.5,-152.75"/>
</g>
</g>
</svg>
        <g id="navigator" transform="translate(0 0)" fill="#404254">
                <rect fill="#f2f5e9" fill-opacity="0.5" stroke="#606060" stroke-width=".5" x="0" y="0" width="60" height="60"/>
                <use id="zoomplus" xlink:href="#zoomPlus" x="17" y="9" onmousedown="handleZoom(evt,'in')"/>
                <use id="zoomminus" xlink:href="#zoomMin" x="42" y="9" onmousedown="handleZoom(evt,'out')"/>
                <use id="reset" xlink:href="#resetDef" x="30" y="36" onmousedown="handleReset()"/>
                <g id="arrowUp" xlink:href="#dirArrow" transform="translate(30 24)" onmousedown="handlePan(0,-1)">
                  <use xlink:href="#rim" fill="#404040">
                        <set attributeName="fill" to="#808080" begin="arrowUp.mouseover" end="arrowUp.mouseout"/>
                  </use>
                  <path fill="none" stroke="white" stroke-width="1.5" d="M0,-3.0v7 M-2.5,-0.5L0,-3.0L2.5,-0.5"/>
                </g>
                <g id="arrowRight" xlink:href="#dirArrow" transform="rotate(90) translate(36 -43)" onmousedown="handlePan(1,0)">
                  <use xlink:href="#rim" fill="#404040">
                        <set attributeName="fill" to="#808080" begin="arrowRight.mouseover" end="arrowRight.mouseout"/>
                  </use>
                  <path fill="none" stroke="white" stroke-width="1.5" d="M0,-3.0v7 M-2.5,-0.5L0,-3.0L2.5,-0.5"/>
                </g>
                <g id="arrowDown" xlink:href="#dirArrow" transform="rotate(180) translate(-30 -48)" onmousedown="handlePan(0,1)">
                  <use xlink:href="#rim" fill="#404040">
                        <set attributeName="fill" to="#808080" begin="arrowDown.mouseover" end="arrowDown.mouseout"/>
                  </use>
                  <path fill="none" stroke="white" stroke-width="1.5" d="M0,-3.0v7 M-2.5,-0.5L0,-3.0L2.5,-0.5"/>
                </g>
                <g id="arrowLeft" xlink:href="#dirArrow" transform="rotate(270) translate(-36 17)" onmousedown="handlePan(-1,0)">
                  <use xlink:href="#rim" fill="#404040">
                        <set attributeName="fill" to="#808080" begin="arrowLeft.mouseover" end="arrowLeft.mouseout"/>
                  </use>
                  <path fill="none" stroke="white" stroke-width="1.5" d="M0,-3.0v7 M-2.5,-0.5L0,-3.0L2.5,-0.5"/>
                </g>
        </g>
        <svg viewBox="0 0 15 15" width="100%" height="30px" preserveAspectRatio="xMaxYMin meet">
         <g id="arrow_out" transform="scale(0.3 0.3)">
          <a xlink:href="Position_8hpp__incl_org.svg" target="_base">
           <rect id="button" ry="5" rx="5" y="6" x="6" height="38" width="38"
                fill="#f2f5e9" fill-opacity="0.5" stroke="#606060" stroke-width="1.0"/>
           <path id="arrow"
             d="M 11.500037,31.436501 C 11.940474,20.09759 22.043105,11.32322 32.158766,21.979434 L 37.068811,17.246167 C 37.068811,17.246167 37.088388,32 37.088388,32 L 22.160133,31.978069 C 22.160133,31.978069 26.997745,27.140456 26.997745,27.140456 C 18.528582,18.264221 13.291696,25.230495 11.500037,31.436501 z"
             style="fill:#404040;"/>
          </a>
         </g>
        </svg>
</svg>
