<?xml version="1.0" encoding="UTF-8" standalone="no"?>
<!DOCTYPE svg PUBLIC "-//W3C//DTD SVG 1.1//EN"
 "http://www.w3.org/Graphics/SVG/1.1/DTD/svg11.dtd">
<!-- Generated by graphviz version 2.43.0 (0)
 -->
<!-- Title: Library/include/playrho/Settings.hpp Pages: 1 -->
<svg width="984pt" height="386pt"
 viewBox="0.00 0.00 984.00 386.00" xmlns="http://www.w3.org/2000/svg" xmlns:xlink="http://www.w3.org/1999/xlink">
<g id="graph0" class="graph" transform="scale(1 1) rotate(0) translate(4 382)">
<title>Library/include/playrho/Settings.hpp</title>
<polygon fill="white" stroke="transparent" points="-4,4 -4,-382 980,-382 980,4 -4,4"/>
<!-- Node1 -->
<g id="node1" class="node">
<title>Node1</title>
<g id="a_node1"><a xlink:title="Types and default settings file.">
<polygon fill="#bfbfbf" stroke="black" points="473,-347.5 473,-377.5 601,-377.5 601,-347.5 473,-347.5"/>
<text text-anchor="start" x="481" y="-365.5" font-family="Helvetica,sans-Serif" font-size="10.00">Library/include/playrho</text>
<text text-anchor="middle" x="537" y="-354.5" font-family="Helvetica,sans-Serif" font-size="10.00">/Settings.hpp</text>
</a>
</g>
</g>
<!-- Node2 -->
<g id="node2" class="node">
<title>Node2</title>
<g id="a_node2"><a xlink:title=" ">
<polygon fill="white" stroke="#bfbfbf" points="0,-0.5 0,-19.5 64,-19.5 64,-0.5 0,-0.5"/>
<text text-anchor="middle" x="32" y="-7.5" font-family="Helvetica,sans-Serif" font-size="10.00">algorithm</text>
</a>
</g>
</g>
<!-- Node1&#45;&gt;Node2 -->
<g id="edge1" class="edge">
<title>Node1&#45;&gt;Node2</title>
<path fill="none" stroke="midnightblue" d="M472.79,-360.17C336.77,-355.62 32,-335.43 32,-246 32,-246 32,-246 32,-132 32,-95.71 32,-53.31 32,-29.56"/>
<polygon fill="midnightblue" stroke="midnightblue" points="35.5,-29.51 32,-19.51 28.5,-29.51 35.5,-29.51"/>
</g>
<!-- Node3 -->
<g id="node3" class="node">
<title>Node3</title>
<g id="a_node3"><a xlink:title=" ">
<polygon fill="white" stroke="#bfbfbf" points="790.5,-291.5 790.5,-310.5 843.5,-310.5 843.5,-291.5 790.5,-291.5"/>
<text text-anchor="middle" x="817" y="-298.5" font-family="Helvetica,sans-Serif" font-size="10.00">cstddef</text>
</a>
</g>
</g>
<!-- Node1&#45;&gt;Node3 -->
<g id="edge2" class="edge">
<title>Node1&#45;&gt;Node3</title>
<path fill="none" stroke="midnightblue" d="M601.19,-348.08C649.32,-337.98 716.82,-323.75 776,-311 777.28,-310.72 778.59,-310.44 779.9,-310.16"/>
<polygon fill="midnightblue" stroke="midnightblue" points="781.07,-313.48 790.1,-307.94 779.58,-306.64 781.07,-313.48"/>
</g>
<!-- Node4 -->
<g id="node4" class="node">
<title>Node4</title>
<g id="a_node4"><a xlink:title=" ">
<polygon fill="white" stroke="#bfbfbf" points="862,-291.5 862,-310.5 914,-310.5 914,-291.5 862,-291.5"/>
<text text-anchor="middle" x="888" y="-298.5" font-family="Helvetica,sans-Serif" font-size="10.00">cassert</text>
</a>
</g>
</g>
<!-- Node1&#45;&gt;Node4 -->
<g id="edge3" class="edge">
<title>Node1&#45;&gt;Node4</title>
<path fill="none" stroke="midnightblue" d="M601.17,-353.03C663.05,-344.46 759.51,-330.05 851.9,-311.08"/>
<polygon fill="midnightblue" stroke="midnightblue" points="852.61,-314.5 861.69,-309.05 851.19,-307.65 852.61,-314.5"/>
</g>
<!-- Node5 -->
<g id="node5" class="node">
<title>Node5</title>
<g id="a_node5"><a xlink:title=" ">
<polygon fill="white" stroke="#bfbfbf" points="932,-291.5 932,-310.5 976,-310.5 976,-291.5 932,-291.5"/>
<text text-anchor="middle" x="954" y="-298.5" font-family="Helvetica,sans-Serif" font-size="10.00">cfloat</text>
</a>
</g>
</g>
<!-- Node1&#45;&gt;Node5 -->
<g id="edge4" class="edge">
<title>Node1&#45;&gt;Node5</title>
<path fill="none" stroke="midnightblue" d="M601.02,-356.14C675.9,-349.19 803.65,-335.26 921.81,-310.97"/>
<polygon fill="midnightblue" stroke="midnightblue" points="922.68,-314.37 931.75,-308.9 921.25,-307.51 922.68,-314.37"/>
</g>
<!-- Node6 -->
<g id="node6" class="node">
<title>Node6</title>
<g id="a_node6"><a xlink:title=" ">
<polygon fill="white" stroke="#bfbfbf" points="727.5,-235.5 727.5,-254.5 774.5,-254.5 774.5,-235.5 727.5,-235.5"/>
<text text-anchor="middle" x="751" y="-242.5" font-family="Helvetica,sans-Serif" font-size="10.00">cmath</text>
</a>
</g>
</g>
<!-- Node1&#45;&gt;Node6 -->
<g id="edge5" class="edge">
<title>Node1&#45;&gt;Node6</title>
<path fill="none" stroke="midnightblue" d="M563.24,-347.34C604.88,-324.86 685.53,-281.33 726.23,-259.37"/>
<polygon fill="midnightblue" stroke="midnightblue" points="728.07,-262.35 735.21,-254.52 724.75,-256.19 728.07,-262.35"/>
</g>
<!-- Node7 -->
<g id="node7" class="node">
<title>Node7</title>
<g id="a_node7"><a xlink:title=" ">
<polygon fill="white" stroke="#bfbfbf" points="150,-179.5 150,-198.5 200,-198.5 200,-179.5 150,-179.5"/>
<text text-anchor="middle" x="175" y="-186.5" font-family="Helvetica,sans-Serif" font-size="10.00">cstdint</text>
</a>
</g>
</g>
<!-- Node1&#45;&gt;Node7 -->
<g id="edge6" class="edge">
<title>Node1&#45;&gt;Node7</title>
<path fill="none" stroke="midnightblue" d="M472.81,-358.05C387.57,-352.44 242.58,-339.03 198,-311 172.54,-294.99 168.83,-283.75 160,-255 155.17,-239.28 160.32,-220.99 165.86,-207.83"/>
<polygon fill="midnightblue" stroke="midnightblue" points="169.14,-209.06 170.2,-198.52 162.8,-206.1 169.14,-209.06"/>
</g>
<!-- Node8 -->
<g id="node8" class="node">
<title>Node8</title>
<g id="a_node8"><a xlink:title=" ">
<polygon fill="white" stroke="#bfbfbf" points="728,-123.5 728,-142.5 772,-142.5 772,-123.5 728,-123.5"/>
<text text-anchor="middle" x="750" y="-130.5" font-family="Helvetica,sans-Serif" font-size="10.00">limits</text>
</a>
</g>
</g>
<!-- Node1&#45;&gt;Node8 -->
<g id="edge7" class="edge">
<title>Node1&#45;&gt;Node8</title>
<path fill="none" stroke="midnightblue" d="M601.17,-353.75C660.15,-342.83 744.26,-316.75 784,-255 805.25,-221.97 779.81,-175.57 762.83,-150.93"/>
<polygon fill="midnightblue" stroke="midnightblue" points="765.53,-148.69 756.85,-142.62 759.85,-152.78 765.53,-148.69"/>
</g>
<!-- Node9 -->
<g id="node9" class="node">
<title>Node9</title>
<g id="a_node9"><a xlink:href="RealConstants_8hpp.html" target="_top" xlink:title="Definitions file for constant expressions of type Real.">
<polygon fill="white" stroke="black" points="323,-235.5 323,-254.5 471,-254.5 471,-235.5 323,-235.5"/>
<text text-anchor="middle" x="397" y="-242.5" font-family="Helvetica,sans-Serif" font-size="10.00">playrho/RealConstants.hpp</text>
</a>
</g>
</g>
<!-- Node1&#45;&gt;Node9 -->
<g id="edge8" class="edge">
<title>Node1&#45;&gt;Node9</title>
<path fill="none" stroke="midnightblue" d="M519.83,-347.34C493.35,-325.49 442.74,-283.73 415.48,-261.24"/>
<polygon fill="midnightblue" stroke="midnightblue" points="417.45,-258.33 407.51,-254.67 412.99,-263.73 417.45,-258.33"/>
</g>
<!-- Node12 -->
<g id="node12" class="node">
<title>Node12</title>
<g id="a_node12"><a xlink:href="Templates_8hpp.html" target="_top" xlink:title="Definitions of miscellaneous template related code.">
<polygon fill="white" stroke="black" points="297,-123.5 297,-142.5 425,-142.5 425,-123.5 297,-123.5"/>
<text text-anchor="middle" x="361" y="-130.5" font-family="Helvetica,sans-Serif" font-size="10.00">playrho/Templates.hpp</text>
</a>
</g>
</g>
<!-- Node1&#45;&gt;Node12 -->
<g id="edge19" class="edge">
<title>Node1&#45;&gt;Node12</title>
<path fill="none" stroke="midnightblue" d="M472.71,-360.72C380.26,-358.27 216.03,-348.6 172,-311 126.17,-271.87 102.9,-225.69 141,-179 159.31,-156.56 230.48,-145.01 286.97,-139.27"/>
<polygon fill="midnightblue" stroke="midnightblue" points="287.36,-142.75 296.98,-138.3 286.68,-135.78 287.36,-142.75"/>
</g>
<!-- Node18 -->
<g id="node18" class="node">
<title>Node18</title>
<g id="a_node18"><a xlink:href="Units_8hpp.html" target="_top" xlink:title="Declarations for physical units possibly backed by strong types.">
<polygon fill="white" stroke="black" points="485.5,-291.5 485.5,-310.5 588.5,-310.5 588.5,-291.5 485.5,-291.5"/>
<text text-anchor="middle" x="537" y="-298.5" font-family="Helvetica,sans-Serif" font-size="10.00">playrho/Units.hpp</text>
</a>
</g>
</g>
<!-- Node1&#45;&gt;Node18 -->
<g id="edge20" class="edge">
<title>Node1&#45;&gt;Node18</title>
<path fill="none" stroke="midnightblue" d="M537,-347.4C537,-339.47 537,-329.46 537,-320.86"/>
<polygon fill="midnightblue" stroke="midnightblue" points="540.5,-320.66 537,-310.66 533.5,-320.66 540.5,-320.66"/>
</g>
<!-- Node21 -->
<g id="node21" class="node">
<title>Node21</title>
<g id="a_node21"><a xlink:href="WiderType_8hpp.html" target="_top" xlink:title="Definition of the WiderType alias template.">
<polygon fill="white" stroke="black" points="207,-291.5 207,-310.5 335,-310.5 335,-291.5 207,-291.5"/>
<text text-anchor="middle" x="271" y="-298.5" font-family="Helvetica,sans-Serif" font-size="10.00">playrho/WiderType.hpp</text>
</a>
</g>
</g>
<!-- Node1&#45;&gt;Node21 -->
<g id="edge28" class="edge">
<title>Node1&#45;&gt;Node21</title>
<path fill="none" stroke="midnightblue" d="M474.3,-347.47C426.8,-336.85 362.53,-322.47 319.06,-312.75"/>
<polygon fill="midnightblue" stroke="midnightblue" points="319.55,-309.27 309.03,-310.51 318.02,-316.1 319.55,-309.27"/>
</g>
<!-- Node10 -->
<g id="node10" class="node">
<title>Node10</title>
<g id="a_node10"><a xlink:href="Defines_8hpp.html" target="_top" xlink:title="Miscellaneous C&#45;preprocessor definitions.">
<polygon fill="white" stroke="black" points="258,-179.5 258,-198.5 372,-198.5 372,-179.5 258,-179.5"/>
<text text-anchor="middle" x="315" y="-186.5" font-family="Helvetica,sans-Serif" font-size="10.00">playrho/Defines.hpp</text>
</a>
</g>
</g>
<!-- Node9&#45;&gt;Node10 -->
<g id="edge9" class="edge">
<title>Node9&#45;&gt;Node10</title>
<path fill="none" stroke="midnightblue" d="M383.83,-235.32C371.15,-226.98 351.77,-214.21 336.79,-204.35"/>
<polygon fill="midnightblue" stroke="midnightblue" points="338.42,-201.23 328.14,-198.65 334.57,-207.08 338.42,-201.23"/>
</g>
<!-- Node11 -->
<g id="node11" class="node">
<title>Node11</title>
<g id="a_node11"><a xlink:href="Real_8hpp.html" target="_top" xlink:title="Real number definition file.">
<polygon fill="white" stroke="black" points="428.5,-179.5 428.5,-198.5 527.5,-198.5 527.5,-179.5 428.5,-179.5"/>
<text text-anchor="middle" x="478" y="-186.5" font-family="Helvetica,sans-Serif" font-size="10.00">playrho/Real.hpp</text>
</a>
</g>
</g>
<!-- Node9&#45;&gt;Node11 -->
<g id="edge10" class="edge">
<title>Node9&#45;&gt;Node11</title>
<path fill="none" stroke="midnightblue" d="M410.01,-235.32C422.53,-226.98 441.68,-214.21 456.47,-204.35"/>
<polygon fill="midnightblue" stroke="midnightblue" points="458.64,-207.11 465.02,-198.65 454.76,-201.29 458.64,-207.11"/>
</g>
<!-- Node11&#45;&gt;Node8 -->
<g id="edge11" class="edge">
<title>Node11&#45;&gt;Node8</title>
<path fill="none" stroke="midnightblue" d="M521.1,-179.44C575.81,-168.58 668.93,-150.09 717.83,-140.39"/>
<polygon fill="midnightblue" stroke="midnightblue" points="718.72,-143.78 727.85,-138.4 717.36,-136.91 718.72,-143.78"/>
</g>
<!-- Node11&#45;&gt;Node12 -->
<g id="edge12" class="edge">
<title>Node11&#45;&gt;Node12</title>
<path fill="none" stroke="midnightblue" d="M459.46,-179.44C440.38,-170.64 410.43,-156.81 388.56,-146.72"/>
<polygon fill="midnightblue" stroke="midnightblue" points="390,-143.53 379.45,-142.52 387.07,-149.88 390,-143.53"/>
</g>
<!-- Node13 -->
<g id="node13" class="node">
<title>Node13</title>
<g id="a_node13"><a xlink:href="detail_2Templates_8hpp.html" target="_top" xlink:title="Low&#45;level declarations for general class &amp; function templates.">
<polygon fill="white" stroke="black" points="60,-62 60,-81 218,-81 218,-62 60,-62"/>
<text text-anchor="middle" x="139" y="-69" font-family="Helvetica,sans-Serif" font-size="10.00">playrho/detail/Templates.hpp</text>
</a>
</g>
</g>
<!-- Node12&#45;&gt;Node13 -->
<g id="edge13" class="edge">
<title>Node12&#45;&gt;Node13</title>
<path fill="none" stroke="midnightblue" d="M329.19,-123.48C290.12,-113 223.74,-95.21 180.64,-83.66"/>
<polygon fill="midnightblue" stroke="midnightblue" points="181.31,-80.22 170.75,-81.01 179.5,-86.98 181.31,-80.22"/>
</g>
<!-- Node13&#45;&gt;Node2 -->
<g id="edge14" class="edge">
<title>Node13&#45;&gt;Node2</title>
<path fill="none" stroke="midnightblue" d="M123.67,-61.98C106.03,-52.17 76.84,-35.93 56.14,-24.42"/>
<polygon fill="midnightblue" stroke="midnightblue" points="57.74,-21.31 47.3,-19.51 54.34,-27.43 57.74,-21.31"/>
</g>
<!-- Node14 -->
<g id="node14" class="node">
<title>Node14</title>
<g id="a_node14"><a xlink:title=" ">
<polygon fill="white" stroke="#bfbfbf" points="145.5,-0.5 145.5,-19.5 210.5,-19.5 210.5,-0.5 145.5,-0.5"/>
<text text-anchor="middle" x="178" y="-7.5" font-family="Helvetica,sans-Serif" font-size="10.00">functional</text>
</a>
</g>
</g>
<!-- Node13&#45;&gt;Node14 -->
<g id="edge15" class="edge">
<title>Node13&#45;&gt;Node14</title>
<path fill="none" stroke="midnightblue" d="M144.59,-61.98C150.38,-53.14 159.59,-39.09 166.87,-27.98"/>
<polygon fill="midnightblue" stroke="midnightblue" points="169.87,-29.79 172.42,-19.51 164.01,-25.95 169.87,-29.79"/>
</g>
<!-- Node15 -->
<g id="node15" class="node">
<title>Node15</title>
<g id="a_node15"><a xlink:title=" ">
<polygon fill="white" stroke="#bfbfbf" points="228.5,-0.5 228.5,-19.5 281.5,-19.5 281.5,-0.5 228.5,-0.5"/>
<text text-anchor="middle" x="255" y="-7.5" font-family="Helvetica,sans-Serif" font-size="10.00">iterator</text>
</a>
</g>
</g>
<!-- Node13&#45;&gt;Node15 -->
<g id="edge16" class="edge">
<title>Node13&#45;&gt;Node15</title>
<path fill="none" stroke="midnightblue" d="M155.62,-61.98C174.92,-52.08 206.96,-35.64 229.43,-24.12"/>
<polygon fill="midnightblue" stroke="midnightblue" points="231.11,-27.19 238.41,-19.51 227.92,-20.96 231.11,-27.19"/>
</g>
<!-- Node16 -->
<g id="node16" class="node">
<title>Node16</title>
<g id="a_node16"><a xlink:title=" ">
<polygon fill="white" stroke="#bfbfbf" points="413.5,-0.5 413.5,-19.5 482.5,-19.5 482.5,-0.5 413.5,-0.5"/>
<text text-anchor="middle" x="448" y="-7.5" font-family="Helvetica,sans-Serif" font-size="10.00">type_traits</text>
</a>
</g>
</g>
<!-- Node13&#45;&gt;Node16 -->
<g id="edge17" class="edge">
<title>Node13&#45;&gt;Node16</title>
<path fill="none" stroke="midnightblue" d="M183.27,-61.98C241.83,-50.7 344.48,-30.93 403.27,-19.61"/>
<polygon fill="midnightblue" stroke="midnightblue" points="404.21,-23 413.37,-17.67 402.89,-16.12 404.21,-23"/>
</g>
<!-- Node17 -->
<g id="node17" class="node">
<title>Node17</title>
<g id="a_node17"><a xlink:title=" ">
<polygon fill="white" stroke="#bfbfbf" points="82.5,-0.5 82.5,-19.5 127.5,-19.5 127.5,-0.5 82.5,-0.5"/>
<text text-anchor="middle" x="105" y="-7.5" font-family="Helvetica,sans-Serif" font-size="10.00">utility</text>
</a>
</g>
</g>
<!-- Node13&#45;&gt;Node17 -->
<g id="edge18" class="edge">
<title>Node13&#45;&gt;Node17</title>
<path fill="none" stroke="midnightblue" d="M134.13,-61.98C129.13,-53.23 121.21,-39.37 114.89,-28.31"/>
<polygon fill="midnightblue" stroke="midnightblue" points="117.86,-26.46 109.86,-19.51 111.78,-29.93 117.86,-26.46"/>
</g>
<!-- Node18&#45;&gt;Node6 -->
<g id="edge21" class="edge">
<title>Node18&#45;&gt;Node6</title>
<path fill="none" stroke="midnightblue" d="M572.44,-291.44C606.97,-283.04 661.21,-269.71 717.45,-255.1"/>
<polygon fill="midnightblue" stroke="midnightblue" points="718.43,-258.46 727.22,-252.55 716.66,-251.69 718.43,-258.46"/>
</g>
<!-- Node18&#45;&gt;Node9 -->
<g id="edge23" class="edge">
<title>Node18&#45;&gt;Node9</title>
<path fill="none" stroke="midnightblue" d="M514.82,-291.44C491.57,-282.48 454.85,-268.31 428.58,-258.18"/>
<polygon fill="midnightblue" stroke="midnightblue" points="429.67,-254.85 419.08,-254.52 427.15,-261.38 429.67,-254.85"/>
</g>
<!-- Node18&#45;&gt;Node12 -->
<g id="edge24" class="edge">
<title>Node18&#45;&gt;Node12</title>
<path fill="none" stroke="midnightblue" d="M530.72,-291.23C520.93,-277.97 500.97,-252.51 480,-235 456.13,-215.07 444.04,-218.73 420,-199 402.41,-184.57 385.27,-164.86 374.04,-150.94"/>
<polygon fill="midnightblue" stroke="midnightblue" points="376.51,-148.42 367.56,-142.74 371.01,-152.76 376.51,-148.42"/>
</g>
<!-- Node18&#45;&gt;Node16 -->
<g id="edge22" class="edge">
<title>Node18&#45;&gt;Node16</title>
<path fill="none" stroke="midnightblue" d="M538.41,-291.32C541.38,-271.2 547.18,-219.98 537,-179 522.13,-119.17 481.58,-57.21 460.74,-28.08"/>
<polygon fill="midnightblue" stroke="midnightblue" points="463.44,-25.84 454.72,-19.82 457.78,-29.96 463.44,-25.84"/>
</g>
<!-- Node19 -->
<g id="node19" class="node">
<title>Node19</title>
<g id="a_node19"><a xlink:href="to__underlying_8hpp.html" target="_top" xlink:title="Definition of to_underlying function template.">
<polygon fill="white" stroke="black" points="565,-235.5 565,-254.5 709,-254.5 709,-235.5 565,-235.5"/>
<text text-anchor="middle" x="637" y="-242.5" font-family="Helvetica,sans-Serif" font-size="10.00">playrho/to_underlying.hpp</text>
</a>
</g>
</g>
<!-- Node18&#45;&gt;Node19 -->
<g id="edge25" class="edge">
<title>Node18&#45;&gt;Node19</title>
<path fill="none" stroke="midnightblue" d="M553.07,-291.32C568.96,-282.74 593.51,-269.49 611.96,-259.52"/>
<polygon fill="midnightblue" stroke="midnightblue" points="613.84,-262.49 620.97,-254.65 610.51,-256.33 613.84,-262.49"/>
</g>
<!-- Node20 -->
<g id="node20" class="node">
<title>Node20</title>
<g id="a_node20"><a xlink:href="underlying__type_8hpp.html" target="_top" xlink:title="Definition of underlying_type trait class and related code.">
<polygon fill="white" stroke="black" points="584.5,-56.5 584.5,-86.5 723.5,-86.5 723.5,-56.5 584.5,-56.5"/>
<text text-anchor="start" x="592.5" y="-74.5" font-family="Helvetica,sans-Serif" font-size="10.00">playrho/detail/underlying</text>
<text text-anchor="middle" x="654" y="-63.5" font-family="Helvetica,sans-Serif" font-size="10.00">_type.hpp</text>
</a>
</g>
</g>
<!-- Node19&#45;&gt;Node20 -->
<g id="edge26" class="edge">
<title>Node19&#45;&gt;Node20</title>
<path fill="none" stroke="midnightblue" d="M637.87,-235.26C640.37,-209.97 647.7,-136.08 651.56,-97.15"/>
<polygon fill="midnightblue" stroke="midnightblue" points="655.09,-97.02 652.59,-86.72 648.12,-96.33 655.09,-97.02"/>
</g>
<!-- Node20&#45;&gt;Node16 -->
<g id="edge27" class="edge">
<title>Node20&#45;&gt;Node16</title>
<path fill="none" stroke="midnightblue" d="M605.44,-56.47C569.44,-46.08 520.98,-32.08 487.37,-22.37"/>
<polygon fill="midnightblue" stroke="midnightblue" points="488.03,-18.92 477.45,-19.51 486.09,-25.64 488.03,-18.92"/>
</g>
<!-- Node22 -->
<g id="node22" class="node">
<title>Node22</title>
<g id="a_node22"><a xlink:href="Wider_8hpp.html" target="_top" xlink:title="Definition of the Wider class template and specializations.">
<polygon fill="white" stroke="black" points="169,-235.5 169,-254.5 305,-254.5 305,-235.5 169,-235.5"/>
<text text-anchor="middle" x="237" y="-242.5" font-family="Helvetica,sans-Serif" font-size="10.00">playrho/detail/Wider.hpp</text>
</a>
</g>
</g>
<!-- Node21&#45;&gt;Node22 -->
<g id="edge29" class="edge">
<title>Node21&#45;&gt;Node22</title>
<path fill="none" stroke="midnightblue" d="M265.39,-291.08C260.63,-283.53 253.68,-272.49 247.85,-263.23"/>
<polygon fill="midnightblue" stroke="midnightblue" points="250.8,-261.35 242.51,-254.75 244.88,-265.08 250.8,-261.35"/>
</g>
<!-- Node22&#45;&gt;Node7 -->
<g id="edge30" class="edge">
<title>Node22&#45;&gt;Node7</title>
<path fill="none" stroke="midnightblue" d="M227.04,-235.32C217.87,-227.34 204.06,-215.31 192.97,-205.65"/>
<polygon fill="midnightblue" stroke="midnightblue" points="194.98,-202.76 185.14,-198.83 190.38,-208.04 194.98,-202.76"/>
</g>
<!-- Node22&#45;&gt;Node10 -->
<g id="edge32" class="edge">
<title>Node22&#45;&gt;Node10</title>
<path fill="none" stroke="midnightblue" d="M249.53,-235.32C261.59,-226.98 280.03,-214.21 294.27,-204.35"/>
<polygon fill="midnightblue" stroke="midnightblue" points="296.27,-207.22 302.5,-198.65 292.28,-201.47 296.27,-207.22"/>
</g>
<!-- Node22&#45;&gt;Node16 -->
<g id="edge31" class="edge">
<title>Node22&#45;&gt;Node16</title>
<path fill="none" stroke="midnightblue" d="M237.44,-235.26C238.34,-222.45 241.04,-198.06 249,-179 260.68,-151.01 266.58,-144.47 288,-123 330.07,-80.83 389.74,-43.8 423.05,-24.71"/>
<polygon fill="midnightblue" stroke="midnightblue" points="425.11,-27.56 432.1,-19.59 421.67,-21.47 425.11,-27.56"/>
</g>
</g>
</svg>
