<?xml version="1.0" encoding="UTF-8" standalone="no"?>
<!DOCTYPE svg PUBLIC "-//W3C//DTD SVG 1.1//EN"
 "http://www.w3.org/Graphics/SVG/1.1/DTD/svg11.dtd">
<!-- Generated by graphviz version 2.43.0 (0)
 -->
<!-- Title: Library/include/playrho/Settings.hpp Pages: 1 -->
<svg width="777pt" height="386pt"
 viewBox="0.00 0.00 777.39 386.00" xmlns="http://www.w3.org/2000/svg" xmlns:xlink="http://www.w3.org/1999/xlink">
<g id="graph0" class="graph" transform="scale(1 1) rotate(0) translate(4 382)">
<title>Library/include/playrho/Settings.hpp</title>
<polygon fill="white" stroke="transparent" points="-4,4 -4,-382 773.39,-382 773.39,4 -4,4"/>
<!-- Node1 -->
<g id="node1" class="node">
<title>Node1</title>
<g id="a_node1"><a xlink:title="Types and default settings file.">
<polygon fill="#bfbfbf" stroke="black" points="221.39,-347.5 221.39,-377.5 349.39,-377.5 349.39,-347.5 221.39,-347.5"/>
<text text-anchor="start" x="229.39" y="-365.5" font-family="Helvetica,sans-Serif" font-size="10.00">Library/include/playrho</text>
<text text-anchor="middle" x="285.39" y="-354.5" font-family="Helvetica,sans-Serif" font-size="10.00">/Settings.hpp</text>
</a>
</g>
</g>
<!-- Node2 -->
<g id="node2" class="node">
<title>Node2</title>
<g id="a_node2"><a xlink:title=" ">
<polygon fill="white" stroke="#bfbfbf" points="521.39,-179.5 521.39,-198.5 571.39,-198.5 571.39,-179.5 521.39,-179.5"/>
<text text-anchor="middle" x="546.39" y="-186.5" font-family="Helvetica,sans-Serif" font-size="10.00">cstdint</text>
</a>
</g>
</g>
<!-- Node1&#45;&gt;Node2 -->
<g id="edge1" class="edge">
<title>Node1&#45;&gt;Node2</title>
<path fill="none" stroke="midnightblue" d="M341.4,-347.39C392.32,-332.07 466.73,-303.11 515.39,-255 528.43,-242.11 536.7,-222.66 541.39,-208.4"/>
<polygon fill="midnightblue" stroke="midnightblue" points="544.78,-209.28 544.29,-198.69 538.07,-207.27 544.78,-209.28"/>
</g>
<!-- Node3 -->
<g id="node3" class="node">
<title>Node3</title>
<g id="a_node3"><a xlink:title=" ">
<polygon fill="white" stroke="#bfbfbf" points="3.39,-118 3.39,-137 47.39,-137 47.39,-118 3.39,-118"/>
<text text-anchor="middle" x="25.39" y="-125" font-family="Helvetica,sans-Serif" font-size="10.00">limits</text>
</a>
</g>
</g>
<!-- Node1&#45;&gt;Node3 -->
<g id="edge2" class="edge">
<title>Node1&#45;&gt;Node3</title>
<path fill="none" stroke="midnightblue" d="M221.22,-361.11C169.07,-357.92 95.66,-346.65 42.39,-311 17.39,-294.27 13.22,-283.75 4.39,-255 -7.17,-217.39 7.25,-171.41 17.28,-146.55"/>
<polygon fill="midnightblue" stroke="midnightblue" points="20.53,-147.85 21.22,-137.27 14.09,-145.11 20.53,-147.85"/>
</g>
<!-- Node4 -->
<g id="node4" class="node">
<title>Node4</title>
<g id="a_node4"><a xlink:title=" ">
<polygon fill="white" stroke="#bfbfbf" points="435.89,-0.5 435.89,-19.5 504.89,-19.5 504.89,-0.5 435.89,-0.5"/>
<text text-anchor="middle" x="470.39" y="-7.5" font-family="Helvetica,sans-Serif" font-size="10.00">type_traits</text>
</a>
</g>
</g>
<!-- Node1&#45;&gt;Node4 -->
<g id="edge3" class="edge">
<title>Node1&#45;&gt;Node4</title>
<path fill="none" stroke="midnightblue" d="M349.67,-359.02C451.65,-354.22 645.22,-341.32 706.39,-311 742.44,-293.13 769.39,-286.23 769.39,-246 769.39,-246 769.39,-246 769.39,-126.5 769.39,-72.61 598.26,-34.15 514.93,-18.62"/>
<polygon fill="midnightblue" stroke="midnightblue" points="515.45,-15.16 504.98,-16.8 514.19,-22.04 515.45,-15.16"/>
</g>
<!-- Node5 -->
<g id="node5" class="node">
<title>Node5</title>
<g id="a_node5"><a xlink:href="Real_8hpp.html" target="_top" xlink:title="Real number definition file.">
<polygon fill="white" stroke="black" points="45.89,-179.5 45.89,-198.5 144.89,-198.5 144.89,-179.5 45.89,-179.5"/>
<text text-anchor="middle" x="95.39" y="-186.5" font-family="Helvetica,sans-Serif" font-size="10.00">playrho/Real.hpp</text>
</a>
</g>
</g>
<!-- Node1&#45;&gt;Node5 -->
<g id="edge4" class="edge">
<title>Node1&#45;&gt;Node5</title>
<path fill="none" stroke="midnightblue" d="M221.11,-356.53C156.16,-347.7 58.96,-323.15 12.39,-255 -3.29,-232.05 28.83,-213.46 57.56,-202.13"/>
<polygon fill="midnightblue" stroke="midnightblue" points="58.96,-205.35 67.1,-198.57 56.51,-198.79 58.96,-205.35"/>
</g>
<!-- Node12 -->
<g id="node12" class="node">
<title>Node12</title>
<g id="a_node12"><a xlink:href="RealConstants_8hpp.html" target="_top" xlink:title="Definitions file for constant expressions of type Real.">
<polygon fill="white" stroke="black" points="21.39,-235.5 21.39,-254.5 169.39,-254.5 169.39,-235.5 21.39,-235.5"/>
<text text-anchor="middle" x="95.39" y="-242.5" font-family="Helvetica,sans-Serif" font-size="10.00">playrho/RealConstants.hpp</text>
</a>
</g>
</g>
<!-- Node1&#45;&gt;Node12 -->
<g id="edge14" class="edge">
<title>Node1&#45;&gt;Node12</title>
<path fill="none" stroke="midnightblue" d="M262.09,-347.34C225.52,-325.11 155.07,-282.28 118.57,-260.09"/>
<polygon fill="midnightblue" stroke="midnightblue" points="120.01,-256.87 109.65,-254.67 116.38,-262.85 120.01,-256.87"/>
</g>
<!-- Node13 -->
<g id="node13" class="node">
<title>Node13</title>
<g id="a_node13"><a xlink:href="Units_8hpp.html" target="_top" xlink:title="Declarations for physical units possibly backed by strong types.">
<polygon fill="white" stroke="black" points="233.89,-291.5 233.89,-310.5 336.89,-310.5 336.89,-291.5 233.89,-291.5"/>
<text text-anchor="middle" x="285.39" y="-298.5" font-family="Helvetica,sans-Serif" font-size="10.00">playrho/Units.hpp</text>
</a>
</g>
</g>
<!-- Node1&#45;&gt;Node13 -->
<g id="edge16" class="edge">
<title>Node1&#45;&gt;Node13</title>
<path fill="none" stroke="midnightblue" d="M285.39,-347.4C285.39,-339.47 285.39,-329.46 285.39,-320.86"/>
<polygon fill="midnightblue" stroke="midnightblue" points="288.89,-320.66 285.39,-310.66 281.89,-320.66 288.89,-320.66"/>
</g>
<!-- Node17 -->
<g id="node17" class="node">
<title>Node17</title>
<g id="a_node17"><a xlink:href="WiderType_8hpp.html" target="_top" xlink:title="Definition of the WiderType alias template.">
<polygon fill="white" stroke="black" points="569.39,-291.5 569.39,-310.5 697.39,-310.5 697.39,-291.5 569.39,-291.5"/>
<text text-anchor="middle" x="633.39" y="-298.5" font-family="Helvetica,sans-Serif" font-size="10.00">playrho/WiderType.hpp</text>
</a>
</g>
</g>
<!-- Node1&#45;&gt;Node17 -->
<g id="edge25" class="edge">
<title>Node1&#45;&gt;Node17</title>
<path fill="none" stroke="midnightblue" d="M349.62,-350.52C413.62,-339.58 511.1,-322.91 573.52,-312.24"/>
<polygon fill="midnightblue" stroke="midnightblue" points="574.34,-315.65 583.61,-310.51 573.16,-308.75 574.34,-315.65"/>
</g>
<!-- Node5&#45;&gt;Node3 -->
<g id="edge5" class="edge">
<title>Node5&#45;&gt;Node3</title>
<path fill="none" stroke="midnightblue" d="M85.36,-179.48C74.34,-170.11 56.43,-154.88 43.05,-143.51"/>
<polygon fill="midnightblue" stroke="midnightblue" points="45.29,-140.82 35.4,-137.01 40.75,-146.15 45.29,-140.82"/>
</g>
<!-- Node6 -->
<g id="node6" class="node">
<title>Node6</title>
<g id="a_node6"><a xlink:href="Templates_8hpp.html" target="_top" xlink:title="Definitions of miscellaneous template related code.">
<polygon fill="white" stroke="black" points="174.39,-118 174.39,-137 302.39,-137 302.39,-118 174.39,-118"/>
<text text-anchor="middle" x="238.39" y="-125" font-family="Helvetica,sans-Serif" font-size="10.00">playrho/Templates.hpp</text>
</a>
</g>
</g>
<!-- Node5&#45;&gt;Node6 -->
<g id="edge6" class="edge">
<title>Node5&#45;&gt;Node6</title>
<path fill="none" stroke="midnightblue" d="M115.88,-179.48C140.2,-169.36 180.94,-152.4 208.71,-140.85"/>
<polygon fill="midnightblue" stroke="midnightblue" points="210.05,-144.08 217.94,-137.01 207.36,-137.62 210.05,-144.08"/>
</g>
<!-- Node6&#45;&gt;Node4 -->
<g id="edge8" class="edge">
<title>Node6&#45;&gt;Node4</title>
<path fill="none" stroke="midnightblue" d="M253.14,-117.98C281.46,-101.67 342.56,-66.7 364.39,-56 388.88,-44 417.36,-32.01 438.63,-23.43"/>
<polygon fill="midnightblue" stroke="midnightblue" points="440.17,-26.58 448.15,-19.62 437.57,-20.09 440.17,-26.58"/>
</g>
<!-- Node7 -->
<g id="node7" class="node">
<title>Node7</title>
<g id="a_node7"><a xlink:title=" ">
<polygon fill="white" stroke="#bfbfbf" points="373.89,-56.5 373.89,-75.5 422.89,-75.5 422.89,-56.5 373.89,-56.5"/>
<text text-anchor="middle" x="398.39" y="-63.5" font-family="Helvetica,sans-Serif" font-size="10.00">cstdlib</text>
</a>
</g>
</g>
<!-- Node6&#45;&gt;Node7 -->
<g id="edge7" class="edge">
<title>Node6&#45;&gt;Node7</title>
<path fill="none" stroke="midnightblue" d="M261.31,-117.98C288.76,-107.77 334.91,-90.61 365.99,-79.05"/>
<polygon fill="midnightblue" stroke="midnightblue" points="367.36,-82.28 375.51,-75.51 364.92,-75.71 367.36,-82.28"/>
</g>
<!-- Node8 -->
<g id="node8" class="node">
<title>Node8</title>
<g id="a_node8"><a xlink:href="detail_2Templates_8hpp.html" target="_top" xlink:title="Low&#45;level declarations for general class &amp; function templates.">
<polygon fill="white" stroke="black" points="159.39,-56.5 159.39,-75.5 317.39,-75.5 317.39,-56.5 159.39,-56.5"/>
<text text-anchor="middle" x="238.39" y="-63.5" font-family="Helvetica,sans-Serif" font-size="10.00">playrho/detail/Templates.hpp</text>
</a>
</g>
</g>
<!-- Node6&#45;&gt;Node8 -->
<g id="edge9" class="edge">
<title>Node6&#45;&gt;Node8</title>
<path fill="none" stroke="midnightblue" d="M238.39,-117.98C238.39,-109.58 238.39,-96.48 238.39,-85.66"/>
<polygon fill="midnightblue" stroke="midnightblue" points="241.89,-85.51 238.39,-75.51 234.89,-85.51 241.89,-85.51"/>
</g>
<!-- Node8&#45;&gt;Node4 -->
<g id="edge12" class="edge">
<title>Node8&#45;&gt;Node4</title>
<path fill="none" stroke="midnightblue" d="M275.15,-56.44C316.05,-46.92 382.11,-31.55 425.89,-21.36"/>
<polygon fill="midnightblue" stroke="midnightblue" points="426.75,-24.75 435.7,-19.08 425.16,-17.93 426.75,-24.75"/>
</g>
<!-- Node9 -->
<g id="node9" class="node">
<title>Node9</title>
<g id="a_node9"><a xlink:title=" ">
<polygon fill="white" stroke="#bfbfbf" points="129.39,-0.5 129.39,-19.5 193.39,-19.5 193.39,-0.5 129.39,-0.5"/>
<text text-anchor="middle" x="161.39" y="-7.5" font-family="Helvetica,sans-Serif" font-size="10.00">algorithm</text>
</a>
</g>
</g>
<!-- Node8&#45;&gt;Node9 -->
<g id="edge10" class="edge">
<title>Node8&#45;&gt;Node9</title>
<path fill="none" stroke="midnightblue" d="M226.02,-56.32C214.23,-48.06 196.26,-35.45 182.25,-25.63"/>
<polygon fill="midnightblue" stroke="midnightblue" points="183.93,-22.53 173.73,-19.65 179.91,-28.26 183.93,-22.53"/>
</g>
<!-- Node10 -->
<g id="node10" class="node">
<title>Node10</title>
<g id="a_node10"><a xlink:title=" ">
<polygon fill="white" stroke="#bfbfbf" points="211.89,-0.5 211.89,-19.5 264.89,-19.5 264.89,-0.5 211.89,-0.5"/>
<text text-anchor="middle" x="238.39" y="-7.5" font-family="Helvetica,sans-Serif" font-size="10.00">iterator</text>
</a>
</g>
</g>
<!-- Node8&#45;&gt;Node10 -->
<g id="edge11" class="edge">
<title>Node8&#45;&gt;Node10</title>
<path fill="none" stroke="midnightblue" d="M238.39,-56.08C238.39,-49.01 238.39,-38.86 238.39,-29.99"/>
<polygon fill="midnightblue" stroke="midnightblue" points="241.89,-29.75 238.39,-19.75 234.89,-29.75 241.89,-29.75"/>
</g>
<!-- Node11 -->
<g id="node11" class="node">
<title>Node11</title>
<g id="a_node11"><a xlink:title=" ">
<polygon fill="white" stroke="#bfbfbf" points="282.89,-0.5 282.89,-19.5 327.89,-19.5 327.89,-0.5 282.89,-0.5"/>
<text text-anchor="middle" x="305.39" y="-7.5" font-family="Helvetica,sans-Serif" font-size="10.00">utility</text>
</a>
</g>
</g>
<!-- Node8&#45;&gt;Node11 -->
<g id="edge13" class="edge">
<title>Node8&#45;&gt;Node11</title>
<path fill="none" stroke="midnightblue" d="M249.15,-56.32C259.16,-48.26 274.28,-36.08 286.32,-26.37"/>
<polygon fill="midnightblue" stroke="midnightblue" points="288.84,-28.83 294.43,-19.83 284.45,-23.38 288.84,-28.83"/>
</g>
<!-- Node12&#45;&gt;Node5 -->
<g id="edge15" class="edge">
<title>Node12&#45;&gt;Node5</title>
<path fill="none" stroke="midnightblue" d="M95.39,-235.08C95.39,-228.01 95.39,-217.86 95.39,-208.99"/>
<polygon fill="midnightblue" stroke="midnightblue" points="98.89,-208.75 95.39,-198.75 91.89,-208.75 98.89,-208.75"/>
</g>
<!-- Node13&#45;&gt;Node4 -->
<g id="edge18" class="edge">
<title>Node13&#45;&gt;Node4</title>
<path fill="none" stroke="midnightblue" d="M337.18,-295.31C389.05,-289.42 463.66,-277.26 481.39,-255 535.08,-187.58 496.59,-73.42 478.44,-29.23"/>
<polygon fill="midnightblue" stroke="midnightblue" points="481.56,-27.62 474.43,-19.79 475.12,-30.36 481.56,-27.62"/>
</g>
<!-- Node13&#45;&gt;Node5 -->
<g id="edge19" class="edge">
<title>Node13&#45;&gt;Node5</title>
<path fill="none" stroke="midnightblue" d="M271.67,-291.37C251.43,-278.7 212.32,-254.49 178.39,-235 159.26,-224.01 137.3,-212.14 120.78,-203.35"/>
<polygon fill="midnightblue" stroke="midnightblue" points="122.22,-200.15 111.74,-198.56 118.94,-206.34 122.22,-200.15"/>
</g>
<!-- Node13&#45;&gt;Node6 -->
<g id="edge21" class="edge">
<title>Node13&#45;&gt;Node6</title>
<path fill="none" stroke="midnightblue" d="M277.59,-291.42C270.29,-282.86 259.73,-269 254.39,-255 240.5,-218.59 238.15,-172.44 238.03,-147.16"/>
<polygon fill="midnightblue" stroke="midnightblue" points="241.53,-147.15 238.1,-137.12 234.53,-147.1 241.53,-147.15"/>
</g>
<!-- Node13&#45;&gt;Node12 -->
<g id="edge20" class="edge">
<title>Node13&#45;&gt;Node12</title>
<path fill="none" stroke="midnightblue" d="M255.28,-291.44C222.76,-282.2 170.81,-267.44 135,-257.26"/>
<polygon fill="midnightblue" stroke="midnightblue" points="135.93,-253.88 125.36,-254.52 134.02,-260.62 135.93,-253.88"/>
</g>
<!-- Node14 -->
<g id="node14" class="node">
<title>Node14</title>
<g id="a_node14"><a xlink:title=" ">
<polygon fill="white" stroke="#bfbfbf" points="425.89,-235.5 425.89,-254.5 472.89,-254.5 472.89,-235.5 425.89,-235.5"/>
<text text-anchor="middle" x="449.39" y="-242.5" font-family="Helvetica,sans-Serif" font-size="10.00">cmath</text>
</a>
</g>
</g>
<!-- Node13&#45;&gt;Node14 -->
<g id="edge17" class="edge">
<title>Node13&#45;&gt;Node14</title>
<path fill="none" stroke="midnightblue" d="M311.38,-291.44C339.62,-282.15 384.83,-267.26 415.76,-257.07"/>
<polygon fill="midnightblue" stroke="midnightblue" points="417.25,-260.27 425.66,-253.82 415.06,-253.62 417.25,-260.27"/>
</g>
<!-- Node15 -->
<g id="node15" class="node">
<title>Node15</title>
<g id="a_node15"><a xlink:href="to__underlying_8hpp.html" target="_top" xlink:title="Definition of to_underlying function template.">
<polygon fill="white" stroke="black" points="263.39,-235.5 263.39,-254.5 407.39,-254.5 407.39,-235.5 263.39,-235.5"/>
<text text-anchor="middle" x="335.39" y="-242.5" font-family="Helvetica,sans-Serif" font-size="10.00">playrho/to_underlying.hpp</text>
</a>
</g>
</g>
<!-- Node13&#45;&gt;Node15 -->
<g id="edge22" class="edge">
<title>Node13&#45;&gt;Node15</title>
<path fill="none" stroke="midnightblue" d="M293.65,-291.08C300.85,-283.3 311.5,-271.8 320.24,-262.37"/>
<polygon fill="midnightblue" stroke="midnightblue" points="323.06,-264.47 327.29,-254.75 317.92,-259.71 323.06,-264.47"/>
</g>
<!-- Node16 -->
<g id="node16" class="node">
<title>Node16</title>
<g id="a_node16"><a xlink:href="underlying__type_8hpp.html" target="_top" xlink:title="Definition of underlying_type trait class and related code.">
<polygon fill="white" stroke="black" points="325.89,-112.5 325.89,-142.5 464.89,-142.5 464.89,-112.5 325.89,-112.5"/>
<text text-anchor="start" x="333.89" y="-130.5" font-family="Helvetica,sans-Serif" font-size="10.00">playrho/detail/underlying</text>
<text text-anchor="middle" x="395.39" y="-119.5" font-family="Helvetica,sans-Serif" font-size="10.00">_type.hpp</text>
</a>
</g>
</g>
<!-- Node15&#45;&gt;Node16 -->
<g id="edge23" class="edge">
<title>Node15&#45;&gt;Node16</title>
<path fill="none" stroke="midnightblue" d="M339.9,-235.32C349.03,-217.73 369.99,-177.39 383.38,-151.63"/>
<polygon fill="midnightblue" stroke="midnightblue" points="386.59,-153.03 388.09,-142.55 380.38,-149.81 386.59,-153.03"/>
</g>
<!-- Node16&#45;&gt;Node4 -->
<g id="edge24" class="edge">
<title>Node16&#45;&gt;Node4</title>
<path fill="none" stroke="midnightblue" d="M406.1,-112.13C413.42,-102.13 423.25,-88.43 431.39,-76 441.73,-60.21 452.73,-41.71 460.4,-28.49"/>
<polygon fill="midnightblue" stroke="midnightblue" points="463.59,-29.96 465.55,-19.55 457.53,-26.46 463.59,-29.96"/>
</g>
<!-- Node18 -->
<g id="node18" class="node">
<title>Node18</title>
<g id="a_node18"><a xlink:href="Wider_8hpp.html" target="_top" xlink:title="Definition of the Wider class template and specializations.">
<polygon fill="white" stroke="black" points="567.39,-235.5 567.39,-254.5 703.39,-254.5 703.39,-235.5 567.39,-235.5"/>
<text text-anchor="middle" x="635.39" y="-242.5" font-family="Helvetica,sans-Serif" font-size="10.00">playrho/detail/Wider.hpp</text>
</a>
</g>
</g>
<!-- Node17&#45;&gt;Node18 -->
<g id="edge26" class="edge">
<title>Node17&#45;&gt;Node18</title>
<path fill="none" stroke="midnightblue" d="M633.72,-291.08C633.98,-284.01 634.36,-273.86 634.69,-264.99"/>
<polygon fill="midnightblue" stroke="midnightblue" points="638.19,-264.87 635.07,-254.75 631.2,-264.61 638.19,-264.87"/>
</g>
<!-- Node18&#45;&gt;Node2 -->
<g id="edge27" class="edge">
<title>Node18&#45;&gt;Node2</title>
<path fill="none" stroke="midnightblue" d="M621.09,-235.32C607.21,-226.9 585.9,-213.97 569.59,-204.07"/>
<polygon fill="midnightblue" stroke="midnightblue" points="571.02,-200.85 560.65,-198.65 567.39,-206.83 571.02,-200.85"/>
</g>
<!-- Node18&#45;&gt;Node4 -->
<g id="edge28" class="edge">
<title>Node18&#45;&gt;Node4</title>
<path fill="none" stroke="midnightblue" d="M629.79,-235.19C612.42,-207.96 557.58,-123 507.39,-56 500.19,-46.39 491.71,-36.01 484.68,-27.65"/>
<polygon fill="midnightblue" stroke="midnightblue" points="487.14,-25.14 478,-19.77 481.8,-29.66 487.14,-25.14"/>
</g>
<!-- Node19 -->
<g id="node19" class="node">
<title>Node19</title>
<g id="a_node19"><a xlink:href="Defines_8hpp.html" target="_top" xlink:title="Miscellaneous C&#45;preprocessor definitions.">
<polygon fill="white" stroke="black" points="627.39,-179.5 627.39,-198.5 741.39,-198.5 741.39,-179.5 627.39,-179.5"/>
<text text-anchor="middle" x="684.39" y="-186.5" font-family="Helvetica,sans-Serif" font-size="10.00">playrho/Defines.hpp</text>
</a>
</g>
</g>
<!-- Node18&#45;&gt;Node19 -->
<g id="edge29" class="edge">
<title>Node18&#45;&gt;Node19</title>
<path fill="none" stroke="midnightblue" d="M643.48,-235.08C650.55,-227.3 660.98,-215.8 669.54,-206.37"/>
<polygon fill="midnightblue" stroke="midnightblue" points="672.32,-208.51 676.45,-198.75 667.14,-203.8 672.32,-208.51"/>
</g>
</g>
</svg>
