<?xml version="1.0" encoding="UTF-8" standalone="no"?>
<!DOCTYPE svg PUBLIC "-//W3C//DTD SVG 1.1//EN"
 "http://www.w3.org/Graphics/SVG/1.1/DTD/svg11.dtd">
<!-- Generated by graphviz version 2.43.0 (0)
 -->
<!-- Title: Library/include/playrho/ShapeFunction.hpp Pages: 1 -->
<!--zoomable 509 -->
<svg id="main" version="1.1" xmlns="http://www.w3.org/2000/svg" xmlns:xlink="http://www.w3.org/1999/xlink" xml:space="preserve" onload="init(evt)">
<style type="text/css"><![CDATA[
.edge:hover path { stroke: red; }
.edge:hover polygon { stroke: red; fill: red; }
]]></style>
<script type="text/javascript"><![CDATA[
var edges = document.getElementsByTagName('g');
if (edges && edges.length) {
  for (var i=0;i<edges.length;i++) {
    if (edges[i].id.substr(0,4)=='edge') {
      edges[i].setAttribute('class','edge');
    }
  }
}
]]></script>
        <defs>
                <circle id="rim" cx="0" cy="0" r="7"/>
                <circle id="rim2" cx="0" cy="0" r="3.5"/>
                <g id="zoomPlus">
                        <use xlink:href="#rim" fill="#404040">
                                <set attributeName="fill" to="#808080" begin="zoomplus.mouseover" end="zoomplus.mouseout"/>
                        </use>
                        <path d="M-4,0h8M0,-4v8" fill="none" stroke="white" stroke-width="1.5" pointer-events="none"/>
                </g>
                <g id="zoomMin">
                        <use xlink:href="#rim" fill="#404040">
                                <set attributeName="fill" to="#808080" begin="zoomminus.mouseover" end="zoomminus.mouseout"/>
                        </use>
                        <path d="M-4,0h8" fill="none" stroke="white" stroke-width="1.5" pointer-events="none"/>
                </g>
                <g id="dirArrow">
                        <path fill="none" stroke="white" stroke-width="1.5" d="M0,-3.0v7 M-2.5,-0.5L0,-3.0L2.5,-0.5"/>
                </g>
               <g id="resetDef">
                       <use xlink:href="#rim2" fill="#404040">
                               <set attributeName="fill" to="#808080" begin="reset.mouseover" end="reset.mouseout"/>
                       </use>
               </g>
        </defs>

<script type="text/javascript">
var viewWidth = 1112;
var viewHeight = 509;
var sectionId = 'dynsection-0';
</script>
<script xlink:href="svgpan.js"/>
<svg id="graph" class="graph">
<g id="viewport">
<title>Library/include/playrho/ShapeFunction.hpp</title>
<polygon fill="white" stroke="transparent" points="-4,4 -4,-505 1107.5,-505 1107.5,4 -4,4"/>
<!-- Node1 -->
<g id="node1" class="node">
<title>Node1</title>
<g id="a_node1"><a xlink:title="Definition of the ShapeFunction type alias.">
<polygon fill="#bfbfbf" stroke="black" points="126.5,-470.5 126.5,-500.5 254.5,-500.5 254.5,-470.5 126.5,-470.5"/>
<text text-anchor="start" x="134.5" y="-488.5" font-family="Helvetica,sans-Serif" font-size="10.00">Library/include/playrho</text>
<text text-anchor="middle" x="190.5" y="-477.5" font-family="Helvetica,sans-Serif" font-size="10.00">/ShapeFunction.hpp</text>
</a>
</g>
</g>
<!-- Node2 -->
<g id="node2" class="node">
<title>Node2</title>
<g id="a_node2"><a xlink:title=" ">
<polygon fill="white" stroke="#bfbfbf" points="178,-291.5 178,-310.5 243,-310.5 243,-291.5 178,-291.5"/>
<text text-anchor="middle" x="210.5" y="-298.5" font-family="Helvetica,sans-Serif" font-size="10.00">functional</text>
</a>
</g>
</g>
<!-- Node1&#45;&gt;Node2 -->
<g id="edge1" class="edge">
<title>Node1&#45;&gt;Node2</title>
<path fill="none" stroke="midnightblue" d="M199.83,-470.15C205.6,-460.4 212.47,-446.95 215.5,-434 224.74,-394.51 218.83,-346.6 214.29,-320.73"/>
<polygon fill="midnightblue" stroke="midnightblue" points="217.71,-319.98 212.42,-310.8 210.83,-321.28 217.71,-319.98"/>
</g>
<!-- Node3 -->
<g id="node3" class="node">
<title>Node3</title>
<g id="a_node3"><a xlink:href="ShapeID_8hpp.html" target="_top" xlink:title="Definition of the ShapeID alias and closely related code.">
<polygon fill="white" stroke="black" points="88.5,-414.5 88.5,-433.5 206.5,-433.5 206.5,-414.5 88.5,-414.5"/>
<text text-anchor="middle" x="147.5" y="-421.5" font-family="Helvetica,sans-Serif" font-size="10.00">playrho/ShapeID.hpp</text>
</a>
</g>
</g>
<!-- Node1&#45;&gt;Node3 -->
<g id="edge2" class="edge">
<title>Node1&#45;&gt;Node3</title>
<path fill="none" stroke="midnightblue" d="M180.31,-470.4C174.13,-461.84 166.2,-450.87 159.68,-441.86"/>
<polygon fill="midnightblue" stroke="midnightblue" points="162.45,-439.71 153.76,-433.66 156.78,-443.81 162.45,-439.71"/>
</g>
<!-- Node4 -->
<g id="node4" class="node">
<title>Node4</title>
<g id="a_node4"><a xlink:href="IndexingNamedType_8hpp.html" target="_top" xlink:title="Definition of IndexingNamedType class template and related code.">
<polygon fill="white" stroke="black" points="42.5,-347.5 42.5,-377.5 206.5,-377.5 206.5,-347.5 42.5,-347.5"/>
<text text-anchor="start" x="50.5" y="-365.5" font-family="Helvetica,sans-Serif" font-size="10.00">playrho/detail/IndexingNamed</text>
<text text-anchor="middle" x="124.5" y="-354.5" font-family="Helvetica,sans-Serif" font-size="10.00">Type.hpp</text>
</a>
</g>
</g>
<!-- Node3&#45;&gt;Node4 -->
<g id="edge3" class="edge">
<title>Node3&#45;&gt;Node4</title>
<path fill="none" stroke="midnightblue" d="M144.2,-414.48C141.44,-407.32 137.35,-396.75 133.62,-387.08"/>
<polygon fill="midnightblue" stroke="midnightblue" points="136.79,-385.59 129.92,-377.52 130.26,-388.11 136.79,-385.59"/>
</g>
<!-- Node8 -->
<g id="node8" class="node">
<title>Node8</title>
<g id="a_node8"><a xlink:href="Settings_8hpp.html" target="_top" xlink:title="Types and default settings file.">
<polygon fill="white" stroke="black" points="448,-353 448,-372 565,-372 565,-353 448,-353"/>
<text text-anchor="middle" x="506.5" y="-360" font-family="Helvetica,sans-Serif" font-size="10.00">playrho/Settings.hpp</text>
</a>
</g>
</g>
<!-- Node3&#45;&gt;Node8 -->
<g id="edge8" class="edge">
<title>Node3&#45;&gt;Node8</title>
<path fill="none" stroke="midnightblue" d="M198.94,-414.48C263.98,-403.69 375.85,-385.15 445.24,-373.65"/>
<polygon fill="midnightblue" stroke="midnightblue" points="445.87,-377.1 455.16,-372.01 444.72,-370.19 445.87,-377.1"/>
</g>
<!-- Node4&#45;&gt;Node2 -->
<g id="edge5" class="edge">
<title>Node4&#45;&gt;Node2</title>
<path fill="none" stroke="midnightblue" d="M144.88,-347.4C158.41,-338.04 176.11,-325.79 189.72,-316.38"/>
<polygon fill="midnightblue" stroke="midnightblue" points="191.75,-319.23 197.99,-310.66 187.77,-313.47 191.75,-319.23"/>
</g>
<!-- Node5 -->
<g id="node5" class="node">
<title>Node5</title>
<g id="a_node5"><a xlink:title=" ">
<polygon fill="white" stroke="#bfbfbf" points="68,-291.5 68,-310.5 121,-310.5 121,-291.5 68,-291.5"/>
<text text-anchor="middle" x="94.5" y="-298.5" font-family="Helvetica,sans-Serif" font-size="10.00">cstddef</text>
</a>
</g>
</g>
<!-- Node4&#45;&gt;Node5 -->
<g id="edge4" class="edge">
<title>Node4&#45;&gt;Node5</title>
<path fill="none" stroke="midnightblue" d="M117.39,-347.4C113.21,-339.11 107.89,-328.55 103.43,-319.71"/>
<polygon fill="midnightblue" stroke="midnightblue" points="106.49,-318.01 98.87,-310.66 100.24,-321.16 106.49,-318.01"/>
</g>
<!-- Node6 -->
<g id="node6" class="node">
<title>Node6</title>
<g id="a_node6"><a xlink:title=" ">
<polygon fill="white" stroke="#bfbfbf" points="604,-0.5 604,-19.5 673,-19.5 673,-0.5 604,-0.5"/>
<text text-anchor="middle" x="638.5" y="-7.5" font-family="Helvetica,sans-Serif" font-size="10.00">type_traits</text>
</a>
</g>
</g>
<!-- Node4&#45;&gt;Node6 -->
<g id="edge6" class="edge">
<title>Node4&#45;&gt;Node6</title>
<path fill="none" stroke="midnightblue" d="M131.75,-347.36C154.35,-304.77 227.92,-176.63 326.5,-112 411.52,-56.26 529.72,-29.14 593.46,-17.83"/>
<polygon fill="midnightblue" stroke="midnightblue" points="594.32,-21.24 603.58,-16.09 593.14,-14.34 594.32,-21.24"/>
</g>
<!-- Node7 -->
<g id="node7" class="node">
<title>Node7</title>
<g id="a_node7"><a xlink:title=" ">
<polygon fill="white" stroke="#bfbfbf" points="0,-0.5 0,-19.5 45,-19.5 45,-0.5 0,-0.5"/>
<text text-anchor="middle" x="22.5" y="-7.5" font-family="Helvetica,sans-Serif" font-size="10.00">utility</text>
</a>
</g>
</g>
<!-- Node4&#45;&gt;Node7 -->
<g id="edge7" class="edge">
<title>Node4&#45;&gt;Node7</title>
<path fill="none" stroke="midnightblue" d="M95.91,-347.48C63.03,-329.11 13.5,-293.56 13.5,-246 13.5,-246 13.5,-246 13.5,-126.5 13.5,-92.26 17.48,-52.48 20.15,-29.67"/>
<polygon fill="midnightblue" stroke="midnightblue" points="23.63,-30.02 21.36,-19.68 16.68,-29.18 23.63,-30.02"/>
</g>
<!-- Node8&#45;&gt;Node6 -->
<g id="edge11" class="edge">
<title>Node8&#45;&gt;Node6</title>
<path fill="none" stroke="midnightblue" d="M565.31,-354.36C664.77,-340.61 855.5,-306.39 855.5,-246 855.5,-246 855.5,-246 855.5,-126.5 855.5,-49.28 747.11,-23.52 683.54,-15.05"/>
<polygon fill="midnightblue" stroke="midnightblue" points="683.72,-11.55 673.36,-13.79 682.86,-18.49 683.72,-11.55"/>
</g>
<!-- Node9 -->
<g id="node9" class="node">
<title>Node9</title>
<g id="a_node9"><a xlink:title=" ">
<polygon fill="white" stroke="#bfbfbf" points="1053.5,-179.5 1053.5,-198.5 1103.5,-198.5 1103.5,-179.5 1053.5,-179.5"/>
<text text-anchor="middle" x="1078.5" y="-186.5" font-family="Helvetica,sans-Serif" font-size="10.00">cstdint</text>
</a>
</g>
</g>
<!-- Node8&#45;&gt;Node9 -->
<g id="edge9" class="edge">
<title>Node8&#45;&gt;Node9</title>
<path fill="none" stroke="midnightblue" d="M565.26,-359.2C693.89,-353.68 991.92,-338.1 1028.5,-311 1061.58,-286.49 1072.88,-236.09 1076.66,-208.71"/>
<polygon fill="midnightblue" stroke="midnightblue" points="1080.17,-208.86 1077.86,-198.52 1073.21,-208.04 1080.17,-208.86"/>
</g>
<!-- Node10 -->
<g id="node10" class="node">
<title>Node10</title>
<g id="a_node10"><a xlink:title=" ">
<polygon fill="white" stroke="#bfbfbf" points="335.5,-118 335.5,-137 379.5,-137 379.5,-118 335.5,-118"/>
<text text-anchor="middle" x="357.5" y="-125" font-family="Helvetica,sans-Serif" font-size="10.00">limits</text>
</a>
</g>
</g>
<!-- Node8&#45;&gt;Node10 -->
<g id="edge10" class="edge">
<title>Node8&#45;&gt;Node10</title>
<path fill="none" stroke="midnightblue" d="M450.17,-352.94C419.03,-345.9 381.16,-333.3 353.5,-311 324.83,-287.89 314.37,-271.31 320.5,-235 325.96,-202.64 340.14,-166.98 349.28,-146.23"/>
<polygon fill="midnightblue" stroke="midnightblue" points="352.48,-147.63 353.41,-137.07 346.1,-144.75 352.48,-147.63"/>
</g>
<!-- Node11 -->
<g id="node11" class="node">
<title>Node11</title>
<g id="a_node11"><a xlink:href="Real_8hpp.html" target="_top" xlink:title="Real number definition file.">
<polygon fill="white" stroke="black" points="362,-179.5 362,-198.5 461,-198.5 461,-179.5 362,-179.5"/>
<text text-anchor="middle" x="411.5" y="-186.5" font-family="Helvetica,sans-Serif" font-size="10.00">playrho/Real.hpp</text>
</a>
</g>
</g>
<!-- Node8&#45;&gt;Node11 -->
<g id="edge12" class="edge">
<title>Node8&#45;&gt;Node11</title>
<path fill="none" stroke="midnightblue" d="M474.37,-352.95C432.17,-339.8 359.76,-310.13 328.5,-255 315.05,-231.29 345.35,-213.16 373.04,-202.15"/>
<polygon fill="midnightblue" stroke="midnightblue" points="374.51,-205.34 382.65,-198.56 372.06,-198.79 374.51,-205.34"/>
</g>
<!-- Node17 -->
<g id="node17" class="node">
<title>Node17</title>
<g id="a_node17"><a xlink:href="RealConstants_8hpp.html" target="_top" xlink:title="Definitions file for constant expressions of type Real.">
<polygon fill="white" stroke="black" points="337.5,-235.5 337.5,-254.5 485.5,-254.5 485.5,-235.5 337.5,-235.5"/>
<text text-anchor="middle" x="411.5" y="-242.5" font-family="Helvetica,sans-Serif" font-size="10.00">playrho/RealConstants.hpp</text>
</a>
</g>
</g>
<!-- Node8&#45;&gt;Node17 -->
<g id="edge22" class="edge">
<title>Node8&#45;&gt;Node17</title>
<path fill="none" stroke="midnightblue" d="M499.36,-352.82C483.61,-333.67 445.67,-287.54 425.18,-262.63"/>
<polygon fill="midnightblue" stroke="midnightblue" points="427.78,-260.28 418.72,-254.78 422.37,-264.73 427.78,-260.28"/>
</g>
<!-- Node18 -->
<g id="node18" class="node">
<title>Node18</title>
<g id="a_node18"><a xlink:href="Units_8hpp.html" target="_top" xlink:title="Declarations for physical units possibly backed by strong types.">
<polygon fill="white" stroke="black" points="514,-291.5 514,-310.5 617,-310.5 617,-291.5 514,-291.5"/>
<text text-anchor="middle" x="565.5" y="-298.5" font-family="Helvetica,sans-Serif" font-size="10.00">playrho/Units.hpp</text>
</a>
</g>
</g>
<!-- Node8&#45;&gt;Node18 -->
<g id="edge24" class="edge">
<title>Node8&#45;&gt;Node18</title>
<path fill="none" stroke="midnightblue" d="M514.95,-352.98C524.07,-343.78 538.77,-328.96 549.98,-317.66"/>
<polygon fill="midnightblue" stroke="midnightblue" points="552.51,-320.07 557.06,-310.51 547.54,-315.15 552.51,-320.07"/>
</g>
<!-- Node22 -->
<g id="node22" class="node">
<title>Node22</title>
<g id="a_node22"><a xlink:href="WiderType_8hpp.html" target="_top" xlink:title="Definition of the WiderType alias template.">
<polygon fill="white" stroke="black" points="891.5,-291.5 891.5,-310.5 1019.5,-310.5 1019.5,-291.5 891.5,-291.5"/>
<text text-anchor="middle" x="955.5" y="-298.5" font-family="Helvetica,sans-Serif" font-size="10.00">playrho/WiderType.hpp</text>
</a>
</g>
</g>
<!-- Node8&#45;&gt;Node22 -->
<g id="edge33" class="edge">
<title>Node8&#45;&gt;Node22</title>
<path fill="none" stroke="midnightblue" d="M565.2,-353.72C646.34,-342.97 792.77,-323.56 881.37,-311.82"/>
<polygon fill="midnightblue" stroke="midnightblue" points="881.89,-315.29 891.34,-310.5 880.97,-308.35 881.89,-315.29"/>
</g>
<!-- Node11&#45;&gt;Node10 -->
<g id="edge13" class="edge">
<title>Node11&#45;&gt;Node10</title>
<path fill="none" stroke="midnightblue" d="M403.76,-179.48C395.5,-170.37 382.22,-155.74 372.01,-144.48"/>
<polygon fill="midnightblue" stroke="midnightblue" points="374.53,-142.06 365.22,-137.01 369.35,-146.77 374.53,-142.06"/>
</g>
<!-- Node12 -->
<g id="node12" class="node">
<title>Node12</title>
<g id="a_node12"><a xlink:href="Templates_8hpp.html" target="_top" xlink:title="Definitions of miscellaneous template related code.">
<polygon fill="white" stroke="black" points="541.5,-118 541.5,-137 669.5,-137 669.5,-118 541.5,-118"/>
<text text-anchor="middle" x="605.5" y="-125" font-family="Helvetica,sans-Serif" font-size="10.00">playrho/Templates.hpp</text>
</a>
</g>
</g>
<!-- Node11&#45;&gt;Node12 -->
<g id="edge14" class="edge">
<title>Node11&#45;&gt;Node12</title>
<path fill="none" stroke="midnightblue" d="M439.3,-179.48C473.15,-169.09 530.47,-151.51 568.15,-139.95"/>
<polygon fill="midnightblue" stroke="midnightblue" points="569.22,-143.29 577.76,-137.01 567.17,-136.6 569.22,-143.29"/>
</g>
<!-- Node12&#45;&gt;Node6 -->
<g id="edge16" class="edge">
<title>Node12&#45;&gt;Node6</title>
<path fill="none" stroke="midnightblue" d="M607.98,-117.82C613.31,-99.17 625.94,-54.94 633.18,-29.63"/>
<polygon fill="midnightblue" stroke="midnightblue" points="636.61,-30.36 635.99,-19.78 629.88,-28.44 636.61,-30.36"/>
</g>
<!-- Node13 -->
<g id="node13" class="node">
<title>Node13</title>
<g id="a_node13"><a xlink:title=" ">
<polygon fill="white" stroke="#bfbfbf" points="561,-56.5 561,-75.5 610,-75.5 610,-56.5 561,-56.5"/>
<text text-anchor="middle" x="585.5" y="-63.5" font-family="Helvetica,sans-Serif" font-size="10.00">cstdlib</text>
</a>
</g>
</g>
<!-- Node12&#45;&gt;Node13 -->
<g id="edge15" class="edge">
<title>Node12&#45;&gt;Node13</title>
<path fill="none" stroke="midnightblue" d="M602.63,-117.98C599.78,-109.49 595.32,-96.2 591.66,-85.32"/>
<polygon fill="midnightblue" stroke="midnightblue" points="594.86,-83.87 588.36,-75.51 588.23,-86.1 594.86,-83.87"/>
</g>
<!-- Node14 -->
<g id="node14" class="node">
<title>Node14</title>
<g id="a_node14"><a xlink:href="detail_2Templates_8hpp.html" target="_top" xlink:title="Low&#45;level declarations for general class &amp; function templates.">
<polygon fill="white" stroke="black" points="41.5,-56.5 41.5,-75.5 199.5,-75.5 199.5,-56.5 41.5,-56.5"/>
<text text-anchor="middle" x="120.5" y="-63.5" font-family="Helvetica,sans-Serif" font-size="10.00">playrho/detail/Templates.hpp</text>
</a>
</g>
</g>
<!-- Node12&#45;&gt;Node14 -->
<g id="edge17" class="edge">
<title>Node12&#45;&gt;Node14</title>
<path fill="none" stroke="midnightblue" d="M541.35,-118.63C453.41,-107.84 295.51,-88.47 200.13,-76.77"/>
<polygon fill="midnightblue" stroke="midnightblue" points="200.31,-73.27 189.96,-75.52 199.46,-80.21 200.31,-73.27"/>
</g>
<!-- Node14&#45;&gt;Node6 -->
<g id="edge20" class="edge">
<title>Node14&#45;&gt;Node6</title>
<path fill="none" stroke="midnightblue" d="M199.74,-56.74C309.9,-45.26 505.68,-24.85 593.58,-15.68"/>
<polygon fill="midnightblue" stroke="midnightblue" points="594.17,-19.14 603.76,-14.62 593.45,-12.18 594.17,-19.14"/>
</g>
<!-- Node14&#45;&gt;Node7 -->
<g id="edge21" class="edge">
<title>Node14&#45;&gt;Node7</title>
<path fill="none" stroke="midnightblue" d="M104.75,-56.32C89.18,-47.74 65.12,-34.49 47.04,-24.52"/>
<polygon fill="midnightblue" stroke="midnightblue" points="48.65,-21.42 38.21,-19.65 45.28,-27.55 48.65,-21.42"/>
</g>
<!-- Node15 -->
<g id="node15" class="node">
<title>Node15</title>
<g id="a_node15"><a xlink:title=" ">
<polygon fill="white" stroke="#bfbfbf" points="71.5,-0.5 71.5,-19.5 135.5,-19.5 135.5,-0.5 71.5,-0.5"/>
<text text-anchor="middle" x="103.5" y="-7.5" font-family="Helvetica,sans-Serif" font-size="10.00">algorithm</text>
</a>
</g>
</g>
<!-- Node14&#45;&gt;Node15 -->
<g id="edge18" class="edge">
<title>Node14&#45;&gt;Node15</title>
<path fill="none" stroke="midnightblue" d="M117.69,-56.08C115.42,-48.85 112.13,-38.41 109.29,-29.4"/>
<polygon fill="midnightblue" stroke="midnightblue" points="112.6,-28.24 106.25,-19.75 105.92,-30.34 112.6,-28.24"/>
</g>
<!-- Node16 -->
<g id="node16" class="node">
<title>Node16</title>
<g id="a_node16"><a xlink:title=" ">
<polygon fill="white" stroke="#bfbfbf" points="154,-0.5 154,-19.5 207,-19.5 207,-0.5 154,-0.5"/>
<text text-anchor="middle" x="180.5" y="-7.5" font-family="Helvetica,sans-Serif" font-size="10.00">iterator</text>
</a>
</g>
</g>
<!-- Node14&#45;&gt;Node16 -->
<g id="edge19" class="edge">
<title>Node14&#45;&gt;Node16</title>
<path fill="none" stroke="midnightblue" d="M130.14,-56.32C139.01,-48.34 152.37,-36.31 163.11,-26.65"/>
<polygon fill="midnightblue" stroke="midnightblue" points="165.59,-29.13 170.68,-19.83 160.91,-23.92 165.59,-29.13"/>
</g>
<!-- Node17&#45;&gt;Node11 -->
<g id="edge23" class="edge">
<title>Node17&#45;&gt;Node11</title>
<path fill="none" stroke="midnightblue" d="M411.5,-235.08C411.5,-228.01 411.5,-217.86 411.5,-208.99"/>
<polygon fill="midnightblue" stroke="midnightblue" points="415,-208.75 411.5,-198.75 408,-208.75 415,-208.75"/>
</g>
<!-- Node18&#45;&gt;Node6 -->
<g id="edge26" class="edge">
<title>Node18&#45;&gt;Node6</title>
<path fill="none" stroke="midnightblue" d="M575.15,-291.14C587.16,-278.98 605.32,-256.2 598.5,-235 583.09,-187.09 547.91,-190.91 532.5,-143 528.28,-129.88 530.15,-125.58 532.5,-112 537.01,-85.96 535.16,-75.94 552.5,-56 565.35,-41.23 584.25,-30.59 601.07,-23.39"/>
<polygon fill="midnightblue" stroke="midnightblue" points="602.69,-26.51 610.66,-19.53 600.08,-20.01 602.69,-26.51"/>
</g>
<!-- Node18&#45;&gt;Node11 -->
<g id="edge27" class="edge">
<title>Node18&#45;&gt;Node11</title>
<path fill="none" stroke="midnightblue" d="M557.34,-291.27C544.71,-278.06 519.27,-252.65 494.5,-235 477.2,-222.68 456.15,-211.3 439.58,-203.07"/>
<polygon fill="midnightblue" stroke="midnightblue" points="440.92,-199.83 430.4,-198.6 437.86,-206.12 440.92,-199.83"/>
</g>
<!-- Node18&#45;&gt;Node12 -->
<g id="edge29" class="edge">
<title>Node18&#45;&gt;Node12</title>
<path fill="none" stroke="midnightblue" d="M587.96,-291.38C603.27,-284.18 622.36,-272.29 631.5,-255 650.37,-219.3 629.82,-171.22 615.98,-145.85"/>
<polygon fill="midnightblue" stroke="midnightblue" points="618.93,-143.97 610.93,-137.03 612.86,-147.45 618.93,-143.97"/>
</g>
<!-- Node18&#45;&gt;Node17 -->
<g id="edge28" class="edge">
<title>Node18&#45;&gt;Node17</title>
<path fill="none" stroke="midnightblue" d="M541.1,-291.44C515.3,-282.4 474.42,-268.06 445.48,-257.92"/>
<polygon fill="midnightblue" stroke="midnightblue" points="446.38,-254.52 435.79,-254.52 444.07,-261.13 446.38,-254.52"/>
</g>
<!-- Node19 -->
<g id="node19" class="node">
<title>Node19</title>
<g id="a_node19"><a xlink:title=" ">
<polygon fill="white" stroke="#bfbfbf" points="542,-235.5 542,-254.5 589,-254.5 589,-235.5 542,-235.5"/>
<text text-anchor="middle" x="565.5" y="-242.5" font-family="Helvetica,sans-Serif" font-size="10.00">cmath</text>
</a>
</g>
</g>
<!-- Node18&#45;&gt;Node19 -->
<g id="edge25" class="edge">
<title>Node18&#45;&gt;Node19</title>
<path fill="none" stroke="midnightblue" d="M565.5,-291.08C565.5,-284.01 565.5,-273.86 565.5,-264.99"/>
<polygon fill="midnightblue" stroke="midnightblue" points="569,-264.75 565.5,-254.75 562,-264.75 569,-264.75"/>
</g>
<!-- Node20 -->
<g id="node20" class="node">
<title>Node20</title>
<g id="a_node20"><a xlink:href="to__underlying_8hpp.html" target="_top" xlink:title="Definition of to_underlying function template.">
<polygon fill="white" stroke="black" points="683.5,-235.5 683.5,-254.5 827.5,-254.5 827.5,-235.5 683.5,-235.5"/>
<text text-anchor="middle" x="755.5" y="-242.5" font-family="Helvetica,sans-Serif" font-size="10.00">playrho/to_underlying.hpp</text>
</a>
</g>
</g>
<!-- Node18&#45;&gt;Node20 -->
<g id="edge30" class="edge">
<title>Node18&#45;&gt;Node20</title>
<path fill="none" stroke="midnightblue" d="M595.61,-291.44C628.13,-282.2 680.08,-267.44 715.89,-257.26"/>
<polygon fill="midnightblue" stroke="midnightblue" points="716.87,-260.62 725.53,-254.52 714.96,-253.88 716.87,-260.62"/>
</g>
<!-- Node21 -->
<g id="node21" class="node">
<title>Node21</title>
<g id="a_node21"><a xlink:href="underlying__type_8hpp.html" target="_top" xlink:title="Definition of underlying_type trait class and related code.">
<polygon fill="white" stroke="black" points="688,-112.5 688,-142.5 827,-142.5 827,-112.5 688,-112.5"/>
<text text-anchor="start" x="696" y="-130.5" font-family="Helvetica,sans-Serif" font-size="10.00">playrho/detail/underlying</text>
<text text-anchor="middle" x="757.5" y="-119.5" font-family="Helvetica,sans-Serif" font-size="10.00">_type.hpp</text>
</a>
</g>
</g>
<!-- Node20&#45;&gt;Node21 -->
<g id="edge31" class="edge">
<title>Node20&#45;&gt;Node21</title>
<path fill="none" stroke="midnightblue" d="M755.65,-235.32C755.95,-217.97 756.63,-178.46 757.08,-152.66"/>
<polygon fill="midnightblue" stroke="midnightblue" points="760.58,-152.6 757.26,-142.55 753.58,-152.48 760.58,-152.6"/>
</g>
<!-- Node21&#45;&gt;Node6 -->
<g id="edge32" class="edge">
<title>Node21&#45;&gt;Node6</title>
<path fill="none" stroke="midnightblue" d="M742.91,-112.34C720.59,-90.68 678.12,-49.45 654.81,-26.83"/>
<polygon fill="midnightblue" stroke="midnightblue" points="657.05,-24.12 647.43,-19.67 652.17,-29.15 657.05,-24.12"/>
</g>
<!-- Node23 -->
<g id="node23" class="node">
<title>Node23</title>
<g id="a_node23"><a xlink:href="Wider_8hpp.html" target="_top" xlink:title="Definition of the Wider class template and specializations.">
<polygon fill="white" stroke="black" points="902.5,-235.5 902.5,-254.5 1038.5,-254.5 1038.5,-235.5 902.5,-235.5"/>
<text text-anchor="middle" x="970.5" y="-242.5" font-family="Helvetica,sans-Serif" font-size="10.00">playrho/detail/Wider.hpp</text>
</a>
</g>
</g>
<!-- Node22&#45;&gt;Node23 -->
<g id="edge34" class="edge">
<title>Node22&#45;&gt;Node23</title>
<path fill="none" stroke="midnightblue" d="M957.98,-291.08C959.99,-283.85 962.89,-273.41 965.39,-264.4"/>
<polygon fill="midnightblue" stroke="midnightblue" points="968.76,-265.32 968.07,-254.75 962.02,-263.45 968.76,-265.32"/>
</g>
<!-- Node23&#45;&gt;Node6 -->
<g id="edge36" class="edge">
<title>Node23&#45;&gt;Node6</title>
<path fill="none" stroke="midnightblue" d="M954.47,-235.35C941.37,-227.5 923.32,-214.76 912.5,-199 874.94,-144.28 918.71,-100.53 869.5,-56 842.71,-31.75 742.66,-19.53 683.38,-14.29"/>
<polygon fill="midnightblue" stroke="midnightblue" points="683.43,-10.78 673.17,-13.42 682.83,-17.76 683.43,-10.78"/>
</g>
<!-- Node23&#45;&gt;Node9 -->
<g id="edge35" class="edge">
<title>Node23&#45;&gt;Node9</title>
<path fill="none" stroke="midnightblue" d="M987.85,-235.32C1005.17,-226.66 1032.02,-213.24 1052,-203.25"/>
<polygon fill="midnightblue" stroke="midnightblue" points="1053.81,-206.26 1061.19,-198.65 1050.68,-200 1053.81,-206.26"/>
</g>
<!-- Node24 -->
<g id="node24" class="node">
<title>Node24</title>
<g id="a_node24"><a xlink:href="Defines_8hpp.html" target="_top" xlink:title="Miscellaneous C&#45;preprocessor definitions.">
<polygon fill="white" stroke="black" points="921.5,-179.5 921.5,-198.5 1035.5,-198.5 1035.5,-179.5 921.5,-179.5"/>
<text text-anchor="middle" x="978.5" y="-186.5" font-family="Helvetica,sans-Serif" font-size="10.00">playrho/Defines.hpp</text>
</a>
</g>
</g>
<!-- Node23&#45;&gt;Node24 -->
<g id="edge37" class="edge">
<title>Node23&#45;&gt;Node24</title>
<path fill="none" stroke="midnightblue" d="M971.82,-235.08C972.88,-227.93 974.41,-217.64 975.73,-208.69"/>
<polygon fill="midnightblue" stroke="midnightblue" points="979.2,-209.16 977.2,-198.75 972.28,-208.13 979.2,-209.16"/>
</g>
</g>
</svg>
        <g id="navigator" transform="translate(0 0)" fill="#404254">
                <rect fill="#f2f5e9" fill-opacity="0.5" stroke="#606060" stroke-width=".5" x="0" y="0" width="60" height="60"/>
                <use id="zoomplus" xlink:href="#zoomPlus" x="17" y="9" onmousedown="handleZoom(evt,'in')"/>
                <use id="zoomminus" xlink:href="#zoomMin" x="42" y="9" onmousedown="handleZoom(evt,'out')"/>
                <use id="reset" xlink:href="#resetDef" x="30" y="36" onmousedown="handleReset()"/>
                <g id="arrowUp" xlink:href="#dirArrow" transform="translate(30 24)" onmousedown="handlePan(0,-1)">
                  <use xlink:href="#rim" fill="#404040">
                        <set attributeName="fill" to="#808080" begin="arrowUp.mouseover" end="arrowUp.mouseout"/>
                  </use>
                  <path fill="none" stroke="white" stroke-width="1.5" d="M0,-3.0v7 M-2.5,-0.5L0,-3.0L2.5,-0.5"/>
                </g>
                <g id="arrowRight" xlink:href="#dirArrow" transform="rotate(90) translate(36 -43)" onmousedown="handlePan(1,0)">
                  <use xlink:href="#rim" fill="#404040">
                        <set attributeName="fill" to="#808080" begin="arrowRight.mouseover" end="arrowRight.mouseout"/>
                  </use>
                  <path fill="none" stroke="white" stroke-width="1.5" d="M0,-3.0v7 M-2.5,-0.5L0,-3.0L2.5,-0.5"/>
                </g>
                <g id="arrowDown" xlink:href="#dirArrow" transform="rotate(180) translate(-30 -48)" onmousedown="handlePan(0,1)">
                  <use xlink:href="#rim" fill="#404040">
                        <set attributeName="fill" to="#808080" begin="arrowDown.mouseover" end="arrowDown.mouseout"/>
                  </use>
                  <path fill="none" stroke="white" stroke-width="1.5" d="M0,-3.0v7 M-2.5,-0.5L0,-3.0L2.5,-0.5"/>
                </g>
                <g id="arrowLeft" xlink:href="#dirArrow" transform="rotate(270) translate(-36 17)" onmousedown="handlePan(-1,0)">
                  <use xlink:href="#rim" fill="#404040">
                        <set attributeName="fill" to="#808080" begin="arrowLeft.mouseover" end="arrowLeft.mouseout"/>
                  </use>
                  <path fill="none" stroke="white" stroke-width="1.5" d="M0,-3.0v7 M-2.5,-0.5L0,-3.0L2.5,-0.5"/>
                </g>
        </g>
        <svg viewBox="0 0 15 15" width="100%" height="30px" preserveAspectRatio="xMaxYMin meet">
         <g id="arrow_out" transform="scale(0.3 0.3)">
          <a xlink:href="ShapeFunction_8hpp__incl_org.svg" target="_base">
           <rect id="button" ry="5" rx="5" y="6" x="6" height="38" width="38"
                fill="#f2f5e9" fill-opacity="0.5" stroke="#606060" stroke-width="1.0"/>
           <path id="arrow"
             d="M 11.500037,31.436501 C 11.940474,20.09759 22.043105,11.32322 32.158766,21.979434 L 37.068811,17.246167 C 37.068811,17.246167 37.088388,32 37.088388,32 L 22.160133,31.978069 C 22.160133,31.978069 26.997745,27.140456 26.997745,27.140456 C 18.528582,18.264221 13.291696,25.230495 11.500037,31.436501 z"
             style="fill:#404040;"/>
          </a>
         </g>
        </svg>
</svg>
