<?xml version="1.0" encoding="UTF-8" standalone="no"?>
<!DOCTYPE svg PUBLIC "-//W3C//DTD SVG 1.1//EN"
 "http://www.w3.org/Graphics/SVG/1.1/DTD/svg11.dtd">
<!-- Generated by graphviz version 2.43.0 (0)
 -->
<!-- Title: Library/include/playrho/d2/detail/ShapeConcept.hpp Pages: 1 -->
<svg width="244pt" height="441pt"
 viewBox="0.00 0.00 244.00 441.00" xmlns="http://www.w3.org/2000/svg" xmlns:xlink="http://www.w3.org/1999/xlink">
<g id="graph0" class="graph" transform="scale(1 1) rotate(0) translate(4 437)">
<title>Library/include/playrho/d2/detail/ShapeConcept.hpp</title>
<polygon fill="white" stroke="transparent" points="-4,4 -4,-437 240,-437 240,4 -4,4"/>
<!-- Node1 -->
<g id="node1" class="node">
<title>Node1</title>
<g id="a_node1"><a xlink:title="Definition of the internal ShapeConcept interface class.">
<polygon fill="#bfbfbf" stroke="black" points="79,-402.5 79,-432.5 235,-432.5 235,-402.5 79,-402.5"/>
<text text-anchor="start" x="87" y="-420.5" font-family="Helvetica,sans-Serif" font-size="10.00">Library/include/playrho</text>
<text text-anchor="middle" x="157" y="-409.5" font-family="Helvetica,sans-Serif" font-size="10.00">/d2/detail/ShapeConcept.hpp</text>
</a>
</g>
</g>
<!-- Node2 -->
<g id="node2" class="node">
<title>Node2</title>
<g id="a_node2"><a xlink:href="ShapeModel_8hpp.html" target="_top" xlink:title="Definition of the ShapeModel class and related code.">
<polygon fill="white" stroke="black" points="34,-335.5 34,-365.5 180,-365.5 180,-335.5 34,-335.5"/>
<text text-anchor="start" x="42" y="-353.5" font-family="Helvetica,sans-Serif" font-size="10.00">Library/include/playrho</text>
<text text-anchor="middle" x="107" y="-342.5" font-family="Helvetica,sans-Serif" font-size="10.00">/d2/detail/ShapeModel.hpp</text>
</a>
</g>
</g>
<!-- Node1&#45;&gt;Node2 -->
<g id="edge1" class="edge">
<title>Node1&#45;&gt;Node2</title>
<path fill="none" stroke="midnightblue" d="M140.04,-394.45C132.69,-384.9 124.31,-374 117.83,-365.58"/>
<polygon fill="midnightblue" stroke="midnightblue" points="137.28,-396.6 146.15,-402.4 142.83,-392.34 137.28,-396.6"/>
</g>
<!-- Node3 -->
<g id="node3" class="node">
<title>Node3</title>
<g id="a_node3"><a xlink:href="Shape_8hpp.html" target="_top" xlink:title="Definition of the Shape class and closely related code.">
<polygon fill="white" stroke="black" points="93,-268.5 93,-298.5 221,-298.5 221,-268.5 93,-268.5"/>
<text text-anchor="start" x="101" y="-286.5" font-family="Helvetica,sans-Serif" font-size="10.00">Library/include/playrho</text>
<text text-anchor="middle" x="157" y="-275.5" font-family="Helvetica,sans-Serif" font-size="10.00">/d2/Shape.hpp</text>
</a>
</g>
</g>
<!-- Node1&#45;&gt;Node3 -->
<g id="edge9" class="edge">
<title>Node1&#45;&gt;Node3</title>
<path fill="none" stroke="midnightblue" d="M175.21,-393.8C180.77,-385.54 186.15,-375.81 189,-366 192.84,-352.77 192.84,-348.23 189,-335 185.12,-321.64 176.54,-308.43 169.24,-298.88"/>
<polygon fill="midnightblue" stroke="midnightblue" points="172.23,-391.96 169.24,-402.12 177.91,-396.05 172.23,-391.96"/>
</g>
<!-- Node2&#45;&gt;Node3 -->
<g id="edge2" class="edge">
<title>Node2&#45;&gt;Node3</title>
<path fill="none" stroke="midnightblue" d="M123.96,-327.45C131.31,-317.9 139.69,-307 146.17,-298.58"/>
<polygon fill="midnightblue" stroke="midnightblue" points="121.17,-325.34 117.85,-335.4 126.72,-329.6 121.17,-325.34"/>
</g>
<!-- Node4 -->
<g id="node4" class="node">
<title>Node4</title>
<g id="a_node4"><a xlink:href="WorldConcept_8hpp.html" target="_top" xlink:title="Definition of the internal WorldConcept interface class.">
<polygon fill="white" stroke="black" points="28,-201.5 28,-231.5 182,-231.5 182,-201.5 28,-201.5"/>
<text text-anchor="start" x="36" y="-219.5" font-family="Helvetica,sans-Serif" font-size="10.00">Library/include/playrho</text>
<text text-anchor="middle" x="105" y="-208.5" font-family="Helvetica,sans-Serif" font-size="10.00">/d2/detail/WorldConcept.hpp</text>
</a>
</g>
</g>
<!-- Node3&#45;&gt;Node4 -->
<g id="edge3" class="edge">
<title>Node3&#45;&gt;Node4</title>
<path fill="none" stroke="midnightblue" d="M139.36,-260.45C131.72,-250.9 123,-240 116.26,-231.58"/>
<polygon fill="midnightblue" stroke="midnightblue" points="136.74,-262.77 145.72,-268.4 142.2,-258.4 136.74,-262.77"/>
</g>
<!-- Node6 -->
<g id="node6" class="node">
<title>Node6</title>
<g id="a_node6"><a xlink:href="World_8hpp.html" target="_top" xlink:title="Definitions of the World class and closely related code.">
<polygon fill="white" stroke="black" points="108,-67.5 108,-97.5 236,-97.5 236,-67.5 108,-67.5"/>
<text text-anchor="start" x="116" y="-85.5" font-family="Helvetica,sans-Serif" font-size="10.00">Library/include/playrho</text>
<text text-anchor="middle" x="172" y="-74.5" font-family="Helvetica,sans-Serif" font-size="10.00">/d2/World.hpp</text>
</a>
</g>
</g>
<!-- Node3&#45;&gt;Node6 -->
<g id="edge8" class="edge">
<title>Node3&#45;&gt;Node6</title>
<path fill="none" stroke="midnightblue" d="M176.15,-260.22C182.12,-251.92 187.93,-242.05 191,-232 205.57,-184.27 187.6,-124.6 177.7,-97.75"/>
<polygon fill="midnightblue" stroke="midnightblue" points="173.3,-258.19 169.99,-268.25 178.85,-262.45 173.3,-258.19"/>
</g>
<!-- Node5 -->
<g id="node5" class="node">
<title>Node5</title>
<g id="a_node5"><a xlink:href="WorldModel_8hpp.html" target="_top" xlink:title="Definitions of the WorldModel class and closely related code.">
<polygon fill="white" stroke="black" points="0,-134.5 0,-164.5 144,-164.5 144,-134.5 0,-134.5"/>
<text text-anchor="start" x="8" y="-152.5" font-family="Helvetica,sans-Serif" font-size="10.00">Library/include/playrho</text>
<text text-anchor="middle" x="72" y="-141.5" font-family="Helvetica,sans-Serif" font-size="10.00">/d2/detail/WorldModel.hpp</text>
</a>
</g>
</g>
<!-- Node4&#45;&gt;Node5 -->
<g id="edge4" class="edge">
<title>Node4&#45;&gt;Node5</title>
<path fill="none" stroke="midnightblue" d="M93.21,-192.28C88.51,-183.02 83.25,-172.66 79.15,-164.58"/>
<polygon fill="midnightblue" stroke="midnightblue" points="90.19,-194.06 97.84,-201.4 96.43,-190.89 90.19,-194.06"/>
</g>
<!-- Node4&#45;&gt;Node6 -->
<g id="edge7" class="edge">
<title>Node4&#45;&gt;Node6</title>
<path fill="none" stroke="midnightblue" d="M129.83,-194.48C138.32,-186.1 147.14,-175.87 153,-165 164.72,-143.26 169.25,-114.45 170.98,-97.55"/>
<polygon fill="midnightblue" stroke="midnightblue" points="127.43,-191.93 122.54,-201.32 132.23,-197.03 127.43,-191.93"/>
</g>
<!-- Node5&#45;&gt;Node6 -->
<g id="edge5" class="edge">
<title>Node5&#45;&gt;Node6</title>
<path fill="none" stroke="midnightblue" d="M102.41,-128.73C117.88,-118.68 136.33,-106.68 150.34,-97.58"/>
<polygon fill="midnightblue" stroke="midnightblue" points="100.18,-126.01 93.7,-134.4 103.99,-131.88 100.18,-126.01"/>
</g>
<!-- Node7 -->
<g id="node7" class="node">
<title>Node7</title>
<g id="a_node7"><a xlink:href="BasicAPI_8hpp.html" target="_top" xlink:title="Basic API include file to pull in at once most headers used.">
<polygon fill="white" stroke="black" points="108,-0.5 108,-30.5 236,-30.5 236,-0.5 108,-0.5"/>
<text text-anchor="start" x="116" y="-18.5" font-family="Helvetica,sans-Serif" font-size="10.00">Library/include/playrho</text>
<text text-anchor="middle" x="172" y="-7.5" font-family="Helvetica,sans-Serif" font-size="10.00">/d2/BasicAPI.hpp</text>
</a>
</g>
</g>
<!-- Node6&#45;&gt;Node7 -->
<g id="edge6" class="edge">
<title>Node6&#45;&gt;Node7</title>
<path fill="none" stroke="midnightblue" d="M172,-57.11C172,-48.15 172,-38.32 172,-30.58"/>
<polygon fill="midnightblue" stroke="midnightblue" points="168.5,-57.4 172,-67.4 175.5,-57.4 168.5,-57.4"/>
</g>
</g>
</svg>
