<?xml version="1.0" encoding="UTF-8" standalone="no"?>
<!DOCTYPE svg PUBLIC "-//W3C//DTD SVG 1.1//EN"
 "http://www.w3.org/Graphics/SVG/1.1/DTD/svg11.dtd">
<!-- Generated by graphviz version 2.43.0 (0)
 -->
<!-- Title: Library/include/playrho/StepConf.hpp Pages: 1 -->
<svg width="282pt" height="173pt"
 viewBox="0.00 0.00 282.00 173.00" xmlns="http://www.w3.org/2000/svg" xmlns:xlink="http://www.w3.org/1999/xlink">
<g id="graph0" class="graph" transform="scale(1 1) rotate(0) translate(4 169)">
<title>Library/include/playrho/StepConf.hpp</title>
<polygon fill="white" stroke="transparent" points="-4,4 -4,-169 278,-169 278,4 -4,4"/>
<!-- Node1 -->
<g id="node1" class="node">
<title>Node1</title>
<g id="a_node1"><a xlink:title="Declarations of the StepConf class, and free functions associated with it.">
<polygon fill="#bfbfbf" stroke="black" points="73,-134.5 73,-164.5 201,-164.5 201,-134.5 73,-134.5"/>
<text text-anchor="start" x="81" y="-152.5" font-family="Helvetica,sans-Serif" font-size="10.00">Library/include/playrho</text>
<text text-anchor="middle" x="137" y="-141.5" font-family="Helvetica,sans-Serif" font-size="10.00">/StepConf.hpp</text>
</a>
</g>
</g>
<!-- Node2 -->
<g id="node2" class="node">
<title>Node2</title>
<g id="a_node2"><a xlink:href="World_8hpp.html" target="_top" xlink:title="Definitions of the World class and closely related code.">
<polygon fill="white" stroke="black" points="0,-67.5 0,-97.5 128,-97.5 128,-67.5 0,-67.5"/>
<text text-anchor="start" x="8" y="-85.5" font-family="Helvetica,sans-Serif" font-size="10.00">Library/include/playrho</text>
<text text-anchor="middle" x="64" y="-74.5" font-family="Helvetica,sans-Serif" font-size="10.00">/d2/World.hpp</text>
</a>
</g>
</g>
<!-- Node1&#45;&gt;Node2 -->
<g id="edge1" class="edge">
<title>Node1&#45;&gt;Node2</title>
<path fill="none" stroke="midnightblue" d="M113.53,-127.6C102.5,-117.78 89.66,-106.34 79.81,-97.58"/>
<polygon fill="midnightblue" stroke="midnightblue" points="111.36,-130.36 121.16,-134.4 116.02,-125.13 111.36,-130.36"/>
</g>
<!-- Node4 -->
<g id="node4" class="node">
<title>Node4</title>
<g id="a_node4"><a xlink:href="WorldMisc_8hpp.html" target="_top" xlink:title="Declarations of free functions of World for unidentified information.">
<polygon fill="white" stroke="black" points="146,-67.5 146,-97.5 274,-97.5 274,-67.5 146,-67.5"/>
<text text-anchor="start" x="154" y="-85.5" font-family="Helvetica,sans-Serif" font-size="10.00">Library/include/playrho</text>
<text text-anchor="middle" x="210" y="-74.5" font-family="Helvetica,sans-Serif" font-size="10.00">/d2/WorldMisc.hpp</text>
</a>
</g>
</g>
<!-- Node1&#45;&gt;Node4 -->
<g id="edge3" class="edge">
<title>Node1&#45;&gt;Node4</title>
<path fill="none" stroke="midnightblue" d="M160.47,-127.6C171.5,-117.78 184.34,-106.34 194.19,-97.58"/>
<polygon fill="midnightblue" stroke="midnightblue" points="157.98,-125.13 152.84,-134.4 162.64,-130.36 157.98,-125.13"/>
</g>
<!-- Node3 -->
<g id="node3" class="node">
<title>Node3</title>
<g id="a_node3"><a xlink:href="BasicAPI_8hpp.html" target="_top" xlink:title="Basic API include file to pull in at once most headers used.">
<polygon fill="white" stroke="black" points="73,-0.5 73,-30.5 201,-30.5 201,-0.5 73,-0.5"/>
<text text-anchor="start" x="81" y="-18.5" font-family="Helvetica,sans-Serif" font-size="10.00">Library/include/playrho</text>
<text text-anchor="middle" x="137" y="-7.5" font-family="Helvetica,sans-Serif" font-size="10.00">/d2/BasicAPI.hpp</text>
</a>
</g>
</g>
<!-- Node2&#45;&gt;Node3 -->
<g id="edge2" class="edge">
<title>Node2&#45;&gt;Node3</title>
<path fill="none" stroke="midnightblue" d="M87.47,-60.6C98.5,-50.78 111.34,-39.34 121.19,-30.58"/>
<polygon fill="midnightblue" stroke="midnightblue" points="84.98,-58.13 79.84,-67.4 89.64,-63.36 84.98,-58.13"/>
</g>
<!-- Node4&#45;&gt;Node3 -->
<g id="edge4" class="edge">
<title>Node4&#45;&gt;Node3</title>
<path fill="none" stroke="midnightblue" d="M186.53,-60.6C175.5,-50.78 162.66,-39.34 152.81,-30.58"/>
<polygon fill="midnightblue" stroke="midnightblue" points="184.36,-63.36 194.16,-67.4 189.02,-58.13 184.36,-63.36"/>
</g>
</g>
</svg>
