<?xml version="1.0" encoding="UTF-8" standalone="no"?>
<!DOCTYPE svg PUBLIC "-//W3C//DTD SVG 1.1//EN"
 "http://www.w3.org/Graphics/SVG/1.1/DTD/svg11.dtd">
<!-- Generated by graphviz version 2.43.0 (0)
 -->
<!-- Title: playrho::d2::PolygonShapeConf Pages: 1 -->
<!--zoomable 212 -->
<svg id="main" version="1.1" xmlns="http://www.w3.org/2000/svg" xmlns:xlink="http://www.w3.org/1999/xlink" xml:space="preserve" onload="init(evt)">
<style type="text/css"><![CDATA[
.edge:hover path { stroke: red; }
.edge:hover polygon { stroke: red; fill: red; }
]]></style>
<script type="text/javascript"><![CDATA[
var edges = document.getElementsByTagName('g');
if (edges && edges.length) {
  for (var i=0;i<edges.length;i++) {
    if (edges[i].id.substr(0,4)=='edge') {
      edges[i].setAttribute('class','edge');
    }
  }
}
]]></script>
        <defs>
                <circle id="rim" cx="0" cy="0" r="7"/>
                <circle id="rim2" cx="0" cy="0" r="3.5"/>
                <g id="zoomPlus">
                        <use xlink:href="#rim" fill="#404040">
                                <set attributeName="fill" to="#808080" begin="zoomplus.mouseover" end="zoomplus.mouseout"/>
                        </use>
                        <path d="M-4,0h8M0,-4v8" fill="none" stroke="white" stroke-width="1.5" pointer-events="none"/>
                </g>
                <g id="zoomMin">
                        <use xlink:href="#rim" fill="#404040">
                                <set attributeName="fill" to="#808080" begin="zoomminus.mouseover" end="zoomminus.mouseout"/>
                        </use>
                        <path d="M-4,0h8" fill="none" stroke="white" stroke-width="1.5" pointer-events="none"/>
                </g>
                <g id="dirArrow">
                        <path fill="none" stroke="white" stroke-width="1.5" d="M0,-3.0v7 M-2.5,-0.5L0,-3.0L2.5,-0.5"/>
                </g>
               <g id="resetDef">
                       <use xlink:href="#rim2" fill="#404040">
                               <set attributeName="fill" to="#808080" begin="reset.mouseover" end="reset.mouseout"/>
                       </use>
               </g>
        </defs>

<script type="text/javascript">
var viewWidth = 1486;
var viewHeight = 212;
var sectionId = 'dynsection-1';
</script>
<script xlink:href="svgpan.js"/>
<svg id="graph" class="graph">
<g id="viewport">
<title>playrho::d2::PolygonShapeConf</title>
<polygon fill="white" stroke="transparent" points="-4,4 -4,-207.5 1482,-207.5 1482,4 -4,4"/>
<!-- Node1 -->
<g id="node1" class="node">
<title>Node1</title>
<g id="a_node1"><a xlink:title="An n&#45;vertex convex polygon shaped part eligible for use with a Shape.">
<polygon fill="#bfbfbf" stroke="black" points="1309,-50 1309,-69 1478,-69 1478,-50 1309,-50"/>
<text text-anchor="middle" x="1393.5" y="-57" font-family="Helvetica,sans-Serif" font-size="10.00">playrho::d2::PolygonShapeConf</text>
</a>
</g>
</g>
<!-- Node2 -->
<g id="node2" class="node">
<title>Node2</title>
<g id="a_node2"><a xlink:href="structplayrho_1_1d2_1_1ShapeBuilder.html" target="_top" xlink:title=" ">
<polygon fill="white" stroke="black" points="1101,-89.5 1101,-119.5 1243,-119.5 1243,-89.5 1101,-89.5"/>
<text text-anchor="start" x="1109" y="-107.5" font-family="Helvetica,sans-Serif" font-size="10.00">playrho::d2::ShapeBuilder</text>
<text text-anchor="middle" x="1172" y="-96.5" font-family="Helvetica,sans-Serif" font-size="10.00">&lt; PolygonShapeConf &gt;</text>
</a>
</g>
</g>
<!-- Node2&#45;&gt;Node1 -->
<g id="edge1" class="edge">
<title>Node2&#45;&gt;Node1</title>
<path fill="none" stroke="midnightblue" d="M1253.06,-88.09C1284.28,-81.69 1318.97,-74.57 1345.94,-69.05"/>
<polygon fill="midnightblue" stroke="midnightblue" points="1252.15,-84.7 1243.05,-90.14 1253.55,-91.56 1252.15,-84.7"/>
</g>
<!-- Node3 -->
<g id="node3" class="node">
<title>Node3</title>
<g id="a_node3"><a xlink:href="structplayrho_1_1d2_1_1BaseShapeConf.html" target="_top" xlink:title="Base configuration for initializing shapes.">
<polygon fill="white" stroke="black" points="612,-139 612,-158 766,-158 766,-139 612,-139"/>
<text text-anchor="middle" x="689" y="-146" font-family="Helvetica,sans-Serif" font-size="10.00">playrho::d2::BaseShapeConf</text>
</a>
</g>
</g>
<!-- Node3&#45;&gt;Node2 -->
<g id="edge2" class="edge">
<title>Node3&#45;&gt;Node2</title>
<path fill="none" stroke="midnightblue" d="M776.69,-144.34C856.07,-139.99 976.71,-132.03 1081,-119.5 1087.45,-118.73 1094.14,-117.81 1100.83,-116.83"/>
<polygon fill="midnightblue" stroke="midnightblue" points="776.05,-140.87 766.25,-144.9 776.43,-147.86 776.05,-140.87"/>
</g>
<!-- Node8 -->
<g id="node8" class="node">
<title>Node8</title>
<g id="a_node8"><a xlink:href="structplayrho_1_1d2_1_1ShapeBuilder.html" target="_top" xlink:title="Builder configuration structure.">
<polygon fill="white" stroke="black" points="803,-89.5 803,-119.5 945,-119.5 945,-89.5 803,-89.5"/>
<text text-anchor="start" x="811" y="-107.5" font-family="Helvetica,sans-Serif" font-size="10.00">playrho::d2::ShapeBuilder</text>
<text text-anchor="middle" x="874" y="-96.5" font-family="Helvetica,sans-Serif" font-size="10.00">&lt; ConcreteConf &gt;</text>
</a>
</g>
</g>
<!-- Node3&#45;&gt;Node8 -->
<g id="edge9" class="edge">
<title>Node3&#45;&gt;Node8</title>
<path fill="none" stroke="midnightblue" d="M739.72,-136.54C761.49,-131.31 787.28,-125.11 810.34,-119.57"/>
<polygon fill="midnightblue" stroke="midnightblue" points="738.61,-133.21 729.71,-138.95 740.25,-140.02 738.61,-133.21"/>
</g>
<!-- Node4 -->
<g id="node4" class="node">
<title>Node4</title>
<g id="a_node4"><a xlink:href="classplayrho_1_1detail_1_1Checked.html" target="_top" xlink:title=" ">
<polygon fill="white" stroke="black" points="308,-134.5 308,-164.5 442,-164.5 442,-134.5 308,-134.5"/>
<text text-anchor="start" x="316" y="-152.5" font-family="Helvetica,sans-Serif" font-size="10.00">playrho::detail::Checked</text>
<text text-anchor="middle" x="375" y="-141.5" font-family="Helvetica,sans-Serif" font-size="10.00">&lt; AreaDensity &gt;</text>
</a>
</g>
</g>
<!-- Node4&#45;&gt;Node3 -->
<g id="edge3" class="edge">
<title>Node4&#45;&gt;Node3</title>
<path fill="none" stroke="#9a32cd" stroke-dasharray="5,2" d="M452.29,-149.26C500.77,-149.1 563.3,-148.9 611.77,-148.74"/>
<polygon fill="#9a32cd" stroke="#9a32cd" points="452.16,-145.76 442.17,-149.29 452.18,-152.76 452.16,-145.76"/>
<text text-anchor="middle" x="527" y="-152.5" font-family="Helvetica,sans-Serif" font-size="10.00"> density</text>
</g>
<!-- Node5 -->
<g id="node5" class="node">
<title>Node5</title>
<g id="a_node5"><a xlink:href="classplayrho_1_1detail_1_1Checked.html" target="_top" xlink:title="Class template for construction&#45;time constraining a type&#39;s value.">
<polygon fill="white" stroke="black" points="0,-85.5 0,-115.5 186,-115.5 186,-85.5 0,-85.5"/>
<text text-anchor="start" x="8" y="-103.5" font-family="Helvetica,sans-Serif" font-size="10.00">playrho::detail::Checked</text>
<text text-anchor="middle" x="93" y="-92.5" font-family="Helvetica,sans-Serif" font-size="10.00">&lt; ValueType, Checker, NoExcept &gt;</text>
</a>
</g>
</g>
<!-- Node5&#45;&gt;Node4 -->
<g id="edge4" class="edge">
<title>Node5&#45;&gt;Node4</title>
<path fill="none" stroke="orange" stroke-dasharray="5,2" d="M190.18,-117.33C228.96,-124.12 272.72,-131.78 307.82,-137.92"/>
<polygon fill="orange" stroke="orange" points="190.37,-113.81 179.91,-115.53 189.16,-120.71 190.37,-113.81"/>
<text text-anchor="middle" x="247" y="-137.5" font-family="Helvetica,sans-Serif" font-size="10.00"> &lt; AreaDensity &gt;</text>
</g>
<!-- Node7 -->
<g id="node7" class="node">
<title>Node7</title>
<g id="a_node7"><a xlink:href="classplayrho_1_1detail_1_1Checked.html" target="_top" xlink:title=" ">
<polygon fill="white" stroke="black" points="308,-85.5 308,-115.5 442,-115.5 442,-85.5 308,-85.5"/>
<text text-anchor="start" x="316" y="-103.5" font-family="Helvetica,sans-Serif" font-size="10.00">playrho::detail::Checked</text>
<text text-anchor="middle" x="375" y="-92.5" font-family="Helvetica,sans-Serif" font-size="10.00">&lt; Real &gt;</text>
</a>
</g>
</g>
<!-- Node5&#45;&gt;Node7 -->
<g id="edge7" class="edge">
<title>Node5&#45;&gt;Node7</title>
<path fill="none" stroke="orange" stroke-dasharray="5,2" d="M196.42,-100.5C233.52,-100.5 274.41,-100.5 307.6,-100.5"/>
<polygon fill="orange" stroke="orange" points="196.07,-97 186.07,-100.5 196.07,-104 196.07,-97"/>
<text text-anchor="middle" x="247" y="-103.5" font-family="Helvetica,sans-Serif" font-size="10.00"> &lt; Real &gt;</text>
</g>
<!-- Node9 -->
<g id="node9" class="node">
<title>Node9</title>
<g id="a_node9"><a xlink:href="classplayrho_1_1detail_1_1Checked.html" target="_top" xlink:title=" ">
<polygon fill="white" stroke="black" points="460,-42.5 460,-72.5 594,-72.5 594,-42.5 460,-42.5"/>
<text text-anchor="start" x="468" y="-60.5" font-family="Helvetica,sans-Serif" font-size="10.00">playrho::detail::Checked</text>
<text text-anchor="middle" x="527" y="-49.5" font-family="Helvetica,sans-Serif" font-size="10.00">&lt; Length &gt;</text>
</a>
</g>
</g>
<!-- Node5&#45;&gt;Node9 -->
<g id="edge11" class="edge">
<title>Node5&#45;&gt;Node9</title>
<path fill="none" stroke="orange" stroke-dasharray="5,2" d="M196.25,-86.42C198.86,-86.1 201.45,-85.8 204,-85.5 292.35,-75.23 394.73,-66.95 459.9,-62.12"/>
<polygon fill="orange" stroke="orange" points="195.59,-82.97 186.1,-87.67 196.45,-89.92 195.59,-82.97"/>
<text text-anchor="middle" x="247" y="-88.5" font-family="Helvetica,sans-Serif" font-size="10.00"> &lt; Length &gt;</text>
</g>
<!-- Node6 -->
<g id="node6" class="node">
<title>Node6</title>
<g id="a_node6"><a xlink:href="structplayrho_1_1Filter.html" target="_top" xlink:title="A holder for contact filtering data.">
<polygon fill="white" stroke="black" points="333,-184 333,-203 417,-203 417,-184 333,-184"/>
<text text-anchor="middle" x="375" y="-191" font-family="Helvetica,sans-Serif" font-size="10.00">playrho::Filter</text>
</a>
</g>
</g>
<!-- Node6&#45;&gt;Node3 -->
<g id="edge5" class="edge">
<title>Node6&#45;&gt;Node3</title>
<path fill="none" stroke="#9a32cd" stroke-dasharray="5,2" d="M426.98,-187.25C471.2,-181.7 536.91,-173.15 594,-164.5 606.93,-162.54 620.83,-160.27 633.87,-158.06"/>
<polygon fill="#9a32cd" stroke="#9a32cd" points="426.53,-183.78 417.05,-188.49 427.4,-190.72 426.53,-183.78"/>
<text text-anchor="middle" x="527" y="-184.5" font-family="Helvetica,sans-Serif" font-size="10.00"> filter</text>
</g>
<!-- Node7&#45;&gt;Node3 -->
<g id="edge6" class="edge">
<title>Node7&#45;&gt;Node3</title>
<path fill="none" stroke="#9a32cd" stroke-dasharray="5,2" d="M452.37,-105.65C494.39,-109.2 547.32,-114.88 594,-123.5 615.26,-127.42 638.76,-133.67 656.94,-138.94"/>
<polygon fill="#9a32cd" stroke="#9a32cd" points="452.46,-102.14 442.21,-104.81 451.88,-109.12 452.46,-102.14"/>
<text text-anchor="middle" x="527" y="-137.5" font-family="Helvetica,sans-Serif" font-size="10.00"> friction</text>
<text text-anchor="middle" x="527" y="-126.5" font-family="Helvetica,sans-Serif" font-size="10.00">restitution</text>
</g>
<!-- Node8&#45;&gt;Node2 -->
<g id="edge8" class="edge">
<title>Node8&#45;&gt;Node2</title>
<path fill="none" stroke="orange" stroke-dasharray="5,2" d="M955.27,-104.5C1000.76,-104.5 1057.13,-104.5 1100.84,-104.5"/>
<polygon fill="orange" stroke="orange" points="955.15,-101 945.15,-104.5 955.15,-108 955.15,-101"/>
<text text-anchor="middle" x="1022" y="-107.5" font-family="Helvetica,sans-Serif" font-size="10.00"> &lt; PolygonShapeConf &gt;</text>
</g>
<!-- Node9&#45;&gt;Node1 -->
<g id="edge10" class="edge">
<title>Node9&#45;&gt;Node1</title>
<path fill="none" stroke="#9a32cd" stroke-dasharray="5,2" d="M604.3,-58.41C655.19,-58.94 723.6,-59.5 784,-59.5 784,-59.5 784,-59.5 1173,-59.5 1217.87,-59.5 1267.9,-59.5 1308.85,-59.5"/>
<polygon fill="#9a32cd" stroke="#9a32cd" points="604.07,-54.91 594.03,-58.3 604,-61.9 604.07,-54.91"/>
<text text-anchor="middle" x="874" y="-62.5" font-family="Helvetica,sans-Serif" font-size="10.00"> vertexRadius</text>
</g>
<!-- Node10 -->
<g id="node10" class="node">
<title>Node10</title>
<g id="a_node10"><a xlink:href="classplayrho_1_1d2_1_1NgonWithFwdNormals.html" target="_top" xlink:title="N&#45;gon of vertices with counter&#45;clockwise &quot;forward&quot; normals.">
<polygon fill="white" stroke="black" points="1099,-0.5 1099,-30.5 1245,-30.5 1245,-0.5 1099,-0.5"/>
<text text-anchor="start" x="1107" y="-18.5" font-family="Helvetica,sans-Serif" font-size="10.00">playrho::d2::NgonWithFwd</text>
<text text-anchor="middle" x="1172" y="-7.5" font-family="Helvetica,sans-Serif" font-size="10.00">Normals&lt; N &gt;</text>
</a>
</g>
</g>
<!-- Node10&#45;&gt;Node1 -->
<g id="edge12" class="edge">
<title>Node10&#45;&gt;Node1</title>
<path fill="none" stroke="#9a32cd" stroke-dasharray="5,2" d="M1255.27,-27.86C1267.29,-29.92 1279.48,-32.16 1291,-34.5 1313.05,-38.98 1337.56,-44.99 1356.96,-49.99"/>
<polygon fill="#9a32cd" stroke="#9a32cd" points="1255.69,-24.38 1245.24,-26.17 1254.52,-31.28 1255.69,-24.38"/>
<text text-anchor="middle" x="1277" y="-37.5" font-family="Helvetica,sans-Serif" font-size="10.00"> ngon</text>
</g>
</g>
</svg>
        <g id="navigator" transform="translate(0 0)" fill="#404254">
                <rect fill="#f2f5e9" fill-opacity="0.5" stroke="#606060" stroke-width=".5" x="0" y="0" width="60" height="60"/>
                <use id="zoomplus" xlink:href="#zoomPlus" x="17" y="9" onmousedown="handleZoom(evt,'in')"/>
                <use id="zoomminus" xlink:href="#zoomMin" x="42" y="9" onmousedown="handleZoom(evt,'out')"/>
                <use id="reset" xlink:href="#resetDef" x="30" y="36" onmousedown="handleReset()"/>
                <g id="arrowUp" xlink:href="#dirArrow" transform="translate(30 24)" onmousedown="handlePan(0,-1)">
                  <use xlink:href="#rim" fill="#404040">
                        <set attributeName="fill" to="#808080" begin="arrowUp.mouseover" end="arrowUp.mouseout"/>
                  </use>
                  <path fill="none" stroke="white" stroke-width="1.5" d="M0,-3.0v7 M-2.5,-0.5L0,-3.0L2.5,-0.5"/>
                </g>
                <g id="arrowRight" xlink:href="#dirArrow" transform="rotate(90) translate(36 -43)" onmousedown="handlePan(1,0)">
                  <use xlink:href="#rim" fill="#404040">
                        <set attributeName="fill" to="#808080" begin="arrowRight.mouseover" end="arrowRight.mouseout"/>
                  </use>
                  <path fill="none" stroke="white" stroke-width="1.5" d="M0,-3.0v7 M-2.5,-0.5L0,-3.0L2.5,-0.5"/>
                </g>
                <g id="arrowDown" xlink:href="#dirArrow" transform="rotate(180) translate(-30 -48)" onmousedown="handlePan(0,1)">
                  <use xlink:href="#rim" fill="#404040">
                        <set attributeName="fill" to="#808080" begin="arrowDown.mouseover" end="arrowDown.mouseout"/>
                  </use>
                  <path fill="none" stroke="white" stroke-width="1.5" d="M0,-3.0v7 M-2.5,-0.5L0,-3.0L2.5,-0.5"/>
                </g>
                <g id="arrowLeft" xlink:href="#dirArrow" transform="rotate(270) translate(-36 17)" onmousedown="handlePan(-1,0)">
                  <use xlink:href="#rim" fill="#404040">
                        <set attributeName="fill" to="#808080" begin="arrowLeft.mouseover" end="arrowLeft.mouseout"/>
                  </use>
                  <path fill="none" stroke="white" stroke-width="1.5" d="M0,-3.0v7 M-2.5,-0.5L0,-3.0L2.5,-0.5"/>
                </g>
        </g>
        <svg viewBox="0 0 15 15" width="100%" height="30px" preserveAspectRatio="xMaxYMin meet">
         <g id="arrow_out" transform="scale(0.3 0.3)">
          <a xlink:href="structplayrho_1_1d2_1_1PolygonShapeConf__coll__graph_org.svg" target="_base">
           <rect id="button" ry="5" rx="5" y="6" x="6" height="38" width="38"
                fill="#f2f5e9" fill-opacity="0.5" stroke="#606060" stroke-width="1.0"/>
           <path id="arrow"
             d="M 11.500037,31.436501 C 11.940474,20.09759 22.043105,11.32322 32.158766,21.979434 L 37.068811,17.246167 C 37.068811,17.246167 37.088388,32 37.088388,32 L 22.160133,31.978069 C 22.160133,31.978069 26.997745,27.140456 26.997745,27.140456 C 18.528582,18.264221 13.291696,25.230495 11.500037,31.436501 z"
             style="fill:#404040;"/>
          </a>
         </g>
        </svg>
</svg>
