<?xml version="1.0" encoding="UTF-8" standalone="no"?>
<!DOCTYPE svg PUBLIC "-//W3C//DTD SVG 1.1//EN"
 "http://www.w3.org/Graphics/SVG/1.1/DTD/svg11.dtd">
<!-- Generated by graphviz version 2.43.0 (0)
 -->
<!-- Title: playrho::d2::HasSetFriction&lt; T, std::void_t&lt; decltype(SetFriction(std::declval&lt; T &amp; &gt;(), std::declval&lt; Real &gt;()))&gt; &gt; Pages: 1 -->
<svg width="166pt" height="128pt"
 viewBox="0.00 0.00 166.00 128.00" xmlns="http://www.w3.org/2000/svg" xmlns:xlink="http://www.w3.org/1999/xlink">
<g id="graph0" class="graph" transform="scale(1 1) rotate(0) translate(4 124)">
<title>playrho::d2::HasSetFriction&lt; T, std::void_t&lt; decltype(SetFriction(std::declval&lt; T &amp; &gt;(), std::declval&lt; Real &gt;()))&gt; &gt;</title>
<polygon fill="white" stroke="transparent" points="-4,4 -4,-124 162,-124 162,4 -4,4"/>
<!-- Node1 -->
<g id="node1" class="node">
<title>Node1</title>
<g id="a_node1"><a xlink:title=" ">
<polygon fill="#bfbfbf" stroke="black" points="0,-0.5 0,-63.5 158,-63.5 158,-0.5 0,-0.5"/>
<text text-anchor="start" x="8" y="-51.5" font-family="Helvetica,sans-Serif" font-size="10.00">playrho::d2::HasSetFriction</text>
<text text-anchor="start" x="8" y="-40.5" font-family="Helvetica,sans-Serif" font-size="10.00">&lt; T, std::void_t&lt; decltype</text>
<text text-anchor="start" x="8" y="-29.5" font-family="Helvetica,sans-Serif" font-size="10.00">(SetFriction(std::declval</text>
<text text-anchor="start" x="8" y="-18.5" font-family="Helvetica,sans-Serif" font-size="10.00">&lt; T &amp; &gt;(), std::declval&lt; Real</text>
<text text-anchor="middle" x="79" y="-7.5" font-family="Helvetica,sans-Serif" font-size="10.00"> &gt;()))&gt; &gt;</text>
</a>
</g>
</g>
<!-- Node2 -->
<g id="node2" class="node">
<title>Node2</title>
<g id="a_node2"><a xlink:title=" ">
<polygon fill="white" stroke="#bfbfbf" points="37,-100.5 37,-119.5 121,-119.5 121,-100.5 37,-100.5"/>
<text text-anchor="middle" x="79" y="-107.5" font-family="Helvetica,sans-Serif" font-size="10.00">std::true_type</text>
</a>
</g>
</g>
<!-- Node2&#45;&gt;Node1 -->
<g id="edge1" class="edge">
<title>Node2&#45;&gt;Node1</title>
<path fill="none" stroke="midnightblue" d="M79,-90.19C79,-82.16 79,-72.59 79,-63.59"/>
<polygon fill="midnightblue" stroke="midnightblue" points="75.5,-90.28 79,-100.28 82.5,-90.28 75.5,-90.28"/>
</g>
</g>
</svg>
