<?xml version="1.0" encoding="UTF-8" standalone="no"?>
<!DOCTYPE svg PUBLIC "-//W3C//DTD SVG 1.1//EN"
 "http://www.w3.org/Graphics/SVG/1.1/DTD/svg11.dtd">
<!-- Generated by graphviz version 2.43.0 (0)
 -->
<!-- Title: playrho::d2::part::Discriminator&lt; Base, D &gt; Pages: 1 -->
<!--zoomable 284 -->
<svg id="main" version="1.1" xmlns="http://www.w3.org/2000/svg" xmlns:xlink="http://www.w3.org/1999/xlink" xml:space="preserve" onload="init(evt)">
<style type="text/css"><![CDATA[
.edge:hover path { stroke: red; }
.edge:hover polygon { stroke: red; fill: red; }
]]></style>
<script type="text/javascript"><![CDATA[
var edges = document.getElementsByTagName('g');
if (edges && edges.length) {
  for (var i=0;i<edges.length;i++) {
    if (edges[i].id.substr(0,4)=='edge') {
      edges[i].setAttribute('class','edge');
    }
  }
}
]]></script>
        <defs>
                <circle id="rim" cx="0" cy="0" r="7"/>
                <circle id="rim2" cx="0" cy="0" r="3.5"/>
                <g id="zoomPlus">
                        <use xlink:href="#rim" fill="#404040">
                                <set attributeName="fill" to="#808080" begin="zoomplus.mouseover" end="zoomplus.mouseout"/>
                        </use>
                        <path d="M-4,0h8M0,-4v8" fill="none" stroke="white" stroke-width="1.5" pointer-events="none"/>
                </g>
                <g id="zoomMin">
                        <use xlink:href="#rim" fill="#404040">
                                <set attributeName="fill" to="#808080" begin="zoomminus.mouseover" end="zoomminus.mouseout"/>
                        </use>
                        <path d="M-4,0h8" fill="none" stroke="white" stroke-width="1.5" pointer-events="none"/>
                </g>
                <g id="dirArrow">
                        <path fill="none" stroke="white" stroke-width="1.5" d="M0,-3.0v7 M-2.5,-0.5L0,-3.0L2.5,-0.5"/>
                </g>
               <g id="resetDef">
                       <use xlink:href="#rim2" fill="#404040">
                               <set attributeName="fill" to="#808080" begin="reset.mouseover" end="reset.mouseout"/>
                       </use>
               </g>
        </defs>

<script type="text/javascript">
var viewWidth = 629;
var viewHeight = 284;
var sectionId = 'dynsection-0';
</script>
<script xlink:href="svgpan.js"/>
<svg id="graph" class="graph">
<g id="viewport">
<title>playrho::d2::part::Discriminator&lt; Base, D &gt;</title>
<polygon fill="white" stroke="transparent" points="-4,4 -4,-280 625,-280 625,4 -4,4"/>
<!-- Node1 -->
<g id="node1" class="node">
<title>Node1</title>
<g id="a_node1"><a xlink:title="&quot;Discriminator&quot; for named template arguments.">
<polygon fill="#bfbfbf" stroke="black" points="78,-122.5 78,-152.5 221,-152.5 221,-122.5 78,-122.5"/>
<text text-anchor="start" x="86" y="-140.5" font-family="Helvetica,sans-Serif" font-size="10.00">playrho::d2::part::</text>
<text text-anchor="middle" x="149.5" y="-129.5" font-family="Helvetica,sans-Serif" font-size="10.00">Discriminator&lt; Base, D &gt;</text>
</a>
</g>
</g>
<!-- Node3 -->
<g id="node3" class="node">
<title>Node3</title>
<g id="a_node3"><a xlink:href="structplayrho_1_1d2_1_1part_1_1Discriminator.html" target="_top" xlink:title=" ">
<polygon fill="white" stroke="black" points="317,-245.5 317,-275.5 456,-275.5 456,-245.5 317,-245.5"/>
<text text-anchor="start" x="325" y="-263.5" font-family="Helvetica,sans-Serif" font-size="10.00">playrho::d2::part::</text>
<text text-anchor="middle" x="386.5" y="-252.5" font-family="Helvetica,sans-Serif" font-size="10.00">Discriminator&lt; Set3, 3 &gt;</text>
</a>
</g>
</g>
<!-- Node1&#45;&gt;Node3 -->
<g id="edge2" class="edge">
<title>Node1&#45;&gt;Node3</title>
<path fill="none" stroke="orange" stroke-dasharray="5,2" d="M178.28,-158.78C195.33,-171.37 217.87,-187.21 239,-199.5 272.16,-218.8 281.51,-221.91 317,-236.5 324.46,-239.57 332.47,-242.6 340.29,-245.42"/>
<polygon fill="orange" stroke="orange" points="180.01,-155.7 169.9,-152.52 175.82,-161.31 180.01,-155.7"/>
<text text-anchor="middle" x="269" y="-231.5" font-family="Helvetica,sans-Serif" font-size="10.00"> &lt; Set3, 3 &gt;</text>
</g>
<!-- Node5 -->
<g id="node5" class="node">
<title>Node5</title>
<g id="a_node5"><a xlink:href="structplayrho_1_1d2_1_1part_1_1Discriminator.html" target="_top" xlink:title=" ">
<polygon fill="white" stroke="black" points="317,-196.5 317,-226.5 456,-226.5 456,-196.5 317,-196.5"/>
<text text-anchor="start" x="325" y="-214.5" font-family="Helvetica,sans-Serif" font-size="10.00">playrho::d2::part::</text>
<text text-anchor="middle" x="386.5" y="-203.5" font-family="Helvetica,sans-Serif" font-size="10.00">Discriminator&lt; Set2, 2 &gt;</text>
</a>
</g>
</g>
<!-- Node1&#45;&gt;Node5 -->
<g id="edge4" class="edge">
<title>Node1&#45;&gt;Node5</title>
<path fill="none" stroke="orange" stroke-dasharray="5,2" d="M203.65,-155.85C215.27,-159.77 227.53,-163.83 239,-167.5 270.37,-177.52 305.72,-188.16 333.84,-196.46"/>
<polygon fill="orange" stroke="orange" points="204.66,-152.5 194.06,-152.61 202.41,-159.13 204.66,-152.5"/>
<text text-anchor="middle" x="269" y="-187.5" font-family="Helvetica,sans-Serif" font-size="10.00"> &lt; Set2, 2 &gt;</text>
</g>
<!-- Node6 -->
<g id="node6" class="node">
<title>Node6</title>
<g id="a_node6"><a xlink:href="structplayrho_1_1d2_1_1part_1_1Discriminator.html" target="_top" xlink:title=" ">
<polygon fill="white" stroke="black" points="317,-147.5 317,-177.5 456,-177.5 456,-147.5 317,-147.5"/>
<text text-anchor="start" x="325" y="-165.5" font-family="Helvetica,sans-Serif" font-size="10.00">playrho::d2::part::</text>
<text text-anchor="middle" x="386.5" y="-154.5" font-family="Helvetica,sans-Serif" font-size="10.00">Discriminator&lt; Set6, 6 &gt;</text>
</a>
</g>
</g>
<!-- Node1&#45;&gt;Node6 -->
<g id="edge6" class="edge">
<title>Node1&#45;&gt;Node6</title>
<path fill="none" stroke="orange" stroke-dasharray="5,2" d="M231.11,-146.08C258.95,-149.04 289.85,-152.32 316.66,-155.18"/>
<polygon fill="orange" stroke="orange" points="231.32,-142.58 221.01,-145 230.58,-149.54 231.32,-142.58"/>
<text text-anchor="middle" x="269" y="-155.5" font-family="Helvetica,sans-Serif" font-size="10.00"> &lt; Set6, 6 &gt;</text>
</g>
<!-- Node7 -->
<g id="node7" class="node">
<title>Node7</title>
<g id="a_node7"><a xlink:href="structplayrho_1_1d2_1_1part_1_1Discriminator.html" target="_top" xlink:title=" ">
<polygon fill="white" stroke="black" points="317,-98.5 317,-128.5 456,-128.5 456,-98.5 317,-98.5"/>
<text text-anchor="start" x="325" y="-116.5" font-family="Helvetica,sans-Serif" font-size="10.00">playrho::d2::part::</text>
<text text-anchor="middle" x="386.5" y="-105.5" font-family="Helvetica,sans-Serif" font-size="10.00">Discriminator&lt; Set5, 5 &gt;</text>
</a>
</g>
</g>
<!-- Node1&#45;&gt;Node7 -->
<g id="edge8" class="edge">
<title>Node1&#45;&gt;Node7</title>
<path fill="none" stroke="orange" stroke-dasharray="5,2" d="M231.41,-126.35C233.97,-126.06 236.5,-125.77 239,-125.5 264.37,-122.74 292.27,-120.31 316.86,-118.37"/>
<polygon fill="orange" stroke="orange" points="230.98,-122.88 221.47,-127.54 231.81,-129.83 230.98,-122.88"/>
<text text-anchor="middle" x="269" y="-128.5" font-family="Helvetica,sans-Serif" font-size="10.00"> &lt; Set5, 5 &gt;</text>
</g>
<!-- Node8 -->
<g id="node8" class="node">
<title>Node8</title>
<g id="a_node8"><a xlink:href="structplayrho_1_1d2_1_1part_1_1Discriminator.html" target="_top" xlink:title=" ">
<polygon fill="white" stroke="black" points="317,-49.5 317,-79.5 456,-79.5 456,-49.5 317,-49.5"/>
<text text-anchor="start" x="325" y="-67.5" font-family="Helvetica,sans-Serif" font-size="10.00">playrho::d2::part::</text>
<text text-anchor="middle" x="386.5" y="-56.5" font-family="Helvetica,sans-Serif" font-size="10.00">Discriminator&lt; Set4, 4 &gt;</text>
</a>
</g>
</g>
<!-- Node1&#45;&gt;Node8 -->
<g id="edge10" class="edge">
<title>Node1&#45;&gt;Node8</title>
<path fill="none" stroke="orange" stroke-dasharray="5,2" d="M199.86,-118.92C212.55,-114.35 226.23,-109.59 239,-105.5 268.05,-96.2 300.71,-86.94 327.81,-79.59"/>
<polygon fill="orange" stroke="orange" points="198.58,-115.66 190.38,-122.37 200.97,-122.24 198.58,-115.66"/>
<text text-anchor="middle" x="269" y="-108.5" font-family="Helvetica,sans-Serif" font-size="10.00"> &lt; Set4, 4 &gt;</text>
</g>
<!-- Node9 -->
<g id="node9" class="node">
<title>Node9</title>
<g id="a_node9"><a xlink:href="structplayrho_1_1d2_1_1part_1_1Discriminator.html" target="_top" xlink:title=" ">
<polygon fill="white" stroke="black" points="317,-0.5 317,-30.5 456,-30.5 456,-0.5 317,-0.5"/>
<text text-anchor="start" x="325" y="-18.5" font-family="Helvetica,sans-Serif" font-size="10.00">playrho::d2::part::</text>
<text text-anchor="middle" x="386.5" y="-7.5" font-family="Helvetica,sans-Serif" font-size="10.00">Discriminator&lt; Set1, 1 &gt;</text>
</a>
</g>
</g>
<!-- Node1&#45;&gt;Node9 -->
<g id="edge12" class="edge">
<title>Node1&#45;&gt;Node9</title>
<path fill="none" stroke="orange" stroke-dasharray="5,2" d="M177.81,-115.93C194.84,-103.02 217.54,-86.79 239,-74.5 271.97,-55.61 281.71,-53.57 317,-39.5 324.61,-36.47 332.77,-33.43 340.71,-30.58"/>
<polygon fill="orange" stroke="orange" points="175.26,-113.48 169.45,-122.34 179.52,-119.03 175.26,-113.48"/>
<text text-anchor="middle" x="269" y="-77.5" font-family="Helvetica,sans-Serif" font-size="10.00"> &lt; Set1, 1 &gt;</text>
</g>
<!-- Node2 -->
<g id="node2" class="node">
<title>Node2</title>
<g id="a_node2"><a xlink:title=" ">
<polygon fill="white" stroke="#bfbfbf" points="0,-128 0,-147 41,-147 41,-128 0,-128"/>
<text text-anchor="middle" x="20.5" y="-135" font-family="Helvetica,sans-Serif" font-size="10.00">Base</text>
</a>
</g>
</g>
<!-- Node2&#45;&gt;Node1 -->
<g id="edge1" class="edge">
<title>Node2&#45;&gt;Node1</title>
<path fill="none" stroke="midnightblue" d="M51.1,-137.5C59.25,-137.5 68.45,-137.5 77.86,-137.5"/>
<polygon fill="midnightblue" stroke="midnightblue" points="51.07,-134 41.07,-137.5 51.07,-141 51.07,-134"/>
</g>
<!-- Node4 -->
<g id="node4" class="node">
<title>Node4</title>
<g id="a_node4"><a xlink:href="structplayrho_1_1d2_1_1part_1_1PolicySelector.html" target="_top" xlink:title="Policy selector for named template arguments for the Compositor host class template.">
<polygon fill="white" stroke="black" points="493,-111.5 493,-163.5 621,-163.5 621,-111.5 493,-111.5"/>
<text text-anchor="start" x="501" y="-151.5" font-family="Helvetica,sans-Serif" font-size="10.00">playrho::d2::part::</text>
<text text-anchor="start" x="501" y="-140.5" font-family="Helvetica,sans-Serif" font-size="10.00">PolicySelector&lt; Set1,</text>
<text text-anchor="start" x="501" y="-129.5" font-family="Helvetica,sans-Serif" font-size="10.00"> Set2, Set3, Set4, Set5,</text>
<text text-anchor="middle" x="557" y="-118.5" font-family="Helvetica,sans-Serif" font-size="10.00"> Set6 &gt;</text>
</a>
</g>
</g>
<!-- Node3&#45;&gt;Node4 -->
<g id="edge3" class="edge">
<title>Node3&#45;&gt;Node4</title>
<path fill="none" stroke="midnightblue" d="M447.91,-241.08C450.7,-239.64 453.41,-238.12 456,-236.5 487.28,-216.95 516.45,-186.02 535.12,-163.93"/>
<polygon fill="midnightblue" stroke="midnightblue" points="446.36,-237.95 438.8,-245.38 449.34,-244.28 446.36,-237.95"/>
</g>
<!-- Node5&#45;&gt;Node4 -->
<g id="edge5" class="edge">
<title>Node5&#45;&gt;Node4</title>
<path fill="none" stroke="midnightblue" d="M442.54,-192.91C447.12,-191.15 451.66,-189.34 456,-187.5 472.89,-180.35 490.94,-171.67 506.99,-163.56"/>
<polygon fill="midnightblue" stroke="midnightblue" points="441.27,-189.64 433.13,-196.42 443.72,-196.2 441.27,-189.64"/>
</g>
<!-- Node6&#45;&gt;Node4 -->
<g id="edge7" class="edge">
<title>Node6&#45;&gt;Node4</title>
<path fill="none" stroke="midnightblue" d="M466.13,-150.83C475.12,-149.5 484.2,-148.15 492.96,-146.85"/>
<polygon fill="midnightblue" stroke="midnightblue" points="465.41,-147.4 456.04,-152.33 466.44,-154.33 465.41,-147.4"/>
</g>
<!-- Node7&#45;&gt;Node4 -->
<g id="edge9" class="edge">
<title>Node7&#45;&gt;Node4</title>
<path fill="none" stroke="midnightblue" d="M466.13,-124.7C475.12,-125.98 484.2,-127.27 492.96,-128.52"/>
<polygon fill="midnightblue" stroke="midnightblue" points="466.43,-121.21 456.04,-123.26 465.44,-128.14 466.43,-121.21"/>
</g>
<!-- Node8&#45;&gt;Node4 -->
<g id="edge11" class="edge">
<title>Node8&#45;&gt;Node4</title>
<path fill="none" stroke="midnightblue" d="M442.53,-83.13C447.11,-84.88 451.65,-86.68 456,-88.5 472.41,-95.37 489.94,-103.63 505.66,-111.39"/>
<polygon fill="midnightblue" stroke="midnightblue" points="443.7,-79.83 433.11,-79.63 441.26,-86.4 443.7,-79.83"/>
</g>
<!-- Node9&#45;&gt;Node4 -->
<g id="edge13" class="edge">
<title>Node9&#45;&gt;Node4</title>
<path fill="none" stroke="midnightblue" d="M447.9,-34.93C450.69,-36.37 453.41,-37.89 456,-39.5 487.17,-58.88 516.36,-89.49 535.06,-111.34"/>
<polygon fill="midnightblue" stroke="midnightblue" points="449.33,-31.74 438.79,-30.65 446.35,-38.07 449.33,-31.74"/>
</g>
</g>
</svg>
        <g id="navigator" transform="translate(0 0)" fill="#404254">
                <rect fill="#f2f5e9" fill-opacity="0.5" stroke="#606060" stroke-width=".5" x="0" y="0" width="60" height="60"/>
                <use id="zoomplus" xlink:href="#zoomPlus" x="17" y="9" onmousedown="handleZoom(evt,'in')"/>
                <use id="zoomminus" xlink:href="#zoomMin" x="42" y="9" onmousedown="handleZoom(evt,'out')"/>
                <use id="reset" xlink:href="#resetDef" x="30" y="36" onmousedown="handleReset()"/>
                <g id="arrowUp" xlink:href="#dirArrow" transform="translate(30 24)" onmousedown="handlePan(0,-1)">
                  <use xlink:href="#rim" fill="#404040">
                        <set attributeName="fill" to="#808080" begin="arrowUp.mouseover" end="arrowUp.mouseout"/>
                  </use>
                  <path fill="none" stroke="white" stroke-width="1.5" d="M0,-3.0v7 M-2.5,-0.5L0,-3.0L2.5,-0.5"/>
                </g>
                <g id="arrowRight" xlink:href="#dirArrow" transform="rotate(90) translate(36 -43)" onmousedown="handlePan(1,0)">
                  <use xlink:href="#rim" fill="#404040">
                        <set attributeName="fill" to="#808080" begin="arrowRight.mouseover" end="arrowRight.mouseout"/>
                  </use>
                  <path fill="none" stroke="white" stroke-width="1.5" d="M0,-3.0v7 M-2.5,-0.5L0,-3.0L2.5,-0.5"/>
                </g>
                <g id="arrowDown" xlink:href="#dirArrow" transform="rotate(180) translate(-30 -48)" onmousedown="handlePan(0,1)">
                  <use xlink:href="#rim" fill="#404040">
                        <set attributeName="fill" to="#808080" begin="arrowDown.mouseover" end="arrowDown.mouseout"/>
                  </use>
                  <path fill="none" stroke="white" stroke-width="1.5" d="M0,-3.0v7 M-2.5,-0.5L0,-3.0L2.5,-0.5"/>
                </g>
                <g id="arrowLeft" xlink:href="#dirArrow" transform="rotate(270) translate(-36 17)" onmousedown="handlePan(-1,0)">
                  <use xlink:href="#rim" fill="#404040">
                        <set attributeName="fill" to="#808080" begin="arrowLeft.mouseover" end="arrowLeft.mouseout"/>
                  </use>
                  <path fill="none" stroke="white" stroke-width="1.5" d="M0,-3.0v7 M-2.5,-0.5L0,-3.0L2.5,-0.5"/>
                </g>
        </g>
        <svg viewBox="0 0 15 15" width="100%" height="30px" preserveAspectRatio="xMaxYMin meet">
         <g id="arrow_out" transform="scale(0.3 0.3)">
          <a xlink:href="structplayrho_1_1d2_1_1part_1_1Discriminator__inherit__graph_org.svg" target="_base">
           <rect id="button" ry="5" rx="5" y="6" x="6" height="38" width="38"
                fill="#f2f5e9" fill-opacity="0.5" stroke="#606060" stroke-width="1.0"/>
           <path id="arrow"
             d="M 11.500037,31.436501 C 11.940474,20.09759 22.043105,11.32322 32.158766,21.979434 L 37.068811,17.246167 C 37.068811,17.246167 37.088388,32 37.088388,32 L 22.160133,31.978069 C 22.160133,31.978069 26.997745,27.140456 26.997745,27.140456 C 18.528582,18.264221 13.291696,25.230495 11.500037,31.436501 z"
             style="fill:#404040;"/>
          </a>
         </g>
        </svg>
</svg>
