<?xml version="1.0" encoding="UTF-8" standalone="no"?>
<!DOCTYPE svg PUBLIC "-//W3C//DTD SVG 1.1//EN"
 "http://www.w3.org/Graphics/SVG/1.1/DTD/svg11.dtd">
<!-- Generated by graphviz version 2.43.0 (0)
 -->
<!-- Title: playrho::d2::GearJointConf Pages: 1 -->
<svg width="1305pt" height="162pt"
 viewBox="0.00 0.00 1305.00 162.00" xmlns="http://www.w3.org/2000/svg" xmlns:xlink="http://www.w3.org/1999/xlink">
<g id="graph0" class="graph" transform="scale(1 1) rotate(0) translate(4 158)">
<title>playrho::d2::GearJointConf</title>
<polygon fill="white" stroke="transparent" points="-4,4 -4,-158 1301,-158 1301,4 -4,4"/>
<!-- Node1 -->
<g id="node1" class="node">
<title>Node1</title>
<g id="a_node1"><a xlink:title="Gear joint definition.">
<polygon fill="#bfbfbf" stroke="black" points="1152,-68.5 1152,-87.5 1297,-87.5 1297,-68.5 1152,-68.5"/>
<text text-anchor="middle" x="1224.5" y="-75.5" font-family="Helvetica,sans-Serif" font-size="10.00">playrho::d2::GearJointConf</text>
</a>
</g>
</g>
<!-- Node2 -->
<g id="node2" class="node">
<title>Node2</title>
<g id="a_node2"><a xlink:href="structplayrho_1_1d2_1_1JointBuilder.html" target="_top" xlink:title=" ">
<polygon fill="white" stroke="black" points="956,-63 956,-93 1090,-93 1090,-63 956,-63"/>
<text text-anchor="start" x="964" y="-81" font-family="Helvetica,sans-Serif" font-size="10.00">playrho::d2::JointBuilder</text>
<text text-anchor="middle" x="1023" y="-70" font-family="Helvetica,sans-Serif" font-size="10.00">&lt; GearJointConf &gt;</text>
</a>
</g>
</g>
<!-- Node2&#45;&gt;Node1 -->
<g id="edge1" class="edge">
<title>Node2&#45;&gt;Node1</title>
<path fill="none" stroke="midnightblue" d="M1100.49,-78C1117.31,-78 1135.06,-78 1151.69,-78"/>
<polygon fill="midnightblue" stroke="midnightblue" points="1100.15,-74.5 1090.15,-78 1100.15,-81.5 1100.15,-74.5"/>
</g>
<!-- Node3 -->
<g id="node3" class="node">
<title>Node3</title>
<g id="a_node3"><a xlink:href="structplayrho_1_1d2_1_1JointConf.html" target="_top" xlink:title="Base joint definition class.">
<polygon fill="white" stroke="black" points="505,-76.5 505,-95.5 627,-95.5 627,-76.5 505,-76.5"/>
<text text-anchor="middle" x="566" y="-83.5" font-family="Helvetica,sans-Serif" font-size="10.00">playrho::d2::JointConf</text>
</a>
</g>
</g>
<!-- Node3&#45;&gt;Node2 -->
<g id="edge2" class="edge">
<title>Node3&#45;&gt;Node2</title>
<path fill="none" stroke="midnightblue" d="M637.45,-84.76C724.34,-83.23 870.9,-80.66 955.79,-79.16"/>
<polygon fill="midnightblue" stroke="midnightblue" points="637.36,-81.26 627.42,-84.94 637.48,-88.26 637.36,-81.26"/>
</g>
<!-- Node6 -->
<g id="node6" class="node">
<title>Node6</title>
<g id="a_node6"><a xlink:href="structplayrho_1_1d2_1_1JointBuilder.html" target="_top" xlink:title="Joint builder definition structure.">
<polygon fill="white" stroke="black" points="664,-38.5 664,-57.5 826,-57.5 826,-38.5 664,-38.5"/>
<text text-anchor="middle" x="745" y="-45.5" font-family="Helvetica,sans-Serif" font-size="10.00">playrho::d2::JointBuilder&lt; T &gt;</text>
</a>
</g>
</g>
<!-- Node3&#45;&gt;Node6 -->
<g id="edge6" class="edge">
<title>Node3&#45;&gt;Node6</title>
<path fill="none" stroke="midnightblue" d="M621.74,-74.25C646.77,-68.87 676.03,-62.59 699.66,-57.52"/>
<polygon fill="midnightblue" stroke="midnightblue" points="620.71,-70.89 611.66,-76.41 622.18,-77.73 620.71,-70.89"/>
</g>
<!-- Node4 -->
<g id="node4" class="node">
<title>Node4</title>
<g id="a_node4"><a xlink:href="classplayrho_1_1detail_1_1IndexingNamedType.html" target="_top" xlink:title=" ">
<polygon fill="white" stroke="black" points="283,-88.5 283,-129.5 435,-129.5 435,-88.5 283,-88.5"/>
<text text-anchor="start" x="291" y="-117.5" font-family="Helvetica,sans-Serif" font-size="10.00">playrho::detail::Indexing</text>
<text text-anchor="start" x="291" y="-106.5" font-family="Helvetica,sans-Serif" font-size="10.00">NamedType&lt; BodyCounter,</text>
<text text-anchor="middle" x="359" y="-95.5" font-family="Helvetica,sans-Serif" font-size="10.00"> struct BodyIdentifier &gt;</text>
</a>
</g>
</g>
<!-- Node4&#45;&gt;Node1 -->
<g id="edge7" class="edge">
<title>Node4&#45;&gt;Node1</title>
<path fill="none" stroke="#9a32cd" stroke-dasharray="5,2" d="M445.39,-122.89C482.1,-127.74 525.55,-132 565,-132 565,-132 565,-132 1024,-132 1091.28,-132 1167.02,-103.03 1202.74,-87.53"/>
<polygon fill="#9a32cd" stroke="#9a32cd" points="445.61,-119.39 435.23,-121.51 444.67,-126.32 445.61,-119.39"/>
<text text-anchor="middle" x="745" y="-146" font-family="Helvetica,sans-Serif" font-size="10.00"> bodyC</text>
<text text-anchor="middle" x="745" y="-135" font-family="Helvetica,sans-Serif" font-size="10.00">bodyD</text>
</g>
<!-- Node4&#45;&gt;Node3 -->
<g id="edge3" class="edge">
<title>Node4&#45;&gt;Node3</title>
<path fill="none" stroke="#9a32cd" stroke-dasharray="5,2" d="M445.25,-96.91C447.86,-96.6 450.45,-96.29 453,-96 469.78,-94.08 488,-92.32 504.78,-90.82"/>
<polygon fill="#9a32cd" stroke="#9a32cd" points="444.57,-93.47 435.08,-98.18 445.44,-100.42 444.57,-93.47"/>
<text text-anchor="middle" x="470" y="-110" font-family="Helvetica,sans-Serif" font-size="10.00"> bodyA</text>
<text text-anchor="middle" x="470" y="-99" font-family="Helvetica,sans-Serif" font-size="10.00">bodyB</text>
</g>
<!-- Node5 -->
<g id="node5" class="node">
<title>Node5</title>
<g id="a_node5"><a xlink:href="classplayrho_1_1detail_1_1IndexingNamedType.html" target="_top" xlink:title="An indexable, hashable, named &quot;strong type&quot; template class.">
<polygon fill="white" stroke="black" points="0,-94 0,-124 135,-124 135,-94 0,-94"/>
<text text-anchor="start" x="8" y="-112" font-family="Helvetica,sans-Serif" font-size="10.00">playrho::detail::Indexing</text>
<text text-anchor="middle" x="67.5" y="-101" font-family="Helvetica,sans-Serif" font-size="10.00">NamedType&lt; T, Tag &gt;</text>
</a>
</g>
</g>
<!-- Node5&#45;&gt;Node4 -->
<g id="edge4" class="edge">
<title>Node5&#45;&gt;Node4</title>
<path fill="none" stroke="orange" stroke-dasharray="5,2" d="M145.31,-109C187.88,-109 240.59,-109 282.89,-109"/>
<polygon fill="orange" stroke="orange" points="145.28,-105.5 135.28,-109 145.28,-112.5 145.28,-105.5"/>
<text text-anchor="start" x="153" y="-123" font-family="Helvetica,sans-Serif" font-size="10.00"> &lt; BodyCounter, struct</text>
<text text-anchor="middle" x="209" y="-112" font-family="Helvetica,sans-Serif" font-size="10.00"> BodyIdentifier &gt;</text>
</g>
<!-- Node6&#45;&gt;Node2 -->
<g id="edge5" class="edge">
<title>Node6&#45;&gt;Node2</title>
<path fill="none" stroke="orange" stroke-dasharray="5,2" d="M836.39,-51.66C868.56,-53.61 904.98,-56.56 938,-61 943.75,-61.77 949.7,-62.71 955.65,-63.73"/>
<polygon fill="orange" stroke="orange" points="836.29,-48.14 826.11,-51.06 835.89,-55.13 836.29,-48.14"/>
<text text-anchor="middle" x="891" y="-64" font-family="Helvetica,sans-Serif" font-size="10.00"> &lt; GearJointConf &gt;</text>
</g>
<!-- Node7 -->
<g id="node7" class="node">
<title>Node7</title>
<g id="a_node7"><a xlink:href="structplayrho_1_1Vector.html" target="_top" xlink:title=" ">
<polygon fill="white" stroke="black" points="956,-8.5 956,-27.5 1090,-27.5 1090,-8.5 956,-8.5"/>
<text text-anchor="middle" x="1023" y="-15.5" font-family="Helvetica,sans-Serif" font-size="10.00">playrho::Vector&lt; Real &gt;</text>
</a>
</g>
</g>
<!-- Node7&#45;&gt;Node1 -->
<g id="edge8" class="edge">
<title>Node7&#45;&gt;Node1</title>
<path fill="none" stroke="#9a32cd" stroke-dasharray="5,2" d="M1065.24,-30.4C1102.79,-41.7 1157.44,-58.13 1191.71,-68.44"/>
<polygon fill="#9a32cd" stroke="#9a32cd" points="1066.2,-27.04 1055.61,-27.51 1064.18,-33.74 1066.2,-27.04"/>
<text text-anchor="middle" x="1121" y="-63" font-family="Helvetica,sans-Serif" font-size="10.00"> JvAC</text>
<text text-anchor="middle" x="1121" y="-52" font-family="Helvetica,sans-Serif" font-size="10.00">JvBD</text>
</g>
<!-- Node8 -->
<g id="node8" class="node">
<title>Node8</title>
<g id="a_node8"><a xlink:href="structplayrho_1_1Vector.html" target="_top" xlink:title="Vector.">
<polygon fill="white" stroke="black" points="679,-0.5 679,-19.5 811,-19.5 811,-0.5 679,-0.5"/>
<text text-anchor="middle" x="745" y="-7.5" font-family="Helvetica,sans-Serif" font-size="10.00">playrho::Vector&lt; T, N &gt;</text>
</a>
</g>
</g>
<!-- Node8&#45;&gt;Node7 -->
<g id="edge9" class="edge">
<title>Node8&#45;&gt;Node7</title>
<path fill="none" stroke="orange" stroke-dasharray="5,2" d="M821.26,-12.18C863.38,-13.4 915.41,-14.91 955.94,-16.09"/>
<polygon fill="orange" stroke="orange" points="821.16,-8.68 811.06,-11.89 820.95,-15.67 821.16,-8.68"/>
<text text-anchor="middle" x="891" y="-19" font-family="Helvetica,sans-Serif" font-size="10.00"> &lt; Real &gt;</text>
</g>
</g>
</svg>
