<?xml version="1.0" encoding="UTF-8" standalone="no"?>
<!DOCTYPE svg PUBLIC "-//W3C//DTD SVG 1.1//EN"
 "http://www.w3.org/Graphics/SVG/1.1/DTD/svg11.dtd">
<!-- Generated by graphviz version 2.43.0 (0)
 -->
<!-- Title: playrho::d2::TargetJointConf Pages: 1 -->
<!--zoomable 353 -->
<svg id="main" version="1.1" xmlns="http://www.w3.org/2000/svg" xmlns:xlink="http://www.w3.org/1999/xlink" xml:space="preserve" onload="init(evt)">
<style type="text/css"><![CDATA[
.edge:hover path { stroke: red; }
.edge:hover polygon { stroke: red; fill: red; }
]]></style>
<script type="text/javascript"><![CDATA[
var edges = document.getElementsByTagName('g');
if (edges && edges.length) {
  for (var i=0;i<edges.length;i++) {
    if (edges[i].id.substr(0,4)=='edge') {
      edges[i].setAttribute('class','edge');
    }
  }
}
]]></script>
        <defs>
                <circle id="rim" cx="0" cy="0" r="7"/>
                <circle id="rim2" cx="0" cy="0" r="3.5"/>
                <g id="zoomPlus">
                        <use xlink:href="#rim" fill="#404040">
                                <set attributeName="fill" to="#808080" begin="zoomplus.mouseover" end="zoomplus.mouseout"/>
                        </use>
                        <path d="M-4,0h8M0,-4v8" fill="none" stroke="white" stroke-width="1.5" pointer-events="none"/>
                </g>
                <g id="zoomMin">
                        <use xlink:href="#rim" fill="#404040">
                                <set attributeName="fill" to="#808080" begin="zoomminus.mouseover" end="zoomminus.mouseout"/>
                        </use>
                        <path d="M-4,0h8" fill="none" stroke="white" stroke-width="1.5" pointer-events="none"/>
                </g>
                <g id="dirArrow">
                        <path fill="none" stroke="white" stroke-width="1.5" d="M0,-3.0v7 M-2.5,-0.5L0,-3.0L2.5,-0.5"/>
                </g>
               <g id="resetDef">
                       <use xlink:href="#rim2" fill="#404040">
                               <set attributeName="fill" to="#808080" begin="reset.mouseover" end="reset.mouseout"/>
                       </use>
               </g>
        </defs>

<script type="text/javascript">
var viewWidth = 1436;
var viewHeight = 353;
var sectionId = 'dynsection-1';
</script>
<script xlink:href="svgpan.js"/>
<svg id="graph" class="graph">
<g id="viewport">
<title>playrho::d2::TargetJointConf</title>
<polygon fill="white" stroke="transparent" points="-4,4 -4,-348.5 1432,-348.5 1432,4 -4,4"/>
<!-- Node1 -->
<g id="node1" class="node">
<title>Node1</title>
<g id="a_node1"><a xlink:title="Target joint definition.">
<polygon fill="#bfbfbf" stroke="black" points="1276,-166 1276,-185 1428,-185 1428,-166 1276,-166"/>
<text text-anchor="middle" x="1352" y="-173" font-family="Helvetica,sans-Serif" font-size="10.00">playrho::d2::TargetJointConf</text>
</a>
</g>
</g>
<!-- Node2 -->
<g id="node2" class="node">
<title>Node2</title>
<g id="a_node2"><a xlink:href="structplayrho_1_1d2_1_1JointBuilder.html" target="_top" xlink:title=" ">
<polygon fill="white" stroke="black" points="1010,-300.5 1010,-330.5 1144,-330.5 1144,-300.5 1010,-300.5"/>
<text text-anchor="start" x="1018" y="-318.5" font-family="Helvetica,sans-Serif" font-size="10.00">playrho::d2::JointBuilder</text>
<text text-anchor="middle" x="1077" y="-307.5" font-family="Helvetica,sans-Serif" font-size="10.00">&lt; TargetJointConf &gt;</text>
</a>
</g>
</g>
<!-- Node2&#45;&gt;Node1 -->
<g id="edge1" class="edge">
<title>Node2&#45;&gt;Node1</title>
<path fill="none" stroke="midnightblue" d="M1154.4,-315.58C1188.01,-312.69 1226.84,-305.18 1258,-287.5 1302.18,-262.43 1334.32,-207.68 1346.08,-185.32"/>
<polygon fill="midnightblue" stroke="midnightblue" points="1153.87,-312.11 1144.15,-316.33 1154.38,-319.09 1153.87,-312.11"/>
</g>
<!-- Node3 -->
<g id="node3" class="node">
<title>Node3</title>
<g id="a_node3"><a xlink:href="structplayrho_1_1d2_1_1JointConf.html" target="_top" xlink:title="Base joint definition class.">
<polygon fill="white" stroke="black" points="505,-313 505,-332 627,-332 627,-313 505,-313"/>
<text text-anchor="middle" x="566" y="-320" font-family="Helvetica,sans-Serif" font-size="10.00">playrho::d2::JointConf</text>
</a>
</g>
</g>
<!-- Node3&#45;&gt;Node2 -->
<g id="edge2" class="edge">
<title>Node3&#45;&gt;Node2</title>
<path fill="none" stroke="midnightblue" d="M637.65,-327.44C640.47,-327.49 643.26,-327.51 646,-327.5 789.11,-327.06 825.06,-332.55 968,-325.5 981.54,-324.83 996.01,-323.75 1009.81,-322.54"/>
<polygon fill="midnightblue" stroke="midnightblue" points="637.45,-323.93 627.36,-327.15 637.26,-330.93 637.45,-323.93"/>
</g>
<!-- Node6 -->
<g id="node6" class="node">
<title>Node6</title>
<g id="a_node6"><a xlink:href="structplayrho_1_1d2_1_1JointBuilder.html" target="_top" xlink:title="Joint builder definition structure.">
<polygon fill="white" stroke="black" points="676,-294 676,-313 838,-313 838,-294 676,-294"/>
<text text-anchor="middle" x="757" y="-301" font-family="Helvetica,sans-Serif" font-size="10.00">playrho::d2::JointBuilder&lt; T &gt;</text>
</a>
</g>
</g>
<!-- Node3&#45;&gt;Node6 -->
<g id="edge6" class="edge">
<title>Node3&#45;&gt;Node6</title>
<path fill="none" stroke="midnightblue" d="M637.01,-315.46C649.61,-314.19 662.84,-312.87 675.7,-311.57"/>
<polygon fill="midnightblue" stroke="midnightblue" points="636.66,-311.98 627.06,-316.46 637.36,-318.94 636.66,-311.98"/>
</g>
<!-- Node4 -->
<g id="node4" class="node">
<title>Node4</title>
<g id="a_node4"><a xlink:href="classplayrho_1_1detail_1_1IndexingNamedType.html" target="_top" xlink:title=" ">
<polygon fill="white" stroke="black" points="283,-302 283,-343 435,-343 435,-302 283,-302"/>
<text text-anchor="start" x="291" y="-331" font-family="Helvetica,sans-Serif" font-size="10.00">playrho::detail::Indexing</text>
<text text-anchor="start" x="291" y="-320" font-family="Helvetica,sans-Serif" font-size="10.00">NamedType&lt; BodyCounter,</text>
<text text-anchor="middle" x="359" y="-309" font-family="Helvetica,sans-Serif" font-size="10.00"> struct BodyIdentifier &gt;</text>
</a>
</g>
</g>
<!-- Node4&#45;&gt;Node3 -->
<g id="edge3" class="edge">
<title>Node4&#45;&gt;Node3</title>
<path fill="none" stroke="#9a32cd" stroke-dasharray="5,2" d="M445.24,-322.5C465.28,-322.5 486.24,-322.5 504.91,-322.5"/>
<polygon fill="#9a32cd" stroke="#9a32cd" points="445.17,-319 435.17,-322.5 445.17,-326 445.17,-319"/>
<text text-anchor="middle" x="470" y="-336.5" font-family="Helvetica,sans-Serif" font-size="10.00"> bodyA</text>
<text text-anchor="middle" x="470" y="-325.5" font-family="Helvetica,sans-Serif" font-size="10.00">bodyB</text>
</g>
<!-- Node5 -->
<g id="node5" class="node">
<title>Node5</title>
<g id="a_node5"><a xlink:href="classplayrho_1_1detail_1_1IndexingNamedType.html" target="_top" xlink:title="An indexable, hashable, named &quot;strong type&quot; template class.">
<polygon fill="white" stroke="black" points="0,-307.5 0,-337.5 135,-337.5 135,-307.5 0,-307.5"/>
<text text-anchor="start" x="8" y="-325.5" font-family="Helvetica,sans-Serif" font-size="10.00">playrho::detail::Indexing</text>
<text text-anchor="middle" x="67.5" y="-314.5" font-family="Helvetica,sans-Serif" font-size="10.00">NamedType&lt; T, Tag &gt;</text>
</a>
</g>
</g>
<!-- Node5&#45;&gt;Node4 -->
<g id="edge4" class="edge">
<title>Node5&#45;&gt;Node4</title>
<path fill="none" stroke="orange" stroke-dasharray="5,2" d="M145.31,-322.5C187.88,-322.5 240.59,-322.5 282.89,-322.5"/>
<polygon fill="orange" stroke="orange" points="145.28,-319 135.28,-322.5 145.28,-326 145.28,-319"/>
<text text-anchor="start" x="153" y="-336.5" font-family="Helvetica,sans-Serif" font-size="10.00"> &lt; BodyCounter, struct</text>
<text text-anchor="middle" x="209" y="-325.5" font-family="Helvetica,sans-Serif" font-size="10.00"> BodyIdentifier &gt;</text>
</g>
<!-- Node6&#45;&gt;Node2 -->
<g id="edge5" class="edge">
<title>Node6&#45;&gt;Node2</title>
<path fill="none" stroke="orange" stroke-dasharray="5,2" d="M848.37,-306.91C899.85,-308.85 963.2,-311.24 1009.98,-313.01"/>
<polygon fill="orange" stroke="orange" points="848.37,-303.41 838.24,-306.53 848.11,-310.4 848.37,-303.41"/>
<text text-anchor="middle" x="918" y="-313.5" font-family="Helvetica,sans-Serif" font-size="10.00"> &lt; TargetJointConf &gt;</text>
</g>
<!-- Node7 -->
<g id="node7" class="node">
<title>Node7</title>
<g id="a_node7"><a xlink:href="structplayrho_1_1Vector.html" target="_top" xlink:title=" ">
<polygon fill="white" stroke="black" points="1004,-262 1004,-281 1150,-281 1150,-262 1004,-262"/>
<text text-anchor="middle" x="1077" y="-269" font-family="Helvetica,sans-Serif" font-size="10.00">playrho::Vector&lt; Length &gt;</text>
</a>
</g>
</g>
<!-- Node7&#45;&gt;Node1 -->
<g id="edge7" class="edge">
<title>Node7&#45;&gt;Node1</title>
<path fill="none" stroke="#9a32cd" stroke-dasharray="5,2" d="M1150.89,-259.96C1184.3,-253.3 1223.95,-243.42 1258,-229.5 1287.72,-217.35 1319.49,-197.15 1337.13,-185.2"/>
<polygon fill="#9a32cd" stroke="#9a32cd" points="1149.89,-256.59 1140.74,-261.92 1151.22,-263.46 1149.89,-256.59"/>
<text text-anchor="middle" x="1222" y="-275.5" font-family="Helvetica,sans-Serif" font-size="10.00"> localAnchorB</text>
<text text-anchor="middle" x="1222" y="-264.5" font-family="Helvetica,sans-Serif" font-size="10.00">rB</text>
<text text-anchor="middle" x="1222" y="-253.5" font-family="Helvetica,sans-Serif" font-size="10.00">target</text>
</g>
<!-- Node8 -->
<g id="node8" class="node">
<title>Node8</title>
<g id="a_node8"><a xlink:href="structplayrho_1_1Vector.html" target="_top" xlink:title="Vector.">
<polygon fill="white" stroke="black" points="691,-205 691,-224 823,-224 823,-205 691,-205"/>
<text text-anchor="middle" x="757" y="-212" font-family="Helvetica,sans-Serif" font-size="10.00">playrho::Vector&lt; T, N &gt;</text>
</a>
</g>
</g>
<!-- Node8&#45;&gt;Node7 -->
<g id="edge8" class="edge">
<title>Node8&#45;&gt;Node7</title>
<path fill="none" stroke="orange" stroke-dasharray="5,2" d="M802.7,-226.52C822.6,-231.6 846.37,-237.3 868,-241.5 912.95,-250.24 963.81,-257.62 1003.99,-262.87"/>
<polygon fill="orange" stroke="orange" points="803.54,-223.12 792.98,-224.01 801.79,-229.9 803.54,-223.12"/>
<text text-anchor="middle" x="918" y="-259.5" font-family="Helvetica,sans-Serif" font-size="10.00"> &lt; Length &gt;</text>
</g>
<!-- Node9 -->
<g id="node9" class="node">
<title>Node9</title>
<g id="a_node9"><a xlink:href="structplayrho_1_1Vector.html" target="_top" xlink:title=" ">
<polygon fill="white" stroke="black" points="1008,-224 1008,-243 1146,-243 1146,-224 1008,-224"/>
<text text-anchor="middle" x="1077" y="-231" font-family="Helvetica,sans-Serif" font-size="10.00">playrho::Vector&lt; Mass &gt;</text>
</a>
</g>
</g>
<!-- Node8&#45;&gt;Node9 -->
<g id="edge10" class="edge">
<title>Node8&#45;&gt;Node9</title>
<path fill="none" stroke="orange" stroke-dasharray="5,2" d="M833.14,-218.99C886.15,-222.16 956.59,-226.37 1007.95,-229.43"/>
<polygon fill="orange" stroke="orange" points="833.31,-215.49 823.12,-218.39 832.89,-222.48 833.31,-215.49"/>
<text text-anchor="middle" x="918" y="-229.5" font-family="Helvetica,sans-Serif" font-size="10.00"> &lt; Mass &gt;</text>
</g>
<!-- Node10 -->
<g id="node10" class="node">
<title>Node10</title>
<g id="a_node10"><a xlink:href="structplayrho_1_1Vector.html" target="_top" xlink:title=" ">
<polygon fill="white" stroke="black" points="986,-186 986,-205 1168,-205 1168,-186 986,-186"/>
<text text-anchor="middle" x="1077" y="-193" font-family="Helvetica,sans-Serif" font-size="10.00">playrho::Vector&lt; LinearVelocity &gt;</text>
</a>
</g>
</g>
<!-- Node8&#45;&gt;Node10 -->
<g id="edge12" class="edge">
<title>Node8&#45;&gt;Node10</title>
<path fill="none" stroke="orange" stroke-dasharray="5,2" d="M833.25,-208C844.88,-207.1 856.76,-206.23 868,-205.5 906.6,-202.99 949.27,-200.84 985.87,-199.17"/>
<polygon fill="orange" stroke="orange" points="832.81,-204.53 823.12,-208.81 833.36,-211.51 832.81,-204.53"/>
<text text-anchor="middle" x="918" y="-208.5" font-family="Helvetica,sans-Serif" font-size="10.00"> &lt; LinearVelocity &gt;</text>
</g>
<!-- Node13 -->
<g id="node13" class="node">
<title>Node13</title>
<g id="a_node13"><a xlink:href="structplayrho_1_1Vector.html" target="_top" xlink:title=" ">
<polygon fill="white" stroke="black" points="992.5,-148 992.5,-167 1161.5,-167 1161.5,-148 992.5,-148"/>
<text text-anchor="middle" x="1077" y="-155" font-family="Helvetica,sans-Serif" font-size="10.00">playrho::Vector&lt; Momentum &gt;</text>
</a>
</g>
</g>
<!-- Node8&#45;&gt;Node13 -->
<g id="edge16" class="edge">
<title>Node8&#45;&gt;Node13</title>
<path fill="none" stroke="orange" stroke-dasharray="5,2" d="M798.27,-202.09C818.95,-196.08 844.65,-189.18 868,-184.5 908.61,-176.37 954.2,-170.13 992.33,-165.71"/>
<polygon fill="orange" stroke="orange" points="797.15,-198.77 788.55,-204.96 799.13,-205.49 797.15,-198.77"/>
<text text-anchor="middle" x="918" y="-187.5" font-family="Helvetica,sans-Serif" font-size="10.00"> &lt; Momentum &gt;</text>
</g>
<!-- Node9&#45;&gt;Node1 -->
<g id="edge9" class="edge">
<title>Node9&#45;&gt;Node1</title>
<path fill="none" stroke="#9a32cd" stroke-dasharray="5,2" d="M1150.38,-222.27C1183.35,-216.74 1222.8,-209.53 1258,-201.5 1278.76,-196.76 1301.81,-190.33 1319.77,-185.05"/>
<polygon fill="#9a32cd" stroke="#9a32cd" points="1149.65,-218.85 1140.36,-223.94 1150.8,-225.75 1149.65,-218.85"/>
<text text-anchor="middle" x="1222" y="-217.5" font-family="Helvetica,sans-Serif" font-size="10.00"> mass</text>
</g>
<!-- Node10&#45;&gt;Node1 -->
<g id="edge11" class="edge">
<title>Node10&#45;&gt;Node1</title>
<path fill="none" stroke="#9a32cd" stroke-dasharray="5,2" d="M1178.51,-188.14C1210.76,-185.77 1245.89,-183.2 1275.99,-181"/>
<polygon fill="#9a32cd" stroke="#9a32cd" points="1177.86,-184.67 1168.15,-188.9 1178.38,-191.66 1177.86,-184.67"/>
<text text-anchor="middle" x="1222" y="-189.5" font-family="Helvetica,sans-Serif" font-size="10.00"> C</text>
</g>
<!-- Node11 -->
<g id="node11" class="node">
<title>Node11</title>
<g id="a_node11"><a xlink:href="classplayrho_1_1detail_1_1Checked.html" target="_top" xlink:title=" ">
<polygon fill="white" stroke="black" points="1010,-98.5 1010,-128.5 1144,-128.5 1144,-98.5 1010,-98.5"/>
<text text-anchor="start" x="1018" y="-116.5" font-family="Helvetica,sans-Serif" font-size="10.00">playrho::detail::Checked</text>
<text text-anchor="middle" x="1077" y="-105.5" font-family="Helvetica,sans-Serif" font-size="10.00">&lt; Frequency &gt;</text>
</a>
</g>
</g>
<!-- Node11&#45;&gt;Node1 -->
<g id="edge13" class="edge">
<title>Node11&#45;&gt;Node1</title>
<path fill="none" stroke="#9a32cd" stroke-dasharray="5,2" d="M1154.31,-122C1186.6,-126.46 1224.43,-132.84 1258,-141.5 1282.8,-147.9 1310.24,-158.37 1328.84,-166"/>
<polygon fill="#9a32cd" stroke="#9a32cd" points="1154.41,-118.48 1144.04,-120.62 1153.48,-125.42 1154.41,-118.48"/>
<text text-anchor="middle" x="1222" y="-144.5" font-family="Helvetica,sans-Serif" font-size="10.00"> frequency</text>
</g>
<!-- Node12 -->
<g id="node12" class="node">
<title>Node12</title>
<g id="a_node12"><a xlink:href="classplayrho_1_1detail_1_1Checked.html" target="_top" xlink:title="Class template for construction&#45;time constraining a type&#39;s value.">
<polygon fill="white" stroke="black" points="664,-49.5 664,-79.5 850,-79.5 850,-49.5 664,-49.5"/>
<text text-anchor="start" x="672" y="-67.5" font-family="Helvetica,sans-Serif" font-size="10.00">playrho::detail::Checked</text>
<text text-anchor="middle" x="757" y="-56.5" font-family="Helvetica,sans-Serif" font-size="10.00">&lt; ValueType, Checker, NoExcept &gt;</text>
</a>
</g>
</g>
<!-- Node12&#45;&gt;Node11 -->
<g id="edge14" class="edge">
<title>Node12&#45;&gt;Node11</title>
<path fill="none" stroke="orange" stroke-dasharray="5,2" d="M860.39,-80.28C909.33,-87.82 966.49,-96.63 1009.65,-103.28"/>
<polygon fill="orange" stroke="orange" points="860.82,-76.8 850.41,-78.74 859.76,-83.72 860.82,-76.8"/>
<text text-anchor="middle" x="918" y="-98.5" font-family="Helvetica,sans-Serif" font-size="10.00"> &lt; Frequency &gt;</text>
</g>
<!-- Node14 -->
<g id="node14" class="node">
<title>Node14</title>
<g id="a_node14"><a xlink:href="classplayrho_1_1detail_1_1Checked.html" target="_top" xlink:title=" ">
<polygon fill="white" stroke="black" points="1010,-49.5 1010,-79.5 1144,-79.5 1144,-49.5 1010,-49.5"/>
<text text-anchor="start" x="1018" y="-67.5" font-family="Helvetica,sans-Serif" font-size="10.00">playrho::detail::Checked</text>
<text text-anchor="middle" x="1077" y="-56.5" font-family="Helvetica,sans-Serif" font-size="10.00">&lt; Real &gt;</text>
</a>
</g>
</g>
<!-- Node12&#45;&gt;Node14 -->
<g id="edge18" class="edge">
<title>Node12&#45;&gt;Node14</title>
<path fill="none" stroke="orange" stroke-dasharray="5,2" d="M860.7,-64.5C909.57,-64.5 966.58,-64.5 1009.65,-64.5"/>
<polygon fill="orange" stroke="orange" points="860.41,-61 850.41,-64.5 860.41,-68 860.41,-61"/>
<text text-anchor="middle" x="918" y="-67.5" font-family="Helvetica,sans-Serif" font-size="10.00"> &lt; Real &gt;</text>
</g>
<!-- Node15 -->
<g id="node15" class="node">
<title>Node15</title>
<g id="a_node15"><a xlink:href="classplayrho_1_1detail_1_1Checked.html" target="_top" xlink:title=" ">
<polygon fill="white" stroke="black" points="1010,-0.5 1010,-30.5 1144,-30.5 1144,-0.5 1010,-0.5"/>
<text text-anchor="start" x="1018" y="-18.5" font-family="Helvetica,sans-Serif" font-size="10.00">playrho::detail::Checked</text>
<text text-anchor="middle" x="1077" y="-7.5" font-family="Helvetica,sans-Serif" font-size="10.00">&lt; Force &gt;</text>
</a>
</g>
</g>
<!-- Node12&#45;&gt;Node15 -->
<g id="edge20" class="edge">
<title>Node12&#45;&gt;Node15</title>
<path fill="none" stroke="orange" stroke-dasharray="5,2" d="M860.39,-48.72C909.33,-41.18 966.49,-32.37 1009.65,-25.72"/>
<polygon fill="orange" stroke="orange" points="859.76,-45.28 850.41,-50.26 860.82,-52.2 859.76,-45.28"/>
<text text-anchor="middle" x="918" y="-50.5" font-family="Helvetica,sans-Serif" font-size="10.00"> &lt; Force &gt;</text>
</g>
<!-- Node13&#45;&gt;Node1 -->
<g id="edge15" class="edge">
<title>Node13&#45;&gt;Node1</title>
<path fill="none" stroke="#9a32cd" stroke-dasharray="5,2" d="M1172.01,-156.53C1199.75,-156.92 1230.13,-158.03 1258,-160.5 1271.68,-161.71 1286.4,-163.74 1300,-165.93"/>
<polygon fill="#9a32cd" stroke="#9a32cd" points="1171.96,-153.03 1161.93,-156.41 1171.88,-160.03 1171.96,-153.03"/>
<text text-anchor="middle" x="1222" y="-163.5" font-family="Helvetica,sans-Serif" font-size="10.00"> impulse</text>
</g>
<!-- Node14&#45;&gt;Node1 -->
<g id="edge17" class="edge">
<title>Node14&#45;&gt;Node1</title>
<path fill="none" stroke="#9a32cd" stroke-dasharray="5,2" d="M1154.03,-78.2C1186.91,-85.68 1225.26,-96.52 1258,-111.5 1290.08,-126.18 1323.03,-151.86 1339.76,-165.81"/>
<polygon fill="#9a32cd" stroke="#9a32cd" points="1154.54,-74.73 1144.02,-75.99 1153.03,-81.57 1154.54,-74.73"/>
<text text-anchor="middle" x="1222" y="-114.5" font-family="Helvetica,sans-Serif" font-size="10.00"> dampingRatio</text>
</g>
<!-- Node15&#45;&gt;Node1 -->
<g id="edge19" class="edge">
<title>Node15&#45;&gt;Node1</title>
<path fill="none" stroke="#9a32cd" stroke-dasharray="5,2" d="M1153.92,-29.3C1187.79,-37.94 1226.97,-51.55 1258,-72.5 1297.33,-99.06 1331.2,-145.74 1344.73,-165.84"/>
<polygon fill="#9a32cd" stroke="#9a32cd" points="1154.6,-25.87 1144.06,-26.89 1152.94,-32.67 1154.6,-25.87"/>
<text text-anchor="middle" x="1222" y="-75.5" font-family="Helvetica,sans-Serif" font-size="10.00"> maxForce</text>
</g>
</g>
</svg>
        <g id="navigator" transform="translate(0 0)" fill="#404254">
                <rect fill="#f2f5e9" fill-opacity="0.5" stroke="#606060" stroke-width=".5" x="0" y="0" width="60" height="60"/>
                <use id="zoomplus" xlink:href="#zoomPlus" x="17" y="9" onmousedown="handleZoom(evt,'in')"/>
                <use id="zoomminus" xlink:href="#zoomMin" x="42" y="9" onmousedown="handleZoom(evt,'out')"/>
                <use id="reset" xlink:href="#resetDef" x="30" y="36" onmousedown="handleReset()"/>
                <g id="arrowUp" xlink:href="#dirArrow" transform="translate(30 24)" onmousedown="handlePan(0,-1)">
                  <use xlink:href="#rim" fill="#404040">
                        <set attributeName="fill" to="#808080" begin="arrowUp.mouseover" end="arrowUp.mouseout"/>
                  </use>
                  <path fill="none" stroke="white" stroke-width="1.5" d="M0,-3.0v7 M-2.5,-0.5L0,-3.0L2.5,-0.5"/>
                </g>
                <g id="arrowRight" xlink:href="#dirArrow" transform="rotate(90) translate(36 -43)" onmousedown="handlePan(1,0)">
                  <use xlink:href="#rim" fill="#404040">
                        <set attributeName="fill" to="#808080" begin="arrowRight.mouseover" end="arrowRight.mouseout"/>
                  </use>
                  <path fill="none" stroke="white" stroke-width="1.5" d="M0,-3.0v7 M-2.5,-0.5L0,-3.0L2.5,-0.5"/>
                </g>
                <g id="arrowDown" xlink:href="#dirArrow" transform="rotate(180) translate(-30 -48)" onmousedown="handlePan(0,1)">
                  <use xlink:href="#rim" fill="#404040">
                        <set attributeName="fill" to="#808080" begin="arrowDown.mouseover" end="arrowDown.mouseout"/>
                  </use>
                  <path fill="none" stroke="white" stroke-width="1.5" d="M0,-3.0v7 M-2.5,-0.5L0,-3.0L2.5,-0.5"/>
                </g>
                <g id="arrowLeft" xlink:href="#dirArrow" transform="rotate(270) translate(-36 17)" onmousedown="handlePan(-1,0)">
                  <use xlink:href="#rim" fill="#404040">
                        <set attributeName="fill" to="#808080" begin="arrowLeft.mouseover" end="arrowLeft.mouseout"/>
                  </use>
                  <path fill="none" stroke="white" stroke-width="1.5" d="M0,-3.0v7 M-2.5,-0.5L0,-3.0L2.5,-0.5"/>
                </g>
        </g>
        <svg viewBox="0 0 15 15" width="100%" height="30px" preserveAspectRatio="xMaxYMin meet">
         <g id="arrow_out" transform="scale(0.3 0.3)">
          <a xlink:href="structplayrho_1_1d2_1_1TargetJointConf__coll__graph_org.svg" target="_base">
           <rect id="button" ry="5" rx="5" y="6" x="6" height="38" width="38"
                fill="#f2f5e9" fill-opacity="0.5" stroke="#606060" stroke-width="1.0"/>
           <path id="arrow"
             d="M 11.500037,31.436501 C 11.940474,20.09759 22.043105,11.32322 32.158766,21.979434 L 37.068811,17.246167 C 37.068811,17.246167 37.088388,32 37.088388,32 L 22.160133,31.978069 C 22.160133,31.978069 26.997745,27.140456 26.997745,27.140456 C 18.528582,18.264221 13.291696,25.230495 11.500037,31.436501 z"
             style="fill:#404040;"/>
          </a>
         </g>
        </svg>
</svg>
