<?xml version="1.0" encoding="UTF-8" standalone="no"?>
<!DOCTYPE svg PUBLIC "-//W3C//DTD SVG 1.1//EN"
 "http://www.w3.org/Graphics/SVG/1.1/DTD/svg11.dtd">
<!-- Generated by graphviz version 2.43.0 (0)
 -->
<!-- Title: playrho::d2::Sweep Pages: 1 -->
<svg width="398pt" height="262pt"
 viewBox="0.00 0.00 398.00 262.00" xmlns="http://www.w3.org/2000/svg" xmlns:xlink="http://www.w3.org/1999/xlink">
<g id="graph0" class="graph" transform="scale(1 1) rotate(0) translate(4 258)">
<title>playrho::d2::Sweep</title>
<polygon fill="white" stroke="transparent" points="-4,4 -4,-258 394,-258 394,4 -4,4"/>
<!-- Node1 -->
<g id="node1" class="node">
<title>Node1</title>
<g id="a_node1"><a xlink:title="Description of a &quot;sweep&quot; of motion in 2&#45;D space.">
<polygon fill="#bfbfbf" stroke="black" points="99,-0.5 99,-19.5 209,-19.5 209,-0.5 99,-0.5"/>
<text text-anchor="middle" x="154" y="-7.5" font-family="Helvetica,sans-Serif" font-size="10.00">playrho::d2::Sweep</text>
</a>
</g>
</g>
<!-- Node2 -->
<g id="node2" class="node">
<title>Node2</title>
<g id="a_node2"><a xlink:href="structplayrho_1_1Vector.html" target="_top" xlink:title=" ">
<polygon fill="white" stroke="black" points="0,-162 0,-181 146,-181 146,-162 0,-162"/>
<text text-anchor="middle" x="73" y="-169" font-family="Helvetica,sans-Serif" font-size="10.00">playrho::Vector&lt; Length &gt;</text>
</a>
</g>
</g>
<!-- Node2&#45;&gt;Node1 -->
<g id="edge1" class="edge">
<title>Node2&#45;&gt;Node1</title>
<path fill="none" stroke="#9a32cd" stroke-dasharray="5,2" d="M55.51,-154.63C37.01,-135.85 12.47,-103.85 28,-78 47.14,-46.14 87.11,-28.62 116.93,-19.56"/>
<polygon fill="#9a32cd" stroke="#9a32cd" points="53.32,-157.38 62.94,-161.82 58.19,-152.35 53.32,-157.38"/>
<text text-anchor="middle" x="57.5" y="-91" font-family="Helvetica,sans-Serif" font-size="10.00"> localCenter</text>
</g>
<!-- Node4 -->
<g id="node4" class="node">
<title>Node4</title>
<g id="a_node4"><a xlink:href="structplayrho_1_1d2_1_1Position.html" target="_top" xlink:title="2&#45;D positional data structure.">
<polygon fill="white" stroke="black" points="96,-84 96,-103 212,-103 212,-84 96,-84"/>
<text text-anchor="middle" x="154" y="-91" font-family="Helvetica,sans-Serif" font-size="10.00">playrho::d2::Position</text>
</a>
</g>
</g>
<!-- Node2&#45;&gt;Node4 -->
<g id="edge4" class="edge">
<title>Node2&#45;&gt;Node4</title>
<path fill="none" stroke="#9a32cd" stroke-dasharray="5,2" d="M89.73,-154.8C106.42,-139.14 131.45,-115.66 144.82,-103.12"/>
<polygon fill="#9a32cd" stroke="#9a32cd" points="87.19,-152.39 82.29,-161.78 91.98,-157.49 87.19,-152.39"/>
<text text-anchor="middle" x="134.5" y="-130" font-family="Helvetica,sans-Serif" font-size="10.00"> linear</text>
</g>
<!-- Node3 -->
<g id="node3" class="node">
<title>Node3</title>
<g id="a_node3"><a xlink:href="structplayrho_1_1Vector.html" target="_top" xlink:title="Vector.">
<polygon fill="white" stroke="black" points="7,-234.5 7,-253.5 139,-253.5 139,-234.5 7,-234.5"/>
<text text-anchor="middle" x="73" y="-241.5" font-family="Helvetica,sans-Serif" font-size="10.00">playrho::Vector&lt; T, N &gt;</text>
</a>
</g>
</g>
<!-- Node3&#45;&gt;Node2 -->
<g id="edge2" class="edge">
<title>Node3&#45;&gt;Node2</title>
<path fill="none" stroke="orange" stroke-dasharray="5,2" d="M73,-223.94C73,-210.03 73,-191.82 73,-181.22"/>
<polygon fill="orange" stroke="orange" points="69.5,-224.36 73,-234.36 76.5,-224.36 69.5,-224.36"/>
<text text-anchor="middle" x="102.5" y="-208" font-family="Helvetica,sans-Serif" font-size="10.00"> &lt; Length &gt;</text>
</g>
<!-- Node4&#45;&gt;Node1 -->
<g id="edge3" class="edge">
<title>Node4&#45;&gt;Node1</title>
<path fill="none" stroke="#9a32cd" stroke-dasharray="5,2" d="M154,-73.38C154,-56.4 154,-32.37 154,-19.66"/>
<polygon fill="#9a32cd" stroke="#9a32cd" points="150.5,-73.78 154,-83.78 157.5,-73.78 150.5,-73.78"/>
<text text-anchor="middle" x="167.5" y="-52" font-family="Helvetica,sans-Serif" font-size="10.00"> pos0</text>
<text text-anchor="middle" x="167.5" y="-41" font-family="Helvetica,sans-Serif" font-size="10.00">pos1</text>
</g>
<!-- Node5 -->
<g id="node5" class="node">
<title>Node5</title>
<g id="a_node5"><a xlink:href="classplayrho_1_1detail_1_1Checked.html" target="_top" xlink:title=" ">
<polygon fill="white" stroke="black" points="230,-78.5 230,-108.5 364,-108.5 364,-78.5 230,-78.5"/>
<text text-anchor="start" x="238" y="-96.5" font-family="Helvetica,sans-Serif" font-size="10.00">playrho::detail::Checked</text>
<text text-anchor="middle" x="297" y="-85.5" font-family="Helvetica,sans-Serif" font-size="10.00">&lt; Real &gt;</text>
</a>
</g>
</g>
<!-- Node5&#45;&gt;Node1 -->
<g id="edge5" class="edge">
<title>Node5&#45;&gt;Node1</title>
<path fill="none" stroke="#9a32cd" stroke-dasharray="5,2" d="M263.59,-73.46C233.73,-56.44 191.35,-32.29 169.06,-19.58"/>
<polygon fill="#9a32cd" stroke="#9a32cd" points="262,-76.58 272.42,-78.49 265.46,-70.5 262,-76.58"/>
<text text-anchor="middle" x="256.5" y="-46.5" font-family="Helvetica,sans-Serif" font-size="10.00"> alpha0</text>
</g>
<!-- Node6 -->
<g id="node6" class="node">
<title>Node6</title>
<g id="a_node6"><a xlink:href="classplayrho_1_1detail_1_1Checked.html" target="_top" xlink:title="Class template for construction&#45;time constraining a type&#39;s value.">
<polygon fill="white" stroke="black" points="204,-156.5 204,-186.5 390,-186.5 390,-156.5 204,-156.5"/>
<text text-anchor="start" x="212" y="-174.5" font-family="Helvetica,sans-Serif" font-size="10.00">playrho::detail::Checked</text>
<text text-anchor="middle" x="297" y="-163.5" font-family="Helvetica,sans-Serif" font-size="10.00">&lt; ValueType, Checker, NoExcept &gt;</text>
</a>
</g>
</g>
<!-- Node6&#45;&gt;Node5 -->
<g id="edge6" class="edge">
<title>Node6&#45;&gt;Node5</title>
<path fill="none" stroke="orange" stroke-dasharray="5,2" d="M297,-146.09C297,-133.76 297,-119.22 297,-108.73"/>
<polygon fill="orange" stroke="orange" points="293.5,-146.2 297,-156.2 300.5,-146.21 293.5,-146.2"/>
<text text-anchor="middle" x="321" y="-130" font-family="Helvetica,sans-Serif" font-size="10.00"> &lt; Real &gt;</text>
</g>
</g>
</svg>
