<?xml version="1.0" encoding="UTF-8" standalone="no"?>
<!DOCTYPE svg PUBLIC "-//W3C//DTD SVG 1.1//EN"
 "http://www.w3.org/Graphics/SVG/1.1/DTD/svg11.dtd">
<!-- Generated by graphviz version 2.43.0 (0)
 -->
<!-- Title: playrho::d2::DistanceJointConf Pages: 1 -->
<svg width="264pt" height="220pt"
 viewBox="0.00 0.00 264.00 220.00" xmlns="http://www.w3.org/2000/svg" xmlns:xlink="http://www.w3.org/1999/xlink">
<g id="graph0" class="graph" transform="scale(1 1) rotate(0) translate(4 216)">
<title>playrho::d2::DistanceJointConf</title>
<polygon fill="white" stroke="transparent" points="-4,4 -4,-216 260,-216 260,4 -4,4"/>
<!-- Node1 -->
<g id="node1" class="node">
<title>Node1</title>
<g id="a_node1"><a xlink:title="Distance joint definition.">
<polygon fill="#bfbfbf" stroke="black" points="0,-0.5 0,-19.5 164,-19.5 164,-0.5 0,-0.5"/>
<text text-anchor="middle" x="82" y="-7.5" font-family="Helvetica,sans-Serif" font-size="10.00">playrho::d2::DistanceJointConf</text>
</a>
</g>
</g>
<!-- Node2 -->
<g id="node2" class="node">
<title>Node2</title>
<g id="a_node2"><a xlink:href="structplayrho_1_1d2_1_1JointBuilder.html" target="_top" xlink:title=" ">
<polygon fill="white" stroke="black" points="15,-57.5 15,-87.5 149,-87.5 149,-57.5 15,-57.5"/>
<text text-anchor="start" x="23" y="-75.5" font-family="Helvetica,sans-Serif" font-size="10.00">playrho::d2::JointBuilder</text>
<text text-anchor="middle" x="82" y="-64.5" font-family="Helvetica,sans-Serif" font-size="10.00">&lt; DistanceJointConf &gt;</text>
</a>
</g>
</g>
<!-- Node2&#45;&gt;Node1 -->
<g id="edge1" class="edge">
<title>Node2&#45;&gt;Node1</title>
<path fill="none" stroke="midnightblue" d="M82,-47.35C82,-37.51 82,-26.78 82,-19.54"/>
<polygon fill="midnightblue" stroke="midnightblue" points="78.5,-47.47 82,-57.47 85.5,-47.47 78.5,-47.47"/>
</g>
<!-- Node3 -->
<g id="node3" class="node">
<title>Node3</title>
<g id="a_node3"><a xlink:href="structplayrho_1_1d2_1_1JointConf.html" target="_top" xlink:title="Base joint definition class.">
<polygon fill="white" stroke="black" points="17,-192.5 17,-211.5 139,-211.5 139,-192.5 17,-192.5"/>
<text text-anchor="middle" x="78" y="-199.5" font-family="Helvetica,sans-Serif" font-size="10.00">playrho::d2::JointConf</text>
</a>
</g>
</g>
<!-- Node3&#45;&gt;Node2 -->
<g id="edge2" class="edge">
<title>Node3&#45;&gt;Node2</title>
<path fill="none" stroke="midnightblue" d="M78.6,-181.9C79.41,-156.05 80.84,-110.54 81.56,-87.59"/>
<polygon fill="midnightblue" stroke="midnightblue" points="75.09,-182.13 78.27,-192.24 82.09,-182.35 75.09,-182.13"/>
</g>
<!-- Node4 -->
<g id="node4" class="node">
<title>Node4</title>
<g id="a_node4"><a xlink:href="structplayrho_1_1d2_1_1JointBuilder.html" target="_top" xlink:title="Joint builder definition structure.">
<polygon fill="white" stroke="black" points="94,-135.5 94,-154.5 256,-154.5 256,-135.5 94,-135.5"/>
<text text-anchor="middle" x="175" y="-142.5" font-family="Helvetica,sans-Serif" font-size="10.00">playrho::d2::JointBuilder&lt; T &gt;</text>
</a>
</g>
</g>
<!-- Node3&#45;&gt;Node4 -->
<g id="edge4" class="edge">
<title>Node3&#45;&gt;Node4</title>
<path fill="none" stroke="midnightblue" d="M102,-187.39C120.13,-177.11 144.47,-163.31 159.95,-154.53"/>
<polygon fill="midnightblue" stroke="midnightblue" points="100.13,-184.43 93.16,-192.41 103.58,-190.52 100.13,-184.43"/>
</g>
<!-- Node4&#45;&gt;Node2 -->
<g id="edge3" class="edge">
<title>Node4&#45;&gt;Node2</title>
<path fill="none" stroke="orange" stroke-dasharray="5,2" d="M155.38,-129.13C139.21,-116.87 116.44,-99.61 100.57,-87.58"/>
<polygon fill="orange" stroke="orange" points="153.51,-132.1 163.6,-135.36 157.74,-126.53 153.51,-132.1"/>
<text text-anchor="middle" x="192.5" y="-109" font-family="Helvetica,sans-Serif" font-size="10.00"> &lt; DistanceJointConf &gt;</text>
</g>
</g>
</svg>
