<?xml version="1.0" encoding="UTF-8" standalone="no"?>
<!DOCTYPE svg PUBLIC "-//W3C//DTD SVG 1.1//EN"
 "http://www.w3.org/Graphics/SVG/1.1/DTD/svg11.dtd">
<!-- Generated by graphviz version 2.43.0 (0)
 -->
<!-- Title: playrho::d2::WeldJointConf Pages: 1 -->
<svg width="255pt" height="220pt"
 viewBox="0.00 0.00 255.00 220.00" xmlns="http://www.w3.org/2000/svg" xmlns:xlink="http://www.w3.org/1999/xlink">
<g id="graph0" class="graph" transform="scale(1 1) rotate(0) translate(4 216)">
<title>playrho::d2::WeldJointConf</title>
<polygon fill="white" stroke="transparent" points="-4,4 -4,-216 251,-216 251,4 -4,4"/>
<!-- Node1 -->
<g id="node1" class="node">
<title>Node1</title>
<g id="a_node1"><a xlink:title="Weld joint definition.">
<polygon fill="#bfbfbf" stroke="black" points="0,-0.5 0,-19.5 146,-19.5 146,-0.5 0,-0.5"/>
<text text-anchor="middle" x="73" y="-7.5" font-family="Helvetica,sans-Serif" font-size="10.00">playrho::d2::WeldJointConf</text>
</a>
</g>
</g>
<!-- Node2 -->
<g id="node2" class="node">
<title>Node2</title>
<g id="a_node2"><a xlink:href="structplayrho_1_1d2_1_1JointBuilder.html" target="_top" xlink:title=" ">
<polygon fill="white" stroke="black" points="6,-57.5 6,-87.5 140,-87.5 140,-57.5 6,-57.5"/>
<text text-anchor="start" x="14" y="-75.5" font-family="Helvetica,sans-Serif" font-size="10.00">playrho::d2::JointBuilder</text>
<text text-anchor="middle" x="73" y="-64.5" font-family="Helvetica,sans-Serif" font-size="10.00">&lt; WeldJointConf &gt;</text>
</a>
</g>
</g>
<!-- Node2&#45;&gt;Node1 -->
<g id="edge1" class="edge">
<title>Node2&#45;&gt;Node1</title>
<path fill="none" stroke="midnightblue" d="M73,-47.35C73,-37.51 73,-26.78 73,-19.54"/>
<polygon fill="midnightblue" stroke="midnightblue" points="69.5,-47.47 73,-57.47 76.5,-47.47 69.5,-47.47"/>
</g>
<!-- Node3 -->
<g id="node3" class="node">
<title>Node3</title>
<g id="a_node3"><a xlink:href="structplayrho_1_1d2_1_1JointConf.html" target="_top" xlink:title="Base joint definition class.">
<polygon fill="white" stroke="black" points="8,-192.5 8,-211.5 130,-211.5 130,-192.5 8,-192.5"/>
<text text-anchor="middle" x="69" y="-199.5" font-family="Helvetica,sans-Serif" font-size="10.00">playrho::d2::JointConf</text>
</a>
</g>
</g>
<!-- Node3&#45;&gt;Node2 -->
<g id="edge2" class="edge">
<title>Node3&#45;&gt;Node2</title>
<path fill="none" stroke="midnightblue" d="M69.6,-181.9C70.41,-156.05 71.84,-110.54 72.56,-87.59"/>
<polygon fill="midnightblue" stroke="midnightblue" points="66.09,-182.13 69.27,-192.24 73.09,-182.35 66.09,-182.13"/>
</g>
<!-- Node4 -->
<g id="node4" class="node">
<title>Node4</title>
<g id="a_node4"><a xlink:href="structplayrho_1_1d2_1_1JointBuilder.html" target="_top" xlink:title="Joint builder definition structure.">
<polygon fill="white" stroke="black" points="85,-135.5 85,-154.5 247,-154.5 247,-135.5 85,-135.5"/>
<text text-anchor="middle" x="166" y="-142.5" font-family="Helvetica,sans-Serif" font-size="10.00">playrho::d2::JointBuilder&lt; T &gt;</text>
</a>
</g>
</g>
<!-- Node3&#45;&gt;Node4 -->
<g id="edge4" class="edge">
<title>Node3&#45;&gt;Node4</title>
<path fill="none" stroke="midnightblue" d="M93,-187.39C111.13,-177.11 135.47,-163.31 150.95,-154.53"/>
<polygon fill="midnightblue" stroke="midnightblue" points="91.13,-184.43 84.16,-192.41 94.58,-190.52 91.13,-184.43"/>
</g>
<!-- Node4&#45;&gt;Node2 -->
<g id="edge3" class="edge">
<title>Node4&#45;&gt;Node2</title>
<path fill="none" stroke="orange" stroke-dasharray="5,2" d="M146.38,-129.13C130.21,-116.87 107.44,-99.61 91.57,-87.58"/>
<polygon fill="orange" stroke="orange" points="144.51,-132.1 154.6,-135.36 148.74,-126.53 144.51,-132.1"/>
<text text-anchor="middle" x="174" y="-109" font-family="Helvetica,sans-Serif" font-size="10.00"> &lt; WeldJointConf &gt;</text>
</g>
</g>
</svg>
