<?xml version="1.0" encoding="UTF-8" standalone="no"?>
<!DOCTYPE svg PUBLIC "-//W3C//DTD SVG 1.1//EN"
 "http://www.w3.org/Graphics/SVG/1.1/DTD/svg11.dtd">
<!-- Generated by graphviz version 2.43.0 (0)
 -->
<!-- Title: playrho::d2::detail::HasSetFriction&lt; T, std::void_t&lt; decltype(SetFriction(std::declval&lt; T &amp; &gt;(), std::declval&lt; Real &gt;()))&gt; &gt; Pages: 1 -->
<svg width="142pt" height="139pt"
 viewBox="0.00 0.00 142.00 139.00" xmlns="http://www.w3.org/2000/svg" xmlns:xlink="http://www.w3.org/1999/xlink">
<g id="graph0" class="graph" transform="scale(1 1) rotate(0) translate(4 135)">
<title>playrho::d2::detail::HasSetFriction&lt; T, std::void_t&lt; decltype(SetFriction(std::declval&lt; T &amp; &gt;(), std::declval&lt; Real &gt;()))&gt; &gt;</title>
<polygon fill="white" stroke="transparent" points="-4,4 -4,-135 138,-135 138,4 -4,4"/>
<!-- Node1 -->
<g id="node1" class="node">
<title>Node1</title>
<g id="a_node1"><a xlink:title=" ">
<polygon fill="#bfbfbf" stroke="black" points="0,-0.5 0,-74.5 134,-74.5 134,-0.5 0,-0.5"/>
<text text-anchor="start" x="8" y="-62.5" font-family="Helvetica,sans-Serif" font-size="10.00">playrho::d2::detail</text>
<text text-anchor="start" x="8" y="-51.5" font-family="Helvetica,sans-Serif" font-size="10.00">::HasSetFriction&lt; T,</text>
<text text-anchor="start" x="8" y="-40.5" font-family="Helvetica,sans-Serif" font-size="10.00"> std::void_t&lt; decltype</text>
<text text-anchor="start" x="8" y="-29.5" font-family="Helvetica,sans-Serif" font-size="10.00">(SetFriction(std::declval</text>
<text text-anchor="start" x="8" y="-18.5" font-family="Helvetica,sans-Serif" font-size="10.00">&lt; T &amp; &gt;(), std::declval&lt;</text>
<text text-anchor="middle" x="67" y="-7.5" font-family="Helvetica,sans-Serif" font-size="10.00"> Real &gt;()))&gt; &gt;</text>
</a>
</g>
</g>
<!-- Node2 -->
<g id="node2" class="node">
<title>Node2</title>
<g id="a_node2"><a xlink:title=" ">
<polygon fill="white" stroke="#bfbfbf" points="25,-111.5 25,-130.5 109,-130.5 109,-111.5 25,-111.5"/>
<text text-anchor="middle" x="67" y="-118.5" font-family="Helvetica,sans-Serif" font-size="10.00">std::true_type</text>
</a>
</g>
</g>
<!-- Node2&#45;&gt;Node1 -->
<g id="edge1" class="edge">
<title>Node2&#45;&gt;Node1</title>
<path fill="none" stroke="midnightblue" d="M67,-101.11C67,-93.27 67,-83.9 67,-74.83"/>
<polygon fill="midnightblue" stroke="midnightblue" points="63.5,-101.28 67,-111.28 70.5,-101.28 63.5,-101.28"/>
</g>
</g>
</svg>
