<?xml version="1.0" encoding="UTF-8" standalone="no"?>
<!DOCTYPE svg PUBLIC "-//W3C//DTD SVG 1.1//EN"
 "http://www.w3.org/Graphics/SVG/1.1/DTD/svg11.dtd">
<!-- Generated by graphviz version 2.43.0 (0)
 -->
<!-- Title: playrho::detail::MassData&lt; N &gt; Pages: 1 -->
<svg width="705pt" height="127pt"
 viewBox="0.00 0.00 705.00 126.50" xmlns="http://www.w3.org/2000/svg" xmlns:xlink="http://www.w3.org/1999/xlink">
<g id="graph0" class="graph" transform="scale(1 1) rotate(0) translate(4 122.5)">
<title>playrho::detail::MassData&lt; N &gt;</title>
<polygon fill="white" stroke="transparent" points="-4,4 -4,-122.5 701,-122.5 701,4 -4,4"/>
<!-- Node1 -->
<g id="node1" class="node">
<title>Node1</title>
<g id="a_node1"><a xlink:title="Mass data.">
<polygon fill="#bfbfbf" stroke="black" points="525,-44.5 525,-63.5 697,-63.5 697,-44.5 525,-44.5"/>
<text text-anchor="middle" x="611" y="-51.5" font-family="Helvetica,sans-Serif" font-size="10.00">playrho::detail::MassData&lt; N &gt;</text>
</a>
</g>
</g>
<!-- Node2 -->
<g id="node2" class="node">
<title>Node2</title>
<g id="a_node2"><a xlink:href="classplayrho_1_1detail_1_1Checked.html" target="_top" xlink:title=" ">
<polygon fill="white" stroke="black" points="308.5,-88 308.5,-118 442.5,-118 442.5,-88 308.5,-88"/>
<text text-anchor="start" x="316.5" y="-106" font-family="Helvetica,sans-Serif" font-size="10.00">playrho::detail::Checked</text>
<text text-anchor="middle" x="375.5" y="-95" font-family="Helvetica,sans-Serif" font-size="10.00">&lt; Mass &gt;</text>
</a>
</g>
</g>
<!-- Node2&#45;&gt;Node1 -->
<g id="edge1" class="edge">
<title>Node2&#45;&gt;Node1</title>
<path fill="none" stroke="#9a32cd" stroke-dasharray="5,2" d="M453.02,-86.94C489.95,-79.19 532.98,-70.16 564.65,-63.52"/>
<polygon fill="#9a32cd" stroke="#9a32cd" points="451.86,-83.61 442.79,-89.09 453.29,-90.46 451.86,-83.61"/>
<text text-anchor="middle" x="490" y="-84" font-family="Helvetica,sans-Serif" font-size="10.00"> mass</text>
</g>
<!-- Node3 -->
<g id="node3" class="node">
<title>Node3</title>
<g id="a_node3"><a xlink:href="classplayrho_1_1detail_1_1Checked.html" target="_top" xlink:title="Checked value.">
<polygon fill="white" stroke="black" points="0,-60 0,-90 186,-90 186,-60 0,-60"/>
<text text-anchor="start" x="8" y="-78" font-family="Helvetica,sans-Serif" font-size="10.00">playrho::detail::Checked</text>
<text text-anchor="middle" x="93" y="-67" font-family="Helvetica,sans-Serif" font-size="10.00">&lt; ValueType, Checker, NoExcept &gt;</text>
</a>
</g>
</g>
<!-- Node3&#45;&gt;Node2 -->
<g id="edge2" class="edge">
<title>Node3&#45;&gt;Node2</title>
<path fill="none" stroke="orange" stroke-dasharray="5,2" d="M196.65,-85.25C233.96,-88.97 275.11,-93.08 308.42,-96.4"/>
<polygon fill="orange" stroke="orange" points="196.53,-81.72 186.23,-84.21 195.84,-88.68 196.53,-81.72"/>
<text text-anchor="middle" x="241" y="-96" font-family="Helvetica,sans-Serif" font-size="10.00"> &lt; Mass &gt;</text>
</g>
<!-- Node6 -->
<g id="node6" class="node">
<title>Node6</title>
<g id="a_node6"><a xlink:href="classplayrho_1_1detail_1_1Checked.html" target="_top" xlink:title=" ">
<polygon fill="white" stroke="black" points="308.5,-39 308.5,-69 442.5,-69 442.5,-39 308.5,-39"/>
<text text-anchor="start" x="316.5" y="-57" font-family="Helvetica,sans-Serif" font-size="10.00">playrho::detail::Checked</text>
<text text-anchor="middle" x="375.5" y="-46" font-family="Helvetica,sans-Serif" font-size="10.00">&lt; RotInertia &gt;</text>
</a>
</g>
</g>
<!-- Node3&#45;&gt;Node6 -->
<g id="edge6" class="edge">
<title>Node3&#45;&gt;Node6</title>
<path fill="none" stroke="orange" stroke-dasharray="5,2" d="M196.26,-66.59C198.87,-66.39 201.45,-66.19 204,-66 238.47,-63.38 276.88,-60.66 308.5,-58.47"/>
<polygon fill="orange" stroke="orange" points="195.82,-63.12 186.12,-67.39 196.37,-70.1 195.82,-63.12"/>
<text text-anchor="middle" x="241" y="-69" font-family="Helvetica,sans-Serif" font-size="10.00"> &lt; RotInertia &gt;</text>
</g>
<!-- Node4 -->
<g id="node4" class="node">
<title>Node4</title>
<g id="a_node4"><a xlink:href="structplayrho_1_1Vector.html" target="_top" xlink:title=" ">
<polygon fill="white" stroke="black" points="296,-0.5 296,-19.5 455,-19.5 455,-0.5 296,-0.5"/>
<text text-anchor="middle" x="375.5" y="-7.5" font-family="Helvetica,sans-Serif" font-size="10.00">playrho::Vector&lt; Length, N &gt;</text>
</a>
</g>
</g>
<!-- Node4&#45;&gt;Node1 -->
<g id="edge3" class="edge">
<title>Node4&#45;&gt;Node1</title>
<path fill="none" stroke="#9a32cd" stroke-dasharray="5,2" d="M437.09,-21.42C475.08,-28.58 523.5,-37.7 559.43,-44.47"/>
<polygon fill="#9a32cd" stroke="#9a32cd" points="437.64,-17.96 427.17,-19.55 436.34,-24.84 437.64,-17.96"/>
<text text-anchor="middle" x="490" y="-37" font-family="Helvetica,sans-Serif" font-size="10.00"> center</text>
</g>
<!-- Node5 -->
<g id="node5" class="node">
<title>Node5</title>
<g id="a_node5"><a xlink:href="structplayrho_1_1Vector.html" target="_top" xlink:title="Vector.">
<polygon fill="white" stroke="black" points="27,-0.5 27,-19.5 159,-19.5 159,-0.5 27,-0.5"/>
<text text-anchor="middle" x="93" y="-7.5" font-family="Helvetica,sans-Serif" font-size="10.00">playrho::Vector&lt; T, N &gt;</text>
</a>
</g>
</g>
<!-- Node5&#45;&gt;Node4 -->
<g id="edge4" class="edge">
<title>Node5&#45;&gt;Node4</title>
<path fill="none" stroke="orange" stroke-dasharray="5,2" d="M169.33,-10C208.44,-10 256.21,-10 295.81,-10"/>
<polygon fill="orange" stroke="orange" points="169.06,-6.5 159.06,-10 169.06,-13.5 169.06,-6.5"/>
<text text-anchor="middle" x="241" y="-13" font-family="Helvetica,sans-Serif" font-size="10.00"> &lt; Length, N &gt;</text>
</g>
<!-- Node6&#45;&gt;Node1 -->
<g id="edge5" class="edge">
<title>Node6&#45;&gt;Node1</title>
<path fill="none" stroke="#9a32cd" stroke-dasharray="5,2" d="M452.83,-54C475.82,-54 501.21,-54 524.75,-54"/>
<polygon fill="#9a32cd" stroke="#9a32cd" points="452.79,-50.5 442.79,-54 452.79,-57.5 452.79,-50.5"/>
<text text-anchor="middle" x="490" y="-57" font-family="Helvetica,sans-Serif" font-size="10.00"> I</text>
</g>
</g>
</svg>
