<?xml version="1.0" encoding="UTF-8" standalone="no"?>
<!DOCTYPE svg PUBLIC "-//W3C//DTD SVG 1.1//EN"
 "http://www.w3.org/Graphics/SVG/1.1/DTD/svg11.dtd">
<!-- Generated by graphviz version 2.43.0 (0)
 -->
<!-- Title: playrho::detail::is_narrowing_conversion&lt; From, To &gt; Pages: 1 -->
<svg width="171pt" height="184pt"
 viewBox="0.00 0.00 171.00 184.00" xmlns="http://www.w3.org/2000/svg" xmlns:xlink="http://www.w3.org/1999/xlink">
<g id="graph0" class="graph" transform="scale(1 1) rotate(0) translate(4 180)">
<title>playrho::detail::is_narrowing_conversion&lt; From, To &gt;</title>
<polygon fill="white" stroke="transparent" points="-4,4 -4,-180 167,-180 167,4 -4,4"/>
<!-- Node1 -->
<g id="node1" class="node">
<title>Node1</title>
<g id="a_node1"><a xlink:title="Is narrowing conversion trait.">
<polygon fill="#bfbfbf" stroke="black" points="17,-0.5 17,-41.5 146,-41.5 146,-0.5 17,-0.5"/>
<text text-anchor="start" x="25" y="-29.5" font-family="Helvetica,sans-Serif" font-size="10.00">playrho::detail::is</text>
<text text-anchor="start" x="25" y="-18.5" font-family="Helvetica,sans-Serif" font-size="10.00">_narrowing_conversion</text>
<text text-anchor="middle" x="81.5" y="-7.5" font-family="Helvetica,sans-Serif" font-size="10.00">&lt; From, To &gt;</text>
</a>
</g>
</g>
<!-- Node2 -->
<g id="node2" class="node">
<title>Node2</title>
<g id="a_node2"><a xlink:href="structplayrho_1_1detail_1_1is__narrowing__conversion__impl.html" target="_top" xlink:title="Is narrowing conversion implementation true trait.">
<polygon fill="white" stroke="black" points="0,-78.5 0,-119.5 163,-119.5 163,-78.5 0,-78.5"/>
<text text-anchor="start" x="8" y="-107.5" font-family="Helvetica,sans-Serif" font-size="10.00">playrho::detail::is</text>
<text text-anchor="start" x="8" y="-96.5" font-family="Helvetica,sans-Serif" font-size="10.00">_narrowing_conversion</text>
<text text-anchor="middle" x="81.5" y="-85.5" font-family="Helvetica,sans-Serif" font-size="10.00">_impl&lt; From, To, typename &gt;</text>
</a>
</g>
</g>
<!-- Node2&#45;&gt;Node1 -->
<g id="edge1" class="edge">
<title>Node2&#45;&gt;Node1</title>
<path fill="none" stroke="midnightblue" d="M81.5,-68.3C81.5,-59.3 81.5,-49.65 81.5,-41.51"/>
<polygon fill="midnightblue" stroke="midnightblue" points="78,-68.43 81.5,-78.43 85,-68.43 78,-68.43"/>
</g>
<!-- Node3 -->
<g id="node3" class="node">
<title>Node3</title>
<g id="a_node3"><a xlink:title=" ">
<polygon fill="white" stroke="#bfbfbf" points="39.5,-156.5 39.5,-175.5 123.5,-175.5 123.5,-156.5 39.5,-156.5"/>
<text text-anchor="middle" x="81.5" y="-163.5" font-family="Helvetica,sans-Serif" font-size="10.00">std::true_type</text>
</a>
</g>
</g>
<!-- Node3&#45;&gt;Node2 -->
<g id="edge2" class="edge">
<title>Node3&#45;&gt;Node2</title>
<path fill="none" stroke="midnightblue" d="M81.5,-146.04C81.5,-137.71 81.5,-127.94 81.5,-119.54"/>
<polygon fill="midnightblue" stroke="midnightblue" points="78,-146.23 81.5,-156.23 85,-146.23 78,-146.23"/>
</g>
</g>
</svg>
