<?xml version="1.0" encoding="UTF-8" standalone="no"?>
<!DOCTYPE svg PUBLIC "-//W3C//DTD SVG 1.1//EN"
 "http://www.w3.org/Graphics/SVG/1.1/DTD/svg11.dtd">
<!-- Generated by graphviz version 2.43.0 (0)
 -->
<!-- Title: playrho::detail::Checked&lt; ValueType, Checker, NoExcept &gt;::IsChecked&lt; Checked&lt; V, C, N &gt; &gt; Pages: 1 -->
<svg width="211pt" height="106pt"
 viewBox="0.00 0.00 211.00 106.00" xmlns="http://www.w3.org/2000/svg" xmlns:xlink="http://www.w3.org/1999/xlink">
<g id="graph0" class="graph" transform="scale(1 1) rotate(0) translate(4 102)">
<title>playrho::detail::Checked&lt; ValueType, Checker, NoExcept &gt;::IsChecked&lt; Checked&lt; V, C, N &gt; &gt;</title>
<polygon fill="white" stroke="transparent" points="-4,4 -4,-102 207,-102 207,4 -4,4"/>
<!-- Node1 -->
<g id="node1" class="node">
<title>Node1</title>
<g id="a_node1"><a xlink:title="Succeeding is&#45;checked class template trait.">
<polygon fill="#bfbfbf" stroke="black" points="0,-0.5 0,-41.5 203,-41.5 203,-0.5 0,-0.5"/>
<text text-anchor="start" x="8" y="-29.5" font-family="Helvetica,sans-Serif" font-size="10.00">playrho::detail::Checked</text>
<text text-anchor="start" x="8" y="-18.5" font-family="Helvetica,sans-Serif" font-size="10.00">&lt; ValueType, Checker, NoExcept</text>
<text text-anchor="middle" x="101.5" y="-7.5" font-family="Helvetica,sans-Serif" font-size="10.00"> &gt;::IsChecked&lt; Checked&lt; V, C, N &gt; &gt;</text>
</a>
</g>
</g>
<!-- Node2 -->
<g id="node2" class="node">
<title>Node2</title>
<g id="a_node2"><a xlink:title=" ">
<polygon fill="white" stroke="#bfbfbf" points="59.5,-78.5 59.5,-97.5 143.5,-97.5 143.5,-78.5 59.5,-78.5"/>
<text text-anchor="middle" x="101.5" y="-85.5" font-family="Helvetica,sans-Serif" font-size="10.00">std::true_type</text>
</a>
</g>
</g>
<!-- Node2&#45;&gt;Node1 -->
<g id="edge1" class="edge">
<title>Node2&#45;&gt;Node1</title>
<path fill="none" stroke="midnightblue" d="M101.5,-68.04C101.5,-59.71 101.5,-49.94 101.5,-41.54"/>
<polygon fill="midnightblue" stroke="midnightblue" points="98,-68.23 101.5,-78.23 105,-68.23 98,-68.23"/>
</g>
</g>
</svg>
