<?xml version="1.0" encoding="UTF-8" standalone="no"?>
<!DOCTYPE svg PUBLIC "-//W3C//DTD SVG 1.1//EN"
 "http://www.w3.org/Graphics/SVG/1.1/DTD/svg11.dtd">
<!-- Generated by graphviz version 2.43.0 (0)
 -->
<!-- Title: playrho::d2::SeparationScenarioFaceA Pages: 1 -->
<svg width="288pt" height="173pt"
 viewBox="0.00 0.00 287.50 173.00" xmlns="http://www.w3.org/2000/svg" xmlns:xlink="http://www.w3.org/1999/xlink">
<g id="graph0" class="graph" transform="scale(1 1) rotate(0) translate(4 169)">
<title>playrho::d2::SeparationScenarioFaceA</title>
<polygon fill="white" stroke="transparent" points="-4,4 -4,-169 283.5,-169 283.5,4 -4,4"/>
<!-- Node1 -->
<g id="node1" class="node">
<title>Node1</title>
<g id="a_node1"><a xlink:title="Face A separation scenario.">
<polygon fill="#bfbfbf" stroke="black" points="61,-0.5 61,-30.5 233,-30.5 233,-0.5 61,-0.5"/>
<text text-anchor="start" x="69" y="-18.5" font-family="Helvetica,sans-Serif" font-size="10.00">playrho::d2::SeparationScenario</text>
<text text-anchor="middle" x="147" y="-7.5" font-family="Helvetica,sans-Serif" font-size="10.00">FaceA</text>
</a>
</g>
</g>
<!-- Node2 -->
<g id="node2" class="node">
<title>Node2</title>
<g id="a_node2"><a xlink:href="structplayrho_1_1Vector.html" target="_top" xlink:title=" ">
<polygon fill="white" stroke="black" points="0,-78.5 0,-97.5 146,-97.5 146,-78.5 0,-78.5"/>
<text text-anchor="middle" x="73" y="-85.5" font-family="Helvetica,sans-Serif" font-size="10.00">playrho::Vector&lt; Length &gt;</text>
</a>
</g>
</g>
<!-- Node2&#45;&gt;Node1 -->
<g id="edge1" class="edge">
<title>Node2&#45;&gt;Node1</title>
<path fill="none" stroke="#9a32cd" stroke-dasharray="5,2" d="M89.33,-71.44C102.15,-59.23 119.83,-42.39 132.23,-30.58"/>
<polygon fill="#9a32cd" stroke="#9a32cd" points="86.9,-68.92 82.07,-78.36 91.73,-73.99 86.9,-68.92"/>
<text text-anchor="middle" x="139" y="-52" font-family="Helvetica,sans-Serif" font-size="10.00"> localPoint</text>
</g>
<!-- Node3 -->
<g id="node3" class="node">
<title>Node3</title>
<g id="a_node3"><a xlink:href="structplayrho_1_1Vector.html" target="_top" xlink:title="Vector.">
<polygon fill="white" stroke="black" points="7,-145.5 7,-164.5 139,-164.5 139,-145.5 7,-145.5"/>
<text text-anchor="middle" x="73" y="-152.5" font-family="Helvetica,sans-Serif" font-size="10.00">playrho::Vector&lt; T, N &gt;</text>
</a>
</g>
</g>
<!-- Node3&#45;&gt;Node2 -->
<g id="edge2" class="edge">
<title>Node3&#45;&gt;Node2</title>
<path fill="none" stroke="orange" stroke-dasharray="5,2" d="M73,-135.04C73,-122.67 73,-107.12 73,-97.63"/>
<polygon fill="orange" stroke="orange" points="69.5,-135.23 73,-145.23 76.5,-135.23 69.5,-135.23"/>
<text text-anchor="middle" x="102.5" y="-119" font-family="Helvetica,sans-Serif" font-size="10.00"> &lt; Length &gt;</text>
</g>
<!-- Node4 -->
<g id="node4" class="node">
<title>Node4</title>
<g id="a_node4"><a xlink:href="classplayrho_1_1d2_1_1UnitVec.html" target="_top" xlink:title="2&#45;D unit vector.">
<polygon fill="white" stroke="black" points="164.5,-78.5 164.5,-97.5 279.5,-97.5 279.5,-78.5 164.5,-78.5"/>
<text text-anchor="middle" x="222" y="-85.5" font-family="Helvetica,sans-Serif" font-size="10.00">playrho::d2::UnitVec</text>
</a>
</g>
</g>
<!-- Node4&#45;&gt;Node1 -->
<g id="edge3" class="edge">
<title>Node4&#45;&gt;Node1</title>
<path fill="none" stroke="#9a32cd" stroke-dasharray="5,2" d="M205.45,-71.44C192.46,-59.23 174.54,-42.39 161.97,-30.58"/>
<polygon fill="#9a32cd" stroke="#9a32cd" points="203.12,-74.06 212.8,-78.36 207.91,-68.96 203.12,-74.06"/>
<text text-anchor="middle" x="203" y="-52" font-family="Helvetica,sans-Serif" font-size="10.00"> axis</text>
</g>
</g>
</svg>
