<?xml version="1.0" encoding="UTF-8" standalone="no"?>
<!DOCTYPE svg PUBLIC "-//W3C//DTD SVG 1.1//EN"
 "http://www.w3.org/Graphics/SVG/1.1/DTD/svg11.dtd">
<!-- Generated by graphviz version 2.43.0 (0)
 -->
<!-- Title: playrho::d2::Transformation Pages: 1 -->
<svg width="288pt" height="162pt"
 viewBox="0.00 0.00 287.50 162.00" xmlns="http://www.w3.org/2000/svg" xmlns:xlink="http://www.w3.org/1999/xlink">
<g id="graph0" class="graph" transform="scale(1 1) rotate(0) translate(4 158)">
<title>playrho::d2::Transformation</title>
<polygon fill="white" stroke="transparent" points="-4,4 -4,-158 283.5,-158 283.5,4 -4,4"/>
<!-- Node1 -->
<g id="node1" class="node">
<title>Node1</title>
<g id="a_node1"><a xlink:title="Describes a geometric transformation.">
<polygon fill="#bfbfbf" stroke="black" points="71.5,-0.5 71.5,-19.5 222.5,-19.5 222.5,-0.5 71.5,-0.5"/>
<text text-anchor="middle" x="147" y="-7.5" font-family="Helvetica,sans-Serif" font-size="10.00">playrho::d2::Transformation</text>
</a>
</g>
</g>
<!-- Node2 -->
<g id="node2" class="node">
<title>Node2</title>
<g id="a_node2"><a xlink:href="structplayrho_1_1Vector.html" target="_top" xlink:title=" ">
<polygon fill="white" stroke="black" points="0,-67.5 0,-86.5 146,-86.5 146,-67.5 0,-67.5"/>
<text text-anchor="middle" x="73" y="-74.5" font-family="Helvetica,sans-Serif" font-size="10.00">playrho::Vector&lt; Length &gt;</text>
</a>
</g>
</g>
<!-- Node2&#45;&gt;Node1 -->
<g id="edge1" class="edge">
<title>Node2&#45;&gt;Node1</title>
<path fill="none" stroke="#9a32cd" stroke-dasharray="5,2" d="M90.81,-60.36C105.36,-47.58 125.38,-29.99 137.18,-19.63"/>
<polygon fill="#9a32cd" stroke="#9a32cd" points="88.18,-58 82.98,-67.23 92.8,-63.26 88.18,-58"/>
<text text-anchor="middle" x="120" y="-41" font-family="Helvetica,sans-Serif" font-size="10.00"> p</text>
</g>
<!-- Node3 -->
<g id="node3" class="node">
<title>Node3</title>
<g id="a_node3"><a xlink:href="structplayrho_1_1Vector.html" target="_top" xlink:title="Vector.">
<polygon fill="white" stroke="black" points="7,-134.5 7,-153.5 139,-153.5 139,-134.5 7,-134.5"/>
<text text-anchor="middle" x="73" y="-141.5" font-family="Helvetica,sans-Serif" font-size="10.00">playrho::Vector&lt; T, N &gt;</text>
</a>
</g>
</g>
<!-- Node3&#45;&gt;Node2 -->
<g id="edge2" class="edge">
<title>Node3&#45;&gt;Node2</title>
<path fill="none" stroke="orange" stroke-dasharray="5,2" d="M73,-124.04C73,-111.67 73,-96.12 73,-86.63"/>
<polygon fill="orange" stroke="orange" points="69.5,-124.23 73,-134.23 76.5,-124.23 69.5,-124.23"/>
<text text-anchor="middle" x="102.5" y="-108" font-family="Helvetica,sans-Serif" font-size="10.00"> &lt; Length &gt;</text>
</g>
<!-- Node4 -->
<g id="node4" class="node">
<title>Node4</title>
<g id="a_node4"><a xlink:href="classplayrho_1_1d2_1_1UnitVec.html" target="_top" xlink:title="2&#45;D unit vector.">
<polygon fill="white" stroke="black" points="164.5,-67.5 164.5,-86.5 279.5,-86.5 279.5,-67.5 164.5,-67.5"/>
<text text-anchor="middle" x="222" y="-74.5" font-family="Helvetica,sans-Serif" font-size="10.00">playrho::d2::UnitVec</text>
</a>
</g>
</g>
<!-- Node4&#45;&gt;Node1 -->
<g id="edge3" class="edge">
<title>Node4&#45;&gt;Node1</title>
<path fill="none" stroke="#9a32cd" stroke-dasharray="5,2" d="M203.95,-60.36C189.21,-47.58 168.91,-29.99 156.95,-19.63"/>
<polygon fill="#9a32cd" stroke="#9a32cd" points="202.04,-63.33 211.89,-67.23 206.62,-58.04 202.04,-63.33"/>
<text text-anchor="middle" x="193" y="-41" font-family="Helvetica,sans-Serif" font-size="10.00"> q</text>
</g>
</g>
</svg>
