<?xml version="1.0" encoding="UTF-8" standalone="no"?>
<!DOCTYPE svg PUBLIC "-//W3C//DTD SVG 1.1//EN"
 "http://www.w3.org/Graphics/SVG/1.1/DTD/svg11.dtd">
<!-- Generated by graphviz version 2.43.0 (0)
 -->
<!-- Title: playrho::d2::RevoluteJointConf Pages: 1 -->
<svg width="1398pt" height="134pt"
 viewBox="0.00 0.00 1398.00 133.50" xmlns="http://www.w3.org/2000/svg" xmlns:xlink="http://www.w3.org/1999/xlink">
<g id="graph0" class="graph" transform="scale(1 1) rotate(0) translate(4 129.5)">
<title>playrho::d2::RevoluteJointConf</title>
<polygon fill="white" stroke="transparent" points="-4,4 -4,-129.5 1394,-129.5 1394,4 -4,4"/>
<!-- Node1 -->
<g id="node1" class="node">
<title>Node1</title>
<g id="a_node1"><a xlink:title="Revolute joint definition.">
<polygon fill="#bfbfbf" stroke="black" points="1225,-41.5 1225,-60.5 1390,-60.5 1390,-41.5 1225,-41.5"/>
<text text-anchor="middle" x="1307.5" y="-48.5" font-family="Helvetica,sans-Serif" font-size="10.00">playrho::d2::RevoluteJointConf</text>
</a>
</g>
</g>
<!-- Node2 -->
<g id="node2" class="node">
<title>Node2</title>
<g id="a_node2"><a xlink:href="structplayrho_1_1d2_1_1JointBuilder.html" target="_top" xlink:title=" ">
<polygon fill="white" stroke="black" points="982,-95 982,-125 1116,-125 1116,-95 982,-95"/>
<text text-anchor="start" x="990" y="-113" font-family="Helvetica,sans-Serif" font-size="10.00">playrho::d2::JointBuilder</text>
<text text-anchor="middle" x="1049" y="-102" font-family="Helvetica,sans-Serif" font-size="10.00">&lt; RevoluteJointConf &gt;</text>
</a>
</g>
</g>
<!-- Node2&#45;&gt;Node1 -->
<g id="edge1" class="edge">
<title>Node2&#45;&gt;Node1</title>
<path fill="none" stroke="midnightblue" d="M1126.31,-108.34C1152.24,-106.43 1181.18,-102.78 1207,-96 1237.62,-87.96 1270.63,-71.26 1289.89,-60.62"/>
<polygon fill="midnightblue" stroke="midnightblue" points="1125.9,-104.86 1116.16,-109.02 1126.37,-111.85 1125.9,-104.86"/>
</g>
<!-- Node3 -->
<g id="node3" class="node">
<title>Node3</title>
<g id="a_node3"><a xlink:href="structplayrho_1_1d2_1_1JointConf.html" target="_top" xlink:title="Base joint definition class.">
<polygon fill="white" stroke="black" points="505,-82.5 505,-101.5 627,-101.5 627,-82.5 505,-82.5"/>
<text text-anchor="middle" x="566" y="-89.5" font-family="Helvetica,sans-Serif" font-size="10.00">playrho::d2::JointConf</text>
</a>
</g>
</g>
<!-- Node3&#45;&gt;Node2 -->
<g id="edge2" class="edge">
<title>Node3&#45;&gt;Node2</title>
<path fill="none" stroke="midnightblue" d="M637.23,-96.61C639.85,-96.75 642.45,-96.88 645,-97 763.52,-102.71 901.76,-106.56 981.65,-108.51"/>
<polygon fill="midnightblue" stroke="midnightblue" points="637.21,-93.1 627.03,-96.04 636.82,-100.09 637.21,-93.1"/>
</g>
<!-- Node6 -->
<g id="node6" class="node">
<title>Node6</title>
<g id="a_node6"><a xlink:href="structplayrho_1_1d2_1_1JointBuilder.html" target="_top" xlink:title="Joint builder definition structure.">
<polygon fill="white" stroke="black" points="664,-63.5 664,-82.5 826,-82.5 826,-63.5 664,-63.5"/>
<text text-anchor="middle" x="745" y="-70.5" font-family="Helvetica,sans-Serif" font-size="10.00">playrho::d2::JointBuilder&lt; T &gt;</text>
</a>
</g>
</g>
<!-- Node3&#45;&gt;Node6 -->
<g id="edge6" class="edge">
<title>Node3&#45;&gt;Node6</title>
<path fill="none" stroke="midnightblue" d="M637.46,-84.44C646.12,-83.51 655.03,-82.55 663.82,-81.61"/>
<polygon fill="midnightblue" stroke="midnightblue" points="636.99,-80.97 627.42,-85.51 637.73,-87.93 636.99,-80.97"/>
</g>
<!-- Node4 -->
<g id="node4" class="node">
<title>Node4</title>
<g id="a_node4"><a xlink:href="classplayrho_1_1detail_1_1IndexingNamedType.html" target="_top" xlink:title=" ">
<polygon fill="white" stroke="black" points="283,-71.5 283,-112.5 435,-112.5 435,-71.5 283,-71.5"/>
<text text-anchor="start" x="291" y="-100.5" font-family="Helvetica,sans-Serif" font-size="10.00">playrho::detail::Indexing</text>
<text text-anchor="start" x="291" y="-89.5" font-family="Helvetica,sans-Serif" font-size="10.00">NamedType&lt; BodyCounter,</text>
<text text-anchor="middle" x="359" y="-78.5" font-family="Helvetica,sans-Serif" font-size="10.00"> struct BodyIdentifier &gt;</text>
</a>
</g>
</g>
<!-- Node4&#45;&gt;Node3 -->
<g id="edge3" class="edge">
<title>Node4&#45;&gt;Node3</title>
<path fill="none" stroke="#9a32cd" stroke-dasharray="5,2" d="M445.24,-92C465.28,-92 486.24,-92 504.91,-92"/>
<polygon fill="#9a32cd" stroke="#9a32cd" points="445.17,-88.5 435.17,-92 445.17,-95.5 445.17,-88.5"/>
<text text-anchor="middle" x="470" y="-106" font-family="Helvetica,sans-Serif" font-size="10.00"> bodyA</text>
<text text-anchor="middle" x="470" y="-95" font-family="Helvetica,sans-Serif" font-size="10.00">bodyB</text>
</g>
<!-- Node5 -->
<g id="node5" class="node">
<title>Node5</title>
<g id="a_node5"><a xlink:href="classplayrho_1_1detail_1_1IndexingNamedType.html" target="_top" xlink:title="An indexable, hashable, named &quot;strong type&quot; template class.">
<polygon fill="white" stroke="black" points="0,-77 0,-107 135,-107 135,-77 0,-77"/>
<text text-anchor="start" x="8" y="-95" font-family="Helvetica,sans-Serif" font-size="10.00">playrho::detail::Indexing</text>
<text text-anchor="middle" x="67.5" y="-84" font-family="Helvetica,sans-Serif" font-size="10.00">NamedType&lt; T, Tag &gt;</text>
</a>
</g>
</g>
<!-- Node5&#45;&gt;Node4 -->
<g id="edge4" class="edge">
<title>Node5&#45;&gt;Node4</title>
<path fill="none" stroke="orange" stroke-dasharray="5,2" d="M145.31,-92C187.88,-92 240.59,-92 282.89,-92"/>
<polygon fill="orange" stroke="orange" points="145.28,-88.5 135.28,-92 145.28,-95.5 145.28,-88.5"/>
<text text-anchor="start" x="153" y="-106" font-family="Helvetica,sans-Serif" font-size="10.00"> &lt; BodyCounter, struct</text>
<text text-anchor="middle" x="209" y="-95" font-family="Helvetica,sans-Serif" font-size="10.00"> BodyIdentifier &gt;</text>
</g>
<!-- Node6&#45;&gt;Node2 -->
<g id="edge5" class="edge">
<title>Node6&#45;&gt;Node2</title>
<path fill="none" stroke="orange" stroke-dasharray="5,2" d="M836.66,-74.59C874.37,-76.27 918.49,-79.59 958,-86 971.25,-88.15 985.37,-91.43 998.4,-94.88"/>
<polygon fill="orange" stroke="orange" points="836.34,-71.07 826.2,-74.15 836.04,-78.06 836.34,-71.07"/>
<text text-anchor="middle" x="901" y="-89" font-family="Helvetica,sans-Serif" font-size="10.00"> &lt; RevoluteJointConf &gt;</text>
</g>
<!-- Node7 -->
<g id="node7" class="node">
<title>Node7</title>
<g id="a_node7"><a xlink:href="structplayrho_1_1Vector.html" target="_top" xlink:title=" ">
<polygon fill="white" stroke="black" points="976,-41.5 976,-60.5 1122,-60.5 1122,-41.5 976,-41.5"/>
<text text-anchor="middle" x="1049" y="-48.5" font-family="Helvetica,sans-Serif" font-size="10.00">playrho::Vector&lt; Length &gt;</text>
</a>
</g>
</g>
<!-- Node7&#45;&gt;Node1 -->
<g id="edge7" class="edge">
<title>Node7&#45;&gt;Node1</title>
<path fill="none" stroke="#9a32cd" stroke-dasharray="5,2" d="M1132.44,-51C1162.06,-51 1195.44,-51 1224.98,-51"/>
<polygon fill="#9a32cd" stroke="#9a32cd" points="1132.13,-47.5 1122.13,-51 1132.13,-54.5 1132.13,-47.5"/>
<text text-anchor="middle" x="1173.5" y="-87" font-family="Helvetica,sans-Serif" font-size="10.00"> localAnchorA</text>
<text text-anchor="middle" x="1173.5" y="-76" font-family="Helvetica,sans-Serif" font-size="10.00">localAnchorB</text>
<text text-anchor="middle" x="1173.5" y="-65" font-family="Helvetica,sans-Serif" font-size="10.00">rA</text>
<text text-anchor="middle" x="1173.5" y="-54" font-family="Helvetica,sans-Serif" font-size="10.00">rB</text>
</g>
<!-- Node8 -->
<g id="node8" class="node">
<title>Node8</title>
<g id="a_node8"><a xlink:href="structplayrho_1_1Vector.html" target="_top" xlink:title="Vector.">
<polygon fill="white" stroke="black" points="679,-16.5 679,-35.5 811,-35.5 811,-16.5 679,-16.5"/>
<text text-anchor="middle" x="745" y="-23.5" font-family="Helvetica,sans-Serif" font-size="10.00">playrho::Vector&lt; T, N &gt;</text>
</a>
</g>
</g>
<!-- Node8&#45;&gt;Node7 -->
<g id="edge8" class="edge">
<title>Node8&#45;&gt;Node7</title>
<path fill="none" stroke="orange" stroke-dasharray="5,2" d="M821.33,-32.24C868.59,-36.15 929.18,-41.16 975.82,-45.02"/>
<polygon fill="orange" stroke="orange" points="821.41,-28.73 811.16,-31.39 820.83,-35.71 821.41,-28.73"/>
<text text-anchor="middle" x="901" y="-46" font-family="Helvetica,sans-Serif" font-size="10.00"> &lt; Length &gt;</text>
</g>
<!-- Node9 -->
<g id="node9" class="node">
<title>Node9</title>
<g id="a_node9"><a xlink:href="structplayrho_1_1Vector.html" target="_top" xlink:title=" ">
<polygon fill="white" stroke="black" points="982,-0.5 982,-19.5 1116,-19.5 1116,-0.5 982,-0.5"/>
<text text-anchor="middle" x="1049" y="-7.5" font-family="Helvetica,sans-Serif" font-size="10.00">playrho::Vector&lt; Real &gt;</text>
</a>
</g>
</g>
<!-- Node8&#45;&gt;Node9 -->
<g id="edge10" class="edge">
<title>Node8&#45;&gt;Node9</title>
<path fill="none" stroke="orange" stroke-dasharray="5,2" d="M821.16,-18.66C828.87,-18.03 836.59,-17.47 844,-17 889.98,-14.1 941.87,-12.34 981.8,-11.31"/>
<polygon fill="orange" stroke="orange" points="820.74,-15.18 811.06,-19.5 821.32,-22.15 820.74,-15.18"/>
<text text-anchor="middle" x="901" y="-20" font-family="Helvetica,sans-Serif" font-size="10.00"> &lt; Real &gt;</text>
</g>
<!-- Node9&#45;&gt;Node1 -->
<g id="edge9" class="edge">
<title>Node9&#45;&gt;Node1</title>
<path fill="none" stroke="#9a32cd" stroke-dasharray="5,2" d="M1126.11,-14.8C1151.91,-17.08 1180.82,-20.36 1207,-25 1230.03,-29.08 1255.55,-35.79 1274.97,-41.38"/>
<polygon fill="#9a32cd" stroke="#9a32cd" points="1126.27,-11.3 1116.01,-13.94 1125.68,-18.28 1126.27,-11.3"/>
<text text-anchor="middle" x="1173.5" y="-39" font-family="Helvetica,sans-Serif" font-size="10.00"> impulse</text>
<text text-anchor="middle" x="1173.5" y="-28" font-family="Helvetica,sans-Serif" font-size="10.00">mass</text>
</g>
</g>
</svg>
