<?xml version="1.0" encoding="UTF-8" standalone="no"?>
<!DOCTYPE svg PUBLIC "-//W3C//DTD SVG 1.1//EN"
 "http://www.w3.org/Graphics/SVG/1.1/DTD/svg11.dtd">
<!-- Generated by graphviz version 2.43.0 (0)
 -->
<!-- Title: playrho::Contactable Pages: 1 -->
<svg width="649pt" height="110pt"
 viewBox="0.00 0.00 649.00 110.00" xmlns="http://www.w3.org/2000/svg" xmlns:xlink="http://www.w3.org/1999/xlink">
<g id="graph0" class="graph" transform="scale(1 1) rotate(0) translate(4 106)">
<title>playrho::Contactable</title>
<polygon fill="white" stroke="transparent" points="-4,4 -4,-106 645,-106 645,4 -4,4"/>
<!-- Node1 -->
<g id="node1" class="node">
<title>Node1</title>
<g id="a_node1"><a xlink:title="Aggregate data for identifying one side (of two) in a contact.">
<polygon fill="#bfbfbf" stroke="black" points="523,-44.5 523,-63.5 641,-63.5 641,-44.5 523,-44.5"/>
<text text-anchor="middle" x="582" y="-51.5" font-family="Helvetica,sans-Serif" font-size="10.00">playrho::Contactable</text>
</a>
</g>
</g>
<!-- Node2 -->
<g id="node2" class="node">
<title>Node2</title>
<g id="a_node2"><a xlink:href="classplayrho_1_1detail_1_1IndexingNamedType.html" target="_top" xlink:title=" ">
<polygon fill="white" stroke="black" points="290.5,-60.5 290.5,-101.5 442.5,-101.5 442.5,-60.5 290.5,-60.5"/>
<text text-anchor="start" x="298.5" y="-89.5" font-family="Helvetica,sans-Serif" font-size="10.00">playrho::detail::Indexing</text>
<text text-anchor="start" x="298.5" y="-78.5" font-family="Helvetica,sans-Serif" font-size="10.00">NamedType&lt; BodyCounter,</text>
<text text-anchor="middle" x="366.5" y="-67.5" font-family="Helvetica,sans-Serif" font-size="10.00"> struct BodyIdentifier &gt;</text>
</a>
</g>
</g>
<!-- Node2&#45;&gt;Node1 -->
<g id="edge1" class="edge">
<title>Node2&#45;&gt;Node1</title>
<path fill="none" stroke="#9a32cd" stroke-dasharray="5,2" d="M452.75,-70.22C476.27,-67.24 501.24,-64.09 522.84,-61.36"/>
<polygon fill="#9a32cd" stroke="#9a32cd" points="452.25,-66.75 442.77,-71.48 453.13,-73.7 452.25,-66.75"/>
<text text-anchor="middle" x="484" y="-71" font-family="Helvetica,sans-Serif" font-size="10.00"> bodyId</text>
</g>
<!-- Node3 -->
<g id="node3" class="node">
<title>Node3</title>
<g id="a_node3"><a xlink:href="classplayrho_1_1detail_1_1IndexingNamedType.html" target="_top" xlink:title="An indexable, hashable, named &quot;strong type&quot; template class.">
<polygon fill="white" stroke="black" points="0,-35 0,-65 135,-65 135,-35 0,-35"/>
<text text-anchor="start" x="8" y="-53" font-family="Helvetica,sans-Serif" font-size="10.00">playrho::detail::Indexing</text>
<text text-anchor="middle" x="67.5" y="-42" font-family="Helvetica,sans-Serif" font-size="10.00">NamedType&lt; T, Tag &gt;</text>
</a>
</g>
</g>
<!-- Node3&#45;&gt;Node2 -->
<g id="edge2" class="edge">
<title>Node3&#45;&gt;Node2</title>
<path fill="none" stroke="orange" stroke-dasharray="5,2" d="M145.37,-58.02C190.05,-62.69 246.09,-68.54 290.45,-73.17"/>
<polygon fill="orange" stroke="orange" points="145.46,-54.51 135.15,-56.96 144.74,-61.48 145.46,-54.51"/>
<text text-anchor="start" x="155.5" y="-84" font-family="Helvetica,sans-Serif" font-size="10.00"> &lt; BodyCounter, struct</text>
<text text-anchor="middle" x="211.5" y="-73" font-family="Helvetica,sans-Serif" font-size="10.00"> BodyIdentifier &gt;</text>
</g>
<!-- Node4 -->
<g id="node4" class="node">
<title>Node4</title>
<g id="a_node4"><a xlink:href="classplayrho_1_1detail_1_1IndexingNamedType.html" target="_top" xlink:title=" ">
<polygon fill="white" stroke="black" points="288,-0.5 288,-41.5 445,-41.5 445,-0.5 288,-0.5"/>
<text text-anchor="start" x="296" y="-29.5" font-family="Helvetica,sans-Serif" font-size="10.00">playrho::detail::Indexing</text>
<text text-anchor="start" x="296" y="-18.5" font-family="Helvetica,sans-Serif" font-size="10.00">NamedType&lt; ShapeCounter,</text>
<text text-anchor="middle" x="366.5" y="-7.5" font-family="Helvetica,sans-Serif" font-size="10.00"> struct ShapeIdentifier &gt;</text>
</a>
</g>
</g>
<!-- Node3&#45;&gt;Node4 -->
<g id="edge4" class="edge">
<title>Node3&#45;&gt;Node4</title>
<path fill="none" stroke="orange" stroke-dasharray="5,2" d="M145.31,-34.06C147.9,-33.68 150.47,-33.32 153,-33 197.35,-27.32 247.25,-24.32 287.54,-22.75"/>
<polygon fill="orange" stroke="orange" points="144.56,-30.64 135.24,-35.66 145.66,-37.55 144.56,-30.64"/>
<text text-anchor="start" x="153" y="-47" font-family="Helvetica,sans-Serif" font-size="10.00"> &lt; ShapeCounter, struct</text>
<text text-anchor="middle" x="211.5" y="-36" font-family="Helvetica,sans-Serif" font-size="10.00"> ShapeIdentifier &gt;</text>
</g>
<!-- Node4&#45;&gt;Node1 -->
<g id="edge3" class="edge">
<title>Node4&#45;&gt;Node1</title>
<path fill="none" stroke="#9a32cd" stroke-dasharray="5,2" d="M455.2,-34.56C477.98,-38.08 501.95,-41.78 522.79,-45"/>
<polygon fill="#9a32cd" stroke="#9a32cd" points="455.6,-31.08 445.18,-33.01 454.53,-37.99 455.6,-31.08"/>
<text text-anchor="middle" x="484" y="-44" font-family="Helvetica,sans-Serif" font-size="10.00"> shapeId</text>
</g>
</g>
</svg>
