<?xml version="1.0" encoding="UTF-8" standalone="no"?>
<!DOCTYPE svg PUBLIC "-//W3C//DTD SVG 1.1//EN"
 "http://www.w3.org/Graphics/SVG/1.1/DTD/svg11.dtd">
<!-- Generated by graphviz version 2.43.0 (0)
 -->
<!-- Title: playrho::d2::BaseShapeConf Pages: 1 -->
<!--zoomable 127 -->
<svg id="main" version="1.1" xmlns="http://www.w3.org/2000/svg" xmlns:xlink="http://www.w3.org/1999/xlink" xml:space="preserve" onload="init(evt)">
<style type="text/css"><![CDATA[
.edge:hover path { stroke: red; }
.edge:hover polygon { stroke: red; fill: red; }
]]></style>
<script type="text/javascript"><![CDATA[
var edges = document.getElementsByTagName('g');
if (edges && edges.length) {
  for (var i=0;i<edges.length;i++) {
    if (edges[i].id.substr(0,4)=='edge') {
      edges[i].setAttribute('class','edge');
    }
  }
}
]]></script>
        <defs>
                <circle id="rim" cx="0" cy="0" r="7"/>
                <circle id="rim2" cx="0" cy="0" r="3.5"/>
                <g id="zoomPlus">
                        <use xlink:href="#rim" fill="#404040">
                                <set attributeName="fill" to="#808080" begin="zoomplus.mouseover" end="zoomplus.mouseout"/>
                        </use>
                        <path d="M-4,0h8M0,-4v8" fill="none" stroke="white" stroke-width="1.5" pointer-events="none"/>
                </g>
                <g id="zoomMin">
                        <use xlink:href="#rim" fill="#404040">
                                <set attributeName="fill" to="#808080" begin="zoomminus.mouseover" end="zoomminus.mouseout"/>
                        </use>
                        <path d="M-4,0h8" fill="none" stroke="white" stroke-width="1.5" pointer-events="none"/>
                </g>
                <g id="dirArrow">
                        <path fill="none" stroke="white" stroke-width="1.5" d="M0,-3.0v7 M-2.5,-0.5L0,-3.0L2.5,-0.5"/>
                </g>
               <g id="resetDef">
                       <use xlink:href="#rim2" fill="#404040">
                               <set attributeName="fill" to="#808080" begin="reset.mouseover" end="reset.mouseout"/>
                       </use>
               </g>
        </defs>

<script type="text/javascript">
var viewWidth = 691;
var viewHeight = 127;
var sectionId = 'dynsection-1';
</script>
<script xlink:href="svgpan.js"/>
<svg id="graph" class="graph">
<g id="viewport">
<title>playrho::d2::BaseShapeConf</title>
<polygon fill="white" stroke="transparent" points="-4,4 -4,-122.5 687,-122.5 687,4 -4,4"/>
<!-- Node1 -->
<g id="node1" class="node">
<title>Node1</title>
<g id="a_node1"><a xlink:title="Base configuration for initializing shapes.">
<polygon fill="#bfbfbf" stroke="black" points="529,-44.5 529,-63.5 683,-63.5 683,-44.5 529,-44.5"/>
<text text-anchor="middle" x="606" y="-51.5" font-family="Helvetica,sans-Serif" font-size="10.00">playrho::d2::BaseShapeConf</text>
</a>
</g>
</g>
<!-- Node2 -->
<g id="node2" class="node">
<title>Node2</title>
<g id="a_node2"><a xlink:href="classplayrho_1_1detail_1_1Checked.html" target="_top" xlink:title=" ">
<polygon fill="white" stroke="black" points="308,-88 308,-118 442,-118 442,-88 308,-88"/>
<text text-anchor="start" x="316" y="-106" font-family="Helvetica,sans-Serif" font-size="10.00">playrho::detail::Checked</text>
<text text-anchor="middle" x="375" y="-95" font-family="Helvetica,sans-Serif" font-size="10.00">&lt; AreaDensity &gt;</text>
</a>
</g>
</g>
<!-- Node2&#45;&gt;Node1 -->
<g id="edge1" class="edge">
<title>Node2&#45;&gt;Node1</title>
<path fill="none" stroke="#9a32cd" stroke-dasharray="5,2" d="M452.08,-90.63C471.37,-87.18 492,-83.21 511,-79 531.28,-74.51 553.77,-68.56 571.67,-63.6"/>
<polygon fill="#9a32cd" stroke="#9a32cd" points="451.38,-87.2 442.14,-92.38 452.59,-94.09 451.38,-87.2"/>
<text text-anchor="middle" x="485.5" y="-91" font-family="Helvetica,sans-Serif" font-size="10.00"> density</text>
</g>
<!-- Node3 -->
<g id="node3" class="node">
<title>Node3</title>
<g id="a_node3"><a xlink:href="classplayrho_1_1detail_1_1Checked.html" target="_top" xlink:title="Class template for construction&#45;time constraining a type&#39;s value.">
<polygon fill="white" stroke="black" points="0,-63 0,-93 186,-93 186,-63 0,-63"/>
<text text-anchor="start" x="8" y="-81" font-family="Helvetica,sans-Serif" font-size="10.00">playrho::detail::Checked</text>
<text text-anchor="middle" x="93" y="-70" font-family="Helvetica,sans-Serif" font-size="10.00">&lt; ValueType, Checker, NoExcept &gt;</text>
</a>
</g>
</g>
<!-- Node3&#45;&gt;Node2 -->
<g id="edge2" class="edge">
<title>Node3&#45;&gt;Node2</title>
<path fill="none" stroke="orange" stroke-dasharray="5,2" d="M196.42,-87.14C233.52,-90.46 274.41,-94.11 307.6,-97.07"/>
<polygon fill="orange" stroke="orange" points="196.34,-83.62 186.07,-86.22 195.72,-90.6 196.34,-83.62"/>
<text text-anchor="middle" x="247" y="-97" font-family="Helvetica,sans-Serif" font-size="10.00"> &lt; AreaDensity &gt;</text>
</g>
<!-- Node5 -->
<g id="node5" class="node">
<title>Node5</title>
<g id="a_node5"><a xlink:href="classplayrho_1_1detail_1_1Checked.html" target="_top" xlink:title=" ">
<polygon fill="white" stroke="black" points="308,-39 308,-69 442,-69 442,-39 308,-39"/>
<text text-anchor="start" x="316" y="-57" font-family="Helvetica,sans-Serif" font-size="10.00">playrho::detail::Checked</text>
<text text-anchor="middle" x="375" y="-46" font-family="Helvetica,sans-Serif" font-size="10.00">&lt; Real &gt;</text>
</a>
</g>
</g>
<!-- Node3&#45;&gt;Node5 -->
<g id="edge5" class="edge">
<title>Node3&#45;&gt;Node5</title>
<path fill="none" stroke="orange" stroke-dasharray="5,2" d="M196.25,-66.71C198.86,-66.47 201.45,-66.23 204,-66 238.18,-62.93 276.29,-60.18 307.75,-58.09"/>
<polygon fill="orange" stroke="orange" points="195.72,-63.25 186.1,-67.69 196.39,-70.22 195.72,-63.25"/>
<text text-anchor="middle" x="247" y="-69" font-family="Helvetica,sans-Serif" font-size="10.00"> &lt; Real &gt;</text>
</g>
<!-- Node4 -->
<g id="node4" class="node">
<title>Node4</title>
<g id="a_node4"><a xlink:href="structplayrho_1_1Filter.html" target="_top" xlink:title="A holder for contact filtering data.">
<polygon fill="white" stroke="black" points="333,-0.5 333,-19.5 417,-19.5 417,-0.5 333,-0.5"/>
<text text-anchor="middle" x="375" y="-7.5" font-family="Helvetica,sans-Serif" font-size="10.00">playrho::Filter</text>
</a>
</g>
</g>
<!-- Node4&#45;&gt;Node1 -->
<g id="edge3" class="edge">
<title>Node4&#45;&gt;Node1</title>
<path fill="none" stroke="#9a32cd" stroke-dasharray="5,2" d="M427.11,-19.82C465.38,-27.17 517.44,-37.18 555.35,-44.46"/>
<polygon fill="#9a32cd" stroke="#9a32cd" points="427.69,-16.37 417.21,-17.92 426.37,-23.24 427.69,-16.37"/>
<text text-anchor="middle" x="485.5" y="-38" font-family="Helvetica,sans-Serif" font-size="10.00"> filter</text>
</g>
<!-- Node5&#45;&gt;Node1 -->
<g id="edge4" class="edge">
<title>Node5&#45;&gt;Node1</title>
<path fill="none" stroke="#9a32cd" stroke-dasharray="5,2" d="M452.25,-54C476.89,-54 504.2,-54 528.83,-54"/>
<polygon fill="#9a32cd" stroke="#9a32cd" points="452.24,-50.5 442.24,-54 452.24,-57.5 452.24,-50.5"/>
<text text-anchor="middle" x="485.5" y="-68" font-family="Helvetica,sans-Serif" font-size="10.00"> friction</text>
<text text-anchor="middle" x="485.5" y="-57" font-family="Helvetica,sans-Serif" font-size="10.00">restitution</text>
</g>
</g>
</svg>
        <g id="navigator" transform="translate(0 0)" fill="#404254">
                <rect fill="#f2f5e9" fill-opacity="0.5" stroke="#606060" stroke-width=".5" x="0" y="0" width="60" height="60"/>
                <use id="zoomplus" xlink:href="#zoomPlus" x="17" y="9" onmousedown="handleZoom(evt,'in')"/>
                <use id="zoomminus" xlink:href="#zoomMin" x="42" y="9" onmousedown="handleZoom(evt,'out')"/>
                <use id="reset" xlink:href="#resetDef" x="30" y="36" onmousedown="handleReset()"/>
                <g id="arrowUp" xlink:href="#dirArrow" transform="translate(30 24)" onmousedown="handlePan(0,-1)">
                  <use xlink:href="#rim" fill="#404040">
                        <set attributeName="fill" to="#808080" begin="arrowUp.mouseover" end="arrowUp.mouseout"/>
                  </use>
                  <path fill="none" stroke="white" stroke-width="1.5" d="M0,-3.0v7 M-2.5,-0.5L0,-3.0L2.5,-0.5"/>
                </g>
                <g id="arrowRight" xlink:href="#dirArrow" transform="rotate(90) translate(36 -43)" onmousedown="handlePan(1,0)">
                  <use xlink:href="#rim" fill="#404040">
                        <set attributeName="fill" to="#808080" begin="arrowRight.mouseover" end="arrowRight.mouseout"/>
                  </use>
                  <path fill="none" stroke="white" stroke-width="1.5" d="M0,-3.0v7 M-2.5,-0.5L0,-3.0L2.5,-0.5"/>
                </g>
                <g id="arrowDown" xlink:href="#dirArrow" transform="rotate(180) translate(-30 -48)" onmousedown="handlePan(0,1)">
                  <use xlink:href="#rim" fill="#404040">
                        <set attributeName="fill" to="#808080" begin="arrowDown.mouseover" end="arrowDown.mouseout"/>
                  </use>
                  <path fill="none" stroke="white" stroke-width="1.5" d="M0,-3.0v7 M-2.5,-0.5L0,-3.0L2.5,-0.5"/>
                </g>
                <g id="arrowLeft" xlink:href="#dirArrow" transform="rotate(270) translate(-36 17)" onmousedown="handlePan(-1,0)">
                  <use xlink:href="#rim" fill="#404040">
                        <set attributeName="fill" to="#808080" begin="arrowLeft.mouseover" end="arrowLeft.mouseout"/>
                  </use>
                  <path fill="none" stroke="white" stroke-width="1.5" d="M0,-3.0v7 M-2.5,-0.5L0,-3.0L2.5,-0.5"/>
                </g>
        </g>
        <svg viewBox="0 0 15 15" width="100%" height="30px" preserveAspectRatio="xMaxYMin meet">
         <g id="arrow_out" transform="scale(0.3 0.3)">
          <a xlink:href="structplayrho_1_1d2_1_1BaseShapeConf__coll__graph_org.svg" target="_base">
           <rect id="button" ry="5" rx="5" y="6" x="6" height="38" width="38"
                fill="#f2f5e9" fill-opacity="0.5" stroke="#606060" stroke-width="1.0"/>
           <path id="arrow"
             d="M 11.500037,31.436501 C 11.940474,20.09759 22.043105,11.32322 32.158766,21.979434 L 37.068811,17.246167 C 37.068811,17.246167 37.088388,32 37.088388,32 L 22.160133,31.978069 C 22.160133,31.978069 26.997745,27.140456 26.997745,27.140456 C 18.528582,18.264221 13.291696,25.230495 11.500037,31.436501 z"
             style="fill:#404040;"/>
          </a>
         </g>
        </svg>
</svg>
