<?xml version="1.0" encoding="UTF-8" standalone="no"?>
<!DOCTYPE svg PUBLIC "-//W3C//DTD SVG 1.1//EN"
 "http://www.w3.org/Graphics/SVG/1.1/DTD/svg11.dtd">
<!-- Generated by graphviz version 2.43.0 (0)
 -->
<!-- Title: playrho::d2::ClipVertex Pages: 1 -->
<svg width="306pt" height="162pt"
 viewBox="0.00 0.00 306.00 162.00" xmlns="http://www.w3.org/2000/svg" xmlns:xlink="http://www.w3.org/1999/xlink">
<g id="graph0" class="graph" transform="scale(1 1) rotate(0) translate(4 158)">
<title>playrho::d2::ClipVertex</title>
<polygon fill="white" stroke="transparent" points="-4,4 -4,-158 302,-158 302,4 -4,4"/>
<!-- Node1 -->
<g id="node1" class="node">
<title>Node1</title>
<g id="a_node1"><a xlink:title="Clip vertex.">
<polygon fill="#bfbfbf" stroke="black" points="127,-0.5 127,-19.5 255,-19.5 255,-0.5 127,-0.5"/>
<text text-anchor="middle" x="191" y="-7.5" font-family="Helvetica,sans-Serif" font-size="10.00">playrho::d2::ClipVertex</text>
</a>
</g>
</g>
<!-- Node2 -->
<g id="node2" class="node">
<title>Node2</title>
<g id="a_node2"><a xlink:href="structplayrho_1_1Vector.html" target="_top" xlink:title=" ">
<polygon fill="white" stroke="black" points="0,-67.5 0,-86.5 146,-86.5 146,-67.5 0,-67.5"/>
<text text-anchor="middle" x="73" y="-74.5" font-family="Helvetica,sans-Serif" font-size="10.00">playrho::Vector&lt; Length &gt;</text>
</a>
</g>
</g>
<!-- Node2&#45;&gt;Node1 -->
<g id="edge1" class="edge">
<title>Node2&#45;&gt;Node1</title>
<path fill="none" stroke="#9a32cd" stroke-dasharray="5,2" d="M97.89,-62.29C121.28,-49.4 155.56,-30.52 175.34,-19.63"/>
<polygon fill="#9a32cd" stroke="#9a32cd" points="95.98,-59.34 88.91,-67.23 99.36,-65.47 95.98,-59.34"/>
<text text-anchor="middle" x="145" y="-41" font-family="Helvetica,sans-Serif" font-size="10.00"> v</text>
</g>
<!-- Node3 -->
<g id="node3" class="node">
<title>Node3</title>
<g id="a_node3"><a xlink:href="structplayrho_1_1Vector.html" target="_top" xlink:title="Vector.">
<polygon fill="white" stroke="black" points="7,-134.5 7,-153.5 139,-153.5 139,-134.5 7,-134.5"/>
<text text-anchor="middle" x="73" y="-141.5" font-family="Helvetica,sans-Serif" font-size="10.00">playrho::Vector&lt; T, N &gt;</text>
</a>
</g>
</g>
<!-- Node3&#45;&gt;Node2 -->
<g id="edge2" class="edge">
<title>Node3&#45;&gt;Node2</title>
<path fill="none" stroke="orange" stroke-dasharray="5,2" d="M73,-124.04C73,-111.67 73,-96.12 73,-86.63"/>
<polygon fill="orange" stroke="orange" points="69.5,-124.23 73,-134.23 76.5,-124.23 69.5,-124.23"/>
<text text-anchor="middle" x="102.5" y="-108" font-family="Helvetica,sans-Serif" font-size="10.00"> &lt; Length &gt;</text>
</g>
<!-- Node4 -->
<g id="node4" class="node">
<title>Node4</title>
<g id="a_node4"><a xlink:href="structplayrho_1_1ContactFeature.html" target="_top" xlink:title="The contact feature.">
<polygon fill="white" stroke="black" points="164,-67.5 164,-86.5 298,-86.5 298,-67.5 164,-67.5"/>
<text text-anchor="middle" x="231" y="-74.5" font-family="Helvetica,sans-Serif" font-size="10.00">playrho::ContactFeature</text>
</a>
</g>
</g>
<!-- Node4&#45;&gt;Node1 -->
<g id="edge3" class="edge">
<title>Node4&#45;&gt;Node1</title>
<path fill="none" stroke="#9a32cd" stroke-dasharray="5,2" d="M220.25,-58.53C212.51,-45.95 202.39,-29.51 196.31,-19.63"/>
<polygon fill="#9a32cd" stroke="#9a32cd" points="217.38,-60.55 225.61,-67.23 223.35,-56.88 217.38,-60.55"/>
<text text-anchor="middle" x="219.5" y="-41" font-family="Helvetica,sans-Serif" font-size="10.00"> cf</text>
</g>
</g>
</svg>
