<?xml version="1.0" encoding="UTF-8" standalone="no"?>
<!DOCTYPE svg PUBLIC "-//W3C//DTD SVG 1.1//EN"
 "http://www.w3.org/Graphics/SVG/1.1/DTD/svg11.dtd">
<!-- Generated by graphviz version 2.43.0 (0)
 -->
<!-- Title: Library/include/playrho/d2/Sweep.hpp Pages: 1 -->
<svg width="1308pt" height="722pt"
 viewBox="0.00 0.00 1308.00 722.00" xmlns="http://www.w3.org/2000/svg" xmlns:xlink="http://www.w3.org/1999/xlink">
<g id="graph0" class="graph" transform="scale(1 1) rotate(0) translate(4 718)">
<title>Library/include/playrho/d2/Sweep.hpp</title>
<polygon fill="white" stroke="transparent" points="-4,4 -4,-718 1304,-718 1304,4 -4,4"/>
<!-- Node1 -->
<g id="node1" class="node">
<title>Node1</title>
<g id="a_node1"><a xlink:title="Definition of the Sweep class and closely related code.">
<polygon fill="#bfbfbf" stroke="black" points="743,-683.5 743,-713.5 871,-713.5 871,-683.5 743,-683.5"/>
<text text-anchor="start" x="751" y="-701.5" font-family="Helvetica,sans-Serif" font-size="10.00">Library/include/playrho</text>
<text text-anchor="middle" x="807" y="-690.5" font-family="Helvetica,sans-Serif" font-size="10.00">/d2/Sweep.hpp</text>
</a>
</g>
</g>
<!-- Node2 -->
<g id="node2" class="node">
<title>Node2</title>
<g id="a_node2"><a xlink:href="Settings_8hpp.html" target="_top" xlink:title="Types and default settings file.">
<polygon fill="white" stroke="black" points="750.5,-515.5 750.5,-534.5 867.5,-534.5 867.5,-515.5 750.5,-515.5"/>
<text text-anchor="middle" x="809" y="-522.5" font-family="Helvetica,sans-Serif" font-size="10.00">playrho/Settings.hpp</text>
</a>
</g>
</g>
<!-- Node1&#45;&gt;Node2 -->
<g id="edge1" class="edge">
<title>Node1&#45;&gt;Node2</title>
<path fill="none" stroke="midnightblue" d="M807.16,-683.47C807.52,-652.7 808.38,-579.33 808.78,-544.7"/>
<polygon fill="midnightblue" stroke="midnightblue" points="812.28,-544.6 808.9,-534.56 805.28,-544.52 812.28,-544.6"/>
</g>
<!-- Node33 -->
<g id="node33" class="node">
<title>Node33</title>
<g id="a_node33"><a xlink:href="Vector2_8hpp.html" target="_top" xlink:title="Definition of the Vector2 alias template and closely related code.">
<polygon fill="white" stroke="black" points="859,-571.5 859,-590.5 973,-590.5 973,-571.5 859,-571.5"/>
<text text-anchor="middle" x="916" y="-578.5" font-family="Helvetica,sans-Serif" font-size="10.00">playrho/Vector2.hpp</text>
</a>
</g>
</g>
<!-- Node1&#45;&gt;Node33 -->
<g id="edge50" class="edge">
<title>Node1&#45;&gt;Node33</title>
<path fill="none" stroke="midnightblue" d="M812.3,-683.5C818.59,-668.27 830.23,-643.85 846,-627 858.03,-614.15 874.47,-603.33 888.4,-595.53"/>
<polygon fill="midnightblue" stroke="midnightblue" points="890.39,-598.43 897.55,-590.62 887.08,-592.26 890.39,-598.43"/>
</g>
<!-- Node37 -->
<g id="node37" class="node">
<title>Node37</title>
<g id="a_node37"><a xlink:href="ZeroToUnderOne_8hpp.html" target="_top" xlink:title="Definition of the ZeroToUnderOne value checked types and related code.">
<polygon fill="white" stroke="black" points="27.5,-291.5 27.5,-310.5 186.5,-310.5 186.5,-291.5 27.5,-291.5"/>
<text text-anchor="middle" x="107" y="-298.5" font-family="Helvetica,sans-Serif" font-size="10.00">playrho/ZeroToUnderOne.hpp</text>
</a>
</g>
</g>
<!-- Node1&#45;&gt;Node37 -->
<g id="edge64" class="edge">
<title>Node1&#45;&gt;Node37</title>
<path fill="none" stroke="midnightblue" d="M742.98,-693.22C574.74,-681.13 133,-643.51 133,-582 133,-582 133,-582 133,-412 133,-378.93 121.73,-341.73 114.03,-320.17"/>
<polygon fill="midnightblue" stroke="midnightblue" points="117.27,-318.83 110.51,-310.68 110.71,-321.27 117.27,-318.83"/>
</g>
<!-- Node40 -->
<g id="node40" class="node">
<title>Node40</title>
<g id="a_node40"><a xlink:href="Position_8hpp.html" target="_top" xlink:title="Definition of the Position class and closely related code.">
<polygon fill="white" stroke="black" points="854.5,-627.5 854.5,-646.5 985.5,-646.5 985.5,-627.5 854.5,-627.5"/>
<text text-anchor="middle" x="920" y="-634.5" font-family="Helvetica,sans-Serif" font-size="10.00">playrho/d2/Position.hpp</text>
</a>
</g>
</g>
<!-- Node1&#45;&gt;Node40 -->
<g id="edge72" class="edge">
<title>Node1&#45;&gt;Node40</title>
<path fill="none" stroke="midnightblue" d="M833.78,-683.4C852.06,-673.77 876.15,-661.09 894.21,-651.58"/>
<polygon fill="midnightblue" stroke="midnightblue" points="896.34,-654.41 903.56,-646.66 893.08,-648.22 896.34,-654.41"/>
</g>
<!-- Node3 -->
<g id="node3" class="node">
<title>Node3</title>
<g id="a_node3"><a xlink:title=" ">
<polygon fill="white" stroke="#bfbfbf" points="837.5,-347.5 837.5,-366.5 890.5,-366.5 890.5,-347.5 837.5,-347.5"/>
<text text-anchor="middle" x="864" y="-354.5" font-family="Helvetica,sans-Serif" font-size="10.00">cstddef</text>
</a>
</g>
</g>
<!-- Node2&#45;&gt;Node3 -->
<g id="edge2" class="edge">
<title>Node2&#45;&gt;Node3</title>
<path fill="none" stroke="midnightblue" d="M811.96,-515.08C820.65,-488.83 846.26,-411.55 858,-376.12"/>
<polygon fill="midnightblue" stroke="midnightblue" points="861.34,-377.16 861.16,-366.57 854.69,-374.96 861.34,-377.16"/>
</g>
<!-- Node4 -->
<g id="node4" class="node">
<title>Node4</title>
<g id="a_node4"><a xlink:title=" ">
<polygon fill="white" stroke="#bfbfbf" points="1030,-168.5 1030,-187.5 1082,-187.5 1082,-168.5 1030,-168.5"/>
<text text-anchor="middle" x="1056" y="-175.5" font-family="Helvetica,sans-Serif" font-size="10.00">cassert</text>
</a>
</g>
</g>
<!-- Node2&#45;&gt;Node4 -->
<g id="edge3" class="edge">
<title>Node2&#45;&gt;Node4</title>
<path fill="none" stroke="midnightblue" d="M855.81,-515.49C879.93,-509.02 908.31,-497.88 928,-479 971.67,-437.11 1031.64,-256.07 1050.25,-197.41"/>
<polygon fill="midnightblue" stroke="midnightblue" points="1053.66,-198.26 1053.32,-187.67 1046.98,-196.16 1053.66,-198.26"/>
</g>
<!-- Node5 -->
<g id="node5" class="node">
<title>Node5</title>
<g id="a_node5"><a xlink:title=" ">
<polygon fill="white" stroke="#bfbfbf" points="875,-459.5 875,-478.5 919,-478.5 919,-459.5 875,-459.5"/>
<text text-anchor="middle" x="897" y="-466.5" font-family="Helvetica,sans-Serif" font-size="10.00">cfloat</text>
</a>
</g>
</g>
<!-- Node2&#45;&gt;Node5 -->
<g id="edge4" class="edge">
<title>Node2&#45;&gt;Node5</title>
<path fill="none" stroke="midnightblue" d="M823.14,-515.32C836.87,-506.9 857.94,-493.97 874.06,-484.07"/>
<polygon fill="midnightblue" stroke="midnightblue" points="876.2,-486.87 882.9,-478.65 872.54,-480.9 876.2,-486.87"/>
</g>
<!-- Node6 -->
<g id="node6" class="node">
<title>Node6</title>
<g id="a_node6"><a xlink:title=" ">
<polygon fill="white" stroke="#bfbfbf" points="243.5,-230 243.5,-249 290.5,-249 290.5,-230 243.5,-230"/>
<text text-anchor="middle" x="267" y="-237" font-family="Helvetica,sans-Serif" font-size="10.00">cmath</text>
</a>
</g>
</g>
<!-- Node2&#45;&gt;Node6 -->
<g id="edge5" class="edge">
<title>Node2&#45;&gt;Node6</title>
<path fill="none" stroke="midnightblue" d="M750.47,-522.53C621.9,-517.92 321.51,-499.06 262,-423 224.12,-374.59 246.5,-294.79 259.58,-258.94"/>
<polygon fill="midnightblue" stroke="midnightblue" points="262.96,-259.9 263.27,-249.31 256.42,-257.4 262.96,-259.9"/>
</g>
<!-- Node7 -->
<g id="node7" class="node">
<title>Node7</title>
<g id="a_node7"><a xlink:title=" ">
<polygon fill="white" stroke="#bfbfbf" points="442,-112.5 442,-131.5 492,-131.5 492,-112.5 442,-112.5"/>
<text text-anchor="middle" x="467" y="-119.5" font-family="Helvetica,sans-Serif" font-size="10.00">cstdint</text>
</a>
</g>
</g>
<!-- Node2&#45;&gt;Node7 -->
<g id="edge6" class="edge">
<title>Node2&#45;&gt;Node7</title>
<path fill="none" stroke="midnightblue" d="M804.46,-515.35C792.54,-493.45 758.23,-435.27 714,-403 619.02,-333.72 535.69,-405.68 466,-311 428.3,-259.78 448.57,-177.62 460.4,-141.29"/>
<polygon fill="midnightblue" stroke="midnightblue" points="463.8,-142.17 463.73,-131.57 457.18,-139.9 463.8,-142.17"/>
</g>
<!-- Node8 -->
<g id="node8" class="node">
<title>Node8</title>
<g id="a_node8"><a xlink:title=" ">
<polygon fill="white" stroke="#bfbfbf" points="1230,-0.5 1230,-19.5 1294,-19.5 1294,-0.5 1230,-0.5"/>
<text text-anchor="middle" x="1262" y="-7.5" font-family="Helvetica,sans-Serif" font-size="10.00">algorithm</text>
</a>
</g>
</g>
<!-- Node2&#45;&gt;Node8 -->
<g id="edge7" class="edge">
<title>Node2&#45;&gt;Node8</title>
<path fill="none" stroke="midnightblue" d="M867.81,-516.46C954.3,-502.36 1115.71,-464.07 1210,-367 1233.47,-342.84 1300,-234.65 1300,-179 1300,-179 1300,-179 1300,-121 1300,-86.81 1283.4,-49.76 1272.14,-28.57"/>
<polygon fill="midnightblue" stroke="midnightblue" points="1275.18,-26.83 1267.28,-19.77 1269.05,-30.22 1275.18,-26.83"/>
</g>
<!-- Node9 -->
<g id="node9" class="node">
<title>Node9</title>
<g id="a_node9"><a xlink:href="RealConstants_8hpp.html" target="_top" xlink:title="Definitions file for constant expressions of type Real.">
<polygon fill="white" stroke="black" points="557,-403.5 557,-422.5 705,-422.5 705,-403.5 557,-403.5"/>
<text text-anchor="middle" x="631" y="-410.5" font-family="Helvetica,sans-Serif" font-size="10.00">playrho/RealConstants.hpp</text>
</a>
</g>
</g>
<!-- Node2&#45;&gt;Node9 -->
<g id="edge8" class="edge">
<title>Node2&#45;&gt;Node9</title>
<path fill="none" stroke="midnightblue" d="M795.03,-515.37C764.36,-496.41 690.87,-451 653.56,-427.94"/>
<polygon fill="midnightblue" stroke="midnightblue" points="655.25,-424.87 644.9,-422.59 651.57,-430.83 655.25,-424.87"/>
</g>
<!-- Node16 -->
<g id="node16" class="node">
<title>Node16</title>
<g id="a_node16"><a xlink:href="Templates_8hpp.html" target="_top" xlink:title="Definitions of miscellaneous template related code.">
<polygon fill="white" stroke="black" points="923,-112.5 923,-131.5 1051,-131.5 1051,-112.5 923,-112.5"/>
<text text-anchor="middle" x="987" y="-119.5" font-family="Helvetica,sans-Serif" font-size="10.00">playrho/Templates.hpp</text>
</a>
</g>
</g>
<!-- Node2&#45;&gt;Node16 -->
<g id="edge42" class="edge">
<title>Node2&#45;&gt;Node16</title>
<path fill="none" stroke="midnightblue" d="M808.33,-515.47C806.61,-489.19 803.77,-407.51 829,-347 849.19,-298.57 870.66,-296.33 903,-255 926.06,-225.53 934.11,-219.7 954,-188 963.55,-172.77 972.66,-154.43 978.88,-141.12"/>
<polygon fill="midnightblue" stroke="midnightblue" points="982.22,-142.23 983.2,-131.68 975.86,-139.32 982.22,-142.23"/>
</g>
<!-- Node31 -->
<g id="node31" class="node">
<title>Node31</title>
<g id="a_node31"><a xlink:href="Units_8hpp.html" target="_top" xlink:title="Declarations for physical units possibly backed by strong types.">
<polygon fill="white" stroke="black" points="579.5,-459.5 579.5,-478.5 682.5,-478.5 682.5,-459.5 579.5,-459.5"/>
<text text-anchor="middle" x="631" y="-466.5" font-family="Helvetica,sans-Serif" font-size="10.00">playrho/Units.hpp</text>
</a>
</g>
</g>
<!-- Node2&#45;&gt;Node31 -->
<g id="edge43" class="edge">
<title>Node2&#45;&gt;Node31</title>
<path fill="none" stroke="midnightblue" d="M780.8,-515.44C750.59,-506.28 702.49,-491.69 668.97,-481.52"/>
<polygon fill="midnightblue" stroke="midnightblue" points="669.66,-478.07 659.07,-478.52 667.63,-484.77 669.66,-478.07"/>
</g>
<!-- Node32 -->
<g id="node32" class="node">
<title>Node32</title>
<g id="a_node32"><a xlink:href="WiderType_8hpp.html" target="_top" xlink:title="Definition of the WiderType alias template.">
<polygon fill="white" stroke="black" points="271,-403.5 271,-422.5 399,-422.5 399,-403.5 271,-403.5"/>
<text text-anchor="middle" x="335" y="-410.5" font-family="Helvetica,sans-Serif" font-size="10.00">playrho/WiderType.hpp</text>
</a>
</g>
</g>
<!-- Node2&#45;&gt;Node32 -->
<g id="edge48" class="edge">
<title>Node2&#45;&gt;Node32</title>
<path fill="none" stroke="midnightblue" d="M757.21,-515.47C708.83,-507.2 634.7,-493.77 571,-479 500.42,-462.64 419.18,-439.24 372.78,-425.43"/>
<polygon fill="midnightblue" stroke="midnightblue" points="373.73,-422.07 363.14,-422.56 371.72,-428.77 373.73,-422.07"/>
</g>
<!-- Node10 -->
<g id="node10" class="node">
<title>Node10</title>
<g id="a_node10"><a xlink:href="Defines_8hpp.html" target="_top" xlink:title="Miscellaneous C&#45;preprocessor definitions.">
<polygon fill="white" stroke="black" points="272,-112.5 272,-131.5 386,-131.5 386,-112.5 272,-112.5"/>
<text text-anchor="middle" x="329" y="-119.5" font-family="Helvetica,sans-Serif" font-size="10.00">playrho/Defines.hpp</text>
</a>
</g>
</g>
<!-- Node9&#45;&gt;Node10 -->
<g id="edge9" class="edge">
<title>Node9&#45;&gt;Node10</title>
<path fill="none" stroke="midnightblue" d="M612.19,-403.45C575.94,-386.8 494.15,-348.37 428,-311 387.64,-288.2 378.08,-281.45 340,-255 321.24,-241.97 320.06,-232.84 299,-224 248.87,-202.95 92.5,-229.18 57,-188 51.2,-181.27 51.25,-174.78 57,-168 70.15,-152.5 185.61,-137.75 261.82,-129.59"/>
<polygon fill="midnightblue" stroke="midnightblue" points="262.26,-133.06 271.83,-128.53 261.52,-126.1 262.26,-133.06"/>
</g>
<!-- Node11 -->
<g id="node11" class="node">
<title>Node11</title>
<g id="a_node11"><a xlink:href="Real_8hpp.html" target="_top" xlink:title="Real number definition file.">
<polygon fill="white" stroke="black" points="638.5,-347.5 638.5,-366.5 737.5,-366.5 737.5,-347.5 638.5,-347.5"/>
<text text-anchor="middle" x="688" y="-354.5" font-family="Helvetica,sans-Serif" font-size="10.00">playrho/Real.hpp</text>
</a>
</g>
</g>
<!-- Node9&#45;&gt;Node11 -->
<g id="edge10" class="edge">
<title>Node9&#45;&gt;Node11</title>
<path fill="none" stroke="midnightblue" d="M640.16,-403.32C648.5,-395.42 661.03,-383.55 671.18,-373.94"/>
<polygon fill="midnightblue" stroke="midnightblue" points="673.82,-376.25 678.68,-366.83 669.01,-371.17 673.82,-376.25"/>
</g>
<!-- Node12 -->
<g id="node12" class="node">
<title>Node12</title>
<g id="a_node12"><a xlink:href="Fixed_8hpp.html" target="_top" xlink:title="Definition of the Fixed class and closely related code.">
<polygon fill="white" stroke="black" points="638.5,-230 638.5,-249 741.5,-249 741.5,-230 638.5,-230"/>
<text text-anchor="middle" x="690" y="-237" font-family="Helvetica,sans-Serif" font-size="10.00">playrho/Fixed.hpp</text>
</a>
</g>
</g>
<!-- Node11&#45;&gt;Node12 -->
<g id="edge11" class="edge">
<title>Node11&#45;&gt;Node12</title>
<path fill="none" stroke="midnightblue" d="M716.02,-347.4C733.17,-340.51 753.75,-328.98 764,-311 777.7,-286.97 747.29,-266.07 721.4,-253.39"/>
<polygon fill="midnightblue" stroke="midnightblue" points="722.7,-250.14 712.16,-249.11 719.75,-256.49 722.7,-250.14"/>
</g>
<!-- Node29 -->
<g id="node29" class="node">
<title>Node29</title>
<g id="a_node29"><a xlink:href="FixedMath_8hpp.html" target="_top" xlink:title="Conventional math functions for the Fixed class template.">
<polygon fill="white" stroke="black" points="475,-291.5 475,-310.5 603,-310.5 603,-291.5 475,-291.5"/>
<text text-anchor="middle" x="539" y="-298.5" font-family="Helvetica,sans-Serif" font-size="10.00">playrho/FixedMath.hpp</text>
</a>
</g>
</g>
<!-- Node11&#45;&gt;Node29 -->
<g id="edge37" class="edge">
<title>Node11&#45;&gt;Node29</title>
<path fill="none" stroke="midnightblue" d="M664.39,-347.44C639.54,-338.44 600.23,-324.19 572.25,-314.05"/>
<polygon fill="midnightblue" stroke="midnightblue" points="573.09,-310.63 562.5,-310.52 570.71,-317.21 573.09,-310.63"/>
</g>
<!-- Node30 -->
<g id="node30" class="node">
<title>Node30</title>
<g id="a_node30"><a xlink:href="FixedLimits_8hpp.html" target="_top" xlink:title="Specialization of std::numeric_limits for Fixed.">
<polygon fill="white" stroke="black" points="621.5,-291.5 621.5,-310.5 754.5,-310.5 754.5,-291.5 621.5,-291.5"/>
<text text-anchor="middle" x="688" y="-298.5" font-family="Helvetica,sans-Serif" font-size="10.00">playrho/FixedLimits.hpp</text>
</a>
</g>
</g>
<!-- Node11&#45;&gt;Node30 -->
<g id="edge40" class="edge">
<title>Node11&#45;&gt;Node30</title>
<path fill="none" stroke="midnightblue" d="M688,-347.08C688,-340.01 688,-329.86 688,-320.99"/>
<polygon fill="midnightblue" stroke="midnightblue" points="691.5,-320.75 688,-310.75 684.5,-320.75 691.5,-320.75"/>
</g>
<!-- Node12&#45;&gt;Node4 -->
<g id="edge14" class="edge">
<title>Node12&#45;&gt;Node4</title>
<path fill="none" stroke="midnightblue" d="M741.66,-230.1C816.7,-217.9 954,-195.58 1019.44,-184.94"/>
<polygon fill="midnightblue" stroke="midnightblue" points="1020.37,-188.34 1029.68,-183.28 1019.24,-181.43 1020.37,-188.34"/>
</g>
<!-- Node12&#45;&gt;Node7 -->
<g id="edge12" class="edge">
<title>Node12&#45;&gt;Node7</title>
<path fill="none" stroke="midnightblue" d="M656.38,-229.96C604.97,-216.81 512.09,-192.62 506,-188 490.31,-176.09 479.63,-155.89 473.47,-141.16"/>
<polygon fill="midnightblue" stroke="midnightblue" points="476.65,-139.67 469.78,-131.6 470.12,-142.19 476.65,-139.67"/>
</g>
<!-- Node13 -->
<g id="node13" class="node">
<title>Node13</title>
<g id="a_node13"><a xlink:title=" ">
<polygon fill="white" stroke="#bfbfbf" points="899,-0.5 899,-19.5 943,-19.5 943,-0.5 899,-0.5"/>
<text text-anchor="middle" x="921" y="-7.5" font-family="Helvetica,sans-Serif" font-size="10.00">limits</text>
</a>
</g>
</g>
<!-- Node12&#45;&gt;Node13 -->
<g id="edge13" class="edge">
<title>Node12&#45;&gt;Node13</title>
<path fill="none" stroke="midnightblue" d="M741.82,-237C781.69,-233.08 835.46,-221.36 869,-188 912.28,-144.95 889.49,-114.48 907,-56 909.64,-47.17 912.67,-37.4 915.23,-29.22"/>
<polygon fill="midnightblue" stroke="midnightblue" points="918.6,-30.2 918.26,-19.61 911.92,-28.1 918.6,-30.2"/>
</g>
<!-- Node14 -->
<g id="node14" class="node">
<title>Node14</title>
<g id="a_node14"><a xlink:title=" ">
<polygon fill="white" stroke="#bfbfbf" points="418.5,-0.5 418.5,-19.5 487.5,-19.5 487.5,-0.5 418.5,-0.5"/>
<text text-anchor="middle" x="453" y="-7.5" font-family="Helvetica,sans-Serif" font-size="10.00">type_traits</text>
</a>
</g>
</g>
<!-- Node12&#45;&gt;Node14 -->
<g id="edge15" class="edge">
<title>Node12&#45;&gt;Node14</title>
<path fill="none" stroke="midnightblue" d="M662.11,-229.85C638.92,-221.69 605.96,-207.74 582,-188 524.84,-140.9 479.99,-63.01 461.8,-28.45"/>
<polygon fill="midnightblue" stroke="midnightblue" points="464.9,-26.83 457.21,-19.55 458.68,-30.04 464.9,-26.83"/>
</g>
<!-- Node15 -->
<g id="node15" class="node">
<title>Node15</title>
<g id="a_node15"><a xlink:title=" ">
<polygon fill="white" stroke="#bfbfbf" points="800,-168.5 800,-187.5 860,-187.5 860,-168.5 800,-168.5"/>
<text text-anchor="middle" x="830" y="-175.5" font-family="Helvetica,sans-Serif" font-size="10.00">iostream</text>
</a>
</g>
</g>
<!-- Node12&#45;&gt;Node15 -->
<g id="edge16" class="edge">
<title>Node12&#45;&gt;Node15</title>
<path fill="none" stroke="midnightblue" d="M710.06,-229.98C733.76,-219.9 773.41,-203.05 800.58,-191.5"/>
<polygon fill="midnightblue" stroke="midnightblue" points="802.14,-194.64 809.98,-187.51 799.41,-188.2 802.14,-194.64"/>
</g>
<!-- Node12&#45;&gt;Node16 -->
<g id="edge17" class="edge">
<title>Node12&#45;&gt;Node16</title>
<path fill="none" stroke="midnightblue" d="M741.69,-232.35C785.91,-225.67 850.39,-212.51 902,-188 928.58,-175.38 954.81,-153.49 970.94,-138.64"/>
<polygon fill="midnightblue" stroke="midnightblue" points="973.54,-141 978.41,-131.6 968.73,-135.91 973.54,-141"/>
</g>
<!-- Node21 -->
<g id="node21" class="node">
<title>Node21</title>
<g id="a_node21"><a xlink:href="TypeInfo_8hpp.html" target="_top" xlink:title="Definition of TypeID class and closely related code.">
<polygon fill="white" stroke="black" points="624.5,-168.5 624.5,-187.5 743.5,-187.5 743.5,-168.5 624.5,-168.5"/>
<text text-anchor="middle" x="684" y="-175.5" font-family="Helvetica,sans-Serif" font-size="10.00">playrho/TypeInfo.hpp</text>
</a>
</g>
</g>
<!-- Node12&#45;&gt;Node21 -->
<g id="edge25" class="edge">
<title>Node12&#45;&gt;Node21</title>
<path fill="none" stroke="midnightblue" d="M689.14,-229.98C688.29,-221.58 686.97,-208.48 685.88,-197.66"/>
<polygon fill="midnightblue" stroke="midnightblue" points="689.34,-197.11 684.86,-187.51 682.38,-197.81 689.34,-197.11"/>
</g>
<!-- Node28 -->
<g id="node28" class="node">
<title>Node28</title>
<g id="a_node28"><a xlink:href="Wider_8hpp.html" target="_top" xlink:title="Definition of the Wider class template and specializations.">
<polygon fill="white" stroke="black" points="280,-168.5 280,-187.5 416,-187.5 416,-168.5 280,-168.5"/>
<text text-anchor="middle" x="348" y="-175.5" font-family="Helvetica,sans-Serif" font-size="10.00">playrho/detail/Wider.hpp</text>
</a>
</g>
</g>
<!-- Node12&#45;&gt;Node28 -->
<g id="edge33" class="edge">
<title>Node12&#45;&gt;Node28</title>
<path fill="none" stroke="midnightblue" d="M656.78,-229.98C648.09,-227.89 638.72,-225.75 630,-224 559.15,-209.81 477.57,-197.19 420.44,-188.95"/>
<polygon fill="midnightblue" stroke="midnightblue" points="420.81,-185.47 410.42,-187.52 419.82,-192.4 420.81,-185.47"/>
</g>
<!-- Node17 -->
<g id="node17" class="node">
<title>Node17</title>
<g id="a_node17"><a xlink:href="detail_2Templates_8hpp.html" target="_top" xlink:title="Low&#45;level declarations for general class &amp; function templates.">
<polygon fill="white" stroke="black" points="916,-56.5 916,-75.5 1074,-75.5 1074,-56.5 916,-56.5"/>
<text text-anchor="middle" x="995" y="-63.5" font-family="Helvetica,sans-Serif" font-size="10.00">playrho/detail/Templates.hpp</text>
</a>
</g>
</g>
<!-- Node16&#45;&gt;Node17 -->
<g id="edge18" class="edge">
<title>Node16&#45;&gt;Node17</title>
<path fill="none" stroke="midnightblue" d="M988.32,-112.08C989.38,-104.93 990.91,-94.64 992.23,-85.69"/>
<polygon fill="midnightblue" stroke="midnightblue" points="995.7,-86.16 993.7,-75.75 988.78,-85.13 995.7,-86.16"/>
</g>
<!-- Node17&#45;&gt;Node8 -->
<g id="edge19" class="edge">
<title>Node17&#45;&gt;Node8</title>
<path fill="none" stroke="midnightblue" d="M1037.31,-56.44C1087.38,-46.32 1170.24,-29.56 1220.13,-19.47"/>
<polygon fill="midnightblue" stroke="midnightblue" points="1220.84,-22.9 1229.95,-17.48 1219.45,-16.03 1220.84,-22.9"/>
</g>
<!-- Node17&#45;&gt;Node13 -->
<g id="edge22" class="edge">
<title>Node17&#45;&gt;Node13</title>
<path fill="none" stroke="midnightblue" d="M983.11,-56.32C971.85,-48.11 954.71,-35.6 941.29,-25.81"/>
<polygon fill="midnightblue" stroke="midnightblue" points="943.25,-22.9 933.11,-19.83 939.12,-28.56 943.25,-22.9"/>
</g>
<!-- Node17&#45;&gt;Node14 -->
<g id="edge23" class="edge">
<title>Node17&#45;&gt;Node14</title>
<path fill="none" stroke="midnightblue" d="M915.9,-57.12C800.47,-45.62 589.65,-24.61 497.78,-15.46"/>
<polygon fill="midnightblue" stroke="midnightblue" points="498,-11.97 487.7,-14.46 497.3,-18.93 498,-11.97"/>
</g>
<!-- Node18 -->
<g id="node18" class="node">
<title>Node18</title>
<g id="a_node18"><a xlink:title=" ">
<polygon fill="white" stroke="#bfbfbf" points="1093.5,-0.5 1093.5,-19.5 1158.5,-19.5 1158.5,-0.5 1093.5,-0.5"/>
<text text-anchor="middle" x="1126" y="-7.5" font-family="Helvetica,sans-Serif" font-size="10.00">functional</text>
</a>
</g>
</g>
<!-- Node17&#45;&gt;Node18 -->
<g id="edge20" class="edge">
<title>Node17&#45;&gt;Node18</title>
<path fill="none" stroke="midnightblue" d="M1015.76,-56.44C1037.32,-47.56 1071.26,-33.56 1095.79,-23.45"/>
<polygon fill="midnightblue" stroke="midnightblue" points="1097.43,-26.56 1105.34,-19.52 1094.76,-20.09 1097.43,-26.56"/>
</g>
<!-- Node19 -->
<g id="node19" class="node">
<title>Node19</title>
<g id="a_node19"><a xlink:title=" ">
<polygon fill="white" stroke="#bfbfbf" points="995.5,-0.5 995.5,-19.5 1048.5,-19.5 1048.5,-0.5 995.5,-0.5"/>
<text text-anchor="middle" x="1022" y="-7.5" font-family="Helvetica,sans-Serif" font-size="10.00">iterator</text>
</a>
</g>
</g>
<!-- Node17&#45;&gt;Node19 -->
<g id="edge21" class="edge">
<title>Node17&#45;&gt;Node19</title>
<path fill="none" stroke="midnightblue" d="M999.46,-56.08C1003.15,-48.69 1008.52,-37.95 1013.09,-28.81"/>
<polygon fill="midnightblue" stroke="midnightblue" points="1016.28,-30.26 1017.62,-19.75 1010.02,-27.13 1016.28,-30.26"/>
</g>
<!-- Node20 -->
<g id="node20" class="node">
<title>Node20</title>
<g id="a_node20"><a xlink:title=" ">
<polygon fill="white" stroke="#bfbfbf" points="689.5,-0.5 689.5,-19.5 734.5,-19.5 734.5,-0.5 689.5,-0.5"/>
<text text-anchor="middle" x="712" y="-7.5" font-family="Helvetica,sans-Serif" font-size="10.00">utility</text>
</a>
</g>
</g>
<!-- Node17&#45;&gt;Node20 -->
<g id="edge24" class="edge">
<title>Node17&#45;&gt;Node20</title>
<path fill="none" stroke="midnightblue" d="M950.16,-56.44C892.97,-45.53 795.45,-26.92 744.76,-17.25"/>
<polygon fill="midnightblue" stroke="midnightblue" points="745.17,-13.77 734.69,-15.33 743.86,-20.64 745.17,-13.77"/>
</g>
<!-- Node21&#45;&gt;Node16 -->
<g id="edge27" class="edge">
<title>Node21&#45;&gt;Node16</title>
<path fill="none" stroke="midnightblue" d="M732.01,-168.44C785.53,-158.9 872.07,-143.48 929.24,-133.29"/>
<polygon fill="midnightblue" stroke="midnightblue" points="929.98,-136.72 939.21,-131.52 928.75,-129.83 929.98,-136.72"/>
</g>
<!-- Node22 -->
<g id="node22" class="node">
<title>Node22</title>
<g id="a_node22"><a xlink:title=" ">
<polygon fill="white" stroke="#bfbfbf" points="625,-112.5 625,-131.5 675,-131.5 675,-112.5 625,-112.5"/>
<text text-anchor="middle" x="650" y="-119.5" font-family="Helvetica,sans-Serif" font-size="10.00">cstring</text>
</a>
</g>
</g>
<!-- Node21&#45;&gt;Node22 -->
<g id="edge26" class="edge">
<title>Node21&#45;&gt;Node22</title>
<path fill="none" stroke="midnightblue" d="M678.39,-168.08C673.63,-160.53 666.68,-149.49 660.85,-140.23"/>
<polygon fill="midnightblue" stroke="midnightblue" points="663.8,-138.35 655.51,-131.75 657.88,-142.08 663.8,-138.35"/>
</g>
<!-- Node23 -->
<g id="node23" class="node">
<title>Node23</title>
<g id="a_node23"><a xlink:href="detail_2TypeInfo_8hpp.html" target="_top" xlink:title="Definition of TypeInfo class template and related code.">
<polygon fill="white" stroke="black" points="692.5,-112.5 692.5,-131.5 841.5,-131.5 841.5,-112.5 692.5,-112.5"/>
<text text-anchor="middle" x="767" y="-119.5" font-family="Helvetica,sans-Serif" font-size="10.00">playrho/detail/TypeInfo.hpp</text>
</a>
</g>
</g>
<!-- Node21&#45;&gt;Node23 -->
<g id="edge28" class="edge">
<title>Node21&#45;&gt;Node23</title>
<path fill="none" stroke="midnightblue" d="M697.34,-168.32C710.16,-159.98 729.78,-147.21 744.94,-137.35"/>
<polygon fill="midnightblue" stroke="midnightblue" points="747.22,-140.04 753.7,-131.65 743.41,-134.17 747.22,-140.04"/>
</g>
<!-- Node24 -->
<g id="node24" class="node">
<title>Node24</title>
<g id="a_node24"><a xlink:title=" ">
<polygon fill="white" stroke="#bfbfbf" points="816,-56.5 816,-75.5 860,-75.5 860,-56.5 816,-56.5"/>
<text text-anchor="middle" x="838" y="-63.5" font-family="Helvetica,sans-Serif" font-size="10.00">regex</text>
</a>
</g>
</g>
<!-- Node23&#45;&gt;Node24 -->
<g id="edge29" class="edge">
<title>Node23&#45;&gt;Node24</title>
<path fill="none" stroke="midnightblue" d="M778.41,-112.32C789.11,-104.18 805.34,-91.84 818.16,-82.09"/>
<polygon fill="midnightblue" stroke="midnightblue" points="820.54,-84.67 826.39,-75.83 816.31,-79.1 820.54,-84.67"/>
</g>
<!-- Node25 -->
<g id="node25" class="node">
<title>Node25</title>
<g id="a_node25"><a xlink:title=" ">
<polygon fill="white" stroke="#bfbfbf" points="595,-56.5 595,-75.5 639,-75.5 639,-56.5 595,-56.5"/>
<text text-anchor="middle" x="617" y="-63.5" font-family="Helvetica,sans-Serif" font-size="10.00">string</text>
</a>
</g>
</g>
<!-- Node23&#45;&gt;Node25 -->
<g id="edge30" class="edge">
<title>Node23&#45;&gt;Node25</title>
<path fill="none" stroke="midnightblue" d="M743.23,-112.44C717.66,-103.24 676.88,-88.56 648.62,-78.38"/>
<polygon fill="midnightblue" stroke="midnightblue" points="649.78,-75.08 639.19,-74.99 647.41,-81.67 649.78,-75.08"/>
</g>
<!-- Node26 -->
<g id="node26" class="node">
<title>Node26</title>
<g id="a_node26"><a xlink:title=" ">
<polygon fill="white" stroke="#bfbfbf" points="657.5,-56.5 657.5,-75.5 722.5,-75.5 722.5,-56.5 657.5,-56.5"/>
<text text-anchor="middle" x="690" y="-63.5" font-family="Helvetica,sans-Serif" font-size="10.00">typeindex</text>
</a>
</g>
</g>
<!-- Node23&#45;&gt;Node26 -->
<g id="edge31" class="edge">
<title>Node23&#45;&gt;Node26</title>
<path fill="none" stroke="midnightblue" d="M754.63,-112.32C742.84,-104.06 724.87,-91.45 710.86,-81.63"/>
<polygon fill="midnightblue" stroke="midnightblue" points="712.54,-78.53 702.34,-75.65 708.52,-84.26 712.54,-78.53"/>
</g>
<!-- Node27 -->
<g id="node27" class="node">
<title>Node27</title>
<g id="a_node27"><a xlink:title=" ">
<polygon fill="white" stroke="#bfbfbf" points="740.5,-56.5 740.5,-75.5 797.5,-75.5 797.5,-56.5 740.5,-56.5"/>
<text text-anchor="middle" x="769" y="-63.5" font-family="Helvetica,sans-Serif" font-size="10.00">typeinfo</text>
</a>
</g>
</g>
<!-- Node23&#45;&gt;Node27 -->
<g id="edge32" class="edge">
<title>Node23&#45;&gt;Node27</title>
<path fill="none" stroke="midnightblue" d="M767.33,-112.08C767.59,-105.01 767.97,-94.86 768.3,-85.99"/>
<polygon fill="midnightblue" stroke="midnightblue" points="771.8,-85.87 768.68,-75.75 764.81,-85.61 771.8,-85.87"/>
</g>
<!-- Node28&#45;&gt;Node7 -->
<g id="edge34" class="edge">
<title>Node28&#45;&gt;Node7</title>
<path fill="none" stroke="midnightblue" d="M366.86,-168.44C386.27,-159.64 416.73,-145.81 438.96,-135.72"/>
<polygon fill="midnightblue" stroke="midnightblue" points="440.57,-138.84 448.23,-131.52 437.68,-132.46 440.57,-138.84"/>
</g>
<!-- Node28&#45;&gt;Node10 -->
<g id="edge36" class="edge">
<title>Node28&#45;&gt;Node10</title>
<path fill="none" stroke="midnightblue" d="M344.86,-168.08C342.32,-160.85 338.64,-150.41 335.47,-141.4"/>
<polygon fill="midnightblue" stroke="midnightblue" points="338.7,-140.02 332.08,-131.75 332.1,-142.35 338.7,-140.02"/>
</g>
<!-- Node28&#45;&gt;Node14 -->
<g id="edge35" class="edge">
<title>Node28&#45;&gt;Node14</title>
<path fill="none" stroke="midnightblue" d="M359.18,-168.3C369.47,-159.86 384.66,-146.27 395,-132 419.05,-98.81 437.44,-54.08 446.59,-29.35"/>
<polygon fill="midnightblue" stroke="midnightblue" points="449.94,-30.39 450.03,-19.79 443.35,-28.02 449.94,-30.39"/>
</g>
<!-- Node29&#45;&gt;Node6 -->
<g id="edge38" class="edge">
<title>Node29&#45;&gt;Node6</title>
<path fill="none" stroke="midnightblue" d="M500.03,-291.48C446.54,-279.78 351.28,-258.94 300.71,-247.87"/>
<polygon fill="midnightblue" stroke="midnightblue" points="301.15,-244.39 290.63,-245.67 299.65,-251.23 301.15,-244.39"/>
</g>
<!-- Node29&#45;&gt;Node12 -->
<g id="edge39" class="edge">
<title>Node29&#45;&gt;Node12</title>
<path fill="none" stroke="midnightblue" d="M560.63,-291.48C586.42,-281.31 629.71,-264.26 659.04,-252.7"/>
<polygon fill="midnightblue" stroke="midnightblue" points="660.38,-255.93 668.41,-249.01 657.82,-249.42 660.38,-255.93"/>
</g>
<!-- Node30&#45;&gt;Node12 -->
<g id="edge41" class="edge">
<title>Node30&#45;&gt;Node12</title>
<path fill="none" stroke="midnightblue" d="M688.29,-291.48C688.57,-283.08 689.01,-269.98 689.37,-259.16"/>
<polygon fill="midnightblue" stroke="midnightblue" points="692.88,-259.12 689.71,-249.01 685.88,-258.89 692.88,-259.12"/>
</g>
<!-- Node31&#45;&gt;Node6 -->
<g id="edge44" class="edge">
<title>Node31&#45;&gt;Node6</title>
<path fill="none" stroke="midnightblue" d="M602.06,-459.43C523.26,-436.03 310.44,-372.48 305,-367 275.9,-337.65 268.94,-286.92 267.37,-259.46"/>
<polygon fill="midnightblue" stroke="midnightblue" points="270.86,-259.11 266.98,-249.25 263.86,-259.38 270.86,-259.11"/>
</g>
<!-- Node31&#45;&gt;Node9 -->
<g id="edge46" class="edge">
<title>Node31&#45;&gt;Node9</title>
<path fill="none" stroke="midnightblue" d="M631,-459.08C631,-452.01 631,-441.86 631,-432.99"/>
<polygon fill="midnightblue" stroke="midnightblue" points="634.5,-432.75 631,-422.75 627.5,-432.75 634.5,-432.75"/>
</g>
<!-- Node31&#45;&gt;Node14 -->
<g id="edge45" class="edge">
<title>Node31&#45;&gt;Node14</title>
<path fill="none" stroke="midnightblue" d="M579.28,-466.7C506.99,-463.77 372.22,-454.2 262,-423 125.46,-384.35 0,-382.41 0,-240.5 0,-240.5 0,-240.5 0,-121 0,-37.61 293.52,-17.2 408.02,-12.4"/>
<polygon fill="midnightblue" stroke="midnightblue" points="408.35,-15.89 418.21,-12 408.07,-8.9 408.35,-15.89"/>
</g>
<!-- Node31&#45;&gt;Node16 -->
<g id="edge47" class="edge">
<title>Node31&#45;&gt;Node16</title>
<path fill="none" stroke="midnightblue" d="M650.87,-459.47C668.41,-451.44 694.19,-438.37 714,-423 774.07,-376.39 927.06,-194.95 973.45,-139.31"/>
<polygon fill="midnightblue" stroke="midnightblue" points="976.25,-141.43 979.96,-131.5 970.87,-136.95 976.25,-141.43"/>
</g>
<!-- Node32&#45;&gt;Node28 -->
<g id="edge49" class="edge">
<title>Node32&#45;&gt;Node28</title>
<path fill="none" stroke="midnightblue" d="M335.48,-403.43C337.36,-369.75 344.26,-245.99 346.93,-198.1"/>
<polygon fill="midnightblue" stroke="midnightblue" points="350.44,-198.08 347.5,-187.9 343.45,-197.69 350.44,-198.08"/>
</g>
<!-- Node33&#45;&gt;Node2 -->
<g id="edge51" class="edge">
<title>Node33&#45;&gt;Node2</title>
<path fill="none" stroke="midnightblue" d="M898.81,-571.32C881.65,-562.66 855.05,-549.24 835.25,-539.25"/>
<polygon fill="midnightblue" stroke="midnightblue" points="836.65,-536.04 826.15,-534.65 833.5,-542.28 836.65,-536.04"/>
</g>
<!-- Node34 -->
<g id="node34" class="node">
<title>Node34</title>
<g id="a_node34"><a xlink:href="Vector_8hpp.html" target="_top" xlink:title="Definition of the Vector class template and closely related code.">
<polygon fill="white" stroke="black" points="985.5,-403.5 985.5,-422.5 1092.5,-422.5 1092.5,-403.5 985.5,-403.5"/>
<text text-anchor="middle" x="1039" y="-410.5" font-family="Helvetica,sans-Serif" font-size="10.00">playrho/Vector.hpp</text>
</a>
</g>
</g>
<!-- Node33&#45;&gt;Node34 -->
<g id="edge52" class="edge">
<title>Node33&#45;&gt;Node34</title>
<path fill="none" stroke="midnightblue" d="M922.61,-571.08C942.31,-544.49 1000.81,-465.54 1026.58,-430.76"/>
<polygon fill="midnightblue" stroke="midnightblue" points="1029.51,-432.69 1032.65,-422.57 1023.89,-428.52 1029.51,-432.69"/>
</g>
<!-- Node34&#45;&gt;Node3 -->
<g id="edge54" class="edge">
<title>Node34&#45;&gt;Node3</title>
<path fill="none" stroke="midnightblue" d="M1011.27,-403.44C981.31,-394.2 933.45,-379.43 900.46,-369.25"/>
<polygon fill="midnightblue" stroke="midnightblue" points="901.33,-365.85 890.74,-366.25 899.26,-372.54 901.33,-365.85"/>
</g>
<!-- Node34&#45;&gt;Node4 -->
<g id="edge53" class="edge">
<title>Node34&#45;&gt;Node4</title>
<path fill="none" stroke="midnightblue" d="M1039.63,-403.43C1042.08,-369.75 1051.11,-245.99 1054.61,-198.1"/>
<polygon fill="midnightblue" stroke="midnightblue" points="1058.11,-198.12 1055.35,-187.9 1051.13,-197.61 1058.11,-198.12"/>
</g>
<!-- Node34&#45;&gt;Node8 -->
<g id="edge57" class="edge">
<title>Node34&#45;&gt;Node8</title>
<path fill="none" stroke="midnightblue" d="M1058.4,-403.34C1112.65,-377.66 1262,-296.3 1262,-179 1262,-179 1262,-179 1262,-121 1262,-88.95 1262,-51.64 1262,-29.75"/>
<polygon fill="midnightblue" stroke="midnightblue" points="1265.5,-29.56 1262,-19.56 1258.5,-29.56 1265.5,-29.56"/>
</g>
<!-- Node34&#45;&gt;Node11 -->
<g id="edge62" class="edge">
<title>Node34&#45;&gt;Node11</title>
<path fill="none" stroke="midnightblue" d="M985.31,-403.74C921.19,-393.88 814.28,-377.43 747.64,-367.18"/>
<polygon fill="midnightblue" stroke="midnightblue" points="748.13,-363.71 737.71,-365.65 747.06,-370.63 748.13,-363.71"/>
</g>
<!-- Node34&#45;&gt;Node14 -->
<g id="edge55" class="edge">
<title>Node34&#45;&gt;Node14</title>
<path fill="none" stroke="midnightblue" d="M1027.07,-403.48C980.57,-370.37 810.99,-250.75 751,-224 694.29,-198.71 669.04,-220.29 616,-188 548.27,-146.78 550.06,-114 496,-56 486.96,-46.3 476.7,-35.55 468.47,-26.99"/>
<polygon fill="midnightblue" stroke="midnightblue" points="470.77,-24.34 461.31,-19.57 465.73,-29.19 470.77,-24.34"/>
</g>
<!-- Node34&#45;&gt;Node15 -->
<g id="edge59" class="edge">
<title>Node34&#45;&gt;Node15</title>
<path fill="none" stroke="midnightblue" d="M1031.31,-403.43C1000.53,-369.11 885.84,-241.25 844.76,-195.45"/>
<polygon fill="midnightblue" stroke="midnightblue" points="847.26,-193 837.98,-187.9 842.05,-197.68 847.26,-193"/>
</g>
<!-- Node34&#45;&gt;Node16 -->
<g id="edge63" class="edge">
<title>Node34&#45;&gt;Node16</title>
<path fill="none" stroke="midnightblue" d="M1043.1,-403.21C1047.14,-394.27 1053.23,-379.92 1057,-367 1082.15,-280.87 1140.26,-242.99 1091,-168 1080.43,-151.91 1062.74,-141.54 1044.92,-134.88"/>
<polygon fill="midnightblue" stroke="midnightblue" points="1045.64,-131.43 1035.05,-131.54 1043.4,-138.06 1045.64,-131.43"/>
</g>
<!-- Node34&#45;&gt;Node18 -->
<g id="edge58" class="edge">
<title>Node34&#45;&gt;Node18</title>
<path fill="none" stroke="midnightblue" d="M1092.51,-403.56C1147.15,-391.53 1224,-363.66 1224,-302 1224,-302 1224,-302 1224,-121 1224,-77.38 1180.51,-43.06 1151.47,-25.01"/>
<polygon fill="midnightblue" stroke="midnightblue" points="1153,-21.85 1142.62,-19.73 1149.42,-27.86 1153,-21.85"/>
</g>
<!-- Node34&#45;&gt;Node19 -->
<g id="edge56" class="edge">
<title>Node34&#45;&gt;Node19</title>
<path fill="none" stroke="midnightblue" d="M1055.01,-403.39C1093.11,-381.6 1186,-320.3 1186,-240.5 1186,-240.5 1186,-240.5 1186,-121 1186,-60.03 1106.85,-30.68 1058.52,-18.45"/>
<polygon fill="midnightblue" stroke="midnightblue" points="1059.26,-15.03 1048.71,-16.09 1057.62,-21.83 1059.26,-15.03"/>
</g>
<!-- Node35 -->
<g id="node35" class="node">
<title>Node35</title>
<g id="a_node35"><a xlink:href="InvalidArgument_8hpp.html" target="_top" xlink:title="Definition of the InvalidArgument class.">
<polygon fill="white" stroke="black" points="66,-168.5 66,-187.5 224,-187.5 224,-168.5 66,-168.5"/>
<text text-anchor="middle" x="145" y="-175.5" font-family="Helvetica,sans-Serif" font-size="10.00">playrho/InvalidArgument.hpp</text>
</a>
</g>
</g>
<!-- Node34&#45;&gt;Node35 -->
<g id="edge60" class="edge">
<title>Node34&#45;&gt;Node35</title>
<path fill="none" stroke="midnightblue" d="M985.45,-409.85C906.72,-405.86 755.5,-394.98 630,-367 554.82,-350.24 535.21,-344.79 466,-311 402.53,-280.01 397.86,-251.97 333,-224 294.83,-207.54 249.59,-196.48 213.05,-189.44"/>
<polygon fill="midnightblue" stroke="midnightblue" points="213.46,-185.95 202.99,-187.56 212.18,-192.83 213.46,-185.95"/>
</g>
<!-- Node36 -->
<g id="node36" class="node">
<title>Node36</title>
<g id="a_node36"><a xlink:title=" ">
<polygon fill="white" stroke="#bfbfbf" points="112.5,-112.5 112.5,-131.5 177.5,-131.5 177.5,-112.5 112.5,-112.5"/>
<text text-anchor="middle" x="145" y="-119.5" font-family="Helvetica,sans-Serif" font-size="10.00">stdexcept</text>
</a>
</g>
</g>
<!-- Node35&#45;&gt;Node36 -->
<g id="edge61" class="edge">
<title>Node35&#45;&gt;Node36</title>
<path fill="none" stroke="midnightblue" d="M145,-168.08C145,-161.01 145,-150.86 145,-141.99"/>
<polygon fill="midnightblue" stroke="midnightblue" points="148.5,-141.75 145,-131.75 141.5,-141.75 148.5,-141.75"/>
</g>
<!-- Node38 -->
<g id="node38" class="node">
<title>Node38</title>
<g id="a_node38"><a xlink:href="Checked_8hpp.html" target="_top" xlink:title="Declarations of the Checked class template and closely related code.">
<polygon fill="white" stroke="black" points="471.5,-230 471.5,-249 620.5,-249 620.5,-230 471.5,-230"/>
<text text-anchor="middle" x="546" y="-237" font-family="Helvetica,sans-Serif" font-size="10.00">playrho/detail/Checked.hpp</text>
</a>
</g>
</g>
<!-- Node37&#45;&gt;Node38 -->
<g id="edge65" class="edge">
<title>Node37&#45;&gt;Node38</title>
<path fill="none" stroke="midnightblue" d="M169.9,-291.48C250.09,-280.61 388.48,-261.85 473.16,-250.37"/>
<polygon fill="midnightblue" stroke="midnightblue" points="473.78,-253.82 483.22,-249.01 472.84,-246.88 473.78,-253.82"/>
</g>
<!-- Node39 -->
<g id="node39" class="node">
<title>Node39</title>
<g id="a_node39"><a xlink:href="ZeroToUnderOneChecker_8hpp.html" target="_top" xlink:title="Definition of the ZeroToUnderOneChecker class template.">
<polygon fill="white" stroke="black" points="32.5,-224.5 32.5,-254.5 181.5,-254.5 181.5,-224.5 32.5,-224.5"/>
<text text-anchor="start" x="40.5" y="-242.5" font-family="Helvetica,sans-Serif" font-size="10.00">playrho/detail/ZeroToUnder</text>
<text text-anchor="middle" x="107" y="-231.5" font-family="Helvetica,sans-Serif" font-size="10.00">OneChecker.hpp</text>
</a>
</g>
</g>
<!-- Node37&#45;&gt;Node39 -->
<g id="edge71" class="edge">
<title>Node37&#45;&gt;Node39</title>
<path fill="none" stroke="midnightblue" d="M107,-291.48C107,-284.47 107,-274.19 107,-264.7"/>
<polygon fill="midnightblue" stroke="midnightblue" points="110.5,-264.52 107,-254.52 103.5,-264.52 110.5,-264.52"/>
</g>
<!-- Node38&#45;&gt;Node14 -->
<g id="edge67" class="edge">
<title>Node38&#45;&gt;Node14</title>
<path fill="none" stroke="midnightblue" d="M476.21,-229.96C399.48,-219.91 285.15,-202.72 271,-188 247.47,-163.51 245.51,-141.11 263,-112 294.4,-59.76 362.95,-33.08 408.55,-20.6"/>
<polygon fill="midnightblue" stroke="midnightblue" points="409.68,-23.92 418.47,-18.01 407.91,-17.15 409.68,-23.92"/>
</g>
<!-- Node38&#45;&gt;Node15 -->
<g id="edge66" class="edge">
<title>Node38&#45;&gt;Node15</title>
<path fill="none" stroke="midnightblue" d="M586.69,-229.98C640.87,-218.62 736.1,-198.67 789.95,-187.39"/>
<polygon fill="midnightblue" stroke="midnightblue" points="790.76,-190.8 799.83,-185.32 789.32,-183.95 790.76,-190.8"/>
</g>
<!-- Node38&#45;&gt;Node16 -->
<g id="edge70" class="edge">
<title>Node38&#45;&gt;Node16</title>
<path fill="none" stroke="midnightblue" d="M595.54,-229.96C638.13,-221.79 700.76,-207.78 753,-188 770.85,-181.24 773.11,-174.64 791,-168 833.67,-152.18 883.7,-140.8 922.54,-133.45"/>
<polygon fill="midnightblue" stroke="midnightblue" points="923.47,-136.83 932.67,-131.57 922.2,-129.95 923.47,-136.83"/>
</g>
<!-- Node38&#45;&gt;Node20 -->
<g id="edge68" class="edge">
<title>Node38&#45;&gt;Node20</title>
<path fill="none" stroke="midnightblue" d="M545.2,-229.98C543.03,-201.49 539.92,-108.35 586,-56 609.65,-29.13 650.47,-18.31 679.23,-13.94"/>
<polygon fill="midnightblue" stroke="midnightblue" points="679.78,-17.4 689.23,-12.61 678.85,-10.46 679.78,-17.4"/>
</g>
<!-- Node38&#45;&gt;Node35 -->
<g id="edge69" class="edge">
<title>Node38&#45;&gt;Node35</title>
<path fill="none" stroke="midnightblue" d="M488.55,-229.98C415.59,-219.15 289.91,-200.5 212.48,-189.01"/>
<polygon fill="midnightblue" stroke="midnightblue" points="212.75,-185.51 202.35,-187.51 211.72,-192.44 212.75,-185.51"/>
</g>
<!-- Node40&#45;&gt;Node2 -->
<g id="edge73" class="edge">
<title>Node40&#45;&gt;Node2</title>
<path fill="none" stroke="midnightblue" d="M902.38,-627.48C887.24,-619.53 865.46,-606.59 850,-591 836.24,-577.12 824.81,-557.85 817.54,-543.9"/>
<polygon fill="midnightblue" stroke="midnightblue" points="820.61,-542.21 813.01,-534.83 814.35,-545.34 820.61,-542.21"/>
</g>
<!-- Node40&#45;&gt;Node16 -->
<g id="edge74" class="edge">
<title>Node40&#45;&gt;Node16</title>
<path fill="none" stroke="midnightblue" d="M985.75,-636.07C1064.52,-632.29 1186,-612.45 1186,-526 1186,-526 1186,-526 1186,-412 1186,-298.42 1188.33,-250.25 1110,-168 1094.23,-151.44 1071.86,-140.94 1050.51,-134.3"/>
<polygon fill="midnightblue" stroke="midnightblue" points="1051.38,-130.91 1040.8,-131.52 1049.45,-137.64 1051.38,-130.91"/>
</g>
<!-- Node40&#45;&gt;Node33 -->
<g id="edge75" class="edge">
<title>Node40&#45;&gt;Node33</title>
<path fill="none" stroke="midnightblue" d="M919.34,-627.08C918.82,-620.01 918.06,-609.86 917.41,-600.99"/>
<polygon fill="midnightblue" stroke="midnightblue" points="920.88,-600.47 916.65,-590.75 913.9,-600.98 920.88,-600.47"/>
</g>
</g>
</svg>
