<?xml version="1.0" encoding="UTF-8" standalone="no"?>
<!DOCTYPE svg PUBLIC "-//W3C//DTD SVG 1.1//EN"
 "http://www.w3.org/Graphics/SVG/1.1/DTD/svg11.dtd">
<!-- Generated by graphviz version 2.43.0 (0)
 -->
<!-- Title: Library/include/playrho/to_underlying.hpp Pages: 1 -->
<svg width="147pt" height="162pt"
 viewBox="0.00 0.00 147.00 162.00" xmlns="http://www.w3.org/2000/svg" xmlns:xlink="http://www.w3.org/1999/xlink">
<g id="graph0" class="graph" transform="scale(1 1) rotate(0) translate(4 158)">
<title>Library/include/playrho/to_underlying.hpp</title>
<polygon fill="white" stroke="transparent" points="-4,4 -4,-158 143,-158 143,4 -4,4"/>
<!-- Node1 -->
<g id="node1" class="node">
<title>Node1</title>
<g id="a_node1"><a xlink:title="Definition of to_underlying function template.">
<polygon fill="#bfbfbf" stroke="black" points="5.5,-123.5 5.5,-153.5 133.5,-153.5 133.5,-123.5 5.5,-123.5"/>
<text text-anchor="start" x="13.5" y="-141.5" font-family="Helvetica,sans-Serif" font-size="10.00">Library/include/playrho</text>
<text text-anchor="middle" x="69.5" y="-130.5" font-family="Helvetica,sans-Serif" font-size="10.00">/to_underlying.hpp</text>
</a>
</g>
</g>
<!-- Node2 -->
<g id="node2" class="node">
<title>Node2</title>
<g id="a_node2"><a xlink:href="underlying__type_8hpp.html" target="_top" xlink:title="Definition of underlying_type trait class and related code.">
<polygon fill="white" stroke="black" points="0,-56.5 0,-86.5 139,-86.5 139,-56.5 0,-56.5"/>
<text text-anchor="start" x="8" y="-74.5" font-family="Helvetica,sans-Serif" font-size="10.00">playrho/detail/underlying</text>
<text text-anchor="middle" x="69.5" y="-63.5" font-family="Helvetica,sans-Serif" font-size="10.00">_type.hpp</text>
</a>
</g>
</g>
<!-- Node1&#45;&gt;Node2 -->
<g id="edge1" class="edge">
<title>Node1&#45;&gt;Node2</title>
<path fill="none" stroke="midnightblue" d="M69.5,-123.4C69.5,-115.64 69.5,-105.81 69.5,-96.86"/>
<polygon fill="midnightblue" stroke="midnightblue" points="73,-96.58 69.5,-86.58 66,-96.58 73,-96.58"/>
</g>
<!-- Node3 -->
<g id="node3" class="node">
<title>Node3</title>
<g id="a_node3"><a xlink:title=" ">
<polygon fill="white" stroke="#bfbfbf" points="35,-0.5 35,-19.5 104,-19.5 104,-0.5 35,-0.5"/>
<text text-anchor="middle" x="69.5" y="-7.5" font-family="Helvetica,sans-Serif" font-size="10.00">type_traits</text>
</a>
</g>
</g>
<!-- Node2&#45;&gt;Node3 -->
<g id="edge2" class="edge">
<title>Node2&#45;&gt;Node3</title>
<path fill="none" stroke="midnightblue" d="M69.5,-56.4C69.5,-48.47 69.5,-38.46 69.5,-29.86"/>
<polygon fill="midnightblue" stroke="midnightblue" points="73,-29.66 69.5,-19.66 66,-29.66 73,-29.66"/>
</g>
</g>
</svg>
