<?xml version="1.0" encoding="UTF-8" standalone="no"?>
<!DOCTYPE svg PUBLIC "-//W3C//DTD SVG 1.1//EN"
 "http://www.w3.org/Graphics/SVG/1.1/DTD/svg11.dtd">
<!-- Generated by graphviz version 2.43.0 (0)
 -->
<!-- Title: Library/include/playrho/ToiConf.hpp Pages: 1 -->
<!--zoomable 453 -->
<svg id="main" version="1.1" xmlns="http://www.w3.org/2000/svg" xmlns:xlink="http://www.w3.org/1999/xlink" xml:space="preserve" onload="init(evt)">
<style type="text/css"><![CDATA[
.edge:hover path { stroke: red; }
.edge:hover polygon { stroke: red; fill: red; }
]]></style>
<script type="text/javascript"><![CDATA[
var edges = document.getElementsByTagName('g');
if (edges && edges.length) {
  for (var i=0;i<edges.length;i++) {
    if (edges[i].id.substr(0,4)=='edge') {
      edges[i].setAttribute('class','edge');
    }
  }
}
]]></script>
        <defs>
                <circle id="rim" cx="0" cy="0" r="7"/>
                <circle id="rim2" cx="0" cy="0" r="3.5"/>
                <g id="zoomPlus">
                        <use xlink:href="#rim" fill="#404040">
                                <set attributeName="fill" to="#808080" begin="zoomplus.mouseover" end="zoomplus.mouseout"/>
                        </use>
                        <path d="M-4,0h8M0,-4v8" fill="none" stroke="white" stroke-width="1.5" pointer-events="none"/>
                </g>
                <g id="zoomMin">
                        <use xlink:href="#rim" fill="#404040">
                                <set attributeName="fill" to="#808080" begin="zoomminus.mouseover" end="zoomminus.mouseout"/>
                        </use>
                        <path d="M-4,0h8" fill="none" stroke="white" stroke-width="1.5" pointer-events="none"/>
                </g>
                <g id="dirArrow">
                        <path fill="none" stroke="white" stroke-width="1.5" d="M0,-3.0v7 M-2.5,-0.5L0,-3.0L2.5,-0.5"/>
                </g>
               <g id="resetDef">
                       <use xlink:href="#rim2" fill="#404040">
                               <set attributeName="fill" to="#808080" begin="reset.mouseover" end="reset.mouseout"/>
                       </use>
               </g>
        </defs>

<script type="text/javascript">
var viewWidth = 1501;
var viewHeight = 453;
var sectionId = 'dynsection-0';
</script>
<script xlink:href="svgpan.js"/>
<svg id="graph" class="graph">
<g id="viewport">
<title>Library/include/playrho/ToiConf.hpp</title>
<polygon fill="white" stroke="transparent" points="-4,4 -4,-449 1496.5,-449 1496.5,4 -4,4"/>
<!-- Node1 -->
<g id="node1" class="node">
<title>Node1</title>
<g id="a_node1"><a xlink:title="Definitions of ToiConf class and closely related code.">
<polygon fill="#bfbfbf" stroke="black" points="672.5,-414.5 672.5,-444.5 800.5,-444.5 800.5,-414.5 672.5,-414.5"/>
<text text-anchor="start" x="680.5" y="-432.5" font-family="Helvetica,sans-Serif" font-size="10.00">Library/include/playrho</text>
<text text-anchor="middle" x="736.5" y="-421.5" font-family="Helvetica,sans-Serif" font-size="10.00">/ToiConf.hpp</text>
</a>
</g>
</g>
<!-- Node2 -->
<g id="node2" class="node">
<title>Node2</title>
<g id="a_node2"><a xlink:title=" ">
<polygon fill="white" stroke="#bfbfbf" points="691,-0.5 691,-19.5 760,-19.5 760,-0.5 691,-0.5"/>
<text text-anchor="middle" x="725.5" y="-7.5" font-family="Helvetica,sans-Serif" font-size="10.00">type_traits</text>
</a>
</g>
</g>
<!-- Node1&#45;&gt;Node2 -->
<g id="edge1" class="edge">
<title>Node1&#45;&gt;Node2</title>
<path fill="none" stroke="midnightblue" d="M718.7,-414.27C688.12,-388.54 626.67,-330.89 603.5,-266 591.45,-232.27 527.59,-276.2 605.5,-112 624.88,-71.15 669.6,-40.81 698.64,-24.52"/>
<polygon fill="midnightblue" stroke="midnightblue" points="700.34,-27.58 707.46,-19.73 697,-21.43 700.34,-27.58"/>
</g>
<!-- Node3 -->
<g id="node3" class="node">
<title>Node3</title>
<g id="a_node3"><a xlink:href="NonNegative_8hpp.html" target="_top" xlink:title="Definition of the NonNegative value checked types.">
<polygon fill="white" stroke="black" points="160,-246.5 160,-265.5 301,-265.5 301,-246.5 160,-246.5"/>
<text text-anchor="middle" x="230.5" y="-253.5" font-family="Helvetica,sans-Serif" font-size="10.00">playrho/NonNegative.hpp</text>
</a>
</g>
</g>
<!-- Node1&#45;&gt;Node3 -->
<g id="edge2" class="edge">
<title>Node1&#45;&gt;Node3</title>
<path fill="none" stroke="midnightblue" d="M674.49,-414.41C635.9,-405.16 585.43,-392.18 541.5,-378 435.88,-343.91 314.17,-293.08 259.61,-269.65"/>
<polygon fill="midnightblue" stroke="midnightblue" points="260.79,-266.35 250.22,-265.61 258.02,-272.78 260.79,-266.35"/>
</g>
<!-- Node16 -->
<g id="node16" class="node">
<title>Node16</title>
<g id="a_node16"><a xlink:href="Real_8hpp.html" target="_top" xlink:title="Real number definition file.">
<polygon fill="white" stroke="black" points="1029,-185 1029,-204 1128,-204 1128,-185 1029,-185"/>
<text text-anchor="middle" x="1078.5" y="-192" font-family="Helvetica,sans-Serif" font-size="10.00">playrho/Real.hpp</text>
</a>
</g>
</g>
<!-- Node1&#45;&gt;Node16 -->
<g id="edge21" class="edge">
<title>Node1&#45;&gt;Node16</title>
<path fill="none" stroke="midnightblue" d="M800.79,-421.79C888.4,-408.79 1042.28,-371.43 1111.5,-266 1123.01,-248.46 1108.43,-226.27 1095.16,-211.51"/>
<polygon fill="midnightblue" stroke="midnightblue" points="1097.55,-208.95 1088.1,-204.16 1092.5,-213.8 1097.55,-208.95"/>
</g>
<!-- Node18 -->
<g id="node18" class="node">
<title>Node18</title>
<g id="a_node18"><a xlink:href="Settings_8hpp.html" target="_top" xlink:title="Types and default settings file.">
<polygon fill="white" stroke="black" points="1134,-358.5 1134,-377.5 1251,-377.5 1251,-358.5 1134,-358.5"/>
<text text-anchor="middle" x="1192.5" y="-365.5" font-family="Helvetica,sans-Serif" font-size="10.00">playrho/Settings.hpp</text>
</a>
</g>
</g>
<!-- Node1&#45;&gt;Node18 -->
<g id="edge24" class="edge">
<title>Node1&#45;&gt;Node18</title>
<path fill="none" stroke="midnightblue" d="M800.87,-420.1C886.24,-408.96 1036.29,-389.38 1123.79,-377.97"/>
<polygon fill="midnightblue" stroke="midnightblue" points="1124.42,-381.41 1133.88,-376.65 1123.51,-374.47 1124.42,-381.41"/>
</g>
<!-- Node21 -->
<g id="node21" class="node">
<title>Node21</title>
<g id="a_node21"><a xlink:href="Units_8hpp.html" target="_top" xlink:title="Declarations for physical units possibly backed by strong types.">
<polygon fill="white" stroke="black" points="811,-302.5 811,-321.5 914,-321.5 914,-302.5 811,-302.5"/>
<text text-anchor="middle" x="862.5" y="-309.5" font-family="Helvetica,sans-Serif" font-size="10.00">playrho/Units.hpp</text>
</a>
</g>
</g>
<!-- Node1&#45;&gt;Node21 -->
<g id="edge49" class="edge">
<title>Node1&#45;&gt;Node21</title>
<path fill="none" stroke="midnightblue" d="M751.95,-414.34C775.68,-392.58 820.94,-351.09 845.55,-328.54"/>
<polygon fill="midnightblue" stroke="midnightblue" points="848.04,-331.01 853.04,-321.67 843.31,-325.85 848.04,-331.01"/>
</g>
<!-- Node28 -->
<g id="node28" class="node">
<title>Node28</title>
<g id="a_node28"><a xlink:href="UnitInterval_8hpp.html" target="_top" xlink:title="Definition of the UnitInterval value checked types and related code.">
<polygon fill="white" stroke="black" points="400,-246.5 400,-265.5 535,-265.5 535,-246.5 400,-246.5"/>
<text text-anchor="middle" x="467.5" y="-253.5" font-family="Helvetica,sans-Serif" font-size="10.00">playrho/UnitInterval.hpp</text>
</a>
</g>
</g>
<!-- Node1&#45;&gt;Node28 -->
<g id="edge45" class="edge">
<title>Node1&#45;&gt;Node28</title>
<path fill="none" stroke="midnightblue" d="M672.13,-417.86C639.73,-410.36 600.98,-397.99 570.5,-378 528.57,-350.5 494.25,-301.05 477.88,-274.68"/>
<polygon fill="midnightblue" stroke="midnightblue" points="480.68,-272.54 472.5,-265.8 474.69,-276.17 480.68,-272.54"/>
</g>
<!-- Node3&#45;&gt;Node2 -->
<g id="edge3" class="edge">
<title>Node3&#45;&gt;Node2</title>
<path fill="none" stroke="midnightblue" d="M221.48,-246.34C213.43,-237.93 202.2,-224.36 197.5,-210 193.21,-196.91 193.91,-192.3 197.5,-179 217,-106.75 242.77,-83.19 312.5,-56 378.74,-30.17 587.9,-17.44 680.56,-12.95"/>
<polygon fill="midnightblue" stroke="midnightblue" points="680.92,-16.43 690.74,-12.46 680.59,-9.44 680.92,-16.43"/>
</g>
<!-- Node4 -->
<g id="node4" class="node">
<title>Node4</title>
<g id="a_node4"><a xlink:href="Checked_8hpp.html" target="_top" xlink:title="Declarations of the Checked class template and closely related code.">
<polygon fill="white" stroke="black" points="207,-185 207,-204 356,-204 356,-185 207,-185"/>
<text text-anchor="middle" x="281.5" y="-192" font-family="Helvetica,sans-Serif" font-size="10.00">playrho/detail/Checked.hpp</text>
</a>
</g>
</g>
<!-- Node3&#45;&gt;Node4 -->
<g id="edge4" class="edge">
<title>Node3&#45;&gt;Node4</title>
<path fill="none" stroke="midnightblue" d="M237.81,-246.48C245.53,-237.46 257.91,-223.02 267.52,-211.81"/>
<polygon fill="midnightblue" stroke="midnightblue" points="270.36,-213.88 274.21,-204.01 265.04,-209.32 270.36,-213.88"/>
</g>
<!-- Node15 -->
<g id="node15" class="node">
<title>Node15</title>
<g id="a_node15"><a xlink:href="NonNegativeChecker_8hpp.html" target="_top" xlink:title="Definition of the NonNegativeChecker class template.">
<polygon fill="white" stroke="black" points="0,-179.5 0,-209.5 151,-209.5 151,-179.5 0,-179.5"/>
<text text-anchor="start" x="8" y="-197.5" font-family="Helvetica,sans-Serif" font-size="10.00">playrho/detail/NonNegative</text>
<text text-anchor="middle" x="75.5" y="-186.5" font-family="Helvetica,sans-Serif" font-size="10.00">Checker.hpp</text>
</a>
</g>
</g>
<!-- Node3&#45;&gt;Node15 -->
<g id="edge20" class="edge">
<title>Node3&#45;&gt;Node15</title>
<path fill="none" stroke="midnightblue" d="M208.29,-246.48C185.73,-237.81 150.12,-224.15 121.46,-213.14"/>
<polygon fill="midnightblue" stroke="midnightblue" points="122.62,-209.84 112.03,-209.52 120.11,-216.37 122.62,-209.84"/>
</g>
<!-- Node4&#45;&gt;Node2 -->
<g id="edge6" class="edge">
<title>Node4&#45;&gt;Node2</title>
<path fill="none" stroke="midnightblue" d="M325.24,-184.99C382.63,-173.51 477.6,-153.31 490.5,-143 524.19,-116.07 499.72,-82.82 533.5,-56 575.65,-22.54 638.42,-13.2 680.6,-10.98"/>
<polygon fill="midnightblue" stroke="midnightblue" points="681.01,-14.47 690.85,-10.56 680.72,-7.47 681.01,-14.47"/>
</g>
<!-- Node5 -->
<g id="node5" class="node">
<title>Node5</title>
<g id="a_node5"><a xlink:title=" ">
<polygon fill="white" stroke="#bfbfbf" points="421.5,-118 421.5,-137 481.5,-137 481.5,-118 421.5,-118"/>
<text text-anchor="middle" x="451.5" y="-125" font-family="Helvetica,sans-Serif" font-size="10.00">iostream</text>
</a>
</g>
</g>
<!-- Node4&#45;&gt;Node5 -->
<g id="edge5" class="edge">
<title>Node4&#45;&gt;Node5</title>
<path fill="none" stroke="midnightblue" d="M304.07,-184.87C333.75,-173.52 386.05,-153.52 419.72,-140.65"/>
<polygon fill="midnightblue" stroke="midnightblue" points="421.01,-143.9 429.1,-137.06 418.51,-137.37 421.01,-143.9"/>
</g>
<!-- Node6 -->
<g id="node6" class="node">
<title>Node6</title>
<g id="a_node6"><a xlink:title=" ">
<polygon fill="white" stroke="#bfbfbf" points="271,-0.5 271,-19.5 316,-19.5 316,-0.5 271,-0.5"/>
<text text-anchor="middle" x="293.5" y="-7.5" font-family="Helvetica,sans-Serif" font-size="10.00">utility</text>
</a>
</g>
</g>
<!-- Node4&#45;&gt;Node6 -->
<g id="edge7" class="edge">
<title>Node4&#45;&gt;Node6</title>
<path fill="none" stroke="midnightblue" d="M270.08,-184.93C259.09,-175.9 243.19,-160.56 236.5,-143 231.6,-130.12 233,-125.33 236.5,-112 244.99,-79.7 266.4,-46.86 280.43,-27.73"/>
<polygon fill="midnightblue" stroke="midnightblue" points="283.41,-29.6 286.64,-19.51 277.82,-25.39 283.41,-29.6"/>
</g>
<!-- Node7 -->
<g id="node7" class="node">
<title>Node7</title>
<g id="a_node7"><a xlink:href="InvalidArgument_8hpp.html" target="_top" xlink:title="Definition of the InvalidArgument class.">
<polygon fill="white" stroke="black" points="245.5,-118 245.5,-137 403.5,-137 403.5,-118 245.5,-118"/>
<text text-anchor="middle" x="324.5" y="-125" font-family="Helvetica,sans-Serif" font-size="10.00">playrho/InvalidArgument.hpp</text>
</a>
</g>
</g>
<!-- Node4&#45;&gt;Node7 -->
<g id="edge8" class="edge">
<title>Node4&#45;&gt;Node7</title>
<path fill="none" stroke="midnightblue" d="M287.3,-184.73C293.88,-174.79 304.76,-158.34 313.06,-145.79"/>
<polygon fill="midnightblue" stroke="midnightblue" points="316.19,-147.4 318.79,-137.13 310.36,-143.54 316.19,-147.4"/>
</g>
<!-- Node10 -->
<g id="node10" class="node">
<title>Node10</title>
<g id="a_node10"><a xlink:href="Templates_8hpp.html" target="_top" xlink:title="Definitions of miscellaneous template related code.">
<polygon fill="white" stroke="black" points="771.5,-118 771.5,-137 899.5,-137 899.5,-118 771.5,-118"/>
<text text-anchor="middle" x="835.5" y="-125" font-family="Helvetica,sans-Serif" font-size="10.00">playrho/Templates.hpp</text>
</a>
</g>
</g>
<!-- Node4&#45;&gt;Node10 -->
<g id="edge12" class="edge">
<title>Node4&#45;&gt;Node10</title>
<path fill="none" stroke="midnightblue" d="M326.19,-184.99C338.57,-182.83 352.03,-180.65 364.5,-179 540.58,-155.7 586.71,-168.34 762.5,-143 770.32,-141.87 778.58,-140.46 786.61,-138.95"/>
<polygon fill="midnightblue" stroke="midnightblue" points="787.46,-142.35 796.61,-137.02 786.13,-135.48 787.46,-142.35"/>
</g>
<!-- Node7&#45;&gt;Node6 -->
<g id="edge11" class="edge">
<title>Node7&#45;&gt;Node6</title>
<path fill="none" stroke="midnightblue" d="M322.17,-117.82C317.17,-99.17 305.29,-54.94 298.5,-29.63"/>
<polygon fill="midnightblue" stroke="midnightblue" points="301.83,-28.53 295.86,-19.78 295.07,-30.35 301.83,-28.53"/>
</g>
<!-- Node8 -->
<g id="node8" class="node">
<title>Node8</title>
<g id="a_node8"><a xlink:title=" ">
<polygon fill="white" stroke="#bfbfbf" points="322,-56.5 322,-75.5 387,-75.5 387,-56.5 322,-56.5"/>
<text text-anchor="middle" x="354.5" y="-63.5" font-family="Helvetica,sans-Serif" font-size="10.00">stdexcept</text>
</a>
</g>
</g>
<!-- Node7&#45;&gt;Node8 -->
<g id="edge9" class="edge">
<title>Node7&#45;&gt;Node8</title>
<path fill="none" stroke="midnightblue" d="M328.8,-117.98C333.16,-109.32 340.06,-95.65 345.6,-84.65"/>
<polygon fill="midnightblue" stroke="midnightblue" points="348.83,-86.01 350.21,-75.51 342.58,-82.86 348.83,-86.01"/>
</g>
<!-- Node9 -->
<g id="node9" class="node">
<title>Node9</title>
<g id="a_node9"><a xlink:title=" ">
<polygon fill="white" stroke="#bfbfbf" points="405.5,-56.5 405.5,-75.5 449.5,-75.5 449.5,-56.5 405.5,-56.5"/>
<text text-anchor="middle" x="427.5" y="-63.5" font-family="Helvetica,sans-Serif" font-size="10.00">string</text>
</a>
</g>
</g>
<!-- Node7&#45;&gt;Node9 -->
<g id="edge10" class="edge">
<title>Node7&#45;&gt;Node9</title>
<path fill="none" stroke="midnightblue" d="M339.26,-117.98C356.16,-108.21 384.08,-92.08 403.99,-80.58"/>
<polygon fill="midnightblue" stroke="midnightblue" points="405.86,-83.54 412.77,-75.51 402.36,-77.48 405.86,-83.54"/>
</g>
<!-- Node10&#45;&gt;Node2 -->
<g id="edge14" class="edge">
<title>Node10&#45;&gt;Node2</title>
<path fill="none" stroke="midnightblue" d="M827.23,-117.82C808.92,-98.59 764.68,-52.14 741.03,-27.31"/>
<polygon fill="midnightblue" stroke="midnightblue" points="743.29,-24.61 733.86,-19.78 738.23,-29.44 743.29,-24.61"/>
</g>
<!-- Node11 -->
<g id="node11" class="node">
<title>Node11</title>
<g id="a_node11"><a xlink:title=" ">
<polygon fill="white" stroke="#bfbfbf" points="811,-56.5 811,-75.5 860,-75.5 860,-56.5 811,-56.5"/>
<text text-anchor="middle" x="835.5" y="-63.5" font-family="Helvetica,sans-Serif" font-size="10.00">cstdlib</text>
</a>
</g>
</g>
<!-- Node10&#45;&gt;Node11 -->
<g id="edge13" class="edge">
<title>Node10&#45;&gt;Node11</title>
<path fill="none" stroke="midnightblue" d="M835.5,-117.98C835.5,-109.58 835.5,-96.48 835.5,-85.66"/>
<polygon fill="midnightblue" stroke="midnightblue" points="839,-85.51 835.5,-75.51 832,-85.51 839,-85.51"/>
</g>
<!-- Node12 -->
<g id="node12" class="node">
<title>Node12</title>
<g id="a_node12"><a xlink:href="detail_2Templates_8hpp.html" target="_top" xlink:title="Low&#45;level declarations for general class &amp; function templates.">
<polygon fill="white" stroke="black" points="1078.5,-56.5 1078.5,-75.5 1236.5,-75.5 1236.5,-56.5 1078.5,-56.5"/>
<text text-anchor="middle" x="1157.5" y="-63.5" font-family="Helvetica,sans-Serif" font-size="10.00">playrho/detail/Templates.hpp</text>
</a>
</g>
</g>
<!-- Node10&#45;&gt;Node12 -->
<g id="edge15" class="edge">
<title>Node10&#45;&gt;Node12</title>
<path fill="none" stroke="midnightblue" d="M881.63,-117.98C939.62,-107.26 1039.08,-88.88 1101.4,-77.37"/>
<polygon fill="midnightblue" stroke="midnightblue" points="1102.25,-80.77 1111.45,-75.51 1100.98,-73.88 1102.25,-80.77"/>
</g>
<!-- Node12&#45;&gt;Node2 -->
<g id="edge18" class="edge">
<title>Node12&#45;&gt;Node2</title>
<path fill="none" stroke="midnightblue" d="M1089.05,-56.44C999.75,-45.28 846,-26.06 770.29,-16.6"/>
<polygon fill="midnightblue" stroke="midnightblue" points="770.49,-13.1 760.13,-15.33 769.62,-20.04 770.49,-13.1"/>
</g>
<!-- Node12&#45;&gt;Node6 -->
<g id="edge19" class="edge">
<title>Node12&#45;&gt;Node6</title>
<path fill="none" stroke="midnightblue" d="M1078.15,-60.04C895.34,-48.61 450.64,-20.82 326.29,-13.05"/>
<polygon fill="midnightblue" stroke="midnightblue" points="326.45,-9.55 316.25,-12.42 326.01,-16.54 326.45,-9.55"/>
</g>
<!-- Node13 -->
<g id="node13" class="node">
<title>Node13</title>
<g id="a_node13"><a xlink:title=" ">
<polygon fill="white" stroke="#bfbfbf" points="1163.5,-0.5 1163.5,-19.5 1227.5,-19.5 1227.5,-0.5 1163.5,-0.5"/>
<text text-anchor="middle" x="1195.5" y="-7.5" font-family="Helvetica,sans-Serif" font-size="10.00">algorithm</text>
</a>
</g>
</g>
<!-- Node12&#45;&gt;Node13 -->
<g id="edge16" class="edge">
<title>Node12&#45;&gt;Node13</title>
<path fill="none" stroke="midnightblue" d="M1163.77,-56.08C1169.14,-48.46 1177.02,-37.26 1183.58,-27.94"/>
<polygon fill="midnightblue" stroke="midnightblue" points="1186.45,-29.94 1189.34,-19.75 1180.72,-25.91 1186.45,-29.94"/>
</g>
<!-- Node14 -->
<g id="node14" class="node">
<title>Node14</title>
<g id="a_node14"><a xlink:title=" ">
<polygon fill="white" stroke="#bfbfbf" points="1092,-0.5 1092,-19.5 1145,-19.5 1145,-0.5 1092,-0.5"/>
<text text-anchor="middle" x="1118.5" y="-7.5" font-family="Helvetica,sans-Serif" font-size="10.00">iterator</text>
</a>
</g>
</g>
<!-- Node12&#45;&gt;Node14 -->
<g id="edge17" class="edge">
<title>Node12&#45;&gt;Node14</title>
<path fill="none" stroke="midnightblue" d="M1151.06,-56.08C1145.55,-48.46 1137.47,-37.26 1130.74,-27.94"/>
<polygon fill="midnightblue" stroke="midnightblue" points="1133.51,-25.81 1124.82,-19.75 1127.84,-29.91 1133.51,-25.81"/>
</g>
<!-- Node16&#45;&gt;Node10 -->
<g id="edge23" class="edge">
<title>Node16&#45;&gt;Node10</title>
<path fill="none" stroke="midnightblue" d="M1046.48,-184.94C1003.05,-173.32 925.38,-152.54 877.36,-139.7"/>
<polygon fill="midnightblue" stroke="midnightblue" points="878.15,-136.29 867.59,-137.08 876.34,-143.05 878.15,-136.29"/>
</g>
<!-- Node17 -->
<g id="node17" class="node">
<title>Node17</title>
<g id="a_node17"><a xlink:title=" ">
<polygon fill="white" stroke="#bfbfbf" points="1085.5,-118 1085.5,-137 1129.5,-137 1129.5,-118 1085.5,-118"/>
<text text-anchor="middle" x="1107.5" y="-125" font-family="Helvetica,sans-Serif" font-size="10.00">limits</text>
</a>
</g>
</g>
<!-- Node16&#45;&gt;Node17 -->
<g id="edge22" class="edge">
<title>Node16&#45;&gt;Node17</title>
<path fill="none" stroke="midnightblue" d="M1082.41,-184.73C1086.76,-174.99 1093.9,-158.98 1099.46,-146.53"/>
<polygon fill="midnightblue" stroke="midnightblue" points="1102.77,-147.69 1103.65,-137.13 1096.38,-144.83 1102.77,-147.69"/>
</g>
<!-- Node18&#45;&gt;Node2 -->
<g id="edge27" class="edge">
<title>Node18&#45;&gt;Node2</title>
<path fill="none" stroke="midnightblue" d="M1196.1,-358.22C1199.56,-349.28 1204.53,-334.94 1206.5,-322 1207.84,-313.21 1207.73,-310.8 1206.5,-302 1194.06,-213.18 1205.92,-171.16 1138.5,-112 1083.42,-63.67 865.33,-29.55 770.23,-16.67"/>
<polygon fill="midnightblue" stroke="midnightblue" points="770.45,-13.17 760.07,-15.31 769.52,-20.11 770.45,-13.17"/>
</g>
<!-- Node18&#45;&gt;Node16 -->
<g id="edge28" class="edge">
<title>Node18&#45;&gt;Node16</title>
<path fill="none" stroke="midnightblue" d="M1190.74,-358.29C1186.14,-337.23 1172.18,-282.59 1144.5,-246 1133.22,-231.09 1116.44,-218.33 1102.63,-209.37"/>
<polygon fill="midnightblue" stroke="midnightblue" points="1104.4,-206.35 1094.06,-204.04 1100.71,-212.3 1104.4,-206.35"/>
</g>
<!-- Node18&#45;&gt;Node17 -->
<g id="edge26" class="edge">
<title>Node18&#45;&gt;Node17</title>
<path fill="none" stroke="midnightblue" d="M1193.43,-358.46C1194.56,-345.92 1195.82,-321.85 1191.5,-302 1178.13,-240.63 1139.21,-175.99 1119.4,-145.86"/>
<polygon fill="midnightblue" stroke="midnightblue" points="1122.16,-143.7 1113.69,-137.34 1116.35,-147.59 1122.16,-143.7"/>
</g>
<!-- Node19 -->
<g id="node19" class="node">
<title>Node19</title>
<g id="a_node19"><a xlink:title=" ">
<polygon fill="white" stroke="#bfbfbf" points="1272.5,-185 1272.5,-204 1322.5,-204 1322.5,-185 1272.5,-185"/>
<text text-anchor="middle" x="1297.5" y="-192" font-family="Helvetica,sans-Serif" font-size="10.00">cstdint</text>
</a>
</g>
</g>
<!-- Node18&#45;&gt;Node19 -->
<g id="edge25" class="edge">
<title>Node18&#45;&gt;Node19</title>
<path fill="none" stroke="midnightblue" d="M1211.62,-358.39C1226.43,-350.81 1246.4,-338.4 1258.5,-322 1282.87,-288.98 1292.22,-240.47 1295.64,-214.15"/>
<polygon fill="midnightblue" stroke="midnightblue" points="1299.14,-214.38 1296.8,-204.05 1292.18,-213.58 1299.14,-214.38"/>
</g>
<!-- Node20 -->
<g id="node20" class="node">
<title>Node20</title>
<g id="a_node20"><a xlink:href="RealConstants_8hpp.html" target="_top" xlink:title="Definitions file for constant expressions of type Real.">
<polygon fill="white" stroke="black" points="954.5,-246.5 954.5,-265.5 1102.5,-265.5 1102.5,-246.5 954.5,-246.5"/>
<text text-anchor="middle" x="1028.5" y="-253.5" font-family="Helvetica,sans-Serif" font-size="10.00">playrho/RealConstants.hpp</text>
</a>
</g>
</g>
<!-- Node18&#45;&gt;Node20 -->
<g id="edge29" class="edge">
<title>Node18&#45;&gt;Node20</title>
<path fill="none" stroke="midnightblue" d="M1179.63,-358.37C1151.49,-339.49 1084.24,-294.38 1049.73,-271.24"/>
<polygon fill="midnightblue" stroke="midnightblue" points="1051.56,-268.26 1041.31,-265.59 1047.66,-274.07 1051.56,-268.26"/>
</g>
<!-- Node18&#45;&gt;Node21 -->
<g id="edge31" class="edge">
<title>Node18&#45;&gt;Node21</title>
<path fill="none" stroke="midnightblue" d="M1140.21,-358.44C1081.51,-348.84 986.34,-333.26 924.08,-323.08"/>
<polygon fill="midnightblue" stroke="midnightblue" points="924.44,-319.59 914,-321.43 923.31,-326.5 924.44,-319.59"/>
</g>
<!-- Node25 -->
<g id="node25" class="node">
<title>Node25</title>
<g id="a_node25"><a xlink:href="WiderType_8hpp.html" target="_top" xlink:title="Definition of the WiderType alias template.">
<polygon fill="white" stroke="black" points="1312.5,-302.5 1312.5,-321.5 1440.5,-321.5 1440.5,-302.5 1312.5,-302.5"/>
<text text-anchor="middle" x="1376.5" y="-309.5" font-family="Helvetica,sans-Serif" font-size="10.00">playrho/WiderType.hpp</text>
</a>
</g>
</g>
<!-- Node18&#45;&gt;Node25 -->
<g id="edge40" class="edge">
<title>Node18&#45;&gt;Node25</title>
<path fill="none" stroke="midnightblue" d="M1221.66,-358.44C1253.01,-349.24 1303.03,-334.56 1337.7,-324.39"/>
<polygon fill="midnightblue" stroke="midnightblue" points="1338.87,-327.69 1347.48,-321.52 1336.9,-320.97 1338.87,-327.69"/>
</g>
<!-- Node20&#45;&gt;Node16 -->
<g id="edge30" class="edge">
<title>Node20&#45;&gt;Node16</title>
<path fill="none" stroke="midnightblue" d="M1035.66,-246.48C1043.24,-237.46 1055.37,-223.02 1064.79,-211.81"/>
<polygon fill="midnightblue" stroke="midnightblue" points="1067.6,-213.92 1071.35,-204.01 1062.24,-209.41 1067.6,-213.92"/>
</g>
<!-- Node21&#45;&gt;Node2 -->
<g id="edge33" class="edge">
<title>Node21&#45;&gt;Node2</title>
<path fill="none" stroke="midnightblue" d="M867.87,-302.14C884.25,-273.97 931.12,-184.06 908.5,-112 899.42,-83.06 893.96,-73.93 869.5,-56 840.18,-34.5 800.32,-23.09 769.97,-17.14"/>
<polygon fill="midnightblue" stroke="midnightblue" points="770.54,-13.69 760.07,-15.33 769.28,-20.57 770.54,-13.69"/>
</g>
<!-- Node21&#45;&gt;Node10 -->
<g id="edge36" class="edge">
<title>Node21&#45;&gt;Node10</title>
<path fill="none" stroke="midnightblue" d="M844.11,-302.47C830.4,-295 812.69,-282.71 804.5,-266 784.75,-225.68 809.23,-172.53 824.69,-145.65"/>
<polygon fill="midnightblue" stroke="midnightblue" points="827.73,-147.38 829.88,-137.01 821.73,-143.78 827.73,-147.38"/>
</g>
<!-- Node21&#45;&gt;Node16 -->
<g id="edge34" class="edge">
<title>Node21&#45;&gt;Node16</title>
<path fill="none" stroke="midnightblue" d="M871.54,-302.39C886.12,-288.89 916.17,-262.55 945.5,-246 975.29,-229.19 1011.77,-215.79 1038.99,-207.03"/>
<polygon fill="midnightblue" stroke="midnightblue" points="1040.08,-210.36 1048.57,-204.01 1037.98,-203.68 1040.08,-210.36"/>
</g>
<!-- Node21&#45;&gt;Node20 -->
<g id="edge35" class="edge">
<title>Node21&#45;&gt;Node20</title>
<path fill="none" stroke="midnightblue" d="M888.8,-302.44C916.85,-293.32 961.44,-278.81 992.68,-268.65"/>
<polygon fill="midnightblue" stroke="midnightblue" points="993.89,-271.94 1002.32,-265.52 991.73,-265.28 993.89,-271.94"/>
</g>
<!-- Node22 -->
<g id="node22" class="node">
<title>Node22</title>
<g id="a_node22"><a xlink:title=" ">
<polygon fill="white" stroke="#bfbfbf" points="813,-246.5 813,-265.5 860,-265.5 860,-246.5 813,-246.5"/>
<text text-anchor="middle" x="836.5" y="-253.5" font-family="Helvetica,sans-Serif" font-size="10.00">cmath</text>
</a>
</g>
</g>
<!-- Node21&#45;&gt;Node22 -->
<g id="edge32" class="edge">
<title>Node21&#45;&gt;Node22</title>
<path fill="none" stroke="midnightblue" d="M858.21,-302.08C854.65,-294.69 849.48,-283.95 845.08,-274.81"/>
<polygon fill="midnightblue" stroke="midnightblue" points="848.21,-273.24 840.71,-265.75 841.9,-276.28 848.21,-273.24"/>
</g>
<!-- Node23 -->
<g id="node23" class="node">
<title>Node23</title>
<g id="a_node23"><a xlink:href="to__underlying_8hpp.html" target="_top" xlink:title="Definition of to_underlying function template.">
<polygon fill="white" stroke="black" points="612.5,-246.5 612.5,-265.5 756.5,-265.5 756.5,-246.5 612.5,-246.5"/>
<text text-anchor="middle" x="684.5" y="-253.5" font-family="Helvetica,sans-Serif" font-size="10.00">playrho/to_underlying.hpp</text>
</a>
</g>
</g>
<!-- Node21&#45;&gt;Node23 -->
<g id="edge37" class="edge">
<title>Node21&#45;&gt;Node23</title>
<path fill="none" stroke="midnightblue" d="M834.3,-302.44C804.09,-293.28 755.99,-278.69 722.47,-268.52"/>
<polygon fill="midnightblue" stroke="midnightblue" points="723.16,-265.07 712.57,-265.52 721.13,-271.77 723.16,-265.07"/>
</g>
<!-- Node24 -->
<g id="node24" class="node">
<title>Node24</title>
<g id="a_node24"><a xlink:href="underlying__type_8hpp.html" target="_top" xlink:title="Definition of underlying_type trait class and related code.">
<polygon fill="white" stroke="black" points="614,-112.5 614,-142.5 753,-142.5 753,-112.5 614,-112.5"/>
<text text-anchor="start" x="622" y="-130.5" font-family="Helvetica,sans-Serif" font-size="10.00">playrho/detail/underlying</text>
<text text-anchor="middle" x="683.5" y="-119.5" font-family="Helvetica,sans-Serif" font-size="10.00">_type.hpp</text>
</a>
</g>
</g>
<!-- Node23&#45;&gt;Node24 -->
<g id="edge38" class="edge">
<title>Node23&#45;&gt;Node24</title>
<path fill="none" stroke="midnightblue" d="M684.43,-246.31C684.28,-227.3 683.92,-181.47 683.69,-152.9"/>
<polygon fill="midnightblue" stroke="midnightblue" points="687.19,-152.86 683.61,-142.89 680.19,-152.92 687.19,-152.86"/>
</g>
<!-- Node24&#45;&gt;Node2 -->
<g id="edge39" class="edge">
<title>Node24&#45;&gt;Node2</title>
<path fill="none" stroke="midnightblue" d="M688.65,-112.34C696.25,-91.43 710.48,-52.31 718.86,-29.27"/>
<polygon fill="midnightblue" stroke="midnightblue" points="722.22,-30.26 722.35,-19.67 715.64,-27.87 722.22,-30.26"/>
</g>
<!-- Node26 -->
<g id="node26" class="node">
<title>Node26</title>
<g id="a_node26"><a xlink:href="Wider_8hpp.html" target="_top" xlink:title="Definition of the Wider class template and specializations.">
<polygon fill="white" stroke="black" points="1310.5,-246.5 1310.5,-265.5 1446.5,-265.5 1446.5,-246.5 1310.5,-246.5"/>
<text text-anchor="middle" x="1378.5" y="-253.5" font-family="Helvetica,sans-Serif" font-size="10.00">playrho/detail/Wider.hpp</text>
</a>
</g>
</g>
<!-- Node25&#45;&gt;Node26 -->
<g id="edge41" class="edge">
<title>Node25&#45;&gt;Node26</title>
<path fill="none" stroke="midnightblue" d="M1376.83,-302.08C1377.09,-295.01 1377.47,-284.86 1377.8,-275.99"/>
<polygon fill="midnightblue" stroke="midnightblue" points="1381.3,-275.87 1378.18,-265.75 1374.31,-275.61 1381.3,-275.87"/>
</g>
<!-- Node26&#45;&gt;Node2 -->
<g id="edge43" class="edge">
<title>Node26&#45;&gt;Node2</title>
<path fill="none" stroke="midnightblue" d="M1375.76,-246.14C1365.24,-213.75 1323.96,-101.28 1245.5,-56 1204.84,-32.53 889.22,-17.57 770.47,-12.72"/>
<polygon fill="midnightblue" stroke="midnightblue" points="770.41,-9.22 760.27,-12.31 770.12,-16.21 770.41,-9.22"/>
</g>
<!-- Node26&#45;&gt;Node19 -->
<g id="edge42" class="edge">
<title>Node26&#45;&gt;Node19</title>
<path fill="none" stroke="midnightblue" d="M1366.89,-246.48C1354.02,-237.02 1333.03,-221.6 1317.49,-210.19"/>
<polygon fill="midnightblue" stroke="midnightblue" points="1319.22,-207.11 1309.08,-204.01 1315.07,-212.75 1319.22,-207.11"/>
</g>
<!-- Node27 -->
<g id="node27" class="node">
<title>Node27</title>
<g id="a_node27"><a xlink:href="Defines_8hpp.html" target="_top" xlink:title="Miscellaneous C&#45;preprocessor definitions.">
<polygon fill="white" stroke="black" points="1378.5,-185 1378.5,-204 1492.5,-204 1492.5,-185 1378.5,-185"/>
<text text-anchor="middle" x="1435.5" y="-192" font-family="Helvetica,sans-Serif" font-size="10.00">playrho/Defines.hpp</text>
</a>
</g>
</g>
<!-- Node26&#45;&gt;Node27 -->
<g id="edge44" class="edge">
<title>Node26&#45;&gt;Node27</title>
<path fill="none" stroke="midnightblue" d="M1386.67,-246.48C1395.39,-237.37 1409.4,-222.74 1420.19,-211.48"/>
<polygon fill="midnightblue" stroke="midnightblue" points="1422.96,-213.65 1427.35,-204.01 1417.9,-208.81 1422.96,-213.65"/>
</g>
<!-- Node28&#45;&gt;Node2 -->
<g id="edge46" class="edge">
<title>Node28&#45;&gt;Node2</title>
<path fill="none" stroke="midnightblue" d="M484.73,-246.45C498.53,-238.74 517.37,-226.14 528.5,-210 568.84,-151.5 521.55,-106.55 571.5,-56 600.15,-27 646.38,-16.45 680.72,-12.73"/>
<polygon fill="midnightblue" stroke="midnightblue" points="681.33,-16.19 690.96,-11.79 680.68,-9.22 681.33,-16.19"/>
</g>
<!-- Node28&#45;&gt;Node4 -->
<g id="edge47" class="edge">
<title>Node28&#45;&gt;Node4</title>
<path fill="none" stroke="midnightblue" d="M440.85,-246.48C408.53,-236.14 353.9,-218.66 317.77,-207.1"/>
<polygon fill="midnightblue" stroke="midnightblue" points="318.69,-203.72 308.1,-204.01 316.56,-210.39 318.69,-203.72"/>
</g>
<!-- Node29 -->
<g id="node29" class="node">
<title>Node29</title>
<g id="a_node29"><a xlink:href="UnitIntervalChecker_8hpp.html" target="_top" xlink:title="Definition of the UnitIntervalChecker class template.">
<polygon fill="white" stroke="black" points="374,-179.5 374,-209.5 519,-209.5 519,-179.5 374,-179.5"/>
<text text-anchor="start" x="382" y="-197.5" font-family="Helvetica,sans-Serif" font-size="10.00">playrho/detail/UnitInterval</text>
<text text-anchor="middle" x="446.5" y="-186.5" font-family="Helvetica,sans-Serif" font-size="10.00">Checker.hpp</text>
</a>
</g>
</g>
<!-- Node28&#45;&gt;Node29 -->
<g id="edge48" class="edge">
<title>Node28&#45;&gt;Node29</title>
<path fill="none" stroke="midnightblue" d="M464.49,-246.48C461.97,-239.32 458.23,-228.75 454.82,-219.08"/>
<polygon fill="midnightblue" stroke="midnightblue" points="458.08,-217.79 451.45,-209.52 451.48,-220.12 458.08,-217.79"/>
</g>
</g>
</svg>
        <g id="navigator" transform="translate(0 0)" fill="#404254">
                <rect fill="#f2f5e9" fill-opacity="0.5" stroke="#606060" stroke-width=".5" x="0" y="0" width="60" height="60"/>
                <use id="zoomplus" xlink:href="#zoomPlus" x="17" y="9" onmousedown="handleZoom(evt,'in')"/>
                <use id="zoomminus" xlink:href="#zoomMin" x="42" y="9" onmousedown="handleZoom(evt,'out')"/>
                <use id="reset" xlink:href="#resetDef" x="30" y="36" onmousedown="handleReset()"/>
                <g id="arrowUp" xlink:href="#dirArrow" transform="translate(30 24)" onmousedown="handlePan(0,-1)">
                  <use xlink:href="#rim" fill="#404040">
                        <set attributeName="fill" to="#808080" begin="arrowUp.mouseover" end="arrowUp.mouseout"/>
                  </use>
                  <path fill="none" stroke="white" stroke-width="1.5" d="M0,-3.0v7 M-2.5,-0.5L0,-3.0L2.5,-0.5"/>
                </g>
                <g id="arrowRight" xlink:href="#dirArrow" transform="rotate(90) translate(36 -43)" onmousedown="handlePan(1,0)">
                  <use xlink:href="#rim" fill="#404040">
                        <set attributeName="fill" to="#808080" begin="arrowRight.mouseover" end="arrowRight.mouseout"/>
                  </use>
                  <path fill="none" stroke="white" stroke-width="1.5" d="M0,-3.0v7 M-2.5,-0.5L0,-3.0L2.5,-0.5"/>
                </g>
                <g id="arrowDown" xlink:href="#dirArrow" transform="rotate(180) translate(-30 -48)" onmousedown="handlePan(0,1)">
                  <use xlink:href="#rim" fill="#404040">
                        <set attributeName="fill" to="#808080" begin="arrowDown.mouseover" end="arrowDown.mouseout"/>
                  </use>
                  <path fill="none" stroke="white" stroke-width="1.5" d="M0,-3.0v7 M-2.5,-0.5L0,-3.0L2.5,-0.5"/>
                </g>
                <g id="arrowLeft" xlink:href="#dirArrow" transform="rotate(270) translate(-36 17)" onmousedown="handlePan(-1,0)">
                  <use xlink:href="#rim" fill="#404040">
                        <set attributeName="fill" to="#808080" begin="arrowLeft.mouseover" end="arrowLeft.mouseout"/>
                  </use>
                  <path fill="none" stroke="white" stroke-width="1.5" d="M0,-3.0v7 M-2.5,-0.5L0,-3.0L2.5,-0.5"/>
                </g>
        </g>
        <svg viewBox="0 0 15 15" width="100%" height="30px" preserveAspectRatio="xMaxYMin meet">
         <g id="arrow_out" transform="scale(0.3 0.3)">
          <a xlink:href="ToiConf_8hpp__incl_org.svg" target="_base">
           <rect id="button" ry="5" rx="5" y="6" x="6" height="38" width="38"
                fill="#f2f5e9" fill-opacity="0.5" stroke="#606060" stroke-width="1.0"/>
           <path id="arrow"
             d="M 11.500037,31.436501 C 11.940474,20.09759 22.043105,11.32322 32.158766,21.979434 L 37.068811,17.246167 C 37.068811,17.246167 37.088388,32 37.088388,32 L 22.160133,31.978069 C 22.160133,31.978069 26.997745,27.140456 26.997745,27.140456 C 18.528582,18.264221 13.291696,25.230495 11.500037,31.436501 z"
             style="fill:#404040;"/>
          </a>
         </g>
        </svg>
</svg>
