<?xml version="1.0" encoding="UTF-8" standalone="no"?>
<!DOCTYPE svg PUBLIC "-//W3C//DTD SVG 1.1//EN"
 "http://www.w3.org/Graphics/SVG/1.1/DTD/svg11.dtd">
<!-- Generated by graphviz version 2.43.0 (0)
 -->
<!-- Title: Library/include/playrho/ToiConf.hpp Pages: 1 -->
<svg width="1347pt" height="610pt"
 viewBox="0.00 0.00 1346.50 610.00" xmlns="http://www.w3.org/2000/svg" xmlns:xlink="http://www.w3.org/1999/xlink">
<g id="graph0" class="graph" transform="scale(1 1) rotate(0) translate(4 606)">
<title>Library/include/playrho/ToiConf.hpp</title>
<polygon fill="white" stroke="transparent" points="-4,4 -4,-606 1342.5,-606 1342.5,4 -4,4"/>
<!-- Node1 -->
<g id="node1" class="node">
<title>Node1</title>
<g id="a_node1"><a xlink:title="Definitions of ToiConf class and closely related code.">
<polygon fill="#bfbfbf" stroke="black" points="340.5,-571.5 340.5,-601.5 468.5,-601.5 468.5,-571.5 340.5,-571.5"/>
<text text-anchor="start" x="348.5" y="-589.5" font-family="Helvetica,sans-Serif" font-size="10.00">Library/include/playrho</text>
<text text-anchor="middle" x="404.5" y="-578.5" font-family="Helvetica,sans-Serif" font-size="10.00">/ToiConf.hpp</text>
</a>
</g>
</g>
<!-- Node2 -->
<g id="node2" class="node">
<title>Node2</title>
<g id="a_node2"><a xlink:href="NonNegative_8hpp.html" target="_top" xlink:title="Definition of the NonNegative value checked types.">
<polygon fill="white" stroke="black" points="173,-291.5 173,-310.5 314,-310.5 314,-291.5 173,-291.5"/>
<text text-anchor="middle" x="243.5" y="-298.5" font-family="Helvetica,sans-Serif" font-size="10.00">playrho/NonNegative.hpp</text>
</a>
</g>
</g>
<!-- Node1&#45;&gt;Node2 -->
<g id="edge1" class="edge">
<title>Node1&#45;&gt;Node2</title>
<path fill="none" stroke="midnightblue" d="M379.53,-571.48C349.62,-552.63 303.5,-516.08 303.5,-470 303.5,-470 303.5,-470 303.5,-412 303.5,-374.88 276.85,-338.38 259.07,-318.16"/>
<polygon fill="midnightblue" stroke="midnightblue" points="261.43,-315.55 252.1,-310.53 256.26,-320.28 261.43,-315.55"/>
</g>
<!-- Node16 -->
<g id="node16" class="node">
<title>Node16</title>
<g id="a_node16"><a xlink:href="Settings_8hpp.html" target="_top" xlink:title="Types and default settings file.">
<polygon fill="white" stroke="black" points="846,-515.5 846,-534.5 963,-534.5 963,-515.5 846,-515.5"/>
<text text-anchor="middle" x="904.5" y="-522.5" font-family="Helvetica,sans-Serif" font-size="10.00">playrho/Settings.hpp</text>
</a>
</g>
</g>
<!-- Node1&#45;&gt;Node16 -->
<g id="edge17" class="edge">
<title>Node1&#45;&gt;Node16</title>
<path fill="none" stroke="midnightblue" d="M468.59,-577.87C563.01,-566.64 738.77,-545.72 835.78,-534.18"/>
<polygon fill="midnightblue" stroke="midnightblue" points="836.26,-537.65 845.77,-532.99 835.43,-530.69 836.26,-537.65"/>
</g>
<!-- Node38 -->
<g id="node38" class="node">
<title>Node38</title>
<g id="a_node38"><a xlink:href="UnitInterval_8hpp.html" target="_top" xlink:title="Definition of the UnitInterval value checked types and related code.">
<polygon fill="white" stroke="black" points="337,-291.5 337,-310.5 472,-310.5 472,-291.5 337,-291.5"/>
<text text-anchor="middle" x="404.5" y="-298.5" font-family="Helvetica,sans-Serif" font-size="10.00">playrho/UnitInterval.hpp</text>
</a>
</g>
</g>
<!-- Node1&#45;&gt;Node38 -->
<g id="edge59" class="edge">
<title>Node1&#45;&gt;Node38</title>
<path fill="none" stroke="midnightblue" d="M404.5,-571.28C404.5,-549.48 404.5,-506.49 404.5,-470 404.5,-470 404.5,-470 404.5,-412 404.5,-379.95 404.5,-342.64 404.5,-320.75"/>
<polygon fill="midnightblue" stroke="midnightblue" points="408,-320.56 404.5,-310.56 401,-320.56 408,-320.56"/>
</g>
<!-- Node3 -->
<g id="node3" class="node">
<title>Node3</title>
<g id="a_node3"><a xlink:href="Checked_8hpp.html" target="_top" xlink:title="Declarations of the Checked class template and closely related code.">
<polygon fill="white" stroke="black" points="169,-230 169,-249 318,-249 318,-230 169,-230"/>
<text text-anchor="middle" x="243.5" y="-237" font-family="Helvetica,sans-Serif" font-size="10.00">playrho/detail/Checked.hpp</text>
</a>
</g>
</g>
<!-- Node2&#45;&gt;Node3 -->
<g id="edge2" class="edge">
<title>Node2&#45;&gt;Node3</title>
<path fill="none" stroke="midnightblue" d="M243.5,-291.48C243.5,-283.08 243.5,-269.98 243.5,-259.16"/>
<polygon fill="midnightblue" stroke="midnightblue" points="247,-259.01 243.5,-249.01 240,-259.01 247,-259.01"/>
</g>
<!-- Node15 -->
<g id="node15" class="node">
<title>Node15</title>
<g id="a_node15"><a xlink:href="NonNegativeChecker_8hpp.html" target="_top" xlink:title="Definition of the NonNegativeChecker class template.">
<polygon fill="white" stroke="black" points="0,-224.5 0,-254.5 151,-254.5 151,-224.5 0,-224.5"/>
<text text-anchor="start" x="8" y="-242.5" font-family="Helvetica,sans-Serif" font-size="10.00">playrho/detail/NonNegative</text>
<text text-anchor="middle" x="75.5" y="-231.5" font-family="Helvetica,sans-Serif" font-size="10.00">Checker.hpp</text>
</a>
</g>
</g>
<!-- Node2&#45;&gt;Node15 -->
<g id="edge16" class="edge">
<title>Node2&#45;&gt;Node15</title>
<path fill="none" stroke="midnightblue" d="M219.43,-291.48C194.87,-282.78 156.05,-269.03 124.91,-258"/>
<polygon fill="midnightblue" stroke="midnightblue" points="125.69,-254.56 115.09,-254.52 123.35,-261.16 125.69,-254.56"/>
</g>
<!-- Node4 -->
<g id="node4" class="node">
<title>Node4</title>
<g id="a_node4"><a xlink:title=" ">
<polygon fill="white" stroke="#bfbfbf" points="575.5,-168.5 575.5,-187.5 635.5,-187.5 635.5,-168.5 575.5,-168.5"/>
<text text-anchor="middle" x="605.5" y="-175.5" font-family="Helvetica,sans-Serif" font-size="10.00">iostream</text>
</a>
</g>
</g>
<!-- Node3&#45;&gt;Node4 -->
<g id="edge3" class="edge">
<title>Node3&#45;&gt;Node4</title>
<path fill="none" stroke="midnightblue" d="M291.76,-229.96C303.15,-227.97 315.25,-225.89 326.5,-224 411.5,-209.72 511.23,-193.85 565.44,-185.29"/>
<polygon fill="midnightblue" stroke="midnightblue" points="566.01,-188.75 575.34,-183.73 564.92,-181.83 566.01,-188.75"/>
</g>
<!-- Node5 -->
<g id="node5" class="node">
<title>Node5</title>
<g id="a_node5"><a xlink:title=" ">
<polygon fill="white" stroke="#bfbfbf" points="513,-0.5 513,-19.5 582,-19.5 582,-0.5 513,-0.5"/>
<text text-anchor="middle" x="547.5" y="-7.5" font-family="Helvetica,sans-Serif" font-size="10.00">type_traits</text>
</a>
</g>
</g>
<!-- Node3&#45;&gt;Node5 -->
<g id="edge4" class="edge">
<title>Node3&#45;&gt;Node5</title>
<path fill="none" stroke="midnightblue" d="M284.48,-229.96C328.26,-220.22 394.11,-203.63 414.5,-188 469.14,-146.14 450.95,-108.47 495.5,-56 504.92,-44.91 517.15,-34.18 527.39,-25.98"/>
<polygon fill="midnightblue" stroke="midnightblue" points="529.67,-28.64 535.41,-19.74 525.37,-23.12 529.67,-28.64"/>
</g>
<!-- Node6 -->
<g id="node6" class="node">
<title>Node6</title>
<g id="a_node6"><a xlink:title=" ">
<polygon fill="white" stroke="#bfbfbf" points="324,-0.5 324,-19.5 369,-19.5 369,-0.5 324,-0.5"/>
<text text-anchor="middle" x="346.5" y="-7.5" font-family="Helvetica,sans-Serif" font-size="10.00">utility</text>
</a>
</g>
</g>
<!-- Node3&#45;&gt;Node6 -->
<g id="edge5" class="edge">
<title>Node3&#45;&gt;Node6</title>
<path fill="none" stroke="midnightblue" d="M240.83,-229.58C237.2,-215.96 231.87,-189.33 238.5,-168 256.65,-109.59 304.91,-53.67 330.33,-27.1"/>
<polygon fill="midnightblue" stroke="midnightblue" points="332.94,-29.43 337.42,-19.82 327.93,-24.54 332.94,-29.43"/>
</g>
<!-- Node7 -->
<g id="node7" class="node">
<title>Node7</title>
<g id="a_node7"><a xlink:href="InvalidArgument_8hpp.html" target="_top" xlink:title="Definition of the InvalidArgument class.">
<polygon fill="white" stroke="black" points="247.5,-168.5 247.5,-187.5 405.5,-187.5 405.5,-168.5 247.5,-168.5"/>
<text text-anchor="middle" x="326.5" y="-175.5" font-family="Helvetica,sans-Serif" font-size="10.00">playrho/InvalidArgument.hpp</text>
</a>
</g>
</g>
<!-- Node3&#45;&gt;Node7 -->
<g id="edge6" class="edge">
<title>Node3&#45;&gt;Node7</title>
<path fill="none" stroke="midnightblue" d="M255.39,-229.98C268.7,-220.43 290.5,-204.81 306.46,-193.37"/>
<polygon fill="midnightblue" stroke="midnightblue" points="308.54,-196.18 314.63,-187.51 304.46,-190.49 308.54,-196.18"/>
</g>
<!-- Node9 -->
<g id="node9" class="node">
<title>Node9</title>
<g id="a_node9"><a xlink:href="Templates_8hpp.html" target="_top" xlink:title="Definitions of miscellaneous template related code.">
<polygon fill="white" stroke="black" points="537.5,-112.5 537.5,-131.5 665.5,-131.5 665.5,-112.5 537.5,-112.5"/>
<text text-anchor="middle" x="601.5" y="-119.5" font-family="Helvetica,sans-Serif" font-size="10.00">playrho/Templates.hpp</text>
</a>
</g>
</g>
<!-- Node3&#45;&gt;Node9 -->
<g id="edge8" class="edge">
<title>Node3&#45;&gt;Node9</title>
<path fill="none" stroke="midnightblue" d="M286.25,-229.96C327.91,-221.16 392.8,-206.19 447.5,-188 493.22,-172.8 544.41,-149.97 574.75,-135.81"/>
<polygon fill="midnightblue" stroke="midnightblue" points="576.27,-138.96 583.83,-131.53 573.29,-132.63 576.27,-138.96"/>
</g>
<!-- Node8 -->
<g id="node8" class="node">
<title>Node8</title>
<g id="a_node8"><a xlink:title=" ">
<polygon fill="white" stroke="#bfbfbf" points="294,-112.5 294,-131.5 359,-131.5 359,-112.5 294,-112.5"/>
<text text-anchor="middle" x="326.5" y="-119.5" font-family="Helvetica,sans-Serif" font-size="10.00">stdexcept</text>
</a>
</g>
</g>
<!-- Node7&#45;&gt;Node8 -->
<g id="edge7" class="edge">
<title>Node7&#45;&gt;Node8</title>
<path fill="none" stroke="midnightblue" d="M326.5,-168.08C326.5,-161.01 326.5,-150.86 326.5,-141.99"/>
<polygon fill="midnightblue" stroke="midnightblue" points="330,-141.75 326.5,-131.75 323,-141.75 330,-141.75"/>
</g>
<!-- Node10 -->
<g id="node10" class="node">
<title>Node10</title>
<g id="a_node10"><a xlink:href="detail_2Templates_8hpp.html" target="_top" xlink:title="Low&#45;level declarations for general class &amp; function templates.">
<polygon fill="white" stroke="black" points="575.5,-56.5 575.5,-75.5 733.5,-75.5 733.5,-56.5 575.5,-56.5"/>
<text text-anchor="middle" x="654.5" y="-63.5" font-family="Helvetica,sans-Serif" font-size="10.00">playrho/detail/Templates.hpp</text>
</a>
</g>
</g>
<!-- Node9&#45;&gt;Node10 -->
<g id="edge9" class="edge">
<title>Node9&#45;&gt;Node10</title>
<path fill="none" stroke="midnightblue" d="M610.25,-112.08C617.97,-104.22 629.4,-92.57 638.72,-83.08"/>
<polygon fill="midnightblue" stroke="midnightblue" points="641.4,-85.34 645.91,-75.75 636.41,-80.44 641.4,-85.34"/>
</g>
<!-- Node10&#45;&gt;Node5 -->
<g id="edge14" class="edge">
<title>Node10&#45;&gt;Node5</title>
<path fill="none" stroke="midnightblue" d="M637.31,-56.32C620.15,-47.66 593.55,-34.24 573.75,-24.25"/>
<polygon fill="midnightblue" stroke="midnightblue" points="575.15,-21.04 564.65,-19.65 572,-27.28 575.15,-21.04"/>
</g>
<!-- Node10&#45;&gt;Node6 -->
<g id="edge15" class="edge">
<title>Node10&#45;&gt;Node6</title>
<path fill="none" stroke="midnightblue" d="M605.7,-56.44C542.41,-45.35 433.71,-26.29 379.39,-16.77"/>
<polygon fill="midnightblue" stroke="midnightblue" points="379.74,-13.27 369.29,-15 378.53,-20.17 379.74,-13.27"/>
</g>
<!-- Node11 -->
<g id="node11" class="node">
<title>Node11</title>
<g id="a_node11"><a xlink:title=" ">
<polygon fill="white" stroke="#bfbfbf" points="1141.5,-0.5 1141.5,-19.5 1205.5,-19.5 1205.5,-0.5 1141.5,-0.5"/>
<text text-anchor="middle" x="1173.5" y="-7.5" font-family="Helvetica,sans-Serif" font-size="10.00">algorithm</text>
</a>
</g>
</g>
<!-- Node10&#45;&gt;Node11 -->
<g id="edge10" class="edge">
<title>Node10&#45;&gt;Node11</title>
<path fill="none" stroke="midnightblue" d="M733.61,-56.77C845.13,-45.17 1044.64,-24.41 1131.35,-15.39"/>
<polygon fill="midnightblue" stroke="midnightblue" points="1131.76,-18.86 1141.35,-14.35 1131.04,-11.9 1131.76,-18.86"/>
</g>
<!-- Node12 -->
<g id="node12" class="node">
<title>Node12</title>
<g id="a_node12"><a xlink:title=" ">
<polygon fill="white" stroke="#bfbfbf" points="611,-0.5 611,-19.5 676,-19.5 676,-0.5 611,-0.5"/>
<text text-anchor="middle" x="643.5" y="-7.5" font-family="Helvetica,sans-Serif" font-size="10.00">functional</text>
</a>
</g>
</g>
<!-- Node10&#45;&gt;Node12 -->
<g id="edge11" class="edge">
<title>Node10&#45;&gt;Node12</title>
<path fill="none" stroke="midnightblue" d="M652.68,-56.08C651.23,-48.93 649.13,-38.64 647.31,-29.69"/>
<polygon fill="midnightblue" stroke="midnightblue" points="650.71,-28.85 645.28,-19.75 643.85,-30.25 650.71,-28.85"/>
</g>
<!-- Node13 -->
<g id="node13" class="node">
<title>Node13</title>
<g id="a_node13"><a xlink:title=" ">
<polygon fill="white" stroke="#bfbfbf" points="694,-0.5 694,-19.5 747,-19.5 747,-0.5 694,-0.5"/>
<text text-anchor="middle" x="720.5" y="-7.5" font-family="Helvetica,sans-Serif" font-size="10.00">iterator</text>
</a>
</g>
</g>
<!-- Node10&#45;&gt;Node13 -->
<g id="edge12" class="edge">
<title>Node10&#45;&gt;Node13</title>
<path fill="none" stroke="midnightblue" d="M665.1,-56.32C674.96,-48.26 689.85,-36.08 701.72,-26.37"/>
<polygon fill="midnightblue" stroke="midnightblue" points="704.18,-28.88 709.7,-19.83 699.75,-23.46 704.18,-28.88"/>
</g>
<!-- Node14 -->
<g id="node14" class="node">
<title>Node14</title>
<g id="a_node14"><a xlink:title=" ">
<polygon fill="white" stroke="#bfbfbf" points="912.5,-0.5 912.5,-19.5 956.5,-19.5 956.5,-0.5 912.5,-0.5"/>
<text text-anchor="middle" x="934.5" y="-7.5" font-family="Helvetica,sans-Serif" font-size="10.00">limits</text>
</a>
</g>
</g>
<!-- Node10&#45;&gt;Node14 -->
<g id="edge13" class="edge">
<title>Node10&#45;&gt;Node14</title>
<path fill="none" stroke="midnightblue" d="M698.87,-56.44C755.59,-45.5 852.43,-26.83 902.47,-17.18"/>
<polygon fill="midnightblue" stroke="midnightblue" points="903.25,-20.59 912.4,-15.26 901.92,-13.72 903.25,-20.59"/>
</g>
<!-- Node16&#45;&gt;Node9 -->
<g id="edge51" class="edge">
<title>Node16&#45;&gt;Node9</title>
<path fill="none" stroke="midnightblue" d="M845.87,-523.88C764.26,-522.38 622.48,-514.57 587.5,-479 566.56,-457.71 567.28,-227.81 566.5,-188 566.33,-179.11 563.62,-176.41 566.5,-168 570.22,-157.16 577.73,-146.92 584.85,-138.96"/>
<polygon fill="midnightblue" stroke="midnightblue" points="587.55,-141.19 591.94,-131.55 582.5,-136.35 587.55,-141.19"/>
</g>
<!-- Node16&#45;&gt;Node11 -->
<g id="edge23" class="edge">
<title>Node16&#45;&gt;Node11</title>
<path fill="none" stroke="midnightblue" d="M963.03,-521.37C1081.49,-514.43 1338.5,-490.56 1338.5,-414 1338.5,-414 1338.5,-414 1338.5,-121 1338.5,-61.9 1264.3,-32.6 1215.42,-19.7"/>
<polygon fill="midnightblue" stroke="midnightblue" points="1216.26,-16.31 1205.71,-17.27 1214.55,-23.1 1216.26,-16.31"/>
</g>
<!-- Node17 -->
<g id="node17" class="node">
<title>Node17</title>
<g id="a_node17"><a xlink:title=" ">
<polygon fill="white" stroke="#bfbfbf" points="823,-459.5 823,-478.5 876,-478.5 876,-459.5 823,-459.5"/>
<text text-anchor="middle" x="849.5" y="-466.5" font-family="Helvetica,sans-Serif" font-size="10.00">cstddef</text>
</a>
</g>
</g>
<!-- Node16&#45;&gt;Node17 -->
<g id="edge18" class="edge">
<title>Node16&#45;&gt;Node17</title>
<path fill="none" stroke="midnightblue" d="M895.42,-515.08C887.33,-507.14 875.3,-495.34 865.59,-485.8"/>
<polygon fill="midnightblue" stroke="midnightblue" points="868,-483.26 858.41,-478.75 863.1,-488.25 868,-483.26"/>
</g>
<!-- Node18 -->
<g id="node18" class="node">
<title>Node18</title>
<g id="a_node18"><a xlink:title=" ">
<polygon fill="white" stroke="#bfbfbf" points="1220.5,-168.5 1220.5,-187.5 1272.5,-187.5 1272.5,-168.5 1220.5,-168.5"/>
<text text-anchor="middle" x="1246.5" y="-175.5" font-family="Helvetica,sans-Serif" font-size="10.00">cassert</text>
</a>
</g>
</g>
<!-- Node16&#45;&gt;Node18 -->
<g id="edge19" class="edge">
<title>Node16&#45;&gt;Node18</title>
<path fill="none" stroke="midnightblue" d="M963.01,-515.66C1053.6,-501.09 1217.5,-467.35 1217.5,-414 1217.5,-414 1217.5,-414 1217.5,-300 1217.5,-262.7 1230.69,-220.68 1239.28,-197.26"/>
<polygon fill="midnightblue" stroke="midnightblue" points="1242.66,-198.23 1242.94,-187.63 1236.12,-195.74 1242.66,-198.23"/>
</g>
<!-- Node19 -->
<g id="node19" class="node">
<title>Node19</title>
<g id="a_node19"><a xlink:title=" ">
<polygon fill="white" stroke="#bfbfbf" points="932.5,-459.5 932.5,-478.5 976.5,-478.5 976.5,-459.5 932.5,-459.5"/>
<text text-anchor="middle" x="954.5" y="-466.5" font-family="Helvetica,sans-Serif" font-size="10.00">cfloat</text>
</a>
</g>
</g>
<!-- Node16&#45;&gt;Node19 -->
<g id="edge20" class="edge">
<title>Node16&#45;&gt;Node19</title>
<path fill="none" stroke="midnightblue" d="M912.76,-515.08C919.96,-507.3 930.61,-495.8 939.35,-486.37"/>
<polygon fill="midnightblue" stroke="midnightblue" points="942.17,-488.47 946.4,-478.75 937.03,-483.71 942.17,-488.47"/>
</g>
<!-- Node20 -->
<g id="node20" class="node">
<title>Node20</title>
<g id="a_node20"><a xlink:title=" ">
<polygon fill="white" stroke="#bfbfbf" points="588,-230 588,-249 635,-249 635,-230 588,-230"/>
<text text-anchor="middle" x="611.5" y="-237" font-family="Helvetica,sans-Serif" font-size="10.00">cmath</text>
</a>
</g>
</g>
<!-- Node16&#45;&gt;Node20 -->
<g id="edge21" class="edge">
<title>Node16&#45;&gt;Node20</title>
<path fill="none" stroke="midnightblue" d="M845.8,-522.34C769.61,-519 642.26,-508.96 607.5,-479 584.6,-459.27 587.5,-444.23 587.5,-414 587.5,-414 587.5,-414 587.5,-356 587.5,-320.98 598.21,-281.2 605.32,-258.66"/>
<polygon fill="midnightblue" stroke="midnightblue" points="608.68,-259.66 608.46,-249.07 602.02,-257.48 608.68,-259.66"/>
</g>
<!-- Node21 -->
<g id="node21" class="node">
<title>Node21</title>
<g id="a_node21"><a xlink:title=" ">
<polygon fill="white" stroke="#bfbfbf" points="1167.5,-112.5 1167.5,-131.5 1217.5,-131.5 1217.5,-112.5 1167.5,-112.5"/>
<text text-anchor="middle" x="1192.5" y="-119.5" font-family="Helvetica,sans-Serif" font-size="10.00">cstdint</text>
</a>
</g>
</g>
<!-- Node16&#45;&gt;Node21 -->
<g id="edge22" class="edge">
<title>Node16&#45;&gt;Node21</title>
<path fill="none" stroke="midnightblue" d="M963.36,-519.91C1073.67,-510.62 1300.5,-483.12 1300.5,-414 1300.5,-414 1300.5,-414 1300.5,-238.5 1300.5,-206.05 1301.98,-193.17 1281.5,-168 1267.7,-151.04 1245.85,-139.86 1227.26,-132.89"/>
<polygon fill="midnightblue" stroke="midnightblue" points="1228.21,-129.51 1217.61,-129.52 1225.91,-136.12 1228.21,-129.51"/>
</g>
<!-- Node22 -->
<g id="node22" class="node">
<title>Node22</title>
<g id="a_node22"><a xlink:href="RealConstants_8hpp.html" target="_top" xlink:title="Definitions file for constant expressions of type Real.">
<polygon fill="white" stroke="black" points="830.5,-403.5 830.5,-422.5 978.5,-422.5 978.5,-403.5 830.5,-403.5"/>
<text text-anchor="middle" x="904.5" y="-410.5" font-family="Helvetica,sans-Serif" font-size="10.00">playrho/RealConstants.hpp</text>
</a>
</g>
</g>
<!-- Node16&#45;&gt;Node22 -->
<g id="edge24" class="edge">
<title>Node16&#45;&gt;Node22</title>
<path fill="none" stroke="midnightblue" d="M904.5,-515.37C904.5,-497.62 904.5,-456.67 904.5,-432.6"/>
<polygon fill="midnightblue" stroke="midnightblue" points="908,-432.59 904.5,-422.59 901,-432.59 908,-432.59"/>
</g>
<!-- Node36 -->
<g id="node36" class="node">
<title>Node36</title>
<g id="a_node36"><a xlink:href="Units_8hpp.html" target="_top" xlink:title="Declarations for physical units possibly backed by strong types.">
<polygon fill="white" stroke="black" points="616,-459.5 616,-478.5 719,-478.5 719,-459.5 616,-459.5"/>
<text text-anchor="middle" x="667.5" y="-466.5" font-family="Helvetica,sans-Serif" font-size="10.00">playrho/Units.hpp</text>
</a>
</g>
</g>
<!-- Node16&#45;&gt;Node36 -->
<g id="edge52" class="edge">
<title>Node16&#45;&gt;Node36</title>
<path fill="none" stroke="midnightblue" d="M866.95,-515.44C825.69,-506.04 759.36,-490.93 714.63,-480.74"/>
<polygon fill="midnightblue" stroke="midnightblue" points="715.41,-477.33 704.88,-478.52 713.85,-484.15 715.41,-477.33"/>
</g>
<!-- Node37 -->
<g id="node37" class="node">
<title>Node37</title>
<g id="a_node37"><a xlink:href="WiderType_8hpp.html" target="_top" xlink:title="Definition of the WiderType alias template.">
<polygon fill="white" stroke="black" points="1009.5,-403.5 1009.5,-422.5 1137.5,-422.5 1137.5,-403.5 1009.5,-403.5"/>
<text text-anchor="middle" x="1073.5" y="-410.5" font-family="Helvetica,sans-Serif" font-size="10.00">playrho/WiderType.hpp</text>
</a>
</g>
</g>
<!-- Node16&#45;&gt;Node37 -->
<g id="edge57" class="edge">
<title>Node16&#45;&gt;Node37</title>
<path fill="none" stroke="midnightblue" d="M921.31,-515.47C937.95,-506.85 963.99,-492.84 985.5,-479 1010.12,-463.16 1036.99,-442.83 1054.48,-429.16"/>
<polygon fill="midnightblue" stroke="midnightblue" points="1057.02,-431.62 1062.71,-422.68 1052.69,-426.12 1057.02,-431.62"/>
</g>
<!-- Node23 -->
<g id="node23" class="node">
<title>Node23</title>
<g id="a_node23"><a xlink:href="Defines_8hpp.html" target="_top" xlink:title="Miscellaneous C&#45;preprocessor definitions.">
<polygon fill="white" stroke="black" points="993.5,-112.5 993.5,-131.5 1107.5,-131.5 1107.5,-112.5 993.5,-112.5"/>
<text text-anchor="middle" x="1050.5" y="-119.5" font-family="Helvetica,sans-Serif" font-size="10.00">playrho/Defines.hpp</text>
</a>
</g>
</g>
<!-- Node22&#45;&gt;Node23 -->
<g id="edge25" class="edge">
<title>Node22&#45;&gt;Node23</title>
<path fill="none" stroke="midnightblue" d="M918.91,-403.37C931.73,-395.18 950.43,-381.93 963.5,-367 982.38,-345.43 985.87,-338 995.5,-311 1017.16,-250.3 995.31,-227.73 1019.5,-168 1023.63,-157.8 1030.39,-147.6 1036.54,-139.5"/>
<polygon fill="midnightblue" stroke="midnightblue" points="1039.32,-141.62 1042.82,-131.63 1033.85,-137.26 1039.32,-141.62"/>
</g>
<!-- Node24 -->
<g id="node24" class="node">
<title>Node24</title>
<g id="a_node24"><a xlink:href="Real_8hpp.html" target="_top" xlink:title="Real number definition file.">
<polygon fill="white" stroke="black" points="855,-347.5 855,-366.5 954,-366.5 954,-347.5 855,-347.5"/>
<text text-anchor="middle" x="904.5" y="-354.5" font-family="Helvetica,sans-Serif" font-size="10.00">playrho/Real.hpp</text>
</a>
</g>
</g>
<!-- Node22&#45;&gt;Node24 -->
<g id="edge26" class="edge">
<title>Node22&#45;&gt;Node24</title>
<path fill="none" stroke="midnightblue" d="M904.5,-403.08C904.5,-396.01 904.5,-385.86 904.5,-376.99"/>
<polygon fill="midnightblue" stroke="midnightblue" points="908,-376.75 904.5,-366.75 901,-376.75 908,-376.75"/>
</g>
<!-- Node25 -->
<g id="node25" class="node">
<title>Node25</title>
<g id="a_node25"><a xlink:href="Fixed_8hpp.html" target="_top" xlink:title="Definition of the Fixed class and closely related code.">
<polygon fill="white" stroke="black" points="853,-230 853,-249 956,-249 956,-230 853,-230"/>
<text text-anchor="middle" x="904.5" y="-237" font-family="Helvetica,sans-Serif" font-size="10.00">playrho/Fixed.hpp</text>
</a>
</g>
</g>
<!-- Node24&#45;&gt;Node25 -->
<g id="edge27" class="edge">
<title>Node24&#45;&gt;Node25</title>
<path fill="none" stroke="midnightblue" d="M932.52,-347.4C949.67,-340.51 970.25,-328.98 980.5,-311 994.31,-286.77 963.55,-266.04 937.12,-253.45"/>
<polygon fill="midnightblue" stroke="midnightblue" points="938.23,-250.11 927.67,-249.19 935.35,-256.49 938.23,-250.11"/>
</g>
<!-- Node34 -->
<g id="node34" class="node">
<title>Node34</title>
<g id="a_node34"><a xlink:href="FixedMath_8hpp.html" target="_top" xlink:title="Conventional math functions for the Fixed class template.">
<polygon fill="white" stroke="black" points="691.5,-291.5 691.5,-310.5 819.5,-310.5 819.5,-291.5 691.5,-291.5"/>
<text text-anchor="middle" x="755.5" y="-298.5" font-family="Helvetica,sans-Serif" font-size="10.00">playrho/FixedMath.hpp</text>
</a>
</g>
</g>
<!-- Node24&#45;&gt;Node34 -->
<g id="edge46" class="edge">
<title>Node24&#45;&gt;Node34</title>
<path fill="none" stroke="midnightblue" d="M880.89,-347.44C856.04,-338.44 816.73,-324.19 788.75,-314.05"/>
<polygon fill="midnightblue" stroke="midnightblue" points="789.59,-310.63 779,-310.52 787.21,-317.21 789.59,-310.63"/>
</g>
<!-- Node35 -->
<g id="node35" class="node">
<title>Node35</title>
<g id="a_node35"><a xlink:href="FixedLimits_8hpp.html" target="_top" xlink:title="Specialization of std::numeric_limits for Fixed.">
<polygon fill="white" stroke="black" points="838,-291.5 838,-310.5 971,-310.5 971,-291.5 838,-291.5"/>
<text text-anchor="middle" x="904.5" y="-298.5" font-family="Helvetica,sans-Serif" font-size="10.00">playrho/FixedLimits.hpp</text>
</a>
</g>
</g>
<!-- Node24&#45;&gt;Node35 -->
<g id="edge49" class="edge">
<title>Node24&#45;&gt;Node35</title>
<path fill="none" stroke="midnightblue" d="M904.5,-347.08C904.5,-340.01 904.5,-329.86 904.5,-320.99"/>
<polygon fill="midnightblue" stroke="midnightblue" points="908,-320.75 904.5,-310.75 901,-320.75 908,-320.75"/>
</g>
<!-- Node25&#45;&gt;Node4 -->
<g id="edge32" class="edge">
<title>Node25&#45;&gt;Node4</title>
<path fill="none" stroke="midnightblue" d="M861.66,-229.98C803.89,-218.48 701.8,-198.16 645.52,-186.96"/>
<polygon fill="midnightblue" stroke="midnightblue" points="646.05,-183.5 635.56,-184.98 644.69,-190.37 646.05,-183.5"/>
</g>
<!-- Node25&#45;&gt;Node5 -->
<g id="edge31" class="edge">
<title>Node25&#45;&gt;Node5</title>
<path fill="none" stroke="midnightblue" d="M878.75,-229.87C853.31,-220.9 813.65,-205.71 781.5,-188 730.41,-159.85 726.51,-138.4 674.5,-112 629.38,-89.1 601.6,-112.44 566.5,-76 554.66,-63.71 550.14,-44.45 548.44,-30.08"/>
<polygon fill="midnightblue" stroke="midnightblue" points="551.91,-29.52 547.6,-19.84 544.93,-30.09 551.91,-29.52"/>
</g>
<!-- Node25&#45;&gt;Node9 -->
<g id="edge33" class="edge">
<title>Node25&#45;&gt;Node9</title>
<path fill="none" stroke="midnightblue" d="M865.32,-229.93C828.53,-221.31 772.3,-206.63 725.5,-188 688.82,-173.4 648.76,-151.15 624.38,-136.85"/>
<polygon fill="midnightblue" stroke="midnightblue" points="625.93,-133.7 615.55,-131.61 622.36,-139.72 625.93,-133.7"/>
</g>
<!-- Node25&#45;&gt;Node14 -->
<g id="edge29" class="edge">
<title>Node25&#45;&gt;Node14</title>
<path fill="none" stroke="midnightblue" d="M908.8,-229.95C919.71,-208.7 950.06,-152.3 984.5,-112 1000.25,-93.56 1015.5,-98.09 1025.5,-76 1038.65,-46.95 997.48,-28.42 966.27,-18.87"/>
<polygon fill="midnightblue" stroke="midnightblue" points="967.15,-15.48 956.57,-16.08 965.21,-22.21 967.15,-15.48"/>
</g>
<!-- Node25&#45;&gt;Node18 -->
<g id="edge30" class="edge">
<title>Node25&#45;&gt;Node18</title>
<path fill="none" stroke="midnightblue" d="M956.22,-230.75C1016.49,-221.51 1118.99,-205.15 1206.5,-188 1207.76,-187.75 1209.04,-187.5 1210.33,-187.23"/>
<polygon fill="midnightblue" stroke="midnightblue" points="1211.24,-190.62 1220.29,-185.12 1209.78,-183.77 1211.24,-190.62"/>
</g>
<!-- Node25&#45;&gt;Node21 -->
<g id="edge28" class="edge">
<title>Node25&#45;&gt;Node21</title>
<path fill="none" stroke="midnightblue" d="M956.05,-235.15C1025.01,-229.64 1142.24,-216.31 1173.5,-188 1186.42,-176.3 1190.74,-156.36 1192.1,-141.64"/>
<polygon fill="midnightblue" stroke="midnightblue" points="1195.6,-141.81 1192.65,-131.63 1188.61,-141.42 1195.6,-141.81"/>
</g>
<!-- Node26 -->
<g id="node26" class="node">
<title>Node26</title>
<g id="a_node26"><a xlink:href="TypeInfo_8hpp.html" target="_top" xlink:title="Definition of TypeID class and closely related code.">
<polygon fill="white" stroke="black" points="790,-168.5 790,-187.5 909,-187.5 909,-168.5 790,-168.5"/>
<text text-anchor="middle" x="849.5" y="-175.5" font-family="Helvetica,sans-Serif" font-size="10.00">playrho/TypeInfo.hpp</text>
</a>
</g>
</g>
<!-- Node25&#45;&gt;Node26 -->
<g id="edge34" class="edge">
<title>Node25&#45;&gt;Node26</title>
<path fill="none" stroke="midnightblue" d="M896.62,-229.98C888.21,-220.87 874.68,-206.24 864.27,-194.98"/>
<polygon fill="midnightblue" stroke="midnightblue" points="866.72,-192.48 857.37,-187.51 861.58,-197.23 866.72,-192.48"/>
</g>
<!-- Node33 -->
<g id="node33" class="node">
<title>Node33</title>
<g id="a_node33"><a xlink:href="Wider_8hpp.html" target="_top" xlink:title="Definition of the Wider class template and specializations.">
<polygon fill="white" stroke="black" points="1028.5,-168.5 1028.5,-187.5 1164.5,-187.5 1164.5,-168.5 1028.5,-168.5"/>
<text text-anchor="middle" x="1096.5" y="-175.5" font-family="Helvetica,sans-Serif" font-size="10.00">playrho/detail/Wider.hpp</text>
</a>
</g>
</g>
<!-- Node25&#45;&gt;Node33 -->
<g id="edge42" class="edge">
<title>Node25&#45;&gt;Node33</title>
<path fill="none" stroke="midnightblue" d="M932.01,-229.98C965.37,-219.64 1021.76,-202.16 1059.06,-190.6"/>
<polygon fill="midnightblue" stroke="midnightblue" points="1060.53,-193.81 1069.04,-187.51 1058.45,-187.13 1060.53,-193.81"/>
</g>
<!-- Node26&#45;&gt;Node9 -->
<g id="edge36" class="edge">
<title>Node26&#45;&gt;Node9</title>
<path fill="none" stroke="midnightblue" d="M810.2,-168.44C766.94,-159.02 697.33,-143.87 650.53,-133.68"/>
<polygon fill="midnightblue" stroke="midnightblue" points="651.13,-130.22 640.61,-131.52 649.64,-137.06 651.13,-130.22"/>
</g>
<!-- Node27 -->
<g id="node27" class="node">
<title>Node27</title>
<g id="a_node27"><a xlink:title=" ">
<polygon fill="white" stroke="#bfbfbf" points="887.5,-112.5 887.5,-131.5 937.5,-131.5 937.5,-112.5 887.5,-112.5"/>
<text text-anchor="middle" x="912.5" y="-119.5" font-family="Helvetica,sans-Serif" font-size="10.00">cstring</text>
</a>
</g>
</g>
<!-- Node26&#45;&gt;Node27 -->
<g id="edge35" class="edge">
<title>Node26&#45;&gt;Node27</title>
<path fill="none" stroke="midnightblue" d="M859.62,-168.32C869.03,-160.26 883.24,-148.08 894.57,-138.37"/>
<polygon fill="midnightblue" stroke="midnightblue" points="896.88,-141 902.19,-131.83 892.32,-135.68 896.88,-141"/>
</g>
<!-- Node28 -->
<g id="node28" class="node">
<title>Node28</title>
<g id="a_node28"><a xlink:href="detail_2TypeInfo_8hpp.html" target="_top" xlink:title="Definition of TypeInfo class template and related code.">
<polygon fill="white" stroke="black" points="721,-112.5 721,-131.5 870,-131.5 870,-112.5 721,-112.5"/>
<text text-anchor="middle" x="795.5" y="-119.5" font-family="Helvetica,sans-Serif" font-size="10.00">playrho/detail/TypeInfo.hpp</text>
</a>
</g>
</g>
<!-- Node26&#45;&gt;Node28 -->
<g id="edge37" class="edge">
<title>Node26&#45;&gt;Node28</title>
<path fill="none" stroke="midnightblue" d="M840.58,-168.08C832.72,-160.22 821.07,-148.57 811.58,-139.08"/>
<polygon fill="midnightblue" stroke="midnightblue" points="813.8,-136.35 804.25,-131.75 808.85,-141.3 813.8,-136.35"/>
</g>
<!-- Node29 -->
<g id="node29" class="node">
<title>Node29</title>
<g id="a_node29"><a xlink:title=" ">
<polygon fill="white" stroke="#bfbfbf" points="910.5,-56.5 910.5,-75.5 954.5,-75.5 954.5,-56.5 910.5,-56.5"/>
<text text-anchor="middle" x="932.5" y="-63.5" font-family="Helvetica,sans-Serif" font-size="10.00">regex</text>
</a>
</g>
</g>
<!-- Node28&#45;&gt;Node29 -->
<g id="edge38" class="edge">
<title>Node28&#45;&gt;Node29</title>
<path fill="none" stroke="midnightblue" d="M817.21,-112.44C839.85,-103.52 875.57,-89.44 901.25,-79.32"/>
<polygon fill="midnightblue" stroke="midnightblue" points="902.87,-82.44 910.89,-75.52 900.31,-75.93 902.87,-82.44"/>
</g>
<!-- Node30 -->
<g id="node30" class="node">
<title>Node30</title>
<g id="a_node30"><a xlink:title=" ">
<polygon fill="white" stroke="#bfbfbf" points="972.5,-56.5 972.5,-75.5 1016.5,-75.5 1016.5,-56.5 972.5,-56.5"/>
<text text-anchor="middle" x="994.5" y="-63.5" font-family="Helvetica,sans-Serif" font-size="10.00">string</text>
</a>
</g>
</g>
<!-- Node28&#45;&gt;Node30 -->
<g id="edge39" class="edge">
<title>Node28&#45;&gt;Node30</title>
<path fill="none" stroke="midnightblue" d="M828.08,-112.49C859.98,-104.11 910.21,-90.78 962.4,-76.27"/>
<polygon fill="midnightblue" stroke="midnightblue" points="963.47,-79.6 972.16,-73.54 961.59,-72.86 963.47,-79.6"/>
</g>
<!-- Node31 -->
<g id="node31" class="node">
<title>Node31</title>
<g id="a_node31"><a xlink:title=" ">
<polygon fill="white" stroke="#bfbfbf" points="752,-56.5 752,-75.5 817,-75.5 817,-56.5 752,-56.5"/>
<text text-anchor="middle" x="784.5" y="-63.5" font-family="Helvetica,sans-Serif" font-size="10.00">typeindex</text>
</a>
</g>
</g>
<!-- Node28&#45;&gt;Node31 -->
<g id="edge40" class="edge">
<title>Node28&#45;&gt;Node31</title>
<path fill="none" stroke="midnightblue" d="M793.68,-112.08C792.23,-104.93 790.13,-94.64 788.31,-85.69"/>
<polygon fill="midnightblue" stroke="midnightblue" points="791.71,-84.85 786.28,-75.75 784.85,-86.25 791.71,-84.85"/>
</g>
<!-- Node32 -->
<g id="node32" class="node">
<title>Node32</title>
<g id="a_node32"><a xlink:title=" ">
<polygon fill="white" stroke="#bfbfbf" points="835,-56.5 835,-75.5 892,-75.5 892,-56.5 835,-56.5"/>
<text text-anchor="middle" x="863.5" y="-63.5" font-family="Helvetica,sans-Serif" font-size="10.00">typeinfo</text>
</a>
</g>
</g>
<!-- Node28&#45;&gt;Node32 -->
<g id="edge41" class="edge">
<title>Node28&#45;&gt;Node32</title>
<path fill="none" stroke="midnightblue" d="M806.43,-112.32C816.67,-104.18 832.22,-91.84 844.5,-82.09"/>
<polygon fill="midnightblue" stroke="midnightblue" points="846.72,-84.79 852.38,-75.83 842.37,-79.31 846.72,-84.79"/>
</g>
<!-- Node33&#45;&gt;Node5 -->
<g id="edge44" class="edge">
<title>Node33&#45;&gt;Node5</title>
<path fill="none" stroke="midnightblue" d="M1103.48,-168.12C1112.77,-155.15 1126.87,-130.55 1116.5,-112 1093.33,-70.54 1070.6,-70.86 1025.5,-56 846.3,3.04 789.74,-43.25 602.5,-20 599.08,-19.58 595.55,-19.1 592.01,-18.58"/>
<polygon fill="midnightblue" stroke="midnightblue" points="592.47,-15.11 582.06,-17.07 591.42,-22.03 592.47,-15.11"/>
</g>
<!-- Node33&#45;&gt;Node21 -->
<g id="edge43" class="edge">
<title>Node33&#45;&gt;Node21</title>
<path fill="none" stroke="midnightblue" d="M1111.92,-168.32C1127.04,-159.82 1150.32,-146.73 1167.97,-136.8"/>
<polygon fill="midnightblue" stroke="midnightblue" points="1170.11,-139.61 1177.11,-131.65 1166.68,-133.51 1170.11,-139.61"/>
</g>
<!-- Node33&#45;&gt;Node23 -->
<g id="edge45" class="edge">
<title>Node33&#45;&gt;Node23</title>
<path fill="none" stroke="midnightblue" d="M1088.9,-168.08C1082.27,-160.3 1072.48,-148.8 1064.44,-139.37"/>
<polygon fill="midnightblue" stroke="midnightblue" points="1067.1,-137.09 1057.95,-131.75 1061.77,-141.63 1067.1,-137.09"/>
</g>
<!-- Node34&#45;&gt;Node20 -->
<g id="edge47" class="edge">
<title>Node34&#45;&gt;Node20</title>
<path fill="none" stroke="midnightblue" d="M734.87,-291.48C710.38,-281.36 669.35,-264.4 641.39,-252.85"/>
<polygon fill="midnightblue" stroke="midnightblue" points="642.67,-249.59 632.09,-249.01 640,-256.06 642.67,-249.59"/>
</g>
<!-- Node34&#45;&gt;Node25 -->
<g id="edge48" class="edge">
<title>Node34&#45;&gt;Node25</title>
<path fill="none" stroke="midnightblue" d="M776.85,-291.48C802.19,-281.36 844.64,-264.4 873.57,-252.85"/>
<polygon fill="midnightblue" stroke="midnightblue" points="875.2,-255.97 883.19,-249.01 872.61,-249.47 875.2,-255.97"/>
</g>
<!-- Node35&#45;&gt;Node25 -->
<g id="edge50" class="edge">
<title>Node35&#45;&gt;Node25</title>
<path fill="none" stroke="midnightblue" d="M904.5,-291.48C904.5,-283.08 904.5,-269.98 904.5,-259.16"/>
<polygon fill="midnightblue" stroke="midnightblue" points="908,-259.01 904.5,-249.01 901,-259.01 908,-259.01"/>
</g>
<!-- Node36&#45;&gt;Node5 -->
<g id="edge54" class="edge">
<title>Node36&#45;&gt;Node5</title>
<path fill="none" stroke="midnightblue" d="M655.36,-459.38C618.37,-431.98 509.5,-342.69 509.5,-240.5 509.5,-240.5 509.5,-240.5 509.5,-121 509.5,-86.81 526.1,-49.76 537.36,-28.57"/>
<polygon fill="midnightblue" stroke="midnightblue" points="540.45,-30.22 542.22,-19.77 534.32,-26.83 540.45,-30.22"/>
</g>
<!-- Node36&#45;&gt;Node9 -->
<g id="edge56" class="edge">
<title>Node36&#45;&gt;Node9</title>
<path fill="none" stroke="midnightblue" d="M666.98,-459.45C665.89,-440.95 663.5,-395.84 663.5,-358 663.5,-358 663.5,-358 663.5,-238.5 663.5,-206.05 660.43,-196.27 644.5,-168 638.17,-156.75 628.38,-146.21 619.75,-138.15"/>
<polygon fill="midnightblue" stroke="midnightblue" points="622.07,-135.54 612.27,-131.51 617.42,-140.77 622.07,-135.54"/>
</g>
<!-- Node36&#45;&gt;Node20 -->
<g id="edge53" class="edge">
<title>Node36&#45;&gt;Node20</title>
<path fill="none" stroke="midnightblue" d="M663.44,-459.2C659.45,-450.25 653.39,-435.89 649.5,-423 631.86,-364.52 619.58,-293.07 614.34,-259.56"/>
<polygon fill="midnightblue" stroke="midnightblue" points="617.75,-258.73 612.78,-249.37 610.83,-259.79 617.75,-258.73"/>
</g>
<!-- Node36&#45;&gt;Node22 -->
<g id="edge55" class="edge">
<title>Node36&#45;&gt;Node22</title>
<path fill="none" stroke="midnightblue" d="M705.05,-459.44C746.31,-450.04 812.64,-434.93 857.37,-424.74"/>
<polygon fill="midnightblue" stroke="midnightblue" points="858.15,-428.15 867.12,-422.52 856.59,-421.33 858.15,-428.15"/>
</g>
<!-- Node37&#45;&gt;Node33 -->
<g id="edge58" class="edge">
<title>Node37&#45;&gt;Node33</title>
<path fill="none" stroke="midnightblue" d="M1074.35,-403.43C1077.67,-369.75 1089.89,-245.99 1094.61,-198.1"/>
<polygon fill="midnightblue" stroke="midnightblue" points="1098.12,-198.19 1095.62,-187.9 1091.16,-197.5 1098.12,-198.19"/>
</g>
<!-- Node38&#45;&gt;Node3 -->
<g id="edge60" class="edge">
<title>Node38&#45;&gt;Node3</title>
<path fill="none" stroke="midnightblue" d="M381.43,-291.48C353.82,-281.27 307.38,-264.11 276.1,-252.55"/>
<polygon fill="midnightblue" stroke="midnightblue" points="277.12,-249.19 266.52,-249.01 274.69,-255.76 277.12,-249.19"/>
</g>
<!-- Node39 -->
<g id="node39" class="node">
<title>Node39</title>
<g id="a_node39"><a xlink:href="UnitIntervalChecker_8hpp.html" target="_top" xlink:title="Definition of the UnitIntervalChecker class template.">
<polygon fill="white" stroke="black" points="336,-224.5 336,-254.5 481,-254.5 481,-224.5 336,-224.5"/>
<text text-anchor="start" x="344" y="-242.5" font-family="Helvetica,sans-Serif" font-size="10.00">playrho/detail/UnitInterval</text>
<text text-anchor="middle" x="408.5" y="-231.5" font-family="Helvetica,sans-Serif" font-size="10.00">Checker.hpp</text>
</a>
</g>
</g>
<!-- Node38&#45;&gt;Node39 -->
<g id="edge61" class="edge">
<title>Node38&#45;&gt;Node39</title>
<path fill="none" stroke="midnightblue" d="M405.07,-291.48C405.54,-284.47 406.23,-274.19 406.87,-264.7"/>
<polygon fill="midnightblue" stroke="midnightblue" points="410.38,-264.74 407.56,-254.52 403.39,-264.27 410.38,-264.74"/>
</g>
</g>
</svg>
