<?xml version="1.0" encoding="UTF-8" standalone="no"?>
<!DOCTYPE svg PUBLIC "-//W3C//DTD SVG 1.1//EN"
 "http://www.w3.org/Graphics/SVG/1.1/DTD/svg11.dtd">
<!-- Generated by graphviz version 2.43.0 (0)
 -->
<!-- Title: Library/include/playrho/ToiOutput.hpp Pages: 1 -->
<svg width="966pt" height="599pt"
 viewBox="0.00 0.00 966.00 599.00" xmlns="http://www.w3.org/2000/svg" xmlns:xlink="http://www.w3.org/1999/xlink">
<g id="graph0" class="graph" transform="scale(1 1) rotate(0) translate(4 595)">
<title>Library/include/playrho/ToiOutput.hpp</title>
<polygon fill="white" stroke="transparent" points="-4,4 -4,-595 962,-595 962,4 -4,4"/>
<!-- Node1 -->
<g id="node1" class="node">
<title>Node1</title>
<g id="a_node1"><a xlink:title="Definitions of ToiOutput class and closely related code.">
<polygon fill="#bfbfbf" stroke="black" points="400,-560.5 400,-590.5 528,-590.5 528,-560.5 400,-560.5"/>
<text text-anchor="start" x="408" y="-578.5" font-family="Helvetica,sans-Serif" font-size="10.00">Library/include/playrho</text>
<text text-anchor="middle" x="464" y="-567.5" font-family="Helvetica,sans-Serif" font-size="10.00">/ToiOutput.hpp</text>
</a>
</g>
</g>
<!-- Node2 -->
<g id="node2" class="node">
<title>Node2</title>
<g id="a_node2"><a xlink:href="Settings_8hpp.html" target="_top" xlink:title="Types and default settings file.">
<polygon fill="white" stroke="black" points="362.5,-504.5 362.5,-523.5 479.5,-523.5 479.5,-504.5 362.5,-504.5"/>
<text text-anchor="middle" x="421" y="-511.5" font-family="Helvetica,sans-Serif" font-size="10.00">playrho/Settings.hpp</text>
</a>
</g>
</g>
<!-- Node1&#45;&gt;Node2 -->
<g id="edge1" class="edge">
<title>Node1&#45;&gt;Node2</title>
<path fill="none" stroke="midnightblue" d="M453.81,-560.4C447.63,-551.84 439.7,-540.87 433.18,-531.86"/>
<polygon fill="midnightblue" stroke="midnightblue" points="435.95,-529.71 427.26,-523.66 430.28,-533.81 435.95,-529.71"/>
</g>
<!-- Node32 -->
<g id="node32" class="node">
<title>Node32</title>
<g id="a_node32"><a xlink:href="WiderType_8hpp.html" target="_top" xlink:title="Definition of the WiderType alias template.">
<polygon fill="white" stroke="black" points="758,-448.5 758,-467.5 886,-467.5 886,-448.5 758,-448.5"/>
<text text-anchor="middle" x="822" y="-455.5" font-family="Helvetica,sans-Serif" font-size="10.00">playrho/WiderType.hpp</text>
</a>
</g>
</g>
<!-- Node1&#45;&gt;Node32 -->
<g id="edge50" class="edge">
<title>Node1&#45;&gt;Node32</title>
<path fill="none" stroke="midnightblue" d="M507.54,-560.45C578.97,-537.41 719.7,-492 785.93,-470.64"/>
<polygon fill="midnightblue" stroke="midnightblue" points="787.08,-473.94 795.52,-467.54 784.93,-467.28 787.08,-473.94"/>
</g>
<!-- Node3 -->
<g id="node3" class="node">
<title>Node3</title>
<g id="a_node3"><a xlink:title=" ">
<polygon fill="white" stroke="#bfbfbf" points="686.5,-448.5 686.5,-467.5 739.5,-467.5 739.5,-448.5 686.5,-448.5"/>
<text text-anchor="middle" x="713" y="-455.5" font-family="Helvetica,sans-Serif" font-size="10.00">cstddef</text>
</a>
</g>
</g>
<!-- Node2&#45;&gt;Node3 -->
<g id="edge2" class="edge">
<title>Node2&#45;&gt;Node3</title>
<path fill="none" stroke="midnightblue" d="M472.07,-504.44C522.86,-495.79 602.97,-481.76 672,-468 673.29,-467.74 674.59,-467.48 675.92,-467.21"/>
<polygon fill="midnightblue" stroke="midnightblue" points="677.06,-470.54 686.12,-465.06 675.62,-463.69 677.06,-470.54"/>
</g>
<!-- Node4 -->
<g id="node4" class="node">
<title>Node4</title>
<g id="a_node4"><a xlink:title=" ">
<polygon fill="white" stroke="#bfbfbf" points="198,-168.5 198,-187.5 250,-187.5 250,-168.5 198,-168.5"/>
<text text-anchor="middle" x="224" y="-175.5" font-family="Helvetica,sans-Serif" font-size="10.00">cassert</text>
</a>
</g>
</g>
<!-- Node2&#45;&gt;Node4 -->
<g id="edge3" class="edge">
<title>Node2&#45;&gt;Node4</title>
<path fill="none" stroke="midnightblue" d="M373.64,-504.42C321.82,-491.99 246,-463.47 246,-403 246,-403 246,-403 246,-289 246,-256.33 236.55,-219.24 230.04,-197.55"/>
<polygon fill="midnightblue" stroke="midnightblue" points="233.29,-196.22 226.97,-187.72 226.61,-198.31 233.29,-196.22"/>
</g>
<!-- Node5 -->
<g id="node5" class="node">
<title>Node5</title>
<g id="a_node5"><a xlink:title=" ">
<polygon fill="white" stroke="#bfbfbf" points="60,-448.5 60,-467.5 104,-467.5 104,-448.5 60,-448.5"/>
<text text-anchor="middle" x="82" y="-455.5" font-family="Helvetica,sans-Serif" font-size="10.00">cfloat</text>
</a>
</g>
</g>
<!-- Node2&#45;&gt;Node5 -->
<g id="edge4" class="edge">
<title>Node2&#45;&gt;Node5</title>
<path fill="none" stroke="midnightblue" d="M362.34,-506.01C301.09,-498.31 202.37,-484.77 118,-468 116.72,-467.75 115.42,-467.48 114.1,-467.19"/>
<polygon fill="midnightblue" stroke="midnightblue" points="114.54,-463.7 104.01,-464.86 112.97,-470.52 114.54,-463.7"/>
</g>
<!-- Node6 -->
<g id="node6" class="node">
<title>Node6</title>
<g id="a_node6"><a xlink:title=" ">
<polygon fill="white" stroke="#bfbfbf" points="274.5,-224.5 274.5,-243.5 321.5,-243.5 321.5,-224.5 274.5,-224.5"/>
<text text-anchor="middle" x="298" y="-231.5" font-family="Helvetica,sans-Serif" font-size="10.00">cmath</text>
</a>
</g>
</g>
<!-- Node2&#45;&gt;Node6 -->
<g id="edge5" class="edge">
<title>Node2&#45;&gt;Node6</title>
<path fill="none" stroke="midnightblue" d="M362.08,-506.9C312.8,-500.45 248.05,-488.31 232,-468 178.83,-400.69 252.33,-292.67 284.37,-251.59"/>
<polygon fill="midnightblue" stroke="midnightblue" points="287.19,-253.67 290.69,-243.67 281.71,-249.3 287.19,-253.67"/>
</g>
<!-- Node7 -->
<g id="node7" class="node">
<title>Node7</title>
<g id="a_node7"><a xlink:title=" ">
<polygon fill="white" stroke="#bfbfbf" points="701,-112.5 701,-131.5 751,-131.5 751,-112.5 701,-112.5"/>
<text text-anchor="middle" x="726" y="-119.5" font-family="Helvetica,sans-Serif" font-size="10.00">cstdint</text>
</a>
</g>
</g>
<!-- Node2&#45;&gt;Node7 -->
<g id="edge6" class="edge">
<title>Node2&#45;&gt;Node7</title>
<path fill="none" stroke="midnightblue" d="M479.62,-507.91C544.19,-499.18 646.83,-475.58 707,-412 727.69,-390.14 726,-377.1 726,-347 726,-347 726,-347 726,-233 726,-200.95 726,-163.64 726,-141.75"/>
<polygon fill="midnightblue" stroke="midnightblue" points="729.5,-141.56 726,-131.56 722.5,-141.56 729.5,-141.56"/>
</g>
<!-- Node8 -->
<g id="node8" class="node">
<title>Node8</title>
<g id="a_node8"><a xlink:title=" ">
<polygon fill="white" stroke="#bfbfbf" points="0,-0.5 0,-19.5 64,-19.5 64,-0.5 0,-0.5"/>
<text text-anchor="middle" x="32" y="-7.5" font-family="Helvetica,sans-Serif" font-size="10.00">algorithm</text>
</a>
</g>
</g>
<!-- Node2&#45;&gt;Node8 -->
<g id="edge7" class="edge">
<title>Node2&#45;&gt;Node8</title>
<path fill="none" stroke="midnightblue" d="M362.31,-513.48C270.01,-513 96.7,-506.78 51,-468 28.05,-448.52 32,-433.1 32,-403 32,-403 32,-403 32,-121 32,-88.95 32,-51.64 32,-29.75"/>
<polygon fill="midnightblue" stroke="midnightblue" points="35.5,-29.56 32,-19.56 28.5,-29.56 35.5,-29.56"/>
</g>
<!-- Node9 -->
<g id="node9" class="node">
<title>Node9</title>
<g id="a_node9"><a xlink:href="RealConstants_8hpp.html" target="_top" xlink:title="Definitions file for constant expressions of type Real.">
<polygon fill="white" stroke="black" points="550,-392.5 550,-411.5 698,-411.5 698,-392.5 550,-392.5"/>
<text text-anchor="middle" x="624" y="-399.5" font-family="Helvetica,sans-Serif" font-size="10.00">playrho/RealConstants.hpp</text>
</a>
</g>
</g>
<!-- Node2&#45;&gt;Node9 -->
<g id="edge8" class="edge">
<title>Node2&#45;&gt;Node9</title>
<path fill="none" stroke="midnightblue" d="M436.93,-504.37C472.21,-485.25 557.14,-439.23 599.34,-416.36"/>
<polygon fill="midnightblue" stroke="midnightblue" points="601.02,-419.43 608.14,-411.59 597.69,-413.28 601.02,-419.43"/>
</g>
<!-- Node16 -->
<g id="node16" class="node">
<title>Node16</title>
<g id="a_node16"><a xlink:href="Templates_8hpp.html" target="_top" xlink:title="Definitions of miscellaneous template related code.">
<polygon fill="white" stroke="black" points="116,-112.5 116,-131.5 244,-131.5 244,-112.5 116,-112.5"/>
<text text-anchor="middle" x="180" y="-119.5" font-family="Helvetica,sans-Serif" font-size="10.00">playrho/Templates.hpp</text>
</a>
</g>
</g>
<!-- Node2&#45;&gt;Node16 -->
<g id="edge42" class="edge">
<title>Node2&#45;&gt;Node16</title>
<path fill="none" stroke="midnightblue" d="M362.11,-506.9C320.15,-500.93 263.21,-489.47 217,-468 173.87,-447.96 132,-450.56 132,-403 132,-403 132,-403 132,-233 132,-197.58 153.16,-160.71 167.38,-139.92"/>
<polygon fill="midnightblue" stroke="midnightblue" points="170.38,-141.74 173.33,-131.56 164.68,-137.68 170.38,-141.74"/>
</g>
<!-- Node31 -->
<g id="node31" class="node">
<title>Node31</title>
<g id="a_node31"><a xlink:href="Units_8hpp.html" target="_top" xlink:title="Declarations for physical units possibly backed by strong types.">
<polygon fill="white" stroke="black" points="369.5,-448.5 369.5,-467.5 472.5,-467.5 472.5,-448.5 369.5,-448.5"/>
<text text-anchor="middle" x="421" y="-455.5" font-family="Helvetica,sans-Serif" font-size="10.00">playrho/Units.hpp</text>
</a>
</g>
</g>
<!-- Node2&#45;&gt;Node31 -->
<g id="edge43" class="edge">
<title>Node2&#45;&gt;Node31</title>
<path fill="none" stroke="midnightblue" d="M421,-504.08C421,-497.01 421,-486.86 421,-477.99"/>
<polygon fill="midnightblue" stroke="midnightblue" points="424.5,-477.75 421,-467.75 417.5,-477.75 424.5,-477.75"/>
</g>
<!-- Node2&#45;&gt;Node32 -->
<g id="edge48" class="edge">
<title>Node2&#45;&gt;Node32</title>
<path fill="none" stroke="midnightblue" d="M479.74,-505.09C551.04,-495.49 671.33,-479.29 748.65,-468.88"/>
<polygon fill="midnightblue" stroke="midnightblue" points="749.36,-472.31 758.8,-467.51 748.42,-465.38 749.36,-472.31"/>
</g>
<!-- Node10 -->
<g id="node10" class="node">
<title>Node10</title>
<g id="a_node10"><a xlink:href="Defines_8hpp.html" target="_top" xlink:title="Miscellaneous C&#45;preprocessor definitions.">
<polygon fill="white" stroke="black" points="844,-112.5 844,-131.5 958,-131.5 958,-112.5 844,-112.5"/>
<text text-anchor="middle" x="901" y="-119.5" font-family="Helvetica,sans-Serif" font-size="10.00">playrho/Defines.hpp</text>
</a>
</g>
</g>
<!-- Node9&#45;&gt;Node10 -->
<g id="edge9" class="edge">
<title>Node9&#45;&gt;Node10</title>
<path fill="none" stroke="midnightblue" d="M644.91,-392.48C698.87,-369.22 842.52,-298.84 899,-188 906.29,-173.7 906.1,-155.23 904.49,-141.64"/>
<polygon fill="midnightblue" stroke="midnightblue" points="907.92,-140.91 902.93,-131.56 901,-141.98 907.92,-140.91"/>
</g>
<!-- Node11 -->
<g id="node11" class="node">
<title>Node11</title>
<g id="a_node11"><a xlink:href="Real_8hpp.html" target="_top" xlink:title="Real number definition file.">
<polygon fill="white" stroke="black" points="443.5,-336.5 443.5,-355.5 542.5,-355.5 542.5,-336.5 443.5,-336.5"/>
<text text-anchor="middle" x="493" y="-343.5" font-family="Helvetica,sans-Serif" font-size="10.00">playrho/Real.hpp</text>
</a>
</g>
</g>
<!-- Node9&#45;&gt;Node11 -->
<g id="edge10" class="edge">
<title>Node9&#45;&gt;Node11</title>
<path fill="none" stroke="midnightblue" d="M603.24,-392.44C581.68,-383.56 547.74,-369.56 523.21,-359.45"/>
<polygon fill="midnightblue" stroke="midnightblue" points="524.24,-356.09 513.66,-355.52 521.57,-362.56 524.24,-356.09"/>
</g>
<!-- Node12 -->
<g id="node12" class="node">
<title>Node12</title>
<g id="a_node12"><a xlink:href="Fixed_8hpp.html" target="_top" xlink:title="Definition of the Fixed class and closely related code.">
<polygon fill="white" stroke="black" points="416.5,-224.5 416.5,-243.5 519.5,-243.5 519.5,-224.5 416.5,-224.5"/>
<text text-anchor="middle" x="468" y="-231.5" font-family="Helvetica,sans-Serif" font-size="10.00">playrho/Fixed.hpp</text>
</a>
</g>
</g>
<!-- Node11&#45;&gt;Node12 -->
<g id="edge11" class="edge">
<title>Node11&#45;&gt;Node12</title>
<path fill="none" stroke="midnightblue" d="M491.04,-336.37C487,-318.62 477.7,-277.67 472.23,-253.6"/>
<polygon fill="midnightblue" stroke="midnightblue" points="475.58,-252.57 469.95,-243.59 468.76,-254.12 475.58,-252.57"/>
</g>
<!-- Node29 -->
<g id="node29" class="node">
<title>Node29</title>
<g id="a_node29"><a xlink:href="FixedMath_8hpp.html" target="_top" xlink:title="Conventional math functions for the Fixed class template.">
<polygon fill="white" stroke="black" points="312,-280.5 312,-299.5 440,-299.5 440,-280.5 312,-280.5"/>
<text text-anchor="middle" x="376" y="-287.5" font-family="Helvetica,sans-Serif" font-size="10.00">playrho/FixedMath.hpp</text>
</a>
</g>
</g>
<!-- Node11&#45;&gt;Node29 -->
<g id="edge37" class="edge">
<title>Node11&#45;&gt;Node29</title>
<path fill="none" stroke="midnightblue" d="M474.46,-336.44C455.38,-327.64 425.43,-313.81 403.56,-303.72"/>
<polygon fill="midnightblue" stroke="midnightblue" points="405,-300.53 394.45,-299.52 402.07,-306.88 405,-300.53"/>
</g>
<!-- Node30 -->
<g id="node30" class="node">
<title>Node30</title>
<g id="a_node30"><a xlink:href="FixedLimits_8hpp.html" target="_top" xlink:title="Specialization of std::numeric_limits for Fixed.">
<polygon fill="white" stroke="black" points="496.5,-280.5 496.5,-299.5 629.5,-299.5 629.5,-280.5 496.5,-280.5"/>
<text text-anchor="middle" x="563" y="-287.5" font-family="Helvetica,sans-Serif" font-size="10.00">playrho/FixedLimits.hpp</text>
</a>
</g>
</g>
<!-- Node11&#45;&gt;Node30 -->
<g id="edge40" class="edge">
<title>Node11&#45;&gt;Node30</title>
<path fill="none" stroke="midnightblue" d="M504.25,-336.32C514.8,-328.18 530.8,-315.84 543.44,-306.09"/>
<polygon fill="midnightblue" stroke="midnightblue" points="545.77,-308.71 551.55,-299.83 541.49,-303.17 545.77,-308.71"/>
</g>
<!-- Node12&#45;&gt;Node4 -->
<g id="edge14" class="edge">
<title>Node12&#45;&gt;Node4</title>
<path fill="none" stroke="midnightblue" d="M428.88,-224.42C387.81,-215.4 321.35,-200.78 264,-188 262.75,-187.72 261.48,-187.44 260.19,-187.15"/>
<polygon fill="midnightblue" stroke="midnightblue" points="260.77,-183.69 250.25,-184.92 259.24,-190.52 260.77,-183.69"/>
</g>
<!-- Node12&#45;&gt;Node7 -->
<g id="edge12" class="edge">
<title>Node12&#45;&gt;Node7</title>
<path fill="none" stroke="midnightblue" d="M510.8,-224.46C543.3,-217.12 588.62,-205.01 626,-188 656.24,-174.24 687.85,-152.2 707.24,-137.66"/>
<polygon fill="midnightblue" stroke="midnightblue" points="709.4,-140.41 715.24,-131.57 705.16,-134.84 709.4,-140.41"/>
</g>
<!-- Node13 -->
<g id="node13" class="node">
<title>Node13</title>
<g id="a_node13"><a xlink:title=" ">
<polygon fill="white" stroke="#bfbfbf" points="300,-0.5 300,-19.5 344,-19.5 344,-0.5 300,-0.5"/>
<text text-anchor="middle" x="322" y="-7.5" font-family="Helvetica,sans-Serif" font-size="10.00">limits</text>
</a>
</g>
</g>
<!-- Node12&#45;&gt;Node13 -->
<g id="edge13" class="edge">
<title>Node12&#45;&gt;Node13</title>
<path fill="none" stroke="midnightblue" d="M416.79,-224.49C392.81,-218.11 365.51,-207.05 347,-188 304.46,-144.21 300.44,-116.45 309,-56 310.27,-47.04 312.89,-37.37 315.45,-29.3"/>
<polygon fill="midnightblue" stroke="midnightblue" points="318.77,-30.4 318.66,-19.8 312.14,-28.16 318.77,-30.4"/>
</g>
<!-- Node14 -->
<g id="node14" class="node">
<title>Node14</title>
<g id="a_node14"><a xlink:title=" ">
<polygon fill="white" stroke="#bfbfbf" points="596.5,-0.5 596.5,-19.5 665.5,-19.5 665.5,-0.5 596.5,-0.5"/>
<text text-anchor="middle" x="631" y="-7.5" font-family="Helvetica,sans-Serif" font-size="10.00">type_traits</text>
</a>
</g>
</g>
<!-- Node12&#45;&gt;Node14 -->
<g id="edge15" class="edge">
<title>Node12&#45;&gt;Node14</title>
<path fill="none" stroke="midnightblue" d="M500.38,-224.45C520.75,-217.59 546.25,-206.07 563,-188 606.03,-141.59 622.78,-65.05 628.46,-29.82"/>
<polygon fill="midnightblue" stroke="midnightblue" points="631.97,-29.96 629.98,-19.56 625.05,-28.94 631.97,-29.96"/>
</g>
<!-- Node15 -->
<g id="node15" class="node">
<title>Node15</title>
<g id="a_node15"><a xlink:title=" ">
<polygon fill="white" stroke="#bfbfbf" points="494,-168.5 494,-187.5 554,-187.5 554,-168.5 494,-168.5"/>
<text text-anchor="middle" x="524" y="-175.5" font-family="Helvetica,sans-Serif" font-size="10.00">iostream</text>
</a>
</g>
</g>
<!-- Node12&#45;&gt;Node15 -->
<g id="edge16" class="edge">
<title>Node12&#45;&gt;Node15</title>
<path fill="none" stroke="midnightblue" d="M477,-224.32C485.19,-216.42 497.51,-204.55 507.47,-194.94"/>
<polygon fill="midnightblue" stroke="midnightblue" points="510.07,-197.29 514.84,-187.83 505.21,-192.26 510.07,-197.29"/>
</g>
<!-- Node12&#45;&gt;Node16 -->
<g id="edge17" class="edge">
<title>Node12&#45;&gt;Node16</title>
<path fill="none" stroke="midnightblue" d="M426.58,-224.5C392.48,-216.86 343.23,-204.33 302,-188 282.67,-180.34 233.63,-153.28 203.94,-136.58"/>
<polygon fill="midnightblue" stroke="midnightblue" points="205.48,-133.43 195.05,-131.57 202.04,-139.53 205.48,-133.43"/>
</g>
<!-- Node21 -->
<g id="node21" class="node">
<title>Node21</title>
<g id="a_node21"><a xlink:href="TypeInfo_8hpp.html" target="_top" xlink:title="Definition of TypeID class and closely related code.">
<polygon fill="white" stroke="black" points="356.5,-168.5 356.5,-187.5 475.5,-187.5 475.5,-168.5 356.5,-168.5"/>
<text text-anchor="middle" x="416" y="-175.5" font-family="Helvetica,sans-Serif" font-size="10.00">playrho/TypeInfo.hpp</text>
</a>
</g>
</g>
<!-- Node12&#45;&gt;Node21 -->
<g id="edge25" class="edge">
<title>Node12&#45;&gt;Node21</title>
<path fill="none" stroke="midnightblue" d="M459.41,-224.08C451.84,-216.22 440.62,-204.57 431.49,-195.08"/>
<polygon fill="midnightblue" stroke="midnightblue" points="433.88,-192.53 424.43,-187.75 428.84,-197.38 433.88,-192.53"/>
</g>
<!-- Node28 -->
<g id="node28" class="node">
<title>Node28</title>
<g id="a_node28"><a xlink:href="Wider_8hpp.html" target="_top" xlink:title="Definition of the Wider class template and specializations.">
<polygon fill="white" stroke="black" points="754,-168.5 754,-187.5 890,-187.5 890,-168.5 754,-168.5"/>
<text text-anchor="middle" x="822" y="-175.5" font-family="Helvetica,sans-Serif" font-size="10.00">playrho/detail/Wider.hpp</text>
</a>
</g>
</g>
<!-- Node12&#45;&gt;Node28 -->
<g id="edge33" class="edge">
<title>Node12&#45;&gt;Node28</title>
<path fill="none" stroke="midnightblue" d="M519.85,-225.09C582.42,-215.55 687.69,-199.49 755.99,-189.07"/>
<polygon fill="midnightblue" stroke="midnightblue" points="756.85,-192.48 766.21,-187.51 755.8,-185.56 756.85,-192.48"/>
</g>
<!-- Node17 -->
<g id="node17" class="node">
<title>Node17</title>
<g id="a_node17"><a xlink:href="detail_2Templates_8hpp.html" target="_top" xlink:title="Low&#45;level declarations for general class &amp; function templates.">
<polygon fill="white" stroke="black" points="101,-56.5 101,-75.5 259,-75.5 259,-56.5 101,-56.5"/>
<text text-anchor="middle" x="180" y="-63.5" font-family="Helvetica,sans-Serif" font-size="10.00">playrho/detail/Templates.hpp</text>
</a>
</g>
</g>
<!-- Node16&#45;&gt;Node17 -->
<g id="edge18" class="edge">
<title>Node16&#45;&gt;Node17</title>
<path fill="none" stroke="midnightblue" d="M180,-112.08C180,-105.01 180,-94.86 180,-85.99"/>
<polygon fill="midnightblue" stroke="midnightblue" points="183.5,-85.75 180,-75.75 176.5,-85.75 183.5,-85.75"/>
</g>
<!-- Node17&#45;&gt;Node8 -->
<g id="edge19" class="edge">
<title>Node17&#45;&gt;Node8</title>
<path fill="none" stroke="midnightblue" d="M156.55,-56.44C131.87,-47.44 92.81,-33.19 65.02,-23.05"/>
<polygon fill="midnightblue" stroke="midnightblue" points="65.94,-19.66 55.34,-19.52 63.54,-26.23 65.94,-19.66"/>
</g>
<!-- Node17&#45;&gt;Node13 -->
<g id="edge22" class="edge">
<title>Node17&#45;&gt;Node13</title>
<path fill="none" stroke="midnightblue" d="M202.5,-56.44C226.08,-47.48 263.32,-33.31 289.96,-23.18"/>
<polygon fill="midnightblue" stroke="midnightblue" points="291.5,-26.34 299.6,-19.52 289.01,-19.8 291.5,-26.34"/>
</g>
<!-- Node17&#45;&gt;Node14 -->
<g id="edge23" class="edge">
<title>Node17&#45;&gt;Node14</title>
<path fill="none" stroke="midnightblue" d="M251.46,-56.44C345.47,-45.19 507.91,-25.74 586.22,-16.36"/>
<polygon fill="midnightblue" stroke="midnightblue" points="586.74,-19.82 596.25,-15.16 585.9,-12.87 586.74,-19.82"/>
</g>
<!-- Node18 -->
<g id="node18" class="node">
<title>Node18</title>
<g id="a_node18"><a xlink:title=" ">
<polygon fill="white" stroke="#bfbfbf" points="145.5,-0.5 145.5,-19.5 210.5,-19.5 210.5,-0.5 145.5,-0.5"/>
<text text-anchor="middle" x="178" y="-7.5" font-family="Helvetica,sans-Serif" font-size="10.00">functional</text>
</a>
</g>
</g>
<!-- Node17&#45;&gt;Node18 -->
<g id="edge20" class="edge">
<title>Node17&#45;&gt;Node18</title>
<path fill="none" stroke="midnightblue" d="M179.67,-56.08C179.41,-49.01 179.03,-38.86 178.7,-29.99"/>
<polygon fill="midnightblue" stroke="midnightblue" points="182.19,-29.61 178.32,-19.75 175.2,-29.87 182.19,-29.61"/>
</g>
<!-- Node19 -->
<g id="node19" class="node">
<title>Node19</title>
<g id="a_node19"><a xlink:title=" ">
<polygon fill="white" stroke="#bfbfbf" points="228.5,-0.5 228.5,-19.5 281.5,-19.5 281.5,-0.5 228.5,-0.5"/>
<text text-anchor="middle" x="255" y="-7.5" font-family="Helvetica,sans-Serif" font-size="10.00">iterator</text>
</a>
</g>
</g>
<!-- Node17&#45;&gt;Node19 -->
<g id="edge21" class="edge">
<title>Node17&#45;&gt;Node19</title>
<path fill="none" stroke="midnightblue" d="M192.05,-56.32C203.46,-48.11 220.83,-35.6 234.43,-25.81"/>
<polygon fill="midnightblue" stroke="midnightblue" points="236.66,-28.52 242.73,-19.83 232.57,-22.84 236.66,-28.52"/>
</g>
<!-- Node20 -->
<g id="node20" class="node">
<title>Node20</title>
<g id="a_node20"><a xlink:title=" ">
<polygon fill="white" stroke="#bfbfbf" points="82.5,-0.5 82.5,-19.5 127.5,-19.5 127.5,-0.5 82.5,-0.5"/>
<text text-anchor="middle" x="105" y="-7.5" font-family="Helvetica,sans-Serif" font-size="10.00">utility</text>
</a>
</g>
</g>
<!-- Node17&#45;&gt;Node20 -->
<g id="edge24" class="edge">
<title>Node17&#45;&gt;Node20</title>
<path fill="none" stroke="midnightblue" d="M167.95,-56.32C156.54,-48.11 139.17,-35.6 125.57,-25.81"/>
<polygon fill="midnightblue" stroke="midnightblue" points="127.43,-22.84 117.27,-19.83 123.34,-28.52 127.43,-22.84"/>
</g>
<!-- Node21&#45;&gt;Node16 -->
<g id="edge27" class="edge">
<title>Node21&#45;&gt;Node16</title>
<path fill="none" stroke="midnightblue" d="M378.61,-168.44C337.61,-159.06 271.75,-143.99 227.22,-133.8"/>
<polygon fill="midnightblue" stroke="midnightblue" points="227.75,-130.34 217.22,-131.52 226.19,-137.16 227.75,-130.34"/>
</g>
<!-- Node22 -->
<g id="node22" class="node">
<title>Node22</title>
<g id="a_node22"><a xlink:title=" ">
<polygon fill="white" stroke="#bfbfbf" points="508,-112.5 508,-131.5 558,-131.5 558,-112.5 508,-112.5"/>
<text text-anchor="middle" x="533" y="-119.5" font-family="Helvetica,sans-Serif" font-size="10.00">cstring</text>
</a>
</g>
</g>
<!-- Node21&#45;&gt;Node22 -->
<g id="edge26" class="edge">
<title>Node21&#45;&gt;Node22</title>
<path fill="none" stroke="midnightblue" d="M434.54,-168.44C453.62,-159.64 483.57,-145.81 505.44,-135.72"/>
<polygon fill="midnightblue" stroke="midnightblue" points="506.93,-138.88 514.55,-131.52 504,-132.53 506.93,-138.88"/>
</g>
<!-- Node23 -->
<g id="node23" class="node">
<title>Node23</title>
<g id="a_node23"><a xlink:href="detail_2TypeInfo_8hpp.html" target="_top" xlink:title="Definition of TypeInfo class template and related code.">
<polygon fill="white" stroke="black" points="341.5,-112.5 341.5,-131.5 490.5,-131.5 490.5,-112.5 341.5,-112.5"/>
<text text-anchor="middle" x="416" y="-119.5" font-family="Helvetica,sans-Serif" font-size="10.00">playrho/detail/TypeInfo.hpp</text>
</a>
</g>
</g>
<!-- Node21&#45;&gt;Node23 -->
<g id="edge28" class="edge">
<title>Node21&#45;&gt;Node23</title>
<path fill="none" stroke="midnightblue" d="M416,-168.08C416,-161.01 416,-150.86 416,-141.99"/>
<polygon fill="midnightblue" stroke="midnightblue" points="419.5,-141.75 416,-131.75 412.5,-141.75 419.5,-141.75"/>
</g>
<!-- Node24 -->
<g id="node24" class="node">
<title>Node24</title>
<g id="a_node24"><a xlink:title=" ">
<polygon fill="white" stroke="#bfbfbf" points="394,-56.5 394,-75.5 438,-75.5 438,-56.5 394,-56.5"/>
<text text-anchor="middle" x="416" y="-63.5" font-family="Helvetica,sans-Serif" font-size="10.00">regex</text>
</a>
</g>
</g>
<!-- Node23&#45;&gt;Node24 -->
<g id="edge29" class="edge">
<title>Node23&#45;&gt;Node24</title>
<path fill="none" stroke="midnightblue" d="M416,-112.08C416,-105.01 416,-94.86 416,-85.99"/>
<polygon fill="midnightblue" stroke="midnightblue" points="419.5,-85.75 416,-75.75 412.5,-85.75 419.5,-85.75"/>
</g>
<!-- Node25 -->
<g id="node25" class="node">
<title>Node25</title>
<g id="a_node25"><a xlink:title=" ">
<polygon fill="white" stroke="#bfbfbf" points="456,-56.5 456,-75.5 500,-75.5 500,-56.5 456,-56.5"/>
<text text-anchor="middle" x="478" y="-63.5" font-family="Helvetica,sans-Serif" font-size="10.00">string</text>
</a>
</g>
</g>
<!-- Node23&#45;&gt;Node25 -->
<g id="edge30" class="edge">
<title>Node23&#45;&gt;Node25</title>
<path fill="none" stroke="midnightblue" d="M425.96,-112.32C435.13,-104.34 448.94,-92.31 460.03,-82.65"/>
<polygon fill="midnightblue" stroke="midnightblue" points="462.62,-85.04 467.86,-75.83 458.02,-79.76 462.62,-85.04"/>
</g>
<!-- Node26 -->
<g id="node26" class="node">
<title>Node26</title>
<g id="a_node26"><a xlink:title=" ">
<polygon fill="white" stroke="#bfbfbf" points="518.5,-56.5 518.5,-75.5 583.5,-75.5 583.5,-56.5 518.5,-56.5"/>
<text text-anchor="middle" x="551" y="-63.5" font-family="Helvetica,sans-Serif" font-size="10.00">typeindex</text>
</a>
</g>
</g>
<!-- Node23&#45;&gt;Node26 -->
<g id="edge31" class="edge">
<title>Node23&#45;&gt;Node26</title>
<path fill="none" stroke="midnightblue" d="M437.39,-112.44C459.71,-103.52 494.9,-89.44 520.21,-79.32"/>
<polygon fill="midnightblue" stroke="midnightblue" points="521.72,-82.48 529.71,-75.52 519.12,-75.98 521.72,-82.48"/>
</g>
<!-- Node27 -->
<g id="node27" class="node">
<title>Node27</title>
<g id="a_node27"><a xlink:title=" ">
<polygon fill="white" stroke="#bfbfbf" points="318.5,-56.5 318.5,-75.5 375.5,-75.5 375.5,-56.5 318.5,-56.5"/>
<text text-anchor="middle" x="347" y="-63.5" font-family="Helvetica,sans-Serif" font-size="10.00">typeinfo</text>
</a>
</g>
</g>
<!-- Node23&#45;&gt;Node27 -->
<g id="edge32" class="edge">
<title>Node23&#45;&gt;Node27</title>
<path fill="none" stroke="midnightblue" d="M404.91,-112.32C394.51,-104.18 378.74,-91.84 366.28,-82.09"/>
<polygon fill="midnightblue" stroke="midnightblue" points="368.32,-79.24 358.29,-75.83 364.01,-84.75 368.32,-79.24"/>
</g>
<!-- Node28&#45;&gt;Node7 -->
<g id="edge34" class="edge">
<title>Node28&#45;&gt;Node7</title>
<path fill="none" stroke="midnightblue" d="M806.58,-168.32C791.46,-159.82 768.18,-146.73 750.53,-136.8"/>
<polygon fill="midnightblue" stroke="midnightblue" points="751.82,-133.51 741.39,-131.65 748.39,-139.61 751.82,-133.51"/>
</g>
<!-- Node28&#45;&gt;Node10 -->
<g id="edge36" class="edge">
<title>Node28&#45;&gt;Node10</title>
<path fill="none" stroke="midnightblue" d="M834.69,-168.32C846.9,-159.98 865.58,-147.21 880,-137.35"/>
<polygon fill="midnightblue" stroke="midnightblue" points="882.06,-140.19 888.34,-131.65 878.11,-134.41 882.06,-140.19"/>
</g>
<!-- Node28&#45;&gt;Node14 -->
<g id="edge35" class="edge">
<title>Node28&#45;&gt;Node14</title>
<path fill="none" stroke="midnightblue" d="M814.35,-168.2C803,-155.33 780.79,-130.86 760,-112 723.63,-79.01 677.64,-44.58 651.55,-25.66"/>
<polygon fill="midnightblue" stroke="midnightblue" points="653.36,-22.65 643.2,-19.64 649.27,-28.33 653.36,-22.65"/>
</g>
<!-- Node29&#45;&gt;Node6 -->
<g id="edge38" class="edge">
<title>Node29&#45;&gt;Node6</title>
<path fill="none" stroke="midnightblue" d="M363.47,-280.32C351.41,-271.98 332.97,-259.21 318.73,-249.35"/>
<polygon fill="midnightblue" stroke="midnightblue" points="320.72,-246.47 310.5,-243.65 316.73,-252.22 320.72,-246.47"/>
</g>
<!-- Node29&#45;&gt;Node12 -->
<g id="edge39" class="edge">
<title>Node29&#45;&gt;Node12</title>
<path fill="none" stroke="midnightblue" d="M390.78,-280.32C405.27,-271.82 427.57,-258.73 444.49,-248.8"/>
<polygon fill="midnightblue" stroke="midnightblue" points="446.4,-251.74 453.26,-243.65 442.86,-245.7 446.4,-251.74"/>
</g>
<!-- Node30&#45;&gt;Node12 -->
<g id="edge41" class="edge">
<title>Node30&#45;&gt;Node12</title>
<path fill="none" stroke="midnightblue" d="M547.74,-280.32C532.78,-271.82 509.75,-258.73 492.27,-248.8"/>
<polygon fill="midnightblue" stroke="midnightblue" points="493.65,-245.55 483.23,-243.65 490.19,-251.64 493.65,-245.55"/>
</g>
<!-- Node31&#45;&gt;Node6 -->
<g id="edge44" class="edge">
<title>Node31&#45;&gt;Node6</title>
<path fill="none" stroke="midnightblue" d="M411.41,-448.25C387.9,-426.14 327.55,-365.08 303,-300 297.44,-285.26 296.45,-267.33 296.7,-254.03"/>
<polygon fill="midnightblue" stroke="midnightblue" points="300.21,-253.89 297.16,-243.74 293.22,-253.58 300.21,-253.89"/>
</g>
<!-- Node31&#45;&gt;Node9 -->
<g id="edge46" class="edge">
<title>Node31&#45;&gt;Node9</title>
<path fill="none" stroke="midnightblue" d="M453.17,-448.44C488.06,-439.16 543.89,-424.31 582.17,-414.13"/>
<polygon fill="midnightblue" stroke="midnightblue" points="583.22,-417.47 591.98,-411.52 581.42,-410.7 583.22,-417.47"/>
</g>
<!-- Node31&#45;&gt;Node14 -->
<g id="edge45" class="edge">
<title>Node31&#45;&gt;Node14</title>
<path fill="none" stroke="midnightblue" d="M436.36,-448.39C482.11,-422.39 615.63,-343.79 638,-300 685.02,-207.95 651.85,-76.95 637.09,-29.26"/>
<polygon fill="midnightblue" stroke="midnightblue" points="640.41,-28.14 634.02,-19.69 633.74,-30.28 640.41,-28.14"/>
</g>
<!-- Node31&#45;&gt;Node16 -->
<g id="edge47" class="edge">
<title>Node31&#45;&gt;Node16</title>
<path fill="none" stroke="midnightblue" d="M405.83,-448.47C370.24,-427.73 280.75,-371.05 232,-300 197.47,-249.68 185.54,-176.22 181.69,-141.93"/>
<polygon fill="midnightblue" stroke="midnightblue" points="185.13,-141.14 180.64,-131.54 178.16,-141.84 185.13,-141.14"/>
</g>
<!-- Node32&#45;&gt;Node28 -->
<g id="edge49" class="edge">
<title>Node32&#45;&gt;Node28</title>
<path fill="none" stroke="midnightblue" d="M822,-448.44C822,-429.94 822,-384.81 822,-347 822,-347 822,-347 822,-289 822,-256.95 822,-219.64 822,-197.75"/>
<polygon fill="midnightblue" stroke="midnightblue" points="825.5,-197.56 822,-187.56 818.5,-197.56 825.5,-197.56"/>
</g>
</g>
</svg>
