<?xml version="1.0" encoding="UTF-8" standalone="no"?>
<!DOCTYPE svg PUBLIC "-//W3C//DTD SVG 1.1//EN"
 "http://www.w3.org/Graphics/SVG/1.1/DTD/svg11.dtd">
<!-- Generated by graphviz version 2.43.0 (0)
 -->
<!-- Title: Library/include/playrho/d2/Transformation.hpp Pages: 1 -->
<!--zoomable 666 -->
<svg id="main" version="1.1" xmlns="http://www.w3.org/2000/svg" xmlns:xlink="http://www.w3.org/1999/xlink" xml:space="preserve" onload="init(evt)">
<style type="text/css"><![CDATA[
.edge:hover path { stroke: red; }
.edge:hover polygon { stroke: red; fill: red; }
]]></style>
<script type="text/javascript"><![CDATA[
var edges = document.getElementsByTagName('g');
if (edges && edges.length) {
  for (var i=0;i<edges.length;i++) {
    if (edges[i].id.substr(0,4)=='edge') {
      edges[i].setAttribute('class','edge');
    }
  }
}
]]></script>
        <defs>
                <circle id="rim" cx="0" cy="0" r="7"/>
                <circle id="rim2" cx="0" cy="0" r="3.5"/>
                <g id="zoomPlus">
                        <use xlink:href="#rim" fill="#404040">
                                <set attributeName="fill" to="#808080" begin="zoomplus.mouseover" end="zoomplus.mouseout"/>
                        </use>
                        <path d="M-4,0h8M0,-4v8" fill="none" stroke="white" stroke-width="1.5" pointer-events="none"/>
                </g>
                <g id="zoomMin">
                        <use xlink:href="#rim" fill="#404040">
                                <set attributeName="fill" to="#808080" begin="zoomminus.mouseover" end="zoomminus.mouseout"/>
                        </use>
                        <path d="M-4,0h8" fill="none" stroke="white" stroke-width="1.5" pointer-events="none"/>
                </g>
                <g id="dirArrow">
                        <path fill="none" stroke="white" stroke-width="1.5" d="M0,-3.0v7 M-2.5,-0.5L0,-3.0L2.5,-0.5"/>
                </g>
               <g id="resetDef">
                       <use xlink:href="#rim2" fill="#404040">
                               <set attributeName="fill" to="#808080" begin="reset.mouseover" end="reset.mouseout"/>
                       </use>
               </g>
        </defs>

<script type="text/javascript">
var viewWidth = 1341;
var viewHeight = 666;
var sectionId = 'dynsection-0';
</script>
<script xlink:href="svgpan.js"/>
<svg id="graph" class="graph">
<g id="viewport">
<title>Library/include/playrho/d2/Transformation.hpp</title>
<polygon fill="white" stroke="transparent" points="-4,4 -4,-662 1336.5,-662 1336.5,4 -4,4"/>
<!-- Node1 -->
<g id="node1" class="node">
<title>Node1</title>
<g id="a_node1"><a xlink:title="Definition of the Transformation class and free functions directly associated with it.">
<polygon fill="#bfbfbf" stroke="black" points="634,-627.5 634,-657.5 763,-657.5 763,-627.5 634,-627.5"/>
<text text-anchor="start" x="642" y="-645.5" font-family="Helvetica,sans-Serif" font-size="10.00">Library/include/playrho</text>
<text text-anchor="middle" x="698.5" y="-634.5" font-family="Helvetica,sans-Serif" font-size="10.00">/d2/Transformation.hpp</text>
</a>
</g>
</g>
<!-- Node2 -->
<g id="node2" class="node">
<title>Node2</title>
<g id="a_node2"><a xlink:href="Settings_8hpp.html" target="_top" xlink:title="Types and default settings file.">
<polygon fill="white" stroke="black" points="598,-515.5 598,-534.5 715,-534.5 715,-515.5 598,-515.5"/>
<text text-anchor="middle" x="656.5" y="-522.5" font-family="Helvetica,sans-Serif" font-size="10.00">playrho/Settings.hpp</text>
</a>
</g>
</g>
<!-- Node1&#45;&gt;Node2 -->
<g id="edge1" class="edge">
<title>Node1&#45;&gt;Node2</title>
<path fill="none" stroke="midnightblue" d="M695.62,-627.45C692.46,-613.02 686.84,-590.04 679.5,-571 675.91,-561.69 670.97,-551.77 666.59,-543.62"/>
<polygon fill="midnightblue" stroke="midnightblue" points="669.56,-541.76 661.65,-534.71 663.44,-545.15 669.56,-541.76"/>
</g>
<!-- Node35 -->
<g id="node35" class="node">
<title>Node35</title>
<g id="a_node35"><a xlink:href="Vector2_8hpp.html" target="_top" xlink:title="Definition of the Vector2 alias template and closely related code.">
<polygon fill="white" stroke="black" points="556.5,-571.5 556.5,-590.5 670.5,-590.5 670.5,-571.5 556.5,-571.5"/>
<text text-anchor="middle" x="613.5" y="-578.5" font-family="Helvetica,sans-Serif" font-size="10.00">playrho/Vector2.hpp</text>
</a>
</g>
</g>
<!-- Node1&#45;&gt;Node35 -->
<g id="edge53" class="edge">
<title>Node1&#45;&gt;Node35</title>
<path fill="none" stroke="midnightblue" d="M678.36,-627.4C665.11,-618.13 647.82,-606.03 634.42,-596.65"/>
<polygon fill="midnightblue" stroke="midnightblue" points="636.07,-593.53 625.87,-590.66 632.05,-599.26 636.07,-593.53"/>
</g>
<!-- Node39 -->
<g id="node39" class="node">
<title>Node39</title>
<g id="a_node39"><a xlink:href="UnitVec_8hpp.html" target="_top" xlink:title="Declarations of the UnitVec class and free functions associated with it.">
<polygon fill="white" stroke="black" points="976.5,-571.5 976.5,-590.5 1106.5,-590.5 1106.5,-571.5 976.5,-571.5"/>
<text text-anchor="middle" x="1041.5" y="-578.5" font-family="Helvetica,sans-Serif" font-size="10.00">playrho/d2/UnitVec.hpp</text>
</a>
</g>
</g>
<!-- Node1&#45;&gt;Node39 -->
<g id="edge67" class="edge">
<title>Node1&#45;&gt;Node39</title>
<path fill="none" stroke="midnightblue" d="M763.02,-630.31C826.07,-619.37 921.24,-602.86 982.38,-592.26"/>
<polygon fill="midnightblue" stroke="midnightblue" points="983.01,-595.7 992.26,-590.54 981.81,-588.8 983.01,-595.7"/>
</g>
<!-- Node3 -->
<g id="node3" class="node">
<title>Node3</title>
<g id="a_node3"><a xlink:title=" ">
<polygon fill="white" stroke="#bfbfbf" points="289,-347.5 289,-366.5 342,-366.5 342,-347.5 289,-347.5"/>
<text text-anchor="middle" x="315.5" y="-354.5" font-family="Helvetica,sans-Serif" font-size="10.00">cstddef</text>
</a>
</g>
</g>
<!-- Node2&#45;&gt;Node3 -->
<g id="edge2" class="edge">
<title>Node2&#45;&gt;Node3</title>
<path fill="none" stroke="midnightblue" d="M597.99,-522.3C521.25,-518.91 392.15,-508.82 356.5,-479 325.83,-453.35 318.02,-403.83 316.09,-376.78"/>
<polygon fill="midnightblue" stroke="midnightblue" points="319.58,-376.5 315.57,-366.69 312.59,-376.86 319.58,-376.5"/>
</g>
<!-- Node4 -->
<g id="node4" class="node">
<title>Node4</title>
<g id="a_node4"><a xlink:title=" ">
<polygon fill="white" stroke="#bfbfbf" points="310.5,-168.5 310.5,-187.5 362.5,-187.5 362.5,-168.5 310.5,-168.5"/>
<text text-anchor="middle" x="336.5" y="-175.5" font-family="Helvetica,sans-Serif" font-size="10.00">cassert</text>
</a>
</g>
</g>
<!-- Node2&#45;&gt;Node4 -->
<g id="edge3" class="edge">
<title>Node2&#45;&gt;Node4</title>
<path fill="none" stroke="midnightblue" d="M638.5,-515.34C621.65,-506.93 596.08,-493.37 575.5,-479 501.86,-427.59 496.5,-397.89 422.5,-347 394.65,-327.84 374.87,-338.7 355.5,-311 331.58,-276.8 331.93,-225.32 334.22,-197.85"/>
<polygon fill="midnightblue" stroke="midnightblue" points="337.73,-197.97 335.26,-187.67 330.77,-197.26 337.73,-197.97"/>
</g>
<!-- Node5 -->
<g id="node5" class="node">
<title>Node5</title>
<g id="a_node5"><a xlink:title=" ">
<polygon fill="white" stroke="#bfbfbf" points="584.5,-459.5 584.5,-478.5 628.5,-478.5 628.5,-459.5 584.5,-459.5"/>
<text text-anchor="middle" x="606.5" y="-466.5" font-family="Helvetica,sans-Serif" font-size="10.00">cfloat</text>
</a>
</g>
</g>
<!-- Node2&#45;&gt;Node5 -->
<g id="edge4" class="edge">
<title>Node2&#45;&gt;Node5</title>
<path fill="none" stroke="midnightblue" d="M648.24,-515.08C641.04,-507.3 630.39,-495.8 621.65,-486.37"/>
<polygon fill="midnightblue" stroke="midnightblue" points="623.97,-483.71 614.6,-478.75 618.83,-488.47 623.97,-483.71"/>
</g>
<!-- Node6 -->
<g id="node6" class="node">
<title>Node6</title>
<g id="a_node6"><a xlink:title=" ">
<polygon fill="white" stroke="#bfbfbf" points="687,-224.5 687,-243.5 734,-243.5 734,-224.5 687,-224.5"/>
<text text-anchor="middle" x="710.5" y="-231.5" font-family="Helvetica,sans-Serif" font-size="10.00">cmath</text>
</a>
</g>
</g>
<!-- Node2&#45;&gt;Node6 -->
<g id="edge5" class="edge">
<title>Node2&#45;&gt;Node6</title>
<path fill="none" stroke="midnightblue" d="M655.41,-515.12C652.5,-487.81 646.93,-403.52 680.5,-347 694.3,-323.77 717.3,-335.11 729.5,-311 738.96,-292.31 730.16,-268.6 721.65,-252.67"/>
<polygon fill="midnightblue" stroke="midnightblue" points="724.59,-250.77 716.55,-243.88 718.53,-254.28 724.59,-250.77"/>
</g>
<!-- Node7 -->
<g id="node7" class="node">
<title>Node7</title>
<g id="a_node7"><a xlink:title=" ">
<polygon fill="white" stroke="#bfbfbf" points="805.5,-112.5 805.5,-131.5 855.5,-131.5 855.5,-112.5 805.5,-112.5"/>
<text text-anchor="middle" x="830.5" y="-119.5" font-family="Helvetica,sans-Serif" font-size="10.00">cstdint</text>
</a>
</g>
</g>
<!-- Node2&#45;&gt;Node7 -->
<g id="edge6" class="edge">
<title>Node2&#45;&gt;Node7</title>
<path fill="none" stroke="midnightblue" d="M660.3,-515.25C682.18,-464.81 792.34,-210.94 822.73,-140.91"/>
<polygon fill="midnightblue" stroke="midnightblue" points="825.98,-142.2 826.75,-131.63 819.56,-139.41 825.98,-142.2"/>
</g>
<!-- Node8 -->
<g id="node8" class="node">
<title>Node8</title>
<g id="a_node8"><a xlink:title=" ">
<polygon fill="white" stroke="#bfbfbf" points="154.5,-0.5 154.5,-19.5 218.5,-19.5 218.5,-0.5 154.5,-0.5"/>
<text text-anchor="middle" x="186.5" y="-7.5" font-family="Helvetica,sans-Serif" font-size="10.00">algorithm</text>
</a>
</g>
</g>
<!-- Node2&#45;&gt;Node8 -->
<g id="edge7" class="edge">
<title>Node2&#45;&gt;Node8</title>
<path fill="none" stroke="midnightblue" d="M613.81,-515.45C583.95,-508.36 543.79,-496.58 511.5,-479 496.34,-470.75 327.66,-329.6 313.5,-311 243.65,-219.24 242.7,-184.45 203.5,-76 197.98,-60.73 193.44,-42.84 190.44,-29.7"/>
<polygon fill="midnightblue" stroke="midnightblue" points="193.78,-28.58 188.22,-19.56 186.94,-30.08 193.78,-28.58"/>
</g>
<!-- Node9 -->
<g id="node9" class="node">
<title>Node9</title>
<g id="a_node9"><a xlink:href="RealConstants_8hpp.html" target="_top" xlink:title="Definitions file for constant expressions of type Real.">
<polygon fill="white" stroke="black" points="762.5,-403.5 762.5,-422.5 910.5,-422.5 910.5,-403.5 762.5,-403.5"/>
<text text-anchor="middle" x="836.5" y="-410.5" font-family="Helvetica,sans-Serif" font-size="10.00">playrho/RealConstants.hpp</text>
</a>
</g>
</g>
<!-- Node2&#45;&gt;Node9 -->
<g id="edge8" class="edge">
<title>Node2&#45;&gt;Node9</title>
<path fill="none" stroke="midnightblue" d="M675.94,-515.39C694.51,-506.91 723.04,-493.21 746.5,-479 772.05,-463.53 799.65,-442.96 817.45,-429.15"/>
<polygon fill="midnightblue" stroke="midnightblue" points="820.1,-431.52 825.81,-422.6 815.78,-426.01 820.1,-431.52"/>
</g>
<!-- Node16 -->
<g id="node16" class="node">
<title>Node16</title>
<g id="a_node16"><a xlink:href="Templates_8hpp.html" target="_top" xlink:title="Definitions of miscellaneous template related code.">
<polygon fill="white" stroke="black" points="273.5,-112.5 273.5,-131.5 401.5,-131.5 401.5,-112.5 273.5,-112.5"/>
<text text-anchor="middle" x="337.5" y="-119.5" font-family="Helvetica,sans-Serif" font-size="10.00">playrho/Templates.hpp</text>
</a>
</g>
</g>
<!-- Node2&#45;&gt;Node16 -->
<g id="edge42" class="edge">
<title>Node2&#45;&gt;Node16</title>
<path fill="none" stroke="midnightblue" d="M629.23,-515.37C606.3,-507.54 573.11,-494.81 546.5,-479 466.65,-431.57 457.37,-404.58 384.5,-347 363.85,-330.69 352.38,-332.7 337.5,-311 300.44,-256.94 279.81,-229.84 301.5,-168 305.29,-157.21 312.87,-147.08 320.1,-139.18"/>
<polygon fill="midnightblue" stroke="midnightblue" points="322.83,-141.4 327.34,-131.81 317.83,-136.49 322.83,-141.4"/>
</g>
<!-- Node31 -->
<g id="node31" class="node">
<title>Node31</title>
<g id="a_node31"><a xlink:href="Units_8hpp.html" target="_top" xlink:title="Declarations for physical units possibly backed by strong types.">
<polygon fill="white" stroke="black" points="1009,-459.5 1009,-478.5 1112,-478.5 1112,-459.5 1009,-459.5"/>
<text text-anchor="middle" x="1060.5" y="-466.5" font-family="Helvetica,sans-Serif" font-size="10.00">playrho/Units.hpp</text>
</a>
</g>
</g>
<!-- Node2&#45;&gt;Node31 -->
<g id="edge43" class="edge">
<title>Node2&#45;&gt;Node31</title>
<path fill="none" stroke="midnightblue" d="M715.25,-516.15C790.85,-506.04 921.63,-488.56 998.69,-478.26"/>
<polygon fill="midnightblue" stroke="midnightblue" points="999.29,-481.71 1008.74,-476.92 998.36,-474.77 999.29,-481.71"/>
</g>
<!-- Node34 -->
<g id="node34" class="node">
<title>Node34</title>
<g id="a_node34"><a xlink:href="WiderType_8hpp.html" target="_top" xlink:title="Definition of the WiderType alias template.">
<polygon fill="white" stroke="black" points="866.5,-224.5 866.5,-243.5 994.5,-243.5 994.5,-224.5 866.5,-224.5"/>
<text text-anchor="middle" x="930.5" y="-231.5" font-family="Helvetica,sans-Serif" font-size="10.00">playrho/WiderType.hpp</text>
</a>
</g>
</g>
<!-- Node2&#45;&gt;Node34 -->
<g id="edge51" class="edge">
<title>Node2&#45;&gt;Node34</title>
<path fill="none" stroke="midnightblue" d="M670.3,-515.24C682.01,-507.15 698.46,-494.12 708.5,-479 742.63,-427.6 715.11,-396.83 751.5,-347 753.38,-344.43 841.79,-281.67 844.5,-280 863.44,-268.31 885.73,-256.7 902.87,-248.2"/>
<polygon fill="midnightblue" stroke="midnightblue" points="904.86,-251.13 912.3,-243.58 901.78,-244.84 904.86,-251.13"/>
</g>
<!-- Node10 -->
<g id="node10" class="node">
<title>Node10</title>
<g id="a_node10"><a xlink:href="Defines_8hpp.html" target="_top" xlink:title="Miscellaneous C&#45;preprocessor definitions.">
<polygon fill="white" stroke="black" points="955.5,-112.5 955.5,-131.5 1069.5,-131.5 1069.5,-112.5 955.5,-112.5"/>
<text text-anchor="middle" x="1012.5" y="-119.5" font-family="Helvetica,sans-Serif" font-size="10.00">playrho/Defines.hpp</text>
</a>
</g>
</g>
<!-- Node9&#45;&gt;Node10 -->
<g id="edge9" class="edge">
<title>Node9&#45;&gt;Node10</title>
<path fill="none" stroke="midnightblue" d="M863.14,-403.35C882.65,-396.02 908.86,-383.96 927.5,-367 975.03,-323.75 983.66,-305.12 1003.5,-244 1014.73,-209.39 1014.91,-166.4 1013.83,-142.09"/>
<polygon fill="midnightblue" stroke="midnightblue" points="1017.3,-141.56 1013.24,-131.78 1010.32,-141.96 1017.3,-141.56"/>
</g>
<!-- Node11 -->
<g id="node11" class="node">
<title>Node11</title>
<g id="a_node11"><a xlink:href="Real_8hpp.html" target="_top" xlink:title="Real number definition file.">
<polygon fill="white" stroke="black" points="515,-347.5 515,-366.5 614,-366.5 614,-347.5 515,-347.5"/>
<text text-anchor="middle" x="564.5" y="-354.5" font-family="Helvetica,sans-Serif" font-size="10.00">playrho/Real.hpp</text>
</a>
</g>
</g>
<!-- Node9&#45;&gt;Node11 -->
<g id="edge10" class="edge">
<title>Node9&#45;&gt;Node11</title>
<path fill="none" stroke="midnightblue" d="M793.4,-403.44C745.65,-393.96 668.64,-378.67 617.31,-368.48"/>
<polygon fill="midnightblue" stroke="midnightblue" points="617.89,-365.03 607.4,-366.52 616.52,-371.9 617.89,-365.03"/>
</g>
<!-- Node12 -->
<g id="node12" class="node">
<title>Node12</title>
<g id="a_node12"><a xlink:href="Fixed_8hpp.html" target="_top" xlink:title="Definition of the Fixed class and closely related code.">
<polygon fill="white" stroke="black" points="434,-224.5 434,-243.5 537,-243.5 537,-224.5 434,-224.5"/>
<text text-anchor="middle" x="485.5" y="-231.5" font-family="Helvetica,sans-Serif" font-size="10.00">playrho/Fixed.hpp</text>
</a>
</g>
</g>
<!-- Node11&#45;&gt;Node12 -->
<g id="edge11" class="edge">
<title>Node11&#45;&gt;Node12</title>
<path fill="none" stroke="midnightblue" d="M558.82,-347.3C545.84,-327.41 513.8,-278.35 496.7,-252.15"/>
<polygon fill="midnightblue" stroke="midnightblue" points="499.53,-250.08 491.13,-243.62 493.67,-253.91 499.53,-250.08"/>
</g>
<!-- Node29 -->
<g id="node29" class="node">
<title>Node29</title>
<g id="a_node29"><a xlink:href="FixedMath_8hpp.html" target="_top" xlink:title="Conventional math functions for the Fixed class template.">
<polygon fill="white" stroke="black" points="592.5,-286 592.5,-305 720.5,-305 720.5,-286 592.5,-286"/>
<text text-anchor="middle" x="656.5" y="-293" font-family="Helvetica,sans-Serif" font-size="10.00">playrho/FixedMath.hpp</text>
</a>
</g>
</g>
<!-- Node11&#45;&gt;Node29 -->
<g id="edge37" class="edge">
<title>Node11&#45;&gt;Node29</title>
<path fill="none" stroke="midnightblue" d="M577.68,-347.48C592.57,-337.84 617.04,-322.02 634.77,-310.55"/>
<polygon fill="midnightblue" stroke="midnightblue" points="636.85,-313.38 643.34,-305.01 633.05,-307.5 636.85,-313.38"/>
</g>
<!-- Node30 -->
<g id="node30" class="node">
<title>Node30</title>
<g id="a_node30"><a xlink:href="FixedLimits_8hpp.html" target="_top" xlink:title="Specialization of std::numeric_limits for Fixed.">
<polygon fill="white" stroke="black" points="365,-286 365,-305 498,-305 498,-286 365,-286"/>
<text text-anchor="middle" x="431.5" y="-293" font-family="Helvetica,sans-Serif" font-size="10.00">playrho/FixedLimits.hpp</text>
</a>
</g>
</g>
<!-- Node11&#45;&gt;Node30 -->
<g id="edge40" class="edge">
<title>Node11&#45;&gt;Node30</title>
<path fill="none" stroke="midnightblue" d="M545.44,-347.48C523.03,-337.45 485.59,-320.7 459.79,-309.15"/>
<polygon fill="midnightblue" stroke="midnightblue" points="461.08,-305.9 450.52,-305.01 458.22,-312.29 461.08,-305.9"/>
</g>
<!-- Node12&#45;&gt;Node4 -->
<g id="edge14" class="edge">
<title>Node12&#45;&gt;Node4</title>
<path fill="none" stroke="midnightblue" d="M461.89,-224.44C437.04,-215.44 397.73,-201.19 369.75,-191.05"/>
<polygon fill="midnightblue" stroke="midnightblue" points="370.59,-187.63 360,-187.52 368.21,-194.21 370.59,-187.63"/>
</g>
<!-- Node12&#45;&gt;Node7 -->
<g id="edge12" class="edge">
<title>Node12&#45;&gt;Node7</title>
<path fill="none" stroke="midnightblue" d="M524.56,-224.49C558.78,-216.56 609.61,-203.62 652.5,-188 672.3,-180.79 675.92,-175.79 695.5,-168 729.03,-154.66 768.25,-141.9 795.74,-133.39"/>
<polygon fill="midnightblue" stroke="midnightblue" points="796.78,-136.73 805.31,-130.46 794.73,-130.04 796.78,-136.73"/>
</g>
<!-- Node13 -->
<g id="node13" class="node">
<title>Node13</title>
<g id="a_node13"><a xlink:title=" ">
<polygon fill="white" stroke="#bfbfbf" points="342.5,-0.5 342.5,-19.5 386.5,-19.5 386.5,-0.5 342.5,-0.5"/>
<text text-anchor="middle" x="364.5" y="-7.5" font-family="Helvetica,sans-Serif" font-size="10.00">limits</text>
</a>
</g>
</g>
<!-- Node12&#45;&gt;Node13 -->
<g id="edge13" class="edge">
<title>Node12&#45;&gt;Node13</title>
<path fill="none" stroke="midnightblue" d="M479.22,-224.23C472.93,-215.29 463.11,-200.95 455.5,-188 422.16,-131.29 388.08,-61.03 372.8,-28.74"/>
<polygon fill="midnightblue" stroke="midnightblue" points="375.95,-27.22 368.52,-19.66 369.61,-30.2 375.95,-27.22"/>
</g>
<!-- Node14 -->
<g id="node14" class="node">
<title>Node14</title>
<g id="a_node14"><a xlink:title=" ">
<polygon fill="white" stroke="#bfbfbf" points="892,-0.5 892,-19.5 961,-19.5 961,-0.5 892,-0.5"/>
<text text-anchor="middle" x="926.5" y="-7.5" font-family="Helvetica,sans-Serif" font-size="10.00">type_traits</text>
</a>
</g>
</g>
<!-- Node12&#45;&gt;Node14 -->
<g id="edge15" class="edge">
<title>Node12&#45;&gt;Node14</title>
<path fill="none" stroke="midnightblue" d="M507.17,-224.4C529.1,-215.61 563.88,-201.37 593.5,-188 713.13,-134.01 849.59,-56.04 903.17,-24.75"/>
<polygon fill="midnightblue" stroke="midnightblue" points="905.05,-27.71 911.91,-19.64 901.51,-21.67 905.05,-27.71"/>
</g>
<!-- Node15 -->
<g id="node15" class="node">
<title>Node15</title>
<g id="a_node15"><a xlink:title=" ">
<polygon fill="white" stroke="#bfbfbf" points="704.5,-168.5 704.5,-187.5 764.5,-187.5 764.5,-168.5 704.5,-168.5"/>
<text text-anchor="middle" x="734.5" y="-175.5" font-family="Helvetica,sans-Serif" font-size="10.00">iostream</text>
</a>
</g>
</g>
<!-- Node12&#45;&gt;Node15 -->
<g id="edge16" class="edge">
<title>Node12&#45;&gt;Node15</title>
<path fill="none" stroke="midnightblue" d="M524.95,-224.44C571.23,-214.41 647.54,-197.86 694.19,-187.74"/>
<polygon fill="midnightblue" stroke="midnightblue" points="695.21,-191.1 704.24,-185.56 693.72,-184.26 695.21,-191.1"/>
</g>
<!-- Node12&#45;&gt;Node16 -->
<g id="edge17" class="edge">
<title>Node12&#45;&gt;Node16</title>
<path fill="none" stroke="midnightblue" d="M473.34,-224.49C460.59,-215.53 440.01,-200.94 422.5,-188 399.6,-171.07 373.65,-151.11 356.51,-137.82"/>
<polygon fill="midnightblue" stroke="midnightblue" points="358.46,-134.9 348.42,-131.53 354.16,-140.43 358.46,-134.9"/>
</g>
<!-- Node21 -->
<g id="node21" class="node">
<title>Node21</title>
<g id="a_node21"><a xlink:href="TypeInfo_8hpp.html" target="_top" xlink:title="Definition of TypeID class and closely related code.">
<polygon fill="white" stroke="black" points="465,-168.5 465,-187.5 584,-187.5 584,-168.5 465,-168.5"/>
<text text-anchor="middle" x="524.5" y="-175.5" font-family="Helvetica,sans-Serif" font-size="10.00">playrho/TypeInfo.hpp</text>
</a>
</g>
</g>
<!-- Node12&#45;&gt;Node21 -->
<g id="edge25" class="edge">
<title>Node12&#45;&gt;Node21</title>
<path fill="none" stroke="midnightblue" d="M491.94,-224.08C497.45,-216.46 505.53,-205.26 512.26,-195.94"/>
<polygon fill="midnightblue" stroke="midnightblue" points="515.16,-197.91 518.18,-187.75 509.49,-193.81 515.16,-197.91"/>
</g>
<!-- Node28 -->
<g id="node28" class="node">
<title>Node28</title>
<g id="a_node28"><a xlink:href="Wider_8hpp.html" target="_top" xlink:title="Definition of the Wider class template and specializations.">
<polygon fill="white" stroke="black" points="858.5,-168.5 858.5,-187.5 994.5,-187.5 994.5,-168.5 858.5,-168.5"/>
<text text-anchor="middle" x="926.5" y="-175.5" font-family="Helvetica,sans-Serif" font-size="10.00">playrho/detail/Wider.hpp</text>
</a>
</g>
</g>
<!-- Node12&#45;&gt;Node28 -->
<g id="edge33" class="edge">
<title>Node12&#45;&gt;Node28</title>
<path fill="none" stroke="midnightblue" d="M537.39,-226.65C614.12,-217.25 758.42,-199.58 848.1,-188.6"/>
<polygon fill="midnightblue" stroke="midnightblue" points="848.72,-192.05 858.22,-187.36 847.87,-185.1 848.72,-192.05"/>
</g>
<!-- Node17 -->
<g id="node17" class="node">
<title>Node17</title>
<g id="a_node17"><a xlink:href="detail_2Templates_8hpp.html" target="_top" xlink:title="Low&#45;level declarations for general class &amp; function templates.">
<polygon fill="white" stroke="black" points="212.5,-56.5 212.5,-75.5 370.5,-75.5 370.5,-56.5 212.5,-56.5"/>
<text text-anchor="middle" x="291.5" y="-63.5" font-family="Helvetica,sans-Serif" font-size="10.00">playrho/detail/Templates.hpp</text>
</a>
</g>
</g>
<!-- Node16&#45;&gt;Node17 -->
<g id="edge18" class="edge">
<title>Node16&#45;&gt;Node17</title>
<path fill="none" stroke="midnightblue" d="M329.9,-112.08C323.27,-104.3 313.48,-92.8 305.44,-83.37"/>
<polygon fill="midnightblue" stroke="midnightblue" points="308.1,-81.09 298.95,-75.75 302.77,-85.63 308.1,-81.09"/>
</g>
<!-- Node17&#45;&gt;Node8 -->
<g id="edge19" class="edge">
<title>Node17&#45;&gt;Node8</title>
<path fill="none" stroke="midnightblue" d="M274.63,-56.32C257.79,-47.66 231.69,-34.24 212.26,-24.25"/>
<polygon fill="midnightblue" stroke="midnightblue" points="213.82,-21.12 203.33,-19.65 210.62,-27.34 213.82,-21.12"/>
</g>
<!-- Node17&#45;&gt;Node13 -->
<g id="edge22" class="edge">
<title>Node17&#45;&gt;Node13</title>
<path fill="none" stroke="midnightblue" d="M303.23,-56.32C314.34,-48.11 331.24,-35.6 344.48,-25.81"/>
<polygon fill="midnightblue" stroke="midnightblue" points="346.6,-28.59 352.56,-19.83 342.44,-22.97 346.6,-28.59"/>
</g>
<!-- Node17&#45;&gt;Node14 -->
<g id="edge23" class="edge">
<title>Node17&#45;&gt;Node14</title>
<path fill="none" stroke="midnightblue" d="M370.64,-57.27C375.33,-56.83 379.98,-56.41 384.5,-56 569,-39.41 789.04,-21.82 881.78,-14.51"/>
<polygon fill="midnightblue" stroke="midnightblue" points="882.23,-17.98 891.93,-13.71 881.68,-11 882.23,-17.98"/>
</g>
<!-- Node18 -->
<g id="node18" class="node">
<title>Node18</title>
<g id="a_node18"><a xlink:title=" ">
<polygon fill="white" stroke="#bfbfbf" points="0,-0.5 0,-19.5 65,-19.5 65,-0.5 0,-0.5"/>
<text text-anchor="middle" x="32.5" y="-7.5" font-family="Helvetica,sans-Serif" font-size="10.00">functional</text>
</a>
</g>
</g>
<!-- Node17&#45;&gt;Node18 -->
<g id="edge20" class="edge">
<title>Node17&#45;&gt;Node18</title>
<path fill="none" stroke="midnightblue" d="M249.27,-56.45C207.47,-47.94 141.39,-34.4 75.34,-20.37"/>
<polygon fill="midnightblue" stroke="midnightblue" points="75.68,-16.87 65.17,-18.21 74.22,-23.71 75.68,-16.87"/>
</g>
<!-- Node19 -->
<g id="node19" class="node">
<title>Node19</title>
<g id="a_node19"><a xlink:title=" ">
<polygon fill="white" stroke="#bfbfbf" points="83,-0.5 83,-19.5 136,-19.5 136,-0.5 83,-0.5"/>
<text text-anchor="middle" x="109.5" y="-7.5" font-family="Helvetica,sans-Serif" font-size="10.00">iterator</text>
</a>
</g>
</g>
<!-- Node17&#45;&gt;Node19 -->
<g id="edge21" class="edge">
<title>Node17&#45;&gt;Node19</title>
<path fill="none" stroke="midnightblue" d="M262.66,-56.44C231.01,-47.05 180.13,-31.95 145.78,-21.77"/>
<polygon fill="midnightblue" stroke="midnightblue" points="146.71,-18.39 136.13,-18.9 144.72,-25.1 146.71,-18.39"/>
</g>
<!-- Node20 -->
<g id="node20" class="node">
<title>Node20</title>
<g id="a_node20"><a xlink:title=" ">
<polygon fill="white" stroke="#bfbfbf" points="614,-0.5 614,-19.5 659,-19.5 659,-0.5 614,-0.5"/>
<text text-anchor="middle" x="636.5" y="-7.5" font-family="Helvetica,sans-Serif" font-size="10.00">utility</text>
</a>
</g>
</g>
<!-- Node17&#45;&gt;Node20 -->
<g id="edge24" class="edge">
<title>Node17&#45;&gt;Node20</title>
<path fill="none" stroke="midnightblue" d="M346.17,-56.44C418.76,-45.08 544.68,-25.37 603.92,-16.1"/>
<polygon fill="midnightblue" stroke="midnightblue" points="604.5,-19.55 613.84,-14.55 603.42,-12.64 604.5,-19.55"/>
</g>
<!-- Node21&#45;&gt;Node16 -->
<g id="edge27" class="edge">
<title>Node21&#45;&gt;Node16</title>
<path fill="none" stroke="midnightblue" d="M494.87,-168.44C463,-159.24 412.17,-144.56 376.94,-134.39"/>
<polygon fill="midnightblue" stroke="midnightblue" points="377.57,-130.93 366.99,-131.52 375.63,-137.65 377.57,-130.93"/>
</g>
<!-- Node22 -->
<g id="node22" class="node">
<title>Node22</title>
<g id="a_node22"><a xlink:title=" ">
<polygon fill="white" stroke="#bfbfbf" points="482.5,-112.5 482.5,-131.5 532.5,-131.5 532.5,-112.5 482.5,-112.5"/>
<text text-anchor="middle" x="507.5" y="-119.5" font-family="Helvetica,sans-Serif" font-size="10.00">cstring</text>
</a>
</g>
</g>
<!-- Node21&#45;&gt;Node22 -->
<g id="edge26" class="edge">
<title>Node21&#45;&gt;Node22</title>
<path fill="none" stroke="midnightblue" d="M521.69,-168.08C519.42,-160.85 516.13,-150.41 513.29,-141.4"/>
<polygon fill="midnightblue" stroke="midnightblue" points="516.6,-140.24 510.25,-131.75 509.92,-142.34 516.6,-140.24"/>
</g>
<!-- Node23 -->
<g id="node23" class="node">
<title>Node23</title>
<g id="a_node23"><a xlink:href="detail_2TypeInfo_8hpp.html" target="_top" xlink:title="Definition of TypeInfo class template and related code.">
<polygon fill="white" stroke="black" points="550,-112.5 550,-131.5 699,-131.5 699,-112.5 550,-112.5"/>
<text text-anchor="middle" x="624.5" y="-119.5" font-family="Helvetica,sans-Serif" font-size="10.00">playrho/detail/TypeInfo.hpp</text>
</a>
</g>
</g>
<!-- Node21&#45;&gt;Node23 -->
<g id="edge28" class="edge">
<title>Node21&#45;&gt;Node23</title>
<path fill="none" stroke="midnightblue" d="M540.57,-168.32C556.46,-159.74 581.01,-146.49 599.46,-136.52"/>
<polygon fill="midnightblue" stroke="midnightblue" points="601.34,-139.49 608.47,-131.65 598.01,-133.33 601.34,-139.49"/>
</g>
<!-- Node24 -->
<g id="node24" class="node">
<title>Node24</title>
<g id="a_node24"><a xlink:title=" ">
<polygon fill="white" stroke="#bfbfbf" points="571.5,-56.5 571.5,-75.5 615.5,-75.5 615.5,-56.5 571.5,-56.5"/>
<text text-anchor="middle" x="593.5" y="-63.5" font-family="Helvetica,sans-Serif" font-size="10.00">regex</text>
</a>
</g>
</g>
<!-- Node23&#45;&gt;Node24 -->
<g id="edge29" class="edge">
<title>Node23&#45;&gt;Node24</title>
<path fill="none" stroke="midnightblue" d="M619.38,-112.08C615.09,-104.61 608.84,-93.72 603.56,-84.52"/>
<polygon fill="midnightblue" stroke="midnightblue" points="606.54,-82.68 598.52,-75.75 600.47,-86.17 606.54,-82.68"/>
</g>
<!-- Node25 -->
<g id="node25" class="node">
<title>Node25</title>
<g id="a_node25"><a xlink:title=" ">
<polygon fill="white" stroke="#bfbfbf" points="633.5,-56.5 633.5,-75.5 677.5,-75.5 677.5,-56.5 633.5,-56.5"/>
<text text-anchor="middle" x="655.5" y="-63.5" font-family="Helvetica,sans-Serif" font-size="10.00">string</text>
</a>
</g>
</g>
<!-- Node23&#45;&gt;Node25 -->
<g id="edge30" class="edge">
<title>Node23&#45;&gt;Node25</title>
<path fill="none" stroke="midnightblue" d="M629.62,-112.08C633.91,-104.61 640.16,-93.72 645.44,-84.52"/>
<polygon fill="midnightblue" stroke="midnightblue" points="648.53,-86.17 650.48,-75.75 642.46,-82.68 648.53,-86.17"/>
</g>
<!-- Node26 -->
<g id="node26" class="node">
<title>Node26</title>
<g id="a_node26"><a xlink:title=" ">
<polygon fill="white" stroke="#bfbfbf" points="696,-56.5 696,-75.5 761,-75.5 761,-56.5 696,-56.5"/>
<text text-anchor="middle" x="728.5" y="-63.5" font-family="Helvetica,sans-Serif" font-size="10.00">typeindex</text>
</a>
</g>
</g>
<!-- Node23&#45;&gt;Node26 -->
<g id="edge31" class="edge">
<title>Node23&#45;&gt;Node26</title>
<path fill="none" stroke="midnightblue" d="M641.21,-112.32C657.81,-103.7 683.5,-90.36 702.72,-80.39"/>
<polygon fill="midnightblue" stroke="midnightblue" points="704.57,-83.37 711.83,-75.65 701.34,-77.16 704.57,-83.37"/>
</g>
<!-- Node27 -->
<g id="node27" class="node">
<title>Node27</title>
<g id="a_node27"><a xlink:title=" ">
<polygon fill="white" stroke="#bfbfbf" points="496,-56.5 496,-75.5 553,-75.5 553,-56.5 496,-56.5"/>
<text text-anchor="middle" x="524.5" y="-63.5" font-family="Helvetica,sans-Serif" font-size="10.00">typeinfo</text>
</a>
</g>
</g>
<!-- Node23&#45;&gt;Node27 -->
<g id="edge32" class="edge">
<title>Node23&#45;&gt;Node27</title>
<path fill="none" stroke="midnightblue" d="M608.43,-112.32C592.54,-103.74 567.99,-90.49 549.54,-80.52"/>
<polygon fill="midnightblue" stroke="midnightblue" points="550.99,-77.33 540.53,-75.65 547.66,-83.49 550.99,-77.33"/>
</g>
<!-- Node28&#45;&gt;Node7 -->
<g id="edge34" class="edge">
<title>Node28&#45;&gt;Node7</title>
<path fill="none" stroke="midnightblue" d="M911.08,-168.32C895.96,-159.82 872.68,-146.73 855.03,-136.8"/>
<polygon fill="midnightblue" stroke="midnightblue" points="856.32,-133.51 845.89,-131.65 852.89,-139.61 856.32,-133.51"/>
</g>
<!-- Node28&#45;&gt;Node10 -->
<g id="edge36" class="edge">
<title>Node28&#45;&gt;Node10</title>
<path fill="none" stroke="midnightblue" d="M940.32,-168.32C953.73,-159.9 974.32,-146.97 990.09,-137.07"/>
<polygon fill="midnightblue" stroke="midnightblue" points="992.11,-139.94 998.72,-131.65 988.39,-134.01 992.11,-139.94"/>
</g>
<!-- Node28&#45;&gt;Node14 -->
<g id="edge35" class="edge">
<title>Node28&#45;&gt;Node14</title>
<path fill="none" stroke="midnightblue" d="M926.5,-168.08C926.5,-141.95 926.5,-65.21 926.5,-29.58"/>
<polygon fill="midnightblue" stroke="midnightblue" points="930,-29.57 926.5,-19.57 923,-29.57 930,-29.57"/>
</g>
<!-- Node29&#45;&gt;Node6 -->
<g id="edge38" class="edge">
<title>Node29&#45;&gt;Node6</title>
<path fill="none" stroke="midnightblue" d="M664.24,-285.98C672.5,-276.87 685.78,-262.24 695.99,-250.98"/>
<polygon fill="midnightblue" stroke="midnightblue" points="698.65,-253.27 702.78,-243.51 693.47,-248.56 698.65,-253.27"/>
</g>
<!-- Node29&#45;&gt;Node12 -->
<g id="edge39" class="edge">
<title>Node29&#45;&gt;Node12</title>
<path fill="none" stroke="midnightblue" d="M632,-285.98C602.54,-275.72 552.92,-258.46 519.7,-246.9"/>
<polygon fill="midnightblue" stroke="midnightblue" points="520.55,-243.49 509.95,-243.51 518.25,-250.1 520.55,-243.49"/>
</g>
<!-- Node30&#45;&gt;Node12 -->
<g id="edge41" class="edge">
<title>Node30&#45;&gt;Node12</title>
<path fill="none" stroke="midnightblue" d="M439.24,-285.98C447.5,-276.87 460.78,-262.24 470.99,-250.98"/>
<polygon fill="midnightblue" stroke="midnightblue" points="473.65,-253.27 477.78,-243.51 468.47,-248.56 473.65,-253.27"/>
</g>
<!-- Node31&#45;&gt;Node6 -->
<g id="edge44" class="edge">
<title>Node31&#45;&gt;Node6</title>
<path fill="none" stroke="midnightblue" d="M1057.08,-459.11C1044.81,-428.56 999.89,-327.09 927.5,-280 859.48,-235.75 827.77,-261.35 748.5,-244 747.05,-243.68 745.57,-243.35 744.08,-243.02"/>
<polygon fill="midnightblue" stroke="midnightblue" points="744.72,-239.57 734.19,-240.74 743.15,-246.4 744.72,-239.57"/>
</g>
<!-- Node31&#45;&gt;Node9 -->
<g id="edge46" class="edge">
<title>Node31&#45;&gt;Node9</title>
<path fill="none" stroke="midnightblue" d="M1025.01,-459.44C986.18,-450.08 923.84,-435.06 881.58,-424.87"/>
<polygon fill="midnightblue" stroke="midnightblue" points="882.37,-421.46 871.83,-422.52 880.73,-428.26 882.37,-421.46"/>
</g>
<!-- Node31&#45;&gt;Node14 -->
<g id="edge45" class="edge">
<title>Node31&#45;&gt;Node14</title>
<path fill="none" stroke="midnightblue" d="M1063.87,-459.23C1073.17,-434.21 1098.5,-360.24 1098.5,-296.5 1098.5,-296.5 1098.5,-296.5 1098.5,-121 1098.5,-60.52 1022.09,-31.8 971.13,-19.36"/>
<polygon fill="midnightblue" stroke="midnightblue" points="971.84,-15.93 961.31,-17.09 970.26,-22.75 971.84,-15.93"/>
</g>
<!-- Node31&#45;&gt;Node16 -->
<g id="edge47" class="edge">
<title>Node31&#45;&gt;Node16</title>
<path fill="none" stroke="midnightblue" d="M1060.75,-459.39C1061.1,-428.88 1057.76,-325.28 998.5,-280 947.11,-240.73 914.48,-274.59 857.5,-244 813.14,-220.19 819.49,-188.49 773.5,-168 741.32,-153.66 527.6,-136.52 411.79,-128.14"/>
<polygon fill="midnightblue" stroke="midnightblue" points="411.8,-124.63 401.58,-127.4 411.3,-131.61 411.8,-124.63"/>
</g>
<!-- Node32 -->
<g id="node32" class="node">
<title>Node32</title>
<g id="a_node32"><a xlink:href="to__underlying_8hpp.html" target="_top" xlink:title="Definition of to_underlying function template.">
<polygon fill="white" stroke="black" points="1122.5,-403.5 1122.5,-422.5 1266.5,-422.5 1266.5,-403.5 1122.5,-403.5"/>
<text text-anchor="middle" x="1194.5" y="-410.5" font-family="Helvetica,sans-Serif" font-size="10.00">playrho/to_underlying.hpp</text>
</a>
</g>
</g>
<!-- Node31&#45;&gt;Node32 -->
<g id="edge48" class="edge">
<title>Node31&#45;&gt;Node32</title>
<path fill="none" stroke="midnightblue" d="M1081.73,-459.44C1103.88,-450.52 1138.82,-436.44 1163.94,-426.32"/>
<polygon fill="midnightblue" stroke="midnightblue" points="1165.4,-429.5 1173.37,-422.52 1162.78,-423.01 1165.4,-429.5"/>
</g>
<!-- Node33 -->
<g id="node33" class="node">
<title>Node33</title>
<g id="a_node33"><a xlink:href="underlying__type_8hpp.html" target="_top" xlink:title="Definition of underlying_type trait class and related code.">
<polygon fill="white" stroke="black" points="1127,-280.5 1127,-310.5 1266,-310.5 1266,-280.5 1127,-280.5"/>
<text text-anchor="start" x="1135" y="-298.5" font-family="Helvetica,sans-Serif" font-size="10.00">playrho/detail/underlying</text>
<text text-anchor="middle" x="1196.5" y="-287.5" font-family="Helvetica,sans-Serif" font-size="10.00">_type.hpp</text>
</a>
</g>
</g>
<!-- Node32&#45;&gt;Node33 -->
<g id="edge49" class="edge">
<title>Node32&#45;&gt;Node33</title>
<path fill="none" stroke="midnightblue" d="M1194.65,-403.32C1194.95,-385.97 1195.63,-346.46 1196.08,-320.66"/>
<polygon fill="midnightblue" stroke="midnightblue" points="1199.58,-320.6 1196.26,-310.55 1192.58,-320.48 1199.58,-320.6"/>
</g>
<!-- Node33&#45;&gt;Node14 -->
<g id="edge50" class="edge">
<title>Node33&#45;&gt;Node14</title>
<path fill="none" stroke="midnightblue" d="M1195.49,-280.28C1194.03,-258.5 1191.5,-215.53 1191.5,-179 1191.5,-179 1191.5,-179 1191.5,-121 1191.5,-26.8 1046.9,-11.75 971.33,-10.31"/>
<polygon fill="midnightblue" stroke="midnightblue" points="971.18,-6.81 961.14,-10.19 971.1,-13.81 971.18,-6.81"/>
</g>
<!-- Node34&#45;&gt;Node28 -->
<g id="edge52" class="edge">
<title>Node34&#45;&gt;Node28</title>
<path fill="none" stroke="midnightblue" d="M929.84,-224.08C929.32,-217.01 928.56,-206.86 927.91,-197.99"/>
<polygon fill="midnightblue" stroke="midnightblue" points="931.38,-197.47 927.15,-187.75 924.4,-197.98 931.38,-197.47"/>
</g>
<!-- Node35&#45;&gt;Node2 -->
<g id="edge54" class="edge">
<title>Node35&#45;&gt;Node2</title>
<path fill="none" stroke="midnightblue" d="M620.6,-571.08C626.74,-563.38 635.77,-552.03 643.24,-542.65"/>
<polygon fill="midnightblue" stroke="midnightblue" points="646.04,-544.75 649.53,-534.75 640.56,-540.39 646.04,-544.75"/>
</g>
<!-- Node36 -->
<g id="node36" class="node">
<title>Node36</title>
<g id="a_node36"><a xlink:href="Vector_8hpp.html" target="_top" xlink:title="Definition of the Vector class template and closely related code.">
<polygon fill="white" stroke="black" points="169,-403.5 169,-422.5 276,-422.5 276,-403.5 169,-403.5"/>
<text text-anchor="middle" x="222.5" y="-410.5" font-family="Helvetica,sans-Serif" font-size="10.00">playrho/Vector.hpp</text>
</a>
</g>
</g>
<!-- Node35&#45;&gt;Node36 -->
<g id="edge55" class="edge">
<title>Node35&#45;&gt;Node36</title>
<path fill="none" stroke="midnightblue" d="M585.47,-571.43C534.91,-555.59 425.51,-519.65 337.5,-479 304.01,-463.53 267.21,-441.84 244.48,-427.86"/>
<polygon fill="midnightblue" stroke="midnightblue" points="246.27,-424.85 235.93,-422.55 242.58,-430.8 246.27,-424.85"/>
</g>
<!-- Node36&#45;&gt;Node3 -->
<g id="edge57" class="edge">
<title>Node36&#45;&gt;Node3</title>
<path fill="none" stroke="midnightblue" d="M237.44,-403.32C252.09,-394.82 274.63,-381.73 291.74,-371.8"/>
<polygon fill="midnightblue" stroke="midnightblue" points="293.7,-374.7 300.6,-366.65 290.19,-368.65 293.7,-374.7"/>
</g>
<!-- Node36&#45;&gt;Node4 -->
<g id="edge56" class="edge">
<title>Node36&#45;&gt;Node4</title>
<path fill="none" stroke="midnightblue" d="M225.24,-403.44C229.36,-390.86 237.62,-366.75 246.5,-347 271.99,-290.34 308.51,-226.41 326.16,-196.36"/>
<polygon fill="midnightblue" stroke="midnightblue" points="329.31,-197.92 331.38,-187.53 323.28,-194.36 329.31,-197.92"/>
</g>
<!-- Node36&#45;&gt;Node8 -->
<g id="edge60" class="edge">
<title>Node36&#45;&gt;Node8</title>
<path fill="none" stroke="midnightblue" d="M192.01,-403.41C172.55,-396.48 148.12,-384.9 132.5,-367 110.73,-342.06 108.5,-329.6 108.5,-296.5 108.5,-296.5 108.5,-296.5 108.5,-121 108.5,-80.97 143.3,-45.34 166.41,-26.09"/>
<polygon fill="midnightblue" stroke="midnightblue" points="168.7,-28.74 174.31,-19.76 164.32,-23.28 168.7,-28.74"/>
</g>
<!-- Node36&#45;&gt;Node11 -->
<g id="edge65" class="edge">
<title>Node36&#45;&gt;Node11</title>
<path fill="none" stroke="midnightblue" d="M276.31,-403.5C338.45,-393.69 440.37,-377.6 504.87,-367.42"/>
<polygon fill="midnightblue" stroke="midnightblue" points="505.56,-370.85 514.89,-365.83 504.46,-363.94 505.56,-370.85"/>
</g>
<!-- Node36&#45;&gt;Node14 -->
<g id="edge58" class="edge">
<title>Node36&#45;&gt;Node14</title>
<path fill="none" stroke="midnightblue" d="M211.61,-403.42C190.6,-385.82 146.5,-343.31 146.5,-296.5 146.5,-296.5 146.5,-296.5 146.5,-233 146.5,-157.88 199.41,-149.49 264.5,-112 308.59,-86.61 436.39,-64.83 486.5,-56 629.62,-30.77 801.6,-18.25 881.55,-13.44"/>
<polygon fill="midnightblue" stroke="midnightblue" points="881.98,-16.92 891.75,-12.83 881.56,-9.93 881.98,-16.92"/>
</g>
<!-- Node36&#45;&gt;Node15 -->
<g id="edge62" class="edge">
<title>Node36&#45;&gt;Node15</title>
<path fill="none" stroke="midnightblue" d="M227.47,-403.1C236.04,-388.69 255.06,-360.48 279.5,-347 368.94,-297.66 410.23,-345.17 506.5,-311 589.5,-281.54 676.64,-221.71 714.73,-193.87"/>
<polygon fill="midnightblue" stroke="midnightblue" points="716.95,-196.58 722.92,-187.83 712.79,-190.95 716.95,-196.58"/>
</g>
<!-- Node36&#45;&gt;Node16 -->
<g id="edge66" class="edge">
<title>Node36&#45;&gt;Node16</title>
<path fill="none" stroke="midnightblue" d="M220.63,-403.45C213.8,-369.87 193.25,-245.03 246.5,-168 257.22,-152.49 274.88,-142.08 291.8,-135.22"/>
<polygon fill="midnightblue" stroke="midnightblue" points="293.46,-138.34 301.62,-131.58 291.03,-131.78 293.46,-138.34"/>
</g>
<!-- Node36&#45;&gt;Node18 -->
<g id="edge61" class="edge">
<title>Node36&#45;&gt;Node18</title>
<path fill="none" stroke="midnightblue" d="M170.83,-403.48C114.57,-390.92 32.5,-361.45 32.5,-296.5 32.5,-296.5 32.5,-296.5 32.5,-121 32.5,-88.95 32.5,-51.64 32.5,-29.75"/>
<polygon fill="midnightblue" stroke="midnightblue" points="36,-29.56 32.5,-19.56 29,-29.56 36,-29.56"/>
</g>
<!-- Node36&#45;&gt;Node19 -->
<g id="edge59" class="edge">
<title>Node36&#45;&gt;Node19</title>
<path fill="none" stroke="midnightblue" d="M190.64,-403.4C146.06,-389.21 70.5,-356.32 70.5,-296.5 70.5,-296.5 70.5,-296.5 70.5,-121 70.5,-86.72 87.54,-49.7 99.09,-28.54"/>
<polygon fill="midnightblue" stroke="midnightblue" points="102.19,-30.17 104.08,-19.75 96.1,-26.72 102.19,-30.17"/>
</g>
<!-- Node37 -->
<g id="node37" class="node">
<title>Node37</title>
<g id="a_node37"><a xlink:href="InvalidArgument_8hpp.html" target="_top" xlink:title="Definition of the InvalidArgument class.">
<polygon fill="white" stroke="black" points="760.5,-347.5 760.5,-366.5 918.5,-366.5 918.5,-347.5 760.5,-347.5"/>
<text text-anchor="middle" x="839.5" y="-354.5" font-family="Helvetica,sans-Serif" font-size="10.00">playrho/InvalidArgument.hpp</text>
</a>
</g>
</g>
<!-- Node36&#45;&gt;Node37 -->
<g id="edge63" class="edge">
<title>Node36&#45;&gt;Node37</title>
<path fill="none" stroke="midnightblue" d="M276.18,-407.3C382.29,-398.01 619.9,-377.22 750.05,-365.83"/>
<polygon fill="midnightblue" stroke="midnightblue" points="750.73,-369.28 760.38,-364.92 750.12,-362.31 750.73,-369.28"/>
</g>
<!-- Node38 -->
<g id="node38" class="node">
<title>Node38</title>
<g id="a_node38"><a xlink:title=" ">
<polygon fill="white" stroke="#bfbfbf" points="853,-286 853,-305 918,-305 918,-286 853,-286"/>
<text text-anchor="middle" x="885.5" y="-293" font-family="Helvetica,sans-Serif" font-size="10.00">stdexcept</text>
</a>
</g>
</g>
<!-- Node37&#45;&gt;Node38 -->
<g id="edge64" class="edge">
<title>Node37&#45;&gt;Node38</title>
<path fill="none" stroke="midnightblue" d="M846.09,-347.48C852.99,-338.55 864,-324.31 872.63,-313.14"/>
<polygon fill="midnightblue" stroke="midnightblue" points="875.57,-315.06 878.92,-305.01 870.04,-310.78 875.57,-315.06"/>
</g>
<!-- Node39&#45;&gt;Node2 -->
<g id="edge73" class="edge">
<title>Node39&#45;&gt;Node2</title>
<path fill="none" stroke="midnightblue" d="M980.5,-571.44C910.93,-561.69 797.49,-545.78 724.97,-535.6"/>
<polygon fill="midnightblue" stroke="midnightblue" points="725.4,-532.13 715.01,-534.21 724.43,-539.06 725.4,-532.13"/>
</g>
<!-- Node39&#45;&gt;Node14 -->
<g id="edge71" class="edge">
<title>Node39&#45;&gt;Node14</title>
<path fill="none" stroke="midnightblue" d="M1092.86,-571.46C1176.4,-556.11 1332.5,-520.63 1332.5,-470 1332.5,-470 1332.5,-470 1332.5,-121 1332.5,-46.79 1076.62,-21.08 971.14,-13.64"/>
<polygon fill="midnightblue" stroke="midnightblue" points="971.33,-10.14 961.12,-12.95 970.85,-17.12 971.33,-10.14"/>
</g>
<!-- Node39&#45;&gt;Node15 -->
<g id="edge69" class="edge">
<title>Node39&#45;&gt;Node15</title>
<path fill="none" stroke="midnightblue" d="M1037.89,-571.39C1030.63,-554.01 1013.8,-513.42 1000.5,-479 966.56,-391.12 994.42,-346.31 927.5,-280 893.65,-246.46 868.8,-265.95 826.5,-244 799.05,-229.75 770.41,-208.31 752.52,-193.99"/>
<polygon fill="midnightblue" stroke="midnightblue" points="754.63,-191.19 744.66,-187.6 750.21,-196.62 754.63,-191.19"/>
</g>
<!-- Node39&#45;&gt;Node20 -->
<g id="edge70" class="edge">
<title>Node39&#45;&gt;Node20</title>
<path fill="none" stroke="midnightblue" d="M1051.54,-571.36C1066.69,-558.49 1096.5,-533.76 1123.5,-515 1188.35,-469.94 1236.73,-491.79 1275.5,-423 1306.71,-367.63 1302.13,-337.71 1275.5,-280 1166.3,-43.37 784.73,-14.59 669.62,-11.34"/>
<polygon fill="midnightblue" stroke="midnightblue" points="669.41,-7.83 659.33,-11.1 669.25,-14.83 669.41,-7.83"/>
</g>
<!-- Node39&#45;&gt;Node31 -->
<g id="edge74" class="edge">
<title>Node39&#45;&gt;Node31</title>
<path fill="none" stroke="midnightblue" d="M1106.61,-577.44C1137.22,-572.55 1171.17,-561.03 1190.5,-535 1212.76,-505.02 1165.85,-487.98 1122.3,-478.94"/>
<polygon fill="midnightblue" stroke="midnightblue" points="1122.7,-475.45 1112.22,-476.97 1121.36,-482.32 1122.7,-475.45"/>
</g>
<!-- Node39&#45;&gt;Node37 -->
<g id="edge72" class="edge">
<title>Node39&#45;&gt;Node37</title>
<path fill="none" stroke="midnightblue" d="M1018.95,-571.41C1002.35,-564.04 980.35,-551.92 966.5,-535 927.04,-486.82 959.63,-450.62 919.5,-403 907.42,-388.67 889.56,-378.01 873.78,-370.67"/>
<polygon fill="midnightblue" stroke="midnightblue" points="874.85,-367.32 864.29,-366.53 872.05,-373.74 874.85,-367.32"/>
</g>
<!-- Node40 -->
<g id="node40" class="node">
<title>Node40</title>
<g id="a_node40"><a xlink:title=" ">
<polygon fill="white" stroke="#bfbfbf" points="1132,-515.5 1132,-534.5 1181,-534.5 1181,-515.5 1132,-515.5"/>
<text text-anchor="middle" x="1156.5" y="-522.5" font-family="Helvetica,sans-Serif" font-size="10.00">cstdlib</text>
</a>
</g>
</g>
<!-- Node39&#45;&gt;Node40 -->
<g id="edge68" class="edge">
<title>Node39&#45;&gt;Node40</title>
<path fill="none" stroke="midnightblue" d="M1059.72,-571.44C1078.4,-562.68 1107.66,-548.94 1129.12,-538.86"/>
<polygon fill="midnightblue" stroke="midnightblue" points="1130.8,-541.93 1138.36,-534.52 1127.82,-535.6 1130.8,-541.93"/>
</g>
</g>
</svg>
        <g id="navigator" transform="translate(0 0)" fill="#404254">
                <rect fill="#f2f5e9" fill-opacity="0.5" stroke="#606060" stroke-width=".5" x="0" y="0" width="60" height="60"/>
                <use id="zoomplus" xlink:href="#zoomPlus" x="17" y="9" onmousedown="handleZoom(evt,'in')"/>
                <use id="zoomminus" xlink:href="#zoomMin" x="42" y="9" onmousedown="handleZoom(evt,'out')"/>
                <use id="reset" xlink:href="#resetDef" x="30" y="36" onmousedown="handleReset()"/>
                <g id="arrowUp" xlink:href="#dirArrow" transform="translate(30 24)" onmousedown="handlePan(0,-1)">
                  <use xlink:href="#rim" fill="#404040">
                        <set attributeName="fill" to="#808080" begin="arrowUp.mouseover" end="arrowUp.mouseout"/>
                  </use>
                  <path fill="none" stroke="white" stroke-width="1.5" d="M0,-3.0v7 M-2.5,-0.5L0,-3.0L2.5,-0.5"/>
                </g>
                <g id="arrowRight" xlink:href="#dirArrow" transform="rotate(90) translate(36 -43)" onmousedown="handlePan(1,0)">
                  <use xlink:href="#rim" fill="#404040">
                        <set attributeName="fill" to="#808080" begin="arrowRight.mouseover" end="arrowRight.mouseout"/>
                  </use>
                  <path fill="none" stroke="white" stroke-width="1.5" d="M0,-3.0v7 M-2.5,-0.5L0,-3.0L2.5,-0.5"/>
                </g>
                <g id="arrowDown" xlink:href="#dirArrow" transform="rotate(180) translate(-30 -48)" onmousedown="handlePan(0,1)">
                  <use xlink:href="#rim" fill="#404040">
                        <set attributeName="fill" to="#808080" begin="arrowDown.mouseover" end="arrowDown.mouseout"/>
                  </use>
                  <path fill="none" stroke="white" stroke-width="1.5" d="M0,-3.0v7 M-2.5,-0.5L0,-3.0L2.5,-0.5"/>
                </g>
                <g id="arrowLeft" xlink:href="#dirArrow" transform="rotate(270) translate(-36 17)" onmousedown="handlePan(-1,0)">
                  <use xlink:href="#rim" fill="#404040">
                        <set attributeName="fill" to="#808080" begin="arrowLeft.mouseover" end="arrowLeft.mouseout"/>
                  </use>
                  <path fill="none" stroke="white" stroke-width="1.5" d="M0,-3.0v7 M-2.5,-0.5L0,-3.0L2.5,-0.5"/>
                </g>
        </g>
        <svg viewBox="0 0 15 15" width="100%" height="30px" preserveAspectRatio="xMaxYMin meet">
         <g id="arrow_out" transform="scale(0.3 0.3)">
          <a xlink:href="Transformation_8hpp__incl_org.svg" target="_base">
           <rect id="button" ry="5" rx="5" y="6" x="6" height="38" width="38"
                fill="#f2f5e9" fill-opacity="0.5" stroke="#606060" stroke-width="1.0"/>
           <path id="arrow"
             d="M 11.500037,31.436501 C 11.940474,20.09759 22.043105,11.32322 32.158766,21.979434 L 37.068811,17.246167 C 37.068811,17.246167 37.088388,32 37.088388,32 L 22.160133,31.978069 C 22.160133,31.978069 26.997745,27.140456 26.997745,27.140456 C 18.528582,18.264221 13.291696,25.230495 11.500037,31.436501 z"
             style="fill:#404040;"/>
          </a>
         </g>
        </svg>
</svg>
