<?xml version="1.0" encoding="UTF-8" standalone="no"?>
<!DOCTYPE svg PUBLIC "-//W3C//DTD SVG 1.1//EN"
 "http://www.w3.org/Graphics/SVG/1.1/DTD/svg11.dtd">
<!-- Generated by graphviz version 2.43.0 (0)
 -->
<!-- Title: Library/include/playrho/d2/Transformation.hpp Pages: 1 -->
<svg width="1507pt" height="498pt"
 viewBox="0.00 0.00 1507.00 498.00" xmlns="http://www.w3.org/2000/svg" xmlns:xlink="http://www.w3.org/1999/xlink">
<g id="graph0" class="graph" transform="scale(1 1) rotate(0) translate(4 494)">
<title>Library/include/playrho/d2/Transformation.hpp</title>
<polygon fill="white" stroke="transparent" points="-4,4 -4,-494 1503,-494 1503,4 -4,4"/>
<!-- Node1 -->
<g id="node1" class="node">
<title>Node1</title>
<g id="a_node1"><a xlink:title="Definition of the Transformation class and free functions directly associated with it.">
<polygon fill="#bfbfbf" stroke="black" points="781.5,-459.5 781.5,-489.5 910.5,-489.5 910.5,-459.5 781.5,-459.5"/>
<text text-anchor="start" x="789.5" y="-477.5" font-family="Helvetica,sans-Serif" font-size="10.00">Library/include/playrho</text>
<text text-anchor="middle" x="846" y="-466.5" font-family="Helvetica,sans-Serif" font-size="10.00">/d2/Transformation.hpp</text>
</a>
</g>
</g>
<!-- Node2 -->
<g id="node2" class="node">
<title>Node2</title>
<g id="a_node2"><a xlink:href="Vector2_8hpp.html" target="_top" xlink:title="Definition of the Vector2 alias template and closely related code.">
<polygon fill="white" stroke="black" points="747,-403.5 747,-422.5 861,-422.5 861,-403.5 747,-403.5"/>
<text text-anchor="middle" x="804" y="-410.5" font-family="Helvetica,sans-Serif" font-size="10.00">playrho/Vector2.hpp</text>
</a>
</g>
</g>
<!-- Node1&#45;&gt;Node2 -->
<g id="edge1" class="edge">
<title>Node1&#45;&gt;Node2</title>
<path fill="none" stroke="midnightblue" d="M836.05,-459.4C830.01,-450.84 822.26,-439.87 815.9,-430.86"/>
<polygon fill="midnightblue" stroke="midnightblue" points="818.74,-428.81 810.11,-422.66 813.02,-432.85 818.74,-428.81"/>
</g>
<!-- Node30 -->
<g id="node30" class="node">
<title>Node30</title>
<g id="a_node30"><a xlink:href="UnitVec_8hpp.html" target="_top" xlink:title="Declarations of the UnitVec class and free functions associated with it.">
<polygon fill="white" stroke="black" points="1045,-347.5 1045,-366.5 1175,-366.5 1175,-347.5 1045,-347.5"/>
<text text-anchor="middle" x="1110" y="-354.5" font-family="Helvetica,sans-Serif" font-size="10.00">playrho/d2/UnitVec.hpp</text>
</a>
</g>
</g>
<!-- Node1&#45;&gt;Node30 -->
<g id="edge48" class="edge">
<title>Node1&#45;&gt;Node30</title>
<path fill="none" stroke="midnightblue" d="M878.11,-459.45C930.02,-436.74 1031.59,-392.3 1081.26,-370.57"/>
<polygon fill="midnightblue" stroke="midnightblue" points="1082.72,-373.76 1090.47,-366.54 1079.91,-367.34 1082.72,-373.76"/>
</g>
<!-- Node3 -->
<g id="node3" class="node">
<title>Node3</title>
<g id="a_node3"><a xlink:href="Real_8hpp.html" target="_top" xlink:title="Real number definition file.">
<polygon fill="white" stroke="black" points="611.5,-179.5 611.5,-198.5 710.5,-198.5 710.5,-179.5 611.5,-179.5"/>
<text text-anchor="middle" x="661" y="-186.5" font-family="Helvetica,sans-Serif" font-size="10.00">playrho/Real.hpp</text>
</a>
</g>
</g>
<!-- Node2&#45;&gt;Node3 -->
<g id="edge2" class="edge">
<title>Node2&#45;&gt;Node3</title>
<path fill="none" stroke="midnightblue" d="M804.46,-403.47C805.51,-375.76 805.14,-287.03 762,-235 748.8,-219.08 728.83,-208.59 710.11,-201.78"/>
<polygon fill="midnightblue" stroke="midnightblue" points="711.08,-198.41 700.49,-198.55 708.85,-205.05 711.08,-198.41"/>
</g>
<!-- Node12 -->
<g id="node12" class="node">
<title>Node12</title>
<g id="a_node12"><a xlink:href="Settings_8hpp.html" target="_top" xlink:title="Types and default settings file.">
<polygon fill="white" stroke="black" points="431.5,-347.5 431.5,-366.5 548.5,-366.5 548.5,-347.5 431.5,-347.5"/>
<text text-anchor="middle" x="490" y="-354.5" font-family="Helvetica,sans-Serif" font-size="10.00">playrho/Settings.hpp</text>
</a>
</g>
</g>
<!-- Node2&#45;&gt;Node12 -->
<g id="edge12" class="edge">
<title>Node2&#45;&gt;Node12</title>
<path fill="none" stroke="midnightblue" d="M754.25,-403.44C698.67,-393.89 608.74,-378.42 549.48,-368.23"/>
<polygon fill="midnightblue" stroke="midnightblue" points="549.97,-364.76 539.52,-366.52 548.78,-371.66 549.97,-364.76"/>
</g>
<!-- Node15 -->
<g id="node15" class="node">
<title>Node15</title>
<g id="a_node15"><a xlink:href="Units_8hpp.html" target="_top" xlink:title="Declarations for physical units possibly backed by strong types.">
<polygon fill="white" stroke="black" points="510.5,-291.5 510.5,-310.5 613.5,-310.5 613.5,-291.5 510.5,-291.5"/>
<text text-anchor="middle" x="562" y="-298.5" font-family="Helvetica,sans-Serif" font-size="10.00">playrho/Units.hpp</text>
</a>
</g>
</g>
<!-- Node2&#45;&gt;Node15 -->
<g id="edge33" class="edge">
<title>Node2&#45;&gt;Node15</title>
<path fill="none" stroke="midnightblue" d="M785.01,-403.37C742.6,-384.09 640,-337.45 590.14,-314.79"/>
<polygon fill="midnightblue" stroke="midnightblue" points="591.45,-311.54 580.9,-310.59 588.56,-317.92 591.45,-311.54"/>
</g>
<!-- Node22 -->
<g id="node22" class="node">
<title>Node22</title>
<g id="a_node22"><a xlink:href="Vector_8hpp.html" target="_top" xlink:title="Definition of the Vector class template and closely related code.">
<polygon fill="white" stroke="black" points="974.5,-235.5 974.5,-254.5 1081.5,-254.5 1081.5,-235.5 974.5,-235.5"/>
<text text-anchor="middle" x="1028" y="-242.5" font-family="Helvetica,sans-Serif" font-size="10.00">playrho/Vector.hpp</text>
</a>
</g>
</g>
<!-- Node2&#45;&gt;Node22 -->
<g id="edge34" class="edge">
<title>Node2&#45;&gt;Node22</title>
<path fill="none" stroke="midnightblue" d="M815.73,-403.31C852.02,-376.42 962.75,-294.35 1008.21,-260.67"/>
<polygon fill="midnightblue" stroke="midnightblue" points="1010.44,-263.37 1016.39,-254.61 1006.27,-257.75 1010.44,-263.37"/>
</g>
<!-- Node4 -->
<g id="node4" class="node">
<title>Node4</title>
<g id="a_node4"><a xlink:title=" ">
<polygon fill="white" stroke="#bfbfbf" points="547,-123.5 547,-142.5 591,-142.5 591,-123.5 547,-123.5"/>
<text text-anchor="middle" x="569" y="-130.5" font-family="Helvetica,sans-Serif" font-size="10.00">limits</text>
</a>
</g>
</g>
<!-- Node3&#45;&gt;Node4 -->
<g id="edge3" class="edge">
<title>Node3&#45;&gt;Node4</title>
<path fill="none" stroke="midnightblue" d="M646.22,-179.32C631.73,-170.82 609.43,-157.73 592.51,-147.8"/>
<polygon fill="midnightblue" stroke="midnightblue" points="594.14,-144.7 583.74,-142.65 590.6,-150.74 594.14,-144.7"/>
</g>
<!-- Node5 -->
<g id="node5" class="node">
<title>Node5</title>
<g id="a_node5"><a xlink:href="Templates_8hpp.html" target="_top" xlink:title="Definitions of miscellaneous template related code.">
<polygon fill="white" stroke="black" points="918,-123.5 918,-142.5 1046,-142.5 1046,-123.5 918,-123.5"/>
<text text-anchor="middle" x="982" y="-130.5" font-family="Helvetica,sans-Serif" font-size="10.00">playrho/Templates.hpp</text>
</a>
</g>
</g>
<!-- Node3&#45;&gt;Node5 -->
<g id="edge4" class="edge">
<title>Node3&#45;&gt;Node5</title>
<path fill="none" stroke="midnightblue" d="M710.8,-179.62C767.6,-170.07 860.47,-154.44 921.41,-144.19"/>
<polygon fill="midnightblue" stroke="midnightblue" points="922,-147.64 931.28,-142.53 920.84,-140.74 922,-147.64"/>
</g>
<!-- Node6 -->
<g id="node6" class="node">
<title>Node6</title>
<g id="a_node6"><a xlink:title=" ">
<polygon fill="white" stroke="#bfbfbf" points="1078.5,-62 1078.5,-81 1127.5,-81 1127.5,-62 1078.5,-62"/>
<text text-anchor="middle" x="1103" y="-69" font-family="Helvetica,sans-Serif" font-size="10.00">cstdlib</text>
</a>
</g>
</g>
<!-- Node5&#45;&gt;Node6 -->
<g id="edge5" class="edge">
<title>Node5&#45;&gt;Node6</title>
<path fill="none" stroke="midnightblue" d="M999.34,-123.48C1019.55,-113.53 1053.19,-96.99 1076.64,-85.46"/>
<polygon fill="midnightblue" stroke="midnightblue" points="1078.27,-88.56 1085.7,-81.01 1075.18,-82.28 1078.27,-88.56"/>
</g>
<!-- Node7 -->
<g id="node7" class="node">
<title>Node7</title>
<g id="a_node7"><a xlink:title=" ">
<polygon fill="white" stroke="#bfbfbf" points="548.5,-0.5 548.5,-19.5 617.5,-19.5 617.5,-0.5 548.5,-0.5"/>
<text text-anchor="middle" x="583" y="-7.5" font-family="Helvetica,sans-Serif" font-size="10.00">type_traits</text>
</a>
</g>
</g>
<!-- Node5&#45;&gt;Node7 -->
<g id="edge6" class="edge">
<title>Node5&#45;&gt;Node7</title>
<path fill="none" stroke="midnightblue" d="M963.39,-123.39C929.66,-108.06 855.86,-75.77 791,-56 735.66,-39.13 670.2,-26.06 627.7,-18.46"/>
<polygon fill="midnightblue" stroke="midnightblue" points="628.13,-14.98 617.68,-16.69 626.92,-21.87 628.13,-14.98"/>
</g>
<!-- Node8 -->
<g id="node8" class="node">
<title>Node8</title>
<g id="a_node8"><a xlink:href="detail_2Templates_8hpp.html" target="_top" xlink:title="Low&#45;level declarations for general class &amp; function templates.">
<polygon fill="white" stroke="black" points="903,-62 903,-81 1061,-81 1061,-62 903,-62"/>
<text text-anchor="middle" x="982" y="-69" font-family="Helvetica,sans-Serif" font-size="10.00">playrho/detail/Templates.hpp</text>
</a>
</g>
</g>
<!-- Node5&#45;&gt;Node8 -->
<g id="edge7" class="edge">
<title>Node5&#45;&gt;Node8</title>
<path fill="none" stroke="midnightblue" d="M982,-123.48C982,-115.08 982,-101.98 982,-91.16"/>
<polygon fill="midnightblue" stroke="midnightblue" points="985.5,-91.01 982,-81.01 978.5,-91.01 985.5,-91.01"/>
</g>
<!-- Node8&#45;&gt;Node7 -->
<g id="edge10" class="edge">
<title>Node8&#45;&gt;Node7</title>
<path fill="none" stroke="midnightblue" d="M924.83,-61.98C844.73,-50.03 700.76,-28.56 627.88,-17.69"/>
<polygon fill="midnightblue" stroke="midnightblue" points="628.07,-14.18 617.66,-16.17 627.04,-21.11 628.07,-14.18"/>
</g>
<!-- Node9 -->
<g id="node9" class="node">
<title>Node9</title>
<g id="a_node9"><a xlink:title=" ">
<polygon fill="white" stroke="#bfbfbf" points="896,-0.5 896,-19.5 960,-19.5 960,-0.5 896,-0.5"/>
<text text-anchor="middle" x="928" y="-7.5" font-family="Helvetica,sans-Serif" font-size="10.00">algorithm</text>
</a>
</g>
</g>
<!-- Node8&#45;&gt;Node9 -->
<g id="edge8" class="edge">
<title>Node8&#45;&gt;Node9</title>
<path fill="none" stroke="midnightblue" d="M974.26,-61.98C966,-52.87 952.72,-38.24 942.51,-26.98"/>
<polygon fill="midnightblue" stroke="midnightblue" points="945.03,-24.56 935.72,-19.51 939.85,-29.27 945.03,-24.56"/>
</g>
<!-- Node10 -->
<g id="node10" class="node">
<title>Node10</title>
<g id="a_node10"><a xlink:title=" ">
<polygon fill="white" stroke="#bfbfbf" points="1129.5,-0.5 1129.5,-19.5 1182.5,-19.5 1182.5,-0.5 1129.5,-0.5"/>
<text text-anchor="middle" x="1156" y="-7.5" font-family="Helvetica,sans-Serif" font-size="10.00">iterator</text>
</a>
</g>
</g>
<!-- Node8&#45;&gt;Node10 -->
<g id="edge9" class="edge">
<title>Node8&#45;&gt;Node10</title>
<path fill="none" stroke="midnightblue" d="M1006.93,-61.98C1037.04,-51.68 1087.83,-34.31 1121.64,-22.75"/>
<polygon fill="midnightblue" stroke="midnightblue" points="1122.79,-26.06 1131.12,-19.51 1120.52,-19.43 1122.79,-26.06"/>
</g>
<!-- Node11 -->
<g id="node11" class="node">
<title>Node11</title>
<g id="a_node11"><a xlink:title=" ">
<polygon fill="white" stroke="#bfbfbf" points="1400.5,-0.5 1400.5,-19.5 1445.5,-19.5 1445.5,-0.5 1400.5,-0.5"/>
<text text-anchor="middle" x="1423" y="-7.5" font-family="Helvetica,sans-Serif" font-size="10.00">utility</text>
</a>
</g>
</g>
<!-- Node8&#45;&gt;Node11 -->
<g id="edge11" class="edge">
<title>Node8&#45;&gt;Node11</title>
<path fill="none" stroke="midnightblue" d="M1031.75,-61.98C1044.22,-59.93 1057.59,-57.81 1070,-56 1187.6,-38.82 1327.79,-22.05 1390.21,-14.77"/>
<polygon fill="midnightblue" stroke="midnightblue" points="1390.72,-18.24 1400.25,-13.61 1389.91,-11.29 1390.72,-18.24"/>
</g>
<!-- Node12&#45;&gt;Node3 -->
<g id="edge16" class="edge">
<title>Node12&#45;&gt;Node3</title>
<path fill="none" stroke="midnightblue" d="M548.55,-352.69C611.12,-345.55 706.74,-323.36 747,-255 761.17,-230.95 729.64,-212.86 700.85,-201.95"/>
<polygon fill="midnightblue" stroke="midnightblue" points="701.85,-198.59 691.26,-198.53 699.5,-205.19 701.85,-198.59"/>
</g>
<!-- Node12&#45;&gt;Node4 -->
<g id="edge14" class="edge">
<title>Node12&#45;&gt;Node4</title>
<path fill="none" stroke="midnightblue" d="M461.77,-347.48C409.99,-330.33 308.2,-288.67 343,-235 386.33,-168.18 485.36,-145.17 536.74,-137.56"/>
<polygon fill="midnightblue" stroke="midnightblue" points="537.51,-140.99 546.94,-136.16 536.56,-134.06 537.51,-140.99"/>
</g>
<!-- Node12&#45;&gt;Node7 -->
<g id="edge15" class="edge">
<title>Node12&#45;&gt;Node7</title>
<path fill="none" stroke="midnightblue" d="M431.42,-354.09C359.8,-348.26 248,-326.3 248,-246 248,-246 248,-246 248,-132 248,-81.32 287.45,-78.22 333,-56 399.56,-23.53 486.37,-14.3 538.23,-11.79"/>
<polygon fill="midnightblue" stroke="midnightblue" points="538.58,-15.27 548.43,-11.36 538.29,-8.28 538.58,-15.27"/>
</g>
<!-- Node13 -->
<g id="node13" class="node">
<title>Node13</title>
<g id="a_node13"><a xlink:title=" ">
<polygon fill="white" stroke="#bfbfbf" points="0,-179.5 0,-198.5 50,-198.5 50,-179.5 0,-179.5"/>
<text text-anchor="middle" x="25" y="-186.5" font-family="Helvetica,sans-Serif" font-size="10.00">cstdint</text>
</a>
</g>
</g>
<!-- Node12&#45;&gt;Node13 -->
<g id="edge13" class="edge">
<title>Node12&#45;&gt;Node13</title>
<path fill="none" stroke="midnightblue" d="M431.49,-356.46C332.1,-356.14 135.73,-350.36 81,-311 46.96,-286.52 33.06,-236.11 27.83,-208.72"/>
<polygon fill="midnightblue" stroke="midnightblue" points="31.23,-207.8 26.09,-198.53 24.33,-208.97 31.23,-207.8"/>
</g>
<!-- Node14 -->
<g id="node14" class="node">
<title>Node14</title>
<g id="a_node14"><a xlink:href="RealConstants_8hpp.html" target="_top" xlink:title="Definitions file for constant expressions of type Real.">
<polygon fill="white" stroke="black" points="590,-235.5 590,-254.5 738,-254.5 738,-235.5 590,-235.5"/>
<text text-anchor="middle" x="664" y="-242.5" font-family="Helvetica,sans-Serif" font-size="10.00">playrho/RealConstants.hpp</text>
</a>
</g>
</g>
<!-- Node12&#45;&gt;Node14 -->
<g id="edge17" class="edge">
<title>Node12&#45;&gt;Node14</title>
<path fill="none" stroke="midnightblue" d="M540.35,-347.44C567.05,-340.93 599.16,-329.78 623,-311 638.52,-298.78 649.8,-278.95 656.56,-264.4"/>
<polygon fill="midnightblue" stroke="midnightblue" points="659.9,-265.49 660.67,-254.93 653.48,-262.71 659.9,-265.49"/>
</g>
<!-- Node12&#45;&gt;Node15 -->
<g id="edge19" class="edge">
<title>Node12&#45;&gt;Node15</title>
<path fill="none" stroke="midnightblue" d="M501.57,-347.32C512.42,-339.18 528.88,-326.84 541.88,-317.09"/>
<polygon fill="midnightblue" stroke="midnightblue" points="544.32,-319.63 550.22,-310.83 540.12,-314.03 544.32,-319.63"/>
</g>
<!-- Node19 -->
<g id="node19" class="node">
<title>Node19</title>
<g id="a_node19"><a xlink:href="WiderType_8hpp.html" target="_top" xlink:title="Definition of the WiderType alias template.">
<polygon fill="white" stroke="black" points="90,-291.5 90,-310.5 218,-310.5 218,-291.5 90,-291.5"/>
<text text-anchor="middle" x="154" y="-298.5" font-family="Helvetica,sans-Serif" font-size="10.00">playrho/WiderType.hpp</text>
</a>
</g>
</g>
<!-- Node12&#45;&gt;Node19 -->
<g id="edge28" class="edge">
<title>Node12&#45;&gt;Node19</title>
<path fill="none" stroke="midnightblue" d="M436.76,-347.44C377.04,-337.85 280.26,-322.29 216.87,-312.1"/>
<polygon fill="midnightblue" stroke="midnightblue" points="217.42,-308.65 206.99,-310.52 216.31,-315.56 217.42,-308.65"/>
</g>
<!-- Node14&#45;&gt;Node3 -->
<g id="edge18" class="edge">
<title>Node14&#45;&gt;Node3</title>
<path fill="none" stroke="midnightblue" d="M663.5,-235.08C663.11,-228.01 662.55,-217.86 662.05,-208.99"/>
<polygon fill="midnightblue" stroke="midnightblue" points="665.54,-208.54 661.49,-198.75 658.55,-208.93 665.54,-208.54"/>
</g>
<!-- Node15&#45;&gt;Node3 -->
<g id="edge22" class="edge">
<title>Node15&#45;&gt;Node3</title>
<path fill="none" stroke="midnightblue" d="M562.47,-291.49C563.61,-278.11 567.54,-251.94 581,-235 592.49,-220.53 609.98,-209.94 625.68,-202.68"/>
<polygon fill="midnightblue" stroke="midnightblue" points="627.37,-205.77 635.16,-198.59 624.59,-199.34 627.37,-205.77"/>
</g>
<!-- Node15&#45;&gt;Node5 -->
<g id="edge24" class="edge">
<title>Node15&#45;&gt;Node5</title>
<path fill="none" stroke="midnightblue" d="M561.14,-291.32C560.19,-278.59 559.55,-254.3 566,-235 575.46,-206.71 577.61,-194.66 603,-179 652.45,-148.51 811.99,-138.67 907.59,-135.51"/>
<polygon fill="midnightblue" stroke="midnightblue" points="907.9,-139 917.78,-135.18 907.68,-132 907.9,-139"/>
</g>
<!-- Node15&#45;&gt;Node7 -->
<g id="edge21" class="edge">
<title>Node15&#45;&gt;Node7</title>
<path fill="none" stroke="midnightblue" d="M510.4,-295.51C453.54,-289.53 366.94,-277.06 343,-255 320.87,-234.6 324,-220.1 324,-190 324,-190 324,-190 324,-132 324,-38.5 464.26,-17.09 538.35,-12.3"/>
<polygon fill="midnightblue" stroke="midnightblue" points="538.55,-15.79 548.34,-11.73 538.16,-8.8 538.55,-15.79"/>
</g>
<!-- Node15&#45;&gt;Node14 -->
<g id="edge23" class="edge">
<title>Node15&#45;&gt;Node14</title>
<path fill="none" stroke="midnightblue" d="M578.39,-291.32C594.67,-282.7 619.87,-269.36 638.72,-259.39"/>
<polygon fill="midnightblue" stroke="midnightblue" points="640.45,-262.43 647.65,-254.65 637.18,-256.24 640.45,-262.43"/>
</g>
<!-- Node16 -->
<g id="node16" class="node">
<title>Node16</title>
<g id="a_node16"><a xlink:title=" ">
<polygon fill="white" stroke="#bfbfbf" points="832.5,-235.5 832.5,-254.5 879.5,-254.5 879.5,-235.5 832.5,-235.5"/>
<text text-anchor="middle" x="856" y="-242.5" font-family="Helvetica,sans-Serif" font-size="10.00">cmath</text>
</a>
</g>
</g>
<!-- Node15&#45;&gt;Node16 -->
<g id="edge20" class="edge">
<title>Node15&#45;&gt;Node16</title>
<path fill="none" stroke="midnightblue" d="M608.59,-291.44C668.12,-280.51 769.73,-261.84 822.29,-252.19"/>
<polygon fill="midnightblue" stroke="midnightblue" points="823.23,-255.58 832.43,-250.33 821.96,-248.69 823.23,-255.58"/>
</g>
<!-- Node17 -->
<g id="node17" class="node">
<title>Node17</title>
<g id="a_node17"><a xlink:href="to__underlying_8hpp.html" target="_top" xlink:title="Definition of to_underlying function template.">
<polygon fill="white" stroke="black" points="352,-235.5 352,-254.5 496,-254.5 496,-235.5 352,-235.5"/>
<text text-anchor="middle" x="424" y="-242.5" font-family="Helvetica,sans-Serif" font-size="10.00">playrho/to_underlying.hpp</text>
</a>
</g>
</g>
<!-- Node15&#45;&gt;Node17 -->
<g id="edge25" class="edge">
<title>Node15&#45;&gt;Node17</title>
<path fill="none" stroke="midnightblue" d="M540.13,-291.44C517.22,-282.48 481.02,-268.31 455.13,-258.18"/>
<polygon fill="midnightblue" stroke="midnightblue" points="456.35,-254.9 445.76,-254.52 453.8,-261.42 456.35,-254.9"/>
</g>
<!-- Node18 -->
<g id="node18" class="node">
<title>Node18</title>
<g id="a_node18"><a xlink:href="underlying__type_8hpp.html" target="_top" xlink:title="Definition of underlying_type trait class and related code.">
<polygon fill="white" stroke="black" points="464.5,-56.5 464.5,-86.5 603.5,-86.5 603.5,-56.5 464.5,-56.5"/>
<text text-anchor="start" x="472.5" y="-74.5" font-family="Helvetica,sans-Serif" font-size="10.00">playrho/detail/underlying</text>
<text text-anchor="middle" x="534" y="-63.5" font-family="Helvetica,sans-Serif" font-size="10.00">_type.hpp</text>
</a>
</g>
</g>
<!-- Node17&#45;&gt;Node18 -->
<g id="edge26" class="edge">
<title>Node17&#45;&gt;Node18</title>
<path fill="none" stroke="midnightblue" d="M429.61,-235.26C446.1,-209.54 494.86,-133.53 519.46,-95.18"/>
<polygon fill="midnightblue" stroke="midnightblue" points="522.42,-97.03 524.88,-86.72 516.53,-93.25 522.42,-97.03"/>
</g>
<!-- Node18&#45;&gt;Node7 -->
<g id="edge27" class="edge">
<title>Node18&#45;&gt;Node7</title>
<path fill="none" stroke="midnightblue" d="M545.61,-56.4C552.73,-47.75 561.88,-36.64 569.35,-27.58"/>
<polygon fill="midnightblue" stroke="midnightblue" points="572.21,-29.6 575.87,-19.66 566.81,-25.15 572.21,-29.6"/>
</g>
<!-- Node20 -->
<g id="node20" class="node">
<title>Node20</title>
<g id="a_node20"><a xlink:href="Wider_8hpp.html" target="_top" xlink:title="Definition of the Wider class template and specializations.">
<polygon fill="white" stroke="black" points="76,-235.5 76,-254.5 212,-254.5 212,-235.5 76,-235.5"/>
<text text-anchor="middle" x="144" y="-242.5" font-family="Helvetica,sans-Serif" font-size="10.00">playrho/detail/Wider.hpp</text>
</a>
</g>
</g>
<!-- Node19&#45;&gt;Node20 -->
<g id="edge29" class="edge">
<title>Node19&#45;&gt;Node20</title>
<path fill="none" stroke="midnightblue" d="M152.35,-291.08C151.02,-283.93 149.12,-273.64 147.46,-264.69"/>
<polygon fill="midnightblue" stroke="midnightblue" points="150.88,-263.95 145.62,-254.75 144,-265.22 150.88,-263.95"/>
</g>
<!-- Node20&#45;&gt;Node7 -->
<g id="edge31" class="edge">
<title>Node20&#45;&gt;Node7</title>
<path fill="none" stroke="midnightblue" d="M130.17,-235.48C112.97,-223.71 87.02,-201.38 97,-179 130.34,-104.27 159.62,-90.11 234,-56 287.21,-31.6 456.34,-18.51 538.01,-13.48"/>
<polygon fill="midnightblue" stroke="midnightblue" points="538.69,-16.94 548.47,-12.85 538.27,-9.95 538.69,-16.94"/>
</g>
<!-- Node20&#45;&gt;Node13 -->
<g id="edge30" class="edge">
<title>Node20&#45;&gt;Node13</title>
<path fill="none" stroke="midnightblue" d="M125.14,-235.44C105.73,-226.64 75.27,-212.81 53.04,-202.72"/>
<polygon fill="midnightblue" stroke="midnightblue" points="54.32,-199.46 43.77,-198.52 51.43,-205.84 54.32,-199.46"/>
</g>
<!-- Node21 -->
<g id="node21" class="node">
<title>Node21</title>
<g id="a_node21"><a xlink:href="Defines_8hpp.html" target="_top" xlink:title="Miscellaneous C&#45;preprocessor definitions.">
<polygon fill="white" stroke="black" points="106,-179.5 106,-198.5 220,-198.5 220,-179.5 106,-179.5"/>
<text text-anchor="middle" x="163" y="-186.5" font-family="Helvetica,sans-Serif" font-size="10.00">playrho/Defines.hpp</text>
</a>
</g>
</g>
<!-- Node20&#45;&gt;Node21 -->
<g id="edge32" class="edge">
<title>Node20&#45;&gt;Node21</title>
<path fill="none" stroke="midnightblue" d="M147.14,-235.08C149.68,-227.85 153.36,-217.41 156.53,-208.4"/>
<polygon fill="midnightblue" stroke="midnightblue" points="159.9,-209.35 159.92,-198.75 153.3,-207.02 159.9,-209.35"/>
</g>
<!-- Node22&#45;&gt;Node3 -->
<g id="edge46" class="edge">
<title>Node22&#45;&gt;Node3</title>
<path fill="none" stroke="midnightblue" d="M974.24,-236.09C906.69,-226.15 791.1,-209.14 720.81,-198.8"/>
<polygon fill="midnightblue" stroke="midnightblue" points="721.18,-195.32 710.78,-197.32 720.16,-202.24 721.18,-195.32"/>
</g>
<!-- Node22&#45;&gt;Node5 -->
<g id="edge47" class="edge">
<title>Node22&#45;&gt;Node5</title>
<path fill="none" stroke="midnightblue" d="M1024.34,-235.38C1020.51,-226.33 1014.31,-211.67 1009,-199 1002.37,-183.17 994.89,-165.14 989.48,-152.1"/>
<polygon fill="midnightblue" stroke="midnightblue" points="992.71,-150.74 985.65,-142.84 986.24,-153.42 992.71,-150.74"/>
</g>
<!-- Node22&#45;&gt;Node7 -->
<g id="edge41" class="edge">
<title>Node22&#45;&gt;Node7</title>
<path fill="none" stroke="midnightblue" d="M974.49,-236.52C910.43,-227.12 810.1,-210.78 797,-199 747.55,-154.54 800.94,-102.08 753,-56 719.6,-23.9 666.07,-14.04 628.01,-11.34"/>
<polygon fill="midnightblue" stroke="midnightblue" points="627.89,-7.83 617.71,-10.75 627.5,-14.82 627.89,-7.83"/>
</g>
<!-- Node22&#45;&gt;Node9 -->
<g id="edge35" class="edge">
<title>Node22&#45;&gt;Node9</title>
<path fill="none" stroke="midnightblue" d="M986.39,-235.42C951.6,-227.31 905.97,-214.15 895,-199 857.72,-147.52 873.79,-116.26 894,-56 897.6,-45.25 904.9,-35.02 911.82,-27.04"/>
<polygon fill="midnightblue" stroke="midnightblue" points="914.48,-29.32 918.71,-19.61 909.35,-24.56 914.48,-29.32"/>
</g>
<!-- Node22&#45;&gt;Node10 -->
<g id="edge38" class="edge">
<title>Node22&#45;&gt;Node10</title>
<path fill="none" stroke="midnightblue" d="M1028.28,-235.45C1029.03,-222.47 1031.8,-197.37 1042,-179 1070.53,-127.61 1107.63,-137.91 1137,-87 1147.28,-69.18 1152.05,-45.88 1154.22,-29.8"/>
<polygon fill="midnightblue" stroke="midnightblue" points="1157.74,-29.88 1155.39,-19.55 1150.78,-29.09 1157.74,-29.88"/>
</g>
<!-- Node23 -->
<g id="node23" class="node">
<title>Node23</title>
<g id="a_node23"><a xlink:title=" ">
<polygon fill="white" stroke="#bfbfbf" points="1129,-179.5 1129,-198.5 1181,-198.5 1181,-179.5 1129,-179.5"/>
<text text-anchor="middle" x="1155" y="-186.5" font-family="Helvetica,sans-Serif" font-size="10.00">cassert</text>
</a>
</g>
</g>
<!-- Node22&#45;&gt;Node23 -->
<g id="edge36" class="edge">
<title>Node22&#45;&gt;Node23</title>
<path fill="none" stroke="midnightblue" d="M1048.12,-235.44C1069.02,-226.56 1101.93,-212.56 1125.72,-202.45"/>
<polygon fill="midnightblue" stroke="midnightblue" points="1127.14,-205.65 1134.97,-198.52 1124.4,-199.21 1127.14,-205.65"/>
</g>
<!-- Node24 -->
<g id="node24" class="node">
<title>Node24</title>
<g id="a_node24"><a xlink:title=" ">
<polygon fill="white" stroke="#bfbfbf" points="903.5,-179.5 903.5,-198.5 956.5,-198.5 956.5,-179.5 903.5,-179.5"/>
<text text-anchor="middle" x="930" y="-186.5" font-family="Helvetica,sans-Serif" font-size="10.00">cstddef</text>
</a>
</g>
</g>
<!-- Node22&#45;&gt;Node24 -->
<g id="edge37" class="edge">
<title>Node22&#45;&gt;Node24</title>
<path fill="none" stroke="midnightblue" d="M1012.25,-235.32C996.68,-226.74 972.62,-213.49 954.54,-203.52"/>
<polygon fill="midnightblue" stroke="midnightblue" points="956.15,-200.42 945.71,-198.65 952.78,-206.55 956.15,-200.42"/>
</g>
<!-- Node25 -->
<g id="node25" class="node">
<title>Node25</title>
<g id="a_node25"><a xlink:title=" ">
<polygon fill="white" stroke="#bfbfbf" points="1051,-179.5 1051,-198.5 1111,-198.5 1111,-179.5 1051,-179.5"/>
<text text-anchor="middle" x="1081" y="-186.5" font-family="Helvetica,sans-Serif" font-size="10.00">iostream</text>
</a>
</g>
</g>
<!-- Node22&#45;&gt;Node25 -->
<g id="edge39" class="edge">
<title>Node22&#45;&gt;Node25</title>
<path fill="none" stroke="midnightblue" d="M1036.75,-235.08C1044.47,-227.22 1055.9,-215.57 1065.22,-206.08"/>
<polygon fill="midnightblue" stroke="midnightblue" points="1067.9,-208.34 1072.41,-198.75 1062.91,-203.44 1067.9,-208.34"/>
</g>
<!-- Node26 -->
<g id="node26" class="node">
<title>Node26</title>
<g id="a_node26"><a xlink:title=" ">
<polygon fill="white" stroke="#bfbfbf" points="805.5,-179.5 805.5,-198.5 846.5,-198.5 846.5,-179.5 805.5,-179.5"/>
<text text-anchor="middle" x="826" y="-186.5" font-family="Helvetica,sans-Serif" font-size="10.00">tuple</text>
</a>
</g>
</g>
<!-- Node22&#45;&gt;Node26 -->
<g id="edge40" class="edge">
<title>Node22&#45;&gt;Node26</title>
<path fill="none" stroke="midnightblue" d="M995.99,-235.44C957.76,-225.22 894.26,-208.25 856.64,-198.19"/>
<polygon fill="midnightblue" stroke="midnightblue" points="857.32,-194.75 846.76,-195.55 855.51,-201.51 857.32,-194.75"/>
</g>
<!-- Node27 -->
<g id="node27" class="node">
<title>Node27</title>
<g id="a_node27"><a xlink:href="InvalidArgument_8hpp.html" target="_top" xlink:title="Definition of the InvalidArgument class.">
<polygon fill="white" stroke="black" points="1237,-179.5 1237,-198.5 1395,-198.5 1395,-179.5 1237,-179.5"/>
<text text-anchor="middle" x="1316" y="-186.5" font-family="Helvetica,sans-Serif" font-size="10.00">playrho/InvalidArgument.hpp</text>
</a>
</g>
</g>
<!-- Node22&#45;&gt;Node27 -->
<g id="edge42" class="edge">
<title>Node22&#45;&gt;Node27</title>
<path fill="none" stroke="midnightblue" d="M1073.63,-235.44C1124.3,-225.94 1206.07,-210.61 1260.43,-200.42"/>
<polygon fill="midnightblue" stroke="midnightblue" points="1261.4,-203.8 1270.58,-198.52 1260.11,-196.92 1261.4,-203.8"/>
</g>
<!-- Node27&#45;&gt;Node11 -->
<g id="edge45" class="edge">
<title>Node27&#45;&gt;Node11</title>
<path fill="none" stroke="midnightblue" d="M1325.27,-179.32C1334.15,-170.68 1347.55,-156.77 1357,-143 1382.99,-105.12 1404.95,-55.55 1415.77,-29.25"/>
<polygon fill="midnightblue" stroke="midnightblue" points="1419.09,-30.37 1419.6,-19.79 1412.6,-27.75 1419.09,-30.37"/>
</g>
<!-- Node28 -->
<g id="node28" class="node">
<title>Node28</title>
<g id="a_node28"><a xlink:title=" ">
<polygon fill="white" stroke="#bfbfbf" points="1220.5,-123.5 1220.5,-142.5 1285.5,-142.5 1285.5,-123.5 1220.5,-123.5"/>
<text text-anchor="middle" x="1253" y="-130.5" font-family="Helvetica,sans-Serif" font-size="10.00">stdexcept</text>
</a>
</g>
</g>
<!-- Node27&#45;&gt;Node28 -->
<g id="edge43" class="edge">
<title>Node27&#45;&gt;Node28</title>
<path fill="none" stroke="midnightblue" d="M1305.88,-179.32C1296.47,-171.26 1282.26,-159.08 1270.93,-149.37"/>
<polygon fill="midnightblue" stroke="midnightblue" points="1273.18,-146.68 1263.31,-142.83 1268.62,-152 1273.18,-146.68"/>
</g>
<!-- Node29 -->
<g id="node29" class="node">
<title>Node29</title>
<g id="a_node29"><a xlink:title=" ">
<polygon fill="white" stroke="#bfbfbf" points="1304,-123.5 1304,-142.5 1348,-142.5 1348,-123.5 1304,-123.5"/>
<text text-anchor="middle" x="1326" y="-130.5" font-family="Helvetica,sans-Serif" font-size="10.00">string</text>
</a>
</g>
</g>
<!-- Node27&#45;&gt;Node29 -->
<g id="edge44" class="edge">
<title>Node27&#45;&gt;Node29</title>
<path fill="none" stroke="midnightblue" d="M1317.65,-179.08C1318.98,-171.93 1320.88,-161.64 1322.54,-152.69"/>
<polygon fill="midnightblue" stroke="midnightblue" points="1326,-153.22 1324.38,-142.75 1319.12,-151.95 1326,-153.22"/>
</g>
<!-- Node30&#45;&gt;Node3 -->
<g id="edge57" class="edge">
<title>Node30&#45;&gt;Node3</title>
<path fill="none" stroke="midnightblue" d="M1067.22,-347.45C1038.39,-340.47 1000.25,-328.82 970,-311 927.46,-285.95 932.92,-257.54 889,-235 874.15,-227.38 783.17,-210.8 720.73,-200.03"/>
<polygon fill="midnightblue" stroke="midnightblue" points="721.03,-196.53 710.58,-198.29 719.85,-203.43 721.03,-196.53"/>
</g>
<!-- Node30&#45;&gt;Node5 -->
<g id="edge59" class="edge">
<title>Node30&#45;&gt;Node5</title>
<path fill="none" stroke="midnightblue" d="M1119.83,-347.43C1149.77,-320.31 1235.1,-234.9 1190,-179 1173.22,-158.2 1108.97,-146.54 1056.27,-140.33"/>
<polygon fill="midnightblue" stroke="midnightblue" points="1056.57,-136.84 1046.24,-139.19 1055.78,-143.79 1056.57,-136.84"/>
</g>
<!-- Node30&#45;&gt;Node6 -->
<g id="edge51" class="edge">
<title>Node30&#45;&gt;Node6</title>
<path fill="none" stroke="midnightblue" d="M1169.32,-347.45C1265.8,-330.37 1442.31,-284.25 1404,-179 1392.89,-148.47 1384.96,-139.55 1357,-123 1287.1,-81.63 1189.37,-73.5 1137.89,-72.3"/>
<polygon fill="midnightblue" stroke="midnightblue" points="1137.69,-68.79 1127.64,-72.14 1137.58,-75.79 1137.69,-68.79"/>
</g>
<!-- Node30&#45;&gt;Node7 -->
<g id="edge55" class="edge">
<title>Node30&#45;&gt;Node7</title>
<path fill="none" stroke="midnightblue" d="M1098.87,-347.33C1070.2,-325.38 990.77,-267.1 916,-235 857.36,-209.82 832.65,-230.24 777,-199 695.56,-153.28 623.44,-64.94 595.41,-27.95"/>
<polygon fill="midnightblue" stroke="midnightblue" points="598.05,-25.62 589.26,-19.7 592.44,-29.81 598.05,-25.62"/>
</g>
<!-- Node30&#45;&gt;Node10 -->
<g id="edge53" class="edge">
<title>Node30&#45;&gt;Node10</title>
<path fill="none" stroke="midnightblue" d="M1175.2,-349.04C1276.7,-336.38 1461,-305.23 1461,-246 1461,-246 1461,-246 1461,-132 1461,-74.89 1273.91,-33.02 1192.79,-17.54"/>
<polygon fill="midnightblue" stroke="midnightblue" points="1193.01,-14.02 1182.53,-15.62 1191.72,-20.9 1193.01,-14.02"/>
</g>
<!-- Node30&#45;&gt;Node11 -->
<g id="edge54" class="edge">
<title>Node30&#45;&gt;Node11</title>
<path fill="none" stroke="midnightblue" d="M1175.28,-355.13C1237.71,-352.26 1333.4,-342.47 1410,-311 1455.31,-292.38 1499,-294.98 1499,-246 1499,-246 1499,-246 1499,-132 1499,-88.48 1463.3,-47.77 1440.84,-26.47"/>
<polygon fill="midnightblue" stroke="midnightblue" points="1442.99,-23.7 1433.25,-19.53 1438.27,-28.86 1442.99,-23.7"/>
</g>
<!-- Node30&#45;&gt;Node14 -->
<g id="edge58" class="edge">
<title>Node30&#45;&gt;Node14</title>
<path fill="none" stroke="midnightblue" d="M1054.78,-347.43C1006.29,-339.45 934.01,-326.5 872,-311 809.61,-295.41 738.37,-271.86 697.54,-257.8"/>
<polygon fill="midnightblue" stroke="midnightblue" points="698.67,-254.49 688.08,-254.53 696.38,-261.11 698.67,-254.49"/>
</g>
<!-- Node30&#45;&gt;Node15 -->
<g id="edge60" class="edge">
<title>Node30&#45;&gt;Node15</title>
<path fill="none" stroke="midnightblue" d="M1044.99,-349.59C938.39,-339.09 727.9,-318.35 623.58,-308.07"/>
<polygon fill="midnightblue" stroke="midnightblue" points="623.82,-304.57 613.52,-307.08 623.13,-311.54 623.82,-304.57"/>
</g>
<!-- Node30&#45;&gt;Node16 -->
<g id="edge50" class="edge">
<title>Node30&#45;&gt;Node16</title>
<path fill="none" stroke="midnightblue" d="M1044.79,-348.32C990.3,-340.84 917.79,-328.11 894,-311 878.12,-299.58 867.82,-279.29 862,-264.41"/>
<polygon fill="midnightblue" stroke="midnightblue" points="865.2,-262.98 858.54,-254.74 858.61,-265.33 865.2,-262.98"/>
</g>
<!-- Node30&#45;&gt;Node23 -->
<g id="edge49" class="edge">
<title>Node30&#45;&gt;Node23</title>
<path fill="none" stroke="midnightblue" d="M1112.42,-347.08C1119.5,-320.95 1140.3,-244.21 1149.96,-208.58"/>
<polygon fill="midnightblue" stroke="midnightblue" points="1153.44,-209.14 1152.68,-198.57 1146.68,-207.3 1153.44,-209.14"/>
</g>
<!-- Node30&#45;&gt;Node25 -->
<g id="edge52" class="edge">
<title>Node30&#45;&gt;Node25</title>
<path fill="none" stroke="midnightblue" d="M1108.85,-347.46C1106.13,-327.64 1098.95,-276.99 1091,-235 1089.34,-226.24 1087.23,-216.59 1085.38,-208.47"/>
<polygon fill="midnightblue" stroke="midnightblue" points="1088.76,-207.54 1083.08,-198.59 1081.94,-209.13 1088.76,-207.54"/>
</g>
<!-- Node30&#45;&gt;Node27 -->
<g id="edge56" class="edge">
<title>Node30&#45;&gt;Node27</title>
<path fill="none" stroke="midnightblue" d="M1144.56,-347.48C1168.28,-340.44 1199.58,-328.7 1223,-311 1261.25,-282.09 1291.9,-233.58 1306.58,-207.64"/>
<polygon fill="midnightblue" stroke="midnightblue" points="1309.8,-209.04 1311.56,-198.59 1303.67,-205.66 1309.8,-209.04"/>
</g>
</g>
</svg>
