<?xml version="1.0" encoding="UTF-8" standalone="no"?>
<!DOCTYPE svg PUBLIC "-//W3C//DTD SVG 1.1//EN"
 "http://www.w3.org/Graphics/SVG/1.1/DTD/svg11.dtd">
<!-- Generated by graphviz version 2.43.0 (0)
 -->
<!-- Title: Library/include/playrho/TypeInfo.hpp Pages: 1 -->
<!--zoomable 508 -->
<svg id="main" version="1.1" xmlns="http://www.w3.org/2000/svg" xmlns:xlink="http://www.w3.org/1999/xlink" xml:space="preserve" onload="init(evt)">
<style type="text/css"><![CDATA[
.edge:hover path { stroke: red; }
.edge:hover polygon { stroke: red; fill: red; }
]]></style>
<script type="text/javascript"><![CDATA[
var edges = document.getElementsByTagName('g');
if (edges && edges.length) {
  for (var i=0;i<edges.length;i++) {
    if (edges[i].id.substr(0,4)=='edge') {
      edges[i].setAttribute('class','edge');
    }
  }
}
]]></script>
        <defs>
                <circle id="rim" cx="0" cy="0" r="7"/>
                <circle id="rim2" cx="0" cy="0" r="3.5"/>
                <g id="zoomPlus">
                        <use xlink:href="#rim" fill="#404040">
                                <set attributeName="fill" to="#808080" begin="zoomplus.mouseover" end="zoomplus.mouseout"/>
                        </use>
                        <path d="M-4,0h8M0,-4v8" fill="none" stroke="white" stroke-width="1.5" pointer-events="none"/>
                </g>
                <g id="zoomMin">
                        <use xlink:href="#rim" fill="#404040">
                                <set attributeName="fill" to="#808080" begin="zoomminus.mouseover" end="zoomminus.mouseout"/>
                        </use>
                        <path d="M-4,0h8" fill="none" stroke="white" stroke-width="1.5" pointer-events="none"/>
                </g>
                <g id="dirArrow">
                        <path fill="none" stroke="white" stroke-width="1.5" d="M0,-3.0v7 M-2.5,-0.5L0,-3.0L2.5,-0.5"/>
                </g>
               <g id="resetDef">
                       <use xlink:href="#rim2" fill="#404040">
                               <set attributeName="fill" to="#808080" begin="reset.mouseover" end="reset.mouseout"/>
                       </use>
               </g>
        </defs>

<script type="text/javascript">
var viewWidth = 1650;
var viewHeight = 508;
var sectionId = 'dynsection-1';
</script>
<script xlink:href="svgpan.js"/>
<svg id="graph" class="graph">
<g id="viewport">
<title>Library/include/playrho/TypeInfo.hpp</title>
<polygon fill="white" stroke="transparent" points="-4,4 -4,-504 1645.5,-504 1645.5,4 -4,4"/>
<!-- Node1 -->
<g id="node1" class="node">
<title>Node1</title>
<g id="a_node1"><a xlink:title="Definition of TypeID class and closely related code.">
<polygon fill="#bfbfbf" stroke="black" points="864.5,-469.5 864.5,-499.5 992.5,-499.5 992.5,-469.5 864.5,-469.5"/>
<text text-anchor="start" x="872.5" y="-487.5" font-family="Helvetica,sans-Serif" font-size="10.00">Library/include/playrho</text>
<text text-anchor="middle" x="928.5" y="-476.5" font-family="Helvetica,sans-Serif" font-size="10.00">/TypeInfo.hpp</text>
</a>
</g>
</g>
<!-- Node2 -->
<g id="node2" class="node">
<title>Node2</title>
<g id="a_node2"><a xlink:href="ChainShapeConf_8hpp.html" target="_top" xlink:title="Definition of the ChainShapeConf class and closely related code.">
<polygon fill="white" stroke="black" points="0,-134.5 0,-164.5 135,-164.5 135,-134.5 0,-134.5"/>
<text text-anchor="start" x="8" y="-152.5" font-family="Helvetica,sans-Serif" font-size="10.00">Library/include/playrho</text>
<text text-anchor="middle" x="67.5" y="-141.5" font-family="Helvetica,sans-Serif" font-size="10.00">/d2/ChainShapeConf.hpp</text>
</a>
</g>
</g>
<!-- Node1&#45;&gt;Node2 -->
<g id="edge1" class="edge">
<title>Node1&#45;&gt;Node2</title>
<path fill="none" stroke="midnightblue" d="M854.22,-482.45C671.25,-479.32 209.34,-468.02 149.5,-433 112.21,-411.18 96.5,-394.71 96.5,-351.5 96.5,-351.5 96.5,-351.5 96.5,-282.5 96.5,-238.62 81.03,-188.41 72.68,-164.54"/>
<polygon fill="midnightblue" stroke="midnightblue" points="854.24,-485.95 864.29,-482.61 854.35,-478.95 854.24,-485.95"/>
</g>
<!-- Node4 -->
<g id="node4" class="node">
<title>Node4</title>
<g id="a_node4"><a xlink:href="JointConcept_8hpp.html" target="_top" xlink:title="Definition of the internal JointConcept interface class.">
<polygon fill="white" stroke="black" points="219.5,-402.5 219.5,-432.5 367.5,-432.5 367.5,-402.5 219.5,-402.5"/>
<text text-anchor="start" x="227.5" y="-420.5" font-family="Helvetica,sans-Serif" font-size="10.00">Library/include/playrho</text>
<text text-anchor="middle" x="293.5" y="-409.5" font-family="Helvetica,sans-Serif" font-size="10.00">/d2/detail/JointConcept.hpp</text>
</a>
</g>
</g>
<!-- Node1&#45;&gt;Node4 -->
<g id="edge3" class="edge">
<title>Node1&#45;&gt;Node4</title>
<path fill="none" stroke="midnightblue" d="M854.12,-478.32C748.71,-470.6 549.94,-454.62 381.5,-433 377.05,-432.43 372.47,-431.8 367.86,-431.14"/>
<polygon fill="midnightblue" stroke="midnightblue" points="854.11,-481.83 864.34,-479.07 854.62,-474.85 854.11,-481.83"/>
</g>
<!-- Node6 -->
<g id="node6" class="node">
<title>Node6</title>
<g id="a_node6"><a xlink:href="Joint_8hpp.html" target="_top" xlink:title="Definition of the Joint class and closely related code.">
<polygon fill="white" stroke="black" points="255.5,-268.5 255.5,-298.5 383.5,-298.5 383.5,-268.5 255.5,-268.5"/>
<text text-anchor="start" x="263.5" y="-286.5" font-family="Helvetica,sans-Serif" font-size="10.00">Library/include/playrho</text>
<text text-anchor="middle" x="319.5" y="-275.5" font-family="Helvetica,sans-Serif" font-size="10.00">/d2/Joint.hpp</text>
</a>
</g>
</g>
<!-- Node1&#45;&gt;Node6 -->
<g id="edge30" class="edge">
<title>Node1&#45;&gt;Node6</title>
<path fill="none" stroke="midnightblue" d="M853.91,-480.23C721.01,-473.81 453.86,-457.95 419.5,-433 381.01,-405.05 404.51,-373.44 376.5,-335 366.22,-320.89 351.39,-307.91 339.43,-298.64"/>
<polygon fill="midnightblue" stroke="midnightblue" points="853.87,-483.73 864.02,-480.72 854.2,-476.74 853.87,-483.73"/>
</g>
<!-- Node7 -->
<g id="node7" class="node">
<title>Node7</title>
<g id="a_node7"><a xlink:href="WorldConcept_8hpp.html" target="_top" xlink:title="Definition of the internal WorldConcept interface class.">
<polygon fill="white" stroke="black" points="375.5,-201.5 375.5,-231.5 529.5,-231.5 529.5,-201.5 375.5,-201.5"/>
<text text-anchor="start" x="383.5" y="-219.5" font-family="Helvetica,sans-Serif" font-size="10.00">Library/include/playrho</text>
<text text-anchor="middle" x="452.5" y="-208.5" font-family="Helvetica,sans-Serif" font-size="10.00">/d2/detail/WorldConcept.hpp</text>
</a>
</g>
</g>
<!-- Node1&#45;&gt;Node7 -->
<g id="edge21" class="edge">
<title>Node1&#45;&gt;Node7</title>
<path fill="none" stroke="midnightblue" d="M854.19,-480.07C733.73,-473.78 506.6,-458.66 480.5,-433 424.54,-377.98 441.03,-270.11 449.18,-231.58"/>
<polygon fill="midnightblue" stroke="midnightblue" points="854.27,-483.58 864.44,-480.59 854.63,-476.59 854.27,-483.58"/>
</g>
<!-- Node9 -->
<g id="node9" class="node">
<title>Node9</title>
<g id="a_node9"><a xlink:href="World_8hpp.html" target="_top" xlink:title="Definitions of the World class and closely related code.">
<polygon fill="white" stroke="black" points="375.5,-67.5 375.5,-97.5 503.5,-97.5 503.5,-67.5 375.5,-67.5"/>
<text text-anchor="start" x="383.5" y="-85.5" font-family="Helvetica,sans-Serif" font-size="10.00">Library/include/playrho</text>
<text text-anchor="middle" x="439.5" y="-74.5" font-family="Helvetica,sans-Serif" font-size="10.00">/d2/World.hpp</text>
</a>
</g>
</g>
<!-- Node1&#45;&gt;Node9 -->
<g id="edge48" class="edge">
<title>Node1&#45;&gt;Node9</title>
<path fill="none" stroke="midnightblue" d="M854.47,-482.2C682.04,-478.62 264.12,-466.54 210.5,-433 175.05,-410.83 163.5,-393.31 163.5,-351.5 163.5,-351.5 163.5,-351.5 163.5,-215.5 163.5,-122.02 293.95,-94.68 375.49,-86.73"/>
<polygon fill="midnightblue" stroke="midnightblue" points="854.41,-485.7 864.48,-482.4 854.56,-478.7 854.41,-485.7"/>
</g>
<!-- Node11 -->
<g id="node11" class="node">
<title>Node11</title>
<g id="a_node11"><a xlink:href="ShapeConcept_8hpp.html" target="_top" xlink:title="Definition of the internal ShapeConcept interface class.">
<polygon fill="white" stroke="black" points="489.5,-402.5 489.5,-432.5 645.5,-432.5 645.5,-402.5 489.5,-402.5"/>
<text text-anchor="start" x="497.5" y="-420.5" font-family="Helvetica,sans-Serif" font-size="10.00">Library/include/playrho</text>
<text text-anchor="middle" x="567.5" y="-409.5" font-family="Helvetica,sans-Serif" font-size="10.00">/d2/detail/ShapeConcept.hpp</text>
</a>
</g>
</g>
<!-- Node1&#45;&gt;Node11 -->
<g id="edge15" class="edge">
<title>Node1&#45;&gt;Node11</title>
<path fill="none" stroke="midnightblue" d="M854.45,-470.17C793.53,-459.2 707.45,-443.7 645.48,-432.54"/>
<polygon fill="midnightblue" stroke="midnightblue" points="853.91,-473.63 864.38,-471.95 855.15,-466.74 853.91,-473.63"/>
</g>
<!-- Node13 -->
<g id="node13" class="node">
<title>Node13</title>
<g id="a_node13"><a xlink:href="Shape_8hpp.html" target="_top" xlink:title="Definition of the Shape class and closely related code.">
<polygon fill="white" stroke="black" points="508.5,-268.5 508.5,-298.5 636.5,-298.5 636.5,-268.5 508.5,-268.5"/>
<text text-anchor="start" x="516.5" y="-286.5" font-family="Helvetica,sans-Serif" font-size="10.00">Library/include/playrho</text>
<text text-anchor="middle" x="572.5" y="-275.5" font-family="Helvetica,sans-Serif" font-size="10.00">/d2/Shape.hpp</text>
</a>
</g>
</g>
<!-- Node1&#45;&gt;Node13 -->
<g id="edge43" class="edge">
<title>Node1&#45;&gt;Node13</title>
<path fill="none" stroke="midnightblue" d="M854.54,-474.7C796.36,-466.46 721.29,-452.49 697.5,-433 660.7,-402.86 685.72,-370.88 654.5,-335 641,-319.49 621.54,-307.22 604.97,-298.67"/>
<polygon fill="midnightblue" stroke="midnightblue" points="854.07,-478.17 864.45,-476.07 855.03,-471.24 854.07,-478.17"/>
</g>
<!-- Node14 -->
<g id="node14" class="node">
<title>Node14</title>
<g id="a_node14"><a xlink:href="DiskShapeConf_8hpp.html" target="_top" xlink:title="Definition of the DiskShapeConf class and closely related code.">
<polygon fill="white" stroke="black" points="598,-67.5 598,-97.5 727,-97.5 727,-67.5 598,-67.5"/>
<text text-anchor="start" x="606" y="-85.5" font-family="Helvetica,sans-Serif" font-size="10.00">Library/include/playrho</text>
<text text-anchor="middle" x="662.5" y="-74.5" font-family="Helvetica,sans-Serif" font-size="10.00">/d2/DiskShapeConf.hpp</text>
</a>
</g>
</g>
<!-- Node1&#45;&gt;Node14 -->
<g id="edge22" class="edge">
<title>Node1&#45;&gt;Node14</title>
<path fill="none" stroke="midnightblue" d="M854.35,-470.13C791.5,-454.01 711.5,-420.04 711.5,-351.5 711.5,-351.5 711.5,-351.5 711.5,-215.5 711.5,-170.03 685.63,-120.95 671.49,-97.51"/>
<polygon fill="midnightblue" stroke="midnightblue" points="853.73,-473.58 864.27,-472.56 855.4,-466.78 853.73,-473.58"/>
</g>
<!-- Node15 -->
<g id="node15" class="node">
<title>Node15</title>
<g id="a_node15"><a xlink:href="DistanceJointConf_8hpp.html" target="_top" xlink:title="Definition of the DistanceJointConf class and closely related code.">
<polygon fill="white" stroke="black" points="739.5,-335.5 739.5,-365.5 881.5,-365.5 881.5,-335.5 739.5,-335.5"/>
<text text-anchor="start" x="747.5" y="-353.5" font-family="Helvetica,sans-Serif" font-size="10.00">Library/include/playrho</text>
<text text-anchor="middle" x="810.5" y="-342.5" font-family="Helvetica,sans-Serif" font-size="10.00">/d2/DistanceJointConf.hpp</text>
</a>
</g>
</g>
<!-- Node1&#45;&gt;Node15 -->
<g id="edge24" class="edge">
<title>Node1&#45;&gt;Node15</title>
<path fill="none" stroke="midnightblue" d="M909.19,-461.9C884.83,-434.65 843.65,-388.58 823.04,-365.52"/>
<polygon fill="midnightblue" stroke="midnightblue" points="906.6,-464.25 915.87,-469.37 911.82,-459.59 906.6,-464.25"/>
</g>
<!-- Node16 -->
<g id="node16" class="node">
<title>Node16</title>
<g id="a_node16"><a xlink:href="FrictionJointConf_8hpp.html" target="_top" xlink:title="Definition of the FrictionJointConf class and closely related code.">
<polygon fill="white" stroke="black" points="784,-268.5 784,-298.5 919,-298.5 919,-268.5 784,-268.5"/>
<text text-anchor="start" x="792" y="-286.5" font-family="Helvetica,sans-Serif" font-size="10.00">Library/include/playrho</text>
<text text-anchor="middle" x="851.5" y="-275.5" font-family="Helvetica,sans-Serif" font-size="10.00">/d2/FrictionJointConf.hpp</text>
</a>
</g>
</g>
<!-- Node1&#45;&gt;Node16 -->
<g id="edge26" class="edge">
<title>Node1&#45;&gt;Node16</title>
<path fill="none" stroke="midnightblue" d="M925.39,-459.26C920.82,-428.96 910.56,-376.11 890.5,-335 883.99,-321.66 873.61,-308.45 865.19,-298.89"/>
<polygon fill="midnightblue" stroke="midnightblue" points="921.95,-459.93 926.82,-469.33 928.88,-458.94 921.95,-459.93"/>
</g>
<!-- Node17 -->
<g id="node17" class="node">
<title>Node17</title>
<g id="a_node17"><a xlink:href="GearJointConf_8hpp.html" target="_top" xlink:title="Definition of the GearJointConf class and closely related code.">
<polygon fill="white" stroke="black" points="828.5,-201.5 828.5,-231.5 956.5,-231.5 956.5,-201.5 828.5,-201.5"/>
<text text-anchor="start" x="836.5" y="-219.5" font-family="Helvetica,sans-Serif" font-size="10.00">Library/include/playrho</text>
<text text-anchor="middle" x="892.5" y="-208.5" font-family="Helvetica,sans-Serif" font-size="10.00">/d2/GearJointConf.hpp</text>
</a>
</g>
</g>
<!-- Node1&#45;&gt;Node17 -->
<g id="edge28" class="edge">
<title>Node1&#45;&gt;Node17</title>
<path fill="none" stroke="midnightblue" d="M933.1,-459.37C939.84,-418.69 949.36,-334.41 927.5,-268 923.03,-254.42 913.65,-241.22 905.73,-231.73"/>
<polygon fill="midnightblue" stroke="midnightblue" points="929.62,-458.96 931.35,-469.41 936.52,-460.16 929.62,-458.96"/>
</g>
<!-- Node18 -->
<g id="node18" class="node">
<title>Node18</title>
<g id="a_node18"><a xlink:href="MotorJointConf_8hpp.html" target="_top" xlink:title="Definition of the MotorJointConf class and closely related code.">
<polygon fill="white" stroke="black" points="866.5,-134.5 866.5,-164.5 994.5,-164.5 994.5,-134.5 866.5,-134.5"/>
<text text-anchor="start" x="874.5" y="-152.5" font-family="Helvetica,sans-Serif" font-size="10.00">Library/include/playrho</text>
<text text-anchor="middle" x="930.5" y="-141.5" font-family="Helvetica,sans-Serif" font-size="10.00">/d2/MotorJointConf.hpp</text>
</a>
</g>
</g>
<!-- Node1&#45;&gt;Node18 -->
<g id="edge31" class="edge">
<title>Node1&#45;&gt;Node18</title>
<path fill="none" stroke="midnightblue" d="M945.06,-460.83C961.89,-435.5 985.5,-392.63 985.5,-351.5 985.5,-351.5 985.5,-351.5 985.5,-282.5 985.5,-245.2 980.82,-235 965.5,-201 959.54,-187.77 950.03,-174.35 942.43,-164.67"/>
<polygon fill="midnightblue" stroke="midnightblue" points="942,-459.1 939.22,-469.33 947.77,-463.06 942,-459.1"/>
</g>
<!-- Node19 -->
<g id="node19" class="node">
<title>Node19</title>
<g id="a_node19"><a xlink:href="MultiShapeConf_8hpp.html" target="_top" xlink:title="Definition of the MultiShapeConf class and closely related code.">
<polygon fill="white" stroke="black" points="903.5,-67.5 903.5,-97.5 1035.5,-97.5 1035.5,-67.5 903.5,-67.5"/>
<text text-anchor="start" x="911.5" y="-85.5" font-family="Helvetica,sans-Serif" font-size="10.00">Library/include/playrho</text>
<text text-anchor="middle" x="969.5" y="-74.5" font-family="Helvetica,sans-Serif" font-size="10.00">/d2/MultiShapeConf.hpp</text>
</a>
</g>
</g>
<!-- Node1&#45;&gt;Node19 -->
<g id="edge33" class="edge">
<title>Node1&#45;&gt;Node19</title>
<path fill="none" stroke="midnightblue" d="M956.11,-462.87C984.16,-439.32 1023.5,-398.01 1023.5,-351.5 1023.5,-351.5 1023.5,-351.5 1023.5,-215.5 1023.5,-178.2 1018.59,-168.11 1003.5,-134 997.68,-120.86 988.45,-107.42 981.07,-97.72"/>
<polygon fill="midnightblue" stroke="midnightblue" points="953.74,-460.29 948.18,-469.31 958.15,-465.72 953.74,-460.29"/>
</g>
<!-- Node20 -->
<g id="node20" class="node">
<title>Node20</title>
<g id="a_node20"><a xlink:href="PrismaticJointConf_8hpp.html" target="_top" xlink:title="Definition of the PrismaticJointConf class and closely related code.">
<polygon fill="white" stroke="black" points="1052,-335.5 1052,-365.5 1197,-365.5 1197,-335.5 1052,-335.5"/>
<text text-anchor="start" x="1060" y="-353.5" font-family="Helvetica,sans-Serif" font-size="10.00">Library/include/playrho</text>
<text text-anchor="middle" x="1124.5" y="-342.5" font-family="Helvetica,sans-Serif" font-size="10.00">/d2/PrismaticJointConf.hpp</text>
</a>
</g>
</g>
<!-- Node1&#45;&gt;Node20 -->
<g id="edge35" class="edge">
<title>Node1&#45;&gt;Node20</title>
<path fill="none" stroke="midnightblue" d="M975.86,-465.48C995.68,-456.95 1018.48,-445.83 1037.5,-433 1067.01,-413.1 1096.14,-383.15 1112.08,-365.64"/>
<polygon fill="midnightblue" stroke="midnightblue" points="974.27,-462.35 966.4,-469.44 976.98,-468.8 974.27,-462.35"/>
</g>
<!-- Node21 -->
<g id="node21" class="node">
<title>Node21</title>
<g id="a_node21"><a xlink:href="PulleyJointConf_8hpp.html" target="_top" xlink:title="Definition of the PulleyJointConf class and closely related code.">
<polygon fill="white" stroke="black" points="1099,-268.5 1099,-298.5 1228,-298.5 1228,-268.5 1099,-268.5"/>
<text text-anchor="start" x="1107" y="-286.5" font-family="Helvetica,sans-Serif" font-size="10.00">Library/include/playrho</text>
<text text-anchor="middle" x="1163.5" y="-275.5" font-family="Helvetica,sans-Serif" font-size="10.00">/d2/PulleyJointConf.hpp</text>
</a>
</g>
</g>
<!-- Node1&#45;&gt;Node21 -->
<g id="edge37" class="edge">
<title>Node1&#45;&gt;Node21</title>
<path fill="none" stroke="midnightblue" d="M1002.68,-475.45C1069.18,-463.79 1162.66,-435.32 1205.5,-366 1219.56,-343.25 1197.08,-315.26 1179.96,-298.71"/>
<polygon fill="midnightblue" stroke="midnightblue" points="1001.95,-472.02 992.66,-477.12 1003.1,-478.93 1001.95,-472.02"/>
</g>
<!-- Node22 -->
<g id="node22" class="node">
<title>Node22</title>
<g id="a_node22"><a xlink:href="RevoluteJointConf_8hpp.html" target="_top" xlink:title="Definition of the RevoluteJointConf class and closely related code.">
<polygon fill="white" stroke="black" points="1130,-201.5 1130,-231.5 1273,-231.5 1273,-201.5 1130,-201.5"/>
<text text-anchor="start" x="1138" y="-219.5" font-family="Helvetica,sans-Serif" font-size="10.00">Library/include/playrho</text>
<text text-anchor="middle" x="1201.5" y="-208.5" font-family="Helvetica,sans-Serif" font-size="10.00">/d2/RevoluteJointConf.hpp</text>
</a>
</g>
</g>
<!-- Node1&#45;&gt;Node22 -->
<g id="edge39" class="edge">
<title>Node1&#45;&gt;Node22</title>
<path fill="none" stroke="midnightblue" d="M1002.8,-480.75C1052.81,-475.94 1118.49,-463.65 1168.5,-433 1225.44,-398.1 1229.63,-365.43 1236.5,-299 1237.92,-285.3 1240.61,-281.15 1236.5,-268 1232.23,-254.36 1222.84,-241.16 1214.86,-231.68"/>
<polygon fill="midnightblue" stroke="midnightblue" points="1002.35,-477.28 992.69,-481.64 1002.96,-484.25 1002.35,-477.28"/>
</g>
<!-- Node23 -->
<g id="node23" class="node">
<title>Node23</title>
<g id="a_node23"><a xlink:href="RopeJointConf_8hpp.html" target="_top" xlink:title="Definition of the RopeJointConf class and closely related code.">
<polygon fill="white" stroke="black" points="1183.5,-134.5 1183.5,-164.5 1311.5,-164.5 1311.5,-134.5 1183.5,-134.5"/>
<text text-anchor="start" x="1191.5" y="-152.5" font-family="Helvetica,sans-Serif" font-size="10.00">Library/include/playrho</text>
<text text-anchor="middle" x="1247.5" y="-141.5" font-family="Helvetica,sans-Serif" font-size="10.00">/d2/RopeJointConf.hpp</text>
</a>
</g>
</g>
<!-- Node1&#45;&gt;Node23 -->
<g id="edge41" class="edge">
<title>Node1&#45;&gt;Node23</title>
<path fill="none" stroke="midnightblue" d="M1003.05,-479.73C1059.71,-474.53 1138.39,-462.2 1201.5,-433 1253.54,-408.92 1301.5,-408.84 1301.5,-351.5 1301.5,-351.5 1301.5,-351.5 1301.5,-282.5 1301.5,-245.2 1296.59,-235.11 1281.5,-201 1275.68,-187.86 1266.45,-174.42 1259.07,-164.72"/>
<polygon fill="midnightblue" stroke="midnightblue" points="1002.4,-476.27 992.74,-480.62 1003,-483.24 1002.4,-476.27"/>
</g>
<!-- Node24 -->
<g id="node24" class="node">
<title>Node24</title>
<g id="a_node24"><a xlink:href="TargetJointConf_8hpp.html" target="_top" xlink:title="Definition of the TargetJointConf class and closely related code.">
<polygon fill="white" stroke="black" points="1219,-67.5 1219,-97.5 1348,-97.5 1348,-67.5 1219,-67.5"/>
<text text-anchor="start" x="1227" y="-85.5" font-family="Helvetica,sans-Serif" font-size="10.00">Library/include/playrho</text>
<text text-anchor="middle" x="1283.5" y="-74.5" font-family="Helvetica,sans-Serif" font-size="10.00">/d2/TargetJointConf.hpp</text>
</a>
</g>
</g>
<!-- Node1&#45;&gt;Node24 -->
<g id="edge44" class="edge">
<title>Node1&#45;&gt;Node24</title>
<path fill="none" stroke="midnightblue" d="M1002.76,-477.04C1084.4,-469.04 1209.69,-453.88 1252.5,-433 1300.12,-409.78 1339.5,-404.48 1339.5,-351.5 1339.5,-351.5 1339.5,-351.5 1339.5,-215.5 1339.5,-178.31 1336.03,-167.8 1320.5,-134 1314.33,-120.57 1304.27,-107.16 1296.2,-97.53"/>
<polygon fill="midnightblue" stroke="midnightblue" points="1002.15,-473.58 992.53,-478.02 1002.82,-480.55 1002.15,-473.58"/>
</g>
<!-- Node25 -->
<g id="node25" class="node">
<title>Node25</title>
<g id="a_node25"><a xlink:href="WeldJointConf_8hpp.html" target="_top" xlink:title="Definition of the WeldJointConf class and closely related code.">
<polygon fill="white" stroke="black" points="1367.5,-402.5 1367.5,-432.5 1495.5,-432.5 1495.5,-402.5 1367.5,-402.5"/>
<text text-anchor="start" x="1375.5" y="-420.5" font-family="Helvetica,sans-Serif" font-size="10.00">Library/include/playrho</text>
<text text-anchor="middle" x="1431.5" y="-409.5" font-family="Helvetica,sans-Serif" font-size="10.00">/d2/WeldJointConf.hpp</text>
</a>
</g>
</g>
<!-- Node1&#45;&gt;Node25 -->
<g id="edge46" class="edge">
<title>Node1&#45;&gt;Node25</title>
<path fill="none" stroke="midnightblue" d="M1002.83,-476.16C1087.82,-467.42 1231.03,-451.64 1353.5,-433 1357.99,-432.32 1362.62,-431.57 1367.28,-430.78"/>
<polygon fill="midnightblue" stroke="midnightblue" points="1002.35,-472.69 992.76,-477.19 1003.06,-479.65 1002.35,-472.69"/>
</g>
<!-- Node26 -->
<g id="node26" class="node">
<title>Node26</title>
<g id="a_node26"><a xlink:href="WorldShape_8hpp.html" target="_top" xlink:title="Declarations of free functions of World for shapes identified by ShapeID.">
<polygon fill="white" stroke="black" points="1513.5,-402.5 1513.5,-432.5 1641.5,-432.5 1641.5,-402.5 1513.5,-402.5"/>
<text text-anchor="start" x="1521.5" y="-420.5" font-family="Helvetica,sans-Serif" font-size="10.00">Library/include/playrho</text>
<text text-anchor="middle" x="1577.5" y="-409.5" font-family="Helvetica,sans-Serif" font-size="10.00">/d2/WorldShape.hpp</text>
</a>
</g>
</g>
<!-- Node1&#45;&gt;Node26 -->
<g id="edge49" class="edge">
<title>Node1&#45;&gt;Node26</title>
<path fill="none" stroke="midnightblue" d="M1002.68,-479.58C1112.66,-473.18 1325.26,-458.58 1504.5,-433 1507.44,-432.58 1510.44,-432.12 1513.47,-431.63"/>
<polygon fill="midnightblue" stroke="midnightblue" points="1002.47,-476.09 992.69,-480.15 1002.87,-483.07 1002.47,-476.09"/>
</g>
<!-- Node3 -->
<g id="node3" class="node">
<title>Node3</title>
<g id="a_node3"><a xlink:href="BasicAPI_8hpp.html" target="_top" xlink:title="Basic API include file to pull in at once most headers used.">
<polygon fill="white" stroke="black" points="858.5,-0.5 858.5,-30.5 986.5,-30.5 986.5,-0.5 858.5,-0.5"/>
<text text-anchor="start" x="866.5" y="-18.5" font-family="Helvetica,sans-Serif" font-size="10.00">Library/include/playrho</text>
<text text-anchor="middle" x="922.5" y="-7.5" font-family="Helvetica,sans-Serif" font-size="10.00">/d2/BasicAPI.hpp</text>
</a>
</g>
</g>
<!-- Node2&#45;&gt;Node3 -->
<g id="edge2" class="edge">
<title>Node2&#45;&gt;Node3</title>
<path fill="none" stroke="midnightblue" d="M106.61,-130.26C149.84,-110.99 222.05,-81.44 287.5,-67 492.42,-21.81 742.43,-15.86 858.1,-15.82"/>
<polygon fill="midnightblue" stroke="midnightblue" points="104.99,-127.15 97.31,-134.44 107.86,-133.53 104.99,-127.15"/>
</g>
<!-- Node5 -->
<g id="node5" class="node">
<title>Node5</title>
<g id="a_node5"><a xlink:href="JointModel_8hpp.html" target="_top" xlink:title="Definition of the internal JointModel class.">
<polygon fill="white" stroke="black" points="229.5,-335.5 229.5,-365.5 367.5,-365.5 367.5,-335.5 229.5,-335.5"/>
<text text-anchor="start" x="237.5" y="-353.5" font-family="Helvetica,sans-Serif" font-size="10.00">Library/include/playrho</text>
<text text-anchor="middle" x="298.5" y="-342.5" font-family="Helvetica,sans-Serif" font-size="10.00">/d2/detail/JointModel.hpp</text>
</a>
</g>
</g>
<!-- Node4&#45;&gt;Node5 -->
<g id="edge4" class="edge">
<title>Node4&#45;&gt;Node5</title>
<path fill="none" stroke="midnightblue" d="M295.35,-392.4C296.05,-383.37 296.81,-373.41 297.42,-365.58"/>
<polygon fill="midnightblue" stroke="midnightblue" points="291.86,-392.16 294.58,-402.4 298.84,-392.69 291.86,-392.16"/>
</g>
<!-- Node4&#45;&gt;Node6 -->
<g id="edge14" class="edge">
<title>Node4&#45;&gt;Node6</title>
<path fill="none" stroke="midnightblue" d="M251.24,-397.08C239.09,-389.25 227.29,-378.96 220.5,-366 214.1,-353.8 213.3,-346.75 220.5,-335 231.03,-317.81 249.46,-306.23 267.59,-298.56"/>
<polygon fill="midnightblue" stroke="midnightblue" points="249.71,-400.23 260.09,-402.34 253.29,-394.22 249.71,-400.23"/>
</g>
<!-- Node5&#45;&gt;Node6 -->
<g id="edge5" class="edge">
<title>Node5&#45;&gt;Node6</title>
<path fill="none" stroke="midnightblue" d="M306.19,-325.7C309.13,-316.59 312.39,-306.49 314.95,-298.58"/>
<polygon fill="midnightblue" stroke="midnightblue" points="302.8,-324.8 303.06,-335.4 309.46,-326.96 302.8,-324.8"/>
</g>
<!-- Node6&#45;&gt;Node7 -->
<g id="edge6" class="edge">
<title>Node6&#45;&gt;Node7</title>
<path fill="none" stroke="midnightblue" d="M357.37,-263.99C378.45,-253.69 404.28,-241.07 423.7,-231.58"/>
<polygon fill="midnightblue" stroke="midnightblue" points="355.81,-260.86 348.36,-268.4 358.88,-267.15 355.81,-260.86"/>
</g>
<!-- Node6&#45;&gt;Node9 -->
<g id="edge11" class="edge">
<title>Node6&#45;&gt;Node9</title>
<path fill="none" stroke="midnightblue" d="M329.86,-259.21C343.62,-229.23 369.46,-176 397.5,-134 406.11,-121.1 417.43,-107.66 426.14,-97.88"/>
<polygon fill="midnightblue" stroke="midnightblue" points="326.62,-257.89 325.68,-268.44 333,-260.78 326.62,-257.89"/>
</g>
<!-- Node10 -->
<g id="node10" class="node">
<title>Node10</title>
<g id="a_node10"><a xlink:href="WorldJoint_8hpp.html" target="_top" xlink:title="Declarations of free functions of World for joints identified by JointID.">
<polygon fill="white" stroke="black" points="191.5,-201.5 191.5,-231.5 319.5,-231.5 319.5,-201.5 191.5,-201.5"/>
<text text-anchor="start" x="199.5" y="-219.5" font-family="Helvetica,sans-Serif" font-size="10.00">Library/include/playrho</text>
<text text-anchor="middle" x="255.5" y="-208.5" font-family="Helvetica,sans-Serif" font-size="10.00">/d2/WorldJoint.hpp</text>
</a>
</g>
</g>
<!-- Node6&#45;&gt;Node10 -->
<g id="edge12" class="edge">
<title>Node6&#45;&gt;Node10</title>
<path fill="none" stroke="midnightblue" d="M298.35,-261.02C288.82,-251.34 277.83,-240.17 269.36,-231.58"/>
<polygon fill="midnightblue" stroke="midnightblue" points="296.1,-263.73 305.61,-268.4 301.09,-258.81 296.1,-263.73"/>
</g>
<!-- Node8 -->
<g id="node8" class="node">
<title>Node8</title>
<g id="a_node8"><a xlink:href="WorldModel_8hpp.html" target="_top" xlink:title="Definitions of the WorldModel class and closely related code.">
<polygon fill="white" stroke="black" points="413.5,-134.5 413.5,-164.5 557.5,-164.5 557.5,-134.5 413.5,-134.5"/>
<text text-anchor="start" x="421.5" y="-152.5" font-family="Helvetica,sans-Serif" font-size="10.00">Library/include/playrho</text>
<text text-anchor="middle" x="485.5" y="-141.5" font-family="Helvetica,sans-Serif" font-size="10.00">/d2/detail/WorldModel.hpp</text>
</a>
</g>
</g>
<!-- Node7&#45;&gt;Node8 -->
<g id="edge7" class="edge">
<title>Node7&#45;&gt;Node8</title>
<path fill="none" stroke="midnightblue" d="M464.29,-192.28C468.99,-183.02 474.25,-172.66 478.35,-164.58"/>
<polygon fill="midnightblue" stroke="midnightblue" points="461.07,-190.89 459.66,-201.4 467.31,-194.06 461.07,-190.89"/>
</g>
<!-- Node7&#45;&gt;Node9 -->
<g id="edge10" class="edge">
<title>Node7&#45;&gt;Node9</title>
<path fill="none" stroke="midnightblue" d="M425.63,-194.5C417.21,-186.3 408.97,-176.18 404.5,-165 399.39,-152.21 400.39,-147.15 404.5,-134 408.77,-120.36 418.16,-107.16 426.14,-97.68"/>
<polygon fill="midnightblue" stroke="midnightblue" points="423.54,-197.33 433.3,-201.45 428.25,-192.14 423.54,-197.33"/>
</g>
<!-- Node8&#45;&gt;Node9 -->
<g id="edge8" class="edge">
<title>Node8&#45;&gt;Node9</title>
<path fill="none" stroke="midnightblue" d="M469.69,-126.16C462.98,-116.68 455.37,-105.92 449.46,-97.58"/>
<polygon fill="midnightblue" stroke="midnightblue" points="466.88,-128.26 475.52,-134.4 472.6,-124.21 466.88,-128.26"/>
</g>
<!-- Node9&#45;&gt;Node3 -->
<g id="edge9" class="edge">
<title>Node9&#45;&gt;Node3</title>
<path fill="none" stroke="midnightblue" d="M513.68,-71.52C608,-58.82 769.29,-37.12 858.48,-25.12"/>
<polygon fill="midnightblue" stroke="midnightblue" points="513.08,-68.07 503.64,-72.87 514.02,-75 513.08,-68.07"/>
</g>
<!-- Node10&#45;&gt;Node3 -->
<g id="edge13" class="edge">
<title>Node10&#45;&gt;Node3</title>
<path fill="none" stroke="midnightblue" d="M265.37,-192.12C281.17,-157.97 315.61,-95.45 366.5,-67 449.31,-20.71 730.56,-15.68 858.36,-15.88"/>
<polygon fill="midnightblue" stroke="midnightblue" points="262.14,-190.78 261.24,-201.34 268.52,-193.65 262.14,-190.78"/>
</g>
<!-- Node12 -->
<g id="node12" class="node">
<title>Node12</title>
<g id="a_node12"><a xlink:href="ShapeModel_8hpp.html" target="_top" xlink:title="Definition of the ShapeModel class and related code.">
<polygon fill="white" stroke="black" points="499.5,-335.5 499.5,-365.5 645.5,-365.5 645.5,-335.5 499.5,-335.5"/>
<text text-anchor="start" x="507.5" y="-353.5" font-family="Helvetica,sans-Serif" font-size="10.00">Library/include/playrho</text>
<text text-anchor="middle" x="572.5" y="-342.5" font-family="Helvetica,sans-Serif" font-size="10.00">/d2/detail/ShapeModel.hpp</text>
</a>
</g>
</g>
<!-- Node11&#45;&gt;Node12 -->
<g id="edge16" class="edge">
<title>Node11&#45;&gt;Node12</title>
<path fill="none" stroke="midnightblue" d="M569.35,-392.4C570.05,-383.37 570.81,-373.41 571.42,-365.58"/>
<polygon fill="midnightblue" stroke="midnightblue" points="565.86,-392.16 568.58,-402.4 572.84,-392.69 565.86,-392.16"/>
</g>
<!-- Node11&#45;&gt;Node13 -->
<g id="edge20" class="edge">
<title>Node11&#45;&gt;Node13</title>
<path fill="none" stroke="midnightblue" d="M522.7,-397.37C509.98,-389.6 497.66,-379.26 490.5,-366 483.95,-353.88 483.78,-347.03 490.5,-335 499.79,-318.36 517.07,-306.53 533.38,-298.52"/>
<polygon fill="midnightblue" stroke="midnightblue" points="521.08,-400.48 531.51,-402.35 524.52,-394.38 521.08,-400.48"/>
</g>
<!-- Node12&#45;&gt;Node13 -->
<g id="edge17" class="edge">
<title>Node12&#45;&gt;Node13</title>
<path fill="none" stroke="midnightblue" d="M572.5,-325.11C572.5,-316.15 572.5,-306.32 572.5,-298.58"/>
<polygon fill="midnightblue" stroke="midnightblue" points="569,-325.4 572.5,-335.4 576,-325.4 569,-325.4"/>
</g>
<!-- Node13&#45;&gt;Node7 -->
<g id="edge18" class="edge">
<title>Node13&#45;&gt;Node7</title>
<path fill="none" stroke="midnightblue" d="M537.56,-263.57C518.68,-253.35 495.77,-240.94 478.49,-231.58"/>
<polygon fill="midnightblue" stroke="midnightblue" points="536,-266.71 546.46,-268.4 539.34,-260.56 536,-266.71"/>
</g>
<!-- Node13&#45;&gt;Node9 -->
<g id="edge19" class="edge">
<title>Node13&#45;&gt;Node9</title>
<path fill="none" stroke="midnightblue" d="M578.89,-258.48C585.81,-226.83 592.63,-170.89 566.5,-134 551.82,-113.28 527.23,-101.06 503.57,-93.85"/>
<polygon fill="midnightblue" stroke="midnightblue" points="575.49,-257.68 576.59,-268.22 582.3,-259.29 575.49,-257.68"/>
</g>
<!-- Node14&#45;&gt;Node3 -->
<g id="edge23" class="edge">
<title>Node14&#45;&gt;Node3</title>
<path fill="none" stroke="midnightblue" d="M728.56,-64.98C771.03,-54.37 825.62,-40.72 866.06,-30.61"/>
<polygon fill="midnightblue" stroke="midnightblue" points="727.45,-61.66 718.6,-67.48 729.15,-68.45 727.45,-61.66"/>
</g>
<!-- Node15&#45;&gt;Node3 -->
<g id="edge25" class="edge">
<title>Node15&#45;&gt;Node3</title>
<path fill="none" stroke="midnightblue" d="M792,-327.53C785.65,-319.06 779.02,-309.01 774.5,-299 759.19,-265.1 755.5,-254.69 755.5,-217.5 755.5,-217.5 755.5,-217.5 755.5,-148.5 755.5,-86.41 827.42,-48.97 876.87,-30.56"/>
<polygon fill="midnightblue" stroke="midnightblue" points="789.24,-329.69 798.16,-335.41 794.76,-325.38 789.24,-329.69"/>
</g>
<!-- Node16&#45;&gt;Node3 -->
<g id="edge27" class="edge">
<title>Node16&#45;&gt;Node3</title>
<path fill="none" stroke="midnightblue" d="M833.29,-259.8C827.73,-251.54 822.35,-241.81 819.5,-232 815.66,-218.77 817.19,-214.58 819.5,-201 830.09,-138.78 831.54,-119.54 866.5,-67 876,-52.72 890.44,-39.83 902.28,-30.65"/>
<polygon fill="midnightblue" stroke="midnightblue" points="830.59,-262.05 839.26,-268.12 836.27,-257.96 830.59,-262.05"/>
</g>
<!-- Node17&#45;&gt;Node3 -->
<g id="edge29" class="edge">
<title>Node17&#45;&gt;Node3</title>
<path fill="none" stroke="midnightblue" d="M872.79,-193.3C866.65,-185.01 860.67,-175.13 857.5,-165 853.39,-151.85 854.54,-147.46 857.5,-134 866.52,-93.02 894.99,-51.58 911.1,-30.58"/>
<polygon fill="midnightblue" stroke="midnightblue" points="870.19,-195.65 879.14,-201.32 875.68,-191.31 870.19,-195.65"/>
</g>
<!-- Node18&#45;&gt;Node3 -->
<g id="edge32" class="edge">
<title>Node18&#45;&gt;Node3</title>
<path fill="none" stroke="midnightblue" d="M910.24,-126.38C903.92,-118.1 897.76,-108.2 894.5,-98 890.3,-84.88 891.05,-80.34 894.5,-67 897.91,-53.8 905.6,-40.37 912.06,-30.69"/>
<polygon fill="midnightblue" stroke="midnightblue" points="907.73,-128.85 916.76,-134.39 913.16,-124.42 907.73,-128.85"/>
</g>
<!-- Node19&#45;&gt;Node3 -->
<g id="edge34" class="edge">
<title>Node19&#45;&gt;Node3</title>
<path fill="none" stroke="midnightblue" d="M953.34,-59.16C946.49,-49.68 938.71,-38.92 932.68,-30.58"/>
<polygon fill="midnightblue" stroke="midnightblue" points="950.61,-61.34 959.3,-67.4 956.28,-57.24 950.61,-61.34"/>
</g>
<!-- Node20&#45;&gt;Node3 -->
<g id="edge36" class="edge">
<title>Node20&#45;&gt;Node3</title>
<path fill="none" stroke="midnightblue" d="M1107.02,-327.33C1088.99,-302.2 1063.5,-259.28 1063.5,-217.5 1063.5,-217.5 1063.5,-217.5 1063.5,-148.5 1063.5,-111.31 1068.57,-95.36 1044.5,-67 1029.67,-49.52 1007.81,-37.99 986.67,-30.43"/>
<polygon fill="midnightblue" stroke="midnightblue" points="1104.26,-329.5 1113.03,-335.45 1109.89,-325.33 1104.26,-329.5"/>
</g>
<!-- Node21&#45;&gt;Node3 -->
<g id="edge38" class="edge">
<title>Node21&#45;&gt;Node3</title>
<path fill="none" stroke="midnightblue" d="M1141.33,-260.86C1133.78,-252.46 1125.9,-242.37 1120.5,-232 1085.5,-164.79 1129.45,-122.17 1077.5,-67 1054.02,-42.07 1018.11,-29.42 986.76,-23.02"/>
<polygon fill="midnightblue" stroke="midnightblue" points="1138.97,-263.46 1148.37,-268.35 1144.07,-258.66 1138.97,-263.46"/>
</g>
<!-- Node22&#45;&gt;Node3 -->
<g id="edge40" class="edge">
<title>Node22&#45;&gt;Node3</title>
<path fill="none" stroke="midnightblue" d="M1188.67,-192.29C1166.11,-151.61 1121.15,-71.3 1115.5,-67 1078.44,-38.77 1027.05,-26.27 986.61,-20.75"/>
<polygon fill="midnightblue" stroke="midnightblue" points="1185.73,-194.2 1193.64,-201.25 1191.85,-190.81 1185.73,-194.2"/>
</g>
<!-- Node23&#45;&gt;Node3 -->
<g id="edge42" class="edge">
<title>Node23&#45;&gt;Node3</title>
<path fill="none" stroke="midnightblue" d="M1228.99,-126.75C1211.84,-108.03 1184.64,-81.77 1155.5,-67 1102.34,-40.05 1035.26,-27.44 986.74,-21.56"/>
<polygon fill="midnightblue" stroke="midnightblue" points="1226.43,-129.14 1235.7,-134.26 1231.64,-124.47 1226.43,-129.14"/>
</g>
<!-- Node24&#45;&gt;Node3 -->
<g id="edge45" class="edge">
<title>Node24&#45;&gt;Node3</title>
<path fill="none" stroke="midnightblue" d="M1209.1,-68.1C1143.57,-56.3 1049.1,-39.3 986.78,-28.07"/>
<polygon fill="midnightblue" stroke="midnightblue" points="1208.5,-71.55 1218.96,-69.88 1209.74,-64.66 1208.5,-71.55"/>
</g>
<!-- Node25&#45;&gt;Node3 -->
<g id="edge47" class="edge">
<title>Node25&#45;&gt;Node3</title>
<path fill="none" stroke="midnightblue" d="M1416.1,-393.66C1400.45,-368.18 1378.5,-325.19 1378.5,-284.5 1378.5,-284.5 1378.5,-284.5 1378.5,-148.5 1378.5,-110.98 1384.92,-91.5 1356.5,-67 1329.07,-43.35 1100.98,-26.88 986.92,-20.04"/>
<polygon fill="midnightblue" stroke="midnightblue" points="1413.22,-395.64 1421.53,-402.21 1419.13,-391.89 1413.22,-395.64"/>
</g>
<!-- Node26&#45;&gt;Node3 -->
<g id="edge50" class="edge">
<title>Node26&#45;&gt;Node3</title>
<path fill="none" stroke="midnightblue" d="M1554.13,-395.19C1530.2,-370.94 1496.5,-328.9 1496.5,-284.5 1496.5,-284.5 1496.5,-284.5 1496.5,-148.5 1496.5,-44.84 1136.46,-22.58 986.67,-17.8"/>
<polygon fill="midnightblue" stroke="midnightblue" points="1551.91,-397.92 1561.5,-402.42 1556.81,-392.92 1551.91,-397.92"/>
</g>
</g>
</svg>
        <g id="navigator" transform="translate(0 0)" fill="#404254">
                <rect fill="#f2f5e9" fill-opacity="0.5" stroke="#606060" stroke-width=".5" x="0" y="0" width="60" height="60"/>
                <use id="zoomplus" xlink:href="#zoomPlus" x="17" y="9" onmousedown="handleZoom(evt,'in')"/>
                <use id="zoomminus" xlink:href="#zoomMin" x="42" y="9" onmousedown="handleZoom(evt,'out')"/>
                <use id="reset" xlink:href="#resetDef" x="30" y="36" onmousedown="handleReset()"/>
                <g id="arrowUp" xlink:href="#dirArrow" transform="translate(30 24)" onmousedown="handlePan(0,-1)">
                  <use xlink:href="#rim" fill="#404040">
                        <set attributeName="fill" to="#808080" begin="arrowUp.mouseover" end="arrowUp.mouseout"/>
                  </use>
                  <path fill="none" stroke="white" stroke-width="1.5" d="M0,-3.0v7 M-2.5,-0.5L0,-3.0L2.5,-0.5"/>
                </g>
                <g id="arrowRight" xlink:href="#dirArrow" transform="rotate(90) translate(36 -43)" onmousedown="handlePan(1,0)">
                  <use xlink:href="#rim" fill="#404040">
                        <set attributeName="fill" to="#808080" begin="arrowRight.mouseover" end="arrowRight.mouseout"/>
                  </use>
                  <path fill="none" stroke="white" stroke-width="1.5" d="M0,-3.0v7 M-2.5,-0.5L0,-3.0L2.5,-0.5"/>
                </g>
                <g id="arrowDown" xlink:href="#dirArrow" transform="rotate(180) translate(-30 -48)" onmousedown="handlePan(0,1)">
                  <use xlink:href="#rim" fill="#404040">
                        <set attributeName="fill" to="#808080" begin="arrowDown.mouseover" end="arrowDown.mouseout"/>
                  </use>
                  <path fill="none" stroke="white" stroke-width="1.5" d="M0,-3.0v7 M-2.5,-0.5L0,-3.0L2.5,-0.5"/>
                </g>
                <g id="arrowLeft" xlink:href="#dirArrow" transform="rotate(270) translate(-36 17)" onmousedown="handlePan(-1,0)">
                  <use xlink:href="#rim" fill="#404040">
                        <set attributeName="fill" to="#808080" begin="arrowLeft.mouseover" end="arrowLeft.mouseout"/>
                  </use>
                  <path fill="none" stroke="white" stroke-width="1.5" d="M0,-3.0v7 M-2.5,-0.5L0,-3.0L2.5,-0.5"/>
                </g>
        </g>
        <svg viewBox="0 0 15 15" width="100%" height="30px" preserveAspectRatio="xMaxYMin meet">
         <g id="arrow_out" transform="scale(0.3 0.3)">
          <a xlink:href="TypeInfo_8hpp__dep__incl_org.svg" target="_base">
           <rect id="button" ry="5" rx="5" y="6" x="6" height="38" width="38"
                fill="#f2f5e9" fill-opacity="0.5" stroke="#606060" stroke-width="1.0"/>
           <path id="arrow"
             d="M 11.500037,31.436501 C 11.940474,20.09759 22.043105,11.32322 32.158766,21.979434 L 37.068811,17.246167 C 37.068811,17.246167 37.088388,32 37.088388,32 L 22.160133,31.978069 C 22.160133,31.978069 26.997745,27.140456 26.997745,27.140456 C 18.528582,18.264221 13.291696,25.230495 11.500037,31.436501 z"
             style="fill:#404040;"/>
          </a>
         </g>
        </svg>
</svg>
