<?xml version="1.0" encoding="UTF-8" standalone="no"?>
<!DOCTYPE svg PUBLIC "-//W3C//DTD SVG 1.1//EN"
 "http://www.w3.org/Graphics/SVG/1.1/DTD/svg11.dtd">
<!-- Generated by graphviz version 2.43.0 (0)
 -->
<!-- Title: Library/include/playrho/d2/UnitVec.hpp Pages: 1 -->
<!--zoomable 442 -->
<svg id="main" version="1.1" xmlns="http://www.w3.org/2000/svg" xmlns:xlink="http://www.w3.org/1999/xlink" xml:space="preserve" onload="init(evt)">
<style type="text/css"><![CDATA[
.edge:hover path { stroke: red; }
.edge:hover polygon { stroke: red; fill: red; }
]]></style>
<script type="text/javascript"><![CDATA[
var edges = document.getElementsByTagName('g');
if (edges && edges.length) {
  for (var i=0;i<edges.length;i++) {
    if (edges[i].id.substr(0,4)=='edge') {
      edges[i].setAttribute('class','edge');
    }
  }
}
]]></script>
        <defs>
                <circle id="rim" cx="0" cy="0" r="7"/>
                <circle id="rim2" cx="0" cy="0" r="3.5"/>
                <g id="zoomPlus">
                        <use xlink:href="#rim" fill="#404040">
                                <set attributeName="fill" to="#808080" begin="zoomplus.mouseover" end="zoomplus.mouseout"/>
                        </use>
                        <path d="M-4,0h8M0,-4v8" fill="none" stroke="white" stroke-width="1.5" pointer-events="none"/>
                </g>
                <g id="zoomMin">
                        <use xlink:href="#rim" fill="#404040">
                                <set attributeName="fill" to="#808080" begin="zoomminus.mouseover" end="zoomminus.mouseout"/>
                        </use>
                        <path d="M-4,0h8" fill="none" stroke="white" stroke-width="1.5" pointer-events="none"/>
                </g>
                <g id="dirArrow">
                        <path fill="none" stroke="white" stroke-width="1.5" d="M0,-3.0v7 M-2.5,-0.5L0,-3.0L2.5,-0.5"/>
                </g>
               <g id="resetDef">
                       <use xlink:href="#rim2" fill="#404040">
                               <set attributeName="fill" to="#808080" begin="reset.mouseover" end="reset.mouseout"/>
                       </use>
               </g>
        </defs>

<script type="text/javascript">
var viewWidth = 1024;
var viewHeight = 442;
var sectionId = 'dynsection-0';
</script>
<script xlink:href="svgpan.js"/>
<svg id="graph" class="graph">
<g id="viewport">
<title>Library/include/playrho/d2/UnitVec.hpp</title>
<polygon fill="white" stroke="transparent" points="-4,4 -4,-438 1019.5,-438 1019.5,4 -4,4"/>
<!-- Node1 -->
<g id="node1" class="node">
<title>Node1</title>
<g id="a_node1"><a xlink:title="Declarations of the UnitVec class and free functions associated with it.">
<polygon fill="#bfbfbf" stroke="black" points="198.5,-403.5 198.5,-433.5 326.5,-433.5 326.5,-403.5 198.5,-403.5"/>
<text text-anchor="start" x="206.5" y="-421.5" font-family="Helvetica,sans-Serif" font-size="10.00">Library/include/playrho</text>
<text text-anchor="middle" x="262.5" y="-410.5" font-family="Helvetica,sans-Serif" font-size="10.00">/d2/UnitVec.hpp</text>
</a>
</g>
</g>
<!-- Node2 -->
<g id="node2" class="node">
<title>Node2</title>
<g id="a_node2"><a xlink:title=" ">
<polygon fill="white" stroke="#bfbfbf" points="0,-347.5 0,-366.5 49,-366.5 49,-347.5 0,-347.5"/>
<text text-anchor="middle" x="24.5" y="-354.5" font-family="Helvetica,sans-Serif" font-size="10.00">cstdlib</text>
</a>
</g>
</g>
<!-- Node1&#45;&gt;Node2 -->
<g id="edge1" class="edge">
<title>Node1&#45;&gt;Node2</title>
<path fill="none" stroke="midnightblue" d="M204.84,-403.49C166.27,-394.06 114.12,-381.19 58.97,-367.09"/>
<polygon fill="midnightblue" stroke="midnightblue" points="59.56,-363.63 49,-364.54 57.82,-370.41 59.56,-363.63"/>
</g>
<!-- Node3 -->
<g id="node3" class="node">
<title>Node3</title>
<g id="a_node3"><a xlink:title=" ">
<polygon fill="white" stroke="#bfbfbf" points="67.5,-347.5 67.5,-366.5 127.5,-366.5 127.5,-347.5 67.5,-347.5"/>
<text text-anchor="middle" x="97.5" y="-354.5" font-family="Helvetica,sans-Serif" font-size="10.00">iostream</text>
</a>
</g>
</g>
<!-- Node1&#45;&gt;Node3 -->
<g id="edge2" class="edge">
<title>Node1&#45;&gt;Node3</title>
<path fill="none" stroke="midnightblue" d="M223.4,-403.4C195.34,-393.28 157.93,-379.79 131.19,-370.15"/>
<polygon fill="midnightblue" stroke="midnightblue" points="132.1,-366.76 121.51,-366.66 129.73,-373.34 132.1,-366.76"/>
</g>
<!-- Node4 -->
<g id="node4" class="node">
<title>Node4</title>
<g id="a_node4"><a xlink:title=" ">
<polygon fill="white" stroke="#bfbfbf" points="158,-0.5 158,-19.5 203,-19.5 203,-0.5 158,-0.5"/>
<text text-anchor="middle" x="180.5" y="-7.5" font-family="Helvetica,sans-Serif" font-size="10.00">utility</text>
</a>
</g>
</g>
<!-- Node1&#45;&gt;Node4 -->
<g id="edge3" class="edge">
<title>Node1&#45;&gt;Node4</title>
<path fill="none" stroke="midnightblue" d="M224.12,-403.32C206.73,-395.13 187.25,-383.19 174.5,-367 155.88,-343.35 155.5,-332.1 155.5,-302 155.5,-302 155.5,-302 155.5,-126.5 155.5,-91.41 166.66,-51.66 174.06,-29.13"/>
<polygon fill="midnightblue" stroke="midnightblue" points="177.42,-30.15 177.33,-19.56 170.79,-27.89 177.42,-30.15"/>
</g>
<!-- Node5 -->
<g id="node5" class="node">
<title>Node5</title>
<g id="a_node5"><a xlink:title=" ">
<polygon fill="white" stroke="#bfbfbf" points="781,-0.5 781,-19.5 850,-19.5 850,-0.5 781,-0.5"/>
<text text-anchor="middle" x="815.5" y="-7.5" font-family="Helvetica,sans-Serif" font-size="10.00">type_traits</text>
</a>
</g>
</g>
<!-- Node1&#45;&gt;Node5 -->
<g id="edge4" class="edge">
<title>Node1&#45;&gt;Node5</title>
<path fill="none" stroke="midnightblue" d="M326.7,-414.38C508.8,-404.67 1015.5,-371.44 1015.5,-302 1015.5,-302 1015.5,-302 1015.5,-126.5 1015.5,-55.39 919.51,-27.37 860.53,-16.87"/>
<polygon fill="midnightblue" stroke="midnightblue" points="860.78,-13.36 850.34,-15.16 859.62,-20.27 860.78,-13.36"/>
</g>
<!-- Node6 -->
<g id="node6" class="node">
<title>Node6</title>
<g id="a_node6"><a xlink:href="InvalidArgument_8hpp.html" target="_top" xlink:title="Definition of the InvalidArgument class.">
<polygon fill="white" stroke="black" points="183.5,-347.5 183.5,-366.5 341.5,-366.5 341.5,-347.5 183.5,-347.5"/>
<text text-anchor="middle" x="262.5" y="-354.5" font-family="Helvetica,sans-Serif" font-size="10.00">playrho/InvalidArgument.hpp</text>
</a>
</g>
</g>
<!-- Node1&#45;&gt;Node6 -->
<g id="edge5" class="edge">
<title>Node1&#45;&gt;Node6</title>
<path fill="none" stroke="midnightblue" d="M262.5,-403.4C262.5,-395.47 262.5,-385.46 262.5,-376.86"/>
<polygon fill="midnightblue" stroke="midnightblue" points="266,-376.66 262.5,-366.66 259,-376.66 266,-376.66"/>
</g>
<!-- Node8 -->
<g id="node8" class="node">
<title>Node8</title>
<g id="a_node8"><a xlink:href="Settings_8hpp.html" target="_top" xlink:title="Types and default settings file.">
<polygon fill="white" stroke="black" points="479,-347.5 479,-366.5 596,-366.5 596,-347.5 479,-347.5"/>
<text text-anchor="middle" x="537.5" y="-354.5" font-family="Helvetica,sans-Serif" font-size="10.00">playrho/Settings.hpp</text>
</a>
</g>
</g>
<!-- Node1&#45;&gt;Node8 -->
<g id="edge7" class="edge">
<title>Node1&#45;&gt;Node8</title>
<path fill="none" stroke="midnightblue" d="M326.63,-403.62C375.91,-392.96 442.98,-378.45 488.13,-368.68"/>
<polygon fill="midnightblue" stroke="midnightblue" points="488.95,-372.09 497.98,-366.55 487.47,-365.24 488.95,-372.09"/>
</g>
<!-- Node23 -->
<g id="node23" class="node">
<title>Node23</title>
<g id="a_node23"><a xlink:href="Units_8hpp.html" target="_top" xlink:title="Declarations for physical units possibly backed by strong types.">
<polygon fill="white" stroke="black" points="808,-291.5 808,-310.5 911,-310.5 911,-291.5 808,-291.5"/>
<text text-anchor="middle" x="859.5" y="-298.5" font-family="Helvetica,sans-Serif" font-size="10.00">playrho/Units.hpp</text>
</a>
</g>
</g>
<!-- Node1&#45;&gt;Node23 -->
<g id="edge39" class="edge">
<title>Node1&#45;&gt;Node23</title>
<path fill="none" stroke="midnightblue" d="M326.69,-410.08C395.87,-401.61 509.02,-386.39 605.5,-367 682.53,-351.52 771.16,-327.36 820.72,-313.27"/>
<polygon fill="midnightblue" stroke="midnightblue" points="821.74,-316.62 830.39,-310.51 819.82,-309.89 821.74,-316.62"/>
</g>
<!-- Node7 -->
<g id="node7" class="node">
<title>Node7</title>
<g id="a_node7"><a xlink:title=" ">
<polygon fill="white" stroke="#bfbfbf" points="184,-291.5 184,-310.5 249,-310.5 249,-291.5 184,-291.5"/>
<text text-anchor="middle" x="216.5" y="-298.5" font-family="Helvetica,sans-Serif" font-size="10.00">stdexcept</text>
</a>
</g>
</g>
<!-- Node6&#45;&gt;Node7 -->
<g id="edge6" class="edge">
<title>Node6&#45;&gt;Node7</title>
<path fill="none" stroke="midnightblue" d="M254.9,-347.08C248.27,-339.3 238.48,-327.8 230.44,-318.37"/>
<polygon fill="midnightblue" stroke="midnightblue" points="233.1,-316.09 223.95,-310.75 227.77,-320.63 233.1,-316.09"/>
</g>
<!-- Node9 -->
<g id="node9" class="node">
<title>Node9</title>
<g id="a_node9"><a xlink:title=" ">
<polygon fill="white" stroke="#bfbfbf" points="566,-291.5 566,-310.5 619,-310.5 619,-291.5 566,-291.5"/>
<text text-anchor="middle" x="592.5" y="-298.5" font-family="Helvetica,sans-Serif" font-size="10.00">cstddef</text>
</a>
</g>
</g>
<!-- Node8&#45;&gt;Node9 -->
<g id="edge8" class="edge">
<title>Node8&#45;&gt;Node9</title>
<path fill="none" stroke="midnightblue" d="M546.58,-347.08C554.67,-339.14 566.7,-327.34 576.41,-317.8"/>
<polygon fill="midnightblue" stroke="midnightblue" points="578.9,-320.25 583.59,-310.75 574,-315.26 578.9,-320.25"/>
</g>
<!-- Node10 -->
<g id="node10" class="node">
<title>Node10</title>
<g id="a_node10"><a xlink:title=" ">
<polygon fill="white" stroke="#bfbfbf" points="675.5,-291.5 675.5,-310.5 727.5,-310.5 727.5,-291.5 675.5,-291.5"/>
<text text-anchor="middle" x="701.5" y="-298.5" font-family="Helvetica,sans-Serif" font-size="10.00">cassert</text>
</a>
</g>
</g>
<!-- Node8&#45;&gt;Node10 -->
<g id="edge9" class="edge">
<title>Node8&#45;&gt;Node10</title>
<path fill="none" stroke="midnightblue" d="M563.49,-347.44C591.2,-338.32 635.25,-323.81 666.12,-313.65"/>
<polygon fill="midnightblue" stroke="midnightblue" points="667.23,-316.97 675.64,-310.52 665.04,-310.32 667.23,-316.97"/>
</g>
<!-- Node11 -->
<g id="node11" class="node">
<title>Node11</title>
<g id="a_node11"><a xlink:title=" ">
<polygon fill="white" stroke="#bfbfbf" points="745.5,-291.5 745.5,-310.5 789.5,-310.5 789.5,-291.5 745.5,-291.5"/>
<text text-anchor="middle" x="767.5" y="-298.5" font-family="Helvetica,sans-Serif" font-size="10.00">cfloat</text>
</a>
</g>
</g>
<!-- Node8&#45;&gt;Node11 -->
<g id="edge10" class="edge">
<title>Node8&#45;&gt;Node11</title>
<path fill="none" stroke="midnightblue" d="M578.45,-347.49C616.68,-339.38 675.52,-326.48 735.22,-311.22"/>
<polygon fill="midnightblue" stroke="midnightblue" points="736.38,-314.53 745.19,-308.65 734.64,-307.76 736.38,-314.53"/>
</g>
<!-- Node12 -->
<g id="node12" class="node">
<title>Node12</title>
<g id="a_node12"><a xlink:title=" ">
<polygon fill="white" stroke="#bfbfbf" points="702,-235.5 702,-254.5 749,-254.5 749,-235.5 702,-235.5"/>
<text text-anchor="middle" x="725.5" y="-242.5" font-family="Helvetica,sans-Serif" font-size="10.00">cmath</text>
</a>
</g>
</g>
<!-- Node8&#45;&gt;Node12 -->
<g id="edge11" class="edge">
<title>Node8&#45;&gt;Node12</title>
<path fill="none" stroke="midnightblue" d="M556.7,-347.4C575.39,-338.82 604.4,-324.95 628.5,-311 656.06,-295.04 686.33,-274.19 705.6,-260.46"/>
<polygon fill="midnightblue" stroke="midnightblue" points="707.79,-263.19 713.87,-254.52 703.71,-257.51 707.79,-263.19"/>
</g>
<!-- Node13 -->
<g id="node13" class="node">
<title>Node13</title>
<g id="a_node13"><a xlink:title=" ">
<polygon fill="white" stroke="#bfbfbf" points="377.5,-179.5 377.5,-198.5 427.5,-198.5 427.5,-179.5 377.5,-179.5"/>
<text text-anchor="middle" x="402.5" y="-186.5" font-family="Helvetica,sans-Serif" font-size="10.00">cstdint</text>
</a>
</g>
</g>
<!-- Node8&#45;&gt;Node13 -->
<g id="edge12" class="edge">
<title>Node8&#45;&gt;Node13</title>
<path fill="none" stroke="midnightblue" d="M478.71,-347.6C436.77,-340.27 385.57,-328.11 372.5,-311 352,-284.16 362.71,-267.33 372.5,-235 375.62,-224.7 381.95,-214.61 388,-206.6"/>
<polygon fill="midnightblue" stroke="midnightblue" points="390.73,-208.8 394.29,-198.82 385.28,-204.4 390.73,-208.8"/>
</g>
<!-- Node14 -->
<g id="node14" class="node">
<title>Node14</title>
<g id="a_node14"><a xlink:title=" ">
<polygon fill="white" stroke="#bfbfbf" points="245.5,-0.5 245.5,-19.5 309.5,-19.5 309.5,-0.5 245.5,-0.5"/>
<text text-anchor="middle" x="277.5" y="-7.5" font-family="Helvetica,sans-Serif" font-size="10.00">algorithm</text>
</a>
</g>
</g>
<!-- Node8&#45;&gt;Node14 -->
<g id="edge13" class="edge">
<title>Node8&#45;&gt;Node14</title>
<path fill="none" stroke="midnightblue" d="M478.83,-355.84C402.14,-352.18 277.5,-332.87 277.5,-246 277.5,-246 277.5,-246 277.5,-126.5 277.5,-92.36 277.5,-52.55 277.5,-29.71"/>
<polygon fill="midnightblue" stroke="midnightblue" points="281,-29.69 277.5,-19.69 274,-29.69 281,-29.69"/>
</g>
<!-- Node15 -->
<g id="node15" class="node">
<title>Node15</title>
<g id="a_node15"><a xlink:href="RealConstants_8hpp.html" target="_top" xlink:title="Definitions file for constant expressions of type Real.">
<polygon fill="white" stroke="black" points="535.5,-235.5 535.5,-254.5 683.5,-254.5 683.5,-235.5 535.5,-235.5"/>
<text text-anchor="middle" x="609.5" y="-242.5" font-family="Helvetica,sans-Serif" font-size="10.00">playrho/RealConstants.hpp</text>
</a>
</g>
</g>
<!-- Node8&#45;&gt;Node15 -->
<g id="edge14" class="edge">
<title>Node8&#45;&gt;Node15</title>
<path fill="none" stroke="midnightblue" d="M538.6,-347.36C540.6,-334.26 545.76,-309 557.5,-291 565.25,-279.13 576.99,-268.58 587.37,-260.7"/>
<polygon fill="midnightblue" stroke="midnightblue" points="589.58,-263.41 595.64,-254.72 585.48,-257.74 589.58,-263.41"/>
</g>
<!-- Node18 -->
<g id="node18" class="node">
<title>Node18</title>
<g id="a_node18"><a xlink:href="Templates_8hpp.html" target="_top" xlink:title="Definitions of miscellaneous template related code.">
<polygon fill="white" stroke="black" points="327.5,-118 327.5,-137 455.5,-137 455.5,-118 327.5,-118"/>
<text text-anchor="middle" x="391.5" y="-125" font-family="Helvetica,sans-Serif" font-size="10.00">playrho/Templates.hpp</text>
</a>
</g>
</g>
<!-- Node8&#45;&gt;Node18 -->
<g id="edge25" class="edge">
<title>Node8&#45;&gt;Node18</title>
<path fill="none" stroke="midnightblue" d="M478.91,-349.06C432.59,-342.23 373.33,-330.02 358.5,-311 319.77,-261.33 359.5,-181.01 380.39,-145.88"/>
<polygon fill="midnightblue" stroke="midnightblue" points="383.45,-147.59 385.71,-137.24 377.49,-143.92 383.45,-147.59"/>
</g>
<!-- Node8&#45;&gt;Node23 -->
<g id="edge26" class="edge">
<title>Node8&#45;&gt;Node23</title>
<path fill="none" stroke="midnightblue" d="M588.52,-347.44C645.52,-337.89 737.74,-322.42 798.5,-312.23"/>
<polygon fill="midnightblue" stroke="midnightblue" points="799.43,-315.62 808.72,-310.52 798.28,-308.72 799.43,-315.62"/>
</g>
<!-- Node26 -->
<g id="node26" class="node">
<title>Node26</title>
<g id="a_node26"><a xlink:href="WiderType_8hpp.html" target="_top" xlink:title="Definition of the WiderType alias template.">
<polygon fill="white" stroke="black" points="381.5,-291.5 381.5,-310.5 509.5,-310.5 509.5,-291.5 381.5,-291.5"/>
<text text-anchor="middle" x="445.5" y="-298.5" font-family="Helvetica,sans-Serif" font-size="10.00">playrho/WiderType.hpp</text>
</a>
</g>
</g>
<!-- Node8&#45;&gt;Node26 -->
<g id="edge34" class="edge">
<title>Node8&#45;&gt;Node26</title>
<path fill="none" stroke="midnightblue" d="M522.72,-347.32C508.23,-338.82 485.93,-325.73 469.01,-315.8"/>
<polygon fill="midnightblue" stroke="midnightblue" points="470.64,-312.7 460.24,-310.65 467.1,-318.74 470.64,-312.7"/>
</g>
<!-- Node16 -->
<g id="node16" class="node">
<title>Node16</title>
<g id="a_node16"><a xlink:href="Defines_8hpp.html" target="_top" xlink:title="Miscellaneous C&#45;preprocessor definitions.">
<polygon fill="white" stroke="black" points="517.5,-179.5 517.5,-198.5 631.5,-198.5 631.5,-179.5 517.5,-179.5"/>
<text text-anchor="middle" x="574.5" y="-186.5" font-family="Helvetica,sans-Serif" font-size="10.00">playrho/Defines.hpp</text>
</a>
</g>
</g>
<!-- Node15&#45;&gt;Node16 -->
<g id="edge15" class="edge">
<title>Node15&#45;&gt;Node16</title>
<path fill="none" stroke="midnightblue" d="M603.72,-235.08C598.83,-227.53 591.67,-216.49 585.67,-207.23"/>
<polygon fill="midnightblue" stroke="midnightblue" points="588.55,-205.24 580.17,-198.75 582.67,-209.05 588.55,-205.24"/>
</g>
<!-- Node17 -->
<g id="node17" class="node">
<title>Node17</title>
<g id="a_node17"><a xlink:href="Real_8hpp.html" target="_top" xlink:title="Real number definition file.">
<polygon fill="white" stroke="black" points="650,-179.5 650,-198.5 749,-198.5 749,-179.5 650,-179.5"/>
<text text-anchor="middle" x="699.5" y="-186.5" font-family="Helvetica,sans-Serif" font-size="10.00">playrho/Real.hpp</text>
</a>
</g>
</g>
<!-- Node15&#45;&gt;Node17 -->
<g id="edge16" class="edge">
<title>Node15&#45;&gt;Node17</title>
<path fill="none" stroke="midnightblue" d="M623.96,-235.32C638,-226.9 659.55,-213.97 676.04,-204.07"/>
<polygon fill="midnightblue" stroke="midnightblue" points="678.3,-206.8 685.08,-198.65 674.7,-200.8 678.3,-206.8"/>
</g>
<!-- Node17&#45;&gt;Node18 -->
<g id="edge17" class="edge">
<title>Node17&#45;&gt;Node18</title>
<path fill="none" stroke="midnightblue" d="M655.37,-179.48C600.02,-168.78 505.16,-150.46 445.53,-138.94"/>
<polygon fill="midnightblue" stroke="midnightblue" points="446.03,-135.47 435.55,-137.01 444.7,-142.34 446.03,-135.47"/>
</g>
<!-- Node19 -->
<g id="node19" class="node">
<title>Node19</title>
<g id="a_node19"><a xlink:href="detail_2Templates_8hpp.html" target="_top" xlink:title="Low&#45;level declarations for general class &amp; function templates.">
<polygon fill="white" stroke="black" points="305.5,-56.5 305.5,-75.5 463.5,-75.5 463.5,-56.5 305.5,-56.5"/>
<text text-anchor="middle" x="384.5" y="-63.5" font-family="Helvetica,sans-Serif" font-size="10.00">playrho/detail/Templates.hpp</text>
</a>
</g>
</g>
<!-- Node18&#45;&gt;Node19 -->
<g id="edge18" class="edge">
<title>Node18&#45;&gt;Node19</title>
<path fill="none" stroke="midnightblue" d="M390.5,-117.98C389.51,-109.58 387.97,-96.48 386.7,-85.66"/>
<polygon fill="midnightblue" stroke="midnightblue" points="390.15,-85.03 385.5,-75.51 383.19,-85.85 390.15,-85.03"/>
</g>
<!-- Node19&#45;&gt;Node4 -->
<g id="edge24" class="edge">
<title>Node19&#45;&gt;Node4</title>
<path fill="none" stroke="midnightblue" d="M352.18,-56.44C314.18,-46.39 251.47,-29.79 213.28,-19.68"/>
<polygon fill="midnightblue" stroke="midnightblue" points="213.76,-16.18 203.2,-17.01 211.97,-22.95 213.76,-16.18"/>
</g>
<!-- Node19&#45;&gt;Node5 -->
<g id="edge23" class="edge">
<title>Node19&#45;&gt;Node5</title>
<path fill="none" stroke="midnightblue" d="M452.79,-56.44C541.89,-45.28 695.28,-26.06 770.82,-16.6"/>
<polygon fill="midnightblue" stroke="midnightblue" points="771.46,-20.05 780.95,-15.33 770.59,-13.1 771.46,-20.05"/>
</g>
<!-- Node19&#45;&gt;Node14 -->
<g id="edge19" class="edge">
<title>Node19&#45;&gt;Node14</title>
<path fill="none" stroke="midnightblue" d="M367.31,-56.32C350.15,-47.66 323.55,-34.24 303.75,-24.25"/>
<polygon fill="midnightblue" stroke="midnightblue" points="305.15,-21.04 294.65,-19.65 302,-27.28 305.15,-21.04"/>
</g>
<!-- Node20 -->
<g id="node20" class="node">
<title>Node20</title>
<g id="a_node20"><a xlink:title=" ">
<polygon fill="white" stroke="#bfbfbf" points="462,-0.5 462,-19.5 527,-19.5 527,-0.5 462,-0.5"/>
<text text-anchor="middle" x="494.5" y="-7.5" font-family="Helvetica,sans-Serif" font-size="10.00">functional</text>
</a>
</g>
</g>
<!-- Node19&#45;&gt;Node20 -->
<g id="edge20" class="edge">
<title>Node19&#45;&gt;Node20</title>
<path fill="none" stroke="midnightblue" d="M402.17,-56.32C419.89,-47.62 447.4,-34.12 467.79,-24.11"/>
<polygon fill="midnightblue" stroke="midnightblue" points="469.44,-27.2 476.87,-19.65 466.35,-20.92 469.44,-27.2"/>
</g>
<!-- Node21 -->
<g id="node21" class="node">
<title>Node21</title>
<g id="a_node21"><a xlink:title=" ">
<polygon fill="white" stroke="#bfbfbf" points="328,-0.5 328,-19.5 381,-19.5 381,-0.5 328,-0.5"/>
<text text-anchor="middle" x="354.5" y="-7.5" font-family="Helvetica,sans-Serif" font-size="10.00">iterator</text>
</a>
</g>
</g>
<!-- Node19&#45;&gt;Node21 -->
<g id="edge21" class="edge">
<title>Node19&#45;&gt;Node21</title>
<path fill="none" stroke="midnightblue" d="M379.55,-56.08C375.4,-48.61 369.35,-37.72 364.23,-28.52"/>
<polygon fill="midnightblue" stroke="midnightblue" points="367.28,-26.79 359.36,-19.75 361.16,-30.19 367.28,-26.79"/>
</g>
<!-- Node22 -->
<g id="node22" class="node">
<title>Node22</title>
<g id="a_node22"><a xlink:title=" ">
<polygon fill="white" stroke="#bfbfbf" points="399.5,-0.5 399.5,-19.5 443.5,-19.5 443.5,-0.5 399.5,-0.5"/>
<text text-anchor="middle" x="421.5" y="-7.5" font-family="Helvetica,sans-Serif" font-size="10.00">limits</text>
</a>
</g>
</g>
<!-- Node19&#45;&gt;Node22 -->
<g id="edge22" class="edge">
<title>Node19&#45;&gt;Node22</title>
<path fill="none" stroke="midnightblue" d="M390.61,-56.08C395.78,-48.53 403.35,-37.49 409.69,-28.23"/>
<polygon fill="midnightblue" stroke="midnightblue" points="412.74,-29.98 415.5,-19.75 406.96,-26.02 412.74,-29.98"/>
</g>
<!-- Node23&#45;&gt;Node5 -->
<g id="edge28" class="edge">
<title>Node23&#45;&gt;Node5</title>
<path fill="none" stroke="midnightblue" d="M853.38,-291.35C841.29,-273.38 815.5,-230.31 815.5,-190 815.5,-190 815.5,-190 815.5,-126.5 815.5,-92.36 815.5,-52.55 815.5,-29.71"/>
<polygon fill="midnightblue" stroke="midnightblue" points="819,-29.69 815.5,-19.69 812,-29.69 819,-29.69"/>
</g>
<!-- Node23&#45;&gt;Node12 -->
<g id="edge27" class="edge">
<title>Node23&#45;&gt;Node12</title>
<path fill="none" stroke="midnightblue" d="M838.27,-291.44C816.12,-282.52 781.18,-268.44 756.06,-258.32"/>
<polygon fill="midnightblue" stroke="midnightblue" points="757.22,-255.01 746.63,-254.52 754.6,-261.5 757.22,-255.01"/>
</g>
<!-- Node23&#45;&gt;Node15 -->
<g id="edge29" class="edge">
<title>Node23&#45;&gt;Node15</title>
<path fill="none" stroke="midnightblue" d="M819.89,-291.44C776.27,-282.02 706.1,-266.87 658.92,-256.68"/>
<polygon fill="midnightblue" stroke="midnightblue" points="659.44,-253.21 648.93,-254.52 657.96,-260.05 659.44,-253.21"/>
</g>
<!-- Node23&#45;&gt;Node18 -->
<g id="edge30" class="edge">
<title>Node23&#45;&gt;Node18</title>
<path fill="none" stroke="midnightblue" d="M845.33,-291.33C832.72,-283.12 814.34,-269.85 801.5,-255 776.12,-225.64 790.61,-200.8 758.5,-179 712.14,-147.54 558.91,-135.51 465.74,-131.04"/>
<polygon fill="midnightblue" stroke="midnightblue" points="465.67,-127.53 455.52,-130.56 465.35,-134.52 465.67,-127.53"/>
</g>
<!-- Node24 -->
<g id="node24" class="node">
<title>Node24</title>
<g id="a_node24"><a xlink:href="to__underlying_8hpp.html" target="_top" xlink:title="Definition of to_underlying function template.">
<polygon fill="white" stroke="black" points="843.5,-235.5 843.5,-254.5 987.5,-254.5 987.5,-235.5 843.5,-235.5"/>
<text text-anchor="middle" x="915.5" y="-242.5" font-family="Helvetica,sans-Serif" font-size="10.00">playrho/to_underlying.hpp</text>
</a>
</g>
</g>
<!-- Node23&#45;&gt;Node24 -->
<g id="edge31" class="edge">
<title>Node23&#45;&gt;Node24</title>
<path fill="none" stroke="midnightblue" d="M868.5,-291.32C876.69,-283.42 889.01,-271.55 898.97,-261.94"/>
<polygon fill="midnightblue" stroke="midnightblue" points="901.57,-264.29 906.34,-254.83 896.71,-259.26 901.57,-264.29"/>
</g>
<!-- Node25 -->
<g id="node25" class="node">
<title>Node25</title>
<g id="a_node25"><a xlink:href="underlying__type_8hpp.html" target="_top" xlink:title="Definition of underlying_type trait class and related code.">
<polygon fill="white" stroke="black" points="845,-112.5 845,-142.5 984,-142.5 984,-112.5 845,-112.5"/>
<text text-anchor="start" x="853" y="-130.5" font-family="Helvetica,sans-Serif" font-size="10.00">playrho/detail/underlying</text>
<text text-anchor="middle" x="914.5" y="-119.5" font-family="Helvetica,sans-Serif" font-size="10.00">_type.hpp</text>
</a>
</g>
</g>
<!-- Node24&#45;&gt;Node25 -->
<g id="edge32" class="edge">
<title>Node24&#45;&gt;Node25</title>
<path fill="none" stroke="midnightblue" d="M915.42,-235.32C915.27,-217.97 914.93,-178.46 914.71,-152.66"/>
<polygon fill="midnightblue" stroke="midnightblue" points="918.21,-152.51 914.62,-142.55 911.21,-152.58 918.21,-152.51"/>
</g>
<!-- Node25&#45;&gt;Node5 -->
<g id="edge33" class="edge">
<title>Node25&#45;&gt;Node5</title>
<path fill="none" stroke="midnightblue" d="M902.36,-112.34C883.96,-90.86 849.08,-50.17 829.58,-27.43"/>
<polygon fill="midnightblue" stroke="midnightblue" points="832.1,-24.98 822.93,-19.67 826.78,-29.54 832.1,-24.98"/>
</g>
<!-- Node27 -->
<g id="node27" class="node">
<title>Node27</title>
<g id="a_node27"><a xlink:href="Wider_8hpp.html" target="_top" xlink:title="Definition of the Wider class template and specializations.">
<polygon fill="white" stroke="black" points="381.5,-235.5 381.5,-254.5 517.5,-254.5 517.5,-235.5 381.5,-235.5"/>
<text text-anchor="middle" x="449.5" y="-242.5" font-family="Helvetica,sans-Serif" font-size="10.00">playrho/detail/Wider.hpp</text>
</a>
</g>
</g>
<!-- Node26&#45;&gt;Node27 -->
<g id="edge35" class="edge">
<title>Node26&#45;&gt;Node27</title>
<path fill="none" stroke="midnightblue" d="M446.16,-291.08C446.68,-284.01 447.44,-273.86 448.09,-264.99"/>
<polygon fill="midnightblue" stroke="midnightblue" points="451.6,-264.98 448.85,-254.75 444.62,-264.47 451.6,-264.98"/>
</g>
<!-- Node27&#45;&gt;Node5 -->
<g id="edge37" class="edge">
<title>Node27&#45;&gt;Node5</title>
<path fill="none" stroke="midnightblue" d="M455.98,-235.15C466.08,-221.78 486.71,-196.16 508.5,-179 600.31,-106.67 727.5,-48.18 785.05,-23.57"/>
<polygon fill="midnightblue" stroke="midnightblue" points="786.47,-26.77 794.32,-19.65 783.74,-20.32 786.47,-26.77"/>
</g>
<!-- Node27&#45;&gt;Node13 -->
<g id="edge36" class="edge">
<title>Node27&#45;&gt;Node13</title>
<path fill="none" stroke="midnightblue" d="M441.74,-235.08C434.96,-227.3 424.96,-215.8 416.74,-206.37"/>
<polygon fill="midnightblue" stroke="midnightblue" points="419.32,-204 410.12,-198.75 414.04,-208.59 419.32,-204"/>
</g>
<!-- Node27&#45;&gt;Node16 -->
<g id="edge38" class="edge">
<title>Node27&#45;&gt;Node16</title>
<path fill="none" stroke="midnightblue" d="M469.31,-235.44C489.79,-226.6 521.98,-212.69 545.36,-202.59"/>
<polygon fill="midnightblue" stroke="midnightblue" points="546.99,-205.7 554.79,-198.52 544.22,-199.27 546.99,-205.7"/>
</g>
</g>
</svg>
        <g id="navigator" transform="translate(0 0)" fill="#404254">
                <rect fill="#f2f5e9" fill-opacity="0.5" stroke="#606060" stroke-width=".5" x="0" y="0" width="60" height="60"/>
                <use id="zoomplus" xlink:href="#zoomPlus" x="17" y="9" onmousedown="handleZoom(evt,'in')"/>
                <use id="zoomminus" xlink:href="#zoomMin" x="42" y="9" onmousedown="handleZoom(evt,'out')"/>
                <use id="reset" xlink:href="#resetDef" x="30" y="36" onmousedown="handleReset()"/>
                <g id="arrowUp" xlink:href="#dirArrow" transform="translate(30 24)" onmousedown="handlePan(0,-1)">
                  <use xlink:href="#rim" fill="#404040">
                        <set attributeName="fill" to="#808080" begin="arrowUp.mouseover" end="arrowUp.mouseout"/>
                  </use>
                  <path fill="none" stroke="white" stroke-width="1.5" d="M0,-3.0v7 M-2.5,-0.5L0,-3.0L2.5,-0.5"/>
                </g>
                <g id="arrowRight" xlink:href="#dirArrow" transform="rotate(90) translate(36 -43)" onmousedown="handlePan(1,0)">
                  <use xlink:href="#rim" fill="#404040">
                        <set attributeName="fill" to="#808080" begin="arrowRight.mouseover" end="arrowRight.mouseout"/>
                  </use>
                  <path fill="none" stroke="white" stroke-width="1.5" d="M0,-3.0v7 M-2.5,-0.5L0,-3.0L2.5,-0.5"/>
                </g>
                <g id="arrowDown" xlink:href="#dirArrow" transform="rotate(180) translate(-30 -48)" onmousedown="handlePan(0,1)">
                  <use xlink:href="#rim" fill="#404040">
                        <set attributeName="fill" to="#808080" begin="arrowDown.mouseover" end="arrowDown.mouseout"/>
                  </use>
                  <path fill="none" stroke="white" stroke-width="1.5" d="M0,-3.0v7 M-2.5,-0.5L0,-3.0L2.5,-0.5"/>
                </g>
                <g id="arrowLeft" xlink:href="#dirArrow" transform="rotate(270) translate(-36 17)" onmousedown="handlePan(-1,0)">
                  <use xlink:href="#rim" fill="#404040">
                        <set attributeName="fill" to="#808080" begin="arrowLeft.mouseover" end="arrowLeft.mouseout"/>
                  </use>
                  <path fill="none" stroke="white" stroke-width="1.5" d="M0,-3.0v7 M-2.5,-0.5L0,-3.0L2.5,-0.5"/>
                </g>
        </g>
        <svg viewBox="0 0 15 15" width="100%" height="30px" preserveAspectRatio="xMaxYMin meet">
         <g id="arrow_out" transform="scale(0.3 0.3)">
          <a xlink:href="UnitVec_8hpp__incl_org.svg" target="_base">
           <rect id="button" ry="5" rx="5" y="6" x="6" height="38" width="38"
                fill="#f2f5e9" fill-opacity="0.5" stroke="#606060" stroke-width="1.0"/>
           <path id="arrow"
             d="M 11.500037,31.436501 C 11.940474,20.09759 22.043105,11.32322 32.158766,21.979434 L 37.068811,17.246167 C 37.068811,17.246167 37.088388,32 37.088388,32 L 22.160133,31.978069 C 22.160133,31.978069 26.997745,27.140456 26.997745,27.140456 C 18.528582,18.264221 13.291696,25.230495 11.500037,31.436501 z"
             style="fill:#404040;"/>
          </a>
         </g>
        </svg>
</svg>
