<?xml version="1.0" encoding="UTF-8" standalone="no"?>
<!DOCTYPE svg PUBLIC "-//W3C//DTD SVG 1.1//EN"
 "http://www.w3.org/Graphics/SVG/1.1/DTD/svg11.dtd">
<!-- Generated by graphviz version 2.43.0 (0)
 -->
<!-- Title: Library/include/playrho/Vector.hpp Pages: 1 -->
<svg width="814pt" height="263pt"
 viewBox="0.00 0.00 813.82 263.00" xmlns="http://www.w3.org/2000/svg" xmlns:xlink="http://www.w3.org/1999/xlink">
<g id="graph0" class="graph" transform="scale(1 1) rotate(0) translate(4 259)">
<title>Library/include/playrho/Vector.hpp</title>
<polygon fill="white" stroke="transparent" points="-4,4 -4,-259 809.82,-259 809.82,4 -4,4"/>
<!-- Node1 -->
<g id="node1" class="node">
<title>Node1</title>
<g id="a_node1"><a xlink:title="Definition of the Vector class template and closely related code.">
<polygon fill="#bfbfbf" stroke="black" points="303.82,-224.5 303.82,-254.5 431.82,-254.5 431.82,-224.5 303.82,-224.5"/>
<text text-anchor="start" x="311.82" y="-242.5" font-family="Helvetica,sans-Serif" font-size="10.00">Library/include/playrho</text>
<text text-anchor="middle" x="367.82" y="-231.5" font-family="Helvetica,sans-Serif" font-size="10.00">/Vector.hpp</text>
</a>
</g>
</g>
<!-- Node2 -->
<g id="node2" class="node">
<title>Node2</title>
<g id="a_node2"><a xlink:title=" ">
<polygon fill="white" stroke="#bfbfbf" points="1.82,-0.5 1.82,-19.5 65.82,-19.5 65.82,-0.5 1.82,-0.5"/>
<text text-anchor="middle" x="33.82" y="-7.5" font-family="Helvetica,sans-Serif" font-size="10.00">algorithm</text>
</a>
</g>
</g>
<!-- Node1&#45;&gt;Node2 -->
<g id="edge1" class="edge">
<title>Node1&#45;&gt;Node2</title>
<path fill="none" stroke="midnightblue" d="M303.53,-230.74C258.87,-223.67 198.81,-210.73 149.82,-188 75.32,-153.42 38.91,-149.78 2.82,-76 -5.27,-59.44 6.23,-40.4 17.45,-27.23"/>
<polygon fill="midnightblue" stroke="midnightblue" points="20.03,-29.59 24.22,-19.86 14.88,-24.86 20.03,-29.59"/>
</g>
<!-- Node3 -->
<g id="node3" class="node">
<title>Node3</title>
<g id="a_node3"><a xlink:title=" ">
<polygon fill="white" stroke="#bfbfbf" points="368.82,-168.5 368.82,-187.5 420.82,-187.5 420.82,-168.5 368.82,-168.5"/>
<text text-anchor="middle" x="394.82" y="-175.5" font-family="Helvetica,sans-Serif" font-size="10.00">cassert</text>
</a>
</g>
</g>
<!-- Node1&#45;&gt;Node3 -->
<g id="edge2" class="edge">
<title>Node1&#45;&gt;Node3</title>
<path fill="none" stroke="midnightblue" d="M374.22,-224.4C377.94,-216.2 382.67,-205.78 386.66,-196.99"/>
<polygon fill="midnightblue" stroke="midnightblue" points="389.95,-198.21 390.89,-187.66 383.58,-195.32 389.95,-198.21"/>
</g>
<!-- Node4 -->
<g id="node4" class="node">
<title>Node4</title>
<g id="a_node4"><a xlink:title=" ">
<polygon fill="white" stroke="#bfbfbf" points="439.32,-168.5 439.32,-187.5 492.32,-187.5 492.32,-168.5 439.32,-168.5"/>
<text text-anchor="middle" x="465.82" y="-175.5" font-family="Helvetica,sans-Serif" font-size="10.00">cstddef</text>
</a>
</g>
</g>
<!-- Node1&#45;&gt;Node4 -->
<g id="edge3" class="edge">
<title>Node1&#45;&gt;Node4</title>
<path fill="none" stroke="midnightblue" d="M391.05,-224.4C406.61,-214.95 427.02,-202.56 442.59,-193.11"/>
<polygon fill="midnightblue" stroke="midnightblue" points="444.83,-195.84 451.56,-187.66 441.2,-189.86 444.83,-195.84"/>
</g>
<!-- Node5 -->
<g id="node5" class="node">
<title>Node5</title>
<g id="a_node5"><a xlink:title=" ">
<polygon fill="white" stroke="#bfbfbf" points="178.32,-0.5 178.32,-19.5 231.32,-19.5 231.32,-0.5 178.32,-0.5"/>
<text text-anchor="middle" x="204.82" y="-7.5" font-family="Helvetica,sans-Serif" font-size="10.00">iterator</text>
</a>
</g>
</g>
<!-- Node1&#45;&gt;Node5 -->
<g id="edge4" class="edge">
<title>Node1&#45;&gt;Node5</title>
<path fill="none" stroke="midnightblue" d="M359.32,-224.27C340.36,-192.87 292.57,-115.72 245.82,-56 237.92,-45.91 228.31,-35.28 220.38,-26.89"/>
<polygon fill="midnightblue" stroke="midnightblue" points="222.85,-24.41 213.4,-19.62 217.8,-29.26 222.85,-24.41"/>
</g>
<!-- Node6 -->
<g id="node6" class="node">
<title>Node6</title>
<g id="a_node6"><a xlink:title=" ">
<polygon fill="white" stroke="#bfbfbf" points="510.82,-168.5 510.82,-187.5 570.82,-187.5 570.82,-168.5 510.82,-168.5"/>
<text text-anchor="middle" x="540.82" y="-175.5" font-family="Helvetica,sans-Serif" font-size="10.00">iostream</text>
</a>
</g>
</g>
<!-- Node1&#45;&gt;Node6 -->
<g id="edge5" class="edge">
<title>Node1&#45;&gt;Node6</title>
<path fill="none" stroke="midnightblue" d="M408.82,-224.4C438.46,-214.21 478.05,-200.59 506.12,-190.93"/>
<polygon fill="midnightblue" stroke="midnightblue" points="507.58,-194.13 515.9,-187.57 505.31,-187.51 507.58,-194.13"/>
</g>
<!-- Node7 -->
<g id="node7" class="node">
<title>Node7</title>
<g id="a_node7"><a xlink:title=" ">
<polygon fill="white" stroke="#bfbfbf" points="589.32,-168.5 589.32,-187.5 630.32,-187.5 630.32,-168.5 589.32,-168.5"/>
<text text-anchor="middle" x="609.82" y="-175.5" font-family="Helvetica,sans-Serif" font-size="10.00">tuple</text>
</a>
</g>
</g>
<!-- Node1&#45;&gt;Node7 -->
<g id="edge6" class="edge">
<title>Node1&#45;&gt;Node7</title>
<path fill="none" stroke="midnightblue" d="M431.14,-224.42C471.09,-215.31 523.97,-202.82 579.54,-187.96"/>
<polygon fill="midnightblue" stroke="midnightblue" points="580.46,-191.33 589.21,-185.35 578.65,-184.57 580.46,-191.33"/>
</g>
<!-- Node8 -->
<g id="node8" class="node">
<title>Node8</title>
<g id="a_node8"><a xlink:title=" ">
<polygon fill="white" stroke="#bfbfbf" points="249.32,-0.5 249.32,-19.5 318.32,-19.5 318.32,-0.5 249.32,-0.5"/>
<text text-anchor="middle" x="283.82" y="-7.5" font-family="Helvetica,sans-Serif" font-size="10.00">type_traits</text>
</a>
</g>
</g>
<!-- Node1&#45;&gt;Node8 -->
<g id="edge7" class="edge">
<title>Node1&#45;&gt;Node8</title>
<path fill="none" stroke="midnightblue" d="M365.62,-224.14C360.39,-192.5 345.45,-114.87 316.82,-56 311.91,-45.89 304.67,-35.7 298.22,-27.58"/>
<polygon fill="midnightblue" stroke="midnightblue" points="300.76,-25.16 291.69,-19.68 295.37,-29.62 300.76,-25.16"/>
</g>
<!-- Node9 -->
<g id="node9" class="node">
<title>Node9</title>
<g id="a_node9"><a xlink:href="InvalidArgument_8hpp.html" target="_top" xlink:title="Definition of the InvalidArgument class.">
<polygon fill="white" stroke="black" points="647.82,-168.5 647.82,-187.5 805.82,-187.5 805.82,-168.5 647.82,-168.5"/>
<text text-anchor="middle" x="726.82" y="-175.5" font-family="Helvetica,sans-Serif" font-size="10.00">playrho/InvalidArgument.hpp</text>
</a>
</g>
</g>
<!-- Node1&#45;&gt;Node9 -->
<g id="edge8" class="edge">
<title>Node1&#45;&gt;Node9</title>
<path fill="none" stroke="midnightblue" d="M432.01,-227.86C498.05,-216.92 600.22,-199.98 665.28,-189.2"/>
<polygon fill="midnightblue" stroke="midnightblue" points="666.1,-192.61 675.4,-187.52 664.96,-185.71 666.1,-192.61"/>
</g>
<!-- Node11 -->
<g id="node11" class="node">
<title>Node11</title>
<g id="a_node11"><a xlink:href="Real_8hpp.html" target="_top" xlink:title="Real number definition file.">
<polygon fill="white" stroke="black" points="175.32,-168.5 175.32,-187.5 274.32,-187.5 274.32,-168.5 175.32,-168.5"/>
<text text-anchor="middle" x="224.82" y="-175.5" font-family="Helvetica,sans-Serif" font-size="10.00">playrho/Real.hpp</text>
</a>
</g>
</g>
<!-- Node1&#45;&gt;Node11 -->
<g id="edge10" class="edge">
<title>Node1&#45;&gt;Node11</title>
<path fill="none" stroke="midnightblue" d="M333.93,-224.4C309.94,-214.42 278.05,-201.15 254.95,-191.53"/>
<polygon fill="midnightblue" stroke="midnightblue" points="256.21,-188.27 245.63,-187.66 253.52,-194.73 256.21,-188.27"/>
</g>
<!-- Node13 -->
<g id="node13" class="node">
<title>Node13</title>
<g id="a_node13"><a xlink:href="Templates_8hpp.html" target="_top" xlink:title="Definitions of miscellaneous template related code.">
<polygon fill="white" stroke="black" points="83.82,-112.5 83.82,-131.5 211.82,-131.5 211.82,-112.5 83.82,-112.5"/>
<text text-anchor="middle" x="147.82" y="-119.5" font-family="Helvetica,sans-Serif" font-size="10.00">playrho/Templates.hpp</text>
</a>
</g>
</g>
<!-- Node1&#45;&gt;Node13 -->
<g id="edge20" class="edge">
<title>Node1&#45;&gt;Node13</title>
<path fill="none" stroke="midnightblue" d="M303.61,-229.6C252.13,-221.2 185.36,-207.05 165.82,-188 153.52,-176 149.41,-156.4 148.14,-141.85"/>
<polygon fill="midnightblue" stroke="midnightblue" points="151.62,-141.33 147.63,-131.51 144.62,-141.67 151.62,-141.33"/>
</g>
<!-- Node10 -->
<g id="node10" class="node">
<title>Node10</title>
<g id="a_node10"><a xlink:title=" ">
<polygon fill="white" stroke="#bfbfbf" points="694.32,-112.5 694.32,-131.5 759.32,-131.5 759.32,-112.5 694.32,-112.5"/>
<text text-anchor="middle" x="726.82" y="-119.5" font-family="Helvetica,sans-Serif" font-size="10.00">stdexcept</text>
</a>
</g>
</g>
<!-- Node9&#45;&gt;Node10 -->
<g id="edge9" class="edge">
<title>Node9&#45;&gt;Node10</title>
<path fill="none" stroke="midnightblue" d="M726.82,-168.08C726.82,-161.01 726.82,-150.86 726.82,-141.99"/>
<polygon fill="midnightblue" stroke="midnightblue" points="730.32,-141.75 726.82,-131.75 723.32,-141.75 730.32,-141.75"/>
</g>
<!-- Node12 -->
<g id="node12" class="node">
<title>Node12</title>
<g id="a_node12"><a xlink:title=" ">
<polygon fill="white" stroke="#bfbfbf" points="229.82,-112.5 229.82,-131.5 273.82,-131.5 273.82,-112.5 229.82,-112.5"/>
<text text-anchor="middle" x="251.82" y="-119.5" font-family="Helvetica,sans-Serif" font-size="10.00">limits</text>
</a>
</g>
</g>
<!-- Node11&#45;&gt;Node12 -->
<g id="edge11" class="edge">
<title>Node11&#45;&gt;Node12</title>
<path fill="none" stroke="midnightblue" d="M229.28,-168.08C232.98,-160.69 238.35,-149.95 242.92,-140.81"/>
<polygon fill="midnightblue" stroke="midnightblue" points="246.11,-142.26 247.45,-131.75 239.85,-139.13 246.11,-142.26"/>
</g>
<!-- Node11&#45;&gt;Node13 -->
<g id="edge12" class="edge">
<title>Node11&#45;&gt;Node13</title>
<path fill="none" stroke="midnightblue" d="M212.45,-168.32C200.66,-160.06 182.69,-147.45 168.69,-137.63"/>
<polygon fill="midnightblue" stroke="midnightblue" points="170.36,-134.53 160.16,-131.65 166.34,-140.26 170.36,-134.53"/>
</g>
<!-- Node13&#45;&gt;Node8 -->
<g id="edge14" class="edge">
<title>Node13&#45;&gt;Node8</title>
<path fill="none" stroke="midnightblue" d="M177.99,-112.49C198.91,-105.41 226.4,-93.6 245.82,-76 260.17,-63.01 270.63,-43.3 276.9,-28.99"/>
<polygon fill="midnightblue" stroke="midnightblue" points="280.16,-30.28 280.73,-19.7 273.68,-27.62 280.16,-30.28"/>
</g>
<!-- Node14 -->
<g id="node14" class="node">
<title>Node14</title>
<g id="a_node14"><a xlink:title=" ">
<polygon fill="white" stroke="#bfbfbf" points="12.32,-56.5 12.32,-75.5 61.32,-75.5 61.32,-56.5 12.32,-56.5"/>
<text text-anchor="middle" x="36.82" y="-63.5" font-family="Helvetica,sans-Serif" font-size="10.00">cstdlib</text>
</a>
</g>
</g>
<!-- Node13&#45;&gt;Node14 -->
<g id="edge13" class="edge">
<title>Node13&#45;&gt;Node14</title>
<path fill="none" stroke="midnightblue" d="M129.99,-112.32C112.11,-103.62 84.35,-90.12 63.78,-80.11"/>
<polygon fill="midnightblue" stroke="midnightblue" points="65.14,-76.88 54.61,-75.65 62.07,-83.18 65.14,-76.88"/>
</g>
<!-- Node15 -->
<g id="node15" class="node">
<title>Node15</title>
<g id="a_node15"><a xlink:href="detail_2Templates_8hpp.html" target="_top" xlink:title="Low&#45;level declarations for general class &amp; function templates.">
<polygon fill="white" stroke="black" points="78.82,-56.5 78.82,-75.5 236.82,-75.5 236.82,-56.5 78.82,-56.5"/>
<text text-anchor="middle" x="157.82" y="-63.5" font-family="Helvetica,sans-Serif" font-size="10.00">playrho/detail/Templates.hpp</text>
</a>
</g>
</g>
<!-- Node13&#45;&gt;Node15 -->
<g id="edge15" class="edge">
<title>Node13&#45;&gt;Node15</title>
<path fill="none" stroke="midnightblue" d="M149.47,-112.08C150.8,-104.93 152.71,-94.64 154.36,-85.69"/>
<polygon fill="midnightblue" stroke="midnightblue" points="157.82,-86.22 156.2,-75.75 150.94,-84.95 157.82,-86.22"/>
</g>
<!-- Node15&#45;&gt;Node2 -->
<g id="edge16" class="edge">
<title>Node15&#45;&gt;Node2</title>
<path fill="none" stroke="midnightblue" d="M138.18,-56.44C117.86,-47.6 85.92,-33.69 62.73,-23.59"/>
<polygon fill="midnightblue" stroke="midnightblue" points="63.95,-20.3 53.38,-19.52 61.15,-26.72 63.95,-20.3"/>
</g>
<!-- Node15&#45;&gt;Node5 -->
<g id="edge17" class="edge">
<title>Node15&#45;&gt;Node5</title>
<path fill="none" stroke="midnightblue" d="M165.58,-56.08C172.36,-48.3 182.37,-36.8 190.58,-27.37"/>
<polygon fill="midnightblue" stroke="midnightblue" points="193.28,-29.59 197.21,-19.75 188,-25 193.28,-29.59"/>
</g>
<!-- Node15&#45;&gt;Node8 -->
<g id="edge18" class="edge">
<title>Node15&#45;&gt;Node8</title>
<path fill="none" stroke="midnightblue" d="M177.79,-56.44C198.43,-47.6 230.89,-33.69 254.45,-23.59"/>
<polygon fill="midnightblue" stroke="midnightblue" points="256.14,-26.67 263.95,-19.52 253.38,-20.24 256.14,-26.67"/>
</g>
<!-- Node16 -->
<g id="node16" class="node">
<title>Node16</title>
<g id="a_node16"><a xlink:title=" ">
<polygon fill="white" stroke="#bfbfbf" points="115.32,-0.5 115.32,-19.5 160.32,-19.5 160.32,-0.5 115.32,-0.5"/>
<text text-anchor="middle" x="137.82" y="-7.5" font-family="Helvetica,sans-Serif" font-size="10.00">utility</text>
</a>
</g>
</g>
<!-- Node15&#45;&gt;Node16 -->
<g id="edge19" class="edge">
<title>Node15&#45;&gt;Node16</title>
<path fill="none" stroke="midnightblue" d="M154.52,-56.08C151.84,-48.85 147.97,-38.41 144.64,-29.4"/>
<polygon fill="midnightblue" stroke="midnightblue" points="147.82,-27.91 141.06,-19.75 141.26,-30.34 147.82,-27.91"/>
</g>
</g>
</svg>
