<?xml version="1.0" encoding="UTF-8" standalone="no"?>
<!DOCTYPE svg PUBLIC "-//W3C//DTD SVG 1.1//EN"
 "http://www.w3.org/Graphics/SVG/1.1/DTD/svg11.dtd">
<!-- Generated by graphviz version 2.43.0 (0)
 -->
<!-- Title: Library/include/playrho/Vector2.hpp Pages: 1 -->
<!--zoomable 610 -->
<svg id="main" version="1.1" xmlns="http://www.w3.org/2000/svg" xmlns:xlink="http://www.w3.org/1999/xlink" xml:space="preserve" onload="init(evt)">
<style type="text/css"><![CDATA[
.edge:hover path { stroke: red; }
.edge:hover polygon { stroke: red; fill: red; }
]]></style>
<script type="text/javascript"><![CDATA[
var edges = document.getElementsByTagName('g');
if (edges && edges.length) {
  for (var i=0;i<edges.length;i++) {
    if (edges[i].id.substr(0,4)=='edge') {
      edges[i].setAttribute('class','edge');
    }
  }
}
]]></script>
        <defs>
                <circle id="rim" cx="0" cy="0" r="7"/>
                <circle id="rim2" cx="0" cy="0" r="3.5"/>
                <g id="zoomPlus">
                        <use xlink:href="#rim" fill="#404040">
                                <set attributeName="fill" to="#808080" begin="zoomplus.mouseover" end="zoomplus.mouseout"/>
                        </use>
                        <path d="M-4,0h8M0,-4v8" fill="none" stroke="white" stroke-width="1.5" pointer-events="none"/>
                </g>
                <g id="zoomMin">
                        <use xlink:href="#rim" fill="#404040">
                                <set attributeName="fill" to="#808080" begin="zoomminus.mouseover" end="zoomminus.mouseout"/>
                        </use>
                        <path d="M-4,0h8" fill="none" stroke="white" stroke-width="1.5" pointer-events="none"/>
                </g>
                <g id="dirArrow">
                        <path fill="none" stroke="white" stroke-width="1.5" d="M0,-3.0v7 M-2.5,-0.5L0,-3.0L2.5,-0.5"/>
                </g>
               <g id="resetDef">
                       <use xlink:href="#rim2" fill="#404040">
                               <set attributeName="fill" to="#808080" begin="reset.mouseover" end="reset.mouseout"/>
                       </use>
               </g>
        </defs>

<script type="text/javascript">
var viewWidth = 1364;
var viewHeight = 610;
var sectionId = 'dynsection-0';
</script>
<script xlink:href="svgpan.js"/>
<svg id="graph" class="graph">
<g id="viewport">
<title>Library/include/playrho/Vector2.hpp</title>
<polygon fill="white" stroke="transparent" points="-4,4 -4,-606 1360.03,-606 1360.03,4 -4,4"/>
<!-- Node1 -->
<g id="node1" class="node">
<title>Node1</title>
<g id="a_node1"><a xlink:title="Definition of the Vector2 alias template and closely related code.">
<polygon fill="#bfbfbf" stroke="black" points="231,-571.5 231,-601.5 359,-601.5 359,-571.5 231,-571.5"/>
<text text-anchor="start" x="239" y="-589.5" font-family="Helvetica,sans-Serif" font-size="10.00">Library/include/playrho</text>
<text text-anchor="middle" x="295" y="-578.5" font-family="Helvetica,sans-Serif" font-size="10.00">/Vector2.hpp</text>
</a>
</g>
</g>
<!-- Node2 -->
<g id="node2" class="node">
<title>Node2</title>
<g id="a_node2"><a xlink:href="Settings_8hpp.html" target="_top" xlink:title="Types and default settings file.">
<polygon fill="white" stroke="black" points="569.5,-515.5 569.5,-534.5 686.5,-534.5 686.5,-515.5 569.5,-515.5"/>
<text text-anchor="middle" x="628" y="-522.5" font-family="Helvetica,sans-Serif" font-size="10.00">playrho/Settings.hpp</text>
</a>
</g>
</g>
<!-- Node1&#45;&gt;Node2 -->
<g id="edge1" class="edge">
<title>Node1&#45;&gt;Node2</title>
<path fill="none" stroke="midnightblue" d="M359.21,-574.03C420.4,-563.09 511.68,-546.78 570.53,-536.27"/>
<polygon fill="midnightblue" stroke="midnightblue" points="571.18,-539.71 580.41,-534.5 569.95,-532.82 571.18,-539.71"/>
</g>
<!-- Node35 -->
<g id="node35" class="node">
<title>Node35</title>
<g id="a_node35"><a xlink:href="Vector_8hpp.html" target="_top" xlink:title="Definition of the Vector class template and closely related code.">
<polygon fill="white" stroke="black" points="274.5,-403.5 274.5,-422.5 381.5,-422.5 381.5,-403.5 274.5,-403.5"/>
<text text-anchor="middle" x="328" y="-410.5" font-family="Helvetica,sans-Serif" font-size="10.00">playrho/Vector.hpp</text>
</a>
</g>
</g>
<!-- Node1&#45;&gt;Node35 -->
<g id="edge53" class="edge">
<title>Node1&#45;&gt;Node35</title>
<path fill="none" stroke="midnightblue" d="M297.7,-571.47C303.62,-540.7 317.74,-467.33 324.4,-432.7"/>
<polygon fill="midnightblue" stroke="midnightblue" points="327.9,-433.04 326.35,-422.56 321.03,-431.72 327.9,-433.04"/>
</g>
<!-- Node3 -->
<g id="node3" class="node">
<title>Node3</title>
<g id="a_node3"><a xlink:title=" ">
<polygon fill="white" stroke="#bfbfbf" points="470.5,-347.5 470.5,-366.5 523.5,-366.5 523.5,-347.5 470.5,-347.5"/>
<text text-anchor="middle" x="497" y="-354.5" font-family="Helvetica,sans-Serif" font-size="10.00">cstddef</text>
</a>
</g>
</g>
<!-- Node2&#45;&gt;Node3 -->
<g id="edge2" class="edge">
<title>Node2&#45;&gt;Node3</title>
<path fill="none" stroke="midnightblue" d="M597.5,-515.41C578.04,-508.49 553.61,-496.91 538,-479 512.1,-449.29 502.4,-402.52 498.89,-376.69"/>
<polygon fill="midnightblue" stroke="midnightblue" points="502.36,-376.24 497.71,-366.73 495.41,-377.07 502.36,-376.24"/>
</g>
<!-- Node4 -->
<g id="node4" class="node">
<title>Node4</title>
<g id="a_node4"><a xlink:title=" ">
<polygon fill="white" stroke="#bfbfbf" points="510,-168.5 510,-187.5 562,-187.5 562,-168.5 510,-168.5"/>
<text text-anchor="middle" x="536" y="-175.5" font-family="Helvetica,sans-Serif" font-size="10.00">cassert</text>
</a>
</g>
</g>
<!-- Node2&#45;&gt;Node4 -->
<g id="edge3" class="edge">
<title>Node2&#45;&gt;Node4</title>
<path fill="none" stroke="midnightblue" d="M614.8,-515.46C603.16,-507.33 586.47,-494.12 576,-479 558.47,-453.68 552,-444.8 552,-414 552,-414 552,-414 552,-294.5 552,-260.04 544.92,-220.33 540.18,-197.6"/>
<polygon fill="midnightblue" stroke="midnightblue" points="543.56,-196.67 538.03,-187.64 536.72,-198.15 543.56,-196.67"/>
</g>
<!-- Node5 -->
<g id="node5" class="node">
<title>Node5</title>
<g id="a_node5"><a xlink:title=" ">
<polygon fill="white" stroke="#bfbfbf" points="694,-459.5 694,-478.5 738,-478.5 738,-459.5 694,-459.5"/>
<text text-anchor="middle" x="716" y="-466.5" font-family="Helvetica,sans-Serif" font-size="10.00">cfloat</text>
</a>
</g>
</g>
<!-- Node2&#45;&gt;Node5 -->
<g id="edge4" class="edge">
<title>Node2&#45;&gt;Node5</title>
<path fill="none" stroke="midnightblue" d="M642.14,-515.32C655.87,-506.9 676.94,-493.97 693.06,-484.07"/>
<polygon fill="midnightblue" stroke="midnightblue" points="695.2,-486.87 701.9,-478.65 691.54,-480.9 695.2,-486.87"/>
</g>
<!-- Node6 -->
<g id="node6" class="node">
<title>Node6</title>
<g id="a_node6"><a xlink:title=" ">
<polygon fill="white" stroke="#bfbfbf" points="680.5,-224.5 680.5,-243.5 727.5,-243.5 727.5,-224.5 680.5,-224.5"/>
<text text-anchor="middle" x="704" y="-231.5" font-family="Helvetica,sans-Serif" font-size="10.00">cmath</text>
</a>
</g>
</g>
<!-- Node2&#45;&gt;Node6 -->
<g id="edge5" class="edge">
<title>Node2&#45;&gt;Node6</title>
<path fill="none" stroke="midnightblue" d="M630.31,-515.13C638.61,-483.31 667.7,-371.87 692,-280 694.3,-271.29 696.87,-261.65 699.04,-253.52"/>
<polygon fill="midnightblue" stroke="midnightblue" points="702.49,-254.19 701.69,-243.62 695.72,-252.38 702.49,-254.19"/>
</g>
<!-- Node7 -->
<g id="node7" class="node">
<title>Node7</title>
<g id="a_node7"><a xlink:title=" ">
<polygon fill="white" stroke="#bfbfbf" points="1217,-112.5 1217,-131.5 1267,-131.5 1267,-112.5 1217,-112.5"/>
<text text-anchor="middle" x="1242" y="-119.5" font-family="Helvetica,sans-Serif" font-size="10.00">cstdint</text>
</a>
</g>
</g>
<!-- Node2&#45;&gt;Node7 -->
<g id="edge6" class="edge">
<title>Node2&#45;&gt;Node7</title>
<path fill="none" stroke="midnightblue" d="M686.89,-524.83C789.33,-525.05 1006.37,-520.03 1184,-479 1261.2,-461.17 1350,-493.23 1350,-414 1350,-414 1350,-414 1350,-356 1350,-267.63 1285.26,-176.43 1256.03,-139.75"/>
<polygon fill="midnightblue" stroke="midnightblue" points="1258.45,-137.18 1249.42,-131.64 1253.02,-141.6 1258.45,-137.18"/>
</g>
<!-- Node8 -->
<g id="node8" class="node">
<title>Node8</title>
<g id="a_node8"><a xlink:title=" ">
<polygon fill="white" stroke="#bfbfbf" points="6,-0.5 6,-19.5 70,-19.5 70,-0.5 6,-0.5"/>
<text text-anchor="middle" x="38" y="-7.5" font-family="Helvetica,sans-Serif" font-size="10.00">algorithm</text>
</a>
</g>
</g>
<!-- Node2&#45;&gt;Node8 -->
<g id="edge7" class="edge">
<title>Node2&#45;&gt;Node8</title>
<path fill="none" stroke="midnightblue" d="M569.48,-519.88C413.58,-508.11 0,-471.49 0,-414 0,-414 0,-414 0,-121 0,-86.81 16.6,-49.76 27.86,-28.57"/>
<polygon fill="midnightblue" stroke="midnightblue" points="30.95,-30.22 32.72,-19.77 24.82,-26.83 30.95,-30.22"/>
</g>
<!-- Node9 -->
<g id="node9" class="node">
<title>Node9</title>
<g id="a_node9"><a xlink:href="RealConstants_8hpp.html" target="_top" xlink:title="Definitions file for constant expressions of type Real.">
<polygon fill="white" stroke="black" points="734,-403.5 734,-422.5 882,-422.5 882,-403.5 734,-403.5"/>
<text text-anchor="middle" x="808" y="-410.5" font-family="Helvetica,sans-Serif" font-size="10.00">playrho/RealConstants.hpp</text>
</a>
</g>
</g>
<!-- Node2&#45;&gt;Node9 -->
<g id="edge8" class="edge">
<title>Node2&#45;&gt;Node9</title>
<path fill="none" stroke="midnightblue" d="M633.58,-515.17C642.74,-501.36 662.22,-474.61 685,-459 707.75,-443.41 736.55,-432.49 760.57,-425.32"/>
<polygon fill="midnightblue" stroke="midnightblue" points="761.54,-428.68 770.19,-422.56 759.61,-421.95 761.54,-428.68"/>
</g>
<!-- Node16 -->
<g id="node16" class="node">
<title>Node16</title>
<g id="a_node16"><a xlink:href="Templates_8hpp.html" target="_top" xlink:title="Definitions of miscellaneous template related code.">
<polygon fill="white" stroke="black" points="537,-112.5 537,-131.5 665,-131.5 665,-112.5 537,-112.5"/>
<text text-anchor="middle" x="601" y="-119.5" font-family="Helvetica,sans-Serif" font-size="10.00">playrho/Templates.hpp</text>
</a>
</g>
</g>
<!-- Node2&#45;&gt;Node16 -->
<g id="edge42" class="edge">
<title>Node2&#45;&gt;Node16</title>
<path fill="none" stroke="midnightblue" d="M622.72,-515.23C612.27,-497.04 590,-453.6 590,-414 590,-414 590,-414 590,-233 590,-200.79 594.73,-163.53 597.98,-141.69"/>
<polygon fill="midnightblue" stroke="midnightblue" points="601.49,-141.95 599.56,-131.53 594.57,-140.87 601.49,-141.95"/>
</g>
<!-- Node31 -->
<g id="node31" class="node">
<title>Node31</title>
<g id="a_node31"><a xlink:href="Units_8hpp.html" target="_top" xlink:title="Declarations for physical units possibly backed by strong types.">
<polygon fill="white" stroke="black" points="756.5,-459.5 756.5,-478.5 859.5,-478.5 859.5,-459.5 756.5,-459.5"/>
<text text-anchor="middle" x="808" y="-466.5" font-family="Helvetica,sans-Serif" font-size="10.00">playrho/Units.hpp</text>
</a>
</g>
</g>
<!-- Node2&#45;&gt;Node31 -->
<g id="edge43" class="edge">
<title>Node2&#45;&gt;Node31</title>
<path fill="none" stroke="midnightblue" d="M656.52,-515.44C687.07,-506.28 735.71,-491.69 769.6,-481.52"/>
<polygon fill="midnightblue" stroke="midnightblue" points="771.04,-484.74 779.61,-478.52 769.03,-478.04 771.04,-484.74"/>
</g>
<!-- Node34 -->
<g id="node34" class="node">
<title>Node34</title>
<g id="a_node34"><a xlink:href="WiderType_8hpp.html" target="_top" xlink:title="Definition of the WiderType alias template.">
<polygon fill="white" stroke="black" points="1149,-224.5 1149,-243.5 1277,-243.5 1277,-224.5 1149,-224.5"/>
<text text-anchor="middle" x="1213" y="-231.5" font-family="Helvetica,sans-Serif" font-size="10.00">playrho/WiderType.hpp</text>
</a>
</g>
</g>
<!-- Node2&#45;&gt;Node34 -->
<g id="edge51" class="edge">
<title>Node2&#45;&gt;Node34</title>
<path fill="none" stroke="midnightblue" d="M686.61,-520.72C852.28,-510.67 1312,-477.11 1312,-414 1312,-414 1312,-414 1312,-356 1312,-321.18 1314.12,-307.68 1293,-280 1281.87,-265.42 1264.58,-254.85 1248.91,-247.64"/>
<polygon fill="midnightblue" stroke="midnightblue" points="1250.01,-244.3 1239.44,-243.57 1247.25,-250.73 1250.01,-244.3"/>
</g>
<!-- Node10 -->
<g id="node10" class="node">
<title>Node10</title>
<g id="a_node10"><a xlink:href="Defines_8hpp.html" target="_top" xlink:title="Miscellaneous C&#45;preprocessor definitions.">
<polygon fill="white" stroke="black" points="1004,-112.5 1004,-131.5 1118,-131.5 1118,-112.5 1004,-112.5"/>
<text text-anchor="middle" x="1061" y="-119.5" font-family="Helvetica,sans-Serif" font-size="10.00">playrho/Defines.hpp</text>
</a>
</g>
</g>
<!-- Node9&#45;&gt;Node10 -->
<g id="edge9" class="edge">
<title>Node9&#45;&gt;Node10</title>
<path fill="none" stroke="midnightblue" d="M865.03,-403.47C918.99,-392.18 997.71,-366.75 1039,-311 1076.95,-259.77 1070.01,-178.22 1064.43,-141.72"/>
<polygon fill="midnightblue" stroke="midnightblue" points="1067.83,-140.84 1062.72,-131.55 1060.93,-141.99 1067.83,-140.84"/>
</g>
<!-- Node11 -->
<g id="node11" class="node">
<title>Node11</title>
<g id="a_node11"><a xlink:href="Real_8hpp.html" target="_top" xlink:title="Real number definition file.">
<polygon fill="white" stroke="black" points="758.5,-347.5 758.5,-366.5 857.5,-366.5 857.5,-347.5 758.5,-347.5"/>
<text text-anchor="middle" x="808" y="-354.5" font-family="Helvetica,sans-Serif" font-size="10.00">playrho/Real.hpp</text>
</a>
</g>
</g>
<!-- Node9&#45;&gt;Node11 -->
<g id="edge10" class="edge">
<title>Node9&#45;&gt;Node11</title>
<path fill="none" stroke="midnightblue" d="M808,-403.08C808,-396.01 808,-385.86 808,-376.99"/>
<polygon fill="midnightblue" stroke="midnightblue" points="811.5,-376.75 808,-366.75 804.5,-376.75 811.5,-376.75"/>
</g>
<!-- Node12 -->
<g id="node12" class="node">
<title>Node12</title>
<g id="a_node12"><a xlink:href="Fixed_8hpp.html" target="_top" xlink:title="Definition of the Fixed class and closely related code.">
<polygon fill="white" stroke="black" points="745.5,-224.5 745.5,-243.5 848.5,-243.5 848.5,-224.5 745.5,-224.5"/>
<text text-anchor="middle" x="797" y="-231.5" font-family="Helvetica,sans-Serif" font-size="10.00">playrho/Fixed.hpp</text>
</a>
</g>
</g>
<!-- Node11&#45;&gt;Node12 -->
<g id="edge11" class="edge">
<title>Node11&#45;&gt;Node12</title>
<path fill="none" stroke="midnightblue" d="M857.76,-354.72C934.22,-350.98 1067.21,-336.42 1021,-280 1000.8,-255.34 917.69,-243.91 858.62,-238.81"/>
<polygon fill="midnightblue" stroke="midnightblue" points="858.87,-235.32 848.62,-237.99 858.3,-242.3 858.87,-235.32"/>
</g>
<!-- Node29 -->
<g id="node29" class="node">
<title>Node29</title>
<g id="a_node29"><a xlink:href="FixedMath_8hpp.html" target="_top" xlink:title="Conventional math functions for the Fixed class template.">
<polygon fill="white" stroke="black" points="732,-286 732,-305 860,-305 860,-286 732,-286"/>
<text text-anchor="middle" x="796" y="-293" font-family="Helvetica,sans-Serif" font-size="10.00">playrho/FixedMath.hpp</text>
</a>
</g>
</g>
<!-- Node11&#45;&gt;Node29 -->
<g id="edge37" class="edge">
<title>Node11&#45;&gt;Node29</title>
<path fill="none" stroke="midnightblue" d="M806.28,-347.48C804.57,-338.99 801.89,-325.7 799.7,-314.82"/>
<polygon fill="midnightblue" stroke="midnightblue" points="803.12,-314.12 797.72,-305.01 796.26,-315.5 803.12,-314.12"/>
</g>
<!-- Node30 -->
<g id="node30" class="node">
<title>Node30</title>
<g id="a_node30"><a xlink:href="FixedLimits_8hpp.html" target="_top" xlink:title="Specialization of std::numeric_limits for Fixed.">
<polygon fill="white" stroke="black" points="878.5,-286 878.5,-305 1011.5,-305 1011.5,-286 878.5,-286"/>
<text text-anchor="middle" x="945" y="-293" font-family="Helvetica,sans-Serif" font-size="10.00">playrho/FixedLimits.hpp</text>
</a>
</g>
</g>
<!-- Node11&#45;&gt;Node30 -->
<g id="edge40" class="edge">
<title>Node11&#45;&gt;Node30</title>
<path fill="none" stroke="midnightblue" d="M827.63,-347.48C850.82,-337.4 889.62,-320.55 916.21,-309"/>
<polygon fill="midnightblue" stroke="midnightblue" points="917.63,-312.2 925.41,-305.01 914.84,-305.78 917.63,-312.2"/>
</g>
<!-- Node12&#45;&gt;Node4 -->
<g id="edge14" class="edge">
<title>Node12&#45;&gt;Node4</title>
<path fill="none" stroke="midnightblue" d="M755.64,-224.44C705.02,-213.97 620.13,-196.41 572.05,-186.46"/>
<polygon fill="midnightblue" stroke="midnightblue" points="572.6,-183 562.09,-184.4 571.18,-189.85 572.6,-183"/>
</g>
<!-- Node12&#45;&gt;Node7 -->
<g id="edge12" class="edge">
<title>Node12&#45;&gt;Node7</title>
<path fill="none" stroke="midnightblue" d="M848.75,-230.73C955.97,-225.58 1194.78,-211.57 1223,-188 1236.37,-176.83 1240.63,-156.8 1241.84,-141.92"/>
<polygon fill="midnightblue" stroke="midnightblue" points="1245.35,-141.92 1242.28,-131.78 1238.35,-141.62 1245.35,-141.92"/>
</g>
<!-- Node13 -->
<g id="node13" class="node">
<title>Node13</title>
<g id="a_node13"><a xlink:title=" ">
<polygon fill="white" stroke="#bfbfbf" points="612,-0.5 612,-19.5 656,-19.5 656,-0.5 612,-0.5"/>
<text text-anchor="middle" x="634" y="-7.5" font-family="Helvetica,sans-Serif" font-size="10.00">limits</text>
</a>
</g>
</g>
<!-- Node12&#45;&gt;Node13 -->
<g id="edge13" class="edge">
<title>Node12&#45;&gt;Node13</title>
<path fill="none" stroke="midnightblue" d="M788.95,-224.26C780.87,-215.36 768.18,-201.04 758,-188 713.87,-131.44 666.48,-60.62 645.32,-28.4"/>
<polygon fill="midnightblue" stroke="midnightblue" points="648.04,-26.15 639.63,-19.7 642.18,-29.98 648.04,-26.15"/>
</g>
<!-- Node14 -->
<g id="node14" class="node">
<title>Node14</title>
<g id="a_node14"><a xlink:title=" ">
<polygon fill="white" stroke="#bfbfbf" points="777.5,-0.5 777.5,-19.5 846.5,-19.5 846.5,-0.5 777.5,-0.5"/>
<text text-anchor="middle" x="812" y="-7.5" font-family="Helvetica,sans-Serif" font-size="10.00">type_traits</text>
</a>
</g>
</g>
<!-- Node12&#45;&gt;Node14 -->
<g id="edge15" class="edge">
<title>Node12&#45;&gt;Node14</title>
<path fill="none" stroke="midnightblue" d="M790.02,-224.27C783.47,-215.6 773.97,-201.66 769,-188 748.9,-132.8 737.62,-109.45 762,-56 767.68,-43.55 778.64,-33.07 788.85,-25.36"/>
<polygon fill="midnightblue" stroke="midnightblue" points="790.94,-28.17 797.12,-19.56 786.92,-22.44 790.94,-28.17"/>
</g>
<!-- Node15 -->
<g id="node15" class="node">
<title>Node15</title>
<g id="a_node15"><a xlink:title=" ">
<polygon fill="white" stroke="#bfbfbf" points="370,-168.5 370,-187.5 430,-187.5 430,-168.5 370,-168.5"/>
<text text-anchor="middle" x="400" y="-175.5" font-family="Helvetica,sans-Serif" font-size="10.00">iostream</text>
</a>
</g>
</g>
<!-- Node12&#45;&gt;Node15 -->
<g id="edge16" class="edge">
<title>Node12&#45;&gt;Node15</title>
<path fill="none" stroke="midnightblue" d="M745.3,-225.19C742.49,-224.78 739.71,-224.38 737,-224 629.88,-208.81 503.39,-192.31 440.18,-184.15"/>
<polygon fill="midnightblue" stroke="midnightblue" points="440.6,-180.68 430.23,-182.87 439.7,-187.62 440.6,-180.68"/>
</g>
<!-- Node12&#45;&gt;Node16 -->
<g id="edge17" class="edge">
<title>Node12&#45;&gt;Node16</title>
<path fill="none" stroke="midnightblue" d="M772.01,-224.38C749.82,-216.28 716.84,-203.17 690,-188 664.04,-173.33 636.71,-152.43 619.29,-138.33"/>
<polygon fill="midnightblue" stroke="midnightblue" points="621.1,-135.28 611.15,-131.64 616.65,-140.69 621.1,-135.28"/>
</g>
<!-- Node21 -->
<g id="node21" class="node">
<title>Node21</title>
<g id="a_node21"><a xlink:href="TypeInfo_8hpp.html" target="_top" xlink:title="Definition of TypeID class and closely related code.">
<polygon fill="white" stroke="black" points="777.5,-168.5 777.5,-187.5 896.5,-187.5 896.5,-168.5 777.5,-168.5"/>
<text text-anchor="middle" x="837" y="-175.5" font-family="Helvetica,sans-Serif" font-size="10.00">playrho/TypeInfo.hpp</text>
</a>
</g>
</g>
<!-- Node12&#45;&gt;Node21 -->
<g id="edge25" class="edge">
<title>Node12&#45;&gt;Node21</title>
<path fill="none" stroke="midnightblue" d="M803.61,-224.08C809.26,-216.46 817.54,-205.26 824.45,-195.94"/>
<polygon fill="midnightblue" stroke="midnightblue" points="827.38,-197.87 830.52,-187.75 821.75,-193.7 827.38,-197.87"/>
</g>
<!-- Node28 -->
<g id="node28" class="node">
<title>Node28</title>
<g id="a_node28"><a xlink:href="Wider_8hpp.html" target="_top" xlink:title="Definition of the Wider class template and specializations.">
<polygon fill="white" stroke="black" points="1078,-168.5 1078,-187.5 1214,-187.5 1214,-168.5 1078,-168.5"/>
<text text-anchor="middle" x="1146" y="-175.5" font-family="Helvetica,sans-Serif" font-size="10.00">playrho/detail/Wider.hpp</text>
</a>
</g>
</g>
<!-- Node12&#45;&gt;Node28 -->
<g id="edge33" class="edge">
<title>Node12&#45;&gt;Node28</title>
<path fill="none" stroke="midnightblue" d="M848.87,-224.97C910.64,-215.42 1013.86,-199.45 1080.93,-189.07"/>
<polygon fill="midnightblue" stroke="midnightblue" points="1081.61,-192.5 1090.96,-187.52 1080.54,-185.59 1081.61,-192.5"/>
</g>
<!-- Node17 -->
<g id="node17" class="node">
<title>Node17</title>
<g id="a_node17"><a xlink:href="detail_2Templates_8hpp.html" target="_top" xlink:title="Low&#45;level declarations for general class &amp; function templates.">
<polygon fill="white" stroke="black" points="318,-56.5 318,-75.5 476,-75.5 476,-56.5 318,-56.5"/>
<text text-anchor="middle" x="397" y="-63.5" font-family="Helvetica,sans-Serif" font-size="10.00">playrho/detail/Templates.hpp</text>
</a>
</g>
</g>
<!-- Node16&#45;&gt;Node17 -->
<g id="edge18" class="edge">
<title>Node16&#45;&gt;Node17</title>
<path fill="none" stroke="midnightblue" d="M568.68,-112.44C533.61,-103.16 477.5,-88.31 439.04,-78.13"/>
<polygon fill="midnightblue" stroke="midnightblue" points="439.74,-74.69 429.17,-75.52 437.94,-81.46 439.74,-74.69"/>
</g>
<!-- Node17&#45;&gt;Node8 -->
<g id="edge19" class="edge">
<title>Node17&#45;&gt;Node8</title>
<path fill="none" stroke="midnightblue" d="M340.12,-56.44C267.82,-45.57 144.7,-27.05 80.22,-17.35"/>
<polygon fill="midnightblue" stroke="midnightblue" points="80.43,-13.84 70.02,-15.82 79.39,-20.76 80.43,-13.84"/>
</g>
<!-- Node17&#45;&gt;Node13 -->
<g id="edge22" class="edge">
<title>Node17&#45;&gt;Node13</title>
<path fill="none" stroke="midnightblue" d="M434.55,-56.44C480.83,-45.9 558.67,-28.16 602.15,-18.26"/>
<polygon fill="midnightblue" stroke="midnightblue" points="602.94,-21.67 611.92,-16.03 601.39,-14.84 602.94,-21.67"/>
</g>
<!-- Node17&#45;&gt;Node14 -->
<g id="edge23" class="edge">
<title>Node17&#45;&gt;Node14</title>
<path fill="none" stroke="midnightblue" d="M462.76,-56.44C547.82,-45.37 693.77,-26.38 767.13,-16.84"/>
<polygon fill="midnightblue" stroke="midnightblue" points="767.95,-20.26 777.41,-15.5 767.04,-13.32 767.95,-20.26"/>
</g>
<!-- Node18 -->
<g id="node18" class="node">
<title>Node18</title>
<g id="a_node18"><a xlink:title=" ">
<polygon fill="white" stroke="#bfbfbf" points="134.5,-0.5 134.5,-19.5 199.5,-19.5 199.5,-0.5 134.5,-0.5"/>
<text text-anchor="middle" x="167" y="-7.5" font-family="Helvetica,sans-Serif" font-size="10.00">functional</text>
</a>
</g>
</g>
<!-- Node17&#45;&gt;Node18 -->
<g id="edge20" class="edge">
<title>Node17&#45;&gt;Node18</title>
<path fill="none" stroke="midnightblue" d="M360.56,-56.44C319.51,-46.81 252.9,-31.17 209.52,-20.98"/>
<polygon fill="midnightblue" stroke="midnightblue" points="210.09,-17.52 199.55,-18.64 208.49,-24.34 210.09,-17.52"/>
</g>
<!-- Node19 -->
<g id="node19" class="node">
<title>Node19</title>
<g id="a_node19"><a xlink:title=" ">
<polygon fill="white" stroke="#bfbfbf" points="283.5,-0.5 283.5,-19.5 336.5,-19.5 336.5,-0.5 283.5,-0.5"/>
<text text-anchor="middle" x="310" y="-7.5" font-family="Helvetica,sans-Serif" font-size="10.00">iterator</text>
</a>
</g>
</g>
<!-- Node17&#45;&gt;Node19 -->
<g id="edge21" class="edge">
<title>Node17&#45;&gt;Node19</title>
<path fill="none" stroke="midnightblue" d="M383.02,-56.32C369.45,-47.9 348.62,-34.97 332.68,-25.07"/>
<polygon fill="midnightblue" stroke="midnightblue" points="334.29,-21.95 323.94,-19.65 330.59,-27.9 334.29,-21.95"/>
</g>
<!-- Node20 -->
<g id="node20" class="node">
<title>Node20</title>
<g id="a_node20"><a xlink:title=" ">
<polygon fill="white" stroke="#bfbfbf" points="374.5,-0.5 374.5,-19.5 419.5,-19.5 419.5,-0.5 374.5,-0.5"/>
<text text-anchor="middle" x="397" y="-7.5" font-family="Helvetica,sans-Serif" font-size="10.00">utility</text>
</a>
</g>
</g>
<!-- Node17&#45;&gt;Node20 -->
<g id="edge24" class="edge">
<title>Node17&#45;&gt;Node20</title>
<path fill="none" stroke="midnightblue" d="M397,-56.08C397,-49.01 397,-38.86 397,-29.99"/>
<polygon fill="midnightblue" stroke="midnightblue" points="400.5,-29.75 397,-19.75 393.5,-29.75 400.5,-29.75"/>
</g>
<!-- Node21&#45;&gt;Node16 -->
<g id="edge27" class="edge">
<title>Node21&#45;&gt;Node16</title>
<path fill="none" stroke="midnightblue" d="M799.61,-168.44C758.61,-159.06 692.75,-143.99 648.22,-133.8"/>
<polygon fill="midnightblue" stroke="midnightblue" points="648.75,-130.34 638.22,-131.52 647.19,-137.16 648.75,-130.34"/>
</g>
<!-- Node22 -->
<g id="node22" class="node">
<title>Node22</title>
<g id="a_node22"><a xlink:title=" ">
<polygon fill="white" stroke="#bfbfbf" points="936,-112.5 936,-131.5 986,-131.5 986,-112.5 936,-112.5"/>
<text text-anchor="middle" x="961" y="-119.5" font-family="Helvetica,sans-Serif" font-size="10.00">cstring</text>
</a>
</g>
</g>
<!-- Node21&#45;&gt;Node22 -->
<g id="edge26" class="edge">
<title>Node21&#45;&gt;Node22</title>
<path fill="none" stroke="midnightblue" d="M856.65,-168.44C876.96,-159.6 908.9,-145.69 932.1,-135.59"/>
<polygon fill="midnightblue" stroke="midnightblue" points="933.67,-138.72 941.44,-131.52 930.88,-132.3 933.67,-138.72"/>
</g>
<!-- Node23 -->
<g id="node23" class="node">
<title>Node23</title>
<g id="a_node23"><a xlink:href="detail_2TypeInfo_8hpp.html" target="_top" xlink:title="Definition of TypeInfo class template and related code.">
<polygon fill="white" stroke="black" points="769.5,-112.5 769.5,-131.5 918.5,-131.5 918.5,-112.5 769.5,-112.5"/>
<text text-anchor="middle" x="844" y="-119.5" font-family="Helvetica,sans-Serif" font-size="10.00">playrho/detail/TypeInfo.hpp</text>
</a>
</g>
</g>
<!-- Node21&#45;&gt;Node23 -->
<g id="edge28" class="edge">
<title>Node21&#45;&gt;Node23</title>
<path fill="none" stroke="midnightblue" d="M838.16,-168.08C839.08,-160.93 840.42,-150.64 841.58,-141.69"/>
<polygon fill="midnightblue" stroke="midnightblue" points="845.05,-142.12 842.87,-131.75 838.11,-141.22 845.05,-142.12"/>
</g>
<!-- Node24 -->
<g id="node24" class="node">
<title>Node24</title>
<g id="a_node24"><a xlink:title=" ">
<polygon fill="white" stroke="#bfbfbf" points="929,-56.5 929,-75.5 973,-75.5 973,-56.5 929,-56.5"/>
<text text-anchor="middle" x="951" y="-63.5" font-family="Helvetica,sans-Serif" font-size="10.00">regex</text>
</a>
</g>
</g>
<!-- Node23&#45;&gt;Node24 -->
<g id="edge29" class="edge">
<title>Node23&#45;&gt;Node24</title>
<path fill="none" stroke="midnightblue" d="M861.19,-112.32C878.35,-103.66 904.95,-90.24 924.75,-80.25"/>
<polygon fill="midnightblue" stroke="midnightblue" points="926.5,-83.28 933.85,-75.65 923.35,-77.04 926.5,-83.28"/>
</g>
<!-- Node25 -->
<g id="node25" class="node">
<title>Node25</title>
<g id="a_node25"><a xlink:title=" ">
<polygon fill="white" stroke="#bfbfbf" points="991,-56.5 991,-75.5 1035,-75.5 1035,-56.5 991,-56.5"/>
<text text-anchor="middle" x="1013" y="-63.5" font-family="Helvetica,sans-Serif" font-size="10.00">string</text>
</a>
</g>
</g>
<!-- Node23&#45;&gt;Node25 -->
<g id="edge30" class="edge">
<title>Node23&#45;&gt;Node25</title>
<path fill="none" stroke="midnightblue" d="M870.78,-112.44C900.76,-102.86 949.31,-87.35 981.2,-77.16"/>
<polygon fill="midnightblue" stroke="midnightblue" points="982.46,-80.43 990.92,-74.05 980.33,-73.76 982.46,-80.43"/>
</g>
<!-- Node26 -->
<g id="node26" class="node">
<title>Node26</title>
<g id="a_node26"><a xlink:title=" ">
<polygon fill="white" stroke="#bfbfbf" points="770.5,-56.5 770.5,-75.5 835.5,-75.5 835.5,-56.5 770.5,-56.5"/>
<text text-anchor="middle" x="803" y="-63.5" font-family="Helvetica,sans-Serif" font-size="10.00">typeindex</text>
</a>
</g>
</g>
<!-- Node23&#45;&gt;Node26 -->
<g id="edge31" class="edge">
<title>Node23&#45;&gt;Node26</title>
<path fill="none" stroke="midnightblue" d="M837.23,-112.08C831.44,-104.46 822.94,-93.26 815.86,-83.94"/>
<polygon fill="midnightblue" stroke="midnightblue" points="818.48,-81.6 809.64,-75.75 812.9,-85.83 818.48,-81.6"/>
</g>
<!-- Node27 -->
<g id="node27" class="node">
<title>Node27</title>
<g id="a_node27"><a xlink:title=" ">
<polygon fill="white" stroke="#bfbfbf" points="853.5,-56.5 853.5,-75.5 910.5,-75.5 910.5,-56.5 853.5,-56.5"/>
<text text-anchor="middle" x="882" y="-63.5" font-family="Helvetica,sans-Serif" font-size="10.00">typeinfo</text>
</a>
</g>
</g>
<!-- Node23&#45;&gt;Node27 -->
<g id="edge32" class="edge">
<title>Node23&#45;&gt;Node27</title>
<path fill="none" stroke="midnightblue" d="M850.27,-112.08C855.64,-104.46 863.52,-93.26 870.08,-83.94"/>
<polygon fill="midnightblue" stroke="midnightblue" points="872.95,-85.94 875.84,-75.75 867.22,-81.91 872.95,-85.94"/>
</g>
<!-- Node28&#45;&gt;Node7 -->
<g id="edge34" class="edge">
<title>Node28&#45;&gt;Node7</title>
<path fill="none" stroke="midnightblue" d="M1161.42,-168.32C1176.54,-159.82 1199.82,-146.73 1217.47,-136.8"/>
<polygon fill="midnightblue" stroke="midnightblue" points="1219.61,-139.61 1226.61,-131.65 1216.18,-133.51 1219.61,-139.61"/>
</g>
<!-- Node28&#45;&gt;Node10 -->
<g id="edge36" class="edge">
<title>Node28&#45;&gt;Node10</title>
<path fill="none" stroke="midnightblue" d="M1132.34,-168.32C1119.08,-159.9 1098.73,-146.97 1083.15,-137.07"/>
<polygon fill="midnightblue" stroke="midnightblue" points="1084.94,-134.06 1074.62,-131.65 1081.19,-139.97 1084.94,-134.06"/>
</g>
<!-- Node28&#45;&gt;Node14 -->
<g id="edge35" class="edge">
<title>Node28&#45;&gt;Node14</title>
<path fill="none" stroke="midnightblue" d="M1145.32,-168.18C1143.9,-154.84 1139.62,-129.28 1127,-112 1100.75,-76.06 1085.11,-73.02 1044,-56 982.02,-30.34 904.57,-19.1 856.7,-14.33"/>
<polygon fill="midnightblue" stroke="midnightblue" points="856.94,-10.84 846.66,-13.38 856.29,-17.8 856.94,-10.84"/>
</g>
<!-- Node29&#45;&gt;Node6 -->
<g id="edge38" class="edge">
<title>Node29&#45;&gt;Node6</title>
<path fill="none" stroke="midnightblue" d="M782.82,-285.98C767.93,-276.34 743.46,-260.52 725.73,-249.05"/>
<polygon fill="midnightblue" stroke="midnightblue" points="727.45,-246 717.16,-243.51 723.65,-251.88 727.45,-246"/>
</g>
<!-- Node29&#45;&gt;Node12 -->
<g id="edge39" class="edge">
<title>Node29&#45;&gt;Node12</title>
<path fill="none" stroke="midnightblue" d="M796.14,-285.98C796.28,-277.58 796.5,-264.48 796.69,-253.66"/>
<polygon fill="midnightblue" stroke="midnightblue" points="800.19,-253.57 796.86,-243.51 793.19,-253.45 800.19,-253.57"/>
</g>
<!-- Node30&#45;&gt;Node12 -->
<g id="edge41" class="edge">
<title>Node30&#45;&gt;Node12</title>
<path fill="none" stroke="midnightblue" d="M923.8,-285.98C898.63,-275.86 856.46,-258.9 827.72,-247.35"/>
<polygon fill="midnightblue" stroke="midnightblue" points="828.75,-243.99 818.17,-243.51 826.14,-250.49 828.75,-243.99"/>
</g>
<!-- Node31&#45;&gt;Node6 -->
<g id="edge44" class="edge">
<title>Node31&#45;&gt;Node6</title>
<path fill="none" stroke="midnightblue" d="M777.77,-459.49C759.43,-452.69 737.27,-441.22 725,-423 689.58,-370.4 695.65,-290.18 700.77,-253.94"/>
<polygon fill="midnightblue" stroke="midnightblue" points="704.26,-254.23 702.34,-243.81 697.35,-253.16 704.26,-254.23"/>
</g>
<!-- Node31&#45;&gt;Node9 -->
<g id="edge46" class="edge">
<title>Node31&#45;&gt;Node9</title>
<path fill="none" stroke="midnightblue" d="M808,-459.08C808,-452.01 808,-441.86 808,-432.99"/>
<polygon fill="midnightblue" stroke="midnightblue" points="811.5,-432.75 808,-422.75 804.5,-432.75 811.5,-432.75"/>
</g>
<!-- Node31&#45;&gt;Node14 -->
<g id="edge45" class="edge">
<title>Node31&#45;&gt;Node14</title>
<path fill="none" stroke="midnightblue" d="M828.32,-459.41C864.48,-443.69 941.64,-408.09 1000,-367 1030.09,-345.81 1035.05,-337.09 1061,-311 1097.83,-273.97 1096.45,-252.84 1140,-224 1180.43,-197.23 1205.52,-218.77 1243,-188 1271.46,-164.64 1298.18,-141.4 1276,-112 1225.55,-45.12 962.77,-20.77 856.58,-13.58"/>
<polygon fill="midnightblue" stroke="midnightblue" points="856.72,-10.08 846.51,-12.92 856.26,-17.07 856.72,-10.08"/>
</g>
<!-- Node31&#45;&gt;Node16 -->
<g id="edge47" class="edge">
<title>Node31&#45;&gt;Node16</title>
<path fill="none" stroke="midnightblue" d="M778.53,-459.37C757.67,-452.17 729.97,-440.27 710,-423 659.32,-379.17 628,-363.5 628,-296.5 628,-296.5 628,-296.5 628,-233 628,-199.86 616.3,-162.68 608.3,-141.14"/>
<polygon fill="midnightblue" stroke="midnightblue" points="611.51,-139.73 604.64,-131.66 604.98,-142.25 611.51,-139.73"/>
</g>
<!-- Node32 -->
<g id="node32" class="node">
<title>Node32</title>
<g id="a_node32"><a xlink:href="to__underlying_8hpp.html" target="_top" xlink:title="Definition of to_underlying function template.">
<polygon fill="white" stroke="black" points="1140,-403.5 1140,-422.5 1284,-422.5 1284,-403.5 1140,-403.5"/>
<text text-anchor="middle" x="1212" y="-410.5" font-family="Helvetica,sans-Serif" font-size="10.00">playrho/to_underlying.hpp</text>
</a>
</g>
</g>
<!-- Node31&#45;&gt;Node32 -->
<g id="edge48" class="edge">
<title>Node31&#45;&gt;Node32</title>
<path fill="none" stroke="midnightblue" d="M859.58,-461.11C930.16,-451.67 1057.27,-434.68 1138,-423.89"/>
<polygon fill="midnightblue" stroke="midnightblue" points="1138.65,-427.34 1148.09,-422.54 1137.72,-420.4 1138.65,-427.34"/>
</g>
<!-- Node33 -->
<g id="node33" class="node">
<title>Node33</title>
<g id="a_node33"><a xlink:href="underlying__type_8hpp.html" target="_top" xlink:title="Definition of underlying_type trait class and related code.">
<polygon fill="white" stroke="black" points="1144.5,-280.5 1144.5,-310.5 1283.5,-310.5 1283.5,-280.5 1144.5,-280.5"/>
<text text-anchor="start" x="1152.5" y="-298.5" font-family="Helvetica,sans-Serif" font-size="10.00">playrho/detail/underlying</text>
<text text-anchor="middle" x="1214" y="-287.5" font-family="Helvetica,sans-Serif" font-size="10.00">_type.hpp</text>
</a>
</g>
</g>
<!-- Node32&#45;&gt;Node33 -->
<g id="edge49" class="edge">
<title>Node32&#45;&gt;Node33</title>
<path fill="none" stroke="midnightblue" d="M1212.15,-403.32C1212.45,-385.97 1213.13,-346.46 1213.58,-320.66"/>
<polygon fill="midnightblue" stroke="midnightblue" points="1217.08,-320.6 1213.76,-310.55 1210.08,-320.48 1217.08,-320.6"/>
</g>
<!-- Node33&#45;&gt;Node14 -->
<g id="edge50" class="edge">
<title>Node33&#45;&gt;Node14</title>
<path fill="none" stroke="midnightblue" d="M1256.6,-280.35C1298.43,-263.46 1356,-230.8 1356,-179 1356,-179 1356,-179 1356,-121 1356,-90.2 1356.48,-74.68 1332,-56 1294.63,-27.49 976.24,-15.63 856.92,-12.16"/>
<polygon fill="midnightblue" stroke="midnightblue" points="856.77,-8.66 846.67,-11.87 856.57,-15.66 856.77,-8.66"/>
</g>
<!-- Node34&#45;&gt;Node28 -->
<g id="edge52" class="edge">
<title>Node34&#45;&gt;Node28</title>
<path fill="none" stroke="midnightblue" d="M1202.24,-224.32C1192.23,-216.26 1177.11,-204.08 1165.07,-194.37"/>
<polygon fill="midnightblue" stroke="midnightblue" points="1166.94,-191.38 1156.96,-187.83 1162.55,-196.83 1166.94,-191.38"/>
</g>
<!-- Node35&#45;&gt;Node3 -->
<g id="edge55" class="edge">
<title>Node35&#45;&gt;Node3</title>
<path fill="none" stroke="midnightblue" d="M354.78,-403.44C383.33,-394.32 428.73,-379.81 460.54,-369.65"/>
<polygon fill="midnightblue" stroke="midnightblue" points="461.89,-372.89 470.35,-366.52 459.76,-366.23 461.89,-372.89"/>
</g>
<!-- Node35&#45;&gt;Node4 -->
<g id="edge54" class="edge">
<title>Node35&#45;&gt;Node4</title>
<path fill="none" stroke="midnightblue" d="M335.65,-403.43C366.28,-369.11 480.43,-241.25 521.31,-195.45"/>
<polygon fill="midnightblue" stroke="midnightblue" points="524.01,-197.69 528.06,-187.9 518.79,-193.02 524.01,-197.69"/>
</g>
<!-- Node35&#45;&gt;Node8 -->
<g id="edge58" class="edge">
<title>Node35&#45;&gt;Node8</title>
<path fill="none" stroke="midnightblue" d="M274.38,-407.78C210.32,-401.82 107.91,-389.13 77,-367 47.89,-346.15 38,-332.31 38,-296.5 38,-296.5 38,-296.5 38,-121 38,-88.95 38,-51.64 38,-29.75"/>
<polygon fill="midnightblue" stroke="midnightblue" points="41.5,-29.56 38,-19.56 34.5,-29.56 41.5,-29.56"/>
</g>
<!-- Node35&#45;&gt;Node11 -->
<g id="edge63" class="edge">
<title>Node35&#45;&gt;Node11</title>
<path fill="none" stroke="midnightblue" d="M381.66,-405.96C472.07,-395.79 654.06,-375.32 748.34,-364.71"/>
<polygon fill="midnightblue" stroke="midnightblue" points="748.74,-368.19 758.29,-363.59 747.96,-361.23 748.74,-368.19"/>
</g>
<!-- Node35&#45;&gt;Node14 -->
<g id="edge56" class="edge">
<title>Node35&#45;&gt;Node14</title>
<path fill="none" stroke="midnightblue" d="M344.06,-403.35C357.82,-395.32 377.5,-382.34 391,-367 476,-270.43 430.41,-195.84 528,-112 598.17,-51.72 706.85,-26.53 767.4,-16.71"/>
<polygon fill="midnightblue" stroke="midnightblue" points="768.06,-20.15 777.4,-15.16 766.99,-13.23 768.06,-20.15"/>
</g>
<!-- Node35&#45;&gt;Node15 -->
<g id="edge60" class="edge">
<title>Node35&#45;&gt;Node15</title>
<path fill="none" stroke="midnightblue" d="M330.69,-403.38C333.51,-394.32 338.08,-379.66 342,-367 361.25,-304.86 383.96,-231.11 394.33,-197.43"/>
<polygon fill="midnightblue" stroke="midnightblue" points="397.75,-198.21 397.35,-187.62 391.06,-196.15 397.75,-198.21"/>
</g>
<!-- Node35&#45;&gt;Node16 -->
<g id="edge64" class="edge">
<title>Node35&#45;&gt;Node16</title>
<path fill="none" stroke="midnightblue" d="M328,-403.31C328,-384.06 328,-336.4 328,-296.5 328,-296.5 328,-296.5 328,-233 328,-200.6 335.07,-187.43 361,-168 386.69,-148.74 466.02,-136.52 526.5,-129.75"/>
<polygon fill="midnightblue" stroke="midnightblue" points="527.24,-133.19 536.8,-128.63 526.48,-126.23 527.24,-133.19"/>
</g>
<!-- Node35&#45;&gt;Node18 -->
<g id="edge59" class="edge">
<title>Node35&#45;&gt;Node18</title>
<path fill="none" stroke="midnightblue" d="M274.39,-408.16C213.87,-402.73 120.49,-390.71 95,-367 71.24,-344.9 76,-328.95 76,-296.5 76,-296.5 76,-296.5 76,-121 76,-78.47 116.89,-43.53 143.85,-25.12"/>
<polygon fill="midnightblue" stroke="midnightblue" points="145.94,-27.93 152.38,-19.52 142.1,-22.08 145.94,-27.93"/>
</g>
<!-- Node35&#45;&gt;Node19 -->
<g id="edge57" class="edge">
<title>Node35&#45;&gt;Node19</title>
<path fill="none" stroke="midnightblue" d="M323.03,-403.34C312.73,-384.53 290,-338.3 290,-296.5 290,-296.5 290,-296.5 290,-121 290,-88.44 298.59,-51.32 304.51,-29.59"/>
<polygon fill="midnightblue" stroke="midnightblue" points="307.94,-30.32 307.3,-19.74 301.21,-28.41 307.94,-30.32"/>
</g>
<!-- Node36 -->
<g id="node36" class="node">
<title>Node36</title>
<g id="a_node36"><a xlink:href="InvalidArgument_8hpp.html" target="_top" xlink:title="Definition of the InvalidArgument class.">
<polygon fill="white" stroke="black" points="104,-347.5 104,-366.5 262,-366.5 262,-347.5 104,-347.5"/>
<text text-anchor="middle" x="183" y="-354.5" font-family="Helvetica,sans-Serif" font-size="10.00">playrho/InvalidArgument.hpp</text>
</a>
</g>
</g>
<!-- Node35&#45;&gt;Node36 -->
<g id="edge61" class="edge">
<title>Node35&#45;&gt;Node36</title>
<path fill="none" stroke="midnightblue" d="M305.02,-403.44C280.84,-394.44 242.58,-380.19 215.35,-370.05"/>
<polygon fill="midnightblue" stroke="midnightblue" points="216.46,-366.73 205.87,-366.52 214.02,-373.29 216.46,-366.73"/>
</g>
<!-- Node37 -->
<g id="node37" class="node">
<title>Node37</title>
<g id="a_node37"><a xlink:title=" ">
<polygon fill="white" stroke="#bfbfbf" points="150.5,-286 150.5,-305 215.5,-305 215.5,-286 150.5,-286"/>
<text text-anchor="middle" x="183" y="-293" font-family="Helvetica,sans-Serif" font-size="10.00">stdexcept</text>
</a>
</g>
</g>
<!-- Node36&#45;&gt;Node37 -->
<g id="edge62" class="edge">
<title>Node36&#45;&gt;Node37</title>
<path fill="none" stroke="midnightblue" d="M183,-347.48C183,-339.08 183,-325.98 183,-315.16"/>
<polygon fill="midnightblue" stroke="midnightblue" points="186.5,-315.01 183,-305.01 179.5,-315.01 186.5,-315.01"/>
</g>
</g>
</svg>
        <g id="navigator" transform="translate(0 0)" fill="#404254">
                <rect fill="#f2f5e9" fill-opacity="0.5" stroke="#606060" stroke-width=".5" x="0" y="0" width="60" height="60"/>
                <use id="zoomplus" xlink:href="#zoomPlus" x="17" y="9" onmousedown="handleZoom(evt,'in')"/>
                <use id="zoomminus" xlink:href="#zoomMin" x="42" y="9" onmousedown="handleZoom(evt,'out')"/>
                <use id="reset" xlink:href="#resetDef" x="30" y="36" onmousedown="handleReset()"/>
                <g id="arrowUp" xlink:href="#dirArrow" transform="translate(30 24)" onmousedown="handlePan(0,-1)">
                  <use xlink:href="#rim" fill="#404040">
                        <set attributeName="fill" to="#808080" begin="arrowUp.mouseover" end="arrowUp.mouseout"/>
                  </use>
                  <path fill="none" stroke="white" stroke-width="1.5" d="M0,-3.0v7 M-2.5,-0.5L0,-3.0L2.5,-0.5"/>
                </g>
                <g id="arrowRight" xlink:href="#dirArrow" transform="rotate(90) translate(36 -43)" onmousedown="handlePan(1,0)">
                  <use xlink:href="#rim" fill="#404040">
                        <set attributeName="fill" to="#808080" begin="arrowRight.mouseover" end="arrowRight.mouseout"/>
                  </use>
                  <path fill="none" stroke="white" stroke-width="1.5" d="M0,-3.0v7 M-2.5,-0.5L0,-3.0L2.5,-0.5"/>
                </g>
                <g id="arrowDown" xlink:href="#dirArrow" transform="rotate(180) translate(-30 -48)" onmousedown="handlePan(0,1)">
                  <use xlink:href="#rim" fill="#404040">
                        <set attributeName="fill" to="#808080" begin="arrowDown.mouseover" end="arrowDown.mouseout"/>
                  </use>
                  <path fill="none" stroke="white" stroke-width="1.5" d="M0,-3.0v7 M-2.5,-0.5L0,-3.0L2.5,-0.5"/>
                </g>
                <g id="arrowLeft" xlink:href="#dirArrow" transform="rotate(270) translate(-36 17)" onmousedown="handlePan(-1,0)">
                  <use xlink:href="#rim" fill="#404040">
                        <set attributeName="fill" to="#808080" begin="arrowLeft.mouseover" end="arrowLeft.mouseout"/>
                  </use>
                  <path fill="none" stroke="white" stroke-width="1.5" d="M0,-3.0v7 M-2.5,-0.5L0,-3.0L2.5,-0.5"/>
                </g>
        </g>
        <svg viewBox="0 0 15 15" width="100%" height="30px" preserveAspectRatio="xMaxYMin meet">
         <g id="arrow_out" transform="scale(0.3 0.3)">
          <a xlink:href="Vector2_8hpp__incl_org.svg" target="_base">
           <rect id="button" ry="5" rx="5" y="6" x="6" height="38" width="38"
                fill="#f2f5e9" fill-opacity="0.5" stroke="#606060" stroke-width="1.0"/>
           <path id="arrow"
             d="M 11.500037,31.436501 C 11.940474,20.09759 22.043105,11.32322 32.158766,21.979434 L 37.068811,17.246167 C 37.068811,17.246167 37.088388,32 37.088388,32 L 22.160133,31.978069 C 22.160133,31.978069 26.997745,27.140456 26.997745,27.140456 C 18.528582,18.264221 13.291696,25.230495 11.500037,31.436501 z"
             style="fill:#404040;"/>
          </a>
         </g>
        </svg>
</svg>
