<?xml version="1.0" encoding="UTF-8" standalone="no"?>
<!DOCTYPE svg PUBLIC "-//W3C//DTD SVG 1.1//EN"
 "http://www.w3.org/Graphics/SVG/1.1/DTD/svg11.dtd">
<!-- Generated by graphviz version 2.43.0 (0)
 -->
<!-- Title: Library/include/playrho/Vector3.hpp Pages: 1 -->
<!--zoomable 599 -->
<svg id="main" version="1.1" xmlns="http://www.w3.org/2000/svg" xmlns:xlink="http://www.w3.org/1999/xlink" xml:space="preserve" onload="init(evt)">
<style type="text/css"><![CDATA[
.edge:hover path { stroke: red; }
.edge:hover polygon { stroke: red; fill: red; }
]]></style>
<script type="text/javascript"><![CDATA[
var edges = document.getElementsByTagName('g');
if (edges && edges.length) {
  for (var i=0;i<edges.length;i++) {
    if (edges[i].id.substr(0,4)=='edge') {
      edges[i].setAttribute('class','edge');
    }
  }
}
]]></script>
        <defs>
                <circle id="rim" cx="0" cy="0" r="7"/>
                <circle id="rim2" cx="0" cy="0" r="3.5"/>
                <g id="zoomPlus">
                        <use xlink:href="#rim" fill="#404040">
                                <set attributeName="fill" to="#808080" begin="zoomplus.mouseover" end="zoomplus.mouseout"/>
                        </use>
                        <path d="M-4,0h8M0,-4v8" fill="none" stroke="white" stroke-width="1.5" pointer-events="none"/>
                </g>
                <g id="zoomMin">
                        <use xlink:href="#rim" fill="#404040">
                                <set attributeName="fill" to="#808080" begin="zoomminus.mouseover" end="zoomminus.mouseout"/>
                        </use>
                        <path d="M-4,0h8" fill="none" stroke="white" stroke-width="1.5" pointer-events="none"/>
                </g>
                <g id="dirArrow">
                        <path fill="none" stroke="white" stroke-width="1.5" d="M0,-3.0v7 M-2.5,-0.5L0,-3.0L2.5,-0.5"/>
                </g>
               <g id="resetDef">
                       <use xlink:href="#rim2" fill="#404040">
                               <set attributeName="fill" to="#808080" begin="reset.mouseover" end="reset.mouseout"/>
                       </use>
               </g>
        </defs>

<script type="text/javascript">
var viewWidth = 1356;
var viewHeight = 599;
var sectionId = 'dynsection-0';
</script>
<script xlink:href="svgpan.js"/>
<svg id="graph" class="graph">
<g id="viewport">
<title>Library/include/playrho/Vector3.hpp</title>
<polygon fill="white" stroke="transparent" points="-4,4 -4,-595 1352,-595 1352,4 -4,4"/>
<!-- Node1 -->
<g id="node1" class="node">
<title>Node1</title>
<g id="a_node1"><a xlink:title="Definition of the Vector3 alias template and closely related code.">
<polygon fill="#bfbfbf" stroke="black" points="768,-560.5 768,-590.5 896,-590.5 896,-560.5 768,-560.5"/>
<text text-anchor="start" x="776" y="-578.5" font-family="Helvetica,sans-Serif" font-size="10.00">Library/include/playrho</text>
<text text-anchor="middle" x="832" y="-567.5" font-family="Helvetica,sans-Serif" font-size="10.00">/Vector3.hpp</text>
</a>
</g>
</g>
<!-- Node2 -->
<g id="node2" class="node">
<title>Node2</title>
<g id="a_node2"><a xlink:href="Settings_8hpp.html" target="_top" xlink:title="Types and default settings file.">
<polygon fill="white" stroke="black" points="623.5,-504.5 623.5,-523.5 740.5,-523.5 740.5,-504.5 623.5,-504.5"/>
<text text-anchor="middle" x="682" y="-511.5" font-family="Helvetica,sans-Serif" font-size="10.00">playrho/Settings.hpp</text>
</a>
</g>
</g>
<!-- Node1&#45;&gt;Node2 -->
<g id="edge1" class="edge">
<title>Node1&#45;&gt;Node2</title>
<path fill="none" stroke="midnightblue" d="M796.45,-560.4C771.17,-550.37 737.53,-537.03 713.27,-527.4"/>
<polygon fill="midnightblue" stroke="midnightblue" points="714.41,-524.09 703.83,-523.66 711.83,-530.6 714.41,-524.09"/>
</g>
<!-- Node33 -->
<g id="node33" class="node">
<title>Node33</title>
<g id="a_node33"><a xlink:href="Vector_8hpp.html" target="_top" xlink:title="Definition of the Vector class template and closely related code.">
<polygon fill="white" stroke="black" points="928.5,-392.5 928.5,-411.5 1035.5,-411.5 1035.5,-392.5 928.5,-392.5"/>
<text text-anchor="middle" x="982" y="-399.5" font-family="Helvetica,sans-Serif" font-size="10.00">playrho/Vector.hpp</text>
</a>
</g>
</g>
<!-- Node1&#45;&gt;Node33 -->
<g id="edge50" class="edge">
<title>Node1&#45;&gt;Node33</title>
<path fill="none" stroke="midnightblue" d="M844.28,-560.47C871.77,-529.03 938.16,-453.12 967.57,-419.5"/>
<polygon fill="midnightblue" stroke="midnightblue" points="970.56,-421.39 974.51,-411.56 965.3,-416.78 970.56,-421.39"/>
</g>
<!-- Node3 -->
<g id="node3" class="node">
<title>Node3</title>
<g id="a_node3"><a xlink:title=" ">
<polygon fill="white" stroke="#bfbfbf" points="824.5,-336.5 824.5,-355.5 877.5,-355.5 877.5,-336.5 824.5,-336.5"/>
<text text-anchor="middle" x="851" y="-343.5" font-family="Helvetica,sans-Serif" font-size="10.00">cstddef</text>
</a>
</g>
</g>
<!-- Node2&#45;&gt;Node3 -->
<g id="edge2" class="edge">
<title>Node2&#45;&gt;Node3</title>
<path fill="none" stroke="midnightblue" d="M739.03,-504.45C763.67,-498.11 791.12,-487.1 810,-468 837.85,-439.83 846.79,-392.09 849.66,-365.78"/>
<polygon fill="midnightblue" stroke="midnightblue" points="853.16,-365.92 850.57,-355.64 846.19,-365.29 853.16,-365.92"/>
</g>
<!-- Node4 -->
<g id="node4" class="node">
<title>Node4</title>
<g id="a_node4"><a xlink:title=" ">
<polygon fill="white" stroke="#bfbfbf" points="748,-168.5 748,-187.5 800,-187.5 800,-168.5 748,-168.5"/>
<text text-anchor="middle" x="774" y="-175.5" font-family="Helvetica,sans-Serif" font-size="10.00">cassert</text>
</a>
</g>
</g>
<!-- Node2&#45;&gt;Node4 -->
<g id="edge3" class="edge">
<title>Node2&#45;&gt;Node4</title>
<path fill="none" stroke="midnightblue" d="M693.54,-504.43C714.8,-487.57 758,-447.8 758,-403 758,-403 758,-403 758,-289 758,-256.63 764.87,-219.44 769.61,-197.66"/>
<polygon fill="midnightblue" stroke="midnightblue" points="773.05,-198.3 771.84,-187.78 766.22,-196.76 773.05,-198.3"/>
</g>
<!-- Node5 -->
<g id="node5" class="node">
<title>Node5</title>
<g id="a_node5"><a xlink:title=" ">
<polygon fill="white" stroke="#bfbfbf" points="488,-448.5 488,-467.5 532,-467.5 532,-448.5 488,-448.5"/>
<text text-anchor="middle" x="510" y="-455.5" font-family="Helvetica,sans-Serif" font-size="10.00">cfloat</text>
</a>
</g>
</g>
<!-- Node2&#45;&gt;Node5 -->
<g id="edge4" class="edge">
<title>Node2&#45;&gt;Node5</title>
<path fill="none" stroke="midnightblue" d="M654.75,-504.44C624.15,-494.84 574.54,-479.26 542.09,-469.07"/>
<polygon fill="midnightblue" stroke="midnightblue" points="542.79,-465.63 532.2,-465.97 540.7,-472.31 542.79,-465.63"/>
</g>
<!-- Node6 -->
<g id="node6" class="node">
<title>Node6</title>
<g id="a_node6"><a xlink:title=" ">
<polygon fill="white" stroke="#bfbfbf" points="620.5,-224.5 620.5,-243.5 667.5,-243.5 667.5,-224.5 620.5,-224.5"/>
<text text-anchor="middle" x="644" y="-231.5" font-family="Helvetica,sans-Serif" font-size="10.00">cmath</text>
</a>
</g>
</g>
<!-- Node2&#45;&gt;Node6 -->
<g id="edge5" class="edge">
<title>Node2&#45;&gt;Node6</title>
<path fill="none" stroke="midnightblue" d="M682,-504.44C682,-485.94 682,-440.81 682,-403 682,-403 682,-403 682,-345 682,-310.81 665.4,-273.76 654.14,-252.57"/>
<polygon fill="midnightblue" stroke="midnightblue" points="657.18,-250.83 649.28,-243.77 651.05,-254.22 657.18,-250.83"/>
</g>
<!-- Node7 -->
<g id="node7" class="node">
<title>Node7</title>
<g id="a_node7"><a xlink:title=" ">
<polygon fill="white" stroke="#bfbfbf" points="361,-112.5 361,-131.5 411,-131.5 411,-112.5 361,-112.5"/>
<text text-anchor="middle" x="386" y="-119.5" font-family="Helvetica,sans-Serif" font-size="10.00">cstdint</text>
</a>
</g>
</g>
<!-- Node2&#45;&gt;Node7 -->
<g id="edge6" class="edge">
<title>Node2&#45;&gt;Node7</title>
<path fill="none" stroke="midnightblue" d="M623.41,-509.57C509.66,-501.29 270,-475.27 270,-403 270,-403 270,-403 270,-345 270,-314.9 274.73,-306.5 289,-280 314.41,-232.8 341.59,-235.2 367,-188 374.84,-173.44 379.8,-155.26 382.68,-141.84"/>
<polygon fill="midnightblue" stroke="midnightblue" points="386.14,-142.34 384.62,-131.86 379.27,-141 386.14,-142.34"/>
</g>
<!-- Node8 -->
<g id="node8" class="node">
<title>Node8</title>
<g id="a_node8"><a xlink:title=" ">
<polygon fill="white" stroke="#bfbfbf" points="1278,-0.5 1278,-19.5 1342,-19.5 1342,-0.5 1278,-0.5"/>
<text text-anchor="middle" x="1310" y="-7.5" font-family="Helvetica,sans-Serif" font-size="10.00">algorithm</text>
</a>
</g>
</g>
<!-- Node2&#45;&gt;Node8 -->
<g id="edge7" class="edge">
<title>Node2&#45;&gt;Node8</title>
<path fill="none" stroke="midnightblue" d="M740.52,-509.47C903.04,-498.88 1348,-464.31 1348,-403 1348,-403 1348,-403 1348,-121 1348,-86.81 1331.4,-49.76 1320.14,-28.57"/>
<polygon fill="midnightblue" stroke="midnightblue" points="1323.18,-26.83 1315.28,-19.77 1317.05,-30.22 1323.18,-26.83"/>
</g>
<!-- Node9 -->
<g id="node9" class="node">
<title>Node9</title>
<g id="a_node9"><a xlink:href="RealConstants_8hpp.html" target="_top" xlink:title="Definitions file for constant expressions of type Real.">
<polygon fill="white" stroke="black" points="386,-392.5 386,-411.5 534,-411.5 534,-392.5 386,-392.5"/>
<text text-anchor="middle" x="460" y="-399.5" font-family="Helvetica,sans-Serif" font-size="10.00">playrho/RealConstants.hpp</text>
</a>
</g>
</g>
<!-- Node2&#45;&gt;Node9 -->
<g id="edge8" class="edge">
<title>Node2&#45;&gt;Node9</title>
<path fill="none" stroke="midnightblue" d="M623.44,-506.67C571.13,-499.86 499.66,-487.33 479,-468 466.4,-456.21 462,-436.57 460.54,-421.96"/>
<polygon fill="midnightblue" stroke="midnightblue" points="464.01,-421.34 459.9,-411.57 457.03,-421.77 464.01,-421.34"/>
</g>
<!-- Node16 -->
<g id="node16" class="node">
<title>Node16</title>
<g id="a_node16"><a xlink:href="Templates_8hpp.html" target="_top" xlink:title="Definitions of miscellaneous template related code.">
<polygon fill="white" stroke="black" points="828,-112.5 828,-131.5 956,-131.5 956,-112.5 828,-112.5"/>
<text text-anchor="middle" x="892" y="-119.5" font-family="Helvetica,sans-Serif" font-size="10.00">playrho/Templates.hpp</text>
</a>
</g>
</g>
<!-- Node2&#45;&gt;Node16 -->
<g id="edge42" class="edge">
<title>Node2&#45;&gt;Node16</title>
<path fill="none" stroke="midnightblue" d="M701,-504.45C716.39,-496.74 737.77,-484.15 752,-468 794.98,-419.23 786.78,-394.56 815,-336 846.75,-270.1 867.86,-258.6 887,-188 891.12,-172.79 892.24,-154.9 892.4,-141.74"/>
<polygon fill="midnightblue" stroke="midnightblue" points="895.9,-141.57 892.35,-131.59 888.9,-141.6 895.9,-141.57"/>
</g>
<!-- Node31 -->
<g id="node31" class="node">
<title>Node31</title>
<g id="a_node31"><a xlink:href="Units_8hpp.html" target="_top" xlink:title="Declarations for physical units possibly backed by strong types.">
<polygon fill="white" stroke="black" points="550.5,-448.5 550.5,-467.5 653.5,-467.5 653.5,-448.5 550.5,-448.5"/>
<text text-anchor="middle" x="602" y="-455.5" font-family="Helvetica,sans-Serif" font-size="10.00">playrho/Units.hpp</text>
</a>
</g>
</g>
<!-- Node2&#45;&gt;Node31 -->
<g id="edge43" class="edge">
<title>Node2&#45;&gt;Node31</title>
<path fill="none" stroke="midnightblue" d="M669.15,-504.32C656.78,-495.98 637.87,-483.21 623.26,-473.35"/>
<polygon fill="midnightblue" stroke="midnightblue" points="625.07,-470.35 614.82,-467.65 621.15,-476.15 625.07,-470.35"/>
</g>
<!-- Node32 -->
<g id="node32" class="node">
<title>Node32</title>
<g id="a_node32"><a xlink:href="WiderType_8hpp.html" target="_top" xlink:title="Definition of the WiderType alias template.">
<polygon fill="white" stroke="black" points="0,-392.5 0,-411.5 128,-411.5 128,-392.5 0,-392.5"/>
<text text-anchor="middle" x="64" y="-399.5" font-family="Helvetica,sans-Serif" font-size="10.00">playrho/WiderType.hpp</text>
</a>
</g>
</g>
<!-- Node2&#45;&gt;Node32 -->
<g id="edge48" class="edge">
<title>Node2&#45;&gt;Node32</title>
<path fill="none" stroke="midnightblue" d="M623.47,-510.91C540.75,-507.03 385.31,-496.35 256,-468 197.24,-455.12 131.35,-430.46 94.05,-415.5"/>
<polygon fill="midnightblue" stroke="midnightblue" points="94.9,-412.06 84.32,-411.55 92.27,-418.55 94.9,-412.06"/>
</g>
<!-- Node10 -->
<g id="node10" class="node">
<title>Node10</title>
<g id="a_node10"><a xlink:href="Defines_8hpp.html" target="_top" xlink:title="Miscellaneous C&#45;preprocessor definitions.">
<polygon fill="white" stroke="black" points="187,-112.5 187,-131.5 301,-131.5 301,-112.5 187,-112.5"/>
<text text-anchor="middle" x="244" y="-119.5" font-family="Helvetica,sans-Serif" font-size="10.00">playrho/Defines.hpp</text>
</a>
</g>
</g>
<!-- Node9&#45;&gt;Node10 -->
<g id="edge9" class="edge">
<title>Node9&#45;&gt;Node10</title>
<path fill="none" stroke="midnightblue" d="M439.4,-392.44C405.21,-377.51 335.87,-344.02 289,-300 245.15,-258.82 230.67,-245.5 213,-188 207.69,-170.72 218.27,-152.22 228.49,-139.39"/>
<polygon fill="midnightblue" stroke="midnightblue" points="231.41,-141.36 235.3,-131.5 226.11,-136.78 231.41,-141.36"/>
</g>
<!-- Node11 -->
<g id="node11" class="node">
<title>Node11</title>
<g id="a_node11"><a xlink:href="Real_8hpp.html" target="_top" xlink:title="Real number definition file.">
<polygon fill="white" stroke="black" points="410.5,-336.5 410.5,-355.5 509.5,-355.5 509.5,-336.5 410.5,-336.5"/>
<text text-anchor="middle" x="460" y="-343.5" font-family="Helvetica,sans-Serif" font-size="10.00">playrho/Real.hpp</text>
</a>
</g>
</g>
<!-- Node9&#45;&gt;Node11 -->
<g id="edge10" class="edge">
<title>Node9&#45;&gt;Node11</title>
<path fill="none" stroke="midnightblue" d="M460,-392.08C460,-385.01 460,-374.86 460,-365.99"/>
<polygon fill="midnightblue" stroke="midnightblue" points="463.5,-365.75 460,-355.75 456.5,-365.75 463.5,-365.75"/>
</g>
<!-- Node12 -->
<g id="node12" class="node">
<title>Node12</title>
<g id="a_node12"><a xlink:href="Fixed_8hpp.html" target="_top" xlink:title="Definition of the Fixed class and closely related code.">
<polygon fill="white" stroke="black" points="499.5,-224.5 499.5,-243.5 602.5,-243.5 602.5,-224.5 499.5,-224.5"/>
<text text-anchor="middle" x="551" y="-231.5" font-family="Helvetica,sans-Serif" font-size="10.00">playrho/Fixed.hpp</text>
</a>
</g>
</g>
<!-- Node11&#45;&gt;Node12 -->
<g id="edge11" class="edge">
<title>Node11&#45;&gt;Node12</title>
<path fill="none" stroke="midnightblue" d="M460.61,-336.12C461.93,-322.71 466.08,-297.06 479,-280 489.51,-266.12 505.65,-255.47 519.99,-248.02"/>
<polygon fill="midnightblue" stroke="midnightblue" points="521.62,-251.12 529.07,-243.59 518.55,-244.83 521.62,-251.12"/>
</g>
<!-- Node29 -->
<g id="node29" class="node">
<title>Node29</title>
<g id="a_node29"><a xlink:href="FixedMath_8hpp.html" target="_top" xlink:title="Conventional math functions for the Fixed class template.">
<polygon fill="white" stroke="black" points="488,-280.5 488,-299.5 616,-299.5 616,-280.5 488,-280.5"/>
<text text-anchor="middle" x="552" y="-287.5" font-family="Helvetica,sans-Serif" font-size="10.00">playrho/FixedMath.hpp</text>
</a>
</g>
</g>
<!-- Node11&#45;&gt;Node29 -->
<g id="edge37" class="edge">
<title>Node11&#45;&gt;Node29</title>
<path fill="none" stroke="midnightblue" d="M474.78,-336.32C489.27,-327.82 511.57,-314.73 528.49,-304.8"/>
<polygon fill="midnightblue" stroke="midnightblue" points="530.4,-307.74 537.26,-299.65 526.86,-301.7 530.4,-307.74"/>
</g>
<!-- Node30 -->
<g id="node30" class="node">
<title>Node30</title>
<g id="a_node30"><a xlink:href="FixedLimits_8hpp.html" target="_top" xlink:title="Specialization of std::numeric_limits for Fixed.">
<polygon fill="white" stroke="black" points="298.5,-280.5 298.5,-299.5 431.5,-299.5 431.5,-280.5 298.5,-280.5"/>
<text text-anchor="middle" x="365" y="-287.5" font-family="Helvetica,sans-Serif" font-size="10.00">playrho/FixedLimits.hpp</text>
</a>
</g>
</g>
<!-- Node11&#45;&gt;Node30 -->
<g id="edge40" class="edge">
<title>Node11&#45;&gt;Node30</title>
<path fill="none" stroke="midnightblue" d="M444.74,-336.32C429.78,-327.82 406.75,-314.73 389.27,-304.8"/>
<polygon fill="midnightblue" stroke="midnightblue" points="390.65,-301.55 380.23,-299.65 387.19,-307.64 390.65,-301.55"/>
</g>
<!-- Node12&#45;&gt;Node4 -->
<g id="edge14" class="edge">
<title>Node12&#45;&gt;Node4</title>
<path fill="none" stroke="midnightblue" d="M586.34,-224.44C627.86,-214.39 696.38,-197.79 738.14,-187.68"/>
<polygon fill="midnightblue" stroke="midnightblue" points="738.99,-191.08 747.89,-185.32 737.35,-184.27 738.99,-191.08"/>
</g>
<!-- Node12&#45;&gt;Node7 -->
<g id="edge12" class="edge">
<title>Node12&#45;&gt;Node7</title>
<path fill="none" stroke="midnightblue" d="M527.12,-224.47C506.74,-216.61 477.16,-203.8 454,-188 433.25,-173.85 412.89,-153.23 399.94,-139.04"/>
<polygon fill="midnightblue" stroke="midnightblue" points="402.49,-136.64 393.22,-131.51 397.27,-141.31 402.49,-136.64"/>
</g>
<!-- Node13 -->
<g id="node13" class="node">
<title>Node13</title>
<g id="a_node13"><a xlink:title=" ">
<polygon fill="white" stroke="#bfbfbf" points="887,-0.5 887,-19.5 931,-19.5 931,-0.5 887,-0.5"/>
<text text-anchor="middle" x="909" y="-7.5" font-family="Helvetica,sans-Serif" font-size="10.00">limits</text>
</a>
</g>
</g>
<!-- Node12&#45;&gt;Node13 -->
<g id="edge13" class="edge">
<title>Node12&#45;&gt;Node13</title>
<path fill="none" stroke="midnightblue" d="M565.14,-224.27C592.03,-207.7 648.66,-172.89 658,-168 692.91,-149.74 704.78,-151.52 739,-132 797.14,-98.84 859.91,-50.51 890.34,-26.19"/>
<polygon fill="midnightblue" stroke="midnightblue" points="892.78,-28.72 898.37,-19.73 888.39,-23.27 892.78,-28.72"/>
</g>
<!-- Node14 -->
<g id="node14" class="node">
<title>Node14</title>
<g id="a_node14"><a xlink:title=" ">
<polygon fill="white" stroke="#bfbfbf" points="433.5,-0.5 433.5,-19.5 502.5,-19.5 502.5,-0.5 433.5,-0.5"/>
<text text-anchor="middle" x="468" y="-7.5" font-family="Helvetica,sans-Serif" font-size="10.00">type_traits</text>
</a>
</g>
</g>
<!-- Node12&#45;&gt;Node14 -->
<g id="edge15" class="edge">
<title>Node12&#45;&gt;Node14</title>
<path fill="none" stroke="midnightblue" d="M530.67,-224.37C515.94,-216.98 496.93,-204.85 487,-188 457.11,-137.27 461.19,-64 465.23,-29.85"/>
<polygon fill="midnightblue" stroke="midnightblue" points="468.75,-29.88 466.6,-19.5 461.82,-28.96 468.75,-29.88"/>
</g>
<!-- Node15 -->
<g id="node15" class="node">
<title>Node15</title>
<g id="a_node15"><a xlink:title=" ">
<polygon fill="white" stroke="#bfbfbf" points="818,-168.5 818,-187.5 878,-187.5 878,-168.5 818,-168.5"/>
<text text-anchor="middle" x="848" y="-175.5" font-family="Helvetica,sans-Serif" font-size="10.00">iostream</text>
</a>
</g>
</g>
<!-- Node12&#45;&gt;Node15 -->
<g id="edge16" class="edge">
<title>Node12&#45;&gt;Node15</title>
<path fill="none" stroke="midnightblue" d="M602.55,-224.85C652.6,-216.75 730.94,-203.57 807.93,-188.13"/>
<polygon fill="midnightblue" stroke="midnightblue" points="808.69,-191.55 817.8,-186.14 807.31,-184.69 808.69,-191.55"/>
</g>
<!-- Node12&#45;&gt;Node16 -->
<g id="edge17" class="edge">
<title>Node12&#45;&gt;Node16</title>
<path fill="none" stroke="midnightblue" d="M571.31,-224.46C612.96,-206.94 704.29,-168.56 706,-168 749.71,-153.65 800.56,-141.66 838.03,-133.67"/>
<polygon fill="midnightblue" stroke="midnightblue" points="839.16,-137.01 848.23,-131.52 837.72,-130.16 839.16,-137.01"/>
</g>
<!-- Node21 -->
<g id="node21" class="node">
<title>Node21</title>
<g id="a_node21"><a xlink:href="TypeInfo_8hpp.html" target="_top" xlink:title="Definition of TypeID class and closely related code.">
<polygon fill="white" stroke="black" points="496.5,-168.5 496.5,-187.5 615.5,-187.5 615.5,-168.5 496.5,-168.5"/>
<text text-anchor="middle" x="556" y="-175.5" font-family="Helvetica,sans-Serif" font-size="10.00">playrho/TypeInfo.hpp</text>
</a>
</g>
</g>
<!-- Node12&#45;&gt;Node21 -->
<g id="edge25" class="edge">
<title>Node12&#45;&gt;Node21</title>
<path fill="none" stroke="midnightblue" d="M551.83,-224.08C552.48,-217.01 553.42,-206.86 554.24,-197.99"/>
<polygon fill="midnightblue" stroke="midnightblue" points="557.75,-198.03 555.19,-187.75 550.78,-197.39 557.75,-198.03"/>
</g>
<!-- Node28 -->
<g id="node28" class="node">
<title>Node28</title>
<g id="a_node28"><a xlink:href="Wider_8hpp.html" target="_top" xlink:title="Definition of the Wider class template and specializations.">
<polygon fill="white" stroke="black" points="222,-168.5 222,-187.5 358,-187.5 358,-168.5 222,-168.5"/>
<text text-anchor="middle" x="290" y="-175.5" font-family="Helvetica,sans-Serif" font-size="10.00">playrho/detail/Wider.hpp</text>
</a>
</g>
</g>
<!-- Node12&#45;&gt;Node28 -->
<g id="edge33" class="edge">
<title>Node12&#45;&gt;Node28</title>
<path fill="none" stroke="midnightblue" d="M509.64,-224.44C463.92,-214.98 390.24,-199.74 340.98,-189.55"/>
<polygon fill="midnightblue" stroke="midnightblue" points="341.66,-186.12 331.16,-187.52 340.25,-192.97 341.66,-186.12"/>
</g>
<!-- Node17 -->
<g id="node17" class="node">
<title>Node17</title>
<g id="a_node17"><a xlink:href="detail_2Templates_8hpp.html" target="_top" xlink:title="Low&#45;level declarations for general class &amp; function templates.">
<polygon fill="white" stroke="black" points="932,-56.5 932,-75.5 1090,-75.5 1090,-56.5 932,-56.5"/>
<text text-anchor="middle" x="1011" y="-63.5" font-family="Helvetica,sans-Serif" font-size="10.00">playrho/detail/Templates.hpp</text>
</a>
</g>
</g>
<!-- Node16&#45;&gt;Node17 -->
<g id="edge18" class="edge">
<title>Node16&#45;&gt;Node17</title>
<path fill="none" stroke="midnightblue" d="M910.86,-112.44C930.27,-103.64 960.73,-89.81 982.96,-79.72"/>
<polygon fill="midnightblue" stroke="midnightblue" points="984.57,-82.84 992.23,-75.52 981.68,-76.46 984.57,-82.84"/>
</g>
<!-- Node17&#45;&gt;Node8 -->
<g id="edge19" class="edge">
<title>Node17&#45;&gt;Node8</title>
<path fill="none" stroke="midnightblue" d="M1058.38,-56.44C1115.92,-46.05 1212.14,-28.67 1267.43,-18.69"/>
<polygon fill="midnightblue" stroke="midnightblue" points="1268.37,-22.08 1277.59,-16.85 1267.13,-15.19 1268.37,-22.08"/>
</g>
<!-- Node17&#45;&gt;Node13 -->
<g id="edge22" class="edge">
<title>Node17&#45;&gt;Node13</title>
<path fill="none" stroke="midnightblue" d="M994.61,-56.32C978.33,-47.7 953.13,-34.36 934.28,-24.39"/>
<polygon fill="midnightblue" stroke="midnightblue" points="935.82,-21.24 925.35,-19.65 932.55,-27.43 935.82,-21.24"/>
</g>
<!-- Node17&#45;&gt;Node14 -->
<g id="edge23" class="edge">
<title>Node17&#45;&gt;Node14</title>
<path fill="none" stroke="midnightblue" d="M931.75,-57.12C816.11,-45.62 604.9,-24.61 512.86,-15.46"/>
<polygon fill="midnightblue" stroke="midnightblue" points="513.06,-11.96 502.76,-14.46 512.37,-18.93 513.06,-11.96"/>
</g>
<!-- Node18 -->
<g id="node18" class="node">
<title>Node18</title>
<g id="a_node18"><a xlink:title=" ">
<polygon fill="white" stroke="#bfbfbf" points="1092.5,-0.5 1092.5,-19.5 1157.5,-19.5 1157.5,-0.5 1092.5,-0.5"/>
<text text-anchor="middle" x="1125" y="-7.5" font-family="Helvetica,sans-Serif" font-size="10.00">functional</text>
</a>
</g>
</g>
<!-- Node17&#45;&gt;Node18 -->
<g id="edge20" class="edge">
<title>Node17&#45;&gt;Node18</title>
<path fill="none" stroke="midnightblue" d="M1029.06,-56.44C1047.57,-47.68 1076.58,-33.94 1097.86,-23.86"/>
<polygon fill="midnightblue" stroke="midnightblue" points="1099.48,-26.96 1107.02,-19.52 1096.49,-20.63 1099.48,-26.96"/>
</g>
<!-- Node19 -->
<g id="node19" class="node">
<title>Node19</title>
<g id="a_node19"><a xlink:title=" ">
<polygon fill="white" stroke="#bfbfbf" points="1196.5,-0.5 1196.5,-19.5 1249.5,-19.5 1249.5,-0.5 1196.5,-0.5"/>
<text text-anchor="middle" x="1223" y="-7.5" font-family="Helvetica,sans-Serif" font-size="10.00">iterator</text>
</a>
</g>
</g>
<!-- Node17&#45;&gt;Node19 -->
<g id="edge21" class="edge">
<title>Node17&#45;&gt;Node19</title>
<path fill="none" stroke="midnightblue" d="M1044.59,-56.44C1083.26,-46.59 1146.55,-30.47 1186.43,-20.32"/>
<polygon fill="midnightblue" stroke="midnightblue" points="1187.45,-23.67 1196.28,-17.81 1185.72,-16.88 1187.45,-23.67"/>
</g>
<!-- Node20 -->
<g id="node20" class="node">
<title>Node20</title>
<g id="a_node20"><a xlink:title=" ">
<polygon fill="white" stroke="#bfbfbf" points="988.5,-0.5 988.5,-19.5 1033.5,-19.5 1033.5,-0.5 988.5,-0.5"/>
<text text-anchor="middle" x="1011" y="-7.5" font-family="Helvetica,sans-Serif" font-size="10.00">utility</text>
</a>
</g>
</g>
<!-- Node17&#45;&gt;Node20 -->
<g id="edge24" class="edge">
<title>Node17&#45;&gt;Node20</title>
<path fill="none" stroke="midnightblue" d="M1011,-56.08C1011,-49.01 1011,-38.86 1011,-29.99"/>
<polygon fill="midnightblue" stroke="midnightblue" points="1014.5,-29.75 1011,-19.75 1007.5,-29.75 1014.5,-29.75"/>
</g>
<!-- Node21&#45;&gt;Node16 -->
<g id="edge27" class="edge">
<title>Node21&#45;&gt;Node16</title>
<path fill="none" stroke="midnightblue" d="M609.24,-168.44C668.96,-158.85 765.74,-143.29 829.13,-133.1"/>
<polygon fill="midnightblue" stroke="midnightblue" points="829.69,-136.56 839.01,-131.52 828.58,-129.65 829.69,-136.56"/>
</g>
<!-- Node22 -->
<g id="node22" class="node">
<title>Node22</title>
<g id="a_node22"><a xlink:title=" ">
<polygon fill="white" stroke="#bfbfbf" points="514,-112.5 514,-131.5 564,-131.5 564,-112.5 514,-112.5"/>
<text text-anchor="middle" x="539" y="-119.5" font-family="Helvetica,sans-Serif" font-size="10.00">cstring</text>
</a>
</g>
</g>
<!-- Node21&#45;&gt;Node22 -->
<g id="edge26" class="edge">
<title>Node21&#45;&gt;Node22</title>
<path fill="none" stroke="midnightblue" d="M553.19,-168.08C550.92,-160.85 547.63,-150.41 544.79,-141.4"/>
<polygon fill="midnightblue" stroke="midnightblue" points="548.1,-140.24 541.75,-131.75 541.42,-142.34 548.1,-140.24"/>
</g>
<!-- Node23 -->
<g id="node23" class="node">
<title>Node23</title>
<g id="a_node23"><a xlink:href="detail_2TypeInfo_8hpp.html" target="_top" xlink:title="Definition of TypeInfo class template and related code.">
<polygon fill="white" stroke="black" points="581.5,-112.5 581.5,-131.5 730.5,-131.5 730.5,-112.5 581.5,-112.5"/>
<text text-anchor="middle" x="656" y="-119.5" font-family="Helvetica,sans-Serif" font-size="10.00">playrho/detail/TypeInfo.hpp</text>
</a>
</g>
</g>
<!-- Node21&#45;&gt;Node23 -->
<g id="edge28" class="edge">
<title>Node21&#45;&gt;Node23</title>
<path fill="none" stroke="midnightblue" d="M572.07,-168.32C587.96,-159.74 612.51,-146.49 630.96,-136.52"/>
<polygon fill="midnightblue" stroke="midnightblue" points="632.84,-139.49 639.97,-131.65 629.51,-133.33 632.84,-139.49"/>
</g>
<!-- Node24 -->
<g id="node24" class="node">
<title>Node24</title>
<g id="a_node24"><a xlink:title=" ">
<polygon fill="white" stroke="#bfbfbf" points="750,-56.5 750,-75.5 794,-75.5 794,-56.5 750,-56.5"/>
<text text-anchor="middle" x="772" y="-63.5" font-family="Helvetica,sans-Serif" font-size="10.00">regex</text>
</a>
</g>
</g>
<!-- Node23&#45;&gt;Node24 -->
<g id="edge29" class="edge">
<title>Node23&#45;&gt;Node24</title>
<path fill="none" stroke="midnightblue" d="M674.38,-112.44C693.22,-103.68 722.73,-89.94 744.38,-79.86"/>
<polygon fill="midnightblue" stroke="midnightblue" points="746.12,-82.91 753.71,-75.52 743.16,-76.56 746.12,-82.91"/>
</g>
<!-- Node25 -->
<g id="node25" class="node">
<title>Node25</title>
<g id="a_node25"><a xlink:title=" ">
<polygon fill="white" stroke="#bfbfbf" points="529,-56.5 529,-75.5 573,-75.5 573,-56.5 529,-56.5"/>
<text text-anchor="middle" x="551" y="-63.5" font-family="Helvetica,sans-Serif" font-size="10.00">string</text>
</a>
</g>
</g>
<!-- Node23&#45;&gt;Node25 -->
<g id="edge30" class="edge">
<title>Node23&#45;&gt;Node25</title>
<path fill="none" stroke="midnightblue" d="M639.13,-112.32C622.29,-103.66 596.19,-90.24 576.76,-80.25"/>
<polygon fill="midnightblue" stroke="midnightblue" points="578.32,-77.12 567.83,-75.65 575.12,-83.34 578.32,-77.12"/>
</g>
<!-- Node26 -->
<g id="node26" class="node">
<title>Node26</title>
<g id="a_node26"><a xlink:title=" ">
<polygon fill="white" stroke="#bfbfbf" points="591.5,-56.5 591.5,-75.5 656.5,-75.5 656.5,-56.5 591.5,-56.5"/>
<text text-anchor="middle" x="624" y="-63.5" font-family="Helvetica,sans-Serif" font-size="10.00">typeindex</text>
</a>
</g>
</g>
<!-- Node23&#45;&gt;Node26 -->
<g id="edge31" class="edge">
<title>Node23&#45;&gt;Node26</title>
<path fill="none" stroke="midnightblue" d="M650.72,-112.08C646.29,-104.61 639.84,-93.72 634.38,-84.52"/>
<polygon fill="midnightblue" stroke="midnightblue" points="637.29,-82.57 629.19,-75.75 631.27,-86.14 637.29,-82.57"/>
</g>
<!-- Node27 -->
<g id="node27" class="node">
<title>Node27</title>
<g id="a_node27"><a xlink:title=" ">
<polygon fill="white" stroke="#bfbfbf" points="674.5,-56.5 674.5,-75.5 731.5,-75.5 731.5,-56.5 674.5,-56.5"/>
<text text-anchor="middle" x="703" y="-63.5" font-family="Helvetica,sans-Serif" font-size="10.00">typeinfo</text>
</a>
</g>
</g>
<!-- Node23&#45;&gt;Node27 -->
<g id="edge32" class="edge">
<title>Node23&#45;&gt;Node27</title>
<path fill="none" stroke="midnightblue" d="M663.76,-112.08C670.54,-104.3 680.54,-92.8 688.76,-83.37"/>
<polygon fill="midnightblue" stroke="midnightblue" points="691.46,-85.59 695.38,-75.75 686.18,-81 691.46,-85.59"/>
</g>
<!-- Node28&#45;&gt;Node7 -->
<g id="edge34" class="edge">
<title>Node28&#45;&gt;Node7</title>
<path fill="none" stroke="midnightblue" d="M305.42,-168.32C320.54,-159.82 343.82,-146.73 361.47,-136.8"/>
<polygon fill="midnightblue" stroke="midnightblue" points="363.61,-139.61 370.61,-131.65 360.18,-133.51 363.61,-139.61"/>
</g>
<!-- Node28&#45;&gt;Node10 -->
<g id="edge36" class="edge">
<title>Node28&#45;&gt;Node10</title>
<path fill="none" stroke="midnightblue" d="M282.4,-168.08C275.77,-160.3 265.98,-148.8 257.94,-139.37"/>
<polygon fill="midnightblue" stroke="midnightblue" points="260.6,-137.09 251.45,-131.75 255.27,-141.63 260.6,-137.09"/>
</g>
<!-- Node28&#45;&gt;Node14 -->
<g id="edge35" class="edge">
<title>Node28&#45;&gt;Node14</title>
<path fill="none" stroke="midnightblue" d="M297.78,-168.34C309.3,-155.65 331.71,-131.39 352,-112 385.21,-80.26 426.17,-45.57 449.46,-26.23"/>
<polygon fill="midnightblue" stroke="midnightblue" points="452,-28.68 457.47,-19.61 447.54,-23.28 452,-28.68"/>
</g>
<!-- Node29&#45;&gt;Node6 -->
<g id="edge38" class="edge">
<title>Node29&#45;&gt;Node6</title>
<path fill="none" stroke="midnightblue" d="M566.78,-280.32C581.27,-271.82 603.57,-258.73 620.49,-248.8"/>
<polygon fill="midnightblue" stroke="midnightblue" points="622.4,-251.74 629.26,-243.65 618.86,-245.7 622.4,-251.74"/>
</g>
<!-- Node29&#45;&gt;Node12 -->
<g id="edge39" class="edge">
<title>Node29&#45;&gt;Node12</title>
<path fill="none" stroke="midnightblue" d="M551.83,-280.08C551.7,-273.01 551.52,-262.86 551.35,-253.99"/>
<polygon fill="midnightblue" stroke="midnightblue" points="554.85,-253.68 551.16,-243.75 547.85,-253.81 554.85,-253.68"/>
</g>
<!-- Node30&#45;&gt;Node12 -->
<g id="edge41" class="edge">
<title>Node30&#45;&gt;Node12</title>
<path fill="none" stroke="midnightblue" d="M394.47,-280.44C426.17,-271.24 476.73,-256.56 511.77,-246.39"/>
<polygon fill="midnightblue" stroke="midnightblue" points="513.04,-249.67 521.67,-243.52 511.09,-242.94 513.04,-249.67"/>
</g>
<!-- Node31&#45;&gt;Node6 -->
<g id="edge44" class="edge">
<title>Node31&#45;&gt;Node6</title>
<path fill="none" stroke="midnightblue" d="M603.65,-448.3C609.83,-415.63 631.73,-299.87 640.41,-253.96"/>
<polygon fill="midnightblue" stroke="midnightblue" points="643.9,-254.36 642.32,-243.88 637.02,-253.06 643.9,-254.36"/>
</g>
<!-- Node31&#45;&gt;Node9 -->
<g id="edge46" class="edge">
<title>Node31&#45;&gt;Node9</title>
<path fill="none" stroke="midnightblue" d="M579.5,-448.44C555.92,-439.48 518.68,-425.31 492.04,-415.18"/>
<polygon fill="midnightblue" stroke="midnightblue" points="492.99,-411.8 482.4,-411.52 490.5,-418.34 492.99,-411.8"/>
</g>
<!-- Node31&#45;&gt;Node14 -->
<g id="edge45" class="edge">
<title>Node31&#45;&gt;Node14</title>
<path fill="none" stroke="midnightblue" d="M553,-448.5C507.24,-440.25 437.14,-426.83 377,-412 277.59,-387.49 156,-449.38 156,-347 156,-347 156,-347 156,-121 156,-64.98 337.16,-30.46 423.39,-17.21"/>
<polygon fill="midnightblue" stroke="midnightblue" points="424.05,-20.65 433.42,-15.7 423.01,-13.73 424.05,-20.65"/>
</g>
<!-- Node31&#45;&gt;Node16 -->
<g id="edge47" class="edge">
<title>Node31&#45;&gt;Node16</title>
<path fill="none" stroke="midnightblue" d="M623.92,-448.39C658.04,-433.37 720,-398.95 720,-347 720,-347 720,-347 720,-233 720,-202.9 717.74,-189.3 739,-168 759.82,-147.15 789.77,-135.85 817.67,-129.78"/>
<polygon fill="midnightblue" stroke="midnightblue" points="818.7,-133.14 827.83,-127.77 817.34,-126.27 818.7,-133.14"/>
</g>
<!-- Node32&#45;&gt;Node28 -->
<g id="edge49" class="edge">
<title>Node32&#45;&gt;Node28</title>
<path fill="none" stroke="midnightblue" d="M72.86,-392.3C106.82,-358.94 229,-238.92 273.57,-195.13"/>
<polygon fill="midnightblue" stroke="midnightblue" points="276.27,-197.39 280.96,-187.88 271.37,-192.39 276.27,-197.39"/>
</g>
<!-- Node33&#45;&gt;Node3 -->
<g id="edge52" class="edge">
<title>Node33&#45;&gt;Node3</title>
<path fill="none" stroke="midnightblue" d="M961.24,-392.44C939.68,-383.56 905.74,-369.56 881.21,-359.45"/>
<polygon fill="midnightblue" stroke="midnightblue" points="882.24,-356.09 871.66,-355.52 879.57,-362.56 882.24,-356.09"/>
</g>
<!-- Node33&#45;&gt;Node4 -->
<g id="edge51" class="edge">
<title>Node33&#45;&gt;Node4</title>
<path fill="none" stroke="midnightblue" d="M973.85,-392.3C942.66,-359.01 830.61,-239.42 789.37,-195.41"/>
<polygon fill="midnightblue" stroke="midnightblue" points="791.71,-192.79 782.32,-187.88 786.61,-197.57 791.71,-192.79"/>
</g>
<!-- Node33&#45;&gt;Node8 -->
<g id="edge55" class="edge">
<title>Node33&#45;&gt;Node8</title>
<path fill="none" stroke="midnightblue" d="M1035.72,-397.29C1106.37,-391.59 1225.87,-378.86 1263,-356 1293.36,-337.31 1310,-326.65 1310,-291 1310,-291 1310,-291 1310,-121 1310,-88.95 1310,-51.64 1310,-29.75"/>
<polygon fill="midnightblue" stroke="midnightblue" points="1313.5,-29.56 1310,-19.56 1306.5,-29.56 1313.5,-29.56"/>
</g>
<!-- Node33&#45;&gt;Node11 -->
<g id="edge60" class="edge">
<title>Node33&#45;&gt;Node11</title>
<path fill="none" stroke="midnightblue" d="M928.1,-395.42C829.89,-385.26 622.46,-363.81 519.95,-353.2"/>
<polygon fill="midnightblue" stroke="midnightblue" points="520.07,-349.7 509.76,-352.15 519.35,-356.66 520.07,-349.7"/>
</g>
<!-- Node33&#45;&gt;Node14 -->
<g id="edge53" class="edge">
<title>Node33&#45;&gt;Node14</title>
<path fill="none" stroke="midnightblue" d="M987.28,-392.23C997.73,-374.04 1020,-330.6 1020,-291 1020,-291 1020,-291 1020,-233 1020,-173.93 1008.68,-151.77 965,-112 898.53,-51.49 621.98,-23.26 512.7,-14.3"/>
<polygon fill="midnightblue" stroke="midnightblue" points="512.91,-10.81 502.66,-13.5 512.35,-17.79 512.91,-10.81"/>
</g>
<!-- Node33&#45;&gt;Node15 -->
<g id="edge57" class="edge">
<title>Node33&#45;&gt;Node15</title>
<path fill="none" stroke="midnightblue" d="M977.6,-392.29C964.3,-366.13 922.85,-286.27 882,-224 875.69,-214.38 868.01,-204.11 861.55,-195.82"/>
<polygon fill="midnightblue" stroke="midnightblue" points="864.08,-193.38 855.13,-187.71 858.59,-197.73 864.08,-193.38"/>
</g>
<!-- Node33&#45;&gt;Node16 -->
<g id="edge61" class="edge">
<title>Node33&#45;&gt;Node16</title>
<path fill="none" stroke="midnightblue" d="M982,-392.44C982,-373.94 982,-328.81 982,-291 982,-291 982,-291 982,-233 982,-190.66 941.56,-155.66 914.9,-137.18"/>
<polygon fill="midnightblue" stroke="midnightblue" points="916.72,-134.19 906.46,-131.56 912.84,-140.02 916.72,-134.19"/>
</g>
<!-- Node33&#45;&gt;Node18 -->
<g id="edge56" class="edge">
<title>Node33&#45;&gt;Node18</title>
<path fill="none" stroke="midnightblue" d="M1035.52,-397.06C1095.96,-391.54 1189.26,-379.44 1215,-356 1237.25,-335.74 1234,-321.1 1234,-291 1234,-291 1234,-291 1234,-121 1234,-75.12 1185.56,-41.53 1153.27,-24.23"/>
<polygon fill="midnightblue" stroke="midnightblue" points="1154.73,-21.04 1144.24,-19.58 1151.53,-27.27 1154.73,-21.04"/>
</g>
<!-- Node33&#45;&gt;Node19 -->
<g id="edge54" class="edge">
<title>Node33&#45;&gt;Node19</title>
<path fill="none" stroke="midnightblue" d="M1035.66,-397.01C1100.72,-391.25 1205.57,-378.71 1237,-356 1263.59,-336.78 1272,-323.81 1272,-291 1272,-291 1272,-291 1272,-121 1272,-85.47 1250.4,-48.63 1235.88,-27.88"/>
<polygon fill="midnightblue" stroke="midnightblue" points="1238.53,-25.57 1229.81,-19.54 1232.87,-29.69 1238.53,-25.57"/>
</g>
<!-- Node34 -->
<g id="node34" class="node">
<title>Node34</title>
<g id="a_node34"><a xlink:href="InvalidArgument_8hpp.html" target="_top" xlink:title="Definition of the InvalidArgument class.">
<polygon fill="white" stroke="black" points="1048,-336.5 1048,-355.5 1206,-355.5 1206,-336.5 1048,-336.5"/>
<text text-anchor="middle" x="1127" y="-343.5" font-family="Helvetica,sans-Serif" font-size="10.00">playrho/InvalidArgument.hpp</text>
</a>
</g>
</g>
<!-- Node33&#45;&gt;Node34 -->
<g id="edge58" class="edge">
<title>Node33&#45;&gt;Node34</title>
<path fill="none" stroke="midnightblue" d="M1004.98,-392.44C1029.16,-383.44 1067.42,-369.19 1094.65,-359.05"/>
<polygon fill="midnightblue" stroke="midnightblue" points="1095.98,-362.29 1104.13,-355.52 1093.54,-355.73 1095.98,-362.29"/>
</g>
<!-- Node35 -->
<g id="node35" class="node">
<title>Node35</title>
<g id="a_node35"><a xlink:title=" ">
<polygon fill="white" stroke="#bfbfbf" points="1094.5,-280.5 1094.5,-299.5 1159.5,-299.5 1159.5,-280.5 1094.5,-280.5"/>
<text text-anchor="middle" x="1127" y="-287.5" font-family="Helvetica,sans-Serif" font-size="10.00">stdexcept</text>
</a>
</g>
</g>
<!-- Node34&#45;&gt;Node35 -->
<g id="edge59" class="edge">
<title>Node34&#45;&gt;Node35</title>
<path fill="none" stroke="midnightblue" d="M1127,-336.08C1127,-329.01 1127,-318.86 1127,-309.99"/>
<polygon fill="midnightblue" stroke="midnightblue" points="1130.5,-309.75 1127,-299.75 1123.5,-309.75 1130.5,-309.75"/>
</g>
</g>
</svg>
        <g id="navigator" transform="translate(0 0)" fill="#404254">
                <rect fill="#f2f5e9" fill-opacity="0.5" stroke="#606060" stroke-width=".5" x="0" y="0" width="60" height="60"/>
                <use id="zoomplus" xlink:href="#zoomPlus" x="17" y="9" onmousedown="handleZoom(evt,'in')"/>
                <use id="zoomminus" xlink:href="#zoomMin" x="42" y="9" onmousedown="handleZoom(evt,'out')"/>
                <use id="reset" xlink:href="#resetDef" x="30" y="36" onmousedown="handleReset()"/>
                <g id="arrowUp" xlink:href="#dirArrow" transform="translate(30 24)" onmousedown="handlePan(0,-1)">
                  <use xlink:href="#rim" fill="#404040">
                        <set attributeName="fill" to="#808080" begin="arrowUp.mouseover" end="arrowUp.mouseout"/>
                  </use>
                  <path fill="none" stroke="white" stroke-width="1.5" d="M0,-3.0v7 M-2.5,-0.5L0,-3.0L2.5,-0.5"/>
                </g>
                <g id="arrowRight" xlink:href="#dirArrow" transform="rotate(90) translate(36 -43)" onmousedown="handlePan(1,0)">
                  <use xlink:href="#rim" fill="#404040">
                        <set attributeName="fill" to="#808080" begin="arrowRight.mouseover" end="arrowRight.mouseout"/>
                  </use>
                  <path fill="none" stroke="white" stroke-width="1.5" d="M0,-3.0v7 M-2.5,-0.5L0,-3.0L2.5,-0.5"/>
                </g>
                <g id="arrowDown" xlink:href="#dirArrow" transform="rotate(180) translate(-30 -48)" onmousedown="handlePan(0,1)">
                  <use xlink:href="#rim" fill="#404040">
                        <set attributeName="fill" to="#808080" begin="arrowDown.mouseover" end="arrowDown.mouseout"/>
                  </use>
                  <path fill="none" stroke="white" stroke-width="1.5" d="M0,-3.0v7 M-2.5,-0.5L0,-3.0L2.5,-0.5"/>
                </g>
                <g id="arrowLeft" xlink:href="#dirArrow" transform="rotate(270) translate(-36 17)" onmousedown="handlePan(-1,0)">
                  <use xlink:href="#rim" fill="#404040">
                        <set attributeName="fill" to="#808080" begin="arrowLeft.mouseover" end="arrowLeft.mouseout"/>
                  </use>
                  <path fill="none" stroke="white" stroke-width="1.5" d="M0,-3.0v7 M-2.5,-0.5L0,-3.0L2.5,-0.5"/>
                </g>
        </g>
        <svg viewBox="0 0 15 15" width="100%" height="30px" preserveAspectRatio="xMaxYMin meet">
         <g id="arrow_out" transform="scale(0.3 0.3)">
          <a xlink:href="Vector3_8hpp__incl_org.svg" target="_base">
           <rect id="button" ry="5" rx="5" y="6" x="6" height="38" width="38"
                fill="#f2f5e9" fill-opacity="0.5" stroke="#606060" stroke-width="1.0"/>
           <path id="arrow"
             d="M 11.500037,31.436501 C 11.940474,20.09759 22.043105,11.32322 32.158766,21.979434 L 37.068811,17.246167 C 37.068811,17.246167 37.088388,32 37.088388,32 L 22.160133,31.978069 C 22.160133,31.978069 26.997745,27.140456 26.997745,27.140456 C 18.528582,18.264221 13.291696,25.230495 11.500037,31.436501 z"
             style="fill:#404040;"/>
          </a>
         </g>
        </svg>
</svg>
