<?xml version="1.0" encoding="UTF-8" standalone="no"?>
<!DOCTYPE svg PUBLIC "-//W3C//DTD SVG 1.1//EN"
 "http://www.w3.org/Graphics/SVG/1.1/DTD/svg11.dtd">
<!-- Generated by graphviz version 2.43.0 (0)
 -->
<!-- Title: Library/include/playrho/Vector2.hpp Pages: 1 -->
<!--zoomable 442 -->
<svg id="main" version="1.1" xmlns="http://www.w3.org/2000/svg" xmlns:xlink="http://www.w3.org/1999/xlink" xml:space="preserve" onload="init(evt)">
<style type="text/css"><![CDATA[
.edge:hover path { stroke: red; }
.edge:hover polygon { stroke: red; fill: red; }
]]></style>
<script type="text/javascript"><![CDATA[
var edges = document.getElementsByTagName('g');
if (edges && edges.length) {
  for (var i=0;i<edges.length;i++) {
    if (edges[i].id.substr(0,4)=='edge') {
      edges[i].setAttribute('class','edge');
    }
  }
}
]]></script>
        <defs>
                <circle id="rim" cx="0" cy="0" r="7"/>
                <circle id="rim2" cx="0" cy="0" r="3.5"/>
                <g id="zoomPlus">
                        <use xlink:href="#rim" fill="#404040">
                                <set attributeName="fill" to="#808080" begin="zoomplus.mouseover" end="zoomplus.mouseout"/>
                        </use>
                        <path d="M-4,0h8M0,-4v8" fill="none" stroke="white" stroke-width="1.5" pointer-events="none"/>
                </g>
                <g id="zoomMin">
                        <use xlink:href="#rim" fill="#404040">
                                <set attributeName="fill" to="#808080" begin="zoomminus.mouseover" end="zoomminus.mouseout"/>
                        </use>
                        <path d="M-4,0h8" fill="none" stroke="white" stroke-width="1.5" pointer-events="none"/>
                </g>
                <g id="dirArrow">
                        <path fill="none" stroke="white" stroke-width="1.5" d="M0,-3.0v7 M-2.5,-0.5L0,-3.0L2.5,-0.5"/>
                </g>
               <g id="resetDef">
                       <use xlink:href="#rim2" fill="#404040">
                               <set attributeName="fill" to="#808080" begin="reset.mouseover" end="reset.mouseout"/>
                       </use>
               </g>
        </defs>

<script type="text/javascript">
var viewWidth = 1458;
var viewHeight = 442;
var sectionId = 'dynsection-0';
</script>
<script xlink:href="svgpan.js"/>
<svg id="graph" class="graph">
<g id="viewport">
<title>Library/include/playrho/Vector2.hpp</title>
<polygon fill="white" stroke="transparent" points="-4,4 -4,-438 1453.96,-438 1453.96,4 -4,4"/>
<!-- Node1 -->
<g id="node1" class="node">
<title>Node1</title>
<g id="a_node1"><a xlink:title="Definition of the Vector2 alias template and closely related code.">
<polygon fill="#bfbfbf" stroke="black" points="986,-403.5 986,-433.5 1114,-433.5 1114,-403.5 986,-403.5"/>
<text text-anchor="start" x="994" y="-421.5" font-family="Helvetica,sans-Serif" font-size="10.00">Library/include/playrho</text>
<text text-anchor="middle" x="1050" y="-410.5" font-family="Helvetica,sans-Serif" font-size="10.00">/Vector2.hpp</text>
</a>
</g>
</g>
<!-- Node2 -->
<g id="node2" class="node">
<title>Node2</title>
<g id="a_node2"><a xlink:href="Real_8hpp.html" target="_top" xlink:title="Real number definition file.">
<polygon fill="white" stroke="black" points="975.5,-179.5 975.5,-198.5 1074.5,-198.5 1074.5,-179.5 975.5,-179.5"/>
<text text-anchor="middle" x="1025" y="-186.5" font-family="Helvetica,sans-Serif" font-size="10.00">playrho/Real.hpp</text>
</a>
</g>
</g>
<!-- Node1&#45;&gt;Node2 -->
<g id="edge1" class="edge">
<title>Node1&#45;&gt;Node2</title>
<path fill="none" stroke="midnightblue" d="M1061.99,-403.32C1087.48,-371.38 1142.01,-292.13 1108,-235 1098.9,-219.72 1082.61,-209.31 1066.86,-202.39"/>
<polygon fill="midnightblue" stroke="midnightblue" points="1067.77,-198.98 1057.18,-198.51 1065.17,-205.48 1067.77,-198.98"/>
</g>
<!-- Node12 -->
<g id="node12" class="node">
<title>Node12</title>
<g id="a_node12"><a xlink:href="Settings_8hpp.html" target="_top" xlink:title="Types and default settings file.">
<polygon fill="white" stroke="black" points="1155.5,-347.5 1155.5,-366.5 1272.5,-366.5 1272.5,-347.5 1155.5,-347.5"/>
<text text-anchor="middle" x="1214" y="-354.5" font-family="Helvetica,sans-Serif" font-size="10.00">playrho/Settings.hpp</text>
</a>
</g>
</g>
<!-- Node1&#45;&gt;Node12 -->
<g id="edge12" class="edge">
<title>Node1&#45;&gt;Node12</title>
<path fill="none" stroke="midnightblue" d="M1088.87,-403.4C1116.75,-393.28 1153.94,-379.79 1180.51,-370.15"/>
<polygon fill="midnightblue" stroke="midnightblue" points="1181.93,-373.36 1190.14,-366.66 1179.54,-366.78 1181.93,-373.36"/>
</g>
<!-- Node15 -->
<g id="node15" class="node">
<title>Node15</title>
<g id="a_node15"><a xlink:href="Units_8hpp.html" target="_top" xlink:title="Declarations for physical units possibly backed by strong types.">
<polygon fill="white" stroke="black" points="845.5,-291.5 845.5,-310.5 948.5,-310.5 948.5,-291.5 845.5,-291.5"/>
<text text-anchor="middle" x="897" y="-298.5" font-family="Helvetica,sans-Serif" font-size="10.00">playrho/Units.hpp</text>
</a>
</g>
</g>
<!-- Node1&#45;&gt;Node15 -->
<g id="edge33" class="edge">
<title>Node1&#45;&gt;Node15</title>
<path fill="none" stroke="midnightblue" d="M1031.24,-403.34C1002.17,-381.39 946.5,-339.37 916.81,-316.95"/>
<polygon fill="midnightblue" stroke="midnightblue" points="918.57,-313.9 908.48,-310.67 914.36,-319.49 918.57,-313.9"/>
</g>
<!-- Node22 -->
<g id="node22" class="node">
<title>Node22</title>
<g id="a_node22"><a xlink:href="Vector_8hpp.html" target="_top" xlink:title="Definition of the Vector class template and closely related code.">
<polygon fill="white" stroke="black" points="265.5,-235.5 265.5,-254.5 372.5,-254.5 372.5,-235.5 265.5,-235.5"/>
<text text-anchor="middle" x="319" y="-242.5" font-family="Helvetica,sans-Serif" font-size="10.00">playrho/Vector.hpp</text>
</a>
</g>
</g>
<!-- Node1&#45;&gt;Node22 -->
<g id="edge34" class="edge">
<title>Node1&#45;&gt;Node22</title>
<path fill="none" stroke="midnightblue" d="M990.18,-403.47C848.09,-370.13 492.68,-286.75 365.32,-256.87"/>
<polygon fill="midnightblue" stroke="midnightblue" points="366.02,-253.44 355.48,-254.56 364.42,-260.25 366.02,-253.44"/>
</g>
<!-- Node3 -->
<g id="node3" class="node">
<title>Node3</title>
<g id="a_node3"><a xlink:title=" ">
<polygon fill="white" stroke="#bfbfbf" points="1052,-123.5 1052,-142.5 1096,-142.5 1096,-123.5 1052,-123.5"/>
<text text-anchor="middle" x="1074" y="-130.5" font-family="Helvetica,sans-Serif" font-size="10.00">limits</text>
</a>
</g>
</g>
<!-- Node2&#45;&gt;Node3 -->
<g id="edge2" class="edge">
<title>Node2&#45;&gt;Node3</title>
<path fill="none" stroke="midnightblue" d="M1033.09,-179.08C1040.16,-171.3 1050.59,-159.8 1059.15,-150.37"/>
<polygon fill="midnightblue" stroke="midnightblue" points="1061.93,-152.51 1066.06,-142.75 1056.75,-147.8 1061.93,-152.51"/>
</g>
<!-- Node4 -->
<g id="node4" class="node">
<title>Node4</title>
<g id="a_node4"><a xlink:href="Templates_8hpp.html" target="_top" xlink:title="Definitions of miscellaneous template related code.">
<polygon fill="white" stroke="black" points="555,-123.5 555,-142.5 683,-142.5 683,-123.5 555,-123.5"/>
<text text-anchor="middle" x="619" y="-130.5" font-family="Helvetica,sans-Serif" font-size="10.00">playrho/Templates.hpp</text>
</a>
</g>
</g>
<!-- Node2&#45;&gt;Node4 -->
<g id="edge3" class="edge">
<title>Node2&#45;&gt;Node4</title>
<path fill="none" stroke="midnightblue" d="M975.22,-181.38C904.68,-172 775.15,-154.77 693.24,-143.87"/>
<polygon fill="midnightblue" stroke="midnightblue" points="693.62,-140.39 683.25,-142.55 692.7,-147.33 693.62,-140.39"/>
</g>
<!-- Node5 -->
<g id="node5" class="node">
<title>Node5</title>
<g id="a_node5"><a xlink:title=" ">
<polygon fill="white" stroke="#bfbfbf" points="549.5,-62 549.5,-81 598.5,-81 598.5,-62 549.5,-62"/>
<text text-anchor="middle" x="574" y="-69" font-family="Helvetica,sans-Serif" font-size="10.00">cstdlib</text>
</a>
</g>
</g>
<!-- Node4&#45;&gt;Node5 -->
<g id="edge4" class="edge">
<title>Node4&#45;&gt;Node5</title>
<path fill="none" stroke="midnightblue" d="M612.55,-123.48C605.8,-114.55 595.03,-100.31 586.59,-89.14"/>
<polygon fill="midnightblue" stroke="midnightblue" points="589.26,-86.87 580.44,-81.01 583.68,-91.1 589.26,-86.87"/>
</g>
<!-- Node6 -->
<g id="node6" class="node">
<title>Node6</title>
<g id="a_node6"><a xlink:title=" ">
<polygon fill="white" stroke="#bfbfbf" points="690.5,-0.5 690.5,-19.5 759.5,-19.5 759.5,-0.5 690.5,-0.5"/>
<text text-anchor="middle" x="725" y="-7.5" font-family="Helvetica,sans-Serif" font-size="10.00">type_traits</text>
</a>
</g>
</g>
<!-- Node4&#45;&gt;Node6 -->
<g id="edge5" class="edge">
<title>Node4&#45;&gt;Node6</title>
<path fill="none" stroke="midnightblue" d="M620.13,-123.03C622.46,-107.71 629.1,-76.18 646,-56 657.92,-41.77 675.56,-31.12 691.14,-23.76"/>
<polygon fill="midnightblue" stroke="midnightblue" points="692.8,-26.86 700.52,-19.6 689.96,-20.46 692.8,-26.86"/>
</g>
<!-- Node7 -->
<g id="node7" class="node">
<title>Node7</title>
<g id="a_node7"><a xlink:href="detail_2Templates_8hpp.html" target="_top" xlink:title="Low&#45;level declarations for general class &amp; function templates.">
<polygon fill="white" stroke="black" points="319,-62 319,-81 477,-81 477,-62 319,-62"/>
<text text-anchor="middle" x="398" y="-69" font-family="Helvetica,sans-Serif" font-size="10.00">playrho/detail/Templates.hpp</text>
</a>
</g>
</g>
<!-- Node4&#45;&gt;Node7 -->
<g id="edge6" class="edge">
<title>Node4&#45;&gt;Node7</title>
<path fill="none" stroke="midnightblue" d="M587.34,-123.48C548.44,-113 482.36,-95.21 439.45,-83.66"/>
<polygon fill="midnightblue" stroke="midnightblue" points="440.17,-80.23 429.61,-81.01 438.35,-86.99 440.17,-80.23"/>
</g>
<!-- Node7&#45;&gt;Node6 -->
<g id="edge10" class="edge">
<title>Node7&#45;&gt;Node6</title>
<path fill="none" stroke="midnightblue" d="M444.85,-61.98C507.62,-50.55 618.25,-30.42 680.04,-19.18"/>
<polygon fill="midnightblue" stroke="midnightblue" points="681.05,-22.56 690.26,-17.32 679.79,-15.67 681.05,-22.56"/>
</g>
<!-- Node8 -->
<g id="node8" class="node">
<title>Node8</title>
<g id="a_node8"><a xlink:title=" ">
<polygon fill="white" stroke="#bfbfbf" points="0,-0.5 0,-19.5 64,-19.5 64,-0.5 0,-0.5"/>
<text text-anchor="middle" x="32" y="-7.5" font-family="Helvetica,sans-Serif" font-size="10.00">algorithm</text>
</a>
</g>
</g>
<!-- Node7&#45;&gt;Node8 -->
<g id="edge7" class="edge">
<title>Node7&#45;&gt;Node8</title>
<path fill="none" stroke="midnightblue" d="M345.56,-61.98C272.58,-50.11 141.78,-28.85 74.51,-17.91"/>
<polygon fill="midnightblue" stroke="midnightblue" points="74.71,-14.4 64.28,-16.25 73.59,-21.31 74.71,-14.4"/>
</g>
<!-- Node9 -->
<g id="node9" class="node">
<title>Node9</title>
<g id="a_node9"><a xlink:title=" ">
<polygon fill="white" stroke="#bfbfbf" points="406.5,-0.5 406.5,-19.5 471.5,-19.5 471.5,-0.5 406.5,-0.5"/>
<text text-anchor="middle" x="439" y="-7.5" font-family="Helvetica,sans-Serif" font-size="10.00">functional</text>
</a>
</g>
</g>
<!-- Node7&#45;&gt;Node9 -->
<g id="edge8" class="edge">
<title>Node7&#45;&gt;Node9</title>
<path fill="none" stroke="midnightblue" d="M403.87,-61.98C409.96,-53.14 419.64,-39.09 427.3,-27.98"/>
<polygon fill="midnightblue" stroke="midnightblue" points="430.34,-29.73 433.14,-19.51 424.58,-25.76 430.34,-29.73"/>
</g>
<!-- Node10 -->
<g id="node10" class="node">
<title>Node10</title>
<g id="a_node10"><a xlink:title=" ">
<polygon fill="white" stroke="#bfbfbf" points="209.5,-0.5 209.5,-19.5 262.5,-19.5 262.5,-0.5 209.5,-0.5"/>
<text text-anchor="middle" x="236" y="-7.5" font-family="Helvetica,sans-Serif" font-size="10.00">iterator</text>
</a>
</g>
</g>
<!-- Node7&#45;&gt;Node10 -->
<g id="edge9" class="edge">
<title>Node7&#45;&gt;Node10</title>
<path fill="none" stroke="midnightblue" d="M374.79,-61.98C347,-51.77 300.28,-34.61 268.81,-23.05"/>
<polygon fill="midnightblue" stroke="midnightblue" points="269.76,-19.67 259.17,-19.51 267.35,-26.24 269.76,-19.67"/>
</g>
<!-- Node11 -->
<g id="node11" class="node">
<title>Node11</title>
<g id="a_node11"><a xlink:title=" ">
<polygon fill="white" stroke="#bfbfbf" points="343.5,-0.5 343.5,-19.5 388.5,-19.5 388.5,-0.5 343.5,-0.5"/>
<text text-anchor="middle" x="366" y="-7.5" font-family="Helvetica,sans-Serif" font-size="10.00">utility</text>
</a>
</g>
</g>
<!-- Node7&#45;&gt;Node11 -->
<g id="edge11" class="edge">
<title>Node7&#45;&gt;Node11</title>
<path fill="none" stroke="midnightblue" d="M393.42,-61.98C388.76,-53.32 381.41,-39.65 375.49,-28.65"/>
<polygon fill="midnightblue" stroke="midnightblue" points="378.4,-26.66 370.58,-19.51 372.23,-29.97 378.4,-26.66"/>
</g>
<!-- Node12&#45;&gt;Node2 -->
<g id="edge16" class="edge">
<title>Node12&#45;&gt;Node2</title>
<path fill="none" stroke="midnightblue" d="M1209.15,-347.25C1194.48,-320.86 1150.95,-243.37 1141,-235 1121.99,-219.02 1096.65,-208.31 1074.51,-201.37"/>
<polygon fill="midnightblue" stroke="midnightblue" points="1075.5,-198.02 1064.92,-198.53 1073.51,-204.73 1075.5,-198.02"/>
</g>
<!-- Node12&#45;&gt;Node3 -->
<g id="edge14" class="edge">
<title>Node12&#45;&gt;Node3</title>
<path fill="none" stroke="midnightblue" d="M1272.7,-354.7C1310.69,-350.87 1358.88,-340 1391,-311 1436.6,-269.83 1472.64,-225.07 1432,-179 1410.59,-154.73 1190.38,-140.32 1106.35,-135.66"/>
<polygon fill="midnightblue" stroke="midnightblue" points="1106.28,-132.16 1096.11,-135.11 1105.9,-139.15 1106.28,-132.16"/>
</g>
<!-- Node12&#45;&gt;Node6 -->
<g id="edge15" class="edge">
<title>Node12&#45;&gt;Node6</title>
<path fill="none" stroke="midnightblue" d="M1212.62,-347.2C1206.75,-312.74 1180.57,-185.79 1105,-123 1005.47,-40.3 846.98,-18.66 769.96,-13"/>
<polygon fill="midnightblue" stroke="midnightblue" points="769.86,-9.49 759.64,-12.31 769.38,-16.47 769.86,-9.49"/>
</g>
<!-- Node13 -->
<g id="node13" class="node">
<title>Node13</title>
<g id="a_node13"><a xlink:title=" ">
<polygon fill="white" stroke="#bfbfbf" points="1373,-179.5 1373,-198.5 1423,-198.5 1423,-179.5 1373,-179.5"/>
<text text-anchor="middle" x="1398" y="-186.5" font-family="Helvetica,sans-Serif" font-size="10.00">cstdint</text>
</a>
</g>
</g>
<!-- Node12&#45;&gt;Node13 -->
<g id="edge13" class="edge">
<title>Node12&#45;&gt;Node13</title>
<path fill="none" stroke="midnightblue" d="M1272.62,-353.25C1305.57,-348.61 1344.98,-337.39 1370,-311 1396.49,-283.06 1399.65,-235.22 1399.13,-208.84"/>
<polygon fill="midnightblue" stroke="midnightblue" points="1402.63,-208.53 1398.73,-198.67 1395.63,-208.81 1402.63,-208.53"/>
</g>
<!-- Node14 -->
<g id="node14" class="node">
<title>Node14</title>
<g id="a_node14"><a xlink:href="RealConstants_8hpp.html" target="_top" xlink:title="Definitions file for constant expressions of type Real.">
<polygon fill="white" stroke="black" points="951,-235.5 951,-254.5 1099,-254.5 1099,-235.5 951,-235.5"/>
<text text-anchor="middle" x="1025" y="-242.5" font-family="Helvetica,sans-Serif" font-size="10.00">playrho/RealConstants.hpp</text>
</a>
</g>
</g>
<!-- Node12&#45;&gt;Node14 -->
<g id="edge17" class="edge">
<title>Node12&#45;&gt;Node14</title>
<path fill="none" stroke="midnightblue" d="M1199.17,-347.37C1166.46,-328.33 1087.91,-282.62 1048.45,-259.65"/>
<polygon fill="midnightblue" stroke="midnightblue" points="1050.16,-256.6 1039.76,-254.59 1046.64,-262.65 1050.16,-256.6"/>
</g>
<!-- Node12&#45;&gt;Node15 -->
<g id="edge19" class="edge">
<title>Node12&#45;&gt;Node15</title>
<path fill="none" stroke="midnightblue" d="M1163.77,-347.44C1107.66,-337.89 1016.87,-322.42 957.05,-312.23"/>
<polygon fill="midnightblue" stroke="midnightblue" points="957.44,-308.75 946.99,-310.52 956.26,-315.65 957.44,-308.75"/>
</g>
<!-- Node19 -->
<g id="node19" class="node">
<title>Node19</title>
<g id="a_node19"><a xlink:href="WiderType_8hpp.html" target="_top" xlink:title="Definition of the WiderType alias template.">
<polygon fill="white" stroke="black" points="1233,-291.5 1233,-310.5 1361,-310.5 1361,-291.5 1233,-291.5"/>
<text text-anchor="middle" x="1297" y="-298.5" font-family="Helvetica,sans-Serif" font-size="10.00">playrho/WiderType.hpp</text>
</a>
</g>
</g>
<!-- Node12&#45;&gt;Node19 -->
<g id="edge28" class="edge">
<title>Node12&#45;&gt;Node19</title>
<path fill="none" stroke="midnightblue" d="M1227.34,-347.32C1240.16,-338.98 1259.78,-326.21 1274.94,-316.35"/>
<polygon fill="midnightblue" stroke="midnightblue" points="1277.22,-319.04 1283.7,-310.65 1273.41,-313.17 1277.22,-319.04"/>
</g>
<!-- Node14&#45;&gt;Node2 -->
<g id="edge18" class="edge">
<title>Node14&#45;&gt;Node2</title>
<path fill="none" stroke="midnightblue" d="M1025,-235.08C1025,-228.01 1025,-217.86 1025,-208.99"/>
<polygon fill="midnightblue" stroke="midnightblue" points="1028.5,-208.75 1025,-198.75 1021.5,-208.75 1028.5,-208.75"/>
</g>
<!-- Node15&#45;&gt;Node2 -->
<g id="edge22" class="edge">
<title>Node15&#45;&gt;Node2</title>
<path fill="none" stroke="midnightblue" d="M901.21,-291.47C908.18,-278.06 923.2,-251.86 942,-235 957.1,-221.46 976.99,-210.5 993.51,-202.78"/>
<polygon fill="midnightblue" stroke="midnightblue" points="995.1,-205.91 1002.79,-198.62 992.23,-199.52 995.1,-205.91"/>
</g>
<!-- Node15&#45;&gt;Node4 -->
<g id="edge24" class="edge">
<title>Node15&#45;&gt;Node4</title>
<path fill="none" stroke="midnightblue" d="M845.47,-297.97C778.34,-294.19 666.21,-283.67 638,-255 611.25,-227.81 612.66,-179.32 615.9,-152.72"/>
<polygon fill="midnightblue" stroke="midnightblue" points="619.37,-153.19 617.32,-142.79 612.44,-152.2 619.37,-153.19"/>
</g>
<!-- Node15&#45;&gt;Node6 -->
<g id="edge21" class="edge">
<title>Node15&#45;&gt;Node6</title>
<path fill="none" stroke="midnightblue" d="M879.65,-291.43C866.08,-283.78 847.91,-271.29 838,-255 791.32,-178.28 854.5,-129.56 803,-56 792.75,-41.36 776.11,-30.83 760.83,-23.65"/>
<polygon fill="midnightblue" stroke="midnightblue" points="762.12,-20.39 751.55,-19.6 759.32,-26.81 762.12,-20.39"/>
</g>
<!-- Node15&#45;&gt;Node14 -->
<g id="edge23" class="edge">
<title>Node15&#45;&gt;Node14</title>
<path fill="none" stroke="midnightblue" d="M917.28,-291.44C938.35,-282.56 971.52,-268.56 995.49,-258.45"/>
<polygon fill="midnightblue" stroke="midnightblue" points="996.96,-261.63 1004.81,-254.52 994.24,-255.18 996.96,-261.63"/>
</g>
<!-- Node16 -->
<g id="node16" class="node">
<title>Node16</title>
<g id="a_node16"><a xlink:title=" ">
<polygon fill="white" stroke="#bfbfbf" points="847.5,-235.5 847.5,-254.5 894.5,-254.5 894.5,-235.5 847.5,-235.5"/>
<text text-anchor="middle" x="871" y="-242.5" font-family="Helvetica,sans-Serif" font-size="10.00">cmath</text>
</a>
</g>
</g>
<!-- Node15&#45;&gt;Node16 -->
<g id="edge20" class="edge">
<title>Node15&#45;&gt;Node16</title>
<path fill="none" stroke="midnightblue" d="M892.71,-291.08C889.15,-283.69 883.98,-272.95 879.58,-263.81"/>
<polygon fill="midnightblue" stroke="midnightblue" points="882.71,-262.24 875.21,-254.75 876.4,-265.28 882.71,-262.24"/>
</g>
<!-- Node17 -->
<g id="node17" class="node">
<title>Node17</title>
<g id="a_node17"><a xlink:href="to__underlying_8hpp.html" target="_top" xlink:title="Definition of to_underlying function template.">
<polygon fill="white" stroke="black" points="647,-235.5 647,-254.5 791,-254.5 791,-235.5 647,-235.5"/>
<text text-anchor="middle" x="719" y="-242.5" font-family="Helvetica,sans-Serif" font-size="10.00">playrho/to_underlying.hpp</text>
</a>
</g>
</g>
<!-- Node15&#45;&gt;Node17 -->
<g id="edge25" class="edge">
<title>Node15&#45;&gt;Node17</title>
<path fill="none" stroke="midnightblue" d="M868.8,-291.44C838.59,-282.28 790.49,-267.69 756.97,-257.52"/>
<polygon fill="midnightblue" stroke="midnightblue" points="757.66,-254.07 747.07,-254.52 755.63,-260.77 757.66,-254.07"/>
</g>
<!-- Node18 -->
<g id="node18" class="node">
<title>Node18</title>
<g id="a_node18"><a xlink:href="underlying__type_8hpp.html" target="_top" xlink:title="Definition of underlying_type trait class and related code.">
<polygon fill="white" stroke="black" points="655.5,-56.5 655.5,-86.5 794.5,-86.5 794.5,-56.5 655.5,-56.5"/>
<text text-anchor="start" x="663.5" y="-74.5" font-family="Helvetica,sans-Serif" font-size="10.00">playrho/detail/underlying</text>
<text text-anchor="middle" x="725" y="-63.5" font-family="Helvetica,sans-Serif" font-size="10.00">_type.hpp</text>
</a>
</g>
</g>
<!-- Node17&#45;&gt;Node18 -->
<g id="edge26" class="edge">
<title>Node17&#45;&gt;Node18</title>
<path fill="none" stroke="midnightblue" d="M719.31,-235.26C720.19,-209.97 722.78,-136.08 724.14,-97.15"/>
<polygon fill="midnightblue" stroke="midnightblue" points="727.65,-96.84 724.5,-86.72 720.65,-96.59 727.65,-96.84"/>
</g>
<!-- Node18&#45;&gt;Node6 -->
<g id="edge27" class="edge">
<title>Node18&#45;&gt;Node6</title>
<path fill="none" stroke="midnightblue" d="M725,-56.4C725,-48.47 725,-38.46 725,-29.86"/>
<polygon fill="midnightblue" stroke="midnightblue" points="728.5,-29.66 725,-19.66 721.5,-29.66 728.5,-29.66"/>
</g>
<!-- Node20 -->
<g id="node20" class="node">
<title>Node20</title>
<g id="a_node20"><a xlink:href="Wider_8hpp.html" target="_top" xlink:title="Definition of the Wider class template and specializations.">
<polygon fill="white" stroke="black" points="1231,-235.5 1231,-254.5 1367,-254.5 1367,-235.5 1231,-235.5"/>
<text text-anchor="middle" x="1299" y="-242.5" font-family="Helvetica,sans-Serif" font-size="10.00">playrho/detail/Wider.hpp</text>
</a>
</g>
</g>
<!-- Node19&#45;&gt;Node20 -->
<g id="edge29" class="edge">
<title>Node19&#45;&gt;Node20</title>
<path fill="none" stroke="midnightblue" d="M1297.33,-291.08C1297.59,-284.01 1297.97,-273.86 1298.3,-264.99"/>
<polygon fill="midnightblue" stroke="midnightblue" points="1301.8,-264.87 1298.68,-254.75 1294.81,-264.61 1301.8,-264.87"/>
</g>
<!-- Node20&#45;&gt;Node6 -->
<g id="edge31" class="edge">
<title>Node20&#45;&gt;Node6</title>
<path fill="none" stroke="midnightblue" d="M1279.56,-235.49C1264.51,-227.95 1244.23,-215.57 1232,-199 1192.59,-145.6 1240.28,-98.13 1189,-56 1157,-29.72 879.64,-16.7 769.66,-12.53"/>
<polygon fill="midnightblue" stroke="midnightblue" points="769.67,-9.03 759.55,-12.16 769.41,-16.03 769.67,-9.03"/>
</g>
<!-- Node20&#45;&gt;Node13 -->
<g id="edge30" class="edge">
<title>Node20&#45;&gt;Node13</title>
<path fill="none" stroke="midnightblue" d="M1314.91,-235.32C1330.64,-226.74 1354.94,-213.49 1373.21,-203.52"/>
<polygon fill="midnightblue" stroke="midnightblue" points="1375.03,-206.52 1382.13,-198.65 1371.68,-200.37 1375.03,-206.52"/>
</g>
<!-- Node21 -->
<g id="node21" class="node">
<title>Node21</title>
<g id="a_node21"><a xlink:href="Defines_8hpp.html" target="_top" xlink:title="Miscellaneous C&#45;preprocessor definitions.">
<polygon fill="white" stroke="black" points="1241,-179.5 1241,-198.5 1355,-198.5 1355,-179.5 1241,-179.5"/>
<text text-anchor="middle" x="1298" y="-186.5" font-family="Helvetica,sans-Serif" font-size="10.00">playrho/Defines.hpp</text>
</a>
</g>
</g>
<!-- Node20&#45;&gt;Node21 -->
<g id="edge32" class="edge">
<title>Node20&#45;&gt;Node21</title>
<path fill="none" stroke="midnightblue" d="M1298.83,-235.08C1298.7,-228.01 1298.52,-217.86 1298.35,-208.99"/>
<polygon fill="midnightblue" stroke="midnightblue" points="1301.85,-208.68 1298.16,-198.75 1294.85,-208.81 1301.85,-208.68"/>
</g>
<!-- Node22&#45;&gt;Node2 -->
<g id="edge44" class="edge">
<title>Node22&#45;&gt;Node2</title>
<path fill="none" stroke="midnightblue" d="M372.64,-239.9C501.85,-230.01 829.63,-204.94 965.05,-194.59"/>
<polygon fill="midnightblue" stroke="midnightblue" points="965.53,-198.06 975.24,-193.81 965,-191.08 965.53,-198.06"/>
</g>
<!-- Node22&#45;&gt;Node4 -->
<g id="edge45" class="edge">
<title>Node22&#45;&gt;Node4</title>
<path fill="none" stroke="midnightblue" d="M372.71,-243.14C423.11,-240.25 499.18,-230.43 557,-199 578.1,-187.53 596.26,-166.33 607.37,-151.26"/>
<polygon fill="midnightblue" stroke="midnightblue" points="610.43,-153 613.34,-142.81 604.71,-148.96 610.43,-153"/>
</g>
<!-- Node22&#45;&gt;Node6 -->
<g id="edge41" class="edge">
<title>Node22&#45;&gt;Node6</title>
<path fill="none" stroke="midnightblue" d="M372.64,-239.24C426.45,-233.28 504.13,-221.07 524,-199 566.79,-151.48 497.74,-104 540,-56 558.25,-35.27 631.51,-22.43 680.18,-16.01"/>
<polygon fill="midnightblue" stroke="midnightblue" points="680.69,-19.47 690.16,-14.74 679.8,-12.53 680.69,-19.47"/>
</g>
<!-- Node22&#45;&gt;Node8 -->
<g id="edge35" class="edge">
<title>Node22&#45;&gt;Node8</title>
<path fill="none" stroke="midnightblue" d="M265.46,-242.21C196.78,-238.71 83.16,-228.52 55,-199 10.57,-152.43 20.64,-67.16 27.84,-29.6"/>
<polygon fill="midnightblue" stroke="midnightblue" points="31.32,-30.07 29.92,-19.57 24.46,-28.65 31.32,-30.07"/>
</g>
<!-- Node22&#45;&gt;Node10 -->
<g id="edge38" class="edge">
<title>Node22&#45;&gt;Node10</title>
<path fill="none" stroke="midnightblue" d="M265.49,-242.14C199.65,-238.59 93.54,-228.35 69,-199 12.78,-131.76 147.44,-54.36 208.18,-24.09"/>
<polygon fill="midnightblue" stroke="midnightblue" points="209.81,-27.19 217.25,-19.65 206.73,-20.9 209.81,-27.19"/>
</g>
<!-- Node23 -->
<g id="node23" class="node">
<title>Node23</title>
<g id="a_node23"><a xlink:title=" ">
<polygon fill="white" stroke="#bfbfbf" points="78,-179.5 78,-198.5 130,-198.5 130,-179.5 78,-179.5"/>
<text text-anchor="middle" x="104" y="-186.5" font-family="Helvetica,sans-Serif" font-size="10.00">cassert</text>
</a>
</g>
</g>
<!-- Node22&#45;&gt;Node23 -->
<g id="edge36" class="edge">
<title>Node22&#45;&gt;Node23</title>
<path fill="none" stroke="midnightblue" d="M284.48,-235.44C250.21,-226.93 195.93,-213.41 140.07,-199.26"/>
<polygon fill="midnightblue" stroke="midnightblue" points="140.92,-195.87 130.37,-196.8 139.2,-202.65 140.92,-195.87"/>
</g>
<!-- Node24 -->
<g id="node24" class="node">
<title>Node24</title>
<g id="a_node24"><a xlink:title=" ">
<polygon fill="white" stroke="#bfbfbf" points="148.5,-179.5 148.5,-198.5 201.5,-198.5 201.5,-179.5 148.5,-179.5"/>
<text text-anchor="middle" x="175" y="-186.5" font-family="Helvetica,sans-Serif" font-size="10.00">cstddef</text>
</a>
</g>
</g>
<!-- Node22&#45;&gt;Node24 -->
<g id="edge37" class="edge">
<title>Node22&#45;&gt;Node24</title>
<path fill="none" stroke="midnightblue" d="M296.18,-235.44C272.17,-226.44 234.17,-212.19 207.13,-202.05"/>
<polygon fill="midnightblue" stroke="midnightblue" points="208.3,-198.75 197.71,-198.52 205.84,-205.3 208.3,-198.75"/>
</g>
<!-- Node25 -->
<g id="node25" class="node">
<title>Node25</title>
<g id="a_node25"><a xlink:title=" ">
<polygon fill="white" stroke="#bfbfbf" points="220,-179.5 220,-198.5 280,-198.5 280,-179.5 220,-179.5"/>
<text text-anchor="middle" x="250" y="-186.5" font-family="Helvetica,sans-Serif" font-size="10.00">iostream</text>
</a>
</g>
</g>
<!-- Node22&#45;&gt;Node25 -->
<g id="edge39" class="edge">
<title>Node22&#45;&gt;Node25</title>
<path fill="none" stroke="midnightblue" d="M307.91,-235.32C297.51,-227.18 281.74,-214.84 269.28,-205.09"/>
<polygon fill="midnightblue" stroke="midnightblue" points="271.32,-202.24 261.29,-198.83 267.01,-207.75 271.32,-202.24"/>
</g>
<!-- Node26 -->
<g id="node26" class="node">
<title>Node26</title>
<g id="a_node26"><a xlink:title=" ">
<polygon fill="white" stroke="#bfbfbf" points="298.5,-179.5 298.5,-198.5 339.5,-198.5 339.5,-179.5 298.5,-179.5"/>
<text text-anchor="middle" x="319" y="-186.5" font-family="Helvetica,sans-Serif" font-size="10.00">tuple</text>
</a>
</g>
</g>
<!-- Node22&#45;&gt;Node26 -->
<g id="edge40" class="edge">
<title>Node22&#45;&gt;Node26</title>
<path fill="none" stroke="midnightblue" d="M319,-235.08C319,-228.01 319,-217.86 319,-208.99"/>
<polygon fill="midnightblue" stroke="midnightblue" points="322.5,-208.75 319,-198.75 315.5,-208.75 322.5,-208.75"/>
</g>
<!-- Node27 -->
<g id="node27" class="node">
<title>Node27</title>
<g id="a_node27"><a xlink:href="InvalidArgument_8hpp.html" target="_top" xlink:title="Definition of the InvalidArgument class.">
<polygon fill="white" stroke="black" points="357,-179.5 357,-198.5 515,-198.5 515,-179.5 357,-179.5"/>
<text text-anchor="middle" x="436" y="-186.5" font-family="Helvetica,sans-Serif" font-size="10.00">playrho/InvalidArgument.hpp</text>
</a>
</g>
</g>
<!-- Node22&#45;&gt;Node27 -->
<g id="edge42" class="edge">
<title>Node22&#45;&gt;Node27</title>
<path fill="none" stroke="midnightblue" d="M337.54,-235.44C356.62,-226.64 386.57,-212.81 408.44,-202.72"/>
<polygon fill="midnightblue" stroke="midnightblue" points="409.93,-205.88 417.55,-198.52 407,-199.53 409.93,-205.88"/>
</g>
<!-- Node28 -->
<g id="node28" class="node">
<title>Node28</title>
<g id="a_node28"><a xlink:title=" ">
<polygon fill="white" stroke="#bfbfbf" points="403.5,-123.5 403.5,-142.5 468.5,-142.5 468.5,-123.5 403.5,-123.5"/>
<text text-anchor="middle" x="436" y="-130.5" font-family="Helvetica,sans-Serif" font-size="10.00">stdexcept</text>
</a>
</g>
</g>
<!-- Node27&#45;&gt;Node28 -->
<g id="edge43" class="edge">
<title>Node27&#45;&gt;Node28</title>
<path fill="none" stroke="midnightblue" d="M436,-179.08C436,-172.01 436,-161.86 436,-152.99"/>
<polygon fill="midnightblue" stroke="midnightblue" points="439.5,-152.75 436,-142.75 432.5,-152.75 439.5,-152.75"/>
</g>
</g>
</svg>
        <g id="navigator" transform="translate(0 0)" fill="#404254">
                <rect fill="#f2f5e9" fill-opacity="0.5" stroke="#606060" stroke-width=".5" x="0" y="0" width="60" height="60"/>
                <use id="zoomplus" xlink:href="#zoomPlus" x="17" y="9" onmousedown="handleZoom(evt,'in')"/>
                <use id="zoomminus" xlink:href="#zoomMin" x="42" y="9" onmousedown="handleZoom(evt,'out')"/>
                <use id="reset" xlink:href="#resetDef" x="30" y="36" onmousedown="handleReset()"/>
                <g id="arrowUp" xlink:href="#dirArrow" transform="translate(30 24)" onmousedown="handlePan(0,-1)">
                  <use xlink:href="#rim" fill="#404040">
                        <set attributeName="fill" to="#808080" begin="arrowUp.mouseover" end="arrowUp.mouseout"/>
                  </use>
                  <path fill="none" stroke="white" stroke-width="1.5" d="M0,-3.0v7 M-2.5,-0.5L0,-3.0L2.5,-0.5"/>
                </g>
                <g id="arrowRight" xlink:href="#dirArrow" transform="rotate(90) translate(36 -43)" onmousedown="handlePan(1,0)">
                  <use xlink:href="#rim" fill="#404040">
                        <set attributeName="fill" to="#808080" begin="arrowRight.mouseover" end="arrowRight.mouseout"/>
                  </use>
                  <path fill="none" stroke="white" stroke-width="1.5" d="M0,-3.0v7 M-2.5,-0.5L0,-3.0L2.5,-0.5"/>
                </g>
                <g id="arrowDown" xlink:href="#dirArrow" transform="rotate(180) translate(-30 -48)" onmousedown="handlePan(0,1)">
                  <use xlink:href="#rim" fill="#404040">
                        <set attributeName="fill" to="#808080" begin="arrowDown.mouseover" end="arrowDown.mouseout"/>
                  </use>
                  <path fill="none" stroke="white" stroke-width="1.5" d="M0,-3.0v7 M-2.5,-0.5L0,-3.0L2.5,-0.5"/>
                </g>
                <g id="arrowLeft" xlink:href="#dirArrow" transform="rotate(270) translate(-36 17)" onmousedown="handlePan(-1,0)">
                  <use xlink:href="#rim" fill="#404040">
                        <set attributeName="fill" to="#808080" begin="arrowLeft.mouseover" end="arrowLeft.mouseout"/>
                  </use>
                  <path fill="none" stroke="white" stroke-width="1.5" d="M0,-3.0v7 M-2.5,-0.5L0,-3.0L2.5,-0.5"/>
                </g>
        </g>
        <svg viewBox="0 0 15 15" width="100%" height="30px" preserveAspectRatio="xMaxYMin meet">
         <g id="arrow_out" transform="scale(0.3 0.3)">
          <a xlink:href="Vector2_8hpp__incl_org.svg" target="_base">
           <rect id="button" ry="5" rx="5" y="6" x="6" height="38" width="38"
                fill="#f2f5e9" fill-opacity="0.5" stroke="#606060" stroke-width="1.0"/>
           <path id="arrow"
             d="M 11.500037,31.436501 C 11.940474,20.09759 22.043105,11.32322 32.158766,21.979434 L 37.068811,17.246167 C 37.068811,17.246167 37.088388,32 37.088388,32 L 22.160133,31.978069 C 22.160133,31.978069 26.997745,27.140456 26.997745,27.140456 C 18.528582,18.264221 13.291696,25.230495 11.500037,31.436501 z"
             style="fill:#404040;"/>
          </a>
         </g>
        </svg>
</svg>
