<?xml version="1.0" encoding="UTF-8" standalone="no"?>
<!DOCTYPE svg PUBLIC "-//W3C//DTD SVG 1.1//EN"
 "http://www.w3.org/Graphics/SVG/1.1/DTD/svg11.dtd">
<!-- Generated by graphviz version 2.43.0 (0)
 -->
<!-- Title: Library/include/playrho/d2/Velocity.hpp Pages: 1 -->
<!--zoomable 498 -->
<svg id="main" version="1.1" xmlns="http://www.w3.org/2000/svg" xmlns:xlink="http://www.w3.org/1999/xlink" xml:space="preserve" onload="init(evt)">
<style type="text/css"><![CDATA[
.edge:hover path { stroke: red; }
.edge:hover polygon { stroke: red; fill: red; }
]]></style>
<script type="text/javascript"><![CDATA[
var edges = document.getElementsByTagName('g');
if (edges && edges.length) {
  for (var i=0;i<edges.length;i++) {
    if (edges[i].id.substr(0,4)=='edge') {
      edges[i].setAttribute('class','edge');
    }
  }
}
]]></script>
        <defs>
                <circle id="rim" cx="0" cy="0" r="7"/>
                <circle id="rim2" cx="0" cy="0" r="3.5"/>
                <g id="zoomPlus">
                        <use xlink:href="#rim" fill="#404040">
                                <set attributeName="fill" to="#808080" begin="zoomplus.mouseover" end="zoomplus.mouseout"/>
                        </use>
                        <path d="M-4,0h8M0,-4v8" fill="none" stroke="white" stroke-width="1.5" pointer-events="none"/>
                </g>
                <g id="zoomMin">
                        <use xlink:href="#rim" fill="#404040">
                                <set attributeName="fill" to="#808080" begin="zoomminus.mouseover" end="zoomminus.mouseout"/>
                        </use>
                        <path d="M-4,0h8" fill="none" stroke="white" stroke-width="1.5" pointer-events="none"/>
                </g>
                <g id="dirArrow">
                        <path fill="none" stroke="white" stroke-width="1.5" d="M0,-3.0v7 M-2.5,-0.5L0,-3.0L2.5,-0.5"/>
                </g>
               <g id="resetDef">
                       <use xlink:href="#rim2" fill="#404040">
                               <set attributeName="fill" to="#808080" begin="reset.mouseover" end="reset.mouseout"/>
                       </use>
               </g>
        </defs>

<script type="text/javascript">
var viewWidth = 1413;
var viewHeight = 498;
var sectionId = 'dynsection-0';
</script>
<script xlink:href="svgpan.js"/>
<svg id="graph" class="graph">
<g id="viewport">
<title>Library/include/playrho/d2/Velocity.hpp</title>
<polygon fill="white" stroke="transparent" points="-4,4 -4,-494 1409,-494 1409,4 -4,4"/>
<!-- Node1 -->
<g id="node1" class="node">
<title>Node1</title>
<g id="a_node1"><a xlink:title="Definition of the Velocity class and closely related code.">
<polygon fill="#bfbfbf" stroke="black" points="428,-459.5 428,-489.5 556,-489.5 556,-459.5 428,-459.5"/>
<text text-anchor="start" x="436" y="-477.5" font-family="Helvetica,sans-Serif" font-size="10.00">Library/include/playrho</text>
<text text-anchor="middle" x="492" y="-466.5" font-family="Helvetica,sans-Serif" font-size="10.00">/d2/Velocity.hpp</text>
</a>
</g>
</g>
<!-- Node2 -->
<g id="node2" class="node">
<title>Node2</title>
<g id="a_node2"><a xlink:title=" ">
<polygon fill="white" stroke="#bfbfbf" points="122.5,-0.5 122.5,-19.5 167.5,-19.5 167.5,-0.5 122.5,-0.5"/>
<text text-anchor="middle" x="145" y="-7.5" font-family="Helvetica,sans-Serif" font-size="10.00">utility</text>
</a>
</g>
</g>
<!-- Node1&#45;&gt;Node2 -->
<g id="edge1" class="edge">
<title>Node1&#45;&gt;Node2</title>
<path fill="none" stroke="midnightblue" d="M427.86,-470.45C326.6,-464.87 134.86,-450.9 73,-423 33.4,-405.14 0,-401.44 0,-358 0,-358 0,-358 0,-132 0,-73.6 70.2,-37.89 112.91,-21.57"/>
<polygon fill="midnightblue" stroke="midnightblue" points="114.16,-24.83 122.34,-18.1 111.75,-18.26 114.16,-24.83"/>
</g>
<!-- Node3 -->
<g id="node3" class="node">
<title>Node3</title>
<g id="a_node3"><a xlink:href="Real_8hpp.html" target="_top" xlink:title="Real number definition file.">
<polygon fill="white" stroke="black" points="712.5,-179.5 712.5,-198.5 811.5,-198.5 811.5,-179.5 712.5,-179.5"/>
<text text-anchor="middle" x="762" y="-186.5" font-family="Helvetica,sans-Serif" font-size="10.00">playrho/Real.hpp</text>
</a>
</g>
</g>
<!-- Node1&#45;&gt;Node3 -->
<g id="edge2" class="edge">
<title>Node1&#45;&gt;Node3</title>
<path fill="none" stroke="midnightblue" d="M492.43,-459.35C494.5,-417.9 506.5,-295.9 576,-235 610.6,-204.69 662.17,-194 702.25,-190.58"/>
<polygon fill="midnightblue" stroke="midnightblue" points="702.71,-194.05 712.43,-189.84 702.2,-187.07 702.71,-194.05"/>
</g>
<!-- Node5 -->
<g id="node5" class="node">
<title>Node5</title>
<g id="a_node5"><a xlink:href="Templates_8hpp.html" target="_top" xlink:title="Definitions of miscellaneous template related code.">
<polygon fill="white" stroke="black" points="490,-123.5 490,-142.5 618,-142.5 618,-123.5 490,-123.5"/>
<text text-anchor="middle" x="554" y="-130.5" font-family="Helvetica,sans-Serif" font-size="10.00">playrho/Templates.hpp</text>
</a>
</g>
</g>
<!-- Node1&#45;&gt;Node5 -->
<g id="edge12" class="edge">
<title>Node1&#45;&gt;Node5</title>
<path fill="none" stroke="midnightblue" d="M427.92,-470.52C302.77,-462.94 38,-437.5 38,-358 38,-358 38,-358 38,-244 38,-205.58 60.82,-196.55 95,-179 160.28,-145.49 367.35,-136.9 479.73,-134.72"/>
<polygon fill="midnightblue" stroke="midnightblue" points="480.03,-138.21 489.97,-134.53 479.91,-131.21 480.03,-138.21"/>
</g>
<!-- Node11 -->
<g id="node11" class="node">
<title>Node11</title>
<g id="a_node11"><a xlink:href="Units_8hpp.html" target="_top" xlink:title="Declarations for physical units possibly backed by strong types.">
<polygon fill="white" stroke="black" points="625.5,-291.5 625.5,-310.5 728.5,-310.5 728.5,-291.5 625.5,-291.5"/>
<text text-anchor="middle" x="677" y="-298.5" font-family="Helvetica,sans-Serif" font-size="10.00">playrho/Units.hpp</text>
</a>
</g>
</g>
<!-- Node1&#45;&gt;Node11 -->
<g id="edge13" class="edge">
<title>Node1&#45;&gt;Node11</title>
<path fill="none" stroke="midnightblue" d="M556.34,-465.97C586.38,-459.3 620.41,-446.72 643,-423 669.87,-394.78 675.8,-347.06 676.93,-320.77"/>
<polygon fill="midnightblue" stroke="midnightblue" points="680.43,-320.72 677.16,-310.64 673.43,-320.55 680.43,-320.72"/>
</g>
<!-- Node16 -->
<g id="node16" class="node">
<title>Node16</title>
<g id="a_node16"><a xlink:href="Vector2_8hpp.html" target="_top" xlink:title="Definition of the Vector2 alias template and closely related code.">
<polygon fill="white" stroke="black" points="520,-403.5 520,-422.5 634,-422.5 634,-403.5 520,-403.5"/>
<text text-anchor="middle" x="577" y="-410.5" font-family="Helvetica,sans-Serif" font-size="10.00">playrho/Vector2.hpp</text>
</a>
</g>
</g>
<!-- Node1&#45;&gt;Node16 -->
<g id="edge23" class="edge">
<title>Node1&#45;&gt;Node16</title>
<path fill="none" stroke="midnightblue" d="M512.14,-459.4C525.39,-450.13 542.68,-438.03 556.08,-428.65"/>
<polygon fill="midnightblue" stroke="midnightblue" points="558.45,-431.26 564.63,-422.66 554.43,-425.53 558.45,-431.26"/>
</g>
<!-- Node4 -->
<g id="node4" class="node">
<title>Node4</title>
<g id="a_node4"><a xlink:title=" ">
<polygon fill="white" stroke="#bfbfbf" points="909,-123.5 909,-142.5 953,-142.5 953,-123.5 909,-123.5"/>
<text text-anchor="middle" x="931" y="-130.5" font-family="Helvetica,sans-Serif" font-size="10.00">limits</text>
</a>
</g>
</g>
<!-- Node3&#45;&gt;Node4 -->
<g id="edge3" class="edge">
<title>Node3&#45;&gt;Node4</title>
<path fill="none" stroke="midnightblue" d="M788.78,-179.44C818.76,-169.86 867.31,-154.35 899.2,-144.16"/>
<polygon fill="midnightblue" stroke="midnightblue" points="900.46,-147.43 908.92,-141.05 898.33,-140.76 900.46,-147.43"/>
</g>
<!-- Node3&#45;&gt;Node5 -->
<g id="edge4" class="edge">
<title>Node3&#45;&gt;Node5</title>
<path fill="none" stroke="midnightblue" d="M729.04,-179.44C693.21,-170.14 635.84,-155.25 596.61,-145.06"/>
<polygon fill="midnightblue" stroke="midnightblue" points="597.36,-141.64 586.8,-142.52 595.6,-148.42 597.36,-141.64"/>
</g>
<!-- Node6 -->
<g id="node6" class="node">
<title>Node6</title>
<g id="a_node6"><a xlink:title=" ">
<polygon fill="white" stroke="#bfbfbf" points="530.5,-62 530.5,-81 579.5,-81 579.5,-62 530.5,-62"/>
<text text-anchor="middle" x="555" y="-69" font-family="Helvetica,sans-Serif" font-size="10.00">cstdlib</text>
</a>
</g>
</g>
<!-- Node5&#45;&gt;Node6 -->
<g id="edge5" class="edge">
<title>Node5&#45;&gt;Node6</title>
<path fill="none" stroke="midnightblue" d="M554.14,-123.48C554.28,-115.08 554.5,-101.98 554.69,-91.16"/>
<polygon fill="midnightblue" stroke="midnightblue" points="558.19,-91.07 554.86,-81.01 551.19,-90.95 558.19,-91.07"/>
</g>
<!-- Node7 -->
<g id="node7" class="node">
<title>Node7</title>
<g id="a_node7"><a xlink:title=" ">
<polygon fill="white" stroke="#bfbfbf" points="846.5,-0.5 846.5,-19.5 915.5,-19.5 915.5,-0.5 846.5,-0.5"/>
<text text-anchor="middle" x="881" y="-7.5" font-family="Helvetica,sans-Serif" font-size="10.00">type_traits</text>
</a>
</g>
</g>
<!-- Node5&#45;&gt;Node7 -->
<g id="edge6" class="edge">
<title>Node5&#45;&gt;Node7</title>
<path fill="none" stroke="midnightblue" d="M564.13,-123.46C583.42,-107.65 627.33,-73.79 670,-56 724.73,-33.18 792.46,-21.37 836.18,-15.69"/>
<polygon fill="midnightblue" stroke="midnightblue" points="836.72,-19.15 846.21,-14.44 835.86,-12.2 836.72,-19.15"/>
</g>
<!-- Node8 -->
<g id="node8" class="node">
<title>Node8</title>
<g id="a_node8"><a xlink:href="detail_2Templates_8hpp.html" target="_top" xlink:title="Low&#45;level declarations for general class &amp; function templates.">
<polygon fill="white" stroke="black" points="355,-62 355,-81 513,-81 513,-62 355,-62"/>
<text text-anchor="middle" x="434" y="-69" font-family="Helvetica,sans-Serif" font-size="10.00">playrho/detail/Templates.hpp</text>
</a>
</g>
</g>
<!-- Node5&#45;&gt;Node8 -->
<g id="edge7" class="edge">
<title>Node5&#45;&gt;Node8</title>
<path fill="none" stroke="midnightblue" d="M536.81,-123.48C516.76,-113.53 483.4,-96.99 460.14,-85.46"/>
<polygon fill="midnightblue" stroke="midnightblue" points="461.68,-82.32 451.16,-81.01 458.57,-88.59 461.68,-82.32"/>
</g>
<!-- Node8&#45;&gt;Node2 -->
<g id="edge11" class="edge">
<title>Node8&#45;&gt;Node2</title>
<path fill="none" stroke="midnightblue" d="M392.59,-61.98C334.65,-50.05 230.56,-28.62 177.71,-17.73"/>
<polygon fill="midnightblue" stroke="midnightblue" points="178.35,-14.29 167.85,-15.7 176.94,-21.15 178.35,-14.29"/>
</g>
<!-- Node8&#45;&gt;Node7 -->
<g id="edge10" class="edge">
<title>Node8&#45;&gt;Node7</title>
<path fill="none" stroke="midnightblue" d="M483.74,-61.96C496.22,-59.91 509.59,-57.8 522,-56 634.94,-39.62 768.38,-23.83 836.35,-16.04"/>
<polygon fill="midnightblue" stroke="midnightblue" points="836.75,-19.51 846.28,-14.9 835.95,-12.56 836.75,-19.51"/>
</g>
<!-- Node9 -->
<g id="node9" class="node">
<title>Node9</title>
<g id="a_node9"><a xlink:title=" ">
<polygon fill="white" stroke="#bfbfbf" points="476,-0.5 476,-19.5 540,-19.5 540,-0.5 476,-0.5"/>
<text text-anchor="middle" x="508" y="-7.5" font-family="Helvetica,sans-Serif" font-size="10.00">algorithm</text>
</a>
</g>
</g>
<!-- Node8&#45;&gt;Node9 -->
<g id="edge8" class="edge">
<title>Node8&#45;&gt;Node9</title>
<path fill="none" stroke="midnightblue" d="M444.6,-61.98C456.25,-52.61 475.19,-37.38 489.33,-26.01"/>
<polygon fill="midnightblue" stroke="midnightblue" points="491.82,-28.5 497.42,-19.51 487.43,-23.05 491.82,-28.5"/>
</g>
<!-- Node10 -->
<g id="node10" class="node">
<title>Node10</title>
<g id="a_node10"><a xlink:title=" ">
<polygon fill="white" stroke="#bfbfbf" points="332.5,-0.5 332.5,-19.5 385.5,-19.5 385.5,-0.5 332.5,-0.5"/>
<text text-anchor="middle" x="359" y="-7.5" font-family="Helvetica,sans-Serif" font-size="10.00">iterator</text>
</a>
</g>
</g>
<!-- Node8&#45;&gt;Node10 -->
<g id="edge9" class="edge">
<title>Node8&#45;&gt;Node10</title>
<path fill="none" stroke="midnightblue" d="M423.25,-61.98C411.45,-52.61 392.26,-37.38 377.92,-26.01"/>
<polygon fill="midnightblue" stroke="midnightblue" points="379.74,-22.98 369.73,-19.51 375.38,-28.47 379.74,-22.98"/>
</g>
<!-- Node11&#45;&gt;Node3 -->
<g id="edge16" class="edge">
<title>Node11&#45;&gt;Node3</title>
<path fill="none" stroke="midnightblue" d="M677.69,-291.19C679.12,-277.86 683.42,-252.31 696,-235 705.74,-221.6 720.75,-210.91 734.01,-203.31"/>
<polygon fill="midnightblue" stroke="midnightblue" points="735.68,-206.39 742.81,-198.56 732.35,-200.23 735.68,-206.39"/>
</g>
<!-- Node11&#45;&gt;Node5 -->
<g id="edge19" class="edge">
<title>Node11&#45;&gt;Node5</title>
<path fill="none" stroke="midnightblue" d="M644.79,-291.38C626.34,-284.65 604.62,-273.3 593,-255 574.87,-226.45 600.81,-210.69 589,-179 585,-168.26 577.46,-158.03 570.4,-150.05"/>
<polygon fill="midnightblue" stroke="midnightblue" points="572.79,-147.48 563.38,-142.61 567.7,-152.29 572.79,-147.48"/>
</g>
<!-- Node11&#45;&gt;Node7 -->
<g id="edge15" class="edge">
<title>Node11&#45;&gt;Node7</title>
<path fill="none" stroke="midnightblue" d="M728.82,-293.26C776.65,-286.03 843.06,-273.09 862,-255 883.76,-234.21 881,-220.1 881,-190 881,-190 881,-190 881,-132 881,-95.71 881,-53.31 881,-29.56"/>
<polygon fill="midnightblue" stroke="midnightblue" points="884.5,-29.51 881,-19.51 877.5,-29.51 884.5,-29.51"/>
</g>
<!-- Node12 -->
<g id="node12" class="node">
<title>Node12</title>
<g id="a_node12"><a xlink:title=" ">
<polygon fill="white" stroke="#bfbfbf" points="601.5,-235.5 601.5,-254.5 648.5,-254.5 648.5,-235.5 601.5,-235.5"/>
<text text-anchor="middle" x="625" y="-242.5" font-family="Helvetica,sans-Serif" font-size="10.00">cmath</text>
</a>
</g>
</g>
<!-- Node11&#45;&gt;Node12 -->
<g id="edge14" class="edge">
<title>Node11&#45;&gt;Node12</title>
<path fill="none" stroke="midnightblue" d="M668.41,-291.08C660.84,-283.22 649.62,-271.57 640.49,-262.08"/>
<polygon fill="midnightblue" stroke="midnightblue" points="642.88,-259.53 633.43,-254.75 637.84,-264.38 642.88,-259.53"/>
</g>
<!-- Node13 -->
<g id="node13" class="node">
<title>Node13</title>
<g id="a_node13"><a xlink:href="RealConstants_8hpp.html" target="_top" xlink:title="Definitions file for constant expressions of type Real.">
<polygon fill="white" stroke="black" points="705,-235.5 705,-254.5 853,-254.5 853,-235.5 705,-235.5"/>
<text text-anchor="middle" x="779" y="-242.5" font-family="Helvetica,sans-Serif" font-size="10.00">playrho/RealConstants.hpp</text>
</a>
</g>
</g>
<!-- Node11&#45;&gt;Node13 -->
<g id="edge17" class="edge">
<title>Node11&#45;&gt;Node13</title>
<path fill="none" stroke="midnightblue" d="M693.39,-291.32C709.67,-282.7 734.87,-269.36 753.72,-259.39"/>
<polygon fill="midnightblue" stroke="midnightblue" points="755.45,-262.43 762.65,-254.65 752.18,-256.24 755.45,-262.43"/>
</g>
<!-- Node14 -->
<g id="node14" class="node">
<title>Node14</title>
<g id="a_node14"><a xlink:href="to__underlying_8hpp.html" target="_top" xlink:title="Definition of to_underlying function template.">
<polygon fill="white" stroke="black" points="909,-235.5 909,-254.5 1053,-254.5 1053,-235.5 909,-235.5"/>
<text text-anchor="middle" x="981" y="-242.5" font-family="Helvetica,sans-Serif" font-size="10.00">playrho/to_underlying.hpp</text>
</a>
</g>
</g>
<!-- Node11&#45;&gt;Node14 -->
<g id="edge20" class="edge">
<title>Node11&#45;&gt;Node14</title>
<path fill="none" stroke="midnightblue" d="M725.17,-291.44C778.87,-281.9 865.69,-266.48 923.05,-256.29"/>
<polygon fill="midnightblue" stroke="midnightblue" points="923.82,-259.71 933.06,-254.52 922.6,-252.82 923.82,-259.71"/>
</g>
<!-- Node13&#45;&gt;Node3 -->
<g id="edge18" class="edge">
<title>Node13&#45;&gt;Node3</title>
<path fill="none" stroke="midnightblue" d="M776.19,-235.08C773.92,-227.85 770.63,-217.41 767.79,-208.4"/>
<polygon fill="midnightblue" stroke="midnightblue" points="771.1,-207.24 764.75,-198.75 764.42,-209.34 771.1,-207.24"/>
</g>
<!-- Node15 -->
<g id="node15" class="node">
<title>Node15</title>
<g id="a_node15"><a xlink:href="underlying__type_8hpp.html" target="_top" xlink:title="Definition of underlying_type trait class and related code.">
<polygon fill="white" stroke="black" points="910.5,-56.5 910.5,-86.5 1049.5,-86.5 1049.5,-56.5 910.5,-56.5"/>
<text text-anchor="start" x="918.5" y="-74.5" font-family="Helvetica,sans-Serif" font-size="10.00">playrho/detail/underlying</text>
<text text-anchor="middle" x="980" y="-63.5" font-family="Helvetica,sans-Serif" font-size="10.00">_type.hpp</text>
</a>
</g>
</g>
<!-- Node14&#45;&gt;Node15 -->
<g id="edge21" class="edge">
<title>Node14&#45;&gt;Node15</title>
<path fill="none" stroke="midnightblue" d="M980.95,-235.26C980.8,-209.97 980.37,-136.08 980.14,-97.15"/>
<polygon fill="midnightblue" stroke="midnightblue" points="983.64,-96.7 980.08,-86.72 976.64,-96.74 983.64,-96.7"/>
</g>
<!-- Node15&#45;&gt;Node7 -->
<g id="edge22" class="edge">
<title>Node15&#45;&gt;Node7</title>
<path fill="none" stroke="midnightblue" d="M956.54,-56.4C940.67,-46.86 919.81,-34.32 904.03,-24.84"/>
<polygon fill="midnightblue" stroke="midnightblue" points="905.78,-21.81 895.41,-19.66 902.17,-27.81 905.78,-21.81"/>
</g>
<!-- Node16&#45;&gt;Node3 -->
<g id="edge24" class="edge">
<title>Node16&#45;&gt;Node3</title>
<path fill="none" stroke="midnightblue" d="M574.71,-403.35C567.86,-375.25 550.45,-285.49 593,-235 607.18,-218.18 659.44,-205.99 702.13,-198.57"/>
<polygon fill="midnightblue" stroke="midnightblue" points="702.91,-201.99 712.19,-196.88 701.75,-195.08 702.91,-201.99"/>
</g>
<!-- Node16&#45;&gt;Node11 -->
<g id="edge37" class="edge">
<title>Node16&#45;&gt;Node11</title>
<path fill="none" stroke="midnightblue" d="M584.85,-403.37C601.57,-384.97 640.94,-341.67 662.41,-318.05"/>
<polygon fill="midnightblue" stroke="midnightblue" points="665.05,-320.35 669.19,-310.59 659.87,-315.64 665.05,-320.35"/>
</g>
<!-- Node17 -->
<g id="node17" class="node">
<title>Node17</title>
<g id="a_node17"><a xlink:href="Settings_8hpp.html" target="_top" xlink:title="Types and default settings file.">
<polygon fill="white" stroke="black" points="1041.5,-347.5 1041.5,-366.5 1158.5,-366.5 1158.5,-347.5 1041.5,-347.5"/>
<text text-anchor="middle" x="1100" y="-354.5" font-family="Helvetica,sans-Serif" font-size="10.00">playrho/Settings.hpp</text>
</a>
</g>
</g>
<!-- Node16&#45;&gt;Node17 -->
<g id="edge25" class="edge">
<title>Node16&#45;&gt;Node17</title>
<path fill="none" stroke="midnightblue" d="M634.22,-406.09C731.05,-396.09 926.84,-375.88 1031.07,-365.12"/>
<polygon fill="midnightblue" stroke="midnightblue" points="1031.58,-368.58 1041.17,-364.07 1030.87,-361.62 1031.58,-368.58"/>
</g>
<!-- Node22 -->
<g id="node22" class="node">
<title>Node22</title>
<g id="a_node22"><a xlink:href="Vector_8hpp.html" target="_top" xlink:title="Definition of the Vector class template and closely related code.">
<polygon fill="white" stroke="black" points="361.5,-235.5 361.5,-254.5 468.5,-254.5 468.5,-235.5 361.5,-235.5"/>
<text text-anchor="middle" x="415" y="-242.5" font-family="Helvetica,sans-Serif" font-size="10.00">playrho/Vector.hpp</text>
</a>
</g>
</g>
<!-- Node16&#45;&gt;Node22 -->
<g id="edge38" class="edge">
<title>Node16&#45;&gt;Node22</title>
<path fill="none" stroke="midnightblue" d="M568.29,-403.08C542.13,-376.27 463.98,-296.19 430.5,-261.89"/>
<polygon fill="midnightblue" stroke="midnightblue" points="432.85,-259.28 423.36,-254.57 427.84,-264.17 432.85,-259.28"/>
</g>
<!-- Node17&#45;&gt;Node3 -->
<g id="edge29" class="edge">
<title>Node17&#45;&gt;Node3</title>
<path fill="none" stroke="midnightblue" d="M1100.16,-347.33C1100.07,-324.87 1096.47,-264.49 1062,-235 1026.86,-204.94 898.75,-194.94 821.77,-191.63"/>
<polygon fill="midnightblue" stroke="midnightblue" points="821.85,-188.13 811.72,-191.22 821.57,-195.13 821.85,-188.13"/>
</g>
<!-- Node17&#45;&gt;Node4 -->
<g id="edge27" class="edge">
<title>Node17&#45;&gt;Node4</title>
<path fill="none" stroke="midnightblue" d="M1101.24,-347.4C1102.48,-338.36 1104.3,-323.71 1105,-311 1106.94,-275.89 1105.09,-262.36 1083,-235 1049.57,-193.61 994.6,-163.06 960.73,-146.94"/>
<polygon fill="midnightblue" stroke="midnightblue" points="961.9,-143.63 951.35,-142.59 958.95,-149.98 961.9,-143.63"/>
</g>
<!-- Node17&#45;&gt;Node7 -->
<g id="edge28" class="edge">
<title>Node17&#45;&gt;Node7</title>
<path fill="none" stroke="midnightblue" d="M1108.17,-347.38C1123.93,-329.81 1157,-287.94 1157,-246 1157,-246 1157,-246 1157,-132 1157,-32.23 1003.86,-13.96 925.73,-11.13"/>
<polygon fill="midnightblue" stroke="midnightblue" points="925.77,-7.63 915.68,-10.83 925.57,-14.62 925.77,-7.63"/>
</g>
<!-- Node17&#45;&gt;Node11 -->
<g id="edge31" class="edge">
<title>Node17&#45;&gt;Node11</title>
<path fill="none" stroke="midnightblue" d="M1041.18,-348.49C961.51,-338.32 819.92,-320.25 738.76,-309.88"/>
<polygon fill="midnightblue" stroke="midnightblue" points="739.05,-306.39 728.68,-308.6 738.16,-313.34 739.05,-306.39"/>
</g>
<!-- Node17&#45;&gt;Node13 -->
<g id="edge30" class="edge">
<title>Node17&#45;&gt;Node13</title>
<path fill="none" stroke="midnightblue" d="M1075.08,-347.46C1018.31,-328.01 879.25,-280.36 813.95,-257.98"/>
<polygon fill="midnightblue" stroke="midnightblue" points="814.72,-254.54 804.13,-254.61 812.45,-261.16 814.72,-254.54"/>
</g>
<!-- Node18 -->
<g id="node18" class="node">
<title>Node18</title>
<g id="a_node18"><a xlink:title=" ">
<polygon fill="white" stroke="#bfbfbf" points="1355,-179.5 1355,-198.5 1405,-198.5 1405,-179.5 1355,-179.5"/>
<text text-anchor="middle" x="1380" y="-186.5" font-family="Helvetica,sans-Serif" font-size="10.00">cstdint</text>
</a>
</g>
</g>
<!-- Node17&#45;&gt;Node18 -->
<g id="edge26" class="edge">
<title>Node17&#45;&gt;Node18</title>
<path fill="none" stroke="midnightblue" d="M1158.6,-351.51C1219.89,-345.68 1310.76,-333.48 1337,-311 1367.51,-284.85 1376.38,-235.54 1378.95,-208.64"/>
<polygon fill="midnightblue" stroke="midnightblue" points="1382.44,-208.86 1379.71,-198.62 1375.46,-208.33 1382.44,-208.86"/>
</g>
<!-- Node19 -->
<g id="node19" class="node">
<title>Node19</title>
<g id="a_node19"><a xlink:href="WiderType_8hpp.html" target="_top" xlink:title="Definition of the WiderType alias template.">
<polygon fill="white" stroke="black" points="1200,-291.5 1200,-310.5 1328,-310.5 1328,-291.5 1200,-291.5"/>
<text text-anchor="middle" x="1264" y="-298.5" font-family="Helvetica,sans-Serif" font-size="10.00">playrho/WiderType.hpp</text>
</a>
</g>
</g>
<!-- Node17&#45;&gt;Node19 -->
<g id="edge32" class="edge">
<title>Node17&#45;&gt;Node19</title>
<path fill="none" stroke="midnightblue" d="M1125.99,-347.44C1153.7,-338.32 1197.75,-323.81 1228.62,-313.65"/>
<polygon fill="midnightblue" stroke="midnightblue" points="1229.73,-316.97 1238.14,-310.52 1227.54,-310.32 1229.73,-316.97"/>
</g>
<!-- Node20 -->
<g id="node20" class="node">
<title>Node20</title>
<g id="a_node20"><a xlink:href="Wider_8hpp.html" target="_top" xlink:title="Definition of the Wider class template and specializations.">
<polygon fill="white" stroke="black" points="1198,-235.5 1198,-254.5 1334,-254.5 1334,-235.5 1198,-235.5"/>
<text text-anchor="middle" x="1266" y="-242.5" font-family="Helvetica,sans-Serif" font-size="10.00">playrho/detail/Wider.hpp</text>
</a>
</g>
</g>
<!-- Node19&#45;&gt;Node20 -->
<g id="edge33" class="edge">
<title>Node19&#45;&gt;Node20</title>
<path fill="none" stroke="midnightblue" d="M1264.33,-291.08C1264.59,-284.01 1264.97,-273.86 1265.3,-264.99"/>
<polygon fill="midnightblue" stroke="midnightblue" points="1268.8,-264.87 1265.68,-254.75 1261.81,-264.61 1268.8,-264.87"/>
</g>
<!-- Node20&#45;&gt;Node7 -->
<g id="edge35" class="edge">
<title>Node20&#45;&gt;Node7</title>
<path fill="none" stroke="midnightblue" d="M1252.11,-235.3C1240.35,-227.24 1223.87,-214.23 1214,-199 1177.92,-143.3 1221.06,-99.58 1171,-56 1135.2,-24.83 997.87,-15.2 925.78,-12.26"/>
<polygon fill="midnightblue" stroke="midnightblue" points="925.77,-8.76 915.64,-11.87 925.5,-15.75 925.77,-8.76"/>
</g>
<!-- Node20&#45;&gt;Node18 -->
<g id="edge34" class="edge">
<title>Node20&#45;&gt;Node18</title>
<path fill="none" stroke="midnightblue" d="M1284.06,-235.44C1302.57,-226.68 1331.58,-212.94 1352.86,-202.86"/>
<polygon fill="midnightblue" stroke="midnightblue" points="1354.48,-205.96 1362.02,-198.52 1351.49,-199.63 1354.48,-205.96"/>
</g>
<!-- Node21 -->
<g id="node21" class="node">
<title>Node21</title>
<g id="a_node21"><a xlink:href="Defines_8hpp.html" target="_top" xlink:title="Miscellaneous C&#45;preprocessor definitions.">
<polygon fill="white" stroke="black" points="1223,-179.5 1223,-198.5 1337,-198.5 1337,-179.5 1223,-179.5"/>
<text text-anchor="middle" x="1280" y="-186.5" font-family="Helvetica,sans-Serif" font-size="10.00">playrho/Defines.hpp</text>
</a>
</g>
</g>
<!-- Node20&#45;&gt;Node21 -->
<g id="edge36" class="edge">
<title>Node20&#45;&gt;Node21</title>
<path fill="none" stroke="midnightblue" d="M1268.31,-235.08C1270.17,-227.93 1272.84,-217.64 1275.15,-208.69"/>
<polygon fill="midnightblue" stroke="midnightblue" points="1278.61,-209.31 1277.73,-198.75 1271.83,-207.55 1278.61,-209.31"/>
</g>
<!-- Node22&#45;&gt;Node3 -->
<g id="edge48" class="edge">
<title>Node22&#45;&gt;Node3</title>
<path fill="none" stroke="midnightblue" d="M468.84,-235.62C531.99,-225.79 636.39,-209.55 702.06,-199.33"/>
<polygon fill="midnightblue" stroke="midnightblue" points="702.92,-202.74 712.26,-197.74 701.84,-195.82 702.92,-202.74"/>
</g>
<!-- Node22&#45;&gt;Node5 -->
<g id="edge49" class="edge">
<title>Node22&#45;&gt;Node5</title>
<path fill="none" stroke="midnightblue" d="M375.34,-235.48C336.52,-225.34 286.27,-206.28 309,-179 330.45,-153.26 415.7,-142.19 479.65,-137.47"/>
<polygon fill="midnightblue" stroke="midnightblue" points="479.99,-140.95 489.72,-136.76 479.5,-133.97 479.99,-140.95"/>
</g>
<!-- Node22&#45;&gt;Node7 -->
<g id="edge45" class="edge">
<title>Node22&#45;&gt;Node7</title>
<path fill="none" stroke="midnightblue" d="M462.44,-235.48C512.34,-226.13 587.29,-210.86 614,-199 718.48,-152.6 824.03,-62.65 864.14,-26.55"/>
<polygon fill="midnightblue" stroke="midnightblue" points="866.63,-29.01 871.68,-19.69 861.92,-23.83 866.63,-29.01"/>
</g>
<!-- Node22&#45;&gt;Node9 -->
<g id="edge39" class="edge">
<title>Node22&#45;&gt;Node9</title>
<path fill="none" stroke="midnightblue" d="M463.54,-235.43C507.68,-226.92 568.91,-213.15 589,-199 613.59,-181.67 618.17,-171.75 627,-143 639.39,-102.67 618.97,-85.7 589,-56 575.19,-42.31 556.35,-31.51 540.32,-23.93"/>
<polygon fill="midnightblue" stroke="midnightblue" points="541.33,-20.54 530.77,-19.63 538.45,-26.93 541.33,-20.54"/>
</g>
<!-- Node22&#45;&gt;Node10 -->
<g id="edge42" class="edge">
<title>Node22&#45;&gt;Node10</title>
<path fill="none" stroke="midnightblue" d="M361.34,-244.57C279.36,-244.16 128.86,-237.95 95,-199 19.38,-112 233.84,-43.85 322.54,-20.1"/>
<polygon fill="midnightblue" stroke="midnightblue" points="323.44,-23.48 332.22,-17.55 321.65,-16.71 323.44,-23.48"/>
</g>
<!-- Node23 -->
<g id="node23" class="node">
<title>Node23</title>
<g id="a_node23"><a xlink:title=" ">
<polygon fill="white" stroke="#bfbfbf" points="318,-179.5 318,-198.5 370,-198.5 370,-179.5 318,-179.5"/>
<text text-anchor="middle" x="344" y="-186.5" font-family="Helvetica,sans-Serif" font-size="10.00">cassert</text>
</a>
</g>
</g>
<!-- Node22&#45;&gt;Node23 -->
<g id="edge40" class="edge">
<title>Node22&#45;&gt;Node23</title>
<path fill="none" stroke="midnightblue" d="M403.59,-235.32C392.89,-227.18 376.66,-214.84 363.84,-205.09"/>
<polygon fill="midnightblue" stroke="midnightblue" points="365.69,-202.1 355.61,-198.83 361.46,-207.67 365.69,-202.1"/>
</g>
<!-- Node24 -->
<g id="node24" class="node">
<title>Node24</title>
<g id="a_node24"><a xlink:title=" ">
<polygon fill="white" stroke="#bfbfbf" points="388.5,-179.5 388.5,-198.5 441.5,-198.5 441.5,-179.5 388.5,-179.5"/>
<text text-anchor="middle" x="415" y="-186.5" font-family="Helvetica,sans-Serif" font-size="10.00">cstddef</text>
</a>
</g>
</g>
<!-- Node22&#45;&gt;Node24 -->
<g id="edge41" class="edge">
<title>Node22&#45;&gt;Node24</title>
<path fill="none" stroke="midnightblue" d="M415,-235.08C415,-228.01 415,-217.86 415,-208.99"/>
<polygon fill="midnightblue" stroke="midnightblue" points="418.5,-208.75 415,-198.75 411.5,-208.75 418.5,-208.75"/>
</g>
<!-- Node25 -->
<g id="node25" class="node">
<title>Node25</title>
<g id="a_node25"><a xlink:title=" ">
<polygon fill="white" stroke="#bfbfbf" points="460,-179.5 460,-198.5 520,-198.5 520,-179.5 460,-179.5"/>
<text text-anchor="middle" x="490" y="-186.5" font-family="Helvetica,sans-Serif" font-size="10.00">iostream</text>
</a>
</g>
</g>
<!-- Node22&#45;&gt;Node25 -->
<g id="edge43" class="edge">
<title>Node22&#45;&gt;Node25</title>
<path fill="none" stroke="midnightblue" d="M427.05,-235.32C438.46,-227.11 455.83,-214.6 469.43,-204.81"/>
<polygon fill="midnightblue" stroke="midnightblue" points="471.66,-207.52 477.73,-198.83 467.57,-201.84 471.66,-207.52"/>
</g>
<!-- Node26 -->
<g id="node26" class="node">
<title>Node26</title>
<g id="a_node26"><a xlink:title=" ">
<polygon fill="white" stroke="#bfbfbf" points="538.5,-179.5 538.5,-198.5 579.5,-198.5 579.5,-179.5 538.5,-179.5"/>
<text text-anchor="middle" x="559" y="-186.5" font-family="Helvetica,sans-Serif" font-size="10.00">tuple</text>
</a>
</g>
</g>
<!-- Node22&#45;&gt;Node26 -->
<g id="edge44" class="edge">
<title>Node22&#45;&gt;Node26</title>
<path fill="none" stroke="midnightblue" d="M437.82,-235.44C462.4,-226.23 501.62,-211.52 528.76,-201.34"/>
<polygon fill="midnightblue" stroke="midnightblue" points="530.03,-204.6 538.16,-197.82 527.57,-198.05 530.03,-204.6"/>
</g>
<!-- Node27 -->
<g id="node27" class="node">
<title>Node27</title>
<g id="a_node27"><a xlink:href="InvalidArgument_8hpp.html" target="_top" xlink:title="Definition of the InvalidArgument class.">
<polygon fill="white" stroke="black" points="104,-179.5 104,-198.5 262,-198.5 262,-179.5 104,-179.5"/>
<text text-anchor="middle" x="183" y="-186.5" font-family="Helvetica,sans-Serif" font-size="10.00">playrho/InvalidArgument.hpp</text>
</a>
</g>
</g>
<!-- Node22&#45;&gt;Node27 -->
<g id="edge46" class="edge">
<title>Node22&#45;&gt;Node27</title>
<path fill="none" stroke="midnightblue" d="M378.24,-235.44C337.94,-226.06 273.19,-210.99 229.42,-200.8"/>
<polygon fill="midnightblue" stroke="midnightblue" points="230.12,-197.37 219.59,-198.52 228.54,-204.19 230.12,-197.37"/>
</g>
<!-- Node28 -->
<g id="node28" class="node">
<title>Node28</title>
<g id="a_node28"><a xlink:title=" ">
<polygon fill="white" stroke="#bfbfbf" points="150.5,-123.5 150.5,-142.5 215.5,-142.5 215.5,-123.5 150.5,-123.5"/>
<text text-anchor="middle" x="183" y="-130.5" font-family="Helvetica,sans-Serif" font-size="10.00">stdexcept</text>
</a>
</g>
</g>
<!-- Node27&#45;&gt;Node28 -->
<g id="edge47" class="edge">
<title>Node27&#45;&gt;Node28</title>
<path fill="none" stroke="midnightblue" d="M183,-179.08C183,-172.01 183,-161.86 183,-152.99"/>
<polygon fill="midnightblue" stroke="midnightblue" points="186.5,-152.75 183,-142.75 179.5,-152.75 186.5,-152.75"/>
</g>
</g>
</svg>
        <g id="navigator" transform="translate(0 0)" fill="#404254">
                <rect fill="#f2f5e9" fill-opacity="0.5" stroke="#606060" stroke-width=".5" x="0" y="0" width="60" height="60"/>
                <use id="zoomplus" xlink:href="#zoomPlus" x="17" y="9" onmousedown="handleZoom(evt,'in')"/>
                <use id="zoomminus" xlink:href="#zoomMin" x="42" y="9" onmousedown="handleZoom(evt,'out')"/>
                <use id="reset" xlink:href="#resetDef" x="30" y="36" onmousedown="handleReset()"/>
                <g id="arrowUp" xlink:href="#dirArrow" transform="translate(30 24)" onmousedown="handlePan(0,-1)">
                  <use xlink:href="#rim" fill="#404040">
                        <set attributeName="fill" to="#808080" begin="arrowUp.mouseover" end="arrowUp.mouseout"/>
                  </use>
                  <path fill="none" stroke="white" stroke-width="1.5" d="M0,-3.0v7 M-2.5,-0.5L0,-3.0L2.5,-0.5"/>
                </g>
                <g id="arrowRight" xlink:href="#dirArrow" transform="rotate(90) translate(36 -43)" onmousedown="handlePan(1,0)">
                  <use xlink:href="#rim" fill="#404040">
                        <set attributeName="fill" to="#808080" begin="arrowRight.mouseover" end="arrowRight.mouseout"/>
                  </use>
                  <path fill="none" stroke="white" stroke-width="1.5" d="M0,-3.0v7 M-2.5,-0.5L0,-3.0L2.5,-0.5"/>
                </g>
                <g id="arrowDown" xlink:href="#dirArrow" transform="rotate(180) translate(-30 -48)" onmousedown="handlePan(0,1)">
                  <use xlink:href="#rim" fill="#404040">
                        <set attributeName="fill" to="#808080" begin="arrowDown.mouseover" end="arrowDown.mouseout"/>
                  </use>
                  <path fill="none" stroke="white" stroke-width="1.5" d="M0,-3.0v7 M-2.5,-0.5L0,-3.0L2.5,-0.5"/>
                </g>
                <g id="arrowLeft" xlink:href="#dirArrow" transform="rotate(270) translate(-36 17)" onmousedown="handlePan(-1,0)">
                  <use xlink:href="#rim" fill="#404040">
                        <set attributeName="fill" to="#808080" begin="arrowLeft.mouseover" end="arrowLeft.mouseout"/>
                  </use>
                  <path fill="none" stroke="white" stroke-width="1.5" d="M0,-3.0v7 M-2.5,-0.5L0,-3.0L2.5,-0.5"/>
                </g>
        </g>
        <svg viewBox="0 0 15 15" width="100%" height="30px" preserveAspectRatio="xMaxYMin meet">
         <g id="arrow_out" transform="scale(0.3 0.3)">
          <a xlink:href="Velocity_8hpp__incl_org.svg" target="_base">
           <rect id="button" ry="5" rx="5" y="6" x="6" height="38" width="38"
                fill="#f2f5e9" fill-opacity="0.5" stroke="#606060" stroke-width="1.0"/>
           <path id="arrow"
             d="M 11.500037,31.436501 C 11.940474,20.09759 22.043105,11.32322 32.158766,21.979434 L 37.068811,17.246167 C 37.068811,17.246167 37.088388,32 37.088388,32 L 22.160133,31.978069 C 22.160133,31.978069 26.997745,27.140456 26.997745,27.140456 C 18.528582,18.264221 13.291696,25.230495 11.500037,31.436501 z"
             style="fill:#404040;"/>
          </a>
         </g>
        </svg>
</svg>
