<?xml version="1.0" encoding="UTF-8" standalone="no"?>
<!DOCTYPE svg PUBLIC "-//W3C//DTD SVG 1.1//EN"
 "http://www.w3.org/Graphics/SVG/1.1/DTD/svg11.dtd">
<!-- Generated by graphviz version 2.43.0 (0)
 -->
<!-- Title: Library/include/playrho/d2/Velocity.hpp Pages: 1 -->
<svg width="1538pt" height="655pt"
 viewBox="0.00 0.00 1538.00 655.00" xmlns="http://www.w3.org/2000/svg" xmlns:xlink="http://www.w3.org/1999/xlink">
<g id="graph0" class="graph" transform="scale(1 1) rotate(0) translate(4 651)">
<title>Library/include/playrho/d2/Velocity.hpp</title>
<polygon fill="white" stroke="transparent" points="-4,4 -4,-651 1534,-651 1534,4 -4,4"/>
<!-- Node1 -->
<g id="node1" class="node">
<title>Node1</title>
<g id="a_node1"><a xlink:title="Definition of the Velocity class and closely related code.">
<polygon fill="#bfbfbf" stroke="black" points="626,-616.5 626,-646.5 754,-646.5 754,-616.5 626,-616.5"/>
<text text-anchor="start" x="634" y="-634.5" font-family="Helvetica,sans-Serif" font-size="10.00">Library/include/playrho</text>
<text text-anchor="middle" x="690" y="-623.5" font-family="Helvetica,sans-Serif" font-size="10.00">/d2/Velocity.hpp</text>
</a>
</g>
</g>
<!-- Node2 -->
<g id="node2" class="node">
<title>Node2</title>
<g id="a_node2"><a xlink:title=" ">
<polygon fill="white" stroke="#bfbfbf" points="48.5,-0.5 48.5,-19.5 93.5,-19.5 93.5,-0.5 48.5,-0.5"/>
<text text-anchor="middle" x="71" y="-7.5" font-family="Helvetica,sans-Serif" font-size="10.00">utility</text>
</a>
</g>
</g>
<!-- Node1&#45;&gt;Node2 -->
<g id="edge1" class="edge">
<title>Node1&#45;&gt;Node2</title>
<path fill="none" stroke="midnightblue" d="M625.71,-626.46C454.41,-614.84 0,-578.08 0,-515 0,-515 0,-515 0,-121 0,-82.1 31.73,-46.05 52.77,-26.43"/>
<polygon fill="midnightblue" stroke="midnightblue" points="55.11,-29.02 60.22,-19.74 50.44,-23.81 55.11,-29.02"/>
</g>
<!-- Node3 -->
<g id="node3" class="node">
<title>Node3</title>
<g id="a_node3"><a xlink:title=" ">
<polygon fill="white" stroke="#bfbfbf" points="761.5,-560.5 761.5,-579.5 808.5,-579.5 808.5,-560.5 761.5,-560.5"/>
<text text-anchor="middle" x="785" y="-567.5" font-family="Helvetica,sans-Serif" font-size="10.00">vector</text>
</a>
</g>
</g>
<!-- Node1&#45;&gt;Node3 -->
<g id="edge2" class="edge">
<title>Node1&#45;&gt;Node3</title>
<path fill="none" stroke="midnightblue" d="M712.51,-616.4C727.6,-606.95 747.39,-594.56 762.47,-585.11"/>
<polygon fill="midnightblue" stroke="midnightblue" points="764.56,-587.93 771.18,-579.66 760.84,-582 764.56,-587.93"/>
</g>
<!-- Node4 -->
<g id="node4" class="node">
<title>Node4</title>
<g id="a_node4"><a xlink:href="Settings_8hpp.html" target="_top" xlink:title="Types and default settings file.">
<polygon fill="white" stroke="black" points="732.5,-504.5 732.5,-523.5 849.5,-523.5 849.5,-504.5 732.5,-504.5"/>
<text text-anchor="middle" x="791" y="-511.5" font-family="Helvetica,sans-Serif" font-size="10.00">playrho/Settings.hpp</text>
</a>
</g>
</g>
<!-- Node1&#45;&gt;Node4 -->
<g id="edge3" class="edge">
<title>Node1&#45;&gt;Node4</title>
<path fill="none" stroke="midnightblue" d="M702.38,-616.34C721.16,-594.86 756.75,-554.17 776.63,-531.43"/>
<polygon fill="midnightblue" stroke="midnightblue" points="779.47,-533.5 783.42,-523.67 774.2,-528.89 779.47,-533.5"/>
</g>
<!-- Node34 -->
<g id="node34" class="node">
<title>Node34</title>
<g id="a_node34"><a xlink:href="Vector2_8hpp.html" target="_top" xlink:title="Definition of the Vector2 alias template and closely related code.">
<polygon fill="white" stroke="black" points="591,-560.5 591,-579.5 705,-579.5 705,-560.5 591,-560.5"/>
<text text-anchor="middle" x="648" y="-567.5" font-family="Helvetica,sans-Serif" font-size="10.00">playrho/Vector2.hpp</text>
</a>
</g>
</g>
<!-- Node1&#45;&gt;Node34 -->
<g id="edge52" class="edge">
<title>Node1&#45;&gt;Node34</title>
<path fill="none" stroke="midnightblue" d="M680.05,-616.4C674.01,-607.84 666.26,-596.87 659.9,-587.86"/>
<polygon fill="midnightblue" stroke="midnightblue" points="662.74,-585.81 654.11,-579.66 657.02,-589.85 662.74,-585.81"/>
</g>
<!-- Node5 -->
<g id="node5" class="node">
<title>Node5</title>
<g id="a_node5"><a xlink:title=" ">
<polygon fill="white" stroke="#bfbfbf" points="614.5,-336.5 614.5,-355.5 667.5,-355.5 667.5,-336.5 614.5,-336.5"/>
<text text-anchor="middle" x="641" y="-343.5" font-family="Helvetica,sans-Serif" font-size="10.00">cstddef</text>
</a>
</g>
</g>
<!-- Node4&#45;&gt;Node5 -->
<g id="edge4" class="edge">
<title>Node4&#45;&gt;Node5</title>
<path fill="none" stroke="midnightblue" d="M748.6,-504.46C726.11,-497.93 699.57,-486.75 682,-468 654.92,-439.1 645.67,-391.64 642.55,-365.58"/>
<polygon fill="midnightblue" stroke="midnightblue" points="646.02,-365.14 641.53,-355.54 639.06,-365.85 646.02,-365.14"/>
</g>
<!-- Node6 -->
<g id="node6" class="node">
<title>Node6</title>
<g id="a_node6"><a xlink:title=" ">
<polygon fill="white" stroke="#bfbfbf" points="742,-168.5 742,-187.5 794,-187.5 794,-168.5 742,-168.5"/>
<text text-anchor="middle" x="768" y="-175.5" font-family="Helvetica,sans-Serif" font-size="10.00">cassert</text>
</a>
</g>
</g>
<!-- Node4&#45;&gt;Node6 -->
<g id="edge5" class="edge">
<title>Node4&#45;&gt;Node6</title>
<path fill="none" stroke="midnightblue" d="M788.44,-504.25C783.25,-485.74 772,-441.18 772,-403 772,-403 772,-403 772,-289 772,-256.93 770.28,-219.63 769.1,-197.74"/>
<polygon fill="midnightblue" stroke="midnightblue" points="772.58,-197.34 768.52,-187.55 765.59,-197.73 772.58,-197.34"/>
</g>
<!-- Node7 -->
<g id="node7" class="node">
<title>Node7</title>
<g id="a_node7"><a xlink:title=" ">
<polygon fill="white" stroke="#bfbfbf" points="838,-448.5 838,-467.5 882,-467.5 882,-448.5 838,-448.5"/>
<text text-anchor="middle" x="860" y="-455.5" font-family="Helvetica,sans-Serif" font-size="10.00">cfloat</text>
</a>
</g>
</g>
<!-- Node4&#45;&gt;Node7 -->
<g id="edge6" class="edge">
<title>Node4&#45;&gt;Node7</title>
<path fill="none" stroke="midnightblue" d="M802.09,-504.32C812.49,-496.18 828.26,-483.84 840.72,-474.09"/>
<polygon fill="midnightblue" stroke="midnightblue" points="842.99,-476.75 848.71,-467.83 838.68,-471.24 842.99,-476.75"/>
</g>
<!-- Node8 -->
<g id="node8" class="node">
<title>Node8</title>
<g id="a_node8"><a xlink:title=" ">
<polygon fill="white" stroke="#bfbfbf" points="824.5,-224.5 824.5,-243.5 871.5,-243.5 871.5,-224.5 824.5,-224.5"/>
<text text-anchor="middle" x="848" y="-231.5" font-family="Helvetica,sans-Serif" font-size="10.00">cmath</text>
</a>
</g>
</g>
<!-- Node4&#45;&gt;Node8 -->
<g id="edge7" class="edge">
<title>Node4&#45;&gt;Node8</title>
<path fill="none" stroke="midnightblue" d="M793.56,-504.25C798.75,-485.74 810,-441.18 810,-403 810,-403 810,-403 810,-345 810,-310.81 826.6,-273.76 837.86,-252.57"/>
<polygon fill="midnightblue" stroke="midnightblue" points="840.95,-254.22 842.72,-243.77 834.82,-250.83 840.95,-254.22"/>
</g>
<!-- Node9 -->
<g id="node9" class="node">
<title>Node9</title>
<g id="a_node9"><a xlink:title=" ">
<polygon fill="white" stroke="#bfbfbf" points="1331,-112.5 1331,-131.5 1381,-131.5 1381,-112.5 1331,-112.5"/>
<text text-anchor="middle" x="1356" y="-119.5" font-family="Helvetica,sans-Serif" font-size="10.00">cstdint</text>
</a>
</g>
</g>
<!-- Node4&#45;&gt;Node9 -->
<g id="edge8" class="edge">
<title>Node4&#45;&gt;Node9</title>
<path fill="none" stroke="midnightblue" d="M849.76,-510.4C1024.36,-501.9 1528,-471.44 1528,-403 1528,-403 1528,-403 1528,-289 1528,-211.38 1436.19,-158.57 1386.73,-135.75"/>
<polygon fill="midnightblue" stroke="midnightblue" points="1387.99,-132.49 1377.44,-131.59 1385.13,-138.87 1387.99,-132.49"/>
</g>
<!-- Node10 -->
<g id="node10" class="node">
<title>Node10</title>
<g id="a_node10"><a xlink:title=" ">
<polygon fill="white" stroke="#bfbfbf" points="434,-0.5 434,-19.5 498,-19.5 498,-0.5 434,-0.5"/>
<text text-anchor="middle" x="466" y="-7.5" font-family="Helvetica,sans-Serif" font-size="10.00">algorithm</text>
</a>
</g>
</g>
<!-- Node4&#45;&gt;Node10 -->
<g id="edge9" class="edge">
<title>Node4&#45;&gt;Node10</title>
<path fill="none" stroke="midnightblue" d="M785.36,-504.29C747.37,-445.61 528.82,-108.03 477.01,-28.01"/>
<polygon fill="midnightblue" stroke="midnightblue" points="479.92,-26.05 471.54,-19.56 474.04,-29.86 479.92,-26.05"/>
</g>
<!-- Node11 -->
<g id="node11" class="node">
<title>Node11</title>
<g id="a_node11"><a xlink:href="RealConstants_8hpp.html" target="_top" xlink:title="Definitions file for constant expressions of type Real.">
<polygon fill="white" stroke="black" points="1206,-392.5 1206,-411.5 1354,-411.5 1354,-392.5 1206,-392.5"/>
<text text-anchor="middle" x="1280" y="-399.5" font-family="Helvetica,sans-Serif" font-size="10.00">playrho/RealConstants.hpp</text>
</a>
</g>
</g>
<!-- Node4&#45;&gt;Node11 -->
<g id="edge10" class="edge">
<title>Node4&#45;&gt;Node11</title>
<path fill="none" stroke="midnightblue" d="M849.68,-510.68C947.44,-506.13 1139.06,-494.11 1201,-468 1226.96,-457.06 1251.08,-434.72 1265.67,-419.31"/>
<polygon fill="midnightblue" stroke="midnightblue" points="1268.58,-421.32 1272.75,-411.58 1263.42,-416.59 1268.58,-421.32"/>
</g>
<!-- Node18 -->
<g id="node18" class="node">
<title>Node18</title>
<g id="a_node18"><a xlink:href="Templates_8hpp.html" target="_top" xlink:title="Definitions of miscellaneous template related code.">
<polygon fill="white" stroke="black" points="678,-112.5 678,-131.5 806,-131.5 806,-112.5 678,-112.5"/>
<text text-anchor="middle" x="742" y="-119.5" font-family="Helvetica,sans-Serif" font-size="10.00">playrho/Templates.hpp</text>
</a>
</g>
</g>
<!-- Node4&#45;&gt;Node18 -->
<g id="edge44" class="edge">
<title>Node4&#45;&gt;Node18</title>
<path fill="none" stroke="midnightblue" d="M786.51,-504.28C782.13,-495.39 775.61,-481.08 772,-468 738.61,-346.87 741.69,-313.35 733,-188 732.39,-179.13 732.12,-176.85 733,-168 733.87,-159.17 735.69,-149.51 737.47,-141.4"/>
<polygon fill="midnightblue" stroke="midnightblue" points="740.9,-142.08 739.77,-131.55 734.08,-140.49 740.9,-142.08"/>
</g>
<!-- Node32 -->
<g id="node32" class="node">
<title>Node32</title>
<g id="a_node32"><a xlink:href="Units_8hpp.html" target="_top" xlink:title="Declarations for physical units possibly backed by strong types.">
<polygon fill="white" stroke="black" points="1088.5,-448.5 1088.5,-467.5 1191.5,-467.5 1191.5,-448.5 1088.5,-448.5"/>
<text text-anchor="middle" x="1140" y="-455.5" font-family="Helvetica,sans-Serif" font-size="10.00">playrho/Units.hpp</text>
</a>
</g>
</g>
<!-- Node4&#45;&gt;Node32 -->
<g id="edge45" class="edge">
<title>Node4&#45;&gt;Node32</title>
<path fill="none" stroke="midnightblue" d="M846.3,-504.44C909.43,-494.68 1012.42,-478.74 1078.15,-468.57"/>
<polygon fill="midnightblue" stroke="midnightblue" points="1079.02,-471.98 1088.37,-466.99 1077.95,-465.06 1079.02,-471.98"/>
</g>
<!-- Node33 -->
<g id="node33" class="node">
<title>Node33</title>
<g id="a_node33"><a xlink:href="WiderType_8hpp.html" target="_top" xlink:title="Definition of the WiderType alias template.">
<polygon fill="white" stroke="black" points="1372,-392.5 1372,-411.5 1500,-411.5 1500,-392.5 1372,-392.5"/>
<text text-anchor="middle" x="1436" y="-399.5" font-family="Helvetica,sans-Serif" font-size="10.00">playrho/WiderType.hpp</text>
</a>
</g>
</g>
<!-- Node4&#45;&gt;Node33 -->
<g id="edge50" class="edge">
<title>Node4&#45;&gt;Node33</title>
<path fill="none" stroke="midnightblue" d="M849.81,-510.77C934.58,-506.71 1095.7,-495.77 1230,-468 1293.31,-454.91 1364.77,-429.97 1404.69,-415.08"/>
<polygon fill="midnightblue" stroke="midnightblue" points="1406.01,-418.32 1414.14,-411.53 1403.55,-411.77 1406.01,-418.32"/>
</g>
<!-- Node12 -->
<g id="node12" class="node">
<title>Node12</title>
<g id="a_node12"><a xlink:href="Defines_8hpp.html" target="_top" xlink:title="Miscellaneous C&#45;preprocessor definitions.">
<polygon fill="white" stroke="black" points="1416,-112.5 1416,-131.5 1530,-131.5 1530,-112.5 1416,-112.5"/>
<text text-anchor="middle" x="1473" y="-119.5" font-family="Helvetica,sans-Serif" font-size="10.00">playrho/Defines.hpp</text>
</a>
</g>
</g>
<!-- Node11&#45;&gt;Node12 -->
<g id="edge11" class="edge">
<title>Node11&#45;&gt;Node12</title>
<path fill="none" stroke="midnightblue" d="M1354.04,-392.6C1414.5,-381.14 1490,-354.18 1490,-291 1490,-291 1490,-291 1490,-233 1490,-200.58 1482.7,-163.42 1477.67,-141.64"/>
<polygon fill="midnightblue" stroke="midnightblue" points="1481.03,-140.67 1475.29,-131.77 1474.23,-142.31 1481.03,-140.67"/>
</g>
<!-- Node13 -->
<g id="node13" class="node">
<title>Node13</title>
<g id="a_node13"><a xlink:href="Real_8hpp.html" target="_top" xlink:title="Real number definition file.">
<polygon fill="white" stroke="black" points="1039.5,-336.5 1039.5,-355.5 1138.5,-355.5 1138.5,-336.5 1039.5,-336.5"/>
<text text-anchor="middle" x="1089" y="-343.5" font-family="Helvetica,sans-Serif" font-size="10.00">playrho/Real.hpp</text>
</a>
</g>
</g>
<!-- Node11&#45;&gt;Node13 -->
<g id="edge12" class="edge">
<title>Node11&#45;&gt;Node13</title>
<path fill="none" stroke="midnightblue" d="M1249.74,-392.44C1217.04,-383.2 1164.82,-368.44 1128.82,-358.26"/>
<polygon fill="midnightblue" stroke="midnightblue" points="1129.7,-354.87 1119.12,-355.52 1127.79,-361.61 1129.7,-354.87"/>
</g>
<!-- Node14 -->
<g id="node14" class="node">
<title>Node14</title>
<g id="a_node14"><a xlink:href="Fixed_8hpp.html" target="_top" xlink:title="Definition of the Fixed class and closely related code.">
<polygon fill="white" stroke="black" points="934.5,-224.5 934.5,-243.5 1037.5,-243.5 1037.5,-224.5 934.5,-224.5"/>
<text text-anchor="middle" x="986" y="-231.5" font-family="Helvetica,sans-Serif" font-size="10.00">playrho/Fixed.hpp</text>
</a>
</g>
</g>
<!-- Node13&#45;&gt;Node14 -->
<g id="edge13" class="edge">
<title>Node13&#45;&gt;Node14</title>
<path fill="none" stroke="midnightblue" d="M1113.61,-336.4C1142.27,-325.04 1183.47,-303.69 1165,-280 1150.53,-261.44 1093.73,-249.36 1047.94,-242.44"/>
<polygon fill="midnightblue" stroke="midnightblue" points="1048.17,-238.94 1037.77,-240.96 1047.16,-245.86 1048.17,-238.94"/>
</g>
<!-- Node30 -->
<g id="node30" class="node">
<title>Node30</title>
<g id="a_node30"><a xlink:href="FixedMath_8hpp.html" target="_top" xlink:title="Conventional math functions for the Fixed class template.">
<polygon fill="white" stroke="black" points="876,-280.5 876,-299.5 1004,-299.5 1004,-280.5 876,-280.5"/>
<text text-anchor="middle" x="940" y="-287.5" font-family="Helvetica,sans-Serif" font-size="10.00">playrho/FixedMath.hpp</text>
</a>
</g>
</g>
<!-- Node13&#45;&gt;Node30 -->
<g id="edge39" class="edge">
<title>Node13&#45;&gt;Node30</title>
<path fill="none" stroke="midnightblue" d="M1065.39,-336.44C1040.54,-327.44 1001.23,-313.19 973.25,-303.05"/>
<polygon fill="midnightblue" stroke="midnightblue" points="974.09,-299.63 963.5,-299.52 971.71,-306.21 974.09,-299.63"/>
</g>
<!-- Node31 -->
<g id="node31" class="node">
<title>Node31</title>
<g id="a_node31"><a xlink:href="FixedLimits_8hpp.html" target="_top" xlink:title="Specialization of std::numeric_limits for Fixed.">
<polygon fill="white" stroke="black" points="1022.5,-280.5 1022.5,-299.5 1155.5,-299.5 1155.5,-280.5 1022.5,-280.5"/>
<text text-anchor="middle" x="1089" y="-287.5" font-family="Helvetica,sans-Serif" font-size="10.00">playrho/FixedLimits.hpp</text>
</a>
</g>
</g>
<!-- Node13&#45;&gt;Node31 -->
<g id="edge42" class="edge">
<title>Node13&#45;&gt;Node31</title>
<path fill="none" stroke="midnightblue" d="M1089,-336.08C1089,-329.01 1089,-318.86 1089,-309.99"/>
<polygon fill="midnightblue" stroke="midnightblue" points="1092.5,-309.75 1089,-299.75 1085.5,-309.75 1092.5,-309.75"/>
</g>
<!-- Node14&#45;&gt;Node6 -->
<g id="edge16" class="edge">
<title>Node14&#45;&gt;Node6</title>
<path fill="none" stroke="midnightblue" d="M951.46,-224.44C911.17,-214.46 844.89,-198.05 803.99,-187.92"/>
<polygon fill="midnightblue" stroke="midnightblue" points="804.72,-184.49 794.17,-185.48 803.04,-191.28 804.72,-184.49"/>
</g>
<!-- Node14&#45;&gt;Node9 -->
<g id="edge14" class="edge">
<title>Node14&#45;&gt;Node9</title>
<path fill="none" stroke="midnightblue" d="M1037.64,-224.74C1080.98,-217.17 1144.26,-204.61 1198,-188 1245.05,-173.46 1297.53,-150.44 1328.61,-136.05"/>
<polygon fill="midnightblue" stroke="midnightblue" points="1330.33,-139.11 1337.91,-131.71 1327.37,-132.77 1330.33,-139.11"/>
</g>
<!-- Node15 -->
<g id="node15" class="node">
<title>Node15</title>
<g id="a_node15"><a xlink:title=" ">
<polygon fill="white" stroke="#bfbfbf" points="679,-0.5 679,-19.5 723,-19.5 723,-0.5 679,-0.5"/>
<text text-anchor="middle" x="701" y="-7.5" font-family="Helvetica,sans-Serif" font-size="10.00">limits</text>
</a>
</g>
</g>
<!-- Node14&#45;&gt;Node15 -->
<g id="edge15" class="edge">
<title>Node14&#45;&gt;Node15</title>
<path fill="none" stroke="midnightblue" d="M972.18,-224.43C958.24,-215.65 936.24,-201.42 918,-188 841.51,-131.71 755.41,-58.27 718.89,-26.62"/>
<polygon fill="midnightblue" stroke="midnightblue" points="720.94,-23.77 711.1,-19.85 716.35,-29.05 720.94,-23.77"/>
</g>
<!-- Node16 -->
<g id="node16" class="node">
<title>Node16</title>
<g id="a_node16"><a xlink:title=" ">
<polygon fill="white" stroke="#bfbfbf" points="1149.5,-0.5 1149.5,-19.5 1218.5,-19.5 1218.5,-0.5 1149.5,-0.5"/>
<text text-anchor="middle" x="1184" y="-7.5" font-family="Helvetica,sans-Serif" font-size="10.00">type_traits</text>
</a>
</g>
</g>
<!-- Node14&#45;&gt;Node16 -->
<g id="edge17" class="edge">
<title>Node14&#45;&gt;Node16</title>
<path fill="none" stroke="midnightblue" d="M1003.83,-224.32C1033.66,-209.08 1094.23,-175.01 1133,-132 1160.12,-101.91 1174.17,-55.29 1180.22,-29.59"/>
<polygon fill="midnightblue" stroke="midnightblue" points="1183.67,-30.19 1182.4,-19.67 1176.83,-28.69 1183.67,-30.19"/>
</g>
<!-- Node17 -->
<g id="node17" class="node">
<title>Node17</title>
<g id="a_node17"><a xlink:title=" ">
<polygon fill="white" stroke="#bfbfbf" points="608,-168.5 608,-187.5 668,-187.5 668,-168.5 608,-168.5"/>
<text text-anchor="middle" x="638" y="-175.5" font-family="Helvetica,sans-Serif" font-size="10.00">iostream</text>
</a>
</g>
</g>
<!-- Node14&#45;&gt;Node17 -->
<g id="edge18" class="edge">
<title>Node14&#45;&gt;Node17</title>
<path fill="none" stroke="midnightblue" d="M934.28,-224.97C864.51,-214.15 741.7,-195.09 678.34,-185.26"/>
<polygon fill="midnightblue" stroke="midnightblue" points="678.75,-181.78 668.33,-183.71 677.67,-188.7 678.75,-181.78"/>
</g>
<!-- Node14&#45;&gt;Node18 -->
<g id="edge19" class="edge">
<title>Node14&#45;&gt;Node18</title>
<path fill="none" stroke="midnightblue" d="M951.44,-224.46C922.55,-216.72 880.62,-204.08 846,-188 815.05,-173.62 782.09,-151.77 761.76,-137.44"/>
<polygon fill="midnightblue" stroke="midnightblue" points="763.79,-134.58 753.62,-131.62 759.72,-140.28 763.79,-134.58"/>
</g>
<!-- Node22 -->
<g id="node22" class="node">
<title>Node22</title>
<g id="a_node22"><a xlink:href="TypeInfo_8hpp.html" target="_top" xlink:title="Definition of TypeID class and closely related code.">
<polygon fill="white" stroke="black" points="926.5,-168.5 926.5,-187.5 1045.5,-187.5 1045.5,-168.5 926.5,-168.5"/>
<text text-anchor="middle" x="986" y="-175.5" font-family="Helvetica,sans-Serif" font-size="10.00">playrho/TypeInfo.hpp</text>
</a>
</g>
</g>
<!-- Node14&#45;&gt;Node22 -->
<g id="edge27" class="edge">
<title>Node14&#45;&gt;Node22</title>
<path fill="none" stroke="midnightblue" d="M986,-224.08C986,-217.01 986,-206.86 986,-197.99"/>
<polygon fill="midnightblue" stroke="midnightblue" points="989.5,-197.75 986,-187.75 982.5,-197.75 989.5,-197.75"/>
</g>
<!-- Node29 -->
<g id="node29" class="node">
<title>Node29</title>
<g id="a_node29"><a xlink:href="Wider_8hpp.html" target="_top" xlink:title="Definition of the Wider class template and specializations.">
<polygon fill="white" stroke="black" points="1288,-168.5 1288,-187.5 1424,-187.5 1424,-168.5 1288,-168.5"/>
<text text-anchor="middle" x="1356" y="-175.5" font-family="Helvetica,sans-Serif" font-size="10.00">playrho/detail/Wider.hpp</text>
</a>
</g>
</g>
<!-- Node14&#45;&gt;Node29 -->
<g id="edge35" class="edge">
<title>Node14&#45;&gt;Node29</title>
<path fill="none" stroke="midnightblue" d="M1037.84,-225.43C1103.08,-215.91 1215.35,-199.53 1287.58,-188.99"/>
<polygon fill="midnightblue" stroke="midnightblue" points="1288.11,-192.45 1297.5,-187.54 1287.1,-185.52 1288.11,-192.45"/>
</g>
<!-- Node19 -->
<g id="node19" class="node">
<title>Node19</title>
<g id="a_node19"><a xlink:href="detail_2Templates_8hpp.html" target="_top" xlink:title="Low&#45;level declarations for general class &amp; function templates.">
<polygon fill="white" stroke="black" points="280,-56.5 280,-75.5 438,-75.5 438,-56.5 280,-56.5"/>
<text text-anchor="middle" x="359" y="-63.5" font-family="Helvetica,sans-Serif" font-size="10.00">playrho/detail/Templates.hpp</text>
</a>
</g>
</g>
<!-- Node18&#45;&gt;Node19 -->
<g id="edge20" class="edge">
<title>Node18&#45;&gt;Node19</title>
<path fill="none" stroke="midnightblue" d="M681.31,-112.44C612.82,-102.79 501.56,-87.1 429.33,-76.92"/>
<polygon fill="midnightblue" stroke="midnightblue" points="429.79,-73.45 419.4,-75.52 428.82,-80.38 429.79,-73.45"/>
</g>
<!-- Node19&#45;&gt;Node2 -->
<g id="edge26" class="edge">
<title>Node19&#45;&gt;Node2</title>
<path fill="none" stroke="midnightblue" d="M313.37,-56.44C254.9,-45.48 155,-26.75 103.63,-17.12"/>
<polygon fill="midnightblue" stroke="midnightblue" points="104.2,-13.66 93.73,-15.26 102.91,-20.54 104.2,-13.66"/>
</g>
<!-- Node19&#45;&gt;Node10 -->
<g id="edge21" class="edge">
<title>Node19&#45;&gt;Node10</title>
<path fill="none" stroke="midnightblue" d="M376.19,-56.32C393.35,-47.66 419.95,-34.24 439.75,-24.25"/>
<polygon fill="midnightblue" stroke="midnightblue" points="441.5,-27.28 448.85,-19.65 438.35,-21.04 441.5,-27.28"/>
</g>
<!-- Node19&#45;&gt;Node15 -->
<g id="edge24" class="edge">
<title>Node19&#45;&gt;Node15</title>
<path fill="none" stroke="midnightblue" d="M413.19,-56.44C485.18,-45.08 610.08,-25.36 668.77,-16.09"/>
<polygon fill="midnightblue" stroke="midnightblue" points="669.6,-19.5 678.93,-14.48 668.51,-12.59 669.6,-19.5"/>
</g>
<!-- Node19&#45;&gt;Node16 -->
<g id="edge25" class="edge">
<title>Node19&#45;&gt;Node16</title>
<path fill="none" stroke="midnightblue" d="M438.32,-59.5C455.36,-58.33 473.28,-57.12 490,-56 735.08,-39.64 1028.91,-20.86 1139.24,-13.84"/>
<polygon fill="midnightblue" stroke="midnightblue" points="1139.58,-17.33 1149.34,-13.2 1139.13,-10.34 1139.58,-17.33"/>
</g>
<!-- Node20 -->
<g id="node20" class="node">
<title>Node20</title>
<g id="a_node20"><a xlink:title=" ">
<polygon fill="white" stroke="#bfbfbf" points="198.5,-0.5 198.5,-19.5 263.5,-19.5 263.5,-0.5 198.5,-0.5"/>
<text text-anchor="middle" x="231" y="-7.5" font-family="Helvetica,sans-Serif" font-size="10.00">functional</text>
</a>
</g>
</g>
<!-- Node19&#45;&gt;Node20 -->
<g id="edge22" class="edge">
<title>Node19&#45;&gt;Node20</title>
<path fill="none" stroke="midnightblue" d="M338.72,-56.44C317.65,-47.56 284.48,-33.56 260.51,-23.45"/>
<polygon fill="midnightblue" stroke="midnightblue" points="261.76,-20.18 251.19,-19.52 259.04,-26.63 261.76,-20.18"/>
</g>
<!-- Node21 -->
<g id="node21" class="node">
<title>Node21</title>
<g id="a_node21"><a xlink:title=" ">
<polygon fill="white" stroke="#bfbfbf" points="298.5,-0.5 298.5,-19.5 351.5,-19.5 351.5,-0.5 298.5,-0.5"/>
<text text-anchor="middle" x="325" y="-7.5" font-family="Helvetica,sans-Serif" font-size="10.00">iterator</text>
</a>
</g>
</g>
<!-- Node19&#45;&gt;Node21 -->
<g id="edge23" class="edge">
<title>Node19&#45;&gt;Node21</title>
<path fill="none" stroke="midnightblue" d="M353.39,-56.08C348.63,-48.53 341.68,-37.49 335.85,-28.23"/>
<polygon fill="midnightblue" stroke="midnightblue" points="338.8,-26.35 330.51,-19.75 332.88,-30.08 338.8,-26.35"/>
</g>
<!-- Node22&#45;&gt;Node18 -->
<g id="edge29" class="edge">
<title>Node22&#45;&gt;Node18</title>
<path fill="none" stroke="midnightblue" d="M947.34,-168.44C904.86,-159.04 836.57,-143.93 790.53,-133.74"/>
<polygon fill="midnightblue" stroke="midnightblue" points="791,-130.26 780.48,-131.52 789.49,-137.09 791,-130.26"/>
</g>
<!-- Node23 -->
<g id="node23" class="node">
<title>Node23</title>
<g id="a_node23"><a xlink:title=" ">
<polygon fill="white" stroke="#bfbfbf" points="1074,-112.5 1074,-131.5 1124,-131.5 1124,-112.5 1074,-112.5"/>
<text text-anchor="middle" x="1099" y="-119.5" font-family="Helvetica,sans-Serif" font-size="10.00">cstring</text>
</a>
</g>
</g>
<!-- Node22&#45;&gt;Node23 -->
<g id="edge28" class="edge">
<title>Node22&#45;&gt;Node23</title>
<path fill="none" stroke="midnightblue" d="M1003.91,-168.44C1022.25,-159.68 1051.01,-145.94 1072.09,-135.86"/>
<polygon fill="midnightblue" stroke="midnightblue" points="1073.67,-138.99 1081.18,-131.52 1070.65,-132.67 1073.67,-138.99"/>
</g>
<!-- Node24 -->
<g id="node24" class="node">
<title>Node24</title>
<g id="a_node24"><a xlink:href="detail_2TypeInfo_8hpp.html" target="_top" xlink:title="Definition of TypeInfo class template and related code.">
<polygon fill="white" stroke="black" points="907.5,-112.5 907.5,-131.5 1056.5,-131.5 1056.5,-112.5 907.5,-112.5"/>
<text text-anchor="middle" x="982" y="-119.5" font-family="Helvetica,sans-Serif" font-size="10.00">playrho/detail/TypeInfo.hpp</text>
</a>
</g>
</g>
<!-- Node22&#45;&gt;Node24 -->
<g id="edge30" class="edge">
<title>Node22&#45;&gt;Node24</title>
<path fill="none" stroke="midnightblue" d="M985.34,-168.08C984.82,-161.01 984.06,-150.86 983.41,-141.99"/>
<polygon fill="midnightblue" stroke="midnightblue" points="986.88,-141.47 982.65,-131.75 979.9,-141.98 986.88,-141.47"/>
</g>
<!-- Node25 -->
<g id="node25" class="node">
<title>Node25</title>
<g id="a_node25"><a xlink:title=" ">
<polygon fill="white" stroke="#bfbfbf" points="891,-56.5 891,-75.5 935,-75.5 935,-56.5 891,-56.5"/>
<text text-anchor="middle" x="913" y="-63.5" font-family="Helvetica,sans-Serif" font-size="10.00">regex</text>
</a>
</g>
</g>
<!-- Node24&#45;&gt;Node25 -->
<g id="edge31" class="edge">
<title>Node24&#45;&gt;Node25</title>
<path fill="none" stroke="midnightblue" d="M970.91,-112.32C960.51,-104.18 944.74,-91.84 932.28,-82.09"/>
<polygon fill="midnightblue" stroke="midnightblue" points="934.32,-79.24 924.29,-75.83 930.01,-84.75 934.32,-79.24"/>
</g>
<!-- Node26 -->
<g id="node26" class="node">
<title>Node26</title>
<g id="a_node26"><a xlink:title=" ">
<polygon fill="white" stroke="#bfbfbf" points="953,-56.5 953,-75.5 997,-75.5 997,-56.5 953,-56.5"/>
<text text-anchor="middle" x="975" y="-63.5" font-family="Helvetica,sans-Serif" font-size="10.00">string</text>
</a>
</g>
</g>
<!-- Node24&#45;&gt;Node26 -->
<g id="edge32" class="edge">
<title>Node24&#45;&gt;Node26</title>
<path fill="none" stroke="midnightblue" d="M980.84,-112.08C979.92,-104.93 978.58,-94.64 977.42,-85.69"/>
<polygon fill="midnightblue" stroke="midnightblue" points="980.89,-85.22 976.13,-75.75 973.95,-86.12 980.89,-85.22"/>
</g>
<!-- Node27 -->
<g id="node27" class="node">
<title>Node27</title>
<g id="a_node27"><a xlink:title=" ">
<polygon fill="white" stroke="#bfbfbf" points="1015.5,-56.5 1015.5,-75.5 1080.5,-75.5 1080.5,-56.5 1015.5,-56.5"/>
<text text-anchor="middle" x="1048" y="-63.5" font-family="Helvetica,sans-Serif" font-size="10.00">typeindex</text>
</a>
</g>
</g>
<!-- Node24&#45;&gt;Node27 -->
<g id="edge33" class="edge">
<title>Node24&#45;&gt;Node27</title>
<path fill="none" stroke="midnightblue" d="M992.6,-112.32C1002.46,-104.26 1017.35,-92.08 1029.22,-82.37"/>
<polygon fill="midnightblue" stroke="midnightblue" points="1031.68,-84.88 1037.2,-75.83 1027.25,-79.46 1031.68,-84.88"/>
</g>
<!-- Node28 -->
<g id="node28" class="node">
<title>Node28</title>
<g id="a_node28"><a xlink:title=" ">
<polygon fill="white" stroke="#bfbfbf" points="1098.5,-56.5 1098.5,-75.5 1155.5,-75.5 1155.5,-56.5 1098.5,-56.5"/>
<text text-anchor="middle" x="1127" y="-63.5" font-family="Helvetica,sans-Serif" font-size="10.00">typeinfo</text>
</a>
</g>
</g>
<!-- Node24&#45;&gt;Node28 -->
<g id="edge34" class="edge">
<title>Node24&#45;&gt;Node28</title>
<path fill="none" stroke="midnightblue" d="M1004.98,-112.44C1029.16,-103.44 1067.42,-89.19 1094.65,-79.05"/>
<polygon fill="midnightblue" stroke="midnightblue" points="1095.98,-82.29 1104.13,-75.52 1093.54,-75.73 1095.98,-82.29"/>
</g>
<!-- Node29&#45;&gt;Node9 -->
<g id="edge36" class="edge">
<title>Node29&#45;&gt;Node9</title>
<path fill="none" stroke="midnightblue" d="M1356,-168.08C1356,-161.01 1356,-150.86 1356,-141.99"/>
<polygon fill="midnightblue" stroke="midnightblue" points="1359.5,-141.75 1356,-131.75 1352.5,-141.75 1359.5,-141.75"/>
</g>
<!-- Node29&#45;&gt;Node12 -->
<g id="edge38" class="edge">
<title>Node29&#45;&gt;Node12</title>
<path fill="none" stroke="midnightblue" d="M1374.54,-168.44C1393.62,-159.64 1423.57,-145.81 1445.44,-135.72"/>
<polygon fill="midnightblue" stroke="midnightblue" points="1446.93,-138.88 1454.55,-131.52 1444,-132.53 1446.93,-138.88"/>
</g>
<!-- Node29&#45;&gt;Node16 -->
<g id="edge37" class="edge">
<title>Node29&#45;&gt;Node16</title>
<path fill="none" stroke="midnightblue" d="M1349,-168.2C1341.97,-159.24 1330.91,-144.88 1322,-132 1299.27,-99.14 1303.62,-82.81 1274,-56 1258.26,-41.76 1237.19,-30.9 1219.39,-23.42"/>
<polygon fill="midnightblue" stroke="midnightblue" points="1220.48,-20.08 1209.9,-19.61 1217.88,-26.58 1220.48,-20.08"/>
</g>
<!-- Node30&#45;&gt;Node8 -->
<g id="edge40" class="edge">
<title>Node30&#45;&gt;Node8</title>
<path fill="none" stroke="midnightblue" d="M925.22,-280.32C910.73,-271.82 888.43,-258.73 871.51,-248.8"/>
<polygon fill="midnightblue" stroke="midnightblue" points="873.14,-245.7 862.74,-243.65 869.6,-251.74 873.14,-245.7"/>
</g>
<!-- Node30&#45;&gt;Node14 -->
<g id="edge41" class="edge">
<title>Node30&#45;&gt;Node14</title>
<path fill="none" stroke="midnightblue" d="M947.6,-280.08C954.23,-272.3 964.02,-260.8 972.06,-251.37"/>
<polygon fill="midnightblue" stroke="midnightblue" points="974.73,-253.63 978.55,-243.75 969.4,-249.09 974.73,-253.63"/>
</g>
<!-- Node31&#45;&gt;Node14 -->
<g id="edge43" class="edge">
<title>Node31&#45;&gt;Node14</title>
<path fill="none" stroke="midnightblue" d="M1072.45,-280.32C1056.01,-271.7 1030.57,-258.36 1011.53,-248.39"/>
<polygon fill="midnightblue" stroke="midnightblue" points="1012.99,-245.2 1002.51,-243.65 1009.74,-251.4 1012.99,-245.2"/>
</g>
<!-- Node32&#45;&gt;Node8 -->
<g id="edge46" class="edge">
<title>Node32&#45;&gt;Node8</title>
<path fill="none" stroke="midnightblue" d="M1110.83,-448.36C1054.91,-430.3 932.42,-383.14 867,-300 856.56,-286.73 851.85,-267.89 849.73,-253.91"/>
<polygon fill="midnightblue" stroke="midnightblue" points="853.2,-253.45 848.53,-243.94 846.25,-254.29 853.2,-253.45"/>
</g>
<!-- Node32&#45;&gt;Node11 -->
<g id="edge48" class="edge">
<title>Node32&#45;&gt;Node11</title>
<path fill="none" stroke="midnightblue" d="M1162.18,-448.44C1185.43,-439.48 1222.15,-425.31 1248.42,-415.18"/>
<polygon fill="midnightblue" stroke="midnightblue" points="1249.85,-418.38 1257.92,-411.52 1247.33,-411.85 1249.85,-418.38"/>
</g>
<!-- Node32&#45;&gt;Node16 -->
<g id="edge47" class="edge">
<title>Node32&#45;&gt;Node16</title>
<path fill="none" stroke="midnightblue" d="M1147.15,-448.39C1172.98,-417.13 1260,-310.38 1260,-291 1260,-291 1260,-291 1260,-121 1260,-81.28 1226.04,-45.5 1203.52,-26.15"/>
<polygon fill="midnightblue" stroke="midnightblue" points="1205.48,-23.24 1195.54,-19.57 1201.02,-28.63 1205.48,-23.24"/>
</g>
<!-- Node32&#45;&gt;Node18 -->
<g id="edge49" class="edge">
<title>Node32&#45;&gt;Node18</title>
<path fill="none" stroke="midnightblue" d="M1142.77,-448.34C1153.42,-414.78 1190.62,-294.44 1181,-280 1112.36,-176.93 1035.82,-226.13 918,-188 866.66,-171.39 808.07,-149.06 773.11,-135.37"/>
<polygon fill="midnightblue" stroke="midnightblue" points="774.06,-131.98 763.48,-131.58 771.5,-138.5 774.06,-131.98"/>
</g>
<!-- Node33&#45;&gt;Node29 -->
<g id="edge51" class="edge">
<title>Node33&#45;&gt;Node29</title>
<path fill="none" stroke="midnightblue" d="M1432.86,-392.3C1421.04,-359.49 1379.02,-242.88 1362.62,-197.38"/>
<polygon fill="midnightblue" stroke="midnightblue" points="1365.88,-196.1 1359.2,-187.88 1359.3,-198.48 1365.88,-196.1"/>
</g>
<!-- Node34&#45;&gt;Node4 -->
<g id="edge53" class="edge">
<title>Node34&#45;&gt;Node4</title>
<path fill="none" stroke="midnightblue" d="M670.66,-560.44C694.4,-551.48 731.91,-537.31 758.74,-527.18"/>
<polygon fill="midnightblue" stroke="midnightblue" points="760.33,-530.32 768.45,-523.52 757.86,-523.77 760.33,-530.32"/>
</g>
<!-- Node35 -->
<g id="node35" class="node">
<title>Node35</title>
<g id="a_node35"><a xlink:href="Vector_8hpp.html" target="_top" xlink:title="Definition of the Vector class template and closely related code.">
<polygon fill="white" stroke="black" points="456.5,-392.5 456.5,-411.5 563.5,-411.5 563.5,-392.5 456.5,-392.5"/>
<text text-anchor="middle" x="510" y="-399.5" font-family="Helvetica,sans-Serif" font-size="10.00">playrho/Vector.hpp</text>
</a>
</g>
</g>
<!-- Node34&#45;&gt;Node35 -->
<g id="edge54" class="edge">
<title>Node34&#45;&gt;Node35</title>
<path fill="none" stroke="midnightblue" d="M640.58,-560.08C618.39,-533.38 552.29,-453.87 523.57,-419.32"/>
<polygon fill="midnightblue" stroke="midnightblue" points="526.21,-417.02 517.12,-411.57 520.82,-421.5 526.21,-417.02"/>
</g>
<!-- Node35&#45;&gt;Node5 -->
<g id="edge56" class="edge">
<title>Node35&#45;&gt;Node5</title>
<path fill="none" stroke="midnightblue" d="M530.76,-392.44C552.32,-383.56 586.26,-369.56 610.79,-359.45"/>
<polygon fill="midnightblue" stroke="midnightblue" points="612.43,-362.56 620.34,-355.52 609.76,-356.09 612.43,-362.56"/>
</g>
<!-- Node35&#45;&gt;Node6 -->
<g id="edge55" class="edge">
<title>Node35&#45;&gt;Node6</title>
<path fill="none" stroke="midnightblue" d="M520.11,-392.3C559.13,-358.73 700.15,-237.38 750.22,-194.3"/>
<polygon fill="midnightblue" stroke="midnightblue" points="752.66,-196.82 757.96,-187.64 748.09,-191.51 752.66,-196.82"/>
</g>
<!-- Node35&#45;&gt;Node10 -->
<g id="edge59" class="edge">
<title>Node35&#45;&gt;Node10</title>
<path fill="none" stroke="midnightblue" d="M494.22,-392.47C481.8,-384.77 465.39,-372.18 458,-356 405.68,-241.54 444.61,-82.63 460.26,-29.29"/>
<polygon fill="midnightblue" stroke="midnightblue" points="463.66,-30.14 463.21,-19.56 456.96,-28.11 463.66,-30.14"/>
</g>
<!-- Node35&#45;&gt;Node13 -->
<g id="edge64" class="edge">
<title>Node35&#45;&gt;Node13</title>
<path fill="none" stroke="midnightblue" d="M563.69,-395.99C672.03,-385.89 916.08,-363.13 1029.26,-352.57"/>
<polygon fill="midnightblue" stroke="midnightblue" points="1029.84,-356.03 1039.47,-351.62 1029.19,-349.06 1029.84,-356.03"/>
</g>
<!-- Node35&#45;&gt;Node16 -->
<g id="edge57" class="edge">
<title>Node35&#45;&gt;Node16</title>
<path fill="none" stroke="midnightblue" d="M507.68,-392.26C499.41,-359.06 474.66,-239.06 528,-168 602.51,-68.73 1003.41,-26.21 1139.09,-14.52"/>
<polygon fill="midnightblue" stroke="midnightblue" points="1139.47,-18 1149.14,-13.67 1138.88,-11.03 1139.47,-18"/>
</g>
<!-- Node35&#45;&gt;Node17 -->
<g id="edge61" class="edge">
<title>Node35&#45;&gt;Node17</title>
<path fill="none" stroke="midnightblue" d="M515.02,-392.3C534.01,-359.36 601.73,-241.9 627.73,-196.81"/>
<polygon fill="midnightblue" stroke="midnightblue" points="630.91,-198.3 632.88,-187.88 624.85,-194.8 630.91,-198.3"/>
</g>
<!-- Node35&#45;&gt;Node18 -->
<g id="edge65" class="edge">
<title>Node35&#45;&gt;Node18</title>
<path fill="none" stroke="midnightblue" d="M510.66,-392.34C513.73,-358.4 529.51,-233.16 599,-168 617.77,-150.4 643.38,-139.68 667.73,-133.15"/>
<polygon fill="midnightblue" stroke="midnightblue" points="668.84,-136.49 677.71,-130.69 667.16,-129.69 668.84,-136.49"/>
</g>
<!-- Node35&#45;&gt;Node20 -->
<g id="edge60" class="edge">
<title>Node35&#45;&gt;Node20</title>
<path fill="none" stroke="midnightblue" d="M456.28,-401.65C404.16,-399.95 324.59,-391.06 266,-356 234.25,-337 214,-328 214,-291 214,-291 214,-291 214,-121 214,-88.58 221.3,-51.42 226.33,-29.64"/>
<polygon fill="midnightblue" stroke="midnightblue" points="229.77,-30.31 228.71,-19.77 222.97,-28.67 229.77,-30.31"/>
</g>
<!-- Node35&#45;&gt;Node21 -->
<g id="edge58" class="edge">
<title>Node35&#45;&gt;Node21</title>
<path fill="none" stroke="midnightblue" d="M456.23,-400.89C380.62,-397.58 252,-379.01 252,-291 252,-291 252,-291 252,-121 252,-90.9 254.5,-81.17 271,-56 279.02,-43.76 291.38,-33.11 302.25,-25.25"/>
<polygon fill="midnightblue" stroke="midnightblue" points="304.27,-28.11 310.54,-19.56 300.31,-22.33 304.27,-28.11"/>
</g>
<!-- Node36 -->
<g id="node36" class="node">
<title>Node36</title>
<g id="a_node36"><a xlink:href="InvalidArgument_8hpp.html" target="_top" xlink:title="Definition of the InvalidArgument class.">
<polygon fill="white" stroke="black" points="28,-336.5 28,-355.5 186,-355.5 186,-336.5 28,-336.5"/>
<text text-anchor="middle" x="107" y="-343.5" font-family="Helvetica,sans-Serif" font-size="10.00">playrho/InvalidArgument.hpp</text>
</a>
</g>
</g>
<!-- Node35&#45;&gt;Node36 -->
<g id="edge62" class="edge">
<title>Node35&#45;&gt;Node36</title>
<path fill="none" stroke="midnightblue" d="M456.48,-393.83C385.65,-384.34 260.43,-367.56 180.69,-356.87"/>
<polygon fill="midnightblue" stroke="midnightblue" points="181.09,-353.4 170.71,-355.54 180.16,-360.33 181.09,-353.4"/>
</g>
<!-- Node37 -->
<g id="node37" class="node">
<title>Node37</title>
<g id="a_node37"><a xlink:title=" ">
<polygon fill="white" stroke="#bfbfbf" points="74.5,-280.5 74.5,-299.5 139.5,-299.5 139.5,-280.5 74.5,-280.5"/>
<text text-anchor="middle" x="107" y="-287.5" font-family="Helvetica,sans-Serif" font-size="10.00">stdexcept</text>
</a>
</g>
</g>
<!-- Node36&#45;&gt;Node37 -->
<g id="edge63" class="edge">
<title>Node36&#45;&gt;Node37</title>
<path fill="none" stroke="midnightblue" d="M107,-336.08C107,-329.01 107,-318.86 107,-309.99"/>
<polygon fill="midnightblue" stroke="midnightblue" points="110.5,-309.75 107,-299.75 103.5,-309.75 110.5,-309.75"/>
</g>
</g>
</svg>
