<?xml version="1.0" encoding="UTF-8" standalone="no"?>
<!DOCTYPE svg PUBLIC "-//W3C//DTD SVG 1.1//EN"
 "http://www.w3.org/Graphics/SVG/1.1/DTD/svg11.dtd">
<!-- Generated by graphviz version 2.43.0 (0)
 -->
<!-- Title: Library/include/playrho/d2/WorldImplBody.hpp Pages: 1 -->
<svg width="1058pt" height="666pt"
 viewBox="0.00 0.00 1058.00 666.00" xmlns="http://www.w3.org/2000/svg" xmlns:xlink="http://www.w3.org/1999/xlink">
<g id="graph0" class="graph" transform="scale(1 1) rotate(0) translate(4 662)">
<title>Library/include/playrho/d2/WorldImplBody.hpp</title>
<polygon fill="white" stroke="transparent" points="-4,4 -4,-662 1054,-662 1054,4 -4,4"/>
<!-- Node1 -->
<g id="node1" class="node">
<title>Node1</title>
<g id="a_node1"><a xlink:title="Declarations of free functions of WorldImpl for bodies.">
<polygon fill="#bfbfbf" stroke="black" points="356,-627.5 356,-657.5 484,-657.5 484,-627.5 356,-627.5"/>
<text text-anchor="start" x="364" y="-645.5" font-family="Helvetica,sans-Serif" font-size="10.00">Library/include/playrho</text>
<text text-anchor="middle" x="420" y="-634.5" font-family="Helvetica,sans-Serif" font-size="10.00">/d2/WorldImplBody.hpp</text>
</a>
</g>
</g>
<!-- Node2 -->
<g id="node2" class="node">
<title>Node2</title>
<g id="a_node2"><a xlink:title=" ">
<polygon fill="white" stroke="#bfbfbf" points="295.5,-571.5 295.5,-590.5 342.5,-590.5 342.5,-571.5 295.5,-571.5"/>
<text text-anchor="middle" x="319" y="-578.5" font-family="Helvetica,sans-Serif" font-size="10.00">vector</text>
</a>
</g>
</g>
<!-- Node1&#45;&gt;Node2 -->
<g id="edge1" class="edge">
<title>Node1&#45;&gt;Node2</title>
<path fill="none" stroke="midnightblue" d="M396.06,-627.4C379.87,-617.86 358.59,-605.32 342.5,-595.84"/>
<polygon fill="midnightblue" stroke="midnightblue" points="344.09,-592.72 333.7,-590.66 340.54,-598.75 344.09,-592.72"/>
</g>
<!-- Node3 -->
<g id="node3" class="node">
<title>Node3</title>
<g id="a_node3"><a xlink:href="BodyID_8hpp.html" target="_top" xlink:title="Definition of the BodyID alias and closely related code.">
<polygon fill="white" stroke="black" points="497.5,-571.5 497.5,-590.5 610.5,-590.5 610.5,-571.5 497.5,-571.5"/>
<text text-anchor="middle" x="554" y="-578.5" font-family="Helvetica,sans-Serif" font-size="10.00">playrho/BodyID.hpp</text>
</a>
</g>
</g>
<!-- Node1&#45;&gt;Node3 -->
<g id="edge2" class="edge">
<title>Node1&#45;&gt;Node3</title>
<path fill="none" stroke="midnightblue" d="M451.76,-627.4C474.04,-617.51 503.59,-604.38 525.19,-594.79"/>
<polygon fill="midnightblue" stroke="midnightblue" points="526.78,-597.91 534.5,-590.66 523.94,-591.52 526.78,-597.91"/>
</g>
<!-- Node36 -->
<g id="node36" class="node">
<title>Node36</title>
<g id="a_node36"><a xlink:href="ShapeID_8hpp.html" target="_top" xlink:title="Definition of the ShapeID alias and closely related code.">
<polygon fill="white" stroke="black" points="361,-571.5 361,-590.5 479,-590.5 479,-571.5 361,-571.5"/>
<text text-anchor="middle" x="420" y="-578.5" font-family="Helvetica,sans-Serif" font-size="10.00">playrho/ShapeID.hpp</text>
</a>
</g>
</g>
<!-- Node1&#45;&gt;Node36 -->
<g id="edge56" class="edge">
<title>Node1&#45;&gt;Node36</title>
<path fill="none" stroke="midnightblue" d="M420,-627.4C420,-619.47 420,-609.46 420,-600.86"/>
<polygon fill="midnightblue" stroke="midnightblue" points="423.5,-600.66 420,-590.66 416.5,-600.66 423.5,-600.66"/>
</g>
<!-- Node4 -->
<g id="node4" class="node">
<title>Node4</title>
<g id="a_node4"><a xlink:href="IndexingNamedType_8hpp.html" target="_top" xlink:title="Definition of IndexingNamedType class template and related code.">
<polygon fill="white" stroke="black" points="504,-56.5 504,-86.5 668,-86.5 668,-56.5 504,-56.5"/>
<text text-anchor="start" x="512" y="-74.5" font-family="Helvetica,sans-Serif" font-size="10.00">playrho/detail/IndexingNamed</text>
<text text-anchor="middle" x="586" y="-63.5" font-family="Helvetica,sans-Serif" font-size="10.00">Type.hpp</text>
</a>
</g>
</g>
<!-- Node3&#45;&gt;Node4 -->
<g id="edge3" class="edge">
<title>Node3&#45;&gt;Node4</title>
<path fill="none" stroke="midnightblue" d="M610.55,-578.44C734.48,-573.48 1019,-553.06 1019,-470 1019,-470 1019,-470 1019,-356 1019,-276.49 1039.14,-243.75 993,-179 961.62,-134.97 936.28,-140.15 885,-123 817.75,-100.5 738.48,-87.7 678.47,-80.62"/>
<polygon fill="midnightblue" stroke="midnightblue" points="678.59,-77.11 668.25,-79.44 677.79,-84.06 678.59,-77.11"/>
</g>
<!-- Node8 -->
<g id="node8" class="node">
<title>Node8</title>
<g id="a_node8"><a xlink:href="Settings_8hpp.html" target="_top" xlink:title="Types and default settings file.">
<polygon fill="white" stroke="black" points="428.5,-515.5 428.5,-534.5 545.5,-534.5 545.5,-515.5 428.5,-515.5"/>
<text text-anchor="middle" x="487" y="-522.5" font-family="Helvetica,sans-Serif" font-size="10.00">playrho/Settings.hpp</text>
</a>
</g>
</g>
<!-- Node3&#45;&gt;Node8 -->
<g id="edge7" class="edge">
<title>Node3&#45;&gt;Node8</title>
<path fill="none" stroke="midnightblue" d="M543.24,-571.32C533.23,-563.26 518.11,-551.08 506.07,-541.37"/>
<polygon fill="midnightblue" stroke="midnightblue" points="507.94,-538.38 497.96,-534.83 503.55,-543.83 507.94,-538.38"/>
</g>
<!-- Node5 -->
<g id="node5" class="node">
<title>Node5</title>
<g id="a_node5"><a xlink:title=" ">
<polygon fill="white" stroke="#bfbfbf" points="249.5,-0.5 249.5,-19.5 294.5,-19.5 294.5,-0.5 249.5,-0.5"/>
<text text-anchor="middle" x="272" y="-7.5" font-family="Helvetica,sans-Serif" font-size="10.00">utility</text>
</a>
</g>
</g>
<!-- Node4&#45;&gt;Node5 -->
<g id="edge4" class="edge">
<title>Node4&#45;&gt;Node5</title>
<path fill="none" stroke="midnightblue" d="M511.98,-56.47C446.27,-44.02 353.35,-26.42 304.66,-17.19"/>
<polygon fill="midnightblue" stroke="midnightblue" points="305.16,-13.72 294.68,-15.3 303.86,-20.6 305.16,-13.72"/>
</g>
<!-- Node6 -->
<g id="node6" class="node">
<title>Node6</title>
<g id="a_node6"><a xlink:title=" ">
<polygon fill="white" stroke="#bfbfbf" points="473.5,-0.5 473.5,-19.5 538.5,-19.5 538.5,-0.5 473.5,-0.5"/>
<text text-anchor="middle" x="506" y="-7.5" font-family="Helvetica,sans-Serif" font-size="10.00">functional</text>
</a>
</g>
</g>
<!-- Node4&#45;&gt;Node6 -->
<g id="edge5" class="edge">
<title>Node4&#45;&gt;Node6</title>
<path fill="none" stroke="midnightblue" d="M567.04,-56.4C554.58,-47.13 538.3,-35.03 525.69,-25.65"/>
<polygon fill="midnightblue" stroke="midnightblue" points="527.75,-22.82 517.64,-19.66 523.58,-28.43 527.75,-22.82"/>
</g>
<!-- Node7 -->
<g id="node7" class="node">
<title>Node7</title>
<g id="a_node7"><a xlink:title=" ">
<polygon fill="white" stroke="#bfbfbf" points="699.5,-0.5 699.5,-19.5 768.5,-19.5 768.5,-0.5 699.5,-0.5"/>
<text text-anchor="middle" x="734" y="-7.5" font-family="Helvetica,sans-Serif" font-size="10.00">type_traits</text>
</a>
</g>
</g>
<!-- Node4&#45;&gt;Node7 -->
<g id="edge6" class="edge">
<title>Node4&#45;&gt;Node7</title>
<path fill="none" stroke="midnightblue" d="M621.07,-56.4C646.02,-46.37 679.21,-33.03 703.14,-23.4"/>
<polygon fill="midnightblue" stroke="midnightblue" points="704.49,-26.64 712.46,-19.66 701.88,-20.14 704.49,-26.64"/>
</g>
<!-- Node9 -->
<g id="node9" class="node">
<title>Node9</title>
<g id="a_node9"><a xlink:title=" ">
<polygon fill="white" stroke="#bfbfbf" points="673.5,-459.5 673.5,-478.5 726.5,-478.5 726.5,-459.5 673.5,-459.5"/>
<text text-anchor="middle" x="700" y="-466.5" font-family="Helvetica,sans-Serif" font-size="10.00">cstddef</text>
</a>
</g>
</g>
<!-- Node8&#45;&gt;Node9 -->
<g id="edge8" class="edge">
<title>Node8&#45;&gt;Node9</title>
<path fill="none" stroke="midnightblue" d="M520.75,-515.44C559.71,-505.57 623.54,-489.38 663.59,-479.23"/>
<polygon fill="midnightblue" stroke="midnightblue" points="664.64,-482.58 673.47,-476.73 662.92,-475.79 664.64,-482.58"/>
</g>
<!-- Node10 -->
<g id="node10" class="node">
<title>Node10</title>
<g id="a_node10"><a xlink:title=" ">
<polygon fill="white" stroke="#bfbfbf" points="932,-179.5 932,-198.5 984,-198.5 984,-179.5 932,-179.5"/>
<text text-anchor="middle" x="958" y="-186.5" font-family="Helvetica,sans-Serif" font-size="10.00">cassert</text>
</a>
</g>
</g>
<!-- Node8&#45;&gt;Node10 -->
<g id="edge9" class="edge">
<title>Node8&#45;&gt;Node10</title>
<path fill="none" stroke="midnightblue" d="M545.81,-520.3C659.77,-511.78 903.92,-486.37 954,-423 1004.54,-359.05 978.01,-251.45 964.41,-208.51"/>
<polygon fill="midnightblue" stroke="midnightblue" points="967.68,-207.23 961.22,-198.84 961.03,-209.43 967.68,-207.23"/>
</g>
<!-- Node11 -->
<g id="node11" class="node">
<title>Node11</title>
<g id="a_node11"><a xlink:title=" ">
<polygon fill="white" stroke="#bfbfbf" points="299,-459.5 299,-478.5 343,-478.5 343,-459.5 299,-459.5"/>
<text text-anchor="middle" x="321" y="-466.5" font-family="Helvetica,sans-Serif" font-size="10.00">cfloat</text>
</a>
</g>
</g>
<!-- Node8&#45;&gt;Node11 -->
<g id="edge10" class="edge">
<title>Node8&#45;&gt;Node11</title>
<path fill="none" stroke="midnightblue" d="M460.7,-515.44C431.41,-505.92 384.09,-490.52 352.76,-480.33"/>
<polygon fill="midnightblue" stroke="midnightblue" points="353.79,-476.99 343.2,-477.22 351.62,-483.64 353.79,-476.99"/>
</g>
<!-- Node12 -->
<g id="node12" class="node">
<title>Node12</title>
<g id="a_node12"><a xlink:title=" ">
<polygon fill="white" stroke="#bfbfbf" points="461.5,-235.5 461.5,-254.5 508.5,-254.5 508.5,-235.5 461.5,-235.5"/>
<text text-anchor="middle" x="485" y="-242.5" font-family="Helvetica,sans-Serif" font-size="10.00">cmath</text>
</a>
</g>
</g>
<!-- Node8&#45;&gt;Node12 -->
<g id="edge11" class="edge">
<title>Node8&#45;&gt;Node12</title>
<path fill="none" stroke="midnightblue" d="M481.44,-515.27C470.45,-497.15 447,-453.83 447,-414 447,-414 447,-414 447,-356 447,-321.81 463.6,-284.76 474.86,-263.57"/>
<polygon fill="midnightblue" stroke="midnightblue" points="477.95,-265.22 479.72,-254.77 471.82,-261.83 477.95,-265.22"/>
</g>
<!-- Node13 -->
<g id="node13" class="node">
<title>Node13</title>
<g id="a_node13"><a xlink:title=" ">
<polygon fill="white" stroke="#bfbfbf" points="611,-123.5 611,-142.5 661,-142.5 661,-123.5 611,-123.5"/>
<text text-anchor="middle" x="636" y="-130.5" font-family="Helvetica,sans-Serif" font-size="10.00">cstdint</text>
</a>
</g>
</g>
<!-- Node8&#45;&gt;Node13 -->
<g id="edge12" class="edge">
<title>Node8&#45;&gt;Node13</title>
<path fill="none" stroke="midnightblue" d="M478,-515.23C469.86,-506.75 458.22,-493.13 452,-479 408.32,-379.74 392.26,-325.5 452,-235 470.56,-206.89 558.25,-166.72 605.56,-146.55"/>
<polygon fill="midnightblue" stroke="midnightblue" points="607.15,-149.68 615.01,-142.57 604.43,-143.23 607.15,-149.68"/>
</g>
<!-- Node14 -->
<g id="node14" class="node">
<title>Node14</title>
<g id="a_node14"><a xlink:title=" ">
<polygon fill="white" stroke="#bfbfbf" points="0,-0.5 0,-19.5 64,-19.5 64,-0.5 0,-0.5"/>
<text text-anchor="middle" x="32" y="-7.5" font-family="Helvetica,sans-Serif" font-size="10.00">algorithm</text>
</a>
</g>
</g>
<!-- Node8&#45;&gt;Node14 -->
<g id="edge13" class="edge">
<title>Node8&#45;&gt;Node14</title>
<path fill="none" stroke="midnightblue" d="M428.25,-524.4C376.36,-522.24 300.41,-512.78 244,-479 212.26,-459.99 192,-451 192,-414 192,-414 192,-414 192,-300 192,-182.66 75.39,-197.53 36,-87 29.36,-68.37 29.12,-45.55 30.06,-29.8"/>
<polygon fill="midnightblue" stroke="midnightblue" points="33.56,-30 30.88,-19.75 26.58,-29.43 33.56,-30"/>
</g>
<!-- Node15 -->
<g id="node15" class="node">
<title>Node15</title>
<g id="a_node15"><a xlink:href="RealConstants_8hpp.html" target="_top" xlink:title="Definitions file for constant expressions of type Real.">
<polygon fill="white" stroke="black" points="573,-403.5 573,-422.5 721,-422.5 721,-403.5 573,-403.5"/>
<text text-anchor="middle" x="647" y="-410.5" font-family="Helvetica,sans-Serif" font-size="10.00">playrho/RealConstants.hpp</text>
</a>
</g>
</g>
<!-- Node8&#45;&gt;Node15 -->
<g id="edge14" class="edge">
<title>Node8&#45;&gt;Node15</title>
<path fill="none" stroke="midnightblue" d="M513.6,-515.37C534.69,-507.76 564.29,-495.35 587,-479 605.99,-465.32 623.63,-444.9 634.8,-430.61"/>
<polygon fill="midnightblue" stroke="midnightblue" points="637.61,-432.69 640.87,-422.61 632.04,-428.46 637.61,-432.69"/>
</g>
<!-- Node21 -->
<g id="node21" class="node">
<title>Node21</title>
<g id="a_node21"><a xlink:href="Templates_8hpp.html" target="_top" xlink:title="Definitions of miscellaneous template related code.">
<polygon fill="white" stroke="black" points="130,-123.5 130,-142.5 258,-142.5 258,-123.5 130,-123.5"/>
<text text-anchor="middle" x="194" y="-130.5" font-family="Helvetica,sans-Serif" font-size="10.00">playrho/Templates.hpp</text>
</a>
</g>
</g>
<!-- Node8&#45;&gt;Node21 -->
<g id="edge48" class="edge">
<title>Node8&#45;&gt;Node21</title>
<path fill="none" stroke="midnightblue" d="M428.36,-523.56C352.51,-519.55 230,-499.78 230,-414 230,-414 230,-414 230,-244 230,-209.98 214.26,-172.85 203.59,-151.6"/>
<polygon fill="midnightblue" stroke="midnightblue" points="206.59,-149.77 198.86,-142.53 200.38,-153.01 206.59,-149.77"/>
</g>
<!-- Node34 -->
<g id="node34" class="node">
<title>Node34</title>
<g id="a_node34"><a xlink:href="Units_8hpp.html" target="_top" xlink:title="Declarations for physical units possibly backed by strong types.">
<polygon fill="white" stroke="black" points="475.5,-459.5 475.5,-478.5 578.5,-478.5 578.5,-459.5 475.5,-459.5"/>
<text text-anchor="middle" x="527" y="-466.5" font-family="Helvetica,sans-Serif" font-size="10.00">playrho/Units.hpp</text>
</a>
</g>
</g>
<!-- Node8&#45;&gt;Node34 -->
<g id="edge49" class="edge">
<title>Node8&#45;&gt;Node34</title>
<path fill="none" stroke="midnightblue" d="M493.61,-515.08C499.26,-507.46 507.54,-496.26 514.45,-486.94"/>
<polygon fill="midnightblue" stroke="midnightblue" points="517.38,-488.87 520.52,-478.75 511.75,-484.7 517.38,-488.87"/>
</g>
<!-- Node35 -->
<g id="node35" class="node">
<title>Node35</title>
<g id="a_node35"><a xlink:href="WiderType_8hpp.html" target="_top" xlink:title="Definition of the WiderType alias template.">
<polygon fill="white" stroke="black" points="817,-403.5 817,-422.5 945,-422.5 945,-403.5 817,-403.5"/>
<text text-anchor="middle" x="881" y="-410.5" font-family="Helvetica,sans-Serif" font-size="10.00">playrho/WiderType.hpp</text>
</a>
</g>
</g>
<!-- Node8&#45;&gt;Node35 -->
<g id="edge54" class="edge">
<title>Node8&#45;&gt;Node35</title>
<path fill="none" stroke="midnightblue" d="M511.49,-515.36C536.73,-506.41 577.2,-491.96 612,-479 635.21,-470.36 640.24,-465.98 664,-459 715.03,-444 774.22,-432.08 817.88,-424.29"/>
<polygon fill="midnightblue" stroke="midnightblue" points="818.55,-427.72 827.79,-422.54 817.33,-420.83 818.55,-427.72"/>
</g>
<!-- Node16 -->
<g id="node16" class="node">
<title>Node16</title>
<g id="a_node16"><a xlink:href="Defines_8hpp.html" target="_top" xlink:title="Miscellaneous C&#45;preprocessor definitions.">
<polygon fill="white" stroke="black" points="762,-123.5 762,-142.5 876,-142.5 876,-123.5 762,-123.5"/>
<text text-anchor="middle" x="819" y="-130.5" font-family="Helvetica,sans-Serif" font-size="10.00">playrho/Defines.hpp</text>
</a>
</g>
</g>
<!-- Node15&#45;&gt;Node16 -->
<g id="edge15" class="edge">
<title>Node15&#45;&gt;Node16</title>
<path fill="none" stroke="midnightblue" d="M676.46,-403.48C715.74,-390.46 784.23,-361.63 818,-311 851.33,-261.03 863.5,-236.75 847,-179 844.1,-168.84 838.17,-158.75 832.51,-150.7"/>
<polygon fill="midnightblue" stroke="midnightblue" points="835.22,-148.48 826.41,-142.59 829.62,-152.69 835.22,-148.48"/>
</g>
<!-- Node17 -->
<g id="node17" class="node">
<title>Node17</title>
<g id="a_node17"><a xlink:href="Real_8hpp.html" target="_top" xlink:title="Real number definition file.">
<polygon fill="white" stroke="black" points="636.5,-347.5 636.5,-366.5 735.5,-366.5 735.5,-347.5 636.5,-347.5"/>
<text text-anchor="middle" x="686" y="-354.5" font-family="Helvetica,sans-Serif" font-size="10.00">playrho/Real.hpp</text>
</a>
</g>
</g>
<!-- Node15&#45;&gt;Node17 -->
<g id="edge16" class="edge">
<title>Node15&#45;&gt;Node17</title>
<path fill="none" stroke="midnightblue" d="M653.44,-403.08C658.95,-395.46 667.03,-384.26 673.76,-374.94"/>
<polygon fill="midnightblue" stroke="midnightblue" points="676.66,-376.91 679.68,-366.75 670.99,-372.81 676.66,-376.91"/>
</g>
<!-- Node18 -->
<g id="node18" class="node">
<title>Node18</title>
<g id="a_node18"><a xlink:href="Fixed_8hpp.html" target="_top" xlink:title="Definition of the Fixed class and closely related code.">
<polygon fill="white" stroke="black" points="622.5,-235.5 622.5,-254.5 725.5,-254.5 725.5,-235.5 622.5,-235.5"/>
<text text-anchor="middle" x="674" y="-242.5" font-family="Helvetica,sans-Serif" font-size="10.00">playrho/Fixed.hpp</text>
</a>
</g>
</g>
<!-- Node17&#45;&gt;Node18 -->
<g id="edge17" class="edge">
<title>Node17&#45;&gt;Node18</title>
<path fill="none" stroke="midnightblue" d="M734,-347.46C774.12,-338.08 821.71,-320.31 801,-291 785.99,-269.76 760.07,-258.48 735.53,-252.52"/>
<polygon fill="midnightblue" stroke="midnightblue" points="736.02,-249.04 725.51,-250.34 734.54,-255.88 736.02,-249.04"/>
</g>
<!-- Node32 -->
<g id="node32" class="node">
<title>Node32</title>
<g id="a_node32"><a xlink:href="FixedMath_8hpp.html" target="_top" xlink:title="Conventional math functions for the Fixed class template.">
<polygon fill="white" stroke="black" points="513,-291.5 513,-310.5 641,-310.5 641,-291.5 513,-291.5"/>
<text text-anchor="middle" x="577" y="-298.5" font-family="Helvetica,sans-Serif" font-size="10.00">playrho/FixedMath.hpp</text>
</a>
</g>
</g>
<!-- Node17&#45;&gt;Node32 -->
<g id="edge43" class="edge">
<title>Node17&#45;&gt;Node32</title>
<path fill="none" stroke="midnightblue" d="M668.49,-347.32C650.93,-338.62 623.67,-325.12 603.47,-315.11"/>
<polygon fill="midnightblue" stroke="midnightblue" points="604.98,-311.96 594.47,-310.65 601.88,-318.23 604.98,-311.96"/>
</g>
<!-- Node33 -->
<g id="node33" class="node">
<title>Node33</title>
<g id="a_node33"><a xlink:href="FixedLimits_8hpp.html" target="_top" xlink:title="Specialization of std::numeric_limits for Fixed.">
<polygon fill="white" stroke="black" points="659.5,-291.5 659.5,-310.5 792.5,-310.5 792.5,-291.5 659.5,-291.5"/>
<text text-anchor="middle" x="726" y="-298.5" font-family="Helvetica,sans-Serif" font-size="10.00">playrho/FixedLimits.hpp</text>
</a>
</g>
</g>
<!-- Node17&#45;&gt;Node33 -->
<g id="edge46" class="edge">
<title>Node17&#45;&gt;Node33</title>
<path fill="none" stroke="midnightblue" d="M692.61,-347.08C698.26,-339.46 706.54,-328.26 713.45,-318.94"/>
<polygon fill="midnightblue" stroke="midnightblue" points="716.38,-320.87 719.52,-310.75 710.75,-316.7 716.38,-320.87"/>
</g>
<!-- Node18&#45;&gt;Node7 -->
<g id="edge21" class="edge">
<title>Node18&#45;&gt;Node7</title>
<path fill="none" stroke="midnightblue" d="M725.72,-240.19C762.4,-235.32 811.25,-224.23 847,-199 871.58,-181.66 876.17,-171.75 885,-143 903.46,-82.93 820.85,-41.96 770.5,-23"/>
<polygon fill="midnightblue" stroke="midnightblue" points="771.49,-19.64 760.9,-19.51 769.1,-26.22 771.49,-19.64"/>
</g>
<!-- Node18&#45;&gt;Node10 -->
<g id="edge20" class="edge">
<title>Node18&#45;&gt;Node10</title>
<path fill="none" stroke="midnightblue" d="M723.65,-235.43C773.03,-226.76 850.9,-212.73 918,-199 919.26,-198.74 920.53,-198.48 921.82,-198.21"/>
<polygon fill="midnightblue" stroke="midnightblue" points="922.75,-201.59 931.78,-196.05 921.27,-194.75 922.75,-201.59"/>
</g>
<!-- Node18&#45;&gt;Node13 -->
<g id="edge18" class="edge">
<title>Node18&#45;&gt;Node13</title>
<path fill="none" stroke="midnightblue" d="M671.02,-235.37C664.86,-217.54 650.61,-176.3 642.31,-152.27"/>
<polygon fill="midnightblue" stroke="midnightblue" points="645.54,-150.9 638.97,-142.59 638.93,-153.19 645.54,-150.9"/>
</g>
<!-- Node19 -->
<g id="node19" class="node">
<title>Node19</title>
<g id="a_node19"><a xlink:title=" ">
<polygon fill="white" stroke="#bfbfbf" points="637,-0.5 637,-19.5 681,-19.5 681,-0.5 637,-0.5"/>
<text text-anchor="middle" x="659" y="-7.5" font-family="Helvetica,sans-Serif" font-size="10.00">limits</text>
</a>
</g>
</g>
<!-- Node18&#45;&gt;Node19 -->
<g id="edge19" class="edge">
<title>Node18&#45;&gt;Node19</title>
<path fill="none" stroke="midnightblue" d="M675.4,-235.27C679.44,-208.29 690.09,-123.95 677,-56 675.21,-46.7 671.52,-36.89 667.94,-28.8"/>
<polygon fill="midnightblue" stroke="midnightblue" points="671.06,-27.21 663.62,-19.66 664.73,-30.2 671.06,-27.21"/>
</g>
<!-- Node20 -->
<g id="node20" class="node">
<title>Node20</title>
<g id="a_node20"><a xlink:title=" ">
<polygon fill="white" stroke="#bfbfbf" points="548,-179.5 548,-198.5 608,-198.5 608,-179.5 548,-179.5"/>
<text text-anchor="middle" x="578" y="-186.5" font-family="Helvetica,sans-Serif" font-size="10.00">iostream</text>
</a>
</g>
</g>
<!-- Node18&#45;&gt;Node20 -->
<g id="edge22" class="edge">
<title>Node18&#45;&gt;Node20</title>
<path fill="none" stroke="midnightblue" d="M658.58,-235.32C643.46,-226.82 620.18,-213.73 602.53,-203.8"/>
<polygon fill="midnightblue" stroke="midnightblue" points="603.82,-200.51 593.39,-198.65 600.39,-206.61 603.82,-200.51"/>
</g>
<!-- Node18&#45;&gt;Node21 -->
<g id="edge23" class="edge">
<title>Node18&#45;&gt;Node21</title>
<path fill="none" stroke="midnightblue" d="M622.32,-242.67C553.19,-239.69 427.46,-230.07 325,-199 314.15,-195.71 254.61,-165.34 219.65,-147.3"/>
<polygon fill="midnightblue" stroke="midnightblue" points="220.99,-144.05 210.5,-142.57 217.78,-150.27 220.99,-144.05"/>
</g>
<!-- Node24 -->
<g id="node24" class="node">
<title>Node24</title>
<g id="a_node24"><a xlink:href="TypeInfo_8hpp.html" target="_top" xlink:title="Definition of TypeID class and closely related code.">
<polygon fill="white" stroke="black" points="334.5,-179.5 334.5,-198.5 453.5,-198.5 453.5,-179.5 334.5,-179.5"/>
<text text-anchor="middle" x="394" y="-186.5" font-family="Helvetica,sans-Serif" font-size="10.00">playrho/TypeInfo.hpp</text>
</a>
</g>
</g>
<!-- Node18&#45;&gt;Node24 -->
<g id="edge31" class="edge">
<title>Node18&#45;&gt;Node24</title>
<path fill="none" stroke="midnightblue" d="M629.63,-235.44C580.38,-225.94 500.87,-210.61 448.03,-200.42"/>
<polygon fill="midnightblue" stroke="midnightblue" points="448.64,-196.97 438.16,-198.52 447.32,-203.85 448.64,-196.97"/>
</g>
<!-- Node31 -->
<g id="node31" class="node">
<title>Node31</title>
<g id="a_node31"><a xlink:href="Wider_8hpp.html" target="_top" xlink:title="Definition of the Wider class template and specializations.">
<polygon fill="white" stroke="black" points="702,-179.5 702,-198.5 838,-198.5 838,-179.5 702,-179.5"/>
<text text-anchor="middle" x="770" y="-186.5" font-family="Helvetica,sans-Serif" font-size="10.00">playrho/detail/Wider.hpp</text>
</a>
</g>
</g>
<!-- Node18&#45;&gt;Node31 -->
<g id="edge39" class="edge">
<title>Node18&#45;&gt;Node31</title>
<path fill="none" stroke="midnightblue" d="M689.42,-235.32C704.54,-226.82 727.82,-213.73 745.47,-203.8"/>
<polygon fill="midnightblue" stroke="midnightblue" points="747.61,-206.61 754.61,-198.65 744.18,-200.51 747.61,-206.61"/>
</g>
<!-- Node22 -->
<g id="node22" class="node">
<title>Node22</title>
<g id="a_node22"><a xlink:href="detail_2Templates_8hpp.html" target="_top" xlink:title="Low&#45;level declarations for general class &amp; function templates.">
<polygon fill="white" stroke="black" points="45,-62 45,-81 203,-81 203,-62 45,-62"/>
<text text-anchor="middle" x="124" y="-69" font-family="Helvetica,sans-Serif" font-size="10.00">playrho/detail/Templates.hpp</text>
</a>
</g>
</g>
<!-- Node21&#45;&gt;Node22 -->
<g id="edge24" class="edge">
<title>Node21&#45;&gt;Node22</title>
<path fill="none" stroke="midnightblue" d="M183.97,-123.48C172.95,-114.11 155.04,-98.88 141.66,-87.51"/>
<polygon fill="midnightblue" stroke="midnightblue" points="143.9,-84.82 134.01,-81.01 139.36,-90.15 143.9,-84.82"/>
</g>
<!-- Node22&#45;&gt;Node5 -->
<g id="edge30" class="edge">
<title>Node22&#45;&gt;Node5</title>
<path fill="none" stroke="midnightblue" d="M145.2,-61.98C170.37,-51.86 212.54,-34.9 241.28,-23.35"/>
<polygon fill="midnightblue" stroke="midnightblue" points="242.86,-26.49 250.83,-19.51 240.25,-19.99 242.86,-26.49"/>
</g>
<!-- Node22&#45;&gt;Node6 -->
<g id="edge26" class="edge">
<title>Node22&#45;&gt;Node6</title>
<path fill="none" stroke="midnightblue" d="M175.17,-61.97C187.24,-59.98 200.07,-57.9 212,-56 301.3,-41.81 405.98,-25.98 463.23,-17.39"/>
<polygon fill="midnightblue" stroke="midnightblue" points="463.98,-20.82 473.35,-15.87 462.94,-13.89 463.98,-20.82"/>
</g>
<!-- Node22&#45;&gt;Node7 -->
<g id="edge29" class="edge">
<title>Node22&#45;&gt;Node7</title>
<path fill="none" stroke="midnightblue" d="M170.93,-61.98C184.18,-59.79 198.62,-57.6 212,-56 420.23,-31.05 477.22,-48.83 689.27,-19.9"/>
<polygon fill="midnightblue" stroke="midnightblue" points="690.06,-23.33 699.48,-18.49 689.1,-16.39 690.06,-23.33"/>
</g>
<!-- Node22&#45;&gt;Node14 -->
<g id="edge25" class="edge">
<title>Node22&#45;&gt;Node14</title>
<path fill="none" stroke="midnightblue" d="M110.82,-61.98C95.93,-52.34 71.46,-36.52 53.73,-25.05"/>
<polygon fill="midnightblue" stroke="midnightblue" points="55.45,-22 45.16,-19.51 51.65,-27.88 55.45,-22"/>
</g>
<!-- Node22&#45;&gt;Node19 -->
<g id="edge28" class="edge">
<title>Node22&#45;&gt;Node19</title>
<path fill="none" stroke="midnightblue" d="M172.33,-61.97C185.2,-59.86 199.11,-57.71 212,-56 366.76,-35.48 552.77,-19.54 626.56,-13.56"/>
<polygon fill="midnightblue" stroke="midnightblue" points="626.93,-17.04 636.62,-12.75 626.37,-10.06 626.93,-17.04"/>
</g>
<!-- Node23 -->
<g id="node23" class="node">
<title>Node23</title>
<g id="a_node23"><a xlink:title=" ">
<polygon fill="white" stroke="#bfbfbf" points="97.5,-0.5 97.5,-19.5 150.5,-19.5 150.5,-0.5 97.5,-0.5"/>
<text text-anchor="middle" x="124" y="-7.5" font-family="Helvetica,sans-Serif" font-size="10.00">iterator</text>
</a>
</g>
</g>
<!-- Node22&#45;&gt;Node23 -->
<g id="edge27" class="edge">
<title>Node22&#45;&gt;Node23</title>
<path fill="none" stroke="midnightblue" d="M124,-61.98C124,-53.58 124,-40.48 124,-29.66"/>
<polygon fill="midnightblue" stroke="midnightblue" points="127.5,-29.51 124,-19.51 120.5,-29.51 127.5,-29.51"/>
</g>
<!-- Node24&#45;&gt;Node21 -->
<g id="edge33" class="edge">
<title>Node24&#45;&gt;Node21</title>
<path fill="none" stroke="midnightblue" d="M362.31,-179.44C327.93,-170.16 272.92,-155.31 235.21,-145.13"/>
<polygon fill="midnightblue" stroke="midnightblue" points="236.11,-141.74 225.54,-142.52 234.28,-148.5 236.11,-141.74"/>
</g>
<!-- Node25 -->
<g id="node25" class="node">
<title>Node25</title>
<g id="a_node25"><a xlink:title=" ">
<polygon fill="white" stroke="#bfbfbf" points="443,-123.5 443,-142.5 493,-142.5 493,-123.5 443,-123.5"/>
<text text-anchor="middle" x="468" y="-130.5" font-family="Helvetica,sans-Serif" font-size="10.00">cstring</text>
</a>
</g>
</g>
<!-- Node24&#45;&gt;Node25 -->
<g id="edge32" class="edge">
<title>Node24&#45;&gt;Node25</title>
<path fill="none" stroke="midnightblue" d="M405.89,-179.32C417.15,-171.11 434.29,-158.6 447.71,-148.81"/>
<polygon fill="midnightblue" stroke="midnightblue" points="449.88,-151.56 455.89,-142.83 445.75,-145.9 449.88,-151.56"/>
</g>
<!-- Node26 -->
<g id="node26" class="node">
<title>Node26</title>
<g id="a_node26"><a xlink:href="detail_2TypeInfo_8hpp.html" target="_top" xlink:title="Definition of TypeInfo class template and related code.">
<polygon fill="white" stroke="black" points="276.5,-123.5 276.5,-142.5 425.5,-142.5 425.5,-123.5 276.5,-123.5"/>
<text text-anchor="middle" x="351" y="-130.5" font-family="Helvetica,sans-Serif" font-size="10.00">playrho/detail/TypeInfo.hpp</text>
</a>
</g>
</g>
<!-- Node24&#45;&gt;Node26 -->
<g id="edge34" class="edge">
<title>Node24&#45;&gt;Node26</title>
<path fill="none" stroke="midnightblue" d="M386.9,-179.08C380.76,-171.38 371.73,-160.03 364.26,-150.65"/>
<polygon fill="midnightblue" stroke="midnightblue" points="366.94,-148.39 357.97,-142.75 361.46,-152.75 366.94,-148.39"/>
</g>
<!-- Node27 -->
<g id="node27" class="node">
<title>Node27</title>
<g id="a_node27"><a xlink:title=" ">
<polygon fill="white" stroke="#bfbfbf" points="442,-62 442,-81 486,-81 486,-62 442,-62"/>
<text text-anchor="middle" x="464" y="-69" font-family="Helvetica,sans-Serif" font-size="10.00">regex</text>
</a>
</g>
</g>
<!-- Node26&#45;&gt;Node27 -->
<g id="edge35" class="edge">
<title>Node26&#45;&gt;Node27</title>
<path fill="none" stroke="midnightblue" d="M367.19,-123.48C385.9,-113.62 416.92,-97.29 438.8,-85.77"/>
<polygon fill="midnightblue" stroke="midnightblue" points="440.62,-88.77 447.84,-81.01 437.36,-82.57 440.62,-88.77"/>
</g>
<!-- Node28 -->
<g id="node28" class="node">
<title>Node28</title>
<g id="a_node28"><a xlink:title=" ">
<polygon fill="white" stroke="#bfbfbf" points="221,-62 221,-81 265,-81 265,-62 221,-62"/>
<text text-anchor="middle" x="243" y="-69" font-family="Helvetica,sans-Serif" font-size="10.00">string</text>
</a>
</g>
</g>
<!-- Node26&#45;&gt;Node28 -->
<g id="edge36" class="edge">
<title>Node26&#45;&gt;Node28</title>
<path fill="none" stroke="midnightblue" d="M335.53,-123.48C317.72,-113.67 288.26,-97.43 267.37,-85.92"/>
<polygon fill="midnightblue" stroke="midnightblue" points="268.89,-82.77 258.45,-81.01 265.51,-88.9 268.89,-82.77"/>
</g>
<!-- Node29 -->
<g id="node29" class="node">
<title>Node29</title>
<g id="a_node29"><a xlink:title=" ">
<polygon fill="white" stroke="#bfbfbf" points="283.5,-62 283.5,-81 348.5,-81 348.5,-62 283.5,-62"/>
<text text-anchor="middle" x="316" y="-69" font-family="Helvetica,sans-Serif" font-size="10.00">typeindex</text>
</a>
</g>
</g>
<!-- Node26&#45;&gt;Node29 -->
<g id="edge37" class="edge">
<title>Node26&#45;&gt;Node29</title>
<path fill="none" stroke="midnightblue" d="M345.99,-123.48C340.84,-114.73 332.69,-100.87 326.18,-89.81"/>
<polygon fill="midnightblue" stroke="midnightblue" points="329.09,-87.85 321.01,-81.01 323.06,-91.4 329.09,-87.85"/>
</g>
<!-- Node30 -->
<g id="node30" class="node">
<title>Node30</title>
<g id="a_node30"><a xlink:title=" ">
<polygon fill="white" stroke="#bfbfbf" points="366.5,-62 366.5,-81 423.5,-81 423.5,-62 366.5,-62"/>
<text text-anchor="middle" x="395" y="-69" font-family="Helvetica,sans-Serif" font-size="10.00">typeinfo</text>
</a>
</g>
</g>
<!-- Node26&#45;&gt;Node30 -->
<g id="edge38" class="edge">
<title>Node26&#45;&gt;Node30</title>
<path fill="none" stroke="midnightblue" d="M357.3,-123.48C363.9,-114.55 374.44,-100.31 382.69,-89.14"/>
<polygon fill="midnightblue" stroke="midnightblue" points="385.58,-91.13 388.71,-81.01 379.95,-86.97 385.58,-91.13"/>
</g>
<!-- Node31&#45;&gt;Node7 -->
<g id="edge41" class="edge">
<title>Node31&#45;&gt;Node7</title>
<path fill="none" stroke="midnightblue" d="M766.03,-179.22C762.14,-170.28 756.33,-155.94 753,-143 742.83,-103.53 737.66,-55.93 735.43,-30.04"/>
<polygon fill="midnightblue" stroke="midnightblue" points="738.89,-29.46 734.6,-19.78 731.92,-30.03 738.89,-29.46"/>
</g>
<!-- Node31&#45;&gt;Node13 -->
<g id="edge40" class="edge">
<title>Node31&#45;&gt;Node13</title>
<path fill="none" stroke="midnightblue" d="M748.77,-179.44C726.62,-170.52 691.68,-156.44 666.56,-146.32"/>
<polygon fill="midnightblue" stroke="midnightblue" points="667.72,-143.01 657.13,-142.52 665.1,-149.5 667.72,-143.01"/>
</g>
<!-- Node31&#45;&gt;Node16 -->
<g id="edge42" class="edge">
<title>Node31&#45;&gt;Node16</title>
<path fill="none" stroke="midnightblue" d="M778.09,-179.08C785.16,-171.3 795.59,-159.8 804.15,-150.37"/>
<polygon fill="midnightblue" stroke="midnightblue" points="806.93,-152.51 811.06,-142.75 801.75,-147.8 806.93,-152.51"/>
</g>
<!-- Node32&#45;&gt;Node12 -->
<g id="edge44" class="edge">
<title>Node32&#45;&gt;Node12</title>
<path fill="none" stroke="midnightblue" d="M562.22,-291.32C547.73,-282.82 525.43,-269.73 508.51,-259.8"/>
<polygon fill="midnightblue" stroke="midnightblue" points="510.14,-256.7 499.74,-254.65 506.6,-262.74 510.14,-256.7"/>
</g>
<!-- Node32&#45;&gt;Node18 -->
<g id="edge45" class="edge">
<title>Node32&#45;&gt;Node18</title>
<path fill="none" stroke="midnightblue" d="M592.58,-291.32C608,-282.74 631.81,-269.49 649.71,-259.52"/>
<polygon fill="midnightblue" stroke="midnightblue" points="651.42,-262.58 658.45,-254.65 648.01,-256.46 651.42,-262.58"/>
</g>
<!-- Node33&#45;&gt;Node18 -->
<g id="edge47" class="edge">
<title>Node33&#45;&gt;Node18</title>
<path fill="none" stroke="midnightblue" d="M717.41,-291.08C709.84,-283.22 698.62,-271.57 689.49,-262.08"/>
<polygon fill="midnightblue" stroke="midnightblue" points="691.88,-259.53 682.43,-254.75 686.84,-264.38 691.88,-259.53"/>
</g>
<!-- Node34&#45;&gt;Node7 -->
<g id="edge51" class="edge">
<title>Node34&#45;&gt;Node7</title>
<path fill="none" stroke="midnightblue" d="M578.9,-462.46C621.06,-456.58 681.3,-444.97 730,-423 890.37,-350.66 1050,-365.93 1050,-190 1050,-190 1050,-190 1050,-132 1050,-74.57 865.69,-34.29 778.59,-18.46"/>
<polygon fill="midnightblue" stroke="midnightblue" points="779.18,-15.01 768.72,-16.69 777.95,-21.9 779.18,-15.01"/>
</g>
<!-- Node34&#45;&gt;Node12 -->
<g id="edge50" class="edge">
<title>Node34&#45;&gt;Node12</title>
<path fill="none" stroke="midnightblue" d="M525.35,-459.3C519.17,-426.63 497.27,-310.87 488.59,-264.96"/>
<polygon fill="midnightblue" stroke="midnightblue" points="491.98,-264.06 486.68,-254.88 485.1,-265.36 491.98,-264.06"/>
</g>
<!-- Node34&#45;&gt;Node15 -->
<g id="edge52" class="edge">
<title>Node34&#45;&gt;Node15</title>
<path fill="none" stroke="midnightblue" d="M546.01,-459.44C565.59,-450.64 596.31,-436.81 618.73,-426.72"/>
<polygon fill="midnightblue" stroke="midnightblue" points="620.39,-429.81 628.07,-422.52 617.52,-423.43 620.39,-429.81"/>
</g>
<!-- Node34&#45;&gt;Node21 -->
<g id="edge53" class="edge">
<title>Node34&#45;&gt;Node21</title>
<path fill="none" stroke="midnightblue" d="M518.86,-459.29C485.54,-423.75 356.02,-286.4 244,-179 233.57,-169 221.54,-158.15 211.89,-149.61"/>
<polygon fill="midnightblue" stroke="midnightblue" points="213.95,-146.76 204.13,-142.78 209.33,-152.02 213.95,-146.76"/>
</g>
<!-- Node35&#45;&gt;Node31 -->
<g id="edge55" class="edge">
<title>Node35&#45;&gt;Node31</title>
<path fill="none" stroke="midnightblue" d="M881.17,-403.3C881.14,-390.54 880.05,-366.21 873,-347 852.24,-290.39 807.7,-233.62 784.59,-206.47"/>
<polygon fill="midnightblue" stroke="midnightblue" points="787.09,-204.01 777.89,-198.74 781.79,-208.59 787.09,-204.01"/>
</g>
<!-- Node36&#45;&gt;Node4 -->
<g id="edge57" class="edge">
<title>Node36&#45;&gt;Node4</title>
<path fill="none" stroke="midnightblue" d="M376.97,-571.49C301.68,-555.37 154,-517.66 154,-470 154,-470 154,-470 154,-300 154,-155.94 339.65,-275.05 462,-199 507.21,-170.9 547.97,-122.97 569.63,-94.87"/>
<polygon fill="midnightblue" stroke="midnightblue" points="572.48,-96.91 575.73,-86.83 566.9,-92.68 572.48,-96.91"/>
</g>
<!-- Node36&#45;&gt;Node8 -->
<g id="edge58" class="edge">
<title>Node36&#45;&gt;Node8</title>
<path fill="none" stroke="midnightblue" d="M430.76,-571.32C440.77,-563.26 455.89,-551.08 467.93,-541.37"/>
<polygon fill="midnightblue" stroke="midnightblue" points="470.45,-543.83 476.04,-534.83 466.06,-538.38 470.45,-543.83"/>
</g>
</g>
</svg>
