<?xml version="1.0" encoding="UTF-8" standalone="no"?>
<!DOCTYPE svg PUBLIC "-//W3C//DTD SVG 1.1//EN"
 "http://www.w3.org/Graphics/SVG/1.1/DTD/svg11.dtd">
<!-- Generated by graphviz version 2.43.0 (0)
 -->
<!-- Title: Library/include/playrho/ZeroToUnderOne.hpp Pages: 1 -->
<svg width="632pt" height="274pt"
 viewBox="0.00 0.00 631.73 274.00" xmlns="http://www.w3.org/2000/svg" xmlns:xlink="http://www.w3.org/1999/xlink">
<g id="graph0" class="graph" transform="scale(1 1) rotate(0) translate(4 270)">
<title>Library/include/playrho/ZeroToUnderOne.hpp</title>
<polygon fill="white" stroke="transparent" points="-4,4 -4,-270 627.73,-270 627.73,4 -4,4"/>
<!-- Node1 -->
<g id="node1" class="node">
<title>Node1</title>
<g id="a_node1"><a xlink:title="Definition of the ZeroToUnderOne value checked types and related code.">
<polygon fill="#bfbfbf" stroke="black" points="164.23,-235.5 164.23,-265.5 292.23,-265.5 292.23,-235.5 164.23,-235.5"/>
<text text-anchor="start" x="172.23" y="-253.5" font-family="Helvetica,sans-Serif" font-size="10.00">Library/include/playrho</text>
<text text-anchor="middle" x="228.23" y="-242.5" font-family="Helvetica,sans-Serif" font-size="10.00">/ZeroToUnderOne.hpp</text>
</a>
</g>
</g>
<!-- Node2 -->
<g id="node2" class="node">
<title>Node2</title>
<g id="a_node2"><a xlink:title=" ">
<polygon fill="white" stroke="#bfbfbf" points="251.73,-0.5 251.73,-19.5 320.73,-19.5 320.73,-0.5 251.73,-0.5"/>
<text text-anchor="middle" x="286.23" y="-7.5" font-family="Helvetica,sans-Serif" font-size="10.00">type_traits</text>
</a>
</g>
</g>
<!-- Node1&#45;&gt;Node2 -->
<g id="edge1" class="edge">
<title>Node1&#45;&gt;Node2</title>
<path fill="none" stroke="midnightblue" d="M164.17,-236.88C85.21,-218.21 -33.61,-178.13 9.23,-112 59.45,-34.47 176.5,-16.06 241.22,-11.94"/>
<polygon fill="midnightblue" stroke="midnightblue" points="241.72,-15.42 251.52,-11.38 241.34,-8.43 241.72,-15.42"/>
</g>
<!-- Node3 -->
<g id="node3" class="node">
<title>Node3</title>
<g id="a_node3"><a xlink:href="Checked_8hpp.html" target="_top" xlink:title="Declarations of the Checked class template and closely related code.">
<polygon fill="white" stroke="black" points="153.73,-174 153.73,-193 302.73,-193 302.73,-174 153.73,-174"/>
<text text-anchor="middle" x="228.23" y="-181" font-family="Helvetica,sans-Serif" font-size="10.00">playrho/detail/Checked.hpp</text>
</a>
</g>
</g>
<!-- Node1&#45;&gt;Node3 -->
<g id="edge2" class="edge">
<title>Node1&#45;&gt;Node3</title>
<path fill="none" stroke="midnightblue" d="M228.23,-235.4C228.23,-226.06 228.23,-213.71 228.23,-203.52"/>
<polygon fill="midnightblue" stroke="midnightblue" points="231.73,-203.19 228.23,-193.19 224.73,-203.19 231.73,-203.19"/>
</g>
<!-- Node14 -->
<g id="node14" class="node">
<title>Node14</title>
<g id="a_node14"><a xlink:href="ZeroToUnderOneChecker_8hpp.html" target="_top" xlink:title="Definition of the ZeroToUnderOneChecker class template.">
<polygon fill="white" stroke="black" points="320.73,-168.5 320.73,-198.5 469.73,-198.5 469.73,-168.5 320.73,-168.5"/>
<text text-anchor="start" x="328.73" y="-186.5" font-family="Helvetica,sans-Serif" font-size="10.00">playrho/detail/ZeroToUnder</text>
<text text-anchor="middle" x="395.23" y="-175.5" font-family="Helvetica,sans-Serif" font-size="10.00">OneChecker.hpp</text>
</a>
</g>
</g>
<!-- Node1&#45;&gt;Node14 -->
<g id="edge17" class="edge">
<title>Node1&#45;&gt;Node14</title>
<path fill="none" stroke="midnightblue" d="M264.46,-235.4C289.41,-225.69 322.75,-212.71 349.52,-202.29"/>
<polygon fill="midnightblue" stroke="midnightblue" points="351.01,-205.47 359.06,-198.58 348.47,-198.94 351.01,-205.47"/>
</g>
<!-- Node3&#45;&gt;Node2 -->
<g id="edge4" class="edge">
<title>Node3&#45;&gt;Node2</title>
<path fill="none" stroke="midnightblue" d="M235.92,-173.87C244,-164.32 256.46,-148.13 263.23,-132 277.64,-97.61 283.09,-53.93 285.1,-29.57"/>
<polygon fill="midnightblue" stroke="midnightblue" points="288.59,-29.79 285.82,-19.56 281.61,-29.29 288.59,-29.79"/>
</g>
<!-- Node4 -->
<g id="node4" class="node">
<title>Node4</title>
<g id="a_node4"><a xlink:title=" ">
<polygon fill="white" stroke="#bfbfbf" points="18.23,-112.5 18.23,-131.5 78.23,-131.5 78.23,-112.5 18.23,-112.5"/>
<text text-anchor="middle" x="48.23" y="-119.5" font-family="Helvetica,sans-Serif" font-size="10.00">iostream</text>
</a>
</g>
</g>
<!-- Node3&#45;&gt;Node4 -->
<g id="edge3" class="edge">
<title>Node3&#45;&gt;Node4</title>
<path fill="none" stroke="midnightblue" d="M202.44,-173.98C171.29,-163.68 118.75,-146.31 83.77,-134.75"/>
<polygon fill="midnightblue" stroke="midnightblue" points="84.56,-131.32 73.97,-131.51 82.37,-137.97 84.56,-131.32"/>
</g>
<!-- Node5 -->
<g id="node5" class="node">
<title>Node5</title>
<g id="a_node5"><a xlink:title=" ">
<polygon fill="white" stroke="#bfbfbf" points="578.73,-0.5 578.73,-19.5 623.73,-19.5 623.73,-0.5 578.73,-0.5"/>
<text text-anchor="middle" x="601.23" y="-7.5" font-family="Helvetica,sans-Serif" font-size="10.00">utility</text>
</a>
</g>
</g>
<!-- Node3&#45;&gt;Node5 -->
<g id="edge5" class="edge">
<title>Node3&#45;&gt;Node5</title>
<path fill="none" stroke="midnightblue" d="M278.57,-173.97C366.24,-158.07 541.52,-121.39 582.23,-76 593.62,-63.29 598.2,-44.09 600.03,-29.85"/>
<polygon fill="midnightblue" stroke="midnightblue" points="603.54,-30 600.99,-19.71 596.57,-29.34 603.54,-30"/>
</g>
<!-- Node6 -->
<g id="node6" class="node">
<title>Node6</title>
<g id="a_node6"><a xlink:href="InvalidArgument_8hpp.html" target="_top" xlink:title="Definition of the InvalidArgument class.">
<polygon fill="white" stroke="black" points="96.23,-112.5 96.23,-131.5 254.23,-131.5 254.23,-112.5 96.23,-112.5"/>
<text text-anchor="middle" x="175.23" y="-119.5" font-family="Helvetica,sans-Serif" font-size="10.00">playrho/InvalidArgument.hpp</text>
</a>
</g>
</g>
<!-- Node3&#45;&gt;Node6 -->
<g id="edge6" class="edge">
<title>Node3&#45;&gt;Node6</title>
<path fill="none" stroke="midnightblue" d="M220.63,-173.98C212.53,-164.87 199.49,-150.24 189.46,-138.98"/>
<polygon fill="midnightblue" stroke="midnightblue" points="192.07,-136.65 182.81,-131.51 186.84,-141.3 192.07,-136.65"/>
</g>
<!-- Node8 -->
<g id="node8" class="node">
<title>Node8</title>
<g id="a_node8"><a xlink:href="Templates_8hpp.html" target="_top" xlink:title="Definitions of miscellaneous template related code.">
<polygon fill="white" stroke="black" points="310.23,-112.5 310.23,-131.5 438.23,-131.5 438.23,-112.5 310.23,-112.5"/>
<text text-anchor="middle" x="374.23" y="-119.5" font-family="Helvetica,sans-Serif" font-size="10.00">playrho/Templates.hpp</text>
</a>
</g>
</g>
<!-- Node3&#45;&gt;Node8 -->
<g id="edge8" class="edge">
<title>Node3&#45;&gt;Node8</title>
<path fill="none" stroke="midnightblue" d="M249.15,-173.98C273.97,-163.86 315.57,-146.9 343.92,-135.35"/>
<polygon fill="midnightblue" stroke="midnightblue" points="345.41,-138.52 353.35,-131.51 342.77,-132.04 345.41,-138.52"/>
</g>
<!-- Node7 -->
<g id="node7" class="node">
<title>Node7</title>
<g id="a_node7"><a xlink:title=" ">
<polygon fill="white" stroke="#bfbfbf" points="142.73,-56.5 142.73,-75.5 207.73,-75.5 207.73,-56.5 142.73,-56.5"/>
<text text-anchor="middle" x="175.23" y="-63.5" font-family="Helvetica,sans-Serif" font-size="10.00">stdexcept</text>
</a>
</g>
</g>
<!-- Node6&#45;&gt;Node7 -->
<g id="edge7" class="edge">
<title>Node6&#45;&gt;Node7</title>
<path fill="none" stroke="midnightblue" d="M175.23,-112.08C175.23,-105.01 175.23,-94.86 175.23,-85.99"/>
<polygon fill="midnightblue" stroke="midnightblue" points="178.73,-85.75 175.23,-75.75 171.73,-85.75 178.73,-85.75"/>
</g>
<!-- Node8&#45;&gt;Node2 -->
<g id="edge10" class="edge">
<title>Node8&#45;&gt;Node2</title>
<path fill="none" stroke="midnightblue" d="M367.32,-112.37C352.74,-94.14 318.57,-51.43 299.57,-27.68"/>
<polygon fill="midnightblue" stroke="midnightblue" points="302.08,-25.21 293.1,-19.59 296.61,-29.59 302.08,-25.21"/>
</g>
<!-- Node9 -->
<g id="node9" class="node">
<title>Node9</title>
<g id="a_node9"><a xlink:title=" ">
<polygon fill="white" stroke="#bfbfbf" points="348.73,-56.5 348.73,-75.5 397.73,-75.5 397.73,-56.5 348.73,-56.5"/>
<text text-anchor="middle" x="373.23" y="-63.5" font-family="Helvetica,sans-Serif" font-size="10.00">cstdlib</text>
</a>
</g>
</g>
<!-- Node8&#45;&gt;Node9 -->
<g id="edge9" class="edge">
<title>Node8&#45;&gt;Node9</title>
<path fill="none" stroke="midnightblue" d="M374.06,-112.08C373.93,-105.01 373.74,-94.86 373.58,-85.99"/>
<polygon fill="midnightblue" stroke="midnightblue" points="377.07,-85.68 373.39,-75.75 370.08,-85.81 377.07,-85.68"/>
</g>
<!-- Node10 -->
<g id="node10" class="node">
<title>Node10</title>
<g id="a_node10"><a xlink:href="detail_2Templates_8hpp.html" target="_top" xlink:title="Low&#45;level declarations for general class &amp; function templates.">
<polygon fill="white" stroke="black" points="415.23,-56.5 415.23,-75.5 573.23,-75.5 573.23,-56.5 415.23,-56.5"/>
<text text-anchor="middle" x="494.23" y="-63.5" font-family="Helvetica,sans-Serif" font-size="10.00">playrho/detail/Templates.hpp</text>
</a>
</g>
</g>
<!-- Node8&#45;&gt;Node10 -->
<g id="edge11" class="edge">
<title>Node8&#45;&gt;Node10</title>
<path fill="none" stroke="midnightblue" d="M393.24,-112.44C412.81,-103.64 443.53,-89.81 465.96,-79.72"/>
<polygon fill="midnightblue" stroke="midnightblue" points="467.62,-82.81 475.3,-75.52 464.75,-76.43 467.62,-82.81"/>
</g>
<!-- Node10&#45;&gt;Node2 -->
<g id="edge15" class="edge">
<title>Node10&#45;&gt;Node2</title>
<path fill="none" stroke="midnightblue" d="M461.27,-56.44C425.44,-47.14 368.06,-32.25 328.84,-22.06"/>
<polygon fill="midnightblue" stroke="midnightblue" points="329.59,-18.64 319.03,-19.52 327.83,-25.42 329.59,-18.64"/>
</g>
<!-- Node10&#45;&gt;Node5 -->
<g id="edge16" class="edge">
<title>Node10&#45;&gt;Node5</title>
<path fill="none" stroke="midnightblue" d="M511.42,-56.32C528.58,-47.66 555.17,-34.24 574.97,-24.25"/>
<polygon fill="midnightblue" stroke="midnightblue" points="576.73,-27.28 584.08,-19.65 573.57,-21.04 576.73,-27.28"/>
</g>
<!-- Node11 -->
<g id="node11" class="node">
<title>Node11</title>
<g id="a_node11"><a xlink:title=" ">
<polygon fill="white" stroke="#bfbfbf" points="413.23,-0.5 413.23,-19.5 477.23,-19.5 477.23,-0.5 413.23,-0.5"/>
<text text-anchor="middle" x="445.23" y="-7.5" font-family="Helvetica,sans-Serif" font-size="10.00">algorithm</text>
</a>
</g>
</g>
<!-- Node10&#45;&gt;Node11 -->
<g id="edge12" class="edge">
<title>Node10&#45;&gt;Node11</title>
<path fill="none" stroke="midnightblue" d="M486.14,-56.08C479.07,-48.3 468.64,-36.8 460.08,-27.37"/>
<polygon fill="midnightblue" stroke="midnightblue" points="462.48,-24.8 453.17,-19.75 457.3,-29.51 462.48,-24.8"/>
</g>
<!-- Node12 -->
<g id="node12" class="node">
<title>Node12</title>
<g id="a_node12"><a xlink:title=" ">
<polygon fill="white" stroke="#bfbfbf" points="495.73,-0.5 495.73,-19.5 560.73,-19.5 560.73,-0.5 495.73,-0.5"/>
<text text-anchor="middle" x="528.23" y="-7.5" font-family="Helvetica,sans-Serif" font-size="10.00">functional</text>
</a>
</g>
</g>
<!-- Node10&#45;&gt;Node12 -->
<g id="edge13" class="edge">
<title>Node10&#45;&gt;Node12</title>
<path fill="none" stroke="midnightblue" d="M499.84,-56.08C504.59,-48.53 511.55,-37.49 517.38,-28.23"/>
<polygon fill="midnightblue" stroke="midnightblue" points="520.35,-30.08 522.72,-19.75 514.43,-26.35 520.35,-30.08"/>
</g>
<!-- Node13 -->
<g id="node13" class="node">
<title>Node13</title>
<g id="a_node13"><a xlink:title=" ">
<polygon fill="white" stroke="#bfbfbf" points="341.73,-0.5 341.73,-19.5 394.73,-19.5 394.73,-0.5 341.73,-0.5"/>
<text text-anchor="middle" x="368.23" y="-7.5" font-family="Helvetica,sans-Serif" font-size="10.00">iterator</text>
</a>
</g>
</g>
<!-- Node10&#45;&gt;Node13 -->
<g id="edge14" class="edge">
<title>Node10&#45;&gt;Node13</title>
<path fill="none" stroke="midnightblue" d="M474.26,-56.44C453.62,-47.6 421.16,-33.69 397.6,-23.59"/>
<polygon fill="midnightblue" stroke="midnightblue" points="398.67,-20.24 388.1,-19.52 395.91,-26.67 398.67,-20.24"/>
</g>
</g>
</svg>
